<svg width="312" height="143" viewBox="0 0 312 143" fill="none" xmlns="http://www.w3.org/2000/svg">
<path d="M274.55 29.26C274.205 29.26 273.875 29.123 273.631 28.8792C273.387 28.6354 273.25 28.3048 273.25 27.96V23.52C273.25 23.1752 273.387 22.8446 273.631 22.6008C273.875 22.357 274.205 22.22 274.55 22.22C274.895 22.22 275.225 22.357 275.469 22.6008C275.713 22.8446 275.85 23.1752 275.85 23.52V28C275.84 28.3378 275.698 28.6583 275.455 28.8935C275.213 29.1287 274.888 29.2602 274.55 29.26Z" fill="#88D1C3"/>
<path d="M284.16 34.44H279.73C279.385 34.44 279.055 34.303 278.811 34.0592C278.567 33.8154 278.43 33.4848 278.43 33.14C278.43 32.7952 278.567 32.4646 278.811 32.2208C279.055 31.977 279.385 31.84 279.73 31.84H284.16C284.331 31.84 284.5 31.8736 284.657 31.939C284.815 32.0043 284.959 32.1 285.079 32.2208C285.2 32.3415 285.296 32.4848 285.361 32.6425C285.426 32.8002 285.46 32.9693 285.46 33.14C285.46 33.3107 285.426 33.4798 285.361 33.6375C285.296 33.7952 285.2 33.9385 285.079 34.0592C284.959 34.18 284.815 34.2757 284.657 34.341C284.5 34.4064 284.331 34.44 284.16 34.44V34.44Z" fill="#88D1C3"/>
<path d="M274.55 44.05C274.205 44.05 273.875 43.913 273.631 43.6692C273.387 43.4254 273.25 43.0948 273.25 42.75V38.31C273.25 37.9652 273.387 37.6346 273.631 37.3908C273.875 37.147 274.205 37.01 274.55 37.01C274.895 37.01 275.225 37.147 275.469 37.3908C275.713 37.6346 275.85 37.9652 275.85 38.31V42.75C275.85 43.0948 275.713 43.4254 275.469 43.6692C275.225 43.913 274.895 44.05 274.55 44.05Z" fill="#88D1C3"/>
<path d="M269.37 34.44H264.94C264.595 34.44 264.265 34.303 264.021 34.0592C263.777 33.8154 263.64 33.4848 263.64 33.14C263.64 32.7952 263.777 32.4646 264.021 32.2208C264.265 31.977 264.595 31.84 264.94 31.84H269.37C269.715 31.84 270.045 31.977 270.289 32.2208C270.533 32.4646 270.67 32.7952 270.67 33.14C270.67 33.4848 270.533 33.8154 270.289 34.0592C270.045 34.303 269.715 34.44 269.37 34.44V34.44Z" fill="#88D1C3"/>
<path d="M133.59 131.54C133.245 131.54 132.915 131.403 132.671 131.159C132.427 130.915 132.29 130.585 132.29 130.24V126.66C132.29 126.315 132.427 125.985 132.671 125.741C132.915 125.497 133.245 125.36 133.59 125.36C133.935 125.36 134.265 125.497 134.509 125.741C134.753 125.985 134.89 126.315 134.89 126.66V130.24C134.89 130.411 134.856 130.58 134.791 130.737C134.726 130.895 134.63 131.039 134.509 131.159C134.389 131.28 134.245 131.376 134.087 131.441C133.93 131.506 133.761 131.54 133.59 131.54V131.54Z" fill="#88D1C3"/>
<path d="M141.09 135.46H137.5C137.155 135.46 136.825 135.323 136.581 135.079C136.337 134.835 136.2 134.505 136.2 134.16C136.2 133.815 136.337 133.485 136.581 133.241C136.825 132.997 137.155 132.86 137.5 132.86H141.09C141.435 132.86 141.765 132.997 142.009 133.241C142.253 133.485 142.39 133.815 142.39 134.16C142.39 134.505 142.253 134.835 142.009 135.079C141.765 135.323 141.435 135.46 141.09 135.46V135.46Z" fill="#88D1C3"/>
<path d="M133.59 143C133.245 143 132.915 142.863 132.671 142.619C132.427 142.375 132.29 142.045 132.29 141.7V138.11C132.29 137.765 132.427 137.435 132.671 137.191C132.915 136.947 133.245 136.81 133.59 136.81C133.935 136.81 134.265 136.947 134.509 137.191C134.753 137.435 134.89 137.765 134.89 138.11V141.7C134.89 141.871 134.856 142.04 134.791 142.197C134.726 142.355 134.63 142.499 134.509 142.619C134.389 142.74 134.245 142.836 134.087 142.901C133.93 142.966 133.761 143 133.59 143V143Z" fill="#88D1C3"/>
<path d="M129.68 135.46H126.09C125.745 135.46 125.415 135.323 125.171 135.079C124.927 134.835 124.79 134.505 124.79 134.16C124.79 133.815 124.927 133.485 125.171 133.241C125.415 132.997 125.745 132.86 126.09 132.86H129.68C130.025 132.86 130.355 132.997 130.599 133.241C130.843 133.485 130.98 133.815 130.98 134.16C130.98 134.505 130.843 134.835 130.599 135.079C130.355 135.323 130.025 135.46 129.68 135.46V135.46Z" fill="#88D1C3"/>
<path d="M54.08 31.63C55.6651 31.63 56.95 30.3451 56.95 28.76C56.95 27.1749 55.6651 25.89 54.08 25.89C52.495 25.89 51.21 27.1749 51.21 28.76C51.21 30.3451 52.495 31.63 54.08 31.63Z" fill="#88D1C3"/>
<path d="M309.12 127.31C310.622 127.31 311.84 126.092 311.84 124.59C311.84 123.088 310.622 121.87 309.12 121.87C307.618 121.87 306.4 123.088 306.4 124.59C306.4 126.092 307.618 127.31 309.12 127.31Z" fill="#88D1C3"/>
<path d="M162.79 6.86C164.563 6.86 166 5.42284 166 3.65C166 1.87717 164.563 0.440002 162.79 0.440002C161.017 0.440002 159.58 1.87717 159.58 3.65C159.58 5.42284 161.017 6.86 162.79 6.86Z" fill="#88D1C3"/>
<path d="M1.98999 120.89C3.0559 120.89 3.92001 120.026 3.92001 118.96C3.92001 117.894 3.0559 117.03 1.98999 117.03C0.924081 117.03 0.0599976 117.894 0.0599976 118.96C0.0599976 120.026 0.924081 120.89 1.98999 120.89Z" fill="#88D1C3"/>
<path d="M295.62 70L306.47 78.85C306.962 79.2524 307.358 79.7589 307.63 80.3331C307.902 80.9072 308.043 81.5347 308.043 82.17C308.043 82.8053 307.902 83.4328 307.63 84.0069C307.358 84.5811 306.962 85.0876 306.47 85.49L295.62 94.34C294.991 94.8522 294.23 95.1758 293.425 95.2733C292.62 95.3707 291.804 95.238 291.072 94.8905C290.339 94.543 289.72 93.995 289.286 93.3099C288.852 92.6249 288.621 91.8309 288.62 91.02V73.32C288.621 72.5091 288.852 71.7151 289.286 71.0301C289.72 70.345 290.339 69.797 291.072 69.4495C291.804 69.102 292.62 68.9693 293.425 69.0667C294.23 69.1642 294.991 69.4878 295.62 70V70Z" fill="#4F457C"/>
<path d="M17.04 82.2H281.95" stroke="#4F457C" stroke-width="5" stroke-miterlimit="10" stroke-linecap="round"/>
</svg>
