<svg width="270" height="144" viewBox="0 0 270 144" fill="none" xmlns="http://www.w3.org/2000/svg">
<path d="M245.25 114.07C246.747 114.07 247.96 112.857 247.96 111.36C247.96 109.863 246.747 108.65 245.25 108.65C243.753 108.65 242.54 109.863 242.54 111.36C242.54 112.857 243.753 114.07 245.25 114.07Z" fill="#88D1C3"/>
<path d="M266.29 6.16003C267.98 6.16003 269.35 4.79003 269.35 3.10004C269.35 1.41005 267.98 0.0400391 266.29 0.0400391C264.6 0.0400391 263.23 1.41005 263.23 3.10004C263.23 4.79003 264.6 6.16003 266.29 6.16003Z" fill="#88D1C3"/>
<path d="M128.97 143.06C130.511 143.06 131.76 141.811 131.76 140.27C131.76 138.729 130.511 137.48 128.97 137.48C127.429 137.48 126.18 138.729 126.18 140.27C126.18 141.811 127.429 143.06 128.97 143.06Z" fill="#88D1C3"/>
<path d="M41.7799 118.79C43.0943 118.79 44.1599 117.724 44.1599 116.41C44.1599 115.096 43.0943 114.03 41.7799 114.03C40.4655 114.03 39.3999 115.096 39.3999 116.41C39.3999 117.724 40.4655 118.79 41.7799 118.79Z" fill="#88D1C3"/>
<path d="M12.6501 49.3199L1.80011 58.17C1.30842 58.5724 0.912242 59.0789 0.640198 59.6531C0.368154 60.2272 0.227051 60.8546 0.227051 61.49C0.227051 62.1253 0.368154 62.7528 0.640198 63.3269C0.912242 63.9011 1.30842 64.4076 1.80011 64.8099L12.6501 73.66C13.2775 74.1764 14.0389 74.5035 14.8454 74.6032C15.6519 74.7028 16.4701 74.5708 17.2043 74.2225C17.9385 73.8743 18.5584 73.3243 18.9915 72.6367C19.4246 71.9492 19.6531 71.1526 19.6501 70.34V52.64C19.6531 51.8274 19.4246 51.0307 18.9915 50.3432C18.5584 49.6557 17.9385 49.1056 17.2043 48.7574C16.4701 48.4092 15.6519 48.2771 14.8454 48.3768C14.0389 48.4764 13.2775 48.8035 12.6501 49.3199V49.3199Z" fill="#4F457C"/>
<path d="M258.23 61.49H30.2" stroke="#4F457C" stroke-width="5" stroke-miterlimit="10" stroke-linecap="round"/>
</svg>
