<svg width="27" height="79" viewBox="0 0 27 79" fill="none" xmlns="http://www.w3.org/2000/svg">
<path d="M26.0001 12.87L17.1901 2C16.7898 1.50509 16.2839 1.10596 15.7095 0.831757C15.1351 0.557558 14.5066 0.415222 13.8701 0.415222C13.2336 0.415222 12.6051 0.557558 12.0307 0.831757C11.4562 1.10596 10.9504 1.50509 10.5501 2L1.70011 12.85C1.18368 13.4774 0.856523 14.2388 0.756899 15.0453C0.657275 15.8518 0.789292 16.6699 1.13751 17.4041C1.48574 18.1383 2.03579 18.7583 2.72333 19.1914C3.41087 19.6245 4.20749 19.8529 5.02008 19.85H22.7201C23.5257 19.8423 24.3128 19.6074 24.9908 19.1723C25.6689 18.7372 26.2103 18.1196 26.553 17.3905C26.8956 16.6613 27.0255 15.8503 26.9277 15.0506C26.8299 14.2509 26.5084 13.4951 26.0001 12.87V12.87Z" fill="#4F457C"/>
<path d="M13.8701 75.82V33.73" stroke="#4F457C" stroke-width="5" stroke-miterlimit="10" stroke-linecap="round"/>
</svg>
