<svg width="28" height="81" viewBox="0 0 28 81" fill="none" xmlns="http://www.w3.org/2000/svg">
<path d="M26.14 68.12L17.29 79C16.8876 79.4917 16.381 79.8879 15.8068 80.1599C15.2327 80.432 14.6053 80.5731 13.9699 80.5731C13.3346 80.5731 12.7072 80.432 12.133 80.1599C11.5588 79.8879 11.0523 79.4917 10.65 79L1.79993 68.14C1.28351 67.5126 0.956377 66.7512 0.856753 65.9447C0.757129 65.1383 0.889146 64.3201 1.23737 63.5859C1.58559 62.8517 2.13564 62.2318 2.82318 61.7987C3.51073 61.3655 4.30734 61.1371 5.11994 61.14H22.8199C23.6289 61.1402 24.4214 61.3696 25.1053 61.8018C25.7892 62.2339 26.3367 62.8511 26.6841 63.5816C27.0316 64.3122 27.1649 65.1263 27.0685 65.9295C26.9722 66.7328 26.6503 67.4923 26.14 68.12V68.12Z" fill="#4F457C"/>
<path d="M13.97 2.81V44.9" stroke="#4F457C" stroke-width="5" stroke-miterlimit="10" stroke-linecap="round"/>
</svg>
