<svg width="471" height="318" viewBox="0 0 471 318" fill="none" xmlns="http://www.w3.org/2000/svg">
<path opacity="0.6" d="M167.21 156.09L215.91 204.46L224.24 169.81L232.58 135.16L167.21 156.09Z" fill="url(#paint0_linear_1584_4146)"/>
<path opacity="0.6" d="M311.49 190.79L246.12 211.72L254.46 177.08L262.79 142.43L311.49 190.79Z" fill="url(#paint1_linear_1584_4146)"/>
<path d="M423.2 202.12L439.2 182.64C428.84 177.98 410.6 173.02 396.92 175.98" fill="#88D1C3"/>
<path d="M420.089 227.332C423.547 214.199 404.918 197.91 378.481 190.95C352.044 183.99 327.809 188.994 324.351 202.127C320.894 215.26 339.522 231.549 365.96 238.509C392.397 245.47 416.631 240.466 420.089 227.332Z" fill="#7996C9"/>
<path d="M453.07 215.01C459.41 216.68 467.72 224.01 470.91 229.76C465.3 233.19 454.47 235.48 448.12 233.81C445.627 233.154 443.497 231.534 442.198 229.307C440.899 227.08 440.538 224.428 441.195 221.935C441.851 219.442 443.471 217.312 445.698 216.013C447.925 214.714 450.577 214.354 453.07 215.01V215.01Z" fill="#FF8080"/>
<path d="M423.962 212.615C427.419 199.482 408.791 183.193 382.353 176.233C355.916 169.272 331.682 174.276 328.224 187.41C324.766 200.543 343.395 216.832 369.832 223.792C396.269 230.752 420.504 225.748 423.962 212.615Z" fill="white"/>
<path d="M424.384 207.289C426.923 197.437 409.786 184.503 386.108 178.401C362.429 172.298 341.175 175.337 338.636 185.189C336.097 195.041 353.234 207.974 376.913 214.077C400.591 220.18 421.845 217.141 424.384 207.289Z" fill="#88D1C3"/>
<path d="M340.66 210.33L337.2 223.48C337.2 223.48 333.56 221.95 331.93 220.11C330.3 218.27 323.43 211.11 325.17 204.11C326.91 197.11 327.82 194.84 329.75 198.03C331.68 201.22 340.66 210.33 340.66 210.33Z" fill="white"/>
<path d="M399.73 226.56C407.21 225.84 410.3 224.7 414.54 222.37C418.78 220.04 418.74 221.91 422.1 224.37C425.46 226.83 439.19 248.84 439.19 248.84C439.19 248.84 429.82 252.41 417.25 249.09C404.68 245.77 373.86 234.84 372.53 228.84C371.2 222.84 374.59 226.84 382.06 226.94C389.53 227.04 399.73 226.56 399.73 226.56Z" fill="#88D1C3"/>
<path d="M436.83 183.96C423.83 180.96 409.6 178.8 402.83 182.4C402.83 182.4 397.18 176.66 398.26 175.72C399.34 174.78 428.49 178.41 434.55 180.72C440.61 183.03 436.83 183.96 436.83 183.96Z" fill="white"/>
<path d="M411.12 203.35C417.599 203.263 424.069 203.839 430.43 205.07C435.43 206.15 437.43 206.54 437.71 208.67C437.99 210.8 436.21 224.37 434.1 226.45C431.99 228.53 427.56 227.54 425.31 224.62C423.06 221.7 422.58 219.96 416.98 216.17C411.38 212.38 401.35 205.43 411.12 203.35Z" fill="#88D1C3"/>
<path d="M437 211.44C428.446 209.061 419.585 207.973 410.71 208.21L414.82 212.62L437 218.46V211.44Z" fill="white"/>
<path d="M436 246.68C427.59 245.88 403.26 243.39 384.19 228.83C384.19 228.83 372.65 224.83 371.19 225.42C369.73 226.01 384.57 239.77 401.19 244.05C417.81 248.33 440 252.05 436 246.68Z" fill="white"/>
<path d="M350.33 190.06C346.33 205.3 401.51 219.82 405.52 204.58C406.473 200.956 406.704 197.18 406.198 193.467C405.692 189.754 404.46 186.178 402.571 182.941C400.683 179.704 398.176 176.872 395.193 174.604C392.209 172.336 388.809 170.678 385.185 169.725C381.561 168.772 377.785 168.541 374.072 169.047C370.359 169.553 366.783 170.786 363.546 172.674C360.309 174.562 357.476 177.069 355.209 180.053C352.941 183.036 351.283 186.436 350.33 190.06V190.06Z" fill="#88D1C3"/>
<path d="M317.092 190.319L315.863 194.99L326.713 197.846L327.943 193.175L317.092 190.319Z" fill="#4F457C"/>
<path d="M366.36 241.25C374.962 243.568 383.854 244.632 392.76 244.41V244.36C407.02 249.816 422.262 252.234 437.51 251.46C437.737 251.441 437.961 251.401 438.18 251.34C438.714 251.194 439.207 250.925 439.62 250.555C440.032 250.185 440.353 249.725 440.557 249.21C440.761 248.695 440.842 248.139 440.794 247.587C440.745 247.035 440.57 246.502 440.28 246.03L433.1 234.58C435.62 232.14 437.82 227.85 439.28 222.32C441.2 214.99 441.44 204.01 435.92 202.56C433.129 201.808 430.298 201.213 427.44 200.78L440.28 185.1C440.611 184.699 440.843 184.226 440.96 183.719C441.076 183.212 441.073 182.685 440.95 182.18C440.83 181.687 440.597 181.228 440.269 180.841C439.941 180.454 439.527 180.149 439.06 179.95C428.25 175.31 411.06 170.95 397.54 173.41C392.526 169.27 386.329 166.826 379.839 166.429C373.35 166.032 366.901 167.702 361.42 171.2C342.97 170.93 329.85 176.97 327.09 187.08L323.14 202.08C319.28 216.64 338.27 233.84 366.36 241.25ZM355.36 176.19C351.841 179.925 349.311 184.479 348 189.44C345.5 198.95 359.41 207.16 374.31 211.09C383.31 213.45 392.76 214.28 399.38 212.48C401.535 211.953 403.536 210.925 405.22 209.48L417 219.36C407.89 225.5 389.84 226.54 371.48 221.7C359.08 218.44 348.09 213.01 340.48 206.41C333.37 200.2 330.23 193.82 331.65 188.41C333.5 181.65 342.51 177.11 355.32 176.19H355.36ZM403.74 193.19C402.319 188.02 399.233 183.463 394.959 180.224C390.686 176.986 385.463 175.248 380.101 175.278C374.74 175.309 369.538 177.107 365.302 180.394C361.065 183.681 358.031 188.274 356.67 193.46C356.468 194.374 356.473 195.323 356.686 196.235C356.899 197.147 357.314 198 357.9 198.73C355.5 197.02 351.9 193.83 352.7 190.64C354.241 184.866 357.716 179.796 362.544 176.275C367.373 172.754 373.263 170.996 379.231 171.295C385.199 171.593 390.885 173.93 395.338 177.915C399.791 181.9 402.743 187.291 403.7 193.19H403.74ZM423.51 197.96C419.67 192.44 413.36 187.15 405.2 182.69C404.24 180.921 403.115 179.247 401.84 177.69C412.42 176.76 425.5 179.69 435.29 183.61L423.51 197.96ZM408 190.08C412.245 192.791 415.998 196.202 419.1 200.17C415.929 200.258 412.769 200.592 409.65 201.17C409.3 201.23 408.94 201.27 408.59 201.32C409.088 197.569 408.888 193.758 408 190.08V190.08ZM429.69 224.23L425.98 223.23L423.71 219.61C422.849 218.236 421.776 217.008 420.53 215.97L408.75 206.12C409.3 206.03 409.86 205.97 410.42 205.88C416.29 204.88 422.35 203.95 434.68 207.2C435.46 207.86 436.59 213.48 434.6 221.06C434.48 221.49 434.35 221.87 434.22 222.28C433.844 223.111 433.171 223.772 432.333 224.132C431.495 224.493 430.552 224.528 429.69 224.23V224.23ZM374.53 227.37C387.7 230.24 400.32 230.27 409.95 227.65C413.627 226.71 417.113 225.136 420.25 223L435 246.76C421.86 247.31 392.11 244.56 374.53 227.37ZM374.12 238.05L375.12 234.34C377.376 236.132 379.755 237.762 382.24 239.22C379.56 238.95 376.85 238.57 374.12 238.05V238.05ZM365 235.84L367.39 226.76C368.901 228.598 370.538 230.329 372.29 231.94L370.85 237.39C369.78 237.15 368.7 236.89 367.63 236.6C366.7 236.34 365.83 236.07 365 235.84ZM356 232.69L358.67 222.55C360.53 223.29 362.44 223.97 364.39 224.61L361.73 234.84C359.77 234.15 357.87 233.44 356 232.69ZM347.33 228.58L349.97 218.58C351.75 219.52 353.61 220.4 355.53 221.24L352.86 231.36C351 230.46 349.11 229.55 347.36 228.58H347.33ZM339 223.17L341.58 213.37C343.27 214.58 345.04 215.75 346.92 216.86L344.3 226.86C342.471 225.721 340.702 224.49 339 223.17ZM331.25 215.56L333.66 206.42C334.813 207.696 336.038 208.904 337.33 210.04C337.76 210.42 338.23 210.77 338.68 211.14L336.16 220.84C334.364 219.244 332.73 217.475 331.28 215.56H331.25ZM327.76 203.3L328.76 199.49C329.418 200.776 330.173 202.01 331.02 203.18L328.82 211.52C327.522 208.986 327.157 206.076 327.79 203.3H327.76Z" fill="#4F457C"/>
<path d="M82.56 109.61L42.5 99.97C37.2 98.7 30.25 108.72 26.97 122.36C23.69 136 25.33 148.08 30.62 149.36L70.68 159C75.98 160.27 82.93 150.25 86.21 136.62C89.49 122.99 87.85 110.84 82.56 109.61Z" fill="#B7D0E5"/>
<path d="M86.113 136.97C89.4364 123.148 87.8385 110.911 82.5439 109.638C77.2492 108.365 70.2629 118.537 66.9395 132.359C63.6161 146.181 65.214 158.418 70.5086 159.691C75.8032 160.964 82.7896 150.791 86.113 136.97Z" fill="white"/>
<path d="M105.098 17.3157L67.6161 8.30326C65.4091 7.7726 63.1898 9.13151 62.6591 11.3385L44.8494 85.4075C44.3187 87.6145 45.6777 89.8338 47.8847 90.3644L85.3664 99.3768C87.5734 99.9075 89.7927 98.5486 90.3233 96.3416L108.133 22.2726C108.664 20.0656 107.305 17.8463 105.098 17.3157Z" fill="#B7D0E5"/>
<path d="M101.228 22.7011L62.7744 13.4549L44.7052 88.6031L83.1592 97.8493L101.228 22.7011Z" fill="#7996C9"/>
<path d="M68.3404 170.183L30.8587 161.171C28.6517 160.64 26.4323 161.999 25.9017 164.206L8.09196 238.275C7.5613 240.482 8.92023 242.701 11.1272 243.232L48.6089 252.245C50.8159 252.775 53.0352 251.416 53.5659 249.209L71.3756 175.14C71.9063 172.933 70.5474 170.714 68.3404 170.183Z" fill="#B7D0E5"/>
<path d="M64.4529 175.642L25.9989 166.396L7.92967 241.544L46.3837 250.79L64.4529 175.642Z" fill="#7996C9"/>
<path d="M29.76 108.35L71.44 118.38L77.47 109.68L35.79 99.66L29.76 108.35Z" fill="white"/>
<path d="M65.3 141.56L27 132.35L28.65 146.35C28.65 146.35 35.97 150.35 39.65 151.11C43.33 151.87 66 157.41 66 157.41L65.3 141.56Z" fill="#7996C9"/>
<path d="M84.7 101.9L47.22 92.9C45.4849 92.489 43.9838 91.4063 43.0463 89.8894C42.1089 88.3726 41.8117 86.5457 42.22 84.81L60.04 10.74C60.2454 9.88336 60.6178 9.07562 61.1357 8.36304C61.6536 7.65047 62.307 7.04703 63.0584 6.58726C63.8099 6.12748 64.6446 5.8204 65.5148 5.6836C66.3851 5.5468 67.2738 5.58297 68.13 5.79002L105.6 14.79C107.335 15.201 108.836 16.2838 109.774 17.8006C110.711 19.3174 111.008 21.1442 110.6 22.88L92.78 96.95C92.3626 98.6765 91.2777 100.167 89.7631 101.095C88.2485 102.023 86.4277 102.312 84.7 101.9V101.9ZM67 10.84C66.8069 10.7925 66.6063 10.7839 66.4098 10.8146C66.2134 10.8454 66.025 10.9149 65.8556 11.0191C65.6862 11.1233 65.5393 11.2602 65.4233 11.4217C65.3073 11.5832 65.2246 11.7662 65.18 11.96L47.32 86.01C47.2724 86.2037 47.2637 86.405 47.2943 86.6021C47.3249 86.7992 47.3943 86.9883 47.4985 87.1585C47.6026 87.3286 47.7394 87.4765 47.901 87.5935C48.0626 87.7105 48.2458 87.7942 48.44 87.84L85.92 96.84C86.1131 96.8861 86.3133 96.8937 86.5093 96.8623C86.7053 96.831 86.8932 96.7613 87.0622 96.6573C87.2312 96.5533 87.3781 96.417 87.4944 96.2561C87.6107 96.0953 87.6942 95.9131 87.74 95.72L105.56 21.66C105.651 21.269 105.584 20.8581 105.375 20.5158C105.165 20.1735 104.829 19.9272 104.44 19.83L67 10.84Z" fill="#4F457C"/>
<path d="M70.08 161.51L71.29 156.51C74.1 157.19 80.48 149.37 83.68 136.05C86.88 122.73 84.76 112.84 82 112.14L83.22 107.14C91.22 109.05 92.04 123.74 88.78 137.26C85.52 150.78 78 163.43 70.08 161.51Z" fill="#4F457C"/>
<path d="M85.6548 138.831C88.2087 128.209 87.2449 118.869 83.5022 117.969C79.7594 117.069 74.655 124.95 72.1011 135.572C69.5472 146.193 70.5109 155.533 74.2536 156.433C77.9964 157.333 83.1009 149.452 85.6548 138.831Z" fill="#B7D0E5"/>
<path d="M70.0801 161.51C62.0801 159.6 61.2601 144.91 64.5101 131.39C67.7601 117.87 75.2201 105.17 83.1701 107.09L81.9501 112.09C79.1401 111.41 72.7701 119.23 69.5601 132.55C66.35 145.87 68.4801 155.74 71.2901 156.41L70.0801 161.51Z" fill="#4F457C"/>
<path d="M44.1101 120.9C45.4299 116.72 47.3463 112.752 49.8001 109.12L41.3601 107.12C38.9159 110.735 37.0031 114.682 35.6801 118.84L44.1101 120.9Z" fill="#4F457C"/>
<path d="M31.5399 109.7L21.5399 101.29C21.5399 101.29 15.5999 102.8 12.2299 110.95C8.85994 119.1 8.94994 125.01 8.94994 125.01L25.4199 129.01L31.5399 109.7Z" fill="#B7D0E5"/>
<path d="M55.16 123.56C56.4777 119.379 58.3943 115.411 60.8499 111.78L55.9999 110.62C53.5537 114.259 51.6409 118.229 50.3199 122.41L55.16 123.56Z" fill="#4F457C"/>
<path d="M25.46 126.23L9.16003 123.23C9.16003 123.23 8.35003 124.58 8.71003 130.54C9.07003 136.5 11.65 142.43 15.61 142.36C19.57 142.29 23.81 140.24 24.61 137.23C25.41 134.22 25.46 126.23 25.46 126.23Z" fill="#7996C9"/>
<path d="M29.6101 111.41L16.4301 104.01L25.9601 99.36L31.8201 107.05L29.6101 111.41Z" fill="white"/>
<path d="M70.0799 161.51L29.9999 151.84C21.9999 149.93 21.1799 135.23 24.4399 121.71C27.6999 108.19 35.1399 95.5 43.0999 97.41L83.1599 107.05C91.1599 108.96 91.9799 123.65 88.7199 137.17C85.4599 150.69 77.9999 163.43 70.0799 161.51ZM41.8899 102.51C39.0799 101.84 32.6999 109.65 29.4999 122.98C26.2999 136.31 28.4199 146.15 31.2299 146.84L71.2899 156.47C74.0999 157.15 80.4799 149.33 83.6799 136.01C86.8799 122.69 84.7599 112.84 81.9999 112.14L41.8899 102.51Z" fill="#4F457C"/>
<path d="M77.79 145.16C74.3 144.32 72.54 139.16 73.87 133.64C75.2 128.12 79.11 124.32 82.6 125.16L87.02 126.22C85.7518 129.42 84.6864 132.696 83.83 136.03C82.69 140.8 82.63 142.35 81.93 146.15L77.79 145.16Z" fill="#4F457C"/>
<path d="M40.67 131.38L35.67 130.18C33.87 129.75 32.1 131.28 31.67 133.6C31.24 135.92 32.44 138.15 34.24 138.6L39.24 139.79C41.04 140.23 42.81 138.7 43.24 136.37C43.67 134.04 42.47 131.84 40.67 131.38Z" fill="#4F457C"/>
<path d="M53.7349 138.232C53.854 135.904 52.5332 133.945 50.7848 133.855C49.0363 133.766 47.5223 135.58 47.4032 137.908C47.2841 140.235 48.6049 142.195 50.3533 142.284C52.1018 142.374 53.6158 140.559 53.7349 138.232Z" fill="#4F457C"/>
<path d="M15 144.91C7.38003 143.07 4.00003 131.08 7.19003 117.6C10.38 104.12 19 95 26.57 96.84C28.82 97.38 33.93 103.07 35.39 105.52L30.92 108.18C29.2868 105.801 27.3238 103.667 25.09 101.84C21.04 101.22 14.88 107.84 12.25 118.84C9.62003 129.84 12.07 138.52 15.96 139.84C18.7693 139.228 21.4767 138.218 24 136.84L26.76 141.24C24.39 142.71 17.25 145.45 15 144.91Z" fill="#4F457C"/>
<path d="M84.4086 12.3071L64.6771 94.3683L68.4691 95.2801L88.2005 13.2189L84.4086 12.3071Z" fill="#4F457C"/>
<path d="M59.0962 25.9114L58.1844 29.7033L103.658 40.6374L104.57 36.8455L59.0962 25.9114Z" fill="#4F457C"/>
<path d="M54.1626 46.4318L53.2509 50.2238L98.7248 61.1579L99.6366 57.3659L54.1626 46.4318Z" fill="#4F457C"/>
<path d="M49.2317 66.9401L48.3199 70.7321L93.7939 81.6662L94.7057 77.8742L49.2317 66.9401Z" fill="#4F457C"/>
<path d="M47.93 254.76L10.46 245.76C8.72487 245.349 7.22377 244.266 6.28631 242.749C5.34884 241.233 5.05165 239.406 5.46 237.67L23.28 163.6C23.4799 162.739 23.8482 161.926 24.3638 161.208C24.8794 160.489 25.532 159.88 26.284 159.416C27.036 158.951 27.8726 158.64 28.7455 158.5C29.6184 158.36 30.5104 158.394 31.37 158.6L68.85 167.6C69.7098 167.802 70.5213 168.172 71.2381 168.688C71.9549 169.205 72.5628 169.857 73.0272 170.608C73.4916 171.36 73.8033 172.195 73.9445 173.067C74.0857 173.939 74.0536 174.83 73.85 175.69L56 249.84C55.5759 251.559 54.4898 253.04 52.9782 253.962C51.4667 254.884 49.6521 255.17 47.93 254.76V254.76ZM30.19 163.69C29.9949 163.644 29.7927 163.638 29.5951 163.671C29.3975 163.704 29.2085 163.777 29.0391 163.884C28.8697 163.991 28.7233 164.13 28.6084 164.295C28.4935 164.459 28.4125 164.644 28.37 164.84L10.56 238.84C10.4663 239.23 10.5304 239.641 10.7383 239.984C10.9462 240.326 11.2811 240.573 11.67 240.67L49.15 249.67C49.3424 249.721 49.543 249.734 49.7403 249.707C49.9376 249.681 50.1277 249.615 50.2997 249.515C50.4716 249.415 50.622 249.281 50.7422 249.122C50.8624 248.964 50.95 248.783 51 248.59L68.82 174.53C68.9106 174.139 68.844 173.728 68.6345 173.386C68.425 173.043 68.0894 172.797 67.7 172.7L30.19 163.69Z" fill="#4F457C"/>
<path d="M47.6464 165.155L27.9149 247.216L31.7069 248.127L51.4383 166.066L47.6464 165.155Z" fill="#4F457C"/>
<path d="M22.3339 178.759L21.4221 182.551L66.896 193.485L67.8078 189.693L22.3339 178.759Z" fill="#4F457C"/>
<path d="M17.4004 199.279L16.4886 203.071L61.9626 214.005L62.8744 210.213L17.4004 199.279Z" fill="#4F457C"/>
<path d="M12.4695 219.787L11.5577 223.579L57.0317 234.513L57.9434 230.722L12.4695 219.787Z" fill="#4F457C"/>
<path d="M61.769 95.3516L59.8894 103.169L68.7275 105.294L70.6072 97.4767L61.769 95.3516Z" fill="#4F457C"/>
<path d="M47.4043 155.077L45.5247 162.895L54.3628 165.02L56.2424 157.202L47.4043 155.077Z" fill="#4F457C"/>
<path d="M126.72 102.07C108.8 97.76 89.77 113.01 84.2 136.07C78.63 159.13 88.66 181.43 106.58 185.74C114.82 187.74 126.01 170.58 131.58 147.47C137.15 124.36 135 104.05 126.72 102.07Z" fill="#B7D0E5"/>
<path d="M86.38 135.84C90.46 122.91 102.48 116.6 110.38 114.18L118.98 101.35C118.98 101.35 91.07 106.19 86.38 135.84Z" fill="white"/>
<path d="M86 137.33C83.76 150.7 91.59 161.79 97.54 167.54L99.39 182.84C99.39 182.84 76.71 165.9 86 137.33Z" fill="#7996C9"/>
<path d="M106 188.31C94.6701 185.59 94.0601 161.25 99.2301 139.73C104.4 118.21 116 96.84 127.33 99.54L126.11 104.6C120.93 103.35 110.11 116.6 104.26 140.95C98.4101 165.3 102.01 182.02 107.19 183.26L106 188.31Z" fill="#4F457C"/>
<path d="M123.597 151.453C128.133 132.588 126.347 115.983 119.607 114.362C112.868 112.742 103.728 126.72 99.1924 145.585C94.6565 164.449 96.4426 181.055 103.182 182.675C109.921 184.295 119.061 170.317 123.597 151.453Z" fill="#4F457C"/>
<path d="M106 188.31C86.72 183.67 75.82 159.99 81.71 135.52C87.6 111.05 108.07 94.91 127.36 99.52C138.69 102.25 139.3 126.59 134.13 148.1C128.96 169.61 117.31 191.04 106 188.31ZM126.14 104.6C109.64 100.6 91.98 115.04 86.76 136.73C81.54 158.42 90.76 179.29 107.22 183.26C112.39 184.51 123.22 171.26 129.07 146.91C134.92 122.56 131.29 105.84 126.11 104.6H126.14Z" fill="#4F457C"/>
<path d="M133.078 103.957L128.682 106.735L160.013 156.315L164.409 153.537L133.078 103.957Z" fill="#4F457C"/>
<path d="M160.884 152.701L110.422 182.591L113.072 187.065L163.534 157.175L160.884 152.701Z" fill="#4F457C"/>
<path d="M104.865 138.364L103.649 143.42L163.406 157.788L164.621 152.732L104.865 138.364Z" fill="#4F457C"/>
<path d="M167.21 165.13C172.203 165.13 176.25 161.083 176.25 156.09C176.25 151.097 172.203 147.05 167.21 147.05C162.217 147.05 158.17 151.097 158.17 156.09C158.17 161.083 162.217 165.13 167.21 165.13Z" fill="#7996C9"/>
<path d="M225.21 209.19C209.72 205.47 201.21 185.88 206.08 165.44C210.95 145 227.53 131.44 243.01 135.17L253.26 137.63L235.45 211.63L225.21 209.19Z" fill="#C6A35D"/>
<path d="M271.578 181.132C276.493 160.689 267.928 141.099 252.447 137.377C236.966 133.654 220.431 147.209 215.516 167.652C210.6 188.094 219.165 207.684 234.647 211.407C250.128 215.129 266.662 201.574 271.578 181.132Z" fill="#F2CE7E"/>
<path d="M266.425 179.892C270.653 162.306 263.838 145.587 251.203 142.549C238.568 139.511 224.897 151.304 220.669 168.891C216.44 186.477 223.255 203.196 235.89 206.234C248.525 209.272 262.196 197.479 266.425 179.892Z" fill="#C6A35D"/>
<path d="M255.84 144.55C263.73 151.16 267.24 164.91 263.78 179.32C260.32 193.73 250.93 204.38 240.9 206.67C251.96 206.07 262.76 195.23 266.43 179.95C270.1 164.67 265.42 150.11 255.84 144.55Z" fill="#9B7B43"/>
<path d="M223.52 191.05L250 197.41C250.55 197.54 251.15 197.01 251.33 196.23L252.16 192.8C252.35 192.02 252.05 191.28 251.5 191.15L225 184.84C224.45 184.71 223.85 185.23 223.67 186.02L222.84 189.44C222.67 190.18 223 190.92 223.52 191.05Z" fill="#9B7B43"/>
<path d="M251.79 155.66L244.45 162.13L240.86 153.03C240.792 152.825 240.676 152.64 240.521 152.49C240.366 152.34 240.177 152.231 239.97 152.17L233.26 150.56C232.71 150.42 232.11 150.95 231.92 151.74L225.19 179.74C225 180.52 225.3 181.27 225.85 181.4L228.25 181.98C228.8 182.11 229.4 181.58 229.59 180.8L235.15 157.67L237.25 158.17L242.32 171.02L244.84 171.63L252.68 161.88L254.78 162.39L249.22 185.52C249.03 186.3 249.32 187.05 249.87 187.18L252.28 187.76C252.83 187.89 253.42 187.36 253.61 186.58L260.34 158.58C260.53 157.8 260.24 157.06 259.69 156.92L253 155.3C252.784 155.257 252.561 155.267 252.35 155.33C252.139 155.393 251.947 155.506 251.79 155.66V155.66Z" fill="#9B7B43"/>
<path d="M251.55 166.55L241.19 175.69L238.63 163.45L236.12 162.84L233.99 171.7L239.06 184.55L241.57 185.15L249.42 175.41L254.07 167.16L251.55 166.55Z" fill="#9B7B43"/>
<path d="M226 191.66L252.43 198.01C252.98 198.15 253.58 197.62 253.77 196.83L254.59 193.41C254.78 192.63 254.49 191.88 253.94 191.75L227.51 185.39C226.96 185.26 226.36 185.79 226.17 186.57L225.35 190C225.19 190.78 225.48 191.52 226 191.66Z" fill="#F2CE7E"/>
<path d="M254.31 156.27L247 162.74L243.4 153.64C243.334 153.436 243.22 153.251 243.066 153.101C242.913 152.951 242.725 152.841 242.52 152.78L235.8 151.16C235.25 151.03 234.65 151.56 234.46 152.34L227.74 180.34C227.55 181.13 227.84 181.87 228.39 182L230.79 182.58C231.34 182.71 231.94 182.19 232.13 181.4L237.69 158.27L239.79 158.78L244.87 171.63L255.23 162.49L257.33 162.99L251.76 186.12C251.57 186.91 251.87 187.65 252.42 187.78L254.82 188.36C255.37 188.49 255.97 187.96 256.16 187.18L262.89 159.18C263.07 158.39 262.78 157.65 262.23 157.52L255.52 155.9C255.303 155.855 255.079 155.866 254.868 155.931C254.656 155.995 254.464 156.112 254.31 156.27Z" fill="#F2CE7E"/>
<path d="M254.07 167.16L243.71 176.3L238.63 163.45L236.5 172.3L241.57 185.15L251.94 176.01L254.07 167.16Z" fill="#F2CE7E"/>
<path d="M229.08 262.17C228.735 262.17 228.405 262.033 228.161 261.789C227.917 261.545 227.78 261.215 227.78 260.87V254.6C227.78 254.255 227.917 253.925 228.161 253.681C228.405 253.437 228.735 253.3 229.08 253.3C229.425 253.3 229.755 253.437 229.999 253.681C230.243 253.925 230.38 254.255 230.38 254.6V260.84C230.384 261.013 230.353 261.186 230.29 261.347C230.226 261.508 230.131 261.655 230.01 261.779C229.889 261.903 229.744 262.001 229.585 262.068C229.425 262.135 229.253 262.17 229.08 262.17Z" fill="#88D1C3"/>
<path d="M238.7 265.52H232.43C232.085 265.52 231.754 265.383 231.511 265.139C231.267 264.895 231.13 264.565 231.13 264.22C231.13 263.875 231.267 263.545 231.511 263.301C231.754 263.057 232.085 262.92 232.43 262.92H238.7C239.045 262.92 239.375 263.057 239.619 263.301C239.863 263.545 240 263.875 240 264.22C240 264.565 239.863 264.895 239.619 265.139C239.375 265.383 239.045 265.52 238.7 265.52Z" fill="#88D1C3"/>
<path d="M229.08 275.13C228.735 275.13 228.405 274.993 228.161 274.749C227.917 274.505 227.78 274.175 227.78 273.83V267.57C227.78 267.225 227.917 266.895 228.161 266.651C228.405 266.407 228.735 266.27 229.08 266.27C229.425 266.27 229.755 266.407 229.999 266.651C230.243 266.895 230.38 267.225 230.38 267.57V273.84C230.377 274.183 230.239 274.511 229.996 274.753C229.752 274.994 229.423 275.13 229.08 275.13Z" fill="#88D1C3"/>
<path d="M225.73 265.52H219.47C219.125 265.52 218.794 265.383 218.551 265.139C218.307 264.895 218.17 264.565 218.17 264.22C218.17 263.875 218.307 263.545 218.551 263.301C218.794 263.057 219.125 262.92 219.47 262.92H225.73C226.075 262.92 226.405 263.057 226.649 263.301C226.893 263.545 227.03 263.875 227.03 264.22C227.03 264.565 226.893 264.895 226.649 265.139C226.405 265.383 226.075 265.52 225.73 265.52Z" fill="#88D1C3"/>
<path d="M9.62996 36.37C9.28517 36.37 8.95451 36.233 8.71072 35.9892C8.46692 35.7454 8.32996 35.4148 8.32996 35.07V31.48C8.32996 31.1352 8.46692 30.8046 8.71072 30.5608C8.95451 30.317 9.28517 30.18 9.62996 30.18C9.97474 30.18 10.3054 30.317 10.5492 30.5608C10.793 30.8046 10.93 31.1352 10.93 31.48V35.07C10.93 35.4148 10.793 35.7454 10.5492 35.9892C10.3054 36.233 9.97474 36.37 9.62996 36.37V36.37Z" fill="#88D1C3"/>
<path d="M17.13 40.28H13.54C13.1952 40.28 12.8645 40.1431 12.6208 39.8993C12.377 39.6555 12.24 39.3248 12.24 38.98C12.24 38.6352 12.377 38.3046 12.6208 38.0608C12.8645 37.817 13.1952 37.68 13.54 37.68H17.13C17.4748 37.68 17.8054 37.817 18.0492 38.0608C18.293 38.3046 18.43 38.6352 18.43 38.98C18.43 39.3248 18.293 39.6555 18.0492 39.8993C17.8054 40.1431 17.4748 40.28 17.13 40.28V40.28Z" fill="#88D1C3"/>
<path d="M9.62996 47.78C9.28517 47.78 8.95451 47.643 8.71072 47.3992C8.46692 47.1554 8.32996 46.8248 8.32996 46.48V42.89C8.32996 42.5452 8.46692 42.2145 8.71072 41.9707C8.95451 41.7269 9.28517 41.59 9.62996 41.59C9.97474 41.59 10.3054 41.7269 10.5492 41.9707C10.793 42.2145 10.93 42.5452 10.93 42.89V46.48C10.93 46.8248 10.793 47.1554 10.5492 47.3992C10.3054 47.643 9.97474 47.78 9.62996 47.78V47.78Z" fill="#88D1C3"/>
<path d="M5.71996 40.28H2.12996C1.78517 40.28 1.45451 40.1431 1.21072 39.8993C0.966919 39.6555 0.829956 39.3248 0.829956 38.98C0.829956 38.6352 0.966919 38.3046 1.21072 38.0608C1.45451 37.817 1.78517 37.68 2.12996 37.68H5.71996C6.06474 37.68 6.3954 37.817 6.63919 38.0608C6.88299 38.3046 7.01995 38.6352 7.01995 38.98C7.01995 39.3248 6.88299 39.6555 6.63919 39.8993C6.3954 40.1431 6.06474 40.28 5.71996 40.28V40.28Z" fill="#88D1C3"/>
<path d="M346.37 77.6299C346.025 77.6299 345.695 77.493 345.451 77.2492C345.207 77.0054 345.07 76.6747 345.07 76.33V72.74C345.07 72.3952 345.207 72.0645 345.451 71.8207C345.695 71.5769 346.025 71.4399 346.37 71.4399C346.715 71.4399 347.046 71.5769 347.289 71.8207C347.533 72.0645 347.67 72.3952 347.67 72.74V76.33C347.67 76.6747 347.533 77.0054 347.289 77.2492C347.046 77.493 346.715 77.6299 346.37 77.6299Z" fill="#88D1C3"/>
<path d="M353.87 81.54H350.28C349.935 81.54 349.605 81.403 349.361 81.1592C349.117 80.9154 348.98 80.5848 348.98 80.24C348.98 79.8952 349.117 79.5645 349.361 79.3207C349.605 79.0769 349.935 78.9399 350.28 78.9399H353.87C354.215 78.9399 354.545 79.0769 354.789 79.3207C355.033 79.5645 355.17 79.8952 355.17 80.24C355.17 80.5848 355.033 80.9154 354.789 81.1592C354.545 81.403 354.215 81.54 353.87 81.54V81.54Z" fill="#88D1C3"/>
<path d="M346.37 89.04C346.025 89.04 345.695 88.903 345.451 88.6592C345.207 88.4154 345.07 88.0848 345.07 87.74V84.15C345.07 83.8052 345.207 83.4745 345.451 83.2307C345.695 82.9869 346.025 82.85 346.37 82.85C346.715 82.85 347.046 82.9869 347.289 83.2307C347.533 83.4745 347.67 83.8052 347.67 84.15V87.74C347.67 88.0848 347.533 88.4154 347.289 88.6592C347.046 88.903 346.715 89.04 346.37 89.04Z" fill="#88D1C3"/>
<path d="M342.46 81.54H338.87C338.525 81.54 338.195 81.403 337.951 81.1592C337.707 80.9154 337.57 80.5848 337.57 80.24C337.57 79.8952 337.707 79.5645 337.951 79.3207C338.195 79.0769 338.525 78.9399 338.87 78.9399H342.46C342.805 78.9399 343.136 79.0769 343.379 79.3207C343.623 79.5645 343.76 79.8952 343.76 80.24C343.76 80.5848 343.623 80.9154 343.379 81.1592C343.136 81.403 342.805 81.54 342.46 81.54V81.54Z" fill="#88D1C3"/>
<path d="M327.47 138.48C328.906 138.48 330.07 137.316 330.07 135.88C330.07 134.444 328.906 133.28 327.47 133.28C326.034 133.28 324.87 134.444 324.87 135.88C324.87 137.316 326.034 138.48 327.47 138.48Z" fill="#88D1C3"/>
<path d="M162.01 84.2C163.479 84.2 164.67 83.0091 164.67 81.54C164.67 80.071 163.479 78.88 162.01 78.88C160.541 78.88 159.35 80.071 159.35 81.54C159.35 83.0091 160.541 84.2 162.01 84.2Z" fill="#88D1C3"/>
<path d="M204.28 117.85C205.782 117.85 207 116.632 207 115.13C207 113.628 205.782 112.41 204.28 112.41C202.778 112.41 201.56 113.628 201.56 115.13C201.56 116.632 202.778 117.85 204.28 117.85Z" fill="#88D1C3"/>
<path d="M164.62 208.64C165.691 208.64 166.56 207.771 166.56 206.7C166.56 205.629 165.691 204.76 164.62 204.76C163.549 204.76 162.68 205.629 162.68 206.7C162.68 207.771 163.549 208.64 164.62 208.64Z" fill="#88D1C3"/>
<path d="M294.04 261.37C296.139 261.37 297.84 259.669 297.84 257.57C297.84 255.471 296.139 253.77 294.04 253.77C291.941 253.77 290.24 255.471 290.24 257.57C290.24 259.669 291.941 261.37 294.04 261.37Z" fill="#88D1C3"/>
<path d="M351.46 283.75C352.598 283.75 353.52 282.828 353.52 281.69C353.52 280.552 352.598 279.63 351.46 279.63C350.322 279.63 349.4 280.552 349.4 281.69C349.4 282.828 350.322 283.75 351.46 283.75Z" fill="#88D1C3"/>
<path d="M189.34 317.07C190.77 317.07 191.93 315.91 191.93 314.48C191.93 313.05 190.77 311.89 189.34 311.89C187.91 311.89 186.75 313.05 186.75 314.48C186.75 315.91 187.91 317.07 189.34 317.07Z" fill="#88D1C3"/>
<path d="M115.79 251.13C117.419 251.13 118.74 249.809 118.74 248.18C118.74 246.551 117.419 245.23 115.79 245.23C114.161 245.23 112.84 246.551 112.84 248.18C112.84 249.809 114.161 251.13 115.79 251.13Z" fill="#88D1C3"/>
<path d="M275.04 74.97C276.99 74.97 278.57 73.3896 278.57 71.44C278.57 69.4904 276.99 67.91 275.04 67.91C273.09 67.91 271.51 69.4904 271.51 71.44C271.51 73.3896 273.09 74.97 275.04 74.97Z" fill="#88D1C3"/>
<path d="M159.35 278.92C161.653 278.92 163.52 277.053 163.52 274.75C163.52 272.447 161.653 270.58 159.35 270.58C157.047 270.58 155.18 272.447 155.18 274.75C155.18 277.053 157.047 278.92 159.35 278.92Z" fill="#88D1C3"/>
<path d="M409.49 129.72C410.992 129.72 412.21 128.502 412.21 127C412.21 125.498 410.992 124.28 409.49 124.28C407.988 124.28 406.77 125.498 406.77 127C406.77 128.502 407.988 129.72 409.49 129.72Z" fill="#88D1C3"/>
<path d="M310.13 198.23C314.123 198.23 317.36 194.993 317.36 191C317.36 187.007 314.123 183.77 310.13 183.77C306.137 183.77 302.9 187.007 302.9 191C302.9 194.993 306.137 198.23 310.13 198.23Z" fill="#F2CE7E"/>
<path d="M168.1 6.04001C169.768 6.04001 171.12 4.68789 171.12 3.01999C171.12 1.35209 169.768 0 168.1 0C166.432 0 165.08 1.35209 165.08 3.01999C165.08 4.68789 166.432 6.04001 168.1 6.04001Z" fill="#88D1C3"/>
<defs>
<linearGradient id="paint0_linear_1584_4146" x1="-40984.9" y1="113452" x2="-36525.7" y2="114524" gradientUnits="userSpaceOnUse">
<stop stop-color="white" stop-opacity="0.5"/>
<stop offset="0.14" stop-color="white" stop-opacity="0.48"/>
<stop offset="0.34" stop-color="white" stop-opacity="0.41"/>
<stop offset="0.56" stop-color="white" stop-opacity="0.3"/>
<stop offset="0.81" stop-color="white" stop-opacity="0.14"/>
<stop offset="1" stop-color="white" stop-opacity="0"/>
</linearGradient>
<linearGradient id="paint1_linear_1584_4146" x1="-249507" y1="63667.4" x2="-253956" y2="62612.5" gradientUnits="userSpaceOnUse">
<stop stop-color="white" stop-opacity="0.5"/>
<stop offset="0.14" stop-color="white" stop-opacity="0.48"/>
<stop offset="0.34" stop-color="white" stop-opacity="0.41"/>
<stop offset="0.56" stop-color="white" stop-opacity="0.3"/>
<stop offset="0.81" stop-color="white" stop-opacity="0.14"/>
<stop offset="1" stop-color="white" stop-opacity="0"/>
</linearGradient>
</defs>
</svg>
