<svg width="345" height="290" viewBox="0 0 345 290" fill="none" xmlns="http://www.w3.org/2000/svg">
<path d="M129 27.77C128.655 27.77 128.325 27.633 128.081 27.3892C127.837 27.1454 127.7 26.8148 127.7 26.47V19.29C127.728 18.9662 127.877 18.6648 128.117 18.4453C128.357 18.2257 128.67 18.1039 128.995 18.1039C129.32 18.1039 129.633 18.2257 129.873 18.4453C130.113 18.6648 130.262 18.9662 130.29 19.29V26.47C130.29 26.8131 130.154 27.1422 129.913 27.3857C129.671 27.6292 129.343 27.7674 129 27.77V27.77Z" fill="#88D1C3"/>
<path d="M138.63 33H134.19C133.845 33 133.515 32.863 133.271 32.6192C133.027 32.3754 132.89 32.0448 132.89 31.7C132.89 31.3552 133.027 31.0246 133.271 30.7808C133.515 30.537 133.845 30.4 134.19 30.4H138.63C138.801 30.4 138.97 30.4336 139.128 30.4989C139.285 30.5643 139.429 30.66 139.549 30.7808C139.67 30.9015 139.766 31.0448 139.831 31.2025C139.896 31.3602 139.93 31.5293 139.93 31.7C139.93 31.8707 139.896 32.0398 139.831 32.1975C139.766 32.3552 139.67 32.4985 139.549 32.6192C139.429 32.7399 139.285 32.8357 139.128 32.901C138.97 32.9664 138.801 33 138.63 33V33Z" fill="#88D1C3"/>
<path d="M129 45.3C128.655 45.3 128.325 45.163 128.081 44.9192C127.837 44.6754 127.7 44.3448 127.7 44V36.82C127.684 36.6404 127.706 36.4594 127.764 36.2887C127.822 36.1179 127.915 35.961 128.036 35.8281C128.158 35.6951 128.306 35.5889 128.471 35.5163C128.636 35.4436 128.815 35.4061 128.995 35.4061C129.175 35.4061 129.354 35.4436 129.519 35.5163C129.684 35.5889 129.832 35.6951 129.954 35.8281C130.075 35.961 130.168 36.1179 130.226 36.2887C130.284 36.4594 130.306 36.6404 130.29 36.82V44C130.29 44.3431 130.154 44.6722 129.913 44.9157C129.671 45.1592 129.343 45.2974 129 45.3V45.3Z" fill="#88D1C3"/>
<path d="M123.84 33H119.4C119.055 33 118.725 32.863 118.481 32.6192C118.237 32.3754 118.1 32.0448 118.1 31.7C118.1 31.3552 118.237 31.0246 118.481 30.7808C118.725 30.537 119.055 30.4 119.4 30.4H123.84C124.185 30.4 124.515 30.537 124.759 30.7808C125.003 31.0246 125.14 31.3552 125.14 31.7C125.14 32.0448 125.003 32.3754 124.759 32.6192C124.515 32.863 124.185 33 123.84 33V33Z" fill="#88D1C3"/>
<path d="M154.17 235.84C152.1 236.09 152.83 240.78 155.57 240.84C158.31 240.9 160.81 240.29 163.49 240.11C166.17 239.93 166.35 234.11 163.18 233.77C160.01 233.43 154.17 235.84 154.17 235.84Z" fill="#4F457C"/>
<path d="M221.28 238.65C219.15 237.49 211.9 233.71 209.16 230.12C214.03 225.86 213.67 217.7 207.76 216.36C205.57 219.22 206.48 221.36 209.71 222.14C209.52 226.28 204.71 229.88 198.99 229.94C193.27 230 182.55 228.54 182.99 221.29C184.69 223.54 190.72 223.85 191.88 219.89C191.88 219.89 185.06 218.19 182.8 216.36C183.754 216.186 184.644 215.76 185.377 215.124C186.109 214.489 186.658 213.668 186.964 212.748C187.271 211.828 187.325 210.843 187.12 209.895C186.915 208.947 186.459 208.071 185.8 207.36C182.87 211.98 179.89 213.81 175.57 213.51C171.25 213.21 167.1 208.76 167.83 204.92C162.72 208.33 166.19 214.48 166.98 215.09C166.98 215.09 160.65 218.5 158.33 220.02C156.01 221.54 156.63 226.9 160.65 228.43C163.458 229.433 166.349 230.186 169.29 230.68C170.098 232.8 170.248 235.114 169.72 237.32C168.81 240.85 163.72 246.02 162.35 247.85C161.46 249.07 164.35 252.9 165.58 252.36C166.81 251.82 177 244.61 177 244.61C177 244.61 186.31 249.85 202.33 247.41C202.33 247.41 208.72 253.14 210.49 254.41C212.26 255.68 216.64 253.13 215.36 251.67C214.08 250.21 211.22 246.67 211.22 246.67C211.22 246.67 212.22 243.57 211.34 241.25C211.34 241.25 216.64 243.08 218.71 243.75C220.78 244.42 223.41 239.8 221.28 238.65ZM172.87 225.86C172.243 225.862 171.629 225.678 171.106 225.331C170.584 224.984 170.176 224.489 169.934 223.91C169.693 223.331 169.628 222.693 169.75 222.078C169.871 221.462 170.172 220.896 170.615 220.452C171.058 220.008 171.623 219.705 172.238 219.582C172.853 219.459 173.491 219.521 174.071 219.76C174.651 220 175.146 220.406 175.495 220.928C175.844 221.449 176.03 222.063 176.03 222.69C176.03 223.529 175.697 224.334 175.105 224.928C174.513 225.522 173.709 225.857 172.87 225.86V225.86Z" fill="#4F457C"/>
<path d="M192.75 253.82C196.55 253.82 199.63 250.74 199.63 246.94C199.63 243.14 196.55 240.06 192.75 240.06C188.95 240.06 185.87 243.14 185.87 246.94C185.87 250.74 188.95 253.82 192.75 253.82Z" fill="#4F457C"/>
<path d="M190.526 250.647L190.517 250.643C189.787 250.301 188.917 250.615 188.575 251.345L187.309 254.043C186.967 254.773 187.281 255.642 188.011 255.985L188.02 255.989C188.75 256.331 189.619 256.017 189.962 255.287L191.227 252.589C191.57 251.859 191.256 250.99 190.526 250.647Z" fill="#4F457C"/>
<path d="M197.527 255.847L197.536 255.843C198.266 255.5 198.58 254.631 198.237 253.901L196.972 251.203C196.629 250.473 195.76 250.159 195.03 250.501L195.021 250.506C194.291 250.848 193.977 251.717 194.319 252.447L195.585 255.145C195.927 255.875 196.797 256.189 197.527 255.847Z" fill="#4F457C"/>
<path opacity="0.6" d="M172.05 105.25L121.18 288.16H277.07L172.05 105.25Z" fill="url(#paint0_linear_1584_4146)"/>
<path d="M189.86 192.28L188.46 196.28C187.21 199.87 191.71 204.71 198.51 207.09C205.31 209.47 211.86 208.5 213.12 204.91L214.51 200.91L189.86 192.28Z" fill="#C6A35D"/>
<path d="M214.524 200.928C215.781 197.337 211.281 192.493 204.474 190.111C197.666 187.728 191.128 188.708 189.871 192.299C188.614 195.891 193.113 200.734 199.921 203.117C206.729 205.5 213.267 204.52 214.524 200.928Z" fill="#F2CE7E"/>
<path d="M172.05 181.23L175.24 183.99C178.11 186.49 184.24 184.09 189 178.64C193.76 173.19 195.23 166.76 192.36 164.27L189.17 161.5L172.05 181.23Z" fill="#C6A35D"/>
<path d="M185.806 175.843C190.534 170.395 192.036 163.957 189.162 161.463C186.288 158.969 180.126 161.364 175.399 166.812C170.671 172.259 169.169 178.697 172.043 181.191C174.917 183.685 181.079 181.291 185.806 175.843Z" fill="#F2CE7E"/>
<path d="M160.79 273.38C158.66 276.87 151.79 276.51 145.35 272.59C138.91 268.67 135.5 262.67 137.64 259.19L139.86 255.56L163 269.76L160.79 273.38Z" fill="#C6A35D"/>
<path d="M163.016 269.776C165.152 266.292 161.7 260.29 155.306 256.37C148.912 252.45 141.997 252.097 139.861 255.581C137.725 259.066 141.177 265.068 147.571 268.988C153.965 272.908 160.88 273.261 163.016 269.776Z" fill="#F2CE7E"/>
<path d="M223.33 268.18C219.88 265.98 220.33 259.08 224.38 252.75C228.43 246.42 234.47 243.08 237.92 245.27L241.5 247.56L226.91 270.46L223.33 268.18Z" fill="#F2CE7E"/>
<path d="M240.453 263.008C244.482 256.682 244.955 249.774 241.508 247.578C238.061 245.382 232 248.73 227.97 255.056C223.941 261.381 223.468 268.289 226.915 270.485C230.362 272.681 236.423 269.333 240.453 263.008Z" fill="#C6A35D"/>
<path d="M126.27 121.32L105.75 106.73C114.52 99.5 130.81 89.92 144.8 89.18" fill="#88D1C3"/>
<path d="M191.076 141.326C214.752 127.657 228.44 107.042 221.65 95.2803C214.859 83.5191 190.162 85.0657 166.486 98.7347C142.811 112.404 129.123 133.019 135.913 144.78C142.703 156.542 167.401 154.995 191.076 141.326Z" fill="#7996C9"/>
<path d="M100.85 141.62C95.17 144.9 89.08 154.15 87.52 160.54C93.83 162.38 104.89 161.73 110.52 158.45C112.691 157.131 114.26 155.014 114.89 152.553C115.52 150.092 115.161 147.482 113.89 145.282C112.62 143.082 110.538 141.467 108.092 140.782C105.645 140.098 103.028 140.399 100.8 141.62H100.85Z" fill="#FF8080"/>
<path d="M183.48 128.15C207.155 114.481 220.843 93.866 214.053 82.1047C207.262 70.3435 182.565 71.8901 158.89 85.5592C135.214 99.2282 121.526 119.844 128.316 131.605C135.107 143.366 159.804 141.819 183.48 128.15Z" fill="white"/>
<path d="M175.431 124.845C196.572 112.639 209.593 95.6146 204.515 86.8188C199.436 78.023 178.182 80.7871 157.041 92.9926C135.901 105.198 122.88 122.223 127.958 131.019C133.036 139.815 154.291 137.05 175.431 124.845Z" fill="#88D1C3"/>
<path d="M208.06 107.52L214.87 119.31C214.87 119.31 217.97 116.87 219.06 114.66C220.15 112.45 224.91 103.78 221.38 97.48C217.85 91.18 216.38 89.24 215.38 92.82C214.38 96.4 208.06 107.52 208.06 107.52Z" fill="white"/>
<path d="M155.35 138.73C147.95 140 144.66 139.73 139.96 138.58C135.26 137.43 135.79 139.25 133.19 142.49C130.59 145.73 123.19 170.62 123.19 170.62C123.19 170.62 133.19 171.62 144.42 165.1C155.65 158.58 182.53 139.94 182.24 133.81C181.95 127.68 179.73 132.46 172.54 134.49C165.35 136.52 155.35 138.73 155.35 138.73Z" fill="#88D1C3"/>
<path d="M108.35 107.38C120.07 101.11 133.26 95.25 140.77 96.93C140.77 96.93 144.71 89.93 143.42 89.28C142.13 88.63 115 99.83 109.73 103.67C104.46 107.51 108.35 107.38 108.35 107.38Z" fill="white"/>
<path d="M138.26 119.33C131.986 120.951 125.894 123.209 120.08 126.07C115.56 128.42 113.75 129.32 114 131.46C114.25 133.6 119.57 146.21 122.16 147.66C124.75 149.11 128.76 147 130.16 143.58C131.56 140.16 131.57 138.38 135.98 133.24C140.39 128.1 148.23 118.76 138.26 119.33Z" fill="#88D1C3"/>
<path d="M115.41 134C123.036 129.465 131.298 126.094 139.92 124L137.12 129.33L117.26 140.8L115.41 134Z" fill="white"/>
<path d="M125.64 167.69C133.54 164.69 156.36 155.9 170.93 136.83C170.93 136.83 181.03 129.98 182.54 130.13C184.05 130.28 173.41 147.49 158.46 156.01C143.51 164.53 123.26 173.9 125.64 167.69Z" fill="white"/>
<path d="M193.41 90.51C201.29 104.16 151.86 132.7 143.98 119.05C140.277 112.5 139.311 104.753 141.291 97.4935C143.271 90.2345 148.038 84.0512 154.554 80.2889C161.07 76.5266 168.809 75.4898 176.085 77.4039C183.362 79.3181 189.589 84.0284 193.41 90.51Z" fill="#88D1C3"/>
<path d="M225.548 82.03L215.831 87.64L218.246 91.8229L227.963 86.2129L225.548 82.03Z" fill="#4F457C"/>
<path d="M222.82 95L215.06 81.57C209.74 72.57 195.5 70.17 177.77 75.29C171.562 73.3498 164.899 73.4306 158.74 75.5207C152.581 77.6108 147.245 81.6023 143.5 86.92C129.78 88.09 114.37 96.83 105.16 104.15C104.762 104.465 104.444 104.869 104.23 105.329C104.017 105.789 103.914 106.293 103.93 106.8C103.944 107.319 104.079 107.828 104.324 108.286C104.568 108.744 104.916 109.139 105.34 109.44L121.86 121.19C119.214 122.379 116.637 123.714 114.14 125.19C109.2 128.04 112.31 138.57 116.14 145.14C119 150.14 122.25 153.65 125.33 155.34L121.41 168.27C121.253 168.802 121.222 169.364 121.32 169.91C121.418 170.456 121.642 170.971 121.974 171.416C122.306 171.861 122.737 172.222 123.232 172.471C123.728 172.719 124.275 172.849 124.83 172.85C125.058 172.851 125.286 172.827 125.51 172.78C140.423 169.521 154.49 163.182 166.81 154.17V154.22C175.46 152.084 183.758 148.716 191.45 144.22C216.56 129.59 230.35 108 222.82 95ZM211 84.05C213.78 88.87 212.43 95.85 207.2 103.71C201.64 112.07 192.46 120.2 181.35 126.62C164.92 136.11 147.23 139.85 136.82 136.33L145.62 123.69C147.614 124.622 149.8 125.071 152 125C158.87 125 167.77 121.72 175.83 117.07C189.17 109.36 200.43 97.78 195.51 89.26C192.958 84.8406 189.346 81.1257 185 78.45C197.55 76 207.44 78 211 84.05ZM155.68 82.16C161.681 78.6959 168.812 77.7571 175.505 79.5498C182.197 81.3426 187.904 85.7202 191.37 91.72C193.02 94.57 190.37 98.61 188.48 100.89C188.854 100.031 189.031 99.0987 188.996 98.1622C188.962 97.2258 188.717 96.3091 188.28 95.48C185.602 90.8364 181.467 87.2055 176.516 85.1496C171.565 83.0938 166.074 82.7277 160.895 84.1081C155.715 85.4885 151.134 88.5384 147.863 92.7853C144.592 97.0323 142.812 102.239 142.8 107.6C142.25 102.573 143.169 97.4944 145.446 92.9792C147.723 88.464 151.261 84.7058 155.63 82.16H155.68ZM109.83 106.63C118.2 100.3 130 94 140.5 92.13C139.671 93.9715 139.028 95.891 138.58 97.86C131.87 104.31 127.19 111.08 124.93 117.41L109.83 106.63ZM140.21 116.68L139.14 116.81C135.981 117.083 132.847 117.605 129.77 118.37C131.72 113.726 134.442 109.446 137.82 105.71C137.916 109.48 138.709 113.199 140.16 116.68H140.21ZM121 143.7C120.78 143.33 120.55 143.01 120.32 142.62C116.4 135.83 116.02 130.12 116.59 129.27C127.59 122.9 133.74 122.27 139.66 121.61C140.21 121.56 140.77 121.47 141.32 121.41L132.5 134C131.572 135.33 130.86 136.798 130.39 138.35L129.15 142.43L125.84 144.35C125.093 144.852 124.188 145.063 123.297 144.944C122.405 144.824 121.588 144.381 121 143.7V143.7ZM126.65 167.51L134.65 140.69C138.235 141.925 142.009 142.524 145.8 142.46C155.8 142.46 167.96 139.11 179.91 132.88C167.43 154.09 139.46 164.57 126.6 167.51H126.65ZM175.65 146.33C177.665 144.273 179.533 142.078 181.24 139.76L183.16 143.08C180.58 144.3 178.07 145.38 175.57 146.33H175.65ZM189.07 139.93C188.07 140.49 187.14 141.02 186.17 141.54L183.35 136.65C184.619 134.64 185.742 132.541 186.71 130.37L191.41 138.5C190.55 139 189.79 139.47 189 139.93H189.07ZM194.26 136.68L188.99 127.55C190.697 126.417 192.363 125.253 193.99 124.06L199.23 133.15C197.577 134.383 195.893 135.56 194.18 136.68H194.26ZM201.87 131.01L196.56 122C198.19 120.69 199.76 119.35 201.23 118L206.41 127C205 128.29 203.42 129.66 201.79 131L201.87 131.01ZM208.94 124.4L203.8 115.48C205.32 113.92 206.72 112.32 208.03 110.71L213.1 119.49C211.77 121.197 210.355 122.836 208.86 124.4H208.94ZM215.24 116.4L210.24 107.75C210.57 107.28 210.93 106.82 211.24 106.35C212.191 104.911 213.059 103.418 213.84 101.88L218.56 110.06C217.644 112.295 216.505 114.433 215.16 116.44L215.24 116.4ZM219.86 105.53L215.54 98.06C216.044 96.708 216.448 95.321 216.75 93.91L218.75 97.32C220.05 99.8641 220.415 102.784 219.78 105.57L219.86 105.53Z" fill="#4F457C"/>
<path d="M180.61 201.63C180.265 201.63 179.935 201.493 179.691 201.249C179.447 201.005 179.31 200.675 179.31 200.33V189.26C179.31 188.915 179.447 188.585 179.691 188.341C179.935 188.097 180.265 187.96 180.61 187.96C180.955 187.96 181.285 188.097 181.529 188.341C181.773 188.585 181.91 188.915 181.91 189.26V200.33C181.91 200.675 181.773 201.005 181.529 201.249C181.285 201.493 180.955 201.63 180.61 201.63V201.63Z" fill="#7996C9"/>
<path d="M199.64 224C199.295 224 198.965 223.863 198.721 223.619C198.477 223.375 198.34 223.045 198.34 222.7V212.84C198.34 212.495 198.477 212.165 198.721 211.921C198.965 211.677 199.295 211.54 199.64 211.54C199.985 211.54 200.315 211.677 200.559 211.921C200.803 212.165 200.94 212.495 200.94 212.84V222.7C200.94 223.045 200.803 223.375 200.559 223.619C200.315 223.863 199.985 224 199.64 224V224Z" fill="#7996C9"/>
<path d="M232.54 286C232.369 286 232.2 285.966 232.043 285.901C231.885 285.836 231.741 285.74 231.621 285.619C231.5 285.499 231.404 285.355 231.339 285.197C231.274 285.04 231.24 284.871 231.24 284.7V275.7C231.24 275.355 231.377 275.025 231.621 274.781C231.865 274.537 232.195 274.4 232.54 274.4C232.885 274.4 233.215 274.537 233.459 274.781C233.703 275.025 233.84 275.355 233.84 275.7V284.7C233.84 285.045 233.703 285.375 233.459 285.619C233.215 285.863 232.885 286 232.54 286Z" fill="#7996C9"/>
<path d="M148.51 289.46C148.165 289.46 147.835 289.323 147.591 289.079C147.347 288.835 147.21 288.505 147.21 288.16V279.32C147.21 278.975 147.347 278.645 147.591 278.401C147.835 278.157 148.165 278.02 148.51 278.02C148.855 278.02 149.185 278.157 149.429 278.401C149.673 278.645 149.81 278.975 149.81 279.32V288.16C149.81 288.505 149.673 288.835 149.429 289.079C149.185 289.323 148.855 289.46 148.51 289.46V289.46Z" fill="#7996C9"/>
<path d="M179.88 268C179.535 268 179.205 267.863 178.961 267.619C178.717 267.375 178.58 267.045 178.58 266.7V254.7C178.58 254.355 178.717 254.025 178.961 253.781C179.205 253.537 179.535 253.4 179.88 253.4C180.225 253.4 180.555 253.537 180.799 253.781C181.043 254.025 181.18 254.355 181.18 254.7V266.7C181.18 267.045 181.043 267.375 180.799 267.619C180.555 267.863 180.225 268 179.88 268Z" fill="#7996C9"/>
<path d="M203 278.25C202.655 278.25 202.325 278.113 202.081 277.869C201.837 277.625 201.7 277.295 201.7 276.95V260.74C201.7 260.395 201.837 260.065 202.081 259.821C202.325 259.577 202.655 259.44 203 259.44C203.345 259.44 203.675 259.577 203.919 259.821C204.163 260.065 204.3 260.395 204.3 260.74V277C204.287 277.336 204.144 277.654 203.902 277.887C203.66 278.12 203.336 278.25 203 278.25V278.25Z" fill="#7996C9"/>
<path d="M319.12 179.8C317.51 176.58 309.97 167.8 309.97 167.8C306.71 168.35 304.53 165.11 297.44 169.52C297.44 169.52 289.57 168.31 286.1 167.45C284.96 172.54 288 175.64 292.28 175.3C296.56 174.96 295.43 178.67 293.18 178.67C288.18 178.67 275.18 178.76 270.52 178.76C265.86 178.76 262.97 182.29 262.97 186.76C262.97 191.23 262.72 208.32 262.97 211.11C263.15 213.11 267.69 213.31 268.06 211.6C268.71 208.55 270.59 200.82 270.59 200.82C270.59 200.82 271.84 207.67 272.41 210.93C272.78 213.03 277.19 212.64 277.19 211.33C277.19 208.46 277.41 201.86 277.41 201.86H294C294 201.86 295.16 210.26 295.28 212.7C295.4 215.14 300.52 214.88 300.82 212.7C301.23 209.78 301.97 198.09 303.1 190.79C303.55 187.88 305.37 186.86 306.99 186.91C309.6 186.97 309.47 187.03 313.18 186.91C316.89 186.79 320.13 181.82 319.12 179.8ZM305.39 179.3C304.883 179.61 304.296 179.763 303.702 179.74C303.109 179.716 302.536 179.516 302.056 179.166C301.575 178.816 301.21 178.332 301.006 177.774C300.801 177.216 300.767 176.61 300.908 176.033C301.048 175.455 301.357 174.933 301.795 174.531C302.232 174.13 302.78 173.867 303.367 173.777C303.954 173.687 304.555 173.773 305.093 174.024C305.631 174.276 306.083 174.682 306.39 175.19C306.8 175.868 306.925 176.681 306.738 177.451C306.55 178.221 306.066 178.886 305.39 179.3V179.3Z" fill="#4F457C"/>
<path d="M284.3 206.72C287.592 206.72 290.26 204.052 290.26 200.76C290.26 197.468 287.592 194.8 284.3 194.8C281.008 194.8 278.34 197.468 278.34 200.76C278.34 204.052 281.008 206.72 284.3 206.72Z" fill="#4F457C"/>
<path d="M306.15 213C305.55 210 304.85 197.74 304.64 196.18C304.36 194.07 305.8 192.81 307.8 192.76C309.8 192.71 311.16 193.35 311.21 195.27C311.26 197.19 310.55 211.42 310.59 212.61C310.63 213.8 306.38 214.12 306.15 213Z" fill="#4F457C"/>
<path d="M286.196 207.333C286.343 208.025 287.022 208.466 287.714 208.32C288.405 208.173 288.847 207.493 288.7 206.802L288.326 205.041C288.179 204.349 287.499 203.908 286.808 204.055C286.116 204.202 285.675 204.881 285.822 205.573L286.196 207.333Z" fill="#4F457C"/>
<path d="M283.45 205.564C283.597 204.872 283.156 204.193 282.464 204.046C281.773 203.899 281.093 204.341 280.946 205.032L280.572 206.793C280.426 207.484 280.867 208.164 281.559 208.311C282.25 208.458 282.93 208.016 283.077 207.325L283.45 205.564Z" fill="#4F457C"/>
<path d="M257.43 195.4C257.786 193.742 258.237 192.106 258.78 190.5C260 186.85 263.17 185 268.21 185V182.4C260.39 182.4 257.43 186.4 256.32 189.68C255.742 191.388 255.261 193.128 254.88 194.89L257.43 195.4Z" fill="#4F457C"/>
<path d="M256.91 192.16C259.7 194.23 259.2 199.99 255.91 200.76C251.89 199.58 252.48 192.91 256.91 192.16Z" fill="#4F457C"/>
<path d="M313.68 213.09C313.561 213.089 313.443 213.068 313.33 213.03C313.207 212.983 313.095 212.913 312.999 212.823C312.904 212.733 312.827 212.625 312.773 212.505C312.719 212.385 312.689 212.256 312.685 212.125C312.681 211.994 312.703 211.863 312.75 211.74C313.363 210.301 314.057 208.899 314.83 207.54C314.96 207.31 315.177 207.14 315.431 207.069C315.686 206.998 315.959 207.03 316.19 207.16C316.305 207.224 316.407 207.311 316.489 207.415C316.57 207.519 316.631 207.638 316.666 207.766C316.701 207.893 316.711 208.026 316.694 208.157C316.678 208.289 316.636 208.415 316.57 208.53C315.851 209.798 315.2 211.103 314.62 212.44C314.548 212.631 314.42 212.796 314.252 212.913C314.084 213.029 313.884 213.091 313.68 213.09Z" fill="#4F457C"/>
<path d="M317.6 213.13C317.391 213.151 317.181 213.105 317 213C316.891 212.927 316.797 212.832 316.725 212.723C316.652 212.613 316.602 212.49 316.577 212.361C316.552 212.232 316.552 212.099 316.578 211.97C316.605 211.841 316.656 211.719 316.73 211.61L317.83 209.96C317.903 209.85 317.996 209.756 318.106 209.682C318.215 209.608 318.338 209.557 318.467 209.531C318.596 209.505 318.729 209.505 318.858 209.53C318.988 209.556 319.11 209.607 319.22 209.68C319.329 209.753 319.423 209.848 319.495 209.957C319.568 210.067 319.618 210.19 319.643 210.319C319.668 210.448 319.668 210.581 319.642 210.71C319.615 210.839 319.564 210.961 319.49 211.07L318.39 212.72C318.299 212.845 318.18 212.947 318.043 213.018C317.906 213.089 317.754 213.127 317.6 213.13Z" fill="#4F457C"/>
<path d="M295.38 160.43C293.54 162.63 292.72 168.92 297.95 170.62C303.18 172.32 316.85 173 316.3 162.73C314.14 166.26 310.3 167.38 305.56 167.18C299.42 166.94 294.87 163.87 295.38 160.43Z" fill="#4F457C"/>
<path d="M86.06 265C85.89 265 85.7228 264.957 85.5741 264.875C85.4254 264.793 85.3 264.674 85.21 264.53C83.9499 262.482 82.3582 260.657 80.5 259.13C80.389 259.053 80.2948 258.954 80.223 258.84C80.1511 258.726 80.1032 258.598 80.0821 258.465C80.061 258.331 80.0671 258.195 80.1001 258.064C80.1331 257.933 80.1923 257.81 80.274 257.703C80.3558 257.595 80.4585 257.505 80.5759 257.439C80.6934 257.372 80.8231 257.33 80.9573 257.315C81.0914 257.299 81.2273 257.312 81.3567 257.35C81.486 257.389 81.6062 257.454 81.71 257.54C83.7684 259.21 85.527 261.219 86.91 263.48C87.0478 263.704 87.0915 263.974 87.0316 264.231C86.9717 264.487 86.813 264.71 86.59 264.85C86.4308 264.949 86.2472 265.001 86.06 265Z" fill="#4F457C"/>
<path d="M90.6 265C90.3743 265.008 90.1525 264.939 89.9709 264.804C89.7893 264.67 89.6586 264.478 89.6 264.26C88.39 259.69 85.13 251.48 85.09 251.39C84.9919 251.143 84.9957 250.868 85.1008 250.624C85.2058 250.38 85.4034 250.188 85.65 250.09C85.8967 249.992 86.1722 249.996 86.416 250.101C86.6598 250.206 86.8519 250.403 86.95 250.65C87.09 251 90.29 259.06 91.53 263.75C91.5971 264.006 91.5601 264.278 91.427 264.507C91.2939 264.735 91.0757 264.902 90.82 264.97C90.7479 264.987 90.6742 264.998 90.6 265Z" fill="#4F457C"/>
<path d="M94.46 265C94.1948 265 93.9405 264.895 93.7529 264.707C93.5654 264.52 93.46 264.265 93.46 264C93.5652 260.71 94.0894 257.447 95.02 254.29C95.0485 254.155 95.1048 254.027 95.1852 253.914C95.2657 253.802 95.3685 253.707 95.4874 253.637C95.6062 253.566 95.7384 253.521 95.8756 253.504C96.0128 253.487 96.152 253.498 96.2845 253.538C96.4169 253.578 96.5398 253.644 96.6452 253.734C96.7507 253.823 96.8364 253.933 96.8971 254.057C96.9578 254.182 96.992 254.317 96.9977 254.455C97.0033 254.593 96.9803 254.731 96.93 254.86C96.0656 257.834 95.5719 260.904 95.46 264C95.46 264.265 95.3547 264.52 95.1671 264.707C94.9796 264.895 94.7252 265 94.46 265Z" fill="#4F457C"/>
<path d="M97.81 265C97.7504 265.01 97.6896 265.01 97.63 265C97.3706 264.951 97.1409 264.802 96.991 264.585C96.8411 264.368 96.7833 264.1 96.83 263.84C97.3099 262.052 98.3254 260.454 99.74 259.26C99.9466 259.123 100.197 259.068 100.442 259.105C100.686 259.142 100.909 259.269 101.066 259.461C101.223 259.652 101.303 259.896 101.291 260.143C101.278 260.39 101.175 260.625 101 260.8C99.9399 261.695 99.1648 262.88 98.77 264.21C98.7227 264.431 98.602 264.629 98.4277 264.772C98.2534 264.916 98.0357 264.996 97.81 265Z" fill="#4F457C"/>
<path d="M57.62 205.84V216.91C57.62 218.91 61.62 218.99 61.78 217C61.98 214.49 62.3 210.61 62.46 209.05C62.64 207.32 64.54 206.93 64.77 208.87C65.04 211.18 65.25 215.54 65.48 217.14C65.71 218.74 69.63 218.94 69.63 216.91V205.49L57.62 205.84Z" fill="#4F457C"/>
<path d="M48.1 211.49C51.4137 211.49 54.1 208.804 54.1 205.49C54.1 202.176 51.4137 199.49 48.1 199.49C44.7863 199.49 42.1 202.176 42.1 205.49C42.1 208.804 44.7863 211.49 48.1 211.49Z" fill="#4F457C"/>
<path d="M46.9706 210.476C47.0908 209.78 46.6235 209.118 45.9269 208.997C45.2303 208.877 44.5681 209.344 44.4479 210.041L44.1299 211.884C44.0097 212.581 44.477 213.243 45.1736 213.363C45.8703 213.483 46.5324 213.016 46.6526 212.319L46.9706 210.476Z" fill="#4F457C"/>
<path d="M50.2799 212.319C50.4001 213.016 51.0623 213.483 51.7589 213.363C52.4555 213.243 52.9228 212.581 52.8026 211.884L52.4846 210.041C52.3644 209.344 51.7023 208.877 51.0056 208.997C50.309 209.118 49.8417 209.78 49.9619 210.476L50.2799 212.319Z" fill="#4F457C"/>
<path d="M22.15 199.62L19.56 199.37C20.21 192.67 24.84 187.43 30.11 187.43V190C26.23 190 22.66 194.33 22.15 199.62Z" fill="#4F457C"/>
<path d="M21 198.43C16.32 198.81 15.65 205.61 19.61 207.18C20.5403 206.97 21.3862 206.485 22.0384 205.789C22.6906 205.093 23.1192 204.218 23.2689 203.276C23.4185 202.334 23.2823 201.369 22.8779 200.505C22.4735 199.641 21.8193 198.918 21 198.43V198.43Z" fill="#4F457C"/>
<path d="M81.78 199.65L85.53 193.16C80.64 192.66 78.22 195.16 79.36 198.37C79.36 198.37 75.05 191.37 73.24 188.68C72.3835 187.288 71.1889 186.136 69.7675 185.33C68.3461 184.524 66.7439 184.091 65.11 184.07H36.11C31.77 184.07 27.11 187.73 27.11 194.16V216.22C27.11 218.83 31.46 218.51 32.11 216.41C33.24 212.47 34.85 207.41 34.85 207.41C34.85 207.41 37.09 215.05 37.74 216.98C38.29 218.58 42.34 218.63 42.15 216.43C41.94 213.99 41.49 207.05 41.49 207.05H69.5C71.56 209.99 75.45 215.77 76.39 216.82C77.58 218.15 84.11 217.19 84.16 215.18C84.21 213.17 82.97 205.18 82.97 205.18C82.97 205.18 88.97 206.92 91.51 202.99C91.51 203.07 84.11 204.44 81.78 199.65ZM68.35 205.49C68.45 205.61 68.61 205.82 68.79 206.08L68.35 205.49ZM77.69 208.49C77.1492 208.492 76.62 208.333 76.1695 208.034C75.719 207.735 75.3676 207.309 75.1597 206.809C74.9519 206.31 74.8969 205.76 75.002 205.23C75.107 204.699 75.3672 204.212 75.7496 203.83C76.132 203.447 76.6194 203.187 77.1499 203.082C77.6804 202.977 78.2301 203.032 78.7293 203.24C79.2286 203.448 79.6549 203.799 79.9541 204.25C80.2533 204.7 80.412 205.229 80.41 205.77C80.4126 206.129 80.3442 206.485 80.2087 206.817C80.0732 207.149 79.8733 207.452 79.6204 207.706C79.3676 207.961 79.0668 208.163 78.7355 208.301C78.4042 208.439 78.0489 208.51 77.69 208.51V208.49Z" fill="#4F457C"/>
<path d="M18.71 219.41C18.5187 219.41 18.3313 219.356 18.17 219.253C18.0088 219.15 17.8803 219.004 17.8 218.83C16.54 216.07 15.48 213.67 15.48 213.67C15.4267 213.55 15.3977 213.42 15.3945 213.289C15.3913 213.158 15.414 213.027 15.4614 212.904C15.5087 212.782 15.5798 212.67 15.6705 212.575C15.7612 212.479 15.8698 212.403 15.99 212.35C16.1101 212.297 16.2396 212.268 16.371 212.264C16.5024 212.261 16.6331 212.284 16.7557 212.331C16.8783 212.379 16.9904 212.45 17.0855 212.541C17.1806 212.631 17.2569 212.74 17.31 212.86C17.31 212.86 18.31 215.25 19.62 218C19.7289 218.24 19.7385 218.514 19.6467 218.761C19.5549 219.008 19.3692 219.209 19.13 219.32C18.9976 219.378 18.8547 219.409 18.71 219.41V219.41Z" fill="#4F457C"/>
<path d="M22.88 218.32C22.6488 218.326 22.4229 218.251 22.2405 218.109C22.0582 217.967 21.9308 217.766 21.88 217.54L20.44 211.28C20.4104 211.152 20.4063 211.019 20.4279 210.89C20.4496 210.76 20.4966 210.636 20.5663 210.525C20.6359 210.413 20.7268 210.316 20.8339 210.24C20.9409 210.164 21.0619 210.109 21.19 210.08C21.318 210.05 21.4507 210.046 21.5803 210.068C21.7099 210.09 21.834 210.137 21.9455 210.206C22.0569 210.276 22.1535 210.367 22.2298 210.474C22.3061 210.581 22.3605 210.702 22.39 210.83L23.83 217.1C23.8869 217.357 23.84 217.626 23.6996 217.849C23.5592 218.072 23.3365 218.23 23.08 218.29C23.0147 218.307 22.9476 218.317 22.88 218.32Z" fill="#4F457C"/>
<path d="M15.37 220.2C15.1928 220.2 15.0189 220.152 14.866 220.063C14.7132 219.973 14.5868 219.844 14.5 219.69C14.0714 219.136 13.5741 218.639 13.02 218.21C12.9169 218.129 12.8309 218.028 12.7668 217.913C12.7027 217.798 12.6619 217.672 12.6465 217.542C12.6312 217.411 12.6417 217.279 12.6775 217.153C12.7133 217.026 12.7736 216.908 12.855 216.805C12.9364 216.702 13.0374 216.616 13.152 216.552C13.2667 216.488 13.3929 216.447 13.5234 216.432C13.6538 216.416 13.786 216.427 13.9124 216.462C14.0388 216.498 14.1569 216.559 14.26 216.64C15.0263 217.222 15.7005 217.917 16.26 218.7C16.3896 218.931 16.4223 219.204 16.3511 219.459C16.2799 219.713 16.1105 219.93 15.88 220.06C15.7257 220.152 15.5495 220.2 15.37 220.2Z" fill="#4F457C"/>
<path d="M103.53 217.29C103.347 217.292 103.167 217.243 103.01 217.15C102.784 217.013 102.621 216.792 102.557 216.535C102.493 216.278 102.534 216.007 102.67 215.78C103.532 214.43 104.602 213.225 105.84 212.21C105.943 212.127 106.061 212.066 106.188 212.03C106.315 211.993 106.447 211.982 106.578 211.997C106.709 212.011 106.836 212.052 106.951 212.116C107.067 212.18 107.168 212.267 107.25 212.37C107.414 212.577 107.488 212.841 107.458 213.103C107.429 213.365 107.296 213.605 107.09 213.77C106.044 214.628 105.134 215.64 104.39 216.77C104.305 216.925 104.181 217.055 104.03 217.146C103.879 217.237 103.706 217.287 103.53 217.29Z" fill="#4F457C"/>
<path d="M99.68 217.29C99.5772 217.305 99.4728 217.305 99.37 217.29C99.2444 217.25 99.1279 217.186 99.0272 217.101C98.9264 217.016 98.8435 216.912 98.7831 216.795C98.7227 216.678 98.686 216.55 98.6752 216.419C98.6644 216.288 98.6796 216.155 98.72 216.03C99.7416 212.963 101.065 210.006 102.67 207.2C102.816 207 103.03 206.861 103.273 206.81C103.515 206.759 103.767 206.799 103.981 206.924C104.195 207.048 104.356 207.247 104.431 207.483C104.507 207.719 104.492 207.974 104.39 208.2C102.866 210.878 101.607 213.698 100.63 216.62C100.561 216.817 100.433 216.987 100.262 217.107C100.092 217.227 99.8884 217.291 99.68 217.29Z" fill="#4F457C"/>
<path d="M96.48 217.29C96.2148 217.29 95.9604 217.185 95.7729 216.997C95.5853 216.81 95.48 216.555 95.48 216.29V210.15C95.48 209.885 95.5853 209.63 95.7729 209.443C95.9604 209.255 96.2148 209.15 96.48 209.15C96.7452 209.15 96.9996 209.255 97.1871 209.443C97.3746 209.63 97.48 209.885 97.48 210.15V216.29C97.48 216.555 97.3746 216.81 97.1871 216.997C96.9996 217.185 96.7452 217.29 96.48 217.29Z" fill="#4F457C"/>
<path d="M93.44 217.29C93.2648 217.292 93.0922 217.247 92.9395 217.161C92.7868 217.075 92.6594 216.951 92.57 216.8L90.65 213.49C90.5677 213.377 90.5101 213.248 90.4808 213.111C90.4516 212.974 90.4514 212.833 90.4802 212.696C90.5091 212.559 90.5664 212.429 90.6483 212.316C90.7303 212.203 90.8351 212.108 90.9561 212.037C91.0771 211.967 91.2115 211.923 91.3506 211.908C91.4897 211.893 91.6304 211.907 91.7637 211.949C91.8969 211.992 92.0197 212.062 92.1242 212.155C92.2286 212.249 92.3124 212.362 92.37 212.49L94.3 215.79C94.3665 215.904 94.41 216.029 94.4279 216.159C94.4458 216.29 94.4378 216.422 94.4044 216.55C94.3709 216.677 94.3127 216.796 94.233 216.901C94.1533 217.006 94.0538 217.094 93.94 217.16C93.7876 217.246 93.6152 217.291 93.44 217.29Z" fill="#4F457C"/>
<path d="M291.09 256.29C290.896 256.292 290.706 256.237 290.542 256.132C290.379 256.027 290.25 255.877 290.17 255.7C289.759 254.777 289.302 253.876 288.8 253C288.733 252.886 288.69 252.761 288.672 252.631C288.654 252.5 288.662 252.368 288.696 252.24C288.729 252.113 288.787 251.994 288.867 251.889C288.947 251.784 289.046 251.696 289.16 251.63C289.274 251.563 289.399 251.52 289.529 251.502C289.66 251.484 289.792 251.492 289.92 251.526C290.047 251.559 290.166 251.617 290.271 251.697C290.376 251.777 290.464 251.876 290.53 251.99C290.53 252.05 291.31 253.34 292 254.89C292.055 255.011 292.085 255.141 292.089 255.274C292.093 255.406 292.071 255.538 292.023 255.662C291.976 255.785 291.904 255.899 291.813 255.994C291.721 256.09 291.611 256.167 291.49 256.22C291.362 256.267 291.226 256.291 291.09 256.29V256.29Z" fill="#4F457C"/>
<path d="M294.39 256.29C294.125 256.29 293.87 256.185 293.683 255.997C293.495 255.81 293.39 255.555 293.39 255.29C293.278 252.789 292.984 250.299 292.51 247.84C292.46 247.575 292.517 247.3 292.669 247.077C292.82 246.854 293.055 246.7 293.32 246.65C293.585 246.6 293.86 246.657 294.083 246.809C294.306 246.96 294.46 247.195 294.51 247.46C295.008 250.044 295.312 252.661 295.42 255.29C295.42 255.424 295.393 255.556 295.341 255.68C295.289 255.803 295.213 255.915 295.117 256.008C295.021 256.101 294.907 256.174 294.782 256.223C294.657 256.271 294.524 256.294 294.39 256.29Z" fill="#4F457C"/>
<path d="M297.9 256.29H297.64C297.512 256.256 297.393 256.198 297.288 256.118C297.183 256.037 297.095 255.937 297.029 255.823C296.963 255.709 296.92 255.582 296.903 255.451C296.886 255.32 296.895 255.187 296.93 255.06L298.03 250.97C298.057 250.836 298.111 250.709 298.188 250.597C298.266 250.485 298.366 250.39 298.481 250.317C298.597 250.245 298.727 250.197 298.862 250.177C298.996 250.157 299.134 250.164 299.266 250.199C299.398 250.234 299.522 250.295 299.629 250.38C299.736 250.464 299.825 250.57 299.89 250.69C299.955 250.81 299.995 250.942 300.007 251.078C300.019 251.213 300.003 251.35 299.96 251.48L298.87 255.58C298.807 255.788 298.679 255.969 298.504 256.097C298.329 256.225 298.117 256.293 297.9 256.29V256.29Z" fill="#4F457C"/>
<path d="M66.76 113.07C68.3451 113.07 69.63 111.785 69.63 110.2C69.63 108.615 68.3451 107.33 66.76 107.33C65.175 107.33 63.89 108.615 63.89 110.2C63.89 111.785 65.175 113.07 66.76 113.07Z" fill="#88D1C3"/>
<path d="M92.47 77.2C93.0002 77.2 93.43 76.7702 93.43 76.24C93.43 75.7098 93.0002 75.28 92.47 75.28C91.9398 75.28 91.51 75.7098 91.51 76.24C91.51 76.7702 91.9398 77.2 92.47 77.2Z" fill="#88D1C3"/>
<path d="M61.85 46.32C63.667 46.32 65.14 44.847 65.14 43.03C65.14 41.213 63.667 39.74 61.85 39.74C60.033 39.74 58.56 41.213 58.56 43.03C58.56 44.847 60.033 46.32 61.85 46.32Z" fill="#88D1C3"/>
<path d="M3.91002 115.83C5.85406 115.83 7.43002 114.254 7.43002 112.31C7.43002 110.366 5.85406 108.79 3.91002 108.79C1.96598 108.79 0.390015 110.366 0.390015 112.31C0.390015 114.254 1.96598 115.83 3.91002 115.83Z" fill="#88D1C3"/>
<path d="M278.34 120.03C279.71 120.03 280.82 118.92 280.82 117.55C280.82 116.18 279.71 115.07 278.34 115.07C276.97 115.07 275.86 116.18 275.86 117.55C275.86 118.92 276.97 120.03 278.34 120.03Z" fill="#88D1C3"/>
<path d="M307.91 16.01C309.28 16.01 310.39 14.8997 310.39 13.53C310.39 12.1603 309.28 11.05 307.91 11.05C306.54 11.05 305.43 12.1603 305.43 13.53C305.43 14.8997 306.54 16.01 307.91 16.01Z" fill="#88D1C3"/>
<path d="M191.33 11.06C194.158 11.06 196.45 8.7677 196.45 5.94001C196.45 3.11231 194.158 0.820007 191.33 0.820007C188.502 0.820007 186.21 3.11231 186.21 5.94001C186.21 8.7677 188.502 11.06 191.33 11.06Z" fill="#88D1C3"/>
<path d="M262.86 43.18C264.71 43.18 266.21 41.6802 266.21 39.83C266.21 37.9799 264.71 36.48 262.86 36.48C261.01 36.48 259.51 37.9799 259.51 39.83C259.51 41.6802 261.01 43.18 262.86 43.18Z" fill="#88D1C3"/>
<path d="M317.17 94.6C309.89 94.6 302.908 91.708 297.76 86.5601C292.612 81.4122 289.72 74.4302 289.72 67.15C289.72 59.8698 292.612 52.8878 297.76 47.7399C302.908 42.5921 309.89 39.7 317.17 39.7C317.421 39.6814 317.673 39.7148 317.911 39.7981C318.148 39.8814 318.366 40.0128 318.55 40.1841C318.735 40.3553 318.882 40.5628 318.983 40.7936C319.083 41.0243 319.135 41.2733 319.135 41.525C319.135 41.7767 319.083 42.0257 318.983 42.2564C318.882 42.4872 318.735 42.6947 318.55 42.866C318.366 43.0372 318.148 43.1686 317.911 43.2519C317.673 43.3352 317.421 43.3686 317.17 43.35C312.463 43.35 307.861 44.7459 303.947 47.361C300.034 49.9762 296.983 53.6933 295.182 58.0421C293.38 62.391 292.909 67.1764 293.827 71.7932C294.746 76.4099 297.012 80.6507 300.341 83.9792C303.669 87.3076 307.91 89.5744 312.527 90.4927C317.144 91.411 321.929 90.9397 326.278 89.1383C330.627 87.337 334.344 84.2865 336.959 80.3726C339.574 76.4587 340.97 71.8572 340.97 67.15C341.004 66.6893 341.211 66.2586 341.55 65.9442C341.888 65.6299 342.333 65.4552 342.795 65.4552C343.257 65.4552 343.702 65.6299 344.04 65.9442C344.379 66.2586 344.586 66.6893 344.62 67.15C344.612 74.4278 341.717 81.4052 336.571 86.5513C331.425 91.6975 324.448 94.5921 317.17 94.6V94.6Z" fill="#4F457C"/>
<path d="M306.453 71.7509C308.847 70.9873 309.973 67.8133 308.968 64.6616C307.963 61.5098 305.207 59.5738 302.813 60.3374C300.419 61.101 299.293 64.275 300.298 67.4268C301.304 70.5785 304.059 72.5145 306.453 71.7509Z" fill="#4F457C"/>
<path d="M308.89 82.97C309.967 82.97 310.84 82.097 310.84 81.02C310.84 79.943 309.967 79.07 308.89 79.07C307.813 79.07 306.94 79.943 306.94 81.02C306.94 82.097 307.813 82.97 308.89 82.97Z" fill="#4F457C"/>
<path d="M322.3 85.66C323.377 85.66 324.25 84.787 324.25 83.71C324.25 82.6331 323.377 81.76 322.3 81.76C321.223 81.76 320.35 82.6331 320.35 83.71C320.35 84.787 321.223 85.66 322.3 85.66Z" fill="#4F457C"/>
<path d="M317.76 75.46C318.517 75.46 319.13 74.8466 319.13 74.09C319.13 73.3334 318.517 72.72 317.76 72.72C317.003 72.72 316.39 73.3334 316.39 74.09C316.39 74.8466 317.003 75.46 317.76 75.46Z" fill="#4F457C"/>
<path d="M330.65 76.81C330.981 76.81 331.25 76.5414 331.25 76.21C331.25 75.8786 330.981 75.61 330.65 75.61C330.319 75.61 330.05 75.8786 330.05 76.21C330.05 76.5414 330.319 76.81 330.65 76.81Z" fill="#4F457C"/>
<path d="M232.43 87.95C236.423 87.95 239.66 84.713 239.66 80.72C239.66 76.727 236.423 73.49 232.43 73.49C228.437 73.49 225.2 76.727 225.2 80.72C225.2 84.713 228.437 87.95 232.43 87.95Z" fill="#88D1C3"/>
<defs>
<linearGradient id="paint0_linear_1584_4146" x1="193.96" y1="112.64" x2="198.83" y2="278.09" gradientUnits="userSpaceOnUse">
<stop stop-color="white" stop-opacity="0.5"/>
<stop offset="0.14" stop-color="white" stop-opacity="0.48"/>
<stop offset="0.34" stop-color="white" stop-opacity="0.41"/>
<stop offset="0.56" stop-color="white" stop-opacity="0.3"/>
<stop offset="0.81" stop-color="white" stop-opacity="0.14"/>
<stop offset="1" stop-color="white" stop-opacity="0"/>
</linearGradient>
</defs>
</svg>
