<svg width="380" height="316" viewBox="0 0 380 316" fill="none" xmlns="http://www.w3.org/2000/svg">
<path d="M113.22 234.93H89.76C89.3622 234.93 88.9806 234.772 88.6993 234.491C88.418 234.209 88.26 233.828 88.26 233.43C88.26 233.032 88.418 232.651 88.6993 232.369C88.9806 232.088 89.3622 231.93 89.76 231.93H113.22C113.618 231.93 113.999 232.088 114.281 232.369C114.562 232.651 114.72 233.032 114.72 233.43C114.72 233.828 114.562 234.209 114.281 234.491C113.999 234.772 113.618 234.93 113.22 234.93V234.93Z" fill="#4F457C"/>
<path d="M94.94 238.43C94.5422 238.43 94.1606 238.272 93.8793 237.991C93.598 237.709 93.44 237.328 93.44 236.93V229.93C93.44 229.532 93.598 229.151 93.8793 228.869C94.1606 228.588 94.5422 228.43 94.94 228.43C95.3378 228.43 95.7194 228.588 96.0007 228.869C96.282 229.151 96.44 229.532 96.44 229.93V236.93C96.44 237.328 96.282 237.709 96.0007 237.991C95.7194 238.272 95.3378 238.43 94.94 238.43Z" fill="#4F457C"/>
<path d="M101.94 238.43C101.542 238.43 101.161 238.272 100.879 237.991C100.598 237.709 100.44 237.328 100.44 236.93V229.93C100.44 229.532 100.598 229.151 100.879 228.869C101.161 228.588 101.542 228.43 101.94 228.43C102.338 228.43 102.719 228.588 103.001 228.869C103.282 229.151 103.44 229.532 103.44 229.93V236.93C103.44 237.328 103.282 237.709 103.001 237.991C102.719 238.272 102.338 238.43 101.94 238.43V238.43Z" fill="#4F457C"/>
<path d="M109 238.43C108.602 238.43 108.221 238.272 107.939 237.991C107.658 237.709 107.5 237.328 107.5 236.93V229.93C107.5 229.532 107.658 229.151 107.939 228.869C108.221 228.588 108.602 228.43 109 228.43C109.398 228.43 109.779 228.588 110.061 228.869C110.342 229.151 110.5 229.532 110.5 229.93V236.93C110.5 237.328 110.342 237.709 110.061 237.991C109.779 238.272 109.398 238.43 109 238.43Z" fill="#4F457C"/>
<path d="M80.54 198.48L63.69 188.92H59.13L42.28 198.48L33.06 213.43V237.94H37.63H89.76V213.43L80.54 198.48Z" fill="#657A99"/>
<path d="M26.37 188.92L9.52002 198.48L0.299988 213.48V237.99H37.63V213.43L46.84 198.43L63.69 188.87L26.37 188.92ZM13.91 229.18H6.76001V219.13H13.91V229.18ZM28.04 229.18H20.89V219.13H28L28.04 229.18Z" fill="#4F457C"/>
<path opacity="0.6" d="M203.13 118.16L83.47 301.09H239.36L203.13 118.16Z" fill="url(#paint0_linear_1584_4146)"/>
<path d="M204.71 181.81C205.89 184.91 201.88 189.29 195.77 191.61C189.66 193.93 183.77 193.28 182.58 190.19L181.36 186.96L203.49 178.58L204.71 181.81Z" fill="#C6A35D"/>
<path d="M194.529 188.311C200.639 185.998 204.642 181.611 203.469 178.512C202.296 175.413 196.392 174.775 190.281 177.088C184.171 179.401 180.168 183.788 181.341 186.887C182.514 189.986 188.418 190.624 194.529 188.311Z" fill="#F2CE7E"/>
<path d="M215.35 234.89C212.77 238.33 205.82 237.48 199.81 232.99C193.8 228.5 191.02 222.08 193.59 218.64L196.27 215.05L218 231.3L215.35 234.89Z" fill="#C6A35D"/>
<path d="M218.01 231.286C220.582 227.844 217.795 221.414 211.787 216.926C205.778 212.437 198.822 211.589 196.251 215.032C193.679 218.474 196.466 224.903 202.474 229.392C208.483 233.88 215.439 234.728 218.01 231.286Z" fill="#F2CE7E"/>
<path d="M159 197.74C160.47 195.03 166.6 195.53 172.69 198.86C178.78 202.19 182.5 207.07 181.02 209.78L179.37 212.91L157.37 200.91L159 197.74Z" fill="#C6A35D"/>
<path d="M179.324 212.853C180.802 210.148 177.069 205.262 170.986 201.939C164.904 198.615 158.775 198.114 157.297 200.818C155.82 203.523 159.553 208.409 165.635 211.732C171.718 215.055 177.847 215.557 179.324 212.853Z" fill="#F2CE7E"/>
<path d="M145.57 257.15C148.4 259.24 152.88 262.99 154.07 264.73C155.26 266.47 153.43 267.66 152.15 268.49C150.87 269.32 131.51 287.97 134.15 301.44C136.62 314.05 171.05 314.14 178.72 314.14C186.39 314.14 216.43 312.23 218.72 302.36C221.91 288.58 201.72 271.23 199.32 269.76C196.92 268.29 196.32 266.92 197.62 265.55C200.518 262.283 202.838 258.546 204.48 254.5L145.57 257.15Z" fill="#7996C9"/>
<path d="M171.57 249.14C155.99 249.14 143.57 250.19 143.57 254.5C143.57 258.62 152.25 258.42 159.01 258.7C165.77 258.98 168.24 261.7 173.72 264.7C177.55 266.83 181.72 267.56 186.72 262.7C189.44 260.03 191.83 258.37 198.32 257.7C204.81 257.03 207.72 252.95 199.78 250.58C191.84 248.21 171.57 249.14 171.57 249.14Z" fill="#88D1C3"/>
<path d="M177.72 276.06C174.405 276.06 171.094 275.799 167.82 275.28C160.82 274.13 152.39 271.28 149.66 266.92C149.297 266.334 149.181 265.627 149.339 264.956C149.496 264.285 149.914 263.703 150.5 263.34C151.086 262.977 151.793 262.861 152.464 263.019C153.135 263.176 153.717 263.594 154.08 264.18C155.31 266.18 160.71 268.84 168.67 270.18C178.1 271.73 190.91 271.18 198.54 264.85C198.799 264.61 199.105 264.425 199.439 264.307C199.772 264.189 200.126 264.14 200.479 264.163C200.831 264.187 201.176 264.282 201.491 264.443C201.806 264.604 202.084 264.828 202.31 265.1C202.535 265.373 202.703 265.688 202.802 266.028C202.901 266.367 202.93 266.723 202.887 267.074C202.844 267.425 202.73 267.764 202.552 268.069C202.373 268.374 202.135 268.64 201.85 268.85C194.75 274.69 185.14 276.06 177.72 276.06Z" fill="#4F457C"/>
<path d="M168.16 306.05C167.612 306.05 167.078 305.877 166.635 305.555C166.191 305.234 165.861 304.781 165.69 304.26C160.79 289.2 167.6 277.17 174.91 271.44C175.178 271.222 175.486 271.06 175.818 270.963C176.149 270.866 176.496 270.835 176.839 270.874C177.182 270.912 177.514 271.019 177.815 271.187C178.117 271.355 178.382 271.581 178.595 271.853C178.808 272.124 178.965 272.435 179.057 272.768C179.148 273.101 179.172 273.449 179.128 273.791C179.084 274.133 178.972 274.463 178.799 274.762C178.626 275.06 178.395 275.322 178.12 275.53C175.95 277.23 165.39 286.53 170.63 302.65C170.736 302.974 170.777 303.315 170.751 303.655C170.725 303.994 170.633 304.326 170.478 304.629C170.324 304.933 170.112 305.203 169.853 305.425C169.594 305.646 169.294 305.815 168.97 305.92C168.709 306.007 168.435 306.051 168.16 306.05V306.05Z" fill="#4F457C"/>
<path d="M187.89 292.9C187.549 292.9 187.211 292.833 186.897 292.702C186.582 292.571 186.296 292.379 186.055 292.138C185.814 291.896 185.624 291.61 185.494 291.294C185.365 290.979 185.299 290.641 185.3 290.3C185.3 285.13 184.18 278.41 178.87 275.82C178.275 275.503 177.826 274.968 177.618 274.327C177.41 273.686 177.459 272.99 177.755 272.384C178.051 271.778 178.57 271.311 179.203 271.081C179.837 270.851 180.535 270.876 181.15 271.15C187.15 274.09 190.49 280.89 190.49 290.3C190.491 290.642 190.425 290.98 190.295 291.297C190.165 291.613 189.973 291.9 189.731 292.141C189.49 292.383 189.203 292.575 188.887 292.705C188.571 292.835 188.232 292.901 187.89 292.9V292.9Z" fill="#4F457C"/>
<path d="M199.74 250.57C194.65 249.05 184.54 248.89 177.92 248.97L182.69 265.53C184.18 264.813 185.533 263.842 186.69 262.66C189.41 259.99 191.8 258.33 198.29 257.66C204.78 256.99 207.68 252.94 199.74 250.57Z" fill="#88D1C3"/>
<path d="M161.21 249.35C150.83 249.82 143.56 251.21 143.56 254.5C143.56 258.62 152.24 258.42 159 258.7C160.853 258.751 162.689 259.071 164.45 259.65C163.468 257.863 162.69 255.971 162.13 254.01C161.69 252.486 161.382 250.927 161.21 249.35V249.35Z" fill="#88D1C3"/>
<path d="M177.92 249L173 232.05L168 233.5C163 234.95 160.3 241.61 161.17 249.35C164.37 249.2 167.86 249.14 171.53 249.14C171.57 249.14 174.2 249 177.92 249Z" fill="#C6A35D"/>
<path d="M171.57 249.14C167.9 249.14 164.41 249.2 161.21 249.35C161.382 250.927 161.69 252.486 162.13 254.01C162.69 255.971 163.468 257.863 164.45 259.65C167.67 260.75 170 262.65 173.71 264.71C176.47 266.25 179.4 267.04 182.71 265.53L177.92 249C174.2 249 171.57 249.14 171.57 249.14Z" fill="#C6A35D"/>
<path d="M189.63 249.18C189.463 248.201 189.239 247.233 188.96 246.28C186.2 236.69 179.07 230.28 173.04 232.05C167.73 233.59 165.04 240.91 166.38 249.19C168.06 249.19 169.79 249.14 171.57 249.14C171.57 249.14 181.09 248.7 189.63 249.18Z" fill="#F2CE7E"/>
<path d="M189.63 249.18C181.09 248.7 171.57 249.18 171.57 249.18C169.79 249.18 168.06 249.18 166.38 249.23C166.557 250.372 166.807 251.501 167.13 252.61C168.99 259.08 172.85 264.07 177.01 266.11C179.93 266.84 183.08 266.24 186.68 262.7C187.369 262.011 188.104 261.37 188.88 260.78C190.16 257.049 190.419 253.044 189.63 249.18Z" fill="#F2CE7E"/>
<path d="M217.85 44C217.505 44 217.175 43.863 216.931 43.6192C216.687 43.3755 216.55 43.0448 216.55 42.7V39.15C216.55 38.8052 216.687 38.4746 216.931 38.2308C217.175 37.987 217.505 37.85 217.85 37.85C218.195 37.85 218.525 37.987 218.769 38.2308C219.013 38.4746 219.15 38.8052 219.15 39.15V42.74C219.14 43.0778 218.998 43.3983 218.755 43.6335C218.513 43.8687 218.188 44.0002 217.85 44Z" fill="#88D1C3"/>
<path d="M225.35 48H221.76C221.589 48 221.42 47.9664 221.262 47.901C221.105 47.8357 220.962 47.7399 220.841 47.6192C220.72 47.4985 220.624 47.3552 220.559 47.1975C220.494 47.0398 220.46 46.8707 220.46 46.7C220.46 46.5293 220.494 46.3602 220.559 46.2025C220.624 46.0448 220.72 45.9015 220.841 45.7808C220.962 45.66 221.105 45.5643 221.262 45.4989C221.42 45.4336 221.589 45.4 221.76 45.4H225.35C225.695 45.4 226.025 45.537 226.269 45.7808C226.513 46.0246 226.65 46.3552 226.65 46.7C226.65 47.0448 226.513 47.3754 226.269 47.6192C226.025 47.863 225.695 48 225.35 48V48Z" fill="#88D1C3"/>
<path d="M217.85 55.45C217.505 55.45 217.175 55.313 216.931 55.0692C216.687 54.8254 216.55 54.4948 216.55 54.15V50.56C216.55 50.2152 216.687 49.8846 216.931 49.6408C217.175 49.397 217.505 49.26 217.85 49.26C218.195 49.26 218.525 49.397 218.769 49.6408C219.013 49.8846 219.15 50.2152 219.15 50.56V54.15C219.15 54.4948 219.013 54.8254 218.769 55.0692C218.525 55.313 218.195 55.45 217.85 55.45V55.45Z" fill="#88D1C3"/>
<path d="M213.94 48H210.35C210.179 48 210.01 47.9664 209.853 47.901C209.695 47.8357 209.552 47.7399 209.431 47.6192C209.31 47.4985 209.214 47.3552 209.149 47.1975C209.084 47.0398 209.05 46.8707 209.05 46.7C209.05 46.5293 209.084 46.3602 209.149 46.2025C209.214 46.0448 209.31 45.9015 209.431 45.7808C209.552 45.66 209.695 45.5643 209.853 45.4989C210.01 45.4336 210.179 45.4 210.35 45.4H213.94C214.285 45.4 214.615 45.537 214.859 45.7808C215.103 46.0246 215.24 46.3552 215.24 46.7C215.24 47.0448 215.103 47.3754 214.859 47.6192C214.615 47.863 214.285 48 213.94 48V48Z" fill="#88D1C3"/>
<path d="M161.62 107L157.43 82.16C168.74 83.26 187.03 88 197.43 97.37" fill="#88D1C3"/>
<path d="M247.478 156.012C250.993 142.894 232.436 126.524 206.029 119.448C179.623 112.372 155.367 117.271 151.852 130.388C148.337 143.506 166.894 159.877 193.301 166.952C219.707 174.028 243.963 169.129 247.478 156.012Z" fill="#7996C9"/>
<path d="M129.29 103.36C122.96 101.66 112.11 103.9 106.49 107.31C109.65 113.07 117.93 120.44 124.26 122.13C126.71 122.679 129.277 122.259 131.425 120.957C133.572 119.655 135.132 117.573 135.778 115.147C136.424 112.721 136.107 110.139 134.892 107.942C133.677 105.744 131.659 104.103 129.26 103.36H129.29Z" fill="#FF8080"/>
<path d="M251.416 141.323C254.931 128.206 236.374 111.835 209.967 104.76C183.56 97.6842 159.304 102.582 155.789 115.7C152.274 128.818 170.832 145.188 197.238 152.264C223.645 159.34 247.901 154.441 251.416 141.323Z" fill="white"/>
<path d="M241.355 137.918C243.983 128.107 227 115.032 203.42 108.714C179.841 102.396 158.595 105.228 155.967 115.038C153.338 124.848 170.322 137.923 193.901 144.241C217.48 150.559 238.726 147.728 241.355 137.918Z" fill="#88D1C3"/>
<path d="M229.21 155.06L225.69 168.2C225.69 168.2 229.61 168.68 231.94 167.89C234.27 167.1 243.77 164.33 245.73 157.38C247.69 150.43 248.03 148.02 244.73 149.83C241.43 151.64 229.21 155.06 229.21 155.06Z" fill="white"/>
<path d="M169.87 139.85C163.74 135.51 161.63 132.99 159.09 128.85C156.55 124.71 155.68 126.38 151.55 126.85C147.42 127.32 124.55 139.65 124.55 139.65C124.55 139.65 130.92 147.39 143.47 150.75C156.02 154.11 188.21 159.91 192.34 155.37C196.47 150.83 191.52 152.64 185 148.99C178.48 145.34 169.87 139.85 169.87 139.85Z" fill="#88D1C3"/>
<path d="M158.8 84.45C171.53 88.3 185 93.45 189.12 99.99C189.12 99.99 196.88 97.81 196.4 96.45C195.92 95.09 168.83 83.79 162.4 82.81C155.97 81.83 158.8 84.45 158.8 84.45Z" fill="white"/>
<path d="M171.5 114.05C165.92 110.761 160.02 108.051 153.89 105.96C149.02 104.43 147.11 103.78 145.78 105.48C144.45 107.18 139.29 119.85 140.09 122.7C140.89 125.55 145.23 126.9 148.63 125.47C152.03 124.04 153.31 122.78 160.05 122.28C166.79 121.78 179 120.7 171.5 114.05Z" fill="#88D1C3"/>
<path d="M145 108.23C153.608 110.407 161.842 113.859 169.43 118.47L163.68 120.26L141.53 114.32L145 108.23Z" fill="white"/>
<path d="M128.39 139.32C136.1 142.79 158.45 152.71 182.24 149.53C182.24 149.53 194.24 151.82 195.18 153C196.12 154.18 176.45 158.82 159.85 154.27C143.25 149.72 122.31 142 128.39 139.32Z" fill="white"/>
<path d="M230.88 132.67C226.8 147.89 171.67 133.12 175.75 117.9C176.677 114.233 178.323 110.787 180.593 107.762C182.863 104.738 185.712 102.194 188.974 100.28C192.236 98.3654 195.845 97.1184 199.593 96.6114C203.341 96.1043 207.152 96.3471 210.806 97.3259C214.459 98.3046 217.881 99.9997 220.873 102.313C223.866 104.625 226.369 107.51 228.236 110.799C230.104 114.087 231.3 117.714 231.754 121.469C232.208 125.224 231.911 129.031 230.88 132.67V132.67Z" fill="#88D1C3"/>
<path d="M248.788 146.544L247.538 151.209L258.375 154.115L259.626 149.449L248.788 146.544Z" fill="#4F457C"/>
<path d="M248.54 156.6L252.54 141.6C255.16 131.46 246.77 119.7 230.62 110.78C227.601 105.017 222.83 100.361 216.994 97.4854C211.158 94.6096 204.559 93.6623 198.15 94.78C187.63 85.9 170.56 81.19 158.87 79.85C158.365 79.7924 157.855 79.8528 157.377 80.0263C156.9 80.1999 156.47 80.4818 156.12 80.85C155.763 81.2283 155.498 81.6845 155.347 82.1825C155.196 82.6806 155.163 83.2069 155.25 83.72L158.62 103.72C155.922 102.677 153.168 101.785 150.37 101.05C144.86 99.57 139.62 109.22 137.65 116.54C136.17 122.07 135.96 126.88 136.93 130.26L125 136.64C124.516 136.907 124.1 137.283 123.785 137.737C123.47 138.192 123.265 138.714 123.185 139.261C123.106 139.809 123.154 140.367 123.327 140.892C123.499 141.418 123.791 141.896 124.18 142.29C124.343 142.449 124.52 142.593 124.71 142.72C137.563 150.96 151.994 156.426 167.08 158.77V158.77C174.704 163.378 182.952 166.864 191.57 169.12C219.61 176.67 244.64 171.16 248.54 156.6ZM247.85 140.5C246.41 145.88 240.52 149.86 231.27 151.72C221.42 153.72 209.18 152.96 196.79 149.64C178.46 144.73 163.3 134.87 158.43 125.02L173.59 122.3C174.331 124.391 175.558 126.276 177.17 127.8C182.03 132.66 190.65 136.63 199.63 139.04C214.52 143.04 230.63 142.79 233.21 133.29C234.545 128.344 234.621 123.143 233.43 118.16C244.09 125.31 249.67 133.72 247.85 140.5ZM210.08 100.05C214.496 101.225 218.525 103.542 221.76 106.77C223.385 108.397 224.79 110.229 225.94 112.22C227.663 115.189 228.78 118.47 229.228 121.874C229.676 125.277 229.446 128.736 228.55 132.05C227.69 135.23 222.95 136.19 220.02 136.49C220.894 136.142 221.679 135.602 222.316 134.909C222.953 134.217 223.426 133.39 223.7 132.49C225.094 127.312 224.74 121.818 222.694 116.861C220.649 111.904 217.025 107.76 212.385 105.071C207.745 102.382 202.348 101.299 197.03 101.99C191.711 102.68 186.77 105.106 182.97 108.89C186.151 104.954 190.404 102.024 195.216 100.455C200.027 98.8863 205.19 98.7456 210.08 100.05V100.05ZM160.35 84.93C170.78 86.41 183.6 90.34 192.35 96.4C190.467 97.1184 188.658 98.0193 186.95 99.09C177.64 98.92 169.54 100.38 163.47 103.27L160.35 84.93ZM174.72 113.52L173.88 112.86C171.453 110.817 168.868 108.967 166.15 107.33C170.812 105.429 175.762 104.326 180.79 104.07C178.205 106.822 176.147 110.025 174.72 113.52V113.52ZM142 119.05C142.09 118.63 142.16 118.24 142.28 117.8C144.28 110.23 148.08 105.92 149.08 105.73C161.4 109.03 166.18 112.89 170.8 116.62L172.13 117.62L157.01 120.33C155.413 120.614 153.871 121.148 152.44 121.91L148.68 123.91L144.98 122.91C144.095 122.747 143.301 122.263 142.751 121.551C142.201 120.838 141.933 119.948 142 119.05ZM129.2 139.87L153.83 126.58C155.491 129.989 157.735 133.083 160.46 135.72C167.52 142.79 178.46 149.02 191.35 153.06C167.55 159.26 140.37 146.89 129.2 139.87ZM178.79 159.53C181.673 159.496 184.55 159.263 187.4 158.83L186.4 162.53C183.78 161.63 181.24 160.62 178.79 159.53ZM192.79 164.53C191.72 164.24 190.66 163.94 189.6 163.62L191.06 158.17C193.378 157.639 195.656 156.951 197.88 156.11L195.45 165.17C194.59 164.92 193.7 164.73 192.81 164.49L192.79 164.53ZM198.79 165.9L201.52 155.72C203.52 156.133 205.52 156.467 207.52 156.72L204.8 166.86C202.813 166.6 200.803 166.267 198.77 165.86L198.79 165.9ZM208.19 167.28L210.9 157.17C212.97 157.39 215.03 157.55 217.04 157.62L214.36 167.62C212.34 167.56 210.27 167.43 208.17 167.24L208.19 167.28ZM217.87 167.6L220.53 157.65C222.72 157.65 224.84 157.49 226.9 157.27L224.28 167.07C222.146 167.341 220 167.505 217.85 167.56L217.87 167.6ZM227.95 166.43L230.53 156.78C231.1 156.68 231.68 156.61 232.24 156.5C233.93 156.152 235.599 155.711 237.24 155.18L234.79 164.3C232.578 165.223 230.28 165.923 227.93 166.39L227.95 166.43ZM238.95 162L241.18 153.67C242.495 153.071 243.762 152.372 244.97 151.58L243.97 155.39C243.105 158.124 241.302 160.465 238.88 162H238.95Z" fill="#4F457C"/>
<path d="M308.77 235.34C308.77 230.9 305.84 227.34 301.22 227.34H276.14C273.89 227.34 271.45 226.34 273.28 224.34C275.11 222.34 278.52 218.19 274.86 214.47C274.32 217.58 271.27 221.78 262.93 221.78C254.59 221.78 250.26 216.67 251.36 213.99C247.46 217.64 249.67 224.11 253.83 226.17L244.54 226.41C244.54 226.41 245.79 233.9 254.01 230.49C254.01 230.49 253.22 238.49 253.55 242.06C253.76 244.31 260.1 247.6 262.26 244.74C264.05 242.37 265.26 241.02 266.26 239.68C267.26 238.34 269.09 238.74 269.45 241.68C269.81 244.62 270.6 258.34 271.01 261.26C271.31 263.44 276.43 263.7 276.55 261.26C276.67 258.82 277.83 250.42 277.83 250.42H294.37C294.37 250.42 294.59 257.03 294.59 259.89C294.59 261.2 299.01 261.6 299.37 259.5C299.94 256.24 301.19 249.39 301.19 249.39C301.19 249.39 302.58 257.11 303.19 260.17C303.55 261.87 308.58 261.66 308.76 259.68C309 256.9 308.77 239.79 308.77 235.34ZM263.42 236.01C262.827 236.01 262.247 235.834 261.753 235.504C261.26 235.175 260.875 234.706 260.648 234.158C260.421 233.61 260.362 233.007 260.478 232.425C260.593 231.843 260.879 231.308 261.299 230.889C261.718 230.469 262.253 230.183 262.835 230.068C263.417 229.952 264.02 230.011 264.568 230.238C265.116 230.465 265.585 230.85 265.914 231.343C266.244 231.837 266.42 232.417 266.42 233.01C266.417 233.804 266.1 234.564 265.538 235.125C264.976 235.685 264.214 236 263.42 236V236.01Z" fill="#4F457C"/>
<path d="M288.59 255.31C291.882 255.31 294.55 252.642 294.55 249.35C294.55 246.058 291.882 243.39 288.59 243.39C285.298 243.39 282.63 246.058 282.63 249.35C282.63 252.642 285.298 255.31 288.59 255.31Z" fill="#4F457C"/>
<path d="M265.59 261.56C266.19 258.56 266.87 251.19 267.1 249.64C267.33 248.09 266.57 246.99 264.57 246.94C262.57 246.89 261.21 247.53 261.16 249.45C261.11 251.37 261.16 259.97 261.16 261.16C261.16 262.35 265.36 262.7 265.59 261.56Z" fill="#4F457C"/>
<path d="M287.098 254.127C287.245 253.436 286.804 252.756 286.112 252.609C285.421 252.462 284.741 252.904 284.594 253.595L284.22 255.356C284.073 256.048 284.515 256.727 285.206 256.874C285.898 257.021 286.577 256.579 286.724 255.888L287.098 254.127Z" fill="#4F457C"/>
<path d="M289.832 255.882C289.979 256.574 290.658 257.015 291.35 256.868C292.041 256.722 292.483 256.042 292.336 255.35L291.962 253.59C291.815 252.898 291.136 252.457 290.444 252.604C289.753 252.75 289.311 253.43 289.458 254.122L289.832 255.882Z" fill="#4F457C"/>
<path d="M313.76 242C313.404 240.342 312.953 238.706 312.41 237.1C311.19 233.45 308.02 231.6 302.98 231.6V229C310.8 229 313.76 233 314.87 236.28C315.448 237.988 315.929 239.728 316.31 241.49L313.76 242Z" fill="#4F457C"/>
<path d="M314.28 238.75C311.49 240.82 311.99 246.58 315.28 247.35C319.3 246.16 318.71 239.5 314.28 238.75Z" fill="#4F457C"/>
<path d="M258.06 261.68C257.856 261.681 257.656 261.619 257.488 261.503C257.32 261.386 257.192 261.221 257.12 261.03C256.546 259.687 255.895 258.378 255.17 257.11C255.041 256.879 255.008 256.606 255.079 256.351C255.15 256.097 255.32 255.88 255.55 255.75C255.78 255.62 256.052 255.585 256.306 255.655C256.561 255.724 256.778 255.891 256.91 256.12C257.683 257.479 258.377 258.881 258.99 260.32C259.037 260.443 259.059 260.574 259.055 260.705C259.051 260.836 259.021 260.965 258.967 261.085C258.913 261.205 258.836 261.313 258.741 261.403C258.645 261.493 258.533 261.563 258.41 261.61C258.299 261.657 258.18 261.681 258.06 261.68V261.68Z" fill="#4F457C"/>
<path d="M254.14 261.72C253.975 261.719 253.813 261.678 253.669 261.599C253.524 261.521 253.401 261.408 253.31 261.27L252.21 259.62C252.08 259.4 252.039 259.138 252.096 258.889C252.152 258.64 252.303 258.422 252.515 258.28C252.728 258.138 252.986 258.082 253.238 258.125C253.49 258.168 253.716 258.306 253.87 258.51L254.97 260.16C255.043 260.27 255.094 260.392 255.12 260.522C255.145 260.651 255.145 260.784 255.119 260.913C255.093 261.042 255.042 261.165 254.968 261.274C254.894 261.384 254.8 261.477 254.69 261.55C254.527 261.659 254.336 261.718 254.14 261.72V261.72Z" fill="#4F457C"/>
<path d="M270.08 291.18C269.924 291.179 269.77 291.141 269.631 291.07C269.492 290.999 269.372 290.896 269.28 290.77L265.55 285.71C265.472 285.604 265.415 285.484 265.384 285.357C265.352 285.229 265.345 285.097 265.365 284.967C265.384 284.837 265.429 284.712 265.497 284.599C265.565 284.486 265.654 284.388 265.76 284.31C265.866 284.232 265.986 284.175 266.113 284.144C266.241 284.112 266.373 284.106 266.503 284.125C266.634 284.145 266.758 284.189 266.871 284.257C266.984 284.325 267.082 284.414 267.16 284.52L270.89 289.58C271.002 289.729 271.07 289.907 271.086 290.093C271.102 290.279 271.066 290.465 270.982 290.632C270.898 290.798 270.769 290.938 270.609 291.035C270.45 291.132 270.266 291.182 270.08 291.18Z" fill="#4F457C"/>
<path d="M272.83 290.07C272.646 290.07 272.466 290.02 272.309 289.925C272.152 289.83 272.024 289.693 271.94 289.53L270.4 286.53C270.34 286.413 270.303 286.284 270.293 286.153C270.282 286.021 270.298 285.889 270.339 285.763C270.38 285.638 270.445 285.522 270.531 285.422C270.617 285.321 270.722 285.239 270.84 285.18C271.076 285.061 271.35 285.041 271.601 285.124C271.852 285.206 272.06 285.384 272.18 285.62L273.72 288.62C273.797 288.772 273.833 288.942 273.826 289.112C273.819 289.282 273.768 289.448 273.679 289.593C273.59 289.738 273.465 289.858 273.317 289.942C273.168 290.025 273 290.07 272.83 290.07V290.07Z" fill="#4F457C"/>
<path d="M275.62 289.7C275.376 289.702 275.139 289.615 274.955 289.454C274.771 289.294 274.652 289.072 274.62 288.83L273.52 280.47C273.502 280.339 273.511 280.205 273.544 280.077C273.578 279.949 273.637 279.829 273.717 279.723C273.798 279.618 273.898 279.529 274.013 279.463C274.127 279.396 274.254 279.353 274.385 279.335C274.516 279.317 274.65 279.326 274.778 279.359C274.906 279.393 275.026 279.452 275.132 279.532C275.237 279.613 275.326 279.713 275.392 279.828C275.459 279.942 275.502 280.069 275.52 280.2L276.63 288.57C276.664 288.833 276.593 289.098 276.432 289.308C276.27 289.518 276.032 289.655 275.77 289.69L275.62 289.7Z" fill="#4F457C"/>
<path d="M279.32 290.21C279.183 290.21 279.048 290.183 278.923 290.129C278.798 290.075 278.684 289.996 278.591 289.896C278.497 289.797 278.425 289.679 278.378 289.551C278.332 289.423 278.312 289.286 278.32 289.15L278.71 282.07C278.716 281.939 278.749 281.81 278.805 281.691C278.862 281.572 278.941 281.466 279.038 281.378C279.136 281.289 279.25 281.221 279.374 281.177C279.497 281.133 279.629 281.113 279.76 281.12C279.891 281.127 280.02 281.159 280.139 281.215C280.258 281.272 280.364 281.351 280.452 281.448C280.541 281.546 280.609 281.66 280.653 281.784C280.697 281.907 280.716 282.039 280.71 282.17L280.33 289.26C280.317 289.518 280.205 289.761 280.016 289.938C279.828 290.116 279.578 290.213 279.32 290.21V290.21Z" fill="#4F457C"/>
<path d="M281.92 290.72C281.76 290.721 281.602 290.683 281.46 290.61C281.343 290.55 281.239 290.467 281.154 290.367C281.069 290.266 281.005 290.15 280.965 290.024C280.925 289.899 280.91 289.767 280.921 289.636C280.932 289.504 280.969 289.377 281.03 289.26L282.32 286.78C282.374 286.654 282.454 286.54 282.555 286.446C282.655 286.352 282.773 286.28 282.903 286.234C283.032 286.188 283.17 286.169 283.307 286.179C283.444 286.188 283.577 286.226 283.699 286.289C283.821 286.352 283.929 286.44 284.015 286.547C284.102 286.654 284.165 286.777 284.202 286.909C284.239 287.042 284.247 287.18 284.228 287.316C284.209 287.452 284.162 287.583 284.09 287.7L282.81 290.18C282.726 290.343 282.598 290.48 282.441 290.575C282.284 290.67 282.104 290.72 281.92 290.72V290.72Z" fill="#4F457C"/>
<path d="M131.76 312.4C131.542 312.411 131.326 312.351 131.146 312.228C130.965 312.105 130.83 311.927 130.76 311.72C126.84 299.96 121.25 293.31 121.2 293.24C121.115 293.14 121.05 293.025 121.009 292.9C120.968 292.775 120.953 292.643 120.963 292.512C120.973 292.381 121.009 292.254 121.069 292.137C121.128 292.02 121.21 291.915 121.31 291.83C121.41 291.745 121.525 291.68 121.65 291.639C121.775 291.598 121.907 291.583 122.038 291.593C122.169 291.603 122.296 291.639 122.413 291.699C122.53 291.758 122.635 291.84 122.72 291.94C122.96 292.22 128.61 298.94 132.66 311.09C132.742 311.341 132.723 311.614 132.605 311.85C132.487 312.086 132.28 312.266 132.03 312.35C131.943 312.381 131.852 312.397 131.76 312.4V312.4Z" fill="#4F457C"/>
<path d="M126.88 313.14C126.677 313.139 126.48 313.076 126.314 312.96C126.148 312.844 126.021 312.68 125.95 312.49C124.24 307.89 118.78 304.2 118.73 304.16C118.613 304.091 118.511 303.998 118.431 303.889C118.351 303.779 118.294 303.654 118.264 303.521C118.234 303.388 118.231 303.251 118.256 303.117C118.28 302.984 118.332 302.856 118.408 302.743C118.483 302.63 118.581 302.534 118.695 302.46C118.809 302.386 118.937 302.336 119.071 302.313C119.205 302.291 119.343 302.295 119.475 302.327C119.607 302.36 119.731 302.418 119.84 302.5C120.08 302.66 125.9 306.59 127.84 311.79C127.886 311.913 127.908 312.045 127.903 312.177C127.899 312.308 127.868 312.438 127.813 312.558C127.758 312.678 127.68 312.785 127.584 312.875C127.487 312.965 127.374 313.034 127.25 313.08C127.132 313.123 127.006 313.144 126.88 313.14Z" fill="#4F457C"/>
<path d="M122 315.14C121.81 315.141 121.623 315.088 121.462 314.987C121.301 314.887 121.172 314.742 121.09 314.57C119.61 311.43 115.2 309.2 115.16 309.18C115.038 309.124 114.929 309.044 114.839 308.945C114.749 308.847 114.679 308.73 114.634 308.604C114.59 308.478 114.571 308.344 114.579 308.21C114.587 308.077 114.622 307.946 114.682 307.826C114.742 307.706 114.825 307.599 114.926 307.512C115.028 307.425 115.146 307.359 115.274 307.319C115.401 307.278 115.536 307.263 115.669 307.275C115.803 307.288 115.932 307.327 116.05 307.39C116.25 307.49 121.12 309.94 122.9 313.71C123.013 313.95 123.025 314.225 122.935 314.474C122.845 314.724 122.66 314.927 122.42 315.04C122.29 315.107 122.146 315.141 122 315.14V315.14Z" fill="#4F457C"/>
<path d="M220.77 309.28C220.661 309.3 220.549 309.3 220.44 309.28C220.315 309.237 220.199 309.17 220.1 309.083C220.001 308.995 219.92 308.888 219.863 308.769C219.805 308.65 219.772 308.521 219.764 308.389C219.757 308.257 219.776 308.125 219.82 308C221.744 302.996 224.18 298.203 227.09 293.7C227.235 293.479 227.462 293.325 227.72 293.27C227.979 293.216 228.248 293.266 228.47 293.41C228.581 293.482 228.676 293.575 228.751 293.684C228.825 293.793 228.878 293.915 228.904 294.045C228.931 294.174 228.933 294.307 228.908 294.437C228.883 294.566 228.833 294.69 228.76 294.8C225.966 299.176 223.62 303.823 221.76 308.67C221.679 308.862 221.54 309.024 221.363 309.134C221.185 309.243 220.978 309.294 220.77 309.28V309.28Z" fill="#4F457C"/>
<path d="M224.34 310.94C224.197 310.941 224.056 310.907 223.93 310.84C223.691 310.729 223.505 310.528 223.413 310.281C223.322 310.034 223.331 309.76 223.44 309.52C224.971 306.394 227.078 303.585 229.65 301.24C229.749 301.153 229.864 301.087 229.989 301.045C230.114 301.003 230.246 300.986 230.377 300.994C230.509 301.003 230.637 301.038 230.755 301.096C230.873 301.155 230.978 301.236 231.065 301.335C231.152 301.434 231.218 301.549 231.26 301.674C231.302 301.799 231.319 301.931 231.311 302.062C231.302 302.194 231.267 302.322 231.209 302.44C231.15 302.558 231.069 302.663 230.97 302.75C228.61 304.908 226.671 307.485 225.25 310.35C225.171 310.525 225.043 310.674 224.882 310.779C224.721 310.884 224.532 310.94 224.34 310.94Z" fill="#4F457C"/>
<path d="M229 312.4C228.839 312.4 228.681 312.361 228.539 312.287C228.396 312.213 228.274 312.106 228.182 311.974C228.09 311.843 228.03 311.691 228.009 311.532C227.988 311.373 228.005 311.211 228.06 311.06C228.701 309.521 229.833 308.238 231.28 307.41C231.512 307.277 231.787 307.242 232.045 307.313C232.303 307.383 232.522 307.553 232.655 307.785C232.788 308.017 232.823 308.292 232.752 308.55C232.682 308.808 232.512 309.027 232.28 309.16C231.261 309.762 230.457 310.668 229.98 311.75C229.906 311.948 229.772 312.117 229.596 312.234C229.42 312.351 229.211 312.409 229 312.4Z" fill="#4F457C"/>
<path d="M49.91 268.91C49.7381 268.908 49.5697 268.862 49.4208 268.776C49.2719 268.691 49.1476 268.568 49.06 268.42C48.313 267.289 47.3993 266.278 46.35 265.42C46.2472 265.337 46.1619 265.235 46.0987 265.12C46.0355 265.004 45.9958 264.877 45.9819 264.746C45.9679 264.615 45.98 264.483 46.0175 264.356C46.0549 264.23 46.1169 264.112 46.2 264.01C46.3664 263.805 46.6069 263.675 46.8691 263.647C47.1313 263.619 47.394 263.695 47.6 263.86C48.8382 264.875 49.9081 266.08 50.77 267.43C50.9061 267.657 50.9467 267.928 50.883 268.185C50.8193 268.442 50.6564 268.663 50.43 268.8C50.2687 268.88 50.0898 268.918 49.91 268.91V268.91Z" fill="#4F457C"/>
<path d="M53.77 268.91C53.5579 268.909 53.3515 268.841 53.1808 268.715C53.01 268.589 52.8837 268.412 52.82 268.21C51.8373 265.289 50.5748 262.469 49.05 259.79C48.9677 259.677 48.9101 259.548 48.8808 259.411C48.8516 259.274 48.8514 259.133 48.8803 258.996C48.9091 258.859 48.9664 258.729 49.0484 258.616C49.1303 258.503 49.2352 258.408 49.3562 258.337C49.4771 258.267 49.6115 258.223 49.7506 258.208C49.8897 258.193 50.0304 258.207 50.1637 258.249C50.2969 258.292 50.4198 258.362 50.5242 258.455C50.6286 258.549 50.7124 258.663 50.77 258.79C52.3948 261.592 53.7348 264.551 54.77 267.62C54.8486 267.872 54.8243 268.145 54.7025 268.379C54.5808 268.613 54.3714 268.79 54.12 268.87C54.0066 268.904 53.8882 268.917 53.77 268.91Z" fill="#4F457C"/>
<path d="M57 268.91C56.7348 268.91 56.4804 268.805 56.2929 268.617C56.1054 268.43 56 268.175 56 267.91V261.76C56 261.495 56.1054 261.24 56.2929 261.053C56.4804 260.865 56.7348 260.76 57 260.76C57.2652 260.76 57.5196 260.865 57.7071 261.053C57.8946 261.24 58 261.495 58 261.76V267.91C58 268.175 57.8946 268.43 57.7071 268.617C57.5196 268.805 57.2652 268.91 57 268.91Z" fill="#4F457C"/>
<path d="M60 268.91C59.8201 268.913 59.6431 268.865 59.49 268.77C59.263 268.636 59.0978 268.419 59.0304 268.164C58.963 267.909 58.9988 267.638 59.13 267.41L61.06 264.1C61.1225 263.981 61.2086 263.875 61.313 263.789C61.4174 263.704 61.538 263.641 61.6675 263.603C61.797 263.566 61.9328 263.555 62.0667 263.571C62.2006 263.587 62.3298 263.63 62.4466 263.698C62.5633 263.765 62.6652 263.856 62.7461 263.964C62.827 264.071 62.8853 264.195 62.9174 264.326C62.9495 264.457 62.9547 264.593 62.9328 264.726C62.9109 264.859 62.8624 264.986 62.79 265.1L60.86 268.4C60.774 268.553 60.6493 268.681 60.4983 268.77C60.3474 268.86 60.1755 268.908 60 268.91V268.91Z" fill="#4F457C"/>
<path d="M77.2 237.94H74.7V217.82H52.68V237.94H50.18V215.32H77.2V237.94Z" fill="#4F457C"/>
<path d="M63.69 188.92L46.84 198.48L37.63 213.43V237.94" fill="#657A99"/>
<path d="M66.38 200.6H61.01V207.48H66.38V200.6Z" fill="#4F457C"/>
<path d="M72.92 120.26C74.262 120.26 75.35 119.172 75.35 117.83C75.35 116.488 74.262 115.4 72.92 115.4C71.5779 115.4 70.49 116.488 70.49 117.83C70.49 119.172 71.5779 120.26 72.92 120.26Z" fill="#88D1C3"/>
<path d="M129.2 47.97C131.658 47.97 133.65 45.9777 133.65 43.52C133.65 41.0623 131.658 39.07 129.2 39.07C126.742 39.07 124.75 41.0623 124.75 43.52C124.75 45.9777 126.742 47.97 129.2 47.97Z" fill="#88D1C3"/>
<path d="M115.61 162.53C116.676 162.53 117.54 161.666 117.54 160.6C117.54 159.534 116.676 158.67 115.61 158.67C114.544 158.67 113.68 159.534 113.68 160.6C113.68 161.666 114.544 162.53 115.61 162.53Z" fill="#88D1C3"/>
<path d="M365.51 59.5C366.913 59.5 368.05 58.3628 368.05 56.96C368.05 55.5572 366.913 54.42 365.51 54.42C364.107 54.42 362.97 55.5572 362.97 56.96C362.97 58.3628 364.107 59.5 365.51 59.5Z" fill="#88D1C3"/>
<path d="M288.59 96.68C291.39 96.68 293.66 94.4101 293.66 91.61C293.66 88.8099 291.39 86.54 288.59 86.54C285.79 86.54 283.52 88.8099 283.52 91.61C283.52 94.4101 285.79 96.68 288.59 96.68Z" fill="#88D1C3"/>
<path d="M329.11 149.12C330.634 149.12 331.87 147.884 331.87 146.36C331.87 144.836 330.634 143.6 329.11 143.6C327.586 143.6 326.35 144.836 326.35 146.36C326.35 147.884 327.586 149.12 329.11 149.12Z" fill="#88D1C3"/>
<path d="M174.05 9.07999C176.552 9.07999 178.58 7.05184 178.58 4.54999C178.58 2.04814 176.552 0.019989 174.05 0.019989C171.548 0.019989 169.52 2.04814 169.52 4.54999C169.52 7.05184 171.548 9.07999 174.05 9.07999Z" fill="#88D1C3"/>
<path d="M302.98 33.21C305.305 33.21 307.19 31.3251 307.19 29C307.19 26.6749 305.305 24.79 302.98 24.79C300.655 24.79 298.77 26.6749 298.77 29C298.77 31.3251 300.655 33.21 302.98 33.21Z" fill="#88D1C3"/>
<path d="M207.15 208.26C206.787 208.26 206.438 208.116 206.181 207.859C205.924 207.602 205.78 207.253 205.78 206.89V196.89C205.764 196.701 205.787 196.511 205.848 196.331C205.91 196.151 206.007 195.986 206.136 195.847C206.264 195.707 206.42 195.595 206.594 195.519C206.767 195.442 206.955 195.403 207.145 195.403C207.335 195.403 207.522 195.442 207.696 195.519C207.87 195.595 208.026 195.707 208.154 195.847C208.283 195.986 208.38 196.151 208.442 196.331C208.503 196.511 208.526 196.701 208.51 196.89V206.89C208.511 207.069 208.477 207.247 208.409 207.414C208.342 207.58 208.242 207.731 208.115 207.858C207.989 207.985 207.838 208.087 207.673 208.156C207.507 208.225 207.329 208.26 207.15 208.26V208.26Z" fill="#7996C9"/>
<path d="M172 193.61C171.637 193.61 171.288 193.466 171.031 193.209C170.774 192.952 170.63 192.603 170.63 192.24V179.31C170.63 178.947 170.774 178.598 171.031 178.341C171.288 178.084 171.637 177.94 172 177.94C172.363 177.94 172.712 178.084 172.969 178.341C173.226 178.598 173.37 178.947 173.37 179.31V192.24C173.37 192.603 173.226 192.952 172.969 193.209C172.712 193.466 172.363 193.61 172 193.61V193.61Z" fill="#7996C9"/>
<path d="M181.61 229.05C181.247 229.05 180.898 228.906 180.641 228.649C180.384 228.392 180.24 228.043 180.24 227.68V218.4C180.24 218.037 180.384 217.688 180.641 217.431C180.898 217.174 181.247 217.03 181.61 217.03C181.973 217.03 182.322 217.174 182.579 217.431C182.836 217.688 182.98 218.037 182.98 218.4V227.68C182.98 227.86 182.945 228.038 182.876 228.204C182.807 228.371 182.706 228.522 182.579 228.649C182.452 228.776 182.3 228.877 182.134 228.946C181.968 229.015 181.79 229.05 181.61 229.05V229.05Z" fill="#7996C9"/>
<path d="M162.12 227.4C161.758 227.397 161.412 227.252 161.158 226.995C160.903 226.739 160.76 226.392 160.76 226.03V219.51C160.744 219.321 160.767 219.131 160.828 218.951C160.89 218.771 160.987 218.606 161.116 218.467C161.244 218.327 161.4 218.215 161.574 218.139C161.748 218.062 161.935 218.023 162.125 218.023C162.315 218.023 162.502 218.062 162.676 218.139C162.85 218.215 163.006 218.327 163.134 218.467C163.263 218.606 163.36 218.771 163.422 218.951C163.483 219.131 163.506 219.321 163.49 219.51V226C163.494 226.182 163.462 226.364 163.394 226.534C163.327 226.703 163.227 226.858 163.099 226.988C162.972 227.119 162.82 227.222 162.651 227.293C162.483 227.364 162.302 227.4 162.12 227.4Z" fill="#7996C9"/>
<path d="M66.38 78C60.0607 78.0112 53.8805 76.1453 48.6232 72.639C43.3659 69.1327 39.2685 64.1439 36.8506 58.3055C34.4328 52.4671 33.8035 46.0421 35.0425 39.8454C36.2815 33.6488 39.333 27.9598 43.81 23.5C43.9762 23.3163 44.178 23.1682 44.4031 23.0647C44.6282 22.9613 44.8719 22.9046 45.1196 22.8981C45.3672 22.8917 45.6136 22.9356 45.8438 23.0272C46.074 23.1188 46.2832 23.2562 46.4587 23.431C46.6343 23.6059 46.7724 23.8145 46.8649 24.0443C46.9574 24.2742 47.0022 24.5204 46.9968 24.7681C46.9913 25.0158 46.9356 25.2598 46.833 25.4853C46.7304 25.7108 46.5831 25.9131 46.4 26.08C42.4526 30.0342 39.7659 35.0697 38.6794 40.5503C37.593 46.0308 38.1555 51.7105 40.2958 56.8715C42.4362 62.0325 46.0584 66.4433 50.7046 69.5464C55.3509 72.6495 60.8128 74.3057 66.4 74.3057C71.9872 74.3057 77.449 72.6495 82.0953 69.5464C86.7416 66.4433 90.3638 62.0325 92.5042 56.8715C94.6446 51.7105 95.207 46.0308 94.1205 40.5503C93.0341 35.0697 90.3474 30.0342 86.4 26.08C86.2169 25.9131 86.0696 25.7108 85.967 25.4853C85.8645 25.2598 85.8087 25.0158 85.8032 24.7681C85.7977 24.5204 85.8426 24.2742 85.9351 24.0443C86.0275 23.8145 86.1657 23.6059 86.3412 23.431C86.5168 23.2562 86.726 23.1188 86.9562 23.0272C87.1864 22.9356 87.4328 22.8917 87.6804 22.8981C87.9281 22.9046 88.1719 22.9613 88.397 23.0647C88.6221 23.1682 88.8238 23.3163 88.99 23.5C93.4694 27.9622 96.5218 33.6549 97.7596 39.8553C98.9973 46.0556 98.3647 52.484 95.9418 58.3241C93.519 64.1641 89.4153 69.1525 84.1519 72.6558C78.8885 76.159 72.7027 78.0192 66.38 78Z" fill="#4F457C"/>
<path d="M31 88C30.1217 88.0496 29.2423 87.922 28.4142 87.6248C27.5862 87.3276 26.8264 86.8668 26.18 86.27C20.36 80.44 30.44 64.88 36.98 56.13C37.2691 55.7428 37.7001 55.4863 38.1784 55.4169C38.6566 55.3475 39.1428 55.4709 39.5301 55.76C39.9173 56.0491 40.1737 56.4801 40.2431 56.9584C40.3125 57.4366 40.1891 57.9228 39.9 58.31C29.18 72.68 26.62 81.54 28.77 83.69C32.28 87.2 51.49 77.79 74.77 54.48C98.05 31.17 107.51 12 104 8.43999C101.72 6.15999 92 9.43999 77.9 20.13C77.5124 20.391 77.0396 20.4938 76.5786 20.4173C76.1176 20.3409 75.7033 20.0909 75.4206 19.7188C75.138 19.3466 75.0084 18.8804 75.0585 18.4158C75.1086 17.9512 75.3346 17.5233 75.69 17.22C84.69 10.42 100.69 -0.0900105 106.58 5.85999C113.81 13.08 97.36 37.08 77.38 57.06C60.67 73.76 41.16 88 31 88Z" fill="#4F457C"/>
<path d="M51.05 56.96C51.9723 56.96 52.72 56.2123 52.72 55.29C52.72 54.3677 51.9723 53.62 51.05 53.62C50.1277 53.62 49.38 54.3677 49.38 55.29C49.38 56.2123 50.1277 56.96 51.05 56.96Z" fill="#4F457C"/>
<path d="M48.3 43.8C49.2223 43.8 49.97 43.0523 49.97 42.13C49.97 41.2077 49.2223 40.46 48.3 40.46C47.3777 40.46 46.63 41.2077 46.63 42.13C46.63 43.0523 47.3777 43.8 48.3 43.8Z" fill="#4F457C"/>
<path d="M63.82 54.5C65.2283 54.5 66.37 53.3583 66.37 51.95C66.37 50.5417 65.2283 49.4 63.82 49.4C62.4117 49.4 61.27 50.5417 61.27 51.95C61.27 53.3583 62.4117 54.5 63.82 54.5Z" fill="#4F457C"/>
<path d="M77.18 66.03C78.2238 66.03 79.07 65.1838 79.07 64.14C79.07 63.0962 78.2238 62.25 77.18 62.25C76.1362 62.25 75.29 63.0962 75.29 64.14C75.29 65.1838 76.1362 66.03 77.18 66.03Z" fill="#4F457C"/>
<path d="M63.82 36.73C64.5269 36.73 65.1 36.1569 65.1 35.45C65.1 34.7431 64.5269 34.17 63.82 34.17C63.1131 34.17 62.54 34.7431 62.54 35.45C62.54 36.1569 63.1131 36.73 63.82 36.73Z" fill="#4F457C"/>
<path d="M358.27 132.87C352.557 132.87 347.078 130.601 343.039 126.561C338.999 122.522 336.73 117.043 336.73 111.33C336.73 105.617 338.999 100.138 343.039 96.0989C347.078 92.0594 352.557 89.79 358.27 89.79C358.521 89.7714 358.773 89.8048 359.011 89.8881C359.248 89.9714 359.466 90.1028 359.651 90.2741C359.835 90.4453 359.982 90.6528 360.083 90.8836C360.183 91.1143 360.235 91.3633 360.235 91.615C360.235 91.8667 360.183 92.1157 360.083 92.3464C359.982 92.5772 359.835 92.7847 359.651 92.956C359.466 93.1272 359.248 93.2586 359.011 93.3419C358.773 93.4252 358.521 93.4586 358.27 93.44C354.732 93.44 351.273 94.4892 348.331 96.455C345.389 98.4208 343.096 101.215 341.742 104.484C340.388 107.753 340.033 111.35 340.724 114.82C341.414 118.29 343.118 121.478 345.62 123.98C348.122 126.482 351.309 128.186 354.78 128.876C358.25 129.567 361.847 129.212 365.116 127.858C368.385 126.504 371.179 124.211 373.145 121.269C375.111 118.327 376.16 114.868 376.16 111.33C376.141 111.079 376.175 110.827 376.258 110.589C376.341 110.352 376.473 110.134 376.644 109.95C376.815 109.765 377.023 109.618 377.254 109.517C377.484 109.417 377.733 109.365 377.985 109.365C378.237 109.365 378.486 109.417 378.716 109.517C378.947 109.618 379.155 109.765 379.326 109.95C379.497 110.134 379.629 110.352 379.712 110.589C379.795 110.827 379.829 111.079 379.81 111.33C379.802 117.04 377.53 122.514 373.492 126.552C369.454 130.59 363.98 132.862 358.27 132.87V132.87Z" fill="#4F457C"/>
<path d="M346.89 109.59C347.492 109.59 347.98 109.102 347.98 108.5C347.98 107.898 347.492 107.41 346.89 107.41C346.288 107.41 345.8 107.898 345.8 108.5C345.8 109.102 346.288 109.59 346.89 109.59Z" fill="#4F457C"/>
<path d="M351.72 102.22C352.322 102.22 352.81 101.732 352.81 101.13C352.81 100.528 352.322 100.04 351.72 100.04C351.118 100.04 350.63 100.528 350.63 101.13C350.63 101.732 351.118 102.22 351.72 102.22Z" fill="#4F457C"/>
<path d="M347.28 118.67C347.882 118.67 348.37 118.182 348.37 117.58C348.37 116.978 347.882 116.49 347.28 116.49C346.678 116.49 346.19 116.978 346.19 117.58C346.19 118.182 346.678 118.67 347.28 118.67Z" fill="#4F457C"/>
<path d="M354.36 114.54C355.282 114.54 356.03 113.792 356.03 112.87C356.03 111.948 355.282 111.2 354.36 111.2C353.438 111.2 352.69 111.948 352.69 112.87C352.69 113.792 353.438 114.54 354.36 114.54Z" fill="#4F457C"/>
<path d="M354.9 125.95C355.585 125.95 356.14 125.395 356.14 124.71C356.14 124.025 355.585 123.47 354.9 123.47C354.215 123.47 353.66 124.025 353.66 124.71C353.66 125.395 354.215 125.95 354.9 125.95Z" fill="#4F457C"/>
<path d="M362.01 106.07C362.474 106.07 362.85 105.694 362.85 105.23C362.85 104.766 362.474 104.39 362.01 104.39C361.546 104.39 361.17 104.766 361.17 105.23C361.17 105.694 361.546 106.07 362.01 106.07Z" fill="#4F457C"/>
<path d="M265.3 160.71C269.293 160.71 272.53 157.473 272.53 153.48C272.53 149.487 269.293 146.25 265.3 146.25C261.307 146.25 258.07 149.487 258.07 153.48C258.07 157.473 261.307 160.71 265.3 160.71Z" fill="#88D1C3"/>
<path d="M51.43 237.94H53.33L63.69 228.91L74.05 237.94H75.95L76.77 236.99L65.59 227.25L76.77 217.51L75.13 215.63L63.69 225.59L52.25 215.63L50.61 217.51L61.79 227.25L50.61 236.99L51.43 237.94Z" fill="#4F457C"/>
<defs>
<linearGradient id="paint0_linear_1584_4146" x1="156645" y1="29840.6" x2="157680" y2="59772.8" gradientUnits="userSpaceOnUse">
<stop stop-color="white" stop-opacity="0.5"/>
<stop offset="0.14" stop-color="white" stop-opacity="0.48"/>
<stop offset="0.34" stop-color="white" stop-opacity="0.41"/>
<stop offset="0.56" stop-color="white" stop-opacity="0.3"/>
<stop offset="0.81" stop-color="white" stop-opacity="0.14"/>
<stop offset="1" stop-color="white" stop-opacity="0"/>
</linearGradient>
</defs>
</svg>
