<svg width="394" height="296" viewBox="0 0 394 296" fill="none" xmlns="http://www.w3.org/2000/svg">
<path d="M236.42 178.39L257.11 164.04C248.42 156.71 232.25 146.94 218.28 146.04" fill="#88D1C3"/>
<path d="M226.473 201.66C233.403 189.98 219.96 169.204 196.449 155.255C172.937 141.305 148.26 139.466 141.33 151.146C134.401 162.826 147.843 183.602 171.355 197.551C194.867 211.5 219.544 213.34 226.473 201.66Z" fill="#7996C9"/>
<path d="M261.6 198.99C267.24 202.34 273.22 211.66 274.7 218.07C268.37 219.83 257.32 219.07 251.7 215.71C250.602 215.059 249.643 214.197 248.878 213.175C248.113 212.154 247.557 210.991 247.241 209.754C246.926 208.517 246.857 207.23 247.038 205.967C247.22 204.703 247.649 203.488 248.3 202.39C248.952 201.292 249.813 200.333 250.835 199.568C251.857 198.803 253.019 198.247 254.256 197.931C255.493 197.616 256.78 197.547 258.043 197.728C259.307 197.91 260.522 198.339 261.62 198.99H261.6Z" fill="#FF8080"/>
<path d="M234.234 188.582C241.163 176.902 227.721 156.126 204.209 142.177C180.697 128.228 156.02 126.388 149.091 138.068C142.161 149.748 155.604 170.524 179.115 184.473C202.627 198.422 227.304 200.262 234.234 188.582Z" fill="white"/>
<path d="M234.584 188.007C239.766 179.272 226.948 162.093 205.954 149.638C184.96 137.182 163.739 134.166 158.557 142.901C153.375 151.636 166.193 168.814 187.187 181.27C208.181 193.725 229.402 196.742 234.584 188.007Z" fill="#88D1C3"/>
<path d="M154.8 163.62L147.85 175.32C147.85 175.32 144.78 172.85 143.71 170.63C142.64 168.41 138 159.68 141.6 153.42C145.2 147.16 146.69 145.23 147.67 148.83C148.65 152.43 154.8 163.62 154.8 163.62Z" fill="white"/>
<path d="M207.14 195.45C214.52 196.81 217.81 196.56 222.53 195.45C227.25 194.34 226.69 196.16 229.25 199.45C231.81 202.74 238.95 227.71 238.95 227.71C238.95 227.71 228.95 228.56 217.79 221.93C206.63 215.3 179.98 196.32 180.34 190.19C180.7 184.06 182.87 188.87 190.03 190.98C197.19 193.09 207.14 195.45 207.14 195.45Z" fill="#88D1C3"/>
<path d="M254.51 164.67C242.86 158.25 229.74 152.24 222.21 153.83C222.21 153.83 218.35 146.75 219.65 146.15C220.95 145.55 247.98 157.03 253.17 160.94C258.36 164.85 254.51 164.67 254.51 164.67Z" fill="white"/>
<path d="M224.46 176.26C230.711 177.975 236.773 180.32 242.55 183.26C247.05 185.67 248.85 186.58 248.55 188.72C248.25 190.86 242.81 203.41 240.2 204.82C237.59 206.23 233.61 204.08 232.2 200.66C230.79 197.24 230.86 195.43 226.51 190.25C222.16 185.07 214.49 175.57 224.46 176.26Z" fill="#88D1C3"/>
<path d="M247.13 191.14C239.556 186.516 231.336 183.044 222.74 180.84L225.47 186.2L245.2 197.91L247.13 191.14Z" fill="white"/>
<path d="M236.5 224.76C228.63 221.67 205.92 212.6 191.57 193.36C191.57 193.36 181.57 186.36 180.05 186.53C178.53 186.7 188.97 204 203.82 212.69C218.67 221.38 238.81 231 236.5 224.76Z" fill="white"/>
<path d="M169.65 146.78C161.65 160.34 210.65 189.46 218.73 175.91C220.709 172.685 222.028 169.099 222.609 165.36C223.19 161.622 223.021 157.805 222.113 154.131C221.205 150.458 219.576 147.002 217.32 143.964C215.065 140.927 212.227 138.368 208.974 136.437C205.72 134.505 202.115 133.241 198.367 132.715C194.62 132.19 190.806 132.416 187.147 133.378C183.488 134.341 180.056 136.021 177.053 138.322C174.049 140.623 171.532 143.498 169.65 146.78V146.78Z" fill="#88D1C3"/>
<path d="M171 200.41C178.637 204.999 186.895 208.465 195.52 210.7V210.65C207.735 219.809 221.726 226.318 236.6 229.76C236.821 229.803 237.045 229.826 237.27 229.83C237.824 229.836 238.372 229.714 238.871 229.472C239.37 229.23 239.805 228.875 240.143 228.435C240.48 227.996 240.711 227.483 240.816 226.939C240.922 226.395 240.899 225.834 240.75 225.3L236.99 212.3C240.08 210.64 243.38 207.13 246.3 202.21C250.16 195.69 253.4 185.21 248.5 182.28C246.015 180.808 243.451 179.472 240.82 178.28L257.48 166.73C257.905 166.433 258.256 166.042 258.505 165.588C258.755 165.134 258.897 164.628 258.92 164.11C258.941 163.602 258.844 163.097 258.636 162.633C258.427 162.17 258.114 161.761 257.72 161.44C248.6 154.01 233.3 145.09 219.59 143.76C215.906 138.402 210.615 134.353 204.481 132.196C198.347 130.04 191.687 129.887 185.46 131.76C167.8 126.42 153.52 128.64 148.1 137.59L140.19 150.84C132.5 163.84 146 185.59 171 200.41ZM178.25 134.82C173.849 137.448 170.177 141.137 167.57 145.55C162.57 154.01 173.67 165.72 186.92 173.55C194.92 178.29 203.78 181.69 210.65 181.77C212.868 181.857 215.074 181.419 217.09 180.49L225.73 193.23C215.28 196.63 197.64 192.67 181.32 182.99C170.32 176.44 161.21 168.2 155.74 159.78C150.61 151.85 149.34 144.86 152.18 140.07C155.78 134.08 165.69 132.19 178.26 134.84L178.25 134.82ZM220.1 164.48C220.146 159.122 218.425 153.898 215.203 149.617C211.981 145.336 207.438 142.236 202.277 140.797C197.115 139.358 191.624 139.66 186.651 141.656C181.679 143.652 177.503 147.231 174.77 151.84C174.323 152.663 174.068 153.575 174.023 154.51C173.978 155.445 174.144 156.378 174.51 157.24C172.67 154.94 170.05 150.87 171.73 148.04C173.473 145.083 175.784 142.5 178.53 140.44C181.276 138.38 184.403 136.885 187.73 136.04C189.959 135.476 192.251 135.201 194.55 135.22C198.214 135.275 201.825 136.1 205.15 137.64C208.474 139.181 211.438 141.403 213.848 144.163C216.258 146.923 218.061 150.159 219.14 153.661C220.219 157.163 220.549 160.852 220.11 164.49L220.1 164.48ZM237.79 174.48C235.62 168.13 231.01 161.31 224.38 154.77C223.955 152.797 223.335 150.871 222.53 149.02C232.96 151.02 244.73 157.46 253.07 163.89L237.79 174.48ZM225.1 162.63C228.432 166.405 231.103 170.716 233 175.38C229.929 174.581 226.799 174.026 223.64 173.72L222.58 173.57C224.088 170.113 224.946 166.408 225.11 162.64L225.1 162.63ZM236.57 201.42L233.27 199.42L232.09 195.32C231.636 193.761 230.941 192.283 230.03 190.94L221.41 178.24C221.96 178.31 222.51 178.4 223.07 178.46C228.97 179.17 235.07 179.89 246.07 186.4C246.64 187.25 246.18 192.96 242.18 199.7C241.95 200.09 241.72 200.41 241.49 200.77C240.902 201.473 240.072 201.931 239.163 202.054C238.255 202.176 237.333 201.953 236.58 201.43L236.57 201.42ZM182.67 189.3C194.54 195.68 206.67 199.17 216.67 199.3C220.46 199.408 224.24 198.853 227.84 197.66L235.54 224.57C222.71 221.48 194.87 210.67 182.68 189.31L182.67 189.3ZM179.35 199.46L181.3 196.16C182.983 198.5 184.827 200.718 186.82 202.8C184.33 201.84 181.83 200.72 179.36 199.47L179.35 199.46ZM171.15 194.79L175.94 186.71C176.89 188.89 177.99 191.001 179.23 193.03L176.35 197.89C175.35 197.36 174.42 196.81 173.47 196.24C172.69 195.78 171.93 195.28 171.16 194.84L171.15 194.79ZM163.42 189.34L168.77 180.34C170.36 181.56 172.01 182.75 173.7 183.9L168.32 192.96C166.627 191.787 164.997 190.583 163.43 189.35L163.42 189.34ZM156.21 183L161.5 174.09C162.95 175.48 164.5 176.84 166.11 178.18L160.77 187.18C159.18 185.84 157.64 184.42 156.22 183.01L156.21 183ZM149.69 175.51L154.86 166.79C156.15 168.42 157.53 170.03 159.04 171.62L153.79 180.47C152.342 178.892 150.977 177.24 149.7 175.52L149.69 175.51ZM144.33 166.06L149.15 157.94C149.91 159.484 150.758 160.983 151.69 162.43C152 162.91 152.35 163.38 152.69 163.85L147.59 172.44C146.298 170.43 145.209 168.296 144.34 166.07L144.33 166.06ZM144.33 153.32L146.33 149.93C146.606 151.348 146.99 152.742 147.48 154.1L143.08 161.51C142.526 158.72 142.972 155.824 144.34 153.33L144.33 153.32Z" fill="#4F457C"/>
<path d="M297.35 135.21C297.35 141.04 289.8 145.77 280.48 145.77C271.16 145.77 263.61 141.04 263.61 135.21V130.6H297.35V135.21Z" fill="#C6A35D"/>
<path d="M280.48 141.15C289.797 141.15 297.35 136.427 297.35 130.6C297.35 124.773 289.797 120.05 280.48 120.05C271.163 120.05 263.61 124.773 263.61 130.6C263.61 136.427 271.163 141.15 280.48 141.15Z" fill="#F2CE7E"/>
<path d="M115.32 38.42C120.1 41.76 119.64 50.66 114.32 58.3C109 65.94 100.78 69.41 96 66.07L92.22 63.4301L111.57 35.78L115.32 38.42Z" fill="#7996C9"/>
<path d="M110.555 55.7432C115.897 48.1093 116.357 39.2129 111.582 35.8725C106.808 32.5322 98.6082 36.0128 93.2669 43.6468C87.9255 51.2807 87.4656 60.1771 92.2397 63.5175C97.0137 66.8578 105.214 63.3772 110.555 55.7432Z" fill="#88D1C3"/>
<path d="M247.38 273.48C250.13 279.81 243.82 288.67 233.27 293.26C222.72 297.85 211.94 296.43 209.18 290.09L207 285.09L245.2 268.47L247.38 273.48Z" fill="#C6A35D"/>
<path d="M231.093 288.268C241.642 283.679 247.957 274.819 245.199 268.478C242.441 262.138 231.653 260.718 221.104 265.307C210.555 269.896 204.239 278.756 206.997 285.097C209.756 291.437 220.543 292.857 231.093 288.268Z" fill="#F2CE7E"/>
<path d="M49.7699 247.61C45.1199 243.47 48.4699 232.12 57.2499 222.28C66.0299 212.44 76.9199 207.84 81.5699 211.94L86.4098 216.26L54.6099 251.93L49.7699 247.61Z" fill="#C6A35D"/>
<path d="M78.9265 241.622C87.707 231.774 91.0589 220.433 86.413 216.291C81.7672 212.148 70.883 216.774 62.1024 226.622C53.3219 236.47 49.9701 247.812 54.6159 251.954C59.2617 256.096 70.1459 251.47 78.9265 241.622Z" fill="#F2CE7E"/>
<path d="M85.54 232.07C85.12 232.91 84.64 233.75 84.12 234.59C89.12 242.4 90.38 249.04 87.79 251.59C85.93 253.45 82.04 253.35 77.12 251.32C71.77 249.1 65.86 244.91 60.47 239.53C48.7 227.84 44.73 215.94 48.41 212.26C51.16 209.51 58.4701 211.05 66.9001 216.9C67.4791 216.182 68.2382 215.629 69.1 215.3C59.66 208.56 50.6601 206.3 46.5701 210.42C41.2701 215.72 46.5701 229.34 58.6301 241.42C64.2601 247.04 70.4701 251.42 76.1301 253.77C78.5703 254.861 81.1987 255.469 83.87 255.56C84.9189 255.616 85.9684 255.461 86.9562 255.104C87.9439 254.746 88.8498 254.194 89.62 253.48C93.54 249.55 91.66 241.09 85.54 232.07Z" fill="#C6A35D"/>
<path d="M229.54 94.2401C225.17 95.8201 218.9 89.6 215.54 80.33C212.18 71.06 213 62.2701 217.37 60.6801L221.93 59.03L234.1 92.59L229.54 94.2401Z" fill="#4F457C"/>
<path d="M234.108 92.521C238.48 90.9351 239.298 82.1368 235.936 72.8696C232.574 63.6023 226.305 57.3753 221.933 58.9612C217.562 60.5471 216.744 69.3454 220.106 78.6126C223.468 87.8799 229.737 94.1069 234.108 92.521Z" fill="#7996C9"/>
<path d="M243 61.13C241 58.88 237.24 58.58 232.47 60.26C231.316 60.6724 230.187 61.1532 229.09 61.7C229.809 62.3836 230.478 63.1189 231.09 63.9C231.89 63.53 232.67 63.2 233.43 62.9C236.95 61.65 239.75 61.69 240.92 62.99C242.09 64.29 241.82 67.08 240.22 70.44C237.88 74.9368 234.707 78.948 230.87 82.26C221.95 90.26 213.05 92.89 210.65 90.21C209.48 88.91 209.74 86.12 211.35 82.76C212.743 79.9709 214.513 77.3867 216.61 75.08C216.151 73.9218 215.989 72.6669 216.14 71.43C213.174 74.3925 210.693 77.8045 208.79 81.54C206.61 86.11 206.53 89.86 208.54 92.1C209.195 92.7794 209.989 93.3096 210.867 93.6548C211.745 93.9999 212.688 94.1518 213.63 94.1C218.68 94.1 225.87 90.61 232.76 84.41C236.866 80.8469 240.259 76.5374 242.76 71.71C244.91 67.13 245 63.38 243 61.13Z" fill="#4F457C"/>
<path d="M346.87 232.35C352.87 235.18 352.95 247.85 346.97 260.65C340.99 273.45 331.23 281.54 325.19 278.71L318.89 275.77L340.57 229.41L346.87 232.35Z" fill="#7996C9"/>
<path d="M340.629 257.636C346.616 244.833 346.569 232.164 340.526 229.338C334.482 226.512 324.73 234.6 318.744 247.402C312.757 260.205 312.804 272.874 318.847 275.7C324.891 278.526 334.643 270.438 340.629 257.636Z" fill="#88D1C3"/>
<path d="M299.67 252.3C299.44 256.62 302.92 260.73 309.47 263.86C311.055 264.624 312.685 265.292 314.35 265.86C314.321 264.443 314.398 263.026 314.58 261.62C313.4 261.19 312.26 260.74 311.22 260.24C306.39 257.93 303.59 255.06 303.72 252.55C303.85 250.04 306.95 247.49 311.99 245.7C317.76 243.7 325.38 242.77 333.45 243.2C350.62 244.11 362.29 250.49 362.01 255.64C361.88 258.15 358.79 260.71 353.75 262.49C349.504 263.897 345.087 264.721 340.62 264.94C339.914 266.584 338.803 268.022 337.39 269.12C343.404 269.127 349.381 268.182 355.1 266.32C361.94 263.9 365.83 260.18 366.1 255.86C366.24 253.32 365.1 250.86 362.92 248.72C357.8 243.6 346.98 239.85 333.7 239.15C325.12 238.69 316.94 239.66 310.7 241.88C303.79 244.26 299.9 247.97 299.67 252.3Z" fill="#7996C9"/>
<path d="M308.35 190.6C308.005 190.6 307.675 190.463 307.431 190.219C307.187 189.975 307.05 189.645 307.05 189.3V184.84C307.05 184.669 307.084 184.5 307.149 184.343C307.214 184.185 307.31 184.041 307.431 183.921C307.552 183.8 307.695 183.704 307.853 183.639C308.01 183.574 308.179 183.54 308.35 183.54C308.521 183.54 308.69 183.574 308.848 183.639C309.005 183.704 309.149 183.8 309.269 183.921C309.39 184.041 309.486 184.185 309.551 184.343C309.616 184.5 309.65 184.669 309.65 184.84V189.28C309.653 189.452 309.621 189.624 309.557 189.784C309.493 189.944 309.397 190.089 309.276 190.212C309.155 190.335 309.011 190.433 308.852 190.499C308.693 190.566 308.522 190.6 308.35 190.6V190.6Z" fill="#88D1C3"/>
<path d="M318 195.77H313.57C313.225 195.77 312.895 195.633 312.651 195.389C312.407 195.145 312.27 194.815 312.27 194.47C312.27 194.125 312.407 193.795 312.651 193.551C312.895 193.307 313.225 193.17 313.57 193.17H318C318.345 193.17 318.675 193.307 318.919 193.551C319.163 193.795 319.3 194.125 319.3 194.47C319.3 194.815 319.163 195.145 318.919 195.389C318.675 195.633 318.345 195.77 318 195.77V195.77Z" fill="#88D1C3"/>
<path d="M308.35 205.39C308.005 205.39 307.675 205.253 307.431 205.009C307.187 204.765 307.05 204.435 307.05 204.09V199.65C307.05 199.479 307.084 199.31 307.149 199.152C307.214 198.995 307.31 198.851 307.431 198.731C307.552 198.61 307.695 198.514 307.853 198.449C308.01 198.384 308.179 198.35 308.35 198.35C308.521 198.35 308.69 198.384 308.848 198.449C309.005 198.514 309.149 198.61 309.269 198.731C309.39 198.851 309.486 198.995 309.551 199.152C309.616 199.31 309.65 199.479 309.65 199.65V204.09C309.65 204.435 309.513 204.765 309.269 205.009C309.025 205.253 308.695 205.39 308.35 205.39V205.39Z" fill="#88D1C3"/>
<path d="M303.17 195.77H298.74C298.395 195.77 298.065 195.633 297.821 195.389C297.577 195.145 297.44 194.815 297.44 194.47C297.44 194.125 297.577 193.795 297.821 193.551C298.065 193.307 298.395 193.17 298.74 193.17H303.17C303.515 193.17 303.845 193.307 304.089 193.551C304.333 193.795 304.47 194.125 304.47 194.47C304.47 194.815 304.333 195.145 304.089 195.389C303.845 195.633 303.515 195.77 303.17 195.77V195.77Z" fill="#88D1C3"/>
<path d="M159.05 241.14C158.705 241.14 158.375 241.003 158.131 240.759C157.887 240.515 157.75 240.185 157.75 239.84V232.66C157.75 232.315 157.887 231.985 158.131 231.741C158.375 231.497 158.705 231.36 159.05 231.36C159.395 231.36 159.725 231.497 159.969 231.741C160.213 231.985 160.35 232.315 160.35 232.66V239.84C160.35 240.185 160.213 240.515 159.969 240.759C159.725 241.003 159.395 241.14 159.05 241.14V241.14Z" fill="#7996C9"/>
<path d="M168.66 246.32H164.22C163.875 246.32 163.545 246.183 163.301 245.939C163.057 245.695 162.92 245.365 162.92 245.02C162.92 244.675 163.057 244.345 163.301 244.101C163.545 243.857 163.875 243.72 164.22 243.72H168.66C169.005 243.72 169.335 243.857 169.579 244.101C169.823 244.345 169.96 244.675 169.96 245.02C169.96 245.365 169.823 245.695 169.579 245.939C169.335 246.183 169.005 246.32 168.66 246.32Z" fill="#7996C9"/>
<path d="M159.05 258.67C158.705 258.67 158.375 258.533 158.131 258.289C157.887 258.045 157.75 257.715 157.75 257.37V250.19C157.75 249.845 157.887 249.515 158.131 249.271C158.375 249.027 158.705 248.89 159.05 248.89C159.395 248.89 159.725 249.027 159.969 249.271C160.213 249.515 160.35 249.845 160.35 250.19V257.37C160.35 257.715 160.213 258.045 159.969 258.289C159.725 258.533 159.395 258.67 159.05 258.67Z" fill="#7996C9"/>
<path d="M153.87 246.32H149.43C149.085 246.32 148.754 246.183 148.511 245.939C148.267 245.695 148.13 245.365 148.13 245.02C148.13 244.675 148.267 244.345 148.511 244.101C148.754 243.857 149.085 243.72 149.43 243.72H153.87C154.215 243.72 154.545 243.857 154.789 244.101C155.033 244.345 155.17 244.675 155.17 245.02C155.17 245.365 155.033 245.695 154.789 245.939C154.545 246.183 154.215 246.32 153.87 246.32Z" fill="#7996C9"/>
<path d="M358.68 121.02C358.335 121.02 358.004 120.883 357.761 120.639C357.517 120.395 357.38 120.065 357.38 119.72V112.54C357.38 112.369 357.414 112.2 357.479 112.042C357.544 111.885 357.64 111.741 357.761 111.621C357.881 111.5 358.025 111.404 358.182 111.339C358.34 111.274 358.509 111.24 358.68 111.24C358.851 111.24 359.02 111.274 359.177 111.339C359.335 111.404 359.478 111.5 359.599 111.621C359.72 111.741 359.816 111.885 359.881 112.042C359.946 112.2 359.98 112.369 359.98 112.54V119.72C359.98 120.065 359.843 120.395 359.599 120.639C359.355 120.883 359.025 121.02 358.68 121.02V121.02Z" fill="#7996C9"/>
<path d="M368.29 126.2H363.85C363.505 126.2 363.175 126.063 362.931 125.819C362.687 125.575 362.55 125.245 362.55 124.9C362.55 124.555 362.687 124.225 362.931 123.981C363.175 123.737 363.505 123.6 363.85 123.6H368.29C368.635 123.6 368.965 123.737 369.209 123.981C369.453 124.225 369.59 124.555 369.59 124.9C369.59 125.245 369.453 125.575 369.209 125.819C368.965 126.063 368.635 126.2 368.29 126.2Z" fill="#7996C9"/>
<path d="M358.68 138.55C358.335 138.55 358.004 138.413 357.761 138.169C357.517 137.925 357.38 137.595 357.38 137.25V130.07C357.38 129.899 357.414 129.73 357.479 129.573C357.544 129.415 357.64 129.272 357.761 129.151C357.881 129.03 358.025 128.934 358.182 128.869C358.34 128.804 358.509 128.77 358.68 128.77C358.851 128.77 359.02 128.804 359.177 128.869C359.335 128.934 359.478 129.03 359.599 129.151C359.72 129.272 359.816 129.415 359.881 129.573C359.946 129.73 359.98 129.899 359.98 130.07V137.25C359.98 137.595 359.843 137.925 359.599 138.169C359.355 138.413 359.025 138.55 358.68 138.55Z" fill="#7996C9"/>
<path d="M353.5 126.2H349.06C348.715 126.2 348.385 126.063 348.141 125.819C347.897 125.575 347.76 125.245 347.76 124.9C347.76 124.555 347.897 124.225 348.141 123.981C348.385 123.737 348.715 123.6 349.06 123.6H353.5C353.845 123.6 354.175 123.737 354.419 123.981C354.663 124.225 354.8 124.555 354.8 124.9C354.8 125.245 354.663 125.575 354.419 125.819C354.175 126.063 353.845 126.2 353.5 126.2Z" fill="#7996C9"/>
<path d="M277.87 68.32C277.525 68.32 277.194 68.1831 276.951 67.9393C276.707 67.6955 276.57 67.3648 276.57 67.02V63.4301C276.57 63.0853 276.707 62.7546 276.951 62.5108C277.194 62.267 277.525 62.13 277.87 62.13C278.215 62.13 278.545 62.267 278.789 62.5108C279.033 62.7546 279.17 63.0853 279.17 63.4301V67.02C279.17 67.3648 279.033 67.6955 278.789 67.9393C278.545 68.1831 278.215 68.32 277.87 68.32V68.32Z" fill="#88D1C3"/>
<path d="M285.37 72.23H281.78C281.435 72.23 281.105 72.093 280.861 71.8492C280.617 71.6054 280.48 71.2748 280.48 70.9301C280.48 70.5853 280.617 70.2546 280.861 70.0108C281.105 69.767 281.435 69.63 281.78 69.63H285.37C285.715 69.63 286.045 69.767 286.289 70.0108C286.533 70.2546 286.67 70.5853 286.67 70.9301C286.67 71.2748 286.533 71.6054 286.289 71.8492C286.045 72.093 285.715 72.23 285.37 72.23Z" fill="#88D1C3"/>
<path d="M277.87 79.73C277.525 79.73 277.194 79.593 276.951 79.3492C276.707 79.1054 276.57 78.7748 276.57 78.4301V74.84C276.57 74.6693 276.603 74.5003 276.669 74.3425C276.734 74.1848 276.83 74.0415 276.951 73.9208C277.071 73.8001 277.215 73.7043 277.372 73.639C277.53 73.5736 277.699 73.54 277.87 73.54C278.041 73.54 278.21 73.5736 278.367 73.639C278.525 73.7043 278.668 73.8001 278.789 73.9208C278.91 74.0415 279.006 74.1848 279.071 74.3425C279.136 74.5003 279.17 74.6693 279.17 74.84V78.4301C279.17 78.7748 279.033 79.1054 278.789 79.3492C278.545 79.593 278.215 79.73 277.87 79.73V79.73Z" fill="#88D1C3"/>
<path d="M274 72.23H270.41C270.065 72.23 269.734 72.093 269.491 71.8492C269.247 71.6054 269.11 71.2748 269.11 70.9301C269.11 70.5853 269.247 70.2546 269.491 70.0108C269.734 69.767 270.065 69.63 270.41 69.63H274C274.345 69.63 274.675 69.767 274.919 70.0108C275.163 70.2546 275.3 70.5853 275.3 70.9301C275.3 71.2748 275.163 71.6054 274.919 71.8492C274.675 72.093 274.345 72.23 274 72.23Z" fill="#88D1C3"/>
<path d="M47.1299 162.9C46.7852 162.9 46.4545 162.763 46.2107 162.519C45.9669 162.275 45.83 161.945 45.83 161.6V158.01C45.8142 157.83 45.8359 157.649 45.8938 157.479C45.9517 157.308 46.0445 157.151 46.1663 157.018C46.288 156.885 46.4362 156.779 46.6013 156.706C46.7663 156.634 46.9446 156.596 47.1249 156.596C47.3053 156.596 47.4836 156.634 47.6486 156.706C47.8137 156.779 47.9618 156.885 48.0836 157.018C48.2054 157.151 48.2982 157.308 48.3561 157.479C48.414 157.649 48.4357 157.83 48.4199 158.01V161.6C48.4199 161.943 48.2844 162.272 48.0427 162.516C47.8011 162.759 47.473 162.897 47.1299 162.9V162.9Z" fill="#88D1C3"/>
<path d="M54.6299 166.84H50.9999C50.6552 166.84 50.3245 166.703 50.0807 166.459C49.8369 166.215 49.7 165.885 49.7 165.54C49.7 165.195 49.8369 164.865 50.0807 164.621C50.3245 164.377 50.6552 164.24 50.9999 164.24H54.59C54.9347 164.24 55.2654 164.377 55.5092 164.621C55.753 164.865 55.89 165.195 55.89 165.54C55.89 165.885 55.753 166.215 55.5092 166.459C55.2654 166.703 54.9347 166.84 54.59 166.84H54.6299Z" fill="#88D1C3"/>
<path d="M47.1299 174.31C46.7852 174.31 46.4545 174.173 46.2107 173.929C45.9669 173.685 45.83 173.355 45.83 173.01V169.43C45.8142 169.25 45.8359 169.069 45.8938 168.899C45.9517 168.728 46.0445 168.571 46.1663 168.438C46.288 168.305 46.4362 168.199 46.6013 168.126C46.7663 168.054 46.9446 168.016 47.1249 168.016C47.3053 168.016 47.4836 168.054 47.6486 168.126C47.8137 168.199 47.9618 168.305 48.0836 168.438C48.2054 168.571 48.2982 168.728 48.3561 168.899C48.414 169.069 48.4357 169.25 48.4199 169.43V173.01C48.4199 173.353 48.2844 173.682 48.0427 173.926C47.8011 174.169 47.473 174.307 47.1299 174.31V174.31Z" fill="#88D1C3"/>
<path d="M43.2101 166.84H39.6301C39.2853 166.84 38.9546 166.703 38.7108 166.459C38.467 166.215 38.3301 165.885 38.3301 165.54C38.3301 165.195 38.467 164.865 38.7108 164.621C38.9546 164.377 39.2853 164.24 39.6301 164.24H43.2101C43.5549 164.24 43.8855 164.377 44.1293 164.621C44.3731 164.865 44.5101 165.195 44.5101 165.54C44.5101 165.885 44.3731 166.215 44.1293 166.459C43.8855 166.703 43.5549 166.84 43.2101 166.84Z" fill="#88D1C3"/>
<path d="M171.16 97.34C170.815 97.34 170.484 97.203 170.241 96.9592C169.997 96.7154 169.86 96.3848 169.86 96.04V86.54C169.86 86.1952 169.997 85.8645 170.241 85.6207C170.484 85.3769 170.815 85.24 171.16 85.24C171.505 85.24 171.835 85.3769 172.079 85.6207C172.323 85.8645 172.46 86.1952 172.46 86.54V96.04C172.46 96.2107 172.426 96.3798 172.361 96.5375C172.296 96.6952 172.2 96.8385 172.079 96.9592C171.958 97.0799 171.815 97.1757 171.657 97.241C171.5 97.3064 171.331 97.34 171.16 97.34V97.34Z" fill="#88D1C3"/>
<path d="M175.91 92.59H166.41C166.065 92.59 165.734 92.453 165.491 92.2092C165.247 91.9654 165.11 91.6348 165.11 91.29C165.11 90.9452 165.247 90.6145 165.491 90.3707C165.734 90.1269 166.065 89.99 166.41 89.99H175.91C176.255 89.99 176.585 90.1269 176.829 90.3707C177.073 90.6145 177.21 90.9452 177.21 91.29C177.21 91.6348 177.073 91.9654 176.829 92.2092C176.585 92.453 176.255 92.59 175.91 92.59V92.59Z" fill="#88D1C3"/>
<path d="M136.164 137.198L133.843 141.111L145.075 147.775L147.396 143.862L136.164 137.198Z" fill="#4F457C"/>
<path d="M130.63 123.39C130.108 123.39 129.607 123.186 129.233 122.822C128.859 122.458 128.643 121.962 128.63 121.44V95.4399C128.731 94.9981 128.978 94.6035 129.333 94.3209C129.687 94.0383 130.127 93.8844 130.58 93.8844C131.033 93.8844 131.473 94.0383 131.827 94.3209C132.181 94.6035 132.429 94.9981 132.53 95.4399V121.44C132.518 121.945 132.315 122.426 131.963 122.788C131.61 123.15 131.134 123.365 130.63 123.39Z" fill="#4F457C"/>
<path d="M119.36 127.3C118.844 127.295 118.349 127.091 117.98 126.73L101.8 110.54C101.435 110.175 101.23 109.681 101.23 109.165C101.23 108.649 101.435 108.155 101.8 107.79C102.165 107.425 102.659 107.22 103.175 107.22C103.691 107.22 104.185 107.425 104.55 107.79L120.74 123.97C120.991 124.251 121.158 124.597 121.221 124.968C121.284 125.339 121.241 125.721 121.097 126.069C120.952 126.417 120.713 126.717 120.406 126.935C120.099 127.153 119.736 127.279 119.36 127.3Z" fill="#4F457C"/>
<path d="M141.9 127.3C141.524 127.279 141.162 127.153 140.854 126.935C140.547 126.717 140.308 126.417 140.163 126.069C140.019 125.721 139.976 125.339 140.039 124.968C140.102 124.597 140.269 124.251 140.52 123.97L153.17 111.33C153.541 110.992 154.029 110.81 154.531 110.822C155.033 110.834 155.511 111.039 155.865 111.395C156.22 111.75 156.423 112.229 156.433 112.731C156.444 113.233 156.26 113.72 155.92 114.09L143.28 126.73C142.911 127.091 142.416 127.295 141.9 127.3Z" fill="#4F457C"/>
<path d="M115.45 138.57H90.85C90.4081 138.469 90.0136 138.222 89.731 137.867C89.4483 137.513 89.2944 137.073 89.2944 136.62C89.2944 136.167 89.4483 135.727 89.731 135.373C90.0136 135.019 90.4081 134.771 90.85 134.67H115.45C115.892 134.771 116.286 135.019 116.569 135.373C116.852 135.727 117.006 136.167 117.006 136.62C117.006 137.073 116.852 137.513 116.569 137.867C116.286 138.222 115.892 138.469 115.45 138.57Z" fill="#4F457C"/>
<path d="M102.18 167.02C101.805 166.997 101.444 166.87 101.138 166.651C100.832 166.432 100.594 166.132 100.451 165.785C100.308 165.437 100.266 165.056 100.329 164.686C100.393 164.315 100.559 163.97 100.81 163.69L118 146.51C118.384 146.267 118.839 146.161 119.291 146.211C119.743 146.261 120.164 146.464 120.485 146.785C120.806 147.106 121.009 147.528 121.059 147.979C121.109 148.431 121.003 148.886 120.76 149.27L103.58 166.45C103.206 166.816 102.703 167.02 102.18 167.02V167.02Z" fill="#4F457C"/>
<path d="M130.63 174.97C130.099 174.97 129.591 174.759 129.216 174.384C128.841 174.009 128.63 173.5 128.63 172.97V151.84C128.731 151.398 128.978 151.004 129.333 150.721C129.687 150.438 130.127 150.284 130.58 150.284C131.033 150.284 131.473 150.438 131.827 150.721C132.181 151.004 132.429 151.398 132.53 151.84V173.06C132.508 173.558 132.301 174.03 131.95 174.383C131.598 174.736 131.128 174.946 130.63 174.97Z" fill="#4F457C"/>
<path d="M49.7401 103.01C51.8664 103.01 53.5901 101.286 53.5901 99.16C53.5901 97.0337 51.8664 95.3099 49.7401 95.3099C47.6138 95.3099 45.8901 97.0337 45.8901 99.16C45.8901 101.286 47.6138 103.01 49.7401 103.01Z" fill="#88D1C3"/>
<path d="M286.41 293.82C287.962 293.82 289.22 292.562 289.22 291.01C289.22 289.458 287.962 288.2 286.41 288.2C284.858 288.2 283.6 289.458 283.6 291.01C283.6 292.562 284.858 293.82 286.41 293.82Z" fill="#88D1C3"/>
<path d="M143.8 288.2C144.579 288.2 145.21 287.569 145.21 286.79C145.21 286.011 144.579 285.38 143.8 285.38C143.021 285.38 142.39 286.011 142.39 286.79C142.39 287.569 143.021 288.2 143.8 288.2Z" fill="#88D1C3"/>
<path d="M1.95007 245.13C2.72879 245.13 3.36005 244.499 3.36005 243.72C3.36005 242.941 2.72879 242.31 1.95007 242.31C1.17135 242.31 0.540039 242.941 0.540039 243.72C0.540039 244.499 1.17135 245.13 1.95007 245.13Z" fill="#88D1C3"/>
<path d="M76.34 292.33C78.6209 292.33 80.4699 290.481 80.4699 288.2C80.4699 285.919 78.6209 284.07 76.34 284.07C74.059 284.07 72.21 285.919 72.21 288.2C72.21 290.481 74.059 292.33 76.34 292.33Z" fill="#88D1C3"/>
<path d="M390.35 205.09C391.88 205.09 393.12 203.85 393.12 202.32C393.12 200.79 391.88 199.55 390.35 199.55C388.82 199.55 387.58 200.79 387.58 202.32C387.58 203.85 388.82 205.09 390.35 205.09Z" fill="#88D1C3"/>
<path d="M339.07 54.39C340.981 54.39 342.53 52.8409 342.53 50.93C342.53 49.0191 340.981 47.47 339.07 47.47C337.159 47.47 335.61 49.0191 335.61 50.93C335.61 52.8409 337.159 54.39 339.07 54.39Z" fill="#88D1C3"/>
<path d="M130.63 143.85C134.623 143.85 137.86 140.613 137.86 136.62C137.86 132.627 134.623 129.39 130.63 129.39C126.637 129.39 123.4 132.627 123.4 136.62C123.4 140.613 126.637 143.85 130.63 143.85Z" fill="#F2CE7E"/>
<path d="M143.61 6.49997C145.212 6.49997 146.51 5.20163 146.51 3.60001C146.51 1.99838 145.212 0.699982 143.61 0.699982C142.008 0.699982 140.71 1.99838 140.71 3.60001C140.71 5.20163 142.008 6.49997 143.61 6.49997Z" fill="#88D1C3"/>
</svg>
