<svg width="495" height="495" viewBox="0 0 495 495" fill="none" xmlns="http://www.w3.org/2000/svg">
<path d="M337.91 48.36C338.976 48.36 339.84 47.4959 339.84 46.43C339.84 45.3641 338.976 44.5 337.91 44.5C336.844 44.5 335.98 45.3641 335.98 46.43C335.98 47.4959 336.844 48.36 337.91 48.36Z" fill="#88D1C3"/>
<path d="M247.55 494.66C383.97 494.66 494.56 384.07 494.56 247.65C494.56 111.23 383.97 0.639999 247.55 0.639999C111.13 0.639999 0.540039 111.23 0.540039 247.65C0.540039 384.07 111.13 494.66 247.55 494.66Z" fill="url(#paint0_radial_1584_4146)"/>
<path d="M295.01 343.546C298.983 341.925 300.064 335.367 297.424 328.898C294.784 322.429 289.423 318.5 285.45 320.122C281.477 321.743 280.396 328.301 283.036 334.77C285.676 341.238 291.036 345.167 295.01 343.546Z" fill="#171735"/>
<path d="M161.42 214.18L159.74 210.76L166.54 197.48H172.47L176.66 192.27L170.88 186.41L174.7 181.99L192.77 166.98L198.95 163.55L197.65 152.92L199.74 150.68L208.05 156.54L216.56 153.86L222.51 152.74L223.14 155.01L228.84 153.86L227.59 143.55L239.59 141.13L240.54 150.36L253.98 150.52L253.34 142.35H263.18L262.05 148.82L265.99 149.89V153.86L274.06 155.9L291.31 163.55L299.2 157.68L305.05 161.59L301.88 169.76L315.65 172.1L316.93 174.24L315.01 179.77L320.54 186.9L324.81 184.04L330.44 191.47L323.07 201.1L335.97 207.94L338.45 213.29L335.25 221.95L161.42 214.18Z" fill="#171735"/>
<path d="M279.063 340.075C283.25 339.135 285.811 334.66 284.783 330.079C283.755 325.499 279.527 322.547 275.34 323.487C271.153 324.427 268.592 328.902 269.62 333.482C270.648 338.063 274.876 341.014 279.063 340.075Z" fill="#171735"/>
<path d="M203.81 329.35L202.11 332.43L204.96 334.47L218.12 339.66L221.92 341.15L222.99 338.69L224.64 339.66L223.58 344.84L229.54 346.37L234.84 341.42L238.88 342.17V346.37H241.37V342.17H246.58H251.68L252.51 340.07L269.08 337.78L271.84 340.07L280.97 337.86L283.94 342.17L289.51 340.3L295.8 331.77L297.46 333.5L301.24 331.77L296.62 323.58L302.08 319.98L311.88 317.01L315.24 313.57L321.05 318.44L323.9 315.95L319.66 312.63V309.31L325.58 300.55L327.89 297.33L331.07 298.85L334.93 294.48L328.41 291.03L332.08 290.09L332.57 283.45L203.81 329.35Z" fill="#171735"/>
<path d="M157.58 192.093L157.024 193.003C155.582 195.36 156.324 198.439 158.68 199.88L173.929 209.209C176.286 210.651 179.365 209.909 180.807 207.553L181.363 206.643C182.805 204.286 182.063 201.207 179.707 199.766L164.458 190.437C162.101 188.995 159.022 189.737 157.58 192.093Z" fill="#171735"/>
<path d="M182.7 172.27C182.183 172.719 181.51 172.948 180.826 172.907C180.142 172.867 179.502 172.56 179.041 172.052C178.581 171.545 178.338 170.878 178.364 170.193C178.39 169.508 178.683 168.861 179.18 168.39L187.61 160.74C186.561 159.766 185.445 158.867 184.27 158.05L176.33 165.25C175.813 165.699 175.14 165.928 174.456 165.887C173.772 165.847 173.132 165.54 172.671 165.032C172.211 164.525 171.968 163.858 171.994 163.173C172.02 162.488 172.313 161.841 172.81 161.37L179.41 155.37C173.89 153.09 168.41 153.31 164.87 156.51C159.09 161.76 160.74 172.98 168.54 181.57C176.34 190.16 187.36 192.89 193.13 187.65C198.47 182.81 197.46 172.87 191.13 164.65L182.7 172.27Z" fill="#171735"/>
<path d="M326.14 146.38L323.51 144.25L289.63 173.82L299.52 179.26L306.9 187.81L328.78 148.51L326.14 146.38Z" fill="#171735"/>
<path d="M316.94 133.69L317.17 133.36C319.736 130.344 323.379 128.452 327.322 128.086C331.265 127.72 335.194 128.911 338.271 131.403C341.348 133.895 343.328 137.491 343.79 141.424C344.251 145.356 343.157 149.313 340.74 152.45C340.66 152.55 340.56 152.64 340.47 152.74L316.94 133.69Z" fill="#171735"/>
<path d="M345.804 154.42L314.208 128.843C312.633 127.568 310.323 127.809 309.05 129.383C307.776 130.956 308.021 133.265 309.596 134.54L341.192 160.117C342.767 161.392 345.077 161.151 346.35 159.577C347.624 158.004 347.379 155.695 345.804 154.42Z" fill="#171735"/>
<path d="M249.62 105.07H246.23H242.84L235.12 163.55L246.23 160.91L257.34 163.55L249.62 105.07Z" fill="#171735"/>
<path d="M246.23 113.16C254.133 113.16 260.54 106.753 260.54 98.85C260.54 90.9468 254.133 84.54 246.23 84.54C238.327 84.54 231.92 90.9468 231.92 98.85C231.92 106.753 238.327 113.16 246.23 113.16Z" fill="#171735"/>
<path d="M268.08 96.22H224.39C222.932 96.22 221.75 97.3997 221.75 98.855C221.75 100.31 222.932 101.49 224.39 101.49H268.08C269.538 101.49 270.72 100.31 270.72 98.855C270.72 97.3997 269.538 96.22 268.08 96.22Z" fill="#171735"/>
<path d="M248.49 71.36H243.97V101.49H248.49V71.36Z" fill="#171735"/>
<path d="M246.23 74.23C249.301 74.23 251.79 71.7407 251.79 68.67C251.79 65.5993 249.301 63.11 246.23 63.11C243.159 63.11 240.67 65.5993 240.67 68.67C240.67 71.7407 243.159 74.23 246.23 74.23Z" fill="#171735"/>
<path d="M286.64 127.1L294.79 105.5C294.882 105.256 295.042 105.044 295.252 104.889C295.461 104.734 295.711 104.644 295.971 104.628C296.231 104.612 296.491 104.672 296.717 104.8C296.944 104.928 297.129 105.119 297.25 105.35L299.18 109C299.481 109.57 299.657 110.197 299.697 110.84C299.736 111.483 299.639 112.128 299.41 112.73L288.66 141.31L296.78 149.31L285.4 170.89L277.51 168.61L278.6 165.61L268.77 160.1L279.2 131.32C279.436 130.661 279.822 130.067 280.327 129.583C280.832 129.098 281.442 128.738 282.11 128.53L286.64 127.1Z" fill="#171735"/>
<path d="M220.86 160.43L207.26 117.62L200.98 119.62C200.98 119.62 209.2 147 206.45 165L220.86 160.43Z" fill="#171735"/>
<path d="M215.7 115.42L197.23 121.42C196.515 121.643 195.741 121.575 195.076 121.231C194.411 120.886 193.91 120.293 193.68 119.58V119.58C193.457 118.867 193.525 118.094 193.87 117.431C194.215 116.767 194.808 116.267 195.52 116.04L214 110C214.715 109.777 215.489 109.845 216.154 110.189C216.819 110.534 217.32 111.127 217.55 111.84V111.84C217.666 112.196 217.711 112.572 217.68 112.946C217.65 113.32 217.546 113.684 217.374 114.017C217.202 114.35 216.965 114.646 216.678 114.886C216.39 115.127 216.058 115.309 215.7 115.42V115.42Z" fill="#171735"/>
<path d="M221.24 123.54C221.011 122.827 220.508 122.235 219.843 121.892C219.178 121.549 218.403 121.484 217.69 121.71L203.48 126.31C204.77 127.766 205.786 129.443 206.48 131.26L219.36 127.09C219.717 126.982 220.05 126.803 220.338 126.566C220.626 126.329 220.864 126.036 221.039 125.706C221.214 125.376 221.322 125.015 221.356 124.643C221.391 124.271 221.351 123.897 221.24 123.54V123.54Z" fill="#171735"/>
<path d="M225 135.21C224.888 134.856 224.706 134.529 224.467 134.245C224.228 133.962 223.935 133.728 223.605 133.558C223.275 133.388 222.915 133.285 222.545 133.254C222.175 133.224 221.803 133.267 221.45 133.38L208.1 137.7C208.42 139.56 208.72 141.49 208.91 143.37L223.16 138.76C223.873 138.53 224.466 138.029 224.811 137.364C225.155 136.699 225.223 135.925 225 135.21V135.21Z" fill="#171735"/>
<path d="M266.076 125.683L266.066 125.681C265.048 125.51 264.083 126.197 263.913 127.216L258.779 157.828C258.608 158.847 259.295 159.811 260.314 159.982L260.324 159.984C261.342 160.154 262.306 159.467 262.477 158.449L267.611 127.836C267.782 126.818 267.095 125.853 266.076 125.683Z" fill="#171735"/>
<path d="M302.929 137.578L302.92 137.574C302.007 137.09 300.876 137.438 300.393 138.351L285.868 165.783C285.385 166.696 285.733 167.828 286.646 168.311L286.654 168.316C287.567 168.799 288.699 168.451 289.182 167.538L303.707 140.106C304.19 139.193 303.842 138.061 302.929 137.578Z" fill="#171735"/>
<path d="M235.64 160C235.145 160.059 234.648 159.92 234.256 159.612C233.864 159.305 233.61 158.854 233.55 158.36L227.6 121.91C227.543 121.416 227.684 120.919 227.991 120.528C228.298 120.137 228.747 119.883 229.24 119.82V119.82C229.734 119.763 230.23 119.904 230.622 120.211C231.013 120.518 231.267 120.967 231.33 121.46L237.28 157.92C237.336 158.413 237.196 158.908 236.888 159.298C236.581 159.687 236.132 159.94 235.64 160V160Z" fill="#171735"/>
<path d="M189.724 138.021C189.076 137.027 187.743 136.746 186.749 137.395C185.754 138.044 185.474 139.376 186.123 140.371L205.575 170.187C206.223 171.181 207.556 171.461 208.55 170.813C209.545 170.164 209.825 168.832 209.176 167.837L189.724 138.021Z" fill="#171735"/>
<path d="M192.678 148.771C191.691 147.406 189.787 147.098 188.424 148.083C187.061 149.069 186.756 150.974 187.743 152.339L217.287 193.197C218.274 194.562 220.179 194.87 221.542 193.884C222.904 192.899 223.209 190.994 222.222 189.629L192.678 148.771Z" fill="#171735"/>
<path d="M314.22 186.32C314.082 186.156 313.977 185.966 313.913 185.762C313.848 185.557 313.824 185.342 313.843 185.128C313.861 184.915 313.922 184.707 314.021 184.517C314.12 184.326 314.256 184.158 314.42 184.02L331 170.14C331.163 170.002 331.352 169.898 331.556 169.833C331.759 169.769 331.974 169.745 332.187 169.763C332.4 169.782 332.607 169.843 332.796 169.942C332.985 170.04 333.153 170.176 333.29 170.34V170.34C333.568 170.671 333.704 171.098 333.668 171.529C333.632 171.96 333.428 172.359 333.1 172.64L316.49 186.52C316.161 186.79 315.739 186.92 315.314 186.883C314.89 186.845 314.497 186.643 314.22 186.32V186.32Z" fill="#171735"/>
<path d="M333.28 175.25C336.135 175.25 338.45 172.935 338.45 170.08C338.45 167.225 336.135 164.91 333.28 164.91C330.425 164.91 328.11 167.225 328.11 170.08C328.11 172.935 330.425 175.25 333.28 175.25Z" fill="#171735"/>
<path d="M329.71 209.89C335.807 209.89 340.75 204.947 340.75 198.85C340.75 192.753 335.807 187.81 329.71 187.81C323.613 187.81 318.67 192.753 318.67 198.85C318.67 204.947 323.613 209.89 329.71 209.89Z" fill="#171735"/>
<path d="M247.55 340.29C298.714 340.29 340.19 298.814 340.19 247.65C340.19 196.486 298.714 155.01 247.55 155.01C196.386 155.01 154.91 196.486 154.91 247.65C154.91 298.814 196.386 340.29 247.55 340.29Z" fill="#171735"/>
<path d="M247.55 330.55C293.334 330.55 330.45 293.434 330.45 247.65C330.45 201.866 293.334 164.75 247.55 164.75C201.766 164.75 164.65 201.866 164.65 247.65C164.65 293.434 201.766 330.55 247.55 330.55Z" fill="#4F457C"/>
<path d="M230.94 329C251.68 332.46 251.74 322.2 248.12 319.59C242.92 315.84 233.52 317.21 234.18 310.49C234.84 303.77 250.02 305.17 250.97 294.49C251.92 283.81 241.27 285.04 243.87 277.2C246.47 269.36 247.27 257.56 238.33 249.94C229.39 242.32 221.33 249.06 209.7 252.2C196.52 255.75 187.88 252.04 184.79 245.2C181.86 238.75 186.31 232.85 184.68 225.08C183.05 217.31 167.8 224.64 175.85 206.01C169.261 217.396 165.472 230.184 164.796 243.322C164.121 256.459 166.577 269.569 171.964 281.57C177.35 293.572 185.512 304.121 195.777 312.348C206.041 320.576 218.114 326.245 231 328.89" fill="#88D1C3"/>
<path d="M308.9 310.03L304.86 315.19L298.94 317.98L323.31 341.42L324.83 340.21L326.35 339L308.9 310.03Z" fill="#171735"/>
<path d="M332.07 336.14L332 336C330.623 334.356 328.659 333.316 326.525 333.102C324.392 332.888 322.26 333.517 320.584 334.855C318.909 336.192 317.823 338.132 317.558 340.259C317.294 342.387 317.872 344.533 319.17 346.24L319.26 346.34L332.07 336.14Z" fill="#171735"/>
<path d="M316.739 350.161L336.316 334.532C336.968 334.012 337.075 333.062 336.554 332.41C336.034 331.759 335.084 331.652 334.432 332.172L314.855 347.8C314.203 348.321 314.097 349.271 314.617 349.923C315.137 350.574 316.087 350.681 316.739 350.161Z" fill="#171735"/>
<path d="M329.094 347.646L331.118 346.031L320.337 332.526L318.313 334.142L329.094 347.646Z" fill="#171735"/>
<path d="M331.07 351.22C332.832 351.22 334.26 349.792 334.26 348.03C334.26 346.268 332.832 344.84 331.07 344.84C329.308 344.84 327.88 346.268 327.88 348.03C327.88 349.792 329.308 351.22 331.07 351.22Z" fill="#171735"/>
<path d="M333.39 321.6L343 308C343.301 307.59 343.452 307.088 343.427 306.58C343.401 306.072 343.201 305.588 342.86 305.21C342.64 304.978 342.372 304.799 342.074 304.683C341.776 304.568 341.457 304.52 341.138 304.543C340.82 304.566 340.51 304.659 340.232 304.816C339.954 304.973 339.714 305.189 339.53 305.45L338 307.59C337.74 307.956 337.407 308.264 337.021 308.493C336.635 308.722 336.205 308.868 335.759 308.92C335.314 308.973 334.862 308.932 334.433 308.799C334.004 308.666 333.608 308.445 333.27 308.15L322.14 298.4L320.37 302.16L317.42 305.09L330.34 312.3C330.731 312.519 331.072 312.818 331.34 313.177C331.609 313.536 331.799 313.948 331.899 314.385C331.999 314.822 332.006 315.275 331.92 315.715C331.834 316.155 331.657 316.573 331.4 316.94L329.91 319.05C329.611 319.46 329.46 319.961 329.484 320.468C329.508 320.975 329.704 321.459 330.04 321.84C330.26 322.075 330.529 322.258 330.829 322.376C331.129 322.493 331.451 322.542 331.772 322.519C332.093 322.496 332.405 322.402 332.685 322.243C332.965 322.084 333.206 321.864 333.39 321.6Z" fill="#171735"/>
<path d="M337.91 291.28L325.76 285.92C324.918 287.45 323.861 288.851 322.62 290.08L335.87 295.91C336.179 296.074 336.518 296.172 336.866 296.199C337.215 296.225 337.565 296.179 337.895 296.063C338.224 295.948 338.527 295.765 338.782 295.527C339.038 295.289 339.241 295 339.38 294.679C339.519 294.358 339.589 294.012 339.587 293.663C339.586 293.314 339.511 292.968 339.37 292.649C339.228 292.33 339.021 292.043 338.763 291.807C338.505 291.572 338.201 291.392 337.87 291.28H337.91Z" fill="#171735"/>
<path d="M321.09 310.03C325.387 310.03 328.87 306.547 328.87 302.25C328.87 297.953 325.387 294.47 321.09 294.47C316.793 294.47 313.31 297.953 313.31 302.25C313.31 306.547 316.793 310.03 321.09 310.03Z" fill="#171735"/>
<path d="M245.75 332.59C244.745 332.589 243.741 332.505 242.75 332.34L242.96 348.28C242.968 348.887 243.217 349.467 243.652 349.891C244.087 350.314 244.673 350.548 245.28 350.54C245.887 350.532 246.467 350.283 246.891 349.848C247.314 349.413 247.548 348.827 247.54 348.22L247.33 332.51C246.81 332.56 246.28 332.59 245.75 332.59Z" fill="#171735"/>
<path d="M197.321 330.152C197.023 330.662 197.194 331.316 197.702 331.613C198.21 331.909 198.863 331.735 199.161 331.225L203.644 323.537C203.942 323.026 203.772 322.372 203.263 322.076C202.755 321.78 202.102 321.953 201.804 322.464L197.321 330.152Z" fill="#171735"/>
<path d="M336.32 280.48L327.75 278.23C327.759 279.747 327.539 281.258 327.1 282.71L335.24 284.84C335.804 284.944 336.386 284.829 336.867 284.518C337.349 284.207 337.694 283.725 337.832 283.168C337.97 282.612 337.89 282.024 337.609 281.524C337.328 281.025 336.867 280.651 336.32 280.48V280.48Z" fill="#171735"/>
<path d="M227.142 360.521C227.059 361.134 227.488 361.699 228.1 361.782C228.713 361.866 229.278 361.437 229.362 360.824L231.867 342.485C231.951 341.872 231.522 341.307 230.909 341.223C230.296 341.14 229.732 341.569 229.648 342.181L227.142 360.521Z" fill="#171735"/>
<path d="M227.149 356.397L230.449 356.848C232.331 357.105 234.066 355.788 234.323 353.905L237.136 333.317C237.393 331.434 236.075 329.7 234.193 329.443L230.894 328.992C229.011 328.735 227.277 330.052 227.02 331.935L224.207 352.523C223.95 354.406 225.267 356.14 227.149 356.397Z" fill="#171735"/>
<path d="M205.645 340.557L214.737 344.373C216.636 345.171 218.822 344.277 219.62 342.378L223.436 333.286C224.233 331.387 223.34 329.201 221.44 328.403L212.348 324.587C210.449 323.79 208.263 324.683 207.466 326.583L203.649 335.674C202.852 337.574 203.746 339.76 205.645 340.557Z" fill="#171735"/>
<path d="M247.55 164.76C241.651 164.756 235.768 165.38 230 166.62C226.73 167.275 223.514 168.178 220.38 169.32C218.03 170.13 215.72 171.05 213.47 172.06C204.99 176.45 223.84 168.95 227.6 187.81C230.43 201.98 242.6 198.81 251.04 193.05C259.31 187.38 265.04 186.9 267.82 192.1C271.09 198.25 270.82 201.17 279.01 205.21C289.64 210.44 278.85 212.42 275.17 219.62C264.73 240.06 300.43 249.62 299.17 222.62C298.11 200.75 313.04 200.84 319.17 205.89C311.872 193.369 301.418 182.982 288.85 175.764C276.283 168.547 262.042 164.753 247.55 164.76Z" fill="#88D1C3"/>
<path d="M307.42 324.15L301.41 326.86L295.05 322.16L305.22 316.49L307.42 324.15Z" fill="#171735"/>
<path d="M128.07 298.4C136.039 298.4 142.5 291.939 142.5 283.97C142.5 276.001 136.039 269.54 128.07 269.54C120.101 269.54 113.64 276.001 113.64 283.97C113.64 291.939 120.101 298.4 128.07 298.4Z" fill="#4F457C"/>
<path d="M391.76 121.93C393.141 121.93 394.26 120.811 394.26 119.43C394.26 118.049 393.141 116.93 391.76 116.93C390.379 116.93 389.26 118.049 389.26 119.43C389.26 120.811 390.379 121.93 391.76 121.93Z" fill="#88D1C3"/>
<path d="M60.83 268.43C63.3595 268.43 65.41 266.379 65.41 263.85C65.41 261.321 63.3595 259.27 60.83 259.27C58.3005 259.27 56.25 261.321 56.25 263.85C56.25 266.379 58.3005 268.43 60.83 268.43Z" fill="#88D1C3"/>
<path d="M88.33 178.04C89.8709 178.04 91.12 176.791 91.12 175.25C91.12 173.709 89.8709 172.46 88.33 172.46C86.7891 172.46 85.54 173.709 85.54 175.25C85.54 176.791 86.7891 178.04 88.33 178.04Z" fill="#88D1C3"/>
<path d="M145.2 194.26C146.299 194.26 147.19 193.369 147.19 192.27C147.19 191.171 146.299 190.28 145.2 190.28C144.101 190.28 143.21 191.171 143.21 192.27C143.21 193.369 144.101 194.26 145.2 194.26Z" fill="#88D1C3"/>
<path d="M128.07 104.96C130.18 104.96 131.89 103.25 131.89 101.14C131.89 99.0303 130.18 97.32 128.07 97.32C125.96 97.32 124.25 99.0303 124.25 101.14C124.25 103.25 125.96 104.96 128.07 104.96Z" fill="#88D1C3"/>
<path d="M389.76 278.27C392.682 278.27 395.05 275.902 395.05 272.98C395.05 270.058 392.682 267.69 389.76 267.69C386.838 267.69 384.47 270.058 384.47 272.98C384.47 275.902 386.838 278.27 389.76 278.27Z" fill="#88D1C3"/>
<path d="M454.14 297.82C455.073 297.82 455.83 297.063 455.83 296.13C455.83 295.197 455.073 294.44 454.14 294.44C453.207 294.44 452.45 295.197 452.45 296.13C452.45 297.063 453.207 297.82 454.14 297.82Z" fill="#88D1C3"/>
<path d="M463.7 154.61C464.633 154.61 465.39 153.853 465.39 152.92C465.39 151.987 464.633 151.23 463.7 151.23C462.767 151.23 462.01 151.987 462.01 152.92C462.01 153.853 462.767 154.61 463.7 154.61Z" fill="#88D1C3"/>
<path d="M202.11 399.26C204.01 399.26 205.55 397.72 205.55 395.82C205.55 393.92 204.01 392.38 202.11 392.38C200.21 392.38 198.67 393.92 198.67 395.82C198.67 397.72 200.21 399.26 202.11 399.26Z" fill="#88D1C3"/>
<path d="M278.94 415.07C279.895 415.07 280.67 414.295 280.67 413.34C280.67 412.385 279.895 411.61 278.94 411.61C277.984 411.61 277.21 412.385 277.21 413.34C277.21 414.295 277.984 415.07 278.94 415.07Z" fill="#88D1C3"/>
<path d="M302.36 296.13C305.31 292.989 309.384 291.144 313.69 291C315.158 290.961 316.589 290.528 317.832 289.747C319.076 288.966 320.087 287.865 320.76 286.56C330.702 267.799 333.091 245.946 327.44 225.48C325.66 219.85 318.7 220.96 317.44 228.79C316.18 236.62 316.27 243.33 312.44 246.73C308.61 250.13 301.25 244.91 296.59 249.93C293.59 253.18 293.12 260.05 295.06 265.76C297 271.47 300.74 287.32 277.22 299.94C259.56 309.42 259.62 331.14 284.92 321.67C288.464 319.876 291.873 317.828 295.12 315.54C296.368 314.675 297.362 313.492 297.998 312.113C298.635 310.735 298.891 309.211 298.74 307.7C298.517 305.626 298.723 303.529 299.346 301.538C299.969 299.548 300.995 297.707 302.36 296.13V296.13Z" fill="#88D1C3"/>
<path d="M376.57 353.99C377.962 353.99 379.09 352.862 379.09 351.47C379.09 350.078 377.962 348.95 376.57 348.95C375.178 348.95 374.05 350.078 374.05 351.47C374.05 352.862 375.178 353.99 376.57 353.99Z" fill="#88D1C3"/>
<path d="M292.6 80.94C293.821 80.94 294.81 79.9506 294.81 78.73C294.81 77.5095 293.821 76.52 292.6 76.52C291.379 76.52 290.39 77.5095 290.39 78.73C290.39 79.9506 291.379 80.94 292.6 80.94Z" fill="#88D1C3"/>
<path d="M269.616 269.836C273.265 269.018 275.621 265.676 274.88 262.373C274.138 259.069 270.58 257.055 266.932 257.874C263.283 258.693 260.927 262.034 261.668 265.338C262.41 268.641 265.968 270.655 269.616 269.836Z" fill="#88D1C3"/>
<path d="M150.78 314.92C153.243 314.92 155.24 312.923 155.24 310.46C155.24 307.997 153.243 306 150.78 306C148.317 306 146.32 307.997 146.32 310.46C146.32 312.923 148.317 314.92 150.78 314.92Z" fill="#88D1C3"/>
<path d="M212.35 357.78C213.018 357.78 213.56 357.238 213.56 356.57C213.56 355.902 213.018 355.36 212.35 355.36C211.682 355.36 211.14 355.902 211.14 356.57C211.14 357.238 211.682 357.78 212.35 357.78Z" fill="#88D1C3"/>
<path d="M132.65 366.93C133.749 366.93 134.64 366.039 134.64 364.94C134.64 363.841 133.749 362.95 132.65 362.95C131.551 362.95 130.66 363.841 130.66 364.94C130.66 366.039 131.551 366.93 132.65 366.93Z" fill="#88D1C3"/>
<path opacity="0.3" d="M287.65 175.09C301.33 199.42 292.44 236.93 264.65 264.74C236.86 292.55 199.33 301.44 175 287.74C181.21 298.993 189.951 308.648 200.533 315.942C211.115 323.237 223.248 327.971 235.974 329.772C248.7 331.572 261.67 330.39 273.861 326.317C286.051 322.245 297.127 315.394 306.216 306.306C315.304 297.217 322.155 286.141 326.227 273.951C330.3 261.76 331.482 248.79 329.682 236.064C327.881 223.338 323.147 211.205 315.852 200.623C308.558 190.041 298.903 181.3 287.65 175.09V175.09Z" fill="#171735"/>
<path d="M355.2 302.25C356.139 302.25 356.9 301.489 356.9 300.55C356.9 299.611 356.139 298.85 355.2 298.85C354.261 298.85 353.5 299.611 353.5 300.55C353.5 301.489 354.261 302.25 355.2 302.25Z" fill="#88D1C3"/>
<path d="M392.7 163.85C388.29 156.23 369.65 155.01 352.7 163.93C374.32 160.79 381.27 165.32 383.48 169.16C391.32 182.73 350.48 231.51 266.29 280.16C182.1 328.81 119.42 339.74 111.59 326.16C106.5 317.35 121.94 293.68 156.48 264.83C155.7 260.675 155.205 256.472 155 252.25C146.041 259.385 137.456 266.979 129.28 275C112.04 292.11 93.3701 315.79 102.39 331.42C106.97 339.34 116.89 342.13 128.61 342.13C140.02 342.13 153.14 339.49 164.69 336.34C195.69 327.9 233.69 311.19 271.61 289.34C309.53 267.49 342.99 242.91 365.81 220.27C383.05 203.16 401.72 179.48 392.7 163.85Z" fill="#4F457C"/>
<path d="M210.592 217.612C213.363 211.392 212.133 204.801 207.845 202.89C203.556 200.98 197.834 204.474 195.063 210.695C192.292 216.915 193.522 223.506 197.811 225.417C202.099 227.327 207.821 223.833 210.592 217.612Z" fill="#88D1C3"/>
<path d="M249.79 228.81C252.093 228.81 253.96 226.943 253.96 224.64C253.96 222.337 252.093 220.47 249.79 220.47C247.487 220.47 245.62 222.337 245.62 224.64C245.62 226.943 247.487 228.81 249.79 228.81Z" fill="#88D1C3"/>
<path d="M181.21 44.73C182.696 44.73 183.9 43.5256 183.9 42.04C183.9 40.5543 182.696 39.35 181.21 39.35C179.724 39.35 178.52 40.5543 178.52 42.04C178.52 43.5256 179.724 44.73 181.21 44.73Z" fill="#88D1C3"/>
<path d="M271.92 369.27C272.566 369.27 273.09 368.746 273.09 368.1C273.09 367.454 272.566 366.93 271.92 366.93C271.274 366.93 270.75 367.454 270.75 368.1C270.75 368.746 271.274 369.27 271.92 369.27Z" fill="#88D1C3"/>
<path d="M209.7 289.02C214.24 289.02 217.92 284.189 217.92 278.23C217.92 272.271 214.24 267.44 209.7 267.44C205.16 267.44 201.48 272.271 201.48 278.23C201.48 284.189 205.16 289.02 209.7 289.02Z" fill="#4F457C"/>
<defs>
<radialGradient id="paint0_radial_1584_4146" cx="0" cy="0" r="1" gradientUnits="userSpaceOnUse" gradientTransform="translate(247.55 247.65) scale(247.01)">
<stop stop-color="#88D1C3" stop-opacity="0.5"/>
<stop offset="0.16" stop-color="#81C5BA" stop-opacity="0.47"/>
<stop offset="0.39" stop-color="#6DA5A1" stop-opacity="0.38"/>
<stop offset="0.65" stop-color="#4D6F78" stop-opacity="0.24"/>
<stop offset="0.95" stop-color="#202540" stop-opacity="0.04"/>
<stop offset="1" stop-color="#171735" stop-opacity="0"/>
</radialGradient>
</defs>
</svg>
