<svg width="210" height="40" viewBox="0 0 210 40" fill="none" xmlns="http://www.w3.org/2000/svg">
<path d="M15.132 19.7993L7.11719 14.0956C10.5468 11.2734 16.9024 7.52522 22.3616 7.23633" fill="#86D4C9"/>
<path d="M40.4361 27.6229C49.6806 22.2822 55.0213 14.2229 52.3769 9.62292C49.725 5.02292 40.0806 5.63032 30.8361 10.9711C21.5917 16.3118 16.2509 24.3711 18.8954 28.9711C21.5472 33.5711 31.1917 32.9637 40.4361 27.6229Z" fill="#77A4F2"/>
<path d="M5.20741 27.7328C2.99259 29.0142 0.614815 32.6291 0 35.1328C2.46667 35.8513 6.78518 35.5994 9 34.318C10.8148 33.2661 11.437 30.9476 10.3926 29.1254C9.34074 27.3031 7.02222 26.6883 5.20741 27.7328Z" fill="#FF8486"/>
<path d="M37.4674 22.4667C46.7118 17.1259 52.0526 9.06667 49.4081 4.46667C46.7563 -0.133334 37.1118 0.474074 27.8674 5.81481C18.6229 11.1556 13.2822 19.2148 15.9266 23.8148C18.5785 28.4148 28.2229 27.8074 37.4674 22.4667Z" fill="white"/>
<path d="M34.3275 21.171C42.5793 16.4006 47.6608 9.74879 45.683 6.31175C43.6978 2.87471 35.4015 3.95619 27.1497 8.72656C18.8978 13.4969 13.8164 20.1488 15.7941 23.5858C17.7793 27.0229 26.0756 25.9414 34.3275 21.171Z" fill="#86D4C9"/>
<path d="M47.066 14.3993L49.7179 19.0067C49.7179 19.0067 50.9327 18.0511 51.3549 17.1919C51.7771 16.3326 53.6364 12.94 52.2586 10.4733C50.8808 8.00668 50.3104 7.25112 49.9104 8.65112C49.5104 10.0511 47.0586 14.3993 47.0586 14.3993H47.066Z" fill="white"/>
<path d="M26.4805 26.6081C23.5916 27.1044 22.3102 26.9933 20.4731 26.5488C18.6361 26.1118 18.8435 26.8081 17.8287 28.0747C16.8139 29.3414 13.9102 39.0747 13.9102 39.0747C13.9102 39.0747 17.8065 39.4525 22.199 36.9118C26.5916 34.371 37.0805 27.0822 36.9694 24.6822C36.8583 22.2822 35.9916 24.1562 33.1842 24.9488C30.3768 25.7414 26.4879 26.6081 26.4879 26.6081H26.4805Z" fill="#86D4C9"/>
<path d="M8.13446 14.349C12.7122 11.8897 17.8604 9.60825 20.7937 10.2601C20.7937 10.2601 22.3345 7.51195 21.8308 7.27492C21.3271 7.03788 10.7196 11.4008 8.6752 12.8971C6.63076 14.4008 8.13446 14.349 8.13446 14.349Z" fill="white"/>
<path d="M19.8163 19.0138C16.9349 19.799 14.4904 20.7249 12.7201 21.6434C10.9571 22.562 10.246 22.9101 10.3497 23.7472C10.4534 24.5842 12.5275 29.5175 13.5349 30.0805C14.5497 30.6434 16.1126 29.8212 16.6608 28.4879C17.2089 27.1546 17.2089 26.4509 18.9349 24.4434C20.6608 22.436 23.7201 18.7768 19.8238 19.0064L19.8163 19.0138Z" fill="#86D4C9"/>
<path d="M10.8906 24.7326C12.2388 23.9548 15.498 22.0289 20.461 20.8066L19.3721 22.8881L11.6166 27.377L10.898 24.7326H10.8906Z" fill="white"/>
<path d="M14.887 37.9262C17.9685 36.7558 26.8796 33.3188 32.5685 25.8595C32.5685 25.8595 36.5092 23.178 37.1018 23.2373C37.6944 23.2966 33.5388 30.0299 27.7018 33.3558C21.8648 36.6817 13.961 40.3484 14.887 37.9188V37.9262Z" fill="white"/>
<path d="M41.3406 7.7482C44.4147 13.0815 25.1184 24.2371 22.0443 18.9038C18.9702 13.5704 20.7924 6.7482 26.1258 3.66671C31.4517 0.585232 38.2665 2.41486 41.3406 7.7482Z" fill="#86D4C9"/>
<path d="M59.0314 2.56978C58.261 1.23645 56.5647 0.777186 55.2314 1.54756C54.1869 2.14756 53.6907 3.32533 53.8981 4.44385L50.1055 6.63645L51.0462 8.27348L54.8388 6.08089C55.7055 6.81422 56.9721 6.96978 58.0092 6.36978C59.3425 5.59941 59.7944 3.8957 59.024 2.56978H59.0314Z" fill="#38237C"/>
<path d="M52.8289 9.4807L49.7993 4.22885C47.7178 0.702921 42.1549 -0.223004 35.2363 1.777C32.14 0.828847 28.6734 1.10292 25.6511 2.84366C24.0956 3.73996 22.8289 4.94737 21.8511 6.32514C16.4956 6.7844 10.4808 10.1918 6.88078 13.0585C6.56226 13.3103 6.38448 13.6881 6.3993 14.0955C6.41411 14.5029 6.62152 14.8881 6.95485 15.1251L13.3993 19.7177C12.4882 20.1177 11.4956 20.6214 10.3845 21.2659C8.45115 22.377 9.67337 26.4955 11.1549 29.0659C12.2734 30.9992 13.54 32.3918 14.74 33.0511L13.2067 38.1103C13.066 38.577 13.1845 39.0733 13.5104 39.4363C13.7771 39.7326 14.1474 39.8955 14.54 39.8955C14.6289 39.8955 14.7178 39.8881 14.8067 39.8733C18.1178 39.2437 25.103 36.9918 30.9326 32.5918V32.6066C34.0882 31.8659 37.4067 30.5103 40.5548 28.6955C50.3771 23.0214 55.7623 14.577 52.8215 9.47329L52.8289 9.4807ZM48.1919 5.22144C49.2808 7.11033 48.7548 9.83625 46.7104 12.9103C44.5326 16.177 40.9548 19.3548 36.6141 21.8659C30.1993 25.577 23.2956 27.0363 19.2289 25.6659L22.666 20.7251C23.3697 21.0807 24.2141 21.2511 25.1771 21.2511C27.8586 21.2511 31.3326 19.9696 34.4808 18.1474C39.6882 15.1326 44.0882 10.6066 42.1697 7.27329C41.1326 5.47329 39.703 4.05107 38.0511 3.02885C42.9697 2.05848 46.8289 2.84366 48.2067 5.22144H48.1919ZM26.5993 4.4807C28.1697 3.577 29.9178 3.11033 31.6808 3.11033C32.5623 3.11033 33.4586 3.22885 34.3326 3.45848C36.9623 4.16218 39.1623 5.85848 40.5252 8.22144C41.1697 9.33996 40.1252 10.9103 39.3993 11.8066C39.6734 11.0437 39.6882 10.3177 39.3252 9.69551C36.6956 5.13255 30.8734 3.56959 26.3178 6.20663C23.2734 7.96959 21.5771 11.1548 21.5623 14.4363C21.1474 10.54 22.9919 6.56959 26.5919 4.48811L26.5993 4.4807ZM8.69559 14.0511C11.9845 11.577 16.6067 9.11774 20.6882 8.377C20.3697 9.09551 20.1178 9.85107 19.94 10.6214C17.3252 13.1474 15.4956 15.7918 14.6141 18.2659L8.703 14.0511H8.69559ZM20.5549 17.977C20.4141 17.9918 20.2734 18.014 20.14 18.0288C19.0437 18.1474 17.8734 18.2733 16.4808 18.6363C17.0882 17.0585 18.1697 15.3622 19.6215 13.6881C19.666 15.1326 19.9771 16.5844 20.5549 17.977ZM13.0586 28.54C12.9697 28.3992 12.8808 28.2733 12.7919 28.1177C11.2586 25.4659 11.1104 23.2288 11.34 22.8955C15.6511 20.3992 18.0363 20.1474 20.3474 19.9029C20.5697 19.8807 20.7845 19.8511 20.9993 19.8214L17.5697 24.7474C17.2067 25.2659 16.9326 25.8437 16.7474 26.4511L16.266 28.0437C15.8586 28.2807 15.34 28.577 14.9697 28.7918C14.3993 29.1251 13.6808 29.1992 13.066 28.5326L13.0586 28.54ZM15.266 37.8511L18.3993 27.3622C19.6586 27.8214 21.1326 28.0585 22.7549 28.0585C26.6511 28.0585 31.3993 26.7474 36.0734 24.3103C31.2141 32.5992 20.2956 36.7029 15.2734 37.8511H15.266ZM34.3845 29.5696C35.1623 28.7622 35.903 27.9103 36.5697 26.9992L37.3178 28.2955C36.3474 28.7696 35.3623 29.1918 34.3845 29.5622V29.5696ZM39.6289 27.0659C39.2511 27.2807 38.8734 27.4955 38.4956 27.6955L37.3993 25.7844C37.8882 25.0066 38.3326 24.1844 38.7178 23.3251L40.5474 26.5029C40.2437 26.6881 39.9474 26.8807 39.6363 27.0585L39.6289 27.0659ZM41.6511 25.7992L39.5919 22.2288C40.2586 21.7844 40.9104 21.3326 41.5326 20.8585L43.5845 24.414C42.9697 24.8881 42.3252 25.3474 41.6511 25.7992ZM44.6289 23.5844L42.5845 20.0437C43.2141 19.5326 43.8289 19.0066 44.4067 18.4659L46.4289 21.977C45.866 22.5177 45.2586 23.0585 44.6289 23.5844ZM47.3919 20.9992L45.3845 17.5103C45.9845 16.8955 46.5252 16.2733 47.0363 15.6437L49.0141 19.0733C48.5326 19.7177 47.9919 20.3548 47.3919 20.9918V20.9992ZM49.8511 17.8881L47.903 14.5103C48.0363 14.3251 48.1697 14.14 48.2956 13.9622C48.6882 13.3696 49.0141 12.7918 49.3104 12.2214L51.1548 15.4214C50.8363 16.2214 50.3993 17.0511 49.8511 17.8955V17.8881ZM51.6586 13.6363L49.9697 10.7177C50.1771 10.1622 50.3252 9.62144 50.4363 9.09551L51.2067 10.4288C51.7326 11.34 51.8511 12.4363 51.6511 13.6363H51.6586Z" fill="#38237C"/>
<path d="M89.5501 30.6513C89.5501 30.9031 89.3279 31.1253 89.0464 31.1253H85.6538C85.3723 31.1253 85.1501 30.9031 85.1501 30.6513V17.5698L80.5945 25.5253C80.4019 25.8735 80.2464 26.029 79.839 26.029H77.2316C76.8538 26.029 76.6686 25.8735 76.476 25.5253L71.7945 17.5698V30.6513C71.7945 30.9031 71.5723 31.1253 71.2908 31.1253H67.8982C67.6168 31.1253 67.3945 30.9031 67.3945 30.6513V10.1772C67.3945 9.92535 67.6168 9.70312 67.8982 9.70312H71.476C71.8538 9.70312 72.1056 9.76979 72.3575 10.2068L78.4538 20.7994L84.5797 10.2068C84.7945 9.76979 85.0538 9.70312 85.4242 9.70312H89.039C89.3205 9.70312 89.5427 9.92535 89.5427 10.1772V30.6513H89.5501Z" fill="#29264C"/>
<path d="M113.095 30.6515C113.095 30.9034 112.88 31.1256 112.621 31.1256H109.043C108.791 31.1256 108.569 30.9034 108.569 30.6515V24.9552H99.9986V30.6515C99.9986 30.9034 99.7838 31.1256 99.5245 31.1256H95.9467C95.6949 31.1256 95.4727 30.9034 95.4727 30.6515V18.3552C95.4727 15.7774 96.4727 13.1034 98.6134 11.3404C99.9986 10.1774 101.88 9.42188 104.265 9.42188C106.65 9.42188 108.569 10.1774 109.947 11.3404C112.11 13.1034 113.087 15.7774 113.087 18.3552V30.6515H113.095ZM101.317 14.77C100.502 15.6219 99.9986 16.8441 99.9986 18.5404V20.9256H108.569V18.5404C108.569 16.8441 108.065 15.6145 107.28 14.77C106.495 14.0145 105.428 13.6367 104.265 13.6367C103.102 13.6367 102.095 14.0145 101.317 14.77Z" fill="#29264C"/>
<path d="M129.364 30.7484C129.238 31.0965 129.015 31.2225 128.645 31.2225H124.875C124.467 31.2225 124.245 31.0965 124.119 30.7484L116.334 10.378C116.178 10.0002 116.304 9.71875 116.712 9.71875H120.512C120.919 9.71875 121.171 9.87431 121.297 10.2521L126.727 25.5336H126.793L132.415 10.2521C132.541 9.87431 132.764 9.71875 133.201 9.71875H136.971C137.349 9.71875 137.504 10.0002 137.349 10.378L129.378 30.7484H129.364Z" fill="#29264C"/>
<path d="M154.541 23.0735L159.193 30.3031C159.415 30.6809 159.445 31.1253 158.911 31.1253H154.985C154.548 31.1253 154.296 31.0587 154.074 30.6513L149.867 23.7031H145.815V30.6513C145.815 30.9031 145.63 31.1253 145.341 31.1253H141.793C141.511 31.1253 141.289 30.9031 141.289 30.6513V10.1772C141.289 9.92535 141.511 9.70312 141.793 9.70312H150.963C153.037 9.70312 154.919 10.0809 156.363 11.1476C157.934 12.3105 158.845 14.3253 158.845 16.6513C158.845 18.6957 158.089 20.5179 156.459 21.9031C155.83 22.4365 155.2 22.7846 154.541 23.0661V23.0735ZM145.808 13.5402V19.8587H150.2C151.363 19.8587 152.304 19.7624 152.963 19.3253C153.719 18.8513 154.252 17.9772 154.252 16.7105C154.252 15.4439 153.778 14.6365 153.059 14.1328C152.371 13.6957 151.519 13.5402 150.578 13.5402H145.8H145.808Z" fill="#29264C"/>
<path d="M177.09 10.1772C177.282 9.86609 177.467 9.70312 177.904 9.70312H182.015C182.519 9.70312 182.608 10.0809 182.327 10.4883L174.386 22.2142V30.6439C174.386 30.8957 174.164 31.1179 173.912 31.1179H170.334C170.082 31.1179 169.86 30.8957 169.86 30.6439V22.1846L161.978 10.4883C161.697 10.0809 161.786 9.70312 162.29 9.70312H166.401C166.808 9.70312 167.001 9.82905 167.186 10.1772L172.119 17.7253L177.082 10.1772H177.09Z" fill="#29264C"/>
<path d="M192.6 22.3179L190.874 24.0809V30.6513C190.874 30.9031 190.688 31.1253 190.4 31.1253H186.851C186.57 31.1253 186.348 30.9031 186.348 30.6513V10.1772C186.348 9.92535 186.562 9.70312 186.851 9.70312H190.4C190.681 9.70312 190.874 9.92535 190.874 10.1772V18.3253L198.251 10.1772C198.533 9.86609 198.844 9.70312 199.222 9.70312H203.77C204.177 9.70312 204.333 10.0809 203.992 10.4216L195.762 18.9772L204.244 30.2957C204.525 30.6439 204.555 31.1179 203.992 31.1179H199.785C199.377 31.1179 199.125 30.992 198.874 30.6439L192.592 22.3105L192.6 22.3179Z" fill="#29264C"/>
</svg>
