<svg width="210" height="40" viewBox="0 0 210 40" fill="none" xmlns="http://www.w3.org/2000/svg">
<g clip-path="url(#clip0_31749_245968)">
<path d="M28.4652 19.4565L20.2861 13.6334C23.7819 10.7506 30.2754 6.91965 35.8494 6.63232" fill="#86D4C9"/>
<path d="M54.2967 27.4436C63.74 21.9844 69.1992 13.7574 66.4888 9.05492C63.7784 4.36199 53.9328 4.97494 44.4894 10.4341C35.0461 15.8932 29.587 24.1202 32.2974 28.8227C35.0078 33.5156 44.8534 32.9027 54.2967 27.4436Z" fill="#77A4F2"/>
<path d="M18.3155 27.559C16.0552 28.8711 13.6225 32.5584 13 35.1156C15.5189 35.8435 19.934 35.5945 22.1943 34.2824C24.0523 33.2097 24.6844 30.8345 23.6118 28.986C22.5391 27.128 20.1735 26.4959 18.3155 27.5686V27.559Z" fill="#FF8486"/>
<path d="M51.2635 22.1872C60.7068 16.7281 66.166 8.50108 63.4556 3.79857C60.7452 -0.894361 50.8996 -0.281404 41.4562 5.17772C32.0129 10.6368 26.5538 18.8638 29.2642 23.5664C31.9746 28.2593 41.8202 27.6463 51.2635 22.1872Z" fill="white"/>
<path d="M48.0615 20.8647C56.4896 15.9898 61.6806 9.19939 59.6597 5.68448C57.6389 2.16957 49.1629 3.28055 40.7348 8.14587C32.3066 13.0208 27.1157 19.8112 29.1365 23.3261C31.1573 26.841 39.6334 25.73 48.0615 20.8647Z" fill="#86D4C9"/>
<path d="M61.0713 13.9486L63.7817 18.6511C63.7817 18.6511 65.0172 17.6742 65.4577 16.8027C65.8887 15.9215 67.7946 12.4545 66.3867 9.94523C64.9789 7.42637 64.3947 6.6506 63.9828 8.08721C63.571 9.51424 61.0713 13.9582 61.0713 13.9582V13.9486Z" fill="white"/>
<path d="M40.0464 26.4114C37.0966 26.919 35.7845 26.8041 33.9073 26.3539C32.0301 25.9038 32.2504 26.6125 31.2065 27.915C30.1721 29.208 27.2031 39.1494 27.2031 39.1494C27.2031 39.1494 31.1777 39.5324 35.6696 36.9465C40.1614 34.3511 50.8689 26.9094 50.754 24.4576C50.639 22.0058 49.7579 23.9213 46.8847 24.7258C44.0211 25.5398 40.0464 26.421 40.0464 26.421V26.4114Z" fill="#86D4C9"/>
<path d="M21.3048 13.8923C25.9786 11.383 31.2366 9.04616 34.2343 9.71658C34.2343 9.71658 35.805 6.9104 35.2974 6.66138C34.7802 6.41237 23.9482 10.8754 21.8603 12.4078C19.7724 13.9402 21.3048 13.8923 21.3048 13.8923Z" fill="white"/>
<path d="M33.2398 18.6595C30.2995 19.4641 27.7998 20.4122 25.9897 21.3508C24.1891 22.2894 23.4612 22.6438 23.5666 23.5057C23.6719 24.3581 25.7885 29.3958 26.8229 29.9705C27.8573 30.5451 29.4567 29.7119 30.0122 28.3423C30.5677 26.9823 30.5677 26.264 32.3299 24.2144C34.0921 22.1649 37.2144 18.4297 33.2398 18.6595Z" fill="#86D4C9"/>
<path d="M24.1221 24.4916C25.5012 23.6967 28.8342 21.7333 33.9006 20.4883L32.7896 22.6145L24.8691 27.1925L24.1316 24.4916H24.1221Z" fill="white"/>
<path d="M28.2014 37.9723C31.3524 36.7751 40.4509 33.2698 46.2644 25.6557C46.2644 25.6557 50.2869 22.9166 50.8903 22.9836C51.4937 23.0411 47.2509 29.9177 41.2842 33.3177C35.327 36.7176 27.2533 40.4624 28.2014 37.9819V37.9723Z" fill="white"/>
<path d="M55.2169 7.16136C58.3583 12.6109 38.648 24.008 35.5066 18.5585C32.3652 13.1089 34.2328 6.14616 39.6728 2.99519C45.1128 -0.146202 52.0756 1.71182 55.2169 7.17094V7.16136Z" fill="#86D4C9"/>
<path d="M73.2839 1.86408C72.4986 0.504087 70.765 0.0347936 69.405 0.820141C68.342 1.4331 67.8344 2.63027 68.0451 3.77956L64.1758 6.02068L65.1431 7.69672L69.0124 5.45561C69.9031 6.20265 71.1864 6.36547 72.2495 5.75251C73.6095 4.96716 74.0788 3.22407 73.2839 1.87366V1.86408Z" fill="#38237C"/>
<path d="M66.9513 8.93088L63.8578 3.56753C61.7316 -0.033579 56.0522 -0.981746 48.9841 1.05824C45.8236 0.0909246 42.2799 0.368673 39.196 2.15007C37.6061 3.0695 36.3132 4.29541 35.3171 5.70329C29.8484 6.17258 23.7093 9.65876 20.0316 12.5799C19.706 12.8385 19.524 13.2311 19.5336 13.643C19.5431 14.0644 19.7538 14.457 20.0986 14.6965L26.6879 19.3894C25.7589 19.8012 24.7437 20.3088 23.6135 20.9697C21.6406 22.1094 22.8857 26.3139 24.3989 28.9381C25.5386 30.9206 26.8316 32.3381 28.0575 33.0085L26.4963 38.1707C26.3527 38.6496 26.4676 39.1572 26.8028 39.5307C27.071 39.8372 27.4541 40 27.8563 40C27.9425 40 28.0383 40 28.1245 39.9713C31.5053 39.3296 38.6405 37.031 44.5977 32.5392V32.5583C47.8157 31.8017 51.2156 30.4226 54.4241 28.5646C64.4516 22.7702 69.9491 14.141 66.9513 8.93088ZM62.2201 4.58273C63.3311 6.50779 62.7947 9.29482 60.7069 12.4362C58.4849 15.7691 54.8263 19.0255 50.4016 21.5826C43.8506 25.3753 36.7921 26.8694 32.645 25.4615L36.1504 20.4142C36.8687 20.7781 37.7306 20.9505 38.7075 20.9505C41.4467 20.9505 44.9999 19.6384 48.2083 17.7804C53.5238 14.7061 58.0156 10.0802 56.0618 6.68019C54.9987 4.84132 53.5429 3.38555 51.8477 2.34162C56.8663 1.35514 60.8122 2.15007 62.2201 4.58273ZM40.1633 3.82612C41.7723 2.89711 43.5537 2.42781 45.3543 2.42781C46.2545 2.42781 47.174 2.55232 48.0647 2.78218C50.7463 3.50049 52.997 5.234 54.3953 7.6475C55.0562 8.78722 53.9835 10.3962 53.2461 11.3061C53.5238 10.5303 53.543 9.78327 53.1694 9.15116C50.4878 4.49653 44.5402 2.89711 39.8856 5.58836C36.7825 7.38892 35.0394 10.6357 35.0298 13.9877C34.6084 10.0035 36.4856 5.9523 40.1729 3.82612H40.1633ZM21.88 13.5951C25.2417 11.0666 29.9538 8.55736 34.12 7.80074C33.7943 8.5382 33.5357 9.30439 33.3538 10.0897C30.6817 12.6661 28.8141 15.3669 27.9138 17.8953L21.88 13.5951ZM33.9955 17.608C33.8518 17.6272 33.7081 17.6463 33.574 17.6559C32.4535 17.7804 31.2563 17.9049 29.8389 18.2784C30.4614 16.6694 31.5628 14.9359 33.0473 13.2216C33.0856 14.6965 33.4112 16.181 33.9955 17.608ZM26.3431 28.3922C26.2569 28.2485 26.1611 28.1144 26.0749 27.9612C24.5138 25.2508 24.3606 22.9618 24.5904 22.6266C28.996 20.079 31.4287 19.8204 33.7848 19.5714C34.005 19.5522 34.2253 19.5139 34.4456 19.4852L30.9498 24.5229C30.5763 25.0497 30.2986 25.6435 30.107 26.2564L29.609 27.8846C29.1876 28.124 28.6608 28.4305 28.2873 28.6508C27.7031 28.9956 26.9752 29.0722 26.3431 28.3922ZM28.5938 37.9025L31.7926 27.195C33.076 27.6643 34.5797 27.9037 36.2366 27.9037C40.2208 27.9037 45.0669 26.5725 49.8365 24.0728C44.8754 32.5392 33.7177 36.7245 28.5938 37.9025ZM48.1126 29.4457C48.9075 28.622 49.6641 27.7505 50.3441 26.8215L51.1103 28.1527C50.1142 28.6412 49.1086 29.0722 48.1126 29.4457ZM53.4663 26.8885C53.0832 27.1088 52.7001 27.3195 52.3075 27.5302L51.1869 25.5764C51.6849 24.7815 52.1351 23.9387 52.5277 23.0671L54.3953 26.3139C54.0889 26.5054 53.7824 26.697 53.4663 26.8789V26.8885ZM55.5351 25.5956L53.4376 21.9466C54.1176 21.4964 54.788 21.0367 55.4201 20.5483L57.508 24.1781C56.8759 24.657 56.2246 25.1359 55.5351 25.5956ZM58.5711 23.3353L56.4832 19.715C57.1249 19.1883 57.757 18.652 58.3412 18.106L60.41 21.688C59.8353 22.2435 59.2224 22.7894 58.5711 23.3257V23.3353ZM61.3868 20.6919L59.3373 17.1291C59.9502 16.5066 60.5057 15.8649 61.0229 15.2232L63.0437 18.7286C62.5457 19.3798 61.9998 20.0407 61.3868 20.6919ZM63.8961 17.5122L61.904 14.0644C62.0381 13.8824 62.1818 13.6908 62.3063 13.5089C62.7085 12.9055 63.0342 12.3117 63.3406 11.7275L65.2274 14.9934C64.9018 15.8075 64.4612 16.6598 63.8961 17.5218V17.5122ZM65.735 13.1641L64.0111 10.1855C64.2218 9.62045 64.375 9.06496 64.4899 8.52863L65.2753 9.88862C65.8116 10.8176 65.9361 11.9382 65.735 13.1641Z" fill="#38237C"/>
<path d="M104.452 30.5465C104.452 30.8051 104.232 31.0254 103.945 31.0254H100.478C100.191 31.0254 99.9607 30.8051 99.9607 30.5465V17.186L95.3156 25.3077C95.1241 25.662 94.9613 25.8249 94.5494 25.8249H91.8869C91.5038 25.8249 91.3123 25.662 91.1207 25.3077L86.3416 17.186V30.5465C86.3416 30.8051 86.1213 31.0254 85.834 31.0254H82.367C82.0797 31.0254 81.8594 30.8051 81.8594 30.5465V9.63903C81.8594 9.38044 82.0797 9.16016 82.367 9.16016H86.0255C86.4086 9.16016 86.6672 9.2272 86.9258 9.67733L93.1511 20.4998L99.4052 9.67733C99.6255 9.2272 99.8841 9.16016 100.267 9.16016H103.954C104.242 9.16016 104.462 9.38044 104.462 9.63903V30.5465H104.452Z" fill="#38237C"/>
<path d="M128.503 30.5475C128.503 30.8061 128.283 31.0264 128.024 31.0264H124.366C124.107 31.0264 123.887 30.8061 123.887 30.5475V24.734H115.133V30.5475C115.133 30.8061 114.913 31.0264 114.654 31.0264H110.995C110.737 31.0264 110.517 30.8061 110.517 30.5475V17.9915C110.517 15.3577 111.541 12.6282 113.725 10.8276C115.133 9.64003 117.058 8.86426 119.5 8.86426C121.942 8.86426 123.896 9.64003 125.304 10.8276C127.517 12.6282 128.513 15.3577 128.513 17.9915V30.5475H128.503ZM116.474 14.333C115.641 15.1949 115.123 16.4496 115.123 18.1831V20.6253H123.877V18.1831C123.877 16.4496 123.369 15.1949 122.555 14.333C121.751 13.5572 120.669 13.1741 119.481 13.1741C118.293 13.1741 117.269 13.5572 116.464 14.333H116.474Z" fill="#38237C"/>
<path d="M145.114 30.6423C144.979 30.9967 144.759 31.1212 144.376 31.1212H140.526C140.105 31.1212 139.884 30.9967 139.76 30.6423L131.811 9.84015C131.648 9.45706 131.782 9.16016 132.194 9.16016H136.072C136.494 9.16016 136.752 9.32297 136.877 9.70607L142.422 25.3077H142.489L148.226 9.70607C148.36 9.32297 148.581 9.16016 149.031 9.16016H152.881C153.264 9.16016 153.427 9.44748 153.264 9.84015L145.123 30.6423H145.114Z" fill="#38237C"/>
<path d="M157.522 31.1823C157.31 31.1823 157.139 31.0108 157.139 30.7992V9.53739C157.139 9.32581 157.31 9.1543 157.522 9.1543H172.115C172.327 9.1543 172.498 9.32581 172.498 9.53739V13.0951C172.498 13.3066 172.327 13.4782 172.115 13.4782H162.463V17.9956H171.33C171.541 17.9956 171.713 18.1671 171.713 18.3787V21.9472C171.713 22.1587 171.541 22.3303 171.33 22.3303H162.463V26.8585H172.115C172.327 26.8585 172.498 27.03 172.498 27.2416V30.7992C172.498 31.0108 172.327 31.1823 172.115 31.1823H157.522Z" fill="#38237C"/>
<path d="M196.958 9.1543C197.169 9.1543 197.341 9.32582 197.341 9.53739V30.7992C197.341 31.0108 197.169 31.1823 196.958 31.1823H192.936C192.811 31.1823 192.694 31.1216 192.622 31.0195L183.803 18.4689H183.66V30.7992C183.66 31.0108 183.489 31.1823 183.277 31.1823H178.617C178.406 31.1823 178.234 31.0108 178.234 30.7992V9.53739C178.234 9.32581 178.406 9.1543 178.617 9.1543H182.704C182.829 9.1543 182.947 9.21563 183.018 9.31852L191.739 21.8462H191.926V9.53739C191.926 9.32581 192.097 9.1543 192.309 9.1543H196.958Z" fill="#38237C"/>
</g>
<defs>
<clipPath id="clip0_31749_245968">
<rect width="210" height="40" fill="white"/>
</clipPath>
</defs>
</svg>
