<svg width="50" height="34" viewBox="0 0 50 34" fill="none" xmlns="http://www.w3.org/2000/svg">
<g clip-path="url(#clip0_3344_29177)">
<path d="M12.7399 16.1687L5.99902 11.3296C8.88009 8.93389 14.2318 5.75025 18.8257 5.51147" fill="#86D4C9"/>
<path d="M34.0357 22.8066C41.8185 18.2699 46.3177 11.4331 44.0839 7.52515C41.8501 3.62519 33.7357 4.13457 25.9529 8.67126C18.1701 13.2079 13.6709 20.0448 15.9047 23.9527C18.1385 27.8527 26.2529 27.3433 34.0357 22.8066Z" fill="#77A4F2"/>
<path d="M4.3808 22.9023C2.51797 23.9927 0.513066 27.057 0 29.182C2.07594 29.7869 5.71477 29.58 7.57759 28.4896C9.1089 27.5982 9.62986 25.6243 8.74581 24.0882C7.86175 22.5442 5.9121 22.0189 4.3808 22.9103V22.9023Z" fill="#FF8486"/>
<path d="M31.5337 18.4373C39.3165 13.9006 43.8157 7.06369 41.5819 3.15577C39.3481 -0.744196 31.2338 -0.234811 23.451 4.30188C15.6681 8.83857 11.1689 15.6754 13.4028 19.5834C15.6366 23.4833 23.7509 22.9739 31.5337 18.4373Z" fill="white"/>
<path d="M28.8972 17.3386C35.8434 13.2875 40.1215 7.64445 38.4561 4.72346C36.7906 1.80247 29.805 2.72573 22.8588 6.76895C15.9127 10.8201 11.6345 16.4631 13.3 19.3841C14.9655 22.3051 21.9511 21.3819 28.8972 17.3386Z" fill="#86D4C9"/>
<path d="M39.6162 11.5925L41.85 15.5004C41.85 15.5004 42.8683 14.6886 43.2314 13.9643C43.5866 13.232 45.1573 10.3508 43.997 8.26556C42.8367 6.17232 42.3552 5.52763 42.0158 6.72149C41.6764 7.9074 39.6162 11.6004 39.6162 11.6004V11.5925Z" fill="white"/>
<path d="M22.291 21.9469C19.8599 22.3687 18.7785 22.2732 17.2314 21.8991C15.6843 21.525 15.8658 22.114 15.0055 23.1965C14.153 24.2709 11.7061 32.5325 11.7061 32.5325C11.7061 32.5325 14.9818 32.8508 18.6838 30.7019C22.3857 28.545 31.2105 22.3607 31.1157 20.3232C31.021 18.2857 30.2948 19.8775 27.9268 20.5461C25.5667 21.2226 22.291 21.9548 22.291 21.9548V21.9469Z" fill="#86D4C9"/>
<path d="M6.84329 11.5445C10.6952 9.45926 15.0287 7.51724 17.4993 8.07438C17.4993 8.07438 18.7938 5.74236 18.3754 5.53542C17.9492 5.32849 9.02185 9.03743 7.3011 10.3109C5.58035 11.5843 6.84329 11.5445 6.84329 11.5445Z" fill="white"/>
<path d="M16.6787 15.5079C14.2554 16.1765 12.1953 16.9645 10.7034 17.7444C9.21949 18.5244 8.6196 18.8189 8.70643 19.5352C8.79325 20.2436 10.5377 24.4301 11.3902 24.9076C12.2426 25.3852 13.5608 24.6927 14.0186 23.5546C14.4764 22.4244 14.4764 21.8275 15.9288 20.1242C17.3812 18.421 19.9544 15.3169 16.6787 15.5079Z" fill="#86D4C9"/>
<path d="M9.16406 20.3555C10.3007 19.6949 13.0476 18.0632 17.2231 17.0286L16.3075 18.7955L9.77974 22.5999L9.17195 20.3555H9.16406Z" fill="white"/>
<path d="M12.5269 31.5537C15.1238 30.5588 22.6224 27.6458 27.4137 21.3183C27.4137 21.3183 30.7289 19.042 31.2262 19.0977C31.7234 19.1454 28.2267 24.8601 23.3091 27.6856C18.3995 30.511 11.7454 33.6231 12.5269 31.5617V31.5537Z" fill="white"/>
<path d="M34.7935 5.94939C37.3825 10.4781 21.138 19.9494 18.549 15.4207C15.96 10.892 17.4992 5.10573 21.9826 2.48718C26.466 -0.123404 32.2044 1.42066 34.7935 5.95735V5.94939Z" fill="#86D4C9"/>
<path d="M49.6804 1.54816C49.0331 0.41797 47.6044 0.0279743 46.4836 0.680621C45.6074 1.19 45.1891 2.18489 45.3627 3.13998L42.1738 5.00241L42.9711 6.39526L46.16 4.53283C46.894 5.15364 47.9517 5.28894 48.8279 4.77956C49.9488 4.12691 50.3355 2.67836 49.6804 1.55612V1.54816Z" fill="#38237C"/>
<path d="M44.463 7.42182L41.9134 2.96472C40.1611 -0.0279051 35.4804 -0.815859 29.6551 0.87943C27.0503 0.0755609 24.1298 0.306378 21.5881 1.78677C20.2778 2.55084 19.2122 3.56961 18.3913 4.7396C13.8842 5.12959 8.8246 8.02671 5.79356 10.4542C5.52519 10.6691 5.37522 10.9955 5.38311 11.3377C5.391 11.6879 5.56466 12.0142 5.84882 12.2132L11.2794 16.1132C10.5138 16.4554 9.67708 16.8772 8.74567 17.4264C7.11964 18.3735 8.14577 21.8676 9.39292 24.0484C10.3322 25.6959 11.3978 26.8739 12.4082 27.431L11.1216 31.721C11.0032 32.1189 11.0979 32.5407 11.3741 32.8512C11.5952 33.1058 11.9109 33.2411 12.2424 33.2411C12.3134 33.2411 12.3924 33.2411 12.4634 33.2173C15.2498 32.684 21.1303 30.7738 26.0399 27.041V27.0569C28.6921 26.4282 31.4942 25.282 34.1385 23.738C42.4028 18.9227 46.9336 11.7516 44.463 7.42182ZM40.5637 3.80838C41.4793 5.40816 41.0373 7.72426 39.3165 10.3348C37.4853 13.1046 34.47 15.8107 30.8233 17.9358C25.4243 21.0876 19.6069 22.3292 16.1891 21.1592L19.078 16.9648C19.67 17.2672 20.3804 17.4105 21.1855 17.4105C23.443 17.4105 26.3715 16.3201 29.0157 14.776C33.3965 12.2212 37.0985 8.37691 35.4883 5.55143C34.6121 4.02328 33.4123 2.81349 32.0152 1.94595C36.1513 1.12616 39.4033 1.78677 40.5637 3.80838ZM22.3853 3.17961C23.7114 2.40758 25.1796 2.01758 26.6635 2.01758C27.4055 2.01758 28.1632 2.12105 28.8973 2.31207C31.1075 2.909 32.9624 4.3496 34.1148 6.3553C34.6595 7.30243 33.7754 8.63956 33.1676 9.39567C33.3965 8.75099 33.4123 8.13017 33.1045 7.60487C30.8943 3.73675 25.9926 2.40758 22.1564 4.64409C19.599 6.1404 18.1624 8.83853 18.1545 11.6242C17.8072 8.31323 19.3543 4.94654 22.3932 3.17961H22.3853ZM7.31697 11.2979C10.0875 9.19669 13.971 7.11141 17.4046 6.48264C17.1363 7.09549 16.9232 7.73222 16.7732 8.38487C14.5709 10.5259 13.0317 12.7703 12.2898 14.8715L7.31697 11.2979ZM17.302 14.6328C17.1836 14.6487 17.0652 14.6646 16.9547 14.6726C16.0312 14.776 15.0445 14.8795 13.8763 15.1899C14.3894 13.8528 15.2971 12.4122 16.5206 10.9875C16.5522 12.2132 16.8205 13.4469 17.302 14.6328ZM10.9953 23.5947C10.9242 23.4753 10.8453 23.3639 10.7743 23.2366C9.48764 20.9841 9.36134 19.0819 9.55078 18.8033C13.1817 16.6862 15.1866 16.4713 17.1284 16.2644C17.3099 16.2485 17.4915 16.2166 17.673 16.1928L14.792 20.3792C14.4841 20.817 14.2552 21.3105 14.0973 21.8198L13.6869 23.1729C13.3396 23.3719 12.9054 23.6266 12.5976 23.8096C12.1161 24.0961 11.5162 24.1598 10.9953 23.5947ZM12.8502 31.4981L15.4866 22.5998C16.5443 22.9898 17.7835 23.1888 19.1491 23.1888C22.4327 23.1888 26.4267 22.0825 30.3576 20.0052C26.2689 27.041 17.0731 30.5191 12.8502 31.4981ZM28.9368 24.4702C29.5919 23.7857 30.2155 23.0615 30.7759 22.2894L31.4074 23.3957C30.5865 23.8017 29.7577 24.1598 28.9368 24.4702ZM33.3492 22.3451C33.0334 22.5282 32.7177 22.7033 32.3941 22.8784L31.4706 21.2547C31.881 20.5941 32.252 19.8937 32.5756 19.1695L34.1148 21.8676C33.8622 22.0268 33.6096 22.186 33.3492 22.3372V22.3451ZM35.0541 21.2707L33.3255 18.2382C33.8859 17.8642 34.4384 17.4821 34.9594 17.0762L36.6802 20.0927C36.1592 20.4907 35.6224 20.8886 35.0541 21.2707ZM37.5563 19.3923L35.8356 16.3838C36.3644 15.946 36.8854 15.5003 37.3669 15.0466L39.0718 18.0233C38.5982 18.485 38.0931 18.9386 37.5563 19.3843V19.3923ZM39.8769 17.1956L38.1878 14.2348C38.6929 13.7175 39.1508 13.1842 39.577 12.6509L41.2425 15.564C40.832 16.1052 40.3821 16.6544 39.8769 17.1956ZM41.945 14.5532L40.3032 11.6879C40.4137 11.5367 40.5321 11.3775 40.6347 11.2263C40.9662 10.7248 41.2346 10.2314 41.4872 9.74588L43.0422 12.4599C42.7738 13.1365 42.4107 13.8448 41.945 14.5611V14.5532ZM43.4605 10.9397L42.0397 8.46446C42.2134 7.99487 42.3397 7.53324 42.4344 7.08753L43.0816 8.21773C43.5237 8.98976 43.6263 9.92098 43.4605 10.9397Z" fill="#38237C"/>
</g>
<defs>
<clipPath id="clip0_3344_29177">
<rect width="49.9996" height="33.2411" fill="white"/>
</clipPath>
</defs>
</svg>
