<svg width="276" height="54" viewBox="0 0 276 54" fill="none" xmlns="http://www.w3.org/2000/svg">
<path d="M20.4299 26.73L9.60986 19.03C14.2399 15.22 22.8199 10.16 30.1899 9.77002" fill="#86D4C9"/>
<path d="M54.5901 37.29C67.0701 30.08 74.2801 19.2 70.7101 12.99C67.1301 6.77996 54.1101 7.59996 41.6301 14.81C29.1501 22.02 21.9401 32.9 25.5101 39.11C29.0901 45.32 42.1101 44.5 54.5901 37.29Z" fill="#77A4F2"/>
<path d="M7.03 37.4399C4.04 39.1699 0.83 44.0499 0 47.4299C3.33 48.3999 9.16 48.0599 12.15 46.3299C14.6 44.9099 15.44 41.7799 14.03 39.3199C12.61 36.8599 9.48 36.0299 7.03 37.4399Z" fill="#FF8486"/>
<path d="M50.5799 30.33C63.0599 23.12 70.2699 12.24 66.6999 6.03C63.1199 -0.18 50.0999 0.639999 37.6199 7.85C25.1399 15.06 17.9299 25.94 21.4999 32.15C25.0799 38.36 38.0999 37.54 50.5799 30.33Z" fill="white"/>
<path d="M46.34 28.58C57.48 22.14 64.34 13.16 61.67 8.52003C58.99 3.88003 47.79 5.34003 36.65 11.78C25.51 18.22 18.65 27.2 21.32 31.84C24 36.48 35.2 35.02 46.34 28.58Z" fill="#86D4C9"/>
<path d="M63.5398 19.4401L67.1198 25.6601C67.1198 25.6601 68.7598 24.3701 69.3298 23.2101C69.8998 22.0501 72.4098 17.4701 70.5498 14.1401C68.6898 10.8101 67.9198 9.79009 67.3798 11.6801C66.8398 13.5701 63.5298 19.4401 63.5298 19.4401H63.5398Z" fill="white"/>
<path d="M35.7498 35.9201C31.8498 36.5901 30.1198 36.4401 27.6398 35.8401C25.1598 35.2501 25.4398 36.1901 24.0698 37.9001C22.6998 39.6101 18.7798 52.7501 18.7798 52.7501C18.7798 52.7501 24.0398 53.2601 29.9698 49.8301C35.8998 46.4001 50.0598 36.5601 49.9098 33.3201C49.7598 30.0801 48.5898 32.6101 44.7998 33.6801C41.0098 34.7501 35.7598 35.9201 35.7598 35.9201H35.7498Z" fill="#86D4C9"/>
<path d="M10.9802 19.3699C17.1602 16.0499 24.1102 12.9699 28.0702 13.8499C28.0702 13.8499 30.1502 10.1399 29.4702 9.81992C28.7902 9.49992 14.4702 15.3899 11.7102 17.4099C8.95016 19.4399 10.9802 19.3699 10.9802 19.3699Z" fill="white"/>
<path d="M26.7498 25.6699C22.8598 26.7299 19.5598 27.9799 17.1698 29.2199C14.7898 30.4599 13.8298 30.9299 13.9698 32.0599C14.1098 33.1899 16.9098 39.8499 18.2698 40.6099C19.6398 41.3699 21.7498 40.2599 22.4898 38.4599C23.2298 36.6599 23.2298 35.7099 25.5598 32.9999C27.8898 30.2899 32.0198 25.3499 26.7598 25.6599L26.7498 25.6699Z" fill="#86D4C9"/>
<path d="M14.7002 33.3901C16.5202 32.3401 20.9202 29.7401 27.6202 28.0901L26.1502 30.9001L15.6802 36.9601L14.7102 33.3901H14.7002Z" fill="white"/>
<path d="M20.1001 51.2C24.2601 49.62 36.2901 44.98 43.9701 34.91C43.9701 34.91 49.2901 31.29 50.0901 31.37C50.8901 31.45 45.2801 40.54 37.4001 45.03C29.5201 49.52 18.8501 54.47 20.1001 51.19V51.2Z" fill="white"/>
<path d="M55.8099 10.4601C59.9599 17.6601 33.9099 32.7201 29.7599 25.5201C25.6099 18.3201 28.0699 9.11011 35.2699 4.95011C42.4599 0.790112 51.6599 3.26011 55.8099 10.4601Z" fill="#86D4C9"/>
<path d="M79.6901 3.46998C78.6501 1.66998 76.3601 1.04998 74.5601 2.08998C73.1501 2.89998 72.4801 4.48998 72.7601 5.99998L67.6401 8.95998L68.9101 11.17L74.0301 8.20998C75.2001 9.19998 76.9101 9.40998 78.3101 8.59998C80.1101 7.55998 80.7201 5.25998 79.6801 3.46998H79.6901Z" fill="#38237C"/>
<path d="M71.3198 12.8001L67.2298 5.71007C64.4198 0.950067 56.9098 -0.299933 47.5698 2.40007C43.3898 1.12007 38.7098 1.49007 34.6298 3.84007C32.5298 5.05007 30.8198 6.68007 29.4998 8.54007C22.2698 9.16007 14.1498 13.7601 9.28983 17.6301C8.85983 17.9701 8.61983 18.4801 8.63983 19.0301C8.65983 19.5801 8.93983 20.1001 9.38983 20.4201L18.0898 26.6201C16.8598 27.1601 15.5198 27.8401 14.0198 28.7101C11.4098 30.2101 13.0598 35.7701 15.0598 39.2401C16.5698 41.8501 18.2798 43.7301 19.8998 44.6201L17.8298 51.4501C17.6398 52.0801 17.7998 52.7501 18.2398 53.2401C18.5998 53.6401 19.0998 53.8601 19.6298 53.8601C19.7498 53.8601 19.8698 53.8501 19.9898 53.8301C24.4598 52.9801 33.8898 49.9401 41.7598 44.0001V44.0201C46.0198 43.0201 50.4998 41.1901 54.7498 38.7401C68.0098 31.0801 75.2798 19.6801 71.3098 12.7901L71.3198 12.8001ZM65.0598 7.05007C66.5298 9.60007 65.8198 13.2801 63.0598 17.4301C60.1198 21.8401 55.2898 26.1301 49.4298 29.5201C40.7698 34.5301 31.4498 36.5001 25.9598 34.6501L30.5998 27.9801C31.5498 28.4601 32.6898 28.6901 33.9898 28.6901C37.6098 28.6901 42.2998 26.9601 46.5498 24.5001C53.5798 20.4301 59.5198 14.3201 56.9298 9.82007C55.5298 7.39007 53.5998 5.47007 51.3698 4.09007C58.0098 2.78007 63.2198 3.84007 65.0798 7.05007H65.0598ZM35.9098 6.05007C38.0298 4.83007 40.3898 4.20007 42.7698 4.20007C43.9598 4.20007 45.1698 4.36007 46.3498 4.67007C49.8998 5.62007 52.8698 7.91007 54.7098 11.1001C55.5798 12.6101 54.1698 14.7301 53.1898 15.9401C53.5598 14.9101 53.5798 13.9301 53.0898 13.0901C49.5398 6.93007 41.6798 4.82007 35.5298 8.38007C31.4198 10.7601 29.1298 15.0601 29.1098 19.4901C28.5498 14.2301 31.0398 8.87007 35.8998 6.06007L35.9098 6.05007ZM11.7398 18.9701C16.1798 15.6301 22.4198 12.3101 27.9298 11.3101C27.4998 12.2801 27.1598 13.3001 26.9198 14.3401C23.3898 17.7501 20.9198 21.3201 19.7298 24.6601L11.7498 18.9701H11.7398ZM27.7498 24.2701C27.5598 24.2901 27.3698 24.3201 27.1898 24.3401C25.7098 24.5001 24.1298 24.6701 22.2498 25.1601C23.0698 23.0301 24.5298 20.7401 26.4898 18.4801C26.5498 20.4301 26.9698 22.3901 27.7498 24.2701ZM17.6298 38.5301C17.5098 38.3401 17.3898 38.1701 17.2698 37.9601C15.1998 34.3801 14.9998 31.3601 15.3098 30.9101C21.1298 27.5401 24.3498 27.2001 27.4698 26.8701C27.7698 26.8401 28.0598 26.8001 28.3498 26.7601L23.7198 33.4101C23.2298 34.1101 22.8598 34.8901 22.6098 35.7101L21.9598 37.8601C21.4098 38.1801 20.7098 38.5801 20.2098 38.8701C19.4398 39.3201 18.4698 39.4201 17.6398 38.5201L17.6298 38.5301ZM20.6098 51.1001L24.8398 36.9401C26.5398 37.5601 28.5298 37.8801 30.7198 37.8801C35.9798 37.8801 42.3898 36.1101 48.6998 32.8201C42.1398 44.0101 27.3998 49.5501 20.6198 51.1001H20.6098ZM46.4198 39.9201C47.4698 38.8301 48.4698 37.6801 49.3698 36.4501L50.3798 38.2001C49.0698 38.8401 47.7398 39.4101 46.4198 39.9101V39.9201ZM53.4998 36.5401C52.9898 36.8301 52.4798 37.1201 51.9698 37.3901L50.4898 34.8101C51.1498 33.7601 51.7498 32.6501 52.2698 31.4901L54.7398 35.7801C54.3298 36.0301 53.9298 36.2901 53.5098 36.5301L53.4998 36.5401ZM56.2298 34.8301L53.4498 30.0101C54.3498 29.4101 55.2298 28.8001 56.0698 28.1601L58.8398 32.9601C58.0098 33.6001 57.1398 34.2201 56.2298 34.8301ZM60.2498 31.8401L57.4898 27.0601C58.3398 26.3701 59.1698 25.6601 59.9498 24.9301L62.6798 29.6701C61.9198 30.4001 61.0998 31.1301 60.2498 31.8401ZM63.9798 28.3501L61.2698 23.6401C62.0798 22.8101 62.8098 21.9701 63.4998 21.1201L66.1698 25.7501C65.5198 26.6201 64.7898 27.4801 63.9798 28.3401V28.3501ZM67.2998 24.1501L64.6698 19.5901C64.8498 19.3401 65.0298 19.0901 65.1998 18.8501C65.7298 18.0501 66.1698 17.2701 66.5698 16.5001L69.0598 20.8201C68.6298 21.9001 68.0398 23.0201 67.2998 24.1601V24.1501ZM69.7398 18.4101L67.4598 14.4701C67.7398 13.7201 67.9398 12.9901 68.0898 12.2801L69.1298 14.0801C69.8398 15.3101 69.9998 16.7901 69.7298 18.4101H69.7398Z" fill="#38237C"/>
<path d="M120.89 41.3801C120.89 41.7201 120.59 42.0201 120.21 42.0201H115.63C115.25 42.0201 114.95 41.7201 114.95 41.3801V23.7201L108.8 34.4601C108.54 34.9301 108.33 35.1401 107.78 35.1401H104.26C103.75 35.1401 103.5 34.9301 103.24 34.4601L96.92 23.7201V41.3801C96.92 41.7201 96.62 42.0201 96.24 42.0201H91.66C91.28 42.0201 90.98 41.7201 90.98 41.3801V13.7401C90.98 13.4001 91.28 13.1001 91.66 13.1001H96.49C97 13.1001 97.34 13.1901 97.68 13.7801L105.91 28.0801L114.18 13.7801C114.47 13.1901 114.82 13.1001 115.32 13.1001H120.2C120.58 13.1001 120.88 13.4001 120.88 13.7401V41.3801H120.89Z" fill="white"/>
<path d="M152.68 41.38C152.68 41.72 152.39 42.02 152.04 42.02H147.21C146.87 42.02 146.57 41.72 146.57 41.38V33.69H135V41.38C135 41.72 134.71 42.02 134.36 42.02H129.53C129.19 42.02 128.89 41.72 128.89 41.38V24.78C128.89 21.3 130.24 17.69 133.13 15.31C135 13.74 137.54 12.72 140.76 12.72C143.98 12.72 146.57 13.74 148.43 15.31C151.35 17.69 152.67 21.3 152.67 24.78V41.38H152.68ZM136.78 19.94C135.68 21.09 135 22.74 135 25.03V28.25H146.57V25.03C146.57 22.74 145.89 21.08 144.83 19.94C143.77 18.92 142.33 18.41 140.76 18.41C139.19 18.41 137.83 18.92 136.78 19.94Z" fill="white"/>
<path d="M174.64 41.5101C174.47 41.9801 174.17 42.1501 173.67 42.1501H168.58C168.03 42.1501 167.73 41.9801 167.56 41.5101L157.05 14.0101C156.84 13.5001 157.01 13.1201 157.56 13.1201H162.69C163.24 13.1201 163.58 13.3301 163.75 13.8401L171.08 34.4701H171.17L178.76 13.8401C178.93 13.3301 179.23 13.1201 179.82 13.1201H184.91C185.42 13.1201 185.63 13.5001 185.42 14.0101L174.66 41.5101H174.64Z" fill="white"/>
<path d="M208.63 31.1501L214.91 40.9101C215.21 41.4201 215.25 42.0201 214.53 42.0201H209.23C208.64 42.0201 208.3 41.9301 208 41.3801L202.32 32.0001H196.85V41.3801C196.85 41.7201 196.6 42.0201 196.21 42.0201H191.42C191.04 42.0201 190.74 41.7201 190.74 41.3801V13.7401C190.74 13.4001 191.04 13.1001 191.42 13.1001H203.8C206.6 13.1001 209.14 13.6101 211.09 15.0501C213.21 16.6201 214.44 19.3401 214.44 22.4801C214.44 25.2401 213.42 27.7001 211.22 29.5701C210.37 30.2901 209.52 30.7601 208.63 31.1401V31.1501ZM196.84 18.2801V26.8101H202.77C204.34 26.8101 205.61 26.6801 206.5 26.0901C207.52 25.4501 208.24 24.2701 208.24 22.5601C208.24 20.8501 207.6 19.7601 206.63 19.0801C205.7 18.4901 204.55 18.2801 203.28 18.2801H196.83H196.84Z" fill="white"/>
<path d="M239.07 13.7401C239.33 13.3201 239.58 13.1001 240.17 13.1001H245.72C246.4 13.1001 246.52 13.6101 246.14 14.1601L235.42 29.9901V41.3701C235.42 41.7101 235.12 42.0101 234.78 42.0101H229.95C229.61 42.0101 229.31 41.7101 229.31 41.3701V29.9501L218.67 14.1601C218.29 13.6101 218.41 13.1001 219.09 13.1001H224.64C225.19 13.1001 225.45 13.2701 225.7 13.7401L232.36 23.9301L239.06 13.7401H239.07Z" fill="white"/>
<path d="M260.01 30.1301L257.68 32.5101V41.3801C257.68 41.7201 257.43 42.0201 257.04 42.0201H252.25C251.87 42.0201 251.57 41.7201 251.57 41.3801V13.7401C251.57 13.4001 251.86 13.1001 252.25 13.1001H257.04C257.42 13.1001 257.68 13.4001 257.68 13.7401V24.7401L267.64 13.7401C268.02 13.3201 268.44 13.1001 268.95 13.1001H275.09C275.64 13.1001 275.85 13.6101 275.39 14.0701L264.28 25.6201L275.73 40.9001C276.11 41.3701 276.15 42.0101 275.39 42.0101H269.71C269.16 42.0101 268.82 41.8401 268.48 41.3701L260 30.1201L260.01 30.1301Z" fill="white"/>
</svg>
