<svg id="Layer_1" data-name="Layer 1" xmlns="http://www.w3.org/2000/svg" viewBox="0 0 500 119.56"><defs><style>.cls-1{fill:#88d1c3;}.cls-2{fill:#7996c9;}.cls-3{fill:#ff8080;}.cls-4{fill:#fff;}.cls-5{fill:#4f457c;}.cls-6{opacity:0.15;}</style></defs><path class="cls-1" d="M40.65,51.78,20.38,37.36C29.05,30.23,45.14,20.77,59,20"/><ellipse class="cls-2" cx="92.52" cy="50.5" rx="48.89" ry="24.29" transform="translate(-12.86 53.02) rotate(-30)"/><path class="cls-3" d="M15.54,71.83C9.93,75.06,3.92,84.2,2.38,90.51c6.23,1.82,17.15,1.18,22.76-2.06a9.6,9.6,0,1,0-9.6-16.62Z"/><ellipse class="cls-4" cx="85" cy="37.49" rx="48.89" ry="24.29" transform="translate(-7.36 47.52) rotate(-30)"/><ellipse class="cls-1" cx="80.13" cy="39.53" rx="43.65" ry="18.16" transform="translate(-9.03 45.36) rotate(-30)"/><path class="cls-4" d="M121.44,38.15l6.71,11.64s3.07-2.41,4.15-4.59,5.77-10.74,2.29-17-4.93-8.15-6-4.61S121.44,38.15,121.44,38.15Z"/><path class="cls-1" d="M69.37,69c-7.31,1.26-10.55,1-15.2-.14s-4.12.65-6.68,3.86-9.92,27.78-9.92,27.78,9.85,1,21-5.46,37.64-24.84,37.35-30.9-2.47-1.33-9.58.67S69.37,69,69.37,69Z"/><path class="cls-4" d="M23,38c11.57-6.21,24.61-12,32-10.33,0,0,3.9-6.94,2.62-7.55S29.49,30.55,24.32,34.35,23,38,23,38Z"/><path class="cls-1" d="M52.49,49.81a94.27,94.27,0,0,0-18,6.66c-4.47,2.33-6.26,3.21-6,5.32s5.5,14.57,8.05,16,6.52-.65,7.9-4,1.39-5.15,5.75-10.21S62.34,49.25,52.49,49.81Z"/><path class="cls-4" d="M29.93,64.25a88,88,0,0,1,24.21-9.91l-2.77,5.27L31.75,70.93Z"/><path class="cls-4" d="M40,97.57c7.81-2.95,30.34-11.64,44.73-30.47,0,0,10-6.77,11.47-6.62S87.21,77.63,72.44,86,37.67,103.71,40,97.57Z"/><path class="cls-1" d="M107,21.35c7.79,13.48-41,41.66-48.81,28.18A28.18,28.18,0,1,1,107,21.35Z"/><path class="cls-5" d="M151.7,8.26a7,7,0,0,0-13,4.75l-9.59,5.54,2.38,4.13,9.6-5.54A7,7,0,0,0,151.7,8.26Z"/><path class="cls-5" d="M136,25.73l-7.66-13.26h0C123.09,3.56,109,1.21,91.51,6.26a30.36,30.36,0,0,0-33.85,11.5c-13.55,1.15-28.77,9.78-37.86,17a3.22,3.22,0,0,0-1.23,2.62A3.33,3.33,0,0,0,20,40L36.28,51.6a77.24,77.24,0,0,0-7.62,3.9c-4.88,2.82-1.8,13.22,1.94,19.7,2.82,4.9,6,8.41,9.07,10.08L35.8,98.05a3.54,3.54,0,0,0,3.38,4.52,3.88,3.88,0,0,0,.67-.06A108.45,108.45,0,0,0,80.64,84.12l0,0A91.6,91.6,0,0,0,105,74.29C129.82,60,143.45,38.62,136,25.73ZM124.28,15c2.75,4.76,1.42,11.65-3.74,19.42C115,42.64,106,50.68,95,57,78.77,66.38,61.31,70.08,51,66.6l8.69-12.48a13.87,13.87,0,0,0,6.34,1.34c6.79,0,15.58-3.25,23.53-7.84,13.18-7.61,24.3-19,19.45-27.46A30.36,30.36,0,0,0,98.61,9.44C111.05,7,120.81,9,124.28,15ZM69.65,13.1A25.62,25.62,0,0,1,82.51,9.63a26.18,26.18,0,0,1,6.72.89,25.66,25.66,0,0,1,15.67,12c1.62,2.82-1,6.81-2.86,9.06a6.17,6.17,0,0,0-.19-5.34,24.07,24.07,0,0,0-44.92,12A25.81,25.81,0,0,1,69.65,13.1ZM24.37,37.27C32.68,31,44.38,24.81,54.7,23a31.25,31.25,0,0,0-1.89,5.65C46.19,35,41.56,41.66,39.33,47.91Zm30,9.92c-.35,0-.7.1-1,.13a59.75,59.75,0,0,0-9.26,1.54A44.09,44.09,0,0,1,52,36.36,30.18,30.18,0,0,0,54.37,47.19Zm-19,26.69c-.22-.36-.45-.68-.67-1.06-3.87-6.71-4.25-12.35-3.68-13.19C42,53.34,48,52.69,53.82,52.07l1.65-.21L46.8,64.31a15.41,15.41,0,0,0-2.08,4.3l-1.22,4-3.28,1.89A3.62,3.62,0,0,1,35.4,73.88ZM41,97.39,48.9,70.91a32,32,0,0,0,11,1.75c9.87,0,21.89-3.31,33.69-9.46C81.31,84.15,53.68,94.49,41,97.39ZM89.34,76.48A61,61,0,0,0,94.86,70l1.9,3.28C94.3,74.47,91.81,75.54,89.34,76.48Zm13.26-6.32c-.95.55-1.91,1.08-2.87,1.59L97,66.92a50.37,50.37,0,0,0,3.32-6.2l4.64,8C104.14,69.22,103.39,69.7,102.6,70.16ZM107.72,67l-5.21-9c1.69-1.11,3.34-2.26,4.91-3.45l5.19,9C111,64.65,109.42,65.82,107.72,67Zm7.52-5.6-5.16-8.94c1.6-1.3,3.15-2.63,4.6-4l5.12,8.87C118.38,58.67,116.85,60,115.24,61.35Zm7-6.53L117.14,46c1.51-1.54,2.89-3.12,4.18-4.71l5,8.67A62.73,62.73,0,0,1,122.22,54.82ZM128.45,47l-4.94-8.54c.33-.46.69-.93,1-1.39a46.24,46.24,0,0,0,2.56-4.41l4.67,8.08A35.74,35.74,0,0,1,128.45,47ZM133,36.22l-4.26-7.38a27.23,27.23,0,0,0,1.19-4.1l1.95,3.38A11.92,11.92,0,0,1,133,36.22Z"/><g class="cls-6"><ellipse cx="98.93" cy="106.98" rx="33.59" ry="8.95"/></g><path class="cls-5" d="M228.9,79.2a1.24,1.24,0,0,1-1.27,1.19h-8.57a1.25,1.25,0,0,1-1.28-1.19V46.15l-11.52,20.1a1.88,1.88,0,0,1-1.9,1.27h-6.6a1.94,1.94,0,0,1-1.9-1.27L184,46.15V79.2a1.25,1.25,0,0,1-1.28,1.19h-8.58a1.24,1.24,0,0,1-1.27-1.19V27.49a1.24,1.24,0,0,1,1.27-1.19h9.06a2.14,2.14,0,0,1,2.22,1.27l15.41,26.77,15.49-26.77a2,2,0,0,1,2.15-1.27h9.13a1.23,1.23,0,0,1,1.27,1.19Z"/><path class="cls-5" d="M284.08,79.2a1.22,1.22,0,0,1-1.19,1.19h-9.05a1.23,1.23,0,0,1-1.2-1.19V64.82H251V79.2a1.22,1.22,0,0,1-1.19,1.19h-9.06a1.23,1.23,0,0,1-1.19-1.19V48.14a22.82,22.82,0,0,1,7.95-17.71,23.61,23.61,0,0,1,28.67,0c5.48,4.45,7.94,11.2,7.94,17.71ZM254.3,39.08c-2.07,2.15-3.34,5.25-3.34,9.54v6h21.68v-6c0-4.29-1.27-7.39-3.25-9.54a10.87,10.87,0,0,0-7.63-2.86A10.59,10.59,0,0,0,254.3,39.08Z"/><path class="cls-5" d="M320.84,79.44A1.66,1.66,0,0,1,319,80.63h-9.54a1.7,1.7,0,0,1-1.9-1.19L287.88,28c-.4-1-.08-1.67.95-1.67h9.61a1.84,1.84,0,0,1,2,1.35l13.74,38.6h.16l14.22-38.6a1.78,1.78,0,0,1,2-1.35h9.54c.95,0,1.35.71.95,1.67Z"/><path class="cls-5" d="M380.16,60.06l11.76,18.26c.55,1,.63,2.07-.72,2.07h-9.93A2.13,2.13,0,0,1,379,79.2L368.32,61.64H358.07V79.2a1.17,1.17,0,0,1-1.18,1.19h-9a1.24,1.24,0,0,1-1.27-1.19V27.49a1.23,1.23,0,0,1,1.27-1.19H371.1c5.25,0,10,.95,13.66,3.65,4,2.94,6.28,8,6.28,13.9a16.79,16.79,0,0,1-6,13.27A18.57,18.57,0,0,1,380.16,60.06ZM358.07,36V52H369.2c2.94,0,5.32-.24,7-1.35A7.37,7.37,0,0,0,379.44,44c0-3.18-1.19-5.24-3-6.52a11.49,11.49,0,0,0-6.27-1.5Z"/><path class="cls-5" d="M432.8,27.49a2.07,2.07,0,0,1,2.07-1.19h10.41c1.27,0,1.5.95.79,2L426,57.91V79.2a1.22,1.22,0,0,1-1.19,1.19h-9a1.23,1.23,0,0,1-1.2-1.19V57.83L394.6,28.28c-.72-1-.48-2,.79-2H405.8a1.9,1.9,0,0,1,2,1.19l12.47,19.06Z"/><path class="cls-5" d="M467.65,58.15l-4.37,4.45V79.2a1.17,1.17,0,0,1-1.19,1.19h-9a1.24,1.24,0,0,1-1.27-1.19V27.49a1.23,1.23,0,0,1,1.27-1.19h9a1.16,1.16,0,0,1,1.19,1.19V48.06L482,27.49a3.19,3.19,0,0,1,2.47-1.19h11.51c1,0,1.43.95.56,1.82L475.68,49.73l21.45,28.59c.71.88.79,2.07-.64,2.07H485.85a2.52,2.52,0,0,1-2.31-1.19Z"/></svg>