<svg width="211" height="40" viewBox="0 0 211 40" fill="none" xmlns="http://www.w3.org/2000/svg">
<g clip-path="url(#clip0_31770_340625)">
<path d="M28.6313 19.4565L20.4521 13.6334C23.9479 10.7506 30.4414 6.91965 36.0154 6.63232" fill="#86D4C9"/>
<path d="M54.4627 27.4436C63.9061 21.9844 69.3652 13.7574 66.6548 9.05492C63.9444 4.36199 54.0988 4.97494 44.6555 10.4341C35.2121 15.8932 29.753 24.1202 32.4634 28.8227C35.1738 33.5156 45.0194 32.9027 54.4627 27.4436Z" fill="#77A4F2"/>
<path d="M18.4815 27.559C16.2212 28.8711 13.7885 32.5584 13.166 35.1156C15.6849 35.8435 20.1001 35.5945 22.3603 34.2824C24.2183 33.2097 24.8505 30.8345 23.7778 28.986C22.7051 27.128 20.3395 26.4959 18.4815 27.5686V27.559Z" fill="#FF8486"/>
<path d="M51.4295 22.1872C60.8729 16.7281 66.332 8.50108 63.6216 3.79857C60.9112 -0.894361 51.0656 -0.281404 41.6223 5.17772C32.1789 10.6368 26.7198 18.8638 29.4302 23.5664C32.1406 28.2593 41.9862 27.6463 51.4295 22.1872Z" fill="white"/>
<path d="M48.2275 20.8647C56.6556 15.9898 61.8466 9.19939 59.8257 5.68448C57.8049 2.16957 49.3289 3.28055 40.9008 8.14587C32.4726 13.0208 27.2817 19.8112 29.3025 23.3261C31.3234 26.841 39.7994 25.73 48.2275 20.8647Z" fill="#86D4C9"/>
<path d="M61.2373 13.9486L63.9477 18.6511C63.9477 18.6511 65.1832 17.6742 65.6238 16.8027C66.0547 15.9215 67.9606 12.4545 66.5528 9.94523C65.1449 7.42637 64.5607 6.6506 64.1488 8.08721C63.737 9.51424 61.2373 13.9582 61.2373 13.9582V13.9486Z" fill="white"/>
<path d="M40.2124 26.4114C37.2626 26.919 35.9505 26.8041 34.0733 26.3539C32.1962 25.9038 32.4164 26.6125 31.3725 27.915C30.3381 29.208 27.3691 39.1494 27.3691 39.1494C27.3691 39.1494 31.3438 39.5324 35.8356 36.9465C40.3274 34.3511 51.0349 26.9094 50.92 24.4576C50.8051 22.0058 49.9239 23.9213 47.0507 24.7258C44.1871 25.5398 40.2124 26.421 40.2124 26.421V26.4114Z" fill="#86D4C9"/>
<path d="M21.4708 13.8923C26.1446 11.383 31.4026 9.04616 34.4003 9.71658C34.4003 9.71658 35.971 6.9104 35.4634 6.66138C34.9463 6.41237 24.1142 10.8754 22.0263 12.4078C19.9385 13.9402 21.4708 13.8923 21.4708 13.8923Z" fill="white"/>
<path d="M33.4058 18.6595C30.4655 19.4641 27.9658 20.4122 26.1557 21.3508C24.3551 22.2894 23.6272 22.6438 23.7326 23.5057C23.8379 24.3581 25.9545 29.3958 26.9889 29.9705C28.0233 30.5451 29.6227 29.7119 30.1782 28.3423C30.7337 26.9823 30.7337 26.264 32.4959 24.2144C34.2582 22.1649 37.3804 18.4297 33.4058 18.6595Z" fill="#86D4C9"/>
<path d="M24.2881 24.4916C25.6672 23.6967 29.0002 21.7333 34.0666 20.4883L32.9556 22.6145L25.0351 27.1925L24.2977 24.4916H24.2881Z" fill="white"/>
<path d="M28.3675 37.9723C31.5184 36.7751 40.617 33.2698 46.4305 25.6557C46.4305 25.6557 50.453 22.9166 51.0563 22.9836C51.6597 23.0411 47.4169 29.9177 41.4502 33.3177C35.493 36.7176 27.4193 40.4624 28.3675 37.9819V37.9723Z" fill="white"/>
<path d="M55.383 7.16136C58.5244 12.6109 38.814 24.008 35.6726 18.5585C32.5312 13.1089 34.3988 6.14616 39.8388 2.99519C45.2788 -0.146202 52.2416 1.71182 55.383 7.17094V7.16136Z" fill="#86D4C9"/>
<path d="M73.4499 1.86408C72.6646 0.504087 70.9311 0.0347936 69.5711 0.820141C68.508 1.4331 68.0004 2.63027 68.2111 3.77956L64.3418 6.02068L65.3091 7.69672L69.1784 5.45561C70.0691 6.20265 71.3525 6.36546 72.4156 5.75251C73.7755 4.96716 74.2448 3.22407 73.4499 1.87366V1.86408Z" fill="#38237C"/>
<path d="M67.1173 8.93088L64.0238 3.56753C61.8977 -0.033579 56.2182 -0.981746 49.1501 1.05824C45.9896 0.0909246 42.4459 0.368673 39.362 2.15007C37.7722 3.0695 36.4792 4.29541 35.4832 5.70329C30.0145 6.17258 23.8753 9.65876 20.1976 12.5799C19.872 12.8385 19.69 13.2311 19.6996 13.643C19.7092 14.0644 19.9199 14.457 20.2646 14.6965L26.8539 19.3894C25.9249 19.8012 24.9097 20.3088 23.7796 20.9697C21.8066 22.1094 23.0517 26.3139 24.5649 28.9381C25.7046 30.9206 26.9976 32.3381 28.2235 33.0085L26.6624 38.1707C26.5187 38.6496 26.6336 39.1572 26.9688 39.5307C27.237 39.8372 27.6201 40 28.0223 40C28.1085 40 28.2043 40 28.2905 39.9713C31.6713 39.3296 38.8065 37.031 44.7637 32.5392V32.5583C47.9817 31.8017 51.3817 30.4226 54.5901 28.5646C64.6176 22.7702 70.1151 14.141 67.1173 8.93088V8.93088ZM62.3861 4.58273C63.4971 6.50779 62.9607 9.29482 60.8729 12.4362C58.6509 15.7691 54.9923 19.0255 50.5676 21.5826C44.0166 25.3753 36.9581 26.8694 32.8111 25.4615L36.3164 20.4142C37.0347 20.7781 37.8967 20.9505 38.8736 20.9505C41.6127 20.9505 45.1659 19.6384 48.3743 17.7804C53.6898 14.7061 58.1816 10.0802 56.2278 6.68019C55.1647 4.84132 53.709 3.38555 52.0138 2.34162C57.0323 1.35514 60.9782 2.15007 62.3861 4.58273V4.58273ZM40.3293 3.82612C41.9383 2.89711 43.7197 2.42781 45.5203 2.42781C46.4206 2.42781 47.34 2.55232 48.2307 2.78218C50.9124 3.50049 53.1631 5.234 54.5614 7.6475C55.2222 8.78722 54.1495 10.3962 53.4121 11.3061C53.6898 10.5303 53.709 9.78327 53.3355 9.15116C50.6538 4.49653 44.7062 2.89711 40.0516 5.58836C36.9485 7.38892 35.2054 10.6357 35.1958 13.9877C34.7744 10.0035 36.6516 5.9523 40.3389 3.82612H40.3293ZM22.046 13.5951C25.4077 11.0666 30.1198 8.55736 34.286 7.80074C33.9603 8.5382 33.7018 9.30439 33.5198 10.0897C30.8477 12.6661 28.9801 15.3669 28.0798 17.8953L22.046 13.5951V13.5951ZM34.1615 17.608C34.0178 17.6272 33.8741 17.6463 33.7401 17.6559C32.6195 17.7804 31.4223 17.9049 30.0049 18.2784C30.6274 16.6694 31.7288 14.9359 33.2133 13.2216C33.2516 14.6965 33.5772 16.181 34.1615 17.608V17.608ZM26.5091 28.3922C26.4229 28.2485 26.3271 28.1144 26.241 27.9612C24.6798 25.2508 24.5266 22.9618 24.7565 22.6266C29.1621 20.079 31.5947 19.8204 33.9508 19.5714C34.171 19.5522 34.3913 19.5139 34.6116 19.4852L31.1159 24.5229C30.7423 25.0497 30.4646 25.6435 30.273 26.2564L29.775 27.8846C29.3536 28.124 28.8269 28.4305 28.4533 28.6508C27.8691 28.9956 27.1412 29.0722 26.5091 28.3922V28.3922ZM28.7598 37.9025L31.9587 27.195C33.242 27.6643 34.7457 27.9037 36.4026 27.9037C40.3868 27.9037 45.233 26.5725 50.0025 24.0728C45.0414 32.5392 33.8837 36.7245 28.7598 37.9025V37.9025ZM48.2786 29.4457C49.0735 28.622 49.8301 27.7505 50.5101 26.8215L51.2763 28.1527C50.2803 28.6412 49.2746 29.0722 48.2786 29.4457V29.4457ZM53.6323 26.8885C53.2493 27.1088 52.8662 27.3195 52.4735 27.5302L51.3529 25.5764C51.851 24.7815 52.3011 23.9387 52.6938 23.0671L54.5614 26.3139C54.2549 26.5054 53.9484 26.697 53.6323 26.8789V26.8885ZM55.7011 25.5956L53.6036 21.9466C54.2836 21.4964 54.954 21.0367 55.5861 20.5483L57.674 24.1781C57.0419 24.657 56.3906 25.1359 55.7011 25.5956V25.5956ZM58.7371 23.3353L56.6492 19.715C57.2909 19.1883 57.923 18.652 58.5072 18.106L60.576 21.688C60.0013 22.2435 59.3884 22.7894 58.7371 23.3257V23.3353ZM61.5529 20.6919L59.5033 17.1291C60.1163 16.5066 60.6717 15.8649 61.1889 15.2232L63.2098 18.7286C62.7117 19.3798 62.1658 20.0407 61.5529 20.6919ZM64.0621 17.5122L62.07 14.0644C62.2041 13.8824 62.3478 13.6908 62.4723 13.5089C62.8746 12.9055 63.2002 12.3117 63.5067 11.7275L65.3934 14.9934C65.0678 15.8075 64.6272 16.6598 64.0621 17.5218V17.5122ZM65.901 13.1641L64.1771 10.1855C64.3878 9.62045 64.541 9.06496 64.656 8.52863L65.4413 9.88862C65.9776 10.8176 66.1021 11.9382 65.901 13.1641V13.1641Z" fill="#38237C"/>
<path d="M104.619 30.5465C104.619 30.8051 104.398 31.0254 104.111 31.0254H100.644C100.357 31.0254 100.127 30.8051 100.127 30.5465V17.186L95.4816 25.3077C95.2901 25.662 95.1273 25.8249 94.7155 25.8249H92.0529C91.6698 25.8249 91.4783 25.662 91.2867 25.3077L86.5076 17.186V30.5465C86.5076 30.8051 86.2873 31.0254 86 31.0254H82.533C82.2457 31.0254 82.0254 30.8051 82.0254 30.5465V9.63903C82.0254 9.38044 82.2457 9.16016 82.533 9.16016H86.1916C86.5747 9.16016 86.8333 9.2272 87.0918 9.67733L93.3172 20.4998L99.5712 9.67733C99.7915 9.2272 100.05 9.16016 100.433 9.16016H104.12C104.408 9.16016 104.628 9.38044 104.628 9.63903V30.5465H104.619Z" fill="white"/>
<path d="M128.669 30.5475C128.669 30.8061 128.449 31.0264 128.19 31.0264H124.532C124.273 31.0264 124.053 30.8061 124.053 30.5475V24.734H115.299V30.5475C115.299 30.8061 115.079 31.0264 114.82 31.0264H111.161C110.903 31.0264 110.683 30.8061 110.683 30.5475V17.9915C110.683 15.3577 111.707 12.6282 113.891 10.8276C115.299 9.64003 117.224 8.86426 119.666 8.86426C122.108 8.86426 124.062 9.64003 125.47 10.8276C127.683 12.6282 128.679 15.3577 128.679 17.9915V30.5475H128.669ZM116.64 14.333C115.807 15.1949 115.289 16.4496 115.289 18.1831V20.6253H124.043V18.1831C124.043 16.4496 123.536 15.1949 122.721 14.333C121.917 13.5572 120.835 13.1741 119.647 13.1741C118.459 13.1741 117.435 13.5572 116.63 14.333H116.64Z" fill="white"/>
<path d="M145.28 30.6423C145.145 30.9967 144.925 31.1212 144.542 31.1212H140.692C140.271 31.1212 140.05 30.9967 139.926 30.6423L131.977 9.84015C131.814 9.45706 131.948 9.16016 132.36 9.16016H136.238C136.66 9.16016 136.918 9.32297 137.043 9.70607L142.588 25.3077H142.655L148.392 9.70607C148.526 9.32297 148.747 9.16016 149.197 9.16016H153.047C153.43 9.16016 153.593 9.44748 153.43 9.84015L145.289 30.6423H145.28Z" fill="white"/>
<path d="M157.688 31.1823C157.476 31.1823 157.305 31.0108 157.305 30.7992V9.53739C157.305 9.32581 157.476 9.1543 157.688 9.1543H172.281C172.493 9.1543 172.664 9.32581 172.664 9.53739V13.0951C172.664 13.3066 172.493 13.4782 172.281 13.4782H162.629V17.9956H171.496C171.707 17.9956 171.879 18.1671 171.879 18.3787V21.9472C171.879 22.1587 171.707 22.3303 171.496 22.3303H162.629V26.8585H172.281C172.493 26.8585 172.664 27.03 172.664 27.2416V30.7992C172.664 31.0108 172.493 31.1823 172.281 31.1823H157.688Z" fill="white"/>
<path d="M197.124 9.1543C197.335 9.1543 197.507 9.32582 197.507 9.53739V30.7992C197.507 31.0108 197.335 31.1823 197.124 31.1823H193.102C192.977 31.1823 192.86 31.1216 192.788 31.0195L183.969 18.4689H183.827V30.7992C183.827 31.0108 183.655 31.1823 183.443 31.1823H178.783C178.572 31.1823 178.4 31.0108 178.4 30.7992V9.53739C178.4 9.32581 178.572 9.1543 178.783 9.1543H182.87C182.995 9.1543 183.113 9.21563 183.184 9.31852L191.905 21.8462H192.092V9.53739C192.092 9.32581 192.263 9.1543 192.475 9.1543H197.124Z" fill="white"/>
</g>
<defs>
<clipPath id="clip0_31770_340625">
<rect width="210" height="40" fill="white" transform="translate(0.166016)"/>
</clipPath>
</defs>
</svg>
