<svg width="173" height="44" viewBox="0 0 173 44" fill="none" xmlns="http://www.w3.org/2000/svg">
<path d="M52.5464 5.35933C51.97 4.28062 50.7478 3.803 49.6543 4.22914C48.5608 4.65527 47.9153 5.86075 48.1268 7.08167L44.8519 9.09168L45.6646 10.5927L48.9291 8.58272C49.8165 9.38234 51.1145 9.38549 52.0053 8.59019C52.8961 7.79489 53.1215 6.43158 52.5395 5.35933H52.5464Z" fill="#7996C9"/>
<path d="M13.5736 21.1852L6.40741 15.9954C9.46378 13.4352 15.1358 10.0229 20.0231 9.77783" fill="#88D1C3"/>
<path d="M35.7154 28.2361C43.8782 23.4416 48.598 16.2112 46.2572 12.0866C43.9165 7.96204 35.4017 8.50515 27.2388 13.2997C19.076 18.0942 14.3563 25.3246 16.697 29.4492C19.0378 33.5737 27.5526 33.0306 35.7154 28.2361Z" fill="#7996C9"/>
<path d="M4.6064 28.1915C2.65045 29.4525 0.552768 33.0065 0 35.4614C2.1721 36.169 5.98124 35.92 7.93718 34.6707C8.97272 34.0041 9.61081 32.7718 9.61111 31.438C9.61141 30.1041 8.97387 28.8715 7.93863 28.2043C6.9034 27.5371 5.62776 27.5367 4.59223 28.2033L4.6064 28.1915Z" fill="#FF8080"/>
<path d="M33.0944 23.6179C41.2573 18.8234 45.977 11.593 43.6363 7.46845C41.2955 3.34387 32.7807 3.88698 24.6179 8.68152C16.455 13.4761 11.7353 20.7064 14.076 24.831C16.4168 28.9556 24.9316 28.4125 33.0944 23.6179Z" fill="white"/>
<path d="M30.3221 22.4586C37.6096 18.1782 42.0985 12.2082 40.3483 9.12425C38.5981 6.04031 31.2717 7.01024 23.9841 11.2906C16.6966 15.5711 12.2077 21.541 13.9579 24.625C15.7081 27.7089 23.0345 26.739 30.3221 22.4586Z" fill="#88D1C3"/>
<path d="M41.6481 16.2947L43.886 20.3706C43.886 20.3706 44.9017 19.5269 45.2673 18.7651C45.633 18.0033 47.1904 14.9989 46.0325 12.8204C44.8746 10.6419 44.3871 9.97263 44.0519 11.2079C43.7167 12.4431 41.6481 16.2947 41.6481 16.2947Z" fill="white"/>
<path d="M22.9461 28.0154C20.4346 28.4584 19.3253 28.3727 17.7137 27.9654C16.1021 27.5581 16.301 28.194 15.4185 29.323C14.5359 30.452 12.0139 39.0907 12.0139 39.0907C12.0139 39.0907 15.3975 39.448 19.2137 37.1722C23.0298 34.8964 32.1202 28.437 32.0365 26.3077C31.9528 24.1783 31.1888 25.8361 28.7506 26.5435C26.3123 27.2509 22.9461 28.0154 22.9461 28.0154Z" fill="#88D1C3"/>
<path d="M7.68701 17.1111C11.781 14.8537 16.385 12.748 19.0065 13.3512C19.0065 13.3512 20.382 10.8237 19.9331 10.6016C19.4842 10.3796 10.0069 14.3948 8.17182 15.7752C6.33671 17.1555 7.68701 17.1111 7.68701 17.1111Z" fill="white"/>
<path d="M17.4905 19.565C15.2495 20.1561 13.0736 20.982 10.9968 22.0298C9.37522 22.8968 8.72658 23.2224 8.81872 24.0099C8.91086 24.7974 10.7978 29.4542 11.7339 29.9805C12.67 30.5068 14.0999 29.7382 14.6011 28.4661C15.1024 27.194 15.0913 26.573 16.6724 24.68C18.2534 22.787 21.0617 19.353 17.4905 19.565Z" fill="#88D1C3"/>
<path d="M9.61108 25.4055C12.1027 23.8621 14.8023 22.7143 17.6203 22L16.7062 23.8093L10.2161 27.7037L9.61108 25.4055Z" fill="white"/>
<path d="M13.6821 37.5911C16.3402 36.5433 24.0033 33.4648 28.8908 26.7891C28.8908 26.7891 32.2817 24.3947 32.7898 24.4451C33.2979 24.4955 29.7308 30.523 24.7084 33.5044C19.6861 36.4857 12.8698 39.7659 13.6821 37.5911Z" fill="white"/>
<path d="M19.7245 19.9205C17.0416 15.1279 18.9196 9.54795 23.5669 6.78113C25.5076 5.62572 27.2765 5.4576 29.3372 5.74825C32.2112 6.15362 34.9913 7.10966 36.5539 9.9009C39.2368 14.694 22.4074 24.7099 19.7245 19.9205Z" fill="#88D1C3"/>
<path d="M46.5462 12.7038L43.8752 8.02709C42.0403 4.86852 37.1341 4.02312 31.0271 5.81465C26.6422 4.42372 21.8747 6.06813 19.231 9.88337C14.509 10.2899 9.20257 13.3441 6.03215 15.9055C5.75356 16.1289 5.59583 16.4733 5.60707 16.8337C5.61895 17.2006 5.79833 17.541 6.09237 17.7546L11.7814 21.8629C10.8708 22.2744 9.98275 22.7356 9.12109 23.2443C7.42076 24.2444 8.4941 27.921 9.79769 30.2198C10.7825 31.9538 11.8983 33.1949 12.961 33.7885L11.6114 38.3248C11.5035 38.7023 11.5764 39.1092 11.8083 39.4239C12.0401 39.7385 12.404 39.9243 12.791 39.9257C12.8696 39.9257 12.948 39.9174 13.0248 39.9005C18.1605 38.7542 23.0045 36.5328 27.2474 33.3783C30.2248 32.6321 33.0808 31.4544 35.7278 29.8816C44.3924 24.82 49.1427 17.2689 46.5462 12.7038ZM42.4583 8.89407C43.4183 10.5813 42.9542 13.0204 41.1547 15.7688C39.2347 18.6935 36.0749 21.5247 32.2527 23.7803C26.5849 27.0972 20.5027 28.4067 16.9178 27.1763L19.9466 22.7587C20.6422 23.087 21.4045 23.2435 22.1712 23.2155C24.5375 23.2155 27.6051 22.0679 30.3753 20.4419C34.9804 17.7474 38.8486 13.6967 37.1554 10.7288C36.2704 9.17495 35.016 7.87129 33.5067 6.93706C37.8461 6.06647 41.2503 6.76798 42.4583 8.89407ZM23.4145 8.23214C27.718 5.71291 33.2175 7.2102 35.703 11.5778C36.2698 12.5743 35.3488 13.9845 34.704 14.7831C34.9686 14.1765 34.9438 13.48 34.6367 12.8944C32.7373 9.56375 28.8754 7.93934 25.2132 8.93076C21.5511 9.92218 18.9979 13.2833 18.983 17.1322C18.5971 13.5366 20.3342 10.0478 23.4145 8.23214ZM7.62622 16.7905C10.5239 14.5816 14.6011 12.38 18.2002 11.7037C17.9178 12.3486 17.6972 13.0196 17.5413 13.7075C15.2317 15.9667 13.6199 18.3302 12.8406 20.5426L7.62622 16.7905ZM18.0833 20.3052L17.729 20.352C16.641 20.447 15.562 20.6287 14.5019 20.8952C15.1739 19.2715 16.1104 17.7745 17.2721 16.4667C17.3102 17.7857 17.5851 19.0865 18.0833 20.3052ZM11.4732 29.7521C11.3953 29.6262 11.3138 29.5111 11.2359 29.3924C9.88979 27.018 9.75518 25.0179 9.95355 24.7157C13.7545 22.4853 15.8587 22.2586 17.8955 22.0392L18.4694 21.9636L15.4407 26.3633C15.1282 26.8328 14.8892 27.3485 14.7322 27.8922L14.3071 29.3312L13.1629 30.0003C12.6222 30.378 11.8864 30.2699 11.4732 29.7521ZM13.418 38.0766L16.1775 28.7017C17.4119 29.1356 18.7112 29.3486 20.0174 29.3312C23.457 29.3312 27.6477 28.162 31.7603 25.982C27.4847 33.3891 17.8459 37.0513 13.418 38.0766ZM30.2761 30.6731C30.972 29.9548 31.616 29.1866 32.2031 28.3743L32.862 29.5363C32.0048 29.9608 31.1404 30.3385 30.2761 30.6731ZM34.8989 28.4354C34.5683 28.6297 34.2353 28.8168 33.8999 28.9966L32.9293 27.2879C33.3661 26.5851 33.7532 25.8518 34.0877 25.0934L35.703 27.9354C35.4373 28.1045 35.1752 28.2736 34.8989 28.4354ZM36.6701 27.2986L34.8564 24.1077C35.4444 23.712 36.0183 23.3055 36.5673 22.8846L38.3739 26.0611C37.8379 26.4856 37.2782 26.8981 36.6949 27.2986H36.6701ZM39.295 25.3165L37.5061 22.1363C38.0658 21.6758 38.6042 21.2082 39.1107 20.7261L40.8819 23.8631C40.4002 24.3667 39.883 24.8452 39.3091 25.3165H39.295ZM41.7286 23.0033L39.9574 19.8843C40.4852 19.3375 40.9669 18.7799 41.4168 18.2151L43.1632 21.2873C42.7429 21.8533 42.2694 22.4253 41.7427 23.0033H41.7286ZM43.8965 20.2225L42.1784 17.197C42.2918 17.0315 42.4158 16.8696 42.5327 16.7041C42.8586 16.2022 43.1566 15.6822 43.4254 15.1464L45.0513 18.0244C44.742 18.7928 44.36 19.529 43.9107 20.2225H43.8965ZM45.487 16.4199L43.9992 13.8082C44.1745 13.3404 44.313 12.8592 44.4137 12.3692L45.0938 13.5636C45.5516 14.4389 45.6956 15.4487 45.5012 16.4199H45.487Z" fill="#4F457C"/>
<g opacity="0.15">
<path opacity="0.15" d="M34.0393 44C40.4532 44 45.6528 42.5407 45.6528 40.7407C45.6528 38.9407 40.4532 37.4814 34.0393 37.4814C27.6254 37.4814 22.4259 38.9407 22.4259 40.7407C22.4259 42.5407 27.6254 44 34.0393 44Z" fill="black"/>
</g>
<path d="M79.2917 31.366C79.2822 31.5989 79.0903 31.7817 78.8593 31.7778H75.9159C75.6829 31.7837 75.4878 31.6009 75.4765 31.366V19.9185L71.5358 26.8792C71.4405 27.1582 71.172 27.3383 70.8802 27.3191H68.6169C68.3277 27.332 68.0636 27.1538 67.9648 26.8792L63.8881 19.9185V31.366C63.8786 31.6003 63.6845 31.7837 63.4522 31.7778H60.5054C60.273 31.7837 60.0789 31.6003 60.0695 31.366V13.454C60.0789 13.2196 60.273 13.0363 60.5054 13.0422H63.6161C63.9378 13.004 64.2465 13.1826 64.3763 13.4821L69.6666 22.7548L74.9848 13.4821C75.1014 13.1845 75.4023 13.0038 75.7172 13.0422H78.8558C79.0881 13.0363 79.2822 13.2196 79.2917 13.454V31.366Z" fill="#4F457C"/>
<path d="M97.6956 30.5564C97.6901 30.7786 97.5115 30.9574 97.2896 30.9629H94.1978C93.9758 30.9574 93.7972 30.7786 93.7918 30.5564V25.6403H86.4039V30.5564C86.3966 30.7792 86.217 30.9575 85.9944 30.9629H82.9026C82.6814 30.9557 82.5038 30.7779 82.4966 30.5564V19.9355C82.4554 17.6131 83.4502 15.3931 85.2102 13.8798C88.1012 11.6696 92.1118 11.6696 95.0028 13.8798C96.8732 15.3981 97.713 17.7015 97.713 19.9355L97.6956 30.5564ZM87.5248 16.8399C86.8307 17.573 86.3866 18.6326 86.3866 20.0988V22.1625H93.7918V20.0988C93.7918 18.6326 93.3545 17.573 92.6779 16.8399C91.9714 16.1856 91.0373 15.834 90.0753 15.8601C89.1296 15.8387 88.2135 16.1907 87.5248 16.8399Z" fill="#4F457C"/>
<path d="M110.711 31.3602C110.632 31.6346 110.364 31.8091 110.081 31.7701H106.803C106.513 31.8177 106.233 31.6421 106.149 31.3602L99.3718 13.62C99.2355 13.2907 99.3438 13.0455 99.6968 13.0455H103.003C103.32 13.0011 103.621 13.2012 103.702 13.5114L108.428 26.8236H108.484L113.377 13.5114C113.452 13.1961 113.758 12.9925 114.077 13.0455H117.355C117.684 13.0455 117.82 13.2907 117.684 13.62L110.711 31.3602Z" fill="#4F457C"/>
<path d="M131.9 24.7282L136.025 31.0627C136.221 31.3935 136.246 31.7666 135.775 31.7666H132.289C131.956 31.8243 131.625 31.6559 131.479 31.3548L127.747 25.2807H124.15V31.3619C124.152 31.4717 124.108 31.5775 124.03 31.6551C123.951 31.7328 123.844 31.7755 123.732 31.7736H120.585C120.347 31.7796 120.149 31.5962 120.139 31.3619V13.4491C120.149 13.2148 120.347 13.0314 120.585 13.0372H128.724C130.563 13.0372 132.232 13.3682 133.515 14.3043C134.909 15.3213 135.718 17.0809 135.718 19.1186C135.759 20.8882 134.98 22.5795 133.601 23.7111C133.09 24.1348 132.517 24.4779 131.9 24.7282ZM124.15 16.3947V21.9234H128.053C129.084 21.9234 129.921 21.8424 130.506 21.4553C131.271 20.9486 131.706 20.0788 131.647 19.1714C131.647 18.0734 131.23 17.3554 130.577 16.9155C129.909 16.539 129.146 16.3584 128.378 16.3947H124.15Z" fill="#4F457C"/>
<path d="M150.571 13.4531C150.696 13.1801 150.984 13.0149 151.288 13.0413H154.96C155.408 13.0413 155.491 13.3722 155.24 13.7276L148.163 23.9897V31.3802C148.148 31.6016 147.963 31.7747 147.737 31.7779H144.548C144.318 31.7723 144.134 31.5912 144.128 31.3661V23.9757L137.098 13.7276C136.847 13.3757 136.93 13.0413 137.378 13.0413H141.047C141.348 13.0078 141.634 13.1765 141.746 13.4531L146.146 20.0552L150.571 13.4531Z" fill="#4F457C"/>
<path d="M162.514 24.0721L160.985 25.6138V31.3655C160.987 31.4753 160.944 31.5812 160.865 31.6589C160.787 31.7365 160.68 31.7793 160.569 31.7775H157.426C157.189 31.7833 156.991 31.5999 156.981 31.3655V13.4487C156.991 13.2143 157.189 13.0309 157.426 13.0368H160.569C160.68 13.035 160.787 13.0777 160.865 13.1554C160.944 13.2331 160.987 13.3389 160.985 13.4487V20.5767L167.516 13.4487C167.726 13.1903 168.042 13.0391 168.376 13.0368H172.394C172.749 13.0368 172.895 13.3678 172.589 13.6705L165.322 21.154L172.824 31.0593C173.076 31.3655 173.101 31.7633 172.604 31.7633H168.878C168.552 31.7842 168.242 31.6258 168.071 31.3514L162.514 24.0721Z" fill="#4F457C"/>
</svg>
