<svg width="276" height="60" viewBox="0 0 276 60" fill="none" xmlns="http://www.w3.org/2000/svg">
<path d="M20.4308 25.7274L9.61523 18.0251C14.2407 14.2139 22.8261 9.15498 30.1939 8.76758" fill="#8DD8C7"/>
<path d="M54.586 36.2858C67.065 29.0713 74.28 18.1909 70.702 11.9838C67.123 5.77685 54.105 6.59344 41.6252 13.808C29.1457 21.0225 21.9304 31.9028 25.5093 38.1099C29.0883 44.3171 42.1062 43.5003 54.586 36.2858Z" fill="#77A4F2"/>
<path d="M7.0264 36.4375C4.0338 38.1694 0.825 43.0516 0 46.424C3.3283 47.393 9.16 47.051 12.1526 45.325C14.6048 43.9062 15.4411 40.7729 14.0301 38.3175C12.6135 35.8621 9.4843 35.0247 7.0321 36.4375H7.0264Z" fill="#FF8486"/>
<path d="M50.579 29.3274C63.059 22.1129 70.274 11.2325 66.695 5.02539C63.116 -1.18171 50.098 -0.365006 37.6188 6.84959C25.1393 14.0641 17.924 24.9444 21.503 31.1515C25.0819 37.3586 38.0999 36.5419 50.579 29.3274Z" fill="#EBF0FF"/>
<path d="M46.3449 27.5832C57.486 21.1426 64.348 12.1598 61.672 7.5195C58.997 2.8792 47.7965 4.3385 36.6558 10.779C25.5152 17.2196 18.6529 26.2024 21.3284 30.8427C24.004 35.483 35.2043 34.0237 46.3449 27.5832Z" fill="#8DD8C7"/>
<path d="M63.54 18.4409L67.124 24.662C67.124 24.662 68.762 23.3745 69.337 22.2123C69.912 21.0501 72.421 16.4698 70.56 13.1428C68.7 9.81576 67.932 8.79036 67.386 10.6817C66.845 12.5731 63.54 18.4409 63.54 18.4409Z" fill="#EBF0FF"/>
<path d="M35.7523 34.9163C31.8494 35.5829 30.1198 35.4349 27.6392 34.8367C25.1586 34.2442 25.4431 35.1842 24.0719 36.899C22.7008 38.608 18.7808 51.745 18.7808 51.745C18.7808 51.745 24.0378 52.258 29.9719 48.828C35.906 45.399 50.061 35.5545 49.9076 32.3186C49.754 29.0828 48.5877 31.6064 44.7985 32.6775C41.0094 33.7485 35.758 34.9163 35.758 34.9163H35.7523Z" fill="#8DD8C7"/>
<path d="M10.9807 18.367C17.1594 15.0514 24.1119 11.9636 28.0717 12.8467C28.0717 12.8467 30.1484 9.138 29.4713 8.8132C28.7886 8.4885 14.474 14.3791 11.7146 16.4072C8.95528 18.4353 10.9864 18.367 10.9864 18.367H10.9807Z" fill="#EBF0FF"/>
<path d="M26.7461 24.6734C22.8602 25.733 19.5547 26.9863 17.1651 28.2282C14.7812 29.4702 13.8254 29.943 13.9619 31.071C14.0985 32.199 16.8977 38.8587 18.2631 39.6221C19.6286 40.3855 21.7394 39.2746 22.479 37.4743C23.2186 35.6741 23.2186 34.7227 25.5456 32.0167C27.8726 29.3107 32.0031 24.3714 26.7461 24.6734Z" fill="#8DD8C7"/>
<path d="M14.7014 32.387C16.522 31.3331 20.9257 28.741 27.6221 27.0889L26.1486 29.9031L15.68 35.959L14.7071 32.387H14.7014Z" fill="#EBF0FF"/>
<path d="M20.0951 50.1961C24.2597 48.6181 36.2872 43.9746 43.9679 33.9082C43.9679 33.9082 49.2875 30.2906 50.084 30.3704C50.881 30.4501 45.2708 39.5367 37.3909 44.0321C29.5111 48.5261 18.8377 53.4711 20.0951 50.1961Z" fill="#EBF0FF"/>
<path d="M55.813 9.46266C59.967 16.6636 33.9147 31.7263 29.7614 24.5254C25.6081 17.3245 28.0716 8.11246 35.2687 3.95376C42.4602 -0.205042 51.66 2.26176 55.813 9.46836V9.46266Z" fill="#8DD8C7"/>
<path d="M79.686 2.46692C78.651 0.666623 76.352 0.0514229 74.56 1.08822C73.155 1.90292 72.483 3.48662 72.756 5.00202L67.636 7.96442L68.91 10.1748L74.031 7.21242C75.203 8.20372 76.91 8.41452 78.315 7.59982C80.113 6.56302 80.727 4.26142 79.686 2.46692Z" fill="#27007A"/>
<path d="M71.317 11.804L67.226 4.71705C64.421 -0.0455532 56.911 -1.29885 47.5693 1.40145C43.3876 0.119649 38.7109 0.489948 34.6316 2.84285C32.5322 4.05625 30.8196 5.67985 29.5054 7.54275C22.2741 8.15805 14.1553 12.7668 9.29653 16.635C8.86983 16.9769 8.63093 17.4896 8.64223 18.0365C8.65933 18.5891 8.93813 19.1075 9.38763 19.4265L18.0924 25.6248C16.8635 26.166 15.5208 26.8439 14.0244 27.7098C11.4187 29.2138 13.0629 34.7741 15.0599 38.2378C16.5676 40.8526 18.2801 42.7269 19.9016 43.6213L17.8364 50.446C17.6486 51.079 17.8022 51.751 18.246 52.241C18.6044 52.645 19.1108 52.862 19.6399 52.862C19.7594 52.862 19.8789 52.8501 19.9983 52.8281C24.4645 51.9791 33.8976 48.942 41.7718 43.0004V43.0233C46.0275 42.0205 50.516 40.1976 54.761 37.7479C68.017 30.0855 75.288 18.6859 71.317 11.7983V11.804ZM65.059 6.05015C66.527 8.59675 65.815 12.2769 63.062 16.4299C60.126 20.8393 55.29 25.1348 49.4355 28.5188C40.7761 33.5264 31.4512 35.5033 25.9609 33.6461L30.5977 26.9749C31.5479 27.4592 32.6915 27.687 33.983 27.687C37.6014 27.687 42.2952 25.9552 46.5395 23.4998C53.572 19.4322 59.506 13.3194 56.917 8.82455C55.517 6.39765 53.589 4.47215 51.353 3.09345C57.992 1.78315 63.204 2.84285 65.059 6.05015ZM35.906 5.05325C38.0281 3.82835 40.3836 3.20175 42.7674 3.20175C43.9622 3.20175 45.1684 3.36125 46.3518 3.67455C49.902 4.62595 52.872 6.91045 54.715 10.1006C55.586 11.6103 54.175 13.7353 53.19 14.943C53.56 13.9119 53.577 12.932 53.088 12.0889C49.5379 5.93055 41.6751 3.82265 35.5305 7.37755C31.4227 9.75315 29.1299 14.0544 29.1128 18.4866C28.5496 13.2227 31.0415 7.86745 35.906 5.05895V5.05325ZM11.7373 17.9681C16.175 14.624 22.4163 11.3084 27.9237 10.3114C27.4913 11.2856 27.15 12.2997 26.911 13.3365C23.3779 16.7433 20.9086 20.3153 19.7196 23.6537L11.7373 17.9681ZM27.7473 23.2719C27.5596 23.2947 27.3718 23.3232 27.1841 23.3403C25.6992 23.4998 24.1232 23.6707 22.2457 24.1606C23.0706 22.03 24.5271 19.7399 26.49 17.4783C26.5469 19.4323 26.9679 21.3919 27.7473 23.2719ZM17.6258 37.5314C17.5064 37.3377 17.3869 37.1668 17.2674 36.9617C15.2021 33.3783 14.9973 30.3589 15.3046 29.9145C21.1248 26.5477 24.3451 26.2058 27.4629 25.8754C27.7587 25.8469 28.0489 25.8014 28.339 25.7672L23.7135 32.4213C23.2242 33.122 22.8487 33.8968 22.6041 34.7171L21.9498 36.8705C21.3979 37.1895 20.6981 37.594 20.2032 37.8788C19.4294 38.3289 18.4679 38.4315 17.6315 37.5314H17.6258ZM20.6014 50.099L24.8287 35.942C26.5298 36.563 28.5154 36.8819 30.7059 36.8819C35.9686 36.8819 42.3806 35.1158 48.6845 31.823C42.1245 43.0175 27.3832 48.549 20.6014 50.099ZM46.4087 38.9215C47.4612 37.8334 48.4569 36.6826 49.3558 35.4521L50.369 37.2066C49.0543 37.8504 47.7286 38.4201 46.4087 38.9215ZM53.486 35.5431C52.98 35.8336 52.468 36.1185 51.956 36.3919L50.471 33.8113C51.131 32.7574 51.728 31.6521 52.246 30.4956L54.721 34.7854C54.311 35.0361 53.913 35.2924 53.492 35.5374L53.486 35.5431ZM56.217 33.8284L53.441 29.0087C54.345 28.4106 55.222 27.8011 56.064 27.163L58.829 31.9597C57.998 32.5979 57.128 33.2245 56.223 33.8284H56.217ZM60.234 30.8375L57.475 26.0577C58.328 25.3627 59.159 24.6563 59.932 23.9271L62.663 28.6669C61.907 29.4018 61.087 30.1254 60.234 30.8375ZM63.961 27.3452L61.247 22.6397C62.055 21.8136 62.789 20.9704 63.477 20.1215L66.151 24.7531C65.497 25.6191 64.768 26.485 63.961 27.3452ZM67.283 23.1466L64.649 18.5834C64.825 18.3384 65.013 18.0877 65.178 17.8428C65.707 17.0452 66.145 16.2647 66.544 15.4899L69.036 19.8082C68.609 20.8906 68.017 22.0129 67.278 23.1523L67.283 23.1466ZM69.718 17.4098L67.443 13.4675C67.721 12.7212 67.926 11.992 68.074 11.2742L69.115 13.0744C69.821 14.305 69.986 15.7862 69.718 17.4041V17.4098Z" fill="#38237C"/>
<g opacity="0.15">
<path opacity="0.15" d="M51.529 60.0002C61.43 60.0002 69.457 57.8602 69.457 55.2202C69.457 52.5812 61.43 50.4412 51.529 50.4412C41.6282 50.4412 33.6018 52.5812 33.6018 55.2202C33.6018 57.8602 41.6282 60.0002 51.529 60.0002Z" fill="black"/>
</g>
<path d="M120.895 40.3798C120.895 40.7216 120.599 41.0178 120.218 41.0178H115.638C115.256 41.0178 114.955 40.7216 114.955 40.3798V22.7193L108.81 33.458C108.554 33.9252 108.344 34.136 107.792 34.136H104.27C103.764 34.136 103.508 33.9252 103.252 33.458L96.937 22.7193V40.3798C96.937 40.7216 96.641 41.0178 96.259 41.0178H91.679C91.298 41.0178 91.002 40.7216 91.002 40.3798V12.744C91.002 12.4022 91.298 12.106 91.679 12.106H96.5099C97.0159 12.106 97.358 12.1914 97.699 12.7839L105.926 27.0889L114.193 12.7839C114.488 12.1914 114.83 12.106 115.336 12.106H120.212C120.593 12.106 120.889 12.4022 120.889 12.744V40.3798H120.895Z" fill="#38237C"/>
<path d="M152.681 40.3799C152.681 40.7217 152.386 41.0179 152.044 41.0179H147.214C146.873 41.0179 146.577 40.7217 146.577 40.3799V32.6947H135.004V40.3799C135.004 40.7217 134.709 41.0179 134.367 41.0179H129.537C129.201 41.0179 128.9 40.7217 128.9 40.3799V23.7848C128.9 20.3039 130.254 16.6978 133.138 14.3165C135.004 12.7441 137.548 11.7244 140.768 11.7244C143.988 11.7244 146.577 12.7441 148.443 14.3165C151.367 16.6921 152.681 20.3039 152.681 23.7848V40.3799ZM136.785 18.9424C135.681 20.0875 135.004 21.7453 135.004 24.0354V27.2599H146.577V24.0354C146.577 21.7453 145.9 20.0875 144.836 18.9424C143.778 17.9226 142.338 17.4156 140.768 17.4156C139.198 17.4156 137.843 17.9283 136.785 18.9424Z" fill="#38237C"/>
<path d="M174.637 40.5051C174.466 40.9722 174.17 41.1432 173.664 41.1432H168.578C168.026 41.1432 167.73 40.9722 167.559 40.5051L157.045 13.0004C156.835 12.4877 157.005 12.106 157.552 12.106H162.684C163.235 12.106 163.577 12.3167 163.742 12.8295L171.075 33.458H171.161L178.75 12.8295C178.921 12.3224 179.217 12.106 179.809 12.106H184.895C185.401 12.106 185.612 12.4877 185.401 13.0004L174.637 40.5051Z" fill="#38237C"/>
<path d="M208.631 30.1481L214.907 39.9126C215.203 40.4254 215.243 41.0178 214.526 41.0178H209.223C208.631 41.0178 208.29 40.9324 207.994 40.3798L202.316 30.997H196.849V40.3798C196.849 40.7216 196.598 41.0178 196.211 41.0178H191.421C191.04 41.0178 190.744 40.7216 190.744 40.3798V12.744C190.744 12.4022 191.04 12.106 191.421 12.106H203.801C206.6 12.106 209.144 12.6187 211.089 14.06C213.211 15.6324 214.44 18.3498 214.44 21.4888C214.44 24.2461 213.422 26.7129 211.22 28.5815C210.372 29.305 209.525 29.7721 208.631 30.1538V30.1481ZM196.843 17.2845V25.8185H202.777C204.347 25.8185 205.616 25.6931 206.504 25.0949C207.522 24.4569 208.245 23.2719 208.245 21.5685C208.245 19.8652 207.607 18.7657 206.634 18.0877C205.701 17.4952 204.558 17.2845 203.289 17.2845H196.843Z" fill="#38237C"/>
<path d="M239.07 12.744C239.326 12.3224 239.576 12.106 240.174 12.106H245.726C246.404 12.106 246.529 12.6187 246.147 13.1656L235.423 28.9973V40.3741C235.423 40.7159 235.127 41.0121 234.786 41.0121H229.955C229.614 41.0121 229.318 40.7159 229.318 40.3741V28.9575L218.679 13.1656C218.298 12.613 218.423 12.106 219.1 12.106H224.653C225.205 12.106 225.461 12.2769 225.711 12.744L232.368 22.9301L239.064 12.744H239.07Z" fill="#38237C"/>
<path d="M260.007 29.1284L257.674 31.504V40.3741C257.674 40.7159 257.424 41.0121 257.037 41.0121H252.247C251.865 41.0121 251.57 40.7159 251.57 40.3741V12.744C251.57 12.4022 251.865 12.106 252.247 12.106H257.037C257.418 12.106 257.674 12.4022 257.674 12.744V23.7391L267.637 12.744C268.018 12.3224 268.439 12.106 268.951 12.106H275.095C275.647 12.106 275.858 12.6187 275.391 13.0801L264.285 24.6278L275.733 39.9069C276.114 40.3741 276.154 41.0121 275.391 41.0121H269.713C269.161 41.0121 268.82 40.8412 268.484 40.3741L260.007 29.1227V29.1284Z" fill="#38237C"/>
</svg>
