<!-- "display: none" ensures the SVG doesn't take up space even though it's not being shown because of the use of symbol -->
<svg xmlns="http://www.w3.org/2000/svg" style="display:none;">
    <symbol id="twitter" viewBox="0 0 32 32">
        <g id="Outline_Icons">
            <path d="M28.75 9.49999C28.75 9.74999 28.75 10.063 28.75 10.313C28.75 19.001 22.125 29.001 10.062 29.001C6.37402 29.001 2.87402 27.938 -0.000976562 26.063C0.499023 26.126 1.06202 26.126 1.56202 26.126C4.62502 26.126 7.50002 25.126 9.75002 23.313C6.87502 23.313 4.43702 21.375 3.56202 18.75C4.00002 18.875 4.37502 18.875 4.81202 18.875C5.43702 18.875 6.00002 18.812 6.56202 18.687C3.56202 18.062 1.31202 15.374 1.31202 12.249C1.31202 12.186 1.31202 12.186 1.31202 12.124C2.18702 12.624 3.18702 12.937 4.25002 12.937C2.50002 11.812 1.31202 9.74899 1.31202 7.49899C1.31202 6.31099 1.68702 5.18599 2.25002 4.18599C5.43802 8.18599 10.313 10.811 15.75 11.061C15.625 10.561 15.562 10.061 15.562 9.56099C15.562 5.93599 18.5 2.99799 22.125 2.99799C24.063 2.99799 25.75 3.81099 26.938 5.06099C28.438 4.74799 29.876 4.24799 31.126 3.49799C30.626 4.99799 29.563 6.31099 28.251 7.12299C29.564 6.93499 30.814 6.62299 32.001 6.05999C31.126 7.37299 30.001 8.55999 28.751 9.49799L28.75 9.49999Z"/>
        </g>
        <g id="Invisible_Shape">
            <rect fill="none" stroke="none" width="32" height="32"></rect>
        </g>
    </symbol>
    <symbol id="linkedin" viewBox="0 0 32 32">
        <g id="Outline_Icons">
            <path d="M22.9451 14.3285C22.5619 13.8893 21.9056 13.6697 20.9764 13.6697C19.7733 13.6697 18.9526 14.0545 18.4609 14.7132C17.9683 15.4273 17.7495 16.4155 17.7495 17.6776V27.285C17.7495 27.4502 17.6944 27.6144 17.5308 27.7795C17.4214 27.8893 17.2027 27.9991 17.0382 27.9991H12.0071C11.8426 27.9991 11.6789 27.8893 11.5145 27.7795C11.4051 27.6144 11.2957 27.4502 11.2957 27.285V9.55292C11.2957 9.38779 11.4051 9.22354 11.5145 9.05841C11.6789 8.94862 11.8426 8.83882 12.0071 8.83882H16.8745C17.039 8.83882 17.2027 8.89416 17.312 8.94862C17.4214 9.00307 17.4765 9.1682 17.5308 9.33333C17.5308 9.49846 17.5859 9.66271 17.5859 9.71805C17.5859 9.77339 17.5859 9.93764 17.5859 10.1572C18.8441 8.9495 20.5389 8.40053 22.5627 8.40053C24.9147 8.40053 26.7189 8.94949 28.0313 10.1028C29.3438 11.3105 30 13.0127 30 15.3184V27.2859C30 27.451 29.9449 27.6153 29.7813 27.7804C29.6719 27.8902 29.4531 28 29.2886 28H24.1482C23.9837 28 23.8201 27.8902 23.6556 27.7804C23.5462 27.6153 23.4368 27.451 23.4368 27.2859V16.4708C23.4368 15.5371 23.2723 14.8239 22.9442 14.3294L22.9451 14.3285ZM7.79669 5.81994C7.14046 6.4787 6.31974 6.80808 5.39052 6.80808C4.4613 6.80808 3.64057 6.4787 2.98434 5.81994C2.32811 5.16118 2 4.39262 2 3.40448C2 2.47079 2.32811 1.70224 2.98434 1.04348C3.64057 0.384717 4.4613 0 5.39052 0C6.32062 0 7.14046 0.384717 7.79669 1.04348C8.45292 1.70224 8.78104 2.47079 8.78104 3.40448C8.78104 4.39262 8.45292 5.16118 7.79669 5.81994ZM8.61742 9.55292V27.285C8.61742 27.4502 8.50805 27.6144 8.39868 27.7795C8.23418 27.8893 8.07056 27.9991 7.90607 27.9991H2.87497C2.71048 27.9991 2.54686 27.8893 2.38236 27.7795C2.27299 27.6144 2.16362 27.4502 2.16362 27.285V9.55292C2.16362 9.38779 2.27299 9.22354 2.38236 9.05841C2.54686 8.94862 2.71048 8.83882 2.87497 8.83882H7.90607C8.07056 8.83882 8.23418 8.94862 8.39868 9.05841C8.50805 9.22354 8.61742 9.38779 8.61742 9.55292V9.55292Z" />
        </g>
        <g id="Invisible_Shape">
            <rect fill="none" stroke="none" width="32" height="32"></rect>
        </g>
    </symbol>
    <symbol id="telegram" viewBox="0 0 32 32">
        <g id="Outline_Icons">
            <path d="M29.6882 2.50002L1.25022 13.625C1.25022 13.625 -0.124778 14.063 0.000221526 14.938C0.125222 15.813 1.18822 16.188 1.18822 16.188L8.25122 18.563C8.81422 20.376 10.5012 26.188 10.8142 27.313C11.1892 28.563 11.4392 28.813 11.6272 28.876C11.6902 28.876 11.7522 28.876 11.7522 28.876C12.2522 28.939 12.6272 28.626 12.6272 28.626L17.1272 24.188L24.2522 29.626C26.1902 30.439 26.9402 28.688 26.9402 28.688L32.0032 3.18802C32.0032 1.50002 29.6902 2.50002 29.6902 2.50002H29.6882ZM26.1252 8.31302C25.6252 8.75102 13.8122 19.563 12.6252 20.688L11.9372 26.563C11.8742 27.126 11.3742 27.126 11.1242 26.688C10.6242 25.063 9.43622 20.75 8.81122 18.813L25.5612 7.68802C25.5612 7.68802 26.4992 7.06302 26.4992 7.68802C26.4992 7.68802 26.4992 7.93802 26.1242 8.31302H26.1252Z"/>
        </g>
        <g id="Invisible_Shape">
            <rect fill="none" stroke="none" width="32" height="32"></rect>
        </g>
    </symbol>
    <symbol id="medium" viewBox="0 0 32 32">
        <g id="Outline_Icons">
            <path d="M3.79458 8.18247C3.83434 7.78966 3.68454 7.4014 3.39122 7.13702L0.403361 3.53766V3H9.68067L16.8515 18.7266L23.1559 3H32V3.53766L29.4454 5.98702C29.2251 6.15489 29.1159 6.43081 29.1615 6.7039V24.7007C29.1159 24.9738 29.2251 25.2497 29.4454 25.4176L31.9402 27.8669V28.4046H19.3912V27.8669L21.9757 25.3578C22.2297 25.1039 22.2297 25.0293 22.2297 24.6409V10.0942L15.0439 28.3448H14.0728L5.70682 10.0942V22.326C5.63706 22.8403 5.80786 23.358 6.16993 23.7299L9.53128 27.8072V28.3448H0V27.8072L3.36134 23.7299C3.72079 23.3574 3.88162 22.8362 3.79458 22.326V8.18247Z"/>
        </g>
        <g id="Invisible_Shape">
            <rect fill="none" stroke="none" width="32" height="32"></rect>
        </g>
    </symbol>
    <symbol id="close" viewBox="0 0 24 24">
        <g id="Outline_Icons">
            <line class="a" x1="0.75" y1="23.249" x2="23.25" y2="0.749"></line>
            <line class="a" x1="23.25" y1="23.249" x2="0.75" y2="0.749"></line>
        </g>
        <g id="Invisible_Shape">
            <rect fill="none" stroke="none" width="24" height="24"></rect>
        </g>
    </symbol>
    <symbol id="discord" viewBox="0 0 27 27">
        <g id="Outline_Icons">
            <path d="M22.8715 4.75875C21.1237 3.93713 19.255 3.34 17.3013 3C17.0613 3.43587 16.781 4.02214 16.5878 4.4885C14.5108 4.17468 12.453 4.17468 10.4143 4.4885C10.2211 4.02214 9.93438 3.43587 9.69228 3C7.73642 3.34 5.86548 3.93932 4.11771 4.7631C0.592473 10.1155 -0.363162 15.335 0.114656 20.4804C2.45278 22.2348 4.71871 23.3004 6.94639 23.9979C7.49643 23.2373 7.98697 22.4288 8.40957 21.5766C7.60471 21.2693 6.83385 20.89 6.10547 20.4499C6.2987 20.3061 6.48771 20.1556 6.67033 20.001C11.113 22.0887 15.94 22.0887 20.3296 20.001C20.5143 20.1556 20.7033 20.3061 20.8944 20.4499C20.1639 20.8923 19.391 21.2715 18.5861 21.5788C19.0088 22.4287 19.4972 23.2395 20.0493 24C22.2791 23.3027 24.5471 22.2369 26.8853 20.4804C27.446 14.5156 25.9275 9.34404 22.8715 4.75875ZM9.01482 17.316C7.68119 17.316 6.58749 16.0651 6.58749 14.5417C6.58749 13.0184 7.65783 11.7653 9.01482 11.7653C10.3719 11.7653 11.4655 13.0162 11.4421 14.5417C11.4443 16.0651 10.3719 17.316 9.01482 17.316ZM17.9851 17.316C16.6515 17.316 15.5577 16.0651 15.5577 14.5417C15.5577 13.0184 16.6281 11.7653 17.9851 11.7653C19.342 11.7653 20.4357 13.0162 20.4125 14.5417C20.4125 16.0651 19.342 17.316 17.9851 17.316Z" />
        </g>
        <g id="Invisible_Shape">
            <rect fill="none" stroke="none" width="27" height="27"></rect>
        </g>
    </symbol>
    <symbol id="xxx" viewBox="0 0 24 24">
        <g id="Outline_Icons">

        </g>
        <g id="Invisible_Shape">
            <rect fill="none" stroke="none" width="24" height="24"></rect>
        </g>
    </symbol>
    <symbol id="calc" viewBox="0 0 30 30">
        <path
            fill-rule="evenodd"
            clip-rule="evenodd"
            d="M3.83208 0.875C2.19894 0.875 0.875 2.19894 0.875 3.83208V15V26.1679C0.875 27.8011 2.19894 29.125 3.83208 29.125H15H26.1679C27.8011 29.125 29.125 27.8011 29.125 26.1679V15V3.83208C29.125 2.19894 27.8011 0.875 26.1679 0.875H15H3.83208ZM2.875 26.1679V16H14V27.125H3.83208C3.3035 27.125 2.875 26.6965 2.875 26.1679ZM2.875 3.83208V14H14V2.875H3.83208C3.3035 2.875 2.875 3.3035 2.875 3.83208ZM16 16H27.125V26.1679C27.125 26.6965 26.6965 27.125 26.1679 27.125H16V16ZM16 14H27.125V3.83208C27.125 3.3035 26.6965 2.875 26.1679 2.875H16V14ZM9.1875 6.25C9.1875 5.83579 8.85171 5.5 8.4375 5.5C8.02329 5.5 7.6875 5.83579 7.6875 6.25V7.6875H6.25C5.83579 7.6875 5.5 8.02329 5.5 8.4375C5.5 8.85171 5.83579 9.1875 6.25 9.1875H7.6875V10.625C7.6875 11.0392 8.02329 11.375 8.4375 11.375C8.85171 11.375 9.1875 11.0392 9.1875 10.625V9.1875H10.625C11.0392 9.1875 11.375 8.85171 11.375 8.4375C11.375 8.02329 11.0392 7.6875 10.625 7.6875H9.1875V6.25ZM11.1553 19.9053C11.4482 19.6124 11.4482 19.1376 11.1553 18.8447C10.8624 18.5518 10.3876 18.5518 10.0947 18.8447L8.4375 20.5018L6.78033 18.8447C6.48744 18.5518 6.01256 18.5518 5.71967 18.8447C5.42678 19.1376 5.42678 19.6124 5.71967 19.9053L7.37684 21.5625L5.71967 23.2197C5.42678 23.5126 5.42678 23.9874 5.71967 24.2803C6.01256 24.5732 6.48744 24.5732 6.78033 24.2803L8.4375 22.6232L10.0947 24.2803C10.3876 24.5732 10.8624 24.5732 11.1553 24.2803C11.4482 23.9874 11.4482 23.5126 11.1553 23.2197L9.49816 21.5625L11.1553 19.9053ZM19.375 7.6875C18.9608 7.6875 18.625 8.02329 18.625 8.4375C18.625 8.85171 18.9608 9.1875 19.375 9.1875H23.75C24.1642 9.1875 24.5 8.85171 24.5 8.4375C24.5 8.02329 24.1642 7.6875 23.75 7.6875H19.375ZM18.625 19.375C18.625 18.9608 18.9608 18.625 19.375 18.625H23.75C24.1642 18.625 24.5 18.9608 24.5 19.375C24.5 19.7892 24.1642 20.125 23.75 20.125H19.375C18.9608 20.125 18.625 19.7892 18.625 19.375ZM19.375 23C18.9608 23 18.625 23.3358 18.625 23.75C18.625 24.1642 18.9608 24.5 19.375 24.5H23.75C24.1642 24.5 24.5 24.1642 24.5 23.75C24.5 23.3358 24.1642 23 23.75 23H19.375Z"
        />
    </symbol>
    <symbol id="linkedin-round" viewBox="0 0 35 35">
        <path fill-rule="evenodd" clip-rule="evenodd" 
        d="M1 17.4998C1 8.38696 8.3877 0.999756 17.5 0.999756C26.6123 0.999756 34 8.38696 34 17.4998C34 26.6125 26.6123 33.9998 17.5 33.9998C8.3877 33.9998 1 26.6125 1 17.4998ZM17.5 -0.000244141C7.83496 -0.000244141 0 7.83472 0 17.4998C0 27.1648 7.83496 34.9998 17.5 34.9998C27.165 34.9998 35 27.1648 35 17.4998C35 7.83472 27.165 -0.000244141 17.5 -0.000244141ZM27.9561 26.1228V18.908C27.9561 15.0444 25.8926 13.2463 23.1406 13.2463C20.918 13.2463 19.9268 14.469 19.3711 15.3245V13.5417H15.1875C15.2432 14.7217 15.1875 26.1226 15.1875 26.1226H19.3701V19.0959C19.3701 18.719 19.3994 18.3455 19.5088 18.0767C19.8125 17.3242 20.499 16.5471 21.6543 16.5471C23.1689 16.5471 23.7734 17.7014 23.7734 19.3914V26.1228H27.9561ZM19.3711 15.3245V15.3657H19.3428C19.3506 15.3523 19.3623 15.3384 19.3711 15.3245ZM8.44434 9.65063C8.44434 8.4165 9.37988 7.47729 10.8115 7.47729C12.2422 7.47729 13.1221 8.4165 13.1494 9.65063C13.1494 10.8586 12.2422 11.825 10.7832 11.825H10.7559C9.35352 11.825 8.44434 10.8586 8.44434 9.65063ZM12.874 26.1228H8.69238V13.5417H12.874V26.1228Z"/>
    </symbol>
    <symbol id="arrow" viewBox="0 0 27 47">
        <path d="M23.7441 3.75L4.96545 23.5L23.7441 43.25"  stroke-width="6" stroke-linecap="round"/>
    </symbol>
    <symbol id="gitHub" viewBox="0 0 32 32">
        <path d="M16 0C7.164 0 0 7.21746 0 16.1194C0 23.6727 5.16267 29.9928 12.1227 31.7418C12.048 31.5242 12 31.2716 12 30.9587V28.2036C11.3507 28.2036 10.2627 28.2036 9.98933 28.2036C8.89467 28.2036 7.92133 27.7294 7.44933 26.8482C6.92533 25.869 6.83467 24.3712 5.536 23.4551C5.15067 23.1502 5.444 22.8022 5.888 22.8493C6.708 23.083 7.388 23.6499 8.028 24.4907C8.66533 25.333 8.96533 25.5237 10.156 25.5237C10.7333 25.5237 11.5973 25.4901 12.4107 25.3612C12.848 24.2422 13.604 23.2119 14.528 22.7257C9.2 22.1736 6.65733 19.5031 6.65733 15.8776C6.65733 14.3167 7.31733 12.8069 8.43867 11.5348C8.07067 10.2721 7.608 7.69702 8.58 6.71642C10.9773 6.71642 12.4267 8.28269 12.7747 8.70582C13.9693 8.29343 15.2813 8.0597 16.66 8.0597C18.0413 8.0597 19.3587 8.29343 20.556 8.70851C20.9 8.28806 22.3507 6.71642 24.7533 6.71642C25.7293 7.69836 25.2613 10.2842 24.8893 11.5442C26.004 12.8136 26.66 14.3194 26.66 15.8776C26.66 19.5004 24.1213 22.1696 18.8013 22.7243C20.2653 23.494 21.3333 25.6567 21.3333 27.2861V30.9587C21.3333 31.0984 21.3027 31.1991 21.2867 31.3187C27.5213 29.117 32 23.1528 32 16.1194C32 7.21746 24.836 0 16 0Z" />

    </symbol>
</svg>