<!-- "display: none" ensures the SVG doesn't take up space even though it's not being shown because of the use of symbol -->
<svg xmlns="http://www.w3.org/2000/svg" style="display:none;">
    <symbol id="twitter" viewBox="0 0 32 32">
        <g id="Outline_Icons">
            <path d="M28.75 9.49999C28.75 9.74999 28.75 10.063 28.75 10.313C28.75 19.001 22.125 29.001 10.062 29.001C6.37402 29.001 2.87402 27.938 -0.000976562 26.063C0.499023 26.126 1.06202 26.126 1.56202 26.126C4.62502 26.126 7.50002 25.126 9.75002 23.313C6.87502 23.313 4.43702 21.375 3.56202 18.75C4.00002 18.875 4.37502 18.875 4.81202 18.875C5.43702 18.875 6.00002 18.812 6.56202 18.687C3.56202 18.062 1.31202 15.374 1.31202 12.249C1.31202 12.186 1.31202 12.186 1.31202 12.124C2.18702 12.624 3.18702 12.937 4.25002 12.937C2.50002 11.812 1.31202 9.74899 1.31202 7.49899C1.31202 6.31099 1.68702 5.18599 2.25002 4.18599C5.43802 8.18599 10.313 10.811 15.75 11.061C15.625 10.561 15.562 10.061 15.562 9.56099C15.562 5.93599 18.5 2.99799 22.125 2.99799C24.063 2.99799 25.75 3.81099 26.938 5.06099C28.438 4.74799 29.876 4.24799 31.126 3.49799C30.626 4.99799 29.563 6.31099 28.251 7.12299C29.564 6.93499 30.814 6.62299 32.001 6.05999C31.126 7.37299 30.001 8.55999 28.751 9.49799L28.75 9.49999Z"/>
        </g>
        <g id="Invisible_Shape">
            <rect fill="none" stroke="none" width="32" height="32"></rect>
        </g>
    </symbol>
    <symbol id="linkedin" viewBox="0 0 32 32">
        <g id="Outline_Icons">
            <path d="M22.9451 14.3285C22.5619 13.8893 21.9056 13.6697 20.9764 13.6697C19.7733 13.6697 18.9526 14.0545 18.4609 14.7132C17.9683 15.4273 17.7495 16.4155 17.7495 17.6776V27.285C17.7495 27.4502 17.6944 27.6144 17.5308 27.7795C17.4214 27.8893 17.2027 27.9991 17.0382 27.9991H12.0071C11.8426 27.9991 11.6789 27.8893 11.5145 27.7795C11.4051 27.6144 11.2957 27.4502 11.2957 27.285V9.55292C11.2957 9.38779 11.4051 9.22354 11.5145 9.05841C11.6789 8.94862 11.8426 8.83882 12.0071 8.83882H16.8745C17.039 8.83882 17.2027 8.89416 17.312 8.94862C17.4214 9.00307 17.4765 9.1682 17.5308 9.33333C17.5308 9.49846 17.5859 9.66271 17.5859 9.71805C17.5859 9.77339 17.5859 9.93764 17.5859 10.1572C18.8441 8.9495 20.5389 8.40053 22.5627 8.40053C24.9147 8.40053 26.7189 8.94949 28.0313 10.1028C29.3438 11.3105 30 13.0127 30 15.3184V27.2859C30 27.451 29.9449 27.6153 29.7813 27.7804C29.6719 27.8902 29.4531 28 29.2886 28H24.1482C23.9837 28 23.8201 27.8902 23.6556 27.7804C23.5462 27.6153 23.4368 27.451 23.4368 27.2859V16.4708C23.4368 15.5371 23.2723 14.8239 22.9442 14.3294L22.9451 14.3285ZM7.79669 5.81994C7.14046 6.4787 6.31974 6.80808 5.39052 6.80808C4.4613 6.80808 3.64057 6.4787 2.98434 5.81994C2.32811 5.16118 2 4.39262 2 3.40448C2 2.47079 2.32811 1.70224 2.98434 1.04348C3.64057 0.384717 4.4613 0 5.39052 0C6.32062 0 7.14046 0.384717 7.79669 1.04348C8.45292 1.70224 8.78104 2.47079 8.78104 3.40448C8.78104 4.39262 8.45292 5.16118 7.79669 5.81994ZM8.61742 9.55292V27.285C8.61742 27.4502 8.50805 27.6144 8.39868 27.7795C8.23418 27.8893 8.07056 27.9991 7.90607 27.9991H2.87497C2.71048 27.9991 2.54686 27.8893 2.38236 27.7795C2.27299 27.6144 2.16362 27.4502 2.16362 27.285V9.55292C2.16362 9.38779 2.27299 9.22354 2.38236 9.05841C2.54686 8.94862 2.71048 8.83882 2.87497 8.83882H7.90607C8.07056 8.83882 8.23418 8.94862 8.39868 9.05841C8.50805 9.22354 8.61742 9.38779 8.61742 9.55292V9.55292Z" />
        </g>
        <g id="Invisible_Shape">
            <rect fill="none" stroke="none" width="32" height="32"></rect>
        </g>
    </symbol>
    <symbol id="telegram" viewBox="0 0 32 32">
        <g id="Outline_Icons">
            <path d="M29.6882 2.50002L1.25022 13.625C1.25022 13.625 -0.124778 14.063 0.000221526 14.938C0.125222 15.813 1.18822 16.188 1.18822 16.188L8.25122 18.563C8.81422 20.376 10.5012 26.188 10.8142 27.313C11.1892 28.563 11.4392 28.813 11.6272 28.876C11.6902 28.876 11.7522 28.876 11.7522 28.876C12.2522 28.939 12.6272 28.626 12.6272 28.626L17.1272 24.188L24.2522 29.626C26.1902 30.439 26.9402 28.688 26.9402 28.688L32.0032 3.18802C32.0032 1.50002 29.6902 2.50002 29.6902 2.50002H29.6882ZM26.1252 8.31302C25.6252 8.75102 13.8122 19.563 12.6252 20.688L11.9372 26.563C11.8742 27.126 11.3742 27.126 11.1242 26.688C10.6242 25.063 9.43622 20.75 8.81122 18.813L25.5612 7.68802C25.5612 7.68802 26.4992 7.06302 26.4992 7.68802C26.4992 7.68802 26.4992 7.93802 26.1242 8.31302H26.1252Z"/>
        </g>
        <g id="Invisible_Shape">
            <rect fill="none" stroke="none" width="32" height="32"></rect>
        </g>
    </symbol>
    <symbol id="medium" viewBox="0 0 32 32">
        <g id="Outline_Icons">
            <path d="M3.79458 8.18247C3.83434 7.78966 3.68454 7.4014 3.39122 7.13702L0.403361 3.53766V3H9.68067L16.8515 18.7266L23.1559 3H32V3.53766L29.4454 5.98702C29.2251 6.15489 29.1159 6.43081 29.1615 6.7039V24.7007C29.1159 24.9738 29.2251 25.2497 29.4454 25.4176L31.9402 27.8669V28.4046H19.3912V27.8669L21.9757 25.3578C22.2297 25.1039 22.2297 25.0293 22.2297 24.6409V10.0942L15.0439 28.3448H14.0728L5.70682 10.0942V22.326C5.63706 22.8403 5.80786 23.358 6.16993 23.7299L9.53128 27.8072V28.3448H0V27.8072L3.36134 23.7299C3.72079 23.3574 3.88162 22.8362 3.79458 22.326V8.18247Z"/>
        </g>
        <g id="Invisible_Shape">
            <rect fill="none" stroke="none" width="32" height="32"></rect>
        </g>
    </symbol>
    <symbol id="close" viewBox="0 0 24 24">
        <g id="Outline_Icons">
            <line class="a" x1="0.75" y1="23.249" x2="23.25" y2="0.749"></line>
            <line class="a" x1="23.25" y1="23.249" x2="0.75" y2="0.749"></line>
        </g>
        <g id="Invisible_Shape">
            <rect fill="none" stroke="none" width="24" height="24"></rect>
        </g>
    </symbol>
    <symbol id="xxx" viewBox="0 0 24 24">
        <g id="Outline_Icons">

        </g>
        <g id="Invisible_Shape">
            <rect fill="none" stroke="none" width="24" height="24"></rect>
        </g>
    </symbol>
    <symbol id="xxx" viewBox="0 0 24 24">
        <g id="Outline_Icons">

        </g>
        <g id="Invisible_Shape">
            <rect fill="none" stroke="none" width="24" height="24"></rect>
        </g>
    </symbol>
</svg>