<!-- "display: none" ensures the SVG doesn't take up space even though it's not being shown because of the use of symbol -->
<svg xmlns="http://www.w3.org/2000/svg" style="display:none;">
    <symbol id="twitter" viewBox="0 0 32 32">
        <g id="Outline_Icons">
            <path d="M28.75 9.49999C28.75 9.74999 28.75 10.063 28.75 10.313C28.75 19.001 22.125 29.001 10.062 29.001C6.37402 29.001 2.87402 27.938 -0.000976562 26.063C0.499023 26.126 1.06202 26.126 1.56202 26.126C4.62502 26.126 7.50002 25.126 9.75002 23.313C6.87502 23.313 4.43702 21.375 3.56202 18.75C4.00002 18.875 4.37502 18.875 4.81202 18.875C5.43702 18.875 6.00002 18.812 6.56202 18.687C3.56202 18.062 1.31202 15.374 1.31202 12.249C1.31202 12.186 1.31202 12.186 1.31202 12.124C2.18702 12.624 3.18702 12.937 4.25002 12.937C2.50002 11.812 1.31202 9.74899 1.31202 7.49899C1.31202 6.31099 1.68702 5.18599 2.25002 4.18599C5.43802 8.18599 10.313 10.811 15.75 11.061C15.625 10.561 15.562 10.061 15.562 9.56099C15.562 5.93599 18.5 2.99799 22.125 2.99799C24.063 2.99799 25.75 3.81099 26.938 5.06099C28.438 4.74799 29.876 4.24799 31.126 3.49799C30.626 4.99799 29.563 6.31099 28.251 7.12299C29.564 6.93499 30.814 6.62299 32.001 6.05999C31.126 7.37299 30.001 8.55999 28.751 9.49799L28.75 9.49999Z"/>
        </g>
        <g id="Invisible_Shape">
            <rect fill="none" stroke="none" width="32" height="32"></rect>
        </g>
    </symbol>
    <symbol id="linkedin" viewBox="0 0 32 32">
        <g id="Outline_Icons">
            <path d="M22.9451 14.3285C22.5619 13.8893 21.9056 13.6697 20.9764 13.6697C19.7733 13.6697 18.9526 14.0545 18.4609 14.7132C17.9683 15.4273 17.7495 16.4155 17.7495 17.6776V27.285C17.7495 27.4502 17.6944 27.6144 17.5308 27.7795C17.4214 27.8893 17.2027 27.9991 17.0382 27.9991H12.0071C11.8426 27.9991 11.6789 27.8893 11.5145 27.7795C11.4051 27.6144 11.2957 27.4502 11.2957 27.285V9.55292C11.2957 9.38779 11.4051 9.22354 11.5145 9.05841C11.6789 8.94862 11.8426 8.83882 12.0071 8.83882H16.8745C17.039 8.83882 17.2027 8.89416 17.312 8.94862C17.4214 9.00307 17.4765 9.1682 17.5308 9.33333C17.5308 9.49846 17.5859 9.66271 17.5859 9.71805C17.5859 9.77339 17.5859 9.93764 17.5859 10.1572C18.8441 8.9495 20.5389 8.40053 22.5627 8.40053C24.9147 8.40053 26.7189 8.94949 28.0313 10.1028C29.3438 11.3105 30 13.0127 30 15.3184V27.2859C30 27.451 29.9449 27.6153 29.7813 27.7804C29.6719 27.8902 29.4531 28 29.2886 28H24.1482C23.9837 28 23.8201 27.8902 23.6556 27.7804C23.5462 27.6153 23.4368 27.451 23.4368 27.2859V16.4708C23.4368 15.5371 23.2723 14.8239 22.9442 14.3294L22.9451 14.3285ZM7.79669 5.81994C7.14046 6.4787 6.31974 6.80808 5.39052 6.80808C4.4613 6.80808 3.64057 6.4787 2.98434 5.81994C2.32811 5.16118 2 4.39262 2 3.40448C2 2.47079 2.32811 1.70224 2.98434 1.04348C3.64057 0.384717 4.4613 0 5.39052 0C6.32062 0 7.14046 0.384717 7.79669 1.04348C8.45292 1.70224 8.78104 2.47079 8.78104 3.40448C8.78104 4.39262 8.45292 5.16118 7.79669 5.81994ZM8.61742 9.55292V27.285C8.61742 27.4502 8.50805 27.6144 8.39868 27.7795C8.23418 27.8893 8.07056 27.9991 7.90607 27.9991H2.87497C2.71048 27.9991 2.54686 27.8893 2.38236 27.7795C2.27299 27.6144 2.16362 27.4502 2.16362 27.285V9.55292C2.16362 9.38779 2.27299 9.22354 2.38236 9.05841C2.54686 8.94862 2.71048 8.83882 2.87497 8.83882H7.90607C8.07056 8.83882 8.23418 8.94862 8.39868 9.05841C8.50805 9.22354 8.61742 9.38779 8.61742 9.55292V9.55292Z" />
        </g>
        <g id="Invisible_Shape">
            <rect fill="none" stroke="none" width="32" height="32"></rect>
        </g>
    </symbol>
    <symbol id="telegram" viewBox="0 0 32 32">
        <g id="Outline_Icons">
            <path d="M29.6882 2.50002L1.25022 13.625C1.25022 13.625 -0.124778 14.063 0.000221526 14.938C0.125222 15.813 1.18822 16.188 1.18822 16.188L8.25122 18.563C8.81422 20.376 10.5012 26.188 10.8142 27.313C11.1892 28.563 11.4392 28.813 11.6272 28.876C11.6902 28.876 11.7522 28.876 11.7522 28.876C12.2522 28.939 12.6272 28.626 12.6272 28.626L17.1272 24.188L24.2522 29.626C26.1902 30.439 26.9402 28.688 26.9402 28.688L32.0032 3.18802C32.0032 1.50002 29.6902 2.50002 29.6902 2.50002H29.6882ZM26.1252 8.31302C25.6252 8.75102 13.8122 19.563 12.6252 20.688L11.9372 26.563C11.8742 27.126 11.3742 27.126 11.1242 26.688C10.6242 25.063 9.43622 20.75 8.81122 18.813L25.5612 7.68802C25.5612 7.68802 26.4992 7.06302 26.4992 7.68802C26.4992 7.68802 26.4992 7.93802 26.1242 8.31302H26.1252Z"/>
        </g>
        <g id="Invisible_Shape">
            <rect fill="none" stroke="none" width="32" height="32"></rect>
        </g>
    </symbol>
    <symbol id="medium" viewBox="0 0 32 32">
        <g id="Outline_Icons">
            <path d="M3.79458 8.18247C3.83434 7.78966 3.68454 7.4014 3.39122 7.13702L0.403361 3.53766V3H9.68067L16.8515 18.7266L23.1559 3H32V3.53766L29.4454 5.98702C29.2251 6.15489 29.1159 6.43081 29.1615 6.7039V24.7007C29.1159 24.9738 29.2251 25.2497 29.4454 25.4176L31.9402 27.8669V28.4046H19.3912V27.8669L21.9757 25.3578C22.2297 25.1039 22.2297 25.0293 22.2297 24.6409V10.0942L15.0439 28.3448H14.0728L5.70682 10.0942V22.326C5.63706 22.8403 5.80786 23.358 6.16993 23.7299L9.53128 27.8072V28.3448H0V27.8072L3.36134 23.7299C3.72079 23.3574 3.88162 22.8362 3.79458 22.326V8.18247Z"/>
        </g>
        <g id="Invisible_Shape">
            <rect fill="none" stroke="none" width="32" height="32"></rect>
        </g>
    </symbol>
    <symbol id="close" viewBox="0 0 24 24">
        <g id="Outline_Icons">
            <line class="a" x1="0.75" y1="23.249" x2="23.25" y2="0.749"></line>
            <line class="a" x1="23.25" y1="23.249" x2="0.75" y2="0.749"></line>
        </g>
        <g id="Invisible_Shape">
            <rect fill="none" stroke="none" width="24" height="24"></rect>
        </g>
    </symbol>
    <symbol id="discord" viewBox="0 0 27 27">
        <g id="Outline_Icons">
            <path d="M22.8715 4.75875C21.1237 3.93713 19.255 3.34 17.3013 3C17.0613 3.43587 16.781 4.02214 16.5878 4.4885C14.5108 4.17468 12.453 4.17468 10.4143 4.4885C10.2211 4.02214 9.93438 3.43587 9.69228 3C7.73642 3.34 5.86548 3.93932 4.11771 4.7631C0.592473 10.1155 -0.363162 15.335 0.114656 20.4804C2.45278 22.2348 4.71871 23.3004 6.94639 23.9979C7.49643 23.2373 7.98697 22.4288 8.40957 21.5766C7.60471 21.2693 6.83385 20.89 6.10547 20.4499C6.2987 20.3061 6.48771 20.1556 6.67033 20.001C11.113 22.0887 15.94 22.0887 20.3296 20.001C20.5143 20.1556 20.7033 20.3061 20.8944 20.4499C20.1639 20.8923 19.391 21.2715 18.5861 21.5788C19.0088 22.4287 19.4972 23.2395 20.0493 24C22.2791 23.3027 24.5471 22.2369 26.8853 20.4804C27.446 14.5156 25.9275 9.34404 22.8715 4.75875ZM9.01482 17.316C7.68119 17.316 6.58749 16.0651 6.58749 14.5417C6.58749 13.0184 7.65783 11.7653 9.01482 11.7653C10.3719 11.7653 11.4655 13.0162 11.4421 14.5417C11.4443 16.0651 10.3719 17.316 9.01482 17.316ZM17.9851 17.316C16.6515 17.316 15.5577 16.0651 15.5577 14.5417C15.5577 13.0184 16.6281 11.7653 17.9851 11.7653C19.342 11.7653 20.4357 13.0162 20.4125 14.5417C20.4125 16.0651 19.342 17.316 17.9851 17.316Z" />
        </g>
        <g id="Invisible_Shape">
            <rect fill="none" stroke="none" width="27" height="27"></rect>
        </g>
    </symbol>
    <symbol id="xxx" viewBox="0 0 24 24">
        <g id="Outline_Icons">

        </g>
        <g id="Invisible_Shape">
            <rect fill="none" stroke="none" width="24" height="24"></rect>
        </g>
    </symbol>
    <symbol id="calc" viewBox="0 0 30 30">
        <path
            fill-rule="evenodd"
            clip-rule="evenodd"
            d="M3.83208 0.875C2.19894 0.875 0.875 2.19894 0.875 3.83208V15V26.1679C0.875 27.8011 2.19894 29.125 3.83208 29.125H15H26.1679C27.8011 29.125 29.125 27.8011 29.125 26.1679V15V3.83208C29.125 2.19894 27.8011 0.875 26.1679 0.875H15H3.83208ZM2.875 26.1679V16H14V27.125H3.83208C3.3035 27.125 2.875 26.6965 2.875 26.1679ZM2.875 3.83208V14H14V2.875H3.83208C3.3035 2.875 2.875 3.3035 2.875 3.83208ZM16 16H27.125V26.1679C27.125 26.6965 26.6965 27.125 26.1679 27.125H16V16ZM16 14H27.125V3.83208C27.125 3.3035 26.6965 2.875 26.1679 2.875H16V14ZM9.1875 6.25C9.1875 5.83579 8.85171 5.5 8.4375 5.5C8.02329 5.5 7.6875 5.83579 7.6875 6.25V7.6875H6.25C5.83579 7.6875 5.5 8.02329 5.5 8.4375C5.5 8.85171 5.83579 9.1875 6.25 9.1875H7.6875V10.625C7.6875 11.0392 8.02329 11.375 8.4375 11.375C8.85171 11.375 9.1875 11.0392 9.1875 10.625V9.1875H10.625C11.0392 9.1875 11.375 8.85171 11.375 8.4375C11.375 8.02329 11.0392 7.6875 10.625 7.6875H9.1875V6.25ZM11.1553 19.9053C11.4482 19.6124 11.4482 19.1376 11.1553 18.8447C10.8624 18.5518 10.3876 18.5518 10.0947 18.8447L8.4375 20.5018L6.78033 18.8447C6.48744 18.5518 6.01256 18.5518 5.71967 18.8447C5.42678 19.1376 5.42678 19.6124 5.71967 19.9053L7.37684 21.5625L5.71967 23.2197C5.42678 23.5126 5.42678 23.9874 5.71967 24.2803C6.01256 24.5732 6.48744 24.5732 6.78033 24.2803L8.4375 22.6232L10.0947 24.2803C10.3876 24.5732 10.8624 24.5732 11.1553 24.2803C11.4482 23.9874 11.4482 23.5126 11.1553 23.2197L9.49816 21.5625L11.1553 19.9053ZM19.375 7.6875C18.9608 7.6875 18.625 8.02329 18.625 8.4375C18.625 8.85171 18.9608 9.1875 19.375 9.1875H23.75C24.1642 9.1875 24.5 8.85171 24.5 8.4375C24.5 8.02329 24.1642 7.6875 23.75 7.6875H19.375ZM18.625 19.375C18.625 18.9608 18.9608 18.625 19.375 18.625H23.75C24.1642 18.625 24.5 18.9608 24.5 19.375C24.5 19.7892 24.1642 20.125 23.75 20.125H19.375C18.9608 20.125 18.625 19.7892 18.625 19.375ZM19.375 23C18.9608 23 18.625 23.3358 18.625 23.75C18.625 24.1642 18.9608 24.5 19.375 24.5H23.75C24.1642 24.5 24.5 24.1642 24.5 23.75C24.5 23.3358 24.1642 23 23.75 23H19.375Z"
        />
    </symbol>
    <symbol id="linkedin-round" viewBox="0 0 35 35">
        <path fill-rule="evenodd" clip-rule="evenodd" 
        d="M1 17.4998C1 8.38696 8.3877 0.999756 17.5 0.999756C26.6123 0.999756 34 8.38696 34 17.4998C34 26.6125 26.6123 33.9998 17.5 33.9998C8.3877 33.9998 1 26.6125 1 17.4998ZM17.5 -0.000244141C7.83496 -0.000244141 0 7.83472 0 17.4998C0 27.1648 7.83496 34.9998 17.5 34.9998C27.165 34.9998 35 27.1648 35 17.4998C35 7.83472 27.165 -0.000244141 17.5 -0.000244141ZM27.9561 26.1228V18.908C27.9561 15.0444 25.8926 13.2463 23.1406 13.2463C20.918 13.2463 19.9268 14.469 19.3711 15.3245V13.5417H15.1875C15.2432 14.7217 15.1875 26.1226 15.1875 26.1226H19.3701V19.0959C19.3701 18.719 19.3994 18.3455 19.5088 18.0767C19.8125 17.3242 20.499 16.5471 21.6543 16.5471C23.1689 16.5471 23.7734 17.7014 23.7734 19.3914V26.1228H27.9561ZM19.3711 15.3245V15.3657H19.3428C19.3506 15.3523 19.3623 15.3384 19.3711 15.3245ZM8.44434 9.65063C8.44434 8.4165 9.37988 7.47729 10.8115 7.47729C12.2422 7.47729 13.1221 8.4165 13.1494 9.65063C13.1494 10.8586 12.2422 11.825 10.7832 11.825H10.7559C9.35352 11.825 8.44434 10.8586 8.44434 9.65063ZM12.874 26.1228H8.69238V13.5417H12.874V26.1228Z"/>
    </symbol>
    <symbol id="arrow" viewBox="0 0 27 47">
        <path d="M23.7441 3.75L4.96545 23.5L23.7441 43.25"  stroke-width="6" stroke-linecap="round"/>
    </symbol>
    <symbol id="gitHub" viewBox="0 0 32 32">
        <path d="M16 0C7.164 0 0 7.21746 0 16.1194C0 23.6727 5.16267 29.9928 12.1227 31.7418C12.048 31.5242 12 31.2716 12 30.9587V28.2036C11.3507 28.2036 10.2627 28.2036 9.98933 28.2036C8.89467 28.2036 7.92133 27.7294 7.44933 26.8482C6.92533 25.869 6.83467 24.3712 5.536 23.4551C5.15067 23.1502 5.444 22.8022 5.888 22.8493C6.708 23.083 7.388 23.6499 8.028 24.4907C8.66533 25.333 8.96533 25.5237 10.156 25.5237C10.7333 25.5237 11.5973 25.4901 12.4107 25.3612C12.848 24.2422 13.604 23.2119 14.528 22.7257C9.2 22.1736 6.65733 19.5031 6.65733 15.8776C6.65733 14.3167 7.31733 12.8069 8.43867 11.5348C8.07067 10.2721 7.608 7.69702 8.58 6.71642C10.9773 6.71642 12.4267 8.28269 12.7747 8.70582C13.9693 8.29343 15.2813 8.0597 16.66 8.0597C18.0413 8.0597 19.3587 8.29343 20.556 8.70851C20.9 8.28806 22.3507 6.71642 24.7533 6.71642C25.7293 7.69836 25.2613 10.2842 24.8893 11.5442C26.004 12.8136 26.66 14.3194 26.66 15.8776C26.66 19.5004 24.1213 22.1696 18.8013 22.7243C20.2653 23.494 21.3333 25.6567 21.3333 27.2861V30.9587C21.3333 31.0984 21.3027 31.1991 21.2867 31.3187C27.5213 29.117 32 23.1528 32 16.1194C32 7.21746 24.836 0 16 0Z" />
    </symbol>
    <symbol id="LBLogo" viewBox="0 0 88 50" fill="none">
        <path fill-rule="evenodd" clip-rule="evenodd" d="M56.203 41.8998V36.9264H58.2834V41.8998H56.203ZM64.9085 37.1294V41.8998H62.8281V37.1294H64.9085Z" fill="#77A4F2"/>
        <path fill-rule="evenodd" clip-rule="evenodd" d="M68.2401 15.6384H52.989V13.555H70.4912L71.2833 15.2718L65.6292 21.925C66.4974 21.8487 67.4274 21.8787 68.3532 22.0469C71.0241 22.5324 73.749 24.2055 74.6635 27.8394C75.4983 31.0986 74.5427 34.0784 72.489 36.2152C70.4532 38.3333 67.3773 39.5921 63.965 39.5921V37.5088C66.8811 37.5088 69.3921 36.4331 70.9902 34.7704C72.5699 33.1268 73.2953 30.8804 72.6479 28.3551L72.6467 28.3504C71.9786 25.6929 70.0566 24.4739 67.9817 24.0968C66.9314 23.9059 65.8651 23.94 64.9607 24.1217C64.0287 24.309 63.3858 24.6282 63.0881 24.9032L61.5907 23.4625L68.2401 15.6384Z" fill="#77A4F2"/>
        <path fill-rule="evenodd" clip-rule="evenodd" d="M56.4001 7.28877H58.4805V29.923C58.4805 31.8453 60.6119 32.6253 61.7586 31.5102L63.2079 33.0048C60.5971 35.5437 56.4001 33.4817 56.4001 29.923V7.28877ZM63.1241 14.4952V7.28877H65.2045V14.4952H63.1241Z" fill="#77A4F2"/>
        <path fill-rule="evenodd" clip-rule="evenodd" d="M85.4193 25.1931C85.4193 12.6124 75.4654 2.47005 63.3328 2.47005C51.2002 2.47005 41.2464 12.6124 41.2464 25.1931C41.2464 37.7737 51.2002 47.9161 63.3328 47.9161C75.4654 47.9161 85.4193 37.7737 85.4193 25.1931ZM87.4997 25.1931C87.4997 11.5106 76.6625 0.386719 63.3328 0.386719C50.0032 0.386719 39.166 11.5106 39.166 25.1931C39.166 38.8755 50.0032 49.9994 63.3328 49.9994C76.6625 49.9994 87.4997 38.8755 87.4997 25.1931Z" fill="#77A4F2"/>
        <mask id="path-2-inside-1_9529_12818" fill="white">
        <path fill-rule="evenodd" clip-rule="evenodd" d="M25.4643 49.9999C39.2518 49.9999 50.4287 38.8071 50.4287 25C50.4287 11.1929 39.2518 0 25.4643 0C11.6769 0 0.5 11.1929 0.5 25C0.5 38.8071 11.6769 49.9999 25.4643 49.9999ZM28.6332 23.528C29.6686 23.9241 36.8144 26.6577 37.1436 32.4905C37.1436 32.4905 37.7606 40.8618 27.7999 41.0384C19.0733 41.1855 19.6609 35.9479 19.6609 35.9479C19.6609 34.7415 20.6893 33.7558 21.9381 33.7558C23.4807 33.7558 24.2152 34.7415 24.2152 35.9479C24.2152 36.7571 23.7598 37.3603 23.084 37.6693C23.0252 37.6987 22.9959 37.7575 23.0252 37.8164C23.7451 39.4494 27.8146 39.2729 27.8146 39.2729C34.029 38.8462 33.2945 32.6229 33.2945 32.6229C33.2945 31.343 31.4581 26.944 24.6707 25.7965C24.6413 25.7965 24.6266 25.7817 24.6266 25.7523C24.6266 25.749 24.6274 25.707 24.6287 25.6326C24.6333 25.379 24.6446 24.7489 24.656 23.9868L32.0604 16.513H21.7765V26.8999C21.7765 26.8999 21.7324 29.7393 23.9655 29.7393C23.9655 29.7393 24.9351 29.7835 26.081 29.0184V30.0042C26.081 30.3278 25.9194 30.6074 25.655 30.7839C25.0673 31.1664 24.3769 31.4607 23.6276 31.5195C20.1017 31.8138 18.089 29.6364 18.089 26.5026V20.7502V16.513H13.8432V14.674C13.8432 14.6004 13.9166 14.5269 13.9901 14.5269H18.0743V11.6285C18.0743 10.3339 16.7814 10.3339 16.7814 10.3339H16.4876V9.5394L21.7618 8.43599V9.84836V14.5416H36.0564C36.1887 14.5416 36.3062 14.6593 36.3062 14.7917V15.6303L28.5492 23.4278C28.5345 23.4572 28.5345 23.4866 28.5639 23.5013C28.5825 23.5086 28.6057 23.5175 28.6332 23.528Z"/>
        </mask>
        <path fill-rule="evenodd" clip-rule="evenodd" d="M25.4643 49.9999C39.2518 49.9999 50.4287 38.8071 50.4287 25C50.4287 11.1929 39.2518 0 25.4643 0C11.6769 0 0.5 11.1929 0.5 25C0.5 38.8071 11.6769 49.9999 25.4643 49.9999ZM28.6332 23.528C29.6686 23.9241 36.8144 26.6577 37.1436 32.4905C37.1436 32.4905 37.7606 40.8618 27.7999 41.0384C19.0733 41.1855 19.6609 35.9479 19.6609 35.9479C19.6609 34.7415 20.6893 33.7558 21.9381 33.7558C23.4807 33.7558 24.2152 34.7415 24.2152 35.9479C24.2152 36.7571 23.7598 37.3603 23.084 37.6693C23.0252 37.6987 22.9959 37.7575 23.0252 37.8164C23.7451 39.4494 27.8146 39.2729 27.8146 39.2729C34.029 38.8462 33.2945 32.6229 33.2945 32.6229C33.2945 31.343 31.4581 26.944 24.6707 25.7965C24.6413 25.7965 24.6266 25.7817 24.6266 25.7523C24.6266 25.749 24.6274 25.707 24.6287 25.6326C24.6333 25.379 24.6446 24.7489 24.656 23.9868L32.0604 16.513H21.7765V26.8999C21.7765 26.8999 21.7324 29.7393 23.9655 29.7393C23.9655 29.7393 24.9351 29.7835 26.081 29.0184V30.0042C26.081 30.3278 25.9194 30.6074 25.655 30.7839C25.0673 31.1664 24.3769 31.4607 23.6276 31.5195C20.1017 31.8138 18.089 29.6364 18.089 26.5026V20.7502V16.513H13.8432V14.674C13.8432 14.6004 13.9166 14.5269 13.9901 14.5269H18.0743V11.6285C18.0743 10.3339 16.7814 10.3339 16.7814 10.3339H16.4876V9.5394L21.7618 8.43599V9.84836V14.5416H36.0564C36.1887 14.5416 36.3062 14.6593 36.3062 14.7917V15.6303L28.5492 23.4278C28.5345 23.4572 28.5345 23.4866 28.5639 23.5013C28.5825 23.5086 28.6057 23.5175 28.6332 23.528Z" fill="#77A4F2"/>
        <path d="M37.1436 32.4905L36.1452 32.5469L36.1457 32.5555L36.1463 32.564L37.1436 32.4905ZM28.6332 23.528L28.2759 24.462L28.6332 23.528ZM27.7999 41.0384L27.8168 42.0382L27.8176 42.0382L27.7999 41.0384ZM19.6609 35.9479L20.6547 36.0594L20.6609 36.0038V35.9479H19.6609ZM23.084 37.6693L22.6682 36.7598L22.6521 36.7671L22.6363 36.7751L23.084 37.6693ZM23.0252 37.8164L23.9403 37.413L23.9306 37.3911L23.9199 37.3697L23.0252 37.8164ZM27.8146 39.2729L27.858 40.272L27.8705 40.2714L27.8831 40.2705L27.8146 39.2729ZM33.2945 32.6229H32.2945V32.6818L32.3014 32.7402L33.2945 32.6229ZM24.6707 25.7965L24.8374 24.8105L24.7546 24.7965H24.6707V25.7965ZM24.6287 25.6326L23.6289 25.6146V25.6146L24.6287 25.6326ZM24.656 23.9868L23.9456 23.283L23.6621 23.5692L23.6561 23.9719L24.656 23.9868ZM32.0604 16.513L32.7708 17.2168L34.4588 15.513H32.0604V16.513ZM21.7765 16.513V15.513H20.7765V16.513H21.7765ZM21.7765 26.8999L22.7764 26.9154L22.7765 26.9076V26.8999H21.7765ZM23.9655 29.7393L24.011 28.7404L23.9882 28.7393H23.9655V29.7393ZM26.081 29.0184H27.081V27.1484L25.5258 28.1868L26.081 29.0184ZM25.655 30.7839L26.2006 31.6221L26.2102 31.6156L25.655 30.7839ZM23.6276 31.5195L23.5493 30.5226L23.5444 30.523L23.6276 31.5195ZM18.089 16.513H19.089V15.513H18.089V16.513ZM13.8432 16.513H12.8432V17.513H13.8432V16.513ZM18.0743 14.5269V15.5269H19.0743V14.5269H18.0743ZM16.4876 10.3339H15.4876V11.3339H16.4876V10.3339ZM16.4876 9.5394L16.2828 8.5606L15.4876 8.72697V9.5394H16.4876ZM21.7618 8.43599H22.7618V7.20512L21.557 7.45718L21.7618 8.43599ZM21.7618 14.5416H20.7618V15.5416H21.7618V14.5416ZM36.3062 15.6303L37.0151 16.3355L37.3062 16.043V15.6303H36.3062ZM28.5492 23.4278L27.8402 22.7225L27.7265 22.8368L27.6545 22.9811L28.5492 23.4278ZM28.5639 23.5013L28.1161 24.3955L28.1581 24.4165L28.2019 24.4335L28.5639 23.5013ZM49.4287 25C49.4287 38.2561 38.6981 48.9999 25.4643 48.9999V50.9999C39.8054 50.9999 51.4287 39.358 51.4287 25H49.4287ZM25.4643 1C38.6981 1 49.4287 11.7438 49.4287 25H51.4287C51.4287 10.6419 39.8054 -1 25.4643 -1V1ZM1.5 25C1.5 11.7438 12.2305 1 25.4643 1V-1C11.1233 -1 -0.5 10.6419 -0.5 25H1.5ZM25.4643 48.9999C12.2305 48.9999 1.5 38.2561 1.5 25H-0.5C-0.5 39.358 11.1233 50.9999 25.4643 50.9999V48.9999ZM38.142 32.4342C37.9533 29.0895 35.8125 26.7089 33.7517 25.1694C31.6788 23.6207 29.5254 22.7986 28.9905 22.594L28.2759 24.462C28.7764 24.6534 30.7136 25.3962 32.5547 26.7716C34.408 28.1561 36.0048 30.0588 36.1452 32.5469L38.142 32.4342ZM27.8176 42.0382C30.45 41.9916 32.4583 41.4011 33.9784 40.4847C35.5009 39.5667 36.4775 38.3554 37.0958 37.1566C37.7099 35.966 37.969 34.7923 38.0767 33.9245C38.1309 33.4884 38.1476 33.1229 38.1506 32.8618C38.1521 32.7311 38.1501 32.626 38.1475 32.5506C38.1462 32.5129 38.1448 32.4826 38.1436 32.4601C38.143 32.4489 38.1424 32.4397 38.1419 32.4325C38.1417 32.4289 38.1415 32.4258 38.1413 32.4232C38.1412 32.4219 38.1412 32.4208 38.1411 32.4197C38.141 32.4192 38.141 32.4185 38.141 32.4183C38.1409 32.4176 38.1409 32.417 37.1436 32.4905C36.1463 32.564 36.1463 32.5635 36.1462 32.563C36.1462 32.5629 36.1462 32.5624 36.1462 32.5621C36.1461 32.5616 36.1461 32.5612 36.1461 32.5609C36.146 32.5604 36.146 32.5603 36.1461 32.5607C36.1461 32.5616 36.1463 32.5643 36.1465 32.569C36.147 32.5782 36.1479 32.595 36.1487 32.6186C36.1503 32.6659 36.1518 32.7408 36.1507 32.8393C36.1485 33.0367 36.1356 33.3266 36.092 33.6781C36.0042 34.3854 35.795 35.3156 35.3183 36.2398C34.8457 37.156 34.109 38.0705 32.9457 38.7719C31.78 39.4747 30.1302 39.9969 27.7822 40.0385L27.8176 42.0382ZM19.6609 35.9479C18.6672 35.8364 18.6671 35.8372 18.667 35.8381C18.667 35.8384 18.6669 35.8392 18.6668 35.8399C18.6667 35.8411 18.6665 35.8424 18.6664 35.8438C18.6661 35.8466 18.6658 35.8497 18.6654 35.8532C18.6647 35.8601 18.664 35.8684 18.6631 35.8779C18.6615 35.8969 18.6597 35.9211 18.6581 35.9501C18.6548 36.008 18.6521 36.0854 18.6528 36.1795C18.654 36.3673 18.6686 36.6245 18.719 36.928C18.8199 37.5347 19.0671 38.3403 19.6507 39.1385C20.8516 40.781 23.2573 42.1151 27.8168 42.0382L27.7831 40.0385C23.616 40.1088 21.9522 38.8977 21.2652 37.9581C20.9049 37.4653 20.7536 36.9707 20.6919 36.6C20.6611 36.4148 20.6534 36.2639 20.6527 36.1659C20.6524 36.117 20.6538 36.0821 20.6549 36.0633C20.6554 36.054 20.6558 36.0488 20.6559 36.048C20.6559 36.0476 20.6559 36.0483 20.6557 36.0502C20.6556 36.0512 20.6555 36.0524 20.6553 36.0539C20.6552 36.0547 20.6551 36.0555 20.655 36.0565C20.655 36.0569 20.6549 36.0577 20.6549 36.0579C20.6548 36.0586 20.6547 36.0594 19.6609 35.9479ZM21.9381 32.7558C20.1745 32.7558 18.6609 34.1525 18.6609 35.9479H20.6609C20.6609 35.3306 21.2041 34.7558 21.9381 34.7558V32.7558ZM25.2152 35.9479C25.2152 35.1465 24.9695 34.3326 24.381 33.7116C23.7823 33.0799 22.9313 32.7558 21.9381 32.7558V34.7558C22.4875 34.7558 22.7751 34.9246 22.9293 35.0873C23.0937 35.2608 23.2152 35.5429 23.2152 35.9479H25.2152ZM23.4998 38.5787C24.4904 38.1258 25.2152 37.1917 25.2152 35.9479H23.2152C23.2152 36.3224 23.0292 36.5947 22.6682 36.7598L23.4998 38.5787ZM23.9199 37.3697C24.0346 37.5993 24.0471 37.8771 23.9409 38.1252C23.8432 38.3535 23.6753 38.4916 23.5317 38.5634L22.6363 36.7751C22.434 36.8764 22.222 37.0586 22.1022 37.3383C21.974 37.638 21.9865 37.9746 22.1306 38.2631L23.9199 37.3697ZM27.8146 39.2729C27.7713 38.2738 27.7715 38.2738 27.7716 38.2738C27.7717 38.2738 27.7718 38.2738 27.7719 38.2738C27.772 38.2738 27.7721 38.2738 27.7721 38.2738C27.7722 38.2738 27.772 38.2738 27.7716 38.2738C27.7707 38.2739 27.7689 38.2739 27.7661 38.274C27.7607 38.2742 27.7515 38.2745 27.7389 38.2749C27.7137 38.2757 27.6747 38.2767 27.6238 38.2774C27.5218 38.2789 27.3726 38.2794 27.1903 38.2752C26.8231 38.2668 26.3344 38.2398 25.8329 38.1673C25.3229 38.0936 24.8467 37.9795 24.4811 37.8181C24.1008 37.6502 23.9753 37.4924 23.9403 37.413L22.1102 38.2197C22.4351 38.9568 23.0883 39.3894 23.6735 39.6477C24.2734 39.9126 24.9495 40.0604 25.5469 40.1468C26.1527 40.2343 26.7264 40.2652 27.1447 40.2747C27.3552 40.2795 27.5295 40.279 27.6529 40.2772C27.7146 40.2763 27.7638 40.2751 27.7986 40.274C27.8159 40.2735 27.8297 40.273 27.8397 40.2727C27.8447 40.2725 27.8487 40.2723 27.8518 40.2722C27.8533 40.2721 27.8546 40.2721 27.8556 40.2721C27.8561 40.272 27.8566 40.272 27.857 40.272C27.8572 40.272 27.8574 40.272 27.8575 40.272C27.8577 40.272 27.858 40.272 27.8146 39.2729ZM33.2945 32.6229C32.3014 32.7402 32.3013 32.7397 32.3013 32.7393C32.3012 32.7392 32.3012 32.7387 32.3012 32.7385C32.3011 32.7381 32.3011 32.7377 32.301 32.7374C32.301 32.7369 32.301 32.7367 32.301 32.7369C32.301 32.7372 32.3012 32.739 32.3015 32.7421C32.3022 32.7484 32.3033 32.7602 32.3048 32.7772C32.3076 32.8112 32.3116 32.8656 32.315 32.9376C32.3217 33.082 32.3257 33.295 32.3133 33.5542C32.2882 34.078 32.1975 34.7617 31.9467 35.4421C31.6976 36.1177 31.2995 36.7681 30.6682 37.2727C30.0427 37.7726 29.1248 38.1806 27.7461 38.2752L27.8831 40.2705C29.6117 40.1519 30.9323 39.622 31.9169 38.835C32.8957 38.0527 33.4791 37.0673 33.8232 36.1338C34.1656 35.205 34.2796 34.3062 34.311 33.6498C34.3268 33.3189 34.322 33.0423 34.3128 32.8448C34.3082 32.7458 34.3025 32.6661 34.2976 32.6087C34.2952 32.58 34.293 32.5568 34.2912 32.5395C34.2904 32.5309 34.2896 32.5237 34.289 32.5181C34.2887 32.5152 34.2884 32.5128 34.2882 32.5107C34.288 32.5097 34.2879 32.5088 34.2878 32.5079C34.2878 32.5075 34.2877 32.507 34.2877 32.5068C34.2876 32.5062 34.2876 32.5057 33.2945 32.6229ZM24.504 26.7825C27.6938 27.3218 29.647 28.6085 30.7962 29.8418C31.9861 31.1187 32.2945 32.3063 32.2945 32.6229H34.2945C34.2945 31.6596 33.6846 30.0078 32.2594 28.4783C30.7936 26.9052 28.435 25.4187 24.8374 24.8105L24.504 26.7825ZM23.6266 25.7523C23.6266 25.9208 23.6693 26.231 23.93 26.492C24.191 26.7534 24.5015 26.7965 24.6707 26.7965V24.7965C24.8105 24.7965 25.0989 24.8322 25.3452 25.0788C25.5912 25.3252 25.6266 25.6132 25.6266 25.7523H23.6266ZM23.6289 25.6146C23.6282 25.6517 23.6277 25.681 23.6273 25.7015C23.6271 25.7116 23.627 25.72 23.6269 25.7262C23.6268 25.7292 23.6268 25.7322 23.6267 25.7348C23.6267 25.7361 23.6267 25.7378 23.6267 25.7397C23.6267 25.7401 23.6266 25.7457 23.6266 25.7523H25.6266C25.6266 25.7562 25.6266 25.7592 25.6266 25.7601C25.6266 25.7614 25.6265 25.7624 25.6265 25.7628C25.6265 25.7636 25.6265 25.7641 25.6265 25.7637C25.6265 25.7631 25.6266 25.7617 25.6266 25.7592C25.6267 25.7542 25.6268 25.7468 25.627 25.7368C25.6273 25.7168 25.6279 25.6879 25.6285 25.6506L23.6289 25.6146ZM23.6561 23.9719C23.6448 24.7324 23.6334 25.3613 23.6289 25.6146L25.6285 25.6506C25.6331 25.3968 25.6445 24.7654 25.6559 24.0017L23.6561 23.9719ZM31.35 15.8092L23.9456 23.283L25.3664 24.6906L32.7708 17.2168L31.35 15.8092ZM21.7765 17.513H32.0604V15.513H21.7765V17.513ZM22.7765 26.8999V16.513H20.7765V26.8999H22.7765ZM23.9655 28.7393C23.6398 28.7393 23.4566 28.6433 23.333 28.5371C23.1903 28.4146 23.066 28.2229 22.9691 27.9663C22.8732 27.7125 22.8228 27.444 22.7979 27.2288C22.7858 27.1238 22.7804 27.0379 22.7781 26.9813C22.777 26.9531 22.7766 26.9326 22.7765 26.9211C22.7764 26.9153 22.7764 26.9119 22.7764 26.9109C22.7764 26.9104 22.7764 26.9105 22.7764 26.9112C22.7764 26.9116 22.7764 26.9121 22.7764 26.9128C22.7764 26.9132 22.7764 26.9136 22.7764 26.914C22.7764 26.9142 22.7764 26.9146 22.7764 26.9147C22.7764 26.915 22.7764 26.9154 21.7765 26.8999C20.7766 26.8844 20.7766 26.8848 20.7766 26.8852C20.7766 26.8853 20.7766 26.8857 20.7766 26.886C20.7766 26.8866 20.7766 26.8873 20.7766 26.888C20.7765 26.8894 20.7765 26.8909 20.7765 26.8927C20.7765 26.8961 20.7764 26.9003 20.7764 26.9052C20.7764 26.9149 20.7764 26.9274 20.7766 26.9425C20.7769 26.9725 20.7778 27.013 20.7798 27.0625C20.7838 27.1611 20.7925 27.2971 20.8111 27.4583C20.8478 27.7755 20.9258 28.2169 21.0981 28.6729C21.2693 29.1262 21.5527 29.6444 22.0298 30.0542C22.5259 30.4804 23.1747 30.7393 23.9655 30.7393V28.7393ZM25.5258 28.1868C25.0705 28.4907 24.6608 28.6272 24.3793 28.689C24.238 28.72 24.129 28.7321 24.0633 28.7369C24.0304 28.7392 24.0087 28.7397 23.9994 28.7398C23.9948 28.7398 23.9933 28.7398 23.9951 28.7398C23.9961 28.7398 23.9978 28.7399 24.0005 28.74C24.0018 28.74 24.0033 28.7401 24.0051 28.7401C24.0059 28.7402 24.0069 28.7402 24.0078 28.7402C24.0083 28.7403 24.0088 28.7403 24.0094 28.7403C24.0096 28.7403 24.01 28.7403 24.0102 28.7403C24.0106 28.7404 24.011 28.7404 23.9655 29.7393C23.92 30.7383 23.9204 30.7383 23.9209 30.7383C23.921 30.7384 23.9214 30.7384 23.9217 30.7384C23.9223 30.7384 23.9229 30.7384 23.9235 30.7385C23.9247 30.7385 23.926 30.7386 23.9273 30.7386C23.93 30.7387 23.933 30.7388 23.9361 30.7389C23.9425 30.7391 23.9499 30.7393 23.9582 30.7395C23.9748 30.7398 23.9953 30.7399 24.0194 30.7397C24.0676 30.7392 24.1306 30.7372 24.2065 30.7317C24.3584 30.7208 24.5634 30.6962 24.8078 30.6426C25.2976 30.5351 25.9457 30.3112 26.6363 29.8501L25.5258 28.1868ZM27.081 30.0042V29.0184H25.081V30.0042H27.081ZM26.2102 31.6156C26.7329 31.2667 27.081 30.6849 27.081 30.0042H25.081C25.081 30.0014 25.0814 29.9953 25.0836 29.9871C25.0857 29.9789 25.0889 29.971 25.0927 29.9641C25.1008 29.9495 25.107 29.9474 25.0997 29.9522L26.2102 31.6156ZM23.7059 32.5165C24.6658 32.4411 25.5153 32.068 26.2005 31.622L25.1095 29.9458C24.6194 30.2648 24.0879 30.4803 23.5493 30.5226L23.7059 32.5165ZM17.089 26.5026C17.089 28.2809 17.6633 29.8935 18.8463 31.0206C20.0366 32.1546 21.7223 32.682 23.7108 32.5161L23.5444 30.523C22.007 30.6513 20.9234 30.2371 20.2259 29.5726C19.521 28.901 19.089 27.8581 19.089 26.5026H17.089ZM17.089 20.7502V26.5026H19.089V20.7502H17.089ZM17.089 16.513V20.7502H19.089V16.513H17.089ZM13.8432 17.513H18.089V15.513H13.8432V17.513ZM12.8432 14.674V16.513H14.8432V14.674H12.8432ZM13.9901 13.5269C13.6276 13.5269 13.3492 13.6983 13.1815 13.8662C13.0137 14.0343 12.8432 14.3125 12.8432 14.674H14.8432C14.8432 14.9619 14.7095 15.1665 14.5967 15.2794C14.4841 15.3923 14.2791 15.5269 13.9901 15.5269V13.5269ZM18.0743 13.5269H13.9901V15.5269H18.0743V13.5269ZM17.0743 11.6285V14.5269H19.0743V11.6285H17.0743ZM16.7814 10.3339C16.7814 11.3339 16.781 11.3339 16.7805 11.3339C16.7803 11.3339 16.7799 11.3339 16.7795 11.3339C16.7789 11.3339 16.7783 11.3339 16.7777 11.3339C16.7766 11.3339 16.7755 11.3338 16.7744 11.3338C16.7724 11.3338 16.7706 11.3338 16.769 11.3338C16.7659 11.3337 16.7638 11.3337 16.7626 11.3336C16.7603 11.3335 16.7615 11.3335 16.7657 11.3338C16.7744 11.3345 16.7934 11.3362 16.8188 11.3405C16.8744 11.3497 16.9333 11.3664 16.9801 11.3899C17.023 11.4113 17.0357 11.4279 17.0399 11.4342C17.0399 11.4343 17.0743 11.4796 17.0743 11.6285H19.0743C19.0743 11.1302 18.947 10.6899 18.7047 10.3259C18.4665 9.9681 18.1559 9.7419 17.8756 9.60153C17.5992 9.46313 17.3349 9.39892 17.1481 9.36774C17.0523 9.35176 16.9703 9.34338 16.9083 9.33895C16.8772 9.33672 16.8506 9.33545 16.8293 9.33474C16.8187 9.33438 16.8093 9.33417 16.8013 9.33404C16.7973 9.33397 16.7936 9.33393 16.7903 9.3339C16.7887 9.33389 16.7871 9.33388 16.7856 9.33388C16.7849 9.33387 16.7842 9.33387 16.7835 9.33387C16.7831 9.33387 16.7826 9.33387 16.7824 9.33387C16.7819 9.33387 16.7814 9.33387 16.7814 10.3339ZM16.4876 11.3339H16.7814V9.33387H16.4876V11.3339ZM15.4876 9.5394V10.3339H17.4876V9.5394H15.4876ZM21.557 7.45718L16.2828 8.5606L16.6924 10.5182L21.9666 9.41479L21.557 7.45718ZM22.7618 9.84836V8.43599H20.7618V9.84836H22.7618ZM22.7618 14.5416V9.84836H20.7618V14.5416H22.7618ZM36.0564 13.5416H21.7618V15.5416H36.0564V13.5416ZM37.3062 14.7917C37.3062 14.1083 36.7423 13.5416 36.0564 13.5416V15.5416C35.8241 15.5416 35.6403 15.4407 35.5233 15.3236C35.4063 15.2064 35.3062 15.023 35.3062 14.7917H37.3062ZM37.3062 15.6303V14.7917H35.3062V15.6303H37.3062ZM29.2581 24.133L37.0151 16.3355L35.5972 14.925L27.8402 22.7225L29.2581 24.133ZM29.0116 22.6072C29.2743 22.7387 29.483 22.9998 29.53 23.3289C29.5677 23.5932 29.4854 23.7912 29.4439 23.8745L27.6545 22.9811C27.5982 23.0938 27.5086 23.3212 27.55 23.6113C27.6006 23.9661 27.824 24.2492 28.1161 24.3955L29.0116 22.6072ZM28.9905 22.594C28.9622 22.5832 28.9416 22.5753 28.9259 22.5692L28.2019 24.4335C28.2234 24.4419 28.2492 24.4518 28.2759 24.462L28.9905 22.594Z" fill="#77A4F2" mask="url(#path-2-inside-1_9529_12818)"/>
    </symbol>
    <symbol id="copyToClipboard" viewBox="0 0 15 15">
        <g fill="none">
            <rect width="7" height="7" x="4.5" y="4.5" rx=".5" ry=".5"/>
            <path stroke-linecap="round" d="M2.5 7.5H1A.5.5 0 01.5 7V1A.5.5 0 011 .5h6a.5.5 0 01.5.5v1.5"/>
        </g>
    </symbol>
</svg>