<!-- "display: none" ensures the SVG doesn't take up space even though it's not being shown because of the use of symbol -->
<svg xmlns="http://www.w3.org/2000/svg" style="display:none;">
    <symbol id="twitter" viewBox="0 0 32 32">
        <g id="Outline_Icons">
            <path
        d="M28.75 9.49999C28.75 9.74999 28.75 10.063 28.75 10.313C28.75 19.001 22.125 29.001 10.062 29.001C6.37402 29.001 2.87402 27.938 -0.000976562 26.063C0.499023 26.126 1.06202 26.126 1.56202 26.126C4.62502 26.126 7.50002 25.126 9.75002 23.313C6.87502 23.313 4.43702 21.375 3.56202 18.75C4.00002 18.875 4.37502 18.875 4.81202 18.875C5.43702 18.875 6.00002 18.812 6.56202 18.687C3.56202 18.062 1.31202 15.374 1.31202 12.249C1.31202 12.186 1.31202 12.186 1.31202 12.124C2.18702 12.624 3.18702 12.937 4.25002 12.937C2.50002 11.812 1.31202 9.74899 1.31202 7.49899C1.31202 6.31099 1.68702 5.18599 2.25002 4.18599C5.43802 8.18599 10.313 10.811 15.75 11.061C15.625 10.561 15.562 10.061 15.562 9.56099C15.562 5.93599 18.5 2.99799 22.125 2.99799C24.063 2.99799 25.75 3.81099 26.938 5.06099C28.438 4.74799 29.876 4.24799 31.126 3.49799C30.626 4.99799 29.563 6.31099 28.251 7.12299C29.564 6.93499 30.814 6.62299 32.001 6.05999C31.126 7.37299 30.001 8.55999 28.751 9.49799L28.75 9.49999Z"
      />
        </g>
        <g id="Invisible_Shape">
            <rect  stroke="none" width="32" height="32" />
        </g>
    </symbol>
    <symbol id="linkedin" viewBox="0 0 32 32">
        <g id="Outline_Icons">
            <path
        d="M22.9451 14.3285C22.5619 13.8893 21.9056 13.6697 20.9764 13.6697C19.7733 13.6697 18.9526 14.0545 18.4609 14.7132C17.9683 15.4273 17.7495 16.4155 17.7495 17.6776V27.285C17.7495 27.4502 17.6944 27.6144 17.5308 27.7795C17.4214 27.8893 17.2027 27.9991 17.0382 27.9991H12.0071C11.8426 27.9991 11.6789 27.8893 11.5145 27.7795C11.4051 27.6144 11.2957 27.4502 11.2957 27.285V9.55292C11.2957 9.38779 11.4051 9.22354 11.5145 9.05841C11.6789 8.94862 11.8426 8.83882 12.0071 8.83882H16.8745C17.039 8.83882 17.2027 8.89416 17.312 8.94862C17.4214 9.00307 17.4765 9.1682 17.5308 9.33333C17.5308 9.49846 17.5859 9.66271 17.5859 9.71805C17.5859 9.77339 17.5859 9.93764 17.5859 10.1572C18.8441 8.9495 20.5389 8.40053 22.5627 8.40053C24.9147 8.40053 26.7189 8.94949 28.0313 10.1028C29.3438 11.3105 30 13.0127 30 15.3184V27.2859C30 27.451 29.9449 27.6153 29.7813 27.7804C29.6719 27.8902 29.4531 28 29.2886 28H24.1482C23.9837 28 23.8201 27.8902 23.6556 27.7804C23.5462 27.6153 23.4368 27.451 23.4368 27.2859V16.4708C23.4368 15.5371 23.2723 14.8239 22.9442 14.3294L22.9451 14.3285ZM7.79669 5.81994C7.14046 6.4787 6.31974 6.80808 5.39052 6.80808C4.4613 6.80808 3.64057 6.4787 2.98434 5.81994C2.32811 5.16118 2 4.39262 2 3.40448C2 2.47079 2.32811 1.70224 2.98434 1.04348C3.64057 0.384717 4.4613 0 5.39052 0C6.32062 0 7.14046 0.384717 7.79669 1.04348C8.45292 1.70224 8.78104 2.47079 8.78104 3.40448C8.78104 4.39262 8.45292 5.16118 7.79669 5.81994ZM8.61742 9.55292V27.285C8.61742 27.4502 8.50805 27.6144 8.39868 27.7795C8.23418 27.8893 8.07056 27.9991 7.90607 27.9991H2.87497C2.71048 27.9991 2.54686 27.8893 2.38236 27.7795C2.27299 27.6144 2.16362 27.4502 2.16362 27.285V9.55292C2.16362 9.38779 2.27299 9.22354 2.38236 9.05841C2.54686 8.94862 2.71048 8.83882 2.87497 8.83882H7.90607C8.07056 8.83882 8.23418 8.94862 8.39868 9.05841C8.50805 9.22354 8.61742 9.38779 8.61742 9.55292V9.55292Z"
      />
        </g>
        <g id="Invisible_Shape">
            <rect  stroke="none" width="32" height="32" />
        </g>
    </symbol>
    <symbol id="telegram" viewBox="0 0 32 32">
        <g id="Outline_Icons">
            <path
        d="M29.6882 2.50002L1.25022 13.625C1.25022 13.625 -0.124778 14.063 0.000221526 14.938C0.125222 15.813 1.18822 16.188 1.18822 16.188L8.25122 18.563C8.81422 20.376 10.5012 26.188 10.8142 27.313C11.1892 28.563 11.4392 28.813 11.6272 28.876C11.6902 28.876 11.7522 28.876 11.7522 28.876C12.2522 28.939 12.6272 28.626 12.6272 28.626L17.1272 24.188L24.2522 29.626C26.1902 30.439 26.9402 28.688 26.9402 28.688L32.0032 3.18802C32.0032 1.50002 29.6902 2.50002 29.6902 2.50002H29.6882ZM26.1252 8.31302C25.6252 8.75102 13.8122 19.563 12.6252 20.688L11.9372 26.563C11.8742 27.126 11.3742 27.126 11.1242 26.688C10.6242 25.063 9.43622 20.75 8.81122 18.813L25.5612 7.68802C25.5612 7.68802 26.4992 7.06302 26.4992 7.68802C26.4992 7.68802 26.4992 7.93802 26.1242 8.31302H26.1252Z"
      />
        </g>
        <g id="Invisible_Shape">
            <rect  stroke="none" width="32" height="32" />
        </g>
    </symbol>
    <symbol id="medium" viewBox="0 0 32 32">
        <g id="Outline_Icons">
            <path
        d="M3.79458 8.18247C3.83434 7.78966 3.68454 7.4014 3.39122 7.13702L0.403361 3.53766V3H9.68067L16.8515 18.7266L23.1559 3H32V3.53766L29.4454 5.98702C29.2251 6.15489 29.1159 6.43081 29.1615 6.7039V24.7007C29.1159 24.9738 29.2251 25.2497 29.4454 25.4176L31.9402 27.8669V28.4046H19.3912V27.8669L21.9757 25.3578C22.2297 25.1039 22.2297 25.0293 22.2297 24.6409V10.0942L15.0439 28.3448H14.0728L5.70682 10.0942V22.326C5.63706 22.8403 5.80786 23.358 6.16993 23.7299L9.53128 27.8072V28.3448H0V27.8072L3.36134 23.7299C3.72079 23.3574 3.88162 22.8362 3.79458 22.326V8.18247Z"
      />
        </g>
        <g id="Invisible_Shape">
            <rect  stroke="none" width="32" height="32" />
        </g>
    </symbol>
    <symbol id="close" viewBox="0 0 24 24">
        <g id="Outline_Icons">
            <line class="a" x1="0.75" y1="23.249" x2="23.25" y2="0.749" />
            <line class="a" x1="23.25" y1="23.249" x2="0.75" y2="0.749" />
        </g>
        <g id="Invisible_Shape">
            <rect  stroke="none" width="24" height="24" />
        </g>
    </symbol>
    <symbol id="discord" viewBox="0 0 27 27">
        <g id="Outline_Icons">
            <path
        d="M22.8715 4.75875C21.1237 3.93713 19.255 3.34 17.3013 3C17.0613 3.43587 16.781 4.02214 16.5878 4.4885C14.5108 4.17468 12.453 4.17468 10.4143 4.4885C10.2211 4.02214 9.93438 3.43587 9.69228 3C7.73642 3.34 5.86548 3.93932 4.11771 4.7631C0.592473 10.1155 -0.363162 15.335 0.114656 20.4804C2.45278 22.2348 4.71871 23.3004 6.94639 23.9979C7.49643 23.2373 7.98697 22.4288 8.40957 21.5766C7.60471 21.2693 6.83385 20.89 6.10547 20.4499C6.2987 20.3061 6.48771 20.1556 6.67033 20.001C11.113 22.0887 15.94 22.0887 20.3296 20.001C20.5143 20.1556 20.7033 20.3061 20.8944 20.4499C20.1639 20.8923 19.391 21.2715 18.5861 21.5788C19.0088 22.4287 19.4972 23.2395 20.0493 24C22.2791 23.3027 24.5471 22.2369 26.8853 20.4804C27.446 14.5156 25.9275 9.34404 22.8715 4.75875ZM9.01482 17.316C7.68119 17.316 6.58749 16.0651 6.58749 14.5417C6.58749 13.0184 7.65783 11.7653 9.01482 11.7653C10.3719 11.7653 11.4655 13.0162 11.4421 14.5417C11.4443 16.0651 10.3719 17.316 9.01482 17.316ZM17.9851 17.316C16.6515 17.316 15.5577 16.0651 15.5577 14.5417C15.5577 13.0184 16.6281 11.7653 17.9851 11.7653C19.342 11.7653 20.4357 13.0162 20.4125 14.5417C20.4125 16.0651 19.342 17.316 17.9851 17.316Z"
      />
        </g>
        <g id="Invisible_Shape">
            <rect  stroke="none" width="27" height="27" />
        </g>
    </symbol>
    <symbol id="xxx" viewBox="0 0 24 24">
        <g id="Outline_Icons">

        </g>
        <g id="Invisible_Shape">
            <rect  stroke="none" width="24" height="24" />
        </g>
    </symbol>
    <symbol id="calc" viewBox="0 0 30 30">
        <path
      fill-rule="evenodd"
      clip-rule="evenodd"
      d="M3.83208 0.875C2.19894 0.875 0.875 2.19894 0.875 3.83208V15V26.1679C0.875 27.8011 2.19894 29.125 3.83208 29.125H15H26.1679C27.8011 29.125 29.125 27.8011 29.125 26.1679V15V3.83208C29.125 2.19894 27.8011 0.875 26.1679 0.875H15H3.83208ZM2.875 26.1679V16H14V27.125H3.83208C3.3035 27.125 2.875 26.6965 2.875 26.1679ZM2.875 3.83208V14H14V2.875H3.83208C3.3035 2.875 2.875 3.3035 2.875 3.83208ZM16 16H27.125V26.1679C27.125 26.6965 26.6965 27.125 26.1679 27.125H16V16ZM16 14H27.125V3.83208C27.125 3.3035 26.6965 2.875 26.1679 2.875H16V14ZM9.1875 6.25C9.1875 5.83579 8.85171 5.5 8.4375 5.5C8.02329 5.5 7.6875 5.83579 7.6875 6.25V7.6875H6.25C5.83579 7.6875 5.5 8.02329 5.5 8.4375C5.5 8.85171 5.83579 9.1875 6.25 9.1875H7.6875V10.625C7.6875 11.0392 8.02329 11.375 8.4375 11.375C8.85171 11.375 9.1875 11.0392 9.1875 10.625V9.1875H10.625C11.0392 9.1875 11.375 8.85171 11.375 8.4375C11.375 8.02329 11.0392 7.6875 10.625 7.6875H9.1875V6.25ZM11.1553 19.9053C11.4482 19.6124 11.4482 19.1376 11.1553 18.8447C10.8624 18.5518 10.3876 18.5518 10.0947 18.8447L8.4375 20.5018L6.78033 18.8447C6.48744 18.5518 6.01256 18.5518 5.71967 18.8447C5.42678 19.1376 5.42678 19.6124 5.71967 19.9053L7.37684 21.5625L5.71967 23.2197C5.42678 23.5126 5.42678 23.9874 5.71967 24.2803C6.01256 24.5732 6.48744 24.5732 6.78033 24.2803L8.4375 22.6232L10.0947 24.2803C10.3876 24.5732 10.8624 24.5732 11.1553 24.2803C11.4482 23.9874 11.4482 23.5126 11.1553 23.2197L9.49816 21.5625L11.1553 19.9053ZM19.375 7.6875C18.9608 7.6875 18.625 8.02329 18.625 8.4375C18.625 8.85171 18.9608 9.1875 19.375 9.1875H23.75C24.1642 9.1875 24.5 8.85171 24.5 8.4375C24.5 8.02329 24.1642 7.6875 23.75 7.6875H19.375ZM18.625 19.375C18.625 18.9608 18.9608 18.625 19.375 18.625H23.75C24.1642 18.625 24.5 18.9608 24.5 19.375C24.5 19.7892 24.1642 20.125 23.75 20.125H19.375C18.9608 20.125 18.625 19.7892 18.625 19.375ZM19.375 23C18.9608 23 18.625 23.3358 18.625 23.75C18.625 24.1642 18.9608 24.5 19.375 24.5H23.75C24.1642 24.5 24.5 24.1642 24.5 23.75C24.5 23.3358 24.1642 23 23.75 23H19.375Z"
    />
    </symbol>
    <symbol id="linkedin-round" viewBox="0 0 35 35">
        <path
      fill-rule="evenodd"
      clip-rule="evenodd"
      d="M1 17.4998C1 8.38696 8.3877 0.999756 17.5 0.999756C26.6123 0.999756 34 8.38696 34 17.4998C34 26.6125 26.6123 33.9998 17.5 33.9998C8.3877 33.9998 1 26.6125 1 17.4998ZM17.5 -0.000244141C7.83496 -0.000244141 0 7.83472 0 17.4998C0 27.1648 7.83496 34.9998 17.5 34.9998C27.165 34.9998 35 27.1648 35 17.4998C35 7.83472 27.165 -0.000244141 17.5 -0.000244141ZM27.9561 26.1228V18.908C27.9561 15.0444 25.8926 13.2463 23.1406 13.2463C20.918 13.2463 19.9268 14.469 19.3711 15.3245V13.5417H15.1875C15.2432 14.7217 15.1875 26.1226 15.1875 26.1226H19.3701V19.0959C19.3701 18.719 19.3994 18.3455 19.5088 18.0767C19.8125 17.3242 20.499 16.5471 21.6543 16.5471C23.1689 16.5471 23.7734 17.7014 23.7734 19.3914V26.1228H27.9561ZM19.3711 15.3245V15.3657H19.3428C19.3506 15.3523 19.3623 15.3384 19.3711 15.3245ZM8.44434 9.65063C8.44434 8.4165 9.37988 7.47729 10.8115 7.47729C12.2422 7.47729 13.1221 8.4165 13.1494 9.65063C13.1494 10.8586 12.2422 11.825 10.7832 11.825H10.7559C9.35352 11.825 8.44434 10.8586 8.44434 9.65063ZM12.874 26.1228H8.69238V13.5417H12.874V26.1228Z"
    />
    </symbol>
    <symbol id="arrow" viewBox="0 0 27 47">
        <path d="M23.7441 3.75L4.96545 23.5L23.7441 43.25" stroke-width="6" stroke-linecap="round" />
    </symbol>
    <symbol id="gitHub" viewBox="0 0 32 32">
        <path
      d="M16 0C7.164 0 0 7.21746 0 16.1194C0 23.6727 5.16267 29.9928 12.1227 31.7418C12.048 31.5242 12 31.2716 12 30.9587V28.2036C11.3507 28.2036 10.2627 28.2036 9.98933 28.2036C8.89467 28.2036 7.92133 27.7294 7.44933 26.8482C6.92533 25.869 6.83467 24.3712 5.536 23.4551C5.15067 23.1502 5.444 22.8022 5.888 22.8493C6.708 23.083 7.388 23.6499 8.028 24.4907C8.66533 25.333 8.96533 25.5237 10.156 25.5237C10.7333 25.5237 11.5973 25.4901 12.4107 25.3612C12.848 24.2422 13.604 23.2119 14.528 22.7257C9.2 22.1736 6.65733 19.5031 6.65733 15.8776C6.65733 14.3167 7.31733 12.8069 8.43867 11.5348C8.07067 10.2721 7.608 7.69702 8.58 6.71642C10.9773 6.71642 12.4267 8.28269 12.7747 8.70582C13.9693 8.29343 15.2813 8.0597 16.66 8.0597C18.0413 8.0597 19.3587 8.29343 20.556 8.70851C20.9 8.28806 22.3507 6.71642 24.7533 6.71642C25.7293 7.69836 25.2613 10.2842 24.8893 11.5442C26.004 12.8136 26.66 14.3194 26.66 15.8776C26.66 19.5004 24.1213 22.1696 18.8013 22.7243C20.2653 23.494 21.3333 25.6567 21.3333 27.2861V30.9587C21.3333 31.0984 21.3027 31.1991 21.2867 31.3187C27.5213 29.117 32 23.1528 32 16.1194C32 7.21746 24.836 0 16 0Z"
    />
    </symbol>
    <symbol id="LBLogo" viewBox="0 0 88 50" >
        <path
      fill-rule="evenodd"
      clip-rule="evenodd"
      d="M56.203 41.8998V36.9264H58.2834V41.8998H56.203ZM64.9085 37.1294V41.8998H62.8281V37.1294H64.9085Z"
      fill="#77A4F2"
    />
        <path
      fill-rule="evenodd"
      clip-rule="evenodd"
      d="M68.2401 15.6384H52.989V13.555H70.4912L71.2833 15.2718L65.6292 21.925C66.4974 21.8487 67.4274 21.8787 68.3532 22.0469C71.0241 22.5324 73.749 24.2055 74.6635 27.8394C75.4983 31.0986 74.5427 34.0784 72.489 36.2152C70.4532 38.3333 67.3773 39.5921 63.965 39.5921V37.5088C66.8811 37.5088 69.3921 36.4331 70.9902 34.7704C72.5699 33.1268 73.2953 30.8804 72.6479 28.3551L72.6467 28.3504C71.9786 25.6929 70.0566 24.4739 67.9817 24.0968C66.9314 23.9059 65.8651 23.94 64.9607 24.1217C64.0287 24.309 63.3858 24.6282 63.0881 24.9032L61.5907 23.4625L68.2401 15.6384Z"
      fill="#77A4F2"
    />
        <path
      fill-rule="evenodd"
      clip-rule="evenodd"
      d="M56.4001 7.28877H58.4805V29.923C58.4805 31.8453 60.6119 32.6253 61.7586 31.5102L63.2079 33.0048C60.5971 35.5437 56.4001 33.4817 56.4001 29.923V7.28877ZM63.1241 14.4952V7.28877H65.2045V14.4952H63.1241Z"
      fill="#77A4F2"
    />
        <path
      fill-rule="evenodd"
      clip-rule="evenodd"
      d="M85.4193 25.1931C85.4193 12.6124 75.4654 2.47005 63.3328 2.47005C51.2002 2.47005 41.2464 12.6124 41.2464 25.1931C41.2464 37.7737 51.2002 47.9161 63.3328 47.9161C75.4654 47.9161 85.4193 37.7737 85.4193 25.1931ZM87.4997 25.1931C87.4997 11.5106 76.6625 0.386719 63.3328 0.386719C50.0032 0.386719 39.166 11.5106 39.166 25.1931C39.166 38.8755 50.0032 49.9994 63.3328 49.9994C76.6625 49.9994 87.4997 38.8755 87.4997 25.1931Z"
      fill="#77A4F2"
    />
        <mask id="path-2-inside-1_9529_12818" fill="white">
        <path
        fill-rule="evenodd"
        clip-rule="evenodd"
        d="M25.4643 49.9999C39.2518 49.9999 50.4287 38.8071 50.4287 25C50.4287 11.1929 39.2518 0 25.4643 0C11.6769 0 0.5 11.1929 0.5 25C0.5 38.8071 11.6769 49.9999 25.4643 49.9999ZM28.6332 23.528C29.6686 23.9241 36.8144 26.6577 37.1436 32.4905C37.1436 32.4905 37.7606 40.8618 27.7999 41.0384C19.0733 41.1855 19.6609 35.9479 19.6609 35.9479C19.6609 34.7415 20.6893 33.7558 21.9381 33.7558C23.4807 33.7558 24.2152 34.7415 24.2152 35.9479C24.2152 36.7571 23.7598 37.3603 23.084 37.6693C23.0252 37.6987 22.9959 37.7575 23.0252 37.8164C23.7451 39.4494 27.8146 39.2729 27.8146 39.2729C34.029 38.8462 33.2945 32.6229 33.2945 32.6229C33.2945 31.343 31.4581 26.944 24.6707 25.7965C24.6413 25.7965 24.6266 25.7817 24.6266 25.7523C24.6266 25.749 24.6274 25.707 24.6287 25.6326C24.6333 25.379 24.6446 24.7489 24.656 23.9868L32.0604 16.513H21.7765V26.8999C21.7765 26.8999 21.7324 29.7393 23.9655 29.7393C23.9655 29.7393 24.9351 29.7835 26.081 29.0184V30.0042C26.081 30.3278 25.9194 30.6074 25.655 30.7839C25.0673 31.1664 24.3769 31.4607 23.6276 31.5195C20.1017 31.8138 18.089 29.6364 18.089 26.5026V20.7502V16.513H13.8432V14.674C13.8432 14.6004 13.9166 14.5269 13.9901 14.5269H18.0743V11.6285C18.0743 10.3339 16.7814 10.3339 16.7814 10.3339H16.4876V9.5394L21.7618 8.43599V9.84836V14.5416H36.0564C36.1887 14.5416 36.3062 14.6593 36.3062 14.7917V15.6303L28.5492 23.4278C28.5345 23.4572 28.5345 23.4866 28.5639 23.5013C28.5825 23.5086 28.6057 23.5175 28.6332 23.528Z"
      />
        </mask>
        <path
      fill-rule="evenodd"
      clip-rule="evenodd"
      d="M25.4643 49.9999C39.2518 49.9999 50.4287 38.8071 50.4287 25C50.4287 11.1929 39.2518 0 25.4643 0C11.6769 0 0.5 11.1929 0.5 25C0.5 38.8071 11.6769 49.9999 25.4643 49.9999ZM28.6332 23.528C29.6686 23.9241 36.8144 26.6577 37.1436 32.4905C37.1436 32.4905 37.7606 40.8618 27.7999 41.0384C19.0733 41.1855 19.6609 35.9479 19.6609 35.9479C19.6609 34.7415 20.6893 33.7558 21.9381 33.7558C23.4807 33.7558 24.2152 34.7415 24.2152 35.9479C24.2152 36.7571 23.7598 37.3603 23.084 37.6693C23.0252 37.6987 22.9959 37.7575 23.0252 37.8164C23.7451 39.4494 27.8146 39.2729 27.8146 39.2729C34.029 38.8462 33.2945 32.6229 33.2945 32.6229C33.2945 31.343 31.4581 26.944 24.6707 25.7965C24.6413 25.7965 24.6266 25.7817 24.6266 25.7523C24.6266 25.749 24.6274 25.707 24.6287 25.6326C24.6333 25.379 24.6446 24.7489 24.656 23.9868L32.0604 16.513H21.7765V26.8999C21.7765 26.8999 21.7324 29.7393 23.9655 29.7393C23.9655 29.7393 24.9351 29.7835 26.081 29.0184V30.0042C26.081 30.3278 25.9194 30.6074 25.655 30.7839C25.0673 31.1664 24.3769 31.4607 23.6276 31.5195C20.1017 31.8138 18.089 29.6364 18.089 26.5026V20.7502V16.513H13.8432V14.674C13.8432 14.6004 13.9166 14.5269 13.9901 14.5269H18.0743V11.6285C18.0743 10.3339 16.7814 10.3339 16.7814 10.3339H16.4876V9.5394L21.7618 8.43599V9.84836V14.5416H36.0564C36.1887 14.5416 36.3062 14.6593 36.3062 14.7917V15.6303L28.5492 23.4278C28.5345 23.4572 28.5345 23.4866 28.5639 23.5013C28.5825 23.5086 28.6057 23.5175 28.6332 23.528Z"
      fill="#77A4F2"
    />
        <path
      d="M37.1436 32.4905L36.1452 32.5469L36.1457 32.5555L36.1463 32.564L37.1436 32.4905ZM28.6332 23.528L28.2759 24.462L28.6332 23.528ZM27.7999 41.0384L27.8168 42.0382L27.8176 42.0382L27.7999 41.0384ZM19.6609 35.9479L20.6547 36.0594L20.6609 36.0038V35.9479H19.6609ZM23.084 37.6693L22.6682 36.7598L22.6521 36.7671L22.6363 36.7751L23.084 37.6693ZM23.0252 37.8164L23.9403 37.413L23.9306 37.3911L23.9199 37.3697L23.0252 37.8164ZM27.8146 39.2729L27.858 40.272L27.8705 40.2714L27.8831 40.2705L27.8146 39.2729ZM33.2945 32.6229H32.2945V32.6818L32.3014 32.7402L33.2945 32.6229ZM24.6707 25.7965L24.8374 24.8105L24.7546 24.7965H24.6707V25.7965ZM24.6287 25.6326L23.6289 25.6146V25.6146L24.6287 25.6326ZM24.656 23.9868L23.9456 23.283L23.6621 23.5692L23.6561 23.9719L24.656 23.9868ZM32.0604 16.513L32.7708 17.2168L34.4588 15.513H32.0604V16.513ZM21.7765 16.513V15.513H20.7765V16.513H21.7765ZM21.7765 26.8999L22.7764 26.9154L22.7765 26.9076V26.8999H21.7765ZM23.9655 29.7393L24.011 28.7404L23.9882 28.7393H23.9655V29.7393ZM26.081 29.0184H27.081V27.1484L25.5258 28.1868L26.081 29.0184ZM25.655 30.7839L26.2006 31.6221L26.2102 31.6156L25.655 30.7839ZM23.6276 31.5195L23.5493 30.5226L23.5444 30.523L23.6276 31.5195ZM18.089 16.513H19.089V15.513H18.089V16.513ZM13.8432 16.513H12.8432V17.513H13.8432V16.513ZM18.0743 14.5269V15.5269H19.0743V14.5269H18.0743ZM16.4876 10.3339H15.4876V11.3339H16.4876V10.3339ZM16.4876 9.5394L16.2828 8.5606L15.4876 8.72697V9.5394H16.4876ZM21.7618 8.43599H22.7618V7.20512L21.557 7.45718L21.7618 8.43599ZM21.7618 14.5416H20.7618V15.5416H21.7618V14.5416ZM36.3062 15.6303L37.0151 16.3355L37.3062 16.043V15.6303H36.3062ZM28.5492 23.4278L27.8402 22.7225L27.7265 22.8368L27.6545 22.9811L28.5492 23.4278ZM28.5639 23.5013L28.1161 24.3955L28.1581 24.4165L28.2019 24.4335L28.5639 23.5013ZM49.4287 25C49.4287 38.2561 38.6981 48.9999 25.4643 48.9999V50.9999C39.8054 50.9999 51.4287 39.358 51.4287 25H49.4287ZM25.4643 1C38.6981 1 49.4287 11.7438 49.4287 25H51.4287C51.4287 10.6419 39.8054 -1 25.4643 -1V1ZM1.5 25C1.5 11.7438 12.2305 1 25.4643 1V-1C11.1233 -1 -0.5 10.6419 -0.5 25H1.5ZM25.4643 48.9999C12.2305 48.9999 1.5 38.2561 1.5 25H-0.5C-0.5 39.358 11.1233 50.9999 25.4643 50.9999V48.9999ZM38.142 32.4342C37.9533 29.0895 35.8125 26.7089 33.7517 25.1694C31.6788 23.6207 29.5254 22.7986 28.9905 22.594L28.2759 24.462C28.7764 24.6534 30.7136 25.3962 32.5547 26.7716C34.408 28.1561 36.0048 30.0588 36.1452 32.5469L38.142 32.4342ZM27.8176 42.0382C30.45 41.9916 32.4583 41.4011 33.9784 40.4847C35.5009 39.5667 36.4775 38.3554 37.0958 37.1566C37.7099 35.966 37.969 34.7923 38.0767 33.9245C38.1309 33.4884 38.1476 33.1229 38.1506 32.8618C38.1521 32.7311 38.1501 32.626 38.1475 32.5506C38.1462 32.5129 38.1448 32.4826 38.1436 32.4601C38.143 32.4489 38.1424 32.4397 38.1419 32.4325C38.1417 32.4289 38.1415 32.4258 38.1413 32.4232C38.1412 32.4219 38.1412 32.4208 38.1411 32.4197C38.141 32.4192 38.141 32.4185 38.141 32.4183C38.1409 32.4176 38.1409 32.417 37.1436 32.4905C36.1463 32.564 36.1463 32.5635 36.1462 32.563C36.1462 32.5629 36.1462 32.5624 36.1462 32.5621C36.1461 32.5616 36.1461 32.5612 36.1461 32.5609C36.146 32.5604 36.146 32.5603 36.1461 32.5607C36.1461 32.5616 36.1463 32.5643 36.1465 32.569C36.147 32.5782 36.1479 32.595 36.1487 32.6186C36.1503 32.6659 36.1518 32.7408 36.1507 32.8393C36.1485 33.0367 36.1356 33.3266 36.092 33.6781C36.0042 34.3854 35.795 35.3156 35.3183 36.2398C34.8457 37.156 34.109 38.0705 32.9457 38.7719C31.78 39.4747 30.1302 39.9969 27.7822 40.0385L27.8176 42.0382ZM19.6609 35.9479C18.6672 35.8364 18.6671 35.8372 18.667 35.8381C18.667 35.8384 18.6669 35.8392 18.6668 35.8399C18.6667 35.8411 18.6665 35.8424 18.6664 35.8438C18.6661 35.8466 18.6658 35.8497 18.6654 35.8532C18.6647 35.8601 18.664 35.8684 18.6631 35.8779C18.6615 35.8969 18.6597 35.9211 18.6581 35.9501C18.6548 36.008 18.6521 36.0854 18.6528 36.1795C18.654 36.3673 18.6686 36.6245 18.719 36.928C18.8199 37.5347 19.0671 38.3403 19.6507 39.1385C20.8516 40.781 23.2573 42.1151 27.8168 42.0382L27.7831 40.0385C23.616 40.1088 21.9522 38.8977 21.2652 37.9581C20.9049 37.4653 20.7536 36.9707 20.6919 36.6C20.6611 36.4148 20.6534 36.2639 20.6527 36.1659C20.6524 36.117 20.6538 36.0821 20.6549 36.0633C20.6554 36.054 20.6558 36.0488 20.6559 36.048C20.6559 36.0476 20.6559 36.0483 20.6557 36.0502C20.6556 36.0512 20.6555 36.0524 20.6553 36.0539C20.6552 36.0547 20.6551 36.0555 20.655 36.0565C20.655 36.0569 20.6549 36.0577 20.6549 36.0579C20.6548 36.0586 20.6547 36.0594 19.6609 35.9479ZM21.9381 32.7558C20.1745 32.7558 18.6609 34.1525 18.6609 35.9479H20.6609C20.6609 35.3306 21.2041 34.7558 21.9381 34.7558V32.7558ZM25.2152 35.9479C25.2152 35.1465 24.9695 34.3326 24.381 33.7116C23.7823 33.0799 22.9313 32.7558 21.9381 32.7558V34.7558C22.4875 34.7558 22.7751 34.9246 22.9293 35.0873C23.0937 35.2608 23.2152 35.5429 23.2152 35.9479H25.2152ZM23.4998 38.5787C24.4904 38.1258 25.2152 37.1917 25.2152 35.9479H23.2152C23.2152 36.3224 23.0292 36.5947 22.6682 36.7598L23.4998 38.5787ZM23.9199 37.3697C24.0346 37.5993 24.0471 37.8771 23.9409 38.1252C23.8432 38.3535 23.6753 38.4916 23.5317 38.5634L22.6363 36.7751C22.434 36.8764 22.222 37.0586 22.1022 37.3383C21.974 37.638 21.9865 37.9746 22.1306 38.2631L23.9199 37.3697ZM27.8146 39.2729C27.7713 38.2738 27.7715 38.2738 27.7716 38.2738C27.7717 38.2738 27.7718 38.2738 27.7719 38.2738C27.772 38.2738 27.7721 38.2738 27.7721 38.2738C27.7722 38.2738 27.772 38.2738 27.7716 38.2738C27.7707 38.2739 27.7689 38.2739 27.7661 38.274C27.7607 38.2742 27.7515 38.2745 27.7389 38.2749C27.7137 38.2757 27.6747 38.2767 27.6238 38.2774C27.5218 38.2789 27.3726 38.2794 27.1903 38.2752C26.8231 38.2668 26.3344 38.2398 25.8329 38.1673C25.3229 38.0936 24.8467 37.9795 24.4811 37.8181C24.1008 37.6502 23.9753 37.4924 23.9403 37.413L22.1102 38.2197C22.4351 38.9568 23.0883 39.3894 23.6735 39.6477C24.2734 39.9126 24.9495 40.0604 25.5469 40.1468C26.1527 40.2343 26.7264 40.2652 27.1447 40.2747C27.3552 40.2795 27.5295 40.279 27.6529 40.2772C27.7146 40.2763 27.7638 40.2751 27.7986 40.274C27.8159 40.2735 27.8297 40.273 27.8397 40.2727C27.8447 40.2725 27.8487 40.2723 27.8518 40.2722C27.8533 40.2721 27.8546 40.2721 27.8556 40.2721C27.8561 40.272 27.8566 40.272 27.857 40.272C27.8572 40.272 27.8574 40.272 27.8575 40.272C27.8577 40.272 27.858 40.272 27.8146 39.2729ZM33.2945 32.6229C32.3014 32.7402 32.3013 32.7397 32.3013 32.7393C32.3012 32.7392 32.3012 32.7387 32.3012 32.7385C32.3011 32.7381 32.3011 32.7377 32.301 32.7374C32.301 32.7369 32.301 32.7367 32.301 32.7369C32.301 32.7372 32.3012 32.739 32.3015 32.7421C32.3022 32.7484 32.3033 32.7602 32.3048 32.7772C32.3076 32.8112 32.3116 32.8656 32.315 32.9376C32.3217 33.082 32.3257 33.295 32.3133 33.5542C32.2882 34.078 32.1975 34.7617 31.9467 35.4421C31.6976 36.1177 31.2995 36.7681 30.6682 37.2727C30.0427 37.7726 29.1248 38.1806 27.7461 38.2752L27.8831 40.2705C29.6117 40.1519 30.9323 39.622 31.9169 38.835C32.8957 38.0527 33.4791 37.0673 33.8232 36.1338C34.1656 35.205 34.2796 34.3062 34.311 33.6498C34.3268 33.3189 34.322 33.0423 34.3128 32.8448C34.3082 32.7458 34.3025 32.6661 34.2976 32.6087C34.2952 32.58 34.293 32.5568 34.2912 32.5395C34.2904 32.5309 34.2896 32.5237 34.289 32.5181C34.2887 32.5152 34.2884 32.5128 34.2882 32.5107C34.288 32.5097 34.2879 32.5088 34.2878 32.5079C34.2878 32.5075 34.2877 32.507 34.2877 32.5068C34.2876 32.5062 34.2876 32.5057 33.2945 32.6229ZM24.504 26.7825C27.6938 27.3218 29.647 28.6085 30.7962 29.8418C31.9861 31.1187 32.2945 32.3063 32.2945 32.6229H34.2945C34.2945 31.6596 33.6846 30.0078 32.2594 28.4783C30.7936 26.9052 28.435 25.4187 24.8374 24.8105L24.504 26.7825ZM23.6266 25.7523C23.6266 25.9208 23.6693 26.231 23.93 26.492C24.191 26.7534 24.5015 26.7965 24.6707 26.7965V24.7965C24.8105 24.7965 25.0989 24.8322 25.3452 25.0788C25.5912 25.3252 25.6266 25.6132 25.6266 25.7523H23.6266ZM23.6289 25.6146C23.6282 25.6517 23.6277 25.681 23.6273 25.7015C23.6271 25.7116 23.627 25.72 23.6269 25.7262C23.6268 25.7292 23.6268 25.7322 23.6267 25.7348C23.6267 25.7361 23.6267 25.7378 23.6267 25.7397C23.6267 25.7401 23.6266 25.7457 23.6266 25.7523H25.6266C25.6266 25.7562 25.6266 25.7592 25.6266 25.7601C25.6266 25.7614 25.6265 25.7624 25.6265 25.7628C25.6265 25.7636 25.6265 25.7641 25.6265 25.7637C25.6265 25.7631 25.6266 25.7617 25.6266 25.7592C25.6267 25.7542 25.6268 25.7468 25.627 25.7368C25.6273 25.7168 25.6279 25.6879 25.6285 25.6506L23.6289 25.6146ZM23.6561 23.9719C23.6448 24.7324 23.6334 25.3613 23.6289 25.6146L25.6285 25.6506C25.6331 25.3968 25.6445 24.7654 25.6559 24.0017L23.6561 23.9719ZM31.35 15.8092L23.9456 23.283L25.3664 24.6906L32.7708 17.2168L31.35 15.8092ZM21.7765 17.513H32.0604V15.513H21.7765V17.513ZM22.7765 26.8999V16.513H20.7765V26.8999H22.7765ZM23.9655 28.7393C23.6398 28.7393 23.4566 28.6433 23.333 28.5371C23.1903 28.4146 23.066 28.2229 22.9691 27.9663C22.8732 27.7125 22.8228 27.444 22.7979 27.2288C22.7858 27.1238 22.7804 27.0379 22.7781 26.9813C22.777 26.9531 22.7766 26.9326 22.7765 26.9211C22.7764 26.9153 22.7764 26.9119 22.7764 26.9109C22.7764 26.9104 22.7764 26.9105 22.7764 26.9112C22.7764 26.9116 22.7764 26.9121 22.7764 26.9128C22.7764 26.9132 22.7764 26.9136 22.7764 26.914C22.7764 26.9142 22.7764 26.9146 22.7764 26.9147C22.7764 26.915 22.7764 26.9154 21.7765 26.8999C20.7766 26.8844 20.7766 26.8848 20.7766 26.8852C20.7766 26.8853 20.7766 26.8857 20.7766 26.886C20.7766 26.8866 20.7766 26.8873 20.7766 26.888C20.7765 26.8894 20.7765 26.8909 20.7765 26.8927C20.7765 26.8961 20.7764 26.9003 20.7764 26.9052C20.7764 26.9149 20.7764 26.9274 20.7766 26.9425C20.7769 26.9725 20.7778 27.013 20.7798 27.0625C20.7838 27.1611 20.7925 27.2971 20.8111 27.4583C20.8478 27.7755 20.9258 28.2169 21.0981 28.6729C21.2693 29.1262 21.5527 29.6444 22.0298 30.0542C22.5259 30.4804 23.1747 30.7393 23.9655 30.7393V28.7393ZM25.5258 28.1868C25.0705 28.4907 24.6608 28.6272 24.3793 28.689C24.238 28.72 24.129 28.7321 24.0633 28.7369C24.0304 28.7392 24.0087 28.7397 23.9994 28.7398C23.9948 28.7398 23.9933 28.7398 23.9951 28.7398C23.9961 28.7398 23.9978 28.7399 24.0005 28.74C24.0018 28.74 24.0033 28.7401 24.0051 28.7401C24.0059 28.7402 24.0069 28.7402 24.0078 28.7402C24.0083 28.7403 24.0088 28.7403 24.0094 28.7403C24.0096 28.7403 24.01 28.7403 24.0102 28.7403C24.0106 28.7404 24.011 28.7404 23.9655 29.7393C23.92 30.7383 23.9204 30.7383 23.9209 30.7383C23.921 30.7384 23.9214 30.7384 23.9217 30.7384C23.9223 30.7384 23.9229 30.7384 23.9235 30.7385C23.9247 30.7385 23.926 30.7386 23.9273 30.7386C23.93 30.7387 23.933 30.7388 23.9361 30.7389C23.9425 30.7391 23.9499 30.7393 23.9582 30.7395C23.9748 30.7398 23.9953 30.7399 24.0194 30.7397C24.0676 30.7392 24.1306 30.7372 24.2065 30.7317C24.3584 30.7208 24.5634 30.6962 24.8078 30.6426C25.2976 30.5351 25.9457 30.3112 26.6363 29.8501L25.5258 28.1868ZM27.081 30.0042V29.0184H25.081V30.0042H27.081ZM26.2102 31.6156C26.7329 31.2667 27.081 30.6849 27.081 30.0042H25.081C25.081 30.0014 25.0814 29.9953 25.0836 29.9871C25.0857 29.9789 25.0889 29.971 25.0927 29.9641C25.1008 29.9495 25.107 29.9474 25.0997 29.9522L26.2102 31.6156ZM23.7059 32.5165C24.6658 32.4411 25.5153 32.068 26.2005 31.622L25.1095 29.9458C24.6194 30.2648 24.0879 30.4803 23.5493 30.5226L23.7059 32.5165ZM17.089 26.5026C17.089 28.2809 17.6633 29.8935 18.8463 31.0206C20.0366 32.1546 21.7223 32.682 23.7108 32.5161L23.5444 30.523C22.007 30.6513 20.9234 30.2371 20.2259 29.5726C19.521 28.901 19.089 27.8581 19.089 26.5026H17.089ZM17.089 20.7502V26.5026H19.089V20.7502H17.089ZM17.089 16.513V20.7502H19.089V16.513H17.089ZM13.8432 17.513H18.089V15.513H13.8432V17.513ZM12.8432 14.674V16.513H14.8432V14.674H12.8432ZM13.9901 13.5269C13.6276 13.5269 13.3492 13.6983 13.1815 13.8662C13.0137 14.0343 12.8432 14.3125 12.8432 14.674H14.8432C14.8432 14.9619 14.7095 15.1665 14.5967 15.2794C14.4841 15.3923 14.2791 15.5269 13.9901 15.5269V13.5269ZM18.0743 13.5269H13.9901V15.5269H18.0743V13.5269ZM17.0743 11.6285V14.5269H19.0743V11.6285H17.0743ZM16.7814 10.3339C16.7814 11.3339 16.781 11.3339 16.7805 11.3339C16.7803 11.3339 16.7799 11.3339 16.7795 11.3339C16.7789 11.3339 16.7783 11.3339 16.7777 11.3339C16.7766 11.3339 16.7755 11.3338 16.7744 11.3338C16.7724 11.3338 16.7706 11.3338 16.769 11.3338C16.7659 11.3337 16.7638 11.3337 16.7626 11.3336C16.7603 11.3335 16.7615 11.3335 16.7657 11.3338C16.7744 11.3345 16.7934 11.3362 16.8188 11.3405C16.8744 11.3497 16.9333 11.3664 16.9801 11.3899C17.023 11.4113 17.0357 11.4279 17.0399 11.4342C17.0399 11.4343 17.0743 11.4796 17.0743 11.6285H19.0743C19.0743 11.1302 18.947 10.6899 18.7047 10.3259C18.4665 9.9681 18.1559 9.7419 17.8756 9.60153C17.5992 9.46313 17.3349 9.39892 17.1481 9.36774C17.0523 9.35176 16.9703 9.34338 16.9083 9.33895C16.8772 9.33672 16.8506 9.33545 16.8293 9.33474C16.8187 9.33438 16.8093 9.33417 16.8013 9.33404C16.7973 9.33397 16.7936 9.33393 16.7903 9.3339C16.7887 9.33389 16.7871 9.33388 16.7856 9.33388C16.7849 9.33387 16.7842 9.33387 16.7835 9.33387C16.7831 9.33387 16.7826 9.33387 16.7824 9.33387C16.7819 9.33387 16.7814 9.33387 16.7814 10.3339ZM16.4876 11.3339H16.7814V9.33387H16.4876V11.3339ZM15.4876 9.5394V10.3339H17.4876V9.5394H15.4876ZM21.557 7.45718L16.2828 8.5606L16.6924 10.5182L21.9666 9.41479L21.557 7.45718ZM22.7618 9.84836V8.43599H20.7618V9.84836H22.7618ZM22.7618 14.5416V9.84836H20.7618V14.5416H22.7618ZM36.0564 13.5416H21.7618V15.5416H36.0564V13.5416ZM37.3062 14.7917C37.3062 14.1083 36.7423 13.5416 36.0564 13.5416V15.5416C35.8241 15.5416 35.6403 15.4407 35.5233 15.3236C35.4063 15.2064 35.3062 15.023 35.3062 14.7917H37.3062ZM37.3062 15.6303V14.7917H35.3062V15.6303H37.3062ZM29.2581 24.133L37.0151 16.3355L35.5972 14.925L27.8402 22.7225L29.2581 24.133ZM29.0116 22.6072C29.2743 22.7387 29.483 22.9998 29.53 23.3289C29.5677 23.5932 29.4854 23.7912 29.4439 23.8745L27.6545 22.9811C27.5982 23.0938 27.5086 23.3212 27.55 23.6113C27.6006 23.9661 27.824 24.2492 28.1161 24.3955L29.0116 22.6072ZM28.9905 22.594C28.9622 22.5832 28.9416 22.5753 28.9259 22.5692L28.2019 24.4335C28.2234 24.4419 28.2492 24.4518 28.2759 24.462L28.9905 22.594Z"
      fill="#77A4F2"
      mask="url(#path-2-inside-1_9529_12818)"
    />
    </symbol>
    <symbol id="copyToClipboard" viewBox="0 0 15 15">
        <g >
            <rect width="7" height="7" x="4.5" y="4.5" rx=".5" ry=".5" />
            <path stroke-linecap="round" d="M2.5 7.5H1A.5.5 0 01.5 7V1A.5.5 0 011 .5h6a.5.5 0 01.5.5v1.5" />
        </g>
    </symbol>
    <symbol id='LBT_transfer' viewBox="0 0 36 36" >
        <circle cx="18" cy="18" r="17.5" fill="#C0DBFF" stroke="#003EE0" />
        <path
      d="M15.9537 18.7253V19.2H14.0903V18.7253H15.9537ZM14.3016 16V19.2H13.6016V17.6V16H14.3016Z"
      fill="#003EE0"
    />
        <path
      d="M17.8425 17.7736H16.8955L16.8904 17.3473H17.7025C17.8416 17.3473 17.9579 17.3304 18.0512 17.2967C18.1445 17.263 18.215 17.2139 18.2625 17.1495C18.3117 17.085 18.3363 17.0066 18.3363 16.9143C18.3363 16.8117 18.3134 16.7282 18.2676 16.6637C18.2234 16.5993 18.1539 16.5524 18.0588 16.5231C17.9638 16.4923 17.8433 16.4769 17.6974 16.4769H17.1221V19.2H16.422V16H17.6974C17.9078 16 18.0953 16.0176 18.2599 16.0527C18.4262 16.0864 18.5671 16.1392 18.6825 16.211C18.7979 16.2828 18.8853 16.3729 18.9447 16.4813C19.0058 16.5897 19.0363 16.7187 19.0363 16.8681C19.0363 17 19.0007 17.1216 18.9294 17.233C18.8598 17.3429 18.7521 17.4322 18.6061 17.5011C18.4619 17.57 18.2786 17.6095 18.0563 17.6198L17.8425 17.7736ZM17.8119 19.2H16.6893L16.9821 18.7253H17.8119C17.9511 18.7253 18.0656 18.7055 18.1556 18.6659C18.2472 18.6264 18.3151 18.5722 18.3592 18.5033C18.405 18.433 18.4279 18.3524 18.4279 18.2615C18.4279 18.1619 18.4076 18.0755 18.3668 18.0022C18.3278 17.9289 18.265 17.8725 18.1785 17.833C18.0936 17.7934 17.9816 17.7736 17.8425 17.7736H17.1144L17.1195 17.3473H18.0461L18.2065 17.5121C18.4203 17.5136 18.5943 17.5502 18.7283 17.622C18.8641 17.6938 18.9642 17.7861 19.0287 17.8989C19.0932 18.0117 19.1254 18.1333 19.1254 18.2637C19.1254 18.4689 19.0737 18.641 18.9701 18.7802C18.8683 18.9194 18.719 19.0242 18.5221 19.0945C18.327 19.1648 18.0902 19.2 17.8119 19.2Z"
      fill="#003EE0"
    />
        <path d="M21.251 16V19.2H20.5535V16H21.251ZM22.4016 16V16.4769H19.4156V16H22.4016Z" fill="#003EE0" />
        <path
      d="M15.484 12.9507C15.3796 11.1208 13.055 10.289 12.8325 10.2036C12.8234 10.1991 12.8234 10.1901 12.828 10.1811L15.2252 7.7982V7.54193C15.2252 7.50146 15.1889 7.46549 15.148 7.46549H10.7304V5.59961L9.10044 5.93682V6.17961H9.19125C9.19125 6.17961 9.59079 6.17961 9.59079 6.57526V7.461H8.32861C8.3059 7.461 8.2832 7.48348 8.2832 7.50596V8.06797H9.59533C9.59533 8.06797 9.59533 8.66595 9.59533 9.36285V11.1208C9.59533 12.0785 10.2173 12.7439 11.307 12.654C11.5385 12.636 11.7519 12.5461 11.9335 12.4292C12.0153 12.3752 12.0652 12.2898 12.0652 12.1909V11.8897C11.7111 12.1235 11.4114 12.11 11.4114 12.11C10.7213 12.11 10.7349 11.2422 10.7349 11.2422V8.06797H13.9131L11.6248 10.352C11.6203 10.6532 11.6157 10.887 11.6157 10.8915C11.6157 10.9005 11.6203 10.905 11.6293 10.905C13.7269 11.2557 14.2945 12.6 14.2945 12.9912C14.2945 12.9912 14.5215 14.8931 12.601 15.0234C12.601 15.0234 11.3433 15.0774 11.1208 14.5783C11.1118 14.5603 11.1208 14.5424 11.139 14.5334C11.3479 14.4389 11.4886 14.2546 11.4886 14.0073C11.4886 13.6386 11.2616 13.3374 10.7849 13.3374C10.3989 13.3374 10.0811 13.6386 10.0811 14.0073C10.0811 14.0073 9.89952 15.6079 12.5964 15.563C15.6747 15.509 15.484 12.9507 15.484 12.9507Z"
      fill="#003EE0"
    />
        <path
      d="M27.7129 18.2578L27.7353 18.1871L27.7333 18.184C27.7869 18.0117 27.8363 17.8306 27.8778 17.6345C28.1883 16.2143 28.0634 14.7335 27.5193 13.3854C27.2501 12.7216 26.8811 12.1029 26.4251 11.5506C25.9697 11.0016 25.4327 10.5258 24.8329 10.1398C24.6102 9.9946 24.3923 9.86618 24.1618 9.74706C23.9314 9.62795 23.6989 9.52143 23.4667 9.42891C22.915 9.20813 22.3387 9.05501 21.7502 8.97288C21.1705 8.89236 20.583 8.88444 20.0014 8.94929L19.7815 8.97371L20.1452 10.1625L20.2928 10.1494C20.7494 10.1119 21.2087 10.1279 21.6615 10.1972C22.1232 10.268 22.5753 10.3917 23.0088 10.5658C23.2104 10.6434 23.4074 10.734 23.6014 10.8334C23.7911 10.9327 23.9799 11.0425 24.1677 11.1629C24.6578 11.4834 25.0955 11.8777 25.4653 12.3319C25.8415 12.7892 26.1459 13.3012 26.3682 13.8501C26.8199 14.9695 26.9242 16.1989 26.6676 17.3784C26.6344 17.5404 26.5929 17.7007 26.5434 17.8585C26.4104 17.4744 26.2778 17.0885 26.1431 16.704C26.0899 16.5514 25.9783 16.4262 25.8329 16.3558C25.7611 16.3205 25.683 16.2998 25.6032 16.2951C25.5234 16.2904 25.4434 16.3017 25.368 16.3283C25.2152 16.3817 25.0896 16.493 25.0181 16.6381C24.9828 16.7101 24.9622 16.7884 24.9575 16.8684C24.9529 16.9484 24.9644 17.0285 24.9912 17.104C25.2894 17.975 25.5911 18.8447 25.8963 19.7132C25.922 19.7893 25.9625 19.8595 26.0154 19.9199C26.0683 19.9803 26.1326 20.0297 26.2046 20.0652C26.2766 20.1008 26.3549 20.1218 26.435 20.127C26.5151 20.1323 26.5955 20.1217 26.6715 20.0959C26.6875 20.0909 26.7031 20.0849 26.7183 20.0779L26.7255 20.0735L29.1771 18.9328C29.2892 18.8826 29.3837 18.7998 29.4482 18.6953C29.5128 18.5907 29.5444 18.4692 29.5391 18.3464C29.5338 18.2237 29.4918 18.1053 29.4184 18.0068C29.3451 17.9082 29.2438 17.8339 29.1278 17.7935C29.052 17.766 28.9715 17.7538 28.8909 17.7575C28.8104 17.7613 28.7314 17.781 28.6585 17.8156L27.7129 18.2578Z"
      fill="#003EE0"
    />
        <path
      fill-rule="evenodd"
      clip-rule="evenodd"
      d="M20.959 29.9643V28.5325H21.5541V29.9643H20.959ZM23.5119 28.5909V29.9643H22.9168V28.5909H23.5119Z"
      fill="#003EE0"
    />
        <path
      fill-rule="evenodd"
      clip-rule="evenodd"
      d="M24.5177 22.4014H20V21.8063H25.1721L25.3963 22.2995L23.7236 24.217C23.9825 24.1938 24.2605 24.2018 24.5373 24.2508C25.3201 24.3894 26.1245 24.8677 26.3951 25.9153C26.6424 26.8559 26.3586 27.7147 25.7529 28.3287C25.1528 28.9369 24.2473 29.2976 23.2435 29.2976V28.7024C24.1099 28.7024 24.8554 28.391 25.3292 27.9107C25.7971 27.4365 26.0101 26.7907 25.8194 26.066L25.8191 26.0646C25.622 25.3009 25.0532 24.9465 24.4335 24.8368C24.121 24.7815 23.8037 24.7913 23.5345 24.844C23.2572 24.8983 23.0647 24.9911 22.9751 25.0718L22.5518 24.655L23.5347 23.5282L24.5177 22.4014Z"
      fill="#003EE0"
    />
        <path
      fill-rule="evenodd"
      clip-rule="evenodd"
      d="M21.0171 20H21.6122V26.5163C21.6122 27.0572 22.2443 27.3096 22.6003 26.9723L23.0096 27.4044C22.2552 28.1191 21.0171 27.5533 21.0171 26.5163V20ZM23.0041 22.0747V20H23.5992V22.0747H23.0041Z"
      fill="#003EE0"
    />
        <path
      d="M7.65709 17.2171L7.63477 17.2878L7.63541 17.2888C7.58189 17.4612 7.53309 17.6433 7.49092 17.8383C7.33685 18.5455 7.28954 19.2719 7.35057 19.9931C7.41071 20.7127 7.57912 21.4191 7.85012 22.0885C8.11967 22.7538 8.48954 23.3739 8.94686 23.9273C9.40219 24.4763 9.93919 24.9522 10.539 25.3381C10.7618 25.4833 10.9869 25.6143 11.2101 25.7309C11.4401 25.8493 11.6718 25.9554 11.9052 26.049C12.457 26.2694 13.0334 26.4225 13.6218 26.5051C14.2015 26.5852 14.7889 26.5932 15.3705 26.5286L15.5904 26.5042L15.2276 25.3078L15.0793 25.3199C14.6228 25.3584 14.1634 25.3424 13.7107 25.2721C13.2491 25.202 12.7972 25.0786 12.3641 24.9045C12.1618 24.8258 11.9654 24.7363 11.7708 24.6359C11.5808 24.5377 11.392 24.4278 11.2045 24.3064C10.7105 23.9888 10.2687 23.5965 9.89508 23.1434C9.5191 22.6864 9.21484 22.1748 8.99275 21.6262C8.7687 21.0709 8.62989 20.4849 8.58101 19.8881C8.52961 19.2889 8.56838 18.6853 8.69605 18.0976C8.73467 17.9219 8.77713 17.7635 8.82533 17.6143C8.95898 17.9995 9.09097 18.3843 9.22563 18.7688C9.27898 18.9218 9.39076 19.0474 9.53651 19.1181C9.60826 19.1534 9.68634 19.174 9.76618 19.1788C9.84601 19.1835 9.92598 19.1722 10.0014 19.1456C10.1544 19.0922 10.2799 18.9805 10.3506 18.8347C10.386 18.763 10.4066 18.6849 10.4113 18.605C10.416 18.5252 10.4048 18.4452 10.3781 18.3698C10.0833 17.5034 9.77729 16.6283 9.47311 15.7607C9.42007 15.6087 9.30924 15.4839 9.16469 15.4132C9.02013 15.3425 8.85353 15.3316 8.70104 15.383C8.68234 15.3848 8.6681 15.3938 8.65487 15.402L8.65486 15.402L8.64774 15.4065L6.19728 16.5535C6.12266 16.5865 6.05536 16.634 5.99934 16.6934C5.94331 16.7527 5.89968 16.8226 5.87099 16.8989C5.8423 16.9753 5.82914 17.0566 5.83227 17.1382C5.8354 17.2197 5.85476 17.2998 5.88922 17.3737C5.92368 17.4477 5.97254 17.514 6.03295 17.5689C6.09336 17.6237 6.1641 17.6659 6.24103 17.6931C6.31796 17.7203 6.39954 17.7318 6.48099 17.7271C6.56244 17.7223 6.64212 17.7014 6.71537 17.6654L7.65709 17.2171Z"
      fill="#003EE0"
    />
    </symbol>
    <symbol id='XTZ_tezos' viewBox="0 0 36 36" >
        <circle cx="18" cy="18" r="18" fill="#0D61FF" />
        <path
      d="M25.601 23.7197C25.3574 19.4084 19.9339 17.4487 19.4148 17.2475C19.3936 17.2369 19.3936 17.2157 19.4042 17.1945L24.9972 11.5803V10.9765C24.9972 10.8812 24.9125 10.7964 24.8172 10.7964H14.5103V6.40039L10.7075 7.19485V7.76687H10.9194C10.9194 7.76687 11.8515 7.76687 11.8515 8.69904V10.7858H8.90671C8.85375 10.7858 8.80078 10.8388 8.80078 10.8918V12.2159H11.8621C11.8621 12.2159 11.8621 13.6247 11.8621 15.2666V19.4084C11.8621 21.6647 13.3133 23.2324 15.8556 23.0206C16.3959 22.9782 16.8937 22.7663 17.3174 22.4909C17.5081 22.3638 17.6246 22.1625 17.6246 21.9295V21.2198C16.7984 21.7706 16.0993 21.7388 16.0993 21.7388C14.4891 21.7388 14.5209 19.6944 14.5209 19.6944V12.2159H21.9359L16.5971 17.597C16.5865 18.3068 16.5759 18.8576 16.5759 18.8682C16.5759 18.8894 16.5865 18.8999 16.6077 18.8999C21.5016 19.7262 22.8257 22.8935 22.8257 23.815C22.8257 23.815 23.3554 28.2958 18.8746 28.603C18.8746 28.603 15.9404 28.7301 15.4213 27.5543C15.4001 27.5119 15.4213 27.4696 15.4637 27.4484C15.951 27.2259 16.2793 26.7916 16.2793 26.209C16.2793 25.3404 15.7497 24.6307 14.6374 24.6307C13.737 24.6307 12.9956 25.3404 12.9956 26.209C12.9956 26.209 12.5718 29.9801 18.864 29.8741C26.0459 29.747 25.601 23.7197 25.601 23.7197Z"
      fill="white"
    />
    </symbol>
    <symbol id='tzBTC' viewBox="0 0 36 36" >
        <circle cx="18" cy="18" r="17.25" stroke="#0D61FF" stroke-width="1.5" />
        <path
      fill-rule="evenodd"
      clip-rule="evenodd"
      d="M12.8174 29.9152V26.3064H14.3174V29.9152H12.8174ZM19.2519 26.4537V29.9152H17.7519V26.4537H19.2519Z"
      fill="#0D61FF"
    />
        <path
      fill-rule="evenodd"
      clip-rule="evenodd"
      d="M21.7869 10.8534H10.4004V9.35342H23.4364L24.0016 10.5964L19.7854 15.4296C20.438 15.3709 21.1388 15.3911 21.8364 15.5147C23.8094 15.8641 25.8369 17.0695 26.519 19.7098C27.1422 22.0806 26.427 24.2452 24.9001 25.7928C23.3876 27.3259 21.1054 28.2348 18.5755 28.2348V26.7348C20.7592 26.7348 22.6382 25.9497 23.8323 24.7393C25.0117 23.5439 25.5485 21.9163 25.0679 20.0897L25.067 20.0862C24.5702 18.1614 23.1366 17.2683 21.5748 16.9917C20.787 16.8522 19.9873 16.8771 19.3088 17.0099C18.61 17.1467 18.1249 17.3805 17.8988 17.584L16.8319 16.5335L19.3094 13.6934L21.7869 10.8534Z"
      fill="#0D61FF"
    />
        <path
      fill-rule="evenodd"
      clip-rule="evenodd"
      d="M12.9639 4.80078H14.4639V21.2247C14.4639 22.5881 16.0569 23.2242 16.9542 22.3742L17.9858 23.4631C16.0844 25.2644 12.9639 23.8383 12.9639 21.2247V4.80078ZM17.9721 10.0299V4.80078H19.4721V10.0299H17.9721Z"
      fill="#0D61FF"
    />
    </symbol>
    <symbol id='exchange' viewBox="0 0 24 24" >
        <path
      d="M8.64771 0.164766L12.9602 4.5C13.1799 4.7197 13.1799 5.07581 12.9602 5.29547L12.6288 5.62692C12.4092 5.84662 12.053 5.84662 11.8333 5.62692L8.99998 2.77064V23.4375C8.99998 23.7481 8.74812 24 8.43748 24H8.06248C7.75184 24 7.49998 23.7481 7.49998 23.4375L7.49998 2.77008L4.66666 5.62692C4.44701 5.84662 4.09085 5.84662 3.87115 5.62692L3.53974 5.29552C3.32009 5.07581 3.32009 4.7197 3.53974 4.5L7.85224 0.164766C8.0719 -0.0549374 8.42806 -0.0548897 8.64771 0.164766ZM16.1477 23.8352L20.4602 19.5C20.6799 19.2803 20.6799 18.9242 20.4602 18.7045L20.1288 18.3731C19.9092 18.1534 19.553 18.1534 19.3333 18.3731L16.5 21.2299V0.5625C16.5 0.25186 16.2481 0 15.9375 0H15.5625C15.2518 0 15 0.25186 15 0.5625L15 21.2294L12.1667 18.3731C11.947 18.1534 11.5909 18.1534 11.3712 18.3731L11.0397 18.7045C10.8201 18.9242 10.82 19.2803 11.0397 19.5L15.3522 23.8352C15.5719 24.0549 15.9281 24.0549 16.1477 23.8352Z"
      fill="#8D86EB"
    />
    </symbol>
    <symbol id='plus' viewBox="0 0 9 10"  xmlns="http://www.w3.org/2000/svg">
        <path d="M8.666 4.052H5.372V0.704H3.41V4.052H0.116V5.924H3.41V9.254H5.372V5.924H8.666V4.052Z" fill="#77A4F2" />
    </symbol>
    <symbol id='minus' viewBox="0 0 22 4"  xmlns="http://www.w3.org/2000/svg">
        <path
      fill-rule="evenodd"
      clip-rule="evenodd"
      d="M0.25 2C0.25 1.30964 0.809644 0.75 1.5 0.75H20.25C20.9404 0.75 21.5 1.30964 21.5 2C21.5 2.69036 20.9404 3.25 20.25 3.25H1.5C0.809644 3.25 0.25 2.69036 0.25 2Z"
    />
    </symbol>
    <symbol id='plusDark' viewBox="0 0 25 24" xmlns="http://www.w3.org/2000/svg">
        <path
      fill-rule="evenodd"
      clip-rule="evenodd"
      d="M12.5 1C13.1904 1 13.75 1.55964 13.75 2.25L13.75 21.75C13.75 22.4404 13.1904 23 12.5 23C11.8096 23 11.25 22.4404 11.25 21.75L11.25 2.25C11.25 1.55964 11.8096 1 12.5 1Z"
    />
        <path
      fill-rule="evenodd"
      clip-rule="evenodd"
      d="M2.25 12C2.25 11.3096 2.80964 10.75 3.5 10.75H22.25C22.9404 10.75 23.5 11.3096 23.5 12C23.5 12.6904 22.9404 13.25 22.25 13.25H3.5C2.80964 13.25 2.25 12.6904 2.25 12Z"
    />
    </symbol>
    <symbol id='toggleChartType' viewBox="0 0 24 24"  xmlns="http://www.w3.org/2000/svg">
      <path
      d="M6 14.5L10 10L13.5 13L18.5 6"
      stroke="#8D86EB"
      stroke-width="1.7"
      stroke-linecap="round"
      stroke-linejoin="round"
    />
      <line x1="5.75" y1="19.25" x2="18.25" y2="19.25" stroke="#8D86EB" stroke-width="1.5" stroke-linecap="round" />
    </symbol>
    <symbol id='swapBtnIcon' viewBox="0 0 24 24" xmlns="http://www.w3.org/2000/svg">
      <g clip-path="url(#clip0_9699_14945)">
      <path
        d="M12.75 15.75L23.25 5.25"
        stroke-width="2"
        stroke-linecap="round"
        stroke-linejoin="round"
      />
      <path
        d="M23.25 9.75V5.25H18.75"
        stroke-width="2"
        stroke-linecap="round"
        stroke-linejoin="round"
      />
      <path
        d="M11.25 8.25L0.75 18.75"
        stroke-width="2"
        stroke-linecap="round"
        stroke-linejoin="round"
      />
      <path
        d="M0.75 14.25V18.75H5.25"
        stroke-width="2"
        stroke-linecap="round"
        stroke-linejoin="round"
      />
      </g>
      <defs>
      <clipPath id="clip0_9699_14945">
      <rect width="24" height="24" fill="white" />
      </clipPath>
      </defs>
    </symbol>
    <symbol id="wallet" viewBox="0 0 25 24">
        <path
      d="M2.08398 8C2.08398 6.34315 3.42713 5 5.08398 5H18.8757C20.5325 5 21.8757 6.34315 21.8757 8V17C21.8757 18.6569 20.5325 20 18.8757 20H5.08398C3.42713 20 2.08398 18.6569 2.08398 17V8Z"
      stroke-width="2"
    />
        <path
      fill-rule="evenodd"
      clip-rule="evenodd"
      d="M23.2008 10H18.375C16.8562 10 15.625 11.2312 15.625 12.75C15.625 14.2688 16.8562 15.5 18.375 15.5H23.2008C23.6192 15.5 23.9583 15.1608 23.9583 14.7424V10.7576C23.9583 10.3392 23.6192 10 23.2008 10ZM19.0104 14C19.7295 14 20.3125 13.4404 20.3125 12.75C20.3125 12.0596 19.7295 11.5 19.0104 11.5C18.2913 11.5 17.7083 12.0596 17.7083 12.75C17.7083 13.4404 18.2913 14 19.0104 14Z"
      
    />
    </symbol>
</svg>
