<svg id="Layer_1" data-name="Layer 1" xmlns="http://www.w3.org/2000/svg" xmlns:xlink="http://www.w3.org/1999/xlink" viewBox="0 0 1920 1080"><defs><style>.cls-1{fill:#88d1c3;}.cls-2{fill:#a5f2e3;}.cls-3{opacity:0.5;}.cls-4{fill:url(#linear-gradient);}</style><linearGradient id="linear-gradient" x1="987.02" y1="459.54" x2="945.77" y2="437.04" gradientTransform="matrix(1, 0, 0, -1, 0, 1080)" gradientUnits="userSpaceOnUse"><stop offset="0" stop-color="#7fffe0" stop-opacity="0.5"/><stop offset="0.12" stop-color="#7df9dd" stop-opacity="0.44"/><stop offset="0.28" stop-color="#79e8d5" stop-opacity="0.36"/><stop offset="0.46" stop-color="#71cbc8" stop-opacity="0.27"/><stop offset="0.66" stop-color="#66a4b5" stop-opacity="0.17"/><stop offset="0.87" stop-color="#59729e" stop-opacity="0.06"/><stop offset="1" stop-color="#50508e" stop-opacity="0"/></linearGradient></defs><g id="Layer_2" data-name="Layer 2"><rect class="cls-1" x="973.6" y="950.8" width="9" height="65.6"/><path class="cls-1" d="M993,982.2H980.7a41.16,41.16,0,0,0-41.2,41H809l-42.2,23.9H634.6l-36,32.9h455.6Z"/><circle class="cls-1" cx="1684.4" cy="738.8" r="16.3"/><path class="cls-1" d="M1466,956h0a6.81,6.81,0,0,1-6.8-6.8V906.4a6.81,6.81,0,0,1,6.8-6.8h0a6.81,6.81,0,0,1,6.8,6.8v42.8A6.81,6.81,0,0,1,1466,956Z"/><path class="cls-1" d="M1757.6,755.2h0a4.69,4.69,0,0,1-4.7-4.7V718.1a4.69,4.69,0,0,1,4.7-4.7h0a4.69,4.69,0,0,1,4.7,4.7v32.4A4.9,4.9,0,0,1,1757.6,755.2Z"/><path class="cls-1" d="M1843.9,695.4h0a4.44,4.44,0,0,1-4.4-4.4V665.2a4.44,4.44,0,0,1,4.4-4.4h0a4.44,4.44,0,0,1,4.4,4.4V691A4.51,4.51,0,0,1,1843.9,695.4Z"/><path class="cls-1" d="M905.9,1037.4h0a5.8,5.8,0,0,1-5.8-5.8V992.1a5.8,5.8,0,0,1,5.8-5.8h0a5.8,5.8,0,0,1,5.8,5.8v39.5A5.8,5.8,0,0,1,905.9,1037.4Z"/><path class="cls-1" d="M916.6,1037.4h0a8.24,8.24,0,0,1-8.2-8.2v-16.5a8.24,8.24,0,0,1,8.2-8.2h0a8.24,8.24,0,0,1,8.2,8.2v16.5A8.11,8.11,0,0,1,916.6,1037.4Z"/><rect class="cls-1" x="884.4" y="1011.8" width="33.8" height="19.3"/><rect class="cls-1" x="1223" y="880.3" width="37.1" height="58"/><rect class="cls-1" x="1208" y="909.4" width="27" height="21.9"/><rect class="cls-1" x="1439.6" y="914.9" width="7.1" height="38.6"/><polygon class="cls-1" points="1547.6 910.5 1528.1 910.5 1528.1 873.1 1540.4 873.1 1547.6 910.5"/><rect class="cls-1" x="1337.4" y="698.4" width="36.8" height="11.1"/><rect class="cls-1" x="1337.4" y="721.5" width="36.8" height="11.1"/><rect class="cls-1" x="1337.4" y="744.7" width="36.8" height="11.1"/><rect class="cls-1" x="1337.4" y="767.9" width="36.8" height="11.1"/><ellipse class="cls-1" cx="1090" cy="926.3" rx="20" ry="33.2"/><path class="cls-1" d="M1033.5,722.1c0-2.4-9.5,0-9.5,0s-9.5-2.4-9.5,0c0,171.6-37,333.5-37,333.5h93C1070.6,1055.6,1033.5,893.7,1033.5,722.1Z"/><path class="cls-1" d="M951.1,660.1a73,73,0,0,0,146,0Z"/><ellipse class="cls-1" cx="1350.2" cy="929.4" rx="75.3" ry="143.4"/><path class="cls-1" d="M1350.2,670.1c-65.3,0-118.3,90.2-118.3,201.4s53,201.4,118.3,201.4Z"/><polygon class="cls-1" points="1430.7 935.1 1480.6 935.1 1500.9 900.9 1561.6 900.9 1608.3 695.6 1622.4 686.6 1622.4 597.5 1644.9 612.3 1644.9 733.3 1664 746.8 1664 781.6 1706.8 781.6 1728.7 738.9 1768.1 738.9 1768.1 614.6 1781.6 614.6 1781.6 738.9 1823.8 738.9 1823.8 682.1 1855.8 682.1 1855.8 696.1 1873.8 696.1 1873.8 634.3 1920 600.5 1920 1080 1030.1 1080 1030.1 926.3 1126.2 926.3 1126.2 770.2 1148.2 783.3 1148.2 833.9 1178 841.8 1178 926.3 1288.8 926.3 1430.7 935.1"/><polyline class="cls-1" points="1819.9 588.7 1774.8 633.8 1729.7 588.7"/><rect class="cls-1" x="1768.1" y="635.1" width="13.5" height="7.9"/><path class="cls-1" d="M1830.2,593.5H1719.4a4.8,4.8,0,0,1-4.8-4.8h0a4.8,4.8,0,0,1,4.8-4.8h110.8a4.8,4.8,0,0,1,4.8,4.8h0A4.8,4.8,0,0,1,1830.2,593.5Z"/><rect class="cls-1" x="1759.62" y="656.8" width="30.4" height="30.4" transform="translate(44.66 1451.81) rotate(-45)"/><rect class="cls-1" x="1725.1" y="680.6" width="13.1" height="78.4"/><rect class="cls-1" x="1679.4" y="743.2" width="10.1" height="47.6"/><rect class="cls-1" x="1499.8" y="819.5" width="35.6" height="106.8"/><path class="cls-2" d="M1254.6,801.1c-1.4,6-2.6,12.2-3.6,18.5h84.2V801.1Z"/><path class="cls-2" d="M1335.2,869.5h-88.3v1.9c0,5.5.1,11.1.4,16.5h87.9Z"/><path class="cls-2" d="M1335.2,716.8V687.1c-14.9,4.1-29.2,14.2-42,29.7Z"/><path class="cls-2" d="M1248.8,835.3c-.7,6.1-1.2,12.2-1.5,18.5h87.9V835.3Z"/><path class="cls-2" d="M1335.2,926.8v-23h-86.8c.8,7.8,1.8,15.5,3.1,23Z"/><path class="cls-2" d="M1265,766.8c-2.3,6-4.4,12.1-6.3,18.5h76.4V766.8Z"/><path class="cls-2" d="M1281.9,732.6c-.8,1.3-1.7,2.7-2.5,4.1-2.7,4.6-5.2,9.4-7.6,14.4h63.4V732.6Z"/><path class="cls-1" d="M1335.2,687.1S1299,785,1299,947h45.6Z"/><polygon class="cls-2" points="1623.1 709.4 1623.1 873.1 1586.4 873.1 1623.1 709.4"/><polygon class="cls-2" points="1774.8 618.9 1774.8 594.4 1747.8 594.4 1774.8 618.9"/><polygon class="cls-2" points="1886.8 639 1886.8 774.5 1901.8 767 1901.8 630.2 1886.8 639"/><polygon class="cls-2" points="1835 700.2 1835 770.2 1841.8 763.4 1841.8 700.2 1835 700.2"/><polygon class="cls-2" points="1736.4 755.2 1809.9 755.2 1805.8 763.6 1731.8 763.6 1736.4 755.2"/><polygon class="cls-2" points="1722.2 781.6 1726.9 772.2 1781.6 772.2 1722.2 781.6"/><rect class="cls-2" x="1508.4" y="830.8" width="9.2" height="109.5"/><polygon class="cls-2" points="1022.5 737.5 1022.5 1008.7 1005.8 990.2 1022.5 737.5"/><rect class="cls-2" x="1151" y="852.8" width="8.4" height="85.6"/><polygon class="cls-2" points="1134.5 953.6 1134.5 786 1139.2 788.4 1139.2 953.6 1134.5 953.6"/><path class="cls-1" d="M1120.7,674.8H927.5a9.18,9.18,0,0,1-9.2-9.2h0a9.18,9.18,0,0,1,9.2-9.2h193.2a9.18,9.18,0,0,1,9.2,9.2h0A9.24,9.24,0,0,1,1120.7,674.8Z"/><path class="cls-2" d="M995.2,674.1H965.6a60.18,60.18,0,0,0,58.5,46.1C1015.2,720.2,998.7,692.2,995.2,674.1Z"/><path class="cls-2" d="M991.6,606.4,978,596.7c5.8-4.8,16.6-11.1,25.9-11.6"/><ellipse class="cls-2" cx="1026.37" cy="605.51" rx="32.8" ry="16.3" transform="translate(-165.24 594.32) rotate(-30)"/><g class="cls-3"><path class="cls-4" d="M974.8,619.8c-3.8,2.2-7.8,8.3-8.8,12.5,4.2,1.2,11.5.8,15.3-1.4a6.51,6.51,0,0,0,2.4-8.8A6.62,6.62,0,0,0,974.8,619.8Z"/></g><ellipse class="cls-2" cx="1021.38" cy="596.78" rx="32.8" ry="16.3" transform="translate(-161.55 590.66) rotate(-30)"/><path class="cls-2" d="M1010.9,617.9c-4.9.8-7.1.6-10.2-.1s-2.8.4-4.5,2.6-6.7,18.6-6.7,18.6a26.22,26.22,0,0,0,14.1-3.7c7.5-4.3,25.3-16.7,25.1-20.7s-1.7-.9-6.4.4S1010.9,617.9,1010.9,617.9Z"/><path class="cls-2" d="M999.6,605a57.38,57.38,0,0,0-12,4.5c-3,1.6-4.2,2.2-4,3.6s3.7,9.8,5.4,10.7,4.4-.4,5.3-2.7.9-3.5,3.9-6.9C1001,610.9,1006.2,604.7,999.6,605Z"/><path class="cls-2" d="M1036.1,585.9c5.2,9-27.5,28-32.8,18.9a18.93,18.93,0,0,1,32.8-18.9Z"/><path class="cls-1" d="M1066.2,577.2a4.63,4.63,0,0,0-6.4-1.7,4.7,4.7,0,0,0-2.3,4.9l-6.4,3.7,1.6,2.8,6.4-3.7a4.71,4.71,0,0,0,7.1-6Z"/><path class="cls-1" d="M1055.6,588.9l-5.1-8.9h0c-3.5-6-13-7.6-24.7-4.2a20.83,20.83,0,0,0-16.3,1.8,20.18,20.18,0,0,0-6.4,5.9c-9.1.8-19.3,6.6-25.4,11.4a2.34,2.34,0,0,0-.8,1.8,2.23,2.23,0,0,0,.9,1.7l10.9,7.8c-1.5.7-3.2,1.5-5.1,2.6-3.3,1.9-1.2,8.9,1.3,13.2a18.84,18.84,0,0,0,6.1,6.8l-2.6,8.6a2.47,2.47,0,0,0,.5,2.2,2.5,2.5,0,0,0,1.8.8h.4a74.22,74.22,0,0,0,27.4-12.3h0a62,62,0,0,0,16.3-6.6C1051.5,611.8,1060.6,597.5,1055.6,588.9Zm-7.8-7.2c1.8,3.2,1,7.8-2.5,13-3.7,5.5-9.8,10.9-17.1,15.2-10.9,6.3-22.6,8.8-29.5,6.4l5.8-8.4a9.42,9.42,0,0,0,4.3.9c4.6,0,10.5-2.2,15.8-5.3,8.8-5.1,16.3-12.8,13-18.4a21,21,0,0,0-7-7.2C1038.9,576.3,1045.4,577.6,1047.8,581.7Zm-36.7-1.3a17.59,17.59,0,0,1,8.6-2.3,17.4,17.4,0,0,1,4.5.6,17.13,17.13,0,0,1,10.5,8.1c1.1,1.9-.7,4.6-1.9,6.1a4.11,4.11,0,0,0-.1-3.6,16.19,16.19,0,0,0-30.2,8A17.45,17.45,0,0,1,1011.1,580.4Zm-30.4,16.2c5.6-4.2,13.4-8.4,20.4-9.6a24.3,24.3,0,0,0-1.3,3.8c-4.4,4.3-7.6,8.8-9,13Zm20.1,6.7c-.2,0-.5.1-.7.1a41.57,41.57,0,0,0-6.2,1,30.58,30.58,0,0,1,5.3-8.4A23.34,23.34,0,0,0,1000.8,603.3Zm-12.7,17.9c-.2-.2-.3-.5-.5-.7-2.6-4.5-2.9-8.3-2.5-8.8,7.3-4.2,11.4-4.7,15.3-5.1.4,0,.7-.1,1.1-.1l-5.8,8.4a11.08,11.08,0,0,0-1.4,2.9l-.8,2.7c-.7.4-1.6.9-2.2,1.3A2.7,2.7,0,0,1,988.1,621.2Zm3.8,15.8,5.3-17.8a20.88,20.88,0,0,0,7.4,1.2c6.6,0,14.7-2.2,22.6-6.4C1018.9,628.1,1000.4,635,991.9,637Zm32.4-14.1a39.15,39.15,0,0,0,3.7-4.4l1.3,2.2A36.26,36.26,0,0,1,1024.3,622.9Zm8.9-4.2c-.6.4-1.3.7-1.9,1.1l-1.9-3.2a27.8,27.8,0,0,0,2.2-4.2l3.1,5.4Zm3.4-2.2-3.5-6.1c1.1-.7,2.2-1.5,3.3-2.3l3.5,6A19.92,19.92,0,0,1,1036.6,616.5Zm5.1-3.7-3.5-6c1.1-.9,2.1-1.8,3.1-2.7l3.4,6Q1043.35,611.45,1041.7,612.8Zm4.7-4.4-3.4-5.9c1-1,1.9-2.1,2.8-3.2l3.4,5.8C1048.3,606.2,1047.4,607.3,1046.4,608.4Zm4.2-5.3-3.3-5.7c.2-.3.5-.6.7-.9a22.8,22.8,0,0,0,1.7-3l3.1,5.4A28.23,28.23,0,0,1,1050.6,603.1Zm3-7.2-2.9-5a14.73,14.73,0,0,0,.8-2.8l1.3,2.3A8.5,8.5,0,0,1,1053.6,595.9Z"/><path class="cls-1" d="M1032.7,579.5c6.1-.4,10.3-.2,12.7,2.8s-.7,18.4-21,29.6c0,0-7.9,7.4-18.5,6.5s-9.7.7-8.5-1.8,5.4-11,5.4-11l-8.1-.5s5-7.6,5.3-8.3-.8,8.9,5.8,10,21-4.6,26.6-12S1037.4,586.4,1032.7,579.5Z"/><path class="cls-1" d="M1041.3,614.8l-4.5-8.8-7.4,8.1-8.6,11.8C1020.7,625.9,1034.8,623.1,1041.3,614.8Z"/><path class="cls-1" d="M1022.9,616.1s-10.3,14.1-31,19.5l5-18.1C996.9,617.4,1004.6,621.6,1022.9,616.1Z"/><path class="cls-1" d="M985,617.2s8-4.8,14.9-5.9c0,0-5.6,9.3-6.1,10.8s-5.3,2.9-5.3,2.9Z"/><path class="cls-1" d="M982.4,599.3s4.7-5.6,17.3-8.5a12.18,12.18,0,0,1-1.9,4c-1.6,2.4-6.4,11.1-6.4,11.1Z"/></g></svg>