<?xml version="1.0" encoding="utf-8"?>
<!-- Generator: Adobe Illustrator 26.0.3, SVG Export Plug-In . SVG Version: 6.00 Build 0)  -->
<svg version="1.1" xmlns="http://www.w3.org/2000/svg" xmlns:xlink="http://www.w3.org/1999/xlink" x="0px" y="0px"
	 viewBox="0 0 1920 1080" style="enable-background:new 0 0 1920 1080;" xml:space="preserve">
<style type="text/css">
	.st0{display:none;}
	.st1{display:inline;fill:#88D1C3;}
	.st2{display:inline;opacity:0.7;fill:url(#SVGID_1_);}
	.st3{display:inline;opacity:0.3;}
	.st4{fill:url(#SVGID_00000041296414261151609020000002984053208367118271_);}
	.st5{fill:url(#SVGID_00000034801343014688909960000006215110923857954483_);}
	.st6{fill:url(#SVGID_00000172425769511598620590000007669428293978895273_);}
	.st7{display:inline;opacity:0.7;fill:url(#SVGID_00000005264261408998250680000008525436090406621322_);}
	.st8{display:inline;opacity:0.5;fill:url(#SVGID_00000018918457573450381700000015193875571720319129_);}
	.st9{display:inline;opacity:0.5;fill:url(#SVGID_00000137098032542015328400000009637513637521625243_);}
	.st10{display:inline;opacity:0.5;fill:url(#SVGID_00000086664828140426865980000007933713540123410049_);}
	.st11{display:inline;opacity:0.5;fill:url(#SVGID_00000083803768858694552670000015532016292200233607_);}
	.st12{display:inline;opacity:0.5;fill:url(#SVGID_00000126281191744723963660000005097372012520987062_);}
	.st13{display:inline;opacity:0.7;fill:url(#SVGID_00000072245106167757718300000017110520315453905812_);}
	.st14{display:inline;opacity:0.7;fill:url(#SVGID_00000144300279928234449850000000084723230101244307_);}
	.st15{display:inline;}
	.st16{fill:#FFFFFF;}
	.st17{fill:#81ADC6;}
	.st18{fill:#4F457C;}
	.st19{fill:#89C1CE;}
	.st20{fill:#8AB9CE;}
	.st21{fill:#819EC1;}
	.st22{fill:#8787C6;}
	.st23{display:inline;fill:#8787C6;}
	.st24{fill:#7979CC;}
	.st25{display:inline;opacity:0.5;}
	.st26{fill:url(#SVGID_00000112596272952609929440000017591385504371795103_);}
	.st27{fill:#8585D6;}
	.st28{display:inline;fill:#7979CC;}
	.st29{display:inline;fill:#393984;}
	.st30{fill:#393984;}
	.st31{fill:url(#SVGID_00000174579492530408545320000013994921947489761956_);}
	.st32{fill:url(#SVGID_00000125598330653170706630000001956244949967665076_);}
	.st33{display:inline;fill:#7070B2;}
	.st34{fill:#7777B7;}
	.st35{fill:#7070B2;}
	.st36{display:inline;fill:#B5E5DC;}
	.st37{fill:#B5E5DC;}
	.st38{fill:#D4FCF2;}
	.st39{opacity:0.5;}
	.st40{fill:url(#SVGID_00000089551455307237238440000013873976080174793379_);}
</style>
<g id="Layer_10" class="st0">
	<rect class="st1" width="1920" height="1080"/>
	<linearGradient id="SVGID_1_" gradientUnits="userSpaceOnUse" x1="792.7388" y1="226.5022" x2="1026.0797" y2="556.5942">
		<stop  offset="0" style="stop-color:#FFFFFF;stop-opacity:0.5"/>
		<stop  offset="1" style="stop-color:#FFFFFF;stop-opacity:0"/>
	</linearGradient>
	<circle class="st2" cx="960" cy="463.1" r="283.3"/>
	<g class="st3">
		
			<linearGradient id="SVGID_00000121982617419107584680000005666559183284033938_" gradientUnits="userSpaceOnUse" x1="355.7309" y1="775.4375" x2="355.7309" y2="130.8103">
			<stop  offset="0" style="stop-color:#7FFFE0;stop-opacity:0.5"/>
			<stop  offset="0.1177" style="stop-color:#7DF9DD;stop-opacity:0.4412"/>
			<stop  offset="0.2768" style="stop-color:#79E8D5;stop-opacity:0.3616"/>
			<stop  offset="0.4597" style="stop-color:#71CBC8;stop-opacity:0.2702"/>
			<stop  offset="0.6603" style="stop-color:#66A4B5;stop-opacity:0.1699"/>
			<stop  offset="0.8728" style="stop-color:#59729E;stop-opacity:6.360069e-02"/>
			<stop  offset="1" style="stop-color:#50508E;stop-opacity:0"/>
		</linearGradient>
		<path style="fill:url(#SVGID_00000121982617419107584680000005666559183284033938_);" d="M409.8,438.2L409.8,438.2
			c0-4.8-3.9-8.7-8.7-8.7h-79c-4.8,0-8.7,3.9-8.7,8.7v0c0,4.8-3.9,8.7-8.7,8.7h-22.9c-4.8,0-8.7,3.9-8.7,8.7l0,0
			c0,4.8,3.9,8.7,8.7,8.7h147.8c4.8,0,8.7-3.9,8.7-8.7l0,0c0-4.8-3.9-8.7-8.7-8.7h-11.2C413.6,446.9,409.8,443,409.8,438.2z"/>
		
			<linearGradient id="SVGID_00000032632944186716564550000012803335777986088084_" gradientUnits="userSpaceOnUse" x1="960" y1="1234.9232" x2="960" y2="-153.0512">
			<stop  offset="0" style="stop-color:#FFFFFF;stop-opacity:0.5"/>
			<stop  offset="1" style="stop-color:#FFFFFF;stop-opacity:0"/>
		</linearGradient>
		<path style="fill:url(#SVGID_00000032632944186716564550000012803335777986088084_);" d="M1845.6,498.8c-4.7,0-8.5-3.8-8.5-8.5
			c0-4.7,3.8-8.5,8.5-8.5h39.2c4.7,0,8.5-3.8,8.5-8.5c0-4.7,3.8-8.5,8.5-8.5h18.1v-17.7v-0.1v-17h-42.3c-4.7,0-8.5,3.8-8.5,8.5
			s-3.8,8.5-8.5,8.5h-44.1c-4.7,0-8.5,3.8-8.5,8.5v0.4c0,4.7-3.8,8.5-8.5,8.5h-61.9c-4.7,0-8.5,3.8-8.5,8.5v0.4
			c0,4.7,3.8,8.5,8.5,8.5h13c4.7,0,8.5,3.8,8.5,8.5v0.4c0,4.7-3.8,8.5-8.5,8.5h-106.1c-4.7,0-8.5-3.8-8.5-8.5v-0.4
			c0-4.7-3.8-8.5-8.5-8.5h-27.7c-4.7,0-8.5-3.8-8.5-8.5v-0.4c0-4.7,3.8-8.5,8.5-8.5h68.6c4.7,0,8.5-3.8,8.5-8.5v-0.4
			c0-4.7-3.8-8.5-8.5-8.5h-165c-4.7,0-8.5,3.8-8.5,8.5v0.4c0,4.7,3.8,8.5,8.5,8.5h33.2c4.7,0,8.5,3.8,8.5,8.5v0.4
			c0,4.7-3.8,8.5-8.5,8.5h-112.9c-4.7,0-8.5,3.8-8.5,8.5v0.4c0,4.7-3.8,8.5-8.5,8.5h-171.2c-4.7,0-8.5,3.8-8.5,8.5v0.4
			c0,4.7,3.8,8.5,8.5,8.5h47c4.7,0,8.5,3.8,8.5,8.5v0.4c0,4.7-3.8,8.5-8.5,8.5h-103.6c-4.7,0-8.5,3.8-8.5,8.5v0.1
			c0,4.7-3.8,8.5-8.5,8.5h-74.5c-4.7,0-8.5,3.8-8.5,8.5v0.7c0,4.7-3.8,8.5-8.5,8.5h-78.8c-4.7,0-8.5-3.8-8.5-8.5V560
			c0-4.7,3.8-8.5,8.5-8.5h28.8c4.7,0,8.5-3.8,8.5-8.5v-0.4c0-4.7-3.8-8.5-8.5-8.5H892.7c-4.7,0-8.5,3.8-8.5,8.5v0.4
			c0,4.7,3.8,8.5,8.5,8.5h35.2c4.7,0,8.5,3.8,8.5,8.5v0.4c0,4.7-3.8,8.5-8.5,8.5H823.9c-4.7,0-8.5-3.8-8.5-8.5v0
			c0-4.7-3.8-8.5-8.5-8.5h-26.3c-4.7,0-8.5-3.8-8.5-8.5v-0.8c0-4.7-3.8-8.5-8.5-8.5h-33.9c-4.7,0-8.5-3.8-8.5-8.5v-0.4
			c0-4.7-3.8-8.5-8.5-8.5h-58.2c-4.7,0-8.5,3.8-8.5,8.5v0.5c0,4.7,3.8,8.5,8.5,8.5h16.6c4.5,0,8.5,3.4,8.8,8c0.3,5-3.6,9.1-8.5,9.1
			h-63.2c-4.7,0-8.5-3.8-8.5-8.5v-0.1c0-4.7-3.8-8.5-8.5-8.5h-52.9c-4.7,0-8.5-3.8-8.5-8.5v-0.4c0-4.7-3.8-8.5-8.5-8.5h-57.9
			c-4.7,0-8.5-3.8-8.5-8.5V508c0-4.7,3.8-8.5,8.5-8.5h31.4c4.7,0,8.5-3.8,8.5-8.5v-0.7c0-4.7-3.8-8.5-8.5-8.5h-136
			c-4.7,0-8.5,3.8-8.5,8.5v0.7c0,4.7,3.8,8.5,8.5,8.5h19c4.7,0,8.5,3.8,8.5,8.5v0.1c0,4.7-3.8,8.5-8.5,8.5h-77.8
			c-4.7,0-8.5-3.8-8.5-8.5V508c0-4.7-3.8-8.5-8.5-8.5H139.6c-4.7,0-8.5-3.8-8.5-8.5v-0.7c0-4.7,3.8-8.5,8.5-8.5h87
			c4.7,0,8.5-3.8,8.5-8.5v-0.4c0-4.7-3.8-8.5-8.5-8.5h-52.7c-4.7,0-8.5-3.8-8.5-8.5v-0.4c0-4.7,3.8-8.5,8.5-8.5h33.3
			c4.7,0,8.5-3.8,8.5-8.5v-0.4c0-4.7-3.8-8.5-8.5-8.5h-69.7c-4.7,0-8.5-3.8-8.5-8.5v-0.4c0-4.7-3.8-8.5-8.5-8.5H52.2
			c-4.6,0-8.7-3.5-9-8.1c-0.3-5.1,3.7-9.3,8.7-9.3h25.4c4.6,0,8.7-3.5,9-8.1c0.3-5.1-3.7-9.3-8.7-9.3H0v17.5v17.5h0l0,35h119.3
			c4.6,0,8.6,3.5,8.9,8.1c0.3,5-3.7,9.2-8.6,9.2H0V1080h1920V498.8H1845.6z M96.9,499.2H60.8c-4.8,0-8.7-3.9-8.7-8.7
			c0-4.8,3.9-8.7,8.7-8.7h36.1c4.8,0,8.7,3.9,8.7,8.7C105.7,495.3,101.8,499.2,96.9,499.2z M264.2,551.1h-79.9
			c-4.8,0-8.7-3.9-8.7-8.7c0-4.8-3.9-8.7-8.7-8.7h-13.3c-4.8,0-8.7-3.9-8.7-8.7s3.9-8.7,8.7-8.7h49.3c4.8,0,8.7,3.9,8.7,8.7
			s3.9,8.7,8.7,8.7h43.9c4.8,0,8.7,3.9,8.7,8.7C272.9,547.2,269,551.1,264.2,551.1z M496.6,543.2c0,4.8-3.9,8.7-8.7,8.7h-43.7
			c-4.8,0-8.7-3.9-8.7-8.7v0c0-4.8,3.9-8.7,8.7-8.7h43.7C492.7,534.5,496.6,538.4,496.6,543.2L496.6,543.2z M1280,569.9h-58.1
			c-4.8,0-8.7-3.9-8.7-8.7s3.9-8.7,8.7-8.7h58.1c4.8,0,8.7,3.9,8.7,8.7S1284.8,569.9,1280,569.9z M1440.4,534h-101.9
			c-4.8,0-8.7-3.9-8.7-8.7s3.9-8.7,8.7-8.7h101.9c4.8,0,8.7,3.9,8.7,8.7S1445.1,534,1440.4,534z M1674,533.4h-26.7
			c-4.8,0-8.7,3.9-8.7,8.7v0c0,4.8-3.9,8.7-8.7,8.7H1610c-4.8,0-8.7-3.9-8.7-8.7v0c0-4.8-3.9-8.7-8.7-8.7h-25.8
			c-4.8,0-8.7-3.9-8.7-8.7c0-4.8-3.9-8.7-8.7-8.7h-12.5c-4.8,0-8.7-3.9-8.7-8.7v0c0-4.8,3.9-8.7,8.7-8.7h58.1c4.8,0,8.7,3.9,8.7,8.7
			v0c0,4.8,3.9,8.7,8.7,8.7h61.4c4.8,0,8.7,3.9,8.7,8.7C1682.7,529.5,1678.8,533.4,1674,533.4z"/>
		
			<linearGradient id="SVGID_00000067926975716204299430000006702284090329374856_" gradientUnits="userSpaceOnUse" x1="1351.6277" y1="775.4375" x2="1351.6277" y2="130.8103">
			<stop  offset="0" style="stop-color:#7FFFE0;stop-opacity:0.5"/>
			<stop  offset="0.1177" style="stop-color:#7DF9DD;stop-opacity:0.4412"/>
			<stop  offset="0.2768" style="stop-color:#79E8D5;stop-opacity:0.3616"/>
			<stop  offset="0.4597" style="stop-color:#71CBC8;stop-opacity:0.2702"/>
			<stop  offset="0.6603" style="stop-color:#66A4B5;stop-opacity:0.1699"/>
			<stop  offset="0.8728" style="stop-color:#59729E;stop-opacity:6.360069e-02"/>
			<stop  offset="1" style="stop-color:#50508E;stop-opacity:0"/>
		</linearGradient>
		<path style="fill:url(#SVGID_00000067926975716204299430000006702284090329374856_);" d="M1363.1,455.6L1363.1,455.6
			c0,4.7-3.8,8.5-8.5,8.5h-71.3c-4.7,0-8.5,3.8-8.5,8.5l0,0c0,4.7,3.8,8.5,8.5,8.5h83.3c4.7,0,8.5-3.8,8.5-8.5l0,0
			c0-4.7,3.8-8.5,8.5-8.5h36.4c4.7,0,8.5-3.8,8.5-8.5l0,0c0-4.7-3.8-8.5-8.5-8.5h-48.4C1366.9,447,1363.1,450.8,1363.1,455.6z"/>
	</g>
	
		<linearGradient id="SVGID_00000140002014918314779580000006940126321752816553_" gradientUnits="userSpaceOnUse" x1="709.5005" y1="606.558" x2="958.1255" y2="463.683">
		<stop  offset="0" style="stop-color:#FFFFFF;stop-opacity:0.5"/>
		<stop  offset="1" style="stop-color:#FFFFFF;stop-opacity:0"/>
	</linearGradient>
	<path style="display:inline;opacity:0.7;fill:url(#SVGID_00000140002014918314779580000006940126321752816553_);" d="M1243,477.5
		c-1.8,35.7-10.2,69.7-24,100.8c-17.7,22.4-139.8-9.9-278.2-74.1c-136.3-63.2-238.8-134.4-236.4-163.2c15.3-32,36.4-60.6,62-84.6
		c-149.1-45.8-259.7-53.7-278.7-12.9c-18.9,40.8,58.5,120.1,189.5,204.3c65.5,42.1,144.5,85.4,231.5,125.8
		c87.2,40.4,171.4,72.8,245.9,95.6c148.7,45.6,259,53.4,277.9,12.6C1451.3,640.9,1373.9,561.7,1243,477.5z"/>
	
		<linearGradient id="SVGID_00000026121733170146327220000016925233149451540645_" gradientUnits="userSpaceOnUse" x1="802.9017" y1="276.1524" x2="859.7142" y2="299.2149" gradientTransform="matrix(0.9847 -0.1744 0.1744 0.9847 -37.8927 149.1656)">
		<stop  offset="0" style="stop-color:#FFFFFF;stop-opacity:0.7"/>
		<stop  offset="1" style="stop-color:#FFFFFF;stop-opacity:0"/>
	</linearGradient>
	<path style="display:inline;opacity:0.5;fill:url(#SVGID_00000026121733170146327220000016925233149451540645_);" d="M863.3,243.2
		c13,11.4,6.7,39.9-14.2,63.8c-20.8,23.8-48.3,33.9-61.3,22.6s-6.7-39.9,14.2-63.8C822.9,241.9,850.3,231.8,863.3,243.2z"/>
	
		<linearGradient id="SVGID_00000093137983002818473430000016593769071714298525_" gradientUnits="userSpaceOnUse" x1="547.5071" y1="172.612" x2="604.3196" y2="195.6745" gradientTransform="matrix(0.2256 -5.365300e-02 0.1176 0.2157 603.1773 336.8444)">
		<stop  offset="0" style="stop-color:#FFFFFF;stop-opacity:0.7"/>
		<stop  offset="1" style="stop-color:#FFFFFF;stop-opacity:0"/>
	</linearGradient>
	<path style="display:inline;opacity:0.5;fill:url(#SVGID_00000093137983002818473430000016593769071714298525_);" d="M759.2,335.4
		c4,2.3,4.7,8.8,1.4,14.4s-9.1,8.3-13.1,5.9c-4-2.3-4.7-8.8-1.4-14.4S755.2,333,759.2,335.4z"/>
	
		<linearGradient id="SVGID_00000182516834922429343200000012082904899333520809_" gradientUnits="userSpaceOnUse" x1="1236.6742" y1="100.6389" x2="1293.4867" y2="123.7014" gradientTransform="matrix(0.1895 -5.419592e-02 9.067240e-02 0.1838 650.9007 339.1295)">
		<stop  offset="0" style="stop-color:#FFFFFF;stop-opacity:0.7"/>
		<stop  offset="1" style="stop-color:#FFFFFF;stop-opacity:0"/>
	</linearGradient>
	<path style="display:inline;opacity:0.5;fill:url(#SVGID_00000182516834922429343200000012082904899333520809_);" d="M904.9,282.1
		c3.3,1.9,3.6,7.5,0.7,12.4s-7.9,7.5-11.1,5.6c-3.3-1.9-3.6-7.5-0.7-12.4S901.6,280.2,904.9,282.1z"/>
	
		<linearGradient id="SVGID_00000018215585445008503430000007684534388454312861_" gradientUnits="userSpaceOnUse" x1="805.5425" y1="374.0597" x2="838.9175" y2="374.0597" gradientTransform="matrix(0.957 0.2902 -0.2902 0.957 147.3363 -217.7176)">
		<stop  offset="0" style="stop-color:#FFFFFF;stop-opacity:0.7"/>
		<stop  offset="1" style="stop-color:#FFFFFF;stop-opacity:0"/>
	</linearGradient>
	<path style="display:inline;opacity:0.5;fill:url(#SVGID_00000018215585445008503430000007684534388454312861_);" d="M841.6,383.7
		c-3.5,11.5-13.5,18.6-22.3,16c-8.8-2.7-13.1-14.2-9.7-25.7c3.5-11.5,13.5-18.6,22.3-16C840.7,360.7,845.1,372.2,841.6,383.7z"/>
	
		<linearGradient id="SVGID_00000006666870326230899100000013606631331434120340_" gradientUnits="userSpaceOnUse" x1="847.7489" y1="213.3168" x2="881.1239" y2="213.3168" gradientTransform="matrix(0.3275 0.725 -0.7768 0.3509 793.9081 -474.1748)">
		<stop  offset="0" style="stop-color:#FFFFFF;stop-opacity:0.7"/>
		<stop  offset="1" style="stop-color:#FFFFFF;stop-opacity:0"/>
	</linearGradient>
	<path style="display:inline;opacity:0.5;fill:url(#SVGID_00000006666870326230899100000013606631331434120340_);" d="M916.8,239.5
		c-9.3,4.2-19.3,2.2-22.4-4.5c-3-6.7,2.1-15.5,11.4-19.7c9.3-4.2,19.3-2.2,22.4,4.5C931.3,226.4,926.1,235.3,916.8,239.5z"/>
	
		<linearGradient id="SVGID_00000044900792826052523810000018304606404593070526_" gradientUnits="userSpaceOnUse" x1="225.4539" y1="166.4982" x2="280.7425" y2="239.1323">
		<stop  offset="0" style="stop-color:#FFFFFF;stop-opacity:0.5"/>
		<stop  offset="1" style="stop-color:#FFFFFF;stop-opacity:0"/>
	</linearGradient>
	
		<circle style="display:inline;opacity:0.7;fill:url(#SVGID_00000044900792826052523810000018304606404593070526_);" cx="255.5" cy="206" r="46.1"/>
	
		<linearGradient id="SVGID_00000159463425808019535830000018109892813642355611_" gradientUnits="userSpaceOnUse" x1="1689.0416" y1="247.3041" x2="1707.4813" y2="271.5287">
		<stop  offset="0" style="stop-color:#FFFFFF;stop-opacity:0.5"/>
		<stop  offset="1" style="stop-color:#FFFFFF;stop-opacity:0"/>
	</linearGradient>
	
		<circle style="display:inline;opacity:0.7;fill:url(#SVGID_00000159463425808019535830000018109892813642355611_);" cx="1699.1" cy="260.5" r="15.4"/>
	<g class="st15">
		<circle class="st16" cx="568.7" cy="435.1" r="1.7"/>
		<circle class="st16" cx="538.3" cy="476.2" r="1.7"/>
		<circle class="st16" cx="611.6" cy="510.9" r="1.7"/>
		<circle class="st16" cx="530" cy="378.9" r="2.4"/>
		<circle class="st16" cx="479.9" cy="469.1" r="1.7"/>
		<circle class="st16" cx="449.2" cy="437.2" r="2.1"/>
		<circle class="st16" cx="399" cy="479.6" r="1.7"/>
		<circle class="st16" cx="431.3" cy="366.6" r="0.8"/>
		<circle class="st16" cx="369.5" cy="404.6" r="2.1"/>
		<circle class="st16" cx="397.6" cy="315.1" r="1.5"/>
		<circle class="st16" cx="329.4" cy="436.2" r="1"/>
		<circle class="st16" cx="612.1" cy="380.2" r="1.3"/>
		<circle class="st16" cx="706.7" cy="276.5" r="1.4"/>
		<circle class="st16" cx="623.6" cy="280.3" r="2.4"/>
		<circle class="st16" cx="483.2" cy="525.6" r="1.6"/>
		<circle class="st16" cx="267.9" cy="458.4" r="1.9"/>
		<circle class="st16" cx="285.7" cy="354.4" r="0.8"/>
		<circle class="st16" cx="185.3" cy="484.9" r="1"/>
		<circle class="st16" cx="237.4" cy="409.3" r="1.2"/>
		<circle class="st16" cx="97.4" cy="490.5" r="1.7"/>
		<circle class="st16" cx="131.3" cy="436.2" r="1"/>
		<circle class="st16" cx="182.7" cy="368.2" r="1.6"/>
		<circle class="st16" cx="91.3" cy="367.8" r="1.2"/>
		<circle class="st16" cx="277.9" cy="286.5" r="1"/>
		<circle class="st16" cx="173.4" cy="287.6" r="1"/>
		<circle class="st16" cx="237.2" cy="329.2" r="0.9"/>
		<circle class="st16" cx="381.5" cy="260.8" r="1.1"/>
		<circle class="st16" cx="140.8" cy="257.4" r="0.8"/>
		<circle class="st16" cx="489.2" cy="177.8" r="2"/>
		<circle class="st16" cx="635.9" cy="182.1" r="2.4"/>
		<circle class="st16" cx="585.5" cy="242.6" r="1"/>
		<circle class="st16" cx="769.8" cy="192.3" r="1.8"/>
		<circle class="st16" cx="548.1" cy="299.9" r="0.8"/>
		<circle class="st16" cx="468" cy="311.8" r="0.6"/>
		<circle class="st16" cx="527.6" cy="259.2" r="0.9"/>
		<circle class="st16" cx="442.9" cy="226.3" r="0.7"/>
		<circle class="st16" cx="402.5" cy="155.4" r="2.1"/>
		<circle class="st16" cx="335.8" cy="136.6" r="1"/>
		<circle class="st16" cx="84.3" cy="193" r="0.6"/>
		<circle class="st16" cx="179.3" cy="147.7" r="1.4"/>
		<circle class="st16" cx="99.8" cy="65.4" r="1"/>
		<circle class="st16" cx="308.2" cy="74.1" r="1.5"/>
		<circle class="st16" cx="437.6" cy="81.2" r="1"/>
		<circle class="st16" cx="399.4" cy="36.5" r="1"/>
		<circle class="st16" cx="534.2" cy="105.5" r="0.8"/>
		<circle class="st16" cx="695" cy="125.6" r="1.8"/>
		<circle class="st16" cx="653.1" cy="48.1" r="1.6"/>
		<circle class="st16" cx="625.3" cy="108.7" r="2.3"/>
		<circle class="st16" cx="547.8" cy="28.1" r="2.1"/>
		<circle class="st16" cx="823" cy="126.5" r="0.9"/>
		<circle class="st16" cx="772.9" cy="90.7" r="1.3"/>
		<circle class="st16" cx="753.2" cy="41.5" r="1.6"/>
		<circle class="st16" cx="908.4" cy="109.8" r="1.2"/>
		<circle class="st16" cx="867.6" cy="51.3" r="1.6"/>
		<circle class="st16" cx="1030.6" cy="155.8" r="1.9"/>
		<circle class="st16" cx="1032.5" cy="84.5" r="2.1"/>
		<circle class="st16" cx="1147.8" cy="206.3" r="1.5"/>
		<circle class="st16" cx="1206.1" cy="258.5" r="2"/>
		<path class="st16" d="M1274.5,323.8c0,1.4-1.1,2.5-2.5,2.5s-2.5-1.1-2.5-2.5s1.1-2.5,2.5-2.5S1274.5,322.4,1274.5,323.8z"/>
		<circle class="st16" cx="1470.5" cy="286.4" r="1.7"/>
		<path class="st16" d="M1411.4,307.2c0,0.9-0.8,1.7-1.7,1.7s-1.7-0.8-1.7-1.7s0.8-1.7,1.7-1.7S1411.4,306.2,1411.4,307.2z"/>
		<path class="st16" d="M1291.4,234.2c0,0.4-0.3,0.7-0.7,0.7c-0.4,0-0.7-0.3-0.7-0.7s0.3-0.7,0.7-0.7
			C1291.1,233.5,1291.4,233.8,1291.4,234.2z"/>
		<circle class="st16" cx="1139.7" cy="121.2" r="1.4"/>
		<circle class="st16" cx="1363.5" cy="106.6" r="1.4"/>
		<circle class="st16" cx="1529.1" cy="30.1" r="1.4"/>
		<circle class="st16" cx="1643.4" cy="117.9" r="1.4"/>
		<circle class="st16" cx="1514.4" cy="336.9" r="1.4"/>
		<circle class="st16" cx="1885.9" cy="251.6" r="1.4"/>
		<circle class="st16" cx="1737.5" cy="368.8" r="0.7"/>
		<circle class="st16" cx="1768.1" cy="510.6" r="0.7"/>
		<circle class="st16" cx="1371.8" cy="239.4" r="2.5"/>
		<path class="st16" d="M1274.5,146.6c0,1.4-1.1,2.5-2.5,2.5s-2.5-1.1-2.5-2.5s1.1-2.5,2.5-2.5S1274.5,145.2,1274.5,146.6z"/>
		<circle class="st16" cx="1248.5" cy="59" r="1.5"/>
		<circle class="st16" cx="1435.2" cy="389.6" r="2.5"/>
		<circle class="st16" cx="1433.4" cy="485.1" r="1.3"/>
		<circle class="st16" cx="1301.8" cy="503.3" r="1.3"/>
		<circle class="st16" cx="1339.9" cy="441.3" r="2.6"/>
		<circle class="st16" cx="1564.6" cy="424.6" r="2.2"/>
		<circle class="st16" cx="1727.4" cy="447.8" r="1.7"/>
		<circle class="st16" cx="1672" cy="313.2" r="2.4"/>
		<circle class="st16" cx="1559.2" cy="240.2" r="1"/>
		<circle class="st16" cx="1834.3" cy="482.8" r="2.8"/>
		<circle class="st16" cx="1814" cy="363.5" r="2.6"/>
		<circle class="st16" cx="1780.6" cy="253.2" r="1.7"/>
		<circle class="st16" cx="1685.4" cy="180.1" r="2.4"/>
		<circle class="st16" cx="1486.2" cy="172.2" r="1.9"/>
		<circle class="st16" cx="1456.7" cy="102.4" r="1.4"/>
		<circle class="st16" cx="1581.6" cy="88.6" r="2.3"/>
		<circle class="st16" cx="1736.8" cy="72.9" r="2.5"/>
		<circle class="st16" cx="1810.9" cy="141" r="1.8"/>
		<circle class="st16" cx="1842.8" cy="56" r="1.2"/>
		<circle class="st16" cx="1580.4" cy="192.1" r="1.1"/>
		<circle class="st16" cx="1366.1" cy="163" r="0.8"/>
	</g>
	<g class="st15">
		<path class="st17" d="M493.2,434l0.2-1.2c-2.8-0.5-5.2-2-6.9-4.3c-1.6-2.3-2.3-5.1-1.8-7.9l-1.2-0.2c-0.5,3.1,0.2,6.3,2,8.8
			C487.4,431.8,490.1,433.5,493.2,434z"/>
		<path class="st17" d="M493.7,431l0.2-1.2c-2-0.3-3.7-1.4-4.9-3.1c-1.2-1.7-1.6-3.7-1.3-5.7l-1.2-0.2c-0.4,2.3,0.1,4.7,1.5,6.6
			C489.4,429.4,491.4,430.6,493.7,431z"/>
		<path class="st17" d="M494.2,428l0.2-1.2c-1.2-0.2-2.2-0.9-2.9-1.8c-0.7-1-1-2.2-0.8-3.4l-1.2-0.2c-0.3,1.5,0.1,3,1,4.3
			C491.4,426.9,492.7,427.8,494.2,428z"/>
		<path class="st17" d="M496.4,424.1c0.6-0.4,0.9-1,0.9-1.6l12.2,1.9c0.7,0.1,1.3,0,1.8-0.3c3.3-2.3,3.9-7.1,1.9-11.5l1.4-1
			c1.6,1.7,3.5,2.6,4.6,1.8l2.8-2l1.7,2.5l-2.8,2c-0.7,0.5-0.9,1.5-0.4,2.2l10.3,14.5c0.5,0.7,1.5,0.9,2.2,0.4l7.4-5.2
			c0.7-0.5,0.9-1.5,0.4-2.2L530.4,411c-0.5-0.7-1.5-0.9-2.2-0.4l-2.8,2l-1.7-2.5l3.4-2.4c0.7-0.5,0.9-1.4,0.7-2.5
			c0.8,0,1.7-0.1,2-0.3c1.5-1.1,1.2-4-0.7-6.6c-1.9-2.6-4.5-3.9-6-2.8c-0.3,0.2-0.7,1.1-0.9,1.8c-1-0.6-1.9-0.7-2.6-0.2l-3.4,2.4
			l-1.9-2.6l2.8-2c0.7-0.5,0.9-1.5,0.4-2.2l-10.3-14.5c-0.5-0.7-1.5-0.9-2.2-0.4l-7.4,5.2c-0.7,0.5-0.9,1.5-0.4,2.2l10.3,14.5
			c0.5,0.7,1.5,0.9,2.2,0.4l2.8-2l1.9,2.6l-2.8,2c-1.2,0.8-0.9,2.9,0.2,5l-1.4,1c-3.4-3.4-8.2-4.3-11.5-2c-0.5,0.4-0.8,0.9-0.9,1.6
			l-2.2,12.1c-0.6-0.2-1.3-0.1-1.8,0.3c-1,0.7-1.2,2-0.5,3S495.5,424.7,496.4,424.1z M497.7,421.3l4.3-3.1c1.2,1.7,2.7,3.2,4.1,4.4
			L497.7,421.3z M501.3,417.2l-4.3,3.1l1.5-8.4C499.2,413.6,500.2,415.5,501.3,417.2z"/>
	</g>
	<g class="st15">
		<path class="st17" d="M1492.1,291.9l-0.1,1.4c3.4,0.3,6.4,2,8.6,4.6c2.1,2.6,3.1,5.9,2.8,9.3l1.4,0.1c0.4-3.8-0.7-7.5-3.1-10.4
			C1499.3,294.1,1495.9,292.2,1492.1,291.9z"/>
		<path class="st17" d="M1491.8,295.5l-0.1,1.4c2.4,0.2,4.6,1.4,6.1,3.3c1.5,1.9,2.2,4.2,2,6.7l1.4,0.1c0.3-2.8-0.5-5.5-2.3-7.7
			S1494.6,295.8,1491.8,295.5z"/>
		<path class="st17" d="M1491.4,299.1l-0.1,1.4c1.4,0.1,2.8,0.8,3.7,2c0.9,1.1,1.3,2.5,1.2,4l1.4,0.1c0.2-1.8-0.4-3.6-1.5-5.1
			C1494.9,300.2,1493.2,299.3,1491.4,299.1z"/>
		<path class="st17" d="M1489.1,304c-0.6,0.5-0.9,1.2-0.9,2l-14.3-1.6c-0.1,0-0.2,0-0.3,0c-0.7,0-1.3,0.3-1.7,0.8
			c-3.4,3.8-4,9.5-1.8,14l-3.9,3.2l-2-2.5c-0.6-0.8-1.8-0.9-2.6-0.3l-4.7,3.8l-2.7-3.3l3.2-2.6c0.8-0.7,0.9-1.8,0.3-2.6l-13.5-16.5
			c-0.7-0.8-1.8-0.9-2.6-0.3l-8.4,6.8c-0.8,0.7-0.9,1.8-0.3,2.6l13.5,16.5c0.7,0.8,1.8,0.9,2.6,0.3l3.2-2.6l2.7,3.3l-4.3,3.5
			c-0.8,0.6-0.9,1.8-0.3,2.6l0.3,0.4l-3.3,1c-0.5,0.2-0.9,0.5-1.1,1.1c-0.2,0.5,0,1.1,0.3,1.5l7.2,8.8c0.3,0.4,0.9,0.6,1.4,0.6
			c0.3,0,0.6-0.2,0.8-0.3c0.2-0.1,0.3-0.3,0.4-0.5l1.6-3.1l0.1,0.2c0.6,0.8,1.8,0.9,2.6,0.3l4.3-3.5l2.8,3.4l-3.2,2.6
			c-0.8,0.7-0.9,1.8-0.3,2.6l13.5,16.5c0.7,0.8,1.8,0.9,2.6,0.3l8.4-6.8c0.8-0.7,0.9-1.8,0.3-2.6l-13.5-16.5
			c-0.7-0.8-1.8-0.9-2.6-0.3l-3.2,2.6l-2.8-3.4l4.7-3.8c0.8-0.6,0.9-1.8,0.3-2.6l-2.1-2.6l3.9-3.2c4,3.1,9.7,3.7,14.1,1.1
			c0.1-0.1,0.2-0.1,0.3-0.2c0.4-0.3,0.7-0.8,0.8-1.4c0-0.1,0-0.2,0-0.3l1.3-14.4c0.7,0.1,1.5,0,2.1-0.5c1.1-0.9,1.2-2.5,0.4-3.6
			S1490.2,303.1,1489.1,304z M1476,306.1l11.8,1.3l-6.4,5.2L1476,306.1z M1482.3,313.8l6.4-5.2l-1,11.8L1482.3,313.8z"/>
	</g>
</g>
<g id="Layer_9_text" class="st0">
	<g class="st15">
		<g>
			<g>
				<path class="st16" d="M802.5,466.9c0,0.5-0.4,1-1,1h-7.7c-0.6,0-1.1-0.5-1.1-1v-44.2c0-0.5,0.5-1,1.1-1h30.8c0.5,0,1,0.5,1,1
					v6.7c0,0.5-0.5,1-1,1h-22.1v10h19c0.5,0,1,0.5,1,1v6.6c0,0.6-0.5,1.1-1,1.1h-19V466.9z"/>
				<path class="st16" d="M849.1,421.7c0.6,0,1,0.5,1,1v44.2c0,0.5-0.4,1-1,1h-7.7c-0.6,0-1.1-0.5-1.1-1v-44.2c0-0.5,0.5-1,1.1-1
					H849.1z"/>
				<path class="st16" d="M899.4,422.7c0-0.5,0.5-1,1-1h7.3c0.5,0,1,0.5,1,1v44.2c0,0.5-0.5,1-1,1h-6.8c-0.8,0-1.3-0.1-1.9-1
					L876.8,438v28.9c0,0.5-0.5,1-1,1h-7.3c-0.6,0-1.1-0.5-1.1-1v-44.2c0-0.5,0.5-1,1.1-1h6.8c0.8,0,1.2,0.3,1.8,1.1l22.2,28.9V422.7
					z"/>
				<path class="st16" d="M964.1,466.9c0,0.5-0.5,1-1,1h-7.7c-0.5,0-1-0.5-1-1v-13.1h-18.5v13.1c0,0.5-0.5,1-1,1H927
					c-0.5,0-1-0.5-1-1v-26.6c0-5.6,2.2-11.3,6.8-15.1c3-2.5,7.1-4.1,12.2-4.1c5.2,0,9.3,1.6,12.3,4.1c4.7,3.8,6.8,9.6,6.8,15.1
					V466.9z M938.6,432.6c-1.8,1.8-2.9,4.5-2.9,8.1v4.3h18.5v-4.3c0-3.7-1.1-6.3-2.8-8.1c-1.7-1.6-4-2.4-6.5-2.4
					C942.5,430.2,940.3,430.9,938.6,432.6z"/>
				<path class="st16" d="M1013.1,422.7c0-0.5,0.5-1,1-1h7.3c0.5,0,1,0.5,1,1v44.2c0,0.5-0.5,1-1,1h-6.8c-0.8,0-1.3-0.1-1.9-1
					L990.6,438v28.9c0,0.5-0.5,1-1,1h-7.3c-0.6,0-1.1-0.5-1.1-1v-44.2c0-0.5,0.5-1,1.1-1h6.8c0.8,0,1.2,0.3,1.8,1.1l22.2,28.9V422.7
					z"/>
				<path class="st16" d="M1037.9,444.8c0-13.5,10.9-23.7,24.8-23.7c6.5,0,10.8,1.6,14,3.2c0.7,0.4,0.8,0.9,0.5,1.4l-3.1,6.5
					c-0.3,0.6-0.8,0.7-1.4,0.4c-2.9-1.4-6-2.7-10.2-2.7c-7.8,0-14.3,6.4-14.3,14.9c0,8.8,6.2,14.9,14.4,14.9c4.2,0,7.6-1.2,10.5-2.7
					c0.6-0.3,0.9-0.3,1.2,0.3l3.1,6.6c0.3,0.6,0.1,1-0.5,1.3c-3.6,1.8-8,3.3-14.5,3.3C1047.6,468.6,1037.9,459.4,1037.9,444.8z"/>
				<path class="st16" d="M1126.2,421.7c0.6,0,1.1,0.5,1.1,1v6.7c0,0.5-0.5,1-1.1,1h-24v10h20.5c0.5,0,1,0.5,1,1v6.6
					c0,0.6-0.5,1.1-1,1.1h-20.5v10.3h24c0.6,0,1.1,0.4,1.1,1v6.6c0,0.5-0.5,1-1.1,1h-32.7c-0.6,0-1.1-0.5-1.1-1v-44.2
					c0-0.5,0.5-1,1.1-1H1126.2z"/>
			</g>
			<g>
				<path class="st18" d="M774.4,385.3c0,1.1-1,2.1-2.2,2.1h-15c-1.2,0-2.2-1-2.2-2.1v-57.7l-20.1,35.1c-0.8,1.5-1.5,2.2-3.3,2.2
					h-11.5c-1.7,0-2.5-0.7-3.3-2.2l-20.7-35.1v57.7c0,1.1-1,2.1-2.2,2.1h-15c-1.2,0-2.2-1-2.2-2.1v-90.2c0-1.1,1-2.1,2.2-2.1h15.8
					c1.7,0,2.8,0.3,3.9,2.2l26.9,46.7l27-46.7c1-1.9,2.1-2.2,3.7-2.2h15.9c1.2,0,2.2,1,2.2,2.1V385.3z"/>
				<path class="st18" d="M870.7,385.3c0,1.1-1,2.1-2.1,2.1h-15.8c-1.1,0-2.1-1-2.1-2.1v-25.1h-37.8v25.1c0,1.1-1,2.1-2.1,2.1H795
					c-1.1,0-2.1-1-2.1-2.1v-54.2c0-11.4,4.4-23.1,13.9-30.9c6.1-5.1,14.4-8.5,24.9-8.5c10.7,0,19,3.3,25.1,8.5
					c9.6,7.8,13.9,19.5,13.9,30.9V385.3z M818.7,315.3c-3.6,3.7-5.8,9.1-5.8,16.6v10.5h37.8v-10.5c0-7.5-2.2-12.9-5.7-16.6
					c-3.5-3.3-8.2-5-13.3-5C826.8,310.3,822.2,312,818.7,315.3z"/>
				<path class="st18" d="M934.8,385.7c-0.6,1.5-1.5,2.1-3.2,2.1H915c-1.8,0-2.8-0.6-3.3-2.1l-34.4-89.8c-0.7-1.7-0.1-2.9,1.7-2.9
					h16.8c1.8,0,2.9,0.7,3.5,2.4l24,67.4h0.3l24.8-67.4c0.6-1.7,1.5-2.4,3.5-2.4h16.6c1.7,0,2.4,1.2,1.7,2.9L934.8,385.7z"/>
				<path class="st18" d="M1038.3,351.9l20.5,31.9c1,1.7,1.1,3.6-1.2,3.6h-17.3c-1.9,0-3.1-0.3-4-2.1l-18.6-30.6h-17.9v30.6
					c0,1.1-0.8,2.1-2.1,2.1h-15.7c-1.2,0-2.2-1-2.2-2.1v-90.2c0-1.1,1-2.1,2.2-2.1h40.5c9.1,0,17.5,1.7,23.8,6.4
					c6.9,5.1,11,14,11,24.3c0,9-3.3,17.1-10.5,23.2C1044,349.1,1041.3,350.6,1038.3,351.9z M999.8,309.9v27.9h19.4
					c5.1,0,9.3-0.4,12.2-2.4c3.3-2.1,5.7-6,5.7-11.5c0-5.5-2.1-9.1-5.3-11.4c-3-1.9-6.8-2.6-10.9-2.6H999.8z"/>
				<path class="st18" d="M1130.2,295.1c0.8-1.4,1.7-2.1,3.6-2.1h18.2c2.2,0,2.6,1.7,1.4,3.5l-35.1,51.7v37.2c0,1.1-1,2.1-2.1,2.1
					h-15.8c-1.1,0-2.1-1-2.1-2.1V348l-34.8-51.6c-1.2-1.8-0.8-3.5,1.4-3.5h18.2c1.8,0,2.6,0.6,3.5,2.1l21.8,33.3L1130.2,295.1z"/>
				<path class="st18" d="M1191,348.6l-7.6,7.8v29c0,1.1-0.8,2.1-2.1,2.1h-15.7c-1.2,0-2.2-1-2.2-2.1v-90.2c0-1.1,1-2.1,2.2-2.1
					h15.7c1.2,0,2.1,1,2.1,2.1V331l32.6-35.9c1.2-1.4,2.6-2.1,4.3-2.1h20.1c1.8,0,2.5,1.7,1,3.2l-36.3,37.7l37.4,49.9
					c1.2,1.5,1.4,3.6-1.1,3.6h-18.6c-1.8,0-2.9-0.6-4-2.1L1191,348.6z"/>
			</g>
		</g>
	</g>
</g>
<g id="Layer_8">
	<path class="st19" d="M454.5,600.3c0,0,38.7-19.8,44.7-20.2s13,2.6,13,2.6l40.8-7.5c0,0,37.2-6.2,38.3-6.7s27.5-7.1,27.5-7.1
		l14.1,7.1l18.4,6.7l79.4,19.9l28.7-10.1c0,0,66.5,33.3,71.3,34.2s55.4-19.7,55.4-19.7l11.2,1.1l79.6-22.7l34.5,10.1l96-25
		c0,0,43.1,16.9,46.1,17.7c3,0.8,18.5-2.4,18.9-2.9s35.5,14,35.5,14l88.5,18l31.6,1.6l92.4,21l204,58.4l295.5,56l0,333.3H0l0-316
		l196.4-100l54.1-1l91.6-33.2L454.5,600.3z"/>
</g>
<g id="Layer_7" class="st0">
	<g class="st15">
		<path class="st17" d="M0,527l78.3,22.6l36.2,11.6c0,0,30.2,10.9,47.3,6.9c17.1-4.1,82.7-16.4,82.7-16.4l61.3-7.3
			c0,0,77.9,20.8,89.7,25.4s95.4,33.5,95.4,33.5h26.1l189.8,56.4L826.4,693l64.4,9.5l82.7-40l10.2,4.4l110.4-57.9l25.3,8.8
			l59.2,11.8l219.2-57.8l26.5,17.3l96.2-47.3c0,0,128.8,45.1,131.3,47.3s19.4,0,19.4,0l148.6-40.4l100.1-24.7V1080H0L0,527z"/>
		<rect x="11.2" y="520.6" class="st17" width="14.3" height="24.6"/>
		<rect x="32.4" y="526.4" class="st17" width="19.7" height="22.4"/>
		<rect x="57.2" y="533" class="st17" width="12.3" height="26"/>
		<rect x="74.1" y="538.5" class="st17" width="5.1" height="20.5"/>
		<rect x="120.1" y="554.9" class="st17" width="17.3" height="32.1"/>
		<rect x="76.6" y="543.3" class="st17" width="20.8" height="15.7"/>
		<rect x="95.1" y="548.3" class="st17" width="8" height="19.4"/>
		<rect x="145" y="559.7" class="st17" width="16.9" height="29.9"/>
		<rect x="173.3" y="554.1" class="st17" width="15.5" height="21.4"/>
		<rect x="184.3" y="538.5" class="st17" width="14.9" height="28.5"/>
		<rect x="213.6" y="545.1" class="st17" width="7.6" height="16.1"/>
		<rect x="222.6" y="530.8" class="st17" width="18.8" height="35.1"/>
		<rect x="247.1" y="544.4" class="st17" width="8.4" height="15.3"/>
		<rect x="263.8" y="537.2" class="st17" width="32.9" height="22.5"/>
		<rect x="280.2" y="525.4" class="st17" width="9.3" height="27.2"/>
		<rect x="262.2" y="528.6" class="st17" width="7.5" height="29.4"/>
		<rect x="196.4" y="553.9" class="st17" width="18.8" height="10.3"/>
		<rect x="46.3" y="538.4" class="st17" width="17.8" height="13.7"/>
		<rect y="512.3" class="st17" width="18.4" height="18.3"/>
		<rect x="300.8" y="526.6" class="st17" width="16" height="23"/>
		<rect x="324.7" y="535" class="st17" width="22.4" height="22.1"/>
		<rect x="343.5" y="544.4" class="st17" width="11" height="17.5"/>
		<rect x="335.9" y="526.4" class="st17" width="7.7" height="15.3"/>
		<rect x="358.7" y="550" class="st17" width="23.1" height="22.8"/>
		<rect x="380.1" y="559.7" class="st17" width="11.4" height="11.2"/>
		<rect x="371.7" y="536.9" class="st17" width="6.2" height="16.9"/>
		<rect x="406.2" y="561.4" class="st17" width="12.8" height="16.9"/>
		<rect x="427.3" y="567.5" class="st17" width="18" height="27.5"/>
		<rect x="459.1" y="588" class="st17" width="9.8" height="16.1"/>
		<rect x="436.4" y="575.8" class="st17" width="29.8" height="23"/>
		<rect x="481.6" y="594.9" class="st17" width="17.6" height="17.3"/>
		<rect x="490.4" y="584.1" class="st17" width="8.8" height="19.5"/>
		<rect x="517.1" y="596" class="st17" width="8.7" height="20.2"/>
		<rect x="536.6" y="594.9" class="st17" width="32.7" height="28"/>
		<rect x="565.7" y="608.9" class="st17" width="17.7" height="19.8"/>
		<rect x="576.7" y="601" class="st17" width="8.7" height="22"/>
		<rect x="587.4" y="620.3" class="st17" width="12.4" height="17.3"/>
		<rect x="612.1" y="620.3" class="st17" width="6.8" height="17.3"/>
		<rect x="629.6" y="631.5" class="st17" width="16.2" height="15.9"/>
		<rect x="632.9" y="620.3" class="st17" width="12.8" height="27.1"/>
		<rect x="652.9" y="639.5" class="st17" width="18.6" height="14.2"/>
		<rect x="678.2" y="635.1" class="st17" width="18" height="27.7"/>
		<rect x="706.9" y="653.3" class="st17" width="6.5" height="13.2"/>
		<rect x="708.9" y="658.4" class="st17" width="35.2" height="17.8"/>
		<rect x="740.9" y="656.7" class="st17" width="8.7" height="17.5"/>
		<rect x="764" y="656.7" class="st17" width="14.9" height="30.8"/>
		<rect x="776.9" y="668.3" class="st17" width="12.2" height="19.2"/>
		<rect x="797.6" y="676.2" class="st17" width="7.1" height="15.8"/>
		<rect x="830.8" y="680.2" class="st17" width="13.5" height="22.4"/>
		<rect x="804.7" y="682.9" class="st17" width="18.2" height="13.7"/>
		<rect x="898.8" y="682.9" class="st17" width="18.2" height="17.9"/>
		<rect x="926.8" y="668.3" class="st17" width="11.8" height="21.4"/>
		<rect x="945.1" y="658.4" class="st17" width="10.3" height="17.8"/>
		<rect x="947.7" y="665.5" class="st17" width="18.3" height="10.7"/>
		<rect x="968.4" y="656" class="st17" width="16.4" height="16.2"/>
		<rect x="983.8" y="653.1" class="st17" width="17.2" height="19.4"/>
		<rect x="1003.7" y="637.4" class="st17" width="11.5" height="20.8"/>
		<rect x="1014.3" y="634.9" class="st17" width="14.1" height="21.7"/>
		<rect x="1036.2" y="616" class="st17" width="13.2" height="23"/>
		<rect x="1036.2" y="628.6" class="st17" width="32.9" height="17.5"/>
		<rect x="1063.2" y="607.9" class="st17" width="13.1" height="26.9"/>
		<rect x="1069.8" y="599.9" class="st17" width="12.8" height="25.2"/>
		<rect x="1094.2" y="608.9" class="st17" width="12.1" height="16.2"/>
		<rect x="1113" y="590.1" class="st17" width="13.8" height="35"/>
		<rect x="1098.4" y="593.2" class="st17" width="5.9" height="22.7"/>
		<rect x="1126.8" y="608.9" class="st17" width="23.2" height="22.9"/>
		<rect x="1146.5" y="598.2" class="st17" width="13.8" height="34.4"/>
		<rect x="1169.6" y="618.2" class="st17" width="11.5" height="20.8"/>
		<rect x="1202.5" y="604.8" class="st17" width="8.2" height="22.5"/>
		<rect x="1189.5" y="619.1" class="st17" width="5.6" height="12.6"/>
		<rect x="1219.3" y="604.2" class="st17" width="19.5" height="21.2"/>
		<rect x="1241.8" y="594.4" class="st17" width="23.3" height="23"/>
		<rect x="1261.1" y="583.9" class="st17" width="15.3" height="38.9"/>
		<rect x="1274.5" y="591.6" class="st17" width="10.4" height="17.9"/>
		<rect x="1293.3" y="607.3" class="st17" width="8.4" height="19.8"/>
		<rect x="1297.5" y="594.2" class="st17" width="20.2" height="30.3"/>
		<rect x="1288.5" y="591.2" class="st17" width="16" height="18.2"/>
		<rect x="1328.2" y="594.2" class="st17" width="8.7" height="22.9"/>
		<rect x="1343.9" y="574.3" class="st17" width="10.4" height="29"/>
		<rect x="1363.1" y="575.9" class="st17" width="7.9" height="15.3"/>
		<rect x="1377.1" y="560.7" class="st17" width="12.7" height="28.1"/>
		<rect x="1385.6" y="569.6" class="st17" width="19.5" height="19.2"/>
		<rect x="1363.1" y="571.5" class="st17" width="17.5" height="17.3"/>
		<rect x="1420.3" y="564" class="st17" width="14.4" height="27.2"/>
		<rect x="1428.6" y="574.3" class="st17" width="27.3" height="14.5"/>
		<rect x="1449.4" y="552.1" class="st17" width="11" height="29.4"/>
		<rect x="1468.5" y="546" class="st17" width="13.8" height="23.6"/>
		<rect x="1487.9" y="533.5" class="st17" width="17.4" height="29.1"/>
		<rect x="1503.1" y="523.8" class="st17" width="16.3" height="28.3"/>
		<rect x="1473.9" y="552.1" class="st17" width="25" height="11.9"/>
		<rect x="1539.7" y="532.7" class="st17" width="18" height="33"/>
		<rect x="1550.4" y="546" class="st17" width="19.4" height="23.6"/>
		<rect x="1569.8" y="526" class="st17" width="14.1" height="48.3"/>
		<rect x="1524.5" y="536" class="st17" width="5.6" height="13.2"/>
		<rect x="1598.8" y="541.7" class="st17" width="11.2" height="42.3"/>
		<rect x="1589" y="555.4" class="st17" width="15.8" height="22.7"/>
		<rect x="1658" y="580.3" class="st17" width="12.1" height="16.9"/>
		<rect x="1664" y="566.8" class="st17" width="16" height="31.9"/>
		<rect x="1683.1" y="584" class="st17" width="12.1" height="19.3"/>
		<rect x="1689.4" y="565.1" class="st17" width="22.8" height="25"/>
		<rect x="1679.3" y="591.2" class="st17" width="22.7" height="12.1"/>
		<rect x="1757.2" y="543.2" class="st17" width="10.1" height="28.6"/>
		<rect x="1766.4" y="552.6" class="st17" width="16.9" height="20.8"/>
		<rect x="1792.5" y="541.2" class="st17" width="13.2" height="21.8"/>
		<rect x="1816.4" y="530.1" class="st17" width="17.8" height="39.4"/>
		<rect x="1837.5" y="534.3" class="st17" width="13.2" height="17.8"/>
		<rect x="1848.2" y="524.3" class="st17" width="23.6" height="23.3"/>
		<rect x="1830.8" y="536.8" class="st17" width="17.4" height="14.4"/>
		<rect x="1879.4" y="511.9" class="st17" width="15.8" height="37.2"/>
		<rect x="1899.4" y="518.8" class="st17" width="10.7" height="23.3"/>
		<rect x="307.7" y="522.8" class="st17" width="10.3" height="34.8"/>
		<rect x="385.8" y="539.5" class="st17" width="8.5" height="43.4"/>
		<rect x="449.8" y="557" class="st17" width="9.3" height="34"/>
		<rect x="536.6" y="580.2" class="st17" width="16.4" height="30.5"/>
		<ellipse class="st17" cx="413.8" cy="575.8" rx="14.9" ry="23"/>
		<ellipse class="st17" cx="544.8" cy="598.8" rx="12.4" ry="28"/>
		<ellipse class="st17" cx="652.3" cy="644.2" rx="19.3" ry="21.3"/>
		<ellipse class="st17" cx="1121.4" cy="608.2" rx="11.6" ry="24.4"/>
		<ellipse class="st17" cx="1368.5" cy="579.8" rx="17.1" ry="24.4"/>
		<ellipse class="st17" cx="1322.8" cy="607.3" rx="17.1" ry="24.4"/>
		<ellipse class="st17" cx="1738.2" cy="569.5" rx="16.1" ry="14.5"/>
		<ellipse class="st17" cx="1631.2" cy="582.7" rx="16.1" ry="20.9"/>
		<ellipse class="st17" cx="117.8" cy="561.3" rx="10.8" ry="19.7"/>
	</g>
	<g class="st15">
		<rect x="411.3" y="597.2" class="st20" width="3.6" height="7.7"/>
		<rect x="425.4" y="588.3" class="st20" width="3.4" height="8.9"/>
		<rect x="439.4" y="578.8" class="st20" width="2.1" height="3.1"/>
		<rect x="458.2" y="590.4" class="st20" width="4.5" height="9.6"/>
		<rect x="544.8" y="607.4" class="st20" width="7.9" height="7.9"/>
		<rect x="639.3" y="639.4" class="st20" width="6.7" height="6.7"/>
		<rect x="623.4" y="664.9" class="st20" width="6.2" height="10.9"/>
		<rect x="605.8" y="642.7" class="st20" width="4.6" height="4.6"/>
		<rect x="767.9" y="675.9" class="st20" width="3.5" height="14.1"/>
		<rect x="684.7" y="658.5" class="st20" width="6.4" height="6.4"/>
		<rect x="923.2" y="702.5" class="st20" width="5.8" height="5.8"/>
		<rect x="942.8" y="685.3" class="st20" width="2.3" height="8.5"/>
		<rect x="1169.6" y="641.2" class="st20" width="5.6" height="8.5"/>
		<rect x="1113" y="629.2" class="st20" width="8.7" height="11"/>
		<rect x="1090" y="628.3" class="st20" width="4" height="4"/>
		<rect x="417.5" y="568.2" class="st20" width="4.1" height="9.3"/>
		<rect x="309.7" y="548.9" class="st20" width="2.2" height="5.6"/>
		<rect x="275.6" y="550.5" class="st20" width="4.1" height="4.1"/>
		<rect x="199.2" y="566.7" class="st20" width="4.3" height="4.3"/>
		<rect x="1279.7" y="616.1" class="st20" width="5.1" height="7.1"/>
		<rect x="1262.3" y="615.6" class="st20" width="2.3" height="6.5"/>
		<rect x="1294.9" y="600.1" class="st20" width="3.4" height="3.4"/>
		<rect x="1322.8" y="591.2" class="st20" width="4.1" height="4.1"/>
		<rect x="1263.5" y="597.5" class="st20" width="5.2" height="8.4"/>
		<rect x="1247.4" y="612.7" class="st20" width="1.7" height="1.7"/>
		<rect x="1144.6" y="654.4" class="st20" width="6.9" height="11"/>
		<rect x="1148.5" y="637.5" class="st20" width="3.1" height="3.1"/>
		<rect x="1364.3" y="570.2" class="st20" width="8.4" height="11.1"/>
		<rect x="1359.7" y="597.3" class="st20" width="7.3" height="11.3"/>
		<rect x="1338.6" y="599.8" class="st20" width="2.6" height="2.6"/>
		<rect x="1465.3" y="581.5" class="st20" width="6.4" height="11.5"/>
		<rect x="1384.6" y="586.2" class="st20" width="2" height="7.4"/>
		<rect x="1849.2" y="551.1" class="st20" width="3.1" height="3.1"/>
		<rect x="1514.4" y="600.1" class="st20" width="8.6" height="10.7"/>
		<rect x="1731.8" y="568" class="st20" width="3" height="5.3"/>
		<rect x="1610.4" y="589.8" class="st20" width="4.9" height="4.9"/>
		<rect x="1695.2" y="584.3" class="st20" width="3.8" height="8.9"/>
		<rect x="1476.1" y="559.7" class="st20" width="7.7" height="7.7"/>
		<rect x="1493.8" y="543.5" class="st20" width="2.1" height="6"/>
		<rect x="776.9" y="700.6" class="st20" width="7" height="16"/>
		<rect x="698.5" y="678.5" class="st20" width="6.8" height="13.1"/>
		<rect x="700.4" y="706" class="st20" width="6" height="6"/>
		<rect x="680.2" y="695.8" class="st20" width="7" height="16.2"/>
		<rect x="773" y="749.1" class="st20" width="4.2" height="6.3"/>
		<rect x="909.7" y="746.4" class="st20" width="5.1" height="10.7"/>
		<rect x="904.3" y="706" class="st20" width="7.3" height="12.6"/>
		<rect x="896.5" y="746.4" class="st20" width="5.6" height="7.3"/>
		<rect x="942.2" y="708.3" class="st20" width="8" height="8"/>
		<rect x="701.8" y="743.9" class="st20" width="4.6" height="6.2"/>
		<rect x="609.9" y="692.3" class="st20" width="10.6" height="10.6"/>
		<rect x="964.5" y="702" class="st20" width="2.8" height="7.9"/>
		<rect x="1070.6" y="643.5" class="st20" width="3.8" height="3.8"/>
		<rect x="454.5" y="616.2" class="st20" width="6" height="6"/>
		<rect x="367" y="565.2" class="st20" width="5.2" height="5.2"/>
		<rect x="1003.7" y="673.1" class="st20" width="7" height="7"/>
		<rect x="1018.2" y="654.4" class="st20" width="4.3" height="8.7"/>
		<rect x="1046.7" y="652" class="st20" width="4.5" height="8.5"/>
		<rect x="1036.2" y="673.1" class="st20" width="3.4" height="8.3"/>
		<rect x="1092" y="658.7" class="st20" width="3.3" height="6.7"/>
		<rect x="976.6" y="681.4" class="st20" width="4.1" height="8.2"/>
		<rect x="726.5" y="687.1" class="st20" width="4.7" height="8.8"/>
		<rect x="820.1" y="702" class="st20" width="2.7" height="7"/>
		<rect x="841.9" y="712" class="st20" width="9" height="9"/>
		<rect x="822.9" y="721.9" class="st20" width="6.4" height="6.4"/>
		<rect x="863.8" y="731.9" class="st20" width="5.7" height="10.6"/>
		<rect x="501" y="617.7" class="st20" width="7.7" height="9.5"/>
		<rect x="548.8" y="645" class="st20" width="4" height="5.9"/>
		<rect x="251.3" y="568.2" class="st20" width="4.2" height="6.7"/>
	</g>
</g>
<g id="Layer_6" class="st0">
	<g class="st15">
		<g>
			<path class="st21" d="M1030.1,735.7H477.1c-23,0-35.6-12.7-49-26.1c-15.5-15.5-31.5-31.6-66.5-31.6H236.9v-7h124.7
				c38,0,55.8,17.9,71.5,33.6c12.8,12.9,23.9,24,44,24h552.9c8.5,0,16.5-5.1,25.8-11c13.1-8.3,29.4-18.7,54.1-18.7h664.9v7h-664.9
				c-22.7,0-37.4,9.4-50.4,17.6C1049.4,730.1,1040.6,735.7,1030.1,735.7z"/>
		</g>
		<path class="st21" d="M493.4,801.5h-96.2l-21-79h-26.6l-7.5-32.4h-22.4l-8.6,25.9h-61.7l-0.8-72H232l-8-19.5h-16.7l-14.2,51.4
			h-21.9l-5.3,12.8h-18.2l-4.8-31.6h-19.4v-66.3H110L99.1,717.5H50.8l-12.4-83.2h-9v24.3h-9.8L0,690.9V1080h1920V675.9h-85V572.4
			l-60.2-32.4v71.2l-29.8,22.5v38.2l-36,20.2v35.4h-38.8v-60.2l-57.4-24.5v76.8l-40.5,18.6v31.9h-146.8V597.5h-9.6
			c0,0-4.9,96.9-20.6,133.5h-23.2l-12.4,24.4h-15.8v-98.6h-23.6v-47.8h-21.4l-11.8,78.4h-44.4V728h-18h-31.4l-14.2,46.1h-22.5v-30.9
			h-46.1l-16.3,65.1h-26.4l-16.9-22.4H887.8l-7.9-115.9l-18-8.8v-52.3l-21.4,11.8v55.1l-32.1,19.4v72.7l-31.5,38.2V843h-45.5
			l-1.8-19.4l-34.3-17.6l-6.7-73.4h-29.2v-73.1c0,0-45.3,41.1-45.3,141.9H493.4z"/>
		<rect x="1412.3" y="700.6" class="st21" width="39.7" height="76.6"/>
		<path class="st21" d="M1594.8,593h-110.3c-2.6,0-4.8-2.1-4.8-4.8l0,0c0-2.6,2.1-4.8,4.8-4.8h110.3c2.6,0,4.8,2.1,4.8,4.8l0,0
			C1599.6,590.9,1597.5,593,1594.8,593z"/>
		<g>
			<path class="st21" d="M280.2,597.7c0-17.1,13.9-30.9,30.9-30.9s30.9,13.9,30.9,30.9"/>
			<path class="st21" d="M351.1,606h-79.8c-2.9,0-5.3-2.4-5.3-5.3v0c0-2.9,2.4-5.3,5.3-5.3h79.8c2.9,0,5.3,2.4,5.3,5.3v0
				C356.4,603.6,354,606,351.1,606z"/>
			<polygon class="st21" points="315.1,601.9 311.2,601.9 307.2,601.9 294,735.2 311.2,735.2 328.3,735.2 			"/>
		</g>
		<path class="st21" d="M1539.7,543.6c-22.4,0-40.5,18.1-40.5,40.5h80.9C1580.2,561.7,1562,543.6,1539.7,543.6z"/>
		<rect x="1532.3" y="586.8" class="st21" width="14.8" height="206.6"/>
		<rect x="1391.3" y="589.9" class="st21" width="57.9" height="8.9"/>
		<rect x="1418.1" y="613.3" class="st21" width="25" height="20.9"/>
		<rect x="1397.4" y="659.7" class="st21" width="45.7" height="20.9"/>
		<rect x="1472.8" y="729.5" class="st21" width="24" height="58.9"/>
		<rect x="1490" y="752.4" class="st21" width="24.4" height="36"/>
		<rect x="1397.4" y="634.2" class="st21" width="25.8" height="16.4"/>
		<circle class="st21" cx="955.4" cy="787.7" r="43.7"/>
		<ellipse class="st21" cx="419.6" cy="777.8" rx="35" ry="57.2"/>
		<circle class="st21" cx="1203.5" cy="624.2" r="23.6"/>
		<path class="st21" d="M1238.5,629h-69.9c-2.7,0-4.8-2.2-4.8-4.8l0,0c0-2.7,2.2-4.8,4.8-4.8h69.9c2.7,0,4.8,2.2,4.8,4.8l0,0
			C1243.3,626.9,1241.2,629,1238.5,629z"/>
		<path class="st21" d="M1228.5,663.2h-49.9c-1.9,0-3.5-1.5-3.5-3.5l0,0c0-1.9,1.5-3.5,3.5-3.5h49.9c1.9,0,3.5,1.5,3.5,3.5l0,0
			C1232,661.6,1230.4,663.2,1228.5,663.2z"/>
		<path class="st21" d="M1221.3,682.9h-35.6c-1.6,0-2.9-1.3-2.9-2.9v-1c0-1.6,1.3-2.9,2.9-2.9h35.6c1.6,0,2.9,1.3,2.9,2.9v1
			C1224.3,681.6,1223,682.9,1221.3,682.9z"/>
		<path class="st21" d="M1208.7,642.4h-5.2h-5.2c0,71.1-11,110-11,110h16.2h16.2C1219.7,752.4,1208.7,713.4,1208.7,642.4z"/>
		<path class="st21" d="M738.1,856.8h-10.6v-52.2c0-2.9,2.4-5.3,5.3-5.3l0,0c2.9,0,5.3,2.4,5.3,5.3V856.8z"/>
		<rect x="1134.5" y="692.8" class="st21" width="13.5" height="67.5"/>
		<rect x="1126.8" y="715.6" class="st21" width="17.2" height="49.1"/>
		<rect x="1082.7" y="764.8" class="st21" width="11.5" height="57"/>
		<rect x="1261.1" y="639.6" class="st21" width="13.3" height="65.9"/>
		<rect x="1631.2" y="578.6" class="st21" width="26.7" height="103.2"/>
		<rect x="1722.2" y="616.2" class="st21" width="9.5" height="72.4"/>
		<polygon class="st21" points="217.4,537.3 217.4,630.4 238.6,650.2 238.6,546.5 		"/>
		<rect x="91.2" y="583.8" class="st21" width="50.1" height="11.1"/>
		<rect x="109" y="603.4" class="st21" width="32.2" height="11.1"/>
		<rect x="109" y="623" class="st21" width="32.3" height="11.1"/>
		<rect x="116.3" y="629.4" class="st21" width="15.1" height="34.5"/>
		<polygon class="st21" points="402.2,821.2 374.8,821.2 374.8,660.5 402.2,639.4 		"/>
		<rect x="397.3" y="592.5" class="st21" width="22.2" height="194.2"/>
		<rect x="494.4" y="731.6" class="st21" width="35.6" height="103.4"/>
		<rect x="425.4" y="773" class="st21" width="83.2" height="57.1"/>
		<path class="st21" d="M302.4,735.2h-31.1v-23.8c0-7.6,6.2-13.8,13.8-13.8h17.4V735.2z"/>
		<path class="st21" d="M84,731.6H69.3v-49c0-4,3.3-7.3,7.3-7.3h0c4,0,7.3,3.3,7.3,7.3V731.6z"/>
		<path class="st21" d="M565.7,819.5H551v-38.7c0-4.3,3.5-7.7,7.7-7.7h7V819.5z"/>
		<rect x="1026.5" y="760.2" class="st21" width="13.1" height="48.5"/>
		<rect x="1661.4" y="713.4" class="st21" width="26.4" height="26.4"/>
		<polygon class="st21" points="1887.3,695.4 1865,695.4 1865,652.4 1887.3,642.4 		"/>
		<path class="st21" d="M1920,693.1h-34.8v-66.7c0-10.9,8.9-19.8,19.8-19.8h14.9V693.1z"/>
		<rect x="934.4" y="728.7" class="st21" width="8.4" height="43.4"/>
		<rect x="976.6" y="723.7" class="st21" width="8.2" height="49.8"/>
		<rect x="1078.2" y="793.2" class="st21" width="38" height="20.2"/>
		<rect x="760.1" y="829.2" class="st21" width="31.5" height="17.9"/>
		<rect x="583.4" y="777.8" class="st21" width="54.2" height="32.2"/>
	</g>
</g>
<g id="Layer_5" class="st0">
	<g class="st15">
		<polygon class="st22" points="419.6,688.9 413.7,688.9 405.5,925 433.7,925 425.4,688.9 		"/>
		<path class="st22" d="M377.4,688.9c0,23.3,18.9,42.2,42.2,42.2s42.2-18.9,42.2-42.2H377.4z"/>
		<path class="st22" d="M474.3,693H364.8c-3.2,0-5.8-2.6-5.8-5.8v-0.5c0-3.2,2.6-5.8,5.8-5.8h109.5c3.2,0,5.8,2.6,5.8,5.8v0.5
			C480.1,690.4,477.5,693,474.3,693z"/>
		<path class="st22" d="M440.7,756.2h-42.2c-2.9,0-5.3-2.4-5.3-5.3l0,0c0-2.9,2.4-5.3,5.3-5.3h42.2c2.9,0,5.3,2.4,5.3,5.3l0,0
			C446,753.8,443.6,756.2,440.7,756.2z"/>
		<rect x="381.5" y="808.2" class="st22" width="30.5" height="110.7"/>
		<path class="st22" d="M222.1,647.9c-25.1,0-45.4,96.2-45.4,215h90.8C267.5,744.1,247.1,647.9,222.1,647.9z"/>
		<path class="st22" d="M942.2,796.1l-10.8,9.9c-5.9,5.4-9.2,13-9.2,21v188H998V863.2c0-9.4-4.7-18.3-12.5-23.5l-11.4-7.7V718.5H959
			c-9.4,0-16.9,7.6-16.9,16.9L942.2,796.1z"/>
		<path class="st22" d="M1214.1,715.2H1131c-4.2,0-7.8,3.2-7.9,7.4c-0.1,4.3,3.3,7.8,7.6,7.8h24.3c5,0,9.1,4.1,9.1,9.1v5.1
			c0,5-4.1,9.1-9.1,9.1h-14c-4.2,0-7.8,3.2-7.9,7.4c-0.1,4.3,3.3,7.8,7.6,7.8h14.3c5,0,9.1,4.1,9.1,9.1v156.1v38.4h16.7v-38.4V777.8
			c0-5,4.1-9.1,9.1-9.1h14c4.2,0,7.8-3.2,7.9-7.4c0.1-4.3-3.3-7.8-7.6-7.8h-14.3c-5,0-9.1-4.1-9.1-9.1v-5.1c0-5,4.1-9.1,9.1-9.1h24
			c4.2,0,7.8-3.2,7.9-7.4C1221.8,718.7,1218.4,715.2,1214.1,715.2z"/>
		<rect x="1055.8" y="860.6" class="st22" width="44.6" height="158.5"/>
		<rect x="1086.4" y="812.6" class="st22" width="52.8" height="179.1"/>
		<rect x="1074.1" y="774.8" class="st22" width="32.7" height="179.1"/>
		<rect x="1544.2" y="811.5" class="st22" width="48.2" height="133.9"/>
		<rect x="1580" y="706" class="st22" width="24.8" height="232.4"/>
		<rect x="1596.1" y="755.8" class="st22" width="39" height="159.2"/>
		<path class="st22" d="M1721.4,653.9c-23.6,0-42.7,41.8-42.7,93.4s19.1,93.4,42.7,93.4"/>
		<rect x="1717.8" y="692.4" class="st22" width="27.7" height="141.9"/>
		<path class="st22" d="M590,764.9L590,764.9l0,183.9h50.3V815.1C640.3,787.4,617.8,764.9,590,764.9z"/>
		<rect x="564" y="827.2" class="st22" width="42.8" height="97.8"/>
	</g>
	<polygon class="st23" points="-0.2,852.8 299.7,852.8 339.7,890.8 503.6,890.8 503.6,911.3 659.7,911.3 659.7,939.9 739,939.9 
		787.1,983 874,983 893.4,997.3 1027.5,997.3 1062.1,948.8 1256.2,948.8 1256.2,878.5 1284.9,878.5 1304.3,827.2 1314.4,827.2 
		1314.4,902.2 1354.1,902.2 1354.1,931.5 1454.5,931.5 1454.5,897.8 1568.3,897.8 1631.2,854.8 1631.2,822.2 1762.4,822.2 
		1803.8,852.2 1829.1,852.2 1859.5,884.3 1920,884.3 1920,1080 0,1080 	"/>
	<rect x="1790" y="785" class="st23" width="85.5" height="110.2"/>
	<g class="st15">
		
			<ellipse transform="matrix(0.996 -8.961412e-02 8.961412e-02 0.996 -53.4326 42.8924)" class="st24" cx="451" cy="616.5" rx="13.5" ry="10.5"/>
		
			<rect x="457.8" y="614.6" transform="matrix(0.996 -8.961412e-02 8.961412e-02 0.996 -53.2832 43.9952)" class="st24" width="11" height="1.6"/>
		<circle class="st24" cx="471.4" cy="614.7" r="2.6"/>
		<path class="st24" d="M437.5,617.7l-7-13.4c0,0,10.1-1.7,14.9,3.3L437.5,617.7z"/>
		<path class="st24" d="M437.5,617.7l-4.4,14.5c0,0,10.2-0.1,14-5.9L437.5,617.7z"/>
	</g>
	<g class="st25">
		
			<linearGradient id="SVGID_00000036930686058186977630000005320246697973366420_" gradientUnits="userSpaceOnUse" x1="263.5" y1="639.3253" x2="429.5625" y2="639.3253">
			<stop  offset="0" style="stop-color:#FFFFFF;stop-opacity:0"/>
			<stop  offset="1" style="stop-color:#FFFFFF;stop-opacity:0.5"/>
		</linearGradient>
		<path style="fill:url(#SVGID_00000036930686058186977630000005320246697973366420_);" d="M427.3,621.7
			c-13.7,1.4-27.5,3.4-41.2,5.7c-13.7,2.4-27.3,5.2-40.9,8.3l-10.1,2.5L325,641c-1.7,0.5-3.4,0.9-5,1.4l-5,1.5l-5,1.5
			c-1.7,0.5-3.3,1-5,1.6l-9.9,3.3c-1.7,0.5-3.3,1.2-4.9,1.8l-4.9,1.8l-4.9,1.8c-1.6,0.6-3.2,1.3-4.8,2l-9.6,4.1l9.5-4.4
			c1.6-0.7,3.1-1.5,4.8-2.2l4.8-2l4.8-2c1.6-0.7,3.2-1.3,4.9-1.9l9.8-3.6c1.6-0.6,3.3-1.2,4.9-1.7l5-1.7l5-1.7c1.7-0.6,3.3-1,5-1.5
			l10-3l10.1-2.8c13.5-3.6,27.1-6.8,40.8-9.6c13.7-2.8,27.4-5.2,41.4-7c1.4-0.2,2.6,0.8,2.8,2.2c0.2,1.4-0.8,2.6-2.2,2.8
			C427.4,621.7,427.4,621.7,427.3,621.7L427.3,621.7z"/>
	</g>
</g>
<g id="Layer_4" class="st0">
	<g class="st15">
		<path class="st24" d="M1377.1,843.8H992.4c-53,0-72.9-13.7-89-24.8c-11.9-8.2-21.3-14.7-41.5-14.7H230v-10h631.9
			c23.3,0,34.9,8,47.2,16.4c15.7,10.8,33.5,23,83.3,23h384.8c7.1,0,8.2-2.5,10.6-11.3c3.7-13.5,9.4-34,59-34H1920v10h-473.3
			c-42,0-45.9,14.2-49.3,26.7C1395.1,833.4,1392.2,843.8,1377.1,843.8z"/>
	</g>
	<g class="st15">
		<g>
			<path class="st24" d="M873.1,723.6c0.3-1.8,0.4-3.7,0.4-5.6c0-20.9-17-37.9-37.9-37.9s-37.9,17-37.9,37.9c0,1.9,0.1,3.8,0.4,5.6
				H873.1z"/>
		</g>
		<g>
			<g>
				<g>
					<polygon class="st24" points="1460.4,899.1 1414.8,899.1 1414.8,740.4 1374.9,740.4 1374.9,792.8 1350.2,813.6 1350.2,894.6 
						1268.8,894.6 1268.8,831.1 1210.1,776.5 1210.1,822.6 1188.9,838.2 1188.9,868.2 1106.6,868.2 1072.8,912.6 960,912.6 
						960,832.7 947.4,832.7 947.4,852.8 911.4,864.3 911.4,906.5 816.9,906.5 804,887.5 680.8,887.5 674,904.8 486.7,904.8 
						436.6,851.9 238.6,851.9 238.6,744.5 218.4,744.5 203.2,786.1 165.9,786.1 152.2,813.6 49.6,813.6 49.6,759.6 0,759.6 0,1080 
						1920,1080 1920,847.8 1604.4,847.8 1569,902 1475,902 					"/>
				</g>
				<g>
					<g>
						<path class="st24" d="M586.1,656.4h-133c-5.4,0-9.7-4.3-9.7-9.7l0,0c0-5.4,4.3-9.7,9.7-9.7h133c5.4,0,9.7,4.3,9.7,9.7l0,0
							C595.8,652,591.5,656.4,586.1,656.4z"/>
					</g>
					<g>
						<path class="st24" d="M586.1,675.3h-69v19.4h69c5.4,0,9.7-4.3,9.7-9.7S591.5,675.3,586.1,675.3z"/>
					</g>
					<g>
						<path class="st24" d="M586.1,712.2h-69v19.4h69c5.4,0,9.7-4.3,9.7-9.7S591.5,712.2,586.1,712.2z"/>
					</g>
					<g>
						<path class="st24" d="M586.1,749.1h-69v19.4h69c5.4,0,9.7-4.3,9.7-9.7S591.5,749.1,586.1,749.1z"/>
					</g>
					<g>
						<path class="st24" d="M586.1,786.1h-69v19.4h69c5.4,0,9.7-4.3,9.7-9.7S591.5,786.1,586.1,786.1z"/>
					</g>
					<g>
						<path class="st24" d="M586.1,823h-69v19.4h69c5.4,0,9.7-4.3,9.7-9.7S591.5,823,586.1,823z"/>
					</g>
					<g>
						<path class="st24" d="M586.1,860h-69v19.4h69c5.4,0,9.7-4.3,9.7-9.7S591.5,860,586.1,860z"/>
					</g>
					<g>
						<path class="st24" d="M536.7,650.2v261.6H434c0,0,59.6-192.2,68.6-221.5c4.6-15.1,1.5-34.6-17-34.6S536.7,650.2,536.7,650.2z"
							/>
					</g>
				</g>
				<g>
					<g>
						<path class="st24" d="M1573.5,726.5h-161.1c-5.3,0-9.6-4.3-9.6-9.6l0,0c0-5.3,4.3-9.6,9.6-9.6h161.1c5.3,0,9.6,4.3,9.6,9.6
							l0,0C1583.1,722.1,1578.8,726.5,1573.5,726.5z"/>
					</g>
					<g>
						<path class="st24" d="M1545.4,667.9h-104.9c-5.3,0-9.6-4.3-9.6-9.6l0,0c0-5.3,4.3-9.6,9.6-9.6h104.9c5.3,0,9.6,4.3,9.6,9.6
							l0,0C1555,663.6,1550.7,667.9,1545.4,667.9z"/>
					</g>
					<g>
						<path class="st24" d="M1513,759.5c-1.6-18.3,2.1-33.1,18.2-33.1c13.1,0-38.3-9.5-38.3-9.5s-51.4,9.5-38.3,9.5
							c16.1,0,19.7,14.8,18.2,33.1c-1.8,21.6-27.3,229.2-27.3,229.2h47.4h47.4C1540.4,988.7,1514.9,781,1513,759.5z"/>
					</g>
					<g>
						<rect x="1484.9" y="653.9" class="st24" width="16.1" height="54.6"/>
					</g>
					<g>
						<path class="st24" d="M1492.9,606.6c-23.2,0-42,18.8-42,42h84C1534.9,625.4,1516.1,606.6,1492.9,606.6z"/>
					</g>
				</g>
				<g>
					<path class="st24" d="M984.8,927.3L984.8,927.3c-2.3,0-4.2-1.9-4.2-4.2V884c0-2.3,1.9-4.2,4.2-4.2l0,0c2.3,0,4.2,1.9,4.2,4.2
						V923C989,925.4,987.1,927.3,984.8,927.3z"/>
				</g>
				<g>
					<path class="st24" d="M880.7,760.3h-90c-3.4,0-6.5,2.5-6.8,5.9c-0.4,3.9,2.7,7.2,6.5,7.2h20.8c9.9,0,18,8.1,18,18v135.6
						c0,3.3,2.4,6.3,5.7,6.6c3.8,0.4,7-2.6,7-6.3V791.5c0-9.9,8.1-18,18-18h20.5c3.4,0,6.5-2.5,6.8-5.9
						C887.7,763.7,884.6,760.3,880.7,760.3z"/>
				</g>
				<g>
					<path class="st24" d="M880.7,718.8h-90c-3.4,0-6.5,2.5-6.8,5.9c-0.4,3.9,2.7,7.2,6.5,7.2h20.8c9.9,0,18,8.1,18,18v135.6
						c0,3.3,2.4,6.3,5.7,6.6c3.8,0.4,7-2.6,7-6.3V749.9c0-9.9,8.1-18,18-18h20.5c3.4,0,6.5-2.5,6.8-5.9
						C887.7,722.1,884.6,718.8,880.7,718.8z"/>
				</g>
				<g>
					<rect x="793.5" y="856.7" class="st24" width="8.9" height="40.5"/>
				</g>
				<g>
					<rect x="861.3" y="840.4" class="st24" width="21.4" height="71.4"/>
				</g>
				<g>
					<rect x="877.6" y="866.8" class="st24" width="17.7" height="52.7"/>
				</g>
				<g>
					<rect x="319.8" y="773" class="st24" width="36.6" height="108.9"/>
				</g>
				<g>
					<rect x="353.4" y="812.3" class="st24" width="29.6" height="72.2"/>
				</g>
				<g>
					<path class="st24" d="M1438.8,911.5L1438.8,911.5c-3.7,0-6.7-3-6.7-6.7v-51.1c0-3.7,3-6.7,6.7-6.7l0,0c3.7,0,6.7,3,6.7,6.7
						v51.1C1445.5,908.5,1442.5,911.5,1438.8,911.5z"/>
				</g>
			</g>
			<g>
				<g>
					<polygon class="st27" points="519.6,694.6 519.6,672.2 513.3,694.6 					"/>
				</g>
				<g>
					<polygon class="st27" points="519.6,805.5 519.6,786.1 487.8,786.1 482.3,805.5 					"/>
				</g>
				<g>
					<polygon class="st27" points="498.1,749.1 492.7,768.5 519.6,768.5 519.6,749.1 					"/>
				</g>
				<g>
					<polygon class="st27" points="477.4,823 469.3,852.2 519.6,852.2 519.6,823 					"/>
				</g>
				<g>
					<polygon class="st27" points="508.4,712.2 503,731.6 519.6,731.6 519.6,712.2 					"/>
				</g>
			</g>
		</g>
		<g>
			<polyline class="st24" points="617,909.9 639.3,810.9 663.3,810.9 663.3,749.1 684.7,749.1 684.7,842.4 719.4,861.5 719.4,911.8 
				618.9,911.8 			"/>
		</g>
		<g>
			<path class="st27" d="M835.6,687.1c-16.6,0-30.2,15.1-30.9,31.5h23.4C828.1,718.6,826.9,698.5,835.6,687.1z"/>
		</g>
		<g>
			<polygon class="st27" points="919.4,871.5 919.4,916.2 926.6,913.2 926.6,869.3 			"/>
		</g>
		<g>
			<polygon class="st27" points="932.9,868 932.9,909.9 942.8,864.3 			"/>
		</g>
		<g>
			<g>
				<polygon class="st27" points="1492.9,918.1 1492.9,905.3 1467.3,905.3 1466,918.1 				"/>
			</g>
			<g>
				<polygon class="st27" points="1471.7,862.4 1470.4,875.2 1492.9,875.2 1492.9,862.4 				"/>
			</g>
			<g>
				<polygon class="st27" points="1473.9,841 1472.6,853.7 1492.9,853.7 1492.9,841 				"/>
			</g>
			<g>
				<polygon class="st27" points="1469.5,883.9 1468.2,896.6 1492.9,896.6 1492.9,883.9 				"/>
			</g>
			<g>
				<polygon class="st27" points="1492.9,746.4 1492.9,734.3 1484.9,734.3 1483.6,746.4 				"/>
			</g>
			<g>
				<polygon class="st27" points="1482.7,755.2 1481.4,767.9 1492.9,767.9 1492.9,755.2 				"/>
			</g>
			<g>
				<polygon class="st27" points="1480.5,776.6 1479.2,789.3 1492.9,789.3 1492.9,776.6 				"/>
			</g>
			<g>
				<polygon class="st27" points="1465.1,926.8 1464,936.9 1492.9,936.9 1492.9,926.8 				"/>
			</g>
			<g>
				<polygon class="st27" points="1478.3,798.1 1477,810.8 1492.9,810.8 1492.9,798.1 				"/>
			</g>
			<g>
				<polygon class="st27" points="1476.1,819.5 1474.8,832.3 1492.9,832.3 1492.9,819.5 				"/>
			</g>
		</g>
		<g>
			<path class="st27" d="M1460.5,648.6h23.1c0-21.8,9.3-32.4,9.3-32.4C1475,616.2,1460.5,630.8,1460.5,648.6z"/>
		</g>
		<g>
			<polygon class="st27" points="648.1,830.5 623.4,940.2 644,957.9 655.1,830.5 			"/>
		</g>
		<g>
			<polygon class="st27" points="1359.5,895.6 1359.5,819.5 1374.1,806.8 1374.1,895.6 			"/>
		</g>
	</g>
	<rect x="1729.7" y="750.1" class="st28" width="49.8" height="140.7"/>
	<polygon class="st28" points="1819.8,802.7 1762.2,779.6 1762.2,920.3 1819.8,920.3 	"/>
	<rect x="1668.1" y="813.7" class="st29" width="13.6" height="51.2"/>
	<rect x="1656.7" y="830.3" class="st29" width="16.3" height="36"/>
	<ellipse class="st28" cx="1872.4" cy="829.5" rx="37.4" ry="74.3"/>
	<ellipse class="st28" cx="1766.8" cy="776.6" rx="25.4" ry="66.5"/>
	<circle class="st28" cx="1674.6" cy="847.8" r="44.8"/>
	<rect x="1656" y="773.5" class="st28" width="10.7" height="70.2"/>
	<rect x="1685.4" y="763.9" class="st28" width="8.4" height="68.4"/>
	<g class="st15">
		<path class="st30" d="M1180.6,677.3c-0.7-5,8.3-10.5,20.3-12.3s22.2,0.8,23,5.8c0.1,0.6,0.4,3,0.5,3.6c0.7,5-8.3,10.5-20.3,12.3
			s-22.2-0.8-23-5.8C1181,680.3,1180.7,678,1180.6,677.3z"/>
		
			<rect x="1176.7" y="678.1" transform="matrix(-0.989 0.148 -0.148 -0.989 2452.6931 1176.2202)" class="st30" width="11.8" height="2.5"/>
		<circle class="st30" cx="1172.6" cy="680.9" r="4.3"/>
		<circle class="st30" cx="1201.1" cy="666.8" r="12.9"/>
		<path class="st30" d="M1206.4,686.4c0,0,10.6,6.8,22.6,4.4l-7.7-10.7L1206.4,686.4z"/>
		<path class="st30" d="M1218.5,666l3.8-8.3c0,0-12-0.4-16.7,6.6L1218.5,666z"/>
	</g>
	<g class="st3">
		
			<linearGradient id="SVGID_00000045593078396580846160000006881169261389994168_" gradientUnits="userSpaceOnUse" x1="1228.3621" y1="666.2794" x2="1421.5153" y2="666.2794">
			<stop  offset="0" style="stop-color:#7FFFE0;stop-opacity:0.5"/>
			<stop  offset="0.1177" style="stop-color:#7DF9DD;stop-opacity:0.4412"/>
			<stop  offset="0.2768" style="stop-color:#79E8D5;stop-opacity:0.3616"/>
			<stop  offset="0.4597" style="stop-color:#71CBC8;stop-opacity:0.2702"/>
			<stop  offset="0.6603" style="stop-color:#66A4B5;stop-opacity:0.1699"/>
			<stop  offset="0.8728" style="stop-color:#59729E;stop-opacity:6.360069e-02"/>
			<stop  offset="1" style="stop-color:#50508E;stop-opacity:0"/>
		</linearGradient>
		<path style="fill:url(#SVGID_00000045593078396580846160000006881169261389994168_);" d="M1231,667.7c2-0.5,3.9-0.9,5.9-1.4
			c1.9-0.4,3.9-0.8,5.8-1.1c3.9-0.7,7.8-1.4,11.7-1.9c3.9-0.6,7.8-1,11.7-1.5c3.9-0.5,7.8-0.8,11.7-1.2c15.6-1.4,31.2-2.1,46.9-2.4
			l11.7-0.1l11.7,0.1c7.8,0,15.6,0.4,23.4,0.7c3.9,0.1,7.8,0.4,11.7,0.6l11.7,0.7l23.3,1.9l-23.4-1.1l-11.7-0.3
			c-3.9-0.1-7.8-0.2-11.7-0.2c-7.8,0-15.6-0.1-23.4,0.2l-11.7,0.3l-11.7,0.6c-15.5,0.9-31,2.1-46.4,4.1c-3.8,0.6-7.7,1-11.5,1.6
			c-3.8,0.6-7.7,1.2-11.4,2c-3.8,0.7-7.6,1.5-11.4,2.3c-1.9,0.4-3.8,0.9-5.6,1.3c-1.8,0.5-3.7,1-5.4,1.5l-0.1,0
			c-1.9,0.6-3.8-0.5-4.4-2.3c-0.6-1.9,0.5-3.8,2.3-4.4C1230.9,667.7,1230.9,667.7,1231,667.7z"/>
	</g>
	<g class="st15">
		<path class="st22" d="M1180.6,677.3c-0.7-5,8.3-10.5,20.3-12.3s22.2,0.8,23,5.8c0.1,0.6,0.4,3,0.5,3.6c0.7,5-8.3,10.5-20.3,12.3
			s-22.2-0.8-23-5.8C1181,680.3,1180.7,678,1180.6,677.3z"/>
		
			<rect x="1176.7" y="678.1" transform="matrix(-0.989 0.148 -0.148 -0.989 2452.6931 1176.2202)" class="st22" width="11.8" height="2.5"/>
		<circle class="st22" cx="1172.6" cy="680.9" r="4.3"/>
		<circle class="st22" cx="1201.1" cy="666.8" r="12.9"/>
		<path class="st22" d="M1206.4,686.4c0,0,10.6,6.8,22.6,4.4l-7.7-10.7L1206.4,686.4z"/>
		<path class="st22" d="M1218.5,666l3.8-8.3c0,0-12-0.4-16.7,6.6L1218.5,666z"/>
	</g>
	<g class="st3">
		
			<linearGradient id="SVGID_00000098902763991817251850000008617349556411695011_" gradientUnits="userSpaceOnUse" x1="1228.3621" y1="666.2794" x2="1421.5153" y2="666.2794">
			<stop  offset="0" style="stop-color:#FFFFFF;stop-opacity:0.5"/>
			<stop  offset="1" style="stop-color:#FFFFFF;stop-opacity:0"/>
		</linearGradient>
		<path style="fill:url(#SVGID_00000098902763991817251850000008617349556411695011_);" d="M1231,667.7c2-0.5,3.9-0.9,5.9-1.4
			c1.9-0.4,3.9-0.8,5.8-1.1c3.9-0.7,7.8-1.4,11.7-1.9c3.9-0.6,7.8-1,11.7-1.5c3.9-0.5,7.8-0.8,11.7-1.2c15.6-1.4,31.2-2.1,46.9-2.4
			l11.7-0.1l11.7,0.1c7.8,0,15.6,0.4,23.4,0.7c3.9,0.1,7.8,0.4,11.7,0.6l11.7,0.7l23.3,1.9l-23.4-1.1l-11.7-0.3
			c-3.9-0.1-7.8-0.2-11.7-0.2c-7.8,0-15.6-0.1-23.4,0.2l-11.7,0.3l-11.7,0.6c-15.5,0.9-31,2.1-46.4,4.1c-3.8,0.6-7.7,1-11.5,1.6
			c-3.8,0.6-7.7,1.2-11.4,2c-3.8,0.7-7.6,1.5-11.4,2.3c-1.9,0.4-3.8,0.9-5.6,1.3c-1.8,0.5-3.7,1-5.4,1.5l-0.1,0
			c-1.9,0.6-3.8-0.5-4.4-2.3c-0.6-1.9,0.5-3.8,2.3-4.4C1230.9,667.7,1230.9,667.7,1231,667.7z"/>
	</g>
</g>
<g id="Layer_3" class="st0">
	<path class="st33" d="M258.8,854.8c0,82.1,34.5,148.6,77.1,148.6V706.1C293.3,706.1,258.8,772.7,258.8,854.8z"/>
	<ellipse class="st33" cx="886.8" cy="947.9" rx="71.2" ry="131.8"/>
	<path class="st33" d="M1220.4,1080l-181.3-80.1h-91.7l-33.8-47.3H780.7l-18.4-0.4v-60.2l-47.8,28.2H610.6v-94.2h-30.4V866H402.3
		l-128.8-1.4h-43.3l-4.7-14.8c-4.2-13.2-16.5-22.2-30.4-22.2h-10.4v-67.4h-34.3l-27,83.8H0v89.4v144.6v1.9h762.3l0,0H1220.4z"/>
	<path class="st33" d="M662,927.9h-13.9v-72.6c0-3.8,3.1-6.9,6.9-6.9l0,0c3.8,0,6.9,3.1,6.9,6.9V927.9z"/>
	<rect x="183.5" y="760.2" class="st33" width="16.5" height="8.9"/>
	<rect x="183.5" y="777.8" class="st33" width="16.5" height="8.9"/>
	<rect x="183.5" y="795.4" class="st33" width="16.5" height="8.9"/>
	<rect x="183.5" y="812.9" class="st33" width="16.5" height="8.9"/>
	<rect x="762.3" y="920.1" class="st33" width="40.2" height="40.2"/>
	<g class="st15">
		<path class="st34" d="M863.4,937.3h-35.6c-0.2,3.5-0.2,7-0.2,10.5c0,1.6,0,3.2,0.1,4.8H864C863.7,947.4,863.5,942.3,863.4,937.3z"
			/>
		<path class="st34" d="M865.4,902.2c0.6-5.3,1.4-10.4,2.3-15.3h-31.6c-1.5,4.9-2.8,10-3.9,15.3H865.4z"/>
		<path class="st34" d="M869.7,876.9c1.2-5.5,2.6-10.6,3.9-15.3h-27.3c-2.5,4.8-4.8,9.9-6.8,15.3H869.7z"/>
		<path class="st34" d="M863.5,927.4c0.1-5.3,0.4-10.4,0.8-15.3h-34c-0.8,5-1.4,10.1-1.9,15.3H863.5z"/>
		<path class="st34" d="M866.7,977.8c-0.8-5.2-1.4-10.3-1.9-15.3h-36.7c0.3,5.2,0.8,10.3,1.5,15.3H866.7z"/>
		<path class="st34" d="M876.8,851.7c5.2-15.2,10-23.6,10-23.6c-12.1,0-24.3,8.5-34.6,23.6H876.8z"/>
	</g>
	<ellipse class="st33" cx="338.1" cy="872.1" rx="62.5" ry="80.7"/>
	<g class="st15">
		<circle class="st35" cx="735.9" cy="601.6" r="67.8"/>
		<path class="st35" d="M845.2,610H626.5c-4.6,0-8.4-3.8-8.4-8.4l0,0c0-4.6,3.8-8.4,8.4-8.4h218.7c4.6,0,8.4,3.8,8.4,8.4l0,0
			C853.6,606.3,849.9,610,845.2,610z"/>
		<rect x="731.1" y="510.7" class="st35" width="9.5" height="65.2"/>
		<circle class="st35" cx="735.9" cy="499.1" r="15.2"/>
		<path class="st35" d="M751.9,661c0-2.4-16,0-16,0s-16-2.4-16,0c0,176.5-39.7,318-39.7,318h55.7h55.7
			C791.6,979.1,751.9,837.5,751.9,661z"/>
		<g>
			<path class="st34" d="M735.9,934.8v-17.9h-26.7c-0.9,6.4-1.7,12.4-2.5,17.9H735.9z"/>
			<path class="st34" d="M722.1,812.3c-0.6,6-1.3,11.9-2,17.9h15.8v-17.9H722.1z"/>
			<path class="st34" d="M716,864.6c-0.8,6.1-1.5,12.1-2.3,17.9h22.1v-17.9H716z"/>
			<path class="st34" d="M712.7,890.8c-0.8,6.2-1.6,12.2-2.4,17.9h25.6v-17.9H712.7z"/>
			<path class="st34" d="M735.9,702.1v-16.6h-4.7c0,5.2-0.1,10.7-0.3,16.6H735.9z"/>
			<path class="st34" d="M719.2,838.4c-0.7,6-1.4,12-2.1,17.9h18.9v-17.9H719.2z"/>
			<path class="st34" d="M705.5,943.1c-2.4,17.2-4,27.7-4,27.7h34.4v-27.7H705.5z"/>
			<path class="st34" d="M730.5,710.3c-0.2,4.9-0.5,10-0.8,15.2h6.1v-15.2H730.5z"/>
			<path class="st34" d="M729.2,733.8c-0.4,5.8-0.8,11.8-1.3,17.9h8v-17.9H729.2z"/>
			<path class="st34" d="M724.8,786.1c-0.6,5.9-1.2,11.9-1.8,17.9h12.9v-17.9H724.8z"/>
			<path class="st34" d="M727.2,760c-0.5,5.9-1,11.9-1.6,17.9h10.3V760H727.2z"/>
		</g>
		<g>
			<path class="st34" d="M724,541.5c-25.4,5-45.2,25.8-48.8,51.7h20.7C695.9,593.2,699.8,560.2,724,541.5z"/>
			<path class="st34" d="M724,661.7c-25.4-5-45.2-25.8-48.8-51.7h20.7C695.9,610,699.8,643,724,661.7z"/>
			<path class="st34" d="M701.5,593.2h32.3v-52.8c0,0-0.1,0-0.1,0C732.1,541.3,708.7,555.4,701.5,593.2z"/>
		</g>
	</g>
	<polygon class="st33" points="110.4,844.1 100.3,767.9 75.9,753.5 75.9,621 51.2,633.9 42.3,695.9 26.4,695.9 19.6,722.5 0,722.5 
		0,862.2 	"/>
</g>
<g id="Layer_2" class="st0">
	<rect x="973.6" y="950.8" class="st36" width="9" height="65.6"/>
	<g class="st15">
		<path class="st37" d="M993,982.2h-12.3c-22.7,0-41.1,18.3-41.2,41v0H809l-42.2,23.9H634.6l-36,32.9h455.6L993,982.2z"/>
		<circle class="st37" cx="1684.4" cy="738.8" r="16.3"/>
		<path class="st37" d="M1466,956L1466,956c-3.7,0-6.8-3-6.8-6.8v-42.8c0-3.7,3-6.8,6.8-6.8l0,0c3.7,0,6.8,3,6.8,6.8v42.8
			C1472.8,953,1469.7,956,1466,956z"/>
		<path class="st37" d="M1757.6,755.2L1757.6,755.2c-2.6,0-4.7-2.1-4.7-4.7v-32.4c0-2.6,2.1-4.7,4.7-4.7l0,0c2.6,0,4.7,2.1,4.7,4.7
			v32.4C1762.2,753,1760.1,755.2,1757.6,755.2z"/>
		<path class="st37" d="M1843.9,695.4L1843.9,695.4c-2.4,0-4.4-2-4.4-4.4v-25.8c0-2.4,2-4.4,4.4-4.4l0,0c2.4,0,4.4,2,4.4,4.4V691
			C1848.2,693.4,1846.3,695.4,1843.9,695.4z"/>
		<path class="st37" d="M905.9,1037.4L905.9,1037.4c-3.2,0-5.8-2.6-5.8-5.8v-39.5c0-3.2,2.6-5.8,5.8-5.8l0,0c3.2,0,5.8,2.6,5.8,5.8
			v39.5C911.7,1034.8,909.1,1037.4,905.9,1037.4z"/>
		<path class="st37" d="M916.6,1037.4L916.6,1037.4c-4.5,0-8.2-3.7-8.2-8.2v-16.5c0-4.5,3.7-8.2,8.2-8.2l0,0c4.5,0,8.2,3.7,8.2,8.2
			v16.5C924.9,1033.7,921.2,1037.4,916.6,1037.4z"/>
		<rect x="884.4" y="1011.8" class="st37" width="33.8" height="19.3"/>
		<rect x="1223" y="880.3" class="st37" width="37.1" height="58"/>
		<rect x="1208" y="909.4" class="st37" width="27" height="21.9"/>
		<rect x="1439.6" y="914.9" class="st37" width="7.1" height="38.6"/>
		<polygon class="st37" points="1547.6,910.5 1528.1,910.5 1528.1,873.1 1540.4,873.1 		"/>
		<rect x="1337.4" y="698.4" class="st37" width="36.8" height="11.1"/>
		<rect x="1337.4" y="721.5" class="st37" width="36.8" height="11.1"/>
		<rect x="1337.4" y="744.7" class="st37" width="36.8" height="11.1"/>
		<rect x="1337.4" y="767.9" class="st37" width="36.8" height="11.1"/>
		<g>
			<ellipse class="st37" cx="1090" cy="926.3" rx="20" ry="33.2"/>
			<g>
				<g>
					<path class="st37" d="M1033.5,722.1c0-2.4-9.5,0-9.5,0s-9.5-2.4-9.5,0c0,171.6-37,333.5-37,333.5h93
						C1070.6,1055.6,1033.5,893.7,1033.5,722.1z"/>
					<path class="st37" d="M951.1,660.1c0,40.3,32.7,73,73,73c40.3,0,73-32.7,73-73H951.1z"/>
				</g>
				<ellipse class="st37" cx="1350.2" cy="929.4" rx="75.3" ry="143.4"/>
				<path class="st37" d="M1350.2,670.1c-65.3,0-118.3,90.2-118.3,201.4s53,201.4,118.3,201.4V670.1z"/>
				<polygon class="st37" points="1430.7,935.1 1480.6,935.1 1500.9,900.9 1561.6,900.9 1608.3,695.6 1622.4,686.6 1622.4,597.5 
					1644.9,612.3 1644.9,733.3 1664,746.8 1664,781.6 1706.8,781.6 1728.7,738.9 1768.1,738.9 1768.1,614.6 1781.6,614.6 
					1781.6,738.9 1823.8,738.9 1823.8,682.1 1855.8,682.1 1855.8,696.1 1873.8,696.1 1873.8,634.3 1920,600.5 1920,1080 
					1030.1,1080 1030.1,926.3 1126.2,926.3 1126.2,770.2 1148.2,783.3 1148.2,833.9 1178,841.8 1178,926.3 1288.8,926.3 				"/>
				<polyline class="st37" points="1819.9,588.7 1774.8,633.8 1729.7,588.7 				"/>
				<rect x="1768.1" y="635.1" class="st37" width="13.5" height="7.9"/>
				<path class="st37" d="M1830.2,593.5h-110.8c-2.6,0-4.8-2.1-4.8-4.8l0,0c0-2.6,2.1-4.8,4.8-4.8h110.8c2.6,0,4.8,2.1,4.8,4.8l0,0
					C1835,591.3,1832.9,593.5,1830.2,593.5z"/>
				
					<rect x="1759.6" y="656.8" transform="matrix(0.7071 -0.7071 0.7071 0.7071 44.6903 1451.7915)" class="st37" width="30.4" height="30.4"/>
				<rect x="1725.1" y="680.6" class="st37" width="13.1" height="78.4"/>
				<rect x="1679.4" y="743.2" class="st37" width="10.1" height="47.6"/>
				<rect x="1499.8" y="819.5" class="st37" width="35.6" height="106.8"/>
			</g>
			<g>
				<path class="st38" d="M1254.6,801.1c-1.4,6-2.6,12.2-3.6,18.5h84.2v-18.5H1254.6z"/>
				<path class="st38" d="M1335.2,869.5h-88.3c0,0.6,0,1.3,0,1.9c0,5.5,0.1,11.1,0.4,16.5h87.9V869.5z"/>
				<path class="st38" d="M1335.2,716.8v-29.7c-14.9,4.1-29.2,14.2-42,29.7H1335.2z"/>
				<path class="st38" d="M1248.8,835.3c-0.7,6.1-1.2,12.2-1.5,18.5h87.9v-18.5H1248.8z"/>
				<path class="st38" d="M1335.2,926.8v-23h-86.8c0.8,7.8,1.8,15.5,3.1,23H1335.2z"/>
				<path class="st38" d="M1265,766.8c-2.3,6-4.4,12.1-6.3,18.5h76.4v-18.5H1265z"/>
				<path class="st38" d="M1281.9,732.6c-0.8,1.3-1.7,2.7-2.5,4.1c-2.7,4.6-5.2,9.4-7.6,14.4h63.4v-18.5H1281.9z"/>
			</g>
			<path class="st37" d="M1335.2,687.1c0,0-36.2,97.9-36.2,259.9h45.6L1335.2,687.1z"/>
		</g>
		<polygon class="st38" points="1623.1,709.4 1623.1,873.1 1586.4,873.1 		"/>
		<polygon class="st38" points="1774.8,618.9 1774.8,594.4 1747.8,594.4 		"/>
		<polygon class="st38" points="1886.8,639 1886.8,774.5 1901.8,767 1901.8,630.2 		"/>
		<polygon class="st38" points="1835,700.2 1835,770.2 1841.8,763.4 1841.8,700.2 		"/>
		<polygon class="st38" points="1736.4,755.2 1809.9,755.2 1805.8,763.6 1731.8,763.6 		"/>
		<polygon class="st38" points="1722.2,781.6 1726.9,772.2 1781.6,772.2 		"/>
		<rect x="1508.4" y="830.8" class="st38" width="9.2" height="109.5"/>
		<polygon class="st38" points="1022.5,737.5 1022.5,1008.7 1005.8,990.2 1022.5,737.5 		"/>
		<rect x="1151" y="852.8" class="st38" width="8.4" height="85.6"/>
		<polygon class="st38" points="1134.5,953.6 1134.5,786 1139.2,788.4 1139.2,953.6 		"/>
		<path class="st37" d="M1120.7,674.8H927.5c-5.1,0-9.2-4.1-9.2-9.2l0,0c0-5.1,4.1-9.2,9.2-9.2h193.2c5.1,0,9.2,4.1,9.2,9.2l0,0
			C1129.9,670.7,1125.7,674.8,1120.7,674.8z"/>
		<path class="st38" d="M995.2,674.1h-29.6c6.3,26.4,30.1,46.1,58.5,46.1C1015.2,720.2,998.7,692.2,995.2,674.1z"/>
	</g>
	<g class="st15">
		<g>
			<g>
				<g>
					<g>
						<path class="st38" d="M991.6,606.4l-13.6-9.7c5.8-4.8,16.6-11.1,25.9-11.6"/>
					</g>
					<g>
						
							<ellipse transform="matrix(0.866 -0.5 0.5 0.866 -165.238 594.3428)" class="st38" cx="1026.4" cy="605.5" rx="32.8" ry="16.3"/>
					</g>
					<g class="st39">
						
							<linearGradient id="SVGID_00000054949522806619519310000005653996268825594760_" gradientUnits="userSpaceOnUse" x1="987.0273" y1="620.4771" x2="945.7773" y2="642.9771">
							<stop  offset="0" style="stop-color:#FFFFFF;stop-opacity:0.7"/>
							<stop  offset="1" style="stop-color:#FFFFFF;stop-opacity:0"/>
						</linearGradient>
						<path style="fill:url(#SVGID_00000054949522806619519310000005653996268825594760_);" d="M974.8,619.8
							c-3.8,2.2-7.8,8.3-8.8,12.5c4.2,1.2,11.5,0.8,15.3-1.4c3.1-1.8,4.1-5.7,2.4-8.8C981.8,619.1,977.9,618,974.8,619.8z"/>
					</g>
					<g>
						
							<ellipse transform="matrix(0.866 -0.5 0.5 0.866 -161.5479 590.6526)" class="st38" cx="1021.4" cy="596.8" rx="32.8" ry="16.3"/>
					</g>
					<g>
						<path class="st38" d="M1010.9,617.9c-4.9,0.8-7.1,0.6-10.2-0.1s-2.8,0.4-4.5,2.6s-6.7,18.6-6.7,18.6s6.6,0.6,14.1-3.7
							c7.5-4.3,25.3-16.7,25.1-20.7c-0.2-4.1-1.7-0.9-6.4,0.4C1017.5,616.4,1010.9,617.9,1010.9,617.9z"/>
					</g>
					<g>
						<path class="st38" d="M999.6,605c-4.9,1.3-9,2.9-12,4.5c-3,1.6-4.2,2.2-4,3.6c0.2,1.4,3.7,9.8,5.4,10.7c1.7,1,4.4-0.4,5.3-2.7
							s0.9-3.5,3.9-6.9C1001,610.9,1006.2,604.7,999.6,605z"/>
					</g>
					<g>
						<path class="st38" d="M1036.1,585.9c5.2,9-27.5,28-32.8,18.9c-5.2-9-2.1-20.6,6.9-25.8
							C1019.3,573.8,1030.9,576.9,1036.1,585.9z"/>
					</g>
					<path class="st37" d="M1066.2,577.2c-1.3-2.3-4.2-3-6.4-1.7c-1.8,1-2.6,3-2.3,4.9l-6.4,3.7l1.6,2.8l6.4-3.7
						c1.5,1.2,3.6,1.5,5.4,0.5C1066.7,582.3,1067.5,579.4,1066.2,577.2z"/>
					<path class="st37" d="M1055.6,588.9l-5.1-8.9l0,0c-3.5-6-13-7.6-24.7-4.2c-5.3-1.6-11.1-1.1-16.3,1.8c-2.6,1.5-4.8,3.6-6.4,5.9
						c-9.1,0.8-19.3,6.6-25.4,11.4c-0.5,0.4-0.8,1.1-0.8,1.8c0,0.7,0.4,1.3,0.9,1.7l10.9,7.8c-1.5,0.7-3.2,1.5-5.1,2.6
						c-3.3,1.9-1.2,8.9,1.3,13.2c1.9,3.3,4.1,5.6,6.1,6.8l-2.6,8.6c-0.2,0.8,0,1.6,0.5,2.2c0.5,0.5,1.1,0.8,1.8,0.8
						c0.1,0,0.3,0,0.4,0c5.6-1.1,17.5-4.9,27.4-12.3l0,0c5.3-1.3,11-3.5,16.3-6.6C1051.5,611.8,1060.6,597.5,1055.6,588.9z
						 M1047.8,581.7c1.8,3.2,1,7.8-2.5,13c-3.7,5.5-9.8,10.9-17.1,15.2c-10.9,6.3-22.6,8.8-29.5,6.4l5.8-8.4
						c1.2,0.6,2.6,0.9,4.3,0.9c4.6,0,10.5-2.2,15.8-5.3c8.8-5.1,16.3-12.8,13-18.4c-1.8-3-4.2-5.5-7-7.2
						C1038.9,576.3,1045.4,577.6,1047.8,581.7z M1011.1,580.4c2.7-1.5,5.6-2.3,8.6-2.3c1.5,0,3,0.2,4.5,0.6
						c4.5,1.2,8.2,4.1,10.5,8.1c1.1,1.9-0.7,4.6-1.9,6.1c0.5-1.3,0.5-2.5-0.1-3.6c-4.5-7.7-14.3-10.4-22.1-5.9
						c-5.2,3-8,8.4-8.1,13.9C1001.8,590.7,1005,583.9,1011.1,580.4z M980.7,596.6c5.6-4.2,13.4-8.4,20.4-9.6c-0.5,1.2-1,2.5-1.3,3.8
						c-4.4,4.3-7.6,8.8-9,13L980.7,596.6z M1000.8,603.3c-0.2,0-0.5,0.1-0.7,0.1c-1.9,0.2-3.8,0.4-6.2,1c1-2.7,2.9-5.5,5.3-8.4
						C999.3,598.5,999.9,600.9,1000.8,603.3z M988.1,621.2c-0.2-0.2-0.3-0.5-0.5-0.7c-2.6-4.5-2.9-8.3-2.5-8.8
						c7.3-4.2,11.4-4.7,15.3-5.1c0.4,0,0.7-0.1,1.1-0.1l-5.8,8.4c-0.6,0.9-1.1,1.9-1.4,2.9l-0.8,2.7c-0.7,0.4-1.6,0.9-2.2,1.3
						C990.4,622.2,989.2,622.3,988.1,621.2z M991.9,637l5.3-17.8c2.1,0.8,4.6,1.2,7.4,1.2c6.6,0,14.7-2.2,22.6-6.4
						C1018.9,628.1,1000.4,635,991.9,637z M1024.3,622.9c1.3-1.4,2.6-2.8,3.7-4.4l1.3,2.2C1027.6,621.6,1026,622.3,1024.3,622.9z
						 M1033.2,618.7c-0.6,0.4-1.3,0.7-1.9,1.1l-1.9-3.2c0.8-1.3,1.6-2.7,2.2-4.2l3.1,5.4C1034.2,618.1,1033.7,618.4,1033.2,618.7z
						 M1036.6,616.5l-3.5-6.1c1.1-0.7,2.2-1.5,3.3-2.3l3.5,6C1038.9,615,1037.8,615.8,1036.6,616.5z M1041.7,612.8l-3.5-6
						c1.1-0.9,2.1-1.8,3.1-2.7l3.4,6C1043.8,611,1042.8,611.9,1041.7,612.8z M1046.4,608.4l-3.4-5.9c1-1,1.9-2.1,2.8-3.2l3.4,5.8
						C1048.3,606.2,1047.4,607.3,1046.4,608.4z M1050.6,603.1l-3.3-5.7c0.2-0.3,0.5-0.6,0.7-0.9c0.7-1,1.2-2,1.7-3l3.1,5.4
						C1052.2,600.3,1051.5,601.7,1050.6,603.1z M1053.6,595.9l-2.9-5c0.4-0.9,0.6-1.9,0.8-2.8l1.3,2.3
						C1053.7,592,1053.9,593.9,1053.6,595.9z"/>
				</g>
			</g>
		</g>
		<path class="st37" d="M1032.7,579.5c6.1-0.4,10.3-0.2,12.7,2.8s-0.7,18.4-21,29.6c0,0-7.9,7.4-18.5,6.5c-10.5-0.9-9.7,0.7-8.5-1.8
			c1.2-2.5,5.4-11,5.4-11l-8.1-0.5c0,0,5-7.6,5.3-8.3s-0.8,8.9,5.8,10s21-4.6,26.6-12C1038.1,587.5,1037.4,586.4,1032.7,579.5z"/>
		<path class="st37" d="M1041.3,614.8l-4.5-8.8l-7.4,8.1l-8.6,11.8C1020.7,625.9,1034.8,623.1,1041.3,614.8z"/>
		<path class="st37" d="M1022.9,616.1c0,0-10.3,14.1-31,19.5l5-18.1C996.9,617.4,1004.6,621.6,1022.9,616.1z"/>
		<path class="st37" d="M985,617.2c0,0,8-4.8,14.9-5.9c0,0-5.6,9.3-6.1,10.8c-0.4,1.5-5.3,2.9-5.3,2.9L985,617.2z"/>
		<path class="st37" d="M982.4,599.3c0,0,4.7-5.6,17.3-8.5c0,0-0.3,1.6-1.9,4c-1.6,2.4-6.4,11.1-6.4,11.1L982.4,599.3z"/>
	</g>
</g>
<g id="Layer_1_00000078757485347481462180000004950063103465295034_" class="st0">
	<g class="st15">
		<g>
			<polygon class="st16" points="0,947 146.4,947 174.5,925.3 207.7,925.3 217.8,903.8 260.1,903.8 272.9,979.1 616.7,979.1 
				642.6,933.7 718.4,933.7 718.4,976.2 809.6,976.2 845.6,1011.1 872.6,1011.1 903.5,1048.8 1017.7,1048.8 1051.4,999.9 
				1093.6,999.9 1110.5,949.2 1194.3,905.4 1194.3,981.3 1301.2,981.3 1320.9,1018.4 1920,1018.4 1920,1080 0,1080 			"/>
			<path class="st16" d="M1144.1,931.3c0,28.1,22.8,51,51,51V880.3C1166.9,880.3,1144.1,903.2,1144.1,931.3z"/>
			<rect x="743.2" y="939.9" class="st16" width="19.1" height="52.1"/>
			<rect x="951.9" y="1033.1" class="st16" width="12.4" height="28.1"/>
			<rect x="1242.7" y="963.9" class="st16" width="8.4" height="27"/>
			<rect x="639.9" y="965.4" class="st16" width="111" height="29.6"/>
			<polygon class="st16" points="307.2,995 261.2,995 261.2,965.6 297.2,965.6 			"/>
			<polygon class="st16" points="1379.4,1018.4 1395.7,1002.1 1443.1,1002.1 1464,970.1 1580.2,970.1 1580.2,1037.6 			"/>
			<path class="st16" d="M594,982.2c0-83.6-67.8-151.5-151.5-151.5v151.5H594z"/>
			<path class="st16" d="M1646,899.1h-2.7c-6.6,0-12-5.4-12-12v-81.7c0-6.6,5.4-12,12-12h2.7c6.6,0,12,5.4,12,12v81.7
				C1658,893.7,1652.6,899.1,1646,899.1z"/>
			<path class="st16" d="M1716.3,862.4L1716.3,862.4c-5.9,0-10.6-4.8-10.6-10.6v-31.1c0-5.9,4.8-10.6,10.6-10.6l0,0
				c5.9,0,10.6,4.8,10.6,10.6v31.1C1726.9,857.6,1722.1,862.4,1716.3,862.4z"/>
			<path class="st16" d="M1844.9,934.2h-31.7c-6.6,0-12-5.4-12-12V764.4c0-6.6,5.4-12,12-12h31.7c6.6,0,12,5.4,12,12v157.9
				C1856.9,928.8,1851.5,934.2,1844.9,934.2z"/>
			<path class="st16" d="M1509.6,991.9L1509.6,991.9c-5.4,0-9.8-4.4-9.8-9.8v-45.9c0-5.4,4.4-9.8,9.8-9.8l0,0c5.4,0,9.8,4.4,9.8,9.8
				V982C1519.4,987.5,1515,991.9,1509.6,991.9z"/>
			<path class="st16" d="M363.2,1007.2L363.2,1007.2c-5.4,0-9.8-4.4-9.8-9.8v-46.9c0-5.4,4.4-9.8,9.8-9.8h0c5.4,0,9.8,4.4,9.8,9.8
				v46.9C373.1,1002.8,368.6,1007.2,363.2,1007.2z"/>
			<rect x="0" y="838.4" class="st16" width="100.8" height="143.8"/>
		</g>
		<rect x="117.1" y="773" class="st16" width="60" height="27.6"/>
		<rect x="117.1" y="823.8" class="st16" width="60" height="27.6"/>
		<rect x="117.1" y="874.6" class="st16" width="60" height="27.6"/>
		<rect x="117.1" y="925.3" class="st16" width="60" height="27.6"/>
		<polygon class="st16" points="1436.2,990.9 1455.9,990.9 1475,1023.2 1435.2,1023.2 		"/>
		<polygon class="st16" points="444.1,879.3 406.5,879.3 392.2,919.8 358.6,919.8 330.9,990.1 450.5,990.1 		"/>
		<path class="st16" d="M275.8,703.5H0.2L0,734.4h35.9c19.6,0,35.3,16.3,34.6,35.9l-7.9,208.8h76.1l-7.9-208.8
			c-0.7-19.6,14.9-35.9,34.6-35.9h110.2c8.7,0,15.8-7.1,15.8-15.8S284.3,702.9,275.8,703.5z"/>
		<path class="st16" d="M1747.8,844.4c-112.5,0-203.6,90.5-203.6,202.1h203.6v33.5H1920V844.4H1747.8z"/>
	</g>
</g>
</svg>
