<svg id="Layer_1" data-name="Layer 1" xmlns="http://www.w3.org/2000/svg" viewBox="0 0 1920 1080"><defs><style>.cls-1{fill:#F7F9FD;}</style></defs><g id="Layer_1-2" data-name="Layer 1"><polygon class="cls-1" points="0 947 146.4 947 174.5 925.3 207.7 925.3 217.8 903.8 260.1 903.8 272.9 979.1 616.7 979.1 642.6 933.7 718.4 933.7 718.4 976.2 809.6 976.2 845.6 1011.1 872.6 1011.1 903.5 1048.8 1017.7 1048.8 1051.4 999.9 1093.6 999.9 1110.5 949.2 1194.3 905.4 1194.3 981.3 1301.2 981.3 1320.9 1018.4 1920 1018.4 1920 1080 0 1080 0 947"/><path class="cls-1" d="M1144.1,931.3a51,51,0,0,0,51,51v-102A51,51,0,0,0,1144.1,931.3Z"/><rect class="cls-1" x="743.2" y="939.9" width="19.1" height="52.1"/><rect class="cls-1" x="951.9" y="1033.1" width="12.4" height="28.1"/><rect class="cls-1" x="1242.7" y="963.9" width="8.4" height="27"/><rect class="cls-1" x="639.9" y="965.4" width="111" height="29.6"/><polygon class="cls-1" points="307.2 995 261.2 995 261.2 965.6 297.2 965.6 307.2 995"/><polygon class="cls-1" points="1379.4 1018.4 1395.7 1002.1 1443.1 1002.1 1464 970.1 1580.2 970.1 1580.2 1037.6 1379.4 1018.4"/><path class="cls-1" d="M594,982.2A151.53,151.53,0,0,0,442.5,830.7V982.2Z"/><path class="cls-1" d="M1646,899.1h-2.7a12,12,0,0,1-12-12V805.4a12,12,0,0,1,12-12h2.7a12,12,0,0,1,12,12v81.7A12,12,0,0,1,1646,899.1Z"/><path class="cls-1" d="M1716.3,862.4h0a10.61,10.61,0,0,1-10.6-10.6V820.7a10.61,10.61,0,0,1,10.6-10.6h0a10.61,10.61,0,0,1,10.6,10.6v31.1A10.67,10.67,0,0,1,1716.3,862.4Z"/><path class="cls-1" d="M1844.9,934.2h-31.7a12,12,0,0,1-12-12V764.4a12,12,0,0,1,12-12h31.7a12,12,0,0,1,12,12V922.3A12,12,0,0,1,1844.9,934.2Z"/><path class="cls-1" d="M1509.6,991.9h0a9.82,9.82,0,0,1-9.8-9.8V936.2a9.82,9.82,0,0,1,9.8-9.8h0a9.82,9.82,0,0,1,9.8,9.8V982A9.84,9.84,0,0,1,1509.6,991.9Z"/><path class="cls-1" d="M363.2,1007.2h0a9.82,9.82,0,0,1-9.8-9.8V950.5a9.82,9.82,0,0,1,9.8-9.8h0a9.82,9.82,0,0,1,9.8,9.8v46.9A9.75,9.75,0,0,1,363.2,1007.2Z"/><rect class="cls-1" y="838.4" width="100.8" height="143.8"/><rect class="cls-1" x="117.1" y="773" width="60" height="27.6"/><rect class="cls-1" x="117.1" y="823.8" width="60" height="27.6"/><rect class="cls-1" x="117.1" y="874.6" width="60" height="27.6"/><rect class="cls-1" x="117.1" y="925.3" width="60" height="27.6"/><polygon class="cls-1" points="1436.2 990.9 1455.9 990.9 1475 1023.2 1435.2 1023.2 1436.2 990.9"/><polygon class="cls-1" points="442.6 879.3 406.5 879.3 392.2 919.8 358.6 919.8 330.9 990.1 450.5 990.1 442.6 879.3"/><path class="cls-1" d="M275.8,703.5H.2L0,734.4H35.9a34.66,34.66,0,0,1,34.6,35.9L62.6,979.1h76.1l-7.9-208.8a34.6,34.6,0,0,1,34.6-35.9H275.6a15.83,15.83,0,0,0,15.8-15.8C291.4,709.9,284.3,702.9,275.8,703.5Z"/><path class="cls-1" d="M1747.8,844.4c-112.5,0-203.6,90.5-203.6,202.1h203.6V1080H1920V844.4Z"/></g></svg>