<svg width="1921" height="1095" viewBox="0 0 1921 1095" fill="none" xmlns="http://www.w3.org/2000/svg">
<path d="M1916.89 0H0.224854V1079H1916.89V0Z" fill="url(#paint0_linear_2681_5238)"/>
<path opacity="0.6" d="M1916.89 268.937H0V1078.62H1916.89V268.937Z" fill="url(#paint1_linear_2681_5238)"/>
<g opacity="0.4">
<path opacity="0.8" d="M409.506 437.793C409.506 435.498 408.595 433.297 406.974 431.674C405.353 430.05 403.154 429.137 400.86 429.134H321.933C319.637 429.134 317.435 430.046 315.812 431.67C314.188 433.294 313.276 435.496 313.276 437.793C313.276 440.086 312.365 442.286 310.744 443.908C309.122 445.53 306.923 446.441 304.63 446.441H281.735C279.493 446.52 277.37 447.466 275.812 449.08C274.254 450.694 273.383 452.85 273.383 455.094C273.383 457.338 274.254 459.494 275.812 461.108C277.37 462.722 279.493 463.669 281.735 463.748H429.336C431.578 463.669 433.702 462.722 435.26 461.108C436.818 459.494 437.689 457.338 437.689 455.094C437.689 452.85 436.818 450.694 435.26 449.08C433.702 447.466 431.578 446.52 429.336 446.441H418.162C415.868 446.441 413.668 445.53 412.045 443.908C410.422 442.287 409.509 440.087 409.506 437.793Z" fill="url(#paint2_linear_2681_5238)"/>
<path opacity="0.8" d="M1843.62 498.297C1842.42 498.417 1841.22 498.285 1840.08 497.911C1838.94 497.537 1837.9 496.928 1837.01 496.125C1836.12 495.321 1835.41 494.34 1834.93 493.245C1834.44 492.15 1834.19 490.965 1834.19 489.767C1834.19 488.569 1834.44 487.384 1834.93 486.289C1835.41 485.194 1836.12 484.213 1837.01 483.41C1837.9 482.606 1838.94 481.997 1840.08 481.623C1841.22 481.249 1842.42 481.117 1843.62 481.237H1882.73C1885 481.237 1887.18 480.334 1888.79 478.726C1890.4 477.118 1891.3 474.938 1891.3 472.664C1891.3 470.39 1892.2 468.21 1893.81 466.602C1895.42 464.994 1897.6 464.091 1899.87 464.091H1918.01V429.434H1875.75C1874.63 429.434 1873.53 429.654 1872.49 430.081C1871.46 430.508 1870.53 431.134 1869.74 431.923C1868.95 432.712 1868.32 433.649 1867.9 434.68C1867.47 435.711 1867.25 436.816 1867.25 437.932C1867.25 440.186 1866.35 442.348 1864.76 443.941C1863.17 445.535 1861.01 446.43 1858.75 446.43H1814.69C1812.43 446.445 1810.26 447.354 1808.66 448.96C1807.07 450.566 1806.17 452.739 1806.17 455.003V455.421C1806.16 457.677 1805.26 459.835 1803.66 461.43C1802.07 463.025 1799.91 463.927 1797.65 463.941H1735.85C1733.59 463.941 1731.42 464.835 1729.81 466.429C1728.2 468.023 1727.29 470.187 1727.28 472.45V472.835C1727.29 475.1 1728.2 477.267 1729.81 478.863C1731.41 480.459 1733.58 481.355 1735.85 481.355H1748.79C1751.05 481.355 1753.21 482.251 1754.8 483.847C1756.4 485.443 1757.3 487.607 1757.3 489.864V490.271C1757.28 492.526 1756.38 494.685 1754.79 496.279C1753.19 497.874 1751.03 498.776 1748.78 498.79H1642.8C1640.55 498.776 1638.39 497.874 1636.79 496.279C1635.2 494.685 1634.3 492.526 1634.28 490.271V489.885C1634.28 487.628 1633.39 485.464 1631.79 483.868C1630.2 482.273 1628.03 481.376 1625.78 481.376H1598.1C1595.85 481.376 1593.68 480.48 1592.09 478.884C1590.49 477.288 1589.6 475.124 1589.6 472.868V472.439C1589.6 471.321 1589.82 470.215 1590.24 469.183C1590.67 468.15 1591.3 467.212 1592.09 466.422C1592.88 465.632 1593.82 465.005 1594.85 464.578C1595.88 464.15 1596.99 463.93 1598.1 463.93H1666.58C1668.84 463.916 1670.99 463.015 1672.59 461.423C1674.18 459.831 1675.08 457.675 1675.1 455.421V455.025C1675.11 453.902 1674.9 452.789 1674.47 451.749C1674.05 450.709 1673.42 449.764 1672.63 448.967C1671.84 448.17 1670.9 447.537 1669.87 447.106C1668.83 446.674 1667.72 446.452 1666.6 446.452H1501.74C1500.62 446.452 1499.51 446.674 1498.47 447.106C1497.44 447.537 1496.5 448.17 1495.71 448.967C1494.92 449.764 1494.29 450.709 1493.87 451.749C1493.44 452.789 1493.23 453.902 1493.24 455.025V455.443C1493.25 457.698 1494.15 459.857 1495.75 461.451C1497.34 463.046 1499.5 463.948 1501.76 463.962H1534.97C1537.23 463.962 1539.4 464.857 1541.01 466.45C1542.61 468.044 1543.52 470.208 1543.54 472.471V472.857C1543.52 475.121 1542.62 477.288 1541.01 478.884C1539.4 480.48 1537.23 481.376 1534.97 481.376H1422.23C1421.11 481.368 1419.99 481.582 1418.95 482.005C1417.91 482.429 1416.97 483.055 1416.17 483.846C1415.38 484.637 1414.74 485.577 1414.31 486.614C1413.88 487.65 1413.66 488.762 1413.66 489.885V490.292C1413.66 492.549 1412.76 494.713 1411.17 496.309C1409.57 497.904 1407.41 498.801 1405.15 498.801H1234.24C1231.98 498.815 1229.83 499.716 1228.23 501.308C1226.64 502.9 1225.74 505.056 1225.72 507.31V507.728C1225.72 509.992 1226.62 512.165 1228.21 513.771C1229.81 515.377 1231.97 516.287 1234.24 516.301H1281.22C1283.48 516.301 1285.65 517.195 1287.25 518.789C1288.86 520.383 1289.77 522.547 1289.79 524.809V525.206C1289.79 527.48 1288.88 529.66 1287.28 531.268C1285.67 532.876 1283.49 533.779 1281.22 533.779H1177.7C1175.44 533.793 1173.27 534.703 1171.68 536.309C1170.08 537.915 1169.18 540.088 1169.18 542.352V542.47C1169.18 544.734 1168.29 546.907 1166.69 548.513C1165.1 550.119 1162.93 551.029 1160.67 551.043H1086.23C1083.97 551.043 1081.8 551.937 1080.19 553.531C1078.59 555.125 1077.68 557.289 1077.66 559.552V560.238C1077.66 561.356 1077.44 562.463 1077.01 563.496C1076.58 564.529 1075.95 565.468 1075.16 566.258C1074.37 567.048 1073.43 567.675 1072.4 568.102C1071.37 568.529 1070.26 568.748 1069.14 568.746H990.461C988.198 568.746 986.028 567.852 984.423 566.258C982.817 564.664 981.907 562.5 981.89 560.238V559.83C981.89 557.557 982.793 555.376 984.4 553.768C986.007 552.161 988.187 551.257 990.461 551.257H1019.25C1021.51 551.243 1023.68 550.334 1025.27 548.727C1026.87 547.121 1027.77 544.949 1027.77 542.684V542.266C1027.75 540.011 1026.85 537.852 1025.26 536.258C1023.66 534.663 1021.5 533.761 1019.25 533.747H891.756C889.494 533.747 887.324 534.641 885.718 536.235C884.113 537.829 883.202 539.993 883.185 542.256V542.674C883.185 544.947 884.089 547.128 885.696 548.736C887.303 550.343 889.483 551.247 891.756 551.247H926.886C929.15 551.261 931.316 552.17 932.912 553.776C934.508 555.383 935.403 557.555 935.403 559.82V560.195C935.403 562.459 934.508 564.632 932.912 566.238C931.316 567.844 929.15 568.754 926.886 568.768H823.146C820.894 568.754 818.737 567.853 817.143 566.261C815.549 564.668 814.646 562.512 814.629 560.259C814.629 558.002 813.733 555.838 812.138 554.242C810.543 552.647 808.379 551.75 806.122 551.75H779.885C777.621 551.736 775.455 550.827 773.859 549.22C772.263 547.614 771.368 545.442 771.368 543.177V542.416C771.368 540.154 770.474 537.983 768.88 536.377C767.287 534.771 765.123 533.86 762.861 533.843H729.028C726.764 533.829 724.597 532.92 723.002 531.313C721.406 529.707 720.51 527.535 720.51 525.27V524.852C720.51 522.596 719.614 520.431 718.019 518.836C716.424 517.24 714.26 516.344 712.003 516.344H653.84C651.585 516.358 649.427 517.26 647.832 518.854C646.238 520.449 645.336 522.608 645.322 524.863V525.399C645.322 527.663 646.218 529.836 647.813 531.442C649.409 533.048 651.576 533.958 653.84 533.972H670.392C672.591 533.945 674.718 534.75 676.348 536.227C677.977 537.704 678.988 539.743 679.177 541.934C679.255 543.097 679.093 544.264 678.701 545.362C678.31 546.461 677.696 547.466 676.899 548.317C676.103 549.169 675.14 549.847 674.07 550.31C673 550.773 671.847 551.012 670.681 551.011H607.589C605.336 550.997 603.18 550.096 601.586 548.504C599.992 546.911 599.089 544.755 599.072 542.502V542.373C599.072 540.117 598.176 537.952 596.58 536.357C594.985 534.761 592.821 533.865 590.565 533.865H537.704C535.451 533.851 533.295 532.95 531.701 531.358C530.107 529.765 529.204 527.609 529.187 525.356V524.938C529.187 522.675 528.293 520.505 526.7 518.899C525.106 517.293 522.943 516.382 520.681 516.365H462.827C460.563 516.351 458.397 515.441 456.801 513.835C455.206 512.229 454.31 510.056 454.31 507.792V507.674C454.324 505.419 455.225 503.26 456.82 501.665C458.414 500.071 460.573 499.169 462.827 499.155H494.143C495.266 499.155 496.377 498.932 497.413 498.501C498.449 498.069 499.39 497.437 500.181 496.64C500.972 495.843 501.597 494.897 502.02 493.857C502.444 492.818 502.658 491.704 502.65 490.582V489.853C502.65 488.73 502.427 487.618 501.996 486.582C501.564 485.545 500.932 484.604 500.135 483.813C499.339 483.022 498.393 482.397 497.353 481.973C496.314 481.549 495.201 481.336 494.079 481.344H358.391C356.129 481.344 353.959 482.238 352.353 483.832C350.748 485.426 349.837 487.59 349.82 489.853V490.582C349.82 492.846 350.716 495.018 352.311 496.625C353.907 498.231 356.074 499.141 358.337 499.155H377.268C379.532 499.155 381.704 500.05 383.31 501.647C384.916 503.243 385.825 505.41 385.839 507.674V507.738C385.839 510.012 384.936 512.193 383.329 513.8C381.722 515.408 379.541 516.311 377.268 516.311H299.584C297.32 516.297 295.154 515.388 293.558 513.782C291.963 512.175 291.067 510.003 291.067 507.738V507.663C291.053 505.399 290.143 503.232 288.538 501.636C286.932 500.04 284.76 499.144 282.496 499.144H139.652C137.379 499.144 135.198 498.241 133.591 496.633C131.984 495.025 131.081 492.845 131.081 490.571V489.842C131.081 488.724 131.301 487.617 131.729 486.584C132.157 485.551 132.785 484.612 133.576 483.822C134.367 483.032 135.306 482.405 136.34 481.978C137.373 481.551 138.48 481.332 139.598 481.333H226.496C227.614 481.335 228.721 481.116 229.755 480.689C230.788 480.262 231.727 479.635 232.518 478.845C233.309 478.055 233.937 477.116 234.365 476.083C234.793 475.05 235.013 473.943 235.013 472.825V472.3C235.013 470.035 234.118 467.863 232.522 466.256C230.926 464.65 228.76 463.741 226.496 463.726H173.828C171.555 463.726 169.375 462.823 167.768 461.216C166.16 459.608 165.257 457.427 165.257 455.153V454.735C165.257 453.613 165.479 452.501 165.911 451.464C166.342 450.428 166.975 449.487 167.772 448.696C168.568 447.905 169.513 447.28 170.553 446.856C171.592 446.432 172.705 446.218 173.828 446.227H207.04C209.304 446.213 211.47 445.303 213.066 443.697C214.662 442.091 215.557 439.918 215.557 437.654V437.257C215.557 435.001 214.661 432.836 213.066 431.241C211.471 429.645 209.307 428.748 207.051 428.748H137.413C135.139 428.748 132.959 427.845 131.352 426.237C129.745 424.63 128.842 422.449 128.842 420.175V419.779C128.842 417.505 127.939 415.325 126.331 413.717C124.724 412.109 122.544 411.206 120.271 411.206H52.154C49.9053 411.234 47.7289 410.411 46.0603 408.903C44.3918 407.395 43.354 405.313 43.1544 403.072C43.0752 401.881 43.2414 400.686 43.6427 399.561C44.044 398.436 44.672 397.406 45.4875 396.534C46.3031 395.662 47.289 394.967 48.3841 394.492C49.4791 394.016 50.6602 393.771 51.8539 393.77H77.2665C79.5152 393.798 81.6913 392.976 83.3599 391.468C85.0284 389.96 86.0662 387.877 86.2658 385.637C86.345 384.445 86.1788 383.25 85.7775 382.126C85.3762 381.001 84.7485 379.971 83.933 379.099C83.1174 378.227 82.1315 377.532 81.0364 377.056C79.9413 376.581 78.7603 376.335 77.5666 376.335H0.0107422V411.206V446.162H119.167C121.4 446.133 123.562 446.949 125.217 448.448C126.873 449.947 127.9 452.017 128.092 454.243C128.171 455.425 128.007 456.61 127.609 457.727C127.212 458.843 126.59 459.865 125.781 460.731C124.973 461.597 123.995 462.288 122.909 462.761C121.823 463.233 120.652 463.478 119.467 463.48H0.0107422V1078.71H1917.74V498.297H1843.62ZM97.0116 498.726H60.9819C58.669 498.726 56.4508 497.807 54.8153 496.171C53.1799 494.535 52.2609 492.316 52.2609 490.003C52.2609 487.689 53.1799 485.471 54.8153 483.835C56.4508 482.199 58.669 481.28 60.9819 481.28H97.0545C99.3674 481.28 101.586 482.199 103.221 483.835C104.857 485.471 105.775 487.689 105.775 490.003C105.775 492.316 104.857 494.535 103.221 496.171C101.586 497.807 99.3674 498.726 97.0545 498.726H97.0116ZM264.144 550.604H184.306C182.012 550.604 179.812 549.693 178.188 548.071C176.565 546.45 175.652 544.25 175.649 541.956C175.651 540.819 175.428 539.693 174.994 538.643C174.56 537.592 173.924 536.638 173.121 535.834C172.318 535.029 171.364 534.391 170.315 533.956C169.265 533.521 168.14 533.297 167.004 533.297H153.761C151.468 533.297 149.269 532.386 147.648 530.764C146.027 529.142 145.116 526.942 145.116 524.649C145.116 522.355 146.027 520.155 147.648 518.534C149.269 516.912 151.468 516.001 153.761 516.001H203.044C204.179 516.001 205.304 516.224 206.353 516.659C207.402 517.094 208.355 517.731 209.157 518.534C209.96 519.337 210.597 520.29 211.032 521.339C211.466 522.388 211.69 523.513 211.69 524.649C211.69 526.942 212.601 529.142 214.222 530.764C215.843 532.386 218.043 533.297 220.336 533.297H264.154C265.316 533.256 266.474 533.449 267.559 533.866C268.645 534.282 269.635 534.913 270.471 535.721C271.308 536.528 271.973 537.496 272.427 538.566C272.881 539.637 273.115 540.787 273.115 541.95C273.115 543.113 272.881 544.264 272.427 545.334C271.973 546.404 271.308 547.372 270.471 548.18C269.635 548.987 268.645 549.618 267.559 550.034C266.474 550.451 265.316 550.644 264.154 550.604H264.144ZM496.232 542.652C496.232 544.946 495.321 547.145 493.7 548.767C492.079 550.389 489.879 551.3 487.586 551.3H443.95C441.657 551.3 439.457 550.389 437.836 548.767C436.215 547.145 435.304 544.946 435.304 542.652C435.304 540.359 436.215 538.159 437.836 536.537C439.457 534.915 441.657 534.004 443.95 534.004H487.586C488.723 534.003 489.848 534.225 490.898 534.659C491.948 535.093 492.903 535.73 493.707 536.533C494.511 537.336 495.149 538.29 495.584 539.34C496.019 540.39 496.243 541.516 496.243 542.652H496.232ZM1278.72 569.379H1220.65C1219.49 569.419 1218.33 569.226 1217.25 568.809C1216.16 568.393 1215.17 567.762 1214.34 566.955C1213.5 566.147 1212.83 565.179 1212.38 564.109C1211.93 563.039 1211.69 561.888 1211.69 560.725C1211.69 559.562 1211.93 558.412 1212.38 557.341C1212.83 556.271 1213.5 555.303 1214.34 554.496C1215.17 553.688 1216.16 553.057 1217.25 552.641C1218.33 552.224 1219.49 552.031 1220.65 552.072H1278.72C1279.88 552.031 1281.04 552.224 1282.13 552.641C1283.21 553.057 1284.2 553.688 1285.04 554.496C1285.87 555.303 1286.54 556.271 1286.99 557.341C1287.45 558.412 1287.68 559.562 1287.68 560.725C1287.68 561.888 1287.45 563.039 1286.99 564.109C1286.54 565.179 1285.87 566.147 1285.04 566.955C1284.2 567.762 1283.21 568.393 1282.13 568.809C1281.04 569.226 1279.88 569.419 1278.72 569.379ZM1438.88 533.554H1337.1C1334.86 533.475 1332.73 532.529 1331.18 530.915C1329.62 529.3 1328.75 527.144 1328.75 524.9C1328.75 522.657 1329.62 520.501 1331.18 518.886C1332.73 517.272 1334.86 516.326 1337.1 516.247H1438.88C1441.12 516.326 1443.24 517.272 1444.8 518.886C1446.36 520.501 1447.23 522.657 1447.23 524.9C1447.23 527.144 1446.36 529.3 1444.8 530.915C1443.24 532.529 1441.12 533.475 1438.88 533.554ZM1672.24 532.911H1645.63C1643.34 532.911 1641.14 533.822 1639.52 535.444C1637.89 537.066 1636.98 539.265 1636.98 541.559C1636.98 543.855 1636.07 546.058 1634.45 547.682C1632.82 549.305 1630.62 550.218 1628.33 550.218H1608.29C1606 550.215 1603.8 549.301 1602.18 547.678C1600.56 546.054 1599.65 543.854 1599.65 541.559C1599.64 539.264 1598.73 537.065 1597.11 535.443C1595.48 533.822 1593.28 532.911 1590.99 532.911H1565.28C1562.98 532.911 1560.78 532 1559.16 530.378C1557.54 528.756 1556.63 526.557 1556.63 524.263C1556.63 521.966 1555.72 519.764 1554.1 518.14C1552.47 516.516 1550.27 515.604 1547.97 515.604H1535.55C1534.39 515.645 1533.23 515.451 1532.14 515.035C1531.06 514.619 1530.07 513.988 1529.23 513.18C1528.39 512.373 1527.73 511.405 1527.27 510.335C1526.82 509.264 1526.59 508.113 1526.59 506.951C1526.59 505.788 1526.82 504.637 1527.27 503.567C1527.73 502.497 1528.39 501.529 1529.23 500.721C1530.07 499.914 1531.06 499.283 1532.14 498.866C1533.23 498.45 1534.39 498.256 1535.55 498.297H1593.61C1594.75 498.297 1595.88 498.521 1596.93 498.957C1597.98 499.392 1598.93 500.03 1599.73 500.834C1600.53 501.638 1601.17 502.593 1601.6 503.643C1602.04 504.694 1602.26 505.819 1602.26 506.956C1602.26 509.251 1603.18 511.45 1604.8 513.072C1606.42 514.693 1608.62 515.604 1610.92 515.604H1672.28C1674.53 515.683 1676.65 516.629 1678.21 518.243C1679.77 519.858 1680.64 522.014 1680.64 524.258C1680.64 526.501 1679.77 528.657 1678.21 530.272C1676.65 531.886 1674.53 532.832 1672.28 532.911H1672.24Z" fill="url(#paint3_linear_2681_5238)"/>
<path opacity="0.4" d="M1361.68 455.153C1361.68 457.427 1360.77 459.607 1359.17 461.215C1357.56 462.823 1355.38 463.726 1353.1 463.726H1281.88C1280.69 463.615 1279.5 463.752 1278.36 464.131C1277.23 464.509 1276.19 465.119 1275.31 465.923C1274.43 466.726 1273.72 467.705 1273.24 468.796C1272.76 469.888 1272.51 471.068 1272.51 472.262C1272.51 473.455 1272.76 474.635 1273.24 475.727C1273.72 476.818 1274.43 477.797 1275.31 478.601C1276.19 479.404 1277.23 480.014 1278.36 480.393C1279.5 480.771 1280.69 480.909 1281.88 480.797H1365.1C1367.38 480.797 1369.56 479.894 1371.16 478.286C1372.77 476.678 1373.67 474.498 1373.67 472.224C1373.67 469.95 1374.58 467.77 1376.19 466.162C1377.79 464.554 1379.97 463.651 1382.25 463.651H1418.62C1419.81 463.771 1421.01 463.639 1422.15 463.265C1423.29 462.891 1424.34 462.282 1425.22 461.478C1426.11 460.675 1426.82 459.694 1427.31 458.599C1427.79 457.504 1428.05 456.319 1428.05 455.121C1428.05 453.923 1427.79 452.738 1427.31 451.643C1426.82 450.548 1426.11 449.567 1425.22 448.763C1424.34 447.96 1423.29 447.351 1422.15 446.977C1421.01 446.603 1419.81 446.471 1418.62 446.591H1370.24C1367.97 446.594 1365.79 447.497 1364.19 449.102C1362.58 450.707 1361.68 452.883 1361.68 455.153Z" fill="url(#paint4_linear_2681_5238)"/>
</g>
<path d="M568.302 436.4C568.637 436.4 568.964 436.301 569.243 436.115C569.521 435.929 569.738 435.664 569.866 435.355C569.994 435.045 570.028 434.705 569.963 434.377C569.897 434.048 569.736 433.746 569.499 433.51C569.262 433.273 568.961 433.112 568.633 433.046C568.304 432.981 567.964 433.014 567.655 433.143C567.345 433.271 567.081 433.488 566.895 433.766C566.709 434.045 566.609 434.372 566.609 434.707C566.608 434.93 566.651 435.15 566.735 435.356C566.82 435.563 566.945 435.75 567.102 435.907C567.26 436.065 567.447 436.189 567.653 436.274C567.859 436.359 568.08 436.401 568.302 436.4Z" fill="white"/>
<path d="M537.919 477.433C538.253 477.433 538.581 477.334 538.859 477.148C539.138 476.962 539.354 476.697 539.482 476.388C539.61 476.079 539.644 475.738 539.579 475.41C539.514 475.081 539.352 474.78 539.116 474.543C538.879 474.306 538.577 474.145 538.249 474.079C537.92 474.014 537.58 474.048 537.271 474.176C536.962 474.304 536.697 474.521 536.511 474.799C536.325 475.078 536.226 475.405 536.226 475.74C536.224 475.963 536.267 476.184 536.352 476.39C536.436 476.596 536.561 476.783 536.719 476.94C536.876 477.098 537.063 477.223 537.269 477.307C537.475 477.392 537.696 477.435 537.919 477.433Z" fill="white"/>
<path d="M611.103 512.122C611.447 512.122 611.783 512.019 612.068 511.828C612.354 511.637 612.577 511.365 612.708 511.047C612.839 510.729 612.872 510.38 612.804 510.043C612.737 509.706 612.571 509.396 612.327 509.154C612.083 508.912 611.772 508.747 611.435 508.681C611.098 508.616 610.749 508.652 610.432 508.785C610.115 508.918 609.844 509.142 609.655 509.429C609.465 509.716 609.365 510.052 609.368 510.396C609.368 510.624 609.413 510.849 609.5 511.059C609.587 511.269 609.715 511.46 609.877 511.62C610.038 511.78 610.229 511.907 610.44 511.993C610.65 512.079 610.876 512.123 611.103 512.122Z" fill="white"/>
<path d="M529.594 380.965C530.078 380.967 530.551 380.825 530.954 380.558C531.357 380.291 531.672 379.91 531.859 379.464C532.045 379.018 532.095 378.526 532.002 378.051C531.909 377.577 531.677 377.14 531.336 376.798C530.995 376.455 530.559 376.221 530.085 376.126C529.611 376.031 529.119 376.078 528.672 376.263C528.225 376.448 527.843 376.761 527.574 377.163C527.306 377.565 527.162 378.038 527.162 378.521C527.162 379.168 527.418 379.787 527.874 380.245C528.329 380.703 528.948 380.962 529.594 380.965Z" fill="white"/>
<path d="M479.594 470.306C479.93 470.308 480.258 470.211 480.538 470.025C480.818 469.84 481.037 469.576 481.166 469.266C481.296 468.956 481.33 468.615 481.265 468.285C481.2 467.956 481.039 467.653 480.801 467.416C480.564 467.178 480.262 467.017 479.932 466.952C479.603 466.887 479.262 466.921 478.952 467.051C478.642 467.18 478.378 467.399 478.192 467.679C478.007 467.959 477.909 468.288 477.912 468.624C477.912 469.07 478.089 469.498 478.404 469.813C478.72 470.129 479.148 470.306 479.594 470.306Z" fill="white"/>
<path d="M448.878 438.844C449.287 438.844 449.687 438.722 450.027 438.495C450.367 438.268 450.632 437.945 450.788 437.567C450.945 437.189 450.986 436.773 450.906 436.372C450.826 435.971 450.629 435.602 450.34 435.313C450.051 435.024 449.683 434.827 449.282 434.747C448.88 434.667 448.465 434.708 448.087 434.864C447.709 435.021 447.386 435.286 447.159 435.626C446.931 435.966 446.81 436.366 446.81 436.775C446.809 437.047 446.861 437.317 446.965 437.568C447.068 437.82 447.221 438.049 447.413 438.241C447.605 438.433 447.834 438.586 448.085 438.689C448.337 438.792 448.606 438.845 448.878 438.844Z" fill="white"/>
<path d="M398.781 480.798C399.205 480.764 399.601 480.572 399.89 480.259C400.179 479.946 400.34 479.536 400.34 479.11C400.34 478.684 400.179 478.274 399.89 477.961C399.601 477.649 399.205 477.456 398.781 477.422C398.548 477.404 398.314 477.434 398.093 477.51C397.872 477.586 397.67 477.708 397.498 477.866C397.327 478.025 397.19 478.217 397.096 478.431C397.002 478.645 396.954 478.876 396.954 479.11C396.954 479.344 397.002 479.575 397.096 479.789C397.19 480.003 397.327 480.195 397.498 480.354C397.67 480.513 397.872 480.634 398.093 480.71C398.314 480.787 398.548 480.817 398.781 480.798Z" fill="white"/>
<path d="M430.997 367.087C431.165 367.087 431.328 367.037 431.467 366.944C431.606 366.851 431.715 366.719 431.779 366.564C431.843 366.409 431.86 366.239 431.827 366.075C431.794 365.911 431.714 365.76 431.596 365.642C431.477 365.523 431.326 365.442 431.162 365.41C430.998 365.377 430.828 365.394 430.673 365.458C430.518 365.522 430.386 365.631 430.293 365.77C430.2 365.909 430.151 366.073 430.151 366.24C430.149 366.352 430.17 366.462 430.212 366.566C430.254 366.669 430.316 366.763 430.395 366.842C430.474 366.921 430.568 366.983 430.671 367.025C430.775 367.067 430.886 367.088 430.997 367.087Z" fill="white"/>
<path d="M369.33 406.341C369.754 406.341 370.168 406.215 370.52 405.98C370.872 405.744 371.147 405.41 371.309 405.018C371.471 404.626 371.514 404.196 371.431 403.78C371.348 403.364 371.144 402.982 370.845 402.682C370.545 402.383 370.163 402.179 369.748 402.096C369.332 402.013 368.901 402.056 368.509 402.218C368.118 402.38 367.783 402.655 367.548 403.007C367.313 403.36 367.187 403.774 367.187 404.198C367.187 404.766 367.412 405.312 367.814 405.714C368.216 406.115 368.761 406.341 369.33 406.341Z" fill="white"/>
<path d="M397.335 316.227C397.621 316.227 397.9 316.142 398.138 315.984C398.376 315.825 398.562 315.599 398.671 315.334C398.781 315.07 398.809 314.779 398.753 314.498C398.698 314.218 398.56 313.96 398.357 313.758C398.155 313.555 397.898 313.418 397.617 313.362C397.337 313.306 397.045 313.335 396.781 313.444C396.517 313.554 396.291 313.739 396.133 313.977C395.974 314.215 395.889 314.495 395.889 314.781C395.889 315.164 396.041 315.532 396.312 315.804C396.583 316.075 396.951 316.227 397.335 316.227Z" fill="white"/>
<path d="M329.207 436.775C329.419 436.775 329.626 436.712 329.802 436.595C329.979 436.477 330.116 436.309 330.197 436.113C330.278 435.918 330.299 435.702 330.258 435.494C330.217 435.286 330.114 435.096 329.965 434.946C329.815 434.796 329.624 434.694 329.416 434.652C329.209 434.611 328.993 434.632 328.797 434.713C328.601 434.795 328.434 434.932 328.316 435.108C328.199 435.284 328.136 435.491 328.136 435.703C328.136 435.988 328.249 436.26 328.45 436.461C328.651 436.662 328.923 436.775 329.207 436.775Z" fill="white"/>
<path d="M611.617 381.093C611.875 381.095 612.127 381.021 612.341 380.879C612.556 380.738 612.724 380.535 612.824 380.298C612.923 380.06 612.95 379.799 612.9 379.546C612.851 379.294 612.727 379.062 612.545 378.88C612.363 378.698 612.131 378.574 611.879 378.524C611.626 378.475 611.365 378.501 611.127 378.601C610.89 378.7 610.687 378.868 610.546 379.083C610.404 379.298 610.33 379.55 610.332 379.807C610.332 380.148 610.467 380.476 610.708 380.717C610.949 380.958 611.277 381.093 611.617 381.093Z" fill="white"/>
<path d="M706.111 277.648C706.391 277.648 706.664 277.566 706.897 277.41C707.129 277.255 707.311 277.034 707.418 276.775C707.525 276.517 707.553 276.232 707.498 275.958C707.444 275.684 707.309 275.431 707.111 275.234C706.913 275.036 706.661 274.901 706.387 274.847C706.113 274.792 705.828 274.82 705.57 274.927C705.312 275.034 705.091 275.215 704.936 275.448C704.78 275.681 704.697 275.954 704.697 276.234C704.697 276.609 704.846 276.969 705.111 277.234C705.376 277.499 705.736 277.648 706.111 277.648Z" fill="white"/>
<path d="M623.135 282.342C623.599 282.342 624.052 282.205 624.438 281.947C624.824 281.689 625.125 281.322 625.302 280.893C625.48 280.465 625.526 279.993 625.436 279.537C625.345 279.082 625.122 278.664 624.793 278.336C624.465 278.008 624.047 277.784 623.592 277.694C623.137 277.603 622.665 277.649 622.236 277.827C621.808 278.005 621.442 278.305 621.184 278.691C620.926 279.077 620.788 279.531 620.788 279.995C620.788 280.618 621.035 281.215 621.475 281.655C621.915 282.095 622.512 282.342 623.135 282.342Z" fill="white"/>
<path d="M482.84 526.717C483.152 526.719 483.459 526.628 483.719 526.456C483.98 526.284 484.183 526.038 484.304 525.749C484.424 525.461 484.456 525.144 484.396 524.837C484.335 524.53 484.185 524.249 483.964 524.028C483.743 523.807 483.462 523.657 483.155 523.596C482.849 523.536 482.531 523.568 482.243 523.688C481.955 523.809 481.709 524.012 481.537 524.273C481.365 524.534 481.274 524.84 481.276 525.152C481.276 525.358 481.316 525.561 481.395 525.751C481.474 525.941 481.589 526.113 481.734 526.259C481.879 526.404 482.052 526.519 482.241 526.598C482.431 526.676 482.635 526.717 482.84 526.717Z" fill="white"/>
<path d="M267.786 459.826C268.157 459.826 268.52 459.716 268.828 459.51C269.136 459.304 269.376 459.011 269.518 458.668C269.66 458.325 269.697 457.948 269.625 457.585C269.553 457.221 269.374 456.887 269.112 456.624C268.85 456.362 268.516 456.184 268.152 456.111C267.788 456.039 267.411 456.076 267.069 456.218C266.726 456.36 266.433 456.6 266.227 456.909C266.021 457.217 265.911 457.58 265.911 457.951C265.911 458.448 266.109 458.925 266.46 459.277C266.812 459.628 267.289 459.826 267.786 459.826Z" fill="white"/>
<path d="M285.581 354.849C285.797 354.849 286.004 354.763 286.157 354.61C286.31 354.457 286.396 354.25 286.396 354.034C286.396 353.873 286.348 353.716 286.258 353.582C286.169 353.448 286.042 353.343 285.893 353.282C285.744 353.22 285.581 353.204 285.423 353.235C285.265 353.267 285.12 353.344 285.006 353.458C284.892 353.572 284.814 353.717 284.783 353.875C284.751 354.033 284.768 354.197 284.829 354.346C284.891 354.495 284.995 354.622 285.129 354.711C285.263 354.801 285.42 354.849 285.581 354.849Z" fill="white"/>
<path d="M185.334 485.448C185.534 485.45 185.729 485.393 185.897 485.285C186.064 485.176 186.196 485.021 186.276 484.838C186.356 484.656 186.381 484.454 186.347 484.257C186.313 484.06 186.222 483.878 186.085 483.733C185.949 483.588 185.772 483.486 185.578 483.44C185.384 483.394 185.181 483.406 184.994 483.474C184.807 483.543 184.644 483.665 184.525 483.825C184.407 483.986 184.338 484.177 184.327 484.377C184.32 484.514 184.341 484.651 184.388 484.78C184.435 484.909 184.508 485.027 184.602 485.127C184.696 485.228 184.81 485.308 184.936 485.363C185.061 485.418 185.197 485.447 185.334 485.448Z" fill="white"/>
<path d="M237.36 410.049C237.589 410.051 237.814 409.985 238.005 409.859C238.197 409.733 238.347 409.553 238.436 409.342C238.525 409.131 238.55 408.898 238.507 408.673C238.463 408.447 238.354 408.24 238.192 408.077C238.031 407.914 237.825 407.803 237.6 407.757C237.375 407.712 237.142 407.734 236.93 407.821C236.718 407.909 236.537 408.057 236.409 408.248C236.281 408.438 236.213 408.662 236.213 408.892C236.212 409.043 236.24 409.193 236.297 409.334C236.354 409.474 236.439 409.602 236.545 409.709C236.652 409.817 236.779 409.903 236.918 409.961C237.058 410.019 237.208 410.049 237.36 410.049Z" fill="white"/>
<path d="M97.4936 491.707C97.8335 491.709 98.1666 491.61 98.4501 491.422C98.7336 491.234 98.9549 490.967 99.086 490.653C99.217 490.339 99.2519 489.994 99.1861 489.66C99.1203 489.326 98.9567 489.02 98.7164 488.78C98.476 488.539 98.1697 488.376 97.8362 488.31C97.5027 488.244 97.157 488.279 96.8433 488.41C96.5297 488.541 96.2621 488.762 96.0746 489.046C95.8871 489.33 95.7882 489.663 95.7903 490.003C95.7931 490.454 95.9734 490.885 96.2922 491.204C96.6111 491.523 97.0426 491.704 97.4936 491.707Z" fill="white"/>
<path d="M131.349 436.775C131.561 436.775 131.768 436.712 131.944 436.595C132.12 436.477 132.257 436.309 132.338 436.113C132.419 435.918 132.441 435.702 132.399 435.494C132.358 435.286 132.256 435.096 132.106 434.946C131.956 434.796 131.765 434.694 131.558 434.652C131.35 434.611 131.134 434.632 130.939 434.713C130.743 434.795 130.575 434.932 130.458 435.108C130.34 435.284 130.277 435.491 130.277 435.703C130.277 435.988 130.39 436.26 130.591 436.461C130.792 436.662 131.065 436.775 131.349 436.775Z" fill="white"/>
<path d="M182.71 369.477C183.03 369.477 183.342 369.382 183.608 369.204C183.874 369.026 184.082 368.773 184.204 368.478C184.327 368.182 184.359 367.857 184.296 367.543C184.234 367.229 184.08 366.941 183.854 366.714C183.627 366.488 183.339 366.334 183.025 366.271C182.711 366.209 182.386 366.241 182.09 366.363C181.795 366.486 181.542 366.693 181.365 366.959C181.187 367.226 181.092 367.538 181.092 367.859C181.092 368.288 181.262 368.699 181.566 369.003C181.869 369.306 182.281 369.477 182.71 369.477Z" fill="white"/>
<path d="M91.4297 368.641C91.748 368.641 92.0532 368.514 92.2783 368.289C92.5033 368.064 92.6295 367.759 92.6295 367.44C92.6295 367.122 92.5033 366.817 92.2783 366.592C92.0532 366.367 91.748 366.24 91.4297 366.24C91.1115 366.24 90.8063 366.367 90.5812 366.592C90.3562 366.817 90.2297 367.122 90.2297 367.44C90.2297 367.759 90.3562 368.064 90.5812 368.289C90.8063 368.514 91.1115 368.641 91.4297 368.641Z" fill="white"/>
<path d="M277.803 287.294C278.015 287.294 278.222 287.231 278.399 287.113C278.575 286.995 278.712 286.828 278.793 286.632C278.874 286.436 278.895 286.221 278.854 286.013C278.813 285.805 278.711 285.614 278.561 285.464C278.411 285.314 278.22 285.212 278.012 285.171C277.805 285.13 277.589 285.151 277.393 285.232C277.198 285.313 277.03 285.45 276.912 285.627C276.795 285.803 276.732 286.01 276.732 286.222C276.732 286.506 276.845 286.779 277.046 286.98C277.247 287.181 277.519 287.294 277.803 287.294Z" fill="white"/>
<path d="M173.367 288.322C173.579 288.322 173.786 288.259 173.963 288.141C174.139 288.024 174.276 287.856 174.357 287.66C174.438 287.465 174.459 287.249 174.418 287.041C174.377 286.833 174.275 286.642 174.125 286.493C173.975 286.343 173.784 286.241 173.576 286.199C173.368 286.158 173.153 286.179 172.957 286.26C172.762 286.341 172.594 286.479 172.476 286.655C172.359 286.831 172.296 287.038 172.296 287.25C172.296 287.535 172.409 287.807 172.61 288.008C172.811 288.209 173.083 288.322 173.367 288.322Z" fill="white"/>
<path d="M237.156 329.773C237.343 329.773 237.526 329.717 237.681 329.613C237.836 329.509 237.957 329.361 238.028 329.188C238.099 329.015 238.117 328.825 238.08 328.642C238.043 328.459 237.952 328.29 237.819 328.159C237.686 328.028 237.517 327.939 237.333 327.904C237.15 327.868 236.96 327.889 236.788 327.962C236.616 328.035 236.469 328.157 236.367 328.314C236.265 328.47 236.211 328.653 236.213 328.84C236.213 328.964 236.238 329.086 236.285 329.2C236.333 329.313 236.402 329.417 236.49 329.504C236.578 329.59 236.682 329.659 236.796 329.705C236.911 329.751 237.033 329.774 237.156 329.773Z" fill="white"/>
<path d="M381.275 261.618C381.485 261.607 381.686 261.535 381.855 261.411C382.024 261.288 382.153 261.117 382.226 260.92C382.299 260.724 382.313 260.51 382.266 260.306C382.218 260.102 382.112 259.916 381.961 259.771C381.809 259.627 381.618 259.53 381.412 259.493C381.206 259.455 380.993 259.479 380.8 259.562C380.608 259.644 380.443 259.782 380.328 259.956C380.212 260.131 380.15 260.336 380.15 260.546C380.15 260.691 380.18 260.835 380.237 260.969C380.294 261.102 380.378 261.223 380.483 261.323C380.588 261.423 380.713 261.501 380.849 261.552C380.985 261.602 381.13 261.625 381.275 261.618Z" fill="white"/>
<path d="M140.809 257.888C141.008 257.888 141.198 257.809 141.339 257.668C141.48 257.528 141.559 257.337 141.559 257.138C141.559 256.939 141.48 256.748 141.339 256.607C141.198 256.467 141.008 256.388 140.809 256.388C140.61 256.388 140.419 256.467 140.278 256.607C140.138 256.748 140.059 256.939 140.059 257.138C140.059 257.337 140.138 257.528 140.278 257.668C140.419 257.809 140.61 257.888 140.809 257.888Z" fill="white"/>
<path d="M585.08 243.357C585.273 243.357 585.461 243.299 585.621 243.192C585.782 243.085 585.907 242.933 585.981 242.755C586.054 242.576 586.074 242.38 586.036 242.191C585.999 242.002 585.906 241.828 585.769 241.692C585.633 241.555 585.459 241.463 585.27 241.425C585.081 241.387 584.885 241.407 584.707 241.48C584.529 241.554 584.376 241.679 584.269 241.84C584.162 242 584.105 242.188 584.105 242.381C584.105 242.64 584.208 242.888 584.39 243.071C584.573 243.254 584.821 243.357 585.08 243.357Z" fill="white"/>
<path d="M547.647 300.4C547.799 300.4 547.948 300.354 548.075 300.27C548.202 300.185 548.301 300.064 548.359 299.923C548.417 299.782 548.433 299.627 548.403 299.477C548.373 299.328 548.3 299.19 548.192 299.082C548.084 298.974 547.946 298.901 547.797 298.871C547.647 298.841 547.493 298.857 547.352 298.915C547.211 298.974 547.09 299.072 547.005 299.199C546.921 299.326 546.875 299.475 546.875 299.628C546.875 299.833 546.956 300.029 547.101 300.174C547.246 300.318 547.442 300.4 547.647 300.4Z" fill="white"/>
<path d="M467.648 312.112C467.769 312.112 467.887 312.076 467.987 312.009C468.088 311.942 468.166 311.847 468.212 311.735C468.259 311.624 468.271 311.501 468.247 311.382C468.224 311.264 468.165 311.155 468.08 311.07C467.995 310.984 467.886 310.926 467.767 310.902C467.649 310.879 467.526 310.891 467.415 310.937C467.303 310.983 467.207 311.062 467.14 311.162C467.073 311.262 467.037 311.381 467.037 311.501C467.037 311.663 467.102 311.819 467.216 311.933C467.331 312.048 467.486 312.112 467.648 312.112Z" fill="white"/>
<path d="M527.162 259.946C527.349 259.946 527.531 259.89 527.686 259.787C527.841 259.683 527.962 259.536 528.033 259.363C528.105 259.191 528.123 259.002 528.087 258.819C528.051 258.636 527.961 258.468 527.829 258.336C527.697 258.204 527.529 258.114 527.346 258.078C527.163 258.041 526.974 258.06 526.801 258.131C526.629 258.203 526.482 258.324 526.379 258.479C526.275 258.634 526.22 258.816 526.22 259.003C526.218 259.127 526.241 259.25 526.288 259.365C526.335 259.48 526.405 259.585 526.493 259.673C526.58 259.76 526.685 259.83 526.8 259.877C526.915 259.924 527.038 259.947 527.162 259.946Z" fill="white"/>
<path d="M442.611 226.789C442.697 226.789 442.783 226.772 442.863 226.738C442.943 226.705 443.016 226.655 443.077 226.594C443.138 226.532 443.185 226.458 443.217 226.378C443.25 226.297 443.265 226.211 443.264 226.124C443.264 225.951 443.195 225.785 443.073 225.662C442.95 225.54 442.784 225.471 442.611 225.471C442.524 225.469 442.438 225.485 442.357 225.517C442.277 225.55 442.203 225.598 442.141 225.658C442.08 225.719 442.03 225.792 441.997 225.872C441.963 225.952 441.946 226.038 441.946 226.124C441.946 226.301 442.016 226.47 442.141 226.594C442.265 226.719 442.434 226.789 442.611 226.789Z" fill="white"/>
<path d="M1204.93 260.224C1205.32 260.224 1205.7 260.108 1206.02 259.892C1206.34 259.675 1206.6 259.367 1206.75 259.007C1206.9 258.646 1206.93 258.25 1206.86 257.867C1206.78 257.485 1206.59 257.134 1206.32 256.858C1206.04 256.582 1205.69 256.394 1205.31 256.318C1204.93 256.242 1204.53 256.281 1204.17 256.43C1203.81 256.58 1203.5 256.832 1203.29 257.157C1203.07 257.481 1202.95 257.862 1202.95 258.252C1202.95 258.511 1203 258.768 1203.1 259.008C1203.2 259.248 1203.34 259.466 1203.53 259.65C1203.71 259.833 1203.93 259.978 1204.17 260.077C1204.41 260.175 1204.67 260.225 1204.93 260.224Z" fill="white"/>
<path d="M1273.19 323.439C1273.19 323.94 1273.05 324.43 1272.77 324.847C1272.49 325.264 1272.1 325.59 1271.64 325.783C1271.18 325.976 1270.67 326.028 1270.18 325.932C1269.69 325.835 1269.23 325.595 1268.88 325.242C1268.53 324.889 1268.28 324.438 1268.18 323.947C1268.09 323.456 1268.14 322.947 1268.33 322.485C1268.52 322.022 1268.84 321.626 1269.26 321.348C1269.67 321.07 1270.16 320.921 1270.66 320.921C1271.33 320.921 1271.97 321.186 1272.45 321.658C1272.92 322.13 1273.19 322.77 1273.19 323.439Z" fill="white"/>
<path d="M1468.98 287.797C1469.32 287.8 1469.65 287.702 1469.93 287.517C1470.21 287.331 1470.43 287.067 1470.56 286.757C1470.68 286.447 1470.72 286.106 1470.65 285.777C1470.59 285.447 1470.43 285.144 1470.19 284.907C1469.95 284.67 1469.65 284.508 1469.32 284.443C1468.99 284.378 1468.65 284.413 1468.34 284.542C1468.03 284.672 1467.77 284.89 1467.58 285.17C1467.4 285.45 1467.3 285.779 1467.3 286.115C1467.3 286.561 1467.48 286.989 1467.79 287.305C1468.11 287.62 1468.54 287.797 1468.98 287.797Z" fill="white"/>
<path d="M1409.99 306.872C1409.96 307.296 1409.77 307.692 1409.45 307.981C1409.14 308.27 1408.73 308.43 1408.31 308.43C1407.88 308.43 1407.47 308.27 1407.16 307.981C1406.85 307.692 1406.65 307.296 1406.62 306.872C1406.6 306.639 1406.63 306.404 1406.71 306.184C1406.78 305.963 1406.9 305.76 1407.06 305.588C1407.22 305.417 1407.41 305.28 1407.63 305.186C1407.84 305.092 1408.07 305.044 1408.31 305.044C1408.54 305.044 1408.77 305.092 1408.99 305.186C1409.2 305.28 1409.39 305.417 1409.55 305.588C1409.71 305.76 1409.83 305.963 1409.91 306.184C1409.98 306.404 1410.01 306.639 1409.99 306.872Z" fill="white"/>
<path d="M1290.08 234.023C1290.07 234.164 1290.03 234.302 1289.95 234.419C1289.87 234.535 1289.76 234.626 1289.63 234.678C1289.49 234.731 1289.35 234.744 1289.21 234.715C1289.07 234.686 1288.95 234.617 1288.85 234.516C1288.75 234.415 1288.68 234.287 1288.65 234.148C1288.63 234.009 1288.64 233.865 1288.7 233.735C1288.75 233.604 1288.84 233.493 1288.96 233.414C1289.08 233.336 1289.22 233.294 1289.36 233.294C1289.45 233.294 1289.55 233.313 1289.64 233.35C1289.72 233.386 1289.8 233.44 1289.87 233.508C1289.94 233.576 1289.99 233.656 1290.02 233.745C1290.06 233.833 1290.08 233.928 1290.08 234.023Z" fill="white"/>
<path d="M1512.87 338.003C1513.15 338.005 1513.43 337.922 1513.67 337.763C1513.91 337.605 1514.1 337.38 1514.21 337.115C1514.32 336.85 1514.35 336.558 1514.3 336.276C1514.24 335.995 1514.1 335.736 1513.9 335.533C1513.7 335.33 1513.44 335.192 1513.16 335.137C1512.87 335.081 1512.58 335.111 1512.32 335.222C1512.05 335.332 1511.83 335.519 1511.67 335.759C1511.51 335.998 1511.43 336.28 1511.43 336.567C1511.43 336.948 1511.58 337.313 1511.85 337.582C1512.12 337.851 1512.48 338.003 1512.87 338.003Z" fill="white"/>
<path d="M1883.87 252.765C1884.15 252.768 1884.43 252.685 1884.67 252.527C1884.91 252.369 1885.1 252.144 1885.21 251.88C1885.32 251.616 1885.35 251.325 1885.3 251.043C1885.24 250.762 1885.11 250.503 1884.9 250.3C1884.7 250.096 1884.44 249.957 1884.16 249.901C1883.88 249.844 1883.59 249.872 1883.33 249.981C1883.06 250.09 1882.83 250.276 1882.68 250.514C1882.52 250.752 1882.43 251.032 1882.43 251.319C1882.43 251.701 1882.58 252.067 1882.85 252.338C1883.12 252.609 1883.48 252.763 1883.87 252.765Z" fill="white"/>
<path d="M1735.7 369.177C1735.84 369.179 1735.98 369.138 1736.11 369.059C1736.23 368.981 1736.32 368.868 1736.38 368.735C1736.44 368.602 1736.45 368.455 1736.42 368.313C1736.4 368.171 1736.33 368.04 1736.23 367.937C1736.13 367.834 1736 367.764 1735.85 367.735C1735.71 367.706 1735.57 367.719 1735.43 367.774C1735.3 367.829 1735.18 367.922 1735.1 368.042C1735.02 368.162 1734.98 368.304 1734.98 368.448C1734.98 368.543 1735 368.638 1735.03 368.726C1735.07 368.815 1735.12 368.895 1735.19 368.963C1735.25 369.031 1735.33 369.085 1735.42 369.121C1735.51 369.158 1735.6 369.177 1735.7 369.177Z" fill="white"/>
<path d="M1766.2 510.814C1766.34 510.816 1766.49 510.775 1766.61 510.695C1766.73 510.616 1766.82 510.502 1766.88 510.369C1766.94 510.235 1766.95 510.088 1766.93 509.946C1766.9 509.803 1766.83 509.672 1766.73 509.57C1766.62 509.467 1766.49 509.398 1766.35 509.37C1766.21 509.342 1766.06 509.358 1765.93 509.414C1765.79 509.47 1765.68 509.566 1765.6 509.687C1765.52 509.808 1765.48 509.951 1765.48 510.096C1765.48 510.286 1765.56 510.469 1765.69 510.603C1765.83 510.738 1766.01 510.814 1766.2 510.814Z" fill="white"/>
<path d="M1370.44 241.632C1370.93 241.629 1371.41 241.482 1371.81 241.209C1372.22 240.936 1372.53 240.549 1372.72 240.096C1372.9 239.644 1372.95 239.146 1372.85 238.667C1372.76 238.187 1372.52 237.747 1372.17 237.402C1371.83 237.057 1371.39 236.822 1370.91 236.727C1370.43 236.633 1369.93 236.682 1369.48 236.87C1369.03 237.058 1368.64 237.375 1368.37 237.782C1368.1 238.189 1367.95 238.667 1367.95 239.156C1367.96 239.814 1368.22 240.443 1368.69 240.907C1369.15 241.371 1369.78 241.632 1370.44 241.632Z" fill="white"/>
<path d="M1433.77 391.713C1434.27 391.713 1434.75 391.566 1435.17 391.289C1435.58 391.012 1435.9 390.619 1436.09 390.159C1436.28 389.699 1436.33 389.192 1436.24 388.704C1436.14 388.215 1435.9 387.767 1435.55 387.414C1435.2 387.062 1434.75 386.822 1434.26 386.725C1433.77 386.628 1433.26 386.678 1432.8 386.869C1432.34 387.059 1431.95 387.382 1431.67 387.796C1431.4 388.21 1431.25 388.697 1431.25 389.195C1431.25 389.863 1431.51 390.504 1431.99 390.976C1432.46 391.448 1433.1 391.713 1433.77 391.713Z" fill="white"/>
<path d="M1431.88 485.92C1432.13 485.922 1432.38 485.849 1432.59 485.711C1432.8 485.573 1432.96 485.376 1433.06 485.144C1433.16 484.913 1433.18 484.657 1433.13 484.411C1433.08 484.165 1432.96 483.939 1432.79 483.761C1432.61 483.584 1432.38 483.463 1432.14 483.414C1431.89 483.366 1431.64 483.392 1431.4 483.489C1431.17 483.586 1430.98 483.75 1430.84 483.959C1430.7 484.169 1430.63 484.415 1430.63 484.666C1430.63 484.998 1430.76 485.317 1431 485.552C1431.23 485.788 1431.55 485.92 1431.88 485.92Z" fill="white"/>
<path d="M1300.44 504.052C1300.61 504.068 1300.79 504.048 1300.96 503.992C1301.12 503.936 1301.28 503.846 1301.4 503.727C1301.53 503.609 1301.64 503.464 1301.71 503.303C1301.78 503.143 1301.82 502.969 1301.82 502.793C1301.82 502.617 1301.78 502.443 1301.71 502.282C1301.64 502.121 1301.53 501.977 1301.4 501.858C1301.28 501.74 1301.12 501.65 1300.96 501.594C1300.79 501.538 1300.61 501.518 1300.44 501.534C1300.12 501.563 1299.83 501.708 1299.62 501.941C1299.41 502.174 1299.29 502.478 1299.29 502.793C1299.29 503.108 1299.41 503.412 1299.62 503.645C1299.83 503.878 1300.12 504.023 1300.44 504.052Z" fill="white"/>
<path d="M1338.54 443.537C1339.07 443.539 1339.58 443.385 1340.02 443.095C1340.46 442.805 1340.8 442.392 1341 441.908C1341.2 441.424 1341.25 440.891 1341.15 440.376C1341.05 439.862 1340.8 439.389 1340.43 439.018C1340.06 438.648 1339.58 438.395 1339.07 438.294C1338.56 438.192 1338.02 438.245 1337.54 438.447C1337.05 438.648 1336.64 438.989 1336.35 439.426C1336.06 439.863 1335.91 440.376 1335.91 440.901C1335.91 441.6 1336.19 442.271 1336.68 442.765C1337.18 443.259 1337.85 443.537 1338.54 443.537Z" fill="white"/>
<path d="M1563.01 426.391C1563.43 426.391 1563.84 426.265 1564.2 426.03C1564.55 425.794 1564.82 425.46 1564.98 425.068C1565.15 424.676 1565.19 424.245 1565.11 423.83C1565.02 423.414 1564.82 423.032 1564.52 422.732C1564.22 422.432 1563.84 422.228 1563.42 422.146C1563.01 422.063 1562.58 422.105 1562.19 422.268C1561.79 422.43 1561.46 422.704 1561.22 423.057C1560.99 423.409 1560.86 423.824 1560.86 424.248C1560.86 424.816 1561.09 425.361 1561.49 425.763C1561.89 426.165 1562.44 426.391 1563.01 426.391Z" fill="white"/>
<path d="M1725.56 449.12C1725.8 449.139 1726.04 449.108 1726.26 449.031C1726.48 448.954 1726.69 448.831 1726.86 448.67C1727.03 448.51 1727.17 448.315 1727.27 448.098C1727.36 447.881 1727.41 447.647 1727.41 447.411C1727.41 447.174 1727.36 446.94 1727.27 446.723C1727.17 446.507 1727.03 446.312 1726.86 446.151C1726.69 445.991 1726.48 445.868 1726.26 445.791C1726.04 445.713 1725.8 445.683 1725.56 445.702C1725.13 445.736 1724.73 445.93 1724.44 446.247C1724.15 446.564 1723.98 446.98 1723.98 447.411C1723.98 447.842 1724.15 448.258 1724.44 448.574C1724.73 448.891 1725.13 449.086 1725.56 449.12Z" fill="white"/>
<path d="M1670.27 315.327C1670.74 315.327 1671.2 315.189 1671.58 314.928C1671.97 314.668 1672.28 314.298 1672.46 313.865C1672.64 313.433 1672.68 312.957 1672.59 312.497C1672.5 312.038 1672.27 311.616 1671.94 311.285C1671.61 310.953 1671.19 310.728 1670.73 310.636C1670.27 310.545 1669.8 310.592 1669.36 310.771C1668.93 310.95 1668.56 311.254 1668.3 311.643C1668.04 312.033 1667.9 312.491 1667.9 312.959C1667.9 313.587 1668.15 314.19 1668.6 314.634C1669.04 315.078 1669.64 315.327 1670.27 315.327Z" fill="white"/>
<path d="M1557.64 241.02C1557.85 241.02 1558.06 240.957 1558.23 240.84C1558.41 240.722 1558.55 240.555 1558.63 240.359C1558.71 240.163 1558.73 239.947 1558.69 239.739C1558.65 239.532 1558.55 239.341 1558.4 239.191C1558.25 239.041 1558.05 238.939 1557.85 238.898C1557.64 238.856 1557.42 238.877 1557.23 238.959C1557.03 239.04 1556.86 239.177 1556.75 239.353C1556.63 239.529 1556.57 239.737 1556.57 239.949C1556.57 240.233 1556.68 240.505 1556.88 240.706C1557.08 240.907 1557.35 241.02 1557.64 241.02Z" fill="white"/>
<path d="M1832.32 485.084C1832.87 485.084 1833.41 484.921 1833.87 484.615C1834.33 484.309 1834.69 483.873 1834.9 483.364C1835.11 482.855 1835.16 482.295 1835.06 481.754C1834.95 481.214 1834.68 480.718 1834.29 480.328C1833.9 479.938 1833.41 479.673 1832.87 479.565C1832.33 479.458 1831.77 479.513 1831.26 479.724C1830.75 479.935 1830.31 480.292 1830.01 480.75C1829.7 481.208 1829.54 481.747 1829.54 482.298C1829.54 482.664 1829.61 483.026 1829.75 483.364C1829.89 483.702 1830.1 484.009 1830.35 484.268C1830.61 484.527 1830.92 484.732 1831.26 484.872C1831.6 485.012 1831.96 485.084 1832.32 485.084Z" fill="white"/>
<path d="M1812.09 365.779C1812.6 365.779 1813.11 365.625 1813.54 365.337C1813.98 365.048 1814.31 364.638 1814.51 364.158C1814.71 363.679 1814.76 363.151 1814.66 362.642C1814.56 362.132 1814.31 361.665 1813.94 361.297C1813.57 360.93 1813.11 360.68 1812.6 360.579C1812.09 360.477 1811.56 360.529 1811.08 360.728C1810.6 360.927 1810.19 361.263 1809.9 361.695C1809.61 362.127 1809.46 362.635 1809.46 363.154C1809.46 363.85 1809.74 364.518 1810.23 365.01C1810.72 365.503 1811.39 365.779 1812.09 365.779Z" fill="white"/>
<path d="M1778.74 254.694C1779.17 254.661 1779.57 254.468 1779.85 254.155C1780.14 253.842 1780.3 253.432 1780.3 253.007C1780.3 252.581 1780.14 252.171 1779.85 251.858C1779.57 251.545 1779.17 251.353 1778.74 251.319C1778.51 251.3 1778.28 251.33 1778.06 251.406C1777.84 251.483 1777.63 251.604 1777.46 251.763C1777.29 251.921 1777.15 252.114 1777.06 252.328C1776.97 252.542 1776.92 252.773 1776.92 253.007C1776.92 253.24 1776.97 253.471 1777.06 253.686C1777.15 253.9 1777.29 254.092 1777.46 254.251C1777.63 254.409 1777.84 254.53 1778.06 254.607C1778.28 254.683 1778.51 254.713 1778.74 254.694Z" fill="white"/>
<path opacity="0.6" d="M165.525 291.762C174.639 291.772 183.551 289.079 191.134 284.022C198.717 278.965 204.63 271.772 208.125 263.353C211.62 254.934 212.54 245.667 210.768 236.725C208.997 227.782 204.614 219.567 198.173 213.117C191.732 206.667 183.524 202.273 174.586 200.491C165.648 198.709 156.382 199.618 147.961 203.104C139.54 206.59 132.342 212.496 127.278 220.075C122.213 227.654 119.51 236.566 119.51 245.682C119.51 257.894 124.356 269.606 132.984 278.246C141.612 286.886 153.316 291.748 165.525 291.762Z" fill="url(#paint5_linear_2681_5238)"/>
<g opacity="0.7">
<path opacity="0.7" d="M256.666 363.358L256.869 362.157C255.495 361.925 254.181 361.424 253.001 360.683C251.821 359.942 250.799 358.976 249.993 357.839C249.186 356.702 248.612 355.417 248.303 354.059C247.994 352.7 247.956 351.293 248.191 349.919L246.991 349.716C246.725 351.245 246.764 352.812 247.105 354.326C247.446 355.841 248.083 357.273 248.979 358.54C249.875 359.808 251.012 360.886 252.326 361.713C253.639 362.539 255.103 363.098 256.633 363.358H256.666Z" fill="#6472CF"/>
<path opacity="0.7" d="M257.18 360.368L257.373 359.168C255.394 358.83 253.63 357.72 252.467 356.083C251.304 354.446 250.838 352.415 251.17 350.434L249.98 350.23C249.785 351.369 249.817 352.535 250.074 353.662C250.33 354.788 250.807 355.853 251.475 356.795C252.144 357.737 252.993 358.537 253.971 359.15C254.95 359.764 256.041 360.177 257.18 360.368Z" fill="#6472CF"/>
<path opacity="0.7" d="M257.683 357.379L257.887 356.178C256.699 355.977 255.64 355.311 254.943 354.328C254.246 353.346 253.967 352.126 254.169 350.938L252.969 350.745C252.718 352.25 253.073 353.793 253.956 355.036C254.84 356.279 256.18 357.122 257.683 357.379Z" fill="#6472CF"/>
<path opacity="0.7" d="M259.879 353.424C260.142 353.239 260.357 352.995 260.51 352.713C260.662 352.43 260.747 352.116 260.758 351.795L272.939 353.692C273.247 353.762 273.566 353.769 273.877 353.714C274.188 353.659 274.485 353.542 274.75 353.37C277.964 351.056 278.671 346.244 276.646 341.893L278.017 340.918C279.646 342.579 281.457 343.544 282.624 342.718L285.389 340.757L287.135 343.222L284.328 345.205C284.002 345.445 283.781 345.802 283.711 346.201C283.641 346.6 283.728 347.011 283.953 347.348L294.259 361.879C294.501 362.204 294.859 362.422 295.258 362.49C295.657 362.558 296.067 362.47 296.402 362.244L303.752 357.035C304.076 356.793 304.295 356.436 304.363 356.037C304.43 355.638 304.342 355.228 304.116 354.892L293.809 340.372C293.569 340.045 293.212 339.824 292.813 339.755C292.414 339.685 292.003 339.771 291.667 339.997L288.86 341.99L287.113 339.536L290.478 337.146C290.819 336.831 291.064 336.424 291.181 335.973C291.299 335.523 291.285 335.049 291.142 334.606C291.815 334.657 292.491 334.562 293.124 334.328C294.624 333.256 294.324 330.373 292.449 327.726C290.574 325.079 287.928 323.836 286.438 324.897C286.003 325.413 285.692 326.021 285.528 326.676C285.159 326.392 284.716 326.22 284.252 326.182C283.788 326.144 283.324 326.241 282.914 326.462L279.55 328.852L277.696 326.237L280.503 324.244C280.83 324.003 281.05 323.645 281.118 323.246C281.186 322.846 281.096 322.435 280.867 322.1L270.561 307.569C270.321 307.242 269.963 307.022 269.563 306.954C269.164 306.886 268.753 306.976 268.418 307.205L261.069 312.424C260.74 312.662 260.518 313.019 260.448 313.419C260.378 313.819 260.466 314.231 260.694 314.567L271 329.087C271.239 329.416 271.596 329.638 271.996 329.708C272.395 329.778 272.807 329.69 273.143 329.462L275.95 327.469L277.814 330.095L275.061 332.045C273.882 332.881 274.204 334.917 275.221 337.007L273.861 337.971C270.422 334.617 265.643 333.685 262.387 335.967C262.138 336.161 261.931 336.401 261.777 336.675C261.622 336.949 261.523 337.251 261.486 337.564L259.258 349.684C258.95 349.593 258.625 349.573 258.308 349.625C257.991 349.677 257.689 349.8 257.426 349.984C257.146 350.12 256.899 350.315 256.701 350.556C256.504 350.797 256.362 351.078 256.285 351.379C256.207 351.68 256.196 351.995 256.252 352.301C256.309 352.607 256.431 352.898 256.611 353.152C256.791 353.406 257.024 353.618 257.294 353.772C257.564 353.927 257.864 354.022 258.174 354.049C258.484 354.075 258.796 354.034 259.089 353.928C259.382 353.822 259.648 353.654 259.869 353.435L259.879 353.424ZM261.197 350.638L265.483 347.584C266.667 349.206 268.054 350.672 269.607 351.945L261.197 350.638ZM264.797 346.598L260.512 349.652L262.065 341.272C262.746 343.156 263.664 344.946 264.797 346.598Z" fill="#6472CF"/>
</g>
<path d="M1534.84 291.591L1534.69 293.048C1536.35 293.212 1537.97 293.702 1539.44 294.492C1540.91 295.282 1542.21 296.355 1543.27 297.65C1544.32 298.945 1545.11 300.436 1545.59 302.037C1546.07 303.638 1546.22 305.318 1546.05 306.979L1547.49 307.129C1547.86 303.396 1546.74 299.668 1544.37 296.762C1542 293.855 1538.57 292.007 1534.84 291.623V291.591Z" fill="#77A4F2"/>
<path d="M1534.49 295.213L1534.34 296.66C1536.73 296.9 1538.92 298.081 1540.44 299.942C1541.97 301.803 1542.69 304.191 1542.45 306.583L1543.89 306.733C1544.17 303.958 1543.34 301.186 1541.57 299.026C1539.81 296.866 1537.26 295.494 1534.49 295.213Z" fill="#77A4F2"/>
<path d="M1534.11 298.813L1533.96 300.271C1534.67 300.341 1535.36 300.55 1535.99 300.887C1536.62 301.224 1537.18 301.682 1537.63 302.234C1538.08 302.787 1538.42 303.423 1538.62 304.107C1538.83 304.791 1538.9 305.508 1538.82 306.218L1540.27 306.369C1540.36 305.468 1540.28 304.558 1540.02 303.69C1539.76 302.823 1539.33 302.016 1538.76 301.314C1538.18 300.612 1537.48 300.03 1536.68 299.601C1535.89 299.172 1535.01 298.905 1534.11 298.813Z" fill="#77A4F2"/>
<path d="M1531.85 303.711C1531.56 303.95 1531.32 304.25 1531.16 304.592C1531 304.933 1530.92 305.306 1530.92 305.683L1516.58 304.054H1516.33C1516 304.044 1515.68 304.107 1515.38 304.236C1515.08 304.366 1514.81 304.56 1514.59 304.804C1512.93 306.701 1511.88 309.049 1511.56 311.548C1511.25 314.047 1511.69 316.584 1512.82 318.832L1508.93 322.047L1506.93 319.604C1506.78 319.42 1506.6 319.267 1506.39 319.154C1506.18 319.041 1505.95 318.971 1505.71 318.947C1505.48 318.923 1505.24 318.946 1505.01 319.015C1504.79 319.083 1504.58 319.196 1504.39 319.347L1499.73 323.151L1497.01 319.818L1500.22 317.203C1500.61 316.889 1500.85 316.435 1500.9 315.94C1500.95 315.446 1500.81 314.952 1500.49 314.567L1487.01 298.075C1486.7 297.69 1486.25 297.446 1485.75 297.395C1485.26 297.345 1484.76 297.493 1484.38 297.807L1476.02 304.622C1475.64 304.94 1475.4 305.396 1475.35 305.891C1475.3 306.386 1475.44 306.881 1475.75 307.269L1489.24 323.762C1489.56 324.144 1490.01 324.386 1490.51 324.436C1491 324.487 1491.49 324.34 1491.88 324.03L1495.09 321.425L1497.82 324.758L1493.54 328.262C1493.17 328.568 1492.93 329.006 1492.88 329.483C1492.83 329.96 1492.97 330.437 1493.27 330.813L1493.57 331.167L1490.24 332.152C1489.98 332.225 1489.75 332.361 1489.56 332.549C1489.38 332.736 1489.24 332.969 1489.17 333.224C1489.09 333.474 1489.08 333.738 1489.13 333.995C1489.18 334.251 1489.29 334.491 1489.46 334.692L1496.65 343.48C1496.81 343.684 1497.02 343.844 1497.26 343.944C1497.5 344.043 1497.76 344.079 1498.02 344.048C1498.33 344.023 1498.63 343.903 1498.87 343.705C1499.03 343.569 1499.17 343.405 1499.27 343.222L1500.9 340.157L1501.05 340.34C1501.35 340.709 1501.79 340.944 1502.27 340.992C1502.74 341.04 1503.22 340.898 1503.59 340.597L1507.87 337.093L1510.64 340.468L1507.42 343.072C1507.04 343.39 1506.8 343.843 1506.75 344.336C1506.7 344.829 1506.85 345.321 1507.16 345.709L1520.64 362.201C1520.96 362.585 1521.41 362.829 1521.9 362.881C1522.4 362.934 1522.89 362.789 1523.28 362.48L1531.63 355.653C1532.01 355.339 1532.25 354.885 1532.3 354.391C1532.35 353.896 1532.21 353.402 1531.89 353.017L1518.42 336.514C1518.1 336.134 1517.64 335.893 1517.15 335.843C1516.66 335.793 1516.17 335.938 1515.78 336.246L1512.57 338.861L1509.81 335.485L1514.46 331.67C1514.83 331.368 1515.07 330.932 1515.12 330.456C1515.17 329.98 1515.03 329.503 1514.73 329.13L1512.59 326.526L1516.48 323.311C1518.45 324.871 1520.85 325.807 1523.36 325.997C1525.87 326.188 1528.38 325.626 1530.56 324.383C1530.67 324.328 1530.76 324.263 1530.85 324.19C1531.27 323.845 1531.55 323.369 1531.66 322.84C1531.66 322.754 1531.66 322.669 1531.66 322.583L1532.91 308.202C1533.33 308.29 1533.76 308.271 1534.17 308.147C1534.58 308.022 1534.95 307.796 1535.25 307.49C1535.55 307.184 1535.76 306.807 1535.87 306.395C1535.99 305.983 1535.99 305.549 1535.89 305.134C1535.79 304.718 1535.59 304.335 1535.3 304.02C1535.01 303.705 1534.65 303.468 1534.24 303.331C1533.84 303.195 1533.41 303.163 1532.99 303.238C1532.57 303.314 1532.17 303.495 1531.84 303.765L1531.85 303.711ZM1518.75 305.758L1530.53 307.108L1524.1 312.359L1518.75 305.758ZM1525.06 313.474L1531.49 308.234L1530.41 320.022L1525.06 313.474Z" fill="#697FD8"/>
<path opacity="0.6" d="M969.055 768.863C1162.16 768.863 1318.68 612.287 1318.68 419.147C1318.68 226.007 1162.16 69.4312 969.055 69.4312C775.953 69.4312 619.428 226.007 619.428 419.147C619.428 612.287 775.964 768.863 969.055 768.863Z" fill="url(#paint6_linear_2681_5238)"/>
<path opacity="0.6" d="M849.813 161.581C865.883 175.619 858.051 210.876 832.328 240.271C806.604 269.666 772.75 282.15 756.69 268.133C740.63 254.116 748.462 218.838 774.174 189.433C799.887 160.027 833.753 147.532 849.813 161.581Z" fill="url(#paint7_linear_2681_5238)"/>
<path opacity="0.6" d="M721.357 275.27C726.339 278.142 727.121 286.072 723.125 292.984C719.129 299.896 711.875 303.175 706.904 300.303C701.933 297.431 701.14 289.501 705.137 282.589C709.133 275.677 716.397 272.398 721.357 275.27Z" fill="url(#paint8_linear_2681_5238)"/>
<path opacity="0.6" d="M901.067 209.503C905.106 211.84 905.502 218.709 901.956 224.871C898.41 231.033 892.249 234.119 888.21 231.783C884.171 229.447 883.775 222.567 887.321 216.415C890.867 210.264 897.017 207.167 901.067 209.503Z" fill="url(#paint9_linear_2681_5238)"/>
<path opacity="0.6" d="M822.953 334.97C818.668 349.159 806.348 357.978 795.463 354.688C784.578 351.398 779.242 337.199 783.549 323.011C787.856 308.822 800.155 300.003 811.04 303.304C821.925 306.604 827.26 320.782 822.953 334.97Z" fill="url(#paint10_linear_2681_5238)"/>
<path opacity="0.6" d="M1318.24 436.936C1316.12 479.85 1306.06 521.998 1288.58 561.245C1266.8 588.883 1116.09 549.018 945.292 469.792C777.089 391.767 650.668 303.882 653.561 268.326C672.364 229.075 698.304 193.666 730.056 163.906C546.147 107.431 409.559 97.6043 386.15 148.046C362.741 198.488 458.306 296.263 619.952 400.136C700.808 452.11 798.227 505.596 905.588 555.405C1013.13 605.311 1117.04 645.208 1209.05 673.413C1392.5 729.631 1528.65 739.339 1552 688.984C1575.36 638.628 1479.86 540.809 1318.24 436.936Z" fill="url(#paint11_linear_2681_5238)"/>
<defs>
<linearGradient id="paint0_linear_2681_5238" x1="958.555" y1="1079" x2="958.555" y2="0" gradientUnits="userSpaceOnUse">
<stop stop-color="#EBF0FF"/>
<stop offset="0.67" stop-color="#97C9C6"/>
<stop offset="1" stop-color="#6598C9"/>
</linearGradient>
<linearGradient id="paint1_linear_2681_5238" x1="958.438" y1="604.432" x2="958.438" y2="309.273" gradientUnits="userSpaceOnUse">
<stop stop-color="#88D1C3" stop-opacity="0.5"/>
<stop offset="1" stop-color="#50508E" stop-opacity="0"/>
</linearGradient>
<linearGradient id="paint2_linear_2681_5238" x1="355.541" y1="609.072" x2="355.541" y2="406.265" gradientUnits="userSpaceOnUse">
<stop stop-color="white" stop-opacity="0.5"/>
<stop offset="1" stop-color="white" stop-opacity="0"/>
</linearGradient>
<linearGradient id="paint3_linear_2681_5238" x1="959.091" y1="609.072" x2="959.091" y2="406.266" gradientUnits="userSpaceOnUse">
<stop stop-color="white" stop-opacity="0.5"/>
<stop offset="1" stop-color="white" stop-opacity="0"/>
</linearGradient>
<linearGradient id="paint4_linear_2681_5238" x1="1350.24" y1="609.071" x2="1350.24" y2="406.265" gradientUnits="userSpaceOnUse">
<stop stop-color="white" stop-opacity="0.5"/>
<stop offset="1" stop-color="white" stop-opacity="0"/>
</linearGradient>
<linearGradient id="paint5_linear_2681_5238" x1="135.516" y1="206.299" x2="190.752" y2="278.857" gradientUnits="userSpaceOnUse">
<stop stop-color="white" stop-opacity="0.5"/>
<stop offset="1" stop-color="white" stop-opacity="0"/>
</linearGradient>
<linearGradient id="paint6_linear_2681_5238" x1="762.69" y1="127.138" x2="1050.71" y2="534.482" gradientUnits="userSpaceOnUse">
<stop stop-color="white" stop-opacity="0.3"/>
<stop offset="1" stop-color="white" stop-opacity="0"/>
</linearGradient>
<linearGradient id="paint7_linear_2681_5238" x1="772.76" y1="208.326" x2="846.75" y2="224.124" gradientUnits="userSpaceOnUse">
<stop stop-color="white" stop-opacity="0.3"/>
<stop offset="1" stop-color="white" stop-opacity="0"/>
</linearGradient>
<linearGradient id="paint8_linear_2681_5238" x1="706.508" y1="288.622" x2="725.182" y2="286.576" gradientUnits="userSpaceOnUse">
<stop stop-color="white" stop-opacity="0.3"/>
<stop offset="1" stop-color="white" stop-opacity="0"/>
</linearGradient>
<linearGradient id="paint9_linear_2681_5238" x1="887.557" y1="221.12" x2="903.252" y2="220.07" gradientUnits="userSpaceOnUse">
<stop stop-color="white" stop-opacity="0.3"/>
<stop offset="1" stop-color="white" stop-opacity="0"/>
</linearGradient>
<linearGradient id="paint10_linear_2681_5238" x1="783.485" y1="323" x2="822.902" y2="334.954" gradientUnits="userSpaceOnUse">
<stop stop-color="white" stop-opacity="0.3"/>
<stop offset="1" stop-color="white" stop-opacity="0"/>
</linearGradient>
<linearGradient id="paint11_linear_2681_5238" x1="659.978" y1="596.223" x2="966.801" y2="419.943" gradientUnits="userSpaceOnUse">
<stop stop-color="white" stop-opacity="0.3"/>
<stop offset="1" stop-color="white" stop-opacity="0"/>
</linearGradient>
</defs>
</svg>
