<svg width="1920" height="1080" viewBox="0 0 1920 1080" fill="none" xmlns="http://www.w3.org/2000/svg">
<path d="M454.473 620.07C454.473 620.07 493.142 600.23 499.192 599.82C505.242 599.41 512.212 602.37 512.212 602.37L553.001 594.84C553.001 594.84 590.251 588.66 591.341 588.12C592.431 587.58 618.87 581 618.87 581L632.93 588.12L651.36 594.84L730.808 614.73L759.488 604.64C759.488 604.64 825.957 637.99 830.747 638.88C835.527 639.78 886.156 619.2 886.156 619.2L897.396 620.29L976.965 597.54L1011.5 607.68L1107.53 582.69C1107.53 582.69 1150.61 599.57 1153.61 600.4C1156.61 601.24 1172.08 598.01 1172.5 597.47C1172.92 596.93 1207.98 611.52 1207.98 611.52L1296.52 629.52L1328.16 631.13L1420.57 652.17L1624.54 710.53L1919.99 766.5L1919.96 1079.76H0V783.75L196.437 683.79L250.566 682.82L342.124 649.64L454.483 620.07H454.473Z" fill="url(#paint0_linear_1_4)"/>
<defs>
<linearGradient id="paint0_linear_1_4" x1="960.005" y1="577.19" x2="960.005" y2="734.53" gradientUnits="userSpaceOnUse">
<stop stop-color="#86D4C9"/>
<stop offset="0.02" stop-color="#87D1CB"/>
<stop offset="0.19" stop-color="#94BDDF"/>
<stop offset="0.38" stop-color="#9DAFEE"/>
<stop offset="0.61" stop-color="#A3A7F6"/>
<stop offset="1" stop-color="#A5A5F9"/>
</linearGradient>
</defs>
</svg>
