<svg width="1920" height="1080" viewBox="0 0 1920 1080" fill="none" xmlns="http://www.w3.org/2000/svg">
<g clip-path="url(#clip0_1_4)">
<path d="M1920 798.45H1903.56C1903.4 797.96 1903.23 797.45 1903.06 797.01C1902.89 796.57 1902.83 796.36 1902.72 796.01C1902.45 795.27 1902.17 794.53 1901.88 793.81L1901.49 792.81C1901.31 792.36 1901.12 791.92 1900.94 791.48C1900.76 791.04 1900.65 790.83 1900.51 790.48C1900.22 789.83 1899.92 789.18 1899.62 788.54C1899.47 788.21 1899.31 787.88 1899.15 787.54C1898.99 787.2 1898.77 786.76 1898.57 786.38C1898.37 786 1898.06 785.38 1897.79 784.91C1897.52 784.44 1897.36 784.11 1897.13 783.72C1896.9 783.33 1896.75 783.05 1896.55 782.72L1895.99 781.78C1895.7 781.32 1895.41 780.9 1895.12 780.43C1894.95 780.17 1894.66 779.74 1894.49 779.47L1893.65 778.3C1893.43 777.98 1893.2 777.68 1892.97 777.37L1892.06 776.21L1891.52 775.56C1891.12 775.09 1890.73 774.64 1890.32 774.2C1890.16 774.02 1890 773.85 1889.83 773.68C1889.66 773.51 1889.21 773.04 1888.89 772.73C1888.74 772.57 1888.58 772.42 1888.42 772.27C1887.99 771.86 1887.55 771.46 1887.1 771.09L1886.66 770.71C1886.27 770.39 1885.87 770.08 1885.47 769.79L1885.16 769.55C1884.68 769.2 1884.16 768.88 1883.71 768.55L1883.28 768.29C1882.78 767.99 1882.28 767.7 1881.77 767.44L1881.56 767.34C1881.09 767.1 1880.62 766.89 1880.14 766.69L1879.76 766.53C1879.24 766.32 1878.76 766.13 1878.18 765.97L1877.86 765.87C1877.37 765.73 1876.86 765.61 1876.39 765.5C1876.3 765.5 1876.21 765.47 1876.12 765.44C1875.57 765.34 1875.02 765.25 1874.47 765.19H1874.09C1873.52 765.19 1872.95 765.1 1872.37 765.1C1871.79 765.1 1871.23 765.1 1870.66 765.19H1870.28C1869.73 765.25 1869.18 765.34 1868.63 765.44L1868.36 765.5C1867.87 765.61 1867.36 765.73 1866.89 765.87L1866.24 766.07C1865.82 766.2 1865.4 766.35 1864.99 766.53L1864.61 766.69C1864.13 766.89 1863.61 767.1 1863.19 767.34L1862.98 767.44C1862.47 767.7 1861.98 767.99 1861.47 768.29L1861.04 768.55C1860.55 768.86 1860.04 769.18 1859.59 769.55L1859.27 769.79C1858.88 770.08 1858.48 770.39 1858.09 770.71L1857.64 771.09C1857.2 771.46 1856.76 771.86 1856.33 772.27L1855.85 772.73C1855.52 773.04 1855.2 773.37 1854.89 773.7C1854.61 773.99 1854.58 774.03 1854.42 774.2C1854.02 774.64 1853.62 775.09 1853.23 775.56L1852.69 776.21L1851.78 777.37L1851.09 778.3L1850.32 779.39C1850.13 779.67 1849.94 779.94 1849.76 780.23C1849.42 780.73 1849.09 781.23 1848.76 781.78L1848.2 782.72C1848 783.05 1847.81 783.38 1847.62 783.72C1847.43 784.06 1847.17 784.5 1846.95 784.91C1846.73 785.32 1846.43 785.91 1846.17 786.38L1845.6 787.54C1845.44 787.86 1845.28 788.19 1845.13 788.54C1844.82 789.18 1844.53 789.83 1844.24 790.48C1844.09 790.81 1843.95 791.13 1843.81 791.48C1843.67 791.83 1843.44 792.36 1843.26 792.81C1843.08 793.26 1842.99 793.47 1842.86 793.81C1842.58 794.53 1842.3 795.27 1842.03 796.01C1841.91 796.33 1841.8 796.65 1841.68 797.01C1841.56 797.37 1841.35 797.96 1841.19 798.45H1791.81C1791.94 796.56 1792.04 794.64 1792.11 792.7V792.42C1792.17 790.51 1792.21 788.58 1792.21 786.62C1792.21 768.25 1789.37 751.62 1784.77 739.62C1780.17 727.62 1773.77 720.14 1766.77 720.14C1766.38 720.14 1765.98 720.18 1765.59 720.22H1765.25C1764.96 720.22 1764.67 720.32 1764.38 720.4L1764.05 720.48C1763.67 720.58 1763.29 720.71 1762.91 720.85L1762.81 720.9C1762.47 721.04 1762.13 721.2 1761.81 721.38L1761.46 721.57C1761.19 721.72 1760.92 721.88 1760.66 722.05L1760.33 722.27C1759.96 722.52 1759.61 722.78 1759.27 723.06L1759.05 723.24C1758.77 723.48 1758.49 723.72 1758.21 723.99L1757.84 724.35C1757.6 724.58 1757.37 724.82 1757.14 725.07C1756.91 725.32 1756.9 725.32 1756.79 725.45C1756.47 725.81 1756.15 726.18 1755.84 726.58C1755.73 726.71 1755.62 726.85 1755.52 726.99L1754.86 727.87C1754.79 727.97 1754.72 728.06 1754.65 728.16L1753.89 729.3L1753.5 729.91C1753.22 730.36 1752.94 730.82 1752.67 731.3L1752.27 732.03C1752.11 732.32 1751.95 732.61 1751.8 732.91C1751.65 733.21 1751.51 733.48 1751.36 733.77C1751.21 734.06 1751.08 734.33 1750.95 734.62C1750.82 734.91 1750.77 734.98 1750.69 735.16L1749.82 737.1L1749.37 738.2L1749.05 739C1748.9 739.38 1748.75 739.77 1748.61 740.16C1748.47 740.55 1748.42 740.68 1748.33 740.93C1747.82 742.35 1747.33 743.81 1746.87 745.34L1746.66 746.05C1746.51 746.53 1746.37 747.05 1746.24 747.51L1746.06 748.14C1745.61 749.81 1745.19 751.53 1744.8 753.3L1744.65 753.97C1744.53 754.53 1744.41 755.09 1744.3 755.66C1744.3 755.84 1744.23 756.03 1744.19 756.21C1743.94 757.49 1743.7 758.8 1743.48 760.13H1736.48C1732.73 760.13 1729.69 763.18 1729.68 766.93V798.45H1693.8V775.45C1693.8 774.6 1693.11 773.91 1692.26 773.91H1691.86C1688.27 773.91 1685.36 776.82 1685.36 780.41V798.45H1666.71V791.02C1666.71 786.89 1663.36 783.54 1659.23 783.54C1658.35 783.54 1657.54 783.9 1656.96 784.48C1656.38 785.06 1656.02 785.87 1656.02 786.75V798.45H1516.48L1498.35 798.49C1495 765.44 1492.49 729.34 1491.88 692.35C1491.8 687.73 1494.95 683.73 1499.42 682.55C1519.86 677.19 1536.13 661.56 1542.41 641.51C1543.54 637.92 1546.9 635.5 1550.67 635.5H1565.1C1569.38 635.5 1572.85 632.03 1572.85 627.75C1572.85 623.47 1569.38 620 1565.1 620H1402.41C1398.13 620 1394.66 623.47 1394.66 627.75C1394.66 632.03 1398.13 635.5 1402.41 635.5H1416.86C1420.63 635.5 1423.99 637.92 1425.12 641.51C1431.4 661.55 1447.67 677.18 1468.11 682.55C1472.58 683.73 1475.72 687.73 1475.65 692.35C1475.04 729.36 1472.53 765.49 1469.17 798.55H1441.23L1439.79 798.61H1438.94L1437.56 798.68L1436.74 798.73L1435.38 798.83L1434.62 798.89L1433.25 799.01L1432.58 799.07L1431.13 799.22L1430.6 799.28L1428.97 799.48H1428.69C1426.07 799.83 1423.69 800.26 1421.37 800.76L1419.73 801.14H1419.64C1419.12 801.26 1418.64 801.39 1418.12 801.53H1418.02L1416.55 801.95H1416.48C1415.98 802.09 1415.48 802.25 1415.01 802.4V756.76C1415.01 753.23 1412.15 750.37 1408.62 750.37H1397.03C1384.84 750.37 1374.96 760.25 1374.96 772.44V802.84L1357.61 817.45C1352.94 821.38 1350.24 827.18 1350.24 833.28V843.77H1268.83C1268.82 842.06 1268.09 840.42 1266.83 839.26L1215.23 791.26C1214.06 790.09 1212.16 790.09 1210.99 791.26C1210.4 791.85 1210.08 792.66 1210.11 793.49V827.49C1210.11 830.73 1208.56 833.78 1205.95 835.7L1194.95 843.77H992.39C942.55 843.77 924.78 831.54 909.09 820.77C896.82 812.33 885.22 804.35 861.89 804.35H841.95L836.45 804.32V803.71C836.45 794.1 844.23 786.31 853.85 786.31H873.68C876.99 786.31 879.96 783.91 880.29 780.61C880.67 776.83 877.68 773.61 873.98 773.61H836.45V773.51C836.45 763.91 844.23 756.12 853.85 756.12H873.68C876.99 756.12 879.96 753.72 880.29 750.42C880.67 746.64 877.68 743.42 873.98 743.42H866.97C866.97 743.17 867 742.93 867 742.68C867 722.42 850.58 706 830.33 706C810.08 706 793.66 722.42 793.66 742.68C793.66 742.93 793.68 743.17 793.68 743.42H786.98C783.66 743.42 780.69 745.83 780.37 749.12C779.98 752.9 782.98 756.12 786.68 756.12H806.81C816.41 756.12 824.2 763.9 824.2 773.51V773.61H786.98C783.66 773.61 780.69 776.02 780.37 779.31C779.98 783.09 782.98 786.31 786.68 786.31H806.81C816.41 786.31 824.2 794.09 824.2 803.71V804.29H731.66V765.45C731.66 761.97 728.85 759.15 725.37 759.14H725.35C721.19 759.14 717.42 760.83 714.69 763.55C711.97 766.28 710.28 770.05 710.28 774.21V804.33H523.37C523.56 803.39 523.66 802.43 523.66 801.47C523.66 799.99 523.06 798.64 522.08 797.67C521.11 796.69 519.77 796.09 518.28 796.09H464.49V778.53H509.66C517.39 778.53 523.66 772.26 523.66 764.53C523.66 763.05 523.06 761.7 522.08 760.73C521.11 759.75 519.77 759.15 518.28 759.15H464.49V741.59H509.66C517.39 741.59 523.66 735.32 523.66 727.59C523.66 726.11 523.06 724.76 522.08 723.79C521.11 722.81 519.77 722.21 518.28 722.21H464.49V704.65H509.66C517.39 704.65 523.66 698.38 523.66 690.65C523.65 687.68 521.25 685.28 518.28 685.27H464.49V677.44C464.49 671.33 469.44 666.38 475.54 666.38H513.95C519.3 666.38 523.64 662.03 523.64 656.68C523.64 651.33 519.3 646.99 513.95 646.99H380.91C375.56 646.99 371.22 651.33 371.22 656.68C371.22 662.03 375.56 666.37 380.91 666.37H418.84C425.63 668.14 429.54 673.25 431.24 679.65C431.33 680 431.41 680.36 431.49 680.71C431.51 680.78 431.53 680.86 431.54 680.93C431.61 681.26 431.68 681.59 431.74 681.93C431.74 682.03 431.74 682.13 431.79 682.23C431.85 682.55 431.89 682.88 431.94 683.23V683.59C431.94 683.9 432.02 684.22 432.05 684.54V684.92C432.05 685.24 432.11 685.56 432.12 685.92V686.27C432.17 687.27 432.17 688.36 432.12 689.42V689.97C432.12 690.15 432.12 690.47 432.07 690.72C432.02 690.97 432.07 691.17 432.02 691.39L431.96 692.1C431.96 692.34 431.91 692.58 431.88 692.82L431.79 693.49C431.79 693.74 431.72 694 431.68 694.25C431.64 694.5 431.62 694.68 431.58 694.89C431.54 695.1 431.49 695.41 431.44 695.67L431.32 696.28C431.27 696.56 431.21 696.84 431.15 697.11C431.09 697.38 431.06 697.48 431.02 697.67C430.98 697.86 430.87 698.28 430.79 698.58C430.71 698.88 430.72 698.89 430.68 699.04C430.55 699.49 430.43 699.94 430.29 700.39C430.15 700.84 430.05 701.16 429.93 701.58L429.45 703.12V703.25L428.97 704.81C428.97 704.88 428.34 706.86 428.31 706.97C428.15 707.47 427.41 709.89 427.23 710.47C427.14 710.75 401.79 793.06 398.27 804.42L184.24 804.3V759.3C184.24 756.6 182.05 754.41 179.35 754.41H176.76C169.09 754.41 162.24 759.21 159.61 766.41L148.8 796.03H122.61C115.82 796.03 109.62 799.89 106.61 805.97L102.44 814.38C99.67 820.05 93.92 823.64 87.61 823.65H49.63V785.93C49.63 776.94 42.34 769.65 33.35 769.65H0V1080.01H1920V857.77H1908.65C1908.83 856.42 1908.97 855.05 1909.11 853.68L1909.2 852.68C1909.3 851.63 1909.38 850.58 1909.45 849.51L1909.54 848.21C1909.6 847.21 1909.64 846.14 1909.68 845.1V843.85C1909.68 842.41 1909.75 840.97 1909.75 839.51V834.44C1909.75 833.44 1909.68 832.5 1909.63 831.54C1909.63 831.16 1909.63 830.8 1909.56 830.43C1909.5 829.43 1909.44 828.53 1909.37 827.59L1909.28 826.59C1909.19 825.59 1909.1 824.59 1908.99 823.66L1908.9 822.85C1908.78 821.85 1908.65 820.79 1908.51 819.78L1908.42 819.18C1908.27 818.09 1908.1 817.01 1907.92 815.94C1907.92 815.81 1907.92 815.69 1907.85 815.56C1907.66 814.41 1907.45 813.28 1907.23 812.17V811.99C1906.99 810.81 1906.74 809.63 1906.47 808.48H1920V798.45ZM247.57 853.65C247.59 858.19 243.92 861.89 239.38 861.9H192.43C187.89 861.91 184.21 858.23 184.2 853.69V814.33H247.57V853.65ZM392.96 821.27C392.86 821.61 392.75 821.96 392.64 822.27C392.25 823.55 391.85 824.83 391.45 826.11C391.18 827 390.91 827.88 390.63 828.76L389.82 831.39C388.73 834.9 387.66 838.37 386.59 841.81C386.59 841.92 386.52 842.04 386.48 842.15L381.99 856.65C381.86 857.09 381.72 857.54 381.58 857.98L376.44 874.57L369.49 867.23C366.26 863.82 361.77 861.89 357.07 861.89H310.8V829.65C310.8 825.61 307.53 822.34 303.49 822.34H284.18V814.34H395.11C394.4 816.65 393.68 818.96 392.96 821.27ZM710.24 820.89H695.94C690.27 820.89 685.36 824.82 684.12 830.35L668.67 898.81C666.58 908.17 658.26 914.83 648.67 914.81H464.45V889.35H509.62C517.35 889.35 523.62 883.08 523.62 875.35C523.62 873.87 523.02 872.52 522.04 871.55C521.07 870.57 519.73 869.97 518.24 869.97H464.45V852.41H509.62C517.35 852.41 523.62 846.14 523.62 838.41C523.62 836.93 523.02 835.58 522.04 834.61C521.07 833.63 519.73 833.03 518.24 833.03H464.45V815.47H509.62C511.52 815.47 513.41 815.09 515.16 814.33H710.24V820.89ZM807.35 902.53C805.12 899.27 803.93 895.41 803.93 891.45V874.03C803.93 869.97 800.64 866.68 796.58 866.68H795.8C794.55 866.68 793.54 867.68 793.53 868.93V897.52H766.3V879.76C766.3 874.67 763.52 869.99 759.07 867.53L731.62 852.41V814.33H824.16V916.46H816.87L807.35 902.53ZM947.42 862.78L923.86 870.3C916.46 872.66 911.43 879.53 911.42 887.3V916.43H895.42V885.84C895.42 880.87 891.39 876.84 886.42 876.84H882.8V861.17C882.81 855.21 877.98 850.38 872.02 850.37H865.57C863.28 850.37 861.43 852.23 861.43 854.51V916.46H836.41V814.34H861.97C882.19 814.33 891.6 820.8 903.51 828.99L905.26 830.2L905.7 830.5L907.2 831.5L907.65 831.8C908.98 832.68 910.34 833.57 911.71 834.46H911.78C912.45 834.88 913.14 835.31 913.84 835.73L914.09 835.89C916.33 837.25 918.72 838.6 921.28 839.89H921.35C922.21 840.33 923.09 840.76 924 841.19C926.75 842.5 929.72 843.76 933 844.94C936.22 846.12 939.7 847.22 943.49 848.22H943.62C944.87 848.55 946.16 848.87 947.48 849.22L947.42 862.78ZM1118.99 878.21C1111.14 878.21 1103.74 881.86 1098.99 888.11L1072.81 922.65H988.99V893.96C988.99 892.84 988.55 891.76 987.76 890.96C987.02 890.23 986.03 889.8 984.99 889.75C982.57 889.72 980.59 891.66 980.56 894.08V922.65H959.99V851.65C961.13 851.82 962.28 851.97 963.47 852.11H963.57C964.72 852.25 965.88 852.38 967.07 852.5H967.39C968.51 852.62 969.66 852.73 970.82 852.83L971.45 852.88L974.74 853.13L975.74 853.19L978.81 853.37L980.4 853.43L983.1 853.54C983.88 853.54 984.68 853.54 985.48 853.6L987.6 853.65H1188.83L1188.92 878.21H1118.99ZM1350.15 904.65H1268.74V853.77H1350.15V904.65ZM1438.79 857.02C1436.33 857.02 1434.07 858.37 1432.9 860.53C1432.8 860.72 1432.7 860.91 1432.62 861.11C1432.27 861.93 1432.09 862.82 1432.09 863.71V909.15H1414.81V813.06L1416.06 812.57L1416.32 812.48C1417.56 812.03 1418.9 811.61 1420.32 811.23L1420.95 811.06L1422.21 810.75L1423.04 810.57C1423.71 810.42 1424.39 810.28 1425.1 810.15L1426.24 809.94L1427.39 809.75L1428.89 809.53L1429.95 809.39C1430.7 809.29 1431.46 809.21 1432.25 809.12L1433.25 809.03L1435.25 808.86L1436.14 808.79L1439.06 808.62H1439.79L1442.35 808.54C1442.35 808.54 1453.98 808.54 1468.09 808.53C1463.77 848.42 1458.33 883.33 1453.78 909.18H1445.46V863.71C1445.47 860.02 1442.48 857.03 1438.79 857.02ZM1655.99 816.99C1654.07 817.86 1652.22 818.86 1650.44 819.99C1648.69 821.11 1647.02 822.34 1645.44 823.69L1645.28 823.82C1644.18 824.77 1643.13 825.77 1642.13 826.82L1641.87 827.1C1641.57 827.42 1641.28 827.74 1640.99 828.1L1640.69 828.45C1640.12 829.1 1639.56 829.78 1639.03 830.45L1638.89 830.63C1638.66 830.93 1638.44 831.24 1638.21 831.55L1637.78 832.15L1637.17 833.05C1637.01 833.29 1636.86 833.54 1636.7 833.79C1636.42 834.23 1636.14 834.68 1635.88 835.14C1635.7 835.44 1635.52 835.75 1635.35 836.06L1635 836.71L1634.51 837.71C1634.36 838.02 1634.2 838.31 1634.06 838.62C1633.81 839.15 1633.56 839.69 1633.33 840.23L1633.1 840.8C1632.93 841.21 1632.76 841.63 1632.61 842.05C1632.52 842.29 1632.43 842.52 1632.35 842.76C1632.2 843.18 1632.06 843.6 1631.92 844.03C1631.86 844.23 1631.79 844.42 1631.73 844.62C1631.54 845.22 1631.37 845.83 1631.21 846.45C1631.21 846.62 1631.12 846.8 1631.08 846.97C1630.96 847.45 1630.85 847.93 1630.75 848.41C1630.75 848.63 1630.66 848.84 1630.62 849.05C1630.51 849.59 1630.41 850.13 1630.33 850.67C1630.33 850.79 1630.33 850.91 1630.27 851.03C1630.17 851.69 1630.08 852.35 1630.01 853.03V853.58C1630.01 854.09 1629.92 854.58 1629.89 855.13V857.79H1615.21C1608.52 857.8 1602.29 861.19 1598.64 866.79L1569.06 912.02H1514.2C1509.55 885.91 1503.87 849.9 1499.38 808.51C1509.83 808.51 1517.51 808.5 1517.51 808.49H1655.98V816.99H1655.99ZM1685.33 814.28C1684.53 814.08 1683.71 813.9 1682.88 813.75L1682.45 813.67C1681.77 813.55 1681.09 813.44 1680.45 813.35L1679.81 813.27C1679.14 813.21 1678.48 813.15 1677.81 813.09L1677.14 813.04C1676.29 813.04 1675.43 812.96 1674.56 812.96C1673.85 812.96 1673.15 812.96 1672.45 813.01C1672.01 813.01 1671.58 813.07 1671.14 813.1L1670.46 813.16C1669.88 813.21 1669.32 813.28 1668.75 813.35H1668.55C1667.93 813.44 1667.3 813.53 1666.69 813.64V808.45H1685.34V814.28H1685.33ZM1729.68 857.77H1719.35C1719.35 857.08 1719.35 856.39 1719.3 855.71V855.13C1719.3 854.59 1719.26 854.06 1719.18 853.54V853.04C1719.11 852.37 1719.03 851.71 1718.93 851.04C1718.93 850.9 1718.88 850.76 1718.86 850.63C1718.78 850.09 1718.68 849.57 1718.58 849.04L1718.46 848.45C1718.34 847.9 1718.22 847.35 1718.08 846.8C1718.08 846.7 1718.08 846.6 1718.01 846.51C1717.84 845.88 1717.67 845.26 1717.48 844.64L1717.3 844.09C1717.15 843.62 1717 843.17 1716.84 842.71C1716.77 842.53 1716.7 842.34 1716.64 842.16C1716.42 841.56 1716.19 840.97 1715.94 840.39C1715.89 840.27 1715.83 840.15 1715.78 840.02L1715.15 838.63L1714.85 838.02C1714.65 837.6 1714.44 837.19 1714.22 836.78C1714.13 836.61 1714.05 836.45 1713.95 836.28C1713.66 835.75 1713.36 835.22 1713.05 834.7C1712.93 834.51 1712.81 834.32 1712.7 834.13C1712.47 833.78 1712.25 833.42 1712.01 833.07L1711.6 832.46C1711.33 832.05 1711.04 831.66 1710.76 831.27L1710.27 830.61L1709.41 829.52L1708.89 828.9C1708.65 828.61 1708.4 828.33 1708.15 828.05C1707.9 827.77 1707.8 827.65 1707.62 827.46C1707.24 827.04 1706.85 826.63 1706.45 826.22L1705.87 825.66L1705.1 824.92C1704.88 824.72 1704.66 824.51 1704.43 824.32C1704.2 824.13 1703.9 823.85 1703.63 823.62C1703.36 823.39 1703 823.09 1702.69 822.84L1701.69 822.06L1700.94 821.51L1700.16 820.96L1699.38 820.42L1698.38 819.78L1697.21 819.07L1696.37 818.59L1695.51 818.13L1694.67 817.7L1693.82 817.28V808.45H1729.74L1729.68 857.77ZM1837.63 811.96H1837.61C1837.6 812.02 1837.6 812.08 1837.61 812.14C1837.39 813.25 1837.18 814.38 1836.98 815.53L1836.92 815.91C1836.74 816.98 1836.57 818.06 1836.42 819.15L1836.33 819.75C1836.19 820.75 1836.06 821.75 1835.94 822.82L1835.85 823.63C1835.74 824.63 1835.65 825.57 1835.56 826.56L1835.47 827.56C1835.4 828.5 1835.33 829.45 1835.28 830.4C1835.28 830.72 1835.28 831.02 1835.22 831.34C1835.22 832.23 1835.11 833.68 1835.08 834.56V839.48C1835.08 840.82 1835.08 842.38 1835.15 843.82V845.07C1835.15 846.07 1835.24 847.15 1835.3 848.18L1835.39 849.48C1835.46 850.55 1835.54 851.6 1835.64 852.65L1835.73 853.65C1835.86 855.02 1836.01 856.39 1836.18 857.74H1819.78V818.11C1819.78 814.85 1817.8 811.92 1814.78 810.7L1809.17 808.45H1838.39C1838.12 809.65 1837.86 810.78 1837.63 811.96Z" fill="url(#paint0_linear_1_4)"/>
</g>
<defs>
<linearGradient id="paint0_linear_1_4" x1="960" y1="631.39" x2="960" y2="968.18" gradientUnits="userSpaceOnUse">
<stop stop-color="#38237C"/>
<stop offset="1" stop-color="#503EAA"/>
</linearGradient>
<clipPath id="clip0_1_4">
<rect width="1920" height="1080" fill="white"/>
</clipPath>
</defs>
</svg>
 