<svg width="1920" height="638" viewBox="0 0 1920 638" fill="none" xmlns="http://www.w3.org/2000/svg">
<path d="M455.134 40.5188C455.134 40.5188 493.775 20.4331 499.82 20.018C505.866 19.6029 512.83 22.5996 512.83 22.5996L553.589 14.9763C553.589 14.9763 590.811 8.71973 591.9 8.17304C592.989 7.62635 619.409 0.964844 619.409 0.964844L633.459 8.17304L651.875 14.9763L731.264 35.1127L759.922 24.8977C759.922 24.8977 826.342 58.6608 831.128 59.5618C835.915 60.4629 886.496 39.6381 886.496 39.6381L897.727 40.7416L977.237 17.7098L1011.75 27.9753L1107.73 2.66565C1107.73 2.66565 1150.77 19.7548 1153.77 20.5951C1156.77 21.4455 1172.23 18.1755 1172.65 17.6288C1173.07 17.0821 1208.1 31.8528 1208.1 31.8528L1296.57 50.0758L1328.19 51.7057L1420.53 73.0064L1624.35 132.089L1919.58 188.753L1919.54 505.903H1V206.237L197.291 105.038L251.379 104.056L342.87 70.4653L455.134 40.5188Z" fill="url(#paint0_linear_2665_24508)"/>
<path d="M162.038 74.8729V68.2215C162.038 67.2091 161.228 66.379 160.218 66.379H146.97C145.97 66.379 145.15 67.199 145.15 68.2215V75.2778L137.511 74.1035C137.511 74.1035 137.511 67.0876 137.511 63.524C137.511 62.4003 136.611 61.4993 135.502 61.4993H128.273C127.913 59.596 127.403 57.8243 126.763 56.2348C126.733 56.164 126.703 56.0931 126.673 56.0223C126.523 55.6679 126.373 55.3237 126.223 54.9896C126.193 54.9289 126.163 54.8783 126.143 54.8175C125.673 53.8456 125.153 52.9648 124.593 52.1853C124.493 52.0537 124.403 51.912 124.303 51.7804C124.163 51.5981 124.023 51.426 123.873 51.2539C123.743 51.102 123.613 50.9603 123.483 50.8186C123.343 50.6768 123.213 50.5351 123.073 50.3934C122.893 50.2213 122.713 50.0593 122.523 49.9074C122.423 49.8264 122.323 49.7353 122.223 49.6543C121.943 49.4417 121.653 49.2494 121.354 49.0672C121.244 49.0064 121.144 48.9558 121.034 48.895C120.824 48.7837 120.614 48.6824 120.394 48.5913C120.274 48.5407 120.164 48.5002 120.044 48.4597C119.824 48.3787 119.594 48.318 119.364 48.2673C119.254 48.2471 119.154 48.2167 119.044 48.1965C118.714 48.1357 118.374 48.1054 118.034 48.1054H118.024C117.664 48.1054 117.314 48.1357 116.964 48.2066C116.844 48.2269 116.724 48.2674 116.604 48.2977C116.374 48.3484 116.154 48.4091 115.924 48.4901C115.784 48.5407 115.644 48.6116 115.504 48.6723C115.314 48.7533 115.114 48.8445 114.924 48.9457C114.774 49.0267 114.624 49.1279 114.474 49.219C114.304 49.3304 114.135 49.4316 113.965 49.5632C113.805 49.6746 113.655 49.8062 113.505 49.9378C113.355 50.0694 113.205 50.1909 113.055 50.3327C112.895 50.4845 112.745 50.6465 112.585 50.8084C112.455 50.9502 112.325 51.0919 112.195 51.2438C112.035 51.426 111.875 51.6285 111.725 51.8208C111.615 51.9626 111.505 52.1144 111.395 52.2663C111.235 52.4991 111.075 52.7219 110.925 52.975C110.835 53.1167 110.755 53.2584 110.665 53.4002C110.505 53.6735 110.345 53.957 110.185 54.2506C110.125 54.3721 110.065 54.4935 110.005 54.615C109.835 54.9491 109.675 55.2934 109.515 55.6477C109.485 55.7084 109.465 55.7793 109.435 55.8502C108.275 58.5836 107.505 61.884 107.255 65.4982L103.256 64.2024V57.6522C103.256 56.1235 102.026 54.8783 100.516 54.8783H97.5468V51.8208C97.5468 50.687 96.6369 49.7759 95.527 49.7759H79.4092V46.6172C79.4092 45.6858 78.6693 44.9366 77.7494 44.9366H75.8597C74.9898 44.9366 74.2799 45.6554 74.2799 46.5362V54.9187L69.7505 53.5925V40.9984C69.7505 40.1176 69.0406 39.3989 68.1707 39.3989H58.982C58.1121 39.3989 57.4022 40.1176 57.4022 40.9984V44.8151H52.3029V34.2559C52.3029 33.3752 51.593 32.6564 50.7231 32.6564H34.2053C33.3355 32.6564 32.6256 33.3752 32.6256 34.2559V42.7499L25.7865 40.7555V28.4246C25.7865 27.5438 25.0766 26.825 24.2067 26.825H18.6174V19.9712C18.6174 19.0904 17.9075 18.3716 17.0377 18.3716H0V572.897H1920V30.1659L1910.06 32.6361V28.9409C1910.06 26.7845 1908.33 25.0432 1906.21 25.0432H1903.23C1901.1 25.0432 1899.38 26.7946 1899.38 28.9409V35.3088L1895.16 36.3617V21.9251C1895.16 19.7687 1893.43 18.0273 1891.31 18.0273H1883.27C1881.15 18.0273 1879.43 19.7788 1879.43 21.9251V40.2999L1871.84 42.193V34.4888C1871.84 32.3324 1870.11 30.5911 1867.99 30.5911H1852.07C1849.94 30.5911 1848.22 32.3425 1848.22 34.4888V40.6947H1840.03C1838.65 40.6947 1837.53 41.8286 1837.53 43.2257H1834.27V40.3201C1834.27 38.1637 1832.54 36.4225 1830.42 36.4225H1820.3C1818.17 36.4225 1816.45 38.1739 1816.45 40.3201V56.1133L1805.77 59.0594V51.9626C1805.77 49.5734 1803.86 47.6397 1801.5 47.6397H1796.82C1794.46 47.6397 1792.55 49.5734 1792.55 51.9626V62.6939L1783.27 65.2451V63.5038C1783.27 61.1146 1781.36 59.1809 1779 59.1809H1767.33V54.0076C1767.33 51.6184 1765.42 49.6847 1763.06 49.6847H1761.48C1759.12 49.6847 1757.21 51.6184 1757.21 54.0076V72.4128L1754.2 73.243L1754.02 73.2936V73.2835C1753.92 72.8583 1753.8 72.4432 1753.67 72.0281C1753.6 71.8358 1753.52 71.6434 1753.45 71.451C1753.36 71.2182 1753.27 70.9853 1753.17 70.7525C1753.08 70.55 1752.98 70.3678 1752.88 70.1653C1752.77 69.9527 1752.66 69.7401 1752.55 69.5275C1752.44 69.3351 1752.33 69.1529 1752.21 68.9707C1752.08 68.7682 1751.95 68.5658 1751.81 68.3734C1751.69 68.1912 1751.56 68.0191 1751.42 67.8469C1751.27 67.6546 1751.11 67.4622 1750.95 67.28C1750.81 67.118 1750.68 66.956 1750.53 66.8042C1750.35 66.6118 1750.16 66.4296 1749.97 66.2372C1749.83 66.1056 1749.69 65.9639 1749.55 65.8323C1749.3 65.5995 1749.03 65.3868 1748.76 65.1742C1748.67 65.1034 1748.58 65.0224 1748.48 64.9414C1748.11 64.6681 1747.73 64.4048 1747.34 64.1618C1747.2 64.0707 1747.05 63.9999 1746.9 63.9087C1746.63 63.7569 1746.37 63.605 1746.09 63.4633C1745.92 63.3722 1745.74 63.3013 1745.57 63.2102C1745.31 63.0887 1745.04 62.9672 1744.77 62.8559C1744.58 62.785 1744.39 62.7141 1744.2 62.6433C1743.93 62.542 1743.65 62.4509 1743.37 62.3699C1743.18 62.3092 1742.98 62.2484 1742.79 62.1978C1742.5 62.1168 1742.2 62.0561 1741.9 61.9852C1741.71 61.9447 1741.52 61.9042 1741.33 61.8637C1741 61.803 1740.66 61.7625 1740.32 61.722C1740.15 61.7018 1739.99 61.6714 1739.82 61.6613C1739.31 61.6208 1738.8 61.5904 1738.28 61.5904H1738.27C1729.39 61.5904 1722.19 68.1709 1722.19 76.2902C1722.19 76.7762 1722.22 77.2622 1722.27 77.738C1722.31 78.1126 1722.38 78.477 1722.45 78.8415C1722.47 78.9326 1722.48 79.0237 1722.49 79.1047C1722.68 80.0057 1722.97 80.8764 1723.33 81.7167L1712.16 84.7842V77.2115C1712.16 74.2452 1709.79 71.8459 1706.86 71.8459H1694.67C1691.74 71.8459 1689.37 74.2452 1689.37 77.2115V90.9395H1683.14V92.7618L1680.05 93.6122V78.9528C1680.05 75.9865 1677.68 73.5872 1674.75 73.5872H1669.31C1666.38 73.5872 1664.01 75.9865 1664.01 78.9528V87.2747H1661.64C1659.62 87.2747 1657.98 88.935 1657.98 90.9901V97.0138C1656.94 97.0138 1655.96 96.9733 1655.1 96.9025C1655.06 96.9025 1655.02 96.8923 1654.98 96.8923C1654.74 96.8721 1654.51 96.8417 1654.29 96.8113C1654.25 96.8012 1654.21 96.8012 1654.18 96.8012C1653.93 96.7607 1653.69 96.7202 1653.47 96.6797C1653.26 96.6392 1653.08 96.5886 1652.9 96.5279C1652.85 96.5076 1652.8 96.4975 1652.76 96.4772C1652.63 96.4367 1652.52 96.3862 1652.41 96.3355C1652.37 96.3153 1652.32 96.295 1652.29 96.2748C1652.16 96.2039 1652.04 96.133 1651.95 96.052H1651.94C1651.9 96.0217 1651.84 95.9812 1651.75 95.9306C1651.72 95.9103 1651.67 95.8901 1651.63 95.8698C1651.56 95.8293 1651.49 95.799 1651.4 95.7585C1651.34 95.7281 1651.27 95.6977 1651.2 95.6673C1651.11 95.6268 1651.01 95.5863 1650.91 95.5357C1650.82 95.4952 1650.72 95.4547 1650.62 95.4041C1650.51 95.3535 1650.4 95.313 1650.28 95.2624C1650.16 95.2118 1650.03 95.1611 1649.89 95.1004C1649.77 95.0498 1649.65 94.9992 1649.52 94.9486C1649.36 94.8777 1649.2 94.8169 1649.03 94.7461C1648.93 94.7056 1648.81 94.655 1648.71 94.6145C1648.21 94.412 1647.66 94.1892 1647.05 93.9564C1647.15 93.2781 1647.24 92.5897 1647.29 91.881C1647.34 91.1825 1647.37 90.4637 1647.37 89.7449C1647.37 78.0721 1640.17 68.6164 1631.28 68.6164C1630.78 68.6164 1630.28 68.6568 1629.78 68.7176C1629.63 68.7378 1629.48 68.7682 1629.32 68.7885C1628.98 68.8391 1628.64 68.91 1628.3 68.9909C1628.13 69.0314 1627.96 69.0719 1627.8 69.1226C1627.47 69.2137 1627.14 69.3351 1626.82 69.4566C1626.68 69.5072 1626.53 69.5579 1626.39 69.6186C1625.96 69.8008 1625.53 70.0033 1625.12 70.226C1624.95 70.3171 1624.78 70.4286 1624.61 70.5298C1624.36 70.6817 1624.12 70.8335 1623.87 70.9955C1623.66 71.1372 1623.46 71.2891 1623.25 71.451C1623.07 71.5928 1622.88 71.7345 1622.7 71.8864C1622.48 72.0686 1622.26 72.2508 1622.04 72.4533C1621.92 72.5647 1621.8 72.6862 1621.69 72.7975C1620.85 73.6176 1620.08 74.5388 1619.37 75.5512C1619.32 75.6119 1619.28 75.6828 1619.23 75.7436C1618.98 76.108 1618.75 76.4826 1618.52 76.8673C1618.51 76.8875 1618.5 76.9078 1618.48 76.928C1617.51 78.5985 1616.73 80.4512 1616.17 82.4557C1615.29 82.1317 1614.4 81.8077 1613.51 81.4838C1613.31 81.4129 1613.11 81.3421 1612.91 81.2611C1611.96 80.9169 1611 80.5625 1610.03 80.2183V51.6892C1610.03 49.7454 1608.47 48.1661 1606.55 48.1661H1602.27C1600.35 48.1661 1598.79 49.7454 1598.79 51.6892V62.0865H1593.46C1591.04 62.0865 1589.08 64.0707 1589.08 66.5207V72.6456L1583.89 70.7728V37.1514C1583.89 34.4787 1581.75 32.302 1579.1 32.302H1574.61C1571.97 32.302 1569.82 34.4685 1569.82 37.1514V52.5194H1557.73V44.1064C1557.73 41.3021 1555.49 39.0344 1552.72 39.0344H1544.74C1541.97 39.0344 1539.73 41.3021 1539.73 44.1064V54.9593L1530.17 51.5576V45.2505C1530.17 43.6813 1528.91 42.4056 1527.36 42.4056C1525.81 42.4056 1524.55 43.6813 1524.55 45.2505V49.5531L1519.49 48.7128V35.3189C1519.49 32.4033 1517.15 30.0343 1514.27 30.0343H1508.4C1505.52 30.0343 1503.18 32.4033 1503.18 35.3189V39.8645C1494.79 39.8645 1487.99 46.7488 1487.99 55.2427V58.6849H1482.37V56.9638C1482.37 54.5037 1480.4 52.5093 1477.97 52.5093H1472.99C1470.56 52.5093 1468.59 54.5037 1468.59 56.9638V74.0732L1460.43 78.1328V63.2608C1460.43 60.74 1458.41 58.6849 1455.91 58.6849H1453.97C1451.48 58.6849 1449.45 60.7298 1449.45 63.2608V81.1497H1434.67V75.3285C1434.67 72.8077 1432.65 70.7525 1430.15 70.7525H1424.82C1422.33 70.7525 1420.3 72.7975 1420.3 75.3285V93.2984L1405.11 83.2454V82.233C1405.11 78.9934 1402.52 76.3712 1399.32 76.3712H1389.83V71.5422C1389.83 69.2441 1387.99 67.3914 1385.73 67.3914H1379.11C1378.03 66.1664 1376.85 65.1236 1375.59 64.2935C1375.56 64.2732 1375.53 64.253 1375.51 64.2428C1375.1 63.9796 1374.69 63.7366 1374.27 63.524C1374.25 63.5139 1374.22 63.5038 1374.19 63.4836C1373.76 63.271 1373.33 63.0685 1372.89 62.9065C1372.89 62.9065 1372.89 62.9065 1372.88 62.9065C1372.46 62.7445 1372.03 62.6129 1371.6 62.5015C1371.53 62.4813 1371.46 62.461 1371.39 62.4509C1370.97 62.3497 1370.55 62.2687 1370.13 62.2181C1370.06 62.208 1369.98 62.1978 1369.91 62.1978C1369.47 62.1472 1369.02 62.1168 1368.57 62.1168C1368.11 62.1168 1367.66 62.1472 1367.21 62.1978C1367.14 62.2079 1367.06 62.208 1366.99 62.2181C1366.56 62.2788 1366.14 62.3598 1365.72 62.461C1365.64 62.4813 1365.56 62.5015 1365.48 62.5218C1365.07 62.6331 1364.65 62.7648 1364.24 62.9166C1364.2 62.9369 1364.15 62.9571 1364.11 62.9672C1363.7 63.1292 1363.3 63.3114 1362.9 63.5139C1362.87 63.5341 1362.83 63.5443 1362.79 63.5646C1362.38 63.7772 1361.99 64.01 1361.6 64.2631C1361.54 64.3036 1361.48 64.3441 1361.42 64.3846C1361.03 64.6478 1360.66 64.9212 1360.29 65.2148C1360.25 65.2451 1360.2 65.2856 1360.16 65.3261C1359.38 65.9639 1358.64 66.6928 1357.95 67.4926C1357.93 67.523 1357.91 67.5432 1357.88 67.5634C1357.53 67.9684 1357.2 68.3835 1356.88 68.8289C1356.86 68.8593 1356.83 68.8897 1356.81 68.9302C1355.81 70.3071 1354.92 71.8661 1354.18 73.567C1354.18 73.5771 1354.17 73.5872 1354.17 73.5872C1353.16 75.8853 1351.97 81.1599 1351.97 81.1599H1344.01V92.9643L1333.88 95.6673C1333.52 95.232 1333.15 94.8271 1332.77 94.4322C1332.74 94.4019 1332.72 94.3715 1332.69 94.3512C1332.32 93.9767 1331.94 93.6223 1331.54 93.2882C1331.51 93.2579 1331.48 93.2376 1331.44 93.2072C1331.04 92.8731 1330.63 92.5593 1330.21 92.2759C1330.2 92.2657 1330.19 92.2657 1330.18 92.2556C1329.75 91.962 1329.31 91.6887 1328.86 91.4558C1328.85 91.4558 1328.85 91.4457 1328.84 91.4457C1328.41 91.2128 1327.98 91.0205 1327.53 90.8383C1327.47 90.818 1327.42 90.7877 1327.36 90.7674C1326.94 90.6054 1326.51 90.4636 1326.07 90.3422C1326 90.3219 1325.92 90.3017 1325.85 90.2814C1325.41 90.1701 1324.97 90.079 1324.52 90.0182C1324.46 90.0081 1324.4 90.0081 1324.33 89.998C1323.86 89.9372 1323.39 89.9068 1322.91 89.9068C1322.91 89.9068 1322.91 89.9068 1322.9 89.9068C1322.56 89.9068 1322.22 89.9271 1321.88 89.9575C1321.78 89.9676 1321.67 89.9777 1321.57 89.9878C1321.33 90.0182 1321.09 90.0486 1320.85 90.0891C1320.74 90.1093 1320.63 90.1296 1320.53 90.1498C1320.27 90.2004 1320.01 90.2612 1319.75 90.3321C1319.68 90.3523 1319.61 90.3624 1319.54 90.3827C1319.21 90.4738 1318.89 90.5852 1318.56 90.7067C1318.5 90.7269 1318.45 90.7573 1318.39 90.7775C1318.12 90.8788 1317.86 91.0002 1317.6 91.1217C1317.52 91.1622 1317.43 91.2027 1317.35 91.2432C1317.1 91.3647 1316.86 91.4963 1316.62 91.638C1316.55 91.6785 1316.49 91.7089 1316.42 91.7494C1315.8 92.124 1315.19 92.5391 1314.61 93.0149C1314.57 93.0452 1314.53 93.0858 1314.49 93.1161C1314.23 93.3288 1313.98 93.5514 1313.73 93.7742C1313.69 93.8147 1313.65 93.8551 1313.61 93.8855C1312.75 94.6954 1311.94 95.6167 1311.2 96.6291C1311.19 96.6494 1311.17 96.6696 1311.16 96.6797C1310.15 98.0667 1309.26 99.6258 1308.51 101.337H1304.62C1304.62 99.646 1303.27 98.2793 1301.6 98.2793H1291.61C1289.95 98.2793 1288.6 99.646 1288.6 101.337V107.755L1284.94 108.727V103.918C1284.94 101.033 1282.63 98.6944 1279.78 98.6944H1276.44V95.8395C1276.44 93.0959 1274.24 90.8686 1271.53 90.8686H1266.09C1263.38 90.8686 1261.18 93.0959 1261.18 95.8395V101.58H1246.81C1244.1 101.58 1241.9 103.807 1241.9 106.55V120.228L1238.89 121.028V116.523C1238.89 113.728 1236.66 111.471 1233.9 111.471H1224.38C1221.62 111.471 1219.39 113.728 1219.39 116.523V126.231L1210.69 128.56V114.852C1210.69 113.283 1209.43 112.007 1207.88 112.007H1205.35C1203.8 112.007 1202.54 113.283 1202.54 114.852V130.736L1195.23 132.69V129.36C1195.23 127.79 1193.97 126.515 1192.42 126.515C1190.87 126.515 1189.61 127.79 1189.61 129.36C1189.61 131.546 1189.61 134.189 1189.61 134.189L1187.63 134.715L1181.18 136.436V128.459C1181.18 126.889 1179.92 125.614 1178.37 125.614H1172.46C1170.91 125.614 1169.65 126.889 1169.65 128.459V135.211L1160.37 133.348V108.241C1160.37 106.672 1159.11 105.396 1157.56 105.396H1149.4C1147.85 105.396 1146.59 106.672 1146.59 108.241V116.209H1133.09C1133.09 115.956 1133.1 115.713 1133.1 115.459C1133.1 114.184 1133.05 112.929 1132.97 111.704C1132.82 109.659 1132.56 107.705 1132.19 105.862C1132.12 105.498 1132.04 105.133 1131.96 104.769C1131.72 103.685 1131.43 102.653 1131.12 101.671C1131.02 101.347 1130.91 101.023 1130.8 100.699C1130.58 100.061 1130.34 99.4537 1130.09 98.8766C1129.71 97.9959 1129.31 97.1859 1128.88 96.4266C1127.88 94.6651 1126.73 93.2579 1125.48 92.286C1124.23 91.3141 1122.89 90.7876 1121.48 90.7876C1121.13 90.7876 1120.77 90.8281 1120.43 90.8889C1120.4 90.899 1120.37 90.899 1120.35 90.899C1120.02 90.9699 1119.69 91.0711 1119.37 91.1926C1119.33 91.2128 1119.29 91.223 1119.25 91.2432C1118.94 91.3748 1118.63 91.5368 1118.32 91.7191C1118.28 91.7494 1118.23 91.7696 1118.19 91.8C1117.89 91.9924 1117.59 92.205 1117.3 92.4378C1117.26 92.4682 1117.22 92.5087 1117.17 92.5492C1116.88 92.7922 1116.59 93.0655 1116.32 93.3591C1116.28 93.3996 1116.25 93.4401 1116.21 93.4705C1115.93 93.7742 1115.65 94.1082 1115.38 94.4626C1115.36 94.493 1115.34 94.5234 1115.31 94.5537C1115.03 94.9283 1114.76 95.3231 1114.5 95.7382C1114.5 95.7483 1114.49 95.7483 1114.49 95.7585C1114.22 96.1938 1113.95 96.6595 1113.69 97.1556L1113.13 98.2996C1112.62 99.4132 1112.17 100.618 1111.76 101.914C1111.76 101.914 1111.76 101.914 1111.76 101.924C1111.56 102.572 1111.37 103.23 1111.2 103.918C1111.2 103.928 1111.2 103.939 1111.19 103.939C1111.02 104.617 1110.87 105.315 1110.73 106.024C1110.73 106.044 1110.72 106.065 1110.72 106.075C1110.58 106.783 1110.46 107.502 1110.35 108.241C1110.35 108.261 1110.34 108.292 1110.34 108.312C1110.24 109.051 1110.15 109.8 1110.07 110.56C1110.07 110.58 1110.07 110.61 1110.06 110.63C1109.99 111.4 1109.93 112.169 1109.9 112.959C1109.9 112.979 1109.9 112.999 1109.9 113.02C1109.86 113.819 1109.84 114.629 1109.84 115.449C1109.84 116.523 1109.88 117.575 1109.94 118.618C1109.94 118.669 1109.95 118.73 1109.95 118.78C1110.02 119.823 1110.11 120.835 1110.24 121.827L1107.83 120.977L1106.37 120.461V118.183C1106.37 117.079 1105.49 116.188 1104.4 116.188V102.45C1104.4 101.276 1103.46 100.314 1102.29 100.314H1100.6C1099.44 100.314 1098.49 101.266 1098.49 102.45V116.188C1095.72 116.188 1092.99 116.867 1090.53 118.173L1082.74 122.313V111.683C1082.74 109.132 1080.7 107.067 1078.18 107.067H1074.46C1071.94 107.067 1069.91 109.132 1069.91 111.683V115.206H1068.72C1065.75 115.206 1063.34 117.646 1063.34 120.653V132.609L1056.82 136.072H1049.56V127.973C1049.56 125.421 1047.52 123.356 1045 123.356H1040.9C1038.38 123.356 1036.34 125.421 1036.34 127.973V146.661V146.945L1029.99 150.316L1028.46 151.126V148.666C1028.46 145.234 1025.71 142.45 1022.32 142.45H1016.94C1015.54 142.45 1014.4 143.604 1014.4 145.021H1009.39C1006.27 145.021 1003.73 147.583 1003.73 150.751V164.246L1001.43 165.471L1001.06 165.674V163.923C1001.06 162.282 999.745 160.946 998.125 160.946H986.796C985.177 160.946 983.857 162.282 983.857 163.923H974.428C971.158 163.923 968.499 166.605 968.499 169.926V172.902L966.029 174.117H955.481V170.392C955.481 168.154 953.691 166.342 951.481 166.342H949.211C947.002 166.342 945.212 168.154 945.212 170.392V184.312H945.222L938.643 187.531V180.404C938.643 178.167 936.853 176.355 934.643 176.355H930.834C928.624 176.355 926.834 178.167 926.834 180.404V193.322L917.096 198.111V195.195C917.096 192.958 915.306 191.146 913.096 191.146H902.908C900.698 191.146 898.908 192.958 898.908 195.195V207.02L890.939 210.928L844.356 203.962V193.697C844.356 190.741 841.986 188.341 839.066 188.341H836.157C833.237 188.341 830.867 190.741 830.867 193.697V201.948L827.798 201.492L826.548 201.31L825.228 200.935L822.979 200.308V198.323C822.979 194.355 819.799 191.146 815.89 191.146H804.791V187.916C804.791 185.922 803.201 184.312 801.231 184.312C799.262 184.312 797.672 185.922 797.672 187.916V193.18L791.553 191.459L789.243 190.812V184.19C789.243 179.857 785.774 176.355 781.504 176.355H779.024V170.503C779.024 167.243 776.415 164.611 773.205 164.611H769.946C766.726 164.611 764.126 167.253 764.126 170.503V183.755L758.307 182.115L749.778 179.716V169.997C749.778 167.02 747.399 164.611 744.459 164.611H742.779C741.829 164.611 741.07 165.39 741.07 166.342H713.513V163.305C713.513 162.09 712.543 161.098 711.334 161.098H709.214C708.014 161.098 707.034 162.08 707.034 163.305V167.699L696.346 164.479V156.097C696.346 148.727 690.446 142.753 683.167 142.753C680.508 142.753 678.348 144.94 678.348 147.633V159.063L672.139 157.19L671.599 157.028V150.711L671.269 147.167C670.909 145.386 670.349 143.695 669.619 142.116C669.609 142.085 669.599 142.065 669.589 142.035C669.389 141.599 669.159 141.164 668.929 140.749C668.859 140.627 668.789 140.496 668.719 140.374C668.499 139.99 668.269 139.625 668.03 139.261C667.93 139.109 667.83 138.957 667.72 138.805C667.49 138.471 667.25 138.137 666.99 137.813C666.86 137.651 666.73 137.499 666.6 137.337C666.35 137.034 666.1 136.73 665.83 136.446C665.68 136.284 665.53 136.143 665.37 135.981C665.1 135.707 664.84 135.434 664.56 135.181C664.39 135.029 664.21 134.897 664.04 134.746C663.66 134.422 663.29 134.098 662.87 133.824C662.5 133.581 662.15 133.318 661.78 133.085C661.55 132.943 661.31 132.812 661.07 132.68C660.78 132.518 660.491 132.356 660.191 132.204C659.951 132.083 659.711 131.982 659.471 131.88C659.161 131.739 658.841 131.607 658.511 131.496C658.271 131.405 658.031 131.324 657.791 131.243C657.451 131.131 657.101 131.03 656.751 130.939C656.521 130.878 656.291 130.817 656.051 130.767C655.651 130.686 655.251 130.625 654.851 130.564C654.651 130.534 654.451 130.493 654.251 130.473C653.641 130.412 653.032 130.372 652.402 130.372H652.392H652.382C651.772 130.372 651.182 130.412 650.592 130.473C650.232 130.514 649.892 130.574 649.542 130.635C649.332 130.676 649.122 130.696 648.922 130.736C648.452 130.828 648.002 130.949 647.552 131.081C647.492 131.101 647.422 131.121 647.362 131.131C646.852 131.283 646.362 131.455 645.872 131.658V131.546C645.872 129.451 644.203 127.76 642.133 127.76H636.814C634.744 127.76 633.074 129.451 633.074 131.546V139.078C631.214 139.078 629.695 140.607 629.695 142.5V144.394L620.646 141.67L619.006 141.174V131.182C619.006 129.299 617.496 127.76 615.627 127.76C613.767 127.76 612.247 129.289 612.247 131.182V139.139L604.168 136.71L599.869 135.414C599.869 131.192 596.489 127.76 592.31 127.76H591.37C589.23 127.76 587.49 129.522 587.49 131.688L585.521 130.99V112.544C585.521 110.104 583.571 108.13 581.161 108.13C578.752 108.13 576.802 110.104 576.802 112.544V116.188H569.493V113.425C569.493 107.117 564.444 102.005 558.214 102.005H557.195C557.174 101.6 557.145 101.195 557.105 100.79C557.105 100.76 557.105 100.729 557.095 100.689C557.065 100.304 557.025 99.9194 556.985 99.5448C556.985 99.4942 556.975 99.4537 556.975 99.403C556.935 99.0285 556.895 98.6539 556.845 98.2894C556.835 98.2388 556.835 98.1983 556.825 98.1477C556.775 97.7731 556.725 97.4086 556.675 97.0442C556.665 97.0037 556.665 96.9632 556.655 96.9328C556.605 96.5582 556.545 96.1938 556.485 95.8293C556.485 95.8091 556.475 95.7888 556.475 95.7686C556.085 93.4401 555.565 91.2533 554.925 89.269C554.915 89.2488 554.915 89.2285 554.905 89.2184C554.815 88.935 554.715 88.6515 554.625 88.3781C554.605 88.3174 554.585 88.2566 554.565 88.1858C554.475 87.9327 554.385 87.6897 554.295 87.4467C554.265 87.3658 554.235 87.2848 554.205 87.1936C554.115 86.9608 554.025 86.7381 553.935 86.5255C553.895 86.4344 553.855 86.3331 553.815 86.242C553.725 86.0294 553.635 85.8269 553.545 85.6245C553.505 85.5232 553.455 85.4321 553.415 85.3309C553.325 85.1385 553.235 84.9462 553.145 84.7538C553.095 84.6526 553.045 84.5614 552.995 84.4602C552.905 84.278 552.805 84.0958 552.715 83.9237C552.665 83.8325 552.615 83.7313 552.555 83.6402C552.455 83.4681 552.365 83.296 552.265 83.134C552.215 83.0429 552.155 82.9619 552.105 82.8707C552.005 82.7088 551.905 82.5468 551.805 82.3949C551.755 82.3241 551.705 82.2532 551.655 82.1823C551.435 81.8584 551.215 81.5445 550.985 81.2509C550.945 81.1902 550.895 81.1295 550.855 81.0789C550.765 80.9675 550.675 80.8663 550.585 80.765C550.505 80.6638 550.425 80.5726 550.335 80.4815C550.245 80.3904 550.165 80.2993 550.075 80.2082C549.985 80.1171 549.895 80.0158 549.805 79.9348C549.716 79.8539 549.636 79.7729 549.546 79.6919C549.456 79.6008 549.356 79.5198 549.266 79.4388C549.176 79.3679 549.096 79.297 549.006 79.2262C548.906 79.1452 548.816 79.0743 548.716 79.0035C548.626 78.9427 548.546 78.8819 548.456 78.8212C548.356 78.7503 548.256 78.6896 548.156 78.6289C548.066 78.5783 547.986 78.5276 547.896 78.477C547.796 78.4163 547.686 78.3656 547.586 78.315C547.496 78.2745 547.416 78.2239 547.326 78.1935C547.216 78.1429 547.106 78.1024 546.996 78.0619C546.906 78.0315 546.826 77.9911 546.736 77.9708C546.616 77.9303 546.506 77.9 546.386 77.8696C546.306 77.8494 546.226 77.8189 546.136 77.8088C546.006 77.7784 545.876 77.7582 545.746 77.738C545.676 77.7279 545.606 77.7076 545.536 77.7076C545.346 77.6873 545.146 77.6772 544.956 77.6772C544.946 77.6772 544.936 77.6772 544.936 77.6772C538.107 77.6772 532.558 90.3523 532.558 105.984C532.558 106.743 532.578 107.482 532.598 108.231C532.598 108.342 532.608 108.454 532.608 108.565C532.638 109.294 532.678 110.013 532.728 110.722C532.738 110.803 532.738 110.883 532.748 110.975C532.868 112.503 533.038 113.981 533.258 115.409L525.889 113.192V107.583C525.889 105.153 523.939 103.179 521.539 103.179C519.14 103.179 517.19 105.153 517.19 107.583V110.58H499.352V93.4097C499.352 92.1442 498.332 91.1116 497.083 91.1116H492.833C491.583 91.1116 490.564 92.1442 490.564 93.4097V102.066H486.934C484.084 102.066 481.775 104.404 481.775 107.29C479.175 106.378 476.125 105.305 472.756 104.121C471.576 103.706 470.366 103.281 469.116 102.845V97.8946C469.116 96.3254 467.857 95.0498 466.307 95.0498V86.7482C466.307 84.5108 464.517 82.6986 462.307 82.6986H459.278V67.1281C459.278 65.2552 457.778 63.7468 455.938 63.7468H453.349C451.499 63.7468 450.009 65.2653 450.009 67.1281V82.6986H445.55V77.9101C445.55 75.9055 443.94 74.2756 441.96 74.2756H427.912C427.642 73.1923 427.322 72.1496 426.962 71.1473C426.962 71.1372 426.952 71.1372 426.952 71.1271C426.592 70.1349 426.182 69.1934 425.732 68.3025C425.722 68.2823 425.712 68.2722 425.702 68.2519C425.262 67.3813 424.772 66.5511 424.263 65.7817C424.243 65.7513 424.223 65.7311 424.212 65.7007C423.703 64.9515 423.153 64.253 422.583 63.6253C422.553 63.5949 422.523 63.5645 422.503 63.5342C422.223 63.2304 421.933 62.9369 421.633 62.6635C421.603 62.6332 421.573 62.6129 421.543 62.5825C421.273 62.3294 420.993 62.0966 420.703 61.8738C420.663 61.8435 420.633 61.8131 420.593 61.7828C420.293 61.5499 419.983 61.3373 419.673 61.1348C419.623 61.1044 419.563 61.064 419.513 61.0336C419.233 60.8615 418.943 60.6893 418.643 60.5476C418.603 60.5274 418.563 60.5071 418.523 60.4869C418.203 60.3249 417.883 60.1933 417.553 60.0718C417.483 60.0414 417.413 60.0212 417.343 59.9908C417.033 59.8794 416.724 59.7884 416.414 59.7074C416.384 59.6973 416.354 59.6871 416.324 59.6871C415.994 59.6061 415.654 59.5454 415.304 59.5049C415.224 59.4948 415.144 59.4846 415.064 59.4745C414.714 59.434 414.364 59.4137 414.014 59.4137C413.604 59.4137 413.194 59.4441 412.784 59.4947C412.724 59.5049 412.664 59.5049 412.614 59.515C412.234 59.5758 411.854 59.6567 411.474 59.7478C411.404 59.7681 411.334 59.7883 411.264 59.8086C410.894 59.9199 410.524 60.0414 410.164 60.1933C410.104 60.2135 410.054 60.2439 409.994 60.2642C409.614 60.4262 409.245 60.6084 408.875 60.821H408.865C408.495 61.0336 408.145 61.2664 407.795 61.5195C407.745 61.5499 407.695 61.5904 407.645 61.6207C407.315 61.8637 406.985 62.1371 406.665 62.4206C406.605 62.4712 406.555 62.5218 406.495 62.5724C406.175 62.866 405.865 63.1697 405.565 63.4937C405.525 63.5443 405.475 63.5949 405.435 63.6354C405.125 63.9796 404.815 64.3441 404.515 64.7288C404.215 65.1135 403.935 65.5184 403.655 65.9436C403.625 65.9943 403.585 66.0449 403.555 66.0955C403.295 66.5005 403.035 66.9257 402.795 67.361C402.755 67.4319 402.715 67.5027 402.675 67.5736C402.435 68.019 402.206 68.4645 401.986 68.9302C401.956 68.9909 401.926 69.0517 401.896 69.1226C401.446 70.1147 401.036 71.1574 400.686 72.2609C400.666 72.3217 400.646 72.3723 400.626 72.433C400.456 72.9595 400.306 73.5062 400.166 74.063C400.146 74.144 400.126 74.2351 400.106 74.3161C399.966 74.8729 399.846 75.4297 399.736 76.0068C399.726 76.0776 399.706 76.1586 399.696 76.2295C399.586 76.8268 399.486 77.4343 399.406 78.0518C399.026 77.9101 398.676 77.7785 398.336 77.657C398.306 77.6469 398.276 77.6367 398.256 77.6266C397.956 77.5152 397.666 77.4038 397.396 77.3026C397.356 77.2824 397.306 77.2722 397.266 77.252C397.016 77.1508 396.776 77.0698 396.556 76.9787C396.516 76.9585 396.466 76.9483 396.426 76.928C396.176 76.8268 395.946 76.7458 395.736 76.6547C395.556 76.5839 395.366 76.513 395.156 76.432C395.016 76.3813 394.866 76.3308 394.727 76.27C394.647 76.2396 394.577 76.2194 394.497 76.189V48.5306C394.497 47.1234 393.367 45.9794 391.977 45.9794H388.487C387.098 45.9794 385.968 47.1234 385.968 48.5306V66.4094H381.988V58.7861C381.988 57.5611 381.008 56.5791 379.809 56.5791H378.029V45.7465C378.029 44.4405 376.979 43.3876 375.699 43.3876H374.179C372.889 43.3876 371.85 44.4507 371.85 45.7465V56.5791H362.471C360.511 56.5791 358.921 58.1888 358.921 60.173V65.5488C357.542 65.154 356.142 64.7693 354.752 64.3745C354.742 64.3745 354.722 64.3643 354.712 64.3643V55.3642C354.712 52.9345 352.772 50.9705 350.373 50.9705H347.263V44.1064C347.263 42.6284 346.083 41.4237 344.613 41.4237H343.743V35.3898C343.743 33.9117 342.564 32.7171 341.104 32.7171H338.724C337.264 32.7171 336.084 33.9117 336.084 35.3898V41.3933H328.605C326.566 41.3933 324.906 43.0637 324.906 45.1391V56.083C323.886 55.7995 322.886 55.5262 321.926 55.263C320.637 54.9086 319.397 54.5746 318.227 54.2506V31.3909C318.227 30.1051 317.197 29.0624 315.927 29.0624H309.988C308.868 29.0624 307.958 29.9836 307.958 31.1175V32.8993H304.749C302.679 32.8993 300.999 34.6001 300.999 36.6958V51.5475L296.92 52.0335V46.4957C296.92 44.886 295.63 43.58 294.04 43.58H289.751V35.7644C289.751 33.527 287.961 31.7148 285.751 31.7148H284.471C282.262 31.7148 280.472 33.527 280.472 35.7644V43.58H269.973V37.4652C269.973 36.0478 268.834 34.8938 267.434 34.8938H265.014C263.614 34.8938 262.474 36.0478 262.474 37.4652V56.164L255.725 56.9739V52.9244C255.725 51.831 254.845 50.9401 253.766 50.9401H249.246C248.166 50.9401 247.286 51.831 247.286 52.9244V57.9863L241.667 58.8772V41.2414C241.667 38.9939 239.867 37.1716 237.648 37.1716H226.839C224.62 37.1716 222.82 38.9939 222.82 41.2414V62.5015L221.41 62.7749V53.4609C221.41 52.4485 220.6 51.6386 219.61 51.6386H215.621C214.621 51.6386 213.821 52.4586 213.821 53.4609V60.4767H199.483V48.5812C199.483 46.5564 197.863 44.9265 195.873 44.9265H188.174C186.175 44.9265 184.565 46.5665 184.565 48.5812V60.7198H177.196C175.196 60.7198 173.586 62.3598 173.586 64.3745V72.3217L162.038 74.8729Z" fill="url(#paint1_linear_2665_24508)"/>
<path d="M1905.06 124.029C1903.69 124.029 1902.36 124.171 1901.07 124.434C1896.56 125.365 1892.6 127.856 1889.78 131.328C1888.97 132.321 1888.26 133.394 1887.65 134.527C1886.13 137.372 1885.26 140.622 1885.26 144.084V161.194L1877.91 164.535C1870.06 168.108 1865.01 176.015 1865.01 184.732V194.127H1835.01V100.248C1835.01 93.5359 1831.37 87.3705 1825.53 84.1916L1783.23 61.1598C1779.43 59.0844 1774.82 61.8786 1774.82 66.2521V128.706L1757.57 141.908C1749.66 147.962 1745.01 157.428 1745.01 167.471V190.168L1739.29 193.418L1731.7 197.741V136.168C1731.7 134.841 1730.64 133.768 1729.33 133.768H1727.06C1724.36 133.768 1722.17 135.985 1722.17 138.719V203.157L1714.93 207.278C1711.27 209.353 1709.01 213.271 1709.01 217.523H1670.2V192.689C1670.2 188.386 1667.66 184.489 1663.75 182.808L1657.97 180.318V103.903C1657.97 99.3268 1654.31 95.6214 1649.79 95.6214H1639.43C1634.91 95.6214 1631.25 99.3268 1631.25 103.903V168.787L1622.52 165.021C1617.93 163.036 1612.83 166.448 1612.83 171.51V217.533H1547.13V118.269C1547.13 113.844 1550.67 110.261 1555.04 110.261H1594.85C1597.49 110.261 1599.62 108.094 1599.62 105.431C1599.62 103.761 1598.79 102.293 1597.52 101.422C1596.76 100.906 1595.84 100.602 1594.85 100.602H1588.93C1584.25 100.602 1580.31 97.2008 1579.4 92.564C1575.71 73.7842 1559.34 59.6311 1539.71 59.6311C1520.08 59.6311 1503.71 73.7842 1500.02 92.564C1499.11 97.2109 1495.17 100.602 1490.49 100.602H1484.57C1483.25 100.602 1482.06 101.139 1481.2 102.02C1480.77 102.455 1480.42 102.981 1480.18 103.559C1479.94 104.136 1479.8 104.773 1479.8 105.442C1479.8 108.114 1481.94 110.271 1484.57 110.271H1524.38C1528.75 110.271 1532.29 113.855 1532.29 118.279V217.543H1425.5V198.915H1439.13C1441.32 198.915 1443.1 197.113 1443.1 194.896V181.806C1443.1 179.589 1441.32 177.787 1439.13 177.787H1425.5V151.961H1439.13C1441.32 151.961 1443.1 150.159 1443.1 147.942V134.851C1443.1 132.634 1441.32 130.832 1439.13 130.832H1425.5V116.102H1444.73C1447.19 116.102 1449.18 114.087 1449.18 111.597C1449.18 109.106 1447.19 107.092 1444.73 107.092H1395.77C1393.31 107.092 1391.32 109.106 1391.32 111.597C1391.32 114.087 1393.31 116.102 1395.77 116.102H1415.87C1415.87 116.102 1414.11 141.968 1413.19 151.961H1401.37C1399.18 151.961 1397.4 153.763 1397.4 155.98V164.575C1397.4 166.792 1399.18 168.594 1401.37 168.594H1411.52L1410.46 177.777C1410.46 177.777 1405.21 177.777 1401.37 177.777C1399.18 177.777 1397.4 179.579 1397.4 181.796V194.886C1397.4 197.103 1399.18 198.905 1401.37 198.905H1407.59L1404.35 217.533H1343.94V178.192C1343.94 176.309 1342.43 174.78 1340.57 174.78H1323.68C1321.82 174.78 1320.31 173.251 1320.31 171.368V129.769C1320.31 127.886 1318.8 126.358 1316.94 126.358H1301.83C1300.16 126.358 1298.75 127.593 1298.5 129.263L1287.12 205.769H1274.46V161.548C1274.46 159.27 1272.63 157.418 1270.38 157.418H1265.19C1262.94 157.418 1261.11 159.27 1261.11 161.548V205.769H1249.58C1245.77 205.769 1242.68 208.897 1242.68 212.755V217.513H1211.21C1211.09 216.257 1210.98 214.982 1210.87 213.686C1210.87 213.666 1210.87 213.635 1210.86 213.615C1210.75 212.319 1210.64 211.003 1210.54 209.667C1210.54 209.647 1210.54 209.616 1210.53 209.596C1210.32 206.903 1210.12 204.119 1209.94 201.254H1221.32C1222.13 201.254 1222.87 200.92 1223.4 200.383C1223.8 199.978 1224.09 199.462 1224.2 198.875C1224.24 198.682 1224.26 198.48 1224.26 198.277V197.255C1224.26 197.053 1224.24 196.85 1224.2 196.658C1224.08 196.07 1223.8 195.554 1223.4 195.149C1222.87 194.613 1222.13 194.279 1221.32 194.279H1209.54C1209.49 193.256 1209.44 192.223 1209.39 191.181C1209.39 191.079 1209.38 190.978 1209.38 190.867C1209.34 189.905 1209.29 188.933 1209.25 187.951C1209.25 187.88 1209.24 187.809 1209.24 187.739C1209.2 186.706 1209.16 185.653 1209.12 184.6C1209.08 183.497 1209.04 182.383 1209.01 181.259H1228.5C1230.11 181.259 1231.45 180.136 1231.83 178.627C1231.9 178.354 1231.95 178.07 1231.95 177.767C1231.95 175.833 1230.4 174.274 1228.5 174.274H1208.83C1208.77 171.277 1208.73 168.22 1208.7 165.102C1212.61 164.211 1216.16 162.348 1219.07 159.756C1219.09 159.736 1219.11 159.716 1219.13 159.695C1219.93 158.977 1220.68 158.207 1221.38 157.387C1221.42 157.347 1221.45 157.306 1221.49 157.256C1222.17 156.446 1222.79 155.595 1223.36 154.694C1223.4 154.633 1223.44 154.563 1223.48 154.502C1224.03 153.611 1224.53 152.69 1224.96 151.728C1225 151.647 1225.03 151.566 1225.07 151.475C1225.49 150.513 1225.85 149.521 1226.15 148.498C1226.18 148.407 1226.2 148.306 1226.23 148.215C1226.37 147.709 1226.5 147.192 1226.61 146.676H1238.48C1241.15 146.676 1243.31 144.489 1243.31 141.786C1243.31 140.096 1242.46 138.607 1241.18 137.727C1240.41 137.2 1239.48 136.886 1238.48 136.886H1226.61C1226.48 136.238 1226.31 135.601 1226.13 134.973C1226.12 134.932 1226.11 134.892 1226.09 134.841C1225.91 134.244 1225.71 133.657 1225.48 133.08C1225.45 132.999 1225.42 132.928 1225.39 132.847C1225.16 132.28 1224.92 131.723 1224.65 131.176C1224.49 130.853 1222.67 127.836 1222.51 127.633C1222.16 127.147 1221.78 126.681 1221.4 126.226C1221.34 126.155 1221.28 126.094 1221.23 126.023C1220.84 125.578 1220.44 125.143 1220.02 124.728C1219.96 124.677 1219.91 124.616 1219.85 124.566C1219.41 124.14 1218.96 123.725 1218.49 123.33C1218.49 123.33 1218.49 123.33 1218.48 123.33C1218.01 122.936 1217.52 122.571 1217.02 122.217C1216.96 122.176 1216.9 122.136 1216.85 122.095C1216.37 121.761 1215.87 121.447 1215.36 121.144C1215.27 121.093 1215.19 121.042 1215.1 120.992C1214.59 120.698 1214.08 120.425 1213.55 120.172C1213.47 120.131 1213.39 120.101 1213.31 120.06C1212.75 119.807 1212.19 119.564 1211.61 119.352C1211.6 119.352 1211.6 119.352 1211.59 119.342C1211.02 119.129 1210.43 118.947 1209.83 118.775C1209.75 118.754 1209.67 118.724 1209.58 118.704C1209.01 118.552 1208.42 118.42 1207.83 118.309C1207.72 118.289 1207.61 118.269 1207.5 118.248C1206.91 118.147 1206.31 118.066 1205.71 118.005C1205.62 117.995 1205.53 117.995 1205.43 117.985C1204.79 117.934 1204.15 117.894 1203.5 117.894C1202.85 117.894 1202.21 117.924 1201.57 117.985C1201.48 117.995 1201.39 117.995 1201.29 118.005C1200.68 118.066 1200.09 118.147 1199.5 118.248C1199.39 118.269 1199.28 118.289 1199.17 118.309C1198.58 118.42 1198 118.552 1197.43 118.704C1197.35 118.724 1197.27 118.754 1197.18 118.775C1196.59 118.947 1196 119.129 1195.42 119.342C1195.41 119.342 1195.41 119.342 1195.4 119.352C1194.82 119.564 1194.26 119.807 1193.7 120.06C1193.62 120.101 1193.54 120.131 1193.46 120.172C1192.93 120.425 1192.41 120.698 1191.91 120.992C1191.82 121.042 1191.74 121.093 1191.65 121.144C1191.14 121.447 1190.65 121.761 1190.16 122.095C1190.1 122.136 1190.04 122.176 1189.99 122.217C1189.49 122.571 1189 122.946 1188.53 123.33C1188.53 123.33 1188.53 123.33 1188.52 123.33C1188.05 123.725 1187.6 124.14 1187.16 124.566C1187.1 124.616 1187.05 124.677 1186.99 124.728C1186.57 125.143 1186.17 125.578 1185.78 126.023C1185.72 126.094 1185.66 126.155 1185.61 126.226C1185.22 126.681 1184.85 127.157 1184.5 127.633C1184.37 127.815 1182.51 130.873 1182.36 131.176C1182.09 131.723 1181.85 132.28 1181.62 132.847C1181.59 132.928 1181.56 132.999 1181.53 133.08C1181.31 133.657 1181.1 134.244 1180.92 134.841C1180.91 134.882 1180.9 134.922 1180.88 134.973C1180.7 135.601 1180.53 136.238 1180.4 136.886H1168.53C1167.53 136.886 1166.6 137.19 1165.83 137.727C1164.54 138.607 1163.7 140.096 1163.7 141.786C1163.7 144.489 1165.86 146.676 1168.53 146.676H1180.4C1180.51 147.192 1180.64 147.709 1180.78 148.215C1180.81 148.306 1180.83 148.407 1180.86 148.498C1181.16 149.521 1181.52 150.513 1181.94 151.475C1181.98 151.556 1182.01 151.637 1182.05 151.728C1182.49 152.69 1182.98 153.621 1183.53 154.502C1183.57 154.563 1183.61 154.633 1183.65 154.694C1184.22 155.585 1184.84 156.446 1185.52 157.256C1185.56 157.296 1185.59 157.337 1185.63 157.387C1186.33 158.207 1187.08 158.977 1187.88 159.695C1187.9 159.716 1187.92 159.736 1187.94 159.746C1190.85 162.338 1194.4 164.201 1198.31 165.091C1198.29 168.21 1198.25 171.277 1198.18 174.264H1178.51C1176.6 174.264 1175.06 175.833 1175.06 177.756C1175.06 178.242 1175.16 178.698 1175.33 179.113C1175.42 179.326 1175.52 179.518 1175.65 179.71C1176.27 180.642 1177.32 181.249 1178.51 181.249H1198C1198 181.249 1198 181.249 1198 181.259C1197.97 182.383 1197.93 183.487 1197.89 184.59C1197.85 185.643 1197.81 186.686 1197.77 187.728C1197.77 187.799 1197.76 187.87 1197.76 187.941C1197.72 188.923 1197.68 189.895 1197.63 190.857C1197.63 190.958 1197.62 191.059 1197.62 191.171C1197.57 192.213 1197.52 193.246 1197.47 194.268H1185.69C1184.88 194.268 1184.14 194.603 1183.6 195.139C1183.2 195.544 1182.91 196.06 1182.8 196.648C1182.76 196.84 1182.74 197.042 1182.74 197.245V198.267C1182.74 198.47 1182.76 198.672 1182.8 198.865C1182.92 199.452 1183.2 199.968 1183.6 200.373C1184.13 200.91 1184.87 201.244 1185.69 201.244H1197.07C1196.89 204.109 1196.69 206.883 1196.48 209.586C1196.48 209.606 1196.48 209.637 1196.47 209.657C1196.37 210.993 1196.26 212.299 1196.15 213.595C1196.15 213.625 1196.14 213.656 1196.14 213.696C1196.03 214.982 1195.92 216.247 1195.8 217.493V217.503H1148V214.273C1148 212.572 1146.64 211.206 1144.97 211.206H1137.54C1135.86 211.206 1134.51 212.583 1134.51 214.273V217.503H1109.95C1085.2 217.503 1068.92 228.021 1055.83 236.475C1046.59 242.438 1038.61 247.591 1030.08 247.591H984.8V245.971C984.8 244.068 983.28 242.529 981.4 242.529H980C978.12 242.529 976.6 244.068 976.6 245.971V247.591H942.81H934.44H883.86L881.19 207.814C880.38 195.716 873.26 184.965 862.5 179.619L861.88 179.305V132.655C861.88 129.82 858.88 128.028 856.43 129.395L847.49 134.396C843.18 136.805 840.51 141.391 840.51 146.372V194.096L823.06 204.777C813.99 210.325 808.45 220.277 808.45 231.008V247.571H659.37V185.127C659.37 182.373 655.97 181.128 654.23 183.233L654.21 183.264C646.68 192.446 632.55 213.079 623.22 247.561H477.12C457.02 247.561 445.93 236.293 433.08 223.243C432.02 222.17 430.95 221.087 429.87 219.993C429.87 219.993 429.86 219.993 429.86 219.983C426.61 216.713 423.22 213.423 419.55 210.254V113.561C419.55 111.415 417.83 109.673 415.71 109.673H410.3C403.14 109.673 397.33 115.555 397.33 122.804V160.89L382.49 172.452C377.6 176.258 374.74 182.15 374.74 188.386V189.966C372.7 189.713 370.59 189.51 368.4 189.379C368.23 189.368 368.06 189.368 367.89 189.358C366.96 189.308 366.03 189.257 365.07 189.227C363.94 189.196 362.78 189.176 361.61 189.176H321.97L321.55 184.863L316.24 130.65C315.86 126.732 318.89 123.341 322.78 123.341H351.07C352.17 123.341 353.19 123.007 354.03 122.429C354.59 122.045 355.08 121.549 355.46 120.982C355.84 120.415 356.12 119.767 356.26 119.068C356.33 118.724 356.37 118.36 356.37 117.985C356.37 116.689 355.9 115.515 355.14 114.594C354.17 113.399 352.72 112.63 351.07 112.63C351.07 112.63 349.02 112.63 346.86 112.63C344.25 112.63 341.94 110.817 341.38 108.226C340.13 102.445 337.3 97.2615 333.37 93.1614C333.33 93.1209 333.29 93.0804 333.26 93.0399C332.99 92.7564 332.71 92.4831 332.43 92.2198C332.36 92.149 332.29 92.0781 332.22 92.0174C331.96 91.7744 331.69 91.5314 331.42 91.2884C331.32 91.2074 331.23 91.1163 331.13 91.0353C330.87 90.8126 330.61 90.6 330.35 90.3975C330.23 90.3064 330.11 90.2052 329.99 90.1141C329.74 89.9217 329.48 89.7294 329.23 89.5471C329.09 89.4459 328.95 89.3447 328.81 89.2434C328.56 89.0713 328.31 88.8992 328.06 88.7372C327.9 88.636 327.74 88.5246 327.58 88.4234C327.34 88.2715 327.09 88.1197 326.84 87.9678C326.67 87.8666 326.49 87.7653 326.31 87.6641C326.07 87.5224 325.82 87.3907 325.58 87.2591C325.39 87.1579 325.2 87.0567 325.01 86.9655C324.77 86.8441 324.53 86.7225 324.28 86.6112C324.08 86.5201 323.87 86.4189 323.67 86.3277C323.43 86.2164 323.19 86.1151 322.95 86.0139C322.73 85.9228 322.52 85.8418 322.3 85.7507C322.06 85.6596 321.82 85.5684 321.58 85.4773C321.35 85.3963 321.12 85.3153 320.89 85.2445C320.65 85.1635 320.41 85.0825 320.17 85.0116C319.93 84.9408 319.69 84.8699 319.44 84.799C319.21 84.7383 318.97 84.6674 318.73 84.6067C318.48 84.5459 318.22 84.4852 317.96 84.4244C317.73 84.3738 317.5 84.3131 317.27 84.2726C317 84.2219 316.73 84.1713 316.46 84.1308C316.23 84.0903 316.01 84.0498 315.78 84.0093C315.49 83.9688 315.2 83.9284 314.91 83.898C314.7 83.8676 314.48 83.8372 314.27 83.817C313.94 83.7866 313.61 83.7664 313.28 83.7462C313.1 83.736 312.92 83.7158 312.73 83.7056C312.25 83.6854 311.77 83.6652 311.28 83.6652C311.25 83.6652 311.21 83.6652 311.18 83.6652C311.15 83.6652 311.11 83.6652 311.08 83.6652C310.59 83.6652 310.11 83.6753 309.63 83.7056C309.45 83.7158 309.26 83.736 309.08 83.7462C308.75 83.7664 308.42 83.7866 308.09 83.817C307.87 83.8372 307.66 83.8676 307.45 83.898C307.16 83.9385 306.87 83.9688 306.58 84.0093C306.35 84.0397 306.13 84.0903 305.9 84.1308C305.63 84.1814 305.36 84.2219 305.09 84.2726C304.86 84.3232 304.63 84.3738 304.4 84.4244C304.14 84.4852 303.89 84.5358 303.63 84.6067C303.39 84.6674 303.16 84.7383 302.92 84.799C302.68 84.8699 302.43 84.9307 302.19 85.0116C301.95 85.0825 301.71 85.1635 301.47 85.2445C301.24 85.3255 301.01 85.3963 300.78 85.4773C300.54 85.5684 300.3 85.6596 300.06 85.7507C299.84 85.8317 299.62 85.9228 299.41 86.0139C299.17 86.1151 298.93 86.2265 298.69 86.3277C298.49 86.4189 298.28 86.5099 298.08 86.6112C297.84 86.7225 297.59 86.8441 297.35 86.9655C297.16 87.0668 296.97 87.1579 296.78 87.2591C296.53 87.3907 296.29 87.5224 296.05 87.6641C295.87 87.7653 295.7 87.8666 295.53 87.9678C295.28 88.1197 295.03 88.2715 294.79 88.4234C294.63 88.5246 294.47 88.6259 294.31 88.7372C294.06 88.8992 293.81 89.0713 293.56 89.2434C293.42 89.3447 293.28 89.4459 293.14 89.5471C292.88 89.7294 292.63 89.9217 292.38 90.1141C292.26 90.2052 292.14 90.3064 292.02 90.3975C291.76 90.6101 291.5 90.8227 291.24 91.0353C291.14 91.1163 291.05 91.2074 290.95 91.2884C290.68 91.5213 290.41 91.7643 290.15 92.0174C290.08 92.0882 290.01 92.1591 289.94 92.2198C289.66 92.4932 289.38 92.7665 289.11 93.0399C289.07 93.0804 289.03 93.1209 289 93.1614C285.07 97.2615 282.24 102.445 280.99 108.226C280.43 110.807 278.13 112.63 275.51 112.63H271.3C269.84 112.63 268.51 113.227 267.55 114.199C266.59 115.171 266 116.507 266 117.995C266 118.37 266.04 118.724 266.11 119.078C266.25 119.777 266.53 120.425 266.91 120.992C267.86 122.419 269.47 123.361 271.3 123.361H299.59C303.48 123.361 306.51 126.752 306.13 130.67L300.82 184.884L300.4 189.196H249.04L248.86 172.117C248.8 166.408 244.21 161.811 238.58 161.811V76.2848C238.58 68.2768 233.89 61.0383 226.64 57.8493L223.6 56.5129C220.67 55.2272 217.4 57.3937 217.4 60.6333V142.06H215.53C210.66 142.06 206.39 145.35 205.09 150.108L193.08 194.086H180.99C175.08 194.086 169.75 197.68 167.47 203.198L165.9 207.004H147.68L144.24 183.891C143.48 178.759 139.12 174.972 134 174.972H131.4V151.87H134C138.05 151.87 141.33 148.549 141.33 144.449V142.465C141.33 141.442 140.51 140.612 139.5 140.612H123.5V132.007H133.93C137.98 132.007 141.26 128.686 141.26 124.586V122.602C141.26 121.579 140.44 120.749 139.43 120.749H123.5V112.144H133.98C138.03 112.144 141.31 108.823 141.31 104.723V102.738C141.31 101.716 140.49 100.886 139.48 100.886H93.08C92.07 100.886 91.25 101.716 91.25 102.738V104.723C91.25 108.823 94.53 112.144 98.58 112.144H109.63L99.1 236.272H83.95V200.91C83.95 196.82 80.67 193.499 76.63 193.499C75.37 193.499 74.18 193.823 73.14 194.39C72.93 194.501 72.73 194.633 72.54 194.765C72.15 195.028 71.79 195.331 71.46 195.666C71.13 196 70.83 196.364 70.57 196.759C69.78 197.943 69.32 199.371 69.32 200.9V236.262H50.75L39.08 156.871C38.67 154.097 36.32 152.042 33.55 152.042H31.66C30.4 152.042 29.37 153.074 29.37 154.36V176.663H27.94C22.77 176.663 17.98 179.386 15.3 183.861L0 209.323V593.139H1920V211.59V194.117V124.019H1905.06V124.029ZM976.6 254.698V268.598C975.07 267.737 973.48 266.968 971.84 266.29C971.73 266.249 971.62 266.199 971.51 266.158C970.82 265.885 970.12 265.622 969.41 265.379C969.26 265.328 969.12 265.277 968.97 265.227C968.19 264.963 967.4 264.731 966.59 264.508C966.56 264.498 966.53 264.488 966.5 264.477C965.65 264.255 964.8 264.052 963.93 263.88C963.77 263.85 963.62 263.83 963.46 263.799C962.78 263.668 962.1 263.556 961.41 263.465C961.15 263.425 960.89 263.394 960.63 263.364C960.01 263.293 959.39 263.232 958.76 263.182C958.5 263.161 958.25 263.141 957.99 263.121C957.12 263.07 956.25 263.04 955.38 263.04C954.71 263.04 954.05 263.06 953.38 263.091C953.17 263.101 952.96 263.111 952.74 263.131C952.28 263.161 951.82 263.192 951.36 263.232C951.13 263.253 950.9 263.273 950.67 263.293C950.08 263.354 949.49 263.435 948.91 263.516C948.6 263.566 948.3 263.617 947.99 263.668C947.69 263.718 947.39 263.769 947.09 263.83C946.73 263.9 946.37 263.971 946.01 264.052C945.8 264.103 945.59 264.154 945.37 264.204C944.5 264.407 943.63 264.64 942.78 264.903V254.698H976.6ZM477.12 254.698H494.43V292.5H454.4C454.35 291.579 454.29 290.668 454.22 289.767C454.22 289.747 454.22 289.737 454.22 289.716C454.15 288.825 454.06 287.934 453.97 287.054C453.97 287.033 453.96 287.003 453.96 286.983C453.86 286.102 453.76 285.242 453.64 284.371C453.64 284.341 453.63 284.32 453.63 284.29C453.51 283.429 453.38 282.569 453.23 281.718C453.23 281.698 453.22 281.678 453.22 281.658C453.07 280.807 452.92 279.957 452.75 279.117C452.75 279.107 452.75 279.096 452.74 279.086C450.88 269.813 447.64 261.572 443.42 255.052C443.37 254.971 443.32 254.88 443.26 254.799C442.96 254.333 442.64 253.888 442.33 253.432C442.23 253.291 442.13 253.139 442.03 252.997C441.74 252.592 441.45 252.207 441.15 251.823C441.01 251.651 440.88 251.468 440.74 251.296C440.46 250.942 440.18 250.608 439.89 250.264C439.73 250.071 439.57 249.879 439.4 249.687C439.13 249.373 438.85 249.079 438.57 248.775C438.38 248.573 438.2 248.381 438.01 248.188C437.74 247.915 437.47 247.641 437.2 247.378C437 247.176 436.79 246.983 436.59 246.791C436.32 246.548 436.06 246.305 435.79 246.072C435.57 245.88 435.35 245.688 435.12 245.505C434.86 245.283 434.59 245.07 434.32 244.868C434.08 244.685 433.85 244.503 433.61 244.331C433.35 244.139 433.08 243.956 432.82 243.774C432.57 243.602 432.32 243.44 432.06 243.278C431.8 243.116 431.54 242.944 431.27 242.792C431.01 242.64 430.74 242.488 430.47 242.347C430.21 242.205 429.95 242.063 429.69 241.932C429.41 241.79 429.13 241.668 428.85 241.537C428.59 241.415 428.34 241.304 428.08 241.193C427.79 241.071 427.49 240.96 427.19 240.848C426.94 240.757 426.68 240.656 426.43 240.575C426.12 240.474 425.8 240.383 425.49 240.302C425.24 240.231 425 240.16 424.75 240.099C424.41 240.018 424.08 239.958 423.74 239.887C423.51 239.836 423.28 239.785 423.04 239.745C422.66 239.684 422.28 239.644 421.89 239.603C421.69 239.583 421.5 239.553 421.3 239.532C420.72 239.482 420.13 239.461 419.55 239.461V219.801C419.55 219.801 419.55 219.801 419.56 219.811C422.5 222.595 425.32 225.45 428.12 228.295C441.49 241.871 454.12 254.698 477.12 254.698ZM249.1 196.324H299.69L298.44 209.08L297.75 216.085H285.01C283.58 216.085 282.21 216.308 280.92 216.713C280.06 216.986 279.23 217.341 278.45 217.766C278.06 217.979 277.68 218.211 277.31 218.464C273.65 220.965 271.24 225.207 271.24 230.026V234.754H249.5L249.1 196.324ZM344.82 220.348C343.24 213.443 337.17 208.563 330.17 208.563H323.87L323.78 207.642L322.67 196.324H361.62C362.77 196.324 363.91 196.344 365.02 196.374C365.19 196.384 365.36 196.394 365.53 196.394C366.49 196.425 367.44 196.475 368.37 196.536C368.46 196.546 368.54 196.546 368.63 196.556C369.65 196.627 370.65 196.708 371.63 196.799C371.64 196.799 371.65 196.799 371.66 196.799C372.71 196.901 373.73 197.022 374.74 197.164V241.324H349.62L344.82 220.348ZM565.72 296.378C565.72 294.232 564 292.5 561.89 292.5H558.72C555.26 292.5 552.33 294.809 551.35 297.988C551.27 298.231 551.21 298.484 551.16 298.737C551.06 299.243 551 299.769 551 300.306V321.313H530V254.698H621.43C620.69 257.796 620 260.995 619.35 264.295C619.34 264.366 619.32 264.447 619.31 264.518C618.35 269.448 617.49 274.622 616.77 280.018C616.76 280.089 616.75 280.159 616.74 280.23C616.26 283.834 615.83 287.55 615.47 291.377C615.46 291.427 615.46 291.488 615.45 291.539C615.27 293.442 615.11 295.376 614.96 297.329H593.73C588.04 297.329 583.42 301.997 583.42 307.767V321.323H565.7V296.378H565.72ZM808.44 287.317L783.25 318.215C779.17 323.216 776.94 329.493 776.94 335.972V349.316H770.07C764.54 349.316 760.06 353.851 760.06 359.45V363.347H738.11V324.472C738.11 321.505 735.74 319.106 732.81 319.106C729.88 319.106 727.51 321.505 727.51 324.472V342.593L695.35 325.95L688.89 254.698H808.43V287.317H808.44ZM884.33 254.698H934.43V268.446C933.68 268.861 932.95 269.296 932.23 269.752C932.06 269.853 931.9 269.965 931.73 270.076C931.14 270.461 930.56 270.856 929.99 271.271C929.85 271.372 929.71 271.473 929.57 271.574C928.17 272.607 926.84 273.721 925.58 274.915C925.46 275.037 925.33 275.158 925.21 275.27C924.69 275.776 924.17 276.292 923.68 276.829C923.57 276.94 923.47 277.051 923.36 277.163C922.17 278.459 921.05 279.825 920.02 281.263C919.95 281.364 919.88 281.465 919.81 281.567C919.36 282.204 918.92 282.862 918.5 283.52C918.44 283.622 918.37 283.723 918.31 283.824C917.36 285.363 916.5 286.963 915.73 288.613C915.7 288.674 915.68 288.734 915.65 288.795C915.3 289.575 914.97 290.364 914.66 291.164C914.63 291.245 914.6 291.316 914.57 291.397C913.91 293.138 913.35 294.94 912.9 296.783C912.9 296.803 912.89 296.823 912.89 296.844C912.68 297.734 912.49 298.635 912.33 299.547C912.32 299.607 912.31 299.678 912.3 299.739C911.98 301.642 911.77 303.576 911.7 305.55H887.75L884.33 254.698ZM1044.55 305.57H1039.63V284.219C1039.63 281.637 1037.57 279.552 1035.02 279.552H1031.16C1028.61 279.552 1026.55 281.637 1026.55 284.219V305.57H999.08C998.85 299.435 997.38 293.614 994.92 288.37C994.92 288.36 994.91 288.35 994.91 288.339C994.61 287.712 994.3 287.084 993.98 286.477C993.97 286.446 993.95 286.416 993.94 286.396C993.63 285.809 993.31 285.242 992.97 284.665C992.94 284.614 992.91 284.553 992.88 284.492C992.56 283.956 992.22 283.419 991.88 282.893C991.83 282.812 991.78 282.741 991.73 282.66C991.4 282.164 991.05 281.668 990.7 281.182C990.63 281.091 990.57 280.99 990.49 280.888C990.15 280.423 989.8 279.977 989.44 279.532C989.35 279.42 989.27 279.299 989.18 279.188C988.83 278.762 988.47 278.347 988.11 277.932C988 277.811 987.9 277.679 987.79 277.558C987.42 277.143 987.04 276.748 986.65 276.353C986.54 276.241 986.44 276.12 986.32 276.009C985.82 275.502 985.31 275.006 984.79 274.53V254.698H1030.05C1040.63 254.698 1049.41 249.028 1059.57 242.468C1072.53 234.096 1087.22 224.61 1109.93 224.61H1134.49V234.379C1130.24 234.379 1126.8 237.862 1126.8 242.165V262.301H1116.49C1112.96 262.301 1109.89 264.731 1109.03 268.193L1099.59 306.33L1097.95 312.971H1094.17V289.301C1094.17 286.436 1091.88 284.118 1089.05 284.118H1087.76C1084.93 284.118 1082.64 286.436 1082.64 289.301V312.971C1080.15 312.971 1078.14 315.006 1078.14 317.527V328.238H1067.73L1054.69 310.683C1052.29 307.463 1048.53 305.57 1044.55 305.57ZM1156.62 293.594V269.894C1156.62 265.692 1153.26 262.291 1149.11 262.291H1148V224.61H1195.16C1194.66 229.287 1194.14 233.63 1193.6 237.629C1193.59 237.68 1193.59 237.73 1193.58 237.771C1193.5 238.388 1193.41 238.996 1193.33 239.593C1193.32 239.654 1193.31 239.704 1193.31 239.765C1193.23 240.342 1193.15 240.919 1193.07 241.486C1193.06 241.567 1193.05 241.648 1193.03 241.739C1192.95 242.276 1192.87 242.812 1192.8 243.339C1192.79 243.43 1192.77 243.511 1192.76 243.602C1192.68 244.129 1192.6 244.645 1192.53 245.151C1192.52 245.222 1192.51 245.303 1192.5 245.374C1192.42 245.88 1192.34 246.386 1192.27 246.882C1192.26 246.953 1192.25 247.034 1192.23 247.105C1192.15 247.601 1192.07 248.097 1192 248.583C1191.99 248.644 1191.98 248.705 1191.97 248.765C1191.89 249.261 1191.81 249.747 1191.73 250.233C1191.72 250.274 1191.72 250.324 1191.71 250.365C1191.63 250.861 1191.55 251.347 1191.46 251.823C1191.46 251.853 1191.45 251.873 1191.45 251.904C1191.37 252.4 1191.28 252.886 1191.2 253.361C1191.2 253.372 1191.2 253.382 1191.2 253.382C1191.11 253.868 1191.03 254.354 1190.94 254.819L1179.14 293.624H1156.62V293.594ZM1242.69 246.902H1224.69H1214.83C1214.59 245.354 1214.34 243.734 1214.1 242.043C1214.09 242.003 1214.09 241.952 1214.08 241.901C1213.84 240.241 1213.6 238.51 1213.36 236.718C1213.35 236.627 1213.34 236.536 1213.32 236.455C1213.21 235.594 1213.1 234.723 1212.98 233.843C1212.98 233.812 1212.97 233.782 1212.97 233.741C1212.85 232.81 1212.74 231.858 1212.62 230.897C1212.61 230.816 1212.6 230.745 1212.59 230.664C1212.49 229.793 1212.38 228.902 1212.28 228.001C1212.27 227.87 1212.25 227.748 1212.24 227.617C1212.13 226.624 1212.02 225.622 1211.91 224.6C1211.91 224.6 1211.91 224.6 1211.91 224.589H1242.67V246.902H1242.69ZM1365.39 263.242L1359.69 274.611H1343.94V224.6H1402.87L1395.32 249.929H1386.81C1377.76 249.94 1369.48 255.083 1365.39 263.242ZM1496.75 271.584V256.601C1496.75 252.086 1493.13 248.421 1488.67 248.421H1480.83C1476.37 248.421 1472.75 252.086 1472.75 256.601V289.595H1451.94V224.61H1532.27V289.595H1514.38V279.765C1514.38 275.249 1510.76 271.584 1506.3 271.584H1496.75ZM1612.81 238.56L1593.2 247.652C1580.47 253.554 1572.31 266.421 1572.31 280.595V289.585H1547.11V224.6H1612.81V238.56ZM1709 246.518H1687.81V246.194C1687.81 238.409 1681.57 232.091 1673.88 232.091H1670.19V224.6H1709V246.518Z" fill="url(#paint2_linear_2665_24508)"/>
<path d="M1875.29 405.127V304.617H1789.86V362.526L1762.32 342.247H1738.81V221.024C1738.81 215.436 1734.33 210.9 1728.82 210.9H1714.7V176.844C1714.7 174.019 1712.06 171.883 1709.37 172.632C1688.34 178.443 1672.06 218.25 1672.06 266.48C1672.06 297.49 1678.78 325.017 1689.19 342.258H1635.11V287.022C1635.11 280.401 1629.81 275.025 1623.27 275.025H1604.75V229.265C1604.75 226.694 1602.69 224.618 1600.15 224.618H1594.62C1586.53 224.618 1579.97 231.259 1579.97 239.46V331.455H1563.58C1552.89 331.455 1544.23 340.233 1544.23 351.065V418.794H1471.61C1462.2 418.794 1454.57 426.519 1454.57 436.055V452.962H1354.24V440.247C1354.24 430.841 1346.72 423.218 1337.43 423.218H1314.61V351.663C1314.61 349.253 1312.68 347.289 1310.29 347.289C1306.8 347.289 1303.67 349.476 1302.44 352.786L1285.1 399.245H1271.41C1263.14 399.245 1256.43 406.038 1256.43 414.421V470.436H1192.54V302.643C1192.54 297.834 1196.39 293.936 1201.14 293.936H1216.03C1220.21 293.936 1223.61 290.494 1223.61 286.252C1223.61 282.01 1220.21 278.568 1216.03 278.568H1192.54V263.838C1192.54 259.029 1196.39 255.132 1201.14 255.132H1225.88C1230.06 255.132 1233.46 251.689 1233.46 247.448C1233.46 243.206 1230.06 239.763 1225.88 239.763H1142.53C1138.34 239.763 1134.95 243.206 1134.95 247.448C1134.95 251.689 1138.34 255.132 1142.53 255.132H1167.27C1172.02 255.132 1175.87 259.029 1175.87 263.838V278.568H1152.38C1148.2 278.568 1144.8 282.01 1144.8 286.252C1144.8 290.494 1148.2 293.936 1152.38 293.936H1167.27C1172.02 293.936 1175.87 297.834 1175.87 302.643V470.446H1139.52V346.601C1139.52 338.846 1133.32 332.559 1125.66 332.559H1107.11V298.968C1107.11 296.366 1105.02 294.25 1102.45 294.25H1098.14C1085.04 294.25 1074.44 305.002 1074.44 318.254V381.184H1070.14C1062.46 381.184 1056.24 387.491 1056.24 395.266V479.355L1027.95 519.577H998.481V383.755C998.481 374.209 993.804 365.279 985.99 359.934L974.599 352.128V242.264C974.599 239.541 972.421 237.334 969.733 237.334H966.655C953.355 237.334 942.583 248.268 942.603 261.742L942.693 315.834L931.872 325.847C925.986 331.293 922.639 338.998 922.639 347.077V519.597H893.9L882.859 511.326C877.443 507.267 870.878 505.08 864.133 505.08H787.671L752.508 473.129C744.204 465.587 733.453 461.416 722.301 461.416H660.368V452.982C660.368 441.654 651.305 432.471 640.124 432.471H626.224V309.193C626.224 284.936 606.819 265.266 582.867 265.266C579.07 265.266 575.982 268.384 575.982 272.241V328.337H569.018C558.516 328.337 549.992 336.963 549.992 347.613V427.389L550.012 432.471H504.387C504.387 421.001 495.214 411.707 483.892 411.707H446.651V345.173C446.651 335.728 439.097 328.064 429.764 328.064H416.154V411.707H374.036L369.619 283.276C369.47 279.024 372.837 275.501 377.034 275.501H382.23C383.689 275.501 385.008 274.893 385.967 273.921C387.136 272.737 387.766 271.006 387.446 269.173C386.986 266.582 384.628 264.78 382.03 264.78H368.98L368.67 255.678C368.55 252.236 370.679 249.098 373.926 248.055C387.796 243.59 398.557 232.049 402.075 217.623C402.944 214.049 406.042 211.488 409.669 211.488H415.854C419.032 211.488 421.63 208.855 421.63 205.646V205.109C421.63 201.89 419.032 199.258 415.854 199.258H306.467C303.29 199.258 300.692 201.89 300.692 205.109V205.646C300.692 208.855 303.29 211.488 306.467 211.488H312.653C316.29 211.488 319.378 214.049 320.247 217.623C323.764 232.059 334.516 243.6 348.396 248.055C351.633 249.098 353.771 252.236 353.652 255.678L353.342 264.78H340.092C338.633 264.78 337.314 265.387 336.355 266.349C335.186 267.533 334.556 269.264 334.886 271.097C335.346 273.689 337.714 275.501 340.312 275.501H345.298C349.495 275.501 352.862 279.024 352.712 283.276L348.296 411.707H340.681L310.744 382.895C304.299 376.689 295.746 373.237 286.862 373.237H268.446C267.337 257.784 247.482 165.809 223.161 165.809C198.839 165.809 178.984 257.784 177.875 373.237H1L1.21983 603.271H1919.76V405.127H1875.29Z" fill="url(#paint3_linear_2665_24508)"/>
<path d="M1920 328.352H1903.56C1903.4 327.856 1903.23 327.34 1903.06 326.894C1902.89 326.449 1902.83 326.236 1902.72 325.882C1902.45 325.133 1902.17 324.383 1901.88 323.654L1901.49 322.642C1901.31 322.186 1901.12 321.741 1900.94 321.296C1900.76 320.85 1900.65 320.638 1900.51 320.283C1900.22 319.625 1899.92 318.967 1899.62 318.319C1899.47 317.985 1899.31 317.651 1899.15 317.307C1898.99 316.963 1898.77 316.517 1898.57 316.132C1898.37 315.748 1898.06 315.12 1897.79 314.644C1897.52 314.168 1897.36 313.834 1897.13 313.439C1896.9 313.045 1896.75 312.761 1896.55 312.427L1895.99 311.475C1895.7 311.01 1895.41 310.585 1895.12 310.109C1894.95 309.845 1894.66 309.41 1894.49 309.137L1893.65 307.952C1893.43 307.628 1893.2 307.325 1892.97 307.011L1892.06 305.836L1891.52 305.178C1891.12 304.703 1890.73 304.247 1890.32 303.802C1890.16 303.619 1890 303.447 1889.83 303.275C1889.66 303.103 1889.21 302.627 1888.89 302.313C1888.74 302.151 1888.58 302 1888.42 301.848C1887.99 301.433 1887.55 301.028 1887.1 300.653L1886.66 300.268C1886.27 299.944 1885.87 299.631 1885.47 299.337L1885.16 299.094C1884.68 298.74 1884.16 298.416 1883.71 298.082L1883.28 297.818C1882.78 297.515 1882.28 297.221 1881.77 296.958L1881.56 296.857C1881.09 296.614 1880.62 296.401 1880.14 296.199L1879.76 296.037C1879.24 295.824 1878.76 295.632 1878.18 295.47L1877.86 295.368C1877.37 295.227 1876.86 295.105 1876.39 294.994C1876.3 294.984 1876.21 294.963 1876.12 294.933C1875.57 294.832 1875.02 294.741 1874.47 294.68H1874.09C1873.52 294.68 1872.95 294.589 1872.37 294.589C1871.79 294.589 1871.23 294.589 1870.66 294.68H1870.28C1869.73 294.741 1869.18 294.832 1868.63 294.933L1868.36 294.994C1867.87 295.105 1867.36 295.227 1866.89 295.368L1866.24 295.571C1865.82 295.702 1865.4 295.854 1864.99 296.037L1864.61 296.199C1864.13 296.401 1863.61 296.614 1863.19 296.857L1862.98 296.958C1862.47 297.221 1861.98 297.515 1861.47 297.818L1861.04 298.082C1860.55 298.395 1860.04 298.719 1859.59 299.094L1859.27 299.337C1858.88 299.631 1858.48 299.944 1858.09 300.268L1857.64 300.653C1857.2 301.028 1856.76 301.433 1856.33 301.848L1855.85 302.313C1855.52 302.627 1855.2 302.961 1854.89 303.295C1854.61 303.589 1854.58 303.629 1854.42 303.802C1854.02 304.247 1853.62 304.703 1853.23 305.178L1852.69 305.836L1851.78 307.011L1851.09 307.952L1850.32 309.056C1850.13 309.339 1849.94 309.613 1849.76 309.906C1849.42 310.412 1849.09 310.919 1848.76 311.475L1848.2 312.427C1848 312.761 1847.81 313.095 1847.62 313.439C1847.43 313.784 1847.17 314.229 1846.95 314.644C1846.73 315.059 1846.43 315.657 1846.17 316.132L1845.6 317.307C1845.44 317.631 1845.28 317.965 1845.13 318.319C1844.82 318.967 1844.53 319.625 1844.24 320.283C1844.09 320.617 1843.95 320.941 1843.81 321.296C1843.67 321.65 1843.44 322.186 1843.26 322.642C1843.08 323.098 1842.99 323.31 1842.86 323.654C1842.58 324.383 1842.3 325.133 1842.03 325.882C1841.91 326.206 1841.8 326.53 1841.68 326.894C1841.56 327.259 1841.35 327.856 1841.19 328.352H1791.81C1791.94 326.439 1792.04 324.495 1792.11 322.531V322.247C1792.17 320.314 1792.21 318.36 1792.21 316.375C1792.21 297.778 1789.37 280.942 1784.77 268.793C1780.17 256.645 1773.77 249.072 1766.77 249.072C1766.38 249.082 1765.98 249.112 1765.59 249.153H1765.25C1764.96 249.153 1764.67 249.254 1764.38 249.335L1764.05 249.416C1763.67 249.517 1763.29 249.649 1762.91 249.791L1762.81 249.841C1762.47 249.983 1762.13 250.145 1761.81 250.327L1761.46 250.52C1761.19 250.671 1760.92 250.833 1760.66 251.006L1760.33 251.228C1759.96 251.481 1759.61 251.745 1759.27 252.028L1759.05 252.21C1758.77 252.453 1758.49 252.696 1758.21 252.97L1757.84 253.334C1757.6 253.567 1757.37 253.81 1757.14 254.063C1756.91 254.316 1756.9 254.316 1756.79 254.448C1756.47 254.812 1756.15 255.187 1755.84 255.592C1755.73 255.723 1755.62 255.865 1755.52 256.007L1754.86 256.898C1754.79 256.999 1754.72 257.09 1754.65 257.191L1753.89 258.345L1753.5 258.963C1753.22 259.419 1752.94 259.884 1752.67 260.37L1752.27 261.109C1752.11 261.403 1751.95 261.696 1751.8 262C1751.65 262.304 1751.51 262.577 1751.36 262.871C1751.21 263.164 1751.08 263.438 1750.95 263.731C1750.82 264.025 1750.77 264.096 1750.69 264.278L1749.82 266.242L1749.37 267.356L1749.05 268.166C1748.9 268.55 1748.75 268.945 1748.61 269.34C1748.47 269.735 1748.42 269.866 1748.33 270.119C1747.82 271.557 1747.33 273.035 1746.87 274.584L1746.66 275.303C1746.51 275.789 1746.37 276.315 1746.24 276.781L1746.06 277.419C1745.61 279.109 1745.19 280.851 1744.8 282.643L1744.65 283.321C1744.53 283.888 1744.41 284.455 1744.3 285.032C1744.3 285.214 1744.23 285.406 1744.19 285.589C1743.94 286.885 1743.7 288.211 1743.48 289.557H1736.48C1732.73 289.567 1729.69 292.645 1729.68 296.441V328.352H1693.8V305.067C1693.8 304.207 1693.11 303.508 1692.26 303.508H1691.86C1688.27 303.508 1685.36 306.454 1685.36 310.089V328.352H1666.71V320.83C1666.71 316.649 1663.36 313.257 1659.23 313.257C1658.35 313.257 1657.54 313.622 1656.96 314.209C1656.38 314.796 1656.02 315.616 1656.02 316.507V328.352H1516.48L1498.35 328.392C1495 294.933 1492.49 258.386 1491.88 220.938C1491.8 216.26 1494.95 212.211 1499.42 211.016C1519.86 205.59 1536.13 189.766 1542.41 169.468C1543.54 165.833 1546.9 163.383 1550.67 163.383H1565.1C1569.38 163.383 1572.85 159.87 1572.85 155.537C1572.85 151.204 1569.38 147.691 1565.1 147.691H1402.41C1398.13 147.691 1394.66 151.204 1394.66 155.537C1394.66 159.87 1398.13 163.383 1402.41 163.383H1416.86C1420.63 163.383 1423.99 165.833 1425.12 169.468C1431.4 189.756 1447.67 205.58 1468.11 211.016C1472.58 212.211 1475.72 216.26 1475.65 220.938C1475.04 258.406 1472.53 294.984 1469.17 328.453H1441.23L1439.79 328.514H1438.94L1437.56 328.585L1436.74 328.635L1435.38 328.737L1434.62 328.797L1433.25 328.919L1432.58 328.98L1431.13 329.132L1430.6 329.192L1428.97 329.395H1428.69C1426.07 329.749 1423.69 330.184 1421.37 330.691L1419.73 331.075H1419.64C1419.12 331.197 1418.64 331.328 1418.12 331.47H1418.02L1416.55 331.895H1416.48C1415.98 332.037 1415.48 332.199 1415.01 332.351V286.146C1415.01 282.572 1412.15 279.676 1408.62 279.676H1397C1384.81 279.676 1374.93 289.679 1374.93 302.02V332.796L1357.58 347.587C1352.91 351.566 1350.21 357.438 1350.21 363.613V374.233H1268.8C1268.79 372.502 1268.06 370.842 1266.8 369.667L1215.2 321.073C1214.03 319.888 1212.13 319.888 1210.96 321.073C1210.37 321.67 1210.05 322.49 1210.08 323.33V357.752C1210.08 361.032 1208.53 364.12 1205.92 366.063L1194.92 374.233H992.36C942.52 374.233 924.75 361.852 909.06 350.948C896.79 342.404 885.19 334.325 861.86 334.325H841.92L836.42 334.295V333.677C836.42 323.948 844.2 316.062 853.82 316.062H873.65C876.96 316.062 879.93 313.632 880.26 310.291C880.64 306.464 877.65 303.204 873.95 303.204H836.42V303.103C836.42 293.384 844.2 285.498 853.82 285.498H873.65C876.96 285.498 879.93 283.068 880.26 279.727C880.64 275.9 877.65 272.64 873.95 272.64H866.94C866.95 272.387 866.97 272.144 866.97 271.891C866.97 251.38 850.55 234.757 830.3 234.757C810.04 234.757 793.63 251.38 793.63 271.891C793.63 272.144 793.65 272.387 793.65 272.64H786.95C783.63 272.64 780.66 275.08 780.34 278.411C779.95 282.238 782.95 285.498 786.65 285.498H806.78C816.38 285.498 824.17 293.374 824.17 303.103V303.204H786.95C783.63 303.204 780.66 305.644 780.34 308.975C779.95 312.802 782.95 316.062 786.65 316.062H806.78C816.38 316.062 824.17 323.938 824.17 333.677V334.264H731.63V294.943C731.64 291.42 728.82 288.565 725.34 288.555C725.33 288.555 725.33 288.555 725.32 288.555C721.16 288.555 717.39 290.266 714.66 293.02C711.94 295.783 710.25 299.6 710.25 303.812V334.305H523.33C523.52 333.353 523.62 332.381 523.62 331.409C523.62 329.911 523.02 328.544 522.04 327.562C521.07 326.57 519.73 325.963 518.24 325.963H464.45V308.185H509.62C517.35 308.185 523.62 301.838 523.62 294.012C523.62 292.513 523.02 291.147 522.04 290.165C521.07 289.173 519.73 288.565 518.24 288.565H464.45V270.788H509.62C517.35 270.788 523.62 264.44 523.62 256.614C523.62 255.116 523.02 253.749 522.04 252.767C521.07 251.775 519.73 251.168 518.24 251.168H464.45V233.39H509.62C517.35 233.39 523.62 227.042 523.62 219.217C523.61 216.21 521.21 213.78 518.24 213.77H464.45V205.843C464.45 199.657 469.4 194.646 475.5 194.646L513.91 194.636C519.26 194.636 523.6 190.242 523.6 184.826C523.6 179.409 519.26 175.016 513.91 175.016H380.87C375.52 175.016 371.18 179.409 371.18 184.826C371.18 190.242 375.52 194.636 380.87 194.636H418.8C425.59 196.428 429.5 201.601 431.2 208.08C431.29 208.435 431.37 208.799 431.45 209.153C431.47 209.224 431.49 209.305 431.5 209.376C431.57 209.71 431.64 210.044 431.7 210.389C431.7 210.49 431.7 210.591 431.75 210.692C431.81 211.016 431.85 211.35 431.9 211.705V212.069C431.9 212.383 431.98 212.707 432.01 213.031V213.416C432.01 213.74 432.07 214.064 432.08 214.428V214.782C432.13 215.795 432.13 216.898 432.08 217.971V218.528C432.08 218.71 432.08 219.034 432.03 219.287C431.98 219.541 432.03 219.743 431.98 219.966L431.92 220.685C431.92 220.928 431.87 221.17 431.84 221.413L431.75 222.092C431.75 222.345 431.68 222.608 431.64 222.861C431.6 223.114 431.58 223.297 431.54 223.509C431.5 223.722 431.45 224.036 431.4 224.299L431.28 224.916C431.23 225.2 431.17 225.483 431.11 225.757C431.05 226.03 431.02 226.131 430.98 226.324C430.94 226.516 430.83 226.941 430.75 227.245C430.67 227.549 430.68 227.559 430.64 227.711C430.51 228.166 430.39 228.622 430.25 229.077C430.11 229.533 430.01 229.857 429.89 230.282L429.41 231.841V231.973L428.93 233.552C428.93 233.623 428.3 235.627 428.27 235.739C428.11 236.245 427.37 238.695 427.19 239.282C427.1 239.566 401.75 322.895 398.23 334.396L184.2 334.274V288.717C184.2 285.984 182.01 283.766 179.31 283.766H176.72C169.05 283.766 162.2 288.626 159.57 295.915L148.76 325.902H122.57C115.78 325.902 109.58 329.81 106.57 335.965L102.4 344.479C99.63 350.22 93.88 353.854 87.57 353.864H49.63V315.677C49.63 306.575 42.34 299.195 33.35 299.195H0V613.4H1920V388.407H1908.65C1908.83 387.04 1908.97 385.653 1909.11 384.266L1909.2 383.254C1909.3 382.191 1909.38 381.128 1909.45 380.044L1909.54 378.728C1909.6 377.716 1909.64 376.633 1909.68 375.58V374.314C1909.68 372.857 1909.75 371.399 1909.75 369.921V364.788C1909.75 363.775 1909.68 362.824 1909.63 361.852C1909.63 361.467 1909.63 361.103 1909.56 360.728C1909.5 359.716 1909.44 358.805 1909.37 357.853L1909.28 356.841C1909.19 355.828 1909.1 354.816 1908.99 353.874L1908.9 353.054C1908.78 352.042 1908.65 350.969 1908.51 349.946L1908.42 349.339C1908.27 348.235 1908.1 347.142 1907.92 346.059C1907.92 345.927 1907.92 345.805 1907.85 345.674C1907.66 344.51 1907.45 343.366 1907.23 342.242V342.06C1906.99 340.865 1906.74 339.67 1906.47 338.506H1920V328.352ZM247.57 384.236C247.59 388.832 243.92 392.578 239.38 392.588H192.43C187.89 392.598 184.21 388.872 184.2 384.276C184.2 384.276 184.2 384.266 184.2 384.256V344.429H247.57V384.236ZM392.96 351.455C392.86 351.799 392.75 352.153 392.64 352.467C392.25 353.763 391.85 355.059 391.45 356.355C391.18 357.256 390.91 358.147 390.63 359.037L389.82 361.7C388.73 365.253 387.66 368.766 386.59 372.249C386.59 372.36 386.52 372.482 386.48 372.593L381.99 387.273C381.86 387.718 381.72 388.174 381.58 388.619L376.44 405.415L369.49 397.984C366.26 394.532 361.77 392.578 357.07 392.578H310.8V359.938C310.8 355.848 307.53 352.538 303.49 352.538H284.18V344.439H395.11C394.4 346.777 393.68 349.116 392.96 351.455ZM710.24 351.07H695.94C690.27 351.07 685.36 355.049 684.12 360.647L668.67 429.955C666.58 439.431 658.26 446.174 648.67 446.153H464.45V420.378H509.62C517.35 420.378 523.62 414.03 523.62 406.205C523.62 404.706 523.02 403.339 522.04 402.357C521.07 401.365 519.73 400.758 518.24 400.758H464.45V382.98H509.62C517.35 382.98 523.62 376.633 523.62 368.807C523.62 367.309 523.02 365.942 522.04 364.96C521.07 363.968 519.73 363.36 518.24 363.36H464.45V345.583H509.62C511.52 345.583 513.41 345.198 515.16 344.429H710.24V351.07ZM807.36 433.721C805.13 430.421 803.94 426.513 803.94 422.504V404.868C803.94 400.758 800.65 397.427 796.59 397.427H795.81C794.56 397.427 793.55 398.44 793.54 399.705C793.54 399.715 793.54 399.725 793.54 399.725V428.649H766.3V410.669C766.29 405.516 763.52 400.778 759.07 398.288L731.62 382.98V344.429H824.16V447.824H816.87L807.36 433.721ZM947.43 393.479L923.87 401.092C916.47 403.481 911.44 410.436 911.43 418.303V447.793H895.43V416.824C895.43 411.793 891.4 407.713 886.43 407.713H882.81V391.849C882.82 385.815 877.99 380.925 872.03 380.915C872.02 380.915 872.02 380.915 872.01 380.915H865.58C863.29 380.915 861.44 382.798 861.44 385.106V447.824H836.42V344.439H842.04V344.429H861.98C882.2 344.429 891.61 350.979 903.52 359.27L905.27 360.495L905.71 360.799L907.21 361.811L907.66 362.115C908.99 363.006 910.35 363.907 911.72 364.808H911.79C912.46 365.233 913.15 365.669 913.85 366.094L914.1 366.256C916.34 367.633 918.73 368.999 921.29 370.305H921.36C922.22 370.751 923.1 371.186 924.01 371.621C926.76 372.948 929.73 374.223 933.01 375.418C936.23 376.612 939.71 377.726 943.5 378.738H943.63C944.88 379.073 946.17 379.397 947.49 379.751L947.43 393.479ZM1119 409.1C1111.15 409.09 1103.75 412.795 1099 419.123L1072.82 454.09H989V425.045C989 423.911 988.56 422.818 987.77 422.008C987.03 421.269 986.04 420.834 985 420.783C982.58 420.753 980.6 422.717 980.57 425.167V454.09H960V382.211C961.14 382.383 962.29 382.535 963.48 382.677H963.58C964.73 382.818 965.89 382.95 967.08 383.071H967.4C968.52 383.193 969.67 383.304 970.83 383.406L971.46 383.456L974.75 383.709L975.75 383.77L978.82 383.952L980.41 384.013L983.11 384.124C983.89 384.124 984.69 384.124 985.49 384.185L987.61 384.236H1188.84L1188.93 409.1H1119ZM1350.16 435.867H1268.75V384.357H1350.16V435.867ZM1438.8 387.647C1436.34 387.647 1434.08 389.014 1432.91 391.201C1432.81 391.393 1432.71 391.586 1432.63 391.788C1432.28 392.618 1432.1 393.519 1432.1 394.42V440.423H1414.82V343.143L1416.07 342.647L1416.33 342.556C1417.57 342.1 1418.91 341.675 1420.33 341.29L1420.96 341.118L1422.22 340.804L1423.05 340.622C1423.72 340.47 1424.4 340.329 1425.11 340.197L1426.25 339.984L1427.4 339.792L1428.9 339.569L1429.96 339.427C1430.71 339.326 1431.47 339.245 1432.26 339.154L1433.26 339.063L1435.26 338.891L1436.15 338.82L1439.07 338.648H1439.8L1442.36 338.567C1442.36 338.567 1453.99 338.567 1468.1 338.557C1463.78 378.941 1458.34 414.283 1453.79 440.454H1445.47V394.42C1445.48 390.685 1442.49 387.658 1438.8 387.647ZM1656 347.122C1654.08 348.002 1652.23 349.015 1650.45 350.159C1648.7 351.293 1647.03 352.538 1645.45 353.905L1645.29 354.036C1644.19 354.998 1643.14 356.01 1642.14 357.073L1641.88 357.357C1641.58 357.681 1641.29 358.005 1641 358.369L1640.7 358.724C1640.13 359.382 1639.57 360.07 1639.04 360.748L1638.9 360.931C1638.67 361.234 1638.45 361.548 1638.22 361.862L1637.79 362.469L1637.18 363.381C1637.02 363.624 1636.87 363.877 1636.71 364.13C1636.43 364.575 1636.15 365.031 1635.89 365.496C1635.71 365.8 1635.53 366.114 1635.36 366.428L1635.01 367.086L1634.52 368.098C1634.37 368.412 1634.21 368.706 1634.07 369.02C1633.82 369.556 1633.57 370.103 1633.34 370.649L1633.11 371.227C1632.94 371.642 1632.77 372.067 1632.62 372.492C1632.53 372.735 1632.44 372.968 1632.36 373.211C1632.21 373.636 1632.07 374.061 1631.93 374.497C1631.87 374.699 1631.8 374.891 1631.74 375.094C1631.55 375.701 1631.38 376.319 1631.22 376.947C1631.22 377.119 1631.13 377.301 1631.09 377.473C1630.97 377.959 1630.86 378.445 1630.76 378.931C1630.76 379.154 1630.67 379.366 1630.63 379.579C1630.52 380.125 1630.42 380.672 1630.34 381.219C1630.34 381.34 1630.34 381.462 1630.28 381.583C1630.18 382.251 1630.09 382.92 1630.02 383.608V384.165C1630.02 384.681 1629.93 385.177 1629.9 385.734V388.427H1615.22C1608.53 388.437 1602.3 391.869 1598.65 397.539L1569.07 443.329H1514.21C1509.56 416.895 1503.88 380.439 1499.39 338.537C1509.84 338.526 1517.52 338.526 1517.52 338.516H1656V347.122ZM1685.34 344.378C1684.54 344.176 1683.72 343.993 1682.89 343.841L1682.46 343.76C1681.78 343.639 1681.1 343.528 1680.46 343.437L1679.82 343.356C1679.15 343.295 1678.49 343.234 1677.82 343.173L1677.15 343.123C1676.3 343.123 1675.44 343.042 1674.57 343.042C1673.86 343.042 1673.16 343.042 1672.46 343.092C1672.02 343.092 1671.59 343.153 1671.15 343.183L1670.47 343.244C1669.89 343.295 1669.33 343.366 1668.76 343.437H1668.56C1667.94 343.528 1667.31 343.619 1666.7 343.73V338.476H1685.35L1685.34 344.378ZM1729.7 388.407H1719.37C1719.37 387.708 1719.37 387.01 1719.32 386.321V385.734C1719.32 385.187 1719.28 384.651 1719.2 384.124V383.618C1719.13 382.94 1719.05 382.272 1718.95 381.593C1718.95 381.452 1718.9 381.31 1718.88 381.178C1718.8 380.632 1718.7 380.105 1718.6 379.569L1718.48 378.971C1718.36 378.415 1718.24 377.858 1718.1 377.301C1718.1 377.2 1718.1 377.098 1718.03 377.007C1717.86 376.369 1717.69 375.742 1717.5 375.114L1717.32 374.557C1717.17 374.081 1717.02 373.626 1716.86 373.16C1716.79 372.978 1716.72 372.786 1716.66 372.603C1716.44 371.996 1716.21 371.399 1715.96 370.811C1715.91 370.69 1715.85 370.569 1715.8 370.437L1715.17 369.03L1714.87 368.412C1714.67 367.987 1714.46 367.572 1714.24 367.157C1714.15 366.985 1714.07 366.823 1713.97 366.651C1713.68 366.114 1713.38 365.577 1713.07 365.051C1712.95 364.859 1712.83 364.666 1712.72 364.474C1712.49 364.12 1712.27 363.755 1712.03 363.401L1711.62 362.783C1711.35 362.368 1711.06 361.973 1710.78 361.579L1710.29 360.91L1709.43 359.807L1708.91 359.179C1708.67 358.886 1708.42 358.602 1708.17 358.319C1707.92 358.035 1707.82 357.914 1707.64 357.721C1707.26 357.296 1706.87 356.881 1706.47 356.466L1705.89 355.899L1705.12 355.15C1704.9 354.947 1704.68 354.735 1704.45 354.542C1704.22 354.35 1703.92 354.067 1703.65 353.834C1703.38 353.601 1703.02 353.297 1702.71 353.044L1701.71 352.254L1700.96 351.698L1700.18 351.141L1699.4 350.594L1698.4 349.946L1697.23 349.227L1696.39 348.741L1695.53 348.276L1694.69 347.84L1693.84 347.415V338.476H1729.76L1729.7 388.407ZM1837.65 342.029H1837.63C1837.62 342.09 1837.62 342.151 1837.63 342.212C1837.41 343.335 1837.2 344.479 1837 345.644L1836.94 346.028C1836.76 347.112 1836.59 348.205 1836.44 349.308L1836.35 349.916C1836.21 350.928 1836.08 351.941 1835.96 353.024L1835.87 353.844C1835.76 354.856 1835.67 355.808 1835.58 356.81L1835.49 357.823C1835.42 358.774 1835.35 359.736 1835.3 360.698C1835.3 361.022 1835.3 361.325 1835.24 361.649C1835.24 362.55 1835.13 364.018 1835.1 364.909V369.89C1835.1 371.247 1835.1 372.826 1835.17 374.284V375.549C1835.17 376.562 1835.26 377.655 1835.32 378.698L1835.41 380.014C1835.48 381.097 1835.56 382.16 1835.66 383.223L1835.75 384.236C1835.88 385.623 1836.03 387.01 1836.2 388.376H1819.8V348.255C1819.8 344.955 1817.82 341.989 1814.8 340.754L1809.19 338.476H1838.41C1838.14 339.691 1837.88 340.835 1837.65 342.029Z" fill="url(#paint4_linear_2665_24508)"/>
<path d="M1038.27 542.407H968.253C971.96 526.249 974.019 508.441 974.019 489.742C974.019 416.071 942.153 356.35 902.833 356.35C863.523 356.35 831.647 416.071 831.647 489.742C831.647 491.322 831.667 492.901 831.697 494.48H801.86V462.641C801.86 457.447 797.703 453.236 792.577 453.236H702.106C685.978 425.577 686.018 367.983 684.139 334.513C683.68 326.343 681.681 280.776 681.491 275.329C681.471 274.651 681.441 273.982 681.421 273.304L681.411 273.011C681.401 272.798 681.391 272.595 681.391 272.383C681.371 271.755 681.341 271.138 681.331 270.52C681.271 268.809 681.212 267.078 681.162 265.357C747.131 263.605 797.903 252.844 797.903 239.855C797.903 226.755 746.282 215.922 679.503 214.302C679.473 213.442 679.443 212.581 679.423 211.731C679.393 210.799 679.363 209.878 679.333 208.957C679.283 207.388 679.233 205.859 679.183 204.361C679.063 200.483 678.943 196.839 678.843 193.477C678.783 191.331 678.713 189.316 678.654 187.413C706.902 181.491 727.756 160.767 727.756 136.116C727.756 108.366 701.326 85.6176 667.682 83.3195V61.6848C670.889 59.7511 673.048 56.2179 673.048 52.1583C673.048 46.0333 668.141 41.0625 662.096 41.0625C656.051 41.0625 651.144 46.0232 651.144 52.1583C651.144 56.2179 653.303 59.7511 656.51 61.6848V83.3195C622.866 85.6075 596.436 108.366 596.436 136.116C596.436 160.767 617.29 181.481 645.539 187.413C645.479 189.316 645.419 191.331 645.349 193.477C645.239 196.839 645.119 200.483 645.009 204.361C644.959 205.859 644.909 207.388 644.859 208.957C644.829 209.868 644.799 210.799 644.769 211.731C644.739 212.581 644.709 213.442 644.689 214.302C577.91 215.922 526.289 226.755 526.289 239.855C526.289 252.854 577.051 263.605 643.031 265.357C642.971 267.078 642.911 268.809 642.861 270.52C642.841 271.148 642.821 271.765 642.791 272.383C642.791 272.595 642.781 272.798 642.771 273.011L642.761 273.304C642.741 273.982 642.711 274.651 642.691 275.329C642.501 280.776 640.503 326.343 640.053 334.513C638.184 367.983 638.214 425.577 622.087 453.236H615.352V379.696C615.352 372.275 609.406 366.251 602.082 366.251H590.82C587.613 366.251 585.005 368.894 585.005 372.144V401.543C585.005 404.479 582.657 406.868 579.749 406.868H402.004L400.116 406.848C397.687 364.611 370.738 331.324 337.833 331.324C337.083 331.324 336.344 331.365 335.605 331.395V252.56C335.605 248.248 331.718 244.988 327.551 245.828C288.81 253.704 258.603 317.697 258.603 395.479C258.603 398.82 258.663 402.13 258.773 405.421H230.015L225.299 390.488C221.072 377.094 208.791 368.003 194.912 368.003H184.48V362.111H193.533C197.02 362.111 199.848 359.246 199.848 355.712V355.702C199.848 354.275 198.709 353.111 197.29 353.111H184.48V344.343H193.533C197.02 344.343 199.848 341.478 199.848 337.945V337.935C199.848 336.507 198.709 335.343 197.29 335.343H184.48V326.576H193.533C197.02 326.576 199.848 323.711 199.848 320.178V320.168C199.848 318.74 198.709 317.576 197.29 317.576H184.48V308.798H193.533C197.02 308.798 199.848 305.933 199.848 302.4C199.848 300.973 198.709 299.808 197.29 299.808H158.809C153.673 299.808 149.127 303.17 147.548 308.12L123.216 384.657H110.286L102.122 322.243C100.913 312.98 95.5673 304.789 87.6233 300.041C80.2989 295.658 75.8123 287.69 75.8123 279.075V167.51C75.8123 163.571 71.6854 161.03 68.2381 162.853L57.9959 168.249C53.6791 170.527 50.7114 174.768 50.0219 179.648L42.2379 234.621H34.7735C29.8173 234.621 25.5006 238.033 24.2815 242.892L19.6051 261.571H0V623.519H1219.44L1038.27 542.407ZM737.898 245.798C737.898 248.642 713.577 251.021 680.712 251.69L680.642 249.675C680.582 247.721 680.512 245.767 680.452 243.834C680.442 243.52 680.432 243.206 680.422 242.892C680.392 241.89 680.362 240.908 680.322 239.916C713.387 240.564 737.898 242.953 737.898 245.798ZM586.274 245.798C586.274 242.953 610.775 240.564 643.84 239.916C643.81 240.908 643.78 241.89 643.74 242.892C643.73 243.206 643.72 243.52 643.71 243.834C643.65 245.767 643.58 247.721 643.52 249.675L643.45 251.69C610.595 251.021 586.274 248.642 586.274 245.798Z" fill="url(#paint5_linear_2665_24508)"/>
<path d="M1882.38 178.103C1877.01 182.072 1873.85 188.399 1873.85 195.132V247.067H1855.86V236.579C1855.86 234.503 1854.2 232.823 1852.15 232.823H1848.27V215.987C1848.27 213.689 1846.63 211.624 1844.36 211.391C1841.77 211.127 1839.56 213.203 1839.56 215.774V232.823H1833.39C1828.1 232.823 1823.82 237.156 1823.82 242.511V290.347H1781.67V237.49L1786.67 232.418C1792.04 226.981 1792.04 218.174 1786.67 212.737L1781.67 207.665V185.281C1781.67 182.659 1782.17 180.088 1783.14 177.719C1784.11 175.35 1785.54 173.163 1787.37 171.32L1808.69 149.716C1812.85 145.504 1818.49 143.135 1824.37 143.135H1830.08C1832.58 143.135 1834.8 141.293 1835.03 138.772C1835.31 135.887 1833.08 133.457 1830.29 133.457H1719.76C1717.26 133.457 1715.04 135.3 1714.81 137.82C1714.53 140.706 1716.76 143.135 1719.55 143.135H1725.48C1731.35 143.135 1736.99 145.504 1741.14 149.706L1762.47 171.32C1766.13 175.016 1768.18 180.037 1768.18 185.281V207.665L1763.17 212.737C1757.8 218.174 1757.8 226.981 1763.17 232.418L1768.18 237.49V290.347H1762.37V269.481C1762.37 267.011 1760.59 264.794 1758.16 264.541C1755.38 264.258 1753 266.495 1753 269.259V290.347H1738.39V233.856C1738.39 232.448 1737.26 231.304 1735.88 231.304C1732.94 231.304 1730.29 232.509 1728.38 234.453C1726.46 236.397 1725.27 239.09 1725.27 242.056V297.373L1710.24 327.046C1708.2 331.085 1704.09 333.626 1699.61 333.626H1664.19V306.423C1664.19 301.341 1661.76 296.573 1657.66 293.647L1645.08 284.647L1644.93 179.166C1644.92 168.506 1639.62 158.574 1630.83 152.713C1629.91 152.105 1628.91 151.822 1627.94 151.822C1625.19 151.822 1622.66 154.029 1622.65 157.167C1622.61 177.111 1622.6 221.383 1622.6 233.977C1622.6 236.103 1621.53 238.077 1619.76 239.221L1618.07 240.315C1611.96 244.273 1607.65 250.509 1606.04 257.667L1561.89 454.343H1545.99L1541.59 431.2C1541.04 428.325 1538.56 426.24 1535.66 426.25V375.843C1535.66 373.717 1533.94 371.976 1531.86 371.976C1523.08 371.976 1515.13 375.58 1509.37 381.411C1503.63 387.232 1500.07 395.281 1500.07 404.18V445.515C1500.07 452.551 1498.2 459.456 1494.66 465.52L1480.95 489.018H1473.09V460.286C1473.09 456.824 1470.64 453.716 1467.25 453.26C1463.14 452.713 1459.6 455.973 1459.6 460.033V489.018H1447.05V472.394C1447.05 470.319 1445.37 468.486 1443.31 468.588C1442.4 468.628 1441.57 469.023 1440.96 469.63C1440.33 470.278 1439.93 471.189 1439.93 472.182V489.018H1431.04L1425.82 488.684C1425.86 486.871 1425.88 485.049 1425.88 483.217C1425.88 403.005 1392.17 337.99 1350.59 337.99V330.883H1364.97C1367.61 330.883 1370.01 329.799 1371.74 328.048C1373.48 326.286 1374.55 323.837 1374.54 321.144C1374.54 320.324 1373.85 319.676 1373.04 319.676H1350.59V307.436H1364.97C1367.61 307.436 1370.01 306.353 1371.74 304.601C1373.48 302.84 1374.55 300.39 1374.54 297.697C1374.54 296.877 1373.85 296.229 1373.04 296.229H1350.59V283.989H1364.97C1367.61 283.989 1370.01 282.906 1371.74 281.154C1373.48 279.393 1374.55 276.943 1374.54 274.25C1374.54 273.43 1373.85 272.782 1373.04 272.782H1350.59V260.542H1364.97C1370.28 260.542 1374.58 256.169 1374.54 250.793C1374.54 249.983 1373.85 249.335 1373.04 249.335H1350.59V232.631C1350.59 225.777 1344.46 220.644 1337.81 221.869C1278.52 232.863 1232.35 319.412 1232.35 424.569C1232.35 427.576 1232.4 430.573 1232.47 433.549C1230.01 433.549 1227.77 434.561 1226.15 436.201C1224.53 437.841 1223.53 440.109 1223.53 442.62V462.928H1216.95C1212.31 462.928 1208.54 466.745 1208.54 471.443V480.058H1178.56V408.098C1178.56 400.11 1173.25 393.124 1165.63 391.079L1148.78 386.574V349.865C1148.78 340.845 1144.1 332.482 1136.46 327.846L1136.19 327.673C1132.08 325.183 1126.85 328.18 1126.85 333.029V480.058H1110.59C1110.59 461.481 1101.64 446.426 1090.62 446.426C1079.59 446.426 1070.65 461.481 1070.65 480.058H1052.8C1050.3 480.058 1047.9 481.05 1046.13 482.832L1036.67 489.645L1032.72 368.169C1032.34 356.658 1041.45 347.111 1052.82 347.111H1071.4C1077.81 347.111 1083.32 342.029 1083.44 335.53C1083.56 328.909 1078.29 323.502 1071.79 323.502H1017.73L1016.31 282.906C1015.81 268.722 1027.02 256.958 1041.02 256.958H1064.13C1069.99 256.958 1074.64 251.744 1073.8 245.64C1073.12 240.709 1068.72 237.176 1063.8 237.176C1061.88 237.176 1060.32 235.647 1060.2 233.704C1060.09 231.821 1059.89 229.958 1059.6 228.136C1055.55 202.087 1034.51 182.234 1009.16 182.234C983.813 182.234 962.779 202.087 958.722 228.136C958.442 229.968 958.232 231.821 958.122 233.704C958.002 235.647 956.443 237.176 954.525 237.176H954.505C951.807 237.176 949.369 238.28 947.59 240.072C945.672 242.025 944.552 244.759 944.752 247.766C945.102 253 949.609 256.968 954.785 256.968H977.607C991.607 256.968 1002.81 268.742 1002.32 282.916L1000.9 323.513H947.23C940.815 323.513 935.31 328.595 935.19 335.094C935.07 341.715 940.336 347.121 946.841 347.121H965.806C977.178 347.121 986.291 356.658 985.911 368.179L980.635 530.08L968.494 538.837C952.157 544.284 940.336 559.824 940.256 578.209H928.595C926.966 578.209 925.637 576.862 925.637 575.212V567.771C925.637 563.58 922.709 559.834 918.622 559.227C916.294 558.872 914.116 559.541 912.427 560.836V546.886C912.427 543.919 910.348 541.267 907.441 540.882C903.933 540.406 900.906 543.201 900.906 546.663V566.688H891.333C887.926 566.688 885.168 569.482 885.168 572.934V578.209H828.221C816.18 578.209 804.349 581.368 793.867 587.381L767.687 602.415H661.428C644.811 602.415 628.793 608.712 616.512 620.061L599.625 635.682H1920V150.253L1882.38 178.103Z" fill="url(#paint6_linear_2665_24508)"/>
<path d="M1856.94 398.794V346.798C1856.94 324.171 1838.65 305.654 1816.3 305.654H1808.98C1804.73 305.654 1801.26 309.178 1801.26 313.48V398.804H1747.82C1740.77 398.804 1733.8 399.169 1726.93 399.867V372.553C1726.93 370.518 1726.03 368.595 1724.5 367.289C1715.71 359.848 1705.64 366.185 1705.64 374.78V403.208C1688.9 406.751 1672.92 412.37 1657.97 419.771V355.049C1657.97 350.746 1654.49 347.223 1650.24 347.223H1638.97C1634.72 347.223 1631.25 350.746 1631.25 355.049V435.655C1602.66 455.751 1579.45 483.045 1564.21 514.915C1560.95 521.738 1554.1 526.041 1546.61 526.041H1519.45V489.474C1519.45 487.773 1518.75 486.123 1517.49 485.009C1509.3 477.75 1499.77 483.642 1499.77 491.681V526.041H1473.67C1467.67 526.041 1462.08 529.109 1458.8 534.201L1450.48 547.119H1443.1C1439.26 547.119 1436.12 550.207 1436.01 554.094L1435.88 558.508H1403.52C1398.52 558.508 1393.72 560.523 1390.18 564.097L1379.39 575.02H1320.89L1306.27 547.109C1303.15 541.156 1297.04 537.43 1290.38 537.43H1251.14V523.318C1251.14 521.364 1249.58 519.785 1247.65 519.785H1246.2C1244.27 519.785 1242.71 521.364 1242.71 523.318V537.43H1210.13C1201.8 537.43 1195.04 530.587 1195.04 522.154V444.352C1195.04 439.128 1190.35 435.159 1185.29 436.151C1161.81 440.758 1144.09 461.684 1144.09 486.791C1144.09 486.922 1144.1 487.044 1144.1 487.176L1126.69 496.398C1116.32 501.896 1108.46 511.24 1104.76 522.488L1097.74 543.819C1095.3 551.229 1088.45 556.22 1080.74 556.22C1062.41 556.22 1045.25 565.342 1034.85 580.619L1017.72 605.767H964.28V593.527C964.28 591.482 962.64 589.821 960.62 589.821H955.57C953.55 589.821 951.91 591.482 951.91 593.527V605.767H912.05C906.66 605.767 901.56 603.327 898.14 599.105L878.01 574.271C874.59 570.05 869.48 567.61 864.09 567.61H852.18C847.96 567.61 843.91 565.949 840.88 562.983L814.67 537.268C811.42 534.079 807.08 532.298 802.56 532.298H762.36V500.073C762.36 497.532 760.32 495.467 757.81 495.467C749.76 495.467 743.23 502.078 743.23 510.228V521.283H718.48V500.731C718.48 494.364 713.38 489.2 707.09 489.2H653.23C646.66 489.2 640.59 492.764 637.33 498.545L619.59 530.03C617.81 533.178 614.51 535.132 610.92 535.132H599.75C596.58 535.132 594 532.622 593.82 529.422C589.58 454.172 531.75 393.449 458.36 385.775C449.96 384.894 442.63 391.495 442.63 400.049V434.177H421.68C412.63 434.177 404.56 439.948 401.53 448.593L392.25 475.088H367.62C362.21 475.088 357.35 478.439 355.37 483.531L338.02 528.066C336.36 532.328 332.29 535.132 327.76 535.132H306.25C303.62 535.132 301.27 533.432 300.42 530.911L299.28 527.519C298.06 523.895 294.7 521.465 290.92 521.465H270.66L261.49 467.08C260.69 462.352 256.65 458.9 251.91 458.9H224.01C220.24 458.9 216.81 461.107 215.21 464.559L207.71 480.737H177.15H174.53H136.7L135.83 457.27H155.33C167.39 457.27 177.16 447.379 177.16 435.169C177.16 431.95 174.59 429.348 171.41 429.348H134.79L133.92 405.881H155.33C167.39 405.881 177.16 395.99 177.16 383.78C177.16 380.561 174.59 377.959 171.41 377.959H132.88L132.01 354.492H155.33C167.39 354.492 177.16 344.601 177.16 332.392C177.16 329.172 174.59 326.57 171.41 326.57H130.97L130.7 319.271C130.05 301.888 143.8 287.432 160.99 287.432H277.98C281.8 287.432 285.41 285.599 287.64 282.461C296.79 269.634 287.74 255.288 275.81 256.159H0.18L0 287.432H40.36C57.55 287.432 71.3 301.888 70.65 319.271L67.91 392.791H0V502.685V538.372V637.333H1747.81H1920V575.01V398.794H1856.94Z" fill="#080628"/>
<defs>
<linearGradient id="paint0_linear_2665_24508" x1="960.287" y1="-2.89134" x2="960.287" y2="156.399" gradientUnits="userSpaceOnUse">
<stop stop-color="#86D4C9"/>
<stop offset="0.0188" stop-color="#88D1CC"/>
<stop offset="0.1878" stop-color="#95BEE0"/>
<stop offset="0.3794" stop-color="#9EB0EE"/>
<stop offset="0.6124" stop-color="#A3A7F6"/>
<stop offset="1" stop-color="#A5A5F9"/>
</linearGradient>
<linearGradient id="paint1_linear_2665_24508" x1="959.995" y1="59.1374" x2="959.995" y2="452.998" gradientUnits="userSpaceOnUse">
<stop stop-color="#8D86EB"/>
<stop offset="1" stop-color="#A5A5F9"/>
</linearGradient>
<linearGradient id="paint2_linear_2665_24508" x1="960" y1="99.7317" x2="960" y2="371.443" gradientUnits="userSpaceOnUse">
<stop stop-color="#503EAA"/>
<stop offset="1" stop-color="#8D86EB"/>
</linearGradient>
<linearGradient id="paint3_linear_2665_24508" x1="960.378" y1="192.114" x2="960.378" y2="602.573" gradientUnits="userSpaceOnUse">
<stop stop-color="#503EAA"/>
<stop offset="1" stop-color="#8D86EB"/>
</linearGradient>
<linearGradient id="paint4_linear_2665_24508" x1="959.998" y1="159.216" x2="959.998" y2="500.185" gradientUnits="userSpaceOnUse">
<stop stop-color="#38237C"/>
<stop offset="1" stop-color="#503EAA"/>
</linearGradient>
<linearGradient id="paint5_linear_2665_24508" x1="609.723" y1="113.07" x2="609.723" y2="543.348" gradientUnits="userSpaceOnUse">
<stop stop-color="#160E3F"/>
<stop offset="1" stop-color="#321F71"/>
</linearGradient>
<linearGradient id="paint6_linear_2665_24508" x1="1259.81" y1="201.357" x2="1259.81" y2="545.572" gradientUnits="userSpaceOnUse">
<stop stop-color="#080628"/>
<stop offset="1" stop-color="#26185B"/>
</linearGradient>
</defs>
</svg>
