<svg width="1920" height="629" viewBox="0 0 1920 629" fill="none" xmlns="http://www.w3.org/2000/svg">
<path d="M455.134 39.0647C455.134 39.0647 493.775 19.2274 499.82 18.8175C505.866 18.4075 512.83 21.3671 512.83 21.3671L553.589 13.8382C553.589 13.8382 590.811 7.65896 591.9 7.11903C592.989 6.5791 619.409 0 619.409 0L633.459 7.11903L651.875 13.8382L731.264 33.7254L759.922 23.6368C759.922 23.6368 826.342 56.9823 831.128 57.8722C835.915 58.762 886.496 38.1948 886.496 38.1948L897.727 39.2847L977.237 16.5378L1011.75 26.6764L1107.73 1.67977C1107.73 1.67977 1150.77 18.5575 1153.77 19.3874C1156.77 20.2273 1172.23 16.9977 1172.65 16.4578C1173.07 15.9179 1208.1 30.5059 1208.1 30.5059L1296.57 48.5034L1328.19 50.1132L1420.53 71.1504L1624.35 129.502L1919.58 185.465L1919.54 498.692H1V202.733L197.291 102.786L251.379 101.816L342.87 68.6407L455.134 39.0647Z" fill="url(#paint0_linear_2665_24508)"/>
<path d="M162.038 72.994V66.4249C162.038 65.425 161.228 64.6051 160.218 64.6051H146.97C145.97 64.6051 145.15 65.415 145.15 66.4249V73.3939L137.511 72.2341C137.511 72.2341 137.511 65.305 137.511 61.7855C137.511 60.6756 136.611 59.7858 135.502 59.7858H128.273C127.913 57.906 127.403 56.1562 126.763 54.5864C126.733 54.5165 126.703 54.4465 126.673 54.3765C126.523 54.0266 126.373 53.6866 126.223 53.3566C126.193 53.2966 126.163 53.2467 126.143 53.1867C125.673 52.2268 125.153 51.3569 124.593 50.587C124.493 50.457 124.403 50.3171 124.303 50.1871C124.163 50.0071 124.023 49.8371 123.873 49.6671C123.743 49.5171 123.613 49.3772 123.483 49.2372C123.343 49.0972 123.213 48.9572 123.073 48.8173C122.893 48.6473 122.713 48.4873 122.523 48.3373C122.423 48.2573 122.323 48.1673 122.223 48.0873C121.943 47.8773 121.653 47.6874 121.354 47.5074C121.244 47.4475 121.144 47.3974 121.034 47.3374C120.824 47.2274 120.614 47.1275 120.394 47.0375C120.274 46.9875 120.164 46.9475 120.044 46.9075C119.824 46.8275 119.594 46.7675 119.364 46.7175C119.254 46.6975 119.154 46.6675 119.044 46.6475C118.714 46.5875 118.374 46.5576 118.034 46.5576H118.024C117.664 46.5576 117.314 46.5875 116.964 46.6575C116.844 46.6775 116.724 46.7175 116.604 46.7475C116.374 46.7975 116.154 46.8575 115.924 46.9375C115.784 46.9875 115.644 47.0575 115.504 47.1175C115.314 47.1975 115.114 47.2875 114.924 47.3875C114.774 47.4675 114.624 47.5674 114.474 47.6574C114.304 47.7674 114.135 47.8674 113.965 47.9974C113.805 48.1074 113.655 48.2373 113.505 48.3673C113.355 48.4973 113.205 48.6173 113.055 48.7573C112.895 48.9073 112.745 49.0672 112.585 49.2272C112.455 49.3672 112.325 49.5071 112.195 49.6571C112.035 49.8371 111.875 50.0371 111.725 50.227C111.615 50.367 111.505 50.517 111.395 50.667C111.235 50.897 111.075 51.1169 110.925 51.3669C110.835 51.5069 110.755 51.6469 110.665 51.7868C110.505 52.0568 110.345 52.3368 110.185 52.6267C110.125 52.7467 110.065 52.8667 110.005 52.9867C109.835 53.3166 109.675 53.6566 109.515 54.0066C109.485 54.0666 109.465 54.1366 109.435 54.2066C108.275 56.9062 107.505 60.1657 107.255 63.7352L103.256 62.4554V55.9863C103.256 54.4765 102.026 53.2467 100.516 53.2467H97.5468V50.227C97.5468 49.1072 96.6369 48.2074 95.527 48.2074H79.4092V45.0877C79.4092 44.1679 78.6693 43.428 77.7494 43.428H75.8597C74.9898 43.428 74.2799 44.1379 74.2799 45.0078V53.2866L69.7505 51.9768V39.5385C69.7505 38.6686 69.0406 37.9587 68.1707 37.9587H58.982C58.1121 37.9587 57.4022 38.6686 57.4022 39.5385V43.308H52.3029V32.8794C52.3029 32.0095 51.593 31.2996 50.7231 31.2996H34.2053C33.3355 31.2996 32.6256 32.0095 32.6256 32.8794V41.2683L25.7865 39.2985V27.1202C25.7865 26.2503 25.0766 25.5404 24.2067 25.5404H18.6174V18.7713C18.6174 17.9015 17.9075 17.1915 17.0377 17.1915H0V564.857H1920V28.8399L1910.06 31.2796V27.6301C1910.06 25.5004 1908.33 23.7806 1906.21 23.7806H1903.23C1901.1 23.7806 1899.38 25.5104 1899.38 27.6301V33.9193L1895.16 34.9592V20.7011C1895.16 18.5714 1893.43 16.8516 1891.31 16.8516H1883.27C1881.15 16.8516 1879.43 18.5814 1879.43 20.7011V38.8486L1871.84 40.7183V33.1094C1871.84 30.9797 1870.11 29.2599 1867.99 29.2599H1852.07C1849.94 29.2599 1848.22 30.9897 1848.22 33.1094V39.2385H1840.03C1838.65 39.2385 1837.53 40.3584 1837.53 41.7382H1834.27V38.8686C1834.27 36.7389 1832.54 35.0191 1830.42 35.0191H1820.3C1818.17 35.0191 1816.45 36.7489 1816.45 38.8686V54.4665L1805.77 57.3761V50.367C1805.77 48.0074 1803.86 46.0976 1801.5 46.0976H1796.82C1794.46 46.0976 1792.55 48.0074 1792.55 50.367V60.9656L1783.27 63.4853V61.7655C1783.27 59.4058 1781.36 57.4961 1779 57.4961H1767.33V52.3868C1767.33 50.0271 1765.42 48.1173 1763.06 48.1173H1761.48C1759.12 48.1173 1757.21 50.0271 1757.21 52.3868V70.5643L1754.2 71.3842L1754.02 71.4342V71.4242C1753.92 71.0042 1753.8 70.5943 1753.67 70.1844C1753.6 69.9944 1753.52 69.8044 1753.45 69.6144C1753.36 69.3845 1753.27 69.1545 1753.17 68.9245C1753.08 68.7246 1752.98 68.5446 1752.88 68.3446C1752.77 68.1346 1752.66 67.9246 1752.55 67.7147C1752.44 67.5247 1752.33 67.3447 1752.21 67.1648C1752.08 66.9648 1751.95 66.7648 1751.81 66.5749C1751.69 66.3949 1751.56 66.2249 1751.42 66.0549C1751.27 65.8649 1751.11 65.675 1750.95 65.495C1750.81 65.335 1750.68 65.175 1750.53 65.025C1750.35 64.8351 1750.16 64.6551 1749.97 64.4651C1749.83 64.3351 1749.69 64.1952 1749.55 64.0652C1749.3 63.8352 1749.03 63.6252 1748.76 63.4153C1748.67 63.3453 1748.58 63.2653 1748.48 63.1853C1748.11 62.9154 1747.73 62.6554 1747.34 62.4154C1747.2 62.3254 1747.05 62.2554 1746.9 62.1654C1746.63 62.0155 1746.37 61.8655 1746.09 61.7255C1745.92 61.6355 1745.74 61.5655 1745.57 61.4755C1745.31 61.3555 1745.04 61.2356 1744.77 61.1256C1744.58 61.0556 1744.39 60.9856 1744.2 60.9156C1743.93 60.8156 1743.65 60.7256 1743.37 60.6456C1743.18 60.5856 1742.98 60.5257 1742.79 60.4757C1742.5 60.3957 1742.2 60.3357 1741.9 60.2657C1741.71 60.2257 1741.52 60.1857 1741.33 60.1457C1741 60.0857 1740.66 60.0457 1740.32 60.0058C1740.15 59.9858 1739.99 59.9558 1739.82 59.9458C1739.31 59.9058 1738.8 59.8758 1738.28 59.8758H1738.27C1729.39 59.8758 1722.19 66.3748 1722.19 74.3938C1722.19 74.8737 1722.22 75.3537 1722.27 75.8236C1722.31 76.1936 1722.38 76.5535 1722.45 76.9134C1722.47 77.0034 1722.48 77.0934 1722.49 77.1734C1722.68 78.0633 1722.97 78.9232 1723.33 79.7531L1712.16 82.7826V75.3037C1712.16 72.3741 1709.79 70.0044 1706.86 70.0044H1694.67C1691.74 70.0044 1689.37 72.3741 1689.37 75.3037V88.8618H1683.14V90.6616L1680.05 91.5015V77.0234C1680.05 74.0938 1677.68 71.7241 1674.75 71.7241H1669.31C1666.38 71.7241 1664.01 74.0938 1664.01 77.0234V85.2423H1661.64C1659.62 85.2423 1657.98 86.8821 1657.98 88.9118V94.861C1656.94 94.861 1655.96 94.821 1655.1 94.751C1655.06 94.751 1655.02 94.741 1654.98 94.741C1654.74 94.721 1654.51 94.691 1654.29 94.661C1654.25 94.651 1654.21 94.651 1654.18 94.651C1653.93 94.611 1653.69 94.571 1653.47 94.531C1653.26 94.4911 1653.08 94.4411 1652.9 94.3811C1652.85 94.3611 1652.8 94.3511 1652.76 94.3311C1652.63 94.2911 1652.52 94.2411 1652.41 94.1911C1652.37 94.1711 1652.32 94.1511 1652.29 94.1311C1652.16 94.0611 1652.04 93.9911 1651.95 93.9111H1651.94C1651.9 93.8811 1651.84 93.8411 1651.75 93.7912C1651.72 93.7712 1651.67 93.7512 1651.63 93.7312C1651.56 93.6912 1651.49 93.6612 1651.4 93.6212C1651.34 93.5912 1651.27 93.5612 1651.2 93.5312C1651.11 93.4912 1651.01 93.4512 1650.91 93.4012C1650.82 93.3612 1650.72 93.3212 1650.62 93.2712C1650.51 93.2212 1650.4 93.1813 1650.28 93.1313C1650.16 93.0813 1650.03 93.0312 1649.89 92.9713C1649.77 92.9213 1649.65 92.8713 1649.52 92.8213C1649.36 92.7513 1649.2 92.6913 1649.03 92.6213C1648.93 92.5813 1648.81 92.5313 1648.71 92.4913C1648.21 92.2914 1647.66 92.0714 1647.05 91.8414C1647.15 91.1715 1647.24 90.4916 1647.29 89.7917C1647.34 89.1018 1647.37 88.3919 1647.37 87.682C1647.37 76.1536 1640.17 66.8148 1631.28 66.8148C1630.78 66.8148 1630.28 66.8548 1629.78 66.9148C1629.63 66.9348 1629.48 66.9648 1629.32 66.9848C1628.98 67.0348 1628.64 67.1048 1628.3 67.1848C1628.13 67.2248 1627.96 67.2648 1627.8 67.3148C1627.47 67.4047 1627.14 67.5247 1626.82 67.6447C1626.68 67.6947 1626.53 67.7447 1626.39 67.8047C1625.96 67.9847 1625.53 68.1846 1625.12 68.4046C1624.95 68.4946 1624.78 68.6046 1624.61 68.7046C1624.36 68.8546 1624.12 69.0045 1623.87 69.1645C1623.66 69.3045 1623.46 69.4545 1623.25 69.6144C1623.07 69.7544 1622.88 69.8944 1622.7 70.0444C1622.48 70.2243 1622.26 70.4043 1622.04 70.6043C1621.92 70.7143 1621.8 70.8343 1621.69 70.9443C1620.85 71.7542 1620.08 72.664 1619.37 73.6639C1619.32 73.7239 1619.28 73.7939 1619.23 73.8539C1618.98 74.2138 1618.75 74.5837 1618.52 74.9637C1618.51 74.9837 1618.5 75.0037 1618.48 75.0237C1617.51 76.6735 1616.73 78.5032 1616.17 80.483C1615.29 80.163 1614.4 79.843 1613.51 79.5231C1613.31 79.4531 1613.11 79.3831 1612.91 79.3031C1611.96 78.9632 1611 78.6132 1610.03 78.2732V50.0971C1610.03 48.1773 1608.47 46.6175 1606.55 46.6175H1602.27C1600.35 46.6175 1598.79 48.1773 1598.79 50.0971V60.3657H1593.46C1591.04 60.3657 1589.08 62.3254 1589.08 64.7451V70.7943L1583.89 68.9445V35.739C1583.89 33.0994 1581.75 30.9497 1579.1 30.9497H1574.61C1571.97 30.9497 1569.82 33.0894 1569.82 35.739V50.917H1557.73V42.6081C1557.73 39.8385 1555.49 37.5988 1552.72 37.5988H1544.74C1541.97 37.5988 1539.73 39.8385 1539.73 42.6081V53.3267L1530.17 49.9671V43.7379C1530.17 42.1881 1528.91 40.9283 1527.36 40.9283C1525.81 40.9283 1524.55 42.1881 1524.55 43.7379V47.9874L1519.49 47.1575V33.9293C1519.49 31.0497 1517.15 28.71 1514.27 28.71H1508.4C1505.52 28.71 1503.18 31.0497 1503.18 33.9293V38.4186C1494.79 38.4186 1487.99 45.2177 1487.99 53.6066V57.0062H1482.37V55.3064C1482.37 52.8767 1480.4 50.9069 1477.97 50.9069H1472.99C1470.56 50.9069 1468.59 52.8767 1468.59 55.3064V72.2041L1460.43 76.2135V61.5255C1460.43 59.0358 1458.41 57.0062 1455.91 57.0062H1453.97C1451.48 57.0062 1449.45 59.0258 1449.45 61.5255V79.1932H1434.67V73.4439C1434.67 70.9543 1432.65 68.9245 1430.15 68.9245H1424.82C1422.33 68.9245 1420.3 70.9443 1420.3 73.4439V91.1915L1405.11 81.2629V80.263C1405.11 77.0634 1402.52 74.4738 1399.32 74.4738H1389.83V69.7044C1389.83 67.4348 1387.99 65.605 1385.73 65.605H1379.11C1378.03 64.3951 1376.85 63.3653 1375.59 62.5454C1375.56 62.5254 1375.53 62.5054 1375.51 62.4954C1375.1 62.2354 1374.69 61.9954 1374.27 61.7855C1374.25 61.7755 1374.22 61.7655 1374.19 61.7455C1373.76 61.5355 1373.33 61.3356 1372.89 61.1756C1372.89 61.1756 1372.89 61.1756 1372.88 61.1756C1372.46 61.0156 1372.03 60.8856 1371.6 60.7756C1371.53 60.7556 1371.46 60.7356 1371.39 60.7256C1370.97 60.6256 1370.55 60.5457 1370.13 60.4957C1370.06 60.4857 1369.98 60.4757 1369.91 60.4757C1369.47 60.4257 1369.02 60.3957 1368.57 60.3957C1368.11 60.3957 1367.66 60.4257 1367.21 60.4757C1367.14 60.4857 1367.06 60.4857 1366.99 60.4957C1366.56 60.5557 1366.14 60.6356 1365.72 60.7356C1365.64 60.7556 1365.56 60.7756 1365.48 60.7956C1365.07 60.9056 1364.65 61.0356 1364.24 61.1856C1364.2 61.2056 1364.15 61.2256 1364.11 61.2356C1363.7 61.3955 1363.3 61.5755 1362.9 61.7755C1362.87 61.7955 1362.83 61.8055 1362.79 61.8255C1362.38 62.0355 1361.99 62.2655 1361.6 62.5154C1361.54 62.5554 1361.48 62.5954 1361.42 62.6354C1361.03 62.8954 1360.66 63.1653 1360.29 63.4553C1360.25 63.4853 1360.2 63.5253 1360.16 63.5653C1359.38 64.1952 1358.64 64.9151 1357.95 65.705C1357.93 65.735 1357.91 65.7549 1357.88 65.7749C1357.53 66.1749 1357.2 66.5848 1356.88 67.0248C1356.86 67.0548 1356.83 67.0848 1356.81 67.1248C1355.81 68.4846 1354.92 70.0244 1354.18 71.7042C1354.18 71.7142 1354.17 71.7241 1354.17 71.7241C1353.16 73.9938 1351.97 79.2032 1351.97 79.2032H1344.01V90.8616L1333.88 93.5312C1333.52 93.1012 1333.15 92.7013 1332.77 92.3114C1332.74 92.2814 1332.72 92.2514 1332.69 92.2314C1332.32 91.8614 1331.94 91.5115 1331.54 91.1815C1331.51 91.1515 1331.48 91.1315 1331.44 91.1015C1331.04 90.7716 1330.63 90.4616 1330.21 90.1817C1330.2 90.1717 1330.19 90.1716 1330.18 90.1616C1329.75 89.8717 1329.31 89.6017 1328.86 89.3718C1328.85 89.3718 1328.85 89.3618 1328.84 89.3618C1328.41 89.1318 1327.98 88.9418 1327.53 88.7619C1327.47 88.7419 1327.42 88.7119 1327.36 88.6919C1326.94 88.5319 1326.51 88.3919 1326.07 88.2719C1326 88.2519 1325.92 88.2319 1325.85 88.2119C1325.41 88.1019 1324.97 88.012 1324.52 87.952C1324.46 87.942 1324.4 87.942 1324.33 87.932C1323.86 87.872 1323.39 87.8419 1322.91 87.8419C1322.91 87.8419 1322.91 87.8419 1322.9 87.8419C1322.56 87.8419 1322.22 87.8619 1321.88 87.8919C1321.78 87.9019 1321.67 87.912 1321.57 87.922C1321.33 87.952 1321.09 87.9819 1320.85 88.0219C1320.74 88.0419 1320.63 88.0619 1320.53 88.0819C1320.27 88.1319 1320.01 88.1919 1319.75 88.2619C1319.68 88.2819 1319.61 88.2919 1319.54 88.3119C1319.21 88.4019 1318.89 88.5119 1318.56 88.6319C1318.5 88.6519 1318.45 88.6819 1318.39 88.7019C1318.12 88.8019 1317.86 88.9218 1317.6 89.0418C1317.52 89.0818 1317.43 89.1218 1317.35 89.1618C1317.1 89.2818 1316.86 89.4118 1316.62 89.5517C1316.55 89.5917 1316.49 89.6217 1316.42 89.6617C1315.8 90.0317 1315.19 90.4416 1314.61 90.9115C1314.57 90.9415 1314.53 90.9816 1314.49 91.0116C1314.23 91.2215 1313.98 91.4415 1313.73 91.6614C1313.69 91.7014 1313.65 91.7414 1313.61 91.7714C1312.75 92.5713 1311.94 93.4812 1311.2 94.4811C1311.19 94.5011 1311.17 94.521 1311.16 94.531C1310.15 95.9009 1309.26 97.4407 1308.51 99.1305H1304.62C1304.62 97.4607 1303.27 96.1108 1301.6 96.1108H1291.61C1289.95 96.1108 1288.6 97.4607 1288.6 99.1305V105.47L1284.94 106.429V101.68C1284.94 98.8305 1282.63 96.5208 1279.78 96.5208H1276.44V93.7012C1276.44 90.9916 1274.24 88.7918 1271.53 88.7918H1266.09C1263.38 88.7918 1261.18 90.9916 1261.18 93.7012V99.3704H1246.81C1244.1 99.3704 1241.9 101.57 1241.9 104.28V117.788L1238.89 118.578V114.128C1238.89 111.369 1236.66 109.139 1233.9 109.139H1224.38C1221.62 109.139 1219.39 111.369 1219.39 114.128V123.717L1210.69 126.017V112.479C1210.69 110.929 1209.43 109.669 1207.88 109.669H1205.35C1203.8 109.669 1202.54 110.929 1202.54 112.479V128.167L1195.23 130.096V126.807C1195.23 125.257 1193.97 123.997 1192.42 123.997C1190.87 123.997 1189.61 125.257 1189.61 126.807C1189.61 128.966 1189.61 131.576 1189.61 131.576L1187.63 132.096L1181.18 133.796V125.917C1181.18 124.367 1179.92 123.107 1178.37 123.107H1172.46C1170.91 123.107 1169.65 124.367 1169.65 125.917V132.586L1160.37 130.746V105.95C1160.37 104.4 1159.11 103.14 1157.56 103.14H1149.4C1147.85 103.14 1146.59 104.4 1146.59 105.95V113.818H1133.09C1133.09 113.569 1133.1 113.328 1133.1 113.079C1133.1 111.819 1133.05 110.579 1132.97 109.369C1132.82 107.349 1132.56 105.42 1132.19 103.6C1132.12 103.24 1132.04 102.88 1131.96 102.52C1131.72 101.45 1131.43 100.43 1131.12 99.4604C1131.02 99.1404 1130.91 98.8205 1130.8 98.5005C1130.58 97.8706 1130.34 97.2707 1130.09 96.7008C1129.71 95.8309 1129.31 95.031 1128.88 94.2811C1127.88 92.5413 1126.73 91.1515 1125.48 90.1917C1124.23 89.2318 1122.89 88.7118 1121.48 88.7118C1121.13 88.7118 1120.77 88.7519 1120.43 88.8119C1120.4 88.8218 1120.37 88.8219 1120.35 88.8219C1120.02 88.8918 1119.69 88.9918 1119.37 89.1118C1119.33 89.1318 1119.29 89.1418 1119.25 89.1618C1118.94 89.2918 1118.63 89.4518 1118.32 89.6317C1118.28 89.6617 1118.23 89.6817 1118.19 89.7117C1117.89 89.9017 1117.59 90.1116 1117.3 90.3416C1117.26 90.3716 1117.22 90.4116 1117.17 90.4516C1116.88 90.6916 1116.59 90.9616 1116.32 91.2515C1116.28 91.2915 1116.25 91.3315 1116.21 91.3615C1115.93 91.6615 1115.65 91.9914 1115.38 92.3413C1115.36 92.3713 1115.34 92.4014 1115.31 92.4314C1115.03 92.8013 1114.76 93.1912 1114.5 93.6012C1114.5 93.6112 1114.49 93.6112 1114.49 93.6212C1114.22 94.0511 1113.95 94.5111 1113.69 95.001L1113.13 96.1309C1112.62 97.2307 1112.17 98.4206 1111.76 99.7004C1111.76 99.7004 1111.76 99.7003 1111.76 99.7103C1111.56 100.35 1111.37 101 1111.2 101.68C1111.2 101.69 1111.2 101.7 1111.19 101.7C1111.02 102.37 1110.87 103.06 1110.73 103.76C1110.73 103.78 1110.72 103.8 1110.72 103.81C1110.58 104.51 1110.46 105.22 1110.35 105.95C1110.35 105.97 1110.34 105.999 1110.34 106.019C1110.24 106.749 1110.15 107.489 1110.07 108.239C1110.07 108.259 1110.07 108.289 1110.06 108.309C1109.99 109.069 1109.93 109.829 1109.9 110.609C1109.9 110.629 1109.9 110.649 1109.9 110.669C1109.86 111.459 1109.84 112.259 1109.84 113.069C1109.84 114.128 1109.88 115.168 1109.94 116.198C1109.94 116.248 1109.95 116.308 1109.95 116.358C1110.02 117.388 1110.11 118.388 1110.24 119.368L1107.83 118.528L1106.37 118.018V115.768C1106.37 114.678 1105.49 113.798 1104.4 113.798V100.23C1104.4 99.0704 1103.46 98.1206 1102.29 98.1206H1100.6C1099.44 98.1206 1098.49 99.0604 1098.49 100.23V113.798C1095.72 113.798 1092.99 114.468 1090.53 115.758L1082.74 119.848V109.349C1082.74 106.829 1080.7 104.79 1078.18 104.79H1074.46C1071.94 104.79 1069.91 106.829 1069.91 109.349V112.829H1068.72C1065.75 112.829 1063.34 115.238 1063.34 118.208V130.016L1056.82 133.436H1049.56V125.437C1049.56 122.917 1047.52 120.878 1045 120.878H1040.9C1038.38 120.878 1036.34 122.917 1036.34 125.437V143.894V144.174L1029.99 147.504L1028.46 148.304V145.874C1028.46 142.485 1025.71 139.735 1022.32 139.735H1016.94C1015.54 139.735 1014.4 140.875 1014.4 142.275H1009.39C1006.27 142.275 1003.73 144.804 1003.73 147.934V161.262L1001.43 162.472L1001.06 162.672V160.942C1001.06 159.322 999.745 158.002 998.125 158.002H986.796C985.177 158.002 983.857 159.322 983.857 160.942H974.428C971.158 160.942 968.499 163.592 968.499 166.871V169.811L966.029 171.011H955.481V167.331C955.481 165.121 953.691 163.332 951.481 163.332H949.211C947.002 163.332 945.212 165.121 945.212 167.331V181.079H945.222L938.643 184.259V177.22C938.643 175.01 936.853 173.22 934.643 173.22H930.834C928.624 173.22 926.834 175.01 926.834 177.22V189.978L917.096 194.707V191.828C917.096 189.618 915.306 187.828 913.096 187.828H902.908C900.698 187.828 898.908 189.618 898.908 191.828V203.506L890.939 207.366L844.356 200.487V190.348C844.356 187.428 841.986 185.059 839.066 185.059H836.157C833.237 185.059 830.867 187.428 830.867 190.348V198.497L827.798 198.047L826.548 197.867L825.228 197.497L822.979 196.877V194.917C822.979 190.998 819.799 187.828 815.89 187.828H804.791V184.639C804.791 182.669 803.201 181.079 801.231 181.079C799.262 181.079 797.672 182.669 797.672 184.639V189.838L791.553 188.138L789.243 187.498V180.959C789.243 176.68 785.774 173.22 781.504 173.22H779.024V167.441C779.024 164.222 776.415 161.622 773.205 161.622H769.946C766.726 161.622 764.126 164.232 764.126 167.441V180.529L758.307 178.91L749.778 176.54V166.941C749.778 164.002 747.399 161.622 744.459 161.622H742.779C741.829 161.622 741.07 162.392 741.07 163.332H713.513V160.332C713.513 159.132 712.543 158.152 711.334 158.152H709.214C708.014 158.152 707.034 159.122 707.034 160.332V164.672L696.346 161.492V153.213C696.346 145.934 690.446 140.035 683.167 140.035C680.508 140.035 678.348 142.195 678.348 144.854V156.143L672.139 154.293L671.599 154.133V147.894L671.269 144.394C670.909 142.635 670.349 140.965 669.619 139.405C669.609 139.375 669.599 139.355 669.589 139.325C669.389 138.895 669.159 138.465 668.929 138.055C668.859 137.935 668.789 137.805 668.719 137.685C668.499 137.305 668.269 136.945 668.03 136.585C667.93 136.435 667.83 136.285 667.72 136.135C667.49 135.805 667.25 135.476 666.99 135.156C666.86 134.996 666.73 134.846 666.6 134.686C666.35 134.386 666.1 134.086 665.83 133.806C665.68 133.646 665.53 133.506 665.37 133.346C665.1 133.076 664.84 132.806 664.56 132.556C664.39 132.406 664.21 132.276 664.04 132.126C663.66 131.806 663.29 131.486 662.87 131.216C662.5 130.976 662.15 130.716 661.78 130.486C661.55 130.346 661.31 130.216 661.07 130.086C660.78 129.926 660.491 129.766 660.191 129.616C659.951 129.496 659.711 129.396 659.471 129.296C659.161 129.156 658.841 129.026 658.511 128.916C658.271 128.826 658.031 128.746 657.791 128.666C657.451 128.556 657.101 128.456 656.751 128.366C656.521 128.306 656.291 128.247 656.051 128.197C655.651 128.117 655.251 128.057 654.851 127.997C654.651 127.967 654.451 127.927 654.251 127.907C653.641 127.847 653.032 127.807 652.402 127.807H652.392H652.382C651.772 127.807 651.182 127.847 650.592 127.907C650.232 127.947 649.892 128.007 649.542 128.067C649.332 128.107 649.122 128.127 648.922 128.167C648.452 128.256 648.002 128.377 647.552 128.506C647.492 128.526 647.422 128.546 647.362 128.556C646.852 128.706 646.362 128.876 645.872 129.076V128.966C645.872 126.897 644.203 125.227 642.133 125.227H636.814C634.744 125.227 633.074 126.897 633.074 128.966V136.405C631.214 136.405 629.695 137.915 629.695 139.785V141.655L620.646 138.965L619.006 138.475V128.606C619.006 126.747 617.496 125.227 615.627 125.227C613.767 125.227 612.247 126.737 612.247 128.606V136.465L604.168 134.066L599.869 132.786C599.869 128.616 596.489 125.227 592.31 125.227H591.37C589.23 125.227 587.49 126.967 587.49 129.106L585.521 128.416V110.199C585.521 107.789 583.571 105.84 581.161 105.84C578.752 105.84 576.802 107.789 576.802 110.199V113.798H569.493V111.069C569.493 104.84 564.444 99.7903 558.214 99.7903H557.195C557.174 99.3904 557.145 98.9904 557.105 98.5905C557.105 98.5605 557.105 98.5305 557.095 98.4905C557.065 98.1106 557.025 97.7306 556.985 97.3607C556.985 97.3107 556.975 97.2707 556.975 97.2207C556.935 96.8507 556.895 96.4808 556.845 96.1209C556.835 96.0709 556.835 96.0309 556.825 95.9809C556.775 95.6109 556.725 95.2509 556.675 94.891C556.665 94.851 556.665 94.811 556.655 94.781C556.605 94.4111 556.545 94.0511 556.485 93.6912C556.485 93.6712 556.475 93.6512 556.475 93.6312C556.085 91.3315 555.565 89.1718 554.925 87.212C554.915 87.192 554.915 87.172 554.905 87.162C554.815 86.8821 554.715 86.6021 554.625 86.3321C554.605 86.2721 554.585 86.2122 554.565 86.1422C554.475 85.8922 554.385 85.6523 554.295 85.4123C554.265 85.3323 554.235 85.2523 554.205 85.1623C554.115 84.9324 554.025 84.7124 553.935 84.5024C553.895 84.4124 553.855 84.3124 553.815 84.2224C553.725 84.0125 553.635 83.8125 553.545 83.6125C553.505 83.5126 553.455 83.4226 553.415 83.3226C553.325 83.1326 553.235 82.9426 553.145 82.7527C553.095 82.6527 553.045 82.5627 552.995 82.4627C552.905 82.2827 552.805 82.1028 552.715 81.9328C552.665 81.8428 552.615 81.7428 552.555 81.6528C552.455 81.4828 552.365 81.3128 552.265 81.1528C552.215 81.0629 552.155 80.9829 552.105 80.8929C552.005 80.7329 551.905 80.5729 551.805 80.423C551.755 80.353 551.705 80.283 551.655 80.213C551.435 79.893 551.215 79.5831 550.985 79.2931C550.945 79.2331 550.895 79.1731 550.855 79.1232C550.765 79.0132 550.675 78.9132 550.585 78.8132C550.505 78.7132 550.425 78.6232 550.335 78.5332C550.245 78.4432 550.165 78.3533 550.075 78.2633C549.985 78.1733 549.895 78.0733 549.805 77.9933C549.716 77.9133 549.636 77.8333 549.546 77.7533C549.456 77.6634 549.356 77.5834 549.266 77.5034C549.176 77.4334 549.096 77.3634 549.006 77.2934C548.906 77.2134 548.816 77.1434 548.716 77.0734C548.626 77.0135 548.546 76.9534 548.456 76.8934C548.356 76.8234 548.256 76.7635 548.156 76.7035C548.066 76.6535 547.986 76.6035 547.896 76.5535C547.796 76.4935 547.686 76.4435 547.586 76.3935C547.496 76.3535 547.416 76.3035 547.326 76.2735C547.216 76.2235 547.106 76.1835 546.996 76.1435C546.906 76.1135 546.826 76.0736 546.736 76.0536C546.616 76.0136 546.506 75.9836 546.386 75.9536C546.306 75.9336 546.226 75.9036 546.136 75.8936C546.006 75.8636 545.876 75.8436 545.746 75.8236C545.676 75.8136 545.606 75.7936 545.536 75.7936C545.346 75.7736 545.146 75.7636 544.956 75.7636C544.946 75.7636 544.936 75.7636 544.936 75.7636C538.107 75.7636 532.558 88.2819 532.558 103.72C532.558 104.47 532.578 105.2 532.598 105.94C532.598 106.05 532.608 106.159 532.608 106.269C532.638 106.989 532.678 107.699 532.728 108.399C532.738 108.479 532.738 108.559 532.748 108.649C532.868 110.159 533.038 111.619 533.258 113.029L525.889 110.839V105.3C525.889 102.9 523.939 100.95 521.539 100.95C519.14 100.95 517.19 102.9 517.19 105.3V108.259H499.352V91.3015C499.352 90.0517 498.332 89.0318 497.083 89.0318H492.833C491.583 89.0318 490.564 90.0517 490.564 91.3015V99.8503H486.934C484.084 99.8503 481.775 102.16 481.775 105.01C479.175 104.11 476.125 103.05 472.756 101.88C471.576 101.47 470.366 101.05 469.116 100.62V95.7309C469.116 94.1811 467.857 92.9213 466.307 92.9213V84.7224C466.307 82.5127 464.517 80.7229 462.307 80.7229H459.278V65.345C459.278 63.4952 457.778 62.0055 455.938 62.0055H453.349C451.499 62.0055 450.009 63.5052 450.009 65.345V80.7229H445.55V75.9936C445.55 74.0138 443.94 72.404 441.96 72.404H427.912C427.642 71.3342 427.322 70.3044 426.962 69.3145C426.962 69.3045 426.952 69.3045 426.952 69.2945C426.592 68.3146 426.182 67.3848 425.732 66.5049C425.722 66.4849 425.712 66.4749 425.702 66.4549C425.262 65.595 424.772 64.7751 424.263 64.0152C424.243 63.9852 424.223 63.9652 424.212 63.9352C423.703 63.1953 423.153 62.5054 422.583 61.8855C422.553 61.8555 422.523 61.8255 422.503 61.7955C422.223 61.4955 421.933 61.2056 421.633 60.9356C421.603 60.9056 421.573 60.8856 421.543 60.8556C421.273 60.6056 420.993 60.3757 420.703 60.1557C420.663 60.1257 420.633 60.0957 420.593 60.0657C420.293 59.8358 419.983 59.6258 419.673 59.4258C419.623 59.3958 419.563 59.3558 419.513 59.3259C419.233 59.1559 418.943 58.9859 418.643 58.8459C418.603 58.8259 418.563 58.8059 418.523 58.7859C418.203 58.6259 417.883 58.496 417.553 58.376C417.483 58.346 417.413 58.326 417.343 58.296C417.033 58.186 416.724 58.096 416.414 58.016C416.384 58.006 416.354 57.996 416.324 57.996C415.994 57.916 415.654 57.856 415.304 57.816C415.224 57.806 415.144 57.796 415.064 57.786C414.714 57.746 414.364 57.726 414.014 57.726C413.604 57.726 413.194 57.756 412.784 57.806C412.724 57.816 412.664 57.8161 412.614 57.8261C412.234 57.886 411.854 57.966 411.474 58.056C411.404 58.076 411.334 58.096 411.264 58.116C410.894 58.226 410.524 58.346 410.164 58.4959C410.104 58.5159 410.054 58.5459 409.994 58.5659C409.614 58.7259 409.245 58.9059 408.875 59.1159H408.865C408.495 59.3258 408.145 59.5558 407.795 59.8058C407.745 59.8358 407.695 59.8757 407.645 59.9057C407.315 60.1457 406.985 60.4157 406.665 60.6957C406.605 60.7457 406.555 60.7956 406.495 60.8456C406.175 61.1356 405.865 61.4356 405.565 61.7555C405.525 61.8055 405.475 61.8555 405.435 61.8955C405.125 62.2354 404.815 62.5954 404.515 62.9753C404.215 63.3553 403.935 63.7552 403.655 64.1752C403.625 64.2252 403.585 64.2752 403.555 64.3252C403.295 64.7251 403.035 65.1451 402.795 65.575C402.755 65.645 402.715 65.7149 402.675 65.7849C402.435 66.2249 402.206 66.6648 401.986 67.1248C401.956 67.1848 401.926 67.2448 401.896 67.3148C401.446 68.2946 401.036 69.3245 400.686 70.4143C400.666 70.4743 400.646 70.5243 400.626 70.5843C400.456 71.1042 400.306 71.6442 400.166 72.1941C400.146 72.2741 400.126 72.3641 400.106 72.4441C399.966 72.994 399.846 73.5439 399.736 74.1138C399.726 74.1838 399.706 74.2638 399.696 74.3338C399.586 74.9237 399.486 75.5237 399.406 76.1336C399.026 75.9936 398.676 75.8636 398.336 75.7436C398.306 75.7336 398.276 75.7236 398.256 75.7136C397.956 75.6036 397.666 75.4936 397.396 75.3936C397.356 75.3736 397.306 75.3636 397.266 75.3436C397.016 75.2437 396.776 75.1637 396.556 75.0737C396.516 75.0537 396.466 75.0437 396.426 75.0237C396.176 74.9237 395.946 74.8437 395.736 74.7538C395.556 74.6838 395.366 74.6137 395.156 74.5338C395.016 74.4838 394.866 74.4338 394.727 74.3738C394.647 74.3438 394.577 74.3238 394.497 74.2938V46.9775C394.497 45.5877 393.367 44.4579 391.977 44.4579H388.487C387.098 44.4579 385.968 45.5877 385.968 46.9775V64.6351H381.988V57.1061C381.988 55.8963 381.008 54.9264 379.809 54.9264H378.029V44.2279C378.029 42.938 376.979 41.8982 375.699 41.8982H374.179C372.889 41.8982 371.85 42.948 371.85 44.2279V54.9264H362.471C360.511 54.9264 358.921 56.5162 358.921 58.4759V63.7852C357.542 63.3953 356.142 63.0153 354.752 62.6254C354.742 62.6254 354.722 62.6154 354.712 62.6154V53.7266C354.712 51.3269 352.772 49.3872 350.373 49.3872H347.263V42.6081C347.263 41.1483 346.083 39.9585 344.613 39.9585H343.743V33.9993C343.743 32.5395 342.564 31.3596 341.104 31.3596H338.724C337.264 31.3596 336.084 32.5395 336.084 33.9993V39.9285H328.605C326.566 39.9285 324.906 41.5782 324.906 43.628V54.4365C323.886 54.1565 322.886 53.8866 321.926 53.6266C320.637 53.2767 319.397 52.9467 318.227 52.6267V30.0498C318.227 28.78 317.197 27.7501 315.927 27.7501H309.988C308.868 27.7501 307.958 28.66 307.958 29.7798V31.5396H304.749C302.679 31.5396 300.999 33.2193 300.999 35.2891V49.9571L296.92 50.437V44.9677C296.92 43.378 295.63 42.0881 294.04 42.0881H289.751V34.3692C289.751 32.1595 287.961 30.3698 285.751 30.3698H284.471C282.262 30.3698 280.472 32.1595 280.472 34.3692V42.0881H269.973V36.049C269.973 34.6492 268.834 33.5093 267.434 33.5093H265.014C263.614 33.5093 262.474 34.6492 262.474 36.049V54.5165L255.725 55.3164V51.3169C255.725 50.2371 254.845 49.3572 253.766 49.3572H249.246C248.166 49.3572 247.286 50.2371 247.286 51.3169V56.3162L241.667 57.1961V39.7785C241.667 37.5588 239.867 35.759 237.648 35.759H226.839C224.62 35.759 222.82 37.5588 222.82 39.7785V60.7756L221.41 61.0456V51.8468C221.41 50.847 220.6 50.0471 219.61 50.0471H215.621C214.621 50.0471 213.821 50.857 213.821 51.8468V58.7759H199.483V47.0275C199.483 45.0277 197.863 43.418 195.873 43.418H188.174C186.175 43.418 184.565 45.0377 184.565 47.0275V59.0159H177.196C175.196 59.0159 173.586 60.6357 173.586 62.6254V70.4743L162.038 72.994Z" fill="url(#paint1_linear_2665_24508)"/>
<path d="M1905.06 121.019C1903.69 121.019 1902.36 121.159 1901.07 121.419C1896.56 122.339 1892.6 124.799 1889.78 128.229C1888.97 129.209 1888.26 130.269 1887.65 131.389C1886.13 134.199 1885.26 137.409 1885.26 140.829V157.73L1877.91 161.03C1870.06 164.56 1865.01 172.37 1865.01 180.98V190.26H1835.01V97.5194C1835.01 90.8894 1831.37 84.7994 1825.53 81.6594L1783.23 58.9094C1779.43 56.8594 1774.82 59.6194 1774.82 63.9394V125.629L1757.57 138.669C1749.66 144.649 1745.01 153.999 1745.01 163.92V186.34L1739.29 189.55L1731.7 193.82V132.999C1731.7 131.689 1730.64 130.629 1729.33 130.629H1727.06C1724.36 130.629 1722.17 132.819 1722.17 135.519V199.17L1714.93 203.24C1711.27 205.3 1709.01 209.16 1709.01 213.36H1670.2V188.83C1670.2 184.58 1667.66 180.73 1663.75 179.07L1657.97 176.61V101.129C1657.97 96.6094 1654.31 92.9494 1649.79 92.9494H1639.43C1634.91 92.9494 1631.25 96.6094 1631.25 101.129V165.22L1622.52 161.5C1617.93 159.54 1612.83 162.91 1612.83 167.91V213.37H1547.13V115.319C1547.13 110.949 1550.67 107.409 1555.04 107.409H1594.85C1597.49 107.409 1599.62 105.269 1599.62 102.639C1599.62 100.989 1598.79 99.5394 1597.52 98.6794C1596.76 98.1694 1595.84 97.8694 1594.85 97.8694H1588.93C1584.25 97.8694 1580.31 94.5094 1579.4 89.9294C1575.71 71.3794 1559.34 57.3994 1539.71 57.3994C1520.08 57.3994 1503.71 71.3794 1500.02 89.9294C1499.11 94.5194 1495.17 97.8694 1490.49 97.8694H1484.57C1483.25 97.8694 1482.06 98.3994 1481.2 99.2694C1480.77 99.6994 1480.42 100.219 1480.18 100.789C1479.94 101.359 1479.8 101.989 1479.8 102.649C1479.8 105.289 1481.94 107.419 1484.57 107.419H1524.38C1528.75 107.419 1532.29 110.959 1532.29 115.329V213.38H1425.53V194.98H1439.16C1441.35 194.98 1443.13 193.2 1443.13 191.01V178.08C1443.13 175.89 1441.35 174.11 1439.16 174.11H1425.53V148.599H1439.16C1441.35 148.599 1443.13 146.819 1443.13 144.629V131.699C1443.13 129.509 1441.35 127.729 1439.16 127.729H1425.53V113.179H1444.76C1447.22 113.179 1449.21 111.189 1449.21 108.729C1449.21 106.269 1447.22 104.279 1444.76 104.279H1395.8C1393.34 104.279 1391.35 106.269 1391.35 108.729C1391.35 111.189 1393.34 113.179 1395.8 113.179H1415.9C1415.9 113.179 1414.14 138.729 1413.22 148.599H1401.4C1399.21 148.599 1397.43 150.379 1397.43 152.569V161.06C1397.43 163.25 1399.21 165.03 1401.4 165.03H1411.55L1410.49 174.1C1410.49 174.1 1405.24 174.1 1401.4 174.1C1399.21 174.1 1397.43 175.88 1397.43 178.07V191C1397.43 193.19 1399.21 194.97 1401.4 194.97H1407.62L1404.38 213.37H1343.97V174.51C1343.97 172.65 1342.46 171.14 1340.6 171.14H1323.71C1321.85 171.14 1320.34 169.63 1320.34 167.77V126.689C1320.34 124.829 1318.83 123.319 1316.97 123.319H1301.86C1300.19 123.319 1298.78 124.539 1298.53 126.189L1287.15 201.76H1274.49V158.08C1274.49 155.83 1272.66 153.999 1270.41 153.999H1265.22C1262.97 153.999 1261.14 155.83 1261.14 158.08V201.76H1249.61C1245.8 201.76 1242.71 204.85 1242.71 208.66V213.36H1211.24C1211.12 212.12 1211.01 210.86 1210.9 209.58V209.51C1210.78 208.23 1210.68 206.93 1210.57 205.61V205.54C1210.35 202.88 1210.16 200.13 1209.98 197.3H1221.36C1222.17 197.3 1222.91 196.97 1223.44 196.44C1223.84 196.04 1224.13 195.53 1224.24 194.95C1224.28 194.76 1224.3 194.56 1224.3 194.36V193.35C1224.3 193.15 1224.28 192.95 1224.24 192.76C1224.12 192.18 1223.84 191.67 1223.44 191.27C1222.91 190.74 1222.17 190.41 1221.36 190.41H1209.58C1209.53 189.4 1209.48 188.38 1209.43 187.35C1209.43 187.25 1209.43 187.15 1209.42 187.04C1209.38 186.09 1209.33 185.13 1209.29 184.16C1209.29 184.09 1209.29 184.02 1209.29 183.95C1209.25 182.93 1209.21 181.89 1209.17 180.85C1209.13 179.76 1209.09 178.66 1209.06 177.55H1228.55C1230.16 177.55 1231.5 176.44 1231.88 174.95C1231.95 174.68 1232 174.4 1232 174.1C1232 172.19 1230.45 170.65 1228.55 170.65H1208.88C1208.82 167.69 1208.78 164.67 1208.75 161.59C1212.66 160.71 1216.21 158.87 1219.12 156.31C1219.14 156.29 1219.16 156.27 1219.18 156.25C1219.98 155.54 1220.73 154.78 1221.43 153.969C1221.47 153.929 1221.5 153.889 1221.54 153.839C1222.22 153.039 1222.84 152.199 1223.41 151.309C1223.45 151.249 1223.49 151.179 1223.53 151.119C1224.08 150.239 1224.58 149.329 1225.01 148.379C1225.05 148.299 1225.08 148.219 1225.12 148.129C1225.54 147.179 1225.9 146.199 1226.2 145.189C1226.23 145.099 1226.25 144.999 1226.28 144.909C1226.42 144.409 1226.55 143.899 1226.66 143.389H1238.53C1241.2 143.389 1243.36 141.229 1243.36 138.559C1243.36 136.889 1242.51 135.419 1241.23 134.549C1240.46 134.029 1239.53 133.719 1238.53 133.719H1226.66C1226.53 133.079 1226.36 132.449 1226.18 131.829C1226.17 131.789 1226.16 131.749 1226.14 131.699C1225.96 131.109 1225.76 130.529 1225.53 129.959C1225.5 129.879 1225.47 129.809 1225.44 129.729C1225.21 129.169 1224.97 128.619 1224.7 128.079C1224.54 127.759 1222.72 124.779 1222.56 124.579C1222.21 124.099 1221.83 123.639 1221.45 123.189C1221.39 123.119 1221.33 123.059 1221.28 122.989C1220.89 122.549 1220.49 122.119 1220.07 121.709C1220.01 121.659 1219.96 121.599 1219.9 121.549C1219.46 121.129 1219.01 120.719 1218.54 120.329C1218.07 119.939 1217.58 119.569 1217.08 119.219C1217.02 119.179 1216.96 119.139 1216.91 119.099C1216.43 118.769 1215.93 118.459 1215.42 118.159C1215.33 118.109 1215.25 118.059 1215.16 118.009C1214.65 117.719 1214.14 117.449 1213.61 117.199C1213.53 117.159 1213.45 117.129 1213.37 117.089C1212.81 116.839 1212.25 116.599 1211.67 116.389H1211.65C1211.08 116.169 1210.49 115.989 1209.89 115.829C1209.81 115.809 1209.73 115.779 1209.64 115.759C1209.07 115.609 1208.48 115.479 1207.89 115.369C1207.78 115.349 1207.67 115.329 1207.56 115.309C1206.97 115.209 1206.37 115.129 1205.77 115.069C1205.68 115.069 1205.59 115.059 1205.49 115.049C1204.85 114.999 1204.21 114.959 1203.56 114.959C1202.91 114.959 1202.27 114.989 1201.63 115.049C1201.54 115.049 1201.45 115.059 1201.35 115.069C1200.74 115.129 1200.15 115.209 1199.56 115.309C1199.45 115.329 1199.34 115.349 1199.23 115.369C1198.64 115.479 1198.06 115.609 1197.49 115.759C1197.41 115.779 1197.33 115.809 1197.24 115.829C1196.65 115.999 1196.06 116.179 1195.48 116.389H1195.46C1194.88 116.609 1194.32 116.849 1193.76 117.099C1193.68 117.139 1193.6 117.169 1193.52 117.209C1192.99 117.459 1192.47 117.729 1191.97 118.019C1191.88 118.069 1191.8 118.119 1191.71 118.169C1191.2 118.469 1190.71 118.779 1190.22 119.109C1190.16 119.149 1190.1 119.189 1190.05 119.229C1189.55 119.579 1189.06 119.949 1188.59 120.329C1188.12 120.719 1187.67 121.129 1187.23 121.559C1187.17 121.609 1187.12 121.669 1187.06 121.719C1186.64 122.129 1186.24 122.559 1185.85 122.999C1185.79 123.069 1185.73 123.129 1185.68 123.199C1185.29 123.649 1184.92 124.119 1184.57 124.589C1184.44 124.769 1182.58 127.789 1182.43 128.089C1182.16 128.629 1181.92 129.179 1181.69 129.739C1181.66 129.819 1181.63 129.889 1181.6 129.969C1181.38 130.539 1181.17 131.119 1180.99 131.709C1180.98 131.749 1180.97 131.789 1180.95 131.839C1180.77 132.459 1180.6 133.089 1180.47 133.729H1168.6C1167.6 133.729 1166.67 134.029 1165.9 134.559C1164.61 135.429 1163.77 136.899 1163.77 138.569C1163.77 141.239 1165.93 143.399 1168.6 143.399H1180.47C1180.58 143.909 1180.71 144.419 1180.85 144.919C1180.88 145.009 1180.9 145.109 1180.93 145.199C1181.23 146.209 1181.59 147.189 1182.01 148.139C1182.05 148.219 1182.08 148.299 1182.12 148.389C1182.56 149.339 1183.05 150.259 1183.6 151.129C1183.64 151.189 1183.68 151.259 1183.72 151.319C1184.29 152.199 1184.91 153.049 1185.59 153.849C1185.63 153.889 1185.66 153.929 1185.7 153.979C1186.4 154.79 1187.15 155.55 1187.95 156.26C1187.97 156.28 1187.99 156.3 1188.01 156.31C1190.92 158.87 1194.47 160.71 1198.38 161.59C1198.36 164.67 1198.32 167.7 1198.25 170.65H1178.58C1176.67 170.65 1175.13 172.2 1175.13 174.1C1175.13 174.58 1175.23 175.03 1175.4 175.44C1175.49 175.65 1175.59 175.84 1175.72 176.03C1176.34 176.95 1177.39 177.55 1178.58 177.55H1198.07C1198.04 178.66 1198 179.76 1197.96 180.85C1197.92 181.89 1197.88 182.92 1197.84 183.95C1197.84 184.02 1197.84 184.09 1197.84 184.16C1197.8 185.13 1197.76 186.09 1197.71 187.04C1197.71 187.14 1197.71 187.24 1197.7 187.35C1197.65 188.38 1197.6 189.4 1197.55 190.41H1185.77C1184.96 190.41 1184.22 190.74 1183.68 191.27C1183.28 191.67 1182.99 192.18 1182.88 192.76C1182.84 192.95 1182.82 193.15 1182.82 193.35V194.36C1182.82 194.56 1182.84 194.76 1182.88 194.95C1183 195.53 1183.28 196.04 1183.68 196.44C1184.21 196.97 1184.95 197.3 1185.77 197.3H1197.15C1196.97 200.13 1196.77 202.87 1196.56 205.54V205.61C1196.45 206.93 1196.34 208.22 1196.23 209.5V209.6C1196.11 210.87 1196 212.12 1195.88 213.35H1148.02V210.17C1148.02 208.49 1146.66 207.14 1144.99 207.14H1137.56C1135.88 207.14 1134.53 208.5 1134.53 210.17V213.36H1109.97C1085.22 213.36 1068.94 223.75 1055.85 232.1C1046.61 237.99 1038.63 243.08 1030.1 243.08H984.84V241.48C984.84 239.6 983.32 238.08 981.44 238.08H980.04C978.16 238.08 976.64 239.6 976.64 241.48V243.08H883.89L881.22 203.79C880.41 191.84 873.29 181.22 862.53 175.94L861.91 175.63V129.549C861.91 126.749 858.91 124.979 856.46 126.329L847.52 131.269C843.21 133.649 840.54 138.179 840.54 143.099V190.24L823.09 200.79C814.02 206.27 808.48 216.1 808.48 226.7V243.06H659.42V181.38C659.42 178.66 656.02 177.43 654.28 179.51L654.26 179.54C646.73 188.61 632.6 208.99 623.27 243.05H477.17C457.07 243.05 445.98 231.92 433.13 219.03C432.07 217.97 431 216.9 429.92 215.82C426.67 212.59 423.28 209.33 419.61 206.21V110.729C419.61 108.609 417.89 106.889 415.77 106.889H410.36C403.2 106.889 397.39 112.699 397.39 119.859V157.48L382.55 168.9C377.66 172.66 374.8 178.48 374.8 184.64V186.2C372.76 185.95 370.65 185.75 368.46 185.62C368.29 185.61 368.12 185.61 367.95 185.6C367.02 185.55 366.09 185.5 365.13 185.47C364 185.44 362.84 185.42 361.67 185.42H322.03L321.61 181.16L316.3 127.609C315.92 123.739 318.95 120.389 322.84 120.389H351.13C352.23 120.389 353.25 120.059 354.09 119.489C354.65 119.109 355.14 118.619 355.52 118.059C355.9 117.499 356.18 116.859 356.32 116.169C356.39 115.829 356.43 115.469 356.43 115.099C356.43 113.819 355.96 112.659 355.2 111.749C354.23 110.569 352.78 109.809 351.13 109.809C351.13 109.809 349.08 109.809 346.92 109.809C344.31 109.809 342 108.019 341.44 105.459C340.19 99.7494 337.36 94.6294 333.43 90.5794C333.39 90.5394 333.35 90.4994 333.32 90.4594C333.05 90.1794 332.77 89.9094 332.49 89.6494C332.42 89.5794 332.35 89.5094 332.28 89.4494C332.02 89.2094 331.75 88.9694 331.48 88.7294C331.38 88.6494 331.29 88.5594 331.19 88.4794C330.93 88.2594 330.67 88.0494 330.41 87.8494C330.29 87.7594 330.17 87.6594 330.05 87.5694C329.8 87.3794 329.54 87.1894 329.29 87.0094C329.15 86.9094 329.01 86.8094 328.87 86.7094C328.62 86.5394 328.37 86.3694 328.12 86.2094C327.96 86.1094 327.8 85.9994 327.64 85.8994C327.4 85.7494 327.15 85.5994 326.9 85.4494C326.73 85.3494 326.55 85.2494 326.37 85.1494C326.13 85.0094 325.88 84.8794 325.64 84.7494C325.45 84.6494 325.26 84.5494 325.07 84.4594C324.83 84.3394 324.59 84.2194 324.34 84.1094C324.14 84.0194 323.93 83.9194 323.73 83.8294C323.49 83.7194 323.25 83.6194 323.01 83.5194C322.79 83.4294 322.58 83.3494 322.36 83.2594C322.12 83.1694 321.88 83.0794 321.64 82.9894C321.41 82.9094 321.18 82.8294 320.95 82.7594C320.71 82.6794 320.47 82.5994 320.23 82.5294C319.99 82.4594 319.75 82.3894 319.5 82.3194C319.27 82.2594 319.03 82.1894 318.79 82.1294C318.54 82.0694 318.28 82.0094 318.02 81.9494C317.79 81.8994 317.56 81.8394 317.33 81.7994C317.06 81.7494 316.79 81.6994 316.52 81.6594C316.29 81.6194 316.07 81.5794 315.84 81.5394C315.55 81.4994 315.26 81.4594 314.97 81.4294C314.76 81.3994 314.54 81.3694 314.33 81.3494C314 81.3194 313.67 81.2994 313.34 81.2794C313.16 81.2694 312.98 81.2494 312.79 81.2394C312.31 81.2194 311.83 81.1994 311.34 81.1994C311.31 81.1994 311.27 81.1994 311.24 81.1994C311.21 81.1994 311.17 81.1994 311.14 81.1994C310.65 81.1994 310.17 81.2094 309.69 81.2394C309.51 81.2394 309.32 81.2694 309.14 81.2794C308.81 81.2994 308.48 81.3194 308.15 81.3494C307.93 81.3694 307.72 81.3994 307.51 81.4294C307.22 81.4694 306.93 81.4994 306.64 81.5394C306.41 81.5694 306.19 81.6194 305.96 81.6594C305.69 81.7094 305.42 81.7494 305.15 81.7994C304.92 81.8494 304.69 81.8994 304.46 81.9494C304.2 82.0094 303.95 82.0594 303.69 82.1294C303.45 82.1894 303.22 82.2594 302.98 82.3194C302.74 82.3894 302.49 82.4494 302.25 82.5294C302.01 82.5994 301.77 82.6794 301.53 82.7594C301.3 82.8394 301.07 82.9094 300.84 82.9894C300.6 83.0794 300.36 83.1694 300.12 83.2594C299.9 83.3394 299.68 83.4294 299.47 83.5194C299.23 83.6194 298.99 83.7294 298.75 83.8294C298.55 83.9194 298.34 84.0094 298.14 84.1094C297.9 84.2194 297.65 84.3394 297.41 84.4594C297.22 84.5594 297.03 84.6494 296.84 84.7494C296.59 84.8794 296.35 85.0094 296.11 85.1494C295.93 85.2494 295.76 85.3494 295.59 85.4494C295.34 85.5994 295.09 85.7494 294.85 85.8994C294.69 85.9994 294.53 86.0994 294.37 86.2094C294.12 86.3694 293.87 86.5394 293.62 86.7094C293.48 86.8094 293.34 86.9094 293.2 87.0094C292.94 87.1894 292.69 87.3794 292.44 87.5694C292.32 87.6594 292.2 87.7594 292.08 87.8494C291.82 88.0594 291.56 88.2694 291.3 88.4794C291.2 88.5594 291.11 88.6494 291.01 88.7294C290.74 88.9594 290.47 89.1994 290.21 89.4494C290.14 89.5194 290.07 89.5894 290 89.6494C289.72 89.9194 289.44 90.1894 289.17 90.4594C289.13 90.4994 289.09 90.5394 289.06 90.5794C285.13 94.6294 282.3 99.7494 281.05 105.459C280.49 108.009 278.19 109.809 275.57 109.809H271.36C269.9 109.809 268.57 110.399 267.61 111.359C266.65 112.319 266.06 113.639 266.06 115.109C266.06 115.479 266.1 115.829 266.17 116.179C266.31 116.869 266.59 117.509 266.97 118.069C267.92 119.479 269.53 120.409 271.36 120.409H299.65C303.54 120.409 306.57 123.759 306.19 127.629L300.88 181.18L300.46 185.44H249.1L248.92 168.57C248.86 162.93 244.27 158.39 238.64 158.39V73.9094C238.64 65.9994 233.95 58.8494 226.7 55.6994L223.66 54.3794C220.73 53.1094 217.46 55.2494 217.46 58.4494V138.859H215.59C210.72 138.859 206.45 142.109 205.15 146.809L193.14 190.25H181.05C175.14 190.25 169.81 193.8 167.53 199.25L165.96 203.01H147.74L144.3 180.18C143.54 175.11 139.18 171.37 134.06 171.37H131.46V148.549H134.06C138.11 148.549 141.39 145.269 141.39 141.219V139.259C141.39 138.249 140.57 137.429 139.56 137.429H123.58V128.929H134.01C138.06 128.929 141.34 125.649 141.34 121.599V119.639C141.34 118.629 140.52 117.809 139.51 117.809H123.58V109.309H134.06C138.11 109.309 141.39 106.029 141.39 101.979V100.019C141.39 99.0094 140.57 98.1894 139.56 98.1894H93.16C92.15 98.1894 91.33 99.0094 91.33 100.019V101.979C91.33 106.029 94.61 109.309 98.66 109.309H109.71L99.18 231.91H84.03V196.98C84.03 192.94 80.75 189.66 76.71 189.66C75.45 189.66 74.26 189.98 73.22 190.54C73.01 190.65 72.81 190.78 72.62 190.91C72.23 191.17 71.87 191.47 71.54 191.8C71.21 192.13 70.91 192.49 70.65 192.88C69.86 194.05 69.4 195.46 69.4 196.97V231.9H50.83L39.16 153.479C38.75 150.739 36.4 148.709 33.63 148.709H31.74C30.48 148.709 29.45 149.729 29.45 150.999V173.03H28.02C22.85 173.03 18.06 175.72 15.38 180.14L0 205.26V584.38H1920V190.25V121.019H1905.06ZM976.6 250.08V263.81C975.07 262.96 973.48 262.2 971.84 261.53C971.73 261.49 971.62 261.439 971.51 261.4C970.82 261.13 970.12 260.87 969.41 260.63C969.26 260.58 969.12 260.53 968.97 260.48C968.19 260.22 967.4 259.99 966.59 259.77C966.56 259.77 966.53 259.75 966.5 259.74C965.65 259.52 964.8 259.32 963.93 259.15C963.77 259.12 963.62 259.1 963.46 259.07C962.78 258.94 962.1 258.83 961.41 258.74C961.15 258.7 960.89 258.67 960.63 258.64C960.01 258.57 959.39 258.51 958.76 258.46C958.5 258.44 958.25 258.42 957.99 258.4C957.12 258.35 956.25 258.32 955.38 258.32C954.71 258.32 954.05 258.34 953.38 258.37C953.17 258.37 952.96 258.39 952.74 258.41C952.28 258.44 951.82 258.47 951.36 258.51C951.13 258.53 950.9 258.55 950.67 258.57C950.08 258.63 949.49 258.71 948.91 258.79C948.6 258.84 948.3 258.89 947.99 258.94C947.69 258.99 947.39 259.04 947.09 259.1C946.73 259.17 946.37 259.24 946.01 259.32C945.8 259.37 945.59 259.42 945.37 259.47C944.5 259.67 943.63 259.9 942.78 260.16V250.07H976.57L976.6 250.08ZM477.12 250.08H494.43V287.42H454.39C454.34 286.51 454.28 285.61 454.21 284.72V284.67C454.14 283.79 454.05 282.91 453.96 282.04V281.97C453.86 281.1 453.75 280.25 453.63 279.39V279.31C453.5 278.46 453.37 277.61 453.22 276.77V276.71C453.06 275.87 452.91 275.03 452.74 274.2V274.17C450.87 265.01 447.63 256.87 443.41 250.43C443.36 250.35 443.31 250.26 443.25 250.18C442.95 249.719 442.63 249.28 442.32 248.83C442.22 248.69 442.12 248.54 442.02 248.4C441.73 248 441.44 247.62 441.14 247.24C441 247.07 440.87 246.89 440.73 246.72C440.45 246.37 440.17 246.04 439.88 245.7C439.72 245.51 439.56 245.32 439.39 245.13C439.12 244.82 438.84 244.53 438.56 244.23C438.37 244.03 438.19 243.84 438 243.65C437.73 243.38 437.46 243.11 437.19 242.85C436.99 242.65 436.78 242.46 436.58 242.27C436.31 242.03 436.05 241.79 435.78 241.56C435.56 241.37 435.34 241.18 435.11 241C434.85 240.78 434.58 240.57 434.31 240.37C434.07 240.19 433.84 240.01 433.6 239.84C433.34 239.65 433.07 239.469 432.81 239.29C432.56 239.12 432.31 238.96 432.05 238.8C431.79 238.64 431.53 238.47 431.26 238.32C431 238.17 430.73 238.02 430.46 237.88C430.2 237.74 429.94 237.6 429.68 237.47C429.4 237.33 429.12 237.21 428.84 237.08C428.58 236.96 428.33 236.85 428.07 236.74C427.78 236.62 427.48 236.51 427.18 236.4C426.93 236.31 426.67 236.21 426.42 236.13C426.11 236.03 425.79 235.94 425.48 235.86C425.23 235.79 424.99 235.72 424.74 235.66C424.4 235.58 424.07 235.52 423.73 235.45C423.5 235.4 423.27 235.35 423.03 235.31C422.65 235.25 422.27 235.21 421.88 235.17C421.68 235.15 421.49 235.12 421.29 235.1C420.71 235.05 420.12 235.03 419.54 235.03V215.61C422.48 218.36 425.3 221.19 428.1 224C441.46 237.41 454.09 250.08 477.1 250.08H477.12ZM249.1 192.43H299.69L298.44 205.03L297.75 211.95H285.01C283.58 211.95 282.21 212.17 280.92 212.57C280.06 212.84 279.23 213.19 278.45 213.61C278.06 213.82 277.68 214.05 277.31 214.3C273.65 216.77 271.24 220.96 271.24 225.72V230.39H249.49L249.09 192.43H249.1ZM344.82 216.15C343.24 209.329 337.17 204.51 330.17 204.51H323.87L323.78 203.6L322.67 192.42H361.62C362.77 192.42 363.91 192.44 365.02 192.47C365.19 192.47 365.36 192.49 365.53 192.49C366.49 192.52 367.44 192.57 368.37 192.63C368.46 192.63 368.54 192.64 368.63 192.65C369.65 192.72 370.65 192.8 371.63 192.89H371.66C372.71 193 373.73 193.12 374.74 193.25V236.87H349.62L344.82 216.14V216.15ZM565.72 291.25C565.72 289.13 564 287.42 561.89 287.42H558.72C555.26 287.42 552.33 289.7 551.35 292.84C551.27 293.08 551.21 293.33 551.16 293.58C551.06 294.08 551 294.6 551 295.13V315.88H530V250.08H621.43C620.69 253.14 620 256.3 619.35 259.56C619.34 259.63 619.32 259.71 619.31 259.78C618.35 264.65 617.49 269.76 616.77 275.09C616.77 275.16 616.75 275.23 616.74 275.3C616.26 278.86 615.83 282.53 615.47 286.31C615.47 286.36 615.47 286.42 615.45 286.47C615.27 288.35 615.11 290.26 614.96 292.19H593.73C588.04 292.19 583.42 296.81 583.42 302.5V315.89H565.7V291.26L565.72 291.25ZM808.44 282.3L783.25 312.82C779.17 317.76 776.94 323.96 776.94 330.359V343.54H770.07C764.54 343.54 760.06 348.02 760.06 353.549V357.4H738.11V319C738.11 316.07 735.74 313.7 732.81 313.7C729.88 313.7 727.51 316.07 727.51 319V336.9L695.35 320.46L688.89 250.08H808.43V282.3H808.44ZM884.34 250.08H934.44V263.66C933.69 264.07 932.96 264.51 932.24 264.96C932.07 265.06 931.91 265.17 931.74 265.28C931.15 265.66 930.57 266.05 930 266.46C929.86 266.56 929.72 266.66 929.58 266.76C928.18 267.78 926.85 268.88 925.59 270.06C925.47 270.18 925.34 270.3 925.22 270.41C924.7 270.91 924.18 271.42 923.69 271.95C923.58 272.06 923.48 272.17 923.37 272.28C922.18 273.56 921.06 274.91 920.03 276.33C919.96 276.43 919.89 276.53 919.82 276.63C919.37 277.26 918.93 277.91 918.51 278.56C918.45 278.66 918.38 278.76 918.32 278.86C917.37 280.38 916.51 281.96 915.74 283.59C915.71 283.65 915.69 283.71 915.66 283.77C915.31 284.54 914.98 285.32 914.67 286.11C914.64 286.19 914.61 286.26 914.58 286.34C913.92 288.06 913.36 289.84 912.91 291.66V291.72C912.68 292.6 912.5 293.49 912.34 294.39C912.33 294.45 912.32 294.52 912.31 294.58C911.99 296.46 911.78 298.37 911.71 300.32H887.76L884.34 250.06V250.08ZM1044.55 300.34H1039.63V279.25C1039.63 276.7 1037.57 274.64 1035.02 274.64H1031.16C1028.61 274.64 1026.55 276.7 1026.55 279.25V300.34H999.08C998.85 294.28 997.38 288.53 994.92 283.35V283.32C994.61 282.7 994.3 282.08 993.98 281.48C993.97 281.45 993.95 281.42 993.94 281.4C993.63 280.82 993.31 280.26 992.97 279.69C992.94 279.64 992.91 279.58 992.88 279.52C992.56 278.99 992.22 278.46 991.88 277.94C991.83 277.86 991.78 277.79 991.73 277.71C991.4 277.22 991.05 276.73 990.7 276.25C990.63 276.16 990.57 276.06 990.49 275.96C990.15 275.5 989.8 275.06 989.44 274.62C989.35 274.51 989.27 274.39 989.18 274.28C988.83 273.86 988.47 273.45 988.11 273.04C988 272.92 987.9 272.79 987.79 272.67C987.42 272.26 987.04 271.87 986.65 271.48C986.54 271.37 986.44 271.25 986.32 271.14C985.82 270.64 985.31 270.15 984.79 269.68V250.07H1030.05C1040.63 250.07 1049.41 244.47 1059.57 237.99C1072.53 229.72 1087.22 220.35 1109.93 220.35H1134.49V230C1130.24 230 1126.8 233.44 1126.8 237.69V257.58H1116.49C1112.96 257.58 1109.89 259.98 1109.03 263.4L1099.59 301.07L1097.95 307.63H1094.17V284.25C1094.17 281.42 1091.88 279.13 1089.05 279.13H1087.76C1084.93 279.13 1082.64 281.42 1082.64 284.25V307.63C1080.15 307.63 1078.14 309.64 1078.14 312.13V322.71H1067.73L1054.67 305.39C1052.27 302.21 1048.51 300.34 1044.53 300.34H1044.55ZM1156.63 288.51V265.1C1156.63 260.95 1153.27 257.59 1149.12 257.59H1148.01V220.37H1195.17C1194.67 224.99 1194.15 229.28 1193.61 233.23L1193.59 233.37C1193.51 233.98 1193.42 234.58 1193.34 235.17L1193.32 235.34C1193.24 235.91 1193.16 236.48 1193.08 237.04C1193.07 237.12 1193.06 237.2 1193.04 237.29C1192.96 237.82 1192.88 238.35 1192.81 238.87C1192.8 238.96 1192.78 239.04 1192.77 239.13C1192.69 239.65 1192.61 240.16 1192.54 240.66L1192.51 240.88C1192.43 241.38 1192.35 241.88 1192.28 242.37L1192.24 242.59C1192.16 243.08 1192.08 243.57 1192.01 244.05L1191.98 244.23C1191.9 244.72 1191.82 245.2 1191.74 245.68C1191.74 245.719 1191.73 245.77 1191.72 245.81C1191.64 246.3 1191.56 246.78 1191.47 247.25V247.33C1191.37 247.82 1191.29 248.3 1191.2 248.77V248.79C1191.11 249.27 1191.02 249.75 1190.94 250.21L1179.14 288.54H1156.64L1156.63 288.51ZM1242.69 242.39H1214.83C1214.59 240.86 1214.34 239.26 1214.1 237.59L1214.08 237.45C1213.84 235.81 1213.6 234.1 1213.36 232.33L1213.32 232.07C1213.21 231.22 1213.1 230.36 1212.98 229.49V229.39C1212.85 228.47 1212.73 227.53 1212.62 226.58C1212.62 226.5 1212.6 226.43 1212.59 226.35C1212.49 225.49 1212.38 224.61 1212.28 223.72C1212.27 223.59 1212.25 223.47 1212.24 223.34C1212.13 222.36 1212.02 221.37 1211.91 220.36H1242.67V242.38L1242.69 242.39ZM1365.39 258.53L1359.69 269.76H1343.94V220.36H1402.87L1395.32 245.38H1386.81C1377.77 245.38 1369.49 250.46 1365.4 258.52L1365.39 258.53ZM1496.75 266.76V251.96C1496.75 247.5 1493.13 243.88 1488.67 243.88H1480.83C1476.37 243.88 1472.75 247.5 1472.75 251.96V284.55H1451.94V220.36H1532.27V284.55H1514.38V274.84C1514.38 270.38 1510.76 266.76 1506.3 266.76H1496.75ZM1612.81 234.15L1593.2 243.13C1580.47 248.96 1572.31 261.67 1572.31 275.67V284.55H1547.11V220.36H1612.81V234.15ZM1709 242.01H1687.81V241.69C1687.81 234 1681.57 227.76 1673.88 227.76H1670.19V220.36H1709V242.01Z" fill="url(#paint2_linear_2665_24508)"/>
<path d="M1875.51 399.41V300.13H1790.01V357.33L1762.46 337.3H1738.93V217.55C1738.93 212.03 1734.45 207.55 1728.93 207.55H1714.8V173.91C1714.8 171.12 1712.16 169.01 1709.47 169.75C1688.43 175.49 1672.14 214.81 1672.14 262.45C1672.14 293.08 1678.87 320.27 1689.28 337.3H1635.16V282.74C1635.16 276.2 1629.86 270.89 1623.31 270.89H1604.79V225.7C1604.79 223.16 1602.73 221.11 1600.19 221.11H1594.65C1586.56 221.11 1579.99 227.67 1579.99 235.77V326.64H1563.59C1552.89 326.64 1544.22 335.31 1544.22 346.01V412.91H1471.56C1462.14 412.91 1454.51 420.54 1454.51 429.96V446.66H1354.11V434.1C1354.11 424.81 1346.59 417.28 1337.3 417.28H1314.46V346.6C1314.46 344.22 1312.53 342.28 1310.14 342.28C1306.64 342.28 1303.51 344.44 1302.28 347.71L1284.93 393.6H1271.23C1262.96 393.6 1256.25 400.31 1256.25 408.59V463.92H1192.31V298.17C1192.31 293.42 1196.16 289.57 1200.91 289.57H1215.81C1220 289.57 1223.4 286.17 1223.4 281.98C1223.4 277.79 1220 274.39 1215.81 274.39H1192.31V259.84C1192.31 255.09 1196.16 251.24 1200.91 251.24H1225.67C1229.86 251.24 1233.26 247.84 1233.26 243.65C1233.26 239.46 1229.86 236.06 1225.67 236.06H1142.27C1138.08 236.06 1134.68 239.46 1134.68 243.65C1134.68 247.84 1138.08 251.24 1142.27 251.24H1167.03C1171.78 251.24 1175.63 255.09 1175.63 259.84V274.39H1152.13C1147.94 274.39 1144.54 277.79 1144.54 281.98C1144.54 286.17 1147.94 289.57 1152.13 289.57H1167.03C1171.78 289.57 1175.63 293.42 1175.63 298.17V463.92H1139.26V341.6C1139.26 333.94 1133.05 327.73 1125.39 327.73H1106.82V294.55C1106.82 291.98 1104.73 289.89 1102.16 289.89H1097.84C1084.75 289.89 1074.14 300.51 1074.14 313.6V375.76H1069.83C1062.15 375.76 1055.92 381.99 1055.92 389.67V472.73L1027.61 512.46H998.126V378.29C998.126 368.86 993.446 360.04 985.627 354.76L974.228 347.05V238.53C974.228 235.84 972.049 233.66 969.359 233.66H966.279C952.971 233.66 942.192 244.46 942.212 257.77L942.302 311.2L931.473 321.09C925.584 326.47 922.234 334.08 922.234 342.06V512.47H893.478L882.429 504.3C877.01 500.29 870.44 498.13 863.691 498.13H787.18L751.994 466.57C743.685 459.12 732.926 455 721.767 455H659.794V446.67C659.794 435.48 650.725 426.41 639.537 426.41H625.628V304.65C625.628 280.69 606.211 261.26 582.243 261.26C578.444 261.26 575.354 264.34 575.354 268.15V323.56H568.385C557.876 323.56 549.347 332.08 549.347 342.6L549.367 426.41H503.712C503.712 415.08 494.533 405.9 483.205 405.9H445.939V340.18C445.939 330.85 438.38 323.28 429.041 323.28H415.422V405.9H373.277L368.858 279.04C368.708 274.84 372.077 271.36 376.277 271.36H381.476C382.936 271.36 384.256 270.76 385.216 269.8C386.386 268.63 387.016 266.92 386.696 265.11C386.236 262.55 383.876 260.77 381.276 260.77H368.218L367.908 251.78C367.788 248.38 369.918 245.28 373.167 244.25C387.046 239.84 397.814 228.44 401.334 214.19C402.204 210.66 405.304 208.13 408.933 208.13H415.122C418.302 208.13 420.902 205.53 420.902 202.36V201.83C420.902 198.65 418.302 196.05 415.122 196.05H305.655C302.475 196.05 299.876 198.65 299.876 201.83V202.36C299.876 205.53 302.475 208.13 305.655 208.13H311.844C315.484 208.13 318.574 210.66 319.443 214.19C322.963 228.45 333.722 239.85 347.61 244.25C350.85 245.28 352.99 248.38 352.87 251.78L352.56 260.77H339.301C337.841 260.77 336.521 261.37 335.562 262.32C334.392 263.49 333.762 265.2 334.092 267.01C334.552 269.57 336.921 271.36 339.521 271.36H344.511C348.71 271.36 352.08 274.84 351.93 279.04L347.51 405.9H339.891L309.934 377.44C303.485 371.31 294.926 367.9 286.037 367.9H267.609C266.489 253.85 246.632 163 222.285 163C197.937 163 178.08 253.85 176.97 367.89H0L0.219975 595.12H1920V399.41H1875.51Z" fill="url(#paint3_linear_2665_24508)"/>
<path d="M465.074 160.205C465.594 165.994 459.988 171.233 452.544 171.903C445.11 172.573 438.655 168.424 438.135 162.634C437.615 156.845 443.221 151.606 450.665 150.936C458.11 150.256 464.555 154.416 465.074 160.205Z" fill="url(#paint4_linear_2665_24508)"/>
<path d="M469.518 160.583L458.546 161.573L458.406 160.013L469.378 159.023L469.518 160.583Z" fill="url(#paint5_linear_2665_24508)"/>
<path d="M472.003 162.205C473.455 162.205 474.632 161.027 474.632 159.575C474.632 158.122 473.455 156.945 472.003 156.945C470.552 156.945 469.375 158.122 469.375 159.575C469.375 161.027 470.552 162.205 472.003 162.205Z" fill="url(#paint6_linear_2665_24508)"/>
<path d="M438.142 162.624L431.188 149.186C431.188 149.186 441.27 147.476 446.026 152.455L438.142 162.624Z" fill="url(#paint7_linear_2665_24508)"/>
<path d="M438.148 162.625L433.711 177.093C433.711 177.093 443.933 176.973 447.73 171.224L438.148 162.625Z" fill="url(#paint8_linear_2665_24508)"/>
<path opacity="0.3" d="M427.734 164.145C427.734 164.145 336.494 173.783 266.797 206.849L427.734 164.145Z" fill="url(#paint9_linear_2665_24508)"/>
<path d="M1920 323.442H1903.56C1903.4 322.952 1903.23 322.442 1903.06 322.002C1902.89 321.562 1902.83 321.352 1902.72 321.002C1902.45 320.262 1902.17 319.522 1901.88 318.802L1901.49 317.802C1901.31 317.352 1901.12 316.912 1900.94 316.472C1900.76 316.032 1900.65 315.822 1900.51 315.472C1900.22 314.822 1899.92 314.172 1899.62 313.532C1899.47 313.202 1899.31 312.872 1899.15 312.532C1898.99 312.192 1898.77 311.752 1898.57 311.372C1898.37 310.992 1898.06 310.372 1897.79 309.902C1897.52 309.432 1897.36 309.102 1897.13 308.712C1896.9 308.322 1896.75 308.042 1896.55 307.712L1895.99 306.772C1895.7 306.312 1895.41 305.892 1895.12 305.422C1894.95 305.162 1894.66 304.732 1894.49 304.462L1893.65 303.292C1893.43 302.972 1893.2 302.672 1892.97 302.362L1892.06 301.202L1891.52 300.552C1891.12 300.082 1890.73 299.632 1890.32 299.192C1890.16 299.012 1890 298.842 1889.83 298.672C1889.66 298.502 1889.21 298.032 1888.89 297.722C1888.74 297.562 1888.58 297.412 1888.42 297.262C1887.99 296.852 1887.55 296.452 1887.1 296.082L1886.66 295.702C1886.27 295.382 1885.87 295.072 1885.47 294.782L1885.16 294.542C1884.68 294.192 1884.16 293.872 1883.71 293.542L1883.28 293.282C1882.78 292.982 1882.28 292.692 1881.77 292.432L1881.56 292.332C1881.09 292.092 1880.62 291.882 1880.14 291.682L1879.76 291.522C1879.24 291.312 1878.76 291.122 1878.18 290.962L1877.86 290.862C1877.37 290.722 1876.86 290.602 1876.39 290.492C1876.3 290.492 1876.21 290.462 1876.12 290.432C1875.57 290.332 1875.02 290.242 1874.47 290.182H1874.09C1873.52 290.182 1872.95 290.092 1872.37 290.092C1871.79 290.092 1871.23 290.092 1870.66 290.182H1870.28C1869.73 290.242 1869.18 290.332 1868.63 290.432L1868.36 290.492C1867.87 290.602 1867.36 290.722 1866.89 290.862L1866.24 291.062C1865.82 291.192 1865.4 291.342 1864.99 291.522L1864.61 291.682C1864.13 291.882 1863.61 292.092 1863.19 292.332L1862.98 292.432C1862.47 292.692 1861.98 292.982 1861.47 293.282L1861.04 293.542C1860.55 293.852 1860.04 294.172 1859.59 294.542L1859.27 294.782C1858.88 295.072 1858.48 295.382 1858.09 295.702L1857.64 296.082C1857.2 296.452 1856.76 296.852 1856.33 297.262L1855.85 297.722C1855.52 298.032 1855.2 298.362 1854.89 298.692C1854.61 298.982 1854.58 299.022 1854.42 299.192C1854.02 299.632 1853.62 300.082 1853.23 300.552L1852.69 301.202L1851.78 302.362L1851.09 303.292L1850.32 304.382C1850.13 304.662 1849.94 304.932 1849.76 305.222C1849.42 305.722 1849.09 306.222 1848.76 306.772L1848.2 307.712C1848 308.042 1847.81 308.372 1847.62 308.712C1847.43 309.052 1847.17 309.492 1846.95 309.902C1846.73 310.312 1846.43 310.902 1846.17 311.372L1845.6 312.532C1845.44 312.852 1845.28 313.182 1845.13 313.532C1844.82 314.172 1844.53 314.822 1844.24 315.472C1844.09 315.802 1843.95 316.122 1843.81 316.472C1843.67 316.822 1843.44 317.352 1843.26 317.802C1843.08 318.252 1842.99 318.462 1842.86 318.802C1842.58 319.522 1842.3 320.262 1842.03 321.002C1841.91 321.322 1841.8 321.642 1841.68 322.002C1841.56 322.362 1841.35 322.952 1841.19 323.442H1791.81C1791.94 321.552 1792.04 319.632 1792.11 317.692V317.412C1792.17 315.502 1792.21 313.572 1792.21 311.612C1792.21 293.242 1789.37 276.612 1784.77 264.612C1780.17 252.612 1773.77 245.132 1766.77 245.132C1766.38 245.132 1765.98 245.172 1765.59 245.212H1765.25C1764.96 245.212 1764.67 245.312 1764.38 245.392L1764.05 245.472C1763.67 245.572 1763.29 245.702 1762.91 245.842L1762.81 245.892C1762.47 246.032 1762.13 246.192 1761.81 246.372L1761.46 246.562C1761.19 246.712 1760.92 246.872 1760.66 247.042L1760.33 247.262C1759.96 247.512 1759.61 247.772 1759.27 248.052L1759.05 248.232C1758.77 248.472 1758.49 248.712 1758.21 248.982L1757.84 249.342C1757.6 249.572 1757.37 249.812 1757.14 250.062C1756.91 250.312 1756.9 250.312 1756.79 250.442C1756.47 250.802 1756.15 251.172 1755.84 251.572C1755.73 251.702 1755.62 251.842 1755.52 251.982L1754.86 252.862C1754.79 252.962 1754.72 253.052 1754.65 253.152L1753.89 254.292L1753.5 254.902C1753.22 255.352 1752.94 255.812 1752.67 256.292L1752.27 257.022C1752.11 257.312 1751.95 257.602 1751.8 257.902C1751.65 258.202 1751.51 258.472 1751.36 258.762C1751.21 259.052 1751.08 259.322 1750.95 259.612C1750.82 259.902 1750.77 259.972 1750.69 260.152L1749.82 262.092L1749.37 263.192L1749.05 263.992C1748.9 264.372 1748.75 264.762 1748.61 265.152C1748.47 265.542 1748.42 265.672 1748.33 265.922C1747.82 267.342 1747.33 268.802 1746.87 270.332L1746.66 271.042C1746.51 271.522 1746.37 272.042 1746.24 272.502L1746.06 273.132C1745.61 274.802 1745.19 276.522 1744.8 278.292L1744.65 278.962C1744.53 279.522 1744.41 280.082 1744.3 280.652C1744.3 280.832 1744.23 281.022 1744.19 281.202C1743.94 282.482 1743.7 283.792 1743.48 285.122H1736.48C1732.73 285.122 1729.69 288.172 1729.68 291.922V323.442H1693.8V300.442C1693.8 299.592 1693.11 298.902 1692.26 298.902H1691.86C1688.27 298.902 1685.36 301.812 1685.36 305.402V323.442H1666.71V316.012C1666.71 311.882 1663.36 308.532 1659.23 308.532C1658.35 308.532 1657.54 308.892 1656.96 309.472C1656.38 310.052 1656.02 310.862 1656.02 311.742V323.442H1516.48L1498.35 323.482C1495 290.432 1492.49 254.332 1491.88 217.342C1491.8 212.722 1494.95 208.722 1499.42 207.542C1519.86 202.182 1536.13 186.552 1542.41 166.502C1543.54 162.912 1546.9 160.492 1550.67 160.492H1565.1C1569.38 160.492 1572.85 157.022 1572.85 152.742C1572.85 148.462 1569.38 144.992 1565.1 144.992H1402.41C1398.13 144.992 1394.66 148.462 1394.66 152.742C1394.66 157.022 1398.13 160.492 1402.41 160.492H1416.86C1420.63 160.492 1423.99 162.912 1425.12 166.502C1431.4 186.542 1447.67 202.172 1468.11 207.542C1472.58 208.722 1475.72 212.722 1475.65 217.342C1475.04 254.352 1472.53 290.482 1469.17 323.542H1441.23L1439.79 323.602H1438.94L1437.56 323.672L1436.74 323.722L1435.38 323.822L1434.62 323.882L1433.25 324.002L1432.58 324.062L1431.13 324.212L1430.6 324.272L1428.97 324.472H1428.69C1426.07 324.822 1423.69 325.252 1421.37 325.752L1419.73 326.132H1419.64C1419.12 326.252 1418.64 326.382 1418.12 326.522H1418.02L1416.55 326.942H1416.48C1415.98 327.082 1415.48 327.242 1415.01 327.392V281.752C1415.01 278.222 1412.15 275.362 1408.62 275.362H1397.03C1384.84 275.362 1374.96 285.242 1374.96 297.432V327.832L1357.61 342.442C1352.94 346.372 1350.24 352.172 1350.24 358.272V368.762H1268.83C1268.82 367.052 1268.09 365.412 1266.83 364.252L1215.23 316.252C1214.06 315.082 1212.16 315.082 1210.99 316.252C1210.4 316.842 1210.08 317.652 1210.11 318.482V352.482C1210.11 355.722 1208.56 358.772 1205.95 360.692L1194.95 368.762H992.39C942.55 368.762 924.78 356.532 909.09 345.762C896.82 337.322 885.22 329.342 861.89 329.342H841.95L836.45 329.312V328.702C836.45 319.092 844.23 311.302 853.85 311.302H873.68C876.99 311.302 879.96 308.902 880.29 305.602C880.67 301.822 877.68 298.602 873.98 298.602H836.45V298.502C836.45 288.902 844.23 281.112 853.85 281.112H873.68C876.99 281.112 879.96 278.712 880.29 275.412C880.67 271.632 877.68 268.412 873.98 268.412H866.97C866.97 268.162 867 267.922 867 267.672C867 247.412 850.58 230.992 830.33 230.992C810.08 230.992 793.66 247.412 793.66 267.672C793.66 267.922 793.68 268.162 793.68 268.412H786.98C783.66 268.412 780.69 270.822 780.37 274.112C779.98 277.892 782.98 281.112 786.68 281.112H806.81C816.41 281.112 824.2 288.892 824.2 298.502V298.602H786.98C783.66 298.602 780.69 301.012 780.37 304.302C779.98 308.082 782.98 311.302 786.68 311.302H806.81C816.41 311.302 824.2 319.082 824.2 328.702V329.282H731.66V290.442C731.66 286.962 728.85 284.142 725.37 284.132H725.35C721.19 284.132 717.42 285.822 714.69 288.542C711.97 291.272 710.28 295.042 710.28 299.202V329.322H523.37C523.56 328.382 523.66 327.422 523.66 326.462C523.66 324.982 523.06 323.632 522.08 322.662C521.11 321.682 519.77 321.082 518.28 321.082H464.49V303.522H509.66C517.39 303.522 523.66 297.252 523.66 289.522C523.66 288.042 523.06 286.692 522.08 285.722C521.11 284.742 519.77 284.142 518.28 284.142H464.49V266.582H509.66C517.39 266.582 523.66 260.312 523.66 252.582C523.66 251.102 523.06 249.752 522.08 248.782C521.11 247.802 519.77 247.202 518.28 247.202H464.49V229.642H509.66C517.39 229.642 523.66 223.372 523.66 215.642C523.65 212.672 521.25 210.272 518.28 210.262H464.49V202.432C464.49 196.322 469.44 191.372 475.54 191.372H513.95C519.3 191.372 523.64 187.022 523.64 181.672C523.64 176.322 519.3 171.982 513.95 171.982H380.91C375.56 171.982 371.22 176.322 371.22 181.672C371.22 187.022 375.56 191.362 380.91 191.362H418.84C425.63 193.132 429.54 198.242 431.24 204.642C431.33 204.992 431.41 205.352 431.49 205.702C431.51 205.772 431.53 205.852 431.54 205.922C431.61 206.252 431.68 206.582 431.74 206.922C431.74 207.022 431.74 207.122 431.79 207.222C431.85 207.542 431.89 207.872 431.94 208.222V208.582C431.94 208.892 432.02 209.212 432.05 209.532V209.912C432.05 210.232 432.11 210.552 432.12 210.912V211.262C432.17 212.262 432.17 213.352 432.12 214.412V214.962C432.12 215.142 432.12 215.462 432.07 215.712C432.02 215.962 432.07 216.162 432.02 216.382L431.96 217.092C431.96 217.332 431.91 217.572 431.88 217.812L431.79 218.482C431.79 218.732 431.72 218.992 431.68 219.242C431.64 219.492 431.62 219.672 431.58 219.882C431.54 220.092 431.49 220.402 431.44 220.662L431.32 221.272C431.27 221.552 431.21 221.832 431.15 222.102C431.09 222.372 431.06 222.472 431.02 222.662C430.98 222.852 430.87 223.272 430.79 223.572C430.71 223.872 430.72 223.882 430.68 224.032C430.55 224.482 430.43 224.932 430.29 225.382C430.15 225.832 430.05 226.152 429.93 226.572L429.45 228.112V228.242L428.97 229.802C428.97 229.872 428.34 231.852 428.31 231.962C428.15 232.462 427.41 234.882 427.23 235.462C427.14 235.742 401.79 318.052 398.27 329.412L184.24 329.292V284.292C184.24 281.592 182.05 279.402 179.35 279.402H176.76C169.09 279.402 162.24 284.202 159.61 291.402L148.8 321.022H122.61C115.82 321.022 109.62 324.882 106.61 330.962L102.44 339.372C99.67 345.042 93.92 348.632 87.61 348.642H49.63V310.922C49.63 301.932 42.34 294.642 33.35 294.642H0V605.002H1920V382.762H1908.65C1908.83 381.412 1908.97 380.042 1909.11 378.672L1909.2 377.672C1909.3 376.622 1909.38 375.572 1909.45 374.502L1909.54 373.202C1909.6 372.202 1909.64 371.132 1909.68 370.092V368.842C1909.68 367.402 1909.75 365.962 1909.75 364.502V359.432C1909.75 358.432 1909.68 357.492 1909.63 356.532C1909.63 356.152 1909.63 355.792 1909.56 355.422C1909.5 354.422 1909.44 353.522 1909.37 352.582L1909.28 351.582C1909.19 350.582 1909.1 349.582 1908.99 348.652L1908.9 347.842C1908.78 346.842 1908.65 345.782 1908.51 344.772L1908.42 344.172C1908.27 343.082 1908.1 342.002 1907.92 340.932C1907.92 340.802 1907.92 340.682 1907.85 340.552C1907.66 339.402 1907.45 338.272 1907.23 337.162V336.982C1906.99 335.802 1906.74 334.622 1906.47 333.472H1920V323.442ZM247.57 378.642C247.59 383.182 243.92 386.882 239.38 386.892H192.43C187.89 386.902 184.21 383.222 184.2 378.682V339.322H247.57V378.642ZM392.96 346.262C392.86 346.602 392.75 346.952 392.64 347.262C392.25 348.542 391.85 349.822 391.45 351.102C391.18 351.992 390.91 352.872 390.63 353.752L389.82 356.382C388.73 359.892 387.66 363.362 386.59 366.802C386.59 366.912 386.52 367.032 386.48 367.142L381.99 381.642C381.86 382.082 381.72 382.532 381.58 382.972L376.44 399.562L369.49 392.222C366.26 388.812 361.77 386.882 357.07 386.882H310.8V354.642C310.8 350.602 307.53 347.332 303.49 347.332H284.18V339.332H395.11C394.4 341.642 393.68 343.952 392.96 346.262ZM710.24 345.882H695.94C690.27 345.882 685.36 349.812 684.12 355.342L668.67 423.802C666.58 433.162 658.26 439.822 648.67 439.802H464.45V414.342H509.62C517.35 414.342 523.62 408.072 523.62 400.342C523.62 398.862 523.02 397.512 522.04 396.542C521.07 395.562 519.73 394.962 518.24 394.962H464.45V377.402H509.62C517.35 377.402 523.62 371.132 523.62 363.402C523.62 361.922 523.02 360.572 522.04 359.602C521.07 358.622 519.73 358.022 518.24 358.022H464.45V340.462H509.62C511.52 340.462 513.41 340.082 515.16 339.322H710.24V345.882ZM807.35 427.522C805.12 424.262 803.93 420.402 803.93 416.442V399.022C803.93 394.962 800.64 391.672 796.58 391.672H795.8C794.55 391.672 793.54 392.672 793.53 393.922V422.512H766.3V404.752C766.3 399.662 763.52 394.982 759.07 392.522L731.62 377.402V339.322H824.16V441.452H816.87L807.35 427.522ZM947.42 387.772L923.86 395.292C916.46 397.652 911.43 404.522 911.42 412.292V441.422H895.42V410.832C895.42 405.862 891.39 401.832 886.42 401.832H882.8V386.162C882.81 380.202 877.98 375.372 872.02 375.362H865.57C863.28 375.362 861.43 377.222 861.43 379.502V441.452H836.41V339.332H861.97C882.19 339.322 891.6 345.792 903.51 353.982L905.26 355.192L905.7 355.492L907.2 356.492L907.65 356.792C908.98 357.672 910.34 358.562 911.71 359.452H911.78C912.45 359.872 913.14 360.302 913.84 360.722L914.09 360.882C916.33 362.242 918.72 363.592 921.28 364.882H921.35C922.21 365.322 923.09 365.752 924 366.182C926.75 367.492 929.72 368.752 933 369.932C936.22 371.112 939.7 372.212 943.49 373.212H943.62C944.87 373.542 946.16 373.862 947.48 374.212L947.42 387.772ZM1118.99 403.202C1111.14 403.202 1103.74 406.852 1098.99 413.102L1072.81 447.642H988.99V418.952C988.99 417.832 988.55 416.752 987.76 415.952C987.02 415.222 986.03 414.792 984.99 414.742C982.57 414.712 980.59 416.652 980.56 419.072V447.642H959.99V376.642C961.13 376.812 962.28 376.962 963.47 377.102H963.57C964.72 377.242 965.88 377.372 967.07 377.492H967.39C968.51 377.612 969.66 377.722 970.82 377.822L971.45 377.872L974.74 378.122L975.74 378.182L978.81 378.362L980.4 378.422L983.1 378.532C983.88 378.532 984.68 378.532 985.48 378.592L987.6 378.642H1188.83L1188.92 403.202H1118.99ZM1350.15 429.642H1268.74V378.762H1350.15V429.642ZM1438.79 382.012C1436.33 382.012 1434.07 383.362 1432.9 385.522C1432.8 385.712 1432.7 385.902 1432.62 386.102C1432.27 386.922 1432.09 387.812 1432.09 388.702V434.142H1414.81V338.052L1416.06 337.562L1416.32 337.472C1417.56 337.022 1418.9 336.602 1420.32 336.222L1420.95 336.052L1422.21 335.742L1423.04 335.562C1423.71 335.412 1424.39 335.272 1425.1 335.142L1426.24 334.932L1427.39 334.742L1428.89 334.522L1429.95 334.382C1430.7 334.282 1431.46 334.202 1432.25 334.112L1433.25 334.022L1435.25 333.852L1436.14 333.782L1439.06 333.612H1439.79L1442.35 333.532C1442.35 333.532 1453.98 333.532 1468.09 333.522C1463.77 373.412 1458.33 408.322 1453.78 434.172H1445.46V388.702C1445.47 385.012 1442.48 382.022 1438.79 382.012ZM1655.99 341.982C1654.07 342.852 1652.22 343.852 1650.44 344.982C1648.69 346.102 1647.02 347.332 1645.44 348.682L1645.28 348.812C1644.18 349.762 1643.13 350.762 1642.13 351.812L1641.87 352.092C1641.57 352.412 1641.28 352.732 1640.99 353.092L1640.69 353.442C1640.12 354.092 1639.56 354.772 1639.03 355.442L1638.89 355.622C1638.66 355.922 1638.44 356.232 1638.21 356.542L1637.78 357.142L1637.17 358.042C1637.01 358.282 1636.86 358.532 1636.7 358.782C1636.42 359.222 1636.14 359.672 1635.88 360.132C1635.7 360.432 1635.52 360.742 1635.35 361.052L1635 361.702L1634.51 362.702C1634.36 363.012 1634.2 363.302 1634.06 363.612C1633.81 364.142 1633.56 364.682 1633.33 365.222L1633.1 365.792C1632.93 366.202 1632.76 366.622 1632.61 367.042C1632.52 367.282 1632.43 367.512 1632.35 367.752C1632.2 368.172 1632.06 368.592 1631.92 369.022C1631.86 369.222 1631.79 369.412 1631.73 369.612C1631.54 370.212 1631.37 370.822 1631.21 371.442C1631.21 371.612 1631.12 371.792 1631.08 371.962C1630.96 372.442 1630.85 372.922 1630.75 373.402C1630.75 373.622 1630.66 373.832 1630.62 374.042C1630.51 374.582 1630.41 375.122 1630.33 375.662C1630.33 375.782 1630.33 375.902 1630.27 376.022C1630.17 376.682 1630.08 377.342 1630.01 378.022V378.572C1630.01 379.082 1629.92 379.572 1629.89 380.122V382.782H1615.21C1608.52 382.792 1602.29 386.182 1598.64 391.782L1569.06 437.012H1514.2C1509.55 410.902 1503.87 374.892 1499.38 333.502C1509.83 333.502 1517.51 333.492 1517.51 333.482H1655.98V341.982H1655.99ZM1685.33 339.272C1684.53 339.072 1683.71 338.892 1682.88 338.742L1682.45 338.662C1681.77 338.542 1681.09 338.432 1680.45 338.342L1679.81 338.262C1679.14 338.202 1678.48 338.142 1677.81 338.082L1677.14 338.032C1676.29 338.032 1675.43 337.952 1674.56 337.952C1673.85 337.952 1673.15 337.952 1672.45 338.002C1672.01 338.002 1671.58 338.062 1671.14 338.092L1670.46 338.152C1669.88 338.202 1669.32 338.272 1668.75 338.342H1668.55C1667.93 338.432 1667.3 338.522 1666.69 338.632V333.442H1685.34V339.272H1685.33ZM1729.68 382.762H1719.35C1719.35 382.072 1719.35 381.382 1719.3 380.702V380.122C1719.3 379.582 1719.26 379.052 1719.18 378.532V378.032C1719.11 377.362 1719.03 376.702 1718.93 376.032C1718.93 375.892 1718.88 375.752 1718.86 375.622C1718.78 375.082 1718.68 374.562 1718.58 374.032L1718.46 373.442C1718.34 372.892 1718.22 372.342 1718.08 371.792C1718.08 371.692 1718.08 371.592 1718.01 371.502C1717.84 370.872 1717.67 370.252 1717.48 369.632L1717.3 369.082C1717.15 368.612 1717 368.162 1716.84 367.702C1716.77 367.522 1716.7 367.332 1716.64 367.152C1716.42 366.552 1716.19 365.962 1715.94 365.382C1715.89 365.262 1715.83 365.142 1715.78 365.012L1715.15 363.622L1714.85 363.012C1714.65 362.592 1714.44 362.182 1714.22 361.772C1714.13 361.602 1714.05 361.442 1713.95 361.272C1713.66 360.742 1713.36 360.212 1713.05 359.692C1712.93 359.502 1712.81 359.312 1712.7 359.122C1712.47 358.772 1712.25 358.412 1712.01 358.062L1711.6 357.452C1711.33 357.042 1711.04 356.652 1710.76 356.262L1710.27 355.602L1709.41 354.512L1708.89 353.892C1708.65 353.602 1708.4 353.322 1708.15 353.042C1707.9 352.762 1707.8 352.642 1707.62 352.452C1707.24 352.032 1706.85 351.622 1706.45 351.212L1705.87 350.652L1705.1 349.912C1704.88 349.712 1704.66 349.502 1704.43 349.312C1704.2 349.122 1703.9 348.842 1703.63 348.612C1703.36 348.382 1703 348.082 1702.69 347.832L1701.69 347.052L1700.94 346.502L1700.16 345.952L1699.38 345.412L1698.38 344.772L1697.21 344.062L1696.37 343.582L1695.51 343.122L1694.67 342.692L1693.82 342.272V333.442H1729.74L1729.68 382.762ZM1837.63 336.952H1837.61C1837.6 337.012 1837.6 337.072 1837.61 337.132C1837.39 338.242 1837.18 339.372 1836.98 340.522L1836.92 340.902C1836.74 341.972 1836.57 343.052 1836.42 344.142L1836.33 344.742C1836.19 345.742 1836.06 346.742 1835.94 347.812L1835.85 348.622C1835.74 349.622 1835.65 350.562 1835.56 351.552L1835.47 352.552C1835.4 353.492 1835.33 354.442 1835.28 355.392C1835.28 355.712 1835.28 356.012 1835.22 356.332C1835.22 357.222 1835.11 358.672 1835.08 359.552V364.472C1835.08 365.812 1835.08 367.372 1835.15 368.812V370.062C1835.15 371.062 1835.24 372.142 1835.3 373.172L1835.39 374.472C1835.46 375.542 1835.54 376.592 1835.64 377.642L1835.73 378.642C1835.86 380.012 1836.01 381.382 1836.18 382.732H1819.78V343.102C1819.78 339.842 1817.8 336.912 1814.78 335.692L1809.17 333.442H1838.39C1838.12 334.642 1837.86 335.772 1837.63 336.952Z" fill="url(#paint10_linear_2665_24508)"/>
<path d="M1218.93 627.236H0V270.043H19.5951L24.2664 251.611C24.8575 249.277 26.2098 247.207 28.1095 245.728C30.0092 244.249 32.3477 243.446 34.755 243.446H42.2545L50.0433 189.2C50.3815 186.825 51.281 184.566 52.6673 182.609C54.0536 180.652 55.8866 179.054 58.0142 177.948L68.2457 172.589C69.036 172.177 69.9193 171.975 70.8103 172.003C71.7014 172.031 72.5702 172.289 73.3326 172.751C74.0951 173.213 74.7256 173.864 75.1633 174.641C75.6009 175.418 75.8307 176.295 75.8308 177.187V287.372C75.8274 291.547 76.9128 295.65 78.9794 299.277C81.0462 302.904 84.0229 305.93 87.6157 308.054C91.5357 310.368 94.8782 313.543 97.3895 317.34C99.9011 321.137 101.515 325.456 102.111 329.969L110.264 391.556H123.195L147.515 316.027C148.278 313.641 149.78 311.561 151.805 310.086C153.83 308.612 156.271 307.822 158.775 307.829H197.237C197.573 307.829 197.905 307.895 198.215 308.024C198.525 308.153 198.807 308.342 199.044 308.58C199.281 308.818 199.468 309.1 199.596 309.411C199.723 309.722 199.788 310.055 199.787 310.39C199.787 312.064 199.122 313.67 197.939 314.854C196.755 316.037 195.15 316.702 193.477 316.702H184.434V325.361H197.237C197.573 325.361 197.905 325.427 198.215 325.556C198.525 325.685 198.807 325.874 199.044 326.112C199.281 326.35 199.468 326.632 199.596 326.943C199.723 327.254 199.788 327.586 199.787 327.922C199.787 328.751 199.624 329.572 199.307 330.338C198.989 331.103 198.525 331.799 197.939 332.385C197.353 332.972 196.657 333.436 195.891 333.754C195.126 334.071 194.305 334.234 193.477 334.234H184.434V342.882H197.237C197.914 342.885 198.563 343.156 199.041 343.636C199.519 344.116 199.787 344.766 199.787 345.443C199.787 347.117 199.122 348.723 197.939 349.907C196.755 351.09 195.15 351.755 193.477 351.755H184.434V360.414H197.237C197.913 360.414 198.562 360.683 199.04 361.161C199.518 361.639 199.787 362.288 199.787 362.965C199.788 363.794 199.626 364.615 199.309 365.382C198.993 366.148 198.528 366.844 197.942 367.431C197.356 368.017 196.659 368.482 195.893 368.799C195.127 369.116 194.306 369.278 193.477 369.277H184.434V375.095H194.859C201.62 375.096 208.206 377.246 213.666 381.235C219.125 385.224 223.176 390.846 225.232 397.289L229.946 412.024H258.69C258.583 408.809 258.519 405.508 258.519 402.208C258.519 325.447 288.72 262.296 327.439 254.526C328.419 254.335 329.429 254.363 330.397 254.608C331.364 254.854 332.266 255.31 333.036 255.945C333.807 256.581 334.427 257.379 334.852 258.282C335.277 259.185 335.497 260.172 335.496 261.17V338.971C336.235 338.971 336.975 338.896 337.725 338.896C370.615 338.896 397.549 371.752 399.971 413.428H401.867H579.498C580.188 413.429 580.872 413.294 581.51 413.031C582.149 412.768 582.728 412.381 583.217 411.893C583.705 411.406 584.093 410.826 584.358 410.189C584.622 409.551 584.759 408.867 584.759 408.177V379.157C584.759 377.616 585.37 376.139 586.459 375.05C587.548 373.961 589.025 373.349 590.565 373.349H601.825C605.343 373.349 608.716 374.746 611.204 377.234C613.691 379.722 615.088 383.097 615.088 386.615V459.186H647.379V402.744C647.381 401.761 647.591 400.789 647.996 399.894C648.402 398.998 648.992 398.199 649.73 397.549C650.468 396.9 651.335 396.415 652.275 396.126C653.214 395.837 654.204 395.751 655.179 395.874C656.885 396.126 658.441 396.991 659.556 398.306C660.672 399.621 661.271 401.298 661.242 403.022V459.186H792.27C794.731 459.186 797.09 460.164 798.83 461.904C800.57 463.645 801.548 466.005 801.548 468.467V499.887H831.375C831.375 498.333 831.375 496.768 831.375 495.214C831.375 422.504 863.237 363.575 902.534 363.575C941.832 363.575 973.694 422.515 973.694 495.214C973.749 512.702 971.815 530.138 967.93 547.189H1037.92L1218.93 627.236Z" fill="url(#paint11_linear_2665_24508)"/>
<path d="M1882.35 175.429C1879.7 177.355 1877.54 179.882 1876.05 182.802C1874.56 185.722 1873.78 188.954 1873.78 192.232V243.488H1855.8V233.136C1855.8 232.153 1855.41 231.21 1854.72 230.514C1854.02 229.819 1853.08 229.428 1852.1 229.428H1848.22V212.818C1848.24 211.714 1847.85 210.641 1847.13 209.805C1846.41 208.968 1845.4 208.427 1844.31 208.285C1843.71 208.224 1843.1 208.289 1842.52 208.476C1841.95 208.663 1841.42 208.968 1840.96 209.371C1840.51 209.774 1840.15 210.267 1839.9 210.818C1839.65 211.369 1839.52 211.966 1839.51 212.572V229.396H1833.34C1832.08 229.396 1830.84 229.644 1829.68 230.125C1828.52 230.606 1827.46 231.311 1826.58 232.2C1825.69 233.088 1824.98 234.144 1824.51 235.305C1824.03 236.466 1823.78 237.71 1823.78 238.966V286.171H1781.63V234.004L1786.64 229C1787.91 227.726 1788.93 226.212 1789.62 224.546C1790.31 222.88 1790.66 221.094 1790.66 219.291C1790.66 217.487 1790.31 215.701 1789.62 214.035C1788.93 212.369 1787.91 210.856 1786.64 209.582L1781.63 204.577V182.48C1781.63 179.907 1782.13 177.358 1783.11 174.979C1784.09 172.616 1785.53 170.47 1787.34 168.667L1808.65 147.342C1812.81 143.183 1818.45 140.847 1824.33 140.847H1830.03C1831.24 140.87 1832.41 140.445 1833.33 139.654C1834.24 138.863 1834.83 137.761 1834.99 136.561C1835.05 135.898 1834.98 135.229 1834.77 134.596C1834.56 133.963 1834.22 133.381 1833.78 132.888C1833.33 132.394 1832.78 131.999 1832.17 131.73C1831.57 131.46 1830.91 131.32 1830.24 131.321H1719.81C1718.6 131.298 1717.42 131.723 1716.51 132.514C1715.59 133.305 1715 134.407 1714.85 135.607C1714.78 136.27 1714.85 136.939 1715.06 137.572C1715.27 138.205 1715.61 138.787 1716.06 139.28C1716.5 139.774 1717.05 140.169 1717.66 140.438C1718.27 140.708 1718.93 140.848 1719.59 140.847H1725.52C1731.38 140.834 1737.01 143.146 1741.17 147.277L1762.49 168.613C1764.3 170.419 1765.74 172.565 1766.72 174.928C1767.7 177.291 1768.2 179.825 1768.2 182.384V204.62L1763.2 209.625C1761.92 210.899 1760.91 212.412 1760.22 214.078C1759.53 215.744 1759.17 217.53 1759.17 219.334C1759.17 221.137 1759.53 222.923 1760.22 224.589C1760.91 226.255 1761.92 227.769 1763.2 229.043L1768.2 234.047V286.214H1762.39V265.617C1762.41 264.432 1761.99 263.281 1761.22 262.383C1760.44 261.485 1759.37 260.901 1758.19 260.741C1757.54 260.676 1756.88 260.747 1756.26 260.951C1755.64 261.155 1755.06 261.488 1754.58 261.927C1754.09 262.366 1753.7 262.902 1753.44 263.501C1753.17 264.1 1753.03 264.748 1753.03 265.403V286.214H1738.48V230.489C1738.48 229.825 1738.21 229.189 1737.74 228.719C1737.27 228.25 1736.64 227.985 1735.97 227.982C1734.58 227.978 1733.2 228.249 1731.91 228.78C1730.62 229.312 1729.45 230.093 1728.46 231.079C1727.47 232.065 1726.69 233.236 1726.16 234.525C1725.63 235.814 1725.35 237.196 1725.36 238.591V293.18L1710.36 322.457C1709.36 324.414 1707.83 326.056 1705.96 327.202C1704.08 328.348 1701.93 328.953 1699.73 328.951H1664.37V302.16C1664.38 299.69 1663.78 297.256 1662.65 295.063C1661.51 292.87 1659.87 290.981 1657.85 289.558L1645.27 280.674L1645.12 176.576C1645.12 171.397 1643.83 166.3 1641.36 161.744C1638.9 157.188 1635.35 153.314 1631.02 150.471C1630.23 149.943 1629.31 149.64 1628.36 149.595C1627.4 149.551 1626.46 149.765 1625.62 150.216C1624.78 150.667 1624.08 151.338 1623.59 152.157C1623.1 152.975 1622.85 153.911 1622.85 154.864C1622.85 174.55 1622.79 218.241 1622.79 230.672C1622.79 231.703 1622.53 232.717 1622.03 233.622C1621.54 234.526 1620.82 235.291 1619.96 235.847L1618.27 236.919C1612.17 240.831 1607.84 246.991 1606.24 254.065L1562.12 448.159H1546.22L1541.82 425.322C1541.56 423.944 1540.82 422.702 1539.74 421.809C1538.66 420.917 1537.3 420.431 1535.9 420.436V370.691C1535.89 369.682 1535.49 368.715 1534.78 368C1534.07 367.285 1533.1 366.881 1532.09 366.876C1527.92 366.874 1523.79 367.695 1519.93 369.291C1516.08 370.887 1512.58 373.228 1509.62 376.178C1506.67 379.129 1504.33 382.632 1502.74 386.488C1501.14 390.344 1500.32 394.476 1500.32 398.65V439.307C1500.33 446.248 1498.48 453.065 1494.96 459.047L1481.26 482.237H1473.39V453.881C1473.42 452.218 1472.84 450.602 1471.77 449.329C1470.7 448.056 1469.21 447.211 1467.57 446.948C1466.61 446.822 1465.64 446.9 1464.72 447.178C1463.8 447.456 1462.95 447.927 1462.23 448.56C1461.5 449.193 1460.92 449.973 1460.52 450.848C1460.13 451.723 1459.92 452.673 1459.92 453.635V482.237H1447.37V465.83C1447.38 465.337 1447.29 464.846 1447.1 464.389C1446.92 463.931 1446.64 463.515 1446.29 463.166C1445.94 462.816 1445.53 462.54 1445.07 462.353C1444.61 462.167 1444.12 462.074 1443.63 462.079C1442.72 462.118 1441.85 462.509 1441.22 463.171C1440.59 463.832 1440.24 464.712 1440.25 465.627V482.237H1431.36L1426.15 481.905C1426.15 480.115 1426.2 478.315 1426.2 476.546C1426.2 397.385 1392.52 333.227 1350.95 333.227V326.218H1365.33C1366.59 326.22 1367.84 325.97 1369 325.485C1370.17 325 1371.23 324.288 1372.12 323.391C1373.01 322.494 1373.71 321.43 1374.18 320.259C1374.66 319.089 1374.89 317.836 1374.88 316.573C1374.88 316.379 1374.84 316.187 1374.76 316.009C1374.68 315.831 1374.57 315.669 1374.43 315.534C1374.29 315.399 1374.13 315.292 1373.95 315.22C1373.77 315.149 1373.58 315.113 1373.38 315.116H1350.95V303.039H1365.33C1366.59 303.04 1367.84 302.791 1369 302.306C1370.17 301.821 1371.23 301.109 1372.12 300.212C1373.01 299.315 1373.71 298.25 1374.18 297.08C1374.66 295.91 1374.89 294.657 1374.88 293.394C1374.87 293.004 1374.71 292.633 1374.43 292.361C1374.15 292.09 1373.77 291.942 1373.38 291.947H1350.95V279.87H1365.33C1366.59 279.872 1367.84 279.622 1369 279.137C1370.17 278.652 1371.23 277.94 1372.12 277.043C1373.01 276.146 1373.71 275.082 1374.18 273.911C1374.66 272.741 1374.89 271.488 1374.88 270.225C1374.87 269.835 1374.71 269.464 1374.43 269.193C1374.15 268.922 1373.77 268.773 1373.38 268.779H1350.95V256.701H1365.33C1366.59 256.701 1367.84 256.451 1369 255.966C1370.17 255.48 1371.22 254.768 1372.11 253.871C1373 252.975 1373.7 251.911 1374.18 250.741C1374.65 249.571 1374.89 248.319 1374.88 247.057C1374.87 246.668 1374.71 246.3 1374.43 246.031C1374.15 245.762 1373.77 245.615 1373.38 245.621H1350.95V229.268C1350.95 227.682 1350.6 226.116 1349.93 224.681C1349.25 223.245 1348.27 221.976 1347.05 220.962C1345.83 219.948 1344.41 219.216 1342.87 218.816C1341.34 218.416 1339.74 218.358 1338.18 218.648C1278.91 229.493 1232.76 314.902 1232.76 418.678C1232.76 421.647 1232.76 424.605 1232.88 427.541C1231.71 427.541 1230.55 427.772 1229.46 428.222C1228.38 428.672 1227.39 429.331 1226.56 430.162C1225.73 430.993 1225.07 431.979 1224.62 433.065C1224.17 434.15 1223.94 435.314 1223.94 436.489V456.528H1217.36C1215.13 456.531 1213 457.417 1211.42 458.992C1209.85 460.567 1208.96 462.703 1208.96 464.93V473.439H1178.96V402.422C1178.96 398.59 1177.69 394.865 1175.36 391.828C1173.02 388.792 1169.74 386.612 1166.04 385.629L1149.19 381.182V344.961C1149.19 340.582 1148.05 336.279 1145.89 332.47C1143.73 328.661 1140.63 325.477 1136.87 323.228L1136.6 323.057C1135.67 322.499 1134.6 322.199 1133.51 322.186C1132.42 322.174 1131.35 322.45 1130.4 322.987C1129.45 323.523 1128.66 324.301 1128.11 325.241C1127.56 326.182 1127.27 327.251 1127.27 328.34V473.439H1111.02C1111.02 455.103 1102.07 440.218 1091.06 440.218C1080.04 440.218 1071.09 455.071 1071.09 473.439H1053.25C1050.75 473.436 1048.35 474.418 1046.57 476.171L1037.13 482.901L1033.17 363.018C1033.08 360.322 1033.54 357.636 1034.51 355.119C1035.48 352.602 1036.94 350.306 1038.82 348.367C1040.69 346.429 1042.94 344.887 1045.42 343.834C1047.9 342.781 1050.57 342.239 1053.27 342.239H1071.84C1074.94 342.275 1077.93 341.101 1080.18 338.966C1082.43 336.831 1083.75 333.903 1083.88 330.805C1083.91 329.257 1083.63 327.718 1083.05 326.28C1082.48 324.842 1081.62 323.533 1080.54 322.428C1079.45 321.324 1078.16 320.447 1076.73 319.848C1075.3 319.25 1073.77 318.942 1072.22 318.942H1018.18L1016.77 278.873C1016.65 275.554 1017.2 272.245 1018.39 269.143C1019.58 266.042 1021.38 263.211 1023.68 260.822C1025.99 258.432 1028.75 256.532 1031.81 255.235C1034.87 253.937 1038.15 253.27 1041.48 253.272H1064.57C1065.97 253.268 1067.35 252.964 1068.62 252.38C1069.89 251.796 1071.03 250.946 1071.94 249.887C1072.85 248.829 1073.53 247.586 1073.92 246.244C1074.32 244.901 1074.42 243.49 1074.22 242.106C1073.82 239.745 1072.6 237.604 1070.76 236.07C1068.93 234.536 1066.6 233.712 1064.21 233.747C1063.29 233.743 1062.4 233.385 1061.73 232.747C1061.07 232.109 1060.67 231.24 1060.62 230.318C1060.5 228.464 1060.31 226.631 1060.02 224.831C1055.96 199.112 1034.94 179.533 1009.59 179.533C984.239 179.533 963.23 199.123 959.169 224.831C958.891 226.631 958.687 228.464 958.569 230.318C958.523 231.24 958.125 232.109 957.457 232.747C956.79 233.385 955.903 233.743 954.98 233.747C953.64 233.747 952.314 234.022 951.085 234.556C949.856 235.091 948.75 235.872 947.835 236.852C946.921 237.832 946.218 238.989 945.77 240.253C945.322 241.516 945.138 242.858 945.231 244.196C945.452 246.695 946.607 249.018 948.466 250.703C950.325 252.388 952.751 253.309 955.259 253.283H978.068C981.388 253.284 984.673 253.953 987.729 255.251C990.784 256.549 993.547 258.45 995.853 260.839C998.159 263.228 999.96 266.057 1001.15 269.157C1002.34 272.258 1002.89 275.566 1002.78 278.884L1001.35 318.952H947.706C944.609 318.916 941.619 320.089 939.373 322.222C937.126 324.355 935.8 327.28 935.674 330.376C935.646 331.924 935.926 333.463 936.498 334.901C937.071 336.34 937.924 337.65 939.008 338.756C940.092 339.861 941.386 340.739 942.813 341.339C944.24 341.939 945.772 342.249 947.32 342.25H966.272C968.969 342.25 971.639 342.792 974.121 343.845C976.604 344.898 978.85 346.439 980.725 348.378C982.6 350.316 984.066 352.613 985.036 355.129C986.006 357.646 986.46 360.333 986.371 363.029L981.025 522.777L968.887 531.425C960.703 534.121 953.574 539.323 948.508 546.294C943.442 553.27 940.695 561.65 940.656 570.27H928.957C928.174 570.27 927.423 569.96 926.869 569.4C926.315 568.85 926.003 568.1 926 567.31V559.97C926.029 557.96 925.339 556.01 924.054 554.46C922.769 552.92 920.975 551.88 918.993 551.54C917.907 551.38 916.798 551.43 915.734 551.71C914.67 551.98 913.673 552.47 912.801 553.14V539.365C912.826 537.943 912.335 536.559 911.419 535.469C910.504 534.38 909.225 533.659 907.819 533.439C907.006 533.331 906.179 533.398 905.393 533.634C904.608 533.871 903.881 534.272 903.263 534.812C902.644 535.351 902.148 536.016 901.807 536.763C901.466 537.509 901.287 538.32 901.284 539.14V558.9H891.717C890.907 558.9 890.105 559.06 889.357 559.37C888.609 559.68 887.929 560.14 887.357 560.71C886.785 561.28 886.331 561.96 886.022 562.71C885.713 563.46 885.555 564.26 885.556 565.07V570.27H828.635C816.595 570.27 804.762 573.39 794.287 579.33L768.124 594.17H661.91C645.296 594.17 629.28 600.38 617.01 611.58L600.125 627H1919.96V147.984L1882.35 175.429Z" fill="url(#paint12_linear_2665_24508)"/>
<path d="M1856.95 393.684V342.391C1856.92 331.64 1852.62 321.339 1845 313.737C1837.39 306.136 1827.07 301.852 1816.31 301.821H1808.99C1806.95 301.824 1804.98 302.637 1803.53 304.082C1802.08 305.528 1801.27 307.488 1801.27 309.532V393.695H1747.83C1740.79 393.695 1733.82 394.052 1726.93 394.766V367.829C1726.93 366.84 1726.71 365.864 1726.29 364.966C1725.87 364.07 1725.27 363.274 1724.51 362.634C1715.72 355.298 1705.65 361.564 1705.65 370.024V398.065C1689.14 401.514 1673.13 407.001 1657.98 414.398V350.564C1657.97 348.52 1657.15 346.562 1655.71 345.117C1654.26 343.673 1652.3 342.858 1650.25 342.852H1638.98C1636.94 342.858 1634.97 343.673 1633.52 345.117C1632.08 346.562 1631.26 348.52 1631.26 350.564V430.067C1602.56 449.949 1579.47 476.877 1564.22 508.253C1562.61 511.549 1560.11 514.327 1557 516.268C1553.89 518.21 1550.28 519.237 1546.62 519.231H1519.5V483.159C1519.51 482.329 1519.33 481.506 1519 480.746C1518.66 479.988 1518.16 479.309 1517.54 478.757C1509.36 471.591 1499.81 477.407 1499.81 485.333V519.231H1473.72C1470.77 519.231 1467.87 519.967 1465.26 521.371C1462.67 522.775 1460.47 524.805 1458.86 527.275L1450.53 540.021H1443.15C1441.31 540.017 1439.53 540.734 1438.2 542.019C1436.88 543.303 1436.11 545.054 1436.06 546.897L1435.93 551.243H1403.57C1398.57 551.253 1393.77 553.232 1390.23 556.76L1379.43 567.534H1320.93L1306.32 540.01C1304.78 537.126 1302.5 534.713 1299.7 533.03C1296.91 531.347 1293.7 530.457 1290.43 530.456H1251.19V516.533C1251.19 515.606 1250.83 514.719 1250.17 514.064C1249.52 513.408 1248.63 513.041 1247.7 513.041H1246.25C1245.8 513.041 1245.33 513.132 1244.91 513.307C1244.49 513.482 1244.1 513.74 1243.78 514.064C1243.45 514.389 1243.2 514.774 1243.02 515.197C1242.85 515.621 1242.76 516.075 1242.76 516.533V530.456H1210.17C1206.18 530.453 1202.34 528.866 1199.52 526.043C1196.69 523.219 1195.1 519.39 1195.1 515.397V438.658C1195.1 437.448 1194.83 436.254 1194.32 435.159C1193.8 434.065 1193.05 433.097 1192.12 432.324C1191.19 431.552 1190.1 430.995 1188.93 430.691C1187.76 430.388 1186.54 430.347 1185.34 430.571C1173.74 432.832 1163.29 439.05 1155.77 448.161C1148.26 457.272 1144.15 468.709 1144.15 480.514V480.899L1126.73 489.992C1116.37 495.409 1108.52 504.621 1104.81 515.697L1097.74 536.765C1096.56 540.328 1094.28 543.426 1091.22 545.622C1088.17 547.817 1084.5 548.998 1080.74 548.996C1071.71 548.994 1062.82 551.183 1054.83 555.38C1046.83 559.568 1039.98 565.635 1034.86 573.061L1017.7 597.857H964.257V585.784C964.254 584.814 963.867 583.885 963.179 583.205C962.491 582.515 961.56 582.136 960.589 582.136H955.547C954.576 582.136 953.644 582.515 952.957 583.205C952.27 583.885 951.881 584.814 951.878 585.784V597.817H912.019C909.353 597.817 906.719 597.237 904.307 596.098C901.895 594.969 899.767 593.31 898.076 591.251L878.071 566.754C876.38 564.695 874.252 563.036 871.84 561.897C869.429 560.757 866.794 560.178 864.127 560.178H852.221C848.004 560.178 843.95 558.549 840.915 555.63L814.712 530.253C811.463 527.115 807.122 525.36 802.601 525.358H762.4V493.569C762.4 492.365 761.92 491.21 761.067 490.358C760.214 489.507 759.058 489.028 757.852 489.028C753.985 489.028 750.276 490.561 747.54 493.29C744.805 496.02 743.266 499.722 743.264 503.584V514.487H718.518V494.223C718.518 491.207 717.319 488.313 715.182 486.179C713.046 484.047 710.148 482.848 707.127 482.848H653.271C650.041 482.847 646.87 483.699 644.076 485.317C641.282 486.934 638.967 489.261 637.363 492.059L619.634 523.119C618.76 524.648 617.497 525.919 615.973 526.802C614.449 527.687 612.718 528.152 610.956 528.153H599.79C598.266 528.152 596.802 527.568 595.697 526.519C594.594 525.471 593.935 524.039 593.858 522.519C591.778 486.698 577.012 452.781 552.198 426.828C527.384 400.874 494.137 384.575 458.396 380.842C456.417 380.629 454.415 380.834 452.518 381.444C450.623 382.054 448.877 383.054 447.394 384.381C445.912 385.709 444.725 387.333 443.911 389.147C443.097 390.962 442.676 392.928 442.672 394.916V428.589H421.723C417.303 428.587 412.992 429.954 409.382 432.502C405.772 435.049 403.042 438.652 401.568 442.813L392.29 468.936H367.62C364.976 468.934 362.393 469.729 360.209 471.215C358.023 472.701 356.337 474.811 355.371 477.268L338.015 521.181C337.214 523.236 335.814 525.003 333.996 526.253C332.177 527.505 330.024 528.181 327.815 528.196H306.363C305.079 528.194 303.827 527.792 302.783 527.044C301.739 526.297 300.954 525.244 300.538 524.03L299.391 520.688C298.799 518.944 297.674 517.43 296.175 516.359C294.676 515.286 292.879 514.711 291.035 514.712H270.773L261.602 461.074C261.217 458.816 260.044 456.769 258.29 455.292C256.537 453.816 254.318 453.007 252.024 453.01H224.136C222.289 453.002 220.478 453.523 218.919 454.513C217.36 455.501 216.118 456.917 215.34 458.59L207.832 474.537H136.824L135.955 451.402H155.455C158.323 451.402 161.162 450.839 163.811 449.742C166.46 448.646 168.867 447.04 170.894 445.015C172.921 442.99 174.529 440.585 175.625 437.94C176.721 435.294 177.285 432.459 177.283 429.596C177.285 428.842 177.137 428.094 176.848 427.398C176.56 426.7 176.137 426.067 175.603 425.534C175.068 425 174.435 424.577 173.736 424.289C173.038 424.002 172.29 423.854 171.534 423.856H134.915L134.046 400.71H155.498C161.288 400.71 166.84 398.414 170.932 394.326C175.026 390.239 177.326 384.695 177.326 378.914C177.328 378.16 177.18 377.413 176.891 376.716C176.603 376.019 176.18 375.385 175.646 374.852C175.111 374.319 174.478 373.896 173.779 373.607C173.081 373.319 172.332 373.173 171.577 373.174H133.049L132.18 350.028H155.498C161.288 350.028 166.84 347.732 170.932 343.645C175.026 339.557 177.326 334.013 177.326 328.233C177.328 327.479 177.18 326.731 176.891 326.034C176.603 325.337 176.18 324.703 175.646 324.17C175.111 323.637 174.478 323.214 173.779 322.926C173.081 322.638 172.332 322.49 171.577 322.491H131.139L130.871 315.283C130.718 311.217 131.389 307.16 132.841 303.357C134.295 299.554 136.502 296.083 139.329 293.151C142.157 290.22 145.548 287.887 149.3 286.294C153.051 284.702 157.085 283.881 161.162 283.881H278.142C280.025 283.888 281.882 283.447 283.56 282.596C285.239 281.745 286.69 280.507 287.796 278.986C296.945 266.326 287.892 252.21 275.997 253.034H0.332576L0.161051 283.881H40.3522C44.4286 283.881 48.4632 284.702 52.2145 286.294C55.9657 287.887 59.3565 290.22 62.1845 293.151C65.0123 296.083 67.2189 299.554 68.6723 303.357C70.1256 307.16 70.796 311.217 70.6431 315.283L67.9079 387.804H0V629H1920V393.684H1856.95Z" fill="url(#paint13_linear_2665_24508)"/>
<defs>
<linearGradient id="paint0_linear_2665_24508" x1="960.287" y1="-3.80848" x2="960.287" y2="153.511" gradientUnits="userSpaceOnUse">
<stop stop-color="#86D4C9"/>
<stop offset="0.0188" stop-color="#88D1CC"/>
<stop offset="0.1878" stop-color="#95BEE0"/>
<stop offset="0.3794" stop-color="#9EB0EE"/>
<stop offset="0.6124" stop-color="#A3A7F6"/>
<stop offset="1" stop-color="#A5A5F9"/>
</linearGradient>
<linearGradient id="paint1_linear_2665_24508" x1="959.995" y1="57.4531" x2="959.995" y2="446.441" gradientUnits="userSpaceOnUse">
<stop stop-color="#8D86EB"/>
<stop offset="1" stop-color="#A5A5F9"/>
</linearGradient>
<linearGradient id="paint2_linear_2665_24508" x1="960" y1="97.0194" x2="960" y2="365.4" gradientUnits="userSpaceOnUse">
<stop stop-color="#503EAA"/>
<stop offset="1" stop-color="#8D86EB"/>
</linearGradient>
<linearGradient id="paint3_linear_2665_24508" x1="960" y1="189" x2="960" y2="594.44" gradientUnits="userSpaceOnUse">
<stop stop-color="#503EAA"/>
<stop offset="1" stop-color="#8D86EB"/>
</linearGradient>
<linearGradient id="paint4_linear_2665_24508" x1="451.611" y1="171.966" x2="451.611" y2="150.86" gradientUnits="userSpaceOnUse">
<stop stop-color="#38237C"/>
<stop offset="1" stop-color="#503EAA"/>
</linearGradient>
<linearGradient id="paint5_linear_2665_24508" x1="463.963" y1="161.574" x2="463.963" y2="159.025" gradientUnits="userSpaceOnUse">
<stop stop-color="#38237C"/>
<stop offset="1" stop-color="#503EAA"/>
</linearGradient>
<linearGradient id="paint6_linear_2665_24508" x1="472.004" y1="162.209" x2="472.004" y2="156.946" gradientUnits="userSpaceOnUse">
<stop stop-color="#38237C"/>
<stop offset="1" stop-color="#503EAA"/>
</linearGradient>
<linearGradient id="paint7_linear_2665_24508" x1="438.609" y1="162.625" x2="438.609" y2="148.902" gradientUnits="userSpaceOnUse">
<stop stop-color="#38237C"/>
<stop offset="1" stop-color="#503EAA"/>
</linearGradient>
<linearGradient id="paint8_linear_2665_24508" x1="440.713" y1="177.093" x2="440.713" y2="162.626" gradientUnits="userSpaceOnUse">
<stop stop-color="#38237C"/>
<stop offset="1" stop-color="#503EAA"/>
</linearGradient>
<linearGradient id="paint9_linear_2665_24508" x1="347.267" y1="206.841" x2="347.267" y2="164.142" gradientUnits="userSpaceOnUse">
<stop stop-color="#38237C"/>
<stop offset="1" stop-color="#503EAA"/>
</linearGradient>
<linearGradient id="paint10_linear_2665_24508" x1="960" y1="156.382" x2="960" y2="493.172" gradientUnits="userSpaceOnUse">
<stop stop-color="#38237C"/>
<stop offset="1" stop-color="#503EAA"/>
</linearGradient>
<linearGradient id="paint11_linear_2665_24508" x1="609.464" y1="146.356" x2="609.464" y2="616.696" gradientUnits="userSpaceOnUse">
<stop stop-color="#160E3F"/>
<stop offset="1" stop-color="#321F71"/>
</linearGradient>
<linearGradient id="paint12_linear_2665_24508" x1="1260.04" y1="198.383" x2="1260.04" y2="538.069" gradientUnits="userSpaceOnUse">
<stop stop-color="#080628"/>
<stop offset="1" stop-color="#26185B"/>
</linearGradient>
<linearGradient id="paint13_linear_2665_24508" x1="960.009" y1="275.655" x2="960.009" y2="628.22" gradientUnits="userSpaceOnUse">
<stop stop-color="#A5A5F9"/>
<stop offset="0.7" stop-color="#EBF0FF"/>
<stop offset="1" stop-color="white"/>
</linearGradient>
</defs>
</svg>
