<svg width="1804" height="732" viewBox="0 0 1804 732" fill="none" xmlns="http://www.w3.org/2000/svg">
<path opacity="0.6" d="M108.379 255.001C133.802 255.001 154.414 234.377 154.414 208.937C154.414 183.496 133.802 162.873 108.379 162.873C82.9541 162.873 62.3438 183.496 62.3438 208.937C62.3438 234.377 82.9541 255.001 108.379 255.001Z" fill="url(#paint0_linear_2665_24508)"/>
<path opacity="0.6" d="M1687.11 171.652C1695.59 171.652 1702.47 164.772 1702.47 156.284C1702.47 147.796 1695.59 140.916 1687.11 140.916C1678.62 140.916 1671.75 147.796 1671.75 156.284C1671.75 164.772 1678.62 171.652 1687.11 171.652Z" fill="url(#paint1_linear_2665_24508)"/>
<path d="M485.681 410.755C486.614 410.755 487.37 409.998 487.37 409.065C487.37 408.132 486.614 407.375 485.681 407.375C484.749 407.375 483.992 408.132 483.992 409.065C483.992 409.998 484.749 410.755 485.681 410.755Z" fill="#9EA9E8"/>
<path d="M455.283 451.819C456.215 451.819 456.972 451.062 456.972 450.129C456.972 449.196 456.215 448.439 455.283 448.439C454.35 448.439 453.594 449.196 453.594 450.129C453.594 451.062 454.35 451.819 455.283 451.819Z" fill="#9EA9E8"/>
<path d="M528.495 486.534C529.449 486.534 530.223 485.759 530.223 484.804C530.223 483.849 529.449 483.074 528.495 483.074C527.54 483.074 526.766 483.849 526.766 484.804C526.766 485.759 527.54 486.534 528.495 486.534Z" fill="#9EA9E8"/>
<path d="M446.962 355.273C448.309 355.273 449.4 354.181 449.4 352.833C449.4 351.485 448.309 350.393 446.962 350.393C445.615 350.393 444.523 351.485 444.523 352.833C444.523 354.181 445.615 355.273 446.962 355.273Z" fill="#9EA9E8"/>
<path d="M396.939 444.691C397.871 444.691 398.628 443.934 398.628 443.001C398.628 442.068 397.871 441.311 396.939 441.311C396.007 441.311 395.25 442.068 395.25 443.001C395.25 443.934 396.007 444.691 396.939 444.691Z" fill="#9EA9E8"/>
<path d="M366.209 413.204C367.352 413.204 368.278 412.277 368.278 411.134C368.278 409.991 367.352 409.064 366.209 409.064C365.067 409.064 364.141 409.991 364.141 411.134C364.141 412.277 365.067 413.204 366.209 413.204Z" fill="#9EA9E8"/>
<path d="M316.095 455.189C317.028 455.189 317.784 454.432 317.784 453.499C317.784 452.566 317.028 451.809 316.095 451.809C315.163 451.809 314.406 452.566 314.406 453.499C314.406 454.432 315.163 455.189 316.095 455.189Z" fill="#9EA9E8"/>
<path d="M348.316 341.383C348.78 341.383 349.156 341.007 349.156 340.543C349.156 340.079 348.78 339.703 348.316 339.703C347.852 339.703 347.477 340.079 347.477 340.543C347.477 341.007 347.852 341.383 348.316 341.383Z" fill="#9EA9E8"/>
<path d="M286.64 380.669C287.804 380.669 288.749 379.724 288.749 378.559C288.749 377.394 287.804 376.449 286.64 376.449C285.476 376.449 284.531 377.394 284.531 378.559C284.531 379.724 285.476 380.669 286.64 380.669Z" fill="#9EA9E8"/>
<path d="M314.644 290.492C315.445 290.492 316.093 289.843 316.093 289.042C316.093 288.241 315.445 287.592 314.644 287.592C313.844 287.592 313.195 288.241 313.195 289.042C313.195 289.843 313.844 290.492 314.644 290.492Z" fill="#9EA9E8"/>
<path d="M246.498 411.134C247.067 411.134 247.527 410.673 247.527 410.104C247.527 409.535 247.067 409.074 246.498 409.074C245.929 409.074 245.469 409.535 245.469 410.104C245.469 410.673 245.929 411.134 246.498 411.134Z" fill="#9EA9E8"/>
<path d="M529.024 355.402C529.736 355.402 530.313 354.824 530.313 354.112C530.313 353.4 529.736 352.822 529.024 352.822C528.312 352.822 527.734 353.4 527.734 354.112C527.734 354.824 528.312 355.402 529.024 355.402Z" fill="#9EA9E8"/>
<path d="M623.55 251.877C624.328 251.877 624.959 251.246 624.959 250.467C624.959 249.688 624.328 249.057 623.55 249.057C622.771 249.057 622.141 249.688 622.141 250.467C622.141 251.246 622.771 251.877 623.55 251.877Z" fill="#9EA9E8"/>
<path d="M540.536 256.575C541.833 256.575 542.885 255.523 542.885 254.225C542.885 252.927 541.833 251.875 540.536 251.875C539.239 251.875 538.188 252.927 538.188 254.225C538.188 255.523 539.239 256.575 540.536 256.575Z" fill="#9EA9E8"/>
<path d="M400.186 501.142C401.053 501.142 401.755 500.439 401.755 499.572C401.755 498.705 401.053 498.002 400.186 498.002C399.32 498.002 398.617 498.705 398.617 499.572C398.617 500.439 399.32 501.142 400.186 501.142Z" fill="#9EA9E8"/>
<path d="M185.043 434.201C186.08 434.201 186.922 433.359 186.922 432.321C186.922 431.283 186.08 430.441 185.043 430.441C184.006 430.441 183.164 431.283 183.164 432.321C183.164 433.359 184.006 434.201 185.043 434.201Z" fill="#9EA9E8"/>
<path d="M202.849 329.136C203.295 329.136 203.658 328.773 203.658 328.326C203.658 327.879 203.295 327.516 202.849 327.516C202.402 327.516 202.039 327.879 202.039 328.326C202.039 328.773 202.402 329.136 202.849 329.136Z" fill="#9EA9E8"/>
<path d="M102.556 459.838C103.114 459.838 103.566 459.386 103.566 458.828C103.566 458.27 103.114 457.818 102.556 457.818C101.999 457.818 101.547 458.27 101.547 458.828C101.547 459.386 101.999 459.838 102.556 459.838Z" fill="#9EA9E8"/>
<path d="M154.602 384.378C155.237 384.378 155.752 383.863 155.752 383.228C155.752 382.593 155.237 382.078 154.602 382.078C153.968 382.078 153.453 382.593 153.453 383.228C153.453 383.863 153.968 384.378 154.602 384.378Z" fill="#9EA9E8"/>
<path d="M14.6777 466.108C15.6215 466.108 16.3865 465.341 16.3865 464.397C16.3865 463.453 15.6215 462.688 14.6777 462.688C13.7338 462.688 12.9688 463.453 12.9688 464.397C12.9688 465.341 13.7338 466.108 14.6777 466.108Z" fill="#9EA9E8"/>
<path d="M48.545 411.134C49.1136 411.134 49.5743 410.673 49.5743 410.104C49.5743 409.535 49.1136 409.074 48.545 409.074C47.9763 409.074 47.5156 409.535 47.5156 410.104C47.5156 410.673 47.9763 411.134 48.545 411.134Z" fill="#9EA9E8"/>
<path d="M99.9315 343.783C100.826 343.783 101.55 343.058 101.55 342.163C101.55 341.268 100.826 340.543 99.9315 340.543C99.037 340.543 98.3125 341.268 98.3125 342.163C98.3125 343.058 99.037 343.783 99.9315 343.783Z" fill="#9EA9E8"/>
<path d="M8.61331 342.943C9.2756 342.943 9.81256 342.406 9.81256 341.743C9.81256 341.08 9.2756 340.543 8.61331 340.543C7.95092 340.543 7.41406 341.08 7.41406 341.743C7.41406 342.406 7.95092 342.943 8.61331 342.943Z" fill="#9EA9E8"/>
<path d="M195.061 261.525C195.629 261.525 196.09 261.064 196.09 260.495C196.09 259.926 195.629 259.465 195.061 259.465C194.492 259.465 194.031 259.926 194.031 260.495C194.031 261.064 194.492 261.525 195.061 261.525Z" fill="#9EA9E8"/>
<path d="M90.6075 262.554C91.1761 262.554 91.6368 262.093 91.6368 261.524C91.6368 260.955 91.1761 260.494 90.6075 260.494C90.0388 260.494 89.5781 260.955 89.5781 261.524C89.5781 262.093 90.0388 262.554 90.6075 262.554Z" fill="#9EA9E8"/>
<path d="M154.393 304.089C154.911 304.089 155.332 303.668 155.332 303.149C155.332 302.63 154.911 302.209 154.393 302.209C153.874 302.209 153.453 302.63 153.453 303.149C153.453 303.668 153.874 304.089 154.393 304.089Z" fill="#9EA9E8"/>
<path d="M298.572 235.838C299.191 235.838 299.692 235.337 299.692 234.718C299.692 234.099 299.191 233.598 298.572 233.598C297.954 233.598 297.453 234.099 297.453 234.718C297.453 235.337 297.954 235.838 298.572 235.838Z" fill="#9EA9E8"/>
<path d="M58.0078 232.1C58.4218 232.1 58.7578 231.764 58.7578 231.35C58.7578 230.936 58.4218 230.6 58.0078 230.6C57.5938 230.6 57.2578 230.936 57.2578 231.35C57.2578 231.764 57.5938 232.1 58.0078 232.1Z" fill="#9EA9E8"/>
<path d="M406.219 153.729C407.306 153.729 408.188 152.847 408.188 151.759C408.188 150.671 407.306 149.789 406.219 149.789C405.131 149.789 404.25 150.671 404.25 151.759C404.25 152.847 405.131 153.729 406.219 153.729Z" fill="#9EA9E8"/>
<path d="M552.771 158.509C554.091 158.509 555.16 157.439 555.16 156.119C555.16 154.799 554.091 153.729 552.771 153.729C551.452 153.729 550.383 154.799 550.383 156.119C550.383 157.439 551.452 158.509 552.771 158.509Z" fill="#9EA9E8"/>
<path d="M502.464 217.562C503.004 217.562 503.443 217.123 503.443 216.582C503.443 216.041 503.004 215.602 502.464 215.602C501.923 215.602 501.484 216.041 501.484 216.582C501.484 217.123 501.923 217.562 502.464 217.562Z" fill="#9EA9E8"/>
<path d="M686.548 168.078C687.558 168.078 688.376 167.259 688.376 166.248C688.376 165.237 687.558 164.418 686.548 164.418C685.537 164.418 684.719 165.237 684.719 166.248C684.719 167.259 685.537 168.078 686.548 168.078Z" fill="#9EA9E8"/>
<path d="M465.02 274.643C465.445 274.643 465.79 274.299 465.79 273.874C465.79 273.449 465.445 273.104 465.02 273.104C464.595 273.104 464.25 273.449 464.25 273.874C464.25 274.299 464.595 274.643 465.02 274.643Z" fill="#9EA9E8"/>
<path d="M384.985 286.372C385.322 286.372 385.595 286.099 385.595 285.762C385.595 285.425 385.322 285.152 384.985 285.152C384.648 285.152 384.375 285.425 384.375 285.762C384.375 286.099 384.648 286.372 384.985 286.372Z" fill="#9EA9E8"/>
<path d="M444.525 234.159C445.044 234.159 445.465 233.738 445.465 233.219C445.465 232.7 445.044 232.279 444.525 232.279C444.007 232.279 443.586 232.7 443.586 233.219C443.586 233.738 444.007 234.159 444.525 234.159Z" fill="#9EA9E8"/>
<path d="M359.941 200.972C360.306 200.972 360.601 200.677 360.601 200.312C360.601 199.947 360.306 199.652 359.941 199.652C359.576 199.652 359.281 199.947 359.281 200.312C359.281 200.677 359.576 200.972 359.941 200.972Z" fill="#9EA9E8"/>
<path d="M319.507 131.513C320.671 131.513 321.616 130.568 321.616 129.403C321.616 128.238 320.671 127.293 319.507 127.293C318.343 127.293 317.398 128.238 317.398 129.403C317.398 130.568 318.343 131.513 319.507 131.513Z" fill="#9EA9E8"/>
<path d="M252.909 111.546C253.45 111.546 253.888 111.107 253.888 110.566C253.888 110.025 253.45 109.586 252.909 109.586C252.368 109.586 251.93 110.025 251.93 110.566C251.93 111.107 252.368 111.546 252.909 111.546Z" fill="#9EA9E8"/>
<path d="M1.59093 167.647C1.93893 167.647 2.22093 167.365 2.22093 167.017C2.22093 166.669 1.93893 166.387 1.59093 166.387C1.24303 166.387 0.960938 166.669 0.960938 167.017C0.960938 167.365 1.24303 167.647 1.59093 167.647Z" fill="#9EA9E8"/>
<path d="M96.5029 123.084C97.2814 123.084 97.912 122.453 97.912 121.674C97.912 120.895 97.2814 120.264 96.5029 120.264C95.7244 120.264 95.0938 120.895 95.0938 121.674C95.0938 122.453 95.7244 123.084 96.5029 123.084Z" fill="#9EA9E8"/>
<path d="M17.12 40.3955C17.6607 40.3955 18.0994 39.9567 18.0994 39.4155C18.0994 38.8743 17.6607 38.4355 17.12 38.4355C16.5794 38.4355 16.1406 38.8743 16.1406 39.4155C16.1406 39.9567 16.5794 40.3955 17.12 40.3955Z" fill="#9EA9E8"/>
<path d="M225.292 49.544C226.108 49.544 226.771 48.8814 226.771 48.064C226.771 47.2466 226.108 46.584 225.292 46.584C224.475 46.584 223.812 47.2466 223.812 48.064C223.812 48.8814 224.475 49.544 225.292 49.544Z" fill="#9EA9E8"/>
<path d="M354.643 56.1436C355.184 56.1436 355.623 55.7048 355.623 55.1636C355.623 54.6224 355.184 54.1836 354.643 54.1836C354.103 54.1836 353.664 54.6224 353.664 55.1636C353.664 55.7048 354.103 56.1436 354.643 56.1436Z" fill="#9EA9E8"/>
<path d="M316.417 11.4287C316.958 11.4287 317.396 10.9899 317.396 10.4487C317.396 9.90755 316.958 9.46875 316.417 9.46875C315.876 9.46875 315.438 9.90755 315.438 10.4487C315.438 10.9899 315.876 11.4287 316.417 11.4287Z" fill="#9EA9E8"/>
<path d="M451.183 80.3284C451.647 80.3284 452.023 79.9524 452.023 79.4884C452.023 79.0244 451.647 78.6484 451.183 78.6484C450.719 78.6484 450.344 79.0244 450.344 79.4884C450.344 79.9524 450.719 80.3284 451.183 80.3284Z" fill="#9EA9E8"/>
<path d="M611.782 101.428C612.792 101.428 613.611 100.609 613.611 99.5976C613.611 98.5866 612.792 97.7676 611.782 97.7676C610.772 97.7676 609.953 98.5866 609.953 99.5976C609.953 100.609 610.772 101.428 611.782 101.428Z" fill="#9EA9E8"/>
<path d="M569.994 23.6677C570.888 23.6677 571.613 22.9424 571.613 22.0477C571.613 21.153 570.888 20.4277 569.994 20.4277C569.1 20.4277 568.375 21.153 568.375 22.0477C568.375 22.9424 569.1 23.6677 569.994 23.6677Z" fill="#9EA9E8"/>
<path d="M542.209 84.9701C543.489 84.9701 544.528 83.9311 544.528 82.6501C544.528 81.3691 543.489 80.3301 542.209 80.3301C540.929 80.3301 539.891 81.3691 539.891 82.6501C539.891 83.9311 540.929 84.9701 542.209 84.9701Z" fill="#9EA9E8"/>
<path d="M464.762 4.12C465.899 4.12 466.821 3.1977 466.821 2.06C466.821 0.9223 465.899 0 464.762 0C463.625 0 462.703 0.9223 462.703 2.06C462.703 3.1977 463.625 4.12 464.762 4.12Z" fill="#9EA9E8"/>
<path d="M739.784 101.416C740.287 101.416 740.694 101.009 740.694 100.506C740.694 100.003 740.287 99.5957 739.784 99.5957C739.282 99.5957 738.875 100.003 738.875 100.506C738.875 101.009 739.282 101.416 739.784 101.416Z" fill="#9EA9E8"/>
<path d="M689.656 65.9413C690.369 65.9413 690.946 65.3637 690.946 64.6513C690.946 63.9388 690.369 63.3613 689.656 63.3613C688.945 63.3613 688.367 63.9388 688.367 64.6513C688.367 65.3637 688.945 65.9413 689.656 65.9413Z" fill="#9EA9E8"/>
<path d="M670.011 17.0589C670.888 17.0589 671.6 16.347 671.6 15.4689C671.6 14.5908 670.888 13.8789 670.011 13.8789C669.133 13.8789 668.422 14.5908 668.422 15.4689C668.422 16.347 669.133 17.0589 670.011 17.0589Z" fill="#9EA9E8"/>
<path d="M825.081 84.9684C825.722 84.9684 826.24 84.4494 826.24 83.8084C826.24 83.1674 825.722 82.6484 825.081 82.6484C824.441 82.6484 823.922 83.1674 823.922 83.8084C823.922 84.4494 824.441 84.9684 825.081 84.9684Z" fill="#9EA9E8"/>
<path d="M784.282 26.826C785.155 26.826 785.861 26.1186 785.861 25.246C785.861 24.3734 785.155 23.666 784.282 23.666C783.41 23.666 782.703 24.3734 782.703 25.246C782.703 26.1186 783.41 26.826 784.282 26.826Z" fill="#9EA9E8"/>
<path d="M947.199 131.614C948.238 131.614 949.078 130.772 949.078 129.734C949.078 128.696 948.238 127.854 947.199 127.854C946.16 127.854 945.32 128.696 945.32 129.734C945.32 130.772 946.16 131.614 947.199 131.614Z" fill="#9EA9E8"/>
<path d="M949.074 60.5516C950.214 60.5516 951.133 59.6293 951.133 58.4916C951.133 57.3539 950.214 56.4316 949.074 56.4316C947.935 56.4316 947.016 57.3539 947.016 58.4916C947.016 59.6293 947.935 60.5516 949.074 60.5516Z" fill="#9EA9E8"/>
<path d="M1064.26 181.856C1065.12 181.856 1065.81 181.162 1065.81 180.306C1065.81 179.45 1065.12 178.756 1064.26 178.756C1063.4 178.756 1062.71 179.45 1062.71 180.306C1062.71 181.162 1063.4 181.856 1064.26 181.856Z" fill="#9EA9E8"/>
<path d="M1122.56 234.438C1123.65 234.438 1124.53 233.556 1124.53 232.468C1124.53 231.38 1123.65 230.498 1122.56 230.498C1121.47 230.498 1120.59 231.38 1120.59 232.468C1120.59 233.556 1121.47 234.438 1122.56 234.438Z" fill="#9EA9E8"/>
<path d="M1190.87 297.71C1190.87 299.11 1189.74 300.24 1188.34 300.24C1186.94 300.24 1185.81 299.11 1185.81 297.71C1185.81 296.31 1186.94 295.18 1188.34 295.18C1189.74 295.18 1190.87 296.31 1190.87 297.71Z" fill="#9EA9E8"/>
<path d="M1386.75 262.034C1387.68 262.034 1388.44 261.277 1388.44 260.344C1388.44 259.411 1387.68 258.654 1386.75 258.654C1385.82 258.654 1385.06 259.411 1385.06 260.344C1385.06 261.277 1385.82 262.034 1386.75 262.034Z" fill="#9EA9E8"/>
<path d="M1327.74 281.122C1327.74 282.052 1326.98 282.812 1326.05 282.812C1325.12 282.812 1324.36 282.052 1324.36 281.122C1324.36 280.192 1325.12 279.432 1326.05 279.432C1326.98 279.432 1327.74 280.182 1327.74 281.122Z" fill="#9EA9E8"/>
<path d="M1207.77 208.212C1207.77 208.612 1207.45 208.932 1207.05 208.932C1206.65 208.932 1206.33 208.612 1206.33 208.212C1206.33 207.812 1206.65 207.492 1207.05 207.492C1207.45 207.492 1207.77 207.812 1207.77 208.212Z" fill="#9EA9E8"/>
<path d="M1056.19 96.6769C1056.99 96.6769 1057.63 96.0319 1057.63 95.2369C1057.63 94.4419 1056.99 93.7969 1056.19 93.7969C1055.39 93.7969 1054.75 94.4419 1054.75 95.2369C1054.75 96.0319 1055.39 96.6769 1056.19 96.6769Z" fill="#9EA9E8"/>
<path d="M1279.81 82.0499C1280.61 82.0499 1281.25 81.4049 1281.25 80.6099C1281.25 79.8149 1280.61 79.1699 1279.81 79.1699C1279.01 79.1699 1278.37 79.8149 1278.37 80.6099C1278.37 81.4049 1279.01 82.0499 1279.81 82.0499Z" fill="#9EA9E8"/>
<path d="M1445.27 5.55969C1446.07 5.55969 1446.71 4.91499 1446.71 4.11969C1446.71 3.32439 1446.07 2.67969 1445.27 2.67969C1444.47 2.67969 1443.83 3.32439 1443.83 4.11969C1443.83 4.91499 1444.47 5.55969 1445.27 5.55969Z" fill="#9EA9E8"/>
<path d="M1559.49 93.3077C1560.29 93.3077 1560.93 92.6627 1560.93 91.8677C1560.93 91.0727 1560.29 90.4277 1559.49 90.4277C1558.69 90.4277 1558.05 91.0727 1558.05 91.8677C1558.05 92.6627 1558.69 93.3077 1559.49 93.3077Z" fill="#9EA9E8"/>
<path d="M1430.64 312.278C1431.44 312.278 1432.08 311.633 1432.08 310.838C1432.08 310.043 1431.44 309.398 1430.64 309.398C1429.84 309.398 1429.2 310.043 1429.2 310.838C1429.2 311.633 1429.84 312.278 1430.64 312.278Z" fill="#9EA9E8"/>
<path d="M1801.8 226.97C1802.6 226.97 1803.24 226.325 1803.24 225.53C1803.24 224.735 1802.6 224.09 1801.8 224.09C1801 224.09 1800.36 224.735 1800.36 225.53C1800.36 226.325 1801 226.97 1801.8 226.97Z" fill="#9EA9E8"/>
<path d="M1653.58 343.473C1653.98 343.473 1654.3 343.151 1654.3 342.753C1654.3 342.355 1653.98 342.033 1653.58 342.033C1653.18 342.033 1652.86 342.355 1652.86 342.753C1652.86 343.151 1653.18 343.473 1653.58 343.473Z" fill="#9EA9E8"/>
<path d="M1684.08 485.225C1684.48 485.225 1684.8 484.903 1684.8 484.505C1684.8 484.107 1684.48 483.785 1684.08 483.785C1683.68 483.785 1683.36 484.107 1683.36 484.505C1683.36 484.903 1683.68 485.225 1684.08 485.225Z" fill="#9EA9E8"/>
<path d="M1288.15 215.831C1289.52 215.831 1290.63 214.721 1290.63 213.351C1290.63 211.981 1289.52 210.871 1288.15 210.871C1286.78 210.871 1285.67 211.981 1285.67 213.351C1285.67 214.721 1286.78 215.831 1288.15 215.831Z" fill="#9EA9E8"/>
<path d="M1190.87 120.544C1190.87 121.944 1189.74 123.074 1188.34 123.074C1186.94 123.074 1185.81 121.944 1185.81 120.544C1185.81 119.144 1186.94 118.014 1188.34 118.014C1189.74 118.014 1190.87 119.144 1190.87 120.544Z" fill="#9EA9E8"/>
<path d="M1164.86 34.4965C1165.72 34.4965 1166.41 33.8025 1166.41 32.9465C1166.41 32.0905 1165.72 31.3965 1164.86 31.3965C1164 31.3965 1163.31 32.0905 1163.31 32.9465C1163.31 33.8025 1164 34.4965 1164.86 34.4965Z" fill="#9EA9E8"/>
<path d="M1351.52 366.03C1352.91 366.03 1354.04 364.902 1354.04 363.51C1354.04 362.118 1352.91 360.99 1351.52 360.99C1350.13 360.99 1349 362.118 1349 363.51C1349 364.902 1350.13 366.03 1351.52 366.03Z" fill="#9EA9E8"/>
<path d="M1349.63 460.319C1350.33 460.319 1350.89 459.755 1350.89 459.059C1350.89 458.363 1350.33 457.799 1349.63 457.799C1348.93 457.799 1348.37 458.363 1348.37 459.059C1348.37 459.755 1348.93 460.319 1349.63 460.319Z" fill="#9EA9E8"/>
<path d="M1218.13 478.456C1218.83 478.456 1219.39 477.892 1219.39 477.196C1219.39 476.5 1218.83 475.936 1218.13 475.936C1217.43 475.936 1216.87 476.5 1216.87 477.196C1216.87 477.892 1217.43 478.456 1218.13 478.456Z" fill="#9EA9E8"/>
<path d="M1256.25 417.893C1257.71 417.893 1258.89 416.711 1258.89 415.253C1258.89 413.795 1257.71 412.613 1256.25 412.613C1254.79 412.613 1253.61 413.795 1253.61 415.253C1253.61 416.711 1254.79 417.893 1256.25 417.893Z" fill="#9EA9E8"/>
<path d="M1480.8 400.736C1481.99 400.736 1482.96 399.769 1482.96 398.576C1482.96 397.383 1481.99 396.416 1480.8 396.416C1479.61 396.416 1478.64 397.383 1478.64 398.576C1478.64 399.769 1479.61 400.736 1480.8 400.736Z" fill="#9EA9E8"/>
<path d="M1643.43 423.483C1644.37 423.483 1645.14 422.716 1645.14 421.772C1645.14 420.828 1644.37 420.062 1643.43 420.062C1642.49 420.062 1641.72 420.828 1641.72 421.772C1641.72 422.716 1642.49 423.483 1643.43 423.483Z" fill="#9EA9E8"/>
<path d="M1588.12 289.582C1589.43 289.582 1590.49 288.521 1590.49 287.212C1590.49 285.903 1589.43 284.842 1588.12 284.842C1586.81 284.842 1585.75 285.903 1585.75 287.212C1585.75 288.521 1586.81 289.582 1588.12 289.582Z" fill="#9EA9E8"/>
<path d="M1475.43 215.221C1476 215.221 1476.47 214.755 1476.47 214.181C1476.47 213.607 1476 213.141 1475.43 213.141C1474.86 213.141 1474.39 213.607 1474.39 214.181C1474.39 214.755 1474.86 215.221 1475.43 215.221Z" fill="#9EA9E8"/>
<path d="M1750.24 459.478C1751.78 459.478 1753.03 458.229 1753.03 456.688C1753.03 455.147 1751.78 453.898 1750.24 453.898C1748.7 453.898 1747.45 455.147 1747.45 456.688C1747.45 458.229 1748.7 459.478 1750.24 459.478Z" fill="#9EA9E8"/>
<path d="M1729.99 340.074C1731.43 340.074 1732.6 338.901 1732.6 337.454C1732.6 336.007 1731.43 334.834 1729.99 334.834C1728.54 334.834 1727.37 336.007 1727.37 337.454C1727.37 338.901 1728.54 340.074 1729.99 340.074Z" fill="#9EA9E8"/>
<path d="M1696.63 228.909C1697.56 228.909 1698.32 228.152 1698.32 227.219C1698.32 226.286 1697.56 225.529 1696.63 225.529C1695.7 225.529 1694.95 226.286 1694.95 227.219C1694.95 228.152 1695.7 228.909 1696.63 228.909Z" fill="#9EA9E8"/>
<path d="M1601.46 156.54C1602.81 156.54 1603.9 155.448 1603.9 154.1C1603.9 152.752 1602.81 151.66 1601.46 151.66C1600.11 151.66 1599.02 152.752 1599.02 154.1C1599.02 155.448 1600.11 156.54 1601.46 156.54Z" fill="#9EA9E8"/>
<path d="M1402.49 148.11C1403.53 148.11 1404.37 147.268 1404.37 146.23C1404.37 145.192 1403.53 144.35 1402.49 144.35C1401.45 144.35 1400.61 145.192 1400.61 146.23C1400.61 147.268 1401.45 148.11 1402.49 148.11Z" fill="#9EA9E8"/>
<path d="M1372.97 77.8102C1373.75 77.8102 1374.38 77.1792 1374.38 76.4002C1374.38 75.6212 1373.75 74.9902 1372.97 74.9902C1372.19 74.9902 1371.56 75.6212 1371.56 76.4002C1371.56 77.1792 1372.19 77.8102 1372.97 77.8102Z" fill="#9EA9E8"/>
<path d="M1497.73 64.9023C1498.99 64.9023 1500.01 63.8771 1500.01 62.6123C1500.01 61.3476 1498.99 60.3223 1497.73 60.3223C1496.47 60.3223 1495.44 61.3476 1495.44 62.6123C1495.44 63.8771 1496.47 64.9023 1497.73 64.9023Z" fill="#9EA9E8"/>
<path d="M1652.86 49.3443C1654.22 49.3443 1655.33 48.2384 1655.33 46.8743C1655.33 45.5102 1654.22 44.4043 1652.86 44.4043C1651.5 44.4043 1650.39 45.5102 1650.39 46.8743C1650.39 48.2384 1651.5 49.3443 1652.86 49.3443Z" fill="#9EA9E8"/>
<path d="M1726.85 116.764C1727.84 116.764 1728.64 115.958 1728.64 114.964C1728.64 113.97 1727.84 113.164 1726.85 113.164C1725.86 113.164 1725.05 113.97 1725.05 114.964C1725.05 115.958 1725.86 116.764 1726.85 116.764Z" fill="#9EA9E8"/>
<path d="M1758.71 31.1866C1759.37 31.1866 1759.9 30.6538 1759.9 29.9966C1759.9 29.3394 1759.37 28.8066 1758.71 28.8066C1758.05 28.8066 1757.52 29.3394 1757.52 29.9966C1757.52 30.6538 1758.05 31.1866 1758.71 31.1866Z" fill="#9EA9E8"/>
<path d="M1496.58 167.227C1497.21 167.227 1497.72 166.717 1497.72 166.087C1497.72 165.457 1497.21 164.947 1496.58 164.947C1495.95 164.947 1495.44 165.457 1495.44 166.087C1495.44 166.717 1495.95 167.227 1496.58 167.227Z" fill="#9EA9E8"/>
<path d="M1282.41 137.792C1282.86 137.792 1283.23 137.425 1283.23 136.972C1283.23 136.519 1282.86 136.152 1282.41 136.152C1281.96 136.152 1281.59 136.519 1281.59 136.972C1281.59 137.425 1281.96 137.792 1282.41 137.792Z" fill="#9EA9E8"/>
<g opacity="0.7">
<path opacity="0.7" d="M199.662 326.359L199.865 325.158C198.491 324.926 197.177 324.425 195.997 323.684C194.817 322.943 193.795 321.977 192.989 320.84C192.182 319.703 191.608 318.418 191.299 317.06C190.99 315.701 190.952 314.294 191.187 312.92L189.987 312.717C189.721 314.246 189.76 315.813 190.101 317.327C190.442 318.842 191.079 320.274 191.975 321.541C192.871 322.809 194.008 323.887 195.322 324.714C196.635 325.54 198.099 326.099 199.629 326.359H199.662Z" fill="#6472CF"/>
<path opacity="0.7" d="M200.177 323.37L200.37 322.17C198.391 321.832 196.627 320.722 195.464 319.085C194.301 317.448 193.835 315.417 194.167 313.436L192.977 313.232C192.782 314.371 192.814 315.537 193.071 316.664C193.327 317.79 193.804 318.855 194.472 319.797C195.141 320.739 195.99 321.539 196.968 322.152C197.947 322.766 199.038 323.179 200.177 323.37Z" fill="#6472CF"/>
<path opacity="0.7" d="M200.683 320.38L200.887 319.179C199.699 318.978 198.64 318.312 197.943 317.329C197.246 316.347 196.967 315.127 197.169 313.939L195.969 313.746C195.718 315.251 196.073 316.794 196.956 318.037C197.84 319.28 199.18 320.123 200.683 320.38Z" fill="#6472CF"/>
<path opacity="0.7" d="M202.873 316.426C203.136 316.241 203.351 315.997 203.504 315.715C203.656 315.432 203.741 315.118 203.752 314.797L215.933 316.694C216.241 316.764 216.56 316.771 216.871 316.716C217.182 316.661 217.479 316.544 217.744 316.372C220.958 314.058 221.665 309.246 219.64 304.895L221.011 303.92C222.64 305.581 224.451 306.546 225.618 305.72L228.383 303.759L230.129 306.224L227.322 308.207C226.996 308.447 226.775 308.804 226.705 309.203C226.635 309.602 226.722 310.013 226.947 310.35L237.253 324.881C237.495 325.206 237.853 325.424 238.252 325.492C238.651 325.56 239.061 325.472 239.396 325.246L246.746 320.037C247.07 319.795 247.289 319.438 247.357 319.039C247.424 318.64 247.336 318.23 247.11 317.894L236.803 303.374C236.563 303.047 236.206 302.826 235.807 302.757C235.408 302.687 234.997 302.773 234.661 302.999L231.854 304.992L230.107 302.538L233.472 300.148C233.813 299.833 234.058 299.426 234.175 298.975C234.293 298.525 234.279 298.051 234.136 297.608C234.809 297.659 235.485 297.564 236.118 297.33C237.618 296.258 237.318 293.375 235.443 290.728C233.568 288.081 230.922 286.838 229.432 287.899C228.997 288.415 228.686 289.023 228.522 289.678C228.153 289.394 227.71 289.222 227.246 289.184C226.782 289.146 226.318 289.243 225.908 289.464L222.544 291.854L220.69 289.239L223.497 287.246C223.824 287.005 224.044 286.647 224.112 286.248C224.18 285.848 224.09 285.437 223.861 285.102L213.555 270.571C213.315 270.244 212.957 270.024 212.557 269.956C212.158 269.888 211.747 269.978 211.412 270.207L204.063 275.426C203.734 275.664 203.512 276.021 203.442 276.421C203.372 276.821 203.46 277.233 203.688 277.569L213.994 292.089C214.233 292.418 214.59 292.64 214.99 292.71C215.389 292.78 215.801 292.692 216.137 292.464L218.944 290.471L220.808 293.097L218.055 295.047C216.876 295.883 217.198 297.919 218.215 300.009L216.855 300.973C213.416 297.619 208.637 296.687 205.381 298.969C205.132 299.163 204.925 299.403 204.771 299.677C204.616 299.951 204.517 300.253 204.48 300.566L202.252 312.686C201.944 312.595 201.619 312.575 201.302 312.627C200.985 312.679 200.683 312.802 200.42 312.986C200.14 313.122 199.893 313.317 199.695 313.558C199.498 313.799 199.356 314.08 199.279 314.381C199.201 314.682 199.19 314.997 199.246 315.303C199.303 315.609 199.425 315.9 199.605 316.154C199.785 316.408 200.018 316.62 200.288 316.774C200.558 316.929 200.858 317.024 201.168 317.051C201.478 317.077 201.79 317.036 202.083 316.93C202.376 316.824 202.642 316.656 202.863 316.437L202.873 316.426ZM204.191 313.64L208.477 310.586C209.661 312.208 211.048 313.674 212.601 314.947L204.191 313.64ZM207.791 309.6L203.506 312.654L205.059 304.274C205.74 306.158 206.658 307.948 207.791 309.6Z" fill="#6472CF"/>
</g>
<path d="M1477.84 254.59L1477.69 256.047C1479.35 256.211 1480.97 256.701 1482.44 257.491C1483.91 258.281 1485.21 259.354 1486.27 260.649C1487.32 261.944 1488.11 263.435 1488.59 265.036C1489.07 266.637 1489.22 268.317 1489.05 269.978L1490.49 270.128C1490.86 266.395 1489.74 262.667 1487.37 259.761C1485 256.854 1481.57 255.006 1477.84 254.622V254.59Z" fill="#77A4F2"/>
<path d="M1477.49 258.215L1477.34 259.662C1479.73 259.902 1481.92 261.083 1483.44 262.944C1484.97 264.805 1485.69 267.193 1485.45 269.585L1486.89 269.735C1487.17 266.96 1486.34 264.188 1484.57 262.028C1482.81 259.868 1480.26 258.496 1477.49 258.215Z" fill="#77A4F2"/>
<path d="M1477.12 261.812L1476.97 263.271C1477.68 263.341 1478.37 263.55 1479 263.887C1479.63 264.224 1480.19 264.682 1480.64 265.234C1481.09 265.787 1481.43 266.423 1481.63 267.107C1481.84 267.791 1481.91 268.507 1481.83 269.217L1483.28 269.368C1483.37 268.467 1483.29 267.558 1483.03 266.69C1482.77 265.823 1482.34 265.016 1481.77 264.314C1481.19 263.612 1480.49 263.03 1479.69 262.601C1478.9 262.172 1478.02 261.905 1477.12 261.812Z" fill="#77A4F2"/>
<path d="M1474.85 266.712C1474.56 266.951 1474.32 267.251 1474.16 267.593C1474 267.934 1473.92 268.307 1473.92 268.684L1459.58 267.055H1459.33C1459 267.045 1458.68 267.108 1458.38 267.237C1458.08 267.367 1457.81 267.561 1457.59 267.805C1455.93 269.702 1454.88 272.05 1454.56 274.549C1454.25 277.048 1454.69 279.585 1455.82 281.833L1451.93 285.048L1449.93 282.605C1449.78 282.421 1449.6 282.268 1449.39 282.155C1449.18 282.042 1448.95 281.972 1448.71 281.948C1448.48 281.924 1448.24 281.947 1448.01 282.016C1447.79 282.084 1447.58 282.197 1447.39 282.348L1442.73 286.152L1440.01 282.819L1443.22 280.204C1443.61 279.89 1443.85 279.436 1443.9 278.941C1443.95 278.447 1443.81 277.953 1443.49 277.568L1430.01 261.076C1429.7 260.691 1429.25 260.447 1428.75 260.396C1428.26 260.346 1427.76 260.494 1427.38 260.808L1419.02 267.623C1418.64 267.941 1418.4 268.397 1418.35 268.892C1418.3 269.387 1418.44 269.882 1418.75 270.27L1432.24 286.763C1432.56 287.145 1433.01 287.387 1433.51 287.437C1434 287.488 1434.49 287.341 1434.88 287.031L1438.09 284.426L1440.82 287.759L1436.54 291.263C1436.17 291.569 1435.93 292.007 1435.88 292.484C1435.83 292.961 1435.97 293.438 1436.27 293.814L1436.57 294.168L1433.24 295.153C1432.98 295.226 1432.75 295.362 1432.56 295.55C1432.38 295.737 1432.24 295.97 1432.17 296.225C1432.09 296.475 1432.08 296.739 1432.13 296.996C1432.18 297.252 1432.29 297.492 1432.46 297.693L1439.65 306.481C1439.81 306.685 1440.02 306.845 1440.26 306.945C1440.5 307.044 1440.76 307.08 1441.02 307.049C1441.33 307.024 1441.63 306.904 1441.87 306.706C1442.03 306.57 1442.17 306.406 1442.27 306.223L1443.9 303.158L1444.05 303.341C1444.35 303.71 1444.79 303.945 1445.27 303.993C1445.74 304.041 1446.22 303.899 1446.59 303.598L1450.87 300.094L1453.64 303.469L1450.42 306.073C1450.04 306.391 1449.8 306.844 1449.75 307.337C1449.7 307.83 1449.85 308.322 1450.16 308.71L1463.64 325.202C1463.96 325.586 1464.41 325.83 1464.9 325.882C1465.4 325.935 1465.89 325.79 1466.28 325.481L1474.63 318.654C1475.01 318.34 1475.25 317.886 1475.3 317.392C1475.35 316.897 1475.21 316.403 1474.89 316.018L1461.42 299.515C1461.1 299.135 1460.64 298.894 1460.15 298.844C1459.66 298.794 1459.17 298.939 1458.78 299.247L1455.57 301.862L1452.81 298.486L1457.46 294.671C1457.83 294.369 1458.07 293.933 1458.12 293.457C1458.17 292.981 1458.03 292.504 1457.73 292.131L1455.59 289.527L1459.48 286.312C1461.45 287.872 1463.85 288.808 1466.36 288.998C1468.87 289.189 1471.38 288.627 1473.56 287.384C1473.67 287.329 1473.76 287.264 1473.85 287.191C1474.27 286.846 1474.55 286.37 1474.66 285.841C1474.66 285.755 1474.66 285.67 1474.66 285.584L1475.91 271.203C1476.33 271.291 1476.76 271.272 1477.17 271.148C1477.58 271.023 1477.95 270.797 1478.25 270.491C1478.55 270.185 1478.76 269.808 1478.87 269.396C1478.99 268.984 1478.99 268.55 1478.89 268.135C1478.79 267.719 1478.59 267.336 1478.3 267.021C1478.01 266.706 1477.65 266.469 1477.24 266.332C1476.84 266.196 1476.41 266.164 1475.99 266.239C1475.57 266.315 1475.17 266.496 1474.84 266.766L1474.85 266.712ZM1461.75 268.759L1473.53 270.109L1467.1 275.36L1461.75 268.759ZM1468.06 276.475L1474.49 271.235L1473.41 283.023L1468.06 276.475Z" fill="#697FD8"/>
<path opacity="0.6" d="M912.049 731.861C1105.15 731.861 1261.67 575.286 1261.67 382.146C1261.67 189.006 1105.15 32.4297 912.049 32.4297C718.947 32.4297 562.422 189.006 562.422 382.146C562.422 575.286 718.958 731.861 912.049 731.861Z" fill="url(#paint2_linear_2665_24508)"/>
<path opacity="0.6" d="M792.807 124.582C808.877 138.62 801.045 173.877 775.322 203.272C749.598 232.667 715.744 245.151 699.684 231.134C683.624 217.117 691.456 181.839 717.168 152.434C742.881 123.028 776.747 110.533 792.807 124.582Z" fill="url(#paint3_linear_2665_24508)"/>
<path opacity="0.6" d="M664.354 238.271C669.336 241.143 670.118 249.073 666.122 255.985C662.126 262.897 654.872 266.176 649.901 263.304C644.93 260.432 644.137 252.502 648.134 245.59C652.13 238.678 659.394 235.399 664.354 238.271Z" fill="url(#paint4_linear_2665_24508)"/>
<path opacity="0.6" d="M844.065 172.501C848.104 174.838 848.5 181.707 844.954 187.869C841.408 194.031 835.247 197.117 831.208 194.781C827.169 192.445 826.773 185.565 830.319 179.413C833.865 173.262 840.015 170.165 844.065 172.501Z" fill="url(#paint5_linear_2665_24508)"/>
<path opacity="0.6" d="M765.951 297.972C761.666 312.161 749.346 320.98 738.461 317.69C727.576 314.4 722.24 300.201 726.547 286.013C730.854 271.824 743.153 263.005 754.038 266.306C764.923 269.606 770.258 283.784 765.951 297.972Z" fill="url(#paint6_linear_2665_24508)"/>
<path opacity="0.6" d="M1261.24 399.934C1259.12 442.848 1249.06 484.996 1231.58 524.243C1209.8 551.881 1059.09 512.016 888.289 432.79C720.086 354.765 593.665 266.88 596.558 231.324C615.361 192.073 641.301 156.664 673.053 126.904C489.144 70.4291 352.556 60.6024 329.147 111.044C305.738 161.486 401.303 259.261 562.949 363.134C643.805 415.108 741.224 468.594 848.585 518.403C956.127 568.309 1060.04 608.206 1152.05 636.411C1335.5 692.629 1471.65 702.337 1495 651.982C1518.36 601.626 1422.86 503.807 1261.24 399.934Z" fill="url(#paint7_linear_2665_24508)"/>
<defs>
<linearGradient id="paint0_linear_2665_24508" x1="78.3556" y1="169.47" x2="133.645" y2="242.061" gradientUnits="userSpaceOnUse">
<stop stop-color="#77A4F2" stop-opacity="0.5"/>
<stop offset="1" stop-color="#77A4F2" stop-opacity="0"/>
</linearGradient>
<linearGradient id="paint1_linear_2665_24508" x1="1677.1" y1="143.124" x2="1695.54" y2="167.334" gradientUnits="userSpaceOnUse">
<stop stop-color="#77A4F2" stop-opacity="0.5"/>
<stop offset="1" stop-color="#77A4F2" stop-opacity="0"/>
</linearGradient>
<linearGradient id="paint2_linear_2665_24508" x1="705.684" y1="90.1365" x2="993.704" y2="497.481" gradientUnits="userSpaceOnUse">
<stop stop-color="white" stop-opacity="0.3"/>
<stop offset="1" stop-color="white" stop-opacity="0"/>
</linearGradient>
<linearGradient id="paint3_linear_2665_24508" x1="715.754" y1="171.327" x2="789.744" y2="187.125" gradientUnits="userSpaceOnUse">
<stop stop-color="white" stop-opacity="0.3"/>
<stop offset="1" stop-color="white" stop-opacity="0"/>
</linearGradient>
<linearGradient id="paint4_linear_2665_24508" x1="649.505" y1="251.623" x2="668.179" y2="249.577" gradientUnits="userSpaceOnUse">
<stop stop-color="white" stop-opacity="0.3"/>
<stop offset="1" stop-color="white" stop-opacity="0"/>
</linearGradient>
<linearGradient id="paint5_linear_2665_24508" x1="830.555" y1="184.118" x2="846.25" y2="183.068" gradientUnits="userSpaceOnUse">
<stop stop-color="white" stop-opacity="0.3"/>
<stop offset="1" stop-color="white" stop-opacity="0"/>
</linearGradient>
<linearGradient id="paint6_linear_2665_24508" x1="726.483" y1="286.002" x2="765.9" y2="297.956" gradientUnits="userSpaceOnUse">
<stop stop-color="white" stop-opacity="0.3"/>
<stop offset="1" stop-color="white" stop-opacity="0"/>
</linearGradient>
<linearGradient id="paint7_linear_2665_24508" x1="602.975" y1="559.221" x2="909.798" y2="382.941" gradientUnits="userSpaceOnUse">
<stop stop-color="white" stop-opacity="0.3"/>
<stop offset="1" stop-color="white" stop-opacity="0"/>
</linearGradient>
</defs>
</svg>
