<svg width="1804" height="710" viewBox="0 0 1804 710" fill="none" xmlns="http://www.w3.org/2000/svg">
<path opacity="0.6" d="M108.379 401.488C133.802 401.488 154.414 380.607 154.414 354.848C154.414 329.089 133.802 308.207 108.379 308.207C82.9541 308.207 62.3438 329.089 62.3438 354.848C62.3438 380.607 82.9541 401.488 108.379 401.488Z" fill="url(#paint0_linear_2665_24508)"/>
<path opacity="0.6" d="M1687.11 317.095C1695.59 317.095 1702.47 310.129 1702.47 301.535C1702.47 292.941 1695.59 285.975 1687.11 285.975C1678.62 285.975 1671.75 292.941 1671.75 301.535C1671.75 310.129 1678.62 317.095 1687.11 317.095Z" fill="url(#paint1_linear_2665_24508)"/>
<path d="M485.689 559.192C486.621 559.192 487.378 558.425 487.378 557.481C487.378 556.536 486.621 555.77 485.689 555.77C484.757 555.77 484 556.536 484 557.481C484 558.425 484.757 559.192 485.689 559.192Z" fill="#9EA9E8"/>
<path d="M455.298 600.772C456.231 600.772 456.987 600.005 456.987 599.061C456.987 598.116 456.231 597.35 455.298 597.35C454.366 597.35 453.609 598.116 453.609 599.061C453.609 600.005 454.366 600.772 455.298 600.772Z" fill="#9EA9E8"/>
<path d="M528.51 635.921C529.465 635.921 530.239 635.137 530.239 634.17C530.239 633.203 529.465 632.418 528.51 632.418C527.556 632.418 526.781 633.203 526.781 634.17C526.781 635.137 527.556 635.921 528.51 635.921Z" fill="#9EA9E8"/>
<path d="M446.97 503.015C448.317 503.015 449.408 501.91 449.408 500.545C449.408 499.18 448.317 498.074 446.97 498.074C445.623 498.074 444.531 499.18 444.531 500.545C444.531 501.91 445.623 503.015 446.97 503.015Z" fill="#9EA9E8"/>
<path d="M396.955 593.553C397.887 593.553 398.644 592.787 398.644 591.842C398.644 590.897 397.887 590.131 396.955 590.131C396.022 590.131 395.266 590.897 395.266 591.842C395.266 592.787 396.022 593.553 396.955 593.553Z" fill="#9EA9E8"/>
<path d="M366.217 561.672C367.359 561.672 368.286 560.734 368.286 559.576C368.286 558.419 367.359 557.48 366.217 557.48C365.075 557.48 364.148 558.419 364.148 559.576C364.148 560.734 365.075 561.672 366.217 561.672Z" fill="#9EA9E8"/>
<path d="M316.103 604.182C317.035 604.182 317.792 603.416 317.792 602.471C317.792 601.526 317.035 600.76 316.103 600.76C315.171 600.76 314.414 601.526 314.414 602.471C314.414 603.416 315.171 604.182 316.103 604.182Z" fill="#9EA9E8"/>
<path d="M348.324 488.951C348.788 488.951 349.163 488.57 349.163 488.101C349.163 487.631 348.788 487.25 348.324 487.25C347.86 487.25 347.484 487.631 347.484 488.101C347.484 488.57 347.86 488.951 348.324 488.951Z" fill="#9EA9E8"/>
<path d="M286.64 528.73C287.804 528.73 288.749 527.773 288.749 526.593C288.749 525.414 287.804 524.457 286.64 524.457C285.476 524.457 284.531 525.414 284.531 526.593C284.531 527.773 285.476 528.73 286.64 528.73Z" fill="#9EA9E8"/>
<path d="M314.652 437.423C315.453 437.423 316.101 436.766 316.101 435.954C316.101 435.143 315.453 434.486 314.652 434.486C313.852 434.486 313.203 435.143 313.203 435.954C313.203 436.766 313.852 437.423 314.652 437.423Z" fill="#9EA9E8"/>
<path d="M246.498 559.576C247.067 559.576 247.527 559.109 247.527 558.533C247.527 557.957 247.067 557.49 246.498 557.49C245.929 557.49 245.469 557.957 245.469 558.533C245.469 559.109 245.929 559.576 246.498 559.576Z" fill="#9EA9E8"/>
<path d="M529.024 503.146C529.736 503.146 530.313 502.56 530.313 501.839C530.313 501.118 529.736 500.533 529.024 500.533C528.312 500.533 527.734 501.118 527.734 501.839C527.734 502.56 528.312 503.146 529.024 503.146Z" fill="#9EA9E8"/>
<path d="M623.55 398.324C624.328 398.324 624.959 397.685 624.959 396.896C624.959 396.108 624.328 395.469 623.55 395.469C622.771 395.469 622.141 396.108 622.141 396.896C622.141 397.685 622.771 398.324 623.55 398.324Z" fill="#9EA9E8"/>
<path d="M540.552 403.081C541.849 403.081 542.9 402.016 542.9 400.702C542.9 399.387 541.849 398.322 540.552 398.322C539.255 398.322 538.203 399.387 538.203 400.702C538.203 402.016 539.255 403.081 540.552 403.081Z" fill="#9EA9E8"/>
<path d="M400.194 650.711C401.06 650.711 401.763 649.999 401.763 649.121C401.763 648.243 401.06 647.531 400.194 647.531C399.328 647.531 398.625 648.243 398.625 649.121C398.625 649.999 399.328 650.711 400.194 650.711Z" fill="#9EA9E8"/>
<path d="M185.051 582.932C186.088 582.932 186.93 582.08 186.93 581.029C186.93 579.978 186.088 579.125 185.051 579.125C184.013 579.125 183.172 579.978 183.172 581.029C183.172 582.08 184.013 582.932 185.051 582.932Z" fill="#9EA9E8"/>
<path d="M202.856 476.55C203.303 476.55 203.666 476.183 203.666 475.73C203.666 475.278 203.303 474.91 202.856 474.91C202.41 474.91 202.047 475.278 202.047 475.73C202.047 476.183 202.41 476.55 202.856 476.55Z" fill="#9EA9E8"/>
<path d="M102.556 608.891C103.114 608.891 103.566 608.433 103.566 607.868C103.566 607.303 103.114 606.846 102.556 606.846C101.999 606.846 101.547 607.303 101.547 607.868C101.547 608.433 101.999 608.891 102.556 608.891Z" fill="#9EA9E8"/>
<path d="M154.618 532.485C155.253 532.485 155.767 531.964 155.767 531.321C155.767 530.678 155.253 530.156 154.618 530.156C153.983 530.156 153.469 530.678 153.469 531.321C153.469 531.964 153.983 532.485 154.618 532.485Z" fill="#9EA9E8"/>
<path d="M14.6933 615.238C15.6371 615.238 16.4021 614.463 16.4021 613.507C16.4021 612.551 15.6371 611.775 14.6933 611.775C13.7494 611.775 12.9844 612.551 12.9844 613.507C12.9844 614.463 13.7494 615.238 14.6933 615.238Z" fill="#9EA9E8"/>
<path d="M48.5528 559.576C49.1214 559.576 49.5821 559.109 49.5821 558.533C49.5821 557.957 49.1214 557.49 48.5528 557.49C47.9841 557.49 47.5234 557.957 47.5234 558.533C47.5234 559.109 47.9841 559.576 48.5528 559.576Z" fill="#9EA9E8"/>
<path d="M99.9315 491.382C100.826 491.382 101.55 490.648 101.55 489.742C101.55 488.836 100.826 488.102 99.9315 488.102C99.037 488.102 98.3125 488.836 98.3125 489.742C98.3125 490.648 99.037 491.382 99.9315 491.382Z" fill="#9EA9E8"/>
<path d="M8.62112 490.532C9.28341 490.532 9.82038 489.988 9.82038 489.317C9.82038 488.645 9.28341 488.102 8.62112 488.102C7.95874 488.102 7.42188 488.645 7.42188 489.317C7.42188 489.988 7.95874 490.532 8.62112 490.532Z" fill="#9EA9E8"/>
<path d="M195.076 408.094C195.645 408.094 196.106 407.627 196.106 407.051C196.106 406.475 195.645 406.008 195.076 406.008C194.508 406.008 194.047 406.475 194.047 407.051C194.047 407.627 194.508 408.094 195.076 408.094Z" fill="#9EA9E8"/>
<path d="M90.6231 409.135C91.1917 409.135 91.6525 408.668 91.6525 408.092C91.6525 407.516 91.1917 407.049 90.6231 407.049C90.0545 407.049 89.5938 407.516 89.5938 408.092C89.5938 408.668 90.0545 409.135 90.6231 409.135Z" fill="#9EA9E8"/>
<path d="M154.408 451.191C154.927 451.191 155.348 450.764 155.348 450.239C155.348 449.713 154.927 449.287 154.408 449.287C153.889 449.287 153.469 449.713 153.469 450.239C153.469 450.764 153.889 451.191 154.408 451.191Z" fill="#9EA9E8"/>
<path d="M298.588 382.084C299.207 382.084 299.707 381.577 299.707 380.95C299.707 380.324 299.207 379.816 298.588 379.816C297.969 379.816 297.469 380.324 297.469 380.95C297.469 381.577 297.969 382.084 298.588 382.084Z" fill="#9EA9E8"/>
<path d="M58.0156 378.3C58.4296 378.3 58.7656 377.96 58.7656 377.541C58.7656 377.121 58.4296 376.781 58.0156 376.781C57.6016 376.781 57.2656 377.121 57.2656 377.541C57.2656 377.96 57.6016 378.3 58.0156 378.3Z" fill="#9EA9E8"/>
<path d="M406.219 298.948C407.306 298.948 408.188 298.055 408.188 296.954C408.188 295.852 407.306 294.959 406.219 294.959C405.131 294.959 404.25 295.852 404.25 296.954C404.25 298.055 405.131 298.948 406.219 298.948Z" fill="#9EA9E8"/>
<path d="M552.779 303.787C554.098 303.787 555.168 302.704 555.168 301.367C555.168 300.031 554.098 298.947 552.779 298.947C551.46 298.947 550.391 300.031 550.391 301.367C550.391 302.704 551.46 303.787 552.779 303.787Z" fill="#9EA9E8"/>
<path d="M502.479 363.58C503.02 363.58 503.459 363.136 503.459 362.588C503.459 362.04 503.02 361.596 502.479 361.596C501.939 361.596 501.5 362.04 501.5 362.588C501.5 363.136 501.939 363.58 502.479 363.58Z" fill="#9EA9E8"/>
<path d="M686.563 313.475C687.574 313.475 688.392 312.646 688.392 311.622C688.392 310.599 687.574 309.77 686.563 309.77C685.553 309.77 684.734 310.599 684.734 311.622C684.734 312.646 685.553 313.475 686.563 313.475Z" fill="#9EA9E8"/>
<path d="M465.02 421.376C465.445 421.376 465.79 421.026 465.79 420.596C465.79 420.166 465.445 419.816 465.02 419.816C464.595 419.816 464.25 420.166 464.25 420.596C464.25 421.026 464.595 421.376 465.02 421.376Z" fill="#9EA9E8"/>
<path d="M385.001 433.253C385.338 433.253 385.611 432.976 385.611 432.635C385.611 432.294 385.338 432.018 385.001 432.018C384.664 432.018 384.391 432.294 384.391 432.635C384.391 432.976 384.664 433.253 385.001 433.253Z" fill="#9EA9E8"/>
<path d="M444.533 380.384C445.052 380.384 445.473 379.958 445.473 379.432C445.473 378.907 445.052 378.48 444.533 378.48C444.014 378.48 443.594 378.907 443.594 379.432C443.594 379.958 444.014 380.384 444.533 380.384Z" fill="#9EA9E8"/>
<path d="M359.941 346.782C360.306 346.782 360.601 346.483 360.601 346.114C360.601 345.744 360.306 345.445 359.941 345.445C359.576 345.445 359.281 345.744 359.281 346.114C359.281 346.483 359.576 346.782 359.941 346.782Z" fill="#9EA9E8"/>
<path d="M319.515 276.453C320.679 276.453 321.624 275.496 321.624 274.316C321.624 273.137 320.679 272.18 319.515 272.18C318.351 272.18 317.406 273.137 317.406 274.316C317.406 275.496 318.351 276.453 319.515 276.453Z" fill="#9EA9E8"/>
<path d="M252.917 256.236C253.458 256.236 253.896 255.792 253.896 255.244C253.896 254.696 253.458 254.252 252.917 254.252C252.376 254.252 251.938 254.696 251.938 255.244C251.938 255.792 252.376 256.236 252.917 256.236Z" fill="#9EA9E8"/>
<path d="M1.59875 313.039C1.94675 313.039 2.22874 312.754 2.22874 312.402C2.22874 312.049 1.94675 311.764 1.59875 311.764C1.25085 311.764 0.96875 312.049 0.96875 312.402C0.96875 312.754 1.25085 313.039 1.59875 313.039Z" fill="#9EA9E8"/>
<path d="M96.5185 267.918C97.297 267.918 97.9276 267.279 97.9276 266.49C97.9276 265.701 97.297 265.062 96.5185 265.062C95.74 265.062 95.1094 265.701 95.1094 266.49C95.1094 267.279 95.74 267.918 96.5185 267.918Z" fill="#9EA9E8"/>
<path d="M17.12 184.194C17.6607 184.194 18.0994 183.749 18.0994 183.201C18.0994 182.653 17.6607 182.209 17.12 182.209C16.5794 182.209 16.1406 182.653 16.1406 183.201C16.1406 183.749 16.5794 184.194 17.12 184.194Z" fill="#9EA9E8"/>
<path d="M225.292 193.458C226.108 193.458 226.771 192.787 226.771 191.959C226.771 191.132 226.108 190.461 225.292 190.461C224.475 190.461 223.812 191.132 223.812 191.959C223.812 192.787 224.475 193.458 225.292 193.458Z" fill="#9EA9E8"/>
<path d="M354.651 200.139C355.192 200.139 355.631 199.695 355.631 199.147C355.631 198.599 355.192 198.154 354.651 198.154C354.111 198.154 353.672 198.599 353.672 199.147C353.672 199.695 354.111 200.139 354.651 200.139Z" fill="#9EA9E8"/>
<path d="M316.432 154.865C316.973 154.865 317.412 154.421 317.412 153.873C317.412 153.325 316.973 152.881 316.432 152.881C315.892 152.881 315.453 153.325 315.453 153.873C315.453 154.421 315.892 154.865 316.432 154.865Z" fill="#9EA9E8"/>
<path d="M451.183 224.627C451.647 224.627 452.023 224.246 452.023 223.776C452.023 223.306 451.647 222.926 451.183 222.926C450.719 222.926 450.344 223.306 450.344 223.776C450.344 224.246 450.719 224.627 451.183 224.627Z" fill="#9EA9E8"/>
<path d="M611.798 245.991C612.808 245.991 613.626 245.162 613.626 244.138C613.626 243.114 612.808 242.285 611.798 242.285C610.787 242.285 609.969 243.114 609.969 244.138C609.969 245.162 610.787 245.991 611.798 245.991Z" fill="#9EA9E8"/>
<path d="M569.994 167.257C570.888 167.257 571.613 166.523 571.613 165.617C571.613 164.711 570.888 163.977 569.994 163.977C569.1 163.977 568.375 164.711 568.375 165.617C568.375 166.523 569.1 167.257 569.994 167.257Z" fill="#9EA9E8"/>
<path d="M542.217 229.327C543.497 229.327 544.536 228.275 544.536 226.978C544.536 225.681 543.497 224.629 542.217 224.629C540.937 224.629 539.898 225.681 539.898 226.978C539.898 228.275 540.937 229.327 542.217 229.327Z" fill="#9EA9E8"/>
<path d="M464.762 147.465C465.899 147.465 466.821 146.531 466.821 145.379C466.821 144.227 465.899 143.293 464.762 143.293C463.625 143.293 462.703 144.227 462.703 145.379C462.703 146.531 463.625 147.465 464.762 147.465Z" fill="#9EA9E8"/>
<path d="M739.784 245.98C740.287 245.98 740.694 245.567 740.694 245.058C740.694 244.549 740.287 244.137 739.784 244.137C739.282 244.137 738.875 244.549 738.875 245.058C738.875 245.567 739.282 245.98 739.784 245.98Z" fill="#9EA9E8"/>
<path d="M689.664 210.06C690.377 210.06 690.953 209.475 690.953 208.753C690.953 208.032 690.377 207.447 689.664 207.447C688.953 207.447 688.375 208.032 688.375 208.753C688.375 209.475 688.953 210.06 689.664 210.06Z" fill="#9EA9E8"/>
<path d="M670.026 160.566C670.904 160.566 671.616 159.845 671.616 158.956C671.616 158.067 670.904 157.346 670.026 157.346C669.149 157.346 668.438 158.067 668.438 158.956C668.438 159.845 669.149 160.566 670.026 160.566Z" fill="#9EA9E8"/>
<path d="M825.097 229.326C825.737 229.326 826.256 228.8 826.256 228.151C826.256 227.502 825.737 226.977 825.097 226.977C824.456 226.977 823.938 227.502 823.938 228.151C823.938 228.8 824.456 229.326 825.097 229.326Z" fill="#9EA9E8"/>
<path d="M784.298 170.455C785.17 170.455 785.877 169.739 785.877 168.856C785.877 167.972 785.17 167.256 784.298 167.256C783.425 167.256 782.719 167.972 782.719 168.856C782.719 169.739 783.425 170.455 784.298 170.455Z" fill="#9EA9E8"/>
<path d="M947.207 276.555C948.246 276.555 949.086 275.703 949.086 274.652C949.086 273.601 948.246 272.748 947.207 272.748C946.168 272.748 945.328 273.601 945.328 274.652C945.328 275.703 946.168 276.555 947.207 276.555Z" fill="#9EA9E8"/>
<path d="M949.09 204.603C950.229 204.603 951.149 203.669 951.149 202.517C951.149 201.365 950.229 200.432 949.09 200.432C947.951 200.432 947.031 201.365 947.031 202.517C947.031 203.669 947.951 204.603 949.09 204.603Z" fill="#9EA9E8"/>
<path d="M1064.27 327.426C1065.13 327.426 1065.82 326.723 1065.82 325.857C1065.82 324.99 1065.13 324.287 1064.27 324.287C1063.41 324.287 1062.72 324.99 1062.72 325.857C1062.72 326.723 1063.41 327.426 1064.27 327.426Z" fill="#9EA9E8"/>
<path d="M1122.58 380.667C1123.67 380.667 1124.55 379.774 1124.55 378.672C1124.55 377.571 1123.67 376.678 1122.58 376.678C1121.49 376.678 1120.61 377.571 1120.61 378.672C1120.61 379.774 1121.49 380.667 1122.58 380.667Z" fill="#9EA9E8"/>
<path d="M1190.87 444.732C1190.87 446.149 1189.74 447.293 1188.34 447.293C1186.94 447.293 1185.81 446.149 1185.81 444.732C1185.81 443.314 1186.94 442.17 1188.34 442.17C1189.74 442.17 1190.87 443.314 1190.87 444.732Z" fill="#9EA9E8"/>
<path d="M1386.75 408.61C1387.68 408.61 1388.44 407.843 1388.44 406.899C1388.44 405.954 1387.68 405.188 1386.75 405.188C1385.82 405.188 1385.06 405.954 1385.06 406.899C1385.06 407.843 1385.82 408.61 1386.75 408.61Z" fill="#9EA9E8"/>
<path d="M1327.74 427.936C1327.74 428.877 1326.98 429.647 1326.05 429.647C1325.12 429.647 1324.36 428.877 1324.36 427.936C1324.36 426.994 1325.12 426.225 1326.05 426.225C1326.98 426.225 1327.74 426.984 1327.74 427.936Z" fill="#9EA9E8"/>
<path d="M1207.77 354.114C1207.77 354.519 1207.45 354.843 1207.05 354.843C1206.65 354.843 1206.33 354.519 1206.33 354.114C1206.33 353.709 1206.65 353.385 1207.05 353.385C1207.45 353.385 1207.77 353.709 1207.77 354.114Z" fill="#9EA9E8"/>
<path d="M1056.2 241.18C1057 241.18 1057.64 240.527 1057.64 239.722C1057.64 238.917 1057 238.264 1056.2 238.264C1055.4 238.264 1054.76 238.917 1054.76 239.722C1054.76 240.527 1055.4 241.18 1056.2 241.18Z" fill="#9EA9E8"/>
<path d="M1279.81 226.371C1280.61 226.371 1281.25 225.718 1281.25 224.913C1281.25 224.108 1280.61 223.455 1279.81 223.455C1279.01 223.455 1278.38 224.108 1278.38 224.913C1278.38 225.718 1279.01 226.371 1279.81 226.371Z" fill="#9EA9E8"/>
<path d="M1445.27 148.922C1446.07 148.922 1446.71 148.269 1446.71 147.464C1446.71 146.659 1446.07 146.006 1445.27 146.006C1444.47 146.006 1443.83 146.659 1443.83 147.464C1443.83 148.269 1444.47 148.922 1445.27 148.922Z" fill="#9EA9E8"/>
<path d="M1559.5 237.77C1560.3 237.77 1560.94 237.117 1560.94 236.312C1560.94 235.507 1560.3 234.854 1559.5 234.854C1558.7 234.854 1558.06 235.507 1558.06 236.312C1558.06 237.117 1558.7 237.77 1559.5 237.77Z" fill="#9EA9E8"/>
<path d="M1430.66 459.482C1431.46 459.482 1432.1 458.829 1432.1 458.024C1432.1 457.219 1431.46 456.566 1430.66 456.566C1429.86 456.566 1429.22 457.219 1429.22 458.024C1429.22 458.829 1429.86 459.482 1430.66 459.482Z" fill="#9EA9E8"/>
<path d="M1801.81 373.106C1802.61 373.106 1803.25 372.452 1803.25 371.647C1803.25 370.843 1802.61 370.189 1801.81 370.189C1801.01 370.189 1800.38 370.843 1800.38 371.647C1800.38 372.452 1801.01 373.106 1801.81 373.106Z" fill="#9EA9E8"/>
<path d="M1653.58 491.067C1653.98 491.067 1654.3 490.741 1654.3 490.338C1654.3 489.935 1653.98 489.609 1653.58 489.609C1653.18 489.609 1652.86 489.935 1652.86 490.338C1652.86 490.741 1653.18 491.067 1653.58 491.067Z" fill="#9EA9E8"/>
<path d="M1684.1 634.595C1684.5 634.595 1684.82 634.269 1684.82 633.866C1684.82 633.463 1684.5 633.137 1684.1 633.137C1683.7 633.137 1683.38 633.463 1683.38 633.866C1683.38 634.269 1683.7 634.595 1684.1 634.595Z" fill="#9EA9E8"/>
<path d="M1288.17 361.827C1289.54 361.827 1290.64 360.703 1290.64 359.316C1290.64 357.929 1289.54 356.805 1288.17 356.805C1286.8 356.805 1285.69 357.929 1285.69 359.316C1285.69 360.703 1286.8 361.827 1288.17 361.827Z" fill="#9EA9E8"/>
<path d="M1190.87 265.347C1190.87 266.764 1189.74 267.909 1188.34 267.909C1186.94 267.909 1185.81 266.764 1185.81 265.347C1185.81 263.929 1186.94 262.785 1188.34 262.785C1189.74 262.785 1190.87 263.929 1190.87 265.347Z" fill="#9EA9E8"/>
<path d="M1164.88 178.221C1165.74 178.221 1166.43 177.518 1166.43 176.651C1166.43 175.785 1165.74 175.082 1164.88 175.082C1164.02 175.082 1163.33 175.785 1163.33 176.651C1163.33 177.518 1164.02 178.221 1164.88 178.221Z" fill="#9EA9E8"/>
<path d="M1351.52 513.908C1352.91 513.908 1354.04 512.766 1354.04 511.356C1354.04 509.947 1352.91 508.805 1351.52 508.805C1350.13 508.805 1349 509.947 1349 511.356C1349 512.766 1350.13 513.908 1351.52 513.908Z" fill="#9EA9E8"/>
<path d="M1349.63 609.378C1350.33 609.378 1350.89 608.807 1350.89 608.102C1350.89 607.397 1350.33 606.826 1349.63 606.826C1348.93 606.826 1348.38 607.397 1348.38 608.102C1348.38 608.807 1348.93 609.378 1349.63 609.378Z" fill="#9EA9E8"/>
<path d="M1218.13 627.741C1218.83 627.741 1219.39 627.17 1219.39 626.465C1219.39 625.761 1218.83 625.189 1218.13 625.189C1217.43 625.189 1216.88 625.761 1216.88 626.465C1216.88 627.17 1217.43 627.741 1218.13 627.741Z" fill="#9EA9E8"/>
<path d="M1256.25 566.42C1257.71 566.42 1258.89 565.224 1258.89 563.747C1258.89 562.271 1257.71 561.074 1256.25 561.074C1254.79 561.074 1253.61 562.271 1253.61 563.747C1253.61 565.224 1254.79 566.42 1256.25 566.42Z" fill="#9EA9E8"/>
<path d="M1480.81 549.048C1482 549.048 1482.97 548.069 1482.97 546.861C1482.97 545.653 1482 544.674 1480.81 544.674C1479.63 544.674 1478.66 545.653 1478.66 546.861C1478.66 548.069 1479.63 549.048 1480.81 549.048Z" fill="#9EA9E8"/>
<path d="M1643.44 572.08C1644.38 572.08 1645.15 571.304 1645.15 570.349C1645.15 569.393 1644.38 568.617 1643.44 568.617C1642.5 568.617 1641.73 569.393 1641.73 570.349C1641.73 571.304 1642.5 572.08 1643.44 572.08Z" fill="#9EA9E8"/>
<path d="M1588.12 436.502C1589.43 436.502 1590.49 435.428 1590.49 434.103C1590.49 432.777 1589.43 431.703 1588.12 431.703C1586.81 431.703 1585.75 432.777 1585.75 434.103C1585.75 435.428 1586.81 436.502 1588.12 436.502Z" fill="#9EA9E8"/>
<path d="M1475.44 361.21C1476.01 361.21 1476.48 360.738 1476.48 360.157C1476.48 359.575 1476.01 359.104 1475.44 359.104C1474.87 359.104 1474.4 359.575 1474.4 360.157C1474.4 360.738 1474.87 361.21 1475.44 361.21Z" fill="#9EA9E8"/>
<path d="M1750.25 608.527C1751.79 608.527 1753.04 607.262 1753.04 605.702C1753.04 604.142 1751.79 602.877 1750.25 602.877C1748.71 602.877 1747.46 604.142 1747.46 605.702C1747.46 607.262 1748.71 608.527 1750.25 608.527Z" fill="#9EA9E8"/>
<path d="M1729.99 487.626C1731.44 487.626 1732.61 486.438 1732.61 484.973C1732.61 483.508 1731.44 482.32 1729.99 482.32C1728.54 482.32 1727.38 483.508 1727.38 484.973C1727.38 486.438 1728.54 487.626 1729.99 487.626Z" fill="#9EA9E8"/>
<path d="M1696.64 375.069C1697.57 375.069 1698.33 374.302 1698.33 373.358C1698.33 372.413 1697.57 371.646 1696.64 371.646C1695.71 371.646 1694.95 372.413 1694.95 373.358C1694.95 374.302 1695.71 375.069 1696.64 375.069Z" fill="#9EA9E8"/>
<path d="M1601.47 301.795C1602.82 301.795 1603.91 300.689 1603.91 299.324C1603.91 297.959 1602.82 296.854 1601.47 296.854C1600.12 296.854 1599.03 297.959 1599.03 299.324C1599.03 300.689 1600.12 301.795 1601.47 301.795Z" fill="#9EA9E8"/>
<path d="M1402.49 293.258C1403.53 293.258 1404.37 292.406 1404.37 291.355C1404.37 290.304 1403.53 289.451 1402.49 289.451C1401.45 289.451 1400.61 290.304 1400.61 291.355C1400.61 292.406 1401.45 293.258 1402.49 293.258Z" fill="#9EA9E8"/>
<path d="M1372.99 222.078C1373.77 222.078 1374.4 221.439 1374.4 220.65C1374.4 219.862 1373.77 219.223 1372.99 219.223C1372.21 219.223 1371.58 219.862 1371.58 220.65C1371.58 221.439 1372.21 222.078 1372.99 222.078Z" fill="#9EA9E8"/>
<path d="M1497.73 209.008C1498.99 209.008 1500.01 207.97 1500.01 206.69C1500.01 205.409 1498.99 204.371 1497.73 204.371C1496.47 204.371 1495.44 205.409 1495.44 206.69C1495.44 207.97 1496.47 209.008 1497.73 209.008Z" fill="#9EA9E8"/>
<path d="M1652.86 193.256C1654.22 193.256 1655.33 192.136 1655.33 190.755C1655.33 189.374 1654.22 188.254 1652.86 188.254C1651.5 188.254 1650.39 189.374 1650.39 190.755C1650.39 192.136 1651.5 193.256 1652.86 193.256Z" fill="#9EA9E8"/>
<path d="M1726.86 261.52C1727.85 261.52 1728.66 260.704 1728.66 259.698C1728.66 258.691 1727.85 257.875 1726.86 257.875C1725.87 257.875 1725.06 258.691 1725.06 259.698C1725.06 260.704 1725.87 261.52 1726.86 261.52Z" fill="#9EA9E8"/>
<path d="M1758.72 174.871C1759.38 174.871 1759.91 174.331 1759.91 173.666C1759.91 173 1759.38 172.461 1758.72 172.461C1758.06 172.461 1757.53 173 1757.53 173.666C1757.53 174.331 1758.06 174.871 1758.72 174.871Z" fill="#9EA9E8"/>
<path d="M1496.58 312.615C1497.21 312.615 1497.72 312.099 1497.72 311.461C1497.72 310.823 1497.21 310.307 1496.58 310.307C1495.95 310.307 1495.44 310.823 1495.44 311.461C1495.44 312.099 1495.95 312.615 1496.58 312.615Z" fill="#9EA9E8"/>
<path d="M1282.43 282.811C1282.88 282.811 1283.25 282.439 1283.25 281.981C1283.25 281.522 1282.88 281.15 1282.43 281.15C1281.98 281.15 1281.61 281.522 1281.61 281.981C1281.61 282.439 1281.98 282.811 1282.43 282.811Z" fill="#9EA9E8"/>
<g opacity="0.7">
<path opacity="0.7" d="M199.557 474.036L199.757 472.821C196.959 472.335 194.511 470.786 192.872 468.448C191.233 466.109 190.594 463.254 191.073 460.419L189.874 460.217C189.344 463.375 190.054 466.554 191.883 469.166C193.711 471.768 196.439 473.499 199.557 474.036Z" fill="#38237C"/>
<path opacity="0.7" d="M200.064 471.008L200.263 469.793C198.265 469.449 196.516 468.335 195.347 466.665C194.178 464.995 193.718 462.96 194.058 460.935L192.859 460.732C192.469 463.081 192.999 465.44 194.358 467.384C195.717 469.317 197.745 470.603 200.064 471.008Z" fill="#38237C"/>
<path opacity="0.7" d="M200.574 467.973L200.774 466.758C199.575 466.556 198.526 465.887 197.826 464.885C197.126 463.883 196.847 462.668 197.056 461.452L195.857 461.25C195.597 462.789 195.947 464.338 196.837 465.604C197.726 466.869 199.055 467.72 200.574 467.973Z" fill="#38237C"/>
<path opacity="0.7" d="M202.767 463.973C203.316 463.578 203.626 462.961 203.656 462.323L215.837 464.236C216.526 464.358 217.136 464.277 217.645 463.912C220.893 461.574 221.572 456.694 219.544 452.28L220.913 451.298C222.542 452.978 224.36 453.96 225.529 453.12L228.287 451.136L230.036 453.626L227.228 455.641C226.519 456.147 226.359 457.139 226.858 457.858L237.17 472.578C237.67 473.297 238.649 473.459 239.359 472.953L246.713 467.668C247.423 467.162 247.583 466.17 247.083 465.451L236.771 450.731C236.271 450.012 235.292 449.85 234.582 450.356L231.775 452.371L230.026 449.88L233.393 447.461C234.093 446.955 234.253 446.023 234.063 444.889C234.832 444.9 235.752 444.819 236.041 444.606C237.54 443.533 237.24 440.597 235.362 437.914C233.483 435.231 230.845 433.976 229.356 435.049C229.057 435.262 228.677 436.112 228.437 436.851C227.458 436.294 226.519 436.142 225.829 436.638L222.462 439.058L220.603 436.406L223.411 434.391C224.12 433.885 224.28 432.893 223.781 432.174L213.468 417.454C212.969 416.735 211.99 416.573 211.28 417.079L203.926 422.364C203.216 422.87 203.056 423.862 203.556 424.581L213.868 439.301C214.368 440.02 215.347 440.182 216.057 439.676L218.864 437.661L220.723 440.313L217.965 442.298C216.796 443.138 217.116 445.203 218.135 447.319L216.766 448.301C213.329 444.9 208.552 443.938 205.295 446.266C204.795 446.631 204.505 447.188 204.395 447.886L202.157 460.166C201.558 459.984 200.878 460.075 200.328 460.47C199.379 461.158 199.149 462.495 199.829 463.457C200.488 464.428 201.807 464.661 202.767 463.973ZM204.086 461.148L208.392 458.05C209.641 459.751 211.09 461.331 212.519 462.475L204.086 461.148ZM207.693 457.048L203.386 460.146L204.935 451.652C205.525 453.383 206.514 455.297 207.693 457.048Z" fill="#38237C"/>
</g>
<path d="M1478.26 401.316L1478.11 402.784C1481.49 403.129 1484.53 404.779 1486.67 407.441C1488.82 410.104 1489.81 413.445 1489.47 416.877L1490.92 417.029C1491.3 413.212 1490.19 409.476 1487.8 406.52C1485.41 403.544 1482.03 401.701 1478.26 401.316Z" fill="#38237C"/>
<path d="M1477.9 404.98L1477.75 406.448C1480.17 406.691 1482.34 407.876 1483.87 409.769C1485.39 411.662 1486.1 414.062 1485.86 416.501L1487.31 416.653C1487.59 413.819 1486.77 411.045 1484.99 408.838C1483.22 406.631 1480.7 405.264 1477.9 404.98Z" fill="#38237C"/>
<path d="M1477.53 408.635L1477.38 410.103C1478.83 410.255 1480.13 410.953 1481.05 412.097C1481.97 413.231 1482.39 414.669 1482.25 416.137L1483.7 416.288C1483.88 414.436 1483.35 412.613 1482.18 411.176C1481.02 409.728 1479.37 408.827 1477.53 408.635Z" fill="#38237C"/>
<path d="M1475.25 413.597C1474.63 414.103 1474.32 414.852 1474.32 415.591L1459.98 413.941C1459.89 413.931 1459.81 413.921 1459.72 413.921C1459.06 413.901 1458.43 414.184 1457.98 414.68C1454.54 418.558 1453.94 424.257 1456.21 428.894L1452.32 432.114L1450.32 429.633C1449.69 428.854 1448.55 428.732 1447.78 429.37L1443.12 433.227L1440.39 429.846L1443.58 427.203C1444.38 426.535 1444.5 425.341 1443.85 424.531L1430.36 407.816C1429.7 407.006 1428.52 406.885 1427.72 407.543L1419.37 414.457C1418.57 415.126 1418.45 416.32 1419.1 417.13L1432.59 433.845C1433.25 434.655 1434.43 434.776 1435.23 434.118L1438.41 431.476L1441.14 434.857L1436.84 438.411C1436.08 439.048 1435.96 440.213 1436.58 440.992L1436.87 441.347L1433.55 442.349C1433.04 442.501 1432.64 442.895 1432.49 443.412C1432.33 443.928 1432.44 444.485 1432.78 444.9L1439.96 453.809C1440.3 454.224 1440.81 454.447 1441.34 454.386C1441.66 454.356 1441.95 454.234 1442.19 454.032C1442.35 453.9 1442.49 453.738 1442.59 453.546L1444.22 450.438L1444.37 450.62C1445 451.4 1446.15 451.521 1446.92 450.883L1451.21 447.33L1453.97 450.752L1450.78 453.394C1449.98 454.062 1449.86 455.257 1450.51 456.067L1464 472.781C1464.66 473.591 1465.84 473.713 1466.64 473.054L1475 466.14C1475.79 465.472 1475.91 464.277 1475.27 463.467L1461.78 446.753C1461.12 445.943 1459.94 445.821 1459.14 446.479L1455.95 449.122L1453.19 445.7L1457.85 441.843C1458.62 441.205 1458.74 440.041 1458.11 439.261L1455.98 436.629L1459.87 433.409C1463.9 436.588 1469.54 437.125 1473.97 434.493C1474.07 434.432 1474.17 434.361 1474.26 434.29C1474.68 433.946 1474.96 433.46 1475.06 432.923C1475.08 432.832 1475.08 432.751 1475.09 432.66L1476.34 418.092C1477.06 418.244 1477.84 418.082 1478.46 417.566C1479.54 416.675 1479.7 415.055 1478.82 413.961C1477.94 412.868 1476.32 412.706 1475.25 413.597ZM1462.15 415.672L1473.94 417.039L1467.52 422.354L1462.15 415.672ZM1468.45 423.488L1474.87 418.173L1473.84 430.16L1468.45 423.488Z" fill="#38237C"/>
<path opacity="0.6" d="M899.633 709.28C1092.81 709.28 1249.41 550.62 1249.41 354.903C1249.41 159.187 1092.81 0.527344 899.633 0.527344C706.459 0.527344 549.859 159.187 549.859 354.903C549.859 550.62 706.459 709.28 899.633 709.28Z" fill="url(#paint2_linear_2665_24508)"/>
<path opacity="0.6" d="M780.342 93.8987C796.41 108.133 788.576 143.83 762.845 173.644C737.115 203.459 703.241 216.084 687.173 201.85C671.105 187.615 678.939 151.919 704.67 122.104C730.4 92.289 764.274 79.6646 780.342 93.8987Z" fill="url(#paint3_linear_2665_24508)"/>
<path opacity="0.6" d="M651.839 209.108C656.815 212.014 657.605 220.052 653.608 227.058C649.611 234.064 642.346 237.384 637.38 234.479C632.404 231.573 631.614 223.535 635.611 216.529C639.598 209.523 646.873 206.203 651.839 209.108Z" fill="url(#paint4_linear_2665_24508)"/>
<path opacity="0.6" d="M831.615 142.464C835.652 144.833 836.051 151.799 832.504 158.035C828.957 164.271 822.791 167.41 818.755 165.041C814.718 162.672 814.318 155.706 817.865 149.47C821.413 143.244 827.568 140.106 831.615 142.464Z" fill="url(#paint5_linear_2665_24508)"/>
<path opacity="0.6" d="M753.476 269.609C749.17 283.985 736.859 292.924 725.967 289.583C715.076 286.243 709.74 271.867 714.046 257.491C718.353 243.115 730.664 234.175 741.556 237.516C752.447 240.857 757.783 255.223 753.476 269.609Z" fill="url(#paint6_linear_2665_24508)"/>
<path opacity="0.6" d="M846.342 89.2017C834.82 94.4763 822.47 91.9757 818.743 83.6134C815.015 75.2612 821.331 64.2059 832.852 58.9314C844.373 53.6568 856.724 56.1574 860.451 64.5198C864.178 72.8821 857.853 83.9272 846.342 89.2017Z" fill="url(#paint7_linear_2665_24508)"/>
<path opacity="0.6" d="M1248.97 372.935C1246.76 417.632 1236.36 460.132 1219.29 498.957C1197.5 526.96 1046.68 486.566 875.863 406.283C707.621 327.216 581.068 238.156 584.005 202.105C602.901 162.116 628.971 126.277 660.537 96.3005C476.547 39.0703 339.901 29.1084 316.499 80.2238C293.117 131.289 388.684 230.422 550.391 335.679C631.289 388.344 728.745 442.537 836.154 493.015C943.742 543.583 1047.69 584.008 1139.74 612.588C1323.26 669.555 1459.47 679.395 1482.83 628.371C1506.2 577.316 1410.65 478.193 1248.97 372.935Z" fill="url(#paint8_linear_2665_24508)"/>
<defs>
<linearGradient id="paint0_linear_2665_24508" x1="78.3556" y1="314.887" x2="134.519" y2="387.713" gradientUnits="userSpaceOnUse">
<stop stop-color="#77A4F2" stop-opacity="0.5"/>
<stop offset="1" stop-color="#77A4F2" stop-opacity="0"/>
</linearGradient>
<linearGradient id="paint1_linear_2665_24508" x1="1677.1" y1="288.21" x2="1695.83" y2="312.499" gradientUnits="userSpaceOnUse">
<stop stop-color="#77A4F2" stop-opacity="0.5"/>
<stop offset="1" stop-color="#77A4F2" stop-opacity="0"/>
</linearGradient>
<linearGradient id="paint2_linear_2665_24508" x1="693.178" y1="59.0018" x2="986.264" y2="468.232" gradientUnits="userSpaceOnUse">
<stop stop-color="#77A4F2" stop-opacity="0.3"/>
<stop offset="1" stop-color="#77A4F2" stop-opacity="0"/>
</linearGradient>
<linearGradient id="paint3_linear_2665_24508" x1="703.213" y1="141.143" x2="777.321" y2="156.758" gradientUnits="userSpaceOnUse">
<stop stop-color="#38237C" stop-opacity="0.3"/>
<stop offset="1" stop-color="#38237C" stop-opacity="0"/>
</linearGradient>
<linearGradient id="paint4_linear_2665_24508" x1="636.007" y1="220.445" x2="654.698" y2="218.424" gradientUnits="userSpaceOnUse">
<stop stop-color="#38237C" stop-opacity="0.3"/>
<stop offset="1" stop-color="#38237C" stop-opacity="0"/>
</linearGradient>
<linearGradient id="paint5_linear_2665_24508" x1="817.561" y1="155.086" x2="833.269" y2="154.047" gradientUnits="userSpaceOnUse">
<stop stop-color="#38237C" stop-opacity="0.3"/>
<stop offset="1" stop-color="#38237C" stop-opacity="0"/>
</linearGradient>
<linearGradient id="paint6_linear_2665_24508" x1="714.046" y1="257.625" x2="753.56" y2="269.452" gradientUnits="userSpaceOnUse">
<stop stop-color="#38237C" stop-opacity="0.3"/>
<stop offset="1" stop-color="#38237C" stop-opacity="0"/>
</linearGradient>
<linearGradient id="paint7_linear_2665_24508" x1="832.65" y1="58.4515" x2="846.438" y2="88.5795" gradientUnits="userSpaceOnUse">
<stop stop-color="#38237C" stop-opacity="0.3"/>
<stop offset="1" stop-color="#38237C" stop-opacity="0"/>
</linearGradient>
<linearGradient id="paint8_linear_2665_24508" x1="590.428" y1="534.335" x2="899.32" y2="359.132" gradientUnits="userSpaceOnUse">
<stop stop-color="#77A4F2" stop-opacity="0.3"/>
<stop offset="1" stop-color="#77A4F2" stop-opacity="0"/>
</linearGradient>
</defs>
</svg>
