<svg width="119" height="114" viewBox="0 0 119 114" fill="none" xmlns="http://www.w3.org/2000/svg">
<g clip-path="url(#clip0_2599_7068)">
<path d="M59.2599 112.44C89.144 112.44 113.37 88.2141 113.37 58.33C113.37 28.4459 89.144 4.22 59.2599 4.22C29.3758 4.22 5.1499 28.4459 5.1499 58.33C5.1499 88.2141 29.3758 112.44 59.2599 112.44Z" fill="#8D86EB"/>
<path d="M10.4401 98.32H8.99008C7.45008 98.32 6.19008 97.07 6.19008 95.52V91.73C6.16008 91.36 5.84008 91.09 5.47008 91.12C5.15008 91.15 4.89008 91.4 4.86008 91.73V95.52C4.86008 97.06 3.61008 98.32 2.06008 98.32H0.610078C0.240078 98.35 -0.0299216 98.67 7.83808e-05 99.04C0.0300784 99.36 0.280078 99.62 0.610078 99.65H2.07008C3.61008 99.65 4.87008 100.9 4.87008 102.45V106.24C4.90008 106.61 5.22008 106.88 5.59008 106.85C5.91008 106.82 6.17008 106.57 6.20008 106.24V102.45C6.20008 100.91 7.45008 99.65 9.00008 99.65H10.4501C10.8201 99.68 11.1401 99.41 11.1701 99.04C11.2001 98.67 10.9301 98.35 10.5601 98.32C10.5201 98.32 10.4901 98.32 10.4501 98.32H10.4401Z" fill="#8D86EB"/>
<path d="M117.66 21.8H116.21C114.67 21.8 113.41 20.55 113.41 19V15.21C113.38 14.84 113.06 14.57 112.69 14.6C112.37 14.63 112.11 14.88 112.08 15.21V19C112.08 20.54 110.83 21.8 109.28 21.8H107.82C107.45 21.83 107.18 22.15 107.21 22.52C107.24 22.84 107.49 23.1 107.82 23.13H109.28C110.82 23.13 112.08 24.38 112.08 25.93V29.72C112.11 30.09 112.43 30.36 112.8 30.33C113.12 30.3 113.38 30.05 113.41 29.72V25.93C113.41 24.39 114.66 23.13 116.21 23.13H117.66C118.03 23.16 118.35 22.89 118.38 22.52C118.41 22.15 118.14 21.83 117.77 21.8C117.73 21.8 117.7 21.8 117.66 21.8Z" fill="#8D86EB"/>
<path d="M68.0199 73.61C72.9076 73.61 76.8699 69.6477 76.8699 64.76C76.8699 59.8723 72.9076 55.91 68.0199 55.91C63.1322 55.91 59.1699 59.8723 59.1699 64.76C59.1699 69.6477 63.1322 73.61 68.0199 73.61Z" fill="#503EAA"/>
<path d="M15.8399 66.01C26.4799 76.66 50.8999 73 68.2199 55.69C85.5399 38.37 89.2099 13.95 78.5699 3.31C73.6799 -1.59 55.6699 8.48 38.3599 25.79C21.0499 43.11 10.9499 61.14 15.8399 66.01Z" fill="#C0DBFF"/>
<path d="M56.209 44.0152C73.6204 27.0003 83.7049 9.08273 78.7332 3.99517C73.7615 -1.09239 55.6164 8.57662 38.2049 25.5915C20.7935 42.6064 10.7091 60.5239 15.6807 65.6115C20.6524 70.6991 38.7975 61.0301 56.209 44.0152Z" fill="#77A4F2"/>
<path d="M67.6599 53.82C76.9699 43.25 76.7199 29.88 75.0899 22.06L82.1599 7.85001C82.1599 7.85001 91.2499 33.38 67.6499 53.82H67.6599Z" fill="white"/>
<path d="M66.5599 54.92C55.9999 64.23 42.6299 64.02 34.8099 62.38L20.5999 69.46C20.5999 69.46 46.1399 78.51 66.5499 54.91L66.5599 54.92Z" fill="#77A4F2"/>
<path d="M57.9516 45.2308C69.1557 34.0345 74.9947 21.712 70.9932 17.7077C66.9917 13.7034 54.6651 19.5337 43.461 30.7301C32.2568 41.9264 26.4179 54.2489 30.4194 58.2532C34.4209 62.2575 46.7475 56.4271 57.9516 45.2308Z" fill="#503EAA"/>
<path d="M32.5498 74.08C25.0798 74.08 18.6798 71.8 14.3698 67.49C13.1498 66.27 12.5298 64.57 12.5298 62.45C12.5298 54.23 22.3198 38.9 36.8998 24.32C45.3998 15.81 54.3598 8.74001 62.1198 4.4C70.7298 -0.409995 76.9298 -1.3 80.0598 1.84C85.7298 7.51 87.8698 16.82 85.9398 27.38C83.9898 38.08 78.2198 48.66 69.6998 57.17C61.1798 65.69 50.5998 71.45 39.8998 73.4C37.3698 73.86 34.9098 74.09 32.5498 74.09V74.08ZM74.9598 4.15C72.8298 4.15 69.2898 5.16 64.1398 8.04C56.7098 12.2 48.0798 19.02 39.8298 27.26C32.9598 34.13 27.0898 41.24 22.8398 47.84C18.9198 53.92 16.6798 59.24 16.6798 62.44C16.6798 63.42 16.8898 64.13 17.2998 64.53C21.9798 69.22 29.9398 70.95 39.1298 69.28C48.9998 67.48 58.7998 62.13 66.7298 54.21C74.6598 46.29 80.0098 36.49 81.8098 26.62C83.4898 17.43 81.7598 9.47001 77.0798 4.78C76.6898 4.39001 75.9898 4.15 74.9398 4.15H74.9598Z" fill="#503EAA"/>
<path d="M51.7699 48.15L27.6499 19.03L31.5099 15.16L60.7799 39.14L51.7699 48.15Z" fill="#C0DBFF"/>
<path d="M51.7699 48.15L27.6499 19.03L29.5699 17.1L56.1899 43.72L51.7699 48.15Z" fill="#77A4F2"/>
<path d="M19.79 69.47C17.5 69.47 15.68 68.8 14.37 67.49C13.56 66.67 13.56 65.35 14.37 64.54C15.19 63.73 16.51 63.73 17.32 64.54C17.82 65.04 18.65 65.29 19.79 65.29C23.16 65.29 28.42 63.14 34.58 59.24C41.17 55.07 48.2399 49.28 55.0299 42.49C63.27 34.25 70.05 25.58 74.12 18.07C76.76 13.21 79.1199 6.79999 77.0899 4.76999C76.2799 3.94999 76.2799 2.62999 77.0899 1.81999C77.91 1.00999 79.23 1.00999 80.04 1.81999C83.28 5.05999 82.5 11.37 77.79 20.06C73.53 27.91 66.49 36.93 57.9799 45.44C43.61 59.81 28.27 69.46 19.79 69.46V69.47Z" fill="#503EAA"/>
<path d="M51.7699 50.24C51.7699 50.24 51.7099 50.24 51.6699 50.24C51.0799 50.21 50.5399 49.94 50.1599 49.49L26.0399 20.36C25.3499 19.53 25.4099 18.32 26.1699 17.56L30.0299 13.69C30.7899 12.93 31.9999 12.87 32.8299 13.55L62.0999 37.52C62.5599 37.89 62.8299 38.44 62.8599 39.03C62.8899 39.62 62.6699 40.19 62.2499 40.61L53.2399 49.62C52.8499 50.01 52.3199 50.23 51.7699 50.23V50.24ZM30.4699 19.16L51.9199 45.05L57.6799 39.28L31.6499 17.97L30.4599 19.16H30.4699Z" fill="#503EAA"/>
<path d="M25.89 20.81C29.9659 20.81 33.27 17.5058 33.27 13.43C33.27 9.35413 29.9659 6.04999 25.89 6.04999C21.8141 6.04999 18.51 9.35413 18.51 13.43C18.51 17.5058 21.8141 20.81 25.89 20.81Z" fill="#503EAA"/>
<path d="M87.9199 107H48.1199L57.7499 74.84C59.1099 70.3 63.2799 67.19 68.0199 67.19C72.7599 67.19 76.9299 70.3 78.2899 74.84L87.9199 107Z" fill="#C0DBFF"/>
<path d="M74.7999 71.29C74.7999 71.29 68.0899 69.88 66.2099 75.28C64.3299 80.68 59.0199 100.83 59.0199 100.83H49.6699L57.7499 74.85C57.7499 74.85 59.6099 68.39 64.0399 67.73C68.4699 67.07 72.2199 66.36 74.7999 71.29Z" fill="#77A4F2"/>
<path d="M90.7198 109.09H45.3198L55.7498 74.25C57.3898 68.79 62.3198 65.12 68.0198 65.12C73.7198 65.12 78.6498 68.79 80.2898 74.25L90.7198 109.09ZM50.9198 104.92H85.1198L76.2898 75.45C75.1898 71.77 71.8598 69.29 68.0198 69.29C64.1798 69.29 60.8498 71.77 59.7498 75.45L50.9198 104.92Z" fill="#503EAA"/>
<path d="M97.7199 101.78H37.8799V109.24H97.7199V101.78Z" fill="#C0DBFF"/>
<path d="M55.0799 100.83H37.1199V110.12H55.0799V100.83Z" fill="#77A4F2"/>
<path d="M98.92 100.83H88.28V110.12H98.92V100.83Z" fill="white"/>
<path d="M97.71 101.78V109.24H37.88V101.78H97.72H97.71ZM97.72 97.61H37.88C35.58 97.61 33.71 99.48 33.71 101.78V109.24C33.71 111.54 35.58 113.41 37.88 113.41H97.72C100.02 113.41 101.89 111.54 101.89 109.24V101.78C101.89 99.48 100.02 97.61 97.72 97.61Z" fill="#503EAA"/>
<path d="M71.3299 93.91C72.926 93.91 74.2199 92.6161 74.2199 91.02C74.2199 89.4239 72.926 88.13 71.3299 88.13C69.7338 88.13 68.4399 89.4239 68.4399 91.02C68.4399 92.6161 69.7338 93.91 71.3299 93.91Z" fill="#8D86EB"/>
<path d="M71.3299 85.22C72.926 85.22 74.2199 83.9261 74.2199 82.33C74.2199 80.7339 72.926 79.44 71.3299 79.44C69.7338 79.44 68.4399 80.7339 68.4399 82.33C68.4399 83.9261 69.7338 85.22 71.3299 85.22Z" fill="#FF8486"/>
</g>
<defs>
<clipPath id="clip0_2599_7068">
<rect width="118.38" height="113.41" fill="white"/>
</clipPath>
</defs>
</svg>
