<svg width="142" height="109" viewBox="0 0 142 109" fill="none" xmlns="http://www.w3.org/2000/svg">
<g clip-path="url(#clip0_2599_7148)">
<path d="M71.6098 108.16C101.477 108.16 125.69 83.9476 125.69 54.08C125.69 24.2124 101.477 0 71.6098 0C41.7422 0 17.5298 24.2124 17.5298 54.08C17.5298 83.9476 41.7422 108.16 71.6098 108.16Z" fill="#86D4C9"/>
<path d="M10.4398 47.97H8.98983C7.44983 47.97 6.18983 46.72 6.18983 45.17V41.38C6.15983 41.01 5.83983 40.74 5.46983 40.77C5.14983 40.8 4.88983 41.05 4.85983 41.38V45.17C4.85983 46.71 3.60983 47.97 2.05983 47.97H0.609834C0.239834 48 -0.0301658 48.32 -0.00016576 48.69C0.0298342 49.01 0.279834 49.27 0.609834 49.3H2.06983C3.60983 49.3 4.86983 50.55 4.86983 52.1V55.89C4.89983 56.26 5.21983 56.53 5.58983 56.5C5.90983 56.47 6.16983 56.22 6.19983 55.89V52.1C6.19983 50.56 7.44983 49.3 8.99983 49.3H10.4498C10.8198 49.33 11.1398 49.06 11.1698 48.69C11.1998 48.32 10.9298 48 10.5598 47.97C10.5198 47.97 10.4898 47.97 10.4498 47.97H10.4398Z" fill="#86D4C9"/>
<path d="M134.2 22.01H132.75C131.21 22.01 129.95 20.76 129.95 19.21V15.42C129.92 15.05 129.6 14.78 129.23 14.81C128.91 14.84 128.65 15.09 128.62 15.42V19.21C128.62 20.75 127.37 22.01 125.82 22.01H124.36C123.99 22.04 123.72 22.36 123.75 22.73C123.78 23.05 124.03 23.31 124.36 23.34H125.82C127.36 23.34 128.62 24.59 128.62 26.14V29.93C128.65 30.3 128.97 30.57 129.34 30.54C129.66 30.51 129.92 30.26 129.95 29.93V26.14C129.95 24.6 131.2 23.34 132.75 23.34H134.2C134.57 23.37 134.89 23.1 134.92 22.73C134.95 22.36 134.68 22.04 134.31 22.01C134.27 22.01 134.24 22.01 134.2 22.01Z" fill="#86D4C9"/>
<path d="M130.98 97.4V89.26C130.98 89.26 134.12 82.13 133.28 81.91L112.92 74.84H114.22C116.76 74.84 118.83 72.77 118.83 70.23V69.82C118.83 67.28 116.76 65.21 114.22 65.21H103.73C103.35 57.46 100.05 50.22 94.3501 44.7C88.6801 39.21 81.2601 36.03 73.3101 35.64V32.62C74.6201 32 75.5301 30.67 75.5301 29.13C75.5301 27 73.8001 25.27 71.6701 25.27C69.5401 25.27 67.8101 27 67.8101 29.13C67.8101 30.68 68.7201 32.01 70.0301 32.62V35.64C62.0801 36.02 54.6601 39.21 48.9901 44.7C43.2901 50.22 39.9901 57.46 39.6101 65.21H29.1601C26.6201 65.21 24.5501 67.28 24.5501 69.82V70.23C24.5501 72.77 26.6201 74.84 29.1601 74.84H30.4101L13.2001 80.42C12.3601 80.64 11.8401 81.48 12.0101 82.33L10.1101 84.85C12.2901 82.07 10.7401 87.74 11.1101 87.98C11.3701 88.15 12.5901 87.98 12.8901 87.98C13.0201 87.98 13.7201 87.24 13.8501 87.21L13.9701 90.21L12.3401 97.41H2.31006V108.75H141.02V97.41H130.98V97.4Z" fill="#C0DBFF"/>
<path d="M51.29 74.34H33.04V99.04H51.29V74.34Z" fill="#77A4F2"/>
<path d="M110.27 89.6L129.34 94.55V87.44L110.27 82.49V89.6Z" fill="#77A4F2"/>
<path d="M75.52 37.23C75.52 37.23 93.95 41.34 93.95 67.81L102.12 66.63C102.12 66.63 100.41 41.28 75.52 37.22V37.23Z" fill="white"/>
<path d="M68.8202 37.23C68.8202 37.23 50.3902 41.34 50.3902 67.81L42.2202 66.63C42.2202 66.63 43.9302 41.28 68.8202 37.22V37.23Z" fill="#77A4F2"/>
<path d="M116.08 67.81H94.1401V71.57H116.08V67.81Z" fill="white"/>
<path d="M50.4899 68.14H26.6099V71.9H50.4899V68.14Z" fill="#77A4F2"/>
<path d="M103.76 68.36H39.5601V66.73C39.5601 58.4 42.9101 50.58 48.9801 44.7C55.0401 38.83 63.0901 35.6 71.6601 35.6C80.2301 35.6 88.2801 38.83 94.3401 44.7C100.42 50.58 103.76 58.41 103.76 66.73V68.36ZM42.8801 65.09H100.44C100.03 58.27 97.1001 51.91 92.0601 47.04C86.6101 41.77 79.3701 38.86 71.6501 38.86C63.9301 38.86 56.6901 41.76 51.2501 47.04C46.2201 51.91 43.2801 58.27 42.8701 65.09H42.8801Z" fill="#503EAA"/>
<path d="M89.2001 66.73H85.9301C85.9301 59.23 84.3001 51.91 81.4701 46.65C78.8001 41.71 75.2301 38.87 71.6601 38.87C68.0901 38.87 64.5201 41.71 61.8501 46.65C59.0101 51.91 57.3901 59.23 57.3901 66.73H54.1201C54.1201 58.59 55.8401 50.9 58.9801 45.1C62.2801 38.97 66.7901 35.6 71.6701 35.6C76.5501 35.6 81.0501 38.97 84.3601 45.1C87.4901 50.91 89.2201 58.59 89.2201 66.73H89.2001Z" fill="#503EAA"/>
<path d="M73.3003 30.54H70.0303V66.72H73.3003V30.54Z" fill="#503EAA"/>
<path d="M111.91 100.67H31.4102V71.84H111.91V100.67ZM34.6802 97.4H108.64V75.11H34.6802V97.4Z" fill="#503EAA"/>
<path d="M110.27 74.34H33.0503V84.4H110.27V74.34Z" fill="#77A4F2"/>
<path d="M103.76 100.67H39.5601V71.84H103.76V100.67ZM42.8301 97.4H100.49V75.11H42.8301V97.4Z" fill="#503EAA"/>
<path d="M139.39 99.04H119.81V107.11H139.39V99.04Z" fill="white"/>
<path d="M39.6899 99.04H4.10986V107.11H39.6899V99.04Z" fill="#77A4F2"/>
<path d="M79.5503 97.76V82.62C79.5503 82.01 79.7903 81.43 80.2303 81C80.6703 80.57 81.2503 80.33 81.8703 80.33C82.4903 80.33 83.0703 80.57 83.5103 81C83.9503 81.43 84.1903 82.01 84.1903 82.63V97.77H79.5503V97.76Z" fill="#503EAA"/>
<path d="M81.8701 80.74C82.3801 80.74 82.8601 80.94 83.2201 81.29C83.5801 81.64 83.7801 82.12 83.7801 82.62V97.35H79.9501V82.62C79.9501 82.12 80.1501 81.64 80.5101 81.29C80.8701 80.94 81.3501 80.74 81.8601 80.74H81.8701ZM81.8601 79.92C81.1301 79.92 80.4501 80.2 79.9401 80.71C79.4201 81.22 79.1401 81.9 79.1401 82.62V98.17H84.6001V82.62C84.6001 81.89 84.3101 81.21 83.8001 80.7C83.2801 80.19 82.6001 79.91 81.8701 79.91L81.8601 79.92Z" fill="#503EAA"/>
<path d="M89.75 97.76V82.62C89.75 82.01 89.99 81.43 90.43 81C90.87 80.57 91.45 80.33 92.07 80.33C92.69 80.33 93.27 80.57 93.71 81C94.14 81.43 94.39 82.02 94.39 82.63V97.77H89.75V97.76Z" fill="#503EAA"/>
<path d="M92.0698 80.74C92.5798 80.74 93.0598 80.94 93.4198 81.29C93.7798 81.64 93.9798 82.12 93.9798 82.62V97.35H90.1498V82.62C90.1498 82.12 90.3498 81.64 90.7098 81.29C91.0698 80.94 91.5598 80.74 92.0598 80.74H92.0698ZM92.0598 79.92C91.3298 79.92 90.6498 80.2 90.1298 80.71C89.6198 81.21 89.3298 81.91 89.3198 82.62V98.17H94.7798V82.62C94.7798 81.91 94.4898 81.21 93.9798 80.7C93.4598 80.19 92.7798 79.91 92.0498 79.91L92.0598 79.92Z" fill="#503EAA"/>
<path d="M59.1602 97.76V82.62C59.1602 82.01 59.4002 81.43 59.8402 81C60.2802 80.57 60.8602 80.33 61.4802 80.33C62.1002 80.33 62.6802 80.57 63.1202 81C63.5602 81.43 63.8002 82.01 63.8002 82.63V97.77H59.1602V97.76Z" fill="#503EAA"/>
<path d="M61.48 80.74C61.99 80.74 62.47 80.94 62.83 81.29C63.19 81.64 63.39 82.12 63.39 82.62V97.35H59.56V82.62C59.56 82.12 59.76 81.64 60.12 81.29C60.48 80.94 60.96 80.74 61.47 80.74H61.48ZM61.47 79.92C60.74 79.92 60.06 80.2 59.55 80.71C59.03 81.22 58.75 81.9 58.75 82.62V98.17H64.21V82.62C64.21 81.89 63.92 81.21 63.41 80.7C62.89 80.19 62.21 79.91 61.48 79.91L61.47 79.92Z" fill="#503EAA"/>
<path d="M69.3604 97.76V82.62C69.3604 82.01 69.6004 81.43 70.0404 81C70.4804 80.57 71.0604 80.33 71.6804 80.33C72.3004 80.33 72.8804 80.57 73.3204 81C73.7504 81.43 74.0004 82.02 74.0004 82.63V97.77H69.3604V97.76Z" fill="#503EAA"/>
<path d="M71.6802 80.74C72.1902 80.74 72.6702 80.94 73.0302 81.29C73.3902 81.64 73.5902 82.12 73.5902 82.62V97.35H69.7602V82.62C69.7602 82.12 69.9602 81.64 70.3202 81.29C70.6802 80.94 71.1702 80.74 71.6702 80.74H71.6802ZM71.6702 79.92C70.9402 79.92 70.2602 80.2 69.7402 80.71C69.2302 81.21 68.9402 81.91 68.9302 82.62V98.17H74.3902V82.62C74.3902 81.91 74.1002 81.21 73.5902 80.7C73.0702 80.19 72.3902 79.91 71.6602 79.91L71.6702 79.92Z" fill="#503EAA"/>
<path d="M48.9702 97.76V82.62C48.9702 82.01 49.2102 81.43 49.6502 81C50.0902 80.57 50.6702 80.33 51.2902 80.33C51.9102 80.33 52.4902 80.57 52.9302 81C53.3702 81.43 53.6102 82.01 53.6102 82.63V97.77H48.9702V97.76Z" fill="#503EAA"/>
<path d="M51.2901 80.74C51.8001 80.74 52.2801 80.94 52.6401 81.29C53.0001 81.64 53.2001 82.12 53.2001 82.62V97.35H49.3701V82.62C49.3701 82.12 49.5701 81.64 49.9301 81.29C50.2901 80.94 50.7701 80.74 51.2801 80.74H51.2901ZM51.2801 79.92C50.5501 79.92 49.8701 80.2 49.3601 80.71C48.8401 81.22 48.5601 81.9 48.5601 82.62V98.17H54.0201V82.62C54.0201 81.89 53.7301 81.21 53.2201 80.7C52.7001 80.19 52.0201 79.91 51.2901 79.91L51.2801 79.92Z" fill="#503EAA"/>
<path d="M114.21 68.47C114.95 68.47 115.55 69.07 115.55 69.81V70.22C115.55 70.96 114.95 71.56 114.21 71.56H29.15C28.41 71.56 27.81 70.96 27.81 70.22V69.81C27.81 69.07 28.41 68.47 29.15 68.47H114.21ZM114.21 65.2H29.15C26.61 65.2 24.54 67.27 24.54 69.81V70.22C24.54 72.76 26.61 74.83 29.15 74.83H114.21C116.75 74.83 118.82 72.76 118.82 70.22V69.81C118.82 67.27 116.75 65.2 114.21 65.2Z" fill="#503EAA"/>
<path d="M141.02 108.74H2.31006V97.4H141.02V108.74ZM5.58006 105.47H137.75V100.67H5.58006V105.47Z" fill="#503EAA"/>
<path d="M33.0402 82.4201L13.8502 87.2001C12.1602 87.6201 10.4602 86.5501 10.1102 84.8401C9.78023 83.2401 10.7602 81.6701 12.3402 81.2501L33.0502 75.8201V82.4001L33.0402 82.4201Z" fill="#77A4F2"/>
<path d="M13.1 88.93C12.23 88.93 11.37 88.68 10.61 88.21C9.52005 87.52 8.77005 86.45 8.51005 85.18C8.00005 82.73 9.50005 80.32 11.92 79.68L32.63 74.25C33.12 74.12 33.64 74.23 34.04 74.54C34.44 74.85 34.68 75.33 34.68 75.83V82.4101C34.68 83.1601 34.17 83.81 33.44 84L14.25 88.78C13.87 88.88 13.48 88.92 13.1 88.92V88.93ZM31.41 77.95L12.75 82.84C12.01 83.03 11.56 83.77 11.71 84.51C11.79 84.9 12.02 85.22 12.35 85.43C12.68 85.64 13.08 85.7 13.46 85.61L31.41 81.14V77.95Z" fill="#503EAA"/>
<path d="M33.04 99.04H13.98V87.44L33.04 82.49V99.04Z" fill="#77A4F2"/>
<path d="M34.6798 100.67H12.3398V86.17L34.6798 80.37V100.67ZM15.6098 97.4H31.4098V84.6L15.6098 88.7V97.4Z" fill="#503EAA"/>
<path d="M110.27 82.42L129.46 87.2C131.15 87.62 132.85 86.55 133.2 84.84C133.53 83.24 132.55 81.67 130.97 81.25L110.26 75.82V82.4L110.27 82.42Z" fill="white"/>
<path d="M130.22 88.93C129.84 88.93 129.45 88.88 129.07 88.79L109.88 84.01C109.15 83.83 108.64 83.17 108.64 82.42V75.84C108.64 75.33 108.87 74.86 109.28 74.55C109.69 74.24 110.2 74.13 110.69 74.26L131.4 79.69C133.82 80.32 135.32 82.74 134.81 85.19C134.55 86.46 133.8 87.53 132.71 88.22C131.95 88.7 131.09 88.94 130.22 88.94V88.93ZM111.91 81.14L129.86 85.61C130.24 85.7 130.64 85.64 130.97 85.43C131.3 85.22 131.53 84.89 131.61 84.51C131.76 83.76 131.31 83.03 130.57 82.84L111.91 77.95V81.14Z" fill="#503EAA"/>
<path d="M130.98 100.67H108.64V80.37L130.98 86.17V100.67ZM111.91 97.4H127.71V88.7L111.91 84.6V97.4Z" fill="#503EAA"/>
<path d="M71.6603 32.99C73.7921 32.99 75.5203 31.2618 75.5203 29.13C75.5203 26.9982 73.7921 25.27 71.6603 25.27C69.5285 25.27 67.8003 26.9982 67.8003 29.13C67.8003 31.2618 69.5285 32.99 71.6603 32.99Z" fill="#503EAA"/>
<path d="M23.9403 94.7C25.4094 94.7 26.6003 93.5091 26.6003 92.04C26.6003 90.5709 25.4094 89.38 23.9403 89.38C22.4712 89.38 21.2803 90.5709 21.2803 92.04C21.2803 93.5091 22.4712 94.7 23.9403 94.7Z" fill="#503EAA"/>
<path d="M119.81 94.7C121.279 94.7 122.47 93.5091 122.47 92.04C122.47 90.5709 121.279 89.38 119.81 89.38C118.341 89.38 117.15 90.5709 117.15 92.04C117.15 93.5091 118.341 94.7 119.81 94.7Z" fill="#503EAA"/>
</g>
<defs>
<clipPath id="clip0_2599_7148">
<rect width="141.02" height="108.74" fill="white"/>
</clipPath>
</defs>
</svg>
