<svg width="140" height="121" viewBox="0 0 140 121" fill="none" xmlns="http://www.w3.org/2000/svg">
<g clip-path="url(#clip0_2599_7099)">
<path d="M138.51 26.39H137.06C135.52 26.39 134.26 25.14 134.26 23.59V19.8C134.23 19.43 133.91 19.16 133.54 19.19C133.22 19.22 132.96 19.47 132.93 19.8V23.59C132.93 25.13 131.68 26.39 130.13 26.39H128.67C128.3 26.42 128.03 26.74 128.06 27.11C128.09 27.43 128.34 27.69 128.67 27.72H130.13C131.67 27.72 132.93 28.97 132.93 30.52V34.31C132.96 34.68 133.28 34.95 133.65 34.92C133.97 34.89 134.23 34.64 134.26 34.31V30.52C134.26 28.98 135.51 27.72 137.06 27.72H138.51C138.88 27.75 139.2 27.48 139.23 27.11C139.26 26.74 138.99 26.42 138.62 26.39C138.58 26.39 138.55 26.39 138.51 26.39Z" fill="#FF8486"/>
<path d="M10.4401 67.27H8.99008C7.45008 67.27 6.19008 66.02 6.19008 64.47V60.68C6.16008 60.31 5.84008 60.04 5.47008 60.07C5.15008 60.1 4.89008 60.35 4.86008 60.68V64.47C4.86008 66.01 3.61008 67.27 2.06008 67.27H0.610078C0.240078 67.3 -0.0299216 67.62 7.83808e-05 67.99C0.0300784 68.31 0.280078 68.57 0.610078 68.6H2.07008C3.61008 68.6 4.87008 69.85 4.87008 71.4V75.19C4.90008 75.56 5.22008 75.83 5.59008 75.8C5.91008 75.77 6.17008 75.52 6.20008 75.19V71.4C6.20008 69.86 7.45008 68.6 9.00008 68.6H10.4501C10.8201 68.63 11.1401 68.36 11.1701 67.99C11.2001 67.62 10.9301 67.3 10.5601 67.27C10.5201 67.27 10.4901 67.27 10.4501 67.27H10.4401Z" fill="#FF8486"/>
<path d="M71.61 108.22C101.494 108.22 125.72 83.9941 125.72 54.11C125.72 24.2259 101.494 0 71.61 0C41.7259 0 17.5 24.2259 17.5 54.11C17.5 83.9941 41.7259 108.22 71.61 108.22Z" fill="#FF8486"/>
<path d="M85.6202 62.4L68.7802 80.43C66.5702 82.82 59.7802 80.1 53.6402 74.37C47.5002 68.64 44.3302 62.06 46.5602 59.68L63.4102 41.64C65.6202 39.25 72.4102 41.97 78.5502 47.7C84.6902 53.43 87.8702 60.02 85.6301 62.4H85.6202Z" fill="#C0DBFF"/>
<path d="M85.6154 62.3764C87.8398 59.9952 84.598 53.3522 78.3747 47.5387C72.1514 41.7252 65.3032 38.9427 63.0788 41.3239C60.8545 43.7051 64.0963 50.3481 70.3196 56.1616C76.5429 61.9751 83.391 64.7576 85.6154 62.3764Z" fill="white"/>
<path d="M90.3857 66.6154L74.6236 83.4886C73.6962 84.4814 73.7492 86.0381 74.742 86.9655L108.087 118.114C109.079 119.042 110.636 118.989 111.563 117.996L127.326 101.123C128.253 100.13 128.2 98.5731 127.207 97.6457L93.8627 66.497C92.8698 65.5696 91.3131 65.6226 90.3857 66.6154Z" fill="#C0DBFF"/>
<path d="M89.7927 68.105L73.6211 85.4166L107.448 117.016L123.62 99.7042L89.7927 68.105Z" fill="#77A4F2"/>
<path d="M22.7502 3.41893L6.98412 20.1787C6.057 21.1643 6.10437 22.7148 7.08993 23.642L40.209 54.7972C41.1945 55.7243 42.745 55.677 43.6722 54.6914L59.4382 37.9316C60.3653 36.946 60.318 35.3955 59.3324 34.4684L26.2134 3.31312C25.2278 2.386 23.6773 2.43337 22.7502 3.41893Z" fill="#C0DBFF"/>
<path d="M20.7602 3.51326L4.58984 20.7028L38.1823 52.3035L54.3526 35.1139L20.7602 3.51326Z" fill="#77A4F2"/>
<path d="M59.6501 80.45L77.1801 61.69L83.0701 64.05L65.5401 82.81L59.6501 80.45Z" fill="white"/>
<path d="M66.4601 52.13L50.3701 69.36L46.5901 61.83C46.5901 61.83 48.9201 57.4 50.5401 55.81C52.1601 54.22 61.5701 43.97 61.5701 43.97L66.4701 52.13H66.4601Z" fill="#77A4F2"/>
<path d="M89.2501 65.54C90.7701 63.92 93.3201 63.83 94.9401 65.35L128.28 96.49C129.9 98.01 129.99 100.55 128.47 102.17L112.72 119.04C111.2 120.67 108.66 120.76 107.03 119.24L73.6901 88.1C72.0701 86.58 71.9801 84.04 73.5001 82.42L89.2501 65.54ZM126.19 100.05H126.2C126.54 99.67 126.51 99.1 126.14 98.76L92.8001 67.61H92.7901C92.4201 67.26 91.8501 67.28 91.5101 67.65L75.7501 84.52H75.7401C75.4001 84.9 75.4301 85.47 75.8001 85.81L109.14 116.95H109.15C109.52 117.3 110.09 117.28 110.43 116.91L126.19 100.05Z" fill="#503EAA"/>
<path d="M62.27 40.58L64.54 42.71C65.72 41.44 71.49 43.25 77.49 48.84C83.49 54.43 85.68 60.08 84.49 61.35L86.76 63.47C90.1 59.89 85.68 52.26 79.59 46.57C73.51 40.88 65.6 37 62.26 40.58H62.27Z" fill="#503EAA"/>
<path d="M83.3333 57.8847C84.9092 56.1977 82.313 51.2115 77.5346 46.7477C72.7561 42.2839 67.6049 40.0329 66.029 41.7198C64.4531 43.4068 67.0492 48.393 71.8277 52.8568C76.6062 57.3206 81.7574 59.5717 83.3333 57.8847Z" fill="#C0DBFF"/>
<path d="M62.27 40.58C58.93 44.16 63.35 51.79 69.44 57.48C75.53 63.17 83.44 67.05 86.78 63.47L84.51 61.35C83.33 62.61 77.56 60.81 71.56 55.22C65.56 49.63 63.38 43.95 64.54 42.71L62.27 40.58Z" fill="#503EAA"/>
<path d="M62.6901 69.45C64.7301 71.11 67.0001 72.46 69.4201 73.46L65.8701 77.26C63.4501 76.25 61.1801 74.9 59.1401 73.24L62.6801 69.45H62.6901Z" fill="#503EAA"/>
<path d="M60.1 79.2L57.87 86.71C57.87 86.71 54.4 87.92 50.03 84.95C45.66 81.99 43.76 79 43.76 79L50.68 71.59L60.1 79.2Z" fill="#C0DBFF"/>
<path d="M67.3401 64.46C69.3801 66.12 71.6501 67.48 74.0801 68.49L72.0601 70.66C69.6401 69.65 67.3701 68.3 65.3401 66.64L67.3401 64.47V64.46Z" fill="#503EAA"/>
<path d="M51.61 72.94L44.45 79.79C44.45 79.79 43.6 79.39 41.82 76.28C40.04 73.18 39.36 69.38 41.37 68.1C43.37 66.82 46.17 66.46 47.53 67.71C48.89 68.96 51.61 72.94 51.61 72.94Z" fill="#77A4F2"/>
<path d="M58.5702 78.98L54.4302 87.02L60.7302 86.2L61.1202 80.42L58.5702 78.98Z" fill="white"/>
<path d="M79.6102 46.55C85.6902 52.24 90.1202 59.87 86.7802 63.45L69.9402 81.49C66.6002 85.07 58.6802 81.19 52.5902 75.5C46.5002 69.81 42.0802 62.18 45.4202 58.6L62.2602 40.58C65.6002 37 73.5202 40.86 79.6102 46.55ZM84.4902 61.34C85.6702 60.07 83.4802 54.44 77.4802 48.85C71.4802 43.26 65.7102 41.46 64.5302 42.72L47.6902 60.75C46.5102 62.02 48.7002 67.66 54.7002 73.25C60.7002 78.84 66.4702 80.64 67.6502 79.38L84.5002 61.34H84.4902Z" fill="#503EAA"/>
<path d="M71.52 46.21C70.05 47.78 70.87 50.94 73.36 53.26C75.85 55.58 79.05 56.19 80.52 54.62L82.38 52.63C80.69 51.45 79.08 50.17 77.55 48.78C75.4 46.78 74.86 46.02 73.26 44.35L71.52 46.21Z" fill="#503EAA"/>
<path d="M57.5102 65.35L55.4202 67.59C54.6602 68.4 53.2702 68.22 52.3202 67.19C51.3602 66.16 51.2002 64.66 51.9602 63.85L54.0502 61.61C54.8102 60.8 56.2002 60.98 57.1502 62.02C58.1002 63.06 58.2702 64.55 57.5202 65.36L57.5102 65.35Z" fill="#503EAA"/>
<path d="M61.7738 60.7926C62.619 60.1706 62.6327 58.7541 61.8045 57.6288C60.9763 56.5034 59.6198 56.0953 58.7747 56.7172C57.9295 57.3392 57.9158 58.7557 58.744 59.8811C59.5721 61.0065 60.9287 61.4146 61.7738 60.7926Z" fill="#503EAA"/>
<path d="M40.2201 67.05C37.0101 70.48 39.2601 77.6 45.3201 83.27C51.3801 88.94 58.6501 90.69 61.8501 87.27C62.8001 86.26 63.4801 81.73 63.4001 80.02L60.2901 80.16C60.2601 81.89 59.9801 83.6 59.4701 85.25C57.6501 86.9 52.3801 85.6 47.4501 81C42.5201 76.4 40.8701 71.22 42.3901 69.3C44.0001 68.67 45.6901 68.28 47.4101 68.13L47.3401 65.02C45.6301 65.06 41.1601 66.04 40.2201 67.05Z" fill="#503EAA"/>
<path d="M83.3 74.2007L81.7095 75.9033L118.649 110.411L120.24 108.708L83.3 74.2007Z" fill="#503EAA"/>
<path d="M118.928 89.905L99.8069 110.374L101.51 111.964L120.63 91.4955L118.928 89.905Z" fill="#503EAA"/>
<path d="M109.684 81.2761L90.563 101.745L92.2657 103.335L111.386 82.8666L109.684 81.2761Z" fill="#503EAA"/>
<path d="M100.446 72.6398L81.3257 93.1083L83.0284 94.6989L102.149 74.2303L100.446 72.6398Z" fill="#503EAA"/>
<path d="M20.4401 1.27001C21.9601 -0.349994 24.5001 -0.429994 26.1201 1.09001L59.4601 32.21C61.0801 33.73 61.1701 36.27 59.6501 37.89L43.9001 54.76C42.3801 56.38 39.8401 56.47 38.2201 54.96L4.87005 23.83C3.25005 22.31 3.16005 19.77 4.68005 18.15L20.4301 1.28001L20.4401 1.27001ZM57.3701 35.8H57.3801C57.7201 35.42 57.6901 34.85 57.3201 34.51L23.9901 3.36001H23.9801C23.6101 3.01001 23.0401 3.03001 22.7001 3.40001L6.94005 20.27H6.93005C6.59005 20.65 6.62005 21.22 6.99005 21.56L40.3301 52.7H40.3401C40.7101 53.05 41.2801 53.03 41.6201 52.66L57.3801 35.79L57.3701 35.8Z" fill="#503EAA"/>
<path d="M14.4919 9.92108L12.9014 11.6237L49.8412 46.131L51.4317 44.4283L14.4919 9.92108Z" fill="#503EAA"/>
<path d="M51.1152 26.6814L31.9917 47.0102L33.6815 48.5998L52.805 28.271L51.1152 26.6814Z" fill="#503EAA"/>
<path d="M41.9318 18.0993L22.8083 38.4282L24.4982 40.0178L43.6216 19.689L41.9318 18.0993Z" fill="#503EAA"/>
<path d="M31.6458 8.3771L12.5251 28.8456L14.2278 30.4362L33.3485 9.96765L31.6458 8.3771Z" fill="#503EAA"/>
<path d="M80.1325 69.1096L76.4189 73.0849L79.9339 76.3684L83.6474 72.3931L80.1325 69.1096Z" fill="#503EAA"/>
<path d="M53.2397 43.9918L49.5261 47.9672L53.0411 51.2506L56.7546 47.2753L53.2397 43.9918Z" fill="#503EAA"/>
<path d="M110.19 51.59C102.66 59.66 88.1101 58.32 77.7101 48.6C67.3001 38.88 64.9701 24.46 72.5101 16.4C75.9801 12.69 87.2201 17.56 97.6201 27.28C108.02 37 113.66 47.9 110.2 51.6L110.19 51.59Z" fill="#C0DBFF"/>
<path d="M78.8801 48.01C85.1801 53.13 93.2801 52.3 98.0301 50.91L106.56 54.48C106.56 54.48 91.0201 61.29 78.8801 48V48.01Z" fill="white"/>
<path d="M78.22 47.4C72.69 41.46 72.95 33.33 74.02 28.5L69.87 20.23C69.87 20.23 64.14 36.2 78.22 47.4Z" fill="#77A4F2"/>
<path d="M109.786 50.7807C113.138 47.1405 107.588 36.5772 97.3908 27.187C87.1934 17.7968 76.2093 13.1355 72.8573 16.7757C69.5052 20.416 75.0545 30.9792 85.252 40.3694C95.4495 49.7596 106.434 54.4209 109.786 50.7807Z" fill="#77A4F2"/>
<path d="M71.3701 15.34C66.6101 20.44 74.3301 32.81 84.0201 41.85C93.7001 50.9 106.57 57.76 111.33 52.68L109.05 50.56C106.85 52.88 97.1001 49.84 86.1401 39.6C75.1701 29.36 71.4701 19.81 73.6501 17.48L71.3801 15.34H71.3701Z" fill="#503EAA"/>
<path d="M104.289 49.5554C107 46.6536 102.611 38.149 94.4872 30.5598C86.363 22.9706 77.5795 19.1707 74.8689 22.0724C72.1582 24.9742 76.5467 33.4789 84.6709 41.0681C92.7951 48.6573 101.578 52.4572 104.289 49.5554Z" fill="#503EAA"/>
<path d="M98.6801 26.15C108.36 35.19 116.09 47.56 111.33 52.66C103.22 61.34 87.6601 60.03 76.6401 49.74C65.6301 39.45 63.2601 24.01 71.3601 15.34C76.1201 10.25 88.9901 17.11 98.6801 26.15ZM96.5601 28.42C85.5901 18.18 75.8201 15.13 73.6501 17.46C66.7101 24.89 69.0101 38.35 78.7801 47.47C88.5501 56.59 102.13 57.96 109.06 50.54C111.23 48.21 107.54 38.67 96.5701 28.42H96.5601Z" fill="#503EAA"/>
<path d="M112.074 13.4703L108.965 13.5317L109.657 48.6448L112.767 48.5835L112.074 13.4703Z" fill="#503EAA"/>
<path d="M110.44 11.9337L75.3611 13.637L75.5119 16.7434L110.591 15.04L110.44 11.9337Z" fill="#503EAA"/>
<path d="M110.136 11.6301L85.0078 38.5293L87.2805 40.6523L112.408 13.7531L110.136 11.6301Z" fill="#503EAA"/>
<path d="M112.61 16.66C115.598 16.66 118.02 14.2379 118.02 11.25C118.02 8.26214 115.598 5.84 112.61 5.84C109.622 5.84 107.2 8.26214 107.2 11.25C107.2 14.2379 109.622 16.66 112.61 16.66Z" fill="#503EAA"/>
</g>
<defs>
<clipPath id="clip0_2599_7099">
<rect width="139.23" height="120.34" fill="white"/>
</clipPath>
</defs>
</svg>
