<svg width="117" height="112" viewBox="0 0 117 112" fill="none" xmlns="http://www.w3.org/2000/svg">
<g clip-path="url(#clip0_2599_6972)">
<path d="M10.2998 17.35H8.86984C7.34984 17.35 6.10984 16.12 6.10984 14.59V10.85C6.07984 10.49 5.75984 10.22 5.39984 10.25C5.07984 10.28 4.82984 10.53 4.79984 10.85V14.59C4.79984 16.11 3.56984 17.35 2.03984 17.35H0.599836C0.239836 17.38 -0.0301644 17.7 -0.000164442 18.06C0.0298356 18.38 0.279836 18.63 0.599836 18.66H2.03984C3.55984 18.66 4.79984 19.89 4.79984 21.42V25.16C4.82984 25.52 5.14984 25.79 5.50984 25.76C5.82984 25.73 6.07984 25.48 6.10984 25.16V21.42C6.10984 19.9 7.33984 18.66 8.86984 18.66H10.2998C10.6598 18.69 10.9798 18.42 11.0098 18.06C11.0398 17.7 10.7698 17.38 10.4098 17.35C10.3698 17.35 10.3398 17.35 10.2998 17.35Z" fill="#FF8486"/>
<path d="M115.45 93.16H114.02C112.5 93.16 111.26 91.93 111.26 90.4V86.66C111.23 86.3 110.91 86.03 110.55 86.06C110.23 86.09 109.98 86.34 109.95 86.66V90.4C109.95 91.92 108.72 93.16 107.19 93.16H105.75C105.39 93.19 105.12 93.51 105.15 93.87C105.18 94.19 105.43 94.44 105.75 94.47H107.19C108.71 94.47 109.95 95.7 109.95 97.23V100.97C109.98 101.33 110.3 101.6 110.66 101.57C110.98 101.54 111.23 101.29 111.26 100.97V97.23C111.26 95.71 112.49 94.47 114.02 94.47H115.45C115.81 94.5 116.13 94.23 116.16 93.87C116.19 93.51 115.92 93.19 115.56 93.16C115.52 93.16 115.49 93.16 115.45 93.16Z" fill="#FF8486"/>
<path d="M57.1198 111.17C87.0039 111.17 111.23 86.9441 111.23 57.06C111.23 27.1759 87.0039 2.95 57.1198 2.95C27.2356 2.95 3.00977 27.1759 3.00977 57.06C3.00977 86.9441 27.2356 111.17 57.1198 111.17Z" fill="#FF8486"/>
<path d="M24.2399 100.02C31.6799 105.16 43.9699 108.22 57.1199 108.22C70.2099 108.22 82.4599 105.17 89.9099 100.07V91.42C89.0099 91.95 88.0499 92.46 87.0299 92.95C79.0099 96.8 68.3899 98.93 57.1199 98.93C45.8499 98.93 35.2299 96.81 27.2099 92.95C23.0499 90.95 19.8199 88.59 17.6099 85.99V90.13C17.6099 94.52 21.2199 97.93 24.2499 100.02H24.2399Z" fill="#C0DBFF"/>
<path d="M89.9897 100.02C93.0197 97.93 96.6297 94.52 96.6297 90.13V85.99C94.9597 87.95 92.7097 89.78 89.9097 91.42V100.07C89.9097 100.07 89.9697 100.03 89.9897 100.01V100.02Z" fill="white"/>
<path d="M100.03 76.21C99.4699 70.66 94.8999 65.58 87.0299 61.8C85.3899 61.01 83.6299 60.3 81.7899 59.66C82.4499 58.65 82.8399 57.44 82.8399 56.15C82.8399 52.6 79.9499 49.7 76.3899 49.7C72.8399 49.7 69.9399 52.59 69.9399 56.15C69.9399 56.37 69.9499 56.58 69.9699 56.79C67.7499 56.45 65.4599 56.19 63.1299 56.03V59.5C66.1199 59.72 69.0099 60.1 71.7599 60.62C72.9299 61.83 74.5699 62.59 76.3799 62.59C77.0999 62.59 77.7899 62.47 78.4399 62.25C89.2899 65.52 96.6199 71.14 96.6199 77.38C96.6199 81 94.1499 84.42 89.9499 87.29V75.36C89.9499 75.28 89.9499 75.2 89.9499 75.12C89.9499 71.08 86.3199 67.43 79.7399 64.83C75.1199 63.01 69.3699 61.81 63.1299 61.34V64.81C65.4899 64.99 67.7099 65.29 69.7799 65.66C80.0299 67.52 86.4999 71.47 86.4999 75.12C86.4999 78.69 80.3099 82.56 70.4299 84.46C66.5199 85.22 62.0199 85.66 57.1099 85.66C39.7899 85.66 27.7199 80.1 27.7199 75.11C27.7199 70.72 37.0599 65.9 51.0899 64.79V61.32C44.8499 61.79 39.0899 62.99 34.4799 64.81C27.8999 67.41 24.2699 71.06 24.2699 75.1C24.2699 75.1 24.2699 75.1 24.2699 75.11V87.26C20.0799 84.39 17.6099 80.98 17.6099 77.36C17.6099 68.49 32.4199 60.86 51.0999 59.49V56.02C42.1099 56.64 33.7899 58.63 27.2099 61.79C19.3399 65.57 14.7699 70.66 14.2099 76.2H14.1499V77.36V90.12C14.1499 94.78 16.9599 99.19 22.2799 102.86C30.2799 108.38 43.2999 111.67 57.1199 111.67C70.9399 111.67 83.9599 108.37 91.9599 102.86C97.2799 99.19 100.09 94.78 100.09 90.12V76.21H100.03ZM72.4599 56.13C72.4599 53.96 74.2199 52.2 76.3899 52.2C78.5599 52.2 80.3199 53.96 80.3199 56.13C80.3199 58.3 78.5599 60.06 76.3899 60.06C74.2199 60.06 72.4599 58.3 72.4599 56.13ZM17.5999 85.98C19.8099 88.58 23.0399 90.94 27.1999 92.94C35.2199 96.79 45.8399 98.92 57.1099 98.92C68.3799 98.92 78.9999 96.8 87.0199 92.94C88.0399 92.45 88.9999 91.94 89.8999 91.41C92.6999 89.77 94.9499 87.94 96.6199 85.98V90.12C96.6199 94.51 93.0099 97.92 89.9799 100.01C89.9499 100.03 89.9199 100.05 89.8999 100.07C82.4499 105.17 70.1999 108.22 57.1099 108.22C43.9699 108.22 31.6799 105.15 24.2299 100.02C21.1999 97.93 17.5899 94.52 17.5899 90.13V85.99L17.5999 85.98ZM34.9499 85.57C36.8299 86.28 38.8899 86.9 41.0799 87.4V93.84C38.9399 93.39 36.8899 92.85 34.9499 92.24V85.57ZM63.7299 95.19V88.84C65.8399 88.66 67.8899 88.4 69.8599 88.06V94.45C67.8799 94.77 65.8299 95.02 63.7299 95.19ZM73.3199 93.8V87.36C75.5099 86.85 77.5699 86.22 79.4499 85.5V92.17C77.5199 92.79 75.4699 93.34 73.3199 93.79V93.8ZM60.2599 89.05V95.4C59.2199 95.44 58.1699 95.46 57.0999 95.46C56.0999 95.46 55.1099 95.44 54.1299 95.41V89.06C55.1099 89.1 56.0999 89.12 57.0999 89.12C58.1599 89.12 59.2099 89.1 60.2599 89.06V89.05ZM50.6799 95.2C48.5799 95.03 46.5299 94.79 44.5499 94.48V88.09C46.5099 88.42 48.5699 88.68 50.6799 88.85V95.2ZM82.9199 90.93V83.94C84.3099 83.2 85.4999 82.4 86.4999 81.55V89.31C85.3799 89.88 84.1899 90.43 82.9199 90.93ZM27.7199 81.54C28.7599 82.43 30.0199 83.26 31.4899 84.03V91C30.1599 90.47 28.8999 89.9 27.7199 89.29V81.53V81.54Z" fill="#503EAA"/>
<path d="M79.7599 64.82C86.3399 67.42 89.9699 71.07 89.9699 75.11C89.9699 75.19 89.9699 75.27 89.9699 75.35V87.28C94.1699 84.41 96.6399 81 96.6399 77.37C96.6399 71.13 89.3099 65.5 78.4599 62.24C77.8099 62.46 77.1199 62.58 76.3999 62.58C74.5899 62.58 72.9499 61.82 71.7799 60.61C69.0299 60.09 66.1399 59.71 63.1499 59.49V61.32C69.3899 61.79 75.1499 62.99 79.7599 64.81V64.82Z" fill="#8D86EB"/>
<path d="M17.5998 77.37C17.5998 80.99 20.0698 84.41 24.2598 87.27V75.12C24.2598 75.12 24.2598 75.12 24.2598 75.11C24.2598 71.07 27.8898 67.42 34.4698 64.82C39.0898 63 44.8398 61.8 51.0798 61.33V59.5C32.3998 60.87 17.5898 68.5 17.5898 77.37H17.5998Z" fill="#8D86EB"/>
<path d="M63.73 88.85V95.2C65.84 95.03 67.89 94.78 69.87 94.46V88.07C67.89 88.41 65.84 88.67 63.73 88.85Z" fill="#C0DBFF"/>
<path d="M54.1501 95.41C55.1301 95.45 56.1201 95.46 57.1201 95.46C58.1801 95.46 59.2401 95.44 60.2801 95.4V89.05C59.2301 89.09 58.1801 89.11 57.1201 89.11C56.1201 89.11 55.1301 89.09 54.1401 89.05V95.4L54.1501 95.41Z" fill="#C0DBFF"/>
<path d="M44.55 94.49C46.53 94.81 48.58 95.05 50.68 95.21V88.86C48.56 88.69 46.51 88.43 44.54 88.1V94.49H44.55Z" fill="#77A4F2"/>
<path d="M82.9199 83.96V90.95C84.1899 90.44 85.3899 89.9 86.4999 89.33V81.57C85.5099 82.42 84.3099 83.22 82.9199 83.96Z" fill="white"/>
<path d="M73.3198 87.37V93.81C75.4798 93.35 77.5298 92.81 79.4598 92.19V85.52C77.5698 86.24 75.5198 86.87 73.3198 87.38V87.37Z" fill="white"/>
<path d="M31.4897 84.05C30.0197 83.28 28.7597 82.45 27.7197 81.56V89.32C28.8997 89.92 30.1597 90.49 31.4997 91.03V84.06L31.4897 84.05Z" fill="#77A4F2"/>
<path d="M41.09 87.42C38.89 86.91 36.84 86.3 34.96 85.59V92.26C36.9 92.87 38.95 93.41 41.1 93.86V87.42H41.09Z" fill="#77A4F2"/>
<path d="M26.8999 17.17V23.85C29.5399 21.11 33.5599 18.8 38.5399 17.15C38.6099 17.13 38.6799 17.1 38.7499 17.08C38.8099 17.06 38.8699 17.04 38.9399 17.02C42.7399 15.76 47.1799 14.93 51.9099 14.58H51.9799C52.3999 14.54 52.8199 14.52 53.2399 14.49C53.4699 14.48 53.6999 14.47 53.9299 14.45C54.0799 14.45 54.2299 14.44 54.3799 14.43C54.7599 14.41 55.1499 14.4 55.5399 14.39C55.6399 14.39 55.7399 14.39 55.8299 14.39C56.2599 14.39 56.6799 14.38 57.1099 14.38C57.5399 14.38 57.9699 14.38 58.3899 14.39C58.4899 14.39 58.5899 14.39 58.6799 14.39C59.0699 14.39 59.4499 14.41 59.8399 14.43C59.9899 14.43 60.1399 14.44 60.2899 14.45C60.5199 14.46 60.7499 14.47 60.9799 14.49C61.3999 14.51 61.8199 14.54 62.2399 14.57H62.3099C67.0399 14.93 71.4799 15.76 75.2899 17.02C75.3499 17.04 75.4099 17.06 75.4699 17.08C75.5399 17.1 75.6099 17.13 75.6799 17.15C77.6399 17.8 79.4499 18.55 81.0799 19.39V8.97C75.2999 5.5 66.4899 3.46 57.0999 3.46C46.9999 3.46 37.5599 5.82 31.8599 9.78C29.5899 11.36 26.8799 13.92 26.8799 17.18L26.8999 17.17Z" fill="#C0DBFF"/>
<path d="M87.3401 23.86V17.18C87.3401 13.92 84.6301 11.36 82.3601 9.78C81.9601 9.5 81.5401 9.23 81.1001 8.97V19.39C83.6301 20.68 85.7401 22.19 87.3401 23.85V23.86Z" fill="white"/>
<path d="M24.2499 100.02C21.2199 97.93 17.6099 94.52 17.6099 90.13V85.99C19.2799 87.95 21.5299 89.78 24.3299 91.42V100.07C24.3299 100.07 24.2699 100.03 24.2499 100.01V100.02Z" fill="#77A4F2"/>
<path d="M26.9097 23.86V17.18C26.9097 13.92 29.6197 11.36 31.8897 9.78C32.2897 9.5 32.7097 9.23 33.1497 8.97V19.39C30.6197 20.68 28.5097 22.19 26.9097 23.85V23.86Z" fill="#77A4F2"/>
<path d="M81.72 75.13C81.72 77.26 79.9 79.77 76.96 81.68C75.08 82.91 72.86 83.84 70.44 84.46C80.32 82.55 86.51 78.69 86.51 75.12C86.51 71.47 80.04 67.52 69.79 65.66C77.22 67.37 81.72 71.84 81.72 75.14V75.13Z" fill="white"/>
<path d="M27.2699 29.46C27.0299 30.14 26.8999 30.84 26.8999 31.55C26.8999 38.05 37.4799 43.67 51.0899 44.98V41.01C45.5899 40.53 40.5199 39.4 36.4299 37.71C31.2499 35.57 28.0699 32.68 27.2699 29.46Z" fill="#8D86EB"/>
<path d="M87.3399 31.56C87.3399 30.85 87.2099 30.15 86.9699 29.47C86.1699 32.69 82.9899 35.58 77.8099 37.72C73.7199 39.41 68.6499 40.54 63.1499 41.02V44.99C76.7599 43.68 87.3399 38.06 87.3399 31.56Z" fill="#8D86EB"/>
<path d="M51.0897 44.99C37.4797 43.68 26.8997 38.06 26.8997 31.56C26.8997 30.85 27.0297 30.15 27.2697 29.47C28.0697 32.69 31.2497 35.58 36.4297 37.72C40.5197 39.41 45.5897 40.54 51.0897 41.02V37.55C38.7197 36.42 30.5197 31.92 30.5197 27.83C30.5197 23.11 41.4397 17.84 57.1197 17.84C61.6097 17.84 65.7197 18.27 69.2797 19C78.1497 20.81 83.7097 24.46 83.7097 27.83C83.7097 31.2 78.2097 34.8 69.4197 36.63C67.4797 37.03 65.3797 37.35 63.1397 37.55V41.02C68.6397 40.54 73.7097 39.41 77.7997 37.72C82.9797 35.58 86.1597 32.69 86.9597 29.47C87.1997 30.15 87.3297 30.85 87.3297 31.56C87.3297 38.06 76.7497 43.68 63.1397 44.99V48.47C78.2997 47.13 89.6697 40.78 90.7097 32.76H90.7897V17.17C90.7897 13.41 88.5497 9.87 84.3297 6.93C78.0697 2.59 67.8997 0 57.1197 0C46.3397 0 36.1697 2.59 29.9097 6.94C25.6797 9.87 23.4497 13.41 23.4497 17.18V32.77H23.5297C24.5697 40.79 35.9397 47.13 51.0997 48.48V45L51.0897 44.99ZM81.0997 8.97C81.5397 9.23 81.9597 9.5 82.3597 9.78C84.6297 11.36 87.3397 13.92 87.3397 17.18V23.86C85.7397 22.2 83.6297 20.69 81.0997 19.4C79.4597 18.56 77.6497 17.81 75.6997 17.16C75.6297 17.14 75.5597 17.11 75.4897 17.09C75.4297 17.07 75.3697 17.05 75.3097 17.03C71.5097 15.77 67.0697 14.94 62.3297 14.59H62.2597C61.8397 14.55 61.4197 14.53 60.9997 14.5C60.7697 14.49 60.5397 14.48 60.3097 14.46C60.1597 14.46 60.0097 14.45 59.8597 14.44C59.4797 14.42 59.0897 14.41 58.6997 14.4C58.5997 14.4 58.4997 14.4 58.4097 14.4C57.9797 14.4 57.5597 14.39 57.1297 14.39C56.6997 14.39 56.2697 14.39 55.8497 14.4C55.7497 14.4 55.6497 14.4 55.5597 14.4C55.1697 14.4 54.7897 14.42 54.3997 14.44C54.2497 14.44 54.0997 14.45 53.9497 14.46C53.7197 14.47 53.4897 14.48 53.2597 14.5C52.8397 14.52 52.4197 14.55 51.9997 14.58H51.9297C47.1997 14.94 42.7597 15.77 38.9597 17.03C38.8997 17.05 38.8397 17.07 38.7697 17.09C38.6997 17.11 38.6297 17.14 38.5597 17.16C33.5797 18.81 29.5597 21.12 26.9197 23.86V17.18C26.9197 13.92 29.6297 11.36 31.8997 9.78C37.5997 5.82 47.0397 3.46 57.1397 3.46C66.5297 3.46 75.3497 5.5 81.1197 8.97H81.0997Z" fill="#503EAA"/>
<path d="M83.7098 27.83C83.7098 24.46 78.1498 20.82 69.2798 19C75.3098 21.02 78.8798 24.89 78.8798 27.83C78.8798 29.96 77.0598 32.47 74.1198 34.38C72.7198 35.29 71.1398 36.04 69.4198 36.62C78.2098 34.8 83.7098 31.18 83.7098 27.82V27.83Z" fill="white"/>
<path d="M51.0897 59.5V64.8C37.0597 65.9 27.7197 70.73 27.7197 75.12C27.7197 80.11 39.7897 85.67 57.1097 85.67C62.0297 85.67 66.5197 85.22 70.4297 84.47C72.8497 83.86 75.0697 82.92 76.9497 81.69C79.8897 79.77 81.7097 77.26 81.7097 75.14C81.7097 71.84 77.2197 67.37 69.7797 65.66C67.7097 65.28 65.4897 64.99 63.1297 64.81V37.56C65.3697 37.36 67.4697 37.04 69.4097 36.64C71.1297 36.06 72.7097 35.31 74.1097 34.4C77.0497 32.48 78.8697 29.97 78.8697 27.85C78.8697 24.91 75.2997 21.04 69.2697 19.02C65.6997 18.29 61.5997 17.86 57.1097 17.86C41.4397 17.86 30.5097 23.12 30.5097 27.85C30.5097 31.94 38.6997 36.44 51.0797 37.57V59.52L51.0897 59.5Z" fill="#86D4C9"/>
<path d="M80.32 56.14C80.32 53.97 78.56 52.21 76.39 52.21C74.22 52.21 72.46 53.97 72.46 56.14C72.46 58.31 74.22 60.07 76.39 60.07C78.56 60.07 80.32 58.31 80.32 56.14Z" fill="#86D4C9"/>
<path d="M86.8999 47.02C85.9399 47.02 85.1499 47.8 85.1499 48.77C85.1499 49.74 85.9299 50.52 86.8999 50.52C87.8699 50.52 88.6499 49.74 88.6499 48.77C88.6499 47.8 87.8699 47.02 86.8999 47.02Z" fill="#86D4C9"/>
<path d="M86.9001 44.51C84.5501 44.51 82.6401 46.42 82.6401 48.78C82.6401 51.14 84.5501 53.04 86.9001 53.04C89.2501 53.04 91.1601 51.13 91.1601 48.78C91.1601 46.43 89.2501 44.51 86.9001 44.51ZM86.9001 50.52C85.9401 50.52 85.1501 49.74 85.1501 48.77C85.1501 47.8 85.9301 47.02 86.9001 47.02C87.8701 47.02 88.6501 47.8 88.6501 48.77C88.6501 49.73 87.8701 50.52 86.9001 50.52Z" fill="#503EAA"/>
<path d="M47.2799 74.93C46.4899 74.93 45.77 74.38 45.59 73.57C45.4 72.69 45.9099 71.82 46.7499 71.55C46.9899 71.41 49.49 69.67 49.49 59.44V39.27C49.49 38.32 50.26 37.54 51.22 37.54C52.18 37.54 52.95 38.31 52.95 39.27V59.44C52.95 72.69 48.89 74.61 47.65 74.89C47.52 74.92 47.3999 74.93 47.2799 74.93Z" fill="#503EAA"/>
<path d="M67.8897 74.93C67.7697 74.93 67.6397 74.92 67.5197 74.89C66.2797 74.62 62.2197 72.69 62.2197 59.44V39.27C62.2197 38.32 62.9897 37.54 63.9497 37.54C64.9097 37.54 65.6797 38.31 65.6797 39.27V59.44C65.6797 69.67 68.1897 71.41 68.4197 71.55C69.2597 71.82 69.7697 72.69 69.5797 73.57C69.3997 74.38 68.6897 74.93 67.8897 74.93Z" fill="#503EAA"/>
</g>
<defs>
<clipPath id="clip0_2599_6972">
<rect width="116.17" height="111.68" fill="white"/>
</clipPath>
</defs>
</svg>
