<svg width="118" height="129" viewBox="0 0 118 129" fill="none" xmlns="http://www.w3.org/2000/svg">
<g clip-path="url(#clip0_2599_7005)">
<path d="M54.31 113.6C84.1941 113.6 108.42 89.3741 108.42 59.49C108.42 29.6059 84.1941 5.38 54.31 5.38C24.4258 5.38 0.199951 29.6059 0.199951 59.49C0.199951 89.3741 24.4258 113.6 54.31 113.6Z" fill="#86D4C9"/>
<path d="M116.64 90.58H115.19C113.65 90.58 112.39 89.33 112.39 87.78V83.99C112.36 83.62 112.04 83.35 111.67 83.38C111.35 83.41 111.09 83.66 111.06 83.99V87.78C111.06 89.32 109.81 90.58 108.26 90.58H106.8C106.43 90.61 106.16 90.93 106.19 91.3C106.22 91.62 106.47 91.88 106.8 91.91H108.26C109.8 91.91 111.06 93.16 111.06 94.71V98.5C111.09 98.87 111.41 99.14 111.78 99.11C112.1 99.08 112.36 98.83 112.39 98.5V94.71C112.39 93.17 113.64 91.91 115.19 91.91H116.64C117.01 91.94 117.33 91.67 117.36 91.3C117.39 90.93 117.12 90.61 116.75 90.58C116.71 90.58 116.68 90.58 116.64 90.58Z" fill="#86D4C9"/>
<path d="M10.4401 13.36H8.99008C7.45008 13.36 6.19008 12.11 6.19008 10.56V6.77C6.16008 6.4 5.84008 6.13 5.47008 6.16C5.15008 6.19 4.89008 6.44 4.86008 6.77V10.56C4.86008 12.1 3.61008 13.36 2.06008 13.36H0.610078C0.240078 13.39 -0.0299216 13.71 7.83808e-05 14.08C0.0300784 14.4 0.280078 14.66 0.610078 14.69H2.07008C3.61008 14.69 4.87008 15.94 4.87008 17.49V21.28C4.90008 21.65 5.22008 21.92 5.59008 21.89C5.91008 21.86 6.17008 21.61 6.20008 21.28V17.49C6.20008 15.95 7.45008 14.69 9.00008 14.69H10.4501C10.8201 14.72 11.1401 14.45 11.1701 14.08C11.2001 13.71 10.9301 13.39 10.5601 13.36C10.5201 13.36 10.4901 13.36 10.4501 13.36H10.4401Z" fill="#86D4C9"/>
<path d="M42.9199 10.58C45.8415 10.58 48.2099 8.21159 48.2099 5.29C48.2099 2.36841 45.8415 0 42.9199 0C39.9983 0 37.6299 2.36841 37.6299 5.29C37.6299 8.21159 39.9983 10.58 42.9199 10.58Z" fill="#503EAA"/>
<path d="M90.2599 16.13H42.9299V49.31H90.2599V16.13Z" fill="#C0DBFF"/>
<path d="M92.3701 51.4H40.8401V14.03H92.3701V51.4ZM45.0401 47.2H88.1801V18.23H45.0301V47.21L45.0401 47.2Z" fill="#503EAA"/>
<path d="M70.8499 32V34.34C70.8499 34.54 70.7599 34.73 70.6099 34.85L67.0399 37.78C66.7899 37.99 66.4199 37.99 66.1699 37.78L62.5999 34.85C62.4499 34.72 62.3599 34.54 62.3599 34.34V32C62.3599 31.77 62.6299 31.64 62.8099 31.79L66.3099 34.66C66.4799 34.8 66.7399 34.8 66.9099 34.66L70.4099 31.79C70.5899 31.64 70.8599 31.77 70.8599 32H70.8499Z" fill="#503EAA"/>
<path d="M75.98 22.56V37.64C75.98 37.91 75.76 38.13 75.49 38.13H73.04C72.77 38.13 72.55 37.91 72.55 37.64V28.5C72.55 28.26 72.28 28.13 72.09 28.27L66.92 32.2C66.74 32.34 66.5 32.34 66.32 32.2L61.15 28.27C60.96 28.13 60.69 28.27 60.69 28.5V37.64C60.69 37.91 60.47 38.13 60.2 38.13H57.75C57.48 38.13 57.26 37.91 57.26 37.64V22.56C57.26 22.31 57.46 22.12 57.7 22.12H58.39C58.52 22.12 58.65 22.16 58.75 22.24L66.37 27.74C66.52 27.85 66.73 27.85 66.89 27.74L74.51 22.24C74.62 22.16 74.74 22.12 74.87 22.12H75.56C75.81 22.12 76 22.32 76 22.56H75.98Z" fill="#503EAA"/>
<path d="M75.61 39.87H57.59C57.3856 39.87 57.22 40.0357 57.22 40.24V42.94C57.22 43.1443 57.3856 43.31 57.59 43.31H75.61C75.8143 43.31 75.98 43.1443 75.98 42.94V40.24C75.98 40.0357 75.8143 39.87 75.61 39.87Z" fill="#503EAA"/>
<path d="M45.12 9.29H40.71V109.35H45.12V9.29Z" fill="#503EAA"/>
<path d="M79.9 103.17V104.4C81.85 104.28 83.71 104.04 85.42 103.68V99.39C83.28 99.8 81 100.05 78.72 100.13V100.6C79.34 101.38 79.74 102.24 79.86 103.18H79.9V103.17Z" fill="#C0DBFF"/>
<path d="M94.0199 96.24C92.5799 97.21 90.7299 98 88.6499 98.61V102.81C89.7299 102.44 90.6999 102.03 91.5199 101.56C93.1099 100.66 94.0199 99.65 94.0199 98.8V96.24Z" fill="white"/>
<path d="M85.41 91.98C83.27 92.39 81 92.64 78.72 92.72V96.79C81.09 96.71 83.37 96.44 85.42 96.01V91.98H85.41Z" fill="#C0DBFF"/>
<path d="M68.7998 95.74C69.7898 95.95 70.7498 96.2 71.6598 96.48C72.8898 96.63 74.1698 96.74 75.4898 96.78V92.71C73.2098 92.63 70.9298 92.38 68.7998 91.97V95.73V95.74Z" fill="#77A4F2"/>
<path d="M94.0199 88.84C92.5799 89.81 90.7299 90.6 88.6499 91.21V95.15C89.7299 94.78 90.6999 94.37 91.5199 93.9C93.1099 93 94.0199 91.99 94.0199 91.14V88.85V88.84Z" fill="white"/>
<path d="M60.1899 91.13C60.1899 91.99 61.0999 93 62.6899 93.89C63.5199 94.36 64.4899 94.78 65.5599 95.14V91.2C63.4799 90.59 61.6299 89.79 60.1899 88.83V91.12V91.13Z" fill="#77A4F2"/>
<path d="M85.41 84.29C83.27 84.7 81 84.95 78.72 85.03V89.38C81.1 89.3 83.37 89.03 85.42 88.6V84.29H85.41Z" fill="#C0DBFF"/>
<path d="M68.7998 88.61C70.8498 89.04 73.1198 89.3 75.4898 89.39V85.04C73.2098 84.96 70.9298 84.71 68.7998 84.3V88.61Z" fill="#77A4F2"/>
<path d="M60.1899 81.15V83.72C60.1899 84.58 61.0999 85.59 62.6899 86.48C63.5199 86.95 64.4899 87.37 65.5599 87.73V83.51C63.4799 82.9 61.6299 82.11 60.1899 81.14V81.15Z" fill="#77A4F2"/>
<path d="M94.0199 81.15C92.5799 82.12 90.7299 82.91 88.6499 83.52V87.74C89.7299 87.37 90.6999 86.96 91.5199 86.49C93.1099 85.59 94.0199 84.58 94.0199 83.73V81.16V81.15Z" fill="white"/>
<path d="M97.2199 75.54C96.5399 70.12 86.5399 67.2 77.1099 67.2C67.6799 67.2 57.6799 70.12 56.9999 75.54H56.9599V76.13V83.53V83.81V91.2V91.22V94.91C55.8599 94.98 54.7599 95.08 53.6899 95.23V64.32H53.6499C52.9699 58.9 42.9699 55.98 33.5399 55.98C24.1099 55.98 14.1099 58.9 13.4299 64.32H13.3899V95.61V103.79C13.3899 103.79 13.3899 103.83 13.3899 103.85C13.3899 103.86 13.3899 103.87 13.3899 103.88C13.3899 103.92 13.3899 103.96 13.3899 104C13.3899 104.04 13.3899 104.07 13.3899 104.11C13.6599 109.76 23.8899 112.81 33.5299 112.81C35.5599 112.81 37.6099 112.67 39.5999 112.41V119.07C39.5999 119.07 39.5999 119.11 39.5999 119.13C39.5999 119.14 39.5999 119.15 39.5999 119.16C39.5999 119.2 39.5999 119.24 39.5999 119.28C39.5999 119.32 39.5999 119.35 39.5999 119.39C39.8699 125.04 50.0999 128.09 59.7399 128.09C69.3799 128.09 79.5999 125.04 79.8799 119.39C79.8799 119.35 79.8799 119.32 79.8799 119.28C79.8799 119.24 79.8799 119.2 79.8799 119.16C79.8799 119.15 79.8799 119.14 79.8799 119.13C79.8799 119.11 79.8799 119.09 79.8799 119.07V107.73C88.5999 107.2 96.9799 104.22 97.2199 99.12C97.2199 99.08 97.2199 99.05 97.2199 99.01C97.2199 98.97 97.2199 98.93 97.2199 98.89C97.2199 98.88 97.2199 98.87 97.2199 98.86C97.2199 98.84 97.2199 98.82 97.2199 98.8V75.55H97.1799L97.2199 75.54ZM16.6299 64.91C16.6299 63.72 18.3199 62.32 21.0299 61.25C24.3499 59.94 28.7899 59.22 33.5399 59.22C43.8599 59.22 50.4499 62.59 50.4499 64.91C50.4499 66.1 48.7599 67.5 46.0499 68.57C42.7299 69.88 38.2899 70.6 33.5399 70.6C23.2199 70.6 16.6299 67.23 16.6299 64.91ZM60.1999 76.13C60.1999 74.94 61.8899 73.54 64.5999 72.47C67.9199 71.16 72.3599 70.44 77.1099 70.44C87.4299 70.44 94.0199 73.81 94.0199 76.13C94.0199 77.32 92.3299 78.72 89.6199 79.79C86.2999 81.1 81.8599 81.82 77.1099 81.82C66.7899 81.82 60.1999 78.45 60.1999 76.13ZM75.4899 92.72V96.79C74.1799 96.74 72.8999 96.64 71.6699 96.49C70.7599 96.21 69.7999 95.96 68.8099 95.75V91.99C70.9399 92.4 73.2199 92.65 75.4999 92.73L75.4899 92.72ZM78.7299 96.79V92.72C80.9999 92.64 83.2799 92.39 85.4199 91.98V96.01C83.3799 96.44 81.0999 96.7 78.7299 96.79ZM75.4899 85.03V89.38C73.1299 89.3 70.8499 89.03 68.8099 88.6V84.29C70.9399 84.7 73.2199 84.95 75.4899 85.03ZM65.5599 91.21V95.15C64.4899 94.78 63.5199 94.36 62.6899 93.9C61.0999 93 60.1899 91.99 60.1899 91.14V88.85C61.6299 89.81 63.4799 90.61 65.5599 91.22V91.21ZM91.5199 93.9C90.6899 94.37 89.7299 94.79 88.6499 95.15V91.21C90.7299 90.6 92.5699 89.8 94.0199 88.84V91.13C94.0199 91.99 93.1099 93 91.5199 93.89V93.9ZM78.7299 89.39V85.04C80.9999 84.96 83.2799 84.71 85.4199 84.3V88.61C83.3799 89.04 81.0999 89.3 78.7299 89.39ZM65.5599 83.52V87.74C64.4899 87.37 63.5199 86.95 62.6899 86.49C61.0999 85.59 60.1899 84.58 60.1899 83.73V81.16C61.6299 82.12 63.4799 82.92 65.5599 83.53V83.52ZM78.7199 100.13C80.9999 100.05 83.2699 99.8 85.4099 99.39V103.68C83.7099 104.04 81.8399 104.28 79.8899 104.4V103.17H79.8499C79.7299 102.23 79.3399 101.37 78.7099 100.59V100.12L78.7199 100.13ZM91.5199 101.57C90.6899 102.04 89.7299 102.46 88.6499 102.82V98.62C90.7299 98.01 92.5699 97.21 94.0199 96.25V98.81C94.0199 99.67 93.1099 100.68 91.5199 101.57ZM94.0199 83.73C94.0199 84.59 93.1099 85.6 91.5199 86.49C90.6899 86.96 89.7299 87.38 88.6499 87.74V83.52C90.7299 82.91 92.5699 82.11 94.0199 81.15V83.72V83.73ZM50.4499 95.81C48.4799 96.24 46.6499 96.82 45.0799 97.53V95.94C47.1599 95.33 49.0099 94.53 50.4499 93.57V95.82V95.81ZM61.3699 117.02V112.67C63.6399 112.59 65.9199 112.34 68.0599 111.93V116.24C66.0199 116.67 63.7399 116.93 61.3699 117.02ZM58.1299 112.67V117.02C55.7699 116.94 53.4899 116.67 51.4499 116.24V111.93C53.5799 112.34 55.8599 112.59 58.1299 112.67ZM41.8499 93.03C39.7999 93.46 37.5299 93.72 35.1599 93.81V89.46C37.4299 89.38 39.7099 89.13 41.8499 88.72V93.03ZM41.8499 85.04C39.7999 85.47 37.5299 85.73 35.1599 85.82V81.52C37.4299 81.44 39.7099 81.19 41.8499 80.78V85.04ZM31.9199 81.52V85.82C29.5599 85.74 27.2799 85.47 25.2399 85.04V80.78C27.3699 81.19 29.6499 81.44 31.9199 81.52ZM31.9199 89.46V93.81C29.5599 93.73 27.2799 93.46 25.2399 93.03V88.72C27.3699 89.13 29.6499 89.38 31.9199 89.46ZM31.9199 97.45V101.8C29.5599 101.72 27.2799 101.45 25.2399 101.02V96.71C27.3699 97.12 29.6499 97.37 31.9199 97.45ZM35.1599 101.8V97.45C37.4299 97.37 39.7099 97.12 41.8499 96.71V99.5C41.1999 100.06 40.6699 100.66 40.2899 101.31C38.6699 101.57 36.9399 101.74 35.1599 101.8ZM47.9499 90.91C47.1199 91.38 46.1599 91.8 45.0799 92.16V87.94C47.1599 87.33 48.9999 86.53 50.4499 85.57V88.14C50.4499 89 49.5399 90.01 47.9499 90.9V90.91ZM47.9499 82.92C47.1199 83.39 46.1599 83.81 45.0799 84.17V80C47.1599 79.39 48.9999 78.59 50.4499 77.63V80.15C50.4499 81.01 49.5399 82.02 47.9499 82.91V82.92ZM41.8499 77.4C39.7999 77.83 37.5299 78.09 35.1599 78.18V73.83C37.4299 73.75 39.7099 73.5 41.8499 73.09V77.4ZM31.9199 73.82V78.17C29.5599 78.09 27.2799 77.82 25.2399 77.39V73.08C27.3699 73.49 29.6499 73.74 31.9199 73.82ZM21.9899 80V84.17C20.9199 83.8 19.9499 83.38 19.1199 82.92C17.5299 82.02 16.6199 81.01 16.6199 80.16V77.64C18.0599 78.6 19.9099 79.4 21.9899 80.01V80ZM21.9899 87.94V92.16C20.9199 91.79 19.9499 91.37 19.1199 90.91C17.5299 90.01 16.6199 89 16.6199 88.15V85.58C18.0599 86.54 19.9099 87.34 21.9899 87.95V87.94ZM21.9899 95.93V100.15C20.9199 99.78 19.9499 99.36 19.1199 98.9C17.5299 98 16.6199 96.99 16.6199 96.14V93.57C18.0599 94.53 19.9099 95.33 21.9899 95.94V95.93ZM35.1499 105.13C36.6499 105.08 38.1399 104.95 39.5999 104.76V109.08C38.1799 109.28 36.6899 109.41 35.1599 109.47V105.13H35.1499ZM61.3599 120.39C63.6399 120.31 65.9099 120.06 68.0499 119.65V123.96C66.0099 124.39 63.7299 124.65 61.3599 124.74V120.39ZM74.1499 114.12C73.3199 114.59 72.3599 115.01 71.2799 115.37V111.15C73.3599 110.54 75.1999 109.74 76.6499 108.78V111.35C76.6499 112.21 75.7399 113.22 74.1499 114.11V114.12ZM48.1899 111.15V115.37C47.1199 115 46.1499 114.58 45.3199 114.12C43.7299 113.22 42.8199 112.21 42.8199 111.36V108.79C44.2599 109.75 46.1099 110.55 48.1899 111.16V111.15ZM50.4299 72.51C50.4299 73.37 49.5199 74.38 47.9299 75.27C47.0999 75.74 46.1399 76.16 45.0599 76.52V72.3C47.1399 71.69 48.9799 70.89 50.4299 69.93V72.5V72.51ZM21.9699 72.31V76.53C20.8999 76.16 19.9299 75.74 19.0999 75.28C17.5099 74.38 16.5999 73.37 16.5999 72.52V69.95C18.0399 70.91 19.8899 71.71 21.9699 72.32V72.31ZM31.8999 105.13V109.47C29.5399 109.39 27.2599 109.12 25.2199 108.69V104.39C27.3499 104.8 29.6299 105.05 31.8999 105.13ZM58.1099 120.39V124.74C55.7499 124.66 53.4699 124.39 51.4299 123.96V119.65C53.5599 120.06 55.8399 120.31 58.1099 120.39ZM74.1499 121.85C73.3199 122.32 72.3599 122.74 71.2799 123.1V118.88C73.3599 118.27 75.1999 117.47 76.6499 116.51V119.08C76.6499 119.94 75.7399 120.95 74.1499 121.84V121.85ZM21.9699 103.62V107.82C20.8999 107.45 19.9299 107.03 19.0999 106.57C17.5099 105.67 16.5999 104.66 16.5999 103.81V101.25C18.0399 102.21 19.8899 103.01 21.9699 103.62ZM48.1799 118.88V123.1C47.1099 122.73 46.1399 122.31 45.3099 121.85C43.7199 120.95 42.8099 119.94 42.8099 119.09V116.52C44.2499 117.48 46.0999 118.28 48.1799 118.89V118.88ZM59.7299 98.07C70.0499 98.07 76.6399 101.44 76.6399 103.76C76.6399 104.95 74.9499 106.35 72.2399 107.42C68.9199 108.73 64.4799 109.45 59.7299 109.45C49.4099 109.45 42.8199 106.08 42.8199 103.76C42.8199 102.57 44.5099 101.17 47.2199 100.1C50.5399 98.79 54.9799 98.07 59.7299 98.07Z" fill="#503EAA"/>
<path d="M77.11 81.82C81.86 81.82 86.3 81.1 89.62 79.79C92.34 78.72 94.0199 77.31 94.0199 76.13C94.0199 73.81 87.43 70.44 77.11 70.44C72.36 70.44 67.9199 71.16 64.5999 72.47C61.8799 73.54 60.2 74.95 60.2 76.13C60.2 78.45 66.79 81.82 77.11 81.82Z" fill="white"/>
<path d="M31.92 109.46V105.12C29.64 105.04 27.36 104.79 25.23 104.38V108.68C27.28 109.11 29.55 109.37 31.92 109.46Z" fill="#77A4F2"/>
<path d="M39.5999 104.75C38.1399 104.95 36.6499 105.07 35.1499 105.12V109.46C36.6899 109.41 38.1799 109.28 39.5999 109.07V104.75Z" fill="#C0DBFF"/>
<path d="M19.1199 106.56C19.9499 107.03 20.9199 107.45 21.9899 107.81V103.61C19.8999 103 18.0599 102.2 16.6199 101.24V103.8C16.6199 104.66 17.5299 105.67 19.1199 106.56Z" fill="#77A4F2"/>
<path d="M41.8399 99.49V96.7C39.6999 97.11 37.4199 97.36 35.1499 97.44V101.79C36.9399 101.73 38.6699 101.56 40.2899 101.3C40.6699 100.65 41.1999 100.05 41.8499 99.49H41.8399Z" fill="#C0DBFF"/>
<path d="M25.23 101.01C27.28 101.44 29.55 101.7 31.92 101.79V97.44C29.64 97.36 27.36 97.11 25.23 96.7V101.01Z" fill="#77A4F2"/>
<path d="M45.0798 95.93V97.52C46.6498 96.81 48.4798 96.23 50.4498 95.8V93.55C49.0098 94.52 47.1598 95.31 45.0798 95.92V95.93Z" fill="white"/>
<path d="M16.6199 96.13C16.6199 96.99 17.5299 98 19.1199 98.89C19.9499 99.36 20.9199 99.78 21.9899 100.14V95.92C19.8999 95.31 18.0599 94.51 16.6199 93.55V96.12V96.13Z" fill="#77A4F2"/>
<path d="M25.23 93.02C27.28 93.45 29.55 93.71 31.92 93.8V89.45C29.64 89.37 27.36 89.12 25.23 88.71V93.02Z" fill="#77A4F2"/>
<path d="M41.8399 88.71C39.6999 89.12 37.4299 89.37 35.1499 89.45V93.8C37.5299 93.72 39.7999 93.45 41.8499 93.02V88.71H41.8399Z" fill="#C0DBFF"/>
<path d="M50.4498 85.56C49.0098 86.53 47.1598 87.32 45.0798 87.93V92.15C46.1598 91.78 47.1298 91.37 47.9498 90.9C49.5398 90 50.4498 88.99 50.4498 88.14V85.57V85.56Z" fill="white"/>
<path d="M16.6199 88.13C16.6199 88.99 17.5299 90 19.1199 90.89C19.9499 91.36 20.9199 91.78 21.9899 92.14V87.92C19.8999 87.31 18.0599 86.51 16.6199 85.55V88.12V88.13Z" fill="#77A4F2"/>
<path d="M25.23 85.03C27.28 85.46 29.55 85.72 31.92 85.81V81.51C29.64 81.43 27.36 81.18 25.23 80.77V85.03Z" fill="#77A4F2"/>
<path d="M41.8399 80.77C39.6999 81.18 37.4299 81.43 35.1499 81.51V85.81C37.5299 85.73 39.7999 85.46 41.8499 85.03V80.77H41.8399Z" fill="#C0DBFF"/>
<path d="M50.4498 77.62C49.0098 78.59 47.1598 79.38 45.0798 79.99V84.16C46.1598 83.79 47.1298 83.38 47.9498 82.91C49.5398 82.01 50.4498 81 50.4498 80.15V77.63V77.62Z" fill="white"/>
<path d="M16.6199 80.14C16.6199 81 17.5299 82.01 19.1199 82.9C19.9499 83.37 20.9199 83.79 21.9899 84.15V79.98C19.8999 79.37 18.0599 78.57 16.6199 77.61V80.13V80.14Z" fill="#77A4F2"/>
<path d="M41.8399 73.08C39.6999 73.49 37.4299 73.74 35.1499 73.82V78.17C37.5299 78.09 39.7999 77.82 41.8499 77.39V73.08H41.8399Z" fill="#C0DBFF"/>
<path d="M25.23 77.39C27.28 77.82 29.55 78.08 31.92 78.17V73.82C29.64 73.74 27.36 73.49 25.23 73.08V77.39Z" fill="#77A4F2"/>
<path d="M16.6199 69.93V72.5C16.6199 73.36 17.5299 74.37 19.1199 75.26C19.9499 75.73 20.9199 76.15 21.9899 76.51V72.29C19.8999 71.68 18.0599 70.88 16.6199 69.92V69.93Z" fill="#77A4F2"/>
<path d="M45.0798 72.3V76.52C46.1598 76.15 47.1298 75.74 47.9498 75.27C49.5398 74.37 50.4498 73.36 50.4498 72.51V69.94C49.0098 70.91 47.1598 71.7 45.0798 72.31V72.3Z" fill="white"/>
<path d="M33.5299 70.61C38.2799 70.61 42.7199 69.89 46.0399 68.58C48.7599 67.51 50.4399 66.1 50.4399 64.92C50.4399 62.6 43.8499 59.23 33.5299 59.23C28.7799 59.23 24.3399 59.95 21.0199 61.26C18.2999 62.33 16.6199 63.74 16.6199 64.92C16.6199 67.24 23.2099 70.61 33.5299 70.61Z" fill="white"/>
<path d="M68.0599 119.65C65.9199 120.06 63.6499 120.31 61.3699 120.39V124.74C63.7499 124.66 66.0199 124.39 68.0699 123.96V119.65H68.0599Z" fill="#C0DBFF"/>
<path d="M58.1299 124.74V120.39C55.8499 120.31 53.5699 120.06 51.4399 119.65V123.96C53.4899 124.39 55.7599 124.65 58.1299 124.74Z" fill="#77A4F2"/>
<path d="M45.3298 121.84C46.1598 122.31 47.1298 122.73 48.1998 123.09V118.87C46.1098 118.26 44.2698 117.46 42.8298 116.5V119.07C42.8298 119.93 43.7398 120.94 45.3298 121.83V121.84Z" fill="#77A4F2"/>
<path d="M76.6598 116.5C75.2198 117.47 73.3698 118.26 71.2898 118.87V123.09C72.3698 122.72 73.3398 122.31 74.1598 121.84C75.7498 120.94 76.6598 119.93 76.6598 119.08V116.51V116.5Z" fill="white"/>
<path d="M42.8398 108.78V111.35C42.8398 112.21 43.7498 113.22 45.3398 114.11C46.1698 114.58 47.1398 115 48.2098 115.36V111.14C46.1198 110.53 44.2798 109.73 42.8398 108.77V108.78Z" fill="#77A4F2"/>
<path d="M68.0599 111.92C65.9199 112.33 63.6499 112.58 61.3699 112.66V117.01C63.7499 116.93 66.0199 116.66 68.0699 116.23V111.92H68.0599Z" fill="#C0DBFF"/>
<path d="M51.4399 116.24C53.4899 116.67 55.7599 116.93 58.1299 117.02V112.67C55.8499 112.59 53.5699 112.34 51.4399 111.93V116.24Z" fill="#77A4F2"/>
<path d="M76.6598 108.78C75.2198 109.75 73.3698 110.54 71.2898 111.15V115.37C72.3698 115 73.3398 114.59 74.1598 114.12C75.7498 113.22 76.6598 112.21 76.6598 111.36V108.79V108.78Z" fill="white"/>
<path d="M47.2398 100.09C44.5198 101.16 42.8398 102.57 42.8398 103.75C42.8398 106.07 49.4298 109.44 59.7498 109.44C64.4998 109.44 68.9398 108.72 72.2598 107.41C74.9798 106.34 76.6598 104.93 76.6598 103.75C76.6598 101.43 70.0698 98.06 59.7498 98.06C54.9998 98.06 50.5598 98.78 47.2398 100.09Z" fill="white"/>
<path d="M77.11 70.44C76.31 70.44 75.53 70.46 74.75 70.5C83.71 70.96 89.31 73.99 89.31 76.13C89.31 77.32 87.62 78.72 84.91 79.79C82.15 80.88 78.61 81.56 74.76 81.76C75.52 81.8 76.3 81.82 77.11 81.82C81.86 81.82 86.3 81.1 89.62 79.79C92.34 78.72 94.02 77.31 94.02 76.13C94.02 73.81 87.43 70.44 77.11 70.44Z" fill="white"/>
<path d="M89.3099 76.13C89.3099 73.99 83.7099 70.96 74.75 70.5C70.9 70.7 67.3599 71.38 64.5999 72.47C61.8799 73.54 60.2 74.95 60.2 76.13C60.2 78.27 65.8 81.3 74.76 81.76C78.61 81.56 82.15 80.88 84.91 79.79C87.63 78.72 89.3099 77.31 89.3099 76.13Z" fill="#86D4C9"/>
<path d="M59.7499 98.07C58.9499 98.07 58.1699 98.09 57.3899 98.13C66.3499 98.59 71.9499 101.62 71.9499 103.76C71.9499 104.95 70.2599 106.35 67.5499 107.42C64.7899 108.51 61.2499 109.19 57.3999 109.39C58.1599 109.43 58.9399 109.45 59.7499 109.45C64.4999 109.45 68.9399 108.73 72.2599 107.42C74.9799 106.35 76.6599 104.94 76.6599 103.76C76.6599 101.44 70.0699 98.07 59.7499 98.07Z" fill="white"/>
<path d="M71.9498 103.76C71.9498 101.62 66.3498 98.59 57.3898 98.13C53.5398 98.33 49.9998 99.01 47.2398 100.1C44.5198 101.17 42.8398 102.58 42.8398 103.76C42.8398 105.9 48.4398 108.93 57.3998 109.39C61.2498 109.19 64.7898 108.51 67.5498 107.42C70.2698 106.35 71.9498 104.94 71.9498 103.76Z" fill="#86D4C9"/>
<path d="M33.5299 59.22C32.7299 59.22 31.9499 59.24 31.1699 59.28C40.1299 59.74 45.7299 62.77 45.7299 64.91C45.7299 66.1 44.0399 67.5 41.3299 68.57C38.5699 69.66 35.0299 70.34 31.1799 70.54C31.9399 70.58 32.7199 70.6 33.5299 70.6C38.2799 70.6 42.7199 69.88 46.0399 68.57C48.7599 67.5 50.4399 66.09 50.4399 64.91C50.4399 62.59 43.8499 59.22 33.5299 59.22Z" fill="white"/>
<path d="M45.7399 64.92C45.7399 62.78 40.1399 59.75 31.1799 59.29C27.3299 59.49 23.7899 60.17 21.0299 61.26C18.3099 62.33 16.6299 63.74 16.6299 64.92C16.6299 67.06 22.2299 70.09 31.1899 70.55C35.0399 70.35 38.5799 69.67 41.3399 68.58C44.0599 67.51 45.7399 66.1 45.7399 64.92Z" fill="#86D4C9"/>
</g>
<defs>
<clipPath id="clip0_2599_7005">
<rect width="117.36" height="128.1" fill="white"/>
</clipPath>
</defs>
</svg>
   