<svg width="127" height="109" viewBox="0 0 127 109" fill="none" xmlns="http://www.w3.org/2000/svg">
<g clip-path="url(#clip0_2599_7200)">
<path d="M70.3 108.16C100.168 108.16 124.38 83.9476 124.38 54.08C124.38 24.2124 100.168 0 70.3 0C40.4324 0 16.22 24.2124 16.22 54.08C16.22 83.9476 40.4324 108.16 70.3 108.16Z" fill="#8D86EB"/>
<path d="M10.4401 54.3H8.99008C7.45008 54.3 6.19008 53.05 6.19008 51.5V47.71C6.16008 47.34 5.84008 47.07 5.47008 47.1C5.15008 47.13 4.89008 47.38 4.86008 47.71V51.5C4.86008 53.04 3.61008 54.3 2.06008 54.3H0.610078C0.240078 54.33 -0.0299216 54.65 7.83808e-05 55.02C0.0300784 55.34 0.280078 55.6 0.610078 55.63H2.07008C3.61008 55.63 4.87008 56.88 4.87008 58.43V62.22C4.90008 62.59 5.22008 62.86 5.59008 62.83C5.91008 62.8 6.17008 62.55 6.20008 62.22V58.43C6.20008 56.89 7.45008 55.63 9.00008 55.63H10.4501C10.8201 55.66 11.1401 55.39 11.1701 55.02C11.2001 54.65 10.9301 54.33 10.5601 54.3C10.5201 54.3 10.4901 54.3 10.4501 54.3H10.4401Z" fill="#8D86EB"/>
<path d="M125.83 13H124.38C122.84 13 121.58 11.75 121.58 10.2V6.41C121.55 6.04 121.23 5.77 120.86 5.8C120.54 5.83 120.28 6.08 120.25 6.41V10.2C120.25 11.74 119 13 117.45 13H115.99C115.62 13.03 115.35 13.35 115.38 13.72C115.41 14.04 115.66 14.3 115.99 14.33H117.45C118.99 14.33 120.25 15.58 120.25 17.13V20.92C120.28 21.29 120.6 21.56 120.97 21.53C121.29 21.5 121.55 21.25 121.58 20.92V17.13C121.58 15.59 122.83 14.33 124.38 14.33H125.83C126.2 14.36 126.52 14.09 126.55 13.72C126.58 13.35 126.31 13.03 125.94 13C125.9 13 125.87 13 125.83 13Z" fill="#8D86EB"/>
<path d="M39.4801 21.43L70.4701 8.91L101.5 21.43L113.91 46.3L108.83 48.58L97.1601 25.19L70.4701 14.8L43.7801 25.19L32.1101 48.58L27.0901 46.3L39.4901 21.43H39.4801Z" fill="#77A4F2"/>
<path d="M108.83 50C108.31 50 107.81 49.71 107.56 49.21L96.13 26.31L70.46 16.32L44.79 26.31L33.36 49.21C33.02 49.89 32.2 50.19 31.5 49.87L26.48 47.59C26.13 47.43 25.86 47.14 25.73 46.77C25.6 46.41 25.63 46.01 25.8 45.66L38.2 20.79C38.35 20.48 38.62 20.24 38.94 20.11L69.93 7.59C70.27 7.45 70.65 7.45 70.99 7.59L102.02 20.11C102.34 20.24 102.6 20.48 102.76 20.79L115.17 45.66C115.34 46.01 115.37 46.41 115.24 46.77C115.11 47.13 114.84 47.43 114.48 47.59L109.4 49.87C109.21 49.95 109.01 50 108.82 50H108.83ZM70.46 13.38C70.63 13.38 70.81 13.41 70.97 13.48L97.66 23.87C97.99 24 98.26 24.24 98.42 24.56L109.48 46.74L111.97 45.62L100.46 22.55L70.46 10.45L40.5 22.55L29 45.63L31.43 46.74L42.49 24.57C42.65 24.25 42.92 24.01 43.25 23.88L69.94 13.49C70.11 13.43 70.28 13.39 70.45 13.39L70.46 13.38Z" fill="#503EAA"/>
<path d="M97.1899 25.19L70.4999 14.8L43.8099 25.19L32.1399 48.58V75.22H108.86V48.58L97.1899 25.19Z" fill="#C0DBFF"/>
<path d="M110.28 76.64H30.71V48.25L42.78 24.07L70.5 13.28L98.22 24.07L110.29 48.25V76.64H110.28ZM33.55 73.8H107.44V48.92L96.16 26.31L70.49 16.32L44.82 26.31L33.54 48.92V73.8H33.55Z" fill="#503EAA"/>
<path d="M108.66 49.15H104.5V75.23H108.66V49.15Z" fill="white"/>
<path d="M70.46 8.91L101.49 21.43L113.9 46.3L108.82 48.58L97.15 25.19L70.46 14.8" fill="white"/>
<path d="M32.8101 48.58L43.7701 25.19L70.46 14.8L97.1501 25.19L108.82 48.58L104.36 50.19L93.9701 28.99L70.45 19.91L46.93 28.99L36.8301 48.6L36.8 74.5H32.8301L32.8 48.58H32.8101Z" fill="#77A4F2"/>
<path d="M108.83 50C108.31 50 107.81 49.71 107.56 49.21L96.13 26.31L70.46 16.32L44.79 26.31L33.36 49.21C33.02 49.89 32.2 50.19 31.5 49.87L26.48 47.59C26.13 47.43 25.86 47.14 25.73 46.77C25.6 46.41 25.63 46.01 25.8 45.66L38.2 20.79C38.35 20.48 38.62 20.24 38.94 20.11L69.93 7.59C70.27 7.45 70.65 7.45 70.99 7.59L102.02 20.11C102.34 20.24 102.6 20.48 102.76 20.79L115.17 45.66C115.34 46.01 115.37 46.41 115.24 46.77C115.11 47.13 114.84 47.43 114.48 47.59L109.4 49.87C109.21 49.95 109.01 50 108.82 50H108.83ZM70.46 13.38C70.63 13.38 70.81 13.41 70.97 13.48L97.66 23.87C97.99 24 98.26 24.24 98.42 24.56L109.48 46.74L111.97 45.62L100.46 22.55L70.46 10.45L40.5 22.55L29 45.63L31.43 46.74L42.49 24.57C42.65 24.25 42.92 24.01 43.25 23.88L69.94 13.49C70.11 13.43 70.28 13.39 70.45 13.39L70.46 13.38Z" fill="#503EAA"/>
<path d="M89.6301 74.36C89.3501 74.36 89.0601 74.3 88.7901 74.17L50.5201 55.76C49.5501 55.29 49.1401 54.13 49.6101 53.16C50.0801 52.19 51.2401 51.78 52.2101 52.25L90.4801 70.66C91.4501 71.13 91.8601 72.29 91.3901 73.26C91.0501 73.96 90.3601 74.37 89.6301 74.37V74.36Z" fill="white"/>
<path d="M87.2101 55.45V70.53H53.5001V55.45H87.2001H87.2101ZM91.1001 51.55H49.6001V74.43H91.1101V51.55H91.1001Z" fill="white"/>
<path d="M82.13 30.42H59.51V38.77H82.13V30.42Z" fill="#77A4F2"/>
<path d="M82.1301 40.2H59.5101C58.7301 40.2 58.0901 39.56 58.0901 38.78V30.43C58.0901 29.65 58.7301 29.01 59.5101 29.01H82.1301C82.9101 29.01 83.5501 29.65 83.5501 30.43V38.78C83.5501 39.56 82.9101 40.2 82.1301 40.2ZM60.9301 37.36H80.7101V31.84H60.9301V37.36Z" fill="#503EAA"/>
<path d="M51.36 74.44C50.62 74.44 49.92 74.02 49.59 73.31C49.14 72.33 49.56 71.17 50.54 70.72L88.81 52.89C89.79 52.43 90.95 52.86 91.4 53.83C91.85 54.81 91.43 55.97 90.45 56.42L52.18 74.25C51.91 74.37 51.63 74.43 51.36 74.43V74.44Z" fill="white"/>
<path d="M95.0699 45.43H45.9199V50.77H95.0699V45.43Z" fill="#77A4F2"/>
<path d="M95.07 52.19H45.92C45.14 52.19 44.5 51.55 44.5 50.77V45.43C44.5 44.65 45.14 44.01 45.92 44.01H95.07C95.85 44.01 96.49 44.65 96.49 45.43V50.77C96.49 51.55 95.85 52.19 95.07 52.19ZM47.34 49.35H93.65V46.85H47.34V49.35Z" fill="#503EAA"/>
<path d="M92.4401 76.47H48.2701C47.4901 76.47 46.8501 75.83 46.8501 75.05V50.77C46.8501 49.99 47.4901 49.35 48.2701 49.35H92.4501C93.2301 49.35 93.8701 49.99 93.8701 50.77V75.05C93.8701 75.83 93.2301 76.47 92.4501 76.47H92.4401ZM49.6801 73.63H91.0201V52.19H49.6901V73.63H49.6801Z" fill="#503EAA"/>
<path d="M110.28 76.64H30.71V48.25L42.78 24.07L70.5 13.28L98.22 24.07L110.29 48.25V76.64H110.28ZM33.55 73.8H107.44V48.92L96.16 26.31L70.49 16.32L44.82 26.31L33.54 48.92V73.8H33.55Z" fill="#503EAA"/>
<path d="M38.6001 91.77C38.6001 91.77 38.2701 95.45 35.7801 97.84C33.3001 100.22 29.6001 100.41 29.6001 100.41C29.6001 100.41 29.9301 96.73 32.4201 94.34C34.9101 91.95 38.6001 91.77 38.6001 91.77Z" fill="#503EAA"/>
<path d="M29.6101 101.01C29.4501 101.01 29.2901 100.94 29.1801 100.82C29.0601 100.69 29.0001 100.52 29.0101 100.35C29.0201 100.19 29.3901 96.41 32.0101 93.9C34.6301 91.39 38.4101 91.17 38.5701 91.16C38.7401 91.16 38.9101 91.22 39.0301 91.34C39.1501 91.47 39.2101 91.64 39.2001 91.81C39.1901 91.97 38.8201 95.75 36.2001 98.26C33.5801 100.77 29.8001 100.99 29.6401 101H29.6101V101.01ZM37.8801 92.47C36.7301 92.66 34.4801 93.21 32.8401 94.78C31.2001 96.36 30.5601 98.58 30.3301 99.72C31.4801 99.53 33.7301 98.98 35.3701 97.41C37.0101 95.84 37.6501 93.62 37.8801 92.47Z" fill="#503EAA"/>
<path d="M20.01 91.77C20.01 91.77 20.34 95.45 22.83 97.84C25.32 100.23 29.01 100.41 29.01 100.41C29.01 100.41 28.68 96.73 26.19 94.34C23.7 91.95 20.01 91.77 20.01 91.77Z" fill="#503EAA"/>
<path d="M29 101.01H28.97C28.81 101.01 25.02 100.79 22.41 98.27C19.8 95.75 19.43 91.98 19.41 91.82C19.39 91.65 19.45 91.47 19.58 91.35C19.7 91.22 19.87 91.16 20.04 91.17C20.2 91.17 23.99 91.39 26.6 93.91C29.21 96.43 29.58 100.2 29.6 100.36C29.62 100.53 29.56 100.71 29.43 100.83C29.32 100.95 29.16 101.02 29 101.02V101.01ZM20.73 92.47C20.96 93.62 21.61 95.84 23.24 97.41C24.88 98.98 27.12 99.53 28.28 99.72C28.05 98.57 27.4 96.35 25.77 94.78C24.13 93.21 21.89 92.66 20.73 92.47Z" fill="#503EAA"/>
<path d="M29.31 101.06C28.31 101.06 27.5 100.25 27.5 99.25V73.24C27.5 72.24 28.31 71.43 29.31 71.43C30.31 71.43 31.12 72.24 31.12 73.24V99.25C31.12 100.25 30.31 101.06 29.31 101.06Z" fill="#503EAA"/>
<path d="M24.9102 76.43L20.9802 77.57C20.9802 77.57 20.8202 79.56 21.2002 81.28C21.4302 82.31 22.0002 83.3 22.9202 84.1C22.9502 84.12 22.9702 84.15 23.0002 84.17C26.3902 87.05 31.9302 87.04 35.2902 84.14C35.3202 84.12 35.3402 84.09 35.3702 84.07C36.2802 83.27 36.8502 82.28 37.0702 81.24C37.4502 79.52 37.2502 77.25 37.2502 77.25C37.2502 77.25 35.3002 76.29 35.2702 76.27C31.8802 73.39 28.2702 73.54 24.9002 76.44L24.9102 76.43Z" fill="#503EAA"/>
<path d="M29.1301 87.51C26.6301 87.51 24.1301 86.7 22.2201 85.07L22.1301 84.99C21.0501 84.05 20.3201 82.85 20.0301 81.53C19.6101 79.65 19.7801 77.55 19.7801 77.46L19.8501 76.63L20.6501 76.4C21.8401 76.06 23.7001 75.53 24.3201 75.35C28.1201 72.19 32.2401 72.15 35.9501 75.25C36.2501 75.4 37.1501 75.85 37.7901 76.16L38.4001 76.46L38.4601 77.14C38.4601 77.24 38.6701 79.61 38.2601 81.49C37.9701 82.81 37.2501 84.01 36.1801 84.96L36.0801 85.04C34.1701 86.69 31.6501 87.51 29.1301 87.51ZM22.1501 78.48C22.1501 79.15 22.1801 80.13 22.3801 81.01C22.5601 81.83 23.0201 82.58 23.7101 83.18L23.7801 83.24C26.7001 85.72 31.6101 85.71 34.5101 83.21L34.5801 83.15C35.2701 82.54 35.7301 81.79 35.9001 80.97C36.1201 79.98 36.1201 78.75 36.0901 78.01C34.6301 77.29 34.6201 77.28 34.4901 77.17C31.6201 74.73 28.6601 74.78 25.6901 77.34C25.4801 77.52 25.4601 77.54 22.1501 78.48Z" fill="#503EAA"/>
<path d="M23.57 73.75C23.57 73.75 23.52 73.79 23.5 73.81C21.31 75.73 21.32 78.82 23.52 80.72C23.54 80.74 23.57 80.76 23.59 80.78C26.65 83.36 31.64 83.34 34.69 80.75C34.71 80.73 34.74 80.71 34.76 80.69C36.95 78.77 36.94 75.68 34.74 73.78C34.72 73.76 34.69 73.74 34.67 73.72C31.61 71.14 26.62 71.16 23.57 73.75Z" fill="#86D4C9"/>
<path d="M34.7602 74.04L34.6902 73.98C33.1402 72.62 31.0202 72.05 28.9902 72.26C30.4702 72.41 31.9102 72.99 33.0402 73.98L33.1102 74.04C35.0502 75.78 35.0602 78.61 33.1302 80.37L33.0702 80.43C31.9302 81.44 30.4802 82.02 28.9802 82.18C31.0302 82.39 33.1602 81.81 34.7202 80.43L34.7802 80.37C36.7102 78.62 36.7002 75.79 34.7602 74.04Z" fill="white"/>
<path d="M29.8202 82.82C29.5202 82.82 29.2202 82.8 28.9102 82.77L23.1702 82.17L28.9102 81.57C30.3502 81.42 31.6502 80.87 32.6602 79.97L32.7202 79.92C33.5202 79.19 33.9702 78.22 33.9602 77.2C33.9602 76.18 33.5102 75.22 32.7002 74.49L32.6402 74.44C31.6402 73.56 30.3502 73.02 28.9202 72.87L23.1902 72.27L28.9202 71.67C31.2102 71.43 33.4602 72.11 35.0802 73.53L35.1502 73.59C36.2202 74.55 36.8102 75.83 36.8102 77.2C36.8102 78.57 36.2302 79.85 35.1702 80.82L35.1002 80.88C33.6802 82.13 31.7902 82.82 29.8002 82.82H29.8202ZM34.2202 74.36C34.8402 75.19 35.1702 76.17 35.1802 77.2C35.1802 78.24 34.8502 79.23 34.2202 80.07C34.2602 80.04 34.2902 80.01 34.3202 79.98L34.3802 79.93C35.1902 79.2 35.6302 78.23 35.6302 77.21C35.6302 76.19 35.1802 75.23 34.3702 74.5L34.3102 74.45C34.3102 74.45 34.2502 74.4 34.2202 74.38V74.36Z" fill="white"/>
<path d="M29.1201 84.56C26.6001 84.56 24.0901 83.75 22.1601 82.13L22.0701 82.05C20.6101 80.79 19.8101 79.1 19.8001 77.28C19.7901 75.46 20.5901 73.77 22.0401 72.5L22.1301 72.42C25.9701 69.14 32.2301 69.13 36.0901 72.38L36.1801 72.46C37.6401 73.72 38.4401 75.41 38.4501 77.23C38.4501 79.04 37.6601 80.74 36.2101 82.01L36.1201 82.09C34.1901 83.74 31.6501 84.56 29.1101 84.56H29.1201ZM29.1501 72.37C27.1601 72.37 25.1801 73 23.7101 74.26L23.6401 74.32C22.7201 75.12 22.2201 76.17 22.2201 77.28C22.2201 78.39 22.7301 79.43 23.6501 80.23L23.7201 80.29C26.6701 82.78 31.6301 82.76 34.5701 80.26L34.6401 80.2C35.5601 79.4 36.0601 78.34 36.0601 77.24C36.0601 76.13 35.5501 75.09 34.6301 74.29L34.5601 74.23C33.0901 72.99 31.1301 72.37 29.1601 72.37H29.1501Z" fill="#503EAA"/>
<path d="M66.02 91.77C66.02 91.77 65.69 95.45 63.2 97.84C60.71 100.23 57.02 100.41 57.02 100.41C57.02 100.41 57.35 96.73 59.84 94.34C62.33 91.95 66.02 91.77 66.02 91.77Z" fill="#503EAA"/>
<path d="M57.03 101.01C56.87 101.01 56.71 100.94 56.6 100.82C56.48 100.69 56.42 100.52 56.43 100.35C56.44 100.19 56.81 96.41 59.43 93.9C62.05 91.39 65.83 91.17 65.99 91.16C66.16 91.16 66.33 91.22 66.45 91.34C66.57 91.47 66.63 91.64 66.62 91.81C66.61 91.97 66.24 95.75 63.62 98.26C61 100.77 57.22 100.99 57.06 101H57.03V101.01ZM65.3 92.47C64.15 92.66 61.9 93.21 60.26 94.78C58.62 96.36 57.98 98.58 57.75 99.72C58.9 99.53 61.15 98.98 62.79 97.41C64.43 95.84 65.07 93.62 65.3 92.47Z" fill="#503EAA"/>
<path d="M47.4299 91.77C47.4299 91.77 47.7599 95.45 50.2499 97.84C52.7299 100.22 56.4299 100.41 56.4299 100.41C56.4299 100.41 56.0999 96.73 53.6099 94.34C51.1299 91.96 47.4299 91.77 47.4299 91.77Z" fill="#503EAA"/>
<path d="M56.4199 101.01H56.3899C56.2299 101.01 52.4399 100.79 49.8299 98.27C47.2199 95.75 46.8499 91.98 46.8299 91.82C46.8099 91.65 46.8699 91.47 46.9999 91.35C47.1199 91.22 47.2899 91.16 47.4599 91.17C47.6199 91.17 51.4099 91.39 54.0199 93.91C56.6399 96.42 56.9999 100.2 57.0199 100.36C57.0399 100.53 56.9799 100.71 56.8499 100.83C56.7399 100.95 56.5799 101.02 56.4199 101.02V101.01ZM48.1499 92.47C48.3799 93.62 49.0299 95.84 50.6599 97.41C52.2999 98.98 54.5399 99.53 55.6999 99.72C55.4699 98.57 54.8199 96.35 53.1899 94.78C51.5499 93.21 49.3099 92.66 48.1499 92.47Z" fill="#503EAA"/>
<path d="M56.7199 101.06C55.7199 101.06 54.9099 100.25 54.9099 99.25V73.24C54.9099 72.24 55.7199 71.43 56.7199 71.43C57.7199 71.43 58.5299 72.24 58.5299 73.24V99.25C58.5299 100.25 57.7199 101.06 56.7199 101.06Z" fill="#503EAA"/>
<path d="M52.3301 76.43L48.4001 77.57C48.4001 77.57 48.2401 79.56 48.6201 81.28C48.8501 82.31 49.4201 83.3 50.3401 84.1C50.3701 84.12 50.3901 84.15 50.4201 84.17C53.8101 87.05 59.3501 87.04 62.7101 84.14C62.7401 84.12 62.7601 84.09 62.7901 84.07C63.7001 83.27 64.2701 82.28 64.4901 81.24C64.8701 79.52 64.6701 77.25 64.6701 77.25C64.6701 77.25 62.7201 76.29 62.6901 76.27C59.3001 73.39 55.6901 73.54 52.3201 76.44L52.3301 76.43Z" fill="#503EAA"/>
<path d="M56.54 87.51C54.04 87.51 51.54 86.7 49.63 85.07L49.54 84.99C48.46 84.05 47.73 82.85 47.44 81.53C47.02 79.65 47.19 77.55 47.19 77.46L47.26 76.63L48.06 76.4C49.25 76.06 51.11 75.53 51.73 75.35C55.53 72.19 59.65 72.15 63.36 75.25C63.66 75.4 64.56 75.85 65.2 76.16L65.81 76.46L65.87 77.14C65.87 77.24 66.08 79.61 65.67 81.49C65.38 82.81 64.66 84.01 63.59 84.96L63.49 85.04C61.58 86.69 59.06 87.51 56.54 87.51ZM49.56 78.48C49.56 79.15 49.59 80.13 49.79 81.01C49.97 81.83 50.43 82.58 51.12 83.18L51.19 83.24C54.11 85.72 59.02 85.71 61.92 83.21L61.99 83.15C62.68 82.54 63.14 81.79 63.31 80.97C63.53 79.98 63.53 78.75 63.5 78.01C62.04 77.29 62.03 77.28 61.9 77.17C59.03 74.73 56.07 74.78 53.1 77.34C52.89 77.52 52.87 77.54 49.56 78.48Z" fill="#503EAA"/>
<path d="M50.99 73.75C50.99 73.75 50.94 73.79 50.92 73.81C48.73 75.73 48.74 78.82 50.94 80.72C50.96 80.74 50.99 80.76 51.01 80.78C54.07 83.36 59.06 83.34 62.11 80.75C62.13 80.73 62.16 80.71 62.18 80.69C64.37 78.77 64.36 75.68 62.16 73.78C62.14 73.76 62.11 73.74 62.09 73.72C59.03 71.14 54.04 71.16 50.99 73.75Z" fill="#86D4C9"/>
<path d="M62.1801 74.04L62.1101 73.98C60.5601 72.62 58.4401 72.05 56.4101 72.26C57.8901 72.41 59.3301 72.99 60.4601 73.98L60.5301 74.04C62.4701 75.78 62.4801 78.61 60.5501 80.37L60.4901 80.43C59.3501 81.44 57.9001 82.02 56.4001 82.18C58.4501 82.39 60.5801 81.81 62.1401 80.43L62.2001 80.37C64.1301 78.62 64.1201 75.79 62.1801 74.04Z" fill="white"/>
<path d="M57.2301 82.82C56.9301 82.82 56.6301 82.8 56.3201 82.77L50.5801 82.17L56.3201 81.57C57.7601 81.42 59.0601 80.87 60.0701 79.97L60.1301 79.92C60.9301 79.19 61.3801 78.22 61.3701 77.2C61.3701 76.18 60.9201 75.22 60.1101 74.49L60.0501 74.44C59.0501 73.56 57.7601 73.02 56.3301 72.87L50.6001 72.27L56.3301 71.67C58.6201 71.43 60.8701 72.11 62.4901 73.53L62.5601 73.59C63.6301 74.55 64.2201 75.83 64.2201 77.2C64.2201 78.57 63.6401 79.85 62.5801 80.82L62.5101 80.88C61.0901 82.13 59.2001 82.82 57.2101 82.82H57.2301ZM61.6301 74.36C62.2501 75.19 62.5801 76.17 62.5901 77.2C62.5901 78.24 62.2601 79.23 61.6301 80.07C61.6701 80.04 61.7001 80.01 61.7301 79.98L61.7901 79.93C62.6001 79.2 63.0401 78.23 63.0401 77.21C63.0401 76.19 62.5901 75.23 61.7801 74.5L61.7201 74.45C61.7201 74.45 61.6601 74.4 61.6301 74.38V74.36Z" fill="white"/>
<path d="M56.5301 84.56C54.0101 84.56 51.5001 83.75 49.5701 82.13L49.4801 82.05C48.0201 80.79 47.2201 79.1 47.2101 77.28C47.2001 75.46 48.0001 73.77 49.4501 72.5L49.5401 72.42C53.3801 69.14 59.6401 69.13 63.5001 72.38L63.5901 72.46C65.0501 73.72 65.8501 75.41 65.8601 77.23C65.8601 79.04 65.0701 80.74 63.6201 82.01L63.5301 82.09C61.6001 83.74 59.0601 84.56 56.5201 84.56H56.5301ZM56.5601 72.37C54.5701 72.37 52.5901 73 51.1201 74.26L51.0501 74.32C50.1301 75.12 49.6301 76.17 49.6301 77.28C49.6301 78.39 50.1401 79.43 51.0601 80.23L51.1301 80.29C54.0801 82.78 59.0401 82.76 61.9801 80.26L62.0501 80.2C62.9701 79.4 63.4701 78.34 63.4701 77.24C63.4701 76.13 62.9601 75.09 62.0401 74.29L61.9701 74.23C60.5001 72.99 58.5401 72.37 56.5701 72.37H56.5601Z" fill="#503EAA"/>
<path d="M74.73 91.66C74.73 91.66 75.07 95.39 77.58 97.8C80.09 100.21 83.83 100.4 83.83 100.4C83.83 100.4 83.49 96.67 80.98 94.26C78.47 91.85 74.73 91.66 74.73 91.66Z" fill="#503EAA"/>
<path d="M83.8301 101.01H83.8001C83.6401 101.01 79.8001 100.78 77.1601 98.24C74.5101 95.7 74.1401 91.87 74.1201 91.71C74.1001 91.53 74.1701 91.36 74.2901 91.23C74.4101 91.1 74.5801 91.03 74.7601 91.04C74.9201 91.04 78.7601 91.27 81.4001 93.81C84.0501 96.35 84.4201 100.18 84.4401 100.34C84.4601 100.52 84.3901 100.69 84.2701 100.82C84.1501 100.94 84.0001 101.01 83.8301 101.01ZM75.4601 92.36C75.7001 93.52 76.3501 95.77 78.0001 97.36C79.6601 98.95 81.9301 99.51 83.1001 99.7C82.8601 98.54 82.2101 96.29 80.5601 94.7C78.9001 93.11 76.6301 92.55 75.4601 92.36Z" fill="#503EAA"/>
<path d="M93.5502 91.66C93.5502 91.66 93.2102 95.39 90.7002 97.8C88.1902 100.21 84.4502 100.4 84.4502 100.4C84.4502 100.4 84.7902 96.67 87.3002 94.26C89.8102 91.85 93.5502 91.66 93.5502 91.66Z" fill="#503EAA"/>
<path d="M84.4502 101.01C84.2802 101.01 84.1302 100.94 84.0102 100.82C83.8902 100.69 83.8302 100.52 83.8402 100.34C83.8502 100.18 84.2302 96.36 86.8802 93.81C89.5302 91.27 93.3602 91.05 93.5202 91.04C93.7002 91.04 93.8702 91.1 93.9902 91.23C94.1102 91.36 94.1702 91.53 94.1602 91.71C94.1502 91.87 93.7702 95.69 91.1202 98.24C88.4702 100.79 84.6402 101 84.4802 101.01H84.4502ZM92.8302 92.36C91.6602 92.55 89.3902 93.11 87.7302 94.7C86.0702 96.3 85.4202 98.54 85.1802 99.7C86.3502 99.51 88.6202 98.95 90.2802 97.36C91.9402 95.76 92.5902 93.52 92.8302 92.36Z" fill="#503EAA"/>
<path d="M84.1401 101.06C83.1301 101.06 82.3101 100.24 82.3101 99.23V72.94C82.3101 71.93 83.1301 71.11 84.1401 71.11C85.1501 71.11 85.9701 71.93 85.9701 72.94V99.23C85.9701 100.24 85.1501 101.06 84.1401 101.06Z" fill="#503EAA"/>
<path d="M80.0501 76.16L76.0701 77.31C76.0701 77.31 75.9101 79.32 76.3001 81.06C76.5301 82.11 77.1101 83.1 78.0401 83.91C78.0701 83.93 78.0901 83.96 78.1201 83.98C81.5501 86.9 87.1601 86.88 90.5701 83.95C90.6001 83.93 90.6301 83.9 90.6501 83.88C91.5701 83.07 92.1401 82.07 92.3701 81.02C92.7501 79.28 92.5501 76.98 92.5501 76.98C92.5501 76.98 90.5701 76.01 90.5501 75.98C87.1201 73.06 83.4701 73.22 80.0601 76.16H80.0501Z" fill="#503EAA"/>
<path d="M84.3202 87.38C81.7902 87.38 79.2602 86.56 77.3302 84.91L77.2402 84.83C76.1502 83.87 75.4102 82.66 75.1102 81.33C74.6902 79.43 74.8502 77.3 74.8602 77.21L74.9302 76.37L75.7402 76.14C76.9502 75.8 78.8202 75.26 79.4502 75.07C83.3002 71.87 87.4702 71.83 91.2302 74.97C91.5302 75.12 92.4502 75.57 93.0902 75.89L93.7102 76.19L93.7702 76.87C93.7702 76.97 93.9802 79.37 93.5702 81.28C93.2802 82.62 92.5502 83.83 91.4602 84.79L91.3702 84.87C89.4302 86.54 86.8802 87.37 84.3302 87.37L84.3202 87.38ZM77.2602 78.24C77.2602 78.92 77.2902 79.91 77.4902 80.8C77.6802 81.63 78.1402 82.39 78.8402 83L78.9102 83.06C81.8602 85.57 86.8302 85.56 89.7702 83.03L89.8402 82.97C90.5402 82.35 91.0002 81.59 91.1802 80.76C91.4002 79.76 91.4002 78.51 91.3702 77.76C89.8902 77.03 89.8802 77.02 89.7502 76.91C86.8502 74.44 83.8502 74.49 80.8402 77.08C80.6302 77.27 80.6102 77.28 77.2502 78.24H77.2602Z" fill="#503EAA"/>
<path d="M78.7002 73.46C78.7002 73.46 78.6502 73.5 78.6302 73.52C76.4102 75.46 76.4202 78.59 78.6502 80.52C78.6702 80.54 78.7002 80.56 78.7202 80.58C81.8102 83.19 86.8702 83.18 89.9502 80.55C89.9702 80.53 90.0002 80.51 90.0202 80.49C92.2402 78.55 92.2302 75.42 90.0002 73.49C89.9802 73.47 89.9502 73.45 89.9302 73.43C86.8402 70.82 81.7802 70.83 78.7002 73.46Z" fill="#86D4C9"/>
<path d="M90.0299 73.74L89.9599 73.68C88.3899 72.3 86.2399 71.73 84.1899 71.94C85.6899 72.1 87.1399 72.67 88.2899 73.68L88.3599 73.74C90.3199 75.51 90.3299 78.37 88.3799 80.15L88.3099 80.21C87.1599 81.23 85.6899 81.82 84.1699 81.98C86.2399 82.2 88.4099 81.61 89.9799 80.21L90.0499 80.15C91.9999 78.37 91.9999 75.51 90.0299 73.74Z" fill="white"/>
<path d="M85.02 82.63C84.72 82.63 84.41 82.61 84.1 82.58L78.29 81.97L84.1 81.36C85.56 81.21 86.87 80.65 87.9 79.74L87.96 79.69C88.78 78.95 89.22 77.97 89.22 76.93C89.22 75.9 88.76 74.92 87.94 74.18L87.88 74.13C86.86 73.24 85.56 72.69 84.12 72.54L78.32 71.93L84.12 71.32C86.44 71.08 88.71 71.77 90.36 73.21L90.43 73.27C91.51 74.24 92.11 75.54 92.11 76.92C92.11 78.3 91.52 79.6 90.45 80.58L90.38 80.64C88.95 81.91 87.03 82.6 85.02 82.6V82.63ZM89.47 74.07C90.1 74.91 90.43 75.9 90.44 76.94C90.44 77.99 90.1 78.99 89.47 79.84C89.51 79.81 89.54 79.78 89.58 79.75L89.64 79.7C90.46 78.96 90.9 77.98 90.9 76.94C90.9 75.91 90.44 74.93 89.62 74.19L89.56 74.14C89.56 74.14 89.5 74.09 89.47 74.07Z" fill="white"/>
<path d="M84.3101 84.4C81.7601 84.4 79.2101 83.58 77.2701 81.94L77.1801 81.86C75.7101 80.58 74.8901 78.87 74.8901 77.03C74.8901 75.2 75.6901 73.48 77.1601 72.19L77.2601 72.11C81.1501 68.79 87.4901 68.77 91.4001 72.07L91.5001 72.15C92.9701 73.43 93.7901 75.14 93.7901 76.97C93.7901 78.8 92.9901 80.52 91.5201 81.81L91.4201 81.89C89.4701 83.56 86.9001 84.39 84.3301 84.39L84.3101 84.4ZM78.8201 73.97L78.7501 74.03C77.8201 74.84 77.3101 75.91 77.3101 77.03C77.3101 78.15 77.8301 79.21 78.7601 80.02L78.8301 80.08C81.8101 82.6 86.8401 82.58 89.8101 80.05L89.8801 79.99C90.8101 79.18 91.3201 78.11 91.3101 76.99C91.3101 75.87 90.7901 74.81 89.8601 74L89.7901 73.94C86.8101 71.42 81.7801 71.43 78.8101 73.97H78.8201Z" fill="#503EAA"/>
<path d="M102.15 91.66C102.15 91.66 102.49 95.39 105 97.8C107.51 100.21 111.25 100.4 111.25 100.4C111.25 100.4 110.91 96.67 108.4 94.26C105.89 91.85 102.15 91.66 102.15 91.66Z" fill="#503EAA"/>
<path d="M111.25 101.01H111.22C111.06 101.01 107.22 100.78 104.58 98.24C101.93 95.7 101.56 91.87 101.54 91.71C101.52 91.53 101.59 91.36 101.71 91.23C101.83 91.1 102 91.03 102.18 91.04C102.34 91.04 106.18 91.27 108.82 93.81C111.47 96.35 111.84 100.18 111.86 100.34C111.88 100.52 111.81 100.69 111.69 100.82C111.57 100.94 111.42 101.01 111.25 101.01ZM102.88 92.36C103.12 93.52 103.77 95.77 105.42 97.36C107.08 98.95 109.35 99.51 110.52 99.7C110.28 98.54 109.63 96.29 107.98 94.7C106.32 93.11 104.05 92.55 102.88 92.36Z" fill="#503EAA"/>
<path d="M120.97 91.66C120.97 91.66 120.63 95.39 118.12 97.8C115.61 100.21 111.87 100.4 111.87 100.4C111.87 100.4 112.21 96.67 114.72 94.26C117.23 91.85 120.97 91.66 120.97 91.66Z" fill="#503EAA"/>
<path d="M111.87 101.01C111.7 101.01 111.55 100.94 111.43 100.82C111.31 100.69 111.25 100.52 111.26 100.34C111.27 100.18 111.65 96.36 114.3 93.81C116.95 91.26 120.78 91.05 120.94 91.04C121.12 91.04 121.29 91.1 121.41 91.23C121.53 91.36 121.59 91.53 121.58 91.71C121.57 91.87 121.19 95.69 118.54 98.24C115.89 100.79 112.06 101 111.9 101.01H111.87ZM120.25 92.36C119.08 92.55 116.81 93.11 115.15 94.7C113.49 96.3 112.84 98.54 112.6 99.7C113.77 99.51 116.04 98.95 117.7 97.36C119.36 95.76 120.01 93.52 120.25 92.36Z" fill="#503EAA"/>
<path d="M111.56 101.06C110.55 101.06 109.73 100.24 109.73 99.23V72.94C109.73 71.93 110.55 71.11 111.56 71.11C112.57 71.11 113.39 71.93 113.39 72.94V99.23C113.39 100.24 112.57 101.06 111.56 101.06Z" fill="#503EAA"/>
<path d="M107.47 76.16L103.49 77.31C103.49 77.31 103.33 79.32 103.72 81.06C103.95 82.11 104.53 83.1 105.46 83.91C105.49 83.93 105.51 83.96 105.54 83.98C108.97 86.9 114.58 86.88 117.99 83.95C118.02 83.93 118.05 83.9 118.07 83.88C118.99 83.07 119.56 82.07 119.79 81.02C120.17 79.28 119.97 76.98 119.97 76.98C119.97 76.98 117.99 76.01 117.97 75.98C114.54 73.06 110.89 73.22 107.48 76.16H107.47Z" fill="#503EAA"/>
<path d="M111.74 87.38C109.21 87.38 106.68 86.56 104.75 84.91L104.66 84.83C103.57 83.87 102.83 82.66 102.53 81.33C102.11 79.43 102.27 77.3 102.28 77.21L102.35 76.37L103.16 76.14C104.37 75.8 106.24 75.26 106.87 75.07C110.72 71.87 114.89 71.83 118.65 74.97C118.95 75.12 119.87 75.57 120.51 75.89L121.13 76.19L121.19 76.87C121.19 76.97 121.4 79.37 120.99 81.28C120.7 82.62 119.97 83.83 118.88 84.79L118.79 84.87C116.85 86.54 114.3 87.37 111.75 87.37L111.74 87.38ZM104.68 78.24C104.68 78.92 104.71 79.91 104.91 80.8C105.1 81.63 105.56 82.39 106.26 83L106.33 83.06C109.28 85.57 114.25 85.56 117.19 83.03L117.26 82.97C117.96 82.35 118.42 81.59 118.6 80.76C118.82 79.76 118.82 78.51 118.79 77.76C117.31 77.03 117.3 77.02 117.17 76.91C114.27 74.44 111.27 74.49 108.26 77.08C108.05 77.27 108.03 77.28 104.67 78.24H104.68Z" fill="#503EAA"/>
<path d="M106.12 73.46C106.12 73.46 106.07 73.5 106.05 73.52C103.83 75.46 103.84 78.59 106.07 80.52C106.09 80.54 106.12 80.56 106.14 80.58C109.23 83.19 114.29 83.18 117.37 80.55C117.39 80.53 117.42 80.51 117.44 80.49C119.66 78.55 119.65 75.42 117.42 73.49C117.4 73.47 117.37 73.45 117.35 73.43C114.26 70.82 109.2 70.83 106.12 73.46Z" fill="#86D4C9"/>
<path d="M117.44 73.74L117.37 73.68C115.8 72.3 113.65 71.73 111.6 71.94C113.1 72.1 114.55 72.67 115.7 73.68L115.77 73.74C117.73 75.51 117.74 78.37 115.79 80.15L115.72 80.21C114.57 81.23 113.1 81.82 111.58 81.98C113.65 82.2 115.82 81.61 117.39 80.21L117.46 80.15C119.41 78.37 119.41 75.51 117.44 73.74Z" fill="white"/>
<path d="M112.44 82.63C112.14 82.63 111.83 82.61 111.52 82.58L105.71 81.97L111.52 81.36C112.98 81.21 114.29 80.65 115.32 79.74L115.38 79.69C116.2 78.95 116.64 77.97 116.64 76.93C116.64 75.9 116.18 74.92 115.36 74.18L115.3 74.13C114.28 73.24 112.98 72.69 111.54 72.54L105.74 71.93L111.54 71.32C113.86 71.08 116.13 71.77 117.78 73.21L117.85 73.27C118.93 74.24 119.53 75.54 119.53 76.92C119.53 78.3 118.94 79.6 117.87 80.58L117.8 80.64C116.37 81.91 114.45 82.6 112.44 82.6V82.63ZM116.89 74.07C117.52 74.91 117.85 75.9 117.86 76.94C117.86 77.99 117.52 78.99 116.89 79.84C116.93 79.81 116.96 79.78 117 79.75L117.06 79.7C117.88 78.96 118.32 77.98 118.32 76.94C118.32 75.91 117.86 74.93 117.04 74.19L116.98 74.14C116.98 74.14 116.92 74.09 116.89 74.07Z" fill="white"/>
<path d="M111.73 84.4C109.18 84.4 106.63 83.58 104.69 81.94L104.6 81.86C103.13 80.58 102.31 78.87 102.31 77.03C102.31 75.2 103.11 73.48 104.58 72.19L104.68 72.11C108.57 68.79 114.91 68.77 118.82 72.07L118.92 72.15C120.39 73.43 121.21 75.14 121.21 76.97C121.21 78.8 120.41 80.52 118.94 81.81L118.84 81.89C116.89 83.56 114.32 84.39 111.75 84.39L111.73 84.4ZM106.24 73.97L106.17 74.03C105.24 74.84 104.73 75.91 104.73 77.03C104.73 78.15 105.25 79.21 106.18 80.02L106.25 80.08C109.23 82.6 114.26 82.58 117.23 80.05L117.3 79.99C118.23 79.18 118.74 78.11 118.73 76.99C118.73 75.87 118.21 74.81 117.28 74L117.21 73.94C114.23 71.42 109.2 71.43 106.23 73.97H106.24Z" fill="#503EAA"/>
</g>
<defs>
<clipPath id="clip0_2599_7200">
<rect width="126.55" height="108.16" fill="white"/>
</clipPath>
</defs>
</svg>
 