<svg width="1920" height="1080" viewBox="0 0 1920 1080" fill="none" xmlns="http://www.w3.org/2000/svg">
<g clip-path="url(#clip0_1_4)">
<path d="M1875.51 884.41V785.13H1790.01V842.33L1762.46 822.3H1738.93V702.55C1738.93 697.03 1734.45 692.55 1728.93 692.55H1714.8V658.91C1714.8 656.12 1712.16 654.01 1709.47 654.75C1688.43 660.49 1672.14 699.81 1672.14 747.45C1672.14 778.08 1678.87 805.27 1689.28 822.3H1635.16V767.74C1635.16 761.2 1629.86 755.89 1623.31 755.89H1604.79V710.7C1604.79 708.16 1602.73 706.11 1600.19 706.11H1594.65C1586.56 706.11 1579.99 712.67 1579.99 720.77V811.64H1563.59C1552.89 811.64 1544.22 820.31 1544.22 831.01V897.91H1471.56C1462.14 897.91 1454.51 905.54 1454.51 914.96V931.66H1354.11V919.1C1354.11 909.81 1346.59 902.28 1337.3 902.28H1314.46V831.6C1314.46 829.22 1312.53 827.28 1310.14 827.28C1306.64 827.28 1303.51 829.44 1302.28 832.71L1284.93 878.6H1271.23C1262.96 878.6 1256.25 885.31 1256.25 893.59V948.92H1192.31V783.17C1192.31 778.42 1196.16 774.57 1200.91 774.57H1215.81C1220 774.57 1223.4 771.17 1223.4 766.98C1223.4 762.79 1220 759.39 1215.81 759.39H1192.31V744.84C1192.31 740.09 1196.16 736.24 1200.91 736.24H1225.67C1229.86 736.24 1233.26 732.84 1233.26 728.65C1233.26 724.46 1229.86 721.06 1225.67 721.06H1142.27C1138.08 721.06 1134.68 724.46 1134.68 728.65C1134.68 732.84 1138.08 736.24 1142.27 736.24H1167.03C1171.78 736.24 1175.63 740.09 1175.63 744.84V759.39H1152.13C1147.94 759.39 1144.54 762.79 1144.54 766.98C1144.54 771.17 1147.94 774.57 1152.13 774.57H1167.03C1171.78 774.57 1175.63 778.42 1175.63 783.17V948.92H1139.26V826.6C1139.26 818.94 1133.05 812.73 1125.39 812.73H1106.82V779.55C1106.82 776.98 1104.73 774.89 1102.16 774.89H1097.84C1084.75 774.89 1074.14 785.51 1074.14 798.6V860.76H1069.83C1062.15 860.76 1055.92 866.99 1055.92 874.67V957.73L1027.61 997.46H998.126V863.29C998.126 853.86 993.446 845.04 985.627 839.76L974.228 832.05V723.53C974.228 720.84 972.049 718.66 969.359 718.66H966.279C952.971 718.66 942.192 729.46 942.212 742.77L942.302 796.2L931.473 806.09C925.584 811.47 922.234 819.08 922.234 827.06V997.47H893.478L882.429 989.3C877.01 985.29 870.44 983.13 863.691 983.13H787.18L751.994 951.57C743.685 944.12 732.926 940 721.767 940H659.794V931.67C659.794 920.48 650.725 911.41 639.537 911.41H625.628V789.65C625.628 765.69 606.211 746.26 582.243 746.26C578.444 746.26 575.354 749.34 575.354 753.15V808.56H568.385C557.876 808.56 549.347 817.08 549.347 827.6L549.367 911.41H503.712C503.712 900.08 494.533 890.9 483.205 890.9H445.939V825.18C445.939 815.85 438.38 808.28 429.041 808.28H415.422V890.9H373.277L368.858 764.04C368.708 759.84 372.077 756.36 376.277 756.36H381.476C382.936 756.36 384.256 755.76 385.216 754.8C386.386 753.63 387.016 751.92 386.696 750.11C386.236 747.55 383.876 745.77 381.276 745.77H368.218L367.908 736.78C367.788 733.38 369.918 730.28 373.167 729.25C387.046 724.84 397.814 713.44 401.334 699.19C402.204 695.66 405.304 693.13 408.933 693.13H415.122C418.302 693.13 420.902 690.53 420.902 687.36V686.83C420.902 683.65 418.302 681.05 415.122 681.05H305.655C302.475 681.05 299.876 683.65 299.876 686.83V687.36C299.876 690.53 302.475 693.13 305.655 693.13H311.844C315.484 693.13 318.574 695.66 319.443 699.19C322.963 713.45 333.722 724.85 347.61 729.25C350.85 730.28 352.99 733.38 352.87 736.78L352.56 745.77H339.301C337.841 745.77 336.521 746.37 335.562 747.32C334.392 748.49 333.762 750.2 334.092 752.01C334.552 754.57 336.921 756.36 339.521 756.36H344.511C348.71 756.36 352.08 759.84 351.93 764.04L347.51 890.9H339.891L309.934 862.44C303.485 856.31 294.926 852.9 286.037 852.9H267.609C266.489 738.85 246.632 648 222.285 648C197.937 648 178.08 738.85 176.97 852.89H0L0.219975 1080.12H1920V884.41H1875.51Z" fill="url(#paint0_linear_1_4)"/>
</g>
<defs>
<linearGradient id="paint0_linear_1_4" x1="960" y1="674" x2="960" y2="1079.44" gradientUnits="userSpaceOnUse">
<stop stop-color="#503EAA"/>
<stop offset="1" stop-color="#8D86EB"/>
</linearGradient>
<clipPath id="clip0_1_4">
<rect width="1920" height="1080" fill="white"/>
</clipPath>
</defs>
</svg>
