<svg width="1920" height="1080" viewBox="0 0 1920 1080" fill="none" xmlns="http://www.w3.org/2000/svg">
<g clip-path="url(#clip0_1_4)">
<path d="M162.048 588.15V581.58C162.048 580.58 161.238 579.76 160.228 579.76H146.98C145.98 579.76 145.16 580.57 145.16 581.58V588.55L137.521 587.39C137.521 587.39 137.521 580.46 137.521 576.94C137.521 575.83 136.621 574.94 135.512 574.94H128.283C127.923 573.06 127.413 571.31 126.773 569.74C126.743 569.67 126.713 569.6 126.683 569.53C126.533 569.18 126.383 568.84 126.233 568.51C126.203 568.45 126.173 568.4 126.153 568.34C125.683 567.38 125.163 566.51 124.603 565.74C124.503 565.61 124.413 565.47 124.313 565.34C124.173 565.16 124.033 564.99 123.883 564.82C123.753 564.67 123.623 564.53 123.493 564.39C123.353 564.25 123.223 564.11 123.083 563.97C122.903 563.8 122.723 563.64 122.533 563.49C122.433 563.41 122.333 563.32 122.233 563.24C121.953 563.03 121.664 562.84 121.364 562.66C121.254 562.6 121.154 562.55 121.044 562.49C120.834 562.38 120.624 562.28 120.404 562.19C120.284 562.14 120.174 562.1 120.054 562.06C119.834 561.98 119.604 561.92 119.374 561.87C119.264 561.85 119.164 561.82 119.054 561.8C118.724 561.74 118.384 561.71 118.044 561.71H118.034C117.674 561.71 117.324 561.75 116.974 561.81C116.854 561.83 116.734 561.87 116.614 561.9C116.384 561.95 116.164 562.01 115.934 562.09C115.794 562.14 115.654 562.21 115.514 562.27C115.324 562.35 115.124 562.44 114.934 562.54C114.784 562.62 114.634 562.72 114.484 562.81C114.315 562.92 114.145 563.02 113.975 563.15C113.815 563.26 113.665 563.39 113.515 563.52C113.365 563.65 113.215 563.77 113.065 563.91C112.905 564.06 112.755 564.22 112.595 564.38C112.465 564.52 112.335 564.66 112.205 564.81C112.045 564.99 111.885 565.19 111.735 565.38C111.625 565.52 111.515 565.67 111.405 565.82C111.245 566.05 111.085 566.27 110.935 566.52C110.845 566.66 110.765 566.8 110.675 566.94C110.515 567.21 110.355 567.49 110.195 567.78C110.135 567.9 110.075 568.02 110.015 568.14C109.845 568.47 109.685 568.81 109.525 569.16C109.495 569.22 109.475 569.29 109.445 569.36C108.285 572.06 107.515 575.32 107.265 578.89L103.266 577.61V571.14C103.266 569.63 102.036 568.4 100.526 568.4H97.5568V565.38C97.5568 564.26 96.6469 563.36 95.5371 563.36H79.3692V560.24C79.3692 559.32 78.6293 558.58 77.7095 558.58H75.8197C74.9499 558.58 74.2399 559.29 74.2399 560.16V568.44L69.7106 567.13V554.69C69.7106 553.82 69.0007 553.11 68.1308 553.11H58.942C58.0721 553.11 57.3622 553.82 57.3622 554.69V558.46H52.2629V548.03C52.2629 547.16 51.553 546.45 50.6831 546.45H34.1554C33.2855 546.45 32.5756 547.16 32.5756 548.03V556.42L25.7365 554.45V542.28C25.7365 541.41 25.0266 540.7 24.1567 540.7H18.5675V533.93C18.5675 533.06 17.8576 532.35 16.9877 532.35H0V1080.08H1920V544L1910.06 546.44V542.79C1910.06 540.66 1908.33 538.94 1906.21 538.94H1903.23C1901.1 538.94 1899.38 540.67 1899.38 542.79V549.08L1895.16 550.12V535.85C1895.16 533.72 1893.43 532 1891.31 532H1883.27C1881.15 532 1879.43 533.73 1879.43 535.85V554L1871.84 555.87V548.26C1871.84 546.13 1870.11 544.41 1867.99 544.41H1852.07C1849.94 544.41 1848.22 546.14 1848.22 548.26V554.39H1840.03C1838.65 554.39 1837.53 555.51 1837.53 556.89H1834.27V554.02C1834.27 551.89 1832.54 550.17 1830.42 550.17H1820.3C1818.17 550.17 1816.45 551.9 1816.45 554.02V569.62L1805.77 572.53V565.52C1805.77 563.16 1803.86 561.25 1801.5 561.25H1796.82C1794.46 561.25 1792.55 563.16 1792.55 565.52V576.12L1783.27 578.64V576.92C1783.27 574.56 1781.36 572.65 1779 572.65H1767.33V567.54C1767.33 565.18 1765.42 563.27 1763.06 563.27H1761.48C1759.12 563.27 1757.21 565.18 1757.21 567.54V585.72L1754.2 586.54L1754.02 586.59C1753.92 586.16 1753.8 585.75 1753.67 585.34C1753.6 585.15 1753.52 584.96 1753.45 584.77C1753.36 584.54 1753.27 584.31 1753.17 584.08C1753.08 583.88 1752.98 583.7 1752.88 583.5C1752.77 583.29 1752.66 583.08 1752.55 582.87C1752.44 582.68 1752.33 582.5 1752.21 582.32C1752.08 582.12 1751.95 581.92 1751.81 581.73C1751.69 581.55 1751.56 581.38 1751.42 581.21C1751.27 581.02 1751.11 580.83 1750.95 580.65C1750.81 580.49 1750.68 580.33 1750.53 580.18C1750.35 579.99 1750.16 579.81 1749.97 579.62C1749.83 579.49 1749.69 579.35 1749.55 579.22C1749.3 578.99 1749.03 578.78 1748.76 578.57C1748.67 578.5 1748.58 578.42 1748.48 578.34C1748.11 578.07 1747.73 577.81 1747.34 577.57C1747.2 577.48 1747.05 577.41 1746.9 577.32C1746.63 577.17 1746.37 577.02 1746.09 576.88C1745.92 576.79 1745.74 576.72 1745.57 576.63C1745.31 576.51 1745.04 576.39 1744.77 576.28C1744.58 576.21 1744.39 576.14 1744.2 576.07C1743.93 575.97 1743.65 575.88 1743.37 575.8C1743.18 575.74 1742.98 575.68 1742.79 575.63C1742.5 575.55 1742.2 575.49 1741.9 575.42C1741.71 575.38 1741.52 575.34 1741.33 575.3C1741 575.24 1740.66 575.2 1740.32 575.16C1740.15 575.14 1739.99 575.11 1739.82 575.1C1739.31 575.06 1738.8 575.03 1738.28 575.03H1738.27C1729.39 575.03 1722.19 581.53 1722.19 589.55C1722.19 590.03 1722.22 590.51 1722.27 590.98C1722.31 591.35 1722.38 591.71 1722.45 592.07C1722.47 592.16 1722.48 592.25 1722.49 592.33C1722.68 593.22 1722.97 594.08 1723.33 594.91L1712.16 597.95V590.47C1712.16 587.54 1709.79 585.17 1706.86 585.17H1694.67C1691.74 585.17 1689.37 587.54 1689.37 590.47V604.03H1683.14V605.83L1680.05 606.67V592.15C1680.05 589.22 1677.68 586.85 1674.75 586.85H1669.31C1666.38 586.85 1664.01 589.22 1664.01 592.15V600.37H1661.64C1659.62 600.37 1657.98 602.01 1657.98 604.04V609.99C1656.94 609.99 1655.96 609.95 1655.1 609.88H1654.98C1654.74 609.85 1654.51 609.82 1654.29 609.79C1654.25 609.79 1654.21 609.79 1654.18 609.78C1653.93 609.74 1653.69 609.7 1653.47 609.66C1653.26 609.62 1653.08 609.57 1652.9 609.51C1652.85 609.49 1652.8 609.48 1652.76 609.46C1652.63 609.42 1652.52 609.37 1652.41 609.32C1652.37 609.3 1652.32 609.28 1652.29 609.26C1652.16 609.19 1652.04 609.12 1651.95 609.04C1651.95 609.04 1651.85 608.96 1651.76 608.91C1651.73 608.89 1651.68 608.87 1651.64 608.85C1651.57 608.81 1651.5 608.78 1651.41 608.74C1651.35 608.71 1651.28 608.68 1651.21 608.65C1651.12 608.61 1651.02 608.57 1650.92 608.52C1650.83 608.48 1650.73 608.44 1650.63 608.39C1650.52 608.34 1650.41 608.3 1650.29 608.25C1650.17 608.2 1650.04 608.15 1649.9 608.09C1649.78 608.04 1649.66 607.99 1649.53 607.94C1649.37 607.87 1649.21 607.81 1649.04 607.74C1648.94 607.7 1648.82 607.65 1648.72 607.61C1648.22 607.41 1647.67 607.19 1647.06 606.96C1647.16 606.29 1647.25 605.61 1647.3 604.91C1647.35 604.22 1647.38 603.51 1647.38 602.8C1647.38 591.27 1640.18 581.93 1631.29 581.93C1630.79 581.93 1630.29 581.97 1629.79 582.03C1629.64 582.05 1629.49 582.08 1629.33 582.1C1628.99 582.15 1628.65 582.22 1628.31 582.3C1628.14 582.34 1627.97 582.38 1627.81 582.43C1627.48 582.52 1627.15 582.64 1626.83 582.76C1626.69 582.81 1626.54 582.86 1626.4 582.92C1625.97 583.1 1625.54 583.3 1625.13 583.52C1624.96 583.61 1624.79 583.72 1624.62 583.82C1624.37 583.97 1624.13 584.12 1623.88 584.28C1623.67 584.42 1623.47 584.57 1623.26 584.73C1623.08 584.87 1622.89 585.01 1622.71 585.16C1622.49 585.34 1622.27 585.52 1622.05 585.72C1621.93 585.83 1621.81 585.95 1621.7 586.06C1620.86 586.87 1620.09 587.78 1619.38 588.78C1619.33 588.84 1619.29 588.91 1619.24 588.97C1618.99 589.33 1618.76 589.7 1618.53 590.08C1618.52 590.1 1618.51 590.12 1618.49 590.14C1617.52 591.79 1616.74 593.62 1616.18 595.6C1615.3 595.28 1614.41 594.96 1613.52 594.64C1613.32 594.57 1613.12 594.5 1612.92 594.42C1611.97 594.08 1611.01 593.73 1610.04 593.39V565.21C1610.04 563.29 1608.48 561.73 1606.56 561.73H1602.28C1600.36 561.73 1598.8 563.29 1598.8 565.21V575.48H1593.47C1591.05 575.48 1589.09 577.44 1589.09 579.86V585.91L1583.9 584.06V550.88C1583.9 548.24 1581.76 546.09 1579.11 546.09H1574.62C1571.98 546.09 1569.83 548.23 1569.83 550.88V566.06H1557.74V557.75C1557.74 554.98 1555.5 552.74 1552.73 552.74H1544.75C1541.98 552.74 1539.74 554.98 1539.74 557.75V568.47L1530.18 565.11V558.88C1530.18 557.33 1528.92 556.07 1527.37 556.07C1525.82 556.07 1524.56 557.33 1524.56 558.88V563.13L1519.5 562.3V549.08C1519.5 546.2 1517.16 543.86 1514.28 543.86H1508.41C1505.53 543.86 1503.19 546.2 1503.19 549.08V553.57C1494.8 553.57 1488 560.37 1488 568.76V572.16H1482.37V570.46C1482.37 568.03 1480.4 566.06 1477.97 566.06H1472.99C1470.56 566.06 1468.59 568.03 1468.59 570.46V587.36L1460.43 591.37V576.68C1460.43 574.19 1458.41 572.16 1455.91 572.16H1453.97C1451.48 572.16 1449.45 574.18 1449.45 576.68V594.35H1434.67V588.6C1434.67 586.11 1432.65 584.08 1430.15 584.08H1424.82C1422.33 584.08 1420.3 586.1 1420.3 588.6V606.35L1405.11 596.42V595.42C1405.11 592.22 1402.52 589.63 1399.32 589.63H1389.83V584.86C1389.83 582.59 1387.99 580.76 1385.73 580.76H1379.11C1378.03 579.55 1376.85 578.52 1375.59 577.7L1375.51 577.65C1375.1 577.39 1374.69 577.15 1374.27 576.94C1374.25 576.93 1374.22 576.92 1374.19 576.9C1373.76 576.69 1373.33 576.49 1372.89 576.33C1372.47 576.17 1372.04 576.04 1371.61 575.93C1371.54 575.91 1371.47 575.89 1371.4 575.88C1370.98 575.78 1370.56 575.7 1370.14 575.65C1370.07 575.65 1369.99 575.63 1369.92 575.63C1369.48 575.58 1369.03 575.55 1368.58 575.55C1368.12 575.55 1367.67 575.58 1367.22 575.63C1367.15 575.63 1367.07 575.64 1367 575.65C1366.57 575.71 1366.16 575.79 1365.74 575.89C1365.66 575.91 1365.58 575.93 1365.5 575.95C1365.08 576.06 1364.66 576.19 1364.25 576.34C1364.21 576.36 1364.16 576.38 1364.12 576.39C1363.71 576.55 1363.31 576.73 1362.91 576.93C1362.88 576.95 1362.84 576.96 1362.8 576.98C1362.39 577.19 1362 577.42 1361.61 577.67C1361.55 577.71 1361.49 577.75 1361.43 577.79C1361.04 578.05 1360.67 578.32 1360.3 578.61C1360.26 578.64 1360.21 578.68 1360.17 578.72C1359.39 579.35 1358.65 580.07 1357.96 580.86C1357.94 580.89 1357.92 580.91 1357.89 580.93C1357.54 581.33 1357.21 581.74 1356.89 582.18C1356.87 582.21 1356.84 582.24 1356.82 582.28C1355.82 583.64 1354.93 585.18 1354.19 586.86V586.88C1353.17 589.15 1351.98 594.36 1351.98 594.36H1344.02V606.02L1333.89 608.69C1333.53 608.26 1333.16 607.86 1332.78 607.47C1332.75 607.44 1332.73 607.41 1332.7 607.39C1332.33 607.02 1331.95 606.67 1331.55 606.34C1331.52 606.31 1331.49 606.29 1331.45 606.26C1331.05 605.93 1330.64 605.62 1330.22 605.34L1330.19 605.32C1329.76 605.03 1329.32 604.76 1328.87 604.53H1328.85C1328.42 604.29 1327.99 604.1 1327.54 603.92C1327.48 603.9 1327.43 603.87 1327.37 603.85C1326.95 603.69 1326.52 603.55 1326.08 603.43C1326.01 603.41 1325.93 603.39 1325.86 603.37C1325.42 603.26 1324.98 603.17 1324.53 603.11C1324.47 603.11 1324.41 603.1 1324.34 603.09C1323.87 603.03 1323.4 603 1322.92 603C1322.58 603 1322.24 603.02 1321.9 603.05C1321.8 603.05 1321.69 603.07 1321.59 603.08C1321.35 603.11 1321.11 603.14 1320.87 603.18C1320.76 603.2 1320.65 603.22 1320.55 603.24C1320.29 603.29 1320.03 603.35 1319.77 603.42C1319.7 603.44 1319.63 603.45 1319.56 603.47C1319.23 603.56 1318.91 603.67 1318.58 603.79C1318.52 603.81 1318.47 603.84 1318.41 603.86C1318.14 603.96 1317.88 604.08 1317.62 604.2C1317.54 604.24 1317.45 604.28 1317.37 604.32C1317.12 604.44 1316.88 604.57 1316.64 604.71C1316.57 604.75 1316.51 604.78 1316.44 604.82C1315.82 605.19 1315.21 605.6 1314.63 606.07C1314.59 606.1 1314.55 606.14 1314.51 606.17C1314.25 606.38 1314 606.6 1313.75 606.82C1313.71 606.86 1313.67 606.9 1313.63 606.93C1312.77 607.73 1311.96 608.64 1311.22 609.64L1311.18 609.69C1310.17 611.06 1309.28 612.6 1308.53 614.29H1304.64C1304.64 612.62 1303.29 611.27 1301.62 611.27H1291.64C1289.97 611.27 1288.62 612.62 1288.62 614.29V620.63L1284.96 621.59V616.84C1284.96 613.99 1282.65 611.68 1279.8 611.68H1276.46V608.86C1276.46 606.15 1274.26 603.95 1271.55 603.95H1266.11C1263.4 603.95 1261.2 606.15 1261.2 608.86V614.53H1246.83C1244.12 614.53 1241.92 616.73 1241.92 619.44V632.95L1238.91 633.74V629.29C1238.91 626.53 1236.68 624.3 1233.92 624.3H1224.4C1221.64 624.3 1219.41 626.53 1219.41 629.29V638.88L1210.71 641.18V627.64C1210.71 626.09 1209.45 624.83 1207.9 624.83H1205.37C1203.82 624.83 1202.56 626.09 1202.56 627.64V643.33L1195.25 645.26V641.97C1195.25 640.42 1193.99 639.16 1192.44 639.16C1190.89 639.16 1189.63 640.42 1189.63 641.97C1189.63 644.13 1189.63 646.74 1189.63 646.74L1187.65 647.26L1181.2 648.96V641.08C1181.2 639.53 1179.94 638.27 1178.39 638.27H1172.48C1170.93 638.27 1169.67 639.53 1169.67 641.08V647.75L1160.39 645.91V621.11C1160.39 619.56 1159.13 618.3 1157.58 618.3H1149.42C1147.87 618.3 1146.61 619.56 1146.61 621.11V628.98H1133.11C1133.11 628.73 1133.11 628.49 1133.11 628.24C1133.11 626.98 1133.06 625.74 1132.98 624.53C1132.83 622.51 1132.57 620.58 1132.2 618.76C1132.13 618.4 1132.05 618.04 1131.97 617.68C1131.73 616.61 1131.44 615.59 1131.13 614.62C1131.03 614.3 1130.92 613.98 1130.81 613.66C1130.59 613.03 1130.35 612.43 1130.1 611.86C1129.72 610.99 1129.32 610.19 1128.89 609.44C1127.89 607.7 1126.74 606.31 1125.49 605.35C1124.24 604.39 1122.9 603.87 1121.49 603.87C1121.14 603.87 1120.78 603.91 1120.44 603.97C1120.41 603.97 1120.38 603.97 1120.36 603.98C1120.03 604.05 1119.7 604.15 1119.38 604.27C1119.34 604.29 1119.3 604.3 1119.26 604.32C1118.95 604.45 1118.64 604.61 1118.33 604.79C1118.29 604.82 1118.24 604.84 1118.2 604.87C1117.9 605.06 1117.6 605.27 1117.31 605.5C1117.27 605.53 1117.23 605.57 1117.18 605.61C1116.89 605.85 1116.6 606.12 1116.33 606.41C1116.29 606.45 1116.26 606.49 1116.22 606.52C1115.94 606.82 1115.66 607.15 1115.39 607.5C1115.37 607.53 1115.35 607.56 1115.32 607.59C1115.04 607.96 1114.77 608.35 1114.51 608.76V608.78C1114.22 609.21 1113.96 609.67 1113.7 610.16L1113.14 611.29C1112.63 612.39 1112.18 613.58 1111.77 614.86C1111.57 615.5 1111.38 616.16 1111.21 616.83V616.85C1111.03 617.52 1110.88 618.21 1110.74 618.91V618.96C1110.59 619.66 1110.47 620.37 1110.36 621.1V621.17C1110.25 621.9 1110.16 622.64 1110.08 623.39C1110.08 623.41 1110.08 623.44 1110.08 623.46C1110.01 624.22 1109.95 624.98 1109.92 625.76V625.82C1109.88 626.61 1109.86 627.41 1109.86 628.22C1109.86 629.28 1109.9 630.32 1109.96 631.35C1109.96 631.4 1109.96 631.46 1109.97 631.51C1110.04 632.54 1110.13 633.54 1110.26 634.52L1107.85 633.68L1106.39 633.17V630.92C1106.39 629.83 1105.51 628.95 1104.42 628.95V615.38C1104.42 614.22 1103.48 613.27 1102.31 613.27H1100.62C1099.46 613.27 1098.51 614.21 1098.51 615.38V628.95C1095.74 628.95 1093.01 629.62 1090.55 630.91L1082.76 635V624.5C1082.76 621.98 1080.72 619.94 1078.2 619.94H1074.48C1071.96 619.94 1069.93 621.98 1069.93 624.5V627.98H1068.74C1065.77 627.98 1063.36 630.39 1063.36 633.36V645.17L1056.84 648.59H1049.58V640.59C1049.58 638.07 1047.54 636.03 1045.02 636.03H1040.92C1038.4 636.03 1036.36 638.07 1036.36 640.59V659.33L1030.01 662.66L1028.48 663.46V661.03C1028.48 657.64 1025.73 654.89 1022.34 654.89H1016.96C1015.56 654.89 1014.42 656.03 1014.42 657.43H1009.41C1006.29 657.43 1003.75 659.96 1003.75 663.09V676.42L1001.45 677.63L1001.08 677.83V676.1C1001.08 674.48 999.765 673.16 998.145 673.16H986.816C985.197 673.16 983.877 674.48 983.877 676.1H974.448C971.178 676.1 968.519 678.75 968.519 682.03V684.97L966.049 686.17H955.501V682.49C955.501 680.28 953.711 678.49 951.501 678.49H949.231C947.022 678.49 945.232 680.28 945.232 682.49V696.24H945.242L938.663 699.42V692.38C938.663 690.17 936.873 688.38 934.663 688.38H930.854C928.644 688.38 926.854 690.17 926.854 692.38V705.14L917.106 709.86V706.98C917.106 704.77 915.316 702.98 913.106 702.98H902.918C900.708 702.98 898.918 704.77 898.918 706.98V718.66L890.949 722.52L844.366 715.64V705.5C844.366 702.58 841.996 700.21 839.076 700.21H836.167C833.247 700.21 830.877 702.58 830.877 705.5V713.65L827.808 713.2L826.558 713.02L825.238 712.65L822.989 712.03V710.07C822.989 706.15 819.809 702.98 815.899 702.98H804.801V699.79C804.801 697.82 803.211 696.23 801.241 696.23C799.272 696.23 797.682 697.82 797.682 699.79V704.99L791.553 703.29L789.243 702.65V696.11C789.243 691.83 785.774 688.37 781.504 688.37H779.024V682.59C779.024 679.37 776.415 676.77 773.205 676.77H769.946C766.726 676.77 764.126 679.38 764.126 682.59V695.68L758.307 694.06L749.778 691.69V682.09C749.778 679.15 747.399 676.77 744.459 676.77H742.779C741.83 676.77 741.07 677.54 741.07 678.48H713.513V675.48C713.513 674.28 712.543 673.3 711.334 673.3H709.214C708.014 673.3 707.034 674.27 707.034 675.48V679.82L696.346 676.64V668.36C696.346 661.08 690.446 655.18 683.167 655.18C680.508 655.18 678.348 657.34 678.348 660V671.29L672.139 669.44L671.599 669.28V663.04L671.269 659.54C670.909 657.78 670.349 656.11 669.619 654.55C669.609 654.52 669.599 654.5 669.589 654.47C669.389 654.04 669.159 653.61 668.929 653.2C668.859 653.08 668.789 652.95 668.719 652.83C668.499 652.45 668.269 652.09 668.03 651.73C667.93 651.58 667.83 651.43 667.72 651.28C667.49 650.95 667.25 650.62 666.99 650.3C666.86 650.14 666.73 649.99 666.6 649.83C666.35 649.53 666.1 649.23 665.83 648.95C665.68 648.79 665.53 648.65 665.37 648.49C665.1 648.22 664.84 647.95 664.56 647.7C664.39 647.55 664.21 647.42 664.04 647.27C663.66 646.95 663.29 646.63 662.87 646.36C662.5 646.12 662.15 645.86 661.78 645.63C661.55 645.49 661.31 645.36 661.07 645.23C660.78 645.07 660.491 644.91 660.191 644.76C659.951 644.64 659.711 644.54 659.471 644.44C659.161 644.3 658.841 644.17 658.511 644.06C658.271 643.97 658.031 643.89 657.791 643.81C657.451 643.7 657.101 643.6 656.751 643.51C656.521 643.45 656.291 643.39 656.051 643.34C655.651 643.26 655.251 643.2 654.851 643.14C654.651 643.11 654.451 643.07 654.251 643.05C653.641 642.99 653.032 642.95 652.402 642.95H652.382C651.772 642.95 651.182 642.99 650.592 643.05C650.232 643.09 649.892 643.15 649.542 643.21C649.332 643.25 649.122 643.27 648.922 643.31C648.452 643.4 648.002 643.52 647.552 643.65C647.492 643.67 647.422 643.69 647.362 643.7C646.852 643.85 646.362 644.02 645.873 644.22V644.11C645.873 642.04 644.203 640.37 642.133 640.37H636.814C634.744 640.37 633.074 642.04 633.074 644.11V651.55C631.214 651.55 629.705 653.06 629.705 654.92V656.79L620.656 654.1L619.016 653.61V643.74C619.016 641.88 617.506 640.37 615.647 640.37C613.787 640.37 612.277 641.88 612.277 643.74V651.6L604.198 649.2L599.899 647.92C599.899 643.75 596.519 640.36 592.34 640.36H591.4C589.26 640.36 587.52 642.1 587.52 644.24L585.551 643.55V625.33C585.551 622.92 583.601 620.97 581.191 620.97C578.782 620.97 576.832 622.92 576.832 625.33V628.93H569.523V626.2C569.523 619.97 564.474 614.92 558.244 614.92H557.224C557.205 614.52 557.175 614.12 557.135 613.72V613.62C557.095 613.24 557.065 612.86 557.025 612.49V612.35C556.975 611.98 556.935 611.61 556.885 611.25C556.885 611.2 556.875 611.16 556.865 611.11C556.815 610.74 556.765 610.38 556.715 610.02C556.715 609.98 556.705 609.94 556.695 609.91C556.645 609.54 556.585 609.18 556.525 608.82V608.76C556.125 606.46 555.605 604.3 554.965 602.34L554.945 602.29C554.855 602.01 554.755 601.73 554.665 601.46C554.645 601.4 554.625 601.34 554.605 601.27C554.515 601.02 554.425 600.78 554.335 600.54C554.305 600.46 554.275 600.38 554.245 600.29C554.155 600.06 554.065 599.84 553.975 599.63C553.935 599.54 553.895 599.44 553.855 599.35C553.765 599.14 553.675 598.94 553.585 598.74C553.545 598.64 553.495 598.55 553.455 598.45C553.365 598.26 553.275 598.07 553.185 597.88C553.135 597.78 553.085 597.69 553.035 597.59C552.945 597.41 552.845 597.23 552.755 597.06C552.705 596.97 552.655 596.87 552.595 596.78C552.495 596.61 552.405 596.44 552.305 596.28C552.255 596.19 552.195 596.11 552.145 596.02C552.045 595.86 551.945 595.7 551.845 595.55C551.795 595.48 551.745 595.41 551.695 595.34C551.475 595.02 551.255 594.71 551.025 594.42C550.985 594.36 550.935 594.3 550.895 594.25C550.805 594.14 550.715 594.04 550.625 593.94C550.545 593.84 550.465 593.75 550.375 593.66C550.285 593.57 550.206 593.48 550.115 593.39C550.026 593.3 549.935 593.2 549.846 593.12C549.756 593.04 549.676 592.96 549.586 592.88C549.496 592.79 549.396 592.71 549.306 592.63C549.216 592.56 549.136 592.49 549.046 592.42C548.946 592.34 548.856 592.27 548.756 592.2C548.666 592.14 548.586 592.08 548.496 592.02C548.396 591.95 548.296 591.89 548.196 591.83C548.106 591.78 548.026 591.73 547.936 591.68C547.836 591.62 547.726 591.57 547.626 591.52C547.536 591.48 547.456 591.43 547.366 591.4C547.256 591.35 547.146 591.31 547.036 591.27C546.946 591.24 546.866 591.2 546.776 591.18C546.656 591.14 546.546 591.11 546.426 591.08C546.346 591.06 546.266 591.03 546.176 591.02C546.046 590.99 545.916 590.97 545.786 590.95C545.716 590.94 545.646 590.92 545.576 590.92C545.386 590.9 545.186 590.89 544.996 590.89H544.976C538.147 590.89 532.598 603.41 532.598 618.85C532.598 619.6 532.618 620.33 532.638 621.07C532.638 621.18 532.638 621.29 532.648 621.4C532.678 622.12 532.718 622.83 532.768 623.53C532.768 623.61 532.778 623.69 532.788 623.78C532.908 625.29 533.078 626.75 533.298 628.16L525.929 625.97V620.43C525.929 618.03 523.979 616.08 521.579 616.08C519.18 616.08 517.23 618.03 517.23 620.43V623.39H499.352V606.43C499.352 605.18 498.332 604.16 497.083 604.16H492.833C491.583 604.16 490.564 605.18 490.564 606.43V614.98H486.934C484.084 614.98 481.775 617.29 481.775 620.14C479.175 619.24 476.126 618.18 472.756 617.01C471.576 616.6 470.366 616.18 469.116 615.75V610.86C469.116 609.31 467.857 608.05 466.307 608.05V599.85C466.307 597.64 464.517 595.85 462.307 595.85H459.278V580.47C459.278 578.62 457.778 577.13 455.938 577.13H453.349C451.499 577.13 450.009 578.63 450.009 580.47V595.85H445.55V591.12C445.55 589.14 443.94 587.53 441.96 587.53H427.912C427.642 586.46 427.322 585.43 426.962 584.44V584.42C426.592 583.44 426.182 582.51 425.732 581.63L425.702 581.58C425.262 580.72 424.772 579.9 424.263 579.14L424.213 579.06C423.703 578.32 423.153 577.63 422.583 577.01C422.553 576.98 422.523 576.95 422.503 576.92C422.223 576.62 421.933 576.33 421.633 576.06C421.603 576.03 421.573 576.01 421.543 575.98C421.273 575.73 420.993 575.5 420.703 575.28C420.663 575.25 420.633 575.22 420.593 575.19C420.293 574.96 419.983 574.75 419.673 574.55C419.623 574.52 419.563 574.48 419.513 574.45C419.233 574.28 418.943 574.11 418.643 573.97C418.603 573.95 418.563 573.93 418.523 573.91C418.203 573.75 417.883 573.62 417.553 573.5C417.483 573.47 417.413 573.45 417.343 573.42C417.034 573.31 416.724 573.22 416.414 573.14C416.384 573.14 416.354 573.12 416.324 573.12C415.994 573.04 415.654 572.98 415.304 572.94C415.224 572.93 415.144 572.92 415.064 572.91C414.714 572.87 414.364 572.85 414.014 572.85C413.604 572.85 413.194 572.88 412.784 572.93C412.724 572.93 412.664 572.94 412.614 572.95C412.234 573.01 411.854 573.09 411.474 573.18C411.404 573.2 411.334 573.22 411.264 573.24C410.894 573.35 410.524 573.47 410.164 573.62C410.104 573.64 410.054 573.67 409.994 573.69C409.615 573.85 409.245 574.03 408.875 574.24C408.505 574.45 408.155 574.69 407.805 574.93C407.755 574.96 407.705 575 407.655 575.03C407.325 575.27 406.995 575.54 406.675 575.82C406.615 575.87 406.565 575.92 406.505 575.97C406.185 576.26 405.875 576.56 405.575 576.88C405.535 576.93 405.485 576.98 405.445 577.02C405.135 577.36 404.825 577.72 404.525 578.1C404.225 578.48 403.945 578.88 403.665 579.3C403.635 579.35 403.595 579.4 403.565 579.45C403.305 579.85 403.045 580.27 402.805 580.7C402.765 580.77 402.725 580.84 402.685 580.91C402.445 581.35 402.216 581.79 401.996 582.25C401.966 582.31 401.936 582.37 401.906 582.44C401.456 583.42 401.046 584.45 400.696 585.54C400.676 585.6 400.656 585.65 400.636 585.71C400.466 586.23 400.316 586.77 400.176 587.32C400.156 587.4 400.136 587.49 400.116 587.57C399.976 588.12 399.856 588.67 399.746 589.24C399.736 589.31 399.716 589.39 399.706 589.46C399.596 590.05 399.496 590.65 399.416 591.26C399.036 591.12 398.686 590.99 398.346 590.87L398.266 590.84C397.966 590.73 397.676 590.62 397.406 590.52L397.276 590.47C397.026 590.37 396.786 590.29 396.566 590.2L396.436 590.15C396.186 590.05 395.956 589.97 395.746 589.88C395.566 589.81 395.376 589.74 395.166 589.66C395.026 589.61 394.877 589.56 394.737 589.5C394.657 589.47 394.587 589.45 394.507 589.42V562.11C394.507 560.72 393.377 559.59 391.987 559.59H388.497C387.108 559.59 385.978 560.72 385.978 562.11V579.77H381.998V572.24C381.998 571.03 381.018 570.06 379.819 570.06H378.039V559.36C378.039 558.07 376.989 557.03 375.709 557.03H374.189C372.899 557.03 371.86 558.08 371.86 559.36V570.06H362.481C360.521 570.06 358.931 571.65 358.931 573.61V578.92C357.552 578.53 356.152 578.15 354.762 577.76H354.722V568.85C354.722 566.45 352.782 564.51 350.383 564.51H347.273V557.73C347.273 556.27 346.093 555.08 344.623 555.08H343.753V549.12C343.753 547.66 342.574 546.48 341.114 546.48H338.734C337.274 546.48 336.094 547.66 336.094 549.12V555.08H328.616C326.576 555.08 324.916 556.73 324.916 558.78V569.59C323.896 569.31 322.896 569.04 321.936 568.78C320.647 568.43 319.407 568.1 318.237 567.78V545.2C318.237 543.93 317.207 542.9 315.937 542.9H309.998C308.878 542.9 307.968 543.81 307.968 544.93V546.69H304.759C302.689 546.69 301.009 548.37 301.009 550.44V565.11L296.93 565.59V560.12C296.93 558.53 295.64 557.24 294.05 557.24H289.761V549.52C289.761 547.31 287.971 545.52 285.761 545.52H284.481C282.272 545.52 280.482 547.31 280.482 549.52V557.24H269.983V551.2C269.983 549.8 268.844 548.66 267.444 548.66H265.024C263.624 548.66 262.484 549.8 262.484 551.2V569.67L255.735 570.47V566.47C255.735 565.39 254.855 564.51 253.776 564.51H249.256C248.176 564.51 247.297 565.39 247.297 566.47V571.47L241.677 572.35V554.94C241.677 552.72 239.878 550.92 237.658 550.92H226.849C224.63 550.92 222.83 552.72 222.83 554.94V575.94L221.42 576.21V567.01C221.42 566.01 220.61 565.21 219.62 565.21H215.631C214.631 565.21 213.831 566.02 213.831 567.01V573.94H199.493V562.19C199.493 560.19 197.873 558.58 195.883 558.58H188.185C186.185 558.58 184.575 560.2 184.575 562.19V574.18H177.206C175.206 574.18 173.596 575.8 173.596 577.79V585.64L162.108 588.14L162.048 588.15Z" fill="url(#paint0_linear_1_4)"/>
</g>
<defs>
<linearGradient id="paint0_linear_1_4" x1="960" y1="572.61" x2="960" y2="961.65" gradientUnits="userSpaceOnUse">
<stop stop-color="#8D86EB"/>
<stop offset="1" stop-color="#A5A5F9"/>
</linearGradient>
<clipPath id="clip0_1_4">
<rect width="1920" height="1080" fill="white"/>
</clipPath>
</defs>
</svg>
