<svg width="1920" height="1080" viewBox="0 0 1920 1080" fill="none" xmlns="http://www.w3.org/2000/svg">
<path d="M1856.94 843.927V792.567C1856.94 770.217 1838.65 751.927 1816.3 751.927H1808.98C1804.73 751.927 1801.25 755.407 1801.25 759.657V843.937H1747.81C1740.76 843.937 1733.79 844.297 1726.92 844.987V818.007C1726.92 815.997 1726.02 814.097 1724.49 812.807C1715.7 805.457 1705.63 811.717 1705.63 820.207V848.287C1688.89 851.787 1672.91 857.337 1657.96 864.647V800.717C1657.96 796.467 1654.48 792.987 1650.23 792.987H1638.96C1634.71 792.987 1631.23 796.467 1631.23 800.717V880.337C1602.64 900.187 1579.43 927.147 1564.19 958.627C1560.93 965.367 1554.08 969.617 1546.59 969.617H1519.43V933.497C1519.43 931.817 1518.73 930.187 1517.47 929.087C1509.28 921.917 1499.75 927.737 1499.75 935.677V969.617H1473.65C1467.65 969.617 1462.06 972.647 1458.78 977.677L1450.46 990.437H1443.08C1439.24 990.437 1436.1 993.487 1435.99 997.327L1435.86 1001.69H1403.5C1398.5 1001.69 1393.7 1003.68 1390.16 1007.21L1379.37 1018H1320.87L1306.25 990.427C1303.13 984.547 1297.02 980.867 1290.36 980.867H1251.12V966.927C1251.12 964.997 1249.56 963.437 1247.63 963.437H1246.18C1244.25 963.437 1242.69 964.997 1242.69 966.927V980.867H1210.11C1201.78 980.867 1195.02 974.107 1195.02 965.777V888.927C1195.02 883.767 1190.33 879.847 1185.27 880.827C1161.79 885.377 1144.07 906.047 1144.07 930.847C1144.07 930.977 1144.07 931.097 1144.07 931.227L1126.66 940.337C1116.29 945.767 1108.43 954.997 1104.73 966.107L1097.71 987.177C1095.27 994.497 1088.42 999.427 1080.71 999.427C1062.38 999.427 1045.22 1008.44 1034.82 1023.53L1017.69 1048.37H964.25V1036.28C964.25 1034.26 962.61 1032.62 960.59 1032.62H955.54C953.52 1032.62 951.88 1034.26 951.88 1036.28V1048.37H912.02C906.63 1048.37 901.53 1045.96 898.11 1041.79L877.98 1017.26C874.56 1013.09 869.45 1010.68 864.06 1010.68H852.15C847.93 1010.68 843.88 1009.04 840.85 1006.11L814.64 980.707C811.39 977.557 807.05 975.797 802.53 975.797H762.33V943.967C762.33 941.457 760.29 939.417 757.78 939.417C749.73 939.417 743.2 945.947 743.2 953.997V964.917H718.45V944.617C718.45 938.327 713.35 933.227 707.06 933.227H653.2C646.63 933.227 640.56 936.747 637.3 942.457L619.56 973.557C617.78 976.667 614.48 978.597 610.89 978.597H599.72C596.55 978.597 593.97 976.117 593.79 972.957C589.55 898.627 531.72 838.647 458.33 831.067C449.93 830.197 442.6 836.717 442.6 845.167V878.877H421.65C412.6 878.877 404.53 884.577 401.5 893.117L392.22 919.287H367.59C362.18 919.287 357.32 922.597 355.34 927.627L337.99 971.617C336.33 975.827 332.26 978.597 327.73 978.597H306.22C303.59 978.597 301.24 976.917 300.39 974.427L299.25 971.077C298.03 967.497 294.67 965.097 290.89 965.097H270.63L261.46 911.377C260.66 906.707 256.62 903.297 251.88 903.297H223.98C220.21 903.297 216.78 905.477 215.18 908.887L207.68 924.867H136.66L135.79 901.687H155.29C167.35 901.687 177.12 891.917 177.12 879.857C177.12 876.677 174.55 874.107 171.37 874.107H134.75L133.88 850.927H155.29C167.35 850.927 177.12 841.157 177.12 829.097C177.12 825.917 174.55 823.347 171.37 823.347H132.84L131.97 800.167H155.29C167.35 800.167 177.12 790.397 177.12 778.337C177.12 775.157 174.55 772.587 171.37 772.587H130.93L130.66 765.377C130.01 748.207 143.76 733.927 160.95 733.927H277.94C281.76 733.927 285.37 732.117 287.6 729.017C296.75 716.347 287.7 702.177 275.77 703.037H0.18L0 733.927H40.36C57.55 733.927 71.3 748.207 70.65 765.377L67.91 837.997H0V1079.55H1920V843.927H1856.94Z" fill="#080628"/>
</svg>
