<svg width="1920" height="1080" viewBox="0 0 1920 1080" fill="none" xmlns="http://www.w3.org/2000/svg">
<g clip-path="url(#clip0_1_4)">
<path d="M1039.06 1000.2H968.99C972.7 984.24 974.76 966.65 974.76 948.18C974.76 875.41 942.87 816.42 903.52 816.42C864.17 816.42 832.28 875.41 832.28 948.18C832.28 949.74 832.3 951.3 832.33 952.86H802.47V921.41C802.47 916.28 798.31 912.12 793.18 912.12H702.64C686.5 884.8 686.54 827.91 684.66 794.85C684.2 786.78 682.2 741.77 682.01 736.39C681.99 735.72 681.96 735.06 681.94 734.39V734.1C681.92 733.89 681.91 733.69 681.91 733.48C681.89 732.86 681.86 732.25 681.85 731.64C681.79 729.95 681.73 728.24 681.68 726.54C747.7 724.81 798.51 714.18 798.51 701.35C798.51 688.52 746.85 677.71 680.02 676.11C679.99 675.26 679.96 674.41 679.94 673.57C679.91 672.65 679.88 671.74 679.85 670.83C679.8 669.28 679.75 667.77 679.7 666.29C679.58 662.46 679.46 658.86 679.36 655.54C679.3 653.42 679.23 651.43 679.17 649.55C707.44 643.7 728.31 623.23 728.31 598.88C728.31 571.47 701.86 549 668.19 546.73V525.37C671.4 523.46 673.56 519.97 673.56 515.96C673.56 509.91 668.65 505 662.6 505C656.55 505 651.64 509.9 651.64 515.96C651.64 519.97 653.8 523.46 657.01 525.37V546.74C623.34 549 596.89 571.48 596.89 598.89C596.89 623.24 617.76 643.7 646.03 649.56C645.97 651.44 645.91 653.43 645.84 655.55C645.73 658.87 645.61 662.47 645.5 666.3C645.45 667.78 645.4 669.29 645.35 670.84C645.32 671.74 645.29 672.66 645.26 673.58C645.23 674.42 645.2 675.27 645.18 676.12C578.35 677.72 526.69 688.42 526.69 701.36C526.69 714.3 577.49 724.82 643.52 726.55C643.46 728.25 643.4 729.96 643.35 731.65C643.33 732.27 643.31 732.88 643.28 733.49C643.28 733.7 643.28 733.9 643.26 734.11V734.4C643.23 735.07 643.2 735.73 643.18 736.4C642.99 741.78 640.99 786.79 640.54 794.86C638.67 827.92 638.7 884.81 622.56 912.13H615.82V839.49C615.82 832.16 609.87 826.21 602.54 826.21H591.27C588.06 826.21 585.45 828.82 585.45 832.03V861.07C585.45 863.97 583.1 866.33 580.19 866.33H402.34L400.45 866.31C398.02 824.59 371.05 791.71 338.12 791.71C337.37 791.71 336.63 791.75 335.89 791.78V713.91C335.89 709.65 332 706.43 327.83 707.26C289.06 715.04 258.83 778.25 258.83 855.08C258.83 858.38 258.89 861.65 259 864.9H230.22L225.5 850.15C221.27 836.92 208.98 827.94 195.09 827.94H184.65V822.12H193.71C197.2 822.12 200.03 819.29 200.03 815.8C200.03 814.38 198.89 813.23 197.47 813.23H184.65V804.57H193.71C197.2 804.57 200.03 801.74 200.03 798.25C200.03 796.83 198.89 795.68 197.47 795.68H184.65V787.02H193.71C197.2 787.02 200.03 784.19 200.03 780.7C200.03 779.28 198.89 778.13 197.47 778.13H184.65V769.46H193.71C197.2 769.46 200.03 766.63 200.03 763.14C200.03 761.73 198.89 760.58 197.47 760.58H158.96C153.82 760.58 149.27 763.9 147.69 768.79L123.34 844.39H110.4L102.23 782.74C101.02 773.59 95.67 765.5 87.72 760.81C80.39 756.48 75.9 748.61 75.9 740.1V629.89C75.9 626 71.77 623.49 68.32 625.29L58.07 630.62C53.75 632.87 50.78 637.06 50.09 641.88L42.3 696.18H34.84C29.88 696.18 25.56 699.55 24.34 704.35L19.66 722.8H0V1080.32H1220.37L1039.06 1000.2ZM738.45 707.22C738.45 710.03 714.11 712.38 681.22 713.04L681.15 711.05C681.09 709.12 681.02 707.19 680.96 705.28C680.96 704.97 680.94 704.66 680.93 704.35C680.9 703.36 680.87 702.39 680.83 701.41C713.92 702.05 738.44 704.41 738.44 707.22H738.45ZM586.71 707.22C586.71 704.41 611.23 702.05 644.32 701.41C644.29 702.39 644.26 703.36 644.22 704.35C644.22 704.66 644.2 704.97 644.19 705.28C644.13 707.19 644.06 709.12 644 711.05L643.93 713.04C611.04 712.38 586.7 710.03 586.7 707.22H586.71Z" fill="url(#paint0_linear_1_4)"/>
</g>
<defs>
<linearGradient id="paint0_linear_1_4" x1="610.19" y1="576.12" x2="610.19" y2="1001.13" gradientUnits="userSpaceOnUse">
<stop stop-color="#160E3F"/>
<stop offset="1" stop-color="#321F71"/>
</linearGradient>
<clipPath id="clip0_1_4">
<rect width="1920" height="1080" fill="white"/>
</clipPath>
</defs>
</svg>
