<svg width="1790" height="1080" viewBox="0 0 1790 1080" fill="none" xmlns="http://www.w3.org/2000/svg">
<g clip-path="url(#clip0_23_44)">
<path d="M1731.21 860.365V812.49C1731.21 791.656 1714.16 774.607 1693.32 774.607H1686.5C1682.53 774.607 1679.29 777.851 1679.29 781.813V860.374H1629.47C1622.9 860.374 1616.4 860.71 1609.99 861.353V836.204C1609.99 834.33 1609.15 832.559 1607.73 831.357C1599.53 824.505 1590.14 830.341 1590.14 838.254V864.429C1574.54 867.692 1559.64 872.865 1545.7 879.679V820.087C1545.7 816.125 1542.46 812.881 1538.5 812.881H1527.99C1524.03 812.881 1520.78 816.125 1520.78 820.087V894.304C1494.13 912.808 1472.49 937.938 1458.28 967.282C1455.24 973.565 1448.86 977.527 1441.87 977.527H1416.55V943.857C1416.55 942.291 1415.9 940.772 1414.72 939.747C1407.09 933.063 1398.2 938.488 1398.2 945.889V977.527H1373.87C1368.28 977.527 1363.07 980.351 1360.01 985.04L1352.25 996.934H1345.37C1341.79 996.934 1338.86 999.777 1338.76 1003.36L1338.64 1007.42H1308.47C1303.81 1007.42 1299.33 1009.28 1296.03 1012.57L1285.98 1022.62H1231.44L1217.81 996.925C1214.9 991.444 1209.2 988.013 1202.99 988.013H1166.41V975.019C1166.41 973.22 1164.95 971.766 1163.16 971.766H1161.8C1160 971.766 1158.55 973.22 1158.55 975.019V988.013H1128.18C1120.41 988.013 1114.11 981.712 1114.11 973.947V902.312C1114.11 897.502 1109.73 893.848 1105.02 894.761C1083.13 899.002 1066.61 918.27 1066.61 941.387C1066.61 941.508 1066.61 941.62 1066.61 941.741L1050.38 950.233C1040.71 955.295 1033.38 963.899 1029.93 974.255L1023.39 993.895C1021.11 1000.72 1014.72 1005.31 1007.54 1005.31C990.448 1005.31 974.45 1013.71 964.754 1027.78L948.784 1050.93H898.962V1039.66C898.962 1037.78 897.433 1036.25 895.55 1036.25H890.842C888.959 1036.25 887.43 1037.78 887.43 1039.66V1050.93H850.269C845.244 1050.93 840.489 1048.69 837.3 1044.8L818.533 1021.93C815.345 1018.05 810.581 1015.8 805.556 1015.8H794.452C790.518 1015.8 786.742 1014.27 783.917 1011.54L759.482 987.864C756.452 984.928 752.406 983.287 748.192 983.287H710.714V953.617C710.714 951.277 708.812 949.376 706.472 949.376C698.967 949.376 692.879 955.463 692.879 962.966V973.145H669.805V954.223C669.805 948.36 665.05 943.606 659.186 943.606H608.973C602.848 943.606 597.189 946.887 594.149 952.209L577.611 981.199C575.951 984.098 572.875 985.897 569.528 985.897H559.114C556.159 985.897 553.753 983.586 553.585 980.64C549.633 911.353 495.718 855.443 427.297 848.378C419.466 847.567 412.632 853.644 412.632 861.521V892.944H393.101C384.664 892.944 377.14 898.257 374.315 906.217L365.663 930.612H342.701C337.657 930.612 333.126 933.697 331.281 938.386L315.105 979.391C313.558 983.315 309.763 985.897 305.54 985.897H285.486C283.034 985.897 280.844 984.331 280.051 982.01L278.988 978.887C277.851 975.55 274.718 973.313 271.194 973.313H252.306L243.757 923.238C243.011 918.885 239.245 915.707 234.826 915.707H208.815C205.3 915.707 202.102 917.739 200.611 920.917L193.618 935.813H127.407L126.596 914.206H144.776C156.019 914.206 165.128 905.099 165.128 893.857C165.128 890.893 162.732 888.497 159.767 888.497H125.626L124.815 866.89H144.776C156.019 866.89 165.128 857.783 165.128 846.541C165.128 843.577 162.732 841.181 159.767 841.181H123.846L123.035 819.574H144.776C156.019 819.574 165.128 810.467 165.128 799.225C165.128 796.261 162.732 793.866 159.767 793.866H122.065L121.813 787.145C121.207 771.14 134.026 757.829 150.052 757.829H259.121C262.683 757.829 266.048 756.142 268.127 753.252C276.658 741.442 268.22 728.233 257.098 729.035H0.167813L0 757.829H37.6273C53.6534 757.829 66.4724 771.14 65.8664 787.145L63.3119 854.837H0V1080H1790V860.365H1731.21Z" fill="url(#paint0_linear_23_44)"/>
</g>
<defs>
<linearGradient id="paint0_linear_23_44" x1="895" y1="1080" x2="895" y2="728.997" gradientUnits="userSpaceOnUse">
<stop stop-color="#160E3F"/>
<stop offset="1" stop-color="#080628"/>
</linearGradient>
<clipPath id="clip0_23_44">
<rect width="1790" height="1080" fill="white"/>
</clipPath>
</defs>
</svg>
