<svg width="1921" height="1080" viewBox="0 0 1921 1080" fill="none" xmlns="http://www.w3.org/2000/svg">
<path d="M1920.83 0H0.799805V1080H1920.83V0Z" fill="url(#paint0_linear_2536_6404)"/>
<path opacity="0.6" d="M1920.83 269.19H0.799805V1079.62H1920.83V269.19Z" fill="url(#paint1_linear_2536_6404)"/>
<g opacity="0.4">
<path opacity="0.4" d="M410.57 438.2C410.57 433.42 406.69 429.54 401.91 429.54H322.89C318.11 429.54 314.23 433.42 314.23 438.2C314.23 442.98 310.35 446.86 305.57 446.86H282.65C277.87 446.86 273.99 450.74 273.99 455.52C273.99 460.3 277.87 464.18 282.65 464.18H430.42C435.2 464.18 439.08 460.3 439.08 455.52C439.08 450.74 435.2 446.86 430.42 446.86H419.24C414.45 446.86 410.57 442.98 410.57 438.2Z" fill="url(#paint2_linear_2536_6404)"/>
<path opacity="0.4" d="M1846.4 498.77C1841.68 498.77 1837.86 494.94 1837.86 490.23C1837.86 485.51 1841.69 481.69 1846.4 481.69H1885.56C1890.28 481.69 1894.1 477.86 1894.1 473.15C1894.1 468.43 1897.93 464.61 1902.64 464.61H1920.8V446.87V446.8V429.78H1878.49C1873.79 429.78 1869.98 433.59 1869.98 438.29C1869.98 442.99 1866.17 446.8 1861.47 446.8H1817.39C1812.68 446.8 1808.86 450.62 1808.86 455.32V455.74C1808.86 460.45 1805.04 464.27 1800.33 464.27H1738.45C1733.74 464.27 1729.93 468.09 1729.93 472.79V473.17C1729.93 477.88 1733.75 481.7 1738.46 481.7H1751.42C1756.13 481.7 1759.94 485.52 1759.94 490.22V490.62C1759.94 495.33 1756.12 499.15 1751.41 499.15H1645.31C1640.6 499.15 1636.78 495.33 1636.78 490.62V490.24C1636.78 485.53 1632.96 481.72 1628.26 481.72H1600.56C1595.85 481.72 1592.04 477.9 1592.04 473.2V472.78C1592.04 468.07 1595.86 464.26 1600.56 464.26H1669.12C1673.83 464.26 1677.65 460.44 1677.65 455.74V455.34C1677.65 450.63 1673.83 446.82 1669.13 446.82H1504.1C1499.39 446.82 1495.58 450.64 1495.58 455.34V455.76C1495.58 460.47 1499.4 464.29 1504.11 464.29H1537.35C1542.06 464.29 1545.88 468.11 1545.88 472.81V473.19C1545.88 477.9 1542.06 481.72 1537.35 481.72H1424.48C1419.77 481.72 1415.96 485.54 1415.96 490.24V490.64C1415.96 495.35 1412.14 499.16 1407.44 499.16H1236.27C1231.56 499.16 1227.74 502.98 1227.74 507.68V508.1C1227.74 512.81 1231.56 516.63 1236.27 516.63H1283.31C1288.02 516.63 1291.83 520.45 1291.83 525.15V525.55C1291.83 530.26 1288.01 534.08 1283.3 534.08H1179.66C1174.95 534.08 1171.13 537.9 1171.13 542.61V542.73C1171.13 547.44 1167.31 551.26 1162.6 551.26H1088.08C1083.37 551.26 1079.55 555.08 1079.55 559.78V560.46C1079.55 565.17 1075.73 568.98 1071.03 568.98H992.25C987.54 568.98 983.72 565.16 983.72 560.46V560.06C983.72 555.35 987.54 551.53 992.25 551.53H1021.07C1025.78 551.53 1029.59 547.71 1029.59 543V542.58C1029.59 537.87 1025.77 534.05 1021.06 534.05H893.45C888.74 534.05 884.92 537.87 884.92 542.57V542.99C884.92 547.7 888.74 551.52 893.45 551.52H928.62C933.33 551.52 937.15 555.34 937.15 560.05V560.43C937.15 565.14 933.33 568.96 928.62 568.96H824.7C819.99 568.96 816.17 565.14 816.17 560.44V560.42C816.17 555.71 812.35 551.9 807.65 551.9H781.39C776.68 551.9 772.86 548.08 772.86 543.38V542.61C772.86 537.9 769.04 534.09 764.34 534.09H730.47C725.76 534.09 721.94 530.27 721.94 525.56V525.14C721.94 520.43 718.12 516.62 713.42 516.62H655.19C650.48 516.62 646.66 520.44 646.66 525.15V525.69C646.66 530.4 650.48 534.22 655.19 534.22H671.76C676.3 534.22 680.27 537.65 680.56 542.18C680.88 547.15 676.95 551.27 672.05 551.27H608.89C604.18 551.27 600.36 547.45 600.36 542.75V542.63C600.36 537.92 596.54 534.11 591.84 534.11H538.92C534.21 534.11 530.39 530.29 530.39 525.59V525.17C530.39 520.46 526.57 516.65 521.87 516.65H464C459.29 516.65 455.47 512.83 455.47 508.12V508C455.47 503.29 459.29 499.47 464 499.47H495.35C500.06 499.47 503.87 495.65 503.87 490.95V490.22C503.87 485.51 500.05 481.7 495.34 481.7H359.39C354.68 481.7 350.86 485.52 350.86 490.22V490.95C350.86 495.66 354.68 499.47 359.38 499.47H378.34C383.05 499.47 386.87 503.29 386.87 508V508.07C386.87 512.78 383.05 516.6 378.34 516.6H300.56C295.85 516.6 292.03 512.78 292.03 508.08V508C292.03 503.29 288.21 499.47 283.5 499.47H140.39C135.68 499.47 131.86 495.65 131.86 490.94V490.21C131.86 485.5 135.68 481.69 140.38 481.69H227.39C232.1 481.69 235.91 477.87 235.91 473.17V472.77C235.91 468.06 232.09 464.24 227.38 464.24H174.65C169.94 464.24 166.12 460.42 166.12 455.71V455.29C166.12 450.58 169.94 446.77 174.65 446.77H207.95C212.66 446.77 216.48 442.95 216.48 438.25V437.85C216.48 433.14 212.66 429.33 207.96 429.33H138.27C133.56 429.33 129.74 425.51 129.74 420.81V420.41C129.74 415.7 125.92 411.88 121.21 411.88H53.0098C48.3598 411.88 44.2998 408.37 43.9998 403.74C43.6698 398.66 47.6998 394.43 52.7098 394.43H78.1498C82.7998 394.43 86.8598 390.92 87.1598 386.29C87.4898 381.21 83.4598 376.98 78.4498 376.98H0.799805V394.43V411.88H0.819805L0.799805 446.87H120.1C124.71 446.87 128.74 450.35 129.04 454.96C129.37 460 125.37 464.2 120.4 464.2H0.799805V1080H1920.8V498.77H1846.4ZM97.7398 499.19H61.6298C56.8098 499.19 52.8998 495.28 52.8998 490.46C52.8998 485.64 56.8098 481.73 61.6298 481.73H97.7498C102.57 481.73 106.48 485.64 106.48 490.46C106.47 495.28 102.56 499.19 97.7398 499.19ZM265.05 551.12H185.11C180.33 551.12 176.45 547.24 176.45 542.46C176.45 537.68 172.57 533.8 167.79 533.8H154.52C149.74 533.8 145.86 529.92 145.86 525.14C145.86 520.36 149.74 516.48 154.52 516.48H203.86C208.64 516.48 212.52 520.36 212.52 525.14C212.52 529.92 216.4 533.8 221.18 533.8H265.05C269.83 533.8 273.71 537.68 273.71 542.46C273.71 547.24 269.83 551.12 265.05 551.12ZM497.41 543.16C497.41 547.94 493.53 551.82 488.75 551.82H445.06C440.28 551.82 436.4 547.94 436.4 543.16C436.4 538.38 440.28 534.5 445.06 534.5H488.75C493.53 534.5 497.41 538.38 497.41 543.16ZM1280.82 569.91H1222.68C1217.9 569.91 1214.02 566.03 1214.02 561.25C1214.02 556.47 1217.9 552.59 1222.68 552.59H1280.82C1285.6 552.59 1289.48 556.47 1289.48 561.25C1289.48 566.03 1285.61 569.91 1280.82 569.91ZM1441.16 534.05H1339.28C1334.5 534.05 1330.62 530.17 1330.62 525.39C1330.62 520.61 1334.5 516.73 1339.28 516.73H1441.16C1445.94 516.73 1449.82 520.61 1449.82 525.39C1449.82 530.17 1445.94 534.05 1441.16 534.05ZM1674.8 533.41H1648.15C1643.37 533.41 1639.49 537.29 1639.49 542.07C1639.49 546.85 1635.61 550.73 1630.83 550.73H1610.77C1605.99 550.73 1602.11 546.85 1602.11 542.07C1602.11 537.29 1598.23 533.41 1593.45 533.41H1567.67C1562.89 533.41 1559.01 529.53 1559.01 524.75C1559.01 519.97 1555.13 516.09 1550.35 516.09H1537.9C1533.12 516.09 1529.24 512.21 1529.24 507.43C1529.24 502.65 1533.12 498.77 1537.9 498.77H1596.04C1600.82 498.77 1604.7 502.65 1604.7 507.43C1604.7 512.21 1608.58 516.09 1613.36 516.09H1674.8C1679.58 516.09 1683.46 519.97 1683.46 524.75C1683.46 529.54 1679.58 533.41 1674.8 533.41Z" fill="url(#paint3_linear_2536_6404)"/>
<path opacity="0.4" d="M1363.86 455.551C1363.86 460.271 1360.03 464.091 1355.32 464.091H1284.01C1279.29 464.091 1275.47 467.921 1275.47 472.631C1275.47 477.351 1279.3 481.171 1284.01 481.171H1367.34C1372.06 481.171 1375.88 477.341 1375.88 472.631C1375.88 467.911 1379.71 464.091 1384.42 464.091H1420.84C1425.56 464.091 1429.38 460.261 1429.38 455.551C1429.38 450.831 1425.55 447.011 1420.84 447.011H1372.4C1367.69 447.011 1363.86 450.831 1363.86 455.551Z" fill="url(#paint4_linear_2536_6404)"/>
</g>
<path opacity="0.6" d="M970.78 769.58C1164.1 769.58 1320.82 612.862 1320.82 419.54C1320.82 226.218 1164.1 69.5 970.78 69.5C777.458 69.5 620.74 226.218 620.74 419.54C620.74 612.862 777.458 769.58 970.78 769.58Z" fill="url(#paint5_linear_2536_6404)"/>
<path opacity="0.6" d="M851.4 161.73C867.48 175.79 859.64 211.05 833.89 240.5C808.14 269.95 774.24 282.42 758.16 268.36C742.08 254.3 749.92 219.04 775.67 189.59C801.42 160.14 835.32 147.67 851.4 161.73Z" fill="url(#paint6_linear_2536_6404)"/>
<path opacity="0.6" d="M722.79 275.53C727.77 278.4 728.56 286.34 724.56 293.26C720.56 300.18 713.29 303.46 708.32 300.59C703.34 297.72 702.55 289.78 706.55 282.86C710.54 275.94 717.82 272.66 722.79 275.53Z" fill="url(#paint7_linear_2536_6404)"/>
<path opacity="0.6" d="M902.71 209.7C906.75 212.04 907.15 218.92 903.6 225.08C900.05 231.24 893.88 234.34 889.84 232C885.8 229.66 885.4 222.78 888.95 216.62C892.5 210.47 898.66 207.37 902.71 209.7Z" fill="url(#paint8_linear_2536_6404)"/>
<path opacity="0.6" d="M824.51 335.29C820.2 349.49 807.879 358.32 796.979 355.02C786.08 351.72 780.74 337.52 785.05 323.32C789.36 309.12 801.68 300.29 812.58 303.59C823.48 306.89 828.82 321.08 824.51 335.29Z" fill="url(#paint9_linear_2536_6404)"/>
<path opacity="0.6" d="M917.45 157.09C905.92 162.3 893.56 159.83 889.83 151.57C886.1 143.32 892.42 132.4 903.95 127.19C915.48 121.98 927.84 124.45 931.57 132.71C935.3 140.97 928.97 151.88 917.45 157.09Z" fill="url(#paint10_linear_2536_6404)"/>
<path opacity="0.6" d="M166.3 252.04C191.744 252.04 212.37 231.414 212.37 205.97C212.37 180.527 191.744 159.9 166.3 159.9C140.856 159.9 120.23 180.527 120.23 205.97C120.23 231.414 140.856 252.04 166.3 252.04Z" fill="url(#paint11_linear_2536_6404)"/>
<path opacity="0.6" d="M1746.24 168.68C1754.73 168.68 1761.61 161.799 1761.61 153.31C1761.61 144.822 1754.73 137.94 1746.24 137.94C1737.75 137.94 1730.87 144.822 1730.87 153.31C1730.87 161.799 1737.75 168.68 1746.24 168.68Z" fill="url(#paint12_linear_2536_6404)"/>
<path d="M569.55 436.81C570.483 436.81 571.24 436.053 571.24 435.12C571.24 434.186 570.483 433.43 569.55 433.43C568.616 433.43 567.86 434.186 567.86 435.12C567.86 436.053 568.616 436.81 569.55 436.81Z" fill="#9EA9E8"/>
<path d="M539.13 477.88C540.063 477.88 540.82 477.123 540.82 476.19C540.82 475.257 540.063 474.5 539.13 474.5C538.196 474.5 537.44 475.257 537.44 476.19C537.44 477.123 538.196 477.88 539.13 477.88Z" fill="#9EA9E8"/>
<path d="M612.4 512.6C613.355 512.6 614.13 511.825 614.13 510.87C614.13 509.914 613.355 509.14 612.4 509.14C611.444 509.14 610.67 509.914 610.67 510.87C610.67 511.825 611.444 512.6 612.4 512.6Z" fill="#9EA9E8"/>
<path d="M530.8 381.32C532.147 381.32 533.24 380.228 533.24 378.88C533.24 377.533 532.147 376.44 530.8 376.44C529.452 376.44 528.36 377.533 528.36 378.88C528.36 380.228 529.452 381.32 530.8 381.32Z" fill="#9EA9E8"/>
<path d="M480.74 470.75C481.673 470.75 482.43 469.993 482.43 469.06C482.43 468.127 481.673 467.37 480.74 467.37C479.806 467.37 479.05 468.127 479.05 469.06C479.05 469.993 479.806 470.75 480.74 470.75Z" fill="#9EA9E8"/>
<path d="M449.99 439.26C451.133 439.26 452.06 438.333 452.06 437.19C452.06 436.047 451.133 435.12 449.99 435.12C448.847 435.12 447.92 436.047 447.92 437.19C447.92 438.333 448.847 439.26 449.99 439.26Z" fill="#9EA9E8"/>
<path d="M399.83 481.25C400.763 481.25 401.52 480.493 401.52 479.56C401.52 478.627 400.763 477.87 399.83 477.87C398.896 477.87 398.14 478.627 398.14 479.56C398.14 480.493 398.896 481.25 399.83 481.25Z" fill="#9EA9E8"/>
<path d="M432.08 367.43C432.544 367.43 432.92 367.054 432.92 366.59C432.92 366.126 432.544 365.75 432.08 365.75C431.616 365.75 431.24 366.126 431.24 366.59C431.24 367.054 431.616 367.43 432.08 367.43Z" fill="#9EA9E8"/>
<path d="M370.35 406.72C371.515 406.72 372.46 405.775 372.46 404.61C372.46 403.445 371.515 402.5 370.35 402.5C369.185 402.5 368.24 403.445 368.24 404.61C368.24 405.775 369.185 406.72 370.35 406.72Z" fill="#9EA9E8"/>
<path d="M398.38 316.53C399.181 316.53 399.83 315.881 399.83 315.08C399.83 314.279 399.181 313.63 398.38 313.63C397.579 313.63 396.93 314.279 396.93 315.08C396.93 315.881 397.579 316.53 398.38 316.53Z" fill="#9EA9E8"/>
<path d="M330.18 437.19C330.749 437.19 331.21 436.729 331.21 436.16C331.21 435.591 330.749 435.13 330.18 435.13C329.611 435.13 329.15 435.591 329.15 436.16C329.15 436.729 329.611 437.19 330.18 437.19Z" fill="#9EA9E8"/>
<path d="M612.92 381.45C613.632 381.45 614.21 380.873 614.21 380.16C614.21 379.448 613.632 378.87 612.92 378.87C612.207 378.87 611.63 379.448 611.63 380.16C611.63 380.873 612.207 381.45 612.92 381.45Z" fill="#9EA9E8"/>
<path d="M707.52 277.91C708.299 277.91 708.93 277.279 708.93 276.5C708.93 275.721 708.299 275.09 707.52 275.09C706.741 275.09 706.11 275.721 706.11 276.5C706.11 277.279 706.741 277.91 707.52 277.91Z" fill="#9EA9E8"/>
<path d="M624.45 282.61C625.748 282.61 626.8 281.558 626.8 280.26C626.8 278.962 625.748 277.91 624.45 277.91C623.152 277.91 622.1 278.962 622.1 280.26C622.1 281.558 623.152 282.61 624.45 282.61Z" fill="#9EA9E8"/>
<path d="M483.99 527.21C484.857 527.21 485.56 526.507 485.56 525.64C485.56 524.773 484.857 524.07 483.99 524.07C483.123 524.07 482.42 524.773 482.42 525.64C482.42 526.507 483.123 527.21 483.99 527.21Z" fill="#9EA9E8"/>
<path d="M268.68 460.26C269.718 460.26 270.56 459.418 270.56 458.38C270.56 457.342 269.718 456.5 268.68 456.5C267.642 456.5 266.8 457.342 266.8 458.38C266.8 459.418 267.642 460.26 268.68 460.26Z" fill="#9EA9E8"/>
<path d="M286.5 355.18C286.947 355.18 287.31 354.817 287.31 354.37C287.31 353.922 286.947 353.56 286.5 353.56C286.052 353.56 285.69 353.922 285.69 354.37C285.69 354.817 286.052 355.18 286.5 355.18Z" fill="#9EA9E8"/>
<path d="M186.13 485.9C186.688 485.9 187.14 485.448 187.14 484.89C187.14 484.332 186.688 483.88 186.13 483.88C185.572 483.88 185.12 484.332 185.12 484.89C185.12 485.448 185.572 485.9 186.13 485.9Z" fill="#9EA9E8"/>
<path d="M238.22 410.43C238.855 410.43 239.37 409.915 239.37 409.28C239.37 408.645 238.855 408.13 238.22 408.13C237.585 408.13 237.07 408.645 237.07 409.28C237.07 409.915 237.585 410.43 238.22 410.43Z" fill="#9EA9E8"/>
<path d="M98.1895 492.17C99.1339 492.17 99.8995 491.404 99.8995 490.46C99.8995 489.516 99.1339 488.75 98.1895 488.75C97.2451 488.75 96.4795 489.516 96.4795 490.46C96.4795 491.404 97.2451 492.17 98.1895 492.17Z" fill="#9EA9E8"/>
<path d="M132.08 437.19C132.649 437.19 133.11 436.729 133.11 436.16C133.11 435.591 132.649 435.13 132.08 435.13C131.511 435.13 131.05 435.591 131.05 436.16C131.05 436.729 131.511 437.19 132.08 437.19Z" fill="#9EA9E8"/>
<path d="M183.5 369.83C184.395 369.83 185.12 369.105 185.12 368.21C185.12 367.315 184.395 366.59 183.5 366.59C182.605 366.59 181.88 367.315 181.88 368.21C181.88 369.105 182.605 369.83 183.5 369.83Z" fill="#9EA9E8"/>
<path d="M92.1199 368.99C92.7826 368.99 93.3199 368.453 93.3199 367.79C93.3199 367.127 92.7826 366.59 92.1199 366.59C91.4571 366.59 90.9199 367.127 90.9199 367.79C90.9199 368.453 91.4571 368.99 92.1199 368.99Z" fill="#9EA9E8"/>
<path d="M278.71 287.56C279.279 287.56 279.74 287.099 279.74 286.53C279.74 285.961 279.279 285.5 278.71 285.5C278.141 285.5 277.68 285.961 277.68 286.53C277.68 287.099 278.141 287.56 278.71 287.56Z" fill="#9EA9E8"/>
<path d="M174.18 288.59C174.749 288.59 175.21 288.129 175.21 287.56C175.21 286.991 174.749 286.53 174.18 286.53C173.611 286.53 173.15 286.991 173.15 287.56C173.15 288.129 173.611 288.59 174.18 288.59Z" fill="#9EA9E8"/>
<path d="M238.01 330.13C238.529 330.13 238.95 329.709 238.95 329.19C238.95 328.671 238.529 328.25 238.01 328.25C237.491 328.25 237.07 328.671 237.07 329.19C237.07 329.709 237.491 330.13 238.01 330.13Z" fill="#9EA9E8"/>
<path d="M382.3 261.87C382.918 261.87 383.42 261.368 383.42 260.75C383.42 260.131 382.918 259.63 382.3 259.63C381.681 259.63 381.18 260.131 381.18 260.75C381.18 261.368 381.681 261.87 382.3 261.87Z" fill="#9EA9E8"/>
<path d="M141.55 258.13C141.964 258.13 142.3 257.794 142.3 257.38C142.3 256.966 141.964 256.63 141.55 256.63C141.136 256.63 140.8 256.966 140.8 257.38C140.8 257.794 141.136 258.13 141.55 258.13Z" fill="#9EA9E8"/>
<path d="M490.02 179.75C491.108 179.75 491.99 178.868 491.99 177.78C491.99 176.692 491.108 175.81 490.02 175.81C488.932 175.81 488.05 176.692 488.05 177.78C488.05 178.868 488.932 179.75 490.02 179.75Z" fill="#9EA9E8"/>
<path d="M636.69 184.53C638.01 184.53 639.08 183.46 639.08 182.14C639.08 180.82 638.01 179.75 636.69 179.75C635.37 179.75 634.3 180.82 634.3 182.14C634.3 183.46 635.37 184.53 636.69 184.53Z" fill="#9EA9E8"/>
<path d="M586.35 243.59C586.891 243.59 587.33 243.151 587.33 242.61C587.33 242.069 586.891 241.63 586.35 241.63C585.809 241.63 585.37 242.069 585.37 242.61C585.37 243.151 585.809 243.59 586.35 243.59Z" fill="#9EA9E8"/>
<path d="M770.57 194.1C771.581 194.1 772.4 193.281 772.4 192.27C772.4 191.26 771.581 190.44 770.57 190.44C769.559 190.44 768.74 191.26 768.74 192.27C768.74 193.281 769.559 194.1 770.57 194.1Z" fill="#9EA9E8"/>
<path d="M548.87 300.68C549.295 300.68 549.64 300.335 549.64 299.91C549.64 299.484 549.295 299.14 548.87 299.14C548.445 299.14 548.1 299.484 548.1 299.91C548.1 300.335 548.445 300.68 548.87 300.68Z" fill="#9EA9E8"/>
<path d="M468.78 312.41C469.117 312.41 469.39 312.137 469.39 311.8C469.39 311.464 469.117 311.19 468.78 311.19C468.443 311.19 468.17 311.464 468.17 311.8C468.17 312.137 468.443 312.41 468.78 312.41Z" fill="#9EA9E8"/>
<path d="M528.36 260.19C528.879 260.19 529.3 259.769 529.3 259.25C529.3 258.73 528.879 258.31 528.36 258.31C527.841 258.31 527.42 258.73 527.42 259.25C527.42 259.769 527.841 260.19 528.36 260.19Z" fill="#9EA9E8"/>
<path d="M443.71 227C444.074 227 444.37 226.704 444.37 226.34C444.37 225.975 444.074 225.68 443.71 225.68C443.345 225.68 443.05 225.975 443.05 226.34C443.05 226.704 443.345 227 443.71 227Z" fill="#9EA9E8"/>
<path d="M403.25 157.53C404.415 157.53 405.36 156.585 405.36 155.42C405.36 154.254 404.415 153.31 403.25 153.31C402.085 153.31 401.14 154.254 401.14 155.42C401.14 156.585 402.085 157.53 403.25 157.53Z" fill="#9EA9E8"/>
<path d="M336.6 137.56C337.141 137.56 337.58 137.121 337.58 136.58C337.58 136.038 337.141 135.6 336.6 135.6C336.059 135.6 335.62 136.038 335.62 136.58C335.62 137.121 336.059 137.56 336.6 137.56Z" fill="#9EA9E8"/>
<path d="M85.09 193.67C85.438 193.67 85.72 193.388 85.72 193.04C85.72 192.692 85.438 192.41 85.09 192.41C84.7421 192.41 84.46 192.692 84.46 193.04C84.46 193.388 84.7421 193.67 85.09 193.67Z" fill="#9EA9E8"/>
<path d="M180.08 149.1C180.859 149.1 181.49 148.469 181.49 147.69C181.49 146.912 180.859 146.28 180.08 146.28C179.301 146.28 178.67 146.912 178.67 147.69C178.67 148.469 179.301 149.1 180.08 149.1Z" fill="#9EA9E8"/>
<path d="M100.63 66.3999C101.171 66.3999 101.61 65.9612 101.61 65.4199C101.61 64.8787 101.171 64.4399 100.63 64.4399C100.089 64.4399 99.6494 64.8787 99.6494 65.4199C99.6494 65.9612 100.089 66.3999 100.63 66.3999Z" fill="#9EA9E8"/>
<path d="M308.96 75.5499C309.777 75.5499 310.44 74.8872 310.44 74.0698C310.44 73.2525 309.777 72.5898 308.96 72.5898C308.142 72.5898 307.48 73.2525 307.48 74.0698C307.48 74.8872 308.142 75.5499 308.96 75.5499Z" fill="#9EA9E8"/>
<path d="M438.41 82.1504C438.951 82.1504 439.39 81.7117 439.39 81.1704C439.39 80.6292 438.951 80.1904 438.41 80.1904C437.869 80.1904 437.43 80.6292 437.43 81.1704C437.43 81.7117 437.869 82.1504 438.41 82.1504Z" fill="#9EA9E8"/>
<path d="M400.16 37.4302C400.701 37.4302 401.14 36.9915 401.14 36.4502C401.14 35.909 400.701 35.4702 400.16 35.4702C399.619 35.4702 399.18 35.909 399.18 36.4502C399.18 36.9915 399.619 37.4302 400.16 37.4302Z" fill="#9EA9E8"/>
<path d="M535.02 106.34C535.484 106.34 535.86 105.964 535.86 105.5C535.86 105.036 535.484 104.66 535.02 104.66C534.556 104.66 534.18 105.036 534.18 105.5C534.18 105.964 534.556 106.34 535.02 106.34Z" fill="#9EA9E8"/>
<path d="M695.75 127.44C696.76 127.44 697.58 126.621 697.58 125.61C697.58 124.6 696.76 123.78 695.75 123.78C694.739 123.78 693.92 124.6 693.92 125.61C693.92 126.621 694.739 127.44 695.75 127.44Z" fill="#9EA9E8"/>
<path d="M653.92 49.6702C654.815 49.6702 655.54 48.9449 655.54 48.0502C655.54 47.1555 654.815 46.4302 653.92 46.4302C653.025 46.4302 652.3 47.1555 652.3 48.0502C652.3 48.9449 653.025 49.6702 653.92 49.6702Z" fill="#9EA9E8"/>
<path d="M626.12 110.98C627.401 110.98 628.44 109.941 628.44 108.66C628.44 107.379 627.401 106.34 626.12 106.34C624.839 106.34 623.8 107.379 623.8 108.66C623.8 109.941 624.839 110.98 626.12 110.98Z" fill="#9EA9E8"/>
<path d="M548.61 30.12C549.748 30.12 550.67 29.1977 550.67 28.06C550.67 26.9223 549.748 26 548.61 26C547.472 26 546.55 26.9223 546.55 28.06C546.55 29.1977 547.472 30.12 548.61 30.12Z" fill="#9EA9E8"/>
<path d="M823.84 127.43C824.342 127.43 824.75 127.023 824.75 126.52C824.75 126.018 824.342 125.61 823.84 125.61C823.337 125.61 822.93 126.018 822.93 126.52C822.93 127.023 823.337 127.43 823.84 127.43Z" fill="#9EA9E8"/>
<path d="M773.68 91.9501C774.392 91.9501 774.97 91.3726 774.97 90.6601C774.97 89.9477 774.392 89.3701 773.68 89.3701C772.967 89.3701 772.39 89.9477 772.39 90.6601C772.39 91.3726 772.967 91.9501 773.68 91.9501Z" fill="#9EA9E8"/>
<path d="M754.02 43.0599C754.898 43.0599 755.61 42.348 755.61 41.4699C755.61 40.5918 754.898 39.8799 754.02 39.8799C753.142 39.8799 752.43 40.5918 752.43 41.4699C752.43 42.348 753.142 43.0599 754.02 43.0599Z" fill="#9EA9E8"/>
<path d="M909.21 110.98C909.85 110.98 910.37 110.461 910.37 109.82C910.37 109.18 909.85 108.66 909.21 108.66C908.569 108.66 908.05 109.18 908.05 109.82C908.05 110.461 908.569 110.98 909.21 110.98Z" fill="#9EA9E8"/>
<path d="M868.38 52.8299C869.252 52.8299 869.96 52.1225 869.96 51.2499C869.96 50.3773 869.252 49.6699 868.38 49.6699C867.507 49.6699 866.8 50.3773 866.8 51.2499C866.8 52.1225 867.507 52.8299 868.38 52.8299Z" fill="#9EA9E8"/>
<path d="M1031.42 157.63C1032.46 157.63 1033.3 156.788 1033.3 155.75C1033.3 154.712 1032.46 153.87 1031.42 153.87C1030.38 153.87 1029.54 154.712 1029.54 155.75C1029.54 156.788 1030.38 157.63 1031.42 157.63Z" fill="#9EA9E8"/>
<path d="M1033.3 86.5604C1034.44 86.5604 1035.36 85.6381 1035.36 84.5004C1035.36 83.3627 1034.44 82.4404 1033.3 82.4404C1032.16 82.4404 1031.24 83.3627 1031.24 84.5004C1031.24 85.6381 1032.16 86.5604 1033.3 86.5604Z" fill="#9EA9E8"/>
<path d="M1148.57 207.88C1149.43 207.88 1150.12 207.186 1150.12 206.33C1150.12 205.474 1149.43 204.78 1148.57 204.78C1147.71 204.78 1147.02 205.474 1147.02 206.33C1147.02 207.186 1147.71 207.88 1148.57 207.88Z" fill="#9EA9E8"/>
<path d="M1206.92 260.47C1208.01 260.47 1208.89 259.588 1208.89 258.5C1208.89 257.412 1208.01 256.53 1206.92 256.53C1205.83 256.53 1204.95 257.412 1204.95 258.5C1204.95 259.588 1205.83 260.47 1206.92 260.47Z" fill="#9EA9E8"/>
<path d="M1275.27 323.75C1275.27 325.15 1274.14 326.28 1272.74 326.28C1271.34 326.28 1270.21 325.15 1270.21 323.75C1270.21 322.35 1271.34 321.22 1272.74 321.22C1274.14 321.22 1275.27 322.35 1275.27 323.75Z" fill="#9EA9E8"/>
<path d="M1471.3 288.07C1472.23 288.07 1472.99 287.314 1472.99 286.38C1472.99 285.447 1472.23 284.69 1471.3 284.69C1470.37 284.69 1469.61 285.447 1469.61 286.38C1469.61 287.314 1470.37 288.07 1471.3 288.07Z" fill="#9EA9E8"/>
<path d="M1412.24 307.16C1412.24 308.09 1411.48 308.85 1410.55 308.85C1409.62 308.85 1408.86 308.09 1408.86 307.16C1408.86 306.23 1409.62 305.47 1410.55 305.47C1411.48 305.47 1412.24 306.22 1412.24 307.16Z" fill="#9EA9E8"/>
<path d="M1292.18 234.24C1292.18 234.64 1291.86 234.96 1291.46 234.96C1291.06 234.96 1290.74 234.64 1290.74 234.24C1290.74 233.84 1291.06 233.52 1291.46 233.52C1291.86 233.52 1292.18 233.84 1292.18 234.24Z" fill="#9EA9E8"/>
<path d="M1140.49 122.69C1141.29 122.69 1141.93 122.045 1141.93 121.25C1141.93 120.454 1141.29 119.81 1140.49 119.81C1139.69 119.81 1139.05 120.454 1139.05 121.25C1139.05 122.045 1139.69 122.69 1140.49 122.69Z" fill="#9EA9E8"/>
<path d="M1364.28 108.06C1365.08 108.06 1365.72 107.415 1365.72 106.62C1365.72 105.824 1365.08 105.18 1364.28 105.18C1363.48 105.18 1362.84 105.824 1362.84 106.62C1362.84 107.415 1363.48 108.06 1364.28 108.06Z" fill="#9EA9E8"/>
<path d="M1529.86 31.5602C1530.66 31.5602 1531.3 30.9155 1531.3 30.1202C1531.3 29.3249 1530.66 28.6802 1529.86 28.6802C1529.06 28.6802 1528.42 29.3249 1528.42 30.1202C1528.42 30.9155 1529.06 31.5602 1529.86 31.5602Z" fill="#9EA9E8"/>
<path d="M1644.18 119.32C1644.98 119.32 1645.62 118.676 1645.62 117.88C1645.62 117.085 1644.98 116.44 1644.18 116.44C1643.38 116.44 1642.74 117.085 1642.74 117.88C1642.74 118.676 1643.38 119.32 1644.18 119.32Z" fill="#9EA9E8"/>
<path d="M1515.23 338.32C1516.03 338.32 1516.67 337.676 1516.67 336.88C1516.67 336.085 1516.03 335.44 1515.23 335.44C1514.43 335.44 1513.79 336.085 1513.79 336.88C1513.79 337.676 1514.43 338.32 1515.23 338.32Z" fill="#9EA9E8"/>
<path d="M1886.67 253C1887.47 253 1888.11 252.355 1888.11 251.56C1888.11 250.765 1887.47 250.12 1886.67 250.12C1885.87 250.12 1885.23 250.765 1885.23 251.56C1885.23 252.355 1885.87 253 1886.67 253Z" fill="#9EA9E8"/>
<path d="M1738.33 369.52C1738.73 369.52 1739.05 369.198 1739.05 368.8C1739.05 368.402 1738.73 368.08 1738.33 368.08C1737.93 368.08 1737.61 368.402 1737.61 368.8C1737.61 369.198 1737.93 369.52 1738.33 369.52Z" fill="#9EA9E8"/>
<path d="M1768.86 511.29C1769.26 511.29 1769.58 510.967 1769.58 510.57C1769.58 510.172 1769.26 509.85 1768.86 509.85C1768.46 509.85 1768.14 510.172 1768.14 510.57C1768.14 510.967 1768.46 511.29 1768.86 511.29Z" fill="#9EA9E8"/>
<path d="M1372.63 241.86C1374 241.86 1375.11 240.75 1375.11 239.38C1375.11 238.011 1374 236.9 1372.63 236.9C1371.26 236.9 1370.15 238.011 1370.15 239.38C1370.15 240.75 1371.26 241.86 1372.63 241.86Z" fill="#9EA9E8"/>
<path d="M1275.27 146.56C1275.27 147.96 1274.14 149.09 1272.74 149.09C1271.34 149.09 1270.21 147.96 1270.21 146.56C1270.21 145.16 1271.34 144.03 1272.74 144.03C1274.14 144.03 1275.27 145.16 1275.27 146.56Z" fill="#9EA9E8"/>
<path d="M1249.25 60.4999C1250.11 60.4999 1250.8 59.8059 1250.8 58.9499C1250.8 58.0939 1250.11 57.3999 1249.25 57.3999C1248.39 57.3999 1247.7 58.0939 1247.7 58.9499C1247.7 59.8059 1248.39 60.4999 1249.25 60.4999Z" fill="#9EA9E8"/>
<path d="M1436.04 392.08C1437.43 392.08 1438.56 390.952 1438.56 389.56C1438.56 388.168 1437.43 387.04 1436.04 387.04C1434.65 387.04 1433.52 388.168 1433.52 389.56C1433.52 390.952 1434.65 392.08 1436.04 392.08Z" fill="#9EA9E8"/>
<path d="M1434.15 486.38C1434.85 486.38 1435.41 485.816 1435.41 485.12C1435.41 484.424 1434.85 483.86 1434.15 483.86C1433.45 483.86 1432.89 484.424 1432.89 485.12C1432.89 485.816 1433.45 486.38 1434.15 486.38Z" fill="#9EA9E8"/>
<path d="M1302.55 504.52C1303.25 504.52 1303.81 503.956 1303.81 503.26C1303.81 502.564 1303.25 502 1302.55 502C1301.85 502 1301.29 502.564 1301.29 503.26C1301.29 503.956 1301.85 504.52 1302.55 504.52Z" fill="#9EA9E8"/>
<path d="M1340.7 443.95C1342.16 443.95 1343.34 442.768 1343.34 441.31C1343.34 439.852 1342.16 438.67 1340.7 438.67C1339.24 438.67 1338.06 439.852 1338.06 441.31C1338.06 442.768 1339.24 443.95 1340.7 443.95Z" fill="#9EA9E8"/>
<path d="M1565.43 426.79C1566.62 426.79 1567.59 425.823 1567.59 424.63C1567.59 423.437 1566.62 422.47 1565.43 422.47C1564.24 422.47 1563.27 423.437 1563.27 424.63C1563.27 425.823 1564.24 426.79 1565.43 426.79Z" fill="#9EA9E8"/>
<path d="M1728.18 449.54C1729.12 449.54 1729.89 448.775 1729.89 447.83C1729.89 446.886 1729.12 446.12 1728.18 446.12C1727.24 446.12 1726.47 446.886 1726.47 447.83C1726.47 448.775 1727.24 449.54 1728.18 449.54Z" fill="#9EA9E8"/>
<path d="M1672.82 315.62C1674.13 315.62 1675.19 314.559 1675.19 313.25C1675.19 311.941 1674.13 310.88 1672.82 310.88C1671.51 310.88 1670.45 311.941 1670.45 313.25C1670.45 314.559 1671.51 315.62 1672.82 315.62Z" fill="#9EA9E8"/>
<path d="M1560.05 241.25C1560.62 241.25 1561.09 240.784 1561.09 240.21C1561.09 239.636 1560.62 239.17 1560.05 239.17C1559.48 239.17 1559.01 239.636 1559.01 240.21C1559.01 240.784 1559.48 241.25 1560.05 241.25Z" fill="#9EA9E8"/>
<path d="M1835.07 485.54C1836.61 485.54 1837.86 484.291 1837.86 482.75C1837.86 481.209 1836.61 479.96 1835.07 479.96C1833.53 479.96 1832.28 481.209 1832.28 482.75C1832.28 484.291 1833.53 485.54 1835.07 485.54Z" fill="#9EA9E8"/>
<path d="M1814.8 366.12C1816.25 366.12 1817.42 364.947 1817.42 363.5C1817.42 362.053 1816.25 360.88 1814.8 360.88C1813.35 360.88 1812.18 362.053 1812.18 363.5C1812.18 364.947 1813.35 366.12 1814.8 366.12Z" fill="#9EA9E8"/>
<path d="M1781.42 254.94C1782.35 254.94 1783.11 254.183 1783.11 253.25C1783.11 252.316 1782.35 251.56 1781.42 251.56C1780.49 251.56 1779.73 252.316 1779.73 253.25C1779.73 254.183 1780.49 254.94 1781.42 254.94Z" fill="#9EA9E8"/>
<path d="M1686.18 182.56C1687.53 182.56 1688.62 181.467 1688.62 180.12C1688.62 178.772 1687.53 177.68 1686.18 177.68C1684.83 177.68 1683.74 178.772 1683.74 180.12C1683.74 181.467 1684.83 182.56 1686.18 182.56Z" fill="#9EA9E8"/>
<path d="M1487.05 174.13C1488.09 174.13 1488.93 173.288 1488.93 172.25C1488.93 171.212 1488.09 170.37 1487.05 170.37C1486.01 170.37 1485.17 171.212 1485.17 172.25C1485.17 173.288 1486.01 174.13 1487.05 174.13Z" fill="#9EA9E8"/>
<path d="M1457.52 103.82C1458.3 103.82 1458.93 103.189 1458.93 102.41C1458.93 101.631 1458.3 101 1457.52 101C1456.74 101 1456.11 101.631 1456.11 102.41C1456.11 103.189 1456.74 103.82 1457.52 103.82Z" fill="#9EA9E8"/>
<path d="M1582.36 90.9101C1583.62 90.9101 1584.65 89.8848 1584.65 88.6201C1584.65 87.3553 1583.62 86.3301 1582.36 86.3301C1581.1 86.3301 1580.07 87.3553 1580.07 88.6201C1580.07 89.8848 1581.1 90.9101 1582.36 90.9101Z" fill="#9EA9E8"/>
<path d="M1737.61 75.3502C1738.97 75.3502 1740.08 74.2443 1740.08 72.8801C1740.08 71.516 1738.97 70.4102 1737.61 70.4102C1736.25 70.4102 1735.14 71.516 1735.14 72.8801C1735.14 74.2443 1736.25 75.3502 1737.61 75.3502Z" fill="#9EA9E8"/>
<path d="M1811.66 142.78C1812.65 142.78 1813.46 141.974 1813.46 140.98C1813.46 139.986 1812.65 139.18 1811.66 139.18C1810.67 139.18 1809.86 139.986 1809.86 140.98C1809.86 141.974 1810.67 142.78 1811.66 142.78Z" fill="#9EA9E8"/>
<path d="M1843.55 57.1901C1844.21 57.1901 1844.74 56.6573 1844.74 56.0001C1844.74 55.3428 1844.21 54.8101 1843.55 54.8101C1842.89 54.8101 1842.36 55.3428 1842.36 56.0001C1842.36 56.6573 1842.89 57.1901 1843.55 57.1901Z" fill="#9EA9E8"/>
<path d="M1581.21 193.25C1581.84 193.25 1582.35 192.739 1582.35 192.11C1582.35 191.48 1581.84 190.97 1581.21 190.97C1580.58 190.97 1580.07 191.48 1580.07 192.11C1580.07 192.739 1580.58 193.25 1581.21 193.25Z" fill="#9EA9E8"/>
<path d="M1366.89 163.81C1367.34 163.81 1367.71 163.443 1367.71 162.99C1367.71 162.537 1367.34 162.17 1366.89 162.17C1366.44 162.17 1366.07 162.537 1366.07 162.99C1366.07 163.443 1366.44 163.81 1366.89 163.81Z" fill="#9EA9E8"/>
<g opacity="0.7">
<path opacity="0.7" d="M257.55 363.7L257.75 362.5C254.95 362.02 252.5 360.49 250.86 358.18C249.22 355.87 248.58 353.05 249.06 350.25L247.86 350.05C247.33 353.17 248.04 356.31 249.87 358.89C251.7 361.46 254.43 363.17 257.55 363.7Z" fill="#38237C"/>
<path opacity="0.7" d="M258.059 360.71L258.259 359.51C256.259 359.17 254.509 358.07 253.339 356.42C252.169 354.77 251.709 352.76 252.049 350.76L250.849 350.56C250.459 352.88 250.989 355.21 252.349 357.13C253.709 359.04 255.739 360.31 258.059 360.71Z" fill="#38237C"/>
<path opacity="0.7" d="M258.569 357.709L258.769 356.509C257.569 356.309 256.519 355.649 255.819 354.659C255.119 353.669 254.839 352.469 255.049 351.269L253.849 351.069C253.589 352.589 253.939 354.119 254.829 355.369C255.719 356.619 257.049 357.459 258.569 357.709Z" fill="#38237C"/>
<path opacity="0.7" d="M260.759 353.76C261.309 353.37 261.619 352.76 261.649 352.13L273.839 354.02C274.529 354.14 275.139 354.06 275.649 353.7C278.899 351.39 279.579 346.57 277.549 342.21L278.919 341.24C280.549 342.9 282.369 343.87 283.539 343.04L286.299 341.08L288.049 343.54L285.239 345.53C284.529 346.03 284.369 347.01 284.869 347.72L295.189 362.26C295.689 362.97 296.669 363.13 297.379 362.63L304.739 357.41C305.449 356.91 305.609 355.93 305.109 355.22L294.789 340.68C294.289 339.97 293.309 339.81 292.599 340.31L289.789 342.3L288.039 339.84L291.409 337.45C292.109 336.95 292.269 336.03 292.079 334.91C292.849 334.92 293.769 334.84 294.059 334.63C295.559 333.57 295.259 330.67 293.379 328.02C291.499 325.37 288.859 324.13 287.369 325.19C287.069 325.4 286.689 326.24 286.449 326.97C285.469 326.42 284.529 326.27 283.839 326.76L280.469 329.15L278.609 326.53L281.419 324.54C282.129 324.04 282.289 323.06 281.789 322.35L271.469 307.81C270.969 307.1 269.989 306.94 269.279 307.44L261.919 312.66C261.209 313.16 261.049 314.14 261.549 314.85L271.869 329.39C272.369 330.1 273.349 330.26 274.059 329.76L276.869 327.77L278.729 330.39L275.969 332.35C274.799 333.18 275.119 335.22 276.139 337.31L274.769 338.28C271.329 334.92 266.549 333.97 263.289 336.27C262.789 336.63 262.499 337.18 262.389 337.87L260.149 350C259.549 349.82 258.869 349.91 258.319 350.3C257.369 350.98 257.139 352.3 257.819 353.25C258.479 354.21 259.799 354.44 260.759 353.76ZM262.079 350.97L266.389 347.91C267.639 349.59 269.089 351.15 270.519 352.28L262.079 350.97ZM265.689 346.92L261.379 349.98L262.929 341.59C263.519 343.3 264.509 345.19 265.689 346.92Z" fill="#38237C"/>
</g>
<path d="M1537.23 291.87L1537.08 293.32C1540.46 293.66 1543.51 295.29 1545.65 297.92C1547.8 300.55 1548.79 303.85 1548.45 307.24L1549.9 307.39C1550.28 303.62 1549.17 299.93 1546.78 297.01C1544.39 294.07 1541 292.25 1537.23 291.87Z" fill="#38237C"/>
<path d="M1536.87 295.49L1536.72 296.94C1539.14 297.18 1541.31 298.35 1542.84 300.22C1544.37 302.09 1545.08 304.46 1544.84 306.87L1546.29 307.02C1546.57 304.22 1545.75 301.48 1543.97 299.3C1542.19 297.12 1539.67 295.77 1536.87 295.49Z" fill="#38237C"/>
<path d="M1536.5 299.101L1536.35 300.551C1537.8 300.701 1539.1 301.391 1540.02 302.521C1540.94 303.641 1541.36 305.061 1541.22 306.511L1542.67 306.661C1542.85 304.831 1542.32 303.031 1541.15 301.611C1539.99 300.181 1538.34 299.291 1536.5 299.101Z" fill="#38237C"/>
<path d="M1534.21 304C1533.59 304.5 1533.28 305.24 1533.28 305.97L1518.93 304.34C1518.84 304.33 1518.76 304.32 1518.67 304.32C1518.01 304.3 1517.38 304.58 1516.93 305.07C1513.49 308.9 1512.89 314.53 1515.16 319.11L1511.27 322.29L1509.27 319.84C1508.64 319.07 1507.49 318.95 1506.72 319.58L1502.06 323.39L1499.33 320.05L1502.52 317.44C1503.32 316.78 1503.44 315.6 1502.79 314.8L1489.29 298.29C1488.63 297.49 1487.45 297.37 1486.65 298.02L1478.29 304.85C1477.49 305.51 1477.37 306.69 1478.02 307.49L1491.52 324C1492.18 324.8 1493.36 324.92 1494.16 324.27L1497.35 321.66L1500.08 325L1495.78 328.51C1495.01 329.14 1494.89 330.29 1495.52 331.06L1495.81 331.41L1492.48 332.4C1491.97 332.55 1491.57 332.94 1491.42 333.45C1491.26 333.96 1491.37 334.51 1491.71 334.92L1498.9 343.72C1499.24 344.13 1499.75 344.35 1500.28 344.29C1500.6 344.26 1500.89 344.14 1501.13 343.94C1501.29 343.81 1501.43 343.65 1501.53 343.46L1503.16 340.39L1503.31 340.57C1503.94 341.34 1505.09 341.46 1505.86 340.83L1510.16 337.32L1512.92 340.7L1509.73 343.31C1508.93 343.97 1508.81 345.15 1509.46 345.95L1522.96 362.46C1523.62 363.26 1524.8 363.38 1525.6 362.73L1533.96 355.9C1534.76 355.24 1534.88 354.06 1534.23 353.26L1520.73 336.75C1520.07 335.95 1518.89 335.83 1518.09 336.48L1514.9 339.09L1512.14 335.71L1516.8 331.9C1517.57 331.27 1517.69 330.12 1517.06 329.35L1514.93 326.75L1518.82 323.57C1522.86 326.71 1528.5 327.24 1532.93 324.64C1533.03 324.58 1533.13 324.51 1533.22 324.44C1533.64 324.1 1533.92 323.62 1534.02 323.09C1534.04 323 1534.04 322.92 1534.05 322.83L1535.31 308.44C1536.03 308.59 1536.81 308.43 1537.43 307.92C1538.51 307.04 1538.67 305.44 1537.79 304.36C1536.91 303.28 1535.29 303.12 1534.21 304ZM1521.1 306.05L1532.9 307.4L1526.48 312.65L1521.1 306.05ZM1527.41 313.77L1533.83 308.52L1532.8 320.36L1527.41 313.77Z" fill="#38237C"/>
<path opacity="0.6" d="M1320.38 437.35C1318.17 481.5 1307.76 523.48 1290.68 561.83C1268.87 589.49 1117.94 549.59 946.99 470.29C778.62 392.19 651.97 304.22 654.91 268.61C673.82 229.11 699.91 193.71 731.5 164.1C547.37 107.57 410.62 97.7304 387.2 148.22C363.8 198.66 459.44 296.58 621.27 400.55C702.23 452.57 799.76 506.1 907.25 555.96C1014.92 605.91 1118.95 645.84 1211.07 674.07C1394.73 730.34 1531.04 740.06 1554.42 689.66C1577.81 639.23 1482.18 541.32 1320.38 437.35Z" fill="url(#paint13_linear_2536_6404)"/>
<defs>
<linearGradient id="paint0_linear_2536_6404" x1="960.817" y1="1080" x2="960.817" y2="0" gradientUnits="userSpaceOnUse">
<stop offset="0.3" stop-color="#55D7B8"/>
<stop offset="0.8" stop-color="#38237C"/>
<stop offset="1" stop-color="#160E3F"/>
</linearGradient>
<linearGradient id="paint1_linear_2536_6404" x1="960.817" y1="605" x2="960.817" y2="309.567" gradientUnits="userSpaceOnUse">
<stop stop-color="#86D4C9" stop-opacity="0.5"/>
<stop offset="1" stop-color="#77A4F2" stop-opacity="0"/>
</linearGradient>
<linearGradient id="paint2_linear_2536_6404" x1="356.531" y1="609.639" x2="356.531" y2="406.653" gradientUnits="userSpaceOnUse">
<stop stop-color="#55D7B8" stop-opacity="0.5"/>
<stop offset="1" stop-color="#55D7B8" stop-opacity="0"/>
</linearGradient>
<linearGradient id="paint3_linear_2536_6404" x1="960.8" y1="609.64" x2="960.8" y2="406.653" gradientUnits="userSpaceOnUse">
<stop stop-color="#55D7B8" stop-opacity="0.5"/>
<stop offset="1" stop-color="#55D7B8" stop-opacity="0"/>
</linearGradient>
<linearGradient id="paint4_linear_2536_6404" x1="1352.43" y1="609.64" x2="1352.43" y2="406.654" gradientUnits="userSpaceOnUse">
<stop stop-color="#55D7B8" stop-opacity="0.5"/>
<stop offset="1" stop-color="#55D7B8" stop-opacity="0"/>
</linearGradient>
<linearGradient id="paint5_linear_2536_6404" x1="764.168" y1="127.259" x2="1052.43" y2="535.05" gradientUnits="userSpaceOnUse">
<stop stop-color="#77A4F2" stop-opacity="0.3"/>
<stop offset="1" stop-color="#77A4F2" stop-opacity="0"/>
</linearGradient>
<linearGradient id="paint6_linear_2536_6404" x1="774.212" y1="208.396" x2="848.292" y2="224.211" gradientUnits="userSpaceOnUse">
<stop stop-color="#38237C" stop-opacity="0.3"/>
<stop offset="1" stop-color="#38237C" stop-opacity="0"/>
</linearGradient>
<linearGradient id="paint7_linear_2536_6404" x1="706.946" y1="286.728" x2="725.646" y2="284.679" gradientUnits="userSpaceOnUse">
<stop stop-color="#38237C" stop-opacity="0.3"/>
<stop offset="1" stop-color="#38237C" stop-opacity="0"/>
</linearGradient>
<linearGradient id="paint8_linear_2536_6404" x1="888.646" y1="222.167" x2="904.364" y2="221.114" gradientUnits="userSpaceOnUse">
<stop stop-color="#38237C" stop-opacity="0.3"/>
<stop offset="1" stop-color="#38237C" stop-opacity="0"/>
</linearGradient>
<linearGradient id="paint9_linear_2536_6404" x1="785.05" y1="323.453" x2="824.508" y2="335.418" gradientUnits="userSpaceOnUse">
<stop stop-color="#38237C" stop-opacity="0.3"/>
<stop offset="1" stop-color="#38237C" stop-opacity="0"/>
</linearGradient>
<linearGradient id="paint10_linear_2536_6404" x1="903.748" y1="126.716" x2="917.251" y2="156.608" gradientUnits="userSpaceOnUse">
<stop stop-color="#38237C" stop-opacity="0.3"/>
<stop offset="1" stop-color="#38237C" stop-opacity="0"/>
</linearGradient>
<linearGradient id="paint11_linear_2536_6404" x1="136.254" y1="166.499" x2="191.542" y2="239.133" gradientUnits="userSpaceOnUse">
<stop stop-color="#77A4F2" stop-opacity="0.5"/>
<stop offset="1" stop-color="#77A4F2" stop-opacity="0"/>
</linearGradient>
<linearGradient id="paint12_linear_2536_6404" x1="1736.22" y1="140.148" x2="1754.66" y2="164.373" gradientUnits="userSpaceOnUse">
<stop stop-color="#77A4F2" stop-opacity="0.5"/>
<stop offset="1" stop-color="#77A4F2" stop-opacity="0"/>
</linearGradient>
<linearGradient id="paint13_linear_2536_6404" x1="661.337" y1="596.775" x2="968.484" y2="420.269" gradientUnits="userSpaceOnUse">
<stop stop-color="#77A4F2" stop-opacity="0.3"/>
<stop offset="1" stop-color="#77A4F2" stop-opacity="0"/>
</linearGradient>
</defs>
</svg>
