<svg width="1920" height="1080" viewBox="0 0 1920 1080" fill="none" xmlns="http://www.w3.org/2000/svg">
<g clip-path="url(#clip0_1_4)">
<path d="M1882.73 628.1C1877.36 632.02 1874.19 638.27 1874.19 644.92V696.22H1856.19V685.86C1856.19 683.81 1854.53 682.15 1852.48 682.15H1848.6V665.52C1848.6 663.25 1846.95 661.21 1844.68 660.98C1842.09 660.72 1839.88 662.77 1839.88 665.31V682.15H1833.7C1828.41 682.15 1824.13 686.43 1824.13 691.72V738.97H1781.94V686.76L1786.95 681.75C1792.32 676.38 1792.32 667.68 1786.95 662.31L1781.94 657.3V635.19C1781.94 632.6 1782.45 630.06 1783.42 627.72C1784.39 625.38 1785.82 623.22 1787.65 621.4L1808.99 600.06C1813.15 595.9 1818.79 593.56 1824.68 593.56H1830.39C1832.89 593.56 1835.12 591.74 1835.35 589.25C1835.63 586.4 1833.39 584 1830.6 584H1719.99C1717.49 584 1715.26 585.82 1715.03 588.31C1714.75 591.16 1716.99 593.56 1719.78 593.56H1725.71C1731.59 593.56 1737.23 595.9 1741.38 600.05L1762.73 621.4C1766.39 625.05 1768.44 630.01 1768.44 635.19V657.3L1763.43 662.31C1758.06 667.68 1758.06 676.38 1763.43 681.75L1768.44 686.76V738.97H1762.63V718.36C1762.63 715.92 1760.85 713.73 1758.42 713.48C1755.63 713.2 1753.25 715.41 1753.25 718.14V738.97H1738.63V683.17C1738.63 681.78 1737.5 680.65 1736.12 680.65C1733.18 680.65 1730.53 681.84 1728.61 683.76C1726.69 685.68 1725.5 688.34 1725.5 691.27V745.91L1710.46 775.22C1708.42 779.21 1704.31 781.72 1699.82 781.72H1664.38V754.85C1664.38 749.83 1661.94 745.12 1657.84 742.23L1645.25 733.34L1645.1 629.15C1645.1 618.62 1639.79 608.81 1630.99 603.02C1630.07 602.42 1629.07 602.14 1628.1 602.14C1625.35 602.14 1622.81 604.32 1622.8 607.42C1622.76 627.12 1622.75 670.85 1622.75 683.29C1622.75 685.39 1621.68 687.34 1619.91 688.47L1618.22 689.55C1612.11 693.46 1607.79 699.62 1606.18 706.69L1562 900.96H1546.09L1541.68 878.1C1541.13 875.26 1538.65 873.2 1535.75 873.21V823.42C1535.75 821.32 1534.03 819.6 1531.94 819.6C1523.16 819.6 1515.2 823.16 1509.44 828.92C1503.69 834.67 1500.13 842.62 1500.13 851.41V892.24C1500.13 899.19 1498.26 906.01 1494.72 912L1481 935.21H1473.13V906.83C1473.13 903.41 1470.68 900.34 1467.29 899.89C1463.17 899.35 1459.63 902.57 1459.63 906.58V935.21H1447.07V918.79C1447.07 916.74 1445.39 914.93 1443.33 915.03C1442.42 915.07 1441.59 915.46 1440.98 916.06C1440.34 916.7 1439.94 917.6 1439.94 918.58V935.21H1431.05L1425.82 934.88C1425.86 933.09 1425.88 931.29 1425.88 929.48C1425.88 850.25 1392.15 786.03 1350.54 786.03V779.01H1364.93C1367.57 779.01 1369.97 777.94 1371.7 776.21C1373.44 774.47 1374.51 772.05 1374.5 769.39C1374.5 768.58 1373.81 767.94 1373 767.94H1350.54V755.85H1364.93C1367.57 755.85 1369.97 754.78 1371.7 753.05C1373.44 751.31 1374.51 748.89 1374.5 746.23C1374.5 745.42 1373.81 744.78 1373 744.78H1350.54V732.69H1364.93C1367.57 732.69 1369.97 731.62 1371.7 729.89C1373.44 728.15 1374.51 725.73 1374.5 723.07C1374.5 722.26 1373.81 721.62 1373 721.62H1350.54V709.53H1364.93C1370.24 709.53 1374.54 705.21 1374.5 699.9C1374.5 699.1 1373.81 698.46 1373 698.46H1350.54V681.96C1350.54 675.19 1344.4 670.12 1337.75 671.33C1278.41 682.19 1232.21 767.68 1232.21 871.55C1232.21 874.52 1232.26 877.48 1232.33 880.42C1229.86 880.42 1227.62 881.42 1226 883.04C1224.38 884.66 1223.38 886.9 1223.38 889.38V909.44H1216.79C1212.15 909.44 1208.38 913.21 1208.38 917.85V926.36H1178.38V855.28C1178.38 847.39 1173.06 840.49 1165.44 838.47L1148.57 834.02V797.76C1148.57 788.85 1143.89 780.59 1136.24 776.01L1135.97 775.84C1131.86 773.38 1126.63 776.34 1126.63 781.13V926.36H1110.35C1110.35 908.01 1101.4 893.14 1090.37 893.14C1079.34 893.14 1070.38 908.01 1070.38 926.36H1052.52C1050.02 926.36 1047.62 927.34 1045.84 929.1L1036.38 935.83L1032.42 815.84C1032.04 804.47 1041.16 795.04 1052.54 795.04H1071.13C1077.55 795.04 1083.06 790.02 1083.18 783.6C1083.3 777.18 1078.03 771.72 1071.52 771.72H1017.42L1016 731.62C1015.5 717.61 1026.72 705.99 1040.73 705.99H1063.86C1069.72 705.99 1074.38 700.84 1073.54 694.81C1072.86 689.94 1068.45 686.45 1063.53 686.45C1061.61 686.45 1060.05 684.94 1059.93 683.02C1059.82 681.16 1059.62 679.32 1059.33 677.52C1055.27 651.79 1034.22 632.18 1008.85 632.18C983.48 632.18 962.43 651.79 958.37 677.52C958.09 679.33 957.88 681.16 957.77 683.02C957.65 684.94 956.09 686.45 954.17 686.45H954.15C951.45 686.45 949.01 687.54 947.23 689.31C945.31 691.24 944.19 693.94 944.39 696.91C944.74 702.08 949.25 706 954.43 706H977.27C991.28 706 1002.49 717.63 1002 731.63L1000.58 771.73H946.87C940.45 771.73 934.94 776.75 934.82 783.17C934.7 789.71 939.97 795.05 946.48 795.05H965.46C976.84 795.05 985.96 804.47 985.58 815.85L980.3 975.77L968.15 984.42C951.8 989.8 939.97 1005.15 939.89 1023.31H928.22C926.59 1023.31 925.26 1021.98 925.26 1020.35V1013C925.26 1008.86 922.33 1005.16 918.24 1004.56C915.91 1004.21 913.73 1004.87 912.04 1006.15V992.37C912.04 989.44 909.96 986.82 907.05 986.44C903.54 985.97 900.51 988.73 900.51 992.15V1011.93H890.93C887.52 1011.93 884.76 1014.69 884.76 1018.1V1023.31H827.77C815.72 1023.31 803.88 1026.43 793.39 1032.37L767.19 1047.22H660.85C644.22 1047.22 628.19 1053.44 615.9 1064.65L599 1080.08H1920.38V600.59L1882.73 628.1Z" fill="url(#paint0_linear_1_4)"/>
</g>
<defs>
<linearGradient id="paint0_linear_1_4" x1="1259.69" y1="651.07" x2="1259.69" y2="991.07" gradientUnits="userSpaceOnUse">
<stop stop-color="#080628"/>
<stop offset="1" stop-color="#26185B"/>
</linearGradient>
<clipPath id="clip0_1_4">
<rect width="1920" height="1080" fill="white"/>
</clipPath>
</defs>
</svg>
