<svg width="1920" height="1080" viewBox="0 0 1920 1080" fill="none" xmlns="http://www.w3.org/2000/svg">
<g clip-path="url(#clip0_1_4)">
<path d="M1905.06 617.012C1903.69 617.012 1902.36 617.152 1901.07 617.412C1896.56 618.332 1892.6 620.792 1889.78 624.222C1888.97 625.202 1888.26 626.262 1887.65 627.382C1886.13 630.192 1885.26 633.402 1885.26 636.822V653.722L1877.91 657.022C1870.06 660.552 1865.01 668.362 1865.01 676.972V686.252H1835.01V593.512C1835.01 586.882 1831.37 580.792 1825.53 577.652L1783.23 554.902C1779.43 552.852 1774.82 555.612 1774.82 559.932V621.622L1757.57 634.662C1749.66 640.642 1745.01 649.992 1745.01 659.912V682.332L1739.29 685.542L1731.7 689.812V628.992C1731.7 627.682 1730.64 626.622 1729.33 626.622H1727.06C1724.36 626.622 1722.17 628.812 1722.17 631.512V695.162L1714.93 699.232C1711.27 701.292 1709.01 705.152 1709.01 709.352H1670.2V684.822C1670.2 680.572 1667.66 676.722 1663.75 675.062L1657.97 672.602V597.122C1657.97 592.602 1654.31 588.942 1649.79 588.942H1639.43C1634.91 588.942 1631.25 592.602 1631.25 597.122V661.212L1622.52 657.492C1617.93 655.532 1612.83 658.902 1612.83 663.902V709.362H1547.13V611.312C1547.13 606.942 1550.67 603.402 1555.04 603.402H1594.85C1597.49 603.402 1599.62 601.262 1599.62 598.632C1599.62 596.982 1598.79 595.532 1597.52 594.672C1596.76 594.162 1595.84 593.862 1594.85 593.862H1588.93C1584.25 593.862 1580.31 590.502 1579.4 585.922C1575.71 567.372 1559.34 553.392 1539.71 553.392C1520.08 553.392 1503.71 567.372 1500.02 585.922C1499.11 590.512 1495.17 593.862 1490.49 593.862H1484.57C1483.25 593.862 1482.06 594.392 1481.2 595.262C1480.77 595.692 1480.42 596.212 1480.18 596.782C1479.94 597.352 1479.8 597.982 1479.8 598.642C1479.8 601.282 1481.94 603.412 1484.57 603.412H1524.38C1528.75 603.412 1532.29 606.952 1532.29 611.322V709.372H1425.53V690.972H1439.16C1441.35 690.972 1443.13 689.192 1443.13 687.002V674.072C1443.13 671.882 1441.35 670.102 1439.16 670.102H1425.53V644.592H1439.16C1441.35 644.592 1443.13 642.812 1443.13 640.622V627.692C1443.13 625.502 1441.35 623.722 1439.16 623.722H1425.53V609.172H1444.76C1447.22 609.172 1449.21 607.182 1449.21 604.722C1449.21 602.262 1447.22 600.272 1444.76 600.272H1395.8C1393.34 600.272 1391.35 602.262 1391.35 604.722C1391.35 607.182 1393.34 609.172 1395.8 609.172H1415.9C1415.9 609.172 1414.14 634.722 1413.22 644.592H1401.4C1399.21 644.592 1397.43 646.372 1397.43 648.562V657.052C1397.43 659.242 1399.21 661.022 1401.4 661.022H1411.55L1410.49 670.092C1410.49 670.092 1405.24 670.092 1401.4 670.092C1399.21 670.092 1397.43 671.872 1397.43 674.062V686.992C1397.43 689.182 1399.21 690.962 1401.4 690.962H1407.62L1404.38 709.362H1343.97V670.502C1343.97 668.642 1342.46 667.132 1340.6 667.132H1323.71C1321.85 667.132 1320.34 665.622 1320.34 663.762V622.682C1320.34 620.822 1318.83 619.312 1316.97 619.312H1301.86C1300.19 619.312 1298.78 620.532 1298.53 622.182L1287.15 697.752H1274.49V654.072C1274.49 651.822 1272.66 649.992 1270.41 649.992H1265.22C1262.97 649.992 1261.14 651.822 1261.14 654.072V697.752H1249.61C1245.8 697.752 1242.71 700.842 1242.71 704.652V709.352H1211.24C1211.12 708.112 1211.01 706.852 1210.9 705.572V705.502C1210.78 704.222 1210.68 702.922 1210.57 701.602V701.532C1210.35 698.872 1210.16 696.122 1209.98 693.292H1221.36C1222.17 693.292 1222.91 692.962 1223.44 692.432C1223.84 692.032 1224.13 691.522 1224.24 690.942C1224.28 690.752 1224.3 690.552 1224.3 690.352V689.342C1224.3 689.142 1224.28 688.942 1224.24 688.752C1224.12 688.172 1223.84 687.662 1223.44 687.262C1222.91 686.732 1222.17 686.402 1221.36 686.402H1209.58C1209.53 685.392 1209.48 684.372 1209.43 683.342C1209.43 683.242 1209.43 683.142 1209.42 683.032C1209.38 682.082 1209.33 681.122 1209.29 680.152C1209.29 680.082 1209.29 680.012 1209.29 679.942C1209.25 678.922 1209.21 677.882 1209.17 676.842C1209.13 675.752 1209.09 674.652 1209.06 673.542H1228.55C1230.16 673.542 1231.5 672.432 1231.88 670.942C1231.95 670.672 1232 670.392 1232 670.092C1232 668.182 1230.45 666.642 1228.55 666.642H1208.88C1208.82 663.682 1208.78 660.662 1208.75 657.582C1212.66 656.702 1216.21 654.862 1219.12 652.302C1219.14 652.282 1219.16 652.262 1219.18 652.242C1219.98 651.532 1220.73 650.772 1221.43 649.962C1221.47 649.922 1221.5 649.882 1221.54 649.832C1222.22 649.032 1222.84 648.192 1223.41 647.302C1223.45 647.242 1223.49 647.172 1223.53 647.112C1224.08 646.232 1224.58 645.322 1225.01 644.372C1225.05 644.292 1225.08 644.212 1225.12 644.122C1225.54 643.172 1225.9 642.192 1226.2 641.182C1226.23 641.092 1226.25 640.992 1226.28 640.902C1226.42 640.402 1226.55 639.892 1226.66 639.382H1238.53C1241.2 639.382 1243.36 637.222 1243.36 634.552C1243.36 632.882 1242.51 631.412 1241.23 630.542C1240.46 630.022 1239.53 629.712 1238.53 629.712H1226.66C1226.53 629.072 1226.36 628.442 1226.18 627.822C1226.17 627.782 1226.16 627.742 1226.14 627.692C1225.96 627.102 1225.76 626.522 1225.53 625.952C1225.5 625.872 1225.47 625.802 1225.44 625.722C1225.21 625.162 1224.97 624.612 1224.7 624.072C1224.54 623.752 1222.72 620.772 1222.56 620.572C1222.21 620.092 1221.83 619.632 1221.45 619.182C1221.39 619.112 1221.33 619.052 1221.28 618.982C1220.89 618.542 1220.49 618.112 1220.07 617.702C1220.01 617.652 1219.96 617.592 1219.9 617.542C1219.46 617.122 1219.01 616.712 1218.54 616.322C1218.07 615.932 1217.58 615.562 1217.08 615.212C1217.02 615.172 1216.96 615.132 1216.91 615.092C1216.43 614.762 1215.93 614.452 1215.42 614.152C1215.33 614.102 1215.25 614.052 1215.16 614.002C1214.65 613.712 1214.14 613.442 1213.61 613.192C1213.53 613.152 1213.45 613.122 1213.37 613.082C1212.81 612.832 1212.25 612.592 1211.67 612.382H1211.65C1211.08 612.162 1210.49 611.982 1209.89 611.822C1209.81 611.802 1209.73 611.772 1209.64 611.752C1209.07 611.602 1208.48 611.472 1207.89 611.362C1207.78 611.342 1207.67 611.322 1207.56 611.302C1206.97 611.202 1206.37 611.122 1205.77 611.062C1205.68 611.062 1205.59 611.052 1205.49 611.042C1204.85 610.992 1204.21 610.952 1203.56 610.952C1202.91 610.952 1202.27 610.982 1201.63 611.042C1201.54 611.042 1201.45 611.052 1201.35 611.062C1200.74 611.122 1200.15 611.202 1199.56 611.302C1199.45 611.322 1199.34 611.342 1199.23 611.362C1198.64 611.472 1198.06 611.602 1197.49 611.752C1197.41 611.772 1197.33 611.802 1197.24 611.822C1196.65 611.992 1196.06 612.172 1195.48 612.382H1195.46C1194.88 612.602 1194.32 612.842 1193.76 613.092C1193.68 613.132 1193.6 613.162 1193.52 613.202C1192.99 613.452 1192.47 613.722 1191.97 614.012C1191.88 614.062 1191.8 614.112 1191.71 614.162C1191.2 614.462 1190.71 614.772 1190.22 615.102C1190.16 615.142 1190.1 615.182 1190.05 615.222C1189.55 615.572 1189.06 615.942 1188.59 616.322C1188.12 616.712 1187.67 617.122 1187.23 617.552C1187.17 617.602 1187.12 617.662 1187.06 617.712C1186.64 618.122 1186.24 618.552 1185.85 618.992C1185.79 619.062 1185.73 619.122 1185.68 619.192C1185.29 619.642 1184.92 620.112 1184.57 620.582C1184.44 620.762 1182.58 623.782 1182.43 624.082C1182.16 624.622 1181.92 625.172 1181.69 625.732C1181.66 625.812 1181.63 625.882 1181.6 625.962C1181.38 626.532 1181.17 627.112 1180.99 627.702C1180.98 627.742 1180.97 627.782 1180.95 627.832C1180.77 628.452 1180.6 629.082 1180.47 629.722H1168.6C1167.6 629.722 1166.67 630.022 1165.9 630.552C1164.61 631.422 1163.77 632.892 1163.77 634.562C1163.77 637.232 1165.93 639.392 1168.6 639.392H1180.47C1180.58 639.902 1180.71 640.412 1180.85 640.912C1180.88 641.002 1180.9 641.102 1180.93 641.192C1181.23 642.202 1181.59 643.182 1182.01 644.132C1182.05 644.212 1182.08 644.292 1182.12 644.382C1182.56 645.332 1183.05 646.252 1183.6 647.122C1183.64 647.182 1183.68 647.252 1183.72 647.312C1184.29 648.192 1184.91 649.042 1185.59 649.842C1185.63 649.882 1185.66 649.922 1185.7 649.972C1186.4 650.782 1187.15 651.542 1187.95 652.252C1187.97 652.272 1187.99 652.292 1188.01 652.302C1190.92 654.862 1194.47 656.702 1198.38 657.582C1198.36 660.662 1198.32 663.692 1198.25 666.642H1178.58C1176.67 666.642 1175.13 668.192 1175.13 670.092C1175.13 670.572 1175.23 671.022 1175.4 671.432C1175.49 671.642 1175.59 671.832 1175.72 672.022C1176.34 672.942 1177.39 673.542 1178.58 673.542H1198.07C1198.04 674.652 1198 675.752 1197.96 676.842C1197.92 677.882 1197.88 678.912 1197.84 679.942C1197.84 680.012 1197.84 680.082 1197.84 680.152C1197.8 681.122 1197.76 682.082 1197.71 683.032C1197.71 683.132 1197.71 683.232 1197.7 683.342C1197.65 684.372 1197.6 685.392 1197.55 686.402H1185.77C1184.96 686.402 1184.22 686.732 1183.68 687.262C1183.28 687.662 1182.99 688.172 1182.88 688.752C1182.84 688.942 1182.82 689.142 1182.82 689.342V690.352C1182.82 690.552 1182.84 690.752 1182.88 690.942C1183 691.522 1183.28 692.032 1183.68 692.432C1184.21 692.962 1184.95 693.292 1185.77 693.292H1197.15C1196.97 696.122 1196.77 698.862 1196.56 701.532V701.602C1196.45 702.922 1196.34 704.212 1196.23 705.492V705.592C1196.11 706.862 1196 708.112 1195.88 709.342H1148.02V706.162C1148.02 704.482 1146.66 703.132 1144.99 703.132H1137.56C1135.88 703.132 1134.53 704.492 1134.53 706.162V709.352H1109.97C1085.22 709.352 1068.94 719.742 1055.85 728.092C1046.61 733.982 1038.63 739.072 1030.1 739.072H984.84V737.472C984.84 735.592 983.32 734.072 981.44 734.072H980.04C978.16 734.072 976.64 735.592 976.64 737.472V739.072H883.89L881.22 699.782C880.41 687.832 873.29 677.212 862.53 671.932L861.91 671.622V625.542C861.91 622.742 858.91 620.972 856.46 622.322L847.52 627.262C843.21 629.642 840.54 634.172 840.54 639.092V686.232L823.09 696.782C814.02 702.262 808.48 712.092 808.48 722.692V739.052H659.42V677.372C659.42 674.652 656.02 673.422 654.28 675.502L654.26 675.532C646.73 684.602 632.6 704.982 623.27 739.042H477.17C457.07 739.042 445.98 727.912 433.13 715.022C432.07 713.962 431 712.892 429.92 711.812C426.67 708.582 423.28 705.322 419.61 702.202V606.722C419.61 604.602 417.89 602.882 415.77 602.882H410.36C403.2 602.882 397.39 608.692 397.39 615.852V653.472L382.55 664.892C377.66 668.652 374.8 674.472 374.8 680.632V682.192C372.76 681.942 370.65 681.742 368.46 681.612C368.29 681.602 368.12 681.602 367.95 681.592C367.02 681.542 366.09 681.492 365.13 681.462C364 681.432 362.84 681.412 361.67 681.412H322.03L321.61 677.152L316.3 623.602C315.92 619.732 318.95 616.382 322.84 616.382H351.13C352.23 616.382 353.25 616.052 354.09 615.482C354.65 615.102 355.14 614.612 355.52 614.052C355.9 613.492 356.18 612.852 356.32 612.162C356.39 611.822 356.43 611.462 356.43 611.092C356.43 609.812 355.96 608.652 355.2 607.742C354.23 606.562 352.78 605.802 351.13 605.802C351.13 605.802 349.08 605.802 346.92 605.802C344.31 605.802 342 604.012 341.44 601.452C340.19 595.742 337.36 590.622 333.43 586.572C333.39 586.532 333.35 586.492 333.32 586.452C333.05 586.172 332.77 585.902 332.49 585.642C332.42 585.572 332.35 585.502 332.28 585.442C332.02 585.202 331.75 584.962 331.48 584.722C331.38 584.642 331.29 584.552 331.19 584.472C330.93 584.252 330.67 584.042 330.41 583.842C330.29 583.752 330.17 583.652 330.05 583.562C329.8 583.372 329.54 583.182 329.29 583.002C329.15 582.902 329.01 582.802 328.87 582.702C328.62 582.532 328.37 582.362 328.12 582.202C327.96 582.102 327.8 581.992 327.64 581.892C327.4 581.742 327.15 581.592 326.9 581.442C326.73 581.342 326.55 581.242 326.37 581.142C326.13 581.002 325.88 580.872 325.64 580.742C325.45 580.642 325.26 580.542 325.07 580.452C324.83 580.332 324.59 580.212 324.34 580.102C324.14 580.012 323.93 579.912 323.73 579.822C323.49 579.712 323.25 579.612 323.01 579.512C322.79 579.422 322.58 579.342 322.36 579.252C322.12 579.162 321.88 579.072 321.64 578.982C321.41 578.902 321.18 578.822 320.95 578.752C320.71 578.672 320.47 578.592 320.23 578.522C319.99 578.452 319.75 578.382 319.5 578.312C319.27 578.252 319.03 578.182 318.79 578.122C318.54 578.062 318.28 578.002 318.02 577.942C317.79 577.892 317.56 577.832 317.33 577.792C317.06 577.742 316.79 577.692 316.52 577.652C316.29 577.612 316.07 577.572 315.84 577.532C315.55 577.492 315.26 577.452 314.97 577.422C314.76 577.392 314.54 577.362 314.33 577.342C314 577.312 313.67 577.292 313.34 577.272C313.16 577.262 312.98 577.242 312.79 577.232C312.31 577.212 311.83 577.192 311.34 577.192C311.31 577.192 311.27 577.192 311.24 577.192C311.21 577.192 311.17 577.192 311.14 577.192C310.65 577.192 310.17 577.202 309.69 577.232C309.51 577.232 309.32 577.262 309.14 577.272C308.81 577.292 308.48 577.312 308.15 577.342C307.93 577.362 307.72 577.392 307.51 577.422C307.22 577.462 306.93 577.492 306.64 577.532C306.41 577.562 306.19 577.612 305.96 577.652C305.69 577.702 305.42 577.742 305.15 577.792C304.92 577.842 304.69 577.892 304.46 577.942C304.2 578.002 303.95 578.052 303.69 578.122C303.45 578.182 303.22 578.252 302.98 578.312C302.74 578.382 302.49 578.442 302.25 578.522C302.01 578.592 301.77 578.672 301.53 578.752C301.3 578.832 301.07 578.902 300.84 578.982C300.6 579.072 300.36 579.162 300.12 579.252C299.9 579.332 299.68 579.422 299.47 579.512C299.23 579.612 298.99 579.722 298.75 579.822C298.55 579.912 298.34 580.002 298.14 580.102C297.9 580.212 297.65 580.332 297.41 580.452C297.22 580.552 297.03 580.642 296.84 580.742C296.59 580.872 296.35 581.002 296.11 581.142C295.93 581.242 295.76 581.342 295.59 581.442C295.34 581.592 295.09 581.742 294.85 581.892C294.69 581.992 294.53 582.092 294.37 582.202C294.12 582.362 293.87 582.532 293.62 582.702C293.48 582.802 293.34 582.902 293.2 583.002C292.94 583.182 292.69 583.372 292.44 583.562C292.32 583.652 292.2 583.752 292.08 583.842C291.82 584.052 291.56 584.262 291.3 584.472C291.2 584.552 291.11 584.642 291.01 584.722C290.74 584.952 290.47 585.192 290.21 585.442C290.14 585.512 290.07 585.582 290 585.642C289.72 585.912 289.44 586.182 289.17 586.452C289.13 586.492 289.09 586.532 289.06 586.572C285.13 590.622 282.3 595.742 281.05 601.452C280.49 604.002 278.19 605.802 275.57 605.802H271.36C269.9 605.802 268.57 606.392 267.61 607.352C266.65 608.312 266.06 609.632 266.06 611.102C266.06 611.472 266.1 611.822 266.17 612.172C266.31 612.862 266.59 613.502 266.97 614.062C267.92 615.472 269.53 616.402 271.36 616.402H299.65C303.54 616.402 306.57 619.752 306.19 623.622L300.88 677.172L300.46 681.432H249.1L248.92 664.562C248.86 658.922 244.27 654.382 238.64 654.382V569.902C238.64 561.992 233.95 554.842 226.7 551.692L223.66 550.372C220.73 549.102 217.46 551.242 217.46 554.442V634.852H215.59C210.72 634.852 206.45 638.102 205.15 642.802L193.14 686.242H181.05C175.14 686.242 169.81 689.792 167.53 695.242L165.96 699.002H147.74L144.3 676.172C143.54 671.102 139.18 667.362 134.06 667.362H131.46V644.542H134.06C138.11 644.542 141.39 641.262 141.39 637.212V635.252C141.39 634.242 140.57 633.422 139.56 633.422H123.58V624.922H134.01C138.06 624.922 141.34 621.642 141.34 617.592V615.632C141.34 614.622 140.52 613.802 139.51 613.802H123.58V605.302H134.06C138.11 605.302 141.39 602.022 141.39 597.972V596.012C141.39 595.002 140.57 594.182 139.56 594.182H93.16C92.15 594.182 91.33 595.002 91.33 596.012V597.972C91.33 602.022 94.61 605.302 98.66 605.302H109.71L99.18 727.902H84.03V692.972C84.03 688.932 80.75 685.652 76.71 685.652C75.45 685.652 74.26 685.972 73.22 686.532C73.01 686.642 72.81 686.772 72.62 686.902C72.23 687.162 71.87 687.462 71.54 687.792C71.21 688.122 70.91 688.482 70.65 688.872C69.86 690.042 69.4 691.452 69.4 692.962V727.892H50.83L39.16 649.472C38.75 646.732 36.4 644.702 33.63 644.702H31.74C30.48 644.702 29.45 645.722 29.45 646.992V669.022H28.02C22.85 669.022 18.06 671.712 15.38 676.132L0 701.252V1080.37H1920V686.242V617.012H1905.06ZM976.6 746.072V759.802C975.07 758.952 973.48 758.192 971.84 757.522C971.73 757.482 971.62 757.432 971.51 757.392C970.82 757.122 970.12 756.862 969.41 756.622C969.26 756.572 969.12 756.522 968.97 756.472C968.19 756.212 967.4 755.982 966.59 755.762C966.56 755.762 966.53 755.742 966.5 755.732C965.65 755.512 964.8 755.312 963.93 755.142C963.77 755.112 963.62 755.092 963.46 755.062C962.78 754.932 962.1 754.822 961.41 754.732C961.15 754.692 960.89 754.662 960.63 754.632C960.01 754.562 959.39 754.502 958.76 754.452C958.5 754.432 958.25 754.412 957.99 754.392C957.12 754.342 956.25 754.312 955.38 754.312C954.71 754.312 954.05 754.332 953.38 754.362C953.17 754.362 952.96 754.382 952.74 754.402C952.28 754.432 951.82 754.462 951.36 754.502C951.13 754.522 950.9 754.542 950.67 754.562C950.08 754.622 949.49 754.702 948.91 754.782C948.6 754.832 948.3 754.882 947.99 754.932C947.69 754.982 947.39 755.032 947.09 755.092C946.73 755.162 946.37 755.232 946.01 755.312C945.8 755.362 945.59 755.412 945.37 755.462C944.5 755.662 943.63 755.892 942.78 756.152V746.062H976.57L976.6 746.072ZM477.12 746.072H494.43V783.412H454.39C454.34 782.502 454.28 781.602 454.21 780.712V780.662C454.14 779.782 454.05 778.902 453.96 778.032V777.962C453.86 777.092 453.75 776.242 453.63 775.382V775.302C453.5 774.452 453.37 773.602 453.22 772.762V772.702C453.06 771.862 452.91 771.022 452.74 770.192V770.162C450.87 761.002 447.63 752.862 443.41 746.422C443.36 746.342 443.31 746.252 443.25 746.172C442.95 745.712 442.63 745.272 442.32 744.822C442.22 744.682 442.12 744.532 442.02 744.392C441.73 743.992 441.44 743.612 441.14 743.232C441 743.062 440.87 742.882 440.73 742.712C440.45 742.362 440.17 742.032 439.88 741.692C439.72 741.502 439.56 741.312 439.39 741.122C439.12 740.812 438.84 740.522 438.56 740.222C438.37 740.022 438.19 739.832 438 739.642C437.73 739.372 437.46 739.102 437.19 738.842C436.99 738.642 436.78 738.452 436.58 738.262C436.31 738.022 436.05 737.782 435.78 737.552C435.56 737.362 435.34 737.172 435.11 736.992C434.85 736.772 434.58 736.562 434.31 736.362C434.07 736.182 433.84 736.002 433.6 735.832C433.34 735.642 433.07 735.462 432.81 735.282C432.56 735.112 432.31 734.952 432.05 734.792C431.79 734.632 431.53 734.462 431.26 734.312C431 734.162 430.73 734.012 430.46 733.872C430.2 733.732 429.94 733.592 429.68 733.462C429.4 733.322 429.12 733.202 428.84 733.072C428.58 732.952 428.33 732.842 428.07 732.732C427.78 732.612 427.48 732.502 427.18 732.392C426.93 732.302 426.67 732.202 426.42 732.122C426.11 732.022 425.79 731.932 425.48 731.852C425.23 731.782 424.99 731.712 424.74 731.652C424.4 731.572 424.07 731.512 423.73 731.442C423.5 731.392 423.27 731.342 423.03 731.302C422.65 731.242 422.27 731.202 421.88 731.162C421.68 731.142 421.49 731.112 421.29 731.092C420.71 731.042 420.12 731.022 419.54 731.022V711.602C422.48 714.352 425.3 717.182 428.1 719.992C441.46 733.402 454.09 746.072 477.1 746.072H477.12ZM249.1 688.422H299.69L298.44 701.022L297.75 707.942H285.01C283.58 707.942 282.21 708.162 280.92 708.562C280.06 708.832 279.23 709.182 278.45 709.602C278.06 709.812 277.68 710.042 277.31 710.292C273.65 712.762 271.24 716.952 271.24 721.712V726.382H249.49L249.09 688.422H249.1ZM344.82 712.142C343.24 705.322 337.17 700.502 330.17 700.502H323.87L323.78 699.592L322.67 688.412H361.62C362.77 688.412 363.91 688.432 365.02 688.462C365.19 688.462 365.36 688.482 365.53 688.482C366.49 688.512 367.44 688.562 368.37 688.622C368.46 688.622 368.54 688.632 368.63 688.642C369.65 688.712 370.65 688.792 371.63 688.882H371.66C372.71 688.992 373.73 689.112 374.74 689.242V732.862H349.62L344.82 712.132V712.142ZM565.72 787.242C565.72 785.122 564 783.412 561.89 783.412H558.72C555.26 783.412 552.33 785.692 551.35 788.832C551.27 789.072 551.21 789.322 551.16 789.572C551.06 790.072 551 790.592 551 791.122V811.872H530V746.072H621.43C620.69 749.132 620 752.292 619.35 755.552C619.34 755.622 619.32 755.702 619.31 755.772C618.35 760.642 617.49 765.752 616.77 771.082C616.77 771.152 616.75 771.222 616.74 771.292C616.26 774.852 615.83 778.522 615.47 782.302C615.47 782.352 615.47 782.412 615.45 782.462C615.27 784.342 615.11 786.252 614.96 788.182H593.73C588.04 788.182 583.42 792.802 583.42 798.492V811.882H565.7V787.252L565.72 787.242ZM808.44 778.292L783.25 808.812C779.17 813.752 776.94 819.952 776.94 826.352V839.532H770.07C764.54 839.532 760.06 844.012 760.06 849.542V853.392H738.11V814.992C738.11 812.062 735.74 809.692 732.81 809.692C729.88 809.692 727.51 812.062 727.51 814.992V832.892L695.35 816.452L688.89 746.072H808.43V778.292H808.44ZM884.34 746.072H934.44V759.652C933.69 760.062 932.96 760.502 932.24 760.952C932.07 761.052 931.91 761.162 931.74 761.272C931.15 761.652 930.57 762.042 930 762.452C929.86 762.552 929.72 762.652 929.58 762.752C928.18 763.772 926.85 764.872 925.59 766.052C925.47 766.172 925.34 766.292 925.22 766.402C924.7 766.902 924.18 767.412 923.69 767.942C923.58 768.052 923.48 768.162 923.37 768.272C922.18 769.552 921.06 770.902 920.03 772.322C919.96 772.422 919.89 772.522 919.82 772.622C919.37 773.252 918.93 773.902 918.51 774.552C918.45 774.652 918.38 774.752 918.32 774.852C917.37 776.372 916.51 777.952 915.74 779.582C915.71 779.642 915.69 779.702 915.66 779.762C915.31 780.532 914.98 781.312 914.67 782.102C914.64 782.182 914.61 782.252 914.58 782.332C913.92 784.052 913.36 785.832 912.91 787.652V787.712C912.68 788.592 912.5 789.482 912.34 790.382C912.33 790.442 912.32 790.512 912.31 790.572C911.99 792.452 911.78 794.362 911.71 796.312H887.76L884.34 746.052V746.072ZM1044.55 796.332H1039.63V775.242C1039.63 772.692 1037.57 770.632 1035.02 770.632H1031.16C1028.61 770.632 1026.55 772.692 1026.55 775.242V796.332H999.08C998.85 790.272 997.38 784.522 994.92 779.342V779.312C994.61 778.692 994.3 778.072 993.98 777.472C993.97 777.442 993.95 777.412 993.94 777.392C993.63 776.812 993.31 776.252 992.97 775.682C992.94 775.632 992.91 775.572 992.88 775.512C992.56 774.982 992.22 774.452 991.88 773.932C991.83 773.852 991.78 773.782 991.73 773.702C991.4 773.212 991.05 772.722 990.7 772.242C990.63 772.152 990.57 772.052 990.49 771.952C990.15 771.492 989.8 771.052 989.44 770.612C989.35 770.502 989.27 770.382 989.18 770.272C988.83 769.852 988.47 769.442 988.11 769.032C988 768.912 987.9 768.782 987.79 768.662C987.42 768.252 987.04 767.862 986.65 767.472C986.54 767.362 986.44 767.242 986.32 767.132C985.82 766.632 985.31 766.142 984.79 765.672V746.062H1030.05C1040.63 746.062 1049.41 740.462 1059.57 733.982C1072.53 725.712 1087.22 716.342 1109.93 716.342H1134.49V725.992C1130.24 725.992 1126.8 729.432 1126.8 733.682V753.572H1116.49C1112.96 753.572 1109.89 755.972 1109.03 759.392L1099.59 797.062L1097.95 803.622H1094.17V780.242C1094.17 777.412 1091.88 775.122 1089.05 775.122H1087.76C1084.93 775.122 1082.64 777.412 1082.64 780.242V803.622C1080.15 803.622 1078.14 805.632 1078.14 808.122V818.702H1067.73L1054.67 801.382C1052.27 798.202 1048.51 796.332 1044.53 796.332H1044.55ZM1156.63 784.502V761.092C1156.63 756.942 1153.27 753.582 1149.12 753.582H1148.01V716.362H1195.17C1194.67 720.982 1194.15 725.272 1193.61 729.222L1193.59 729.362C1193.51 729.972 1193.42 730.572 1193.34 731.162L1193.32 731.332C1193.24 731.902 1193.16 732.472 1193.08 733.032C1193.07 733.112 1193.06 733.192 1193.04 733.282C1192.96 733.812 1192.88 734.342 1192.81 734.862C1192.8 734.952 1192.78 735.032 1192.77 735.122C1192.69 735.642 1192.61 736.152 1192.54 736.652L1192.51 736.872C1192.43 737.372 1192.35 737.872 1192.28 738.362L1192.24 738.582C1192.16 739.072 1192.08 739.562 1192.01 740.042L1191.98 740.222C1191.9 740.712 1191.82 741.192 1191.74 741.672C1191.74 741.712 1191.73 741.762 1191.72 741.802C1191.64 742.292 1191.56 742.772 1191.47 743.242V743.322C1191.37 743.812 1191.29 744.292 1191.2 744.762V744.782C1191.11 745.262 1191.02 745.742 1190.94 746.202L1179.14 784.532H1156.64L1156.63 784.502ZM1242.69 738.382H1214.83C1214.59 736.852 1214.34 735.252 1214.1 733.582L1214.08 733.442C1213.84 731.802 1213.6 730.092 1213.36 728.322L1213.32 728.062C1213.21 727.212 1213.1 726.352 1212.98 725.482V725.382C1212.85 724.462 1212.73 723.522 1212.62 722.572C1212.62 722.492 1212.6 722.422 1212.59 722.342C1212.49 721.482 1212.38 720.602 1212.28 719.712C1212.27 719.582 1212.25 719.462 1212.24 719.332C1212.13 718.352 1212.02 717.362 1211.91 716.352H1242.67V738.372L1242.69 738.382ZM1365.39 754.522L1359.69 765.752H1343.94V716.352H1402.87L1395.32 741.372H1386.81C1377.77 741.372 1369.49 746.452 1365.4 754.512L1365.39 754.522ZM1496.75 762.752V747.952C1496.75 743.492 1493.13 739.872 1488.67 739.872H1480.83C1476.37 739.872 1472.75 743.492 1472.75 747.952V780.542H1451.94V716.352H1532.27V780.542H1514.38V770.832C1514.38 766.372 1510.76 762.752 1506.3 762.752H1496.75ZM1612.81 730.142L1593.2 739.122C1580.47 744.952 1572.31 757.662 1572.31 771.662V780.542H1547.11V716.352H1612.81V730.142ZM1709 738.002H1687.81V737.682C1687.81 729.992 1681.57 723.752 1673.88 723.752H1670.19V716.352H1709V738.002Z" fill="url(#paint0_linear_1_4)"/>
</g>
<defs>
<linearGradient id="paint0_linear_1_4" x1="960" y1="593.012" x2="960" y2="861.392" gradientUnits="userSpaceOnUse">
<stop stop-color="#503EAA"/>
<stop offset="1" stop-color="#8D86EB"/>
</linearGradient>
<clipPath id="clip0_1_4">
<rect width="1920" height="1080" fill="white"/>
</clipPath>
</defs>
</svg>
