<svg width="103" height="100" viewBox="0 0 103 100" fill="none" xmlns="http://www.w3.org/2000/svg">
<g clip-path="url(#clip0_3658_10984)">
<path d="M2.03079 45.3336C2.56394 45.3267 3.07281 45.1291 3.44771 44.7832C3.8226 44.4374 4.0335 43.971 4.03495 43.4847V7.14044L36.8552 44.6391C37.0451 44.8558 37.286 45.0308 37.5602 45.151C37.8343 45.2712 38.1345 45.3336 38.4387 45.3336C38.6662 45.3319 38.8919 45.2961 39.1068 45.2277C39.5021 45.1018 39.845 44.8673 40.0884 44.5564C40.3317 44.2456 40.4635 43.8736 40.4657 43.4916V1.86805C40.4643 1.38347 40.255 0.918642 39.8825 0.57308C39.5101 0.227518 39.0041 0.0286873 38.473 0.0191606H2.60558C2.50622 0.010224 2.40613 0.010224 2.30676 0.0191606C1.77423 -0.0475626 1.23443 0.081386 0.806123 0.37765C0.377811 0.673914 0.0960547 1.11323 0.0228219 1.59897C0.00901082 1.68809 0.0026514 1.77805 0.00379229 1.86805V43.4847C0.00529897 43.9746 0.21934 44.4441 0.599149 44.7905C0.978959 45.137 1.49366 45.3322 2.03079 45.3336ZM24.3373 24.3742H36.4288V38.2105L24.3373 24.3742ZM36.4422 3.69438V20.6903H21.6308C21.4699 20.6913 21.3097 20.7088 21.1531 20.7424L6.24085 3.69438H36.4422Z" fill="#9CB8E2"/>
<path d="M18.9531 73.6624V55.0641C18.9646 54.9045 18.9415 54.7444 18.8852 54.5929C18.8288 54.4415 18.7403 54.3017 18.6248 54.1814C18.5092 54.0611 18.3688 53.9628 18.2115 53.8921C18.0543 53.8213 17.8833 53.7795 17.7083 53.769C17.5334 53.7585 17.3579 53.7796 17.1918 53.8309C17.0258 53.8823 16.8725 53.963 16.7406 54.0684C16.6088 54.1739 16.501 54.302 16.4234 54.4454C16.3458 54.5888 16.3 54.7448 16.2885 54.9044C16.2845 54.9575 16.2845 55.0109 16.2885 55.0641V70.1851L2.37357 54.302C2.20144 54.1035 1.96565 53.9589 1.69912 53.8886C1.43259 53.8182 1.14863 53.8255 0.886856 53.9094C0.625083 53.9933 0.398565 54.1497 0.238926 54.3567C0.0792863 54.5637 -0.00551059 54.811 -0.00363154 55.0641V73.6607C-0.00363154 73.983 0.136734 74.292 0.386589 74.5199C0.636443 74.7478 0.975321 74.8759 1.32867 74.8759C1.68202 74.8759 2.02089 74.7478 2.27075 74.5199C2.5206 74.292 2.66097 73.983 2.66097 73.6607V58.5345L16.5721 74.4158C16.6971 74.5586 16.8558 74.6737 17.0364 74.7528C17.217 74.8318 17.4148 74.8727 17.6151 74.8724C17.7641 74.8726 17.9122 74.8497 18.0528 74.8047C18.3142 74.723 18.5413 74.5691 18.7026 74.3644C18.8639 74.1598 18.9514 73.9144 18.9531 73.6624Z" fill="#9CB8E2"/>
<path d="M39.2552 56.2774C39.6085 56.2986 39.9566 56.1909 40.2229 55.978C40.4892 55.765 40.6518 55.4644 40.675 55.1421C40.6982 54.8198 40.5801 54.5023 40.3467 54.2594C40.1133 54.0165 39.7836 53.8682 39.4303 53.847C39.372 53.8433 39.3135 53.8433 39.2552 53.847H27.1636C26.8102 53.847 26.4714 53.975 26.2215 54.2029C25.9717 54.4308 25.8313 54.7399 25.8313 55.0622V73.6588C25.8313 73.9811 25.9717 74.2902 26.2215 74.5181C26.4714 74.746 26.8102 74.874 27.1636 74.874H39.2552C39.4301 74.8845 39.6056 74.8635 39.7717 74.8121C39.9377 74.7607 40.091 74.68 40.2229 74.5746C40.3547 74.4691 40.4625 74.341 40.5401 74.1976C40.6177 74.0542 40.6635 73.8982 40.675 73.7386C40.6865 73.5791 40.6634 73.419 40.6071 73.2675C40.5508 73.1161 40.4623 72.9762 40.3467 72.8559C40.2311 72.7357 40.0907 72.6374 39.9334 72.5666C39.7762 72.4959 39.6052 72.454 39.4303 72.4435C39.372 72.4398 39.3135 72.4398 39.2552 72.4435H28.4826V65.5115H39.3065C39.6599 65.5327 40.008 65.425 40.2743 65.212C40.5405 64.9991 40.7032 64.6984 40.7264 64.3761C40.7496 64.0538 40.6315 63.7363 40.3981 63.4934C40.1646 63.2506 39.835 63.1022 39.4816 63.081C39.4233 63.0774 39.3648 63.0774 39.3065 63.081H28.4826V56.2532L39.2552 56.2774Z" fill="#9CB8E2"/>
<path d="M67.9472 64.3085C67.9333 62.2028 67.236 60.1479 65.9433 58.4032C64.6505 56.6584 62.8203 55.302 60.6834 54.5049C58.5465 53.7078 56.1987 53.5058 53.9361 53.9244C51.6735 54.343 49.5974 55.3634 47.9698 56.8569C46.3423 58.3504 45.2361 60.2501 44.7908 62.3164C44.3455 64.3827 44.581 66.523 45.4677 68.4673C46.3543 70.4116 47.8524 72.0729 49.773 73.2415C51.6935 74.4101 53.9505 75.0338 56.2591 75.0339C57.8 75.0339 59.3256 74.756 60.7483 74.2162C62.171 73.6764 63.4626 72.8854 64.5489 71.8886C65.6351 70.8918 66.4946 69.709 67.0778 68.4081C67.661 67.1072 67.9565 65.714 67.9472 64.3085ZM56.2306 72.6017C54.4324 72.614 52.6707 72.1396 51.1681 71.2387C49.6654 70.3377 48.4895 69.0505 47.7888 67.5399C47.0882 66.0294 46.8944 64.3632 47.232 62.7521C47.5695 61.1411 48.4232 59.6575 49.6851 58.489C50.947 57.3205 52.5604 56.5195 54.3214 56.1874C56.0823 55.8553 57.9117 56.007 59.5782 56.6232C61.2447 57.2394 62.6734 58.2925 63.6836 59.6494C64.6939 61.0062 65.2405 62.6059 65.2541 64.246V64.3085C65.2601 66.4989 64.3136 68.602 62.622 70.1567C60.9304 71.7113 58.6319 72.5906 56.2306 72.6017Z" fill="#9CB8E2"/>
<path d="M78.2002 78.7126H60.0676C59.7143 78.7126 59.3754 78.8406 59.1256 79.0685C58.8757 79.2964 58.7354 79.6055 58.7354 79.9278C58.7354 80.2501 58.8757 80.5592 59.1256 80.7871C59.3754 81.015 59.7143 81.143 60.0676 81.143H67.8007V98.5035C67.7892 98.6631 67.8123 98.8232 67.8686 98.9747C67.9249 99.1261 68.0134 99.266 68.129 99.3862C68.2446 99.5065 68.385 99.6048 68.5422 99.6756C68.6995 99.7463 68.8705 99.7881 69.0455 99.7986C69.2204 99.8091 69.3959 99.7881 69.562 99.7367C69.728 99.6853 69.8813 99.6046 70.0132 99.4992C70.145 99.3937 70.2528 99.2657 70.3304 99.1222C70.408 98.9788 70.4538 98.8228 70.4653 98.6632C70.4693 98.6101 70.4693 98.5567 70.4653 98.5035V81.143H78.1983C78.5517 81.1642 78.8998 81.0565 79.166 80.8436C79.4323 80.6306 79.595 80.33 79.6182 80.0077C79.6414 79.6854 79.5233 79.3678 79.2899 79.125C79.0564 78.8821 78.7268 78.7337 78.3734 78.7126C78.3157 78.7089 78.2579 78.7089 78.2002 78.7126Z" fill="#9CB8E2"/>
<path d="M20.6049 79.1396C20.4324 78.9435 20.1976 78.8011 19.9326 78.7318C19.6677 78.6626 19.3858 78.67 19.1256 78.753C18.8655 78.836 18.64 78.9906 18.4802 79.1954C18.3204 79.4002 18.2342 79.6451 18.2334 79.8965V98.757C18.2334 99.0793 18.3738 99.3883 18.6236 99.6163C18.8735 99.8442 19.2123 99.9722 19.5657 99.9722C19.919 99.9722 20.2579 99.8442 20.5078 99.6163C20.7576 99.3883 20.898 99.0793 20.898 98.757V90.6166H27.2321L35.0356 99.5451C35.1448 99.6705 35.28 99.7751 35.4336 99.8528C35.5871 99.9305 35.7559 99.9799 35.9303 99.9981C36.1047 100.016 36.2814 100.003 36.4502 99.959C36.619 99.9149 36.7767 99.8409 36.9141 99.7413C37.0516 99.6417 37.1662 99.5183 37.2514 99.3783C37.3366 99.2383 37.3907 99.0843 37.4107 98.9252C37.4307 98.7661 37.4161 98.6049 37.3678 98.451C37.3195 98.297 37.2384 98.1532 37.1292 98.0278L20.6049 79.1396ZM20.898 88.1827V83.3721L25.1062 88.1827H20.898Z" fill="#9CB8E2"/>
<path d="M91.312 78.4783C88.9853 78.4646 86.7063 79.0805 84.7634 80.2483C82.8204 81.416 81.3008 83.083 80.3966 85.0386C79.4924 86.9941 79.2442 89.1503 79.6835 91.2345C80.1228 93.3187 81.2299 95.2372 82.8646 96.7475C84.4993 98.2578 86.5884 99.292 88.8675 99.7193C91.1467 100.147 93.5136 99.9479 95.6689 99.1482C97.8242 98.3485 99.6711 96.9838 100.976 95.2266C102.281 93.4694 102.985 91.3988 103 89.2765V89.2088C103.007 86.373 101.78 83.6507 99.5886 81.639C97.3974 79.6274 94.4209 78.4907 91.312 78.4783ZM91.312 97.5002C89.5139 97.5125 87.7521 97.0381 86.2495 96.1372C84.7469 95.2362 83.5709 93.949 82.8703 92.4384C82.1697 90.9279 81.9759 89.2617 82.3134 87.6506C82.6509 86.0396 83.5046 84.556 84.7665 83.3875C86.0284 82.219 87.6419 81.418 89.4028 81.0859C91.1638 80.7538 92.9931 80.9055 94.6596 81.5217C96.3261 82.1379 97.7548 83.191 98.7651 84.5479C99.7754 85.9047 100.322 87.5044 100.335 89.1445V89.207C100.342 91.3974 99.395 93.5005 97.7035 95.0552C96.0119 96.6098 93.7133 97.4891 91.312 97.5002Z" fill="#9CB8E2"/>
<path d="M13.5855 87.9258H2.64542V81.124H13.5855C13.9388 81.124 14.2777 80.9959 14.5276 80.768C14.7774 80.5401 14.9178 80.231 14.9178 79.9087C14.9178 79.5864 14.7774 79.2773 14.5276 79.0494C14.2777 78.8215 13.9388 78.6935 13.5855 78.6935H1.33786C1.1629 78.6935 0.989658 78.7249 0.828016 78.786C0.666374 78.8471 0.519502 78.9366 0.395786 79.0494C0.272071 79.1623 0.173934 79.2962 0.10698 79.4437C0.0400259 79.5911 0.00555896 79.7492 0.00555896 79.9087V98.5105C-0.00593841 98.6701 0.0171411 98.8302 0.0734732 98.9816C0.129805 99.1331 0.218291 99.2729 0.333877 99.3932C0.449462 99.5135 0.589885 99.6118 0.747127 99.6825C0.904369 99.7533 1.07535 99.7951 1.25031 99.8056C1.42527 99.8161 1.60078 99.795 1.76682 99.7437C1.93286 99.6923 2.08618 99.6116 2.21803 99.5061C2.34987 99.4007 2.45766 99.2726 2.53524 99.1292C2.61281 98.9858 2.65866 98.8298 2.67016 98.6702C2.6742 98.6171 2.6742 98.5637 2.67016 98.5105V90.3511H13.6083C13.9617 90.3511 14.3006 90.223 14.5504 89.9951C14.8003 89.7672 14.9406 89.4581 14.9406 89.1358C14.9406 88.8135 14.8003 88.5044 14.5504 88.2765C14.3006 88.0486 13.9617 87.9206 13.6083 87.9206L13.5855 87.9258Z" fill="#9CB8E2"/>
<path d="M48.1321 81.1257H54.4662C54.8195 81.1257 55.1584 80.9976 55.4083 80.7697C55.6581 80.5418 55.7985 80.2327 55.7985 79.9104C55.7985 79.5881 55.6581 79.279 55.4083 79.0511C55.1584 78.8232 54.8195 78.6952 54.4662 78.6952H48.1321C44.3084 78.6952 37.0835 80.9798 37.0835 89.6462C37.0835 99.625 46.5314 99.724 46.6304 99.724H54.4338C54.7872 99.724 55.1261 99.5959 55.3759 99.368C55.6258 99.1401 55.7661 98.831 55.7661 98.5087C55.7661 98.1864 55.6258 97.8773 55.3759 97.6494C55.1261 97.4215 54.7872 97.2935 54.4338 97.2935H46.6304C45.9281 97.2935 39.7214 97.0157 39.7214 89.6549C39.7214 81.3722 47.247 81.1361 48.0959 81.1361L48.1321 81.1257Z" fill="#9CB8E2"/>
</g>
<defs>
<clipPath id="clip0_3658_10984">
<rect width="103" height="100" fill="white"/>
</clipPath>
</defs>
</svg>
