<svg width="325" height="54" viewBox="0 0 325 54" fill="none" xmlns="http://www.w3.org/2000/svg">
<path d="M95.776 23.8224C97.2922 25.1786 98.0733 27.0256 98.0733 29.2823V42.0084H92.3774V30.9666C92.3774 28.5038 90.7772 26.8982 88.4392 26.8982C86.8886 26.9087 85.3396 26.9992 83.7984 27.1694V42.0084H78.1025V22.6751C81.975 22.0871 85.8841 21.7717 89.8007 21.7312C92.2852 21.7312 94.2571 22.4256 95.776 23.8224Z" fill="#9CB8E2"/>
<path d="M120.116 24.3975C122.129 26.3286 123.154 28.8728 123.154 32.0326C123.154 35.2359 122.129 37.8207 120.116 39.7926C118.104 41.7644 115.438 42.7463 112.112 42.7463C108.787 42.7463 106.118 41.7617 104.065 39.7844C102.012 37.8072 100.986 35.2277 100.986 32.0245C100.986 28.8647 102.012 26.3286 104.021 24.3893C106.075 22.4609 108.784 21.4763 112.11 21.4763C115.435 21.4763 118.104 22.469 120.116 24.3975ZM112.112 26.5673C108.857 26.5673 106.652 28.7372 106.652 32.0272C106.652 35.3525 108.868 37.6525 112.112 37.6525C115.356 37.6525 117.537 35.3525 117.537 32.0272C117.529 28.7507 115.353 26.5728 112.112 26.5728V26.5673Z" fill="#9CB8E2"/>
<path d="M159.193 29.2824V42.0086H153.497V30.9668C153.497 28.2545 152.141 26.8983 149.39 26.8983C148.065 26.9039 146.743 27.0411 145.444 27.3079C145.568 28.0247 145.636 28.7502 145.647 29.4777V42.0086H139.951V30.9668C139.951 28.2545 138.595 26.8983 135.883 26.8983C134.776 26.8983 133.545 26.9797 132.107 27.1017V42.0086H126.412V22.7512C129.985 22.0523 133.619 21.7089 137.261 21.7259C139.355 21.7259 141.118 22.0948 142.474 22.8732C145.167 22.0883 147.96 21.7018 150.765 21.7259C155.992 21.7313 159.193 24.0694 159.193 29.2824Z" fill="#9CB8E2"/>
<path d="M183.164 22.6751V42.0084H177.468V40.6116C175.783 41.9333 173.699 42.6429 171.558 42.6241C168.808 42.6241 166.508 41.6803 164.742 39.7491C162.976 37.8179 162.108 35.2765 162.108 32.0732C162.23 25.7129 165.843 21.7312 171.96 21.7312C174.628 21.7312 178.363 22.0594 183.164 22.6751ZM167.704 32.2387C167.704 35.564 169.603 37.8613 172.507 37.8613C174.27 37.8613 175.914 37.2049 177.474 35.9329V26.6974C175.708 26.532 174.189 26.4506 172.863 26.4506C169.416 26.4506 167.692 28.38 167.69 32.2387H167.704Z" fill="#9CB8E2"/>
<path d="M207.26 41.721C203.421 42.2086 199.554 42.455 195.684 42.4588C192.934 42.4588 190.677 41.5556 188.903 39.7085C187.129 37.8614 186.248 35.3173 186.248 31.992C186.288 25.6289 189.817 21.7313 196.508 21.7313C198.202 21.7385 199.891 21.8891 201.559 22.1815V12.8647H207.255L207.26 41.721ZM191.786 31.992C191.786 35.6455 193.549 37.8614 196.999 37.8614C197.943 37.8614 199.462 37.7394 201.556 37.5332V26.9037C200.151 26.6132 198.721 26.4614 197.287 26.4507C193.633 26.4507 191.786 28.2978 191.786 31.992Z" fill="#9CB8E2"/>
<path d="M210.954 16.0654C210.942 15.5821 211.027 15.1014 211.207 14.6524C211.386 14.2034 211.654 13.7955 211.996 13.4537C212.338 13.1119 212.746 12.8432 213.195 12.6641C213.644 12.485 214.125 12.3992 214.608 12.4119C215.566 12.4119 216.485 12.7925 217.162 13.47C217.84 14.1476 218.221 15.0665 218.221 16.0247C218.221 16.9828 217.84 17.9018 217.162 18.5793C216.485 19.2568 215.566 19.6375 214.608 19.6375C214.131 19.6525 213.656 19.5709 213.211 19.3978C212.766 19.2246 212.361 18.9634 212.02 18.6298C211.679 18.2961 211.409 17.897 211.225 17.4563C211.042 17.0157 210.95 16.5425 210.954 16.0654ZM217.48 42.0086H211.784V22.3471H217.48V42.0086Z" fill="#9CB8E2"/>
<path d="M237.842 27.107C235.295 26.5646 233.448 26.2933 232.3 26.2933C228.481 26.2933 226.062 28.6341 226.062 32.0814C226.062 35.5288 228.484 37.7474 231.975 37.7474C233.49 37.7474 235.46 37.4599 237.885 36.8849L238.623 41.4009C236.354 42.1885 233.972 42.6044 231.571 42.6323C228.286 42.6323 225.62 41.6884 223.526 39.7572C221.473 37.8288 220.448 35.244 220.448 32.0407C220.448 28.8375 221.473 26.2933 223.567 24.4056C225.661 22.5178 228.37 21.5332 231.777 21.5332C234.106 21.5302 236.421 21.9048 238.631 22.6426L237.842 27.107Z" fill="#9CB8E2"/>
<path d="M255.531 42.0085H251.796V12.8647H255.531V42.0085Z" fill="#9CB8E2"/>
<path d="M279.79 23.1661V42.0085H276.026V40.4489C273.856 41.8837 271.632 42.6188 269.375 42.6188C266.543 42.6188 264.243 41.6749 262.521 39.7871C260.799 37.8993 259.933 35.3932 259.933 32.3147C259.933 29.2362 260.837 26.8195 262.51 24.9725C264.184 23.1254 266.614 22.2222 269.611 22.2222C273.023 22.2732 276.427 22.5888 279.79 23.1661ZM263.617 32.4449C263.617 36.5893 266.079 39.4209 269.855 39.4209C271.906 39.4209 273.958 38.6823 276.012 37.205V25.835C274.054 25.5482 272.078 25.3978 270.099 25.3847C265.835 25.3847 263.617 28.1757 263.617 32.4449Z" fill="#9CB8E2"/>
<path d="M289.15 22.9193C291.164 22.4224 293.233 22.1881 295.307 22.2222C301.668 22.2222 305.24 26.0818 305.24 32.2795C305.24 35.4393 304.377 37.9455 302.611 39.7926C300.89 41.6008 298.63 42.5049 295.831 42.5049C292.34 42.4997 288.854 42.2277 285.405 41.6912V12.8647H289.142L289.15 22.9193ZM289.15 26.1225V38.9301C291.105 39.24 293.081 39.4041 295.06 39.421C299.205 39.421 301.546 36.6707 301.546 32.2795C301.546 28.051 299.33 25.3848 294.854 25.3848C292.928 25.3683 291.009 25.6165 289.15 26.1225Z" fill="#9CB8E2"/>
<path d="M308.844 37.6986C311.76 38.8894 314.386 39.505 316.808 39.505C319.477 39.505 321.283 38.5178 321.283 36.8361C321.283 35.8109 320.469 35.0297 318.82 34.5361C318.408 34.4131 317.177 34.1265 315.126 33.6763C310.692 32.8138 308.682 31.2949 308.682 28.2164C308.682 24.4409 311.635 22.2629 316.547 22.2629C319.153 22.2522 321.74 22.7116 324.183 23.619L323.279 26.5727C320.61 25.7129 318.272 25.3007 316.344 25.3007C313.675 25.3007 312.362 26.2039 312.362 27.9696C312.525 29.7353 313.963 30.0635 317 30.7606L317.451 30.8419C320.038 31.3844 321.885 31.9919 323.033 32.7731C324.18 33.5542 324.758 34.7829 324.758 36.5079C324.758 40.4896 321.557 42.6242 316.588 42.6242C313.636 42.6022 310.719 41.9879 308.009 40.8178L308.844 37.6986Z" fill="#9CB8E2"/>
<path d="M45.3161 17.4919C45.0335 17.2948 44.6988 17.1861 44.3544 17.1793C44.0099 17.1725 43.6712 17.2681 43.3811 17.4539C43.091 17.6397 42.8625 17.9074 42.7245 18.223C42.5866 18.5387 42.5454 18.8882 42.6062 19.2274C42.6669 19.5665 42.8269 19.8799 43.0659 20.1281C43.3048 20.3763 43.612 20.548 43.9486 20.6215C44.2852 20.695 44.636 20.667 44.9567 20.5411C45.2774 20.4151 45.5535 20.1969 45.7501 19.914C46.0134 19.5351 46.1155 19.0673 46.0342 18.6132C45.9528 18.159 45.6945 17.7558 45.3161 17.4919Z" fill="#000040"/>
<path d="M37.9848 37.4464C37.9062 37.5793 37.8275 37.7176 37.7407 37.8397C37.8248 37.7095 37.9089 37.5793 37.9848 37.4464Z" fill="url(#paint0_linear_3658_11078)"/>
<path d="M51.7741 29.8302L39.2405 47.84L38.9692 48.2387C38.9144 48.3187 38.8646 48.402 38.8201 48.4882L38.7794 48.5506C38.6331 48.7742 38.5648 49.0399 38.585 49.3064C38.6053 49.5729 38.7131 49.8252 38.8916 50.0241C39.0701 50.223 39.3093 50.3573 39.572 50.4063C39.8347 50.4552 40.1063 50.4159 40.3444 50.2946C44.0149 48.3503 47.1679 45.5574 49.541 42.1483C51.914 38.7393 53.4384 34.8127 53.9873 30.6954C54.0321 30.421 53.9814 30.1395 53.8436 29.8979C53.7059 29.6563 53.4895 29.4693 53.2305 29.3681C52.9715 29.2668 52.6856 29.2575 52.4206 29.3416C52.1555 29.4257 51.9273 29.5982 51.7741 29.8302Z" fill="url(#paint1_linear_3658_11078)"/>
<path d="M2.05477 28.4524C2.26904 28.2165 2.76539 27.5031 2.76539 27.5031C3.55196 26.3585 3.43805 24.6986 2.42635 23.7574C2.11792 23.4873 1.77498 23.2592 1.40652 23.0793C1.37211 23.1907 1.34404 23.3039 1.32244 23.4184C1.0923 24.9808 0.983481 26.5586 0.996965 28.1378C0.996965 28.6993 1.67504 28.8674 2.05477 28.4524Z" fill="url(#paint2_linear_3658_11078)"/>
<path d="M5.18465 21.3923C6.08482 22.4481 6.60871 23.7731 6.674 25.159C6.7393 26.545 6.3423 27.9133 5.54539 29.0491L2.58626 33.0769C2.2466 33.5558 2.09089 34.141 2.14768 34.7253C2.20447 35.3097 2.46995 35.854 2.89546 36.2584C3.11377 36.4393 3.36736 36.5726 3.64008 36.65C3.91279 36.7273 4.19863 36.7469 4.47936 36.7076C4.76009 36.6683 5.02954 36.5709 5.27053 36.4217C5.51152 36.2724 5.71875 36.0746 5.87901 35.8408L14.0431 24.2402L15.5728 22.008L26.6092 6.07041C28.1959 3.75952 26.856 0.672911 24.0759 1.02551C19.0298 1.67438 14.2775 3.76331 10.3876 7.04238C6.49761 10.3214 3.63473 14.6518 2.14144 19.5153C3.32154 19.8206 4.38213 20.4748 5.18465 21.3923Z" fill="url(#paint3_linear_3658_11078)"/>
<path d="M47.7979 9.30629C43.4285 6.26898 38.7996 3.62325 33.9651 1.3999L13.6498 30.9126L7.95399 38.6427C7.32473 39.5594 6.52189 39.7466 5.59156 40.1724C4.16489 40.8234 3.65497 42.8847 4.62598 44.1134L4.66124 44.1595C5.60241 45.3529 7.50374 45.5808 9.24505 43.7011L21.4749 26.6868C22.1911 25.6602 23.1025 24.7847 24.1571 24.1104C25.2117 23.4361 26.3888 22.9761 27.6212 22.7567C28.8536 22.5373 30.1171 22.5629 31.3396 22.8318C32.5622 23.1008 33.7197 23.608 34.7462 24.3244L35.2887 24.7068C37.2688 26.0921 38.6484 28.1783 39.148 30.5428C39.6476 32.9072 39.2298 35.3732 37.9793 37.4411C37.9033 37.574 37.8193 37.7123 37.7352 37.8344C37.7026 37.8805 37.6755 37.932 37.643 37.9781L37.6077 38.0297L37.5779 38.0758L34.4967 42.5403L32.8693 44.683L29.205 50.0507C27.8488 52.0225 29.4545 54.4283 31.7979 53.932C31.7979 53.932 34.1034 53.3542 34.1793 51.0895C34.2282 49.6248 34.7218 48.3419 35.6169 47.04L50.0247 26.3803C50.3637 25.8894 50.6648 25.4039 50.9387 24.9184C54.7007 18.6502 53.5317 13.25 47.7979 9.30629ZM44.2908 24.3759C44.1033 24.3765 43.916 24.3674 43.7294 24.3488C43.667 24.3488 43.61 24.3298 43.5504 24.3217C43.4256 24.3054 43.3036 24.2918 43.1842 24.2674C43.111 24.2538 43.0405 24.2321 42.9672 24.2132C42.894 24.1942 42.7584 24.1643 42.658 24.1345C42.5577 24.1047 42.5116 24.0803 42.4383 24.0558C42.3651 24.0314 42.2458 23.9908 42.1508 23.9501C42.0559 23.9094 42.0098 23.8823 41.9393 23.8497C41.8687 23.8172 41.7575 23.7656 41.668 23.7195C41.5785 23.6734 41.5324 23.6382 41.4646 23.5975C41.3968 23.5568 41.2964 23.4998 41.2151 23.4456L41.0225 23.3018C40.9438 23.2449 40.8679 23.1906 40.7947 23.1282C40.7214 23.0659 40.6726 23.0197 40.6102 22.9655C40.5478 22.9112 40.4692 22.8407 40.4041 22.7729C40.339 22.7051 40.2929 22.6536 40.2386 22.5939C40.1844 22.5342 40.1112 22.4556 40.0488 22.3823C39.9864 22.3091 39.9484 22.2522 39.8996 22.1844C39.8508 22.1165 39.7884 22.0379 39.7342 21.9592C39.6799 21.8806 39.6474 21.8182 39.604 21.745C39.5606 21.6717 39.5063 21.5876 39.4629 21.5063C39.4195 21.4249 39.387 21.3544 39.3517 21.2784C39.3165 21.2025 39.2676 21.1103 39.2324 21.0262C39.1971 20.9421 39.1727 20.8662 39.1429 20.7848C39.113 20.7034 39.0778 20.6085 39.0506 20.5136C39.0235 20.4186 39.0045 20.3454 38.9855 20.2613C38.9666 20.1772 38.9367 20.0796 38.9177 19.9901C38.8988 19.9006 38.8906 19.8192 38.8771 19.7189C38.8635 19.6185 38.8472 19.529 38.8391 19.4476C38.831 19.3663 38.8391 19.2686 38.8228 19.1764C38.8065 19.0842 38.8228 19.0326 38.8228 18.9594C38.8228 18.9323 38.8228 18.9079 38.8228 18.8808C38.8228 18.8536 38.8228 18.8292 38.8228 18.8048C38.8228 18.7343 38.8228 18.6692 38.8391 18.5987C38.8554 18.5282 38.8391 18.417 38.8581 18.3274C38.8771 18.2379 38.8771 18.2 38.8879 18.1376C39.0563 16.9903 39.5868 15.9268 40.4021 15.1022C41.2174 14.2777 42.2749 13.7351 43.4202 13.5538C43.4826 13.5538 43.545 13.5321 43.6073 13.5267C43.6697 13.5212 43.7891 13.5077 43.8786 13.5022C43.9681 13.4968 44.0142 13.4887 44.082 13.486H44.2366C44.3098 13.486 44.3803 13.486 44.4536 13.486C44.5268 13.486 44.6326 13.486 44.7248 13.486C44.817 13.486 44.9174 13.5077 45.0123 13.5185L45.2835 13.5592C45.3785 13.5755 45.468 13.5999 45.5548 13.6216C45.6416 13.6433 45.7257 13.6596 45.807 13.684C45.8884 13.7084 45.986 13.7436 46.0783 13.7735C46.1705 13.8033 46.2383 13.8277 46.3169 13.8603C46.3956 13.8928 46.4905 13.9362 46.5746 13.9769C46.6587 14.0176 46.7265 14.0447 46.8024 14.0854C46.8784 14.1261 46.9625 14.1776 47.0438 14.2237C47.1252 14.2698 47.1903 14.3078 47.2581 14.3539C47.3259 14.4 47.41 14.4597 47.4859 14.5139C47.5619 14.5682 47.6216 14.6116 47.6866 14.6631C47.7517 14.7146 47.8277 14.7852 47.8955 14.8475C47.9633 14.9099 48.0203 14.956 48.0799 15.013C48.1396 15.07 48.2101 15.1486 48.2725 15.2164C48.3349 15.2842 48.3864 15.3358 48.4407 15.3981C48.4949 15.4605 48.5546 15.5473 48.6143 15.6233C48.6739 15.6992 48.7146 15.7507 48.7607 15.8186C48.8068 15.8864 48.8638 15.9786 48.9126 16.0599C48.9614 16.1413 49.0021 16.1956 49.0401 16.2688C49.0781 16.342 49.1296 16.4424 49.173 16.54C49.2164 16.6377 49.2435 16.6811 49.2761 16.7543C49.3086 16.8275 49.3493 16.9442 49.3846 17.0418C49.4198 17.1395 49.4415 17.1828 49.4659 17.2561C49.4903 17.3293 49.5229 17.4649 49.55 17.5707C49.5771 17.6765 49.5907 17.709 49.6043 17.7823C49.6314 17.9016 49.6449 18.0237 49.6639 18.1457C49.6639 18.2054 49.6856 18.2651 49.691 18.3274C49.7129 18.5138 49.7237 18.7013 49.7236 18.8889C49.729 19.6064 49.5925 20.3179 49.322 20.9825C49.0516 21.6471 48.6525 22.2517 48.1476 22.7615C47.6428 23.2714 47.0422 23.6765 46.3803 23.9536C45.7184 24.2306 45.0084 24.3741 44.2908 24.3759Z" fill="url(#paint4_linear_3658_11078)"/>
<path d="M37.7408 37.8397C37.6974 37.9048 37.6567 37.9726 37.6133 38.035L37.6485 37.9835C37.6811 37.9374 37.7082 37.8858 37.7408 37.8397Z" fill="url(#paint5_linear_3658_11078)"/>
<path d="M37.7408 37.8397C37.6974 37.9048 37.6567 37.9726 37.6133 38.035L37.6485 37.9835C37.6811 37.9374 37.7082 37.8858 37.7408 37.8397Z" fill="url(#paint6_linear_3658_11078)"/>
<path d="M29.2051 30.7334C29.5798 30.7334 29.9454 30.849 30.2521 31.0643L30.5911 31.3003C30.9893 31.5802 31.2604 32.0064 31.3453 32.4857C31.4302 32.9649 31.3219 33.4583 31.0441 33.858L19.3215 50.3759C19.1678 50.5954 19.0589 50.8431 19.0011 51.1047C18.9433 51.3663 18.9377 51.6367 18.9845 51.9005C19.0314 52.1643 19.1298 52.4163 19.2742 52.6419C19.4186 52.8676 19.6061 53.0626 19.8259 53.2157C20.0454 53.3694 20.2931 53.4783 20.5547 53.5361C20.8163 53.5939 21.0867 53.5995 21.3505 53.5527C21.6143 53.5058 21.8663 53.4074 22.0919 53.263C22.3176 53.1186 22.5126 52.9311 22.6657 52.7112L34.3884 36.1933C34.8332 35.5564 35.1483 34.8382 35.3156 34.0795C35.4829 33.3209 35.4992 32.5367 35.3634 31.7718C35.2277 31.0069 34.9426 30.2762 34.5244 29.6215C34.1063 28.9668 33.5633 28.4008 32.9264 27.956L32.5874 27.72C31.5965 27.0251 30.4154 26.6528 29.2051 26.6541C28.252 26.6527 27.3127 26.8819 26.4673 27.3221C25.6219 27.7622 24.8955 28.4003 24.3501 29.1819L10.3898 48.8353C10.2362 49.0548 10.1273 49.3025 10.0695 49.5641C10.0117 49.8257 10.006 50.0961 10.0529 50.3599C10.0997 50.6237 10.1982 50.8757 10.3426 51.1013C10.487 51.327 10.6744 51.522 10.8943 51.6751C11.1139 51.8304 11.3621 51.9407 11.6246 51.9997C11.887 52.0587 12.1585 52.0651 12.4235 52.0187C12.6884 51.9724 12.9416 51.874 13.1684 51.7294C13.3952 51.5848 13.5911 51.3967 13.7449 51.1761L27.7052 31.5227C27.8746 31.2793 28.1006 31.0807 28.3638 30.9442C28.627 30.8076 28.9195 30.7371 29.216 30.7388" fill="url(#paint7_linear_3658_11078)"/>
<defs>
<linearGradient id="paint0_linear_3658_11078" x1="53.3201" y1="12.9923" x2="24.811" y2="58.4585" gradientUnits="userSpaceOnUse">
<stop stop-color="#01CAF3"/>
<stop offset="0.18" stop-color="#009BF1"/>
<stop offset="0.33" stop-color="#007AF0"/>
<stop offset="0.41" stop-color="#006EF0"/>
<stop offset="0.52" stop-color="#0064E1"/>
<stop offset="1" stop-color="#003CA0"/>
</linearGradient>
<linearGradient id="paint1_linear_3658_11078" x1="61.3051" y1="17.9991" x2="32.7987" y2="63.4656" gradientUnits="userSpaceOnUse">
<stop stop-color="#01CAF3"/>
<stop offset="0.18" stop-color="#009BF1"/>
<stop offset="0.33" stop-color="#007AF0"/>
<stop offset="0.41" stop-color="#006EF0"/>
<stop offset="0.52" stop-color="#0064E1"/>
<stop offset="1" stop-color="#003CA0"/>
</linearGradient>
<linearGradient id="paint2_linear_3658_11078" x1="22.0798" y1="-6.59335" x2="-6.42934" y2="38.8731" gradientUnits="userSpaceOnUse">
<stop stop-color="#01CAF3"/>
<stop offset="0.18" stop-color="#009BF1"/>
<stop offset="0.33" stop-color="#007AF0"/>
<stop offset="0.41" stop-color="#006EF0"/>
<stop offset="0.52" stop-color="#0064E1"/>
<stop offset="1" stop-color="#003CA0"/>
</linearGradient>
<linearGradient id="paint3_linear_3658_11078" x1="24.8896" y1="-4.83308" x2="-3.61681" y2="40.6334" gradientUnits="userSpaceOnUse">
<stop stop-color="#01CAF3"/>
<stop offset="0.18" stop-color="#009BF1"/>
<stop offset="0.33" stop-color="#007AF0"/>
<stop offset="0.41" stop-color="#006EF0"/>
<stop offset="0.52" stop-color="#0064E1"/>
<stop offset="1" stop-color="#003CA0"/>
</linearGradient>
<linearGradient id="paint4_linear_3658_11078" x1="44.0196" y1="7.16357" x2="15.5132" y2="52.6301" gradientUnits="userSpaceOnUse">
<stop stop-color="#01CAF3"/>
<stop offset="0.18" stop-color="#009BF1"/>
<stop offset="0.33" stop-color="#007AF0"/>
<stop offset="0.41" stop-color="#006EF0"/>
<stop offset="0.52" stop-color="#0064E1"/>
<stop offset="1" stop-color="#003CA0"/>
</linearGradient>
<linearGradient id="paint5_linear_3658_11078" x1="53.3176" y1="12.9922" x2="24.8112" y2="58.4588" gradientUnits="userSpaceOnUse">
<stop stop-color="#01CAF3"/>
<stop offset="0.18" stop-color="#009BF1"/>
<stop offset="0.33" stop-color="#007AF0"/>
<stop offset="0.41" stop-color="#006EF0"/>
<stop offset="0.52" stop-color="#0064E1"/>
<stop offset="1" stop-color="#003CA0"/>
</linearGradient>
<linearGradient id="paint6_linear_3658_11078" x1="53.3176" y1="12.9922" x2="24.8112" y2="58.4588" gradientUnits="userSpaceOnUse">
<stop stop-color="#01CAF3"/>
<stop offset="0.18" stop-color="#009BF1"/>
<stop offset="0.33" stop-color="#007AF0"/>
<stop offset="0.41" stop-color="#006EF0"/>
<stop offset="0.52" stop-color="#0064E1"/>
<stop offset="1" stop-color="#003CA0"/>
</linearGradient>
<linearGradient id="paint7_linear_3658_11078" x1="44.4049" y1="7.40478" x2="15.8985" y2="52.8713" gradientUnits="userSpaceOnUse">
<stop stop-color="#01CAF3"/>
<stop offset="0.18" stop-color="#009BF1"/>
<stop offset="0.33" stop-color="#007AF0"/>
<stop offset="0.41" stop-color="#006EF0"/>
<stop offset="0.52" stop-color="#0064E1"/>
<stop offset="1" stop-color="#003CA0"/>
</linearGradient>
</defs>
</svg>
