<svg width="380" height="62" viewBox="0 0 380 62" fill="none" xmlns="http://www.w3.org/2000/svg">
    <path d="M111.871 26.2175C113.644 27.804 114.558 29.9647 114.558 32.6046V47.4918H107.895V34.5749C107.895 31.694 106.023 29.8156 103.288 29.8156C101.474 29.8279 99.6622 29.9338 97.8593 30.1329V47.4918H91.1962V24.8754C95.7263 24.1876 100.299 23.8186 104.881 23.7712C107.787 23.7712 110.094 24.5835 111.871 26.2175Z" fill="#9CB8E2"/>
    <path d="M140.344 26.8904C142.699 29.1495 143.898 32.1256 143.898 35.822C143.898 39.5692 142.699 42.593 140.344 44.8997C137.99 47.2064 134.871 48.355 130.981 48.355C127.091 48.355 123.969 47.2032 121.567 44.8902C119.165 42.5771 117.966 39.5597 117.966 35.8125C117.966 32.1161 119.165 29.1495 121.516 26.8808C123.918 24.6249 127.088 23.4731 130.978 23.4731C134.868 23.4731 137.99 24.6344 140.344 26.8904ZM130.981 29.4287C127.174 29.4287 124.594 31.967 124.594 35.8157C124.594 39.7057 127.186 42.3963 130.981 42.3963C134.776 42.3963 137.327 39.7057 137.327 35.8157C137.317 31.9828 134.773 29.435 130.981 29.435V29.4287Z" fill="#9CB8E2"/>
    <path d="M186.056 32.6046V47.4918H179.393V34.575C179.393 31.4021 177.807 29.8156 174.589 29.8156C173.038 29.8222 171.492 29.9827 169.973 30.2947C170.118 31.1333 170.198 31.982 170.211 32.833V47.4918H163.548V34.575C163.548 31.4021 161.961 29.8156 158.788 29.8156C157.494 29.8156 156.053 29.9108 154.372 30.0536V47.4918H147.709V24.9643C151.889 24.1467 156.14 23.745 160.4 23.7649C162.85 23.7649 164.912 24.1964 166.498 25.107C169.649 24.1889 172.917 23.7367 176.198 23.7649C182.312 23.7713 186.056 26.5063 186.056 32.6046Z" fill="#9CB8E2"/>
    <path d="M214.098 24.8754V47.4918H207.435V45.8578C205.464 47.4038 203.026 48.234 200.521 48.212C197.304 48.212 194.614 47.1079 192.548 44.8488C190.482 42.5897 189.467 39.6167 189.467 35.8695C189.61 28.429 193.836 23.7712 200.991 23.7712C204.113 23.7712 208.482 24.1552 214.098 24.8754ZM196.013 36.063C196.013 39.953 198.234 42.6404 201.632 42.6404C203.694 42.6404 205.617 41.8726 207.442 40.3845V29.5808C205.376 29.3873 203.599 29.2921 202.048 29.2921C198.016 29.2921 195.999 31.5491 195.997 36.063H196.013Z" fill="#9CB8E2"/>
    <path d="M242.286 47.1556C237.795 47.726 233.272 48.0142 228.744 48.0186C225.527 48.0186 222.887 46.962 220.812 44.8013C218.737 42.6406 217.706 39.6644 217.706 35.7744C217.753 28.3308 221.881 23.7714 229.709 23.7714C231.69 23.7798 233.666 23.956 235.617 24.2981V13.3992H242.28L242.286 47.1556ZM224.185 35.7744C224.185 40.0483 226.247 42.6406 230.283 42.6406C231.387 42.6406 233.164 42.4978 235.614 42.2566V29.8221C233.97 29.4822 232.298 29.3047 230.62 29.2922C226.346 29.2922 224.185 31.4529 224.185 35.7744V35.7744Z" fill="#9CB8E2"/>
    <path d="M246.608 17.1432C246.593 16.5779 246.693 16.0155 246.903 15.4903C247.112 14.9651 247.427 14.488 247.827 14.0881C248.226 13.6883 248.703 13.374 249.229 13.1645C249.754 12.9549 250.316 12.8545 250.882 12.8694C252.003 12.8694 253.077 13.3146 253.87 14.1072C254.663 14.8998 255.108 15.9748 255.108 17.0956C255.108 18.2165 254.663 19.2915 253.87 20.0841C253.077 20.8767 252.003 21.3219 250.882 21.3219C250.324 21.3395 249.768 21.2441 249.248 21.0415C248.728 20.839 248.254 20.5334 247.854 20.1431C247.455 19.7528 247.139 19.2859 246.925 18.7704C246.711 18.2549 246.603 17.7015 246.608 17.1432V17.1432ZM254.242 47.492H247.579V24.4917H254.242V47.492Z" fill="#9CB8E2"/>
    <path d="M278.061 30.0599C275.081 29.4253 272.921 29.108 271.578 29.108C267.111 29.108 264.281 31.8462 264.281 35.879C264.281 39.9117 267.114 42.5071 271.198 42.5071C272.97 42.5071 275.275 42.1708 278.111 41.4981L278.974 46.781C276.32 47.7024 273.534 48.1888 270.725 48.2215C266.883 48.2215 263.764 47.1173 261.314 44.8582C258.912 42.6023 257.713 39.5785 257.713 35.8314C257.713 32.0842 258.912 29.108 261.362 26.8997C263.811 24.6913 266.981 23.5396 270.966 23.5396C273.691 23.536 276.399 23.9743 278.984 24.8373L278.061 30.0599Z" fill="#9CB8E2"/>
    <path d="M298.754 47.4919H294.385V13.3992H298.754V47.4919Z" fill="#9CB8E2"/>
    <path d="M327.133 25.4496V47.4917H322.729V45.6673C320.19 47.3458 317.589 48.2056 314.949 48.2056C311.636 48.2056 308.946 47.1014 306.931 44.8931C304.916 42.6848 303.904 39.753 303.904 36.1518C303.904 32.5506 304.96 29.7235 306.918 27.5628C308.876 25.402 311.719 24.3455 315.225 24.3455C319.217 24.4052 323.198 24.7743 327.133 25.4496V25.4496ZM308.213 36.3041C308.213 41.1523 311.094 44.4648 315.51 44.4648C317.909 44.4648 320.31 43.6007 322.713 41.8725V28.5718C320.422 28.2363 318.111 28.0603 315.796 28.0451C310.808 28.0451 308.213 31.31 308.213 36.3041V36.3041Z" fill="#9CB8E2"/>
    <path d="M338.082 25.1611C340.438 24.5798 342.859 24.3058 345.285 24.3457C352.725 24.3457 356.904 28.8607 356.904 36.1107C356.904 39.8072 355.895 42.7389 353.829 44.8997C351.816 47.0149 349.172 48.0726 345.897 48.0726C341.813 48.0665 337.736 47.7483 333.701 47.1207V13.3992H338.073L338.082 25.1611ZM338.082 28.9083V43.8907C340.369 44.2532 342.68 44.4452 344.996 44.465C349.844 44.465 352.582 41.2477 352.582 36.1107C352.582 31.1642 349.99 28.0452 344.755 28.0452C342.502 28.0259 340.256 28.3163 338.082 28.9083V28.9083Z" fill="#9CB8E2"/>
    <path d="M361.121 42.4502C364.532 43.8431 367.603 44.5634 370.436 44.5634C373.558 44.5634 375.672 43.4084 375.672 41.4412C375.672 40.2419 374.72 39.3281 372.791 38.7506C372.308 38.6068 370.868 38.2715 368.469 37.7448C363.281 36.7358 360.93 34.959 360.93 31.3578C360.93 26.9411 364.386 24.3933 370.132 24.3933C373.18 24.3808 376.206 24.9182 379.063 25.9797L378.007 29.435C374.885 28.4292 372.15 27.9469 369.894 27.9469C366.772 27.9469 365.236 29.0035 365.236 31.069C365.426 33.1346 367.108 33.5185 370.662 34.334L371.188 34.4291C374.215 35.0637 376.376 35.7744 377.718 36.6882C379.06 37.602 379.736 39.0394 379.736 41.0573C379.736 45.7151 375.992 48.2122 370.179 48.2122C366.726 48.1865 363.314 47.4679 360.143 46.099L361.121 42.4502Z" fill="#9CB8E2"/>
    <path d="M52.8423 19.295C52.5117 19.0645 52.1201 18.9373 51.7172 18.9293C51.3143 18.9214 50.918 19.0332 50.5787 19.2506C50.2393 19.4679 49.972 19.781 49.8106 20.1503C49.6492 20.5196 49.6011 20.9285 49.6721 21.3252C49.7432 21.7219 49.9304 22.0886 50.2099 22.3789C50.4895 22.6692 50.8488 22.8701 51.2426 22.956C51.6363 23.042 52.0467 23.0093 52.4218 22.862C52.7969 22.7147 53.1199 22.4594 53.3499 22.1284C53.6579 21.6852 53.7775 21.1379 53.6823 20.6067C53.5871 20.0755 53.285 19.6037 52.8423 19.295Z" fill="#9CB8E2"/>
    <path d="M44.266 42.6382C44.174 42.7937 44.082 42.9555 43.9805 43.0983C44.0788 42.946 44.1772 42.7937 44.266 42.6382Z" fill="url(#paint0_linear_4157_13779)"/>
    <path d="M60.3969 33.7285L45.7349 54.7965L45.4177 55.2629C45.3535 55.3565 45.2952 55.454 45.2431 55.5548L45.1956 55.6278C45.0244 55.8894 44.9445 56.2003 44.9682 56.512C44.9919 56.8237 45.118 57.1189 45.3268 57.3515C45.5356 57.5842 45.8154 57.7414 46.1228 57.7986C46.4301 57.8558 46.7478 57.8099 47.0263 57.668C51.3201 55.3935 55.0086 52.1263 57.7846 48.1384C60.5606 44.1504 62.3439 39.5571 62.986 34.7407C63.0383 34.4196 62.979 34.0903 62.8179 33.8077C62.6568 33.5251 62.4036 33.3063 62.1006 33.1879C61.7976 33.0695 61.4632 33.0585 61.1531 33.1569C60.8431 33.2553 60.5761 33.457 60.3969 33.7285V33.7285Z" fill="#9CB8E2"/>
    <path d="M2.23464 32.1168C2.4853 31.8408 3.06594 31.0063 3.06594 31.0063C3.98608 29.6673 3.85282 27.7255 2.66933 26.6245C2.30852 26.3085 1.90734 26.0417 1.47632 25.8313C1.43607 25.9615 1.40323 26.094 1.37796 26.2279C1.10874 28.0556 0.981441 29.9014 0.997215 31.7487C0.997215 32.4055 1.79044 32.6023 2.23464 32.1168Z" fill="#9CB8E2"/>
    <path d="M5.89604 23.8577C6.94906 25.0928 7.56191 26.6428 7.63829 28.2641C7.71468 29.8854 7.25027 31.4861 6.31803 32.8148L2.8564 37.5265C2.45907 38.0867 2.27692 38.7713 2.34335 39.4548C2.40979 40.1384 2.72035 40.7751 3.21811 41.2483C3.47349 41.4598 3.77015 41.6158 4.08917 41.7063C4.40819 41.7968 4.74257 41.8197 5.07097 41.7738C5.39937 41.7278 5.71459 41.6139 5.9965 41.4393C6.27841 41.2647 6.52083 41.0332 6.7083 40.7597L16.2587 27.1892L18.0482 24.5779L30.9587 5.934C32.8149 3.23069 31.2475 -0.380062 27.9952 0.032414C22.0923 0.791469 16.533 3.23512 11.9825 7.07101C7.43195 10.9069 4.08292 15.9726 2.33605 21.662C3.71655 22.0192 4.95724 22.7844 5.89604 23.8577Z" fill="#9CB8E2"/>
    <path d="M55.7454 9.71944C50.6341 6.16636 45.2192 3.07135 39.5637 0.470459L15.7987 34.9947L9.13562 44.0375C8.39951 45.1099 7.46033 45.3288 6.37203 45.827C4.70309 46.5885 4.10658 48.9999 5.24248 50.4372L5.28373 50.4911C6.38472 51.8872 8.60892 52.1537 10.6459 49.9549L24.9525 30.0513C25.7903 28.8504 26.8566 27.8263 28.0902 27.0374C29.3239 26.2486 30.7009 25.7105 32.1426 25.4539C33.5842 25.1973 35.0623 25.2271 36.4924 25.5418C37.9225 25.8564 39.2767 26.4497 40.4775 27.2878L41.112 27.7351C43.4285 29.3557 45.0423 31.7962 45.6267 34.5621C46.2112 37.3281 45.7224 40.2128 44.2596 42.6319C44.1707 42.7873 44.0724 42.9492 43.974 43.0919C43.9359 43.1459 43.9042 43.2062 43.8661 43.2601L43.8249 43.3204L43.79 43.3743L40.1856 48.5969L38.2818 51.1035L33.9952 57.3827C32.4088 59.6894 34.2871 62.5037 37.0285 61.9231C37.0285 61.9231 39.7255 61.2472 39.8143 58.5979C39.8714 56.8845 40.4489 55.3837 41.496 53.8607L58.3504 29.6928C58.747 29.1185 59.0992 28.5506 59.4196 27.9826C63.8204 20.6501 62.4529 14.3328 55.7454 9.71944ZM51.6429 27.348C51.4235 27.3487 51.2043 27.3381 50.9861 27.3163C50.9131 27.3163 50.8465 27.2941 50.7767 27.2846C50.6307 27.2655 50.4879 27.2497 50.3483 27.2211C50.2627 27.2053 50.1802 27.1799 50.0945 27.1577C50.0088 27.1355 49.8502 27.1006 49.7328 27.0657C49.6154 27.0308 49.5615 27.0022 49.4758 26.9736C49.3901 26.9451 49.2505 26.8975 49.1395 26.8499C49.0284 26.8023 48.9745 26.7706 48.892 26.7325C48.8095 26.6944 48.6794 26.6341 48.5747 26.5802C48.47 26.5263 48.416 26.485 48.3367 26.4374C48.2574 26.3898 48.14 26.3232 48.0448 26.2597L47.8195 26.0916C47.7275 26.0249 47.6387 25.9615 47.553 25.8885C47.4673 25.8155 47.4102 25.7616 47.3373 25.6981C47.2643 25.6347 47.1723 25.5522 47.0961 25.4729C47.02 25.3935 46.966 25.3333 46.9026 25.2635C46.8391 25.1936 46.7534 25.1016 46.6805 25.016C46.6075 24.9303 46.5631 24.8637 46.506 24.7843C46.4489 24.705 46.3759 24.613 46.3124 24.521C46.249 24.429 46.2109 24.356 46.1601 24.2703C46.1094 24.1847 46.0459 24.0863 45.9951 23.9911C45.9444 23.8959 45.9063 23.8134 45.865 23.7246C45.8238 23.6358 45.7667 23.5279 45.7254 23.4295C45.6842 23.3312 45.6556 23.2423 45.6207 23.1471C45.5858 23.0519 45.5446 22.9409 45.5128 22.8298C45.4811 22.7188 45.4589 22.6331 45.4367 22.5348C45.4145 22.4364 45.3796 22.3222 45.3574 22.2175C45.3352 22.1128 45.3256 22.0176 45.3098 21.9002C45.2939 21.7828 45.2749 21.6781 45.2654 21.5829C45.2558 21.4877 45.2654 21.3735 45.2463 21.2656C45.2273 21.1577 45.2463 21.0974 45.2463 21.0118C45.2463 20.98 45.2463 20.9515 45.2463 20.9198C45.2463 20.888 45.2463 20.8595 45.2463 20.8309C45.2463 20.7484 45.2463 20.6723 45.2654 20.5898C45.2844 20.5073 45.2654 20.3772 45.2876 20.2725C45.3098 20.1678 45.3098 20.1234 45.3225 20.0504C45.5195 18.7083 46.1401 17.4642 47.0938 16.4996C48.0476 15.535 49.2846 14.9003 50.6244 14.6882C50.6974 14.6882 50.7703 14.6628 50.8433 14.6565C50.9163 14.6501 51.0559 14.6343 51.1606 14.6279C51.2653 14.6216 51.3192 14.612 51.3986 14.6089H51.5794C51.6651 14.6089 51.7476 14.6089 51.8333 14.6089C51.9189 14.6089 52.0427 14.6089 52.1505 14.6089C52.2584 14.6089 52.3758 14.6343 52.4869 14.6469L52.8042 14.6945C52.9152 14.7136 53.0199 14.7421 53.1214 14.7675C53.223 14.7929 53.3213 14.8119 53.4165 14.8405C53.5117 14.8691 53.6259 14.9103 53.7338 14.9452C53.8417 14.9801 53.921 15.0087 54.013 15.0467C54.105 15.0848 54.2161 15.1356 54.3145 15.1832C54.4128 15.2308 54.4921 15.2625 54.581 15.3101C54.6698 15.3577 54.7682 15.418 54.8634 15.4719C54.9586 15.5258 55.0347 15.5703 55.114 15.6242C55.1933 15.6781 55.2917 15.7479 55.3805 15.8114C55.4694 15.8749 55.5392 15.9256 55.6153 15.9859C55.6915 16.0462 55.7803 16.1287 55.8597 16.2017C55.939 16.2746 56.0056 16.3286 56.0754 16.3952C56.1452 16.4618 56.2277 16.5539 56.3007 16.6332C56.3737 16.7125 56.4339 16.7728 56.4974 16.8458C56.5609 16.9187 56.6307 17.0203 56.7005 17.1091C56.7703 17.198 56.8179 17.2582 56.8718 17.3376C56.9257 17.4169 56.9924 17.5248 57.0495 17.6199C57.1066 17.7151 57.1542 17.7786 57.1986 17.8643C57.243 17.9499 57.3033 18.0673 57.3541 18.1816C57.4049 18.2958 57.4366 18.3465 57.4747 18.4322C57.5127 18.5179 57.5603 18.6543 57.6016 18.7685C57.6428 18.8828 57.6682 18.9335 57.6968 19.0192C57.7253 19.1049 57.7634 19.2635 57.7951 19.3873C57.8268 19.511 57.8427 19.5491 57.8586 19.6347C57.8903 19.7743 57.9062 19.9171 57.9284 20.0599C57.9284 20.1297 57.9538 20.1995 57.9601 20.2725C57.9856 20.4905 57.9983 20.7098 57.9982 20.9293C58.0045 21.7686 57.8448 22.6009 57.5284 23.3784C57.2121 24.1558 56.7452 24.8631 56.1546 25.4596C55.5641 26.056 54.8615 26.5299 54.0872 26.854C53.3129 27.1781 52.4822 27.346 51.6429 27.348Z" fill="#9CB8E2"/>
    <path d="M43.9805 43.0979C43.9298 43.174 43.8822 43.2534 43.8314 43.3263L43.8727 43.2661C43.9107 43.2121 43.9425 43.1518 43.9805 43.0979Z" fill="#9CB8E2"/>
    <path d="M43.9805 43.0979C43.9298 43.174 43.8822 43.2534 43.8314 43.3263L43.8727 43.2661C43.9107 43.2121 43.9425 43.1518 43.9805 43.0979Z" fill="#9CB8E2"/>
    <path d="M33.9954 34.785C34.4338 34.7851 34.8614 34.9202 35.2202 35.1721L35.6168 35.4481C36.0826 35.7756 36.3998 36.2742 36.499 36.8348C36.5983 37.3955 36.4716 37.9726 36.1467 38.4402L22.4334 57.7631C22.2537 58.0198 22.1263 58.3095 22.0587 58.6155C21.991 58.9216 21.9845 59.2379 22.0393 59.5465C22.0941 59.8551 22.2093 60.1499 22.3782 60.4139C22.5471 60.6779 22.7664 60.906 23.0236 61.0851C23.2803 61.2649 23.57 61.3922 23.876 61.4598C24.1821 61.5275 24.4984 61.5341 24.807 61.4792C25.1156 61.4244 25.4103 61.3093 25.6744 61.1404C25.9384 60.9715 26.1665 60.7521 26.3456 60.4949L40.0588 41.172C40.5793 40.427 40.9479 39.5868 41.1436 38.6993C41.3393 37.8119 41.3583 36.8946 41.1995 35.9998C41.0407 35.105 40.7072 34.2502 40.218 33.4843C39.7289 32.7184 39.0937 32.0563 38.3486 31.5359L37.952 31.2599C36.7929 30.447 35.4112 30.0115 33.9954 30.0129V30.0129C32.8805 30.0114 31.7817 30.2795 30.7927 30.7944C29.8038 31.3093 28.954 32.0557 28.316 32.9701L11.9851 55.9609C11.8053 56.2176 11.678 56.5073 11.6103 56.8133C11.5427 57.1194 11.5361 57.4357 11.5909 57.7443C11.6458 58.0529 11.7609 58.3477 11.9298 58.6117C12.0987 58.8757 12.318 59.1038 12.5752 59.2829V59.2829C12.8322 59.4645 13.1225 59.5936 13.4295 59.6625C13.7365 59.7315 14.0541 59.7391 14.3641 59.6848C14.674 59.6306 14.9702 59.5156 15.2355 59.3464C15.5008 59.1772 15.73 58.9572 15.9099 58.6991L32.2408 35.7083C32.439 35.4236 32.7034 35.1913 33.0113 35.0316C33.3191 34.8718 33.6613 34.7894 34.0081 34.7913" fill="#9CB8E2"/>
    <defs>
        <linearGradient id="paint0_linear_4157_13779" x1="62.2054" y1="14.0314" x2="28.8552" y2="67.2184" gradientUnits="userSpaceOnUse">
            <stop stop-color="#01CAF3"/>
            <stop offset="0.18" stop-color="#009BF1"/>
            <stop offset="0.33" stop-color="#007AF0"/>
            <stop offset="0.41" stop-color="#006EF0"/>
            <stop offset="0.52" stop-color="#0064E1"/>
            <stop offset="1" stop-color="#003CA0"/>
        </linearGradient>
    </defs>
</svg>
