<svg width="280" height="104" viewBox="0 0 280 104" fill="none" xmlns="http://www.w3.org/2000/svg">
<g clip-path="url(#clip0_109:22565)">
<path d="M40 39.8876C43.5815 39.8969 47.1616 39.8702 50.7418 39.9344C52.1762 39.9598 53.6361 40.0547 55.0358 40.3475C58.9555 41.1696 60.1065 44.1549 59.8058 47.5666C59.6346 49.4903 58.5839 50.8499 56.612 51.6213C57.013 51.8633 57.2804 52.0464 57.5598 52.1855C60.5397 53.656 61.2188 55.5744 60.902 58.6706C60.5958 61.6331 58.874 63.4539 55.9181 64.1718C55.1421 64.3583 54.3473 64.4547 53.5492 64.4593C49.0346 64.4927 44.5186 64.486 40.0027 64.4914V60.7708C40.7558 59.7531 41.8762 59.0692 43.1256 58.8645C43.8636 58.7562 44.6122 58.74 45.3542 58.8163C46.2338 58.8925 47.1015 59.1024 47.9771 59.2348C49.0667 59.4006 50.1883 59.4433 51.2431 59.7308C52.1254 59.9714 52.8473 59.9393 53.5398 59.3538C53.7938 59.1385 54.0652 58.942 54.3125 58.7187C54.8927 58.196 54.9556 57.7121 54.4583 57.0985C53.8019 56.2883 53.0639 55.5423 52.4342 54.7135C51.6883 53.7322 50.8902 52.755 50.3541 51.6601C49.818 50.5652 49.5519 49.3058 48.056 48.6989C48.548 48.4529 48.818 48.2644 49.1175 48.1789C49.9918 47.9302 50.8888 47.7564 51.7564 47.489C52.3661 47.3019 52.9957 47.088 53.5225 46.7457C54.4663 46.1321 54.8446 44.9035 54.4422 44.0372C54.3751 44.1271 54.3203 44.2256 54.2791 44.33C53.9676 45.7297 53.477 45.8741 52.0893 45.9516C51.8019 45.9677 51.5118 45.9276 51.223 45.9195C50.1335 45.8901 49.0426 45.8193 47.9544 45.846C46.8448 45.8741 45.8341 46.2899 45.1363 47.1535C44.7352 47.6548 44.2833 47.8874 43.7165 47.8125C42.4732 47.6495 41.2406 47.4115 40.0027 47.2043L40 39.8876Z" fill="#9CB8E2"/>
<path d="M174.492 64.5891C172.814 64.5891 171.235 64.5744 169.656 64.5971C169.122 64.6038 169.171 64.2762 169.173 63.9393C169.173 62.299 169.189 60.6587 169.173 59.0197C169.162 57.2242 169.16 55.4288 169.099 53.6347C169.024 51.4302 167.868 50.1883 165.661 49.9971C164.865 49.9275 164.062 49.9889 163.286 50.1789C161.503 50.6294 160.488 52.1976 160.469 54.4369C160.443 57.5397 160.46 60.6426 160.457 63.7455V64.5342H155.11V39H158.978C160.448 39 160.448 39 160.448 40.4572V47.6014C160.679 47.4811 160.832 47.4183 160.968 47.3341C164.023 45.3622 167.294 45.1175 170.667 46.2779C173.012 47.0801 174.041 49.0025 174.342 51.3112C174.519 52.6655 174.511 54.0478 174.523 55.4181C174.548 58.1881 174.532 60.9595 174.523 63.7295C174.529 63.9861 174.507 64.2468 174.492 64.5891Z" fill="#9CB8E2"/>
<path d="M192.743 47.9717C192.846 47.461 192.889 47.0439 193.025 46.6589C193.095 46.4624 193.33 46.187 193.497 46.183C194.968 46.1455 196.43 46.1602 197.957 46.1602V64.5903C196.442 64.5903 194.936 64.6037 193.43 64.5689C193.287 64.5689 193.087 64.2855 193.029 64.097C192.91 63.6694 192.813 63.2356 192.74 62.7976C190.024 65.0609 186.974 65.3671 183.753 64.6946C181.582 64.2414 179.701 63.2388 178.33 61.4393C175.559 57.8017 175.885 51.8874 178.865 48.6334C181.793 45.4183 189.255 44.4878 192.743 47.9717ZM187.194 60.7361C187.774 60.6626 188.215 60.6185 188.652 60.5476C190.904 60.1827 192.309 58.918 192.822 56.8044C193.366 54.5651 192.595 52.3112 190.841 51.0692C189.544 50.1508 188.087 49.9596 186.528 50.0813C183.938 50.2831 182.037 52.0024 181.729 54.5183C181.378 57.3632 182.729 59.6118 185.297 60.3805C185.948 60.5744 186.64 60.6359 187.194 60.7361Z" fill="#9CB8E2"/>
<path d="M239.969 57.2939H224.06C224.011 58.2939 224.499 58.953 225.162 59.5024C226.139 60.3112 227.328 60.6174 228.554 60.7364C230.903 60.9636 233.086 60.6147 234.818 58.6669L238.943 60.8647C238.14 61.9275 237.263 62.8098 236.167 63.4636C233.662 64.9569 230.909 65.3713 228.075 65.0331C226.604 64.8588 225.164 64.4813 223.797 63.9114C220.476 62.5064 218.884 59.8046 218.689 56.302C218.627 55.0662 218.736 53.8278 219.011 52.6215C219.575 50.1189 221.103 48.2754 223.45 47.2192C227.388 45.4466 231.381 45.1752 235.334 47.1738C238.185 48.6136 239.685 51.0106 239.959 54.1536C240.044 55.1549 239.969 56.1709 239.969 57.2939ZM224.162 53.6844C224.274 53.7392 224.313 53.7753 224.352 53.7753L233.953 53.8114C234.317 53.8114 234.407 53.6402 234.316 53.298C234.19 52.8131 233.967 52.3593 233.659 51.9646C233.35 51.5699 232.964 51.2429 232.524 51.0039C230.268 49.7018 228.022 49.8823 225.84 51.159C224.893 51.7018 224.34 52.5681 224.163 53.6897L224.162 53.6844Z" fill="#9CB8E2"/>
<path d="M134.327 64.5946C133.36 64.5946 132.569 64.5946 131.778 64.5946C130.775 64.5946 129.772 64.5665 128.772 64.62C128.076 64.6561 127.592 64.3967 127.159 63.8847C125.784 62.2551 124.387 60.6455 122.993 59.0252C122.859 58.8608 122.699 58.707 122.497 58.4904C121.857 59.1803 121.235 59.8086 120.671 60.4851C120.525 60.6602 120.517 60.9824 120.513 61.2377C120.497 62.3192 120.506 63.4008 120.506 64.5344H115.159V39.166C115.357 39.1486 115.548 39.1165 115.739 39.1165C117.076 39.1165 118.413 39.1406 119.75 39.1018C120.323 39.0858 120.464 39.2956 120.46 39.8291C120.44 42.5549 120.45 45.2822 120.45 48.008C120.45 49.6925 120.45 51.377 120.45 53.0614C120.45 53.3168 120.482 53.5734 120.513 54.044C121.24 53.2419 121.835 52.5908 122.415 51.9318C123.942 50.1938 125.47 48.4666 126.981 46.718C127.115 46.543 127.289 46.4029 127.488 46.3098C127.688 46.2167 127.907 46.1732 128.127 46.1832C129.998 46.2073 131.86 46.1926 133.953 46.1926L125.953 54.7913L134.327 64.5946Z" fill="#9CB8E2"/>
<path d="M81.5848 45.742C84.5259 45.7928 87.3962 46.726 89.6581 49.1056C93.5123 53.163 92.8065 59.7163 88.1969 62.8941C84.1863 65.6561 78.2319 65.7135 74.22 62.9583C71.2976 60.9529 69.9767 58.0706 70.2735 54.6001C70.5944 50.8315 72.6933 48.2126 76.1664 46.7126C77.7961 46.0121 79.5273 45.7367 81.5848 45.742ZM75.5007 55.3461C75.5007 58.6295 77.7279 60.7845 81.0982 60.7738C84.4684 60.7631 86.7959 58.5867 86.7906 55.413C86.7906 52.2045 84.6008 50.0013 81.3014 50.0254C77.4057 50.0548 75.5341 52.4531 75.5007 55.3461Z" fill="#9CB8E2"/>
<path d="M216.975 48.4501L214.273 51.672C213.184 51.2522 212.144 50.811 211.075 50.4528C209.768 49.9895 208.355 49.9129 207.006 50.2322C206.252 50.4167 205.856 50.8565 205.851 51.4915C205.851 52.1599 206.172 52.5931 206.978 52.7535C208.827 53.1185 210.69 53.4099 212.541 53.7642C213.26 53.8943 213.968 54.0821 214.657 54.3257C216.615 55.0449 217.544 56.5435 217.638 58.5542C217.805 62.145 215.935 64.3027 212.101 64.8228C209.371 65.1971 206.645 65.0902 203.999 64.1931C202.59 63.7208 201.264 63.0268 200.073 62.137C200.934 61.0769 201.76 60.0368 202.622 59.0288C202.719 58.9152 203.074 58.8951 203.228 58.974C204.768 59.8068 206.388 60.4191 208.129 60.5889C209.065 60.6798 210.029 60.5662 210.976 60.4993C211.224 60.482 211.482 60.3269 211.697 60.1785C212.21 59.8242 212.423 59.2708 212.221 58.7226C212.087 58.367 211.705 57.9352 211.36 57.8564C210.198 57.589 208.995 57.5007 207.821 57.2708C206.477 57.0034 205.1 56.7962 203.82 56.335C201.356 55.4406 200.409 53.8217 200.478 51.0584C200.515 50.0057 200.89 48.9929 201.548 48.1701C202.205 47.3473 203.11 46.7583 204.129 46.4903C205.656 46.0785 207.273 45.9328 208.86 45.8312C211.474 45.6561 214.819 46.7884 216.975 48.4501Z" fill="#9CB8E2"/>
<path d="M153.174 61.6829C152.528 62.5921 151.655 63.3165 150.642 63.7845C146.197 65.7724 141.787 65.7203 137.695 62.9957C131.902 59.1389 132.442 50.5294 138.618 47.2206C142.122 45.349 145.795 45.2849 149.526 46.5268C149.59 46.5473 149.651 46.5733 149.71 46.6043C149.77 46.6519 149.826 46.7042 149.878 46.7608L147.777 49.2794L146.007 48.3302C145.874 48.8957 145.899 49.5201 145.606 49.8235C145.328 50.1029 144.63 49.9225 144.241 50.1524C143.303 50.7313 142.397 51.3591 141.525 52.0334C141.443 52.1078 141.376 52.1983 141.33 52.2992C141.285 52.4001 141.26 52.5094 141.257 52.6203C141.265 53.3836 140.842 53.8301 140.255 54.2245C139.759 54.5574 139.311 54.9611 138.839 55.3314C138.491 55.5988 138.396 55.9571 138.598 56.3328C139.187 57.4196 139.761 58.5185 140.437 59.5506C140.597 59.7966 141.141 59.9209 141.491 59.8915C142.586 59.8033 143.63 59.6937 144.752 60.0051C145.323 60.1629 145.983 60.2525 146.606 60.3594C146.915 60.4116 147.311 60.2739 147.593 60.1027C147.843 59.935 148.132 59.8345 148.432 59.8111C148.732 59.7877 149.033 59.8421 149.305 59.969C150.563 60.5185 151.817 61.0827 153.174 61.6829Z" fill="#9CB8E2"/>
<path d="M110.904 47.4466C109.676 48.4733 108.516 49.4666 107.319 50.4158C107.162 50.5414 106.811 50.504 106.576 50.4425C105.171 50.0682 103.781 50.012 102.38 50.4719C100.338 51.1403 99.2154 52.5534 99.0469 54.6603C98.9759 55.4973 99.0322 56.3402 99.214 57.1603C99.6726 59.1429 101.253 60.3915 103.342 60.6789C105.131 60.9262 106.79 60.699 108.313 59.6803C108.513 59.5466 108.858 59.4276 109.048 59.5078C110.473 60.1121 111.874 60.7672 113.497 61.5038C112.674 62.2123 112.037 62.9008 111.271 63.3901C108.914 64.8994 106.258 65.2898 103.532 65.0411C102.185 64.9218 100.861 64.6107 99.6017 64.1174C95.5189 62.485 93.5537 59.1602 93.6567 55.2245C93.7663 50.9879 96.3505 47.7046 100.407 46.468C103.666 45.476 106.893 45.6217 110.044 46.964C110.227 47.0428 110.405 47.1351 110.579 47.2313C110.659 47.2688 110.727 47.3263 110.904 47.4466Z" fill="#9CB8E2"/>
<path d="M68.3965 39.1242V64.871H66.9433C65.8966 64.871 64.8498 64.8416 63.8057 64.883C63.2375 64.9057 63.0932 64.7025 63.0945 64.1624C63.1119 59.4419 63.1052 54.7215 63.1052 50.0023C63.1052 46.6334 63.1159 43.2645 63.0945 39.8969C63.0945 39.3087 63.2282 39.0948 63.8685 39.1095C65.3538 39.1576 66.8444 39.1242 68.3965 39.1242Z" fill="#9CB8E2"/>
</g>
<defs>
<clipPath id="clip0_109:22565">
<rect width="200" height="26.1719" fill="white" transform="translate(40 39)"/>
</clipPath>
</defs>
</svg>
