<svg width="280" height="104" viewBox="0 0 280 104" fill="none" xmlns="http://www.w3.org/2000/svg">
<path d="M68.2896 60.9831C68.5506 60.9752 68.8354 60.9357 69.169 60.8088C69.833 60.5562 70.7865 60.5868 71.1601 60.5988C71.215 60.6005 71.2574 60.6019 71.2845 60.6019C71.3206 60.6019 71.3692 60.6091 71.4275 60.6178C71.7105 60.6602 72.2247 60.737 72.6807 60.188C73.1539 59.6183 74.0343 58.9567 74.4057 58.6776C74.466 58.6323 74.5129 58.597 74.5424 58.5739C74.754 58.4084 74.9655 58.16 75.1347 57.4979C75.6143 57.5255 76.7849 57.5061 77.6311 57.2082C78.6888 56.8357 80.3389 56.2563 81.6929 56.3804C82.0964 56.4174 82.575 56.4802 83.0661 56.5445C84.2229 56.6961 85.4487 56.8568 85.9239 56.7115C86.4655 56.546 87.3625 56.3114 87.7433 56.2149C87.7433 56.6149 87.8364 57.5558 88.2087 58.1187C88.6741 58.8222 88.9703 59.4844 88.801 59.9811C88.6882 60.3122 88.3873 60.5697 88.1868 60.7414C88.0865 60.8272 88.0112 60.8916 87.9971 60.933C87.9548 61.0571 88.928 61.0157 88.9703 60.9744C89.0126 60.933 88.6741 61.4296 88.2087 61.5124C87.8364 61.5786 87.4048 61.54 87.2356 61.5124C86.9817 61.9676 86.4655 62.9278 86.4317 63.1265C86.3978 63.3251 86.4176 64.3129 86.4317 64.7819H87.4471C87.842 64.4508 88.6656 63.7555 88.801 63.6231C88.9703 63.4576 91.1281 61.2227 91.1704 60.9744C91.1745 60.9505 91.1797 60.9226 91.1856 60.8911C91.2409 60.5945 91.3536 59.9907 91.0858 59.6914C90.7896 59.3603 90.2819 58.367 90.2819 57.4979V55.7596C90.3806 55.6079 90.5696 55.2547 90.5358 55.056C90.8461 54.7525 91.4835 54.0959 91.5512 53.8972C91.6189 53.6986 91.8051 53.2902 91.8897 53.1109C92.0166 53.373 92.2959 53.8807 92.3974 53.8144C92.4878 53.7555 92.9638 52.963 93.3071 52.3915C93.4462 52.16 93.5634 51.9647 93.6244 51.8693C93.836 51.5382 94.3014 51.414 94.6822 51.6623C95.063 51.9106 96.1631 53.5247 96.3323 53.8144C96.4677 54.0462 96.5016 54.3249 96.5016 54.4352C96.5457 54.5216 96.3826 54.6868 96.2345 54.8368C96.0987 54.9744 95.9754 55.0992 96.0361 55.1388C96.1377 55.205 96.3887 55.2216 96.5016 55.2216C96.5835 55.6223 96.2688 55.8678 96.0567 56.0333C96.0497 56.0387 96.0429 56.0441 96.0361 56.0493C95.9348 56.1286 95.7559 56.1509 95.5597 56.1754C95.3462 56.202 95.1124 56.2312 94.9361 56.339C94.5976 56.546 94.3014 57.4151 94.3014 57.7876C94.3014 57.8865 94.2895 58.0874 94.2751 58.3293C94.2354 58.9986 94.1771 59.9811 94.3014 59.9811C94.4707 59.9811 95.1053 59.6914 95.5284 59.4017C95.8668 59.1699 96.2618 58.6153 96.4169 58.367C96.4169 58.5877 96.4508 58.9795 96.5862 58.7809C96.6063 58.7513 96.627 58.7195 96.6487 58.6861C96.8099 58.4383 97.0273 58.1039 97.4747 57.9945C97.9824 57.8703 98.7017 56.9598 98.8709 56.5046C99.0402 56.0493 98.4478 54.8905 98.194 54.4352C98.0398 54.1587 98.1041 53.4851 98.1595 52.906C98.1952 52.5319 98.2272 52.1973 98.194 52.0348C98.1617 51.8767 98.1355 51.6401 98.1037 51.3527C98.0523 50.8877 97.9862 50.2896 97.8555 49.6758C97.7071 48.9791 97.3298 48.995 96.9862 49.0095C96.84 49.0157 96.6999 49.0216 96.5862 48.9722C96.2815 48.8397 95.8614 48.917 95.6895 48.9722C95.7807 48.8805 95.8698 48.7938 95.9554 48.7105C96.3261 48.35 96.6315 48.0529 96.7554 47.6892C96.9247 47.1925 97.6439 46.0751 98.0671 45.744C98.4055 45.4791 99.0543 45.2474 99.3364 45.1646C99.6184 45.3577 100.191 45.802 100.225 46.0337C100.237 46.1184 100.34 46.3231 100.476 46.5943C100.805 47.2514 101.33 48.2984 101.24 48.9722C101.113 49.9241 103.398 51.0001 104.075 50.3379C104.298 50.1202 104.53 50.0232 104.743 49.9338C105.18 49.7514 105.542 49.6002 105.598 48.5169C105.645 47.6203 105.862 47.3495 106.089 47.0659C106.271 46.839 106.459 46.604 106.571 46.0337C106.529 45.7578 106.563 45.0156 107.037 44.2541C107.511 43.4926 107.319 42.7228 107.164 42.4331C107.418 42.6814 108.061 43.1366 108.602 42.9711C109.279 42.7642 109.829 42.4331 109.956 41.9778C109.632 42.0468 108.907 42.1434 108.602 41.9778C108.298 41.8123 107.827 41.6605 107.629 41.6053C107.474 41.3294 107.088 40.7776 106.783 40.7776C106.684 40.6948 106.504 40.4879 106.571 40.3223C106.615 40.215 106.819 40.3081 107.169 40.4688C107.495 40.6179 107.948 40.8252 108.518 40.9845C109.702 41.3156 110.718 41.2329 111.31 40.6534C111.903 40.074 112.072 39.0669 112.072 38.5841C111.719 39.1635 110.879 40.3223 110.337 40.3223C109.66 40.3223 108.772 39.9085 108.095 38.8738C107.553 38.0461 105.951 38.115 105.218 38.253C104.519 37.4792 103.084 35.9881 102.071 35.2295L100.62 38.1505C100.229 38.9381 99.1095 39.0212 98.6001 38.3004L98.5602 38.244C98.4869 38.1402 98.3271 38.1472 98.2636 38.2569C97.8355 38.9972 96.7422 39.0038 96.3048 38.2688L95.6785 37.2166C95.3054 36.5896 94.3526 36.6608 94.0822 37.3358L91.8927 42.8026C91.6038 43.5239 90.6037 43.6383 90.1507 43.0018C90.1441 42.9925 90.1388 42.9895 90.1352 42.988C90.1303 42.9859 90.1229 42.9843 90.1139 42.985C90.1049 42.9858 90.0979 42.9887 90.0935 42.9916C90.0903 42.9938 90.0856 42.9976 90.0808 43.0079L89.0415 45.2319C88.4991 46.3928 86.7987 46.3775 86.2784 45.2071C86.0818 44.7649 85.4348 44.7718 85.2482 45.218L83.6107 49.1341C83.3479 49.7625 82.498 49.8931 82.0475 49.3865L81.2847 51.0931C80.5917 52.6437 78.3749 52.7557 77.5205 51.2833L76.0562 48.76C75.8182 48.3499 75.1968 48.395 75.0239 48.8348L74.4777 50.2244C74.2937 50.6926 73.7248 50.8285 73.3407 50.5786L71.619 54.4571C71.4264 54.8911 70.8987 55.0161 70.5275 54.7959L68.2896 60.9831Z" fill="#9CB8E2"/>
<path d="M67.2807 60.98L69.7292 54.2106C69.9009 53.7358 70.4701 53.5897 70.8575 53.8347L72.5771 49.9608C72.7738 49.5178 73.3173 49.3946 73.6916 49.6293L74.134 48.5038C74.5949 47.3312 76.2515 47.2112 76.8859 48.3044L78.3502 50.8277C78.818 51.6338 80.0315 51.5724 80.4109 50.7236L81.1886 48.9837C81.4626 48.3706 82.2981 48.2517 82.7426 48.7504L84.3657 44.8688C84.8706 43.6615 86.6211 43.6429 87.1529 44.8392C87.3452 45.2718 87.9737 45.2775 88.1742 44.8484L89.2134 42.6244C89.5325 41.9414 90.4951 41.8575 90.9341 42.4742C90.9412 42.4842 90.9466 42.487 90.95 42.4884C90.9549 42.4904 90.9625 42.492 90.972 42.4909C90.9815 42.4898 90.9886 42.4866 90.9929 42.4835C90.9957 42.4814 91.0004 42.4774 91.0049 42.4661L93.1945 36.9993C93.7548 35.6003 95.7298 35.4528 96.5031 36.7522L97.1293 37.8044C97.1972 37.9184 97.3668 37.9174 97.4332 37.8025C97.8424 37.0949 98.8725 37.0499 99.3453 37.7189L99.3852 37.7753C99.4804 37.9099 99.6895 37.8944 99.7626 37.7473L101.256 34.741C101.193 34.7094 101.128 34.6768 101.062 34.6434C99.8641 34.0399 98.1133 33.1577 96.1631 33.121C95.2579 33.104 94.6033 33.1781 94.061 33.2394C93.2851 33.3272 92.7388 33.389 92.0166 33.121C90.7896 32.6658 89.0972 33.6177 88.6318 33.9488C88.1664 34.2799 85.4162 35.1076 84.3584 35.1904C83.3007 35.2732 81.4813 36.8045 81.2275 37.3425C80.9736 37.8805 80.0851 39.3704 79.662 39.7015C79.5615 39.7802 79.3178 40.0713 78.983 40.4711C77.9084 41.7548 75.8953 44.1594 74.6693 44.2541C74.2394 44.2873 73.7581 44.3678 73.2633 44.4506C71.9078 44.6775 70.4516 44.9211 69.6767 44.2541C69.6254 44.2099 69.5757 44.167 69.5276 44.1254C68.5833 43.3089 68.2065 42.9831 66.7573 43.2194C65.2341 43.4677 62.7378 41.4398 62.7801 39.7015C62.8224 37.9633 63.6686 36.5975 64.4725 36.2664C65.3751 36.5423 67.3242 36.8955 67.8996 36.1009C68.4751 35.3063 68.3087 34.1695 68.1535 33.7005C67.9984 34.2661 67.5189 35.2732 66.8419 34.7765C65.9957 34.1557 64.5677 34.4454 64.0917 35.7284C63.5699 36.2113 62.467 37.4667 62.23 38.6255C61.9339 40.074 62.3147 41.7709 63.6263 43.0125C64.2173 43.572 65.0833 43.9213 65.8602 44.2348C66.8075 44.617 67.6225 44.9459 67.6458 45.5371C67.6881 46.6131 67.5612 47.1512 66.8419 47.9789C66.6855 48.1589 66.5171 48.3154 66.3506 48.4701C65.7514 49.0269 65.1771 49.5607 65.2764 51.0829C65.3378 52.0245 65.5083 53.2085 65.6583 54.25C65.7294 54.7437 65.7959 55.2054 65.844 55.5941C65.3727 56.0355 64.3202 56.935 63.8801 57.0012C63.8189 57.0104 63.7508 57.0197 63.6776 57.0296C63.0939 57.1086 62.1876 57.2313 61.8492 57.7462C61.7303 57.9272 61.6071 58.181 61.4695 58.4647C61.1668 59.0886 60.7941 59.8569 60.2414 60.3122C59.4375 60.9744 56.8566 62.6298 56.2643 62.7954C55.6719 62.9609 55.1642 63.4576 55.0373 63.9542C54.9103 64.4508 54.1487 65.0303 53.8949 65.113C53.641 65.1958 53.0487 66.8513 53.0063 67.3893C52.964 67.9273 53.1333 68.7137 53.5141 68.7551C53.8949 68.7965 54.4872 68.7137 54.868 68.5067C55.1726 68.3412 55.4663 68.1343 55.575 68.0515C55.5465 68.53 55.5588 70.0607 55.6719 70.245C55.7013 70.293 55.7239 70.3431 55.745 70.3899C55.8147 70.5448 55.8675 70.6619 56.095 70.5347C56.3912 70.3692 56.4758 70.7003 56.4758 70.8244C56.4758 70.9486 56.5604 71.0727 56.8566 70.9486C57.1528 70.8244 58.4221 69.6242 58.5913 69.2931C58.7042 69.0724 58.7042 68.7781 58.7042 68.5573C58.7042 68.447 58.7042 68.355 58.7183 68.2998C58.7606 68.1343 59.1837 67.679 59.3106 67.679C59.4375 67.679 59.8183 67.6376 59.9453 67.141C60.0722 66.6443 60.3261 65.7338 60.7492 65.1958C61.1723 64.6578 62.907 62.9609 63.8801 62.7954C64.8171 62.636 64.9696 62.4766 65.5462 61.8738C65.5684 61.8506 65.5913 61.8267 65.6149 61.8021C66.223 61.1676 66.7535 61.0271 67.2807 60.98Z" fill="#9CB8E2"/>
<path d="M121.399 60.575V42.4546H128.787C130.691 42.4546 132.158 42.8744 133.189 43.714C134.237 44.5365 134.761 45.6931 134.761 47.1839C134.761 48.1777 134.499 49.0259 133.975 49.7284C133.451 50.431 132.726 50.945 131.8 51.2706C132.866 51.5447 133.695 52.0502 134.289 52.787C134.9 53.5239 135.206 54.4577 135.206 55.5886C135.206 57.1993 134.673 58.4331 133.608 59.2898C132.543 60.1466 131.04 60.575 129.102 60.575H121.399ZM123.495 50.5509H128.473C131.25 50.5509 132.639 49.4885 132.639 47.3638C132.639 45.2219 131.25 44.1509 128.473 44.1509H123.495V50.5509ZM123.495 58.8786H128.892C131.687 58.8786 133.084 57.7734 133.084 55.5629C133.084 53.3525 131.687 52.2473 128.892 52.2473H123.495V58.8786Z" fill="#9CB8E2"/>
<path d="M142.798 60.8063C139.742 60.8063 138.213 59.1527 138.213 55.8457V48.0835H140.335V55.82C140.335 56.9337 140.563 57.7562 141.017 58.2874C141.488 58.8186 142.222 59.0842 143.217 59.0842C144.3 59.0842 145.182 58.7329 145.864 58.0304C146.545 57.3107 146.885 56.3597 146.885 55.1774V48.0835H149.007V60.575H146.938V58.4673C146.536 59.2213 145.968 59.8039 145.235 60.2151C144.519 60.6092 143.706 60.8063 142.798 60.8063Z" fill="#9CB8E2"/>
<path d="M156.358 60.8063C155.065 60.8063 154.087 60.4379 153.423 59.7011C152.777 58.9471 152.454 57.859 152.454 56.4368V42.4546H154.576V56.2826C154.576 58.1161 155.318 59.0328 156.803 59.0328C157.24 59.0328 157.633 58.9814 157.982 58.8786L157.93 60.6264C157.388 60.7463 156.864 60.8063 156.358 60.8063Z" fill="#9CB8E2"/>
<path d="M163.586 60.8063C162.293 60.8063 161.315 60.4379 160.652 59.7011C160.005 58.9471 159.682 57.859 159.682 56.4368V42.4546H161.804V56.2826C161.804 58.1161 162.547 59.0328 164.031 59.0328C164.468 59.0328 164.861 58.9814 165.21 58.8786L165.158 60.6264C164.616 60.7463 164.092 60.8063 163.586 60.8063Z" fill="#9CB8E2"/>
<path d="M167.811 60.6824V42.562H175.12C177.112 42.562 178.631 43.0332 179.679 43.9756C180.745 44.9181 181.277 46.2632 181.277 48.011C181.277 49.7416 180.745 51.0867 179.679 52.0463C178.631 52.9887 177.112 53.4599 175.12 53.4599H169.959V60.6824H167.811ZM169.959 51.6864H174.858C177.723 51.6864 179.155 50.4613 179.155 48.011C179.155 45.5435 177.723 44.3098 174.858 44.3098H169.959V51.6864Z" fill="#9CB8E2"/>
<path d="M188.727 60.9136C186.718 60.9136 185.129 60.3396 183.959 59.1915C182.789 58.0263 182.203 56.4499 182.203 54.4622C182.203 53.1771 182.465 52.0462 182.989 51.0695C183.513 50.0756 184.23 49.3131 185.138 48.7819C186.063 48.2336 187.129 47.9595 188.334 47.9595C190.063 47.9595 191.417 48.5078 192.395 49.6044C193.373 50.6839 193.862 52.1747 193.862 54.0767V54.8735H184.273C184.343 56.2957 184.762 57.3838 185.531 58.1377C186.299 58.8745 187.365 59.2429 188.727 59.2429C189.496 59.2429 190.229 59.1316 190.928 58.9088C191.626 58.6689 192.29 58.2834 192.919 57.7522L193.653 59.2172C193.076 59.7484 192.343 60.1682 191.452 60.4767C190.561 60.768 189.653 60.9136 188.727 60.9136ZM188.386 49.5016C187.181 49.5016 186.229 49.87 185.531 50.6068C184.832 51.3436 184.422 52.3118 184.299 53.5112H192.028C191.976 52.2432 191.635 51.258 191.006 50.5554C190.395 49.8529 189.522 49.5016 188.386 49.5016Z" fill="#9CB8E2"/>
<path d="M196.409 60.6821V48.1906H198.479V50.4267C199.16 48.9188 200.558 48.0878 202.671 47.9336L203.431 47.8564L203.588 49.6556L202.252 49.8098C201.047 49.9127 200.13 50.2896 199.501 50.9408C198.872 51.5748 198.558 52.4487 198.558 53.5624V60.6821H196.409Z" fill="#9CB8E2"/>
<path d="M205.275 60.6824V42.562H207.397V53.7427H207.45L213.345 48.1909H216.043L209.651 54.2053L216.593 60.6824H213.895L207.45 54.8222H207.397V60.6824H205.275Z" fill="#9CB8E2"/>
<path d="M221.917 60.9136C220.922 60.9136 219.979 60.7765 219.088 60.5024C218.197 60.2282 217.463 59.8427 216.887 59.3457L217.568 57.8807C218.197 58.3776 218.887 58.746 219.638 58.9859C220.407 59.2087 221.184 59.32 221.97 59.32C222.965 59.32 223.716 59.1401 224.223 58.7803C224.729 58.4204 224.983 57.9321 224.983 57.3152C224.983 56.8354 224.817 56.4585 224.485 56.1843C224.153 55.893 223.629 55.6703 222.913 55.516L220.529 55.002C218.363 54.5393 217.28 53.4427 217.28 51.712C217.28 50.5811 217.734 49.673 218.642 48.9876C219.568 48.3022 220.773 47.9595 222.258 47.9595C223.131 47.9595 223.961 48.0965 224.747 48.3707C225.55 48.6277 226.214 49.0133 226.738 49.5273L226.031 50.9924C225.524 50.5297 224.93 50.1784 224.249 49.9386C223.585 49.6815 222.922 49.553 222.258 49.553C221.28 49.553 220.537 49.7415 220.031 50.1185C219.524 50.4955 219.271 50.9924 219.271 51.6092C219.271 52.5688 219.917 53.1857 221.21 53.4598L223.594 53.9482C224.712 54.1881 225.559 54.5736 226.135 55.1048C226.712 55.6189 227 56.3214 227 57.2124C227 58.3605 226.537 59.2686 225.611 59.9369C224.686 60.588 223.454 60.9136 221.917 60.9136Z" fill="#9CB8E2"/>
</svg>
