<svg width="160" height="235" viewBox="0 0 160 235" fill="none" xmlns="http://www.w3.org/2000/svg">
<rect width="160" height="235" rx="10" fill="url(#paint0_linear)"/>
<rect x="10" y="190" width="140" height="35.2518" rx="4" fill="white"/>
<path d="M43.9445 212H47.7945C49.2025 212 50.2035 211.153 50.2035 209.943C50.2035 209.118 49.6865 208.425 48.8175 208.007C49.4885 207.644 49.8845 207.105 49.8845 206.335C49.8845 205.235 48.9605 204.443 47.6515 204.443H43.9445V212ZM45.3085 207.534V205.631H47.3215C47.9925 205.631 48.4765 206.027 48.4765 206.588C48.4765 207.138 47.9925 207.534 47.3215 207.534H45.3085ZM45.3085 210.812V208.656H47.5195C48.2675 208.656 48.7955 209.107 48.7955 209.734C48.7955 210.361 48.2675 210.812 47.5195 210.812H45.3085ZM55.2891 206.313V209.91C55.2011 210.515 54.6181 210.988 53.9141 210.988C53.2101 210.988 52.7151 210.438 52.7151 209.668V206.313H51.4171V209.932C51.4171 211.219 52.2861 212.132 53.5291 212.132C54.2771 212.132 54.9371 211.769 55.2891 211.241V212H56.6311V206.313H55.2891ZM59.265 213.98C60.123 213.969 60.783 213.474 61.212 212.396L63.621 206.313H62.235L60.673 210.559L59.012 206.313H57.593L60.002 212.044L59.76 212.55C59.595 212.825 59.353 212.924 59.034 212.924C58.825 212.924 58.55 212.847 58.308 212.715L58.022 213.683C58.363 213.87 58.836 213.98 59.265 213.98ZM67.9532 212H69.3282V206.951L71.8142 211.56L74.3112 206.951V212H75.6752V204.443H74.3112L71.8142 209.052L69.3282 204.443H67.9532V212ZM83.1033 204.443L80.7053 210.174L78.3073 204.443H76.7893L79.9463 212H81.4753L84.6323 204.443H83.1033ZM85.7206 212H87.0956V209.844L88.1186 208.744L90.6156 212H92.3096L89.0646 207.776L92.0896 204.443H90.4066L87.0956 208.139V204.443H85.7206V212ZM96.3878 212H97.7628V206.687L101.756 212H103.12V204.443H101.756V209.756L97.7628 204.443H96.3878V212ZM107.492 212.132C109.142 212.132 110.539 210.768 110.539 209.151C110.539 207.534 109.142 206.181 107.492 206.181C105.842 206.181 104.445 207.534 104.445 209.151C104.445 210.768 105.842 212.132 107.492 212.132ZM107.492 210.988C106.546 210.988 105.754 210.152 105.754 209.151C105.754 208.161 106.546 207.325 107.492 207.325C108.427 207.325 109.219 208.161 109.219 209.151C109.219 210.152 108.427 210.988 107.492 210.988ZM112.897 212H114.118L115.328 208.106L116.549 212H117.77L119.684 206.313H118.342L117.165 210.196L115.889 206.313H114.767L113.502 210.196L112.314 206.313H110.972L112.897 212Z" fill="#7E8794"/>
<path d="M59.885 87.5026L45.1328 77.4176C51.4455 72.4187 63.1477 65.7902 73.2009 65.2622" fill="#88D1C3"/>
<path d="M106.471 101.348C123.491 91.8881 133.331 77.6194 128.448 69.4783C123.566 61.3372 105.811 62.4067 88.7915 71.867C71.7719 81.3273 61.9325 95.5961 66.8145 103.737C71.6967 111.878 89.4516 110.809 106.471 101.348Z" fill="#7996C9"/>
<path d="M41.6098 101.546C37.5261 103.825 33.1506 110.219 32.0261 114.644C36.5634 115.916 44.5136 115.468 48.5972 113.196C49.4064 112.762 50.1177 112.177 50.69 111.476C51.262 110.774 51.6835 109.97 51.93 109.11C52.1765 108.251 52.2428 107.352 52.1253 106.468C52.0078 105.583 51.7086 104.729 51.2453 103.957C50.782 103.185 50.1641 102.508 49.4267 101.968C48.6896 101.428 47.8483 101.034 46.9516 100.81C46.055 100.586 45.1209 100.535 44.2037 100.662C43.2868 100.788 42.4049 101.089 41.6098 101.546Z" fill="#FF8080"/>
<path d="M101.005 92.2277C118.025 82.7674 127.864 68.4986 122.982 60.3576C118.1 52.2165 100.345 53.2857 83.3256 62.746C66.3059 72.2063 56.4663 86.4751 61.3485 94.6162C66.2307 102.757 83.9856 101.688 101.005 92.2277Z" fill="white"/>
<path d="M95.2253 89.9386C110.42 81.4926 119.779 69.7118 116.13 63.6256C112.48 57.5393 97.203 59.4521 82.008 67.898C66.8132 76.344 57.4541 88.1248 61.104 94.2111C64.7539 100.297 80.0306 98.3846 95.2253 89.9386Z" fill="#88D1C3"/>
<path d="M118.68 77.9534L123.573 86.1051C123.573 86.1051 125.806 84.4186 126.587 82.8915C127.368 81.3644 130.789 75.3628 128.256 71.002C125.723 66.6415 124.665 65.3044 123.916 67.7773C123.166 70.25 118.68 77.9534 118.68 77.9534Z" fill="white"/>
<path d="M80.7881 99.5514C75.4655 100.425 73.1062 100.228 69.7406 99.445C66.3752 98.6627 66.7462 99.9047 64.876 102.15C63.0057 104.394 57.6597 121.621 57.6597 121.621C57.6597 121.621 64.8287 122.293 72.9209 117.796C81.0128 113.298 100.318 100.387 100.109 96.1443C99.9 91.9013 98.3059 95.2059 93.1373 96.6113C87.9689 98.0169 80.7881 99.5514 80.7881 99.5514Z" fill="#88D1C3"/>
<path d="M46.9995 77.8543C55.4231 73.5087 64.9119 69.4557 70.3053 70.6182C70.3053 70.6182 73.1422 65.756 72.211 65.3268C71.28 64.8975 51.7577 72.6238 47.9976 75.2865C44.2376 77.9494 46.9995 77.8543 46.9995 77.8543Z" fill="white"/>
<path d="M68.5017 86.1232C63.199 87.5136 58.6892 89.1621 55.4342 90.7879C52.1793 92.4137 50.8812 93.0327 51.0666 94.5143C51.2519 95.9956 55.0712 104.725 56.9295 105.727C58.7878 106.73 61.6641 105.268 62.6781 102.909C63.6922 100.55 63.6922 99.3041 66.8604 95.7524C70.0286 92.2008 75.6666 85.7283 68.5017 86.1232Z" fill="#88D1C3"/>
<path d="M52.0771 96.2351C57.5607 93.0924 63.4992 90.7523 69.6976 89.2915L67.6854 92.9835L53.395 100.923L52.0771 96.2351Z" fill="white"/>
<path d="M59.4316 119.581C65.1133 117.511 81.5263 111.422 91.9897 98.2257C91.9897 98.2257 99.2454 93.4852 100.334 93.5878C101.423 93.6904 93.7692 105.606 83.0216 111.502C72.2743 117.397 57.7352 123.889 59.4316 119.581Z" fill="white"/>
<path d="M108.146 66.1775C113.812 75.6245 78.2828 95.3729 72.6367 85.9298C70.1287 81.4096 69.5439 76.1278 71.0053 71.2001C72.4668 66.2724 75.8604 62.0844 80.4693 59.5207C85.0784 56.9568 90.5419 56.2181 95.7061 57.4601C100.87 58.7024 105.331 61.8281 108.146 66.1775Z" fill="#88D1C3"/>
<path fill-rule="evenodd" clip-rule="evenodd" d="M125.751 63.3702L123.696 59.9517C119.873 53.7069 109.63 52.0581 96.8664 55.6023C92.4033 54.2627 87.6139 54.3205 83.187 55.7675C78.7601 57.2145 74.9241 59.9761 72.2308 63.655C62.3671 64.4642 51.2923 70.5115 44.6717 75.5749C44.3865 75.7947 44.1579 76.0749 44.0039 76.3938C43.8497 76.7127 43.7746 77.0616 43.784 77.4134C43.7963 77.7723 43.8942 78.1239 44.0699 78.4406C44.2456 78.7573 44.4948 79.031 44.7978 79.2403L56.6738 87.3693C54.773 88.1828 52.9198 89.0957 51.1226 90.104C47.5716 92.0795 49.8127 99.365 52.535 103.912C54.5905 107.33 56.9302 109.796 59.1397 110.973L56.3543 119.922C56.2289 120.329 56.2144 120.759 56.312 121.173C56.4099 121.586 56.6168 121.968 56.9126 122.282C57.2084 122.596 57.5833 122.831 58.0011 122.964C58.419 123.098 58.8654 123.126 59.2975 123.045C65.3934 121.932 78.2359 117.947 88.9912 110.164V110.198C95.2089 108.72 101.174 106.39 106.703 103.277C124.781 93.2228 134.715 78.2756 129.283 69.2465L127.499 66.2722L125.751 63.3702ZM118.026 75.3126C121.786 69.8732 122.757 65.0415 120.756 61.7026C118.231 57.4976 111.121 56.1075 102.059 57.8395C105.198 59.6954 107.805 62.2785 109.642 65.3529C113.177 71.2483 105.085 79.2783 95.4934 84.5963C89.7015 87.8099 83.3018 90.089 78.3621 90.089C76.7682 90.1314 75.1861 89.81 73.7459 89.1507L67.4332 97.8872C74.9179 100.326 87.6301 97.7317 99.443 91.1639C107.429 86.7082 114.025 81.0979 118.026 75.3126ZM95.259 58.5935C90.45 57.3527 85.3261 58.0009 81.0135 60.3959C77.8632 62.1517 75.3101 64.7507 73.665 67.8767C72.0196 71.0029 71.3528 74.5219 71.7456 78.0058C71.7533 74.2949 73.032 70.6898 75.3836 67.7496C77.7354 64.8092 81.0288 62.6978 84.7533 61.7425C88.4779 60.7869 92.426 61.041 95.9855 62.465C99.5449 63.889 102.517 66.4033 104.442 69.6189C105.108 70.728 105.089 72.0081 104.58 73.3641C105.925 71.7801 107.843 68.9883 106.659 67.0131C104.169 62.8626 100.068 59.8341 95.259 58.5935ZM70.1476 67.294C62.6158 68.597 54.1052 72.9501 48.0531 77.3336L58.9582 84.7901C60.5799 80.4102 63.9494 75.7267 68.7668 71.2597C69.0929 69.8981 69.5554 68.5699 70.1476 67.294ZM69.1219 84.3797C69.2499 84.3664 69.3773 84.3505 69.5044 84.3343C69.5204 84.3321 69.5363 84.3301 69.5523 84.3282C69.6637 84.3142 69.7751 84.3001 69.8873 84.2885H69.8674C68.8217 81.8795 68.2465 79.3054 68.1711 76.6955C65.4959 79.6582 63.5115 82.663 62.3831 85.4548C64.5964 84.9259 66.8496 84.5666 69.1219 84.3797ZM55.5889 102.229C55.6914 102.407 55.7956 102.563 55.8992 102.717C55.9592 102.806 56.0189 102.896 56.0781 102.989H56.0624C57.2065 104.17 58.5244 104.033 59.5895 103.433L61.9567 102.107L62.8328 99.2965C63.1724 98.2221 63.685 97.2059 64.3518 96.2844L70.6645 87.5479C70.4953 87.5672 70.3264 87.589 70.1572 87.6105C69.9317 87.6393 69.7062 87.6681 69.4808 87.6921C65.2356 88.1288 60.8443 88.5811 52.9099 92.991C52.4956 93.5761 52.7719 97.5303 55.5889 102.229ZM60.139 119.459L60.1381 119.463H60.1221C60.1279 119.462 60.1335 119.46 60.139 119.459L65.9024 100.903C68.4773 101.759 71.1878 102.175 73.9117 102.134C81.0923 102.134 89.8395 99.8131 98.4289 95.498C89.4821 110.17 69.3911 117.422 60.139 119.459ZM95.3489 104.799C95.3457 104.802 95.3426 104.805 95.3394 104.808H95.3237C95.3322 104.805 95.3407 104.802 95.3489 104.799C96.7946 103.376 98.1335 101.856 99.3559 100.25L100.737 102.548C98.9383 103.395 97.1397 104.14 95.3489 104.799ZM102.903 101.492C103.6 101.135 104.296 100.764 104.99 100.379H104.974C105.352 100.168 105.72 99.9493 106.089 99.7294C106.278 99.6166 106.468 99.5036 106.659 99.3916L103.278 93.7508C102.583 95.2563 101.78 96.7132 100.875 98.1113L102.903 101.492ZM108.71 98.1232L108.715 98.1304H108.699C108.703 98.128 108.707 98.1256 108.71 98.1232L104.927 91.8136C106.158 91.031 107.35 90.2245 108.502 89.3939L112.269 95.6841C111.126 96.5223 109.94 97.3353 108.71 98.1232ZM114.186 94.1979L114.191 94.2066H114.175C114.179 94.2037 114.182 94.2008 114.186 94.1979L110.431 87.9389C111.615 87.0274 112.723 86.1006 113.781 85.147L117.509 91.3616C116.459 92.3234 115.346 93.2702 114.186 94.1979ZM119.26 89.6266L119.273 89.6484L119.257 89.6293L119.26 89.6266L115.572 83.4758C116.669 82.3932 117.675 81.2879 118.614 80.1748L122.26 86.2524C121.322 87.4269 120.32 88.5532 119.26 89.6266ZM123.785 84.1182L123.798 84.1404L123.782 84.1216L123.785 84.1182L120.208 78.1577C120.297 78.0367 120.389 77.9162 120.481 77.7957C120.637 77.5913 120.792 77.3873 120.934 77.1816C121.616 76.1869 122.239 75.1559 122.8 74.0934L126.193 79.7533C125.545 81.2825 124.739 82.745 123.785 84.1182ZM127.102 76.591L127.116 76.6157L127.101 76.5965L127.102 76.591L124.019 71.4269C124.384 70.4921 124.674 69.5322 124.887 68.5552L126.304 70.9177C127.246 72.5271 127.467 74.466 127.102 76.591Z" fill="#4F457C"/>
<path opacity="0.15" d="M98.8979 130.79C112.401 130.79 123.348 127.982 123.348 124.519C123.348 121.055 112.401 118.247 98.8979 118.247C85.3947 118.247 74.448 121.055 74.448 124.519C74.448 127.982 85.3947 130.79 98.8979 130.79Z" fill="black"/>
<path d="M138.025 54.7953C139.162 55.2016 140.112 55.9844 140.705 57.0033L140.697 57.011C141.305 58.013 141.524 59.19 141.317 60.3333C141.11 61.4766 140.49 62.5125 139.566 63.2577C138.641 64.0028 137.473 64.409 136.268 64.4044C135.062 64.3998 133.897 63.9849 132.979 63.2328L127.359 66.3325L125.643 63.4351L131.235 60.3309C131.007 59.1842 131.209 57.9963 131.807 56.9803C132.405 55.9643 133.359 55.1866 134.499 54.7861C135.638 54.3859 136.888 54.3891 138.025 54.7953Z" fill="#7996C9"/>
<path d="M26.4676 35.5615L26.5465 36.1438C26.9265 38.9469 29.1283 41.1513 31.928 41.5317L32.5096 41.6108L31.928 41.6898C29.1283 42.0702 26.9265 44.2747 26.5465 47.0779L26.4676 47.6601L26.3886 47.0779C26.0087 44.2747 23.8068 42.0702 21.0071 41.6898L20.4255 41.6108L21.0071 41.5317C23.8068 41.1513 26.0087 38.9469 26.3886 36.1438L26.4676 35.5615Z" fill="white"/>
<path d="M60.2359 37.6316L61.0431 43.586C61.3465 45.8235 63.1042 47.5833 65.339 47.887L71.2863 48.6949L65.339 49.5031C63.1042 49.8068 61.3465 51.5666 61.0431 53.8041L60.2359 59.7585L59.429 53.8041C59.1256 51.5666 57.3679 49.8068 55.1331 49.5031L49.1858 48.6949L55.1331 47.887C57.3679 47.5833 59.1256 45.8235 59.429 43.586L60.2359 37.6316Z" fill="white"/>
<path d="M141.103 95.0115L141.503 97.9594C141.653 99.0671 142.523 99.9382 143.63 100.088L146.574 100.489L143.63 100.889C142.523 101.039 141.653 101.91 141.503 103.018L141.103 105.966L140.704 103.018C140.554 101.91 139.683 101.039 138.577 100.889L135.633 100.489L138.577 100.088C139.683 99.9382 140.554 99.0671 140.704 97.9594L141.103 95.0115Z" fill="white"/>
<path d="M133.532 88.7951C134.6 88.7951 135.466 87.9284 135.466 86.8593C135.466 85.7903 134.6 84.9236 133.532 84.9236C132.465 84.9236 131.599 85.7903 131.599 86.8593C131.599 87.9284 132.465 88.7951 133.532 88.7951Z" fill="white"/>
<path opacity="0.78" d="M58.3695 22.9792C59.4373 22.9792 60.3029 22.1125 60.3029 21.0434C60.3029 19.9743 59.4373 19.1077 58.3695 19.1077C57.3017 19.1077 56.436 19.9743 56.436 21.0434C56.436 22.1125 57.3017 22.9792 58.3695 22.9792Z" fill="white"/>
<path opacity="0.78" d="M82.0544 38.9492C82.7217 38.9492 83.2628 38.4076 83.2628 37.7394C83.2628 37.0712 82.7217 36.5295 82.0544 36.5295C81.387 36.5295 80.8459 37.0712 80.8459 37.7394C80.8459 38.4076 81.387 38.9492 82.0544 38.9492Z" fill="white"/>
<path opacity="0.4" d="M12.4501 49.1119C13.2509 49.1119 13.9002 48.4619 13.9002 47.6601C13.9002 46.8583 13.2509 46.2083 12.4501 46.2083C11.6492 46.2083 11 46.8583 11 47.6601C11 48.4619 11.6492 49.1119 12.4501 49.1119Z" fill="white"/>
<path opacity="0.9" d="M22.8422 56.1291C23.2427 56.1291 23.5673 55.8041 23.5673 55.4032C23.5673 55.0022 23.2427 54.6772 22.8422 54.6772C22.4418 54.6772 22.1172 55.0022 22.1172 55.4032C22.1172 55.8041 22.4418 56.1291 22.8422 56.1291Z" fill="white"/>
<path d="M109.848 131.866C110.648 131.866 111.298 131.216 111.298 130.414C111.298 129.612 110.648 128.962 109.848 128.962C109.047 128.962 108.397 129.612 108.397 130.414C108.397 131.216 109.047 131.866 109.848 131.866Z" fill="white"/>
<path d="M93.6549 120.735C94.4558 120.735 95.105 120.085 95.105 119.283C95.105 118.482 94.4558 117.832 93.6549 117.832C92.8541 117.832 92.2048 118.482 92.2048 119.283C92.2048 120.085 92.8541 120.735 93.6549 120.735Z" fill="white"/>
<path d="M147.55 81.536C148.351 81.536 149 80.886 149 80.0841C149 79.2823 148.351 78.6323 147.55 78.6323C146.749 78.6323 146.1 79.2823 146.1 80.0841C146.1 80.886 146.749 81.536 147.55 81.536Z" fill="white"/>
<path opacity="0.34" d="M114.44 37.9813C115.24 37.9813 115.89 37.3313 115.89 36.5295C115.89 35.7276 115.24 35.0776 114.44 35.0776C113.639 35.0776 112.99 35.7276 112.99 36.5295C112.99 37.3313 113.639 37.9813 114.44 37.9813Z" fill="white"/>
<defs>
<linearGradient id="paint0_linear" x1="80" y1="-0.000131335" x2="80" y2="235" gradientUnits="userSpaceOnUse">
<stop stop-color="#AECBED" stop-opacity="0.17"/>
<stop offset="0.65625" stop-color="#AECBED"/>
</linearGradient>
</defs>
</svg>
