<svg width="566" height="369" viewBox="0 0 566 369" fill="none" xmlns="http://www.w3.org/2000/svg">
<g clip-path="url(#clip0_2929_9392)">
<path d="M0 0H556C561.523 0 566 4.47715 566 10V360C566 365.523 561.523 370 556 370H0V0Z" fill="url(#paint0_linear_2929_9392)"/>
<path d="M0 2H554C559.523 2 564 6.47715 564 12V359C564 364.523 559.523 369 554 369H0V2Z" fill="url(#paint1_linear_2929_9392)"/>
<path d="M573 308.784H567.041C566.983 308.606 566.921 308.421 566.859 308.261C566.798 308.101 566.776 308.025 566.736 307.898C566.638 307.629 566.537 307.361 566.432 307.099L566.29 306.736C566.225 306.573 566.156 306.413 566.091 306.253C566.026 306.094 565.986 306.017 565.935 305.89C565.83 305.654 565.721 305.418 565.612 305.186C565.558 305.066 565.5 304.946 565.442 304.823C565.384 304.7 565.304 304.54 565.232 304.402C565.159 304.264 565.047 304.039 564.949 303.868C564.851 303.698 564.793 303.578 564.71 303.436C564.626 303.295 564.572 303.193 564.499 303.073L564.296 302.732C564.191 302.565 564.086 302.412 563.981 302.242C563.919 302.147 563.814 301.991 563.753 301.893L563.448 301.469C563.368 301.352 563.285 301.243 563.202 301.131L562.872 300.71L562.676 300.474C562.531 300.303 562.39 300.14 562.241 299.98C562.183 299.915 562.125 299.853 562.063 299.791C562.002 299.73 561.839 299.559 561.723 299.446C561.668 299.388 561.61 299.334 561.552 299.279C561.396 299.131 561.237 298.985 561.074 298.851L560.914 298.713C560.773 298.597 560.628 298.484 560.483 298.379L560.371 298.292C560.197 298.165 560.008 298.049 559.845 297.929L559.689 297.835C559.508 297.726 559.327 297.62 559.142 297.526L559.066 297.49C558.895 297.403 558.725 297.326 558.551 297.254L558.413 297.196C558.225 297.119 558.051 297.05 557.84 296.992L557.724 296.956C557.547 296.905 557.362 296.862 557.191 296.822C557.159 296.818 557.126 296.811 557.094 296.8C556.894 296.764 556.695 296.731 556.495 296.709H556.358C556.151 296.709 555.944 296.676 555.734 296.676C555.524 296.676 555.321 296.676 555.114 296.709H554.977C554.777 296.731 554.578 296.764 554.378 296.8L554.281 296.822C554.103 296.862 553.918 296.905 553.748 296.956L553.512 297.029C553.36 297.076 553.208 297.13 553.059 297.196L552.921 297.254C552.747 297.326 552.559 297.403 552.406 297.49L552.33 297.526C552.145 297.62 551.968 297.726 551.783 297.835L551.627 297.929C551.449 298.041 551.265 298.158 551.101 298.292L550.985 298.379C550.844 298.484 550.699 298.597 550.558 298.713L550.395 298.851C550.235 298.985 550.076 299.131 549.92 299.279L549.746 299.446C549.626 299.559 549.51 299.679 549.398 299.799C549.296 299.904 549.285 299.918 549.227 299.98C549.082 300.14 548.937 300.303 548.796 300.474L548.6 300.71L548.27 301.131L548.02 301.469L547.741 301.864C547.672 301.966 547.603 302.064 547.538 302.169C547.415 302.351 547.295 302.532 547.176 302.732L546.973 303.073C546.9 303.193 546.831 303.313 546.762 303.436C546.693 303.56 546.599 303.719 546.519 303.868C546.44 304.017 546.331 304.231 546.237 304.402L546.03 304.823C545.972 304.939 545.914 305.059 545.86 305.186C545.747 305.418 545.642 305.654 545.537 305.89C545.483 306.01 545.432 306.126 545.381 306.253C545.33 306.38 545.247 306.573 545.182 306.736C545.117 306.9 545.084 306.976 545.037 307.099C544.935 307.361 544.834 307.629 544.736 307.898C544.692 308.014 544.653 308.13 544.609 308.261C544.566 308.392 544.489 308.606 544.431 308.784H526.531C526.578 308.098 526.615 307.401 526.64 306.696V306.595C526.662 305.901 526.676 305.201 526.676 304.489C526.676 297.82 525.647 291.783 523.979 287.426C522.312 283.07 519.992 280.354 517.454 280.354C517.313 280.358 517.168 280.369 517.026 280.383H516.903C516.798 280.383 516.693 280.42 516.588 280.449L516.468 280.478C516.33 280.514 516.193 280.561 516.055 280.612L516.019 280.63C515.895 280.681 515.772 280.739 515.656 280.805L515.529 280.874C515.431 280.928 515.334 280.986 515.239 281.048L515.12 281.128C514.986 281.218 514.859 281.313 514.735 281.414L514.656 281.48C514.554 281.567 514.453 281.654 514.351 281.752L514.217 281.883C514.13 281.966 514.047 282.053 513.963 282.144C513.88 282.235 513.876 282.235 513.836 282.282C513.72 282.413 513.604 282.547 513.492 282.692C513.452 282.74 513.412 282.79 513.376 282.841L513.137 283.161C513.111 283.197 513.086 283.23 513.061 283.266L512.785 283.68L512.644 283.901C512.542 284.065 512.441 284.232 512.343 284.406L512.198 284.671C512.14 284.776 512.082 284.881 512.028 284.99C511.973 285.099 511.922 285.197 511.868 285.303C511.814 285.408 511.766 285.506 511.719 285.611C511.672 285.716 511.654 285.742 511.625 285.807L511.31 286.511L511.147 286.911L511.031 287.201C510.976 287.339 510.922 287.481 510.871 287.622C510.82 287.764 510.802 287.811 510.77 287.902C510.585 288.417 510.407 288.947 510.24 289.503L510.164 289.761C510.11 289.935 510.059 290.124 510.012 290.291L509.947 290.519C509.784 291.126 509.631 291.75 509.49 292.393L509.436 292.636C509.392 292.839 509.349 293.042 509.309 293.249C509.309 293.315 509.283 293.384 509.269 293.449C509.178 293.914 509.091 294.389 509.012 294.872H506.474C505.115 294.876 504.013 295.979 504.009 297.341V308.784H491.003V300.434C491.003 300.125 490.752 299.875 490.444 299.875H490.299C488.998 299.875 487.943 300.931 487.943 302.235V308.784H481.182V306.086C481.182 304.587 479.968 303.371 478.471 303.371C478.152 303.371 477.858 303.502 477.648 303.712C477.438 303.923 477.307 304.217 477.307 304.536V308.784H426.724L420.152 308.798C418.938 296.8 418.028 283.694 417.807 270.266C417.778 268.588 418.919 267.136 420.54 266.708C427.949 264.762 433.847 259.088 436.124 251.809C436.533 250.506 437.751 249.627 439.118 249.627H444.349C445.9 249.627 447.158 248.367 447.158 246.814C447.158 245.26 445.9 244 444.349 244H385.374C383.822 244 382.564 245.26 382.564 246.814C382.564 248.367 383.822 249.627 385.374 249.627H390.612C391.978 249.627 393.196 250.506 393.606 251.809C395.883 259.084 401.78 264.758 409.19 266.708C410.81 267.136 411.949 268.588 411.923 270.266C411.702 283.702 410.792 296.818 409.574 308.82H399.446L398.924 308.842H398.616L398.116 308.867L397.818 308.885L397.325 308.922L397.05 308.943L396.553 308.987L396.31 309.009L395.785 309.063L395.593 309.085L395.002 309.158H394.9C393.95 309.285 393.088 309.441 392.247 309.622L391.652 309.76H391.62C391.431 309.804 391.257 309.851 391.069 309.902H391.032L390.499 310.054H390.474C390.293 310.105 390.112 310.163 389.941 310.218V293.649C389.941 292.367 388.904 291.329 387.625 291.329H383.413C378.994 291.329 375.412 294.916 375.412 299.341V310.377L369.123 315.681C367.43 317.108 366.451 319.214 366.451 321.428V325.236H336.94C336.936 324.616 336.672 324.02 336.215 323.599L317.51 306.173C317.086 305.749 316.397 305.749 315.973 306.173C315.759 306.388 315.643 306.682 315.654 306.983V319.326C315.654 320.502 315.092 321.61 314.146 322.307L310.159 325.236H236.73C218.664 325.236 212.222 320.797 206.534 316.887C202.086 313.823 197.881 310.926 189.424 310.926H182.196L180.202 310.915V310.693C180.202 307.205 183.023 304.376 186.51 304.376H193.698C194.898 304.376 195.975 303.505 196.094 302.307C196.232 300.935 195.148 299.766 193.807 299.766H180.202V299.73C180.202 296.244 183.023 293.416 186.51 293.416H193.698C194.898 293.416 195.975 292.545 196.094 291.347C196.232 289.975 195.148 288.806 193.807 288.806H191.266C191.269 288.715 191.277 288.628 191.277 288.537C191.277 281.182 185.324 275.221 177.984 275.221C170.639 275.221 164.691 281.182 164.691 288.537C164.691 288.628 164.698 288.715 164.698 288.806H162.269C161.066 288.806 159.989 289.681 159.873 290.875C159.732 292.247 160.819 293.416 162.161 293.416H169.458C172.938 293.416 175.762 296.241 175.762 299.73V299.766H162.269C161.066 299.766 159.989 300.641 159.873 301.835C159.732 303.207 160.819 304.376 162.161 304.376H169.458C172.938 304.376 175.762 307.201 175.762 310.693V310.904H142.216V296.804C142.22 295.54 141.197 294.516 139.936 294.513C139.932 294.513 139.932 294.513 139.928 294.513C138.421 294.513 137.054 295.126 136.064 296.114C135.078 297.105 134.466 298.473 134.466 299.984V310.918H66.7071C66.776 310.577 66.8123 310.229 66.8123 309.88C66.8123 309.343 66.5947 308.853 66.2395 308.501C65.8879 308.145 65.4021 307.927 64.862 307.927H45.3631V301.552H61.7373C64.5394 301.552 66.8123 299.276 66.8123 296.47C66.8123 295.932 66.5947 295.442 66.2395 295.09C65.8879 294.734 65.4021 294.516 64.862 294.516H45.3631V288.142H61.7373C64.5394 288.142 66.8123 285.865 66.8123 283.059C66.8123 282.522 66.5947 282.032 66.2395 281.679C65.8879 281.324 65.4021 281.106 64.862 281.106H45.3631V274.731H61.7373C64.5394 274.731 66.8123 272.455 66.8123 269.648C66.8086 268.57 65.9386 267.699 64.862 267.695H45.3631V264.853C45.3631 262.635 47.1575 260.838 49.3688 260.838L63.2924 260.834C65.2318 260.834 66.805 259.258 66.805 257.316C66.805 255.374 65.2318 253.798 63.2924 253.798H15.0654C13.126 253.798 11.5527 255.374 11.5527 257.316C11.5527 259.258 13.126 260.834 15.0654 260.834H28.815C31.2764 261.477 32.6938 263.332 33.31 265.655C33.3426 265.782 33.3716 265.913 33.4006 266.04C33.4079 266.065 33.4151 266.094 33.4188 266.12C33.4441 266.24 33.4695 266.359 33.4913 266.483C33.4913 266.519 33.4913 266.555 33.5094 266.592C33.5311 266.708 33.5456 266.828 33.5638 266.955V267.085C33.5638 267.198 33.5928 267.314 33.6036 267.43V267.568C33.6036 267.684 33.6254 267.801 33.629 267.931V268.058C33.6471 268.421 33.6471 268.817 33.629 269.202V269.402C33.629 269.467 33.629 269.583 33.6109 269.674C33.5928 269.765 33.6109 269.837 33.5928 269.917L33.571 270.175C33.571 270.262 33.5529 270.349 33.542 270.436L33.5094 270.679C33.5094 270.77 33.484 270.865 33.4695 270.955C33.455 271.046 33.4478 271.112 33.4333 271.188C33.4188 271.264 33.4006 271.377 33.3825 271.471L33.339 271.692C33.3209 271.794 33.2991 271.896 33.2774 271.994C33.2556 272.092 33.2448 272.128 33.2303 272.197C33.2158 272.266 33.1759 272.418 33.1469 272.527C33.1179 272.636 33.1215 272.64 33.107 272.694C33.0599 272.858 33.0164 273.021 32.9656 273.184C32.9149 273.348 32.8786 273.464 32.8351 273.616L32.6611 274.176V274.223L32.4871 274.789C32.4871 274.814 32.2588 275.533 32.2479 275.573C32.1899 275.755 31.9216 276.633 31.8564 276.844C31.8238 276.945 22.6344 306.827 21.3584 310.951L-56.2275 310.907V294.571C-56.2275 293.591 -57.0214 292.796 -58.0001 292.796H-58.939C-61.7194 292.796 -64.2025 294.538 -65.1559 297.152L-69.0745 307.905H-78.5684C-81.0297 307.905 -83.2772 309.306 -84.3684 311.514L-85.88 314.567C-86.8841 316.625 -88.9685 317.929 -91.2559 317.932H-105.009V304.238C-105.009 300.975 -107.652 298.328 -110.911 298.328H-123V411H573V330.319H568.886C568.951 329.829 569.002 329.332 569.052 328.834L569.085 328.471C569.121 328.09 569.15 327.709 569.176 327.32L569.208 326.848C569.23 326.485 569.245 326.097 569.259 325.719V325.266C569.259 324.743 569.284 324.22 569.284 323.69V321.849C569.284 321.486 569.259 321.145 569.241 320.797C569.241 320.659 569.241 320.528 569.216 320.394C569.194 320.031 569.172 319.704 569.147 319.363L569.114 319C569.081 318.636 569.049 318.273 569.009 317.936L568.976 317.642C568.933 317.279 568.886 316.894 568.835 316.527L568.802 316.309C568.748 315.914 568.686 315.522 568.621 315.133C568.621 315.086 568.621 315.042 568.596 314.995C568.527 314.578 568.451 314.168 568.371 313.765V313.699C568.284 313.271 568.193 312.842 568.095 312.425H573V308.784ZM-33.2559 328.823C-33.2486 330.471 -34.579 331.815 -36.2247 331.818H-53.2441C-54.8899 331.822 -56.2239 330.486 -56.2275 328.838C-56.2275 328.838 -56.2275 328.834 -56.2275 328.831V314.549H-33.2559V328.823ZM19.448 317.068C19.4118 317.192 19.3719 317.319 19.332 317.431C19.1906 317.896 19.0456 318.361 18.9006 318.825C18.8028 319.148 18.7049 319.468 18.6034 319.787L18.3098 320.742C17.9146 322.016 17.5267 323.276 17.1389 324.525C17.1389 324.565 17.1135 324.608 17.099 324.648L15.4714 329.912C15.4243 330.072 15.3735 330.235 15.3228 330.395L13.4595 336.418L10.9401 333.753C9.76926 332.515 8.14163 331.815 6.43788 331.815H-10.335V320.11C-10.335 318.644 -11.5204 317.457 -12.9849 317.457H-19.9847V314.552H20.2274C19.97 315.391 19.709 316.23 19.448 317.068ZM134.462 316.93H129.278C127.223 316.93 125.443 318.357 124.993 320.365L119.393 345.218C118.635 348.616 115.619 351.034 112.143 351.027H45.3631V341.784H61.7373C64.5394 341.784 66.8123 339.507 66.8123 336.701C66.8123 336.164 66.5947 335.674 66.2395 335.322C65.8879 334.966 65.4021 334.748 64.862 334.748H45.3631V328.373H61.7373C64.5394 328.373 66.8123 326.097 66.8123 323.291C66.8123 322.753 66.5947 322.263 66.2395 321.911C65.8879 321.555 65.4021 321.337 64.862 321.337H45.3631V314.963H61.7373C62.426 314.963 63.1111 314.825 63.7455 314.549H134.462V316.93ZM169.668 346.568C168.86 345.385 168.428 343.984 168.428 342.546V336.222C168.428 334.748 167.236 333.554 165.764 333.554H165.481C165.028 333.554 164.662 333.917 164.658 334.37C164.658 334.374 164.658 334.378 164.658 334.378V344.75H154.784V338.302C154.78 336.454 153.776 334.755 152.163 333.862L142.212 328.373V314.549H175.758V351.626H173.115L169.668 346.568ZM220.443 332.138L211.903 334.868C209.22 335.725 207.397 338.219 207.393 341.039V351.615H201.593V340.509C201.593 338.705 200.133 337.242 198.331 337.242H197.019V331.553C197.022 329.39 195.271 327.636 193.111 327.633C193.107 327.633 193.107 327.633 193.104 327.633H190.773C189.943 327.633 189.272 328.308 189.272 329.135V351.626H180.202V314.552H182.24V314.549H189.468C196.798 314.549 200.209 316.898 204.526 319.871L205.16 320.31L205.32 320.419L205.864 320.782L206.027 320.891C206.509 321.21 207.002 321.534 207.499 321.857H207.524C207.767 322.009 208.017 322.165 208.271 322.318L208.361 322.376C209.173 322.869 210.04 323.36 210.968 323.828H210.993C211.305 323.988 211.624 324.144 211.954 324.3C212.951 324.775 214.027 325.233 215.216 325.661C216.383 326.09 217.645 326.489 219.019 326.852H219.066C219.519 326.972 219.987 327.088 220.465 327.215L220.443 332.138ZM282.638 337.739C279.792 337.736 277.109 339.064 275.388 341.333L265.897 353.873H235.513V343.457C235.513 343.051 235.353 342.659 235.067 342.368C234.798 342.103 234.44 341.947 234.062 341.929C233.185 341.918 232.468 342.622 232.457 343.501V353.873H225V328.097C225.413 328.159 225.83 328.213 226.262 328.264H226.298C226.715 328.315 227.135 328.362 227.567 328.406H227.683C228.089 328.449 228.505 328.489 228.926 328.526L229.154 328.544L230.347 328.634L230.709 328.656L231.822 328.722L232.399 328.743L233.377 328.783C233.66 328.783 233.95 328.783 234.24 328.805L235.009 328.823H307.954L307.987 337.739H282.638ZM366.433 347.338H336.922V328.867H366.433V347.338ZM398.565 330.047C397.673 330.047 396.854 330.537 396.43 331.321C396.394 331.39 396.357 331.459 396.328 331.532C396.202 331.829 396.136 332.152 396.136 332.475V348.972H389.872V314.088L390.325 313.91L390.42 313.877C390.869 313.714 391.355 313.561 391.87 313.423L392.098 313.362L392.555 313.249L392.856 313.184C393.099 313.129 393.345 313.078 393.602 313.031L394.016 312.955L394.433 312.886L394.976 312.806L395.36 312.755C395.632 312.719 395.908 312.69 396.194 312.657L396.557 312.625L397.282 312.563L397.604 312.538L398.663 312.476H398.928L399.856 312.447C399.856 312.447 404.071 312.447 409.186 312.443C407.62 326.925 405.648 339.598 403.999 348.983H400.983V332.475C400.987 331.136 399.903 330.05 398.565 330.047ZM477.3 315.514C476.604 315.83 475.933 316.193 475.288 316.603C474.654 317.01 474.048 317.457 473.476 317.947L473.418 317.994C473.019 318.339 472.638 318.702 472.276 319.083L472.182 319.185C472.073 319.301 471.968 319.417 471.863 319.548L471.754 319.675C471.547 319.911 471.344 320.158 471.152 320.401L471.101 320.466C471.018 320.575 470.938 320.688 470.855 320.8L470.699 321.018L470.478 321.345C470.42 321.432 470.365 321.523 470.307 321.613C470.206 321.773 470.104 321.936 470.01 322.103C469.945 322.212 469.88 322.325 469.818 322.437L469.691 322.673L469.514 323.036C469.459 323.149 469.401 323.254 469.35 323.367C469.26 323.559 469.169 323.755 469.086 323.951L469.002 324.158C468.941 324.307 468.879 324.46 468.825 324.612C468.792 324.699 468.76 324.783 468.731 324.87C468.676 325.022 468.625 325.175 468.575 325.331C468.553 325.403 468.528 325.472 468.506 325.545C468.437 325.763 468.375 325.984 468.317 326.209C468.317 326.271 468.285 326.336 468.27 326.398C468.227 326.572 468.187 326.747 468.151 326.921C468.151 327.001 468.118 327.077 468.103 327.153C468.064 327.349 468.027 327.545 467.998 327.741C467.998 327.785 467.998 327.829 467.977 327.872C467.94 328.112 467.908 328.351 467.882 328.598V328.798C467.882 328.983 467.85 329.161 467.839 329.361V330.326H462.517C460.092 330.33 457.834 331.561 456.511 333.594L445.788 350.014H425.901C424.216 340.535 422.156 327.462 420.529 312.436C424.317 312.432 427.101 312.432 427.101 312.429H477.3V315.514ZM487.936 314.531C487.646 314.458 487.349 314.393 487.048 314.338L486.892 314.309C486.645 314.266 486.399 314.226 486.167 314.193L485.935 314.164C485.692 314.142 485.453 314.12 485.21 314.099L484.967 314.08C484.659 314.08 484.347 314.051 484.032 314.051C483.774 314.051 483.521 314.051 483.267 314.07C483.107 314.07 482.951 314.091 482.792 314.102L482.545 314.124C482.335 314.142 482.132 314.168 481.926 314.193H481.853C481.628 314.226 481.4 314.258 481.179 314.298V312.414H487.939L487.936 314.531ZM504.016 330.319H500.272C500.272 330.068 500.272 329.818 500.253 329.571V329.361C500.253 329.165 500.239 328.972 500.21 328.783V328.602C500.185 328.359 500.156 328.119 500.119 327.876C500.119 327.825 500.101 327.774 500.094 327.727C500.065 327.531 500.029 327.342 499.992 327.15L499.949 326.935C499.906 326.736 499.862 326.536 499.811 326.336C499.811 326.3 499.811 326.264 499.786 326.231C499.724 326.002 499.663 325.777 499.594 325.552L499.529 325.353C499.474 325.182 499.42 325.019 499.362 324.852C499.336 324.786 499.311 324.717 499.289 324.652C499.21 324.434 499.126 324.22 499.036 324.009C499.017 323.966 498.996 323.922 498.978 323.875L498.749 323.37L498.64 323.149C498.568 322.997 498.492 322.848 498.412 322.699C498.379 322.637 498.35 322.579 498.314 322.517C498.209 322.325 498.1 322.133 497.988 321.944C497.944 321.875 497.901 321.806 497.861 321.737C497.778 321.61 497.698 321.479 497.611 321.352L497.462 321.131C497.364 320.982 497.259 320.84 497.158 320.699L496.98 320.459L496.668 320.063L496.48 319.838C496.393 319.733 496.302 319.631 496.212 319.53C496.121 319.428 496.085 319.384 496.02 319.315C495.882 319.163 495.74 319.014 495.595 318.865L495.385 318.662L495.106 318.393C495.026 318.321 494.946 318.244 494.863 318.175C494.78 318.106 494.671 318.005 494.573 317.921C494.475 317.838 494.345 317.729 494.232 317.638L493.87 317.355L493.598 317.155L493.315 316.956L493.033 316.76L492.67 316.527L492.246 316.27L491.941 316.095L491.63 315.928L491.325 315.772L491.017 315.62V312.414H504.038L504.016 330.319ZM543.148 313.688H543.141C543.137 313.71 543.137 313.732 543.141 313.754C543.061 314.157 542.985 314.567 542.913 314.984L542.891 315.122C542.826 315.511 542.764 315.903 542.709 316.299L542.677 316.516C542.626 316.879 542.579 317.242 542.536 317.631L542.503 317.925C542.463 318.288 542.43 318.629 542.398 318.989L542.365 319.352C542.34 319.693 542.314 320.038 542.296 320.383C542.296 320.499 542.296 320.608 542.275 320.724C542.275 321.047 542.235 321.573 542.224 321.893V323.679C542.224 324.166 542.224 324.732 542.249 325.255V325.708C542.249 326.071 542.282 326.464 542.304 326.837L542.336 327.309C542.362 327.698 542.391 328.079 542.427 328.46L542.459 328.823C542.507 329.321 542.561 329.818 542.622 330.308H536.678V315.921C536.678 314.737 535.96 313.674 534.865 313.231L532.831 312.414H543.424C543.326 312.85 543.232 313.26 543.148 313.688Z" fill="#160E3F"/>
</g>
<defs>
<linearGradient id="paint0_linear_2929_9392" x1="566" y1="183.892" x2="107.751" y2="183.892" gradientUnits="userSpaceOnUse">
<stop offset="0.406748" stop-color="#38237C"/>
<stop offset="1" stop-color="#503EAA"/>
</linearGradient>
<linearGradient id="paint1_linear_2929_9392" x1="281.989" y1="15.0374" x2="281.989" y2="383.092" gradientUnits="userSpaceOnUse">
<stop stop-color="#160E3F"/>
<stop offset="1" stop-color="#321F71"/>
</linearGradient>
<clipPath id="clip0_2929_9392">
<path d="M0 0H556C561.523 0 566 4.47715 566 10V359C566 364.523 561.523 369 556 369H0V0Z" fill="white"/>
</clipPath>
</defs>
</svg>
