<svg width="512" height="195" viewBox="0 0 512 195" fill="none" xmlns="http://www.w3.org/2000/svg">
<path d="M0 195C1.74299 188.934 4.14256 183.142 8.03004 178.146C9.73524 175.967 12.508 175.693 15.172 175.693C23.1202 175.693 31.0699 175.693 39.0213 175.693C42.6301 175.693 42.956 175.349 42.9891 171.807C42.9891 170.231 42.9891 168.66 42.9891 167.09C43.0741 163.146 44.5242 161.651 48.4164 161.571C51.3308 161.509 54.2405 161.571 57.155 161.533C60.0694 161.495 60.6362 160.816 60.3386 157.939C59.7435 152.226 60.8819 146.84 63.3428 141.703C64.7429 138.676 67.1244 136.21 70.1022 134.703C71.6291 133.954 73.3414 133.667 75.0295 133.875C76.7175 134.084 78.308 134.78 79.606 135.877C80.0784 136.302 80.2957 137.019 80.631 137.599C79.9934 137.962 79.3887 138.509 78.6991 138.651C77.7119 138.849 76.5688 138.514 75.6713 138.863C74.9108 139.165 74.4007 140.113 73.7819 140.75C74.4148 141.302 74.9958 142.231 75.6997 142.34C77.5513 142.627 79.4785 142.538 81.3679 142.637C82.2276 142.679 83.1912 142.59 83.9092 142.948C84.6272 143.307 85.364 144.127 85.3593 144.745C85.3593 145.255 84.339 146.033 83.6494 146.198C82.5252 146.462 81.2876 146.33 80.1256 146.354C78.7086 146.377 77.249 146.189 75.8744 146.486C75.095 146.66 74.4904 147.613 73.8055 148.217C74.481 148.849 75.1045 149.943 75.8366 150.019C78.2504 150.269 80.7113 150.08 83.144 150.208C84.6602 150.292 87.0078 149.604 87.022 152.047C87.0362 154.491 84.6602 153.778 83.1629 153.863C80.8011 153.995 78.4393 153.774 76.0775 154.024C75.2604 154.113 74.5471 155.16 73.7866 155.769C74.5377 156.406 75.2462 157.524 76.0539 157.599C78.7038 157.854 81.3963 157.755 84.084 157.745C85.6994 157.745 86.9464 157.991 87.4802 159.906C87.6691 160.599 88.9256 161.415 89.7192 161.443C94.2821 161.594 98.8498 161.604 103.417 161.495C105.973 161.434 107.536 159.736 107.669 157.057C107.801 154.783 107.669 152.495 107.777 150.217C107.891 147.038 109.062 145.5 112.095 144.5C114.258 143.774 116.407 142.967 118.623 142.443C121.183 141.835 121.929 140.311 121.896 137.83C121.778 132.566 121.858 127.297 121.858 122.028C121.858 121.245 121.674 120.387 121.924 119.67C122.279 118.703 122.964 117.859 123.511 116.962C124.022 117.906 124.957 118.802 124.98 119.736C125.122 125.311 125.042 130.896 125.065 136.476C125.065 139.656 125.495 139.953 128.566 138.948C133.724 137.259 138.849 135.453 144.026 133.826C146.029 133.193 146.973 132.156 147.035 129.976C147.205 123.458 147.625 116.948 147.824 110.434C148.206 97.5567 148.494 84.6746 148.849 71.7973C148.929 68.8916 149.108 65.9907 149.278 63.0897C149.387 61.2312 148.716 60.0331 146.917 59.2407C140.861 56.5897 136.969 51.9246 134.999 45.6935C134.399 43.8067 133.351 43.0096 131.409 43.0426C127.791 43.0992 124.168 43.085 120.545 43.0426C117.678 42.9907 115.968 41.6558 115.992 39.6463C116.015 37.7218 117.881 36.1699 120.536 36.1039C124.154 36.0143 127.777 35.9954 131.4 36.0803C133.455 36.1275 134.527 35.302 135.155 33.3303C137.682 25.3916 143.185 20.5945 151.215 18.5567C152.198 18.302 153.577 17.4105 153.752 16.6039C154.172 14.5143 154.489 12.2879 152.519 10.4718C149.585 7.76902 149.127 5.58977 150.733 3.03789C151.99 1.0426 153.756 -0.20739 156.213 0.028459C158.494 0.24544 160.28 1.34921 161.054 3.59921C161.871 5.9577 161.498 8.24543 159.505 9.81619C157.512 11.3869 157.086 13.3068 157.233 15.6322C157.337 17.2124 158.045 18.0662 159.566 18.4294C168.14 20.4671 173.964 25.5048 176.571 34.0426C177.043 35.5897 178.13 36.0756 179.623 36.0709C182.849 36.0709 186.075 36.0709 189.301 36.0945C190.167 36.0747 191.032 36.1046 191.894 36.1841C194.02 36.4435 195.347 37.8256 195.338 39.6888C195.328 41.552 193.973 42.9011 191.748 42.9907C188.054 43.0945 184.346 43.1605 180.652 42.9907C178.106 42.8916 176.873 43.8445 176.108 46.3162C175.275 49.1596 173.824 51.7844 171.857 54.003C169.891 56.2217 167.459 57.9795 164.734 59.1511C162.58 60.1228 161.9 61.5095 162.004 63.7595C162.519 77.9105 162.948 92.0237 163.388 106.156C163.562 111.816 163.695 117.476 163.921 123.137C164.063 126.552 164.583 126.873 167.776 125.83C170.969 124.788 174.049 123.736 177.19 122.712C181.106 121.443 183.491 123.094 183.576 127.278C183.666 131.995 183.576 136.712 183.614 141.429C183.614 146.066 185.829 148.033 190.477 147.373C191.327 147.25 192.523 146.321 192.749 145.538C194.086 140.821 196.939 137.566 201.275 135.387C202.088 134.976 202.971 133.774 202.999 132.91C203.186 128.911 203.129 124.903 202.829 120.91C202.423 116.467 199.905 114.193 195.494 113.646C194.077 113.472 192.66 113.476 191.242 113.359C189.23 113.189 188.04 112.08 187.875 110.057C187.723 108.217 189.145 106.642 191.233 106.528C194.138 106.373 197.057 106.472 199.967 106.406C202.584 106.349 203.165 105.67 202.957 103.104C202.57 98.3869 199.943 95.6086 195.187 95.1699C192.825 94.9529 190.463 95.085 188.101 94.9529C185.56 94.8161 184.389 93.7076 184.365 91.6274C184.341 89.5473 185.725 88.1322 188.191 88.0756C191.97 87.9812 195.749 87.9812 199.528 88.0378C201.417 88.0614 202.617 87.5426 202.962 85.4105C203.297 83.3586 204.653 82.019 206.873 82.0142C209.093 82.0095 210.458 83.3444 210.779 85.4105C211.114 87.5473 212.3 88.0614 214.204 88.0331C217.904 87.9797 221.604 87.9906 225.304 88.0661C228.081 88.1227 229.385 89.2878 229.423 91.5425C229.461 93.7973 228.2 94.8727 225.347 94.9907C222.834 95.0944 220.292 94.9907 217.817 95.3444C213.325 96.0001 210.836 99.302 210.977 103.797C211.034 105.571 211.771 106.41 213.538 106.41C216.136 106.41 218.734 106.41 221.331 106.453C224.34 106.514 226.022 107.811 225.989 109.972C225.956 112.132 224.378 113.245 221.478 113.392C220.142 113.431 218.809 113.546 217.487 113.736C215.752 113.986 214.16 114.833 212.984 116.131C211.809 117.429 211.124 119.096 211.048 120.844C210.892 124.769 211.048 128.703 210.973 132.637C210.944 134.236 211.804 135.019 213.103 135.67C214.878 136.535 216.464 137.744 217.767 139.227C219.07 140.71 220.065 142.436 220.694 144.307C221.851 147.571 222.229 147.788 226.116 147.462C228.88 147.231 230.538 145.783 230.925 143.151C231.037 142.212 231.079 141.266 231.053 140.321C231.053 135.288 231.053 130.259 231.053 125.226C231.053 120.561 232.399 119.269 237.155 119.241C240.462 119.241 243.768 119.085 247.075 119.278C249.791 119.439 251.326 118.495 252.554 115.976C258.658 103.27 262.861 89.7373 265.029 75.8114C266.314 67.6746 266.999 59.4435 267.797 51.2407C268.184 47.2831 267.655 46.8728 263.749 46.8397C262.648 46.8397 261.543 46.8397 260.443 46.7973C257.278 46.6322 255.563 44.9813 255.61 42.1982C255.658 39.4152 257.358 37.7501 260.499 37.6039C262.464 37.5096 264.439 37.5567 266.404 37.5567C272.78 37.5567 279.157 37.4388 285.529 37.6511C287.215 37.7312 288.82 38.3988 290.064 39.5379C292.534 42.0709 290.914 46.1888 287.39 46.6558C285.35 46.8522 283.299 46.9184 281.25 46.8539C279.36 46.8539 278.52 47.7501 278.557 49.6133C278.595 51.4765 278.609 53.3869 278.557 55.2737C278.491 57.2831 279.502 58.1463 281.391 58.1794C283.125 58.2124 284.859 58.1794 286.587 58.269C289.421 58.4011 291.174 60.0473 291.235 62.5567C291.297 65.1794 289.54 66.9482 286.587 67.1086C284.783 67.2076 282.969 67.1699 281.16 67.1888C279.455 67.1888 278.51 67.9529 278.538 69.7595C278.571 71.802 278.576 73.8492 278.538 75.8916C278.496 77.8161 279.483 78.5756 281.302 78.5661C283.12 78.5567 284.925 78.5331 286.729 78.6322C289.332 78.7784 291.023 80.3256 291.221 82.5991C291.361 83.7513 291.04 84.912 290.328 85.8294C289.616 86.7468 288.571 87.3471 287.419 87.5001C285.393 87.7702 283.349 87.8728 281.306 87.8067C279.478 87.8067 278.472 88.4907 278.534 90.4293C278.581 92.4718 278.534 94.519 278.534 96.5614C278.534 98.118 279.308 98.868 280.853 98.8822C282.662 98.8822 284.476 98.8822 286.285 98.9623C289.119 99.1086 291.07 101.033 291.009 103.5C290.961 106.071 289.091 107.915 286.285 108.061C284.561 108.151 282.823 108.142 281.089 108.127C279.356 108.113 278.458 108.873 278.496 110.675C278.534 112.717 278.496 114.76 278.496 116.807C278.496 118.302 279.096 119.203 280.711 119.203C286.143 119.203 291.575 119.274 297.008 119.151C299.487 119.094 300.994 117.387 301.259 114.618C301.433 112.67 301.386 110.693 301.391 108.731C301.391 106.373 302.194 104.566 304.726 104.014C306.592 103.59 306.615 102.127 306.615 100.712C306.615 91.5928 306.615 82.4734 306.615 73.3539C306.615 72.335 306.459 71.1982 306.856 70.335C307.206 69.5567 308.212 68.6039 308.935 68.5992C309.657 68.5944 310.602 69.5756 310.975 70.3492C311.348 71.1227 311.188 72.1982 311.188 73.1369C311.188 82.0991 311.188 91.0614 311.188 100.024C311.188 103.623 311.556 104.024 315.051 104.024C335.205 104.024 355.359 104.024 375.513 104.024C379.032 104.024 379.367 103.637 379.386 100.038C379.386 97.2878 379.438 94.5331 379.358 91.7831C379.207 86.7029 376.136 83.3822 371.139 82.7784C367.832 82.3774 366.637 81.5237 366.774 79.6369C366.911 77.7501 368.451 76.8067 371.46 76.8067C378.782 76.7815 386.103 76.7815 393.425 76.8067C394.204 76.8067 395.201 76.6605 395.72 77.0661C396.618 77.7595 397.78 78.8303 397.785 79.7501C397.789 80.6699 396.637 81.7501 395.749 82.4576C395.229 82.8727 394.237 82.6888 393.453 82.7878C388.805 83.3539 385.645 86.5614 385.423 91.2076C385.253 94.5755 385.423 97.9623 385.362 101.344C385.362 103.269 386.372 104.019 388.158 104.024C391.937 104.024 395.716 104.024 399.494 104.066C403.495 104.127 404.69 105.311 404.69 109.344C404.728 115.712 404.69 122.08 404.69 128.448C404.714 132.991 406.438 134.689 411.006 134.755C412.423 134.755 413.84 134.689 415.257 134.755C417.619 134.877 418.502 133.759 418.478 131.5C418.426 126.156 418.478 120.807 418.478 115.462C418.478 114.599 418.318 113.656 418.611 112.892C418.903 112.127 419.655 111.594 420.207 110.958C420.68 111.585 421.322 112.156 421.568 112.844C421.813 113.533 421.667 114.401 421.667 115.203C421.667 120.623 421.728 126.052 421.667 131.472C421.629 133.755 422.47 134.722 424.817 134.774C430.934 134.906 431.133 134.731 431.326 128.642C431.761 114.901 432.271 101.165 432.744 87.4246C432.795 85.8539 432.81 84.2784 432.744 82.7076C432.569 77.9907 429.607 74.2926 424.907 73.7926C420.207 73.2926 415.46 73.4341 410.77 73.3586C408.346 73.3161 406.466 72.5237 405.503 70.1605C404.199 66.9624 406.155 63.085 409.546 63.2454C414.043 63.4435 415.526 61.5992 416.74 57.4482C419.64 47.5426 428.218 42.3539 439.352 42.7973C447.703 43.1369 455.747 50.118 458.052 59.0284C459.049 62.8727 459.049 62.8728 463.078 63.019C466.706 63.1511 468.879 65.0426 468.926 68.0944C468.978 71.2265 466.734 73.2831 462.988 73.3492C459.446 73.4199 455.903 73.3161 452.36 73.3869C444.647 73.5378 440.948 77.7359 441.43 85.4576C441.742 90.4718 441.822 95.5048 441.987 100.528C442.324 110.736 442.65 120.943 442.965 131.151C443.064 134.255 443.475 134.675 446.569 134.736C448.615 134.769 450.665 134.703 452.71 134.802C455.346 134.929 456.569 136.132 456.706 138.788C456.857 141.689 456.706 144.613 456.99 147.495C457.301 150.594 459.351 152.137 462.478 152.165C464.33 152.165 465.279 151.387 465.284 149.509C465.284 146.524 465.09 143.509 465.421 140.547C465.632 138.8 466.331 137.148 467.438 135.778C469.776 133.014 472.333 130.443 475.085 128.09C478.165 125.481 479.299 122.495 479.171 118.429C478.878 109.085 479.171 99.7218 479.015 90.3727C478.963 87.1322 479.847 84.5567 482.322 82.4718C483.583 81.4152 484.627 80.1133 485.879 79.0284C486.413 78.5567 487.39 78.0567 487.867 78.2642C488.344 78.4718 488.746 79.519 488.755 80.2076C488.845 84.8444 488.954 89.4907 488.788 94.118C488.68 97.019 489.369 99.3822 491.741 101.137C495.146 103.665 496.086 107.019 495.992 111.212C495.756 123.476 495.888 135.741 495.921 148.005C495.921 149.811 495.449 152.042 498.429 152.113C501.183 152.184 503.365 150.514 503.531 147.948C503.691 145.524 503.601 143.08 503.62 140.642C503.668 135.642 505.104 134.382 510.139 134.925C510.762 134.991 511.381 135.09 512 135.17V195H0Z" fill="#4F447C"/>
</svg>
