<svg width="1788" height="426" viewBox="0 0 1788 426" fill="none" xmlns="http://www.w3.org/2000/svg">
<path d="M1730.2 132.43V84.4798C1730.2 63.6698 1713.2 46.5496 1692.3 46.5496H1685.51C1681.51 46.5496 1678.31 49.7595 1678.31 53.7595V132.33H1628.51C1621.91 132.33 1615.41 132.63 1609.01 133.34V108.21C1609.01 106.32 1608.21 104.61 1606.71 103.41C1598.51 96.6099 1589.11 102.41 1589.11 110.33V136.54C1573.5 139.85 1558.61 144.95 1544.71 151.76V92.0896C1544.71 88.0896 1541.5 84.8899 1537.51 84.8899H1527.01C1523.01 84.8899 1519.81 88.0896 1519.81 92.0896V166.36C1493.21 184.88 1471.51 210 1457.31 239.33C1454.3 245.64 1447.9 249.54 1440.9 249.54H1415.61V215.81C1415.61 214.21 1414.91 212.71 1413.8 211.71C1406.2 205 1397.31 210.41 1397.31 217.82V249.45H1373.01C1367.41 249.45 1362.2 252.26 1359.1 256.95L1351.3 268.86H1344.4C1340.79 268.86 1337.89 271.67 1337.8 275.27L1337.71 279.37H1307.5C1302.8 279.37 1298.41 281.27 1295.11 284.48L1285.01 294.59H1230.51L1216.91 268.86C1214.01 263.36 1208.31 259.96 1202.11 259.96H1165.5V246.95C1165.5 245.15 1164.01 243.65 1162.2 243.65H1160.8C1159 243.65 1157.5 245.15 1157.5 246.95V259.96H1127.1C1119.3 259.96 1112.99 253.65 1112.99 245.84V174.18C1112.99 169.38 1108.6 165.68 1103.9 166.68C1081.99 170.88 1065.5 190.2 1065.5 213.32C1065.5 213.42 1065.5 213.52 1065.5 213.73L1049.29 222.23C1039.6 227.34 1032.29 235.95 1028.9 246.25L1022.39 265.87C1020.09 272.67 1013.7 277.27 1006.59 277.27C989.492 277.27 973.49 285.68 963.793 299.79L947.791 322.9H897.994V311.79C897.994 309.9 896.497 308.39 894.588 308.39H889.887C887.99 308.39 886.481 309.88 886.481 311.79V323.11H849.387C844.391 323.11 839.583 320.9 836.39 317L817.595 294.08C814.39 290.18 809.7 287.97 804.598 287.97H793.993C790.093 287.97 786.298 286.47 783.494 283.67L759.09 259.95C756.086 257.05 751.985 255.35 747.79 255.35H710.295V225.72C710.295 223.42 708.398 221.52 706.1 221.52C698.606 221.52 692.502 227.63 692.502 235.13V245.35H669.406V226.43C669.406 220.52 664.611 215.81 658.801 215.81H608.604C602.5 215.81 596.809 219.12 593.804 224.42L577.307 253.45C575.61 256.35 572.605 258.15 569.212 258.15H558.807C555.908 258.15 553.41 255.85 553.304 252.85C549.404 183.49 495.506 127.63 427.103 120.53C419.303 119.73 412.397 125.83 412.397 133.64V165.07H392.896C384.494 165.07 376.894 170.38 374.101 178.39L365.499 202.82H342.498C337.502 202.82 332.894 205.92 331.103 210.62L314.901 251.66C313.405 255.56 309.599 258.17 305.298 258.17H285.301C282.803 258.17 280.706 256.56 279.904 254.26L278.808 251.16C277.713 247.86 274.507 245.56 271.008 245.56H252.107L243.611 195.41C242.916 191.01 239.11 187.91 234.715 187.91H208.72C205.221 187.91 202.016 189.91 200.519 193.11L193.52 208.02H165.016H162.612H127.308L126.507 186.4H144.713C155.907 186.4 165.016 177.29 165.016 166.08C165.016 163.07 162.612 160.67 159.619 160.67H125.517L124.716 139.06H144.713C155.907 139.06 165.016 129.95 165.016 118.73C165.016 115.73 162.612 113.33 159.619 113.33H123.715L123.019 91.6096H144.724C155.919 91.6096 165.027 82.4998 165.027 71.2898C165.027 68.2798 162.624 65.8797 159.631 65.8797H122.029L121.735 59.1697C121.134 43.1597 133.931 29.8396 149.933 29.8396H226.737C230.343 29.8396 233.642 28.14 235.74 25.24C244.236 13.44 235.834 0.209803 224.734 1.0198H0.200319L0 29.8396H37.601C53.603 29.8396 66.3998 43.1597 65.7988 59.1697L63.3007 126.93H0V228.13V260.96V425.94H1789V294.78V132.43H1730.2Z" fill="url(#paint0_linear_2681_5781)"/>
<defs>
<linearGradient id="paint0_linear_2681_5781" x1="894.464" y1="43.9598" x2="894.464" y2="332.27" gradientUnits="userSpaceOnUse">
<stop stop-color="#EBF0FF"/>
<stop offset="1" stop-color="white"/>
</linearGradient>
</defs>
</svg>
