<svg width="1789" height="422" viewBox="0 0 1789 422" fill="none" xmlns="http://www.w3.org/2000/svg">
<path d="M1730.2 132.428V84.4841C1730.2 63.6673 1713.2 46.5538 1692.3 46.5538H1685.51C1681.51 46.5538 1678.31 49.7619 1678.31 53.7601V132.333H1628.51C1621.91 132.333 1615.41 132.628 1609.01 133.336V108.214C1609.01 106.315 1608.21 104.605 1606.71 103.414C1598.51 96.6086 1589.11 102.411 1589.11 110.325V136.544C1573.5 139.846 1558.61 144.953 1544.71 151.758V92.0914C1544.71 88.0932 1541.5 84.8851 1537.51 84.8851H1527.01C1523.01 84.8851 1519.81 88.0932 1519.81 92.0914V166.36C1493.21 184.877 1471.51 209.998 1457.31 239.331C1454.3 245.641 1447.9 249.545 1440.9 249.545H1415.61V215.813C1415.61 214.209 1414.91 212.711 1413.8 211.709C1406.2 204.998 1397.31 210.411 1397.31 217.818V249.45H1373.01C1367.41 249.45 1362.2 252.257 1359.1 256.951L1351.3 268.864H1344.4C1340.79 268.864 1337.89 271.671 1337.8 275.268L1337.71 279.372H1307.5C1302.8 279.372 1298.41 281.271 1295.11 284.479L1285.01 294.587H1230.51L1216.91 268.864C1214.01 263.356 1208.31 259.959 1202.11 259.959H1165.5V246.95C1165.5 245.145 1164.01 243.647 1162.2 243.647H1160.8C1159 243.647 1157.5 245.145 1157.5 246.95V259.959H1127.1C1119.3 259.959 1112.99 253.649 1112.99 245.841V174.179C1112.99 169.379 1108.6 165.676 1103.9 166.678C1081.99 170.877 1065.5 190.196 1065.5 213.324C1065.5 213.419 1065.5 213.525 1065.5 213.725L1049.29 222.229C1039.6 227.336 1032.29 235.946 1028.9 246.254L1022.39 265.868C1020.09 272.673 1013.7 277.273 1006.59 277.273C989.492 277.273 973.49 285.682 963.793 299.788L947.791 322.905H897.994V311.795C897.994 309.896 896.497 308.386 894.588 308.386H889.887C887.99 308.386 886.481 309.884 886.481 311.795V323.105H849.387C844.391 323.105 839.583 320.9 836.39 316.996L817.595 294.08C814.39 290.176 809.7 287.97 804.598 287.97H793.993C790.093 287.97 786.298 286.472 783.494 283.665L759.09 259.947C756.086 257.046 751.985 255.347 747.79 255.347H710.295V225.72C710.295 223.42 708.398 221.521 706.1 221.521C698.606 221.521 692.502 227.631 692.502 235.132V245.346H669.406V226.428C669.406 220.519 664.611 215.813 658.801 215.813H608.604C602.5 215.813 596.809 219.115 593.804 224.423L577.307 253.449C575.61 256.35 572.605 258.154 569.212 258.154H558.807C555.908 258.154 553.41 255.855 553.304 252.847C549.404 183.485 495.506 127.627 427.103 120.527C419.303 119.725 412.397 125.835 412.397 133.643V165.074H392.896C384.494 165.074 376.894 170.382 374.101 178.39L365.499 202.816H342.498C337.502 202.816 332.894 205.918 331.103 210.624L314.901 251.656C313.405 255.56 309.599 258.166 305.298 258.166H285.301C282.803 258.166 280.706 256.562 279.904 254.262L278.808 251.16C277.713 247.858 274.507 245.558 271.008 245.558H252.107L243.611 195.409C242.916 191.01 239.11 187.908 234.715 187.908H208.72C205.221 187.908 202.016 189.913 200.519 193.109L193.52 208.017H165.016H162.612H127.308L126.507 186.398H144.713C155.907 186.398 165.016 177.293 165.016 166.077C165.016 163.069 162.612 160.675 159.619 160.675H125.517L124.716 139.056H144.713C155.907 139.056 165.016 129.951 165.016 118.735C165.016 115.727 162.612 113.333 159.619 113.333H123.715L123.019 91.6078H144.724C155.919 91.6078 165.027 82.5027 165.027 71.2864C165.027 68.2788 162.624 65.8846 159.631 65.8846H122.029L121.735 59.1736C121.134 43.1571 133.931 29.8414 149.933 29.8414H226.737C230.343 29.8414 233.642 28.143 235.74 25.2416C244.236 13.4355 235.834 0.214207 224.734 1.01622H0.200319L0 29.8414H37.601C53.603 29.8414 66.3998 43.1571 65.7988 59.1736L63.3007 126.932H0V228.126V260.961V425.939H1789V294.776V132.428H1730.2Z" fill="url(#paint0_linear_2599_6907)"/>
<defs>
<linearGradient id="paint0_linear_2599_6907" x1="894.464" y1="43.9619" x2="894.464" y2="332.272" gradientUnits="userSpaceOnUse">
<stop stop-color="#080628"/>
<stop offset="1" stop-color="#160E3F"/>
</linearGradient>
</defs>
</svg>
