<svg width="280" height="104" viewBox="0 0 280 104" fill="none" xmlns="http://www.w3.org/2000/svg">
<g clip-path="url(#clip0_109:22547)">
<path d="M70.8945 23.9978C73.4093 24.1491 75.921 24.2626 78.3918 24.8692C82.5492 25.8887 86.3077 27.6979 89.6158 30.386C94.8334 34.6215 98.2067 40.0355 99.6066 46.6006C100.648 51.4099 100.405 56.4077 98.9013 61.0938C97.3148 66.125 94.5027 70.3515 90.5744 73.8398C87.1495 76.8878 83.1696 78.9451 78.7103 80.0887C75.0888 81.0383 71.3115 81.2441 67.6077 80.6938C64.0342 80.1808 60.5896 79.0005 57.4546 77.2146C55.0125 75.8081 52.7816 74.0649 50.8279 72.0366C48.0978 69.22 46.1336 65.9283 44.7685 62.2812C43.505 58.9064 42.8619 55.3984 43.0242 51.8012C43.4292 42.8763 47.0709 35.5639 54.1587 30.0093C58.0279 26.9839 62.4417 25.208 67.2665 24.37C68.0703 24.2293 68.9349 24.4441 69.6826 23.9963L70.8945 23.9978ZM96.6141 49.0255C96.7559 48.4718 96.7279 47.8885 96.5337 47.3509C96.1863 46.3071 95.9528 45.2331 95.6115 44.1848C94.932 42.1574 93.9733 40.2341 92.763 38.4698C90.4226 34.99 87.2591 32.1383 83.5518 30.1666C80.6589 28.6027 77.4735 27.6511 74.195 27.3712C72.0085 27.161 69.8043 27.224 67.6335 27.5587C64.8422 28.0071 62.1448 28.9139 59.6509 30.2423C57.9695 31.161 56.3956 32.2629 54.958 33.5279C53.1863 35.0158 51.6358 36.7475 50.3532 38.671C48.3602 41.7342 47.0027 45.0788 46.5067 48.7471C46.1836 51.1326 46.3004 53.5091 46.4036 55.8916C46.4259 56.0916 46.4707 56.2885 46.537 56.4785C46.6371 56.8385 46.8404 56.9762 47.2059 56.7811C48.0356 56.3454 48.8425 55.8447 49.7146 55.521C50.3122 55.3107 50.3532 54.9628 50.3532 54.4621C50.3365 52.727 50.3456 50.9935 50.3441 49.2584C50.3441 48.9816 50.3289 48.7274 50.6323 48.5474C52.7254 47.3 54.8129 46.0429 56.8949 44.7763C57.133 44.6326 57.3105 44.6613 57.579 44.7763C58.944 45.3587 60.3486 45.8473 61.7015 46.4539C62.425 46.7791 62.4295 46.4539 62.425 45.9138C62.4098 44.6069 62.4356 43.2984 62.4098 41.9929C62.3992 41.4226 62.6449 41.0929 63.1682 40.9461C63.3563 40.8841 63.5349 40.7965 63.6991 40.6859C66.1532 39.205 68.6194 37.7468 71.0735 36.2658C71.4861 36.0178 71.8091 35.9966 72.2399 36.2658C73.5504 37.0903 74.8821 37.8784 76.2259 38.6483C77.5697 39.4183 78.7953 40.3577 80.2028 41.0202C80.4458 41.1261 80.6465 41.3097 80.7731 41.542C80.8997 41.7743 80.9451 42.0421 80.902 42.303C80.8156 43.1486 80.8717 44.0109 80.8869 44.864C80.8869 45.0153 80.7716 45.2785 81.1508 45.2346C82.4901 45.0834 83.793 44.7022 85.0852 44.383C86.2425 44.0971 87.1677 44.144 88.1673 44.7143C90.8974 46.2754 93.752 47.596 96.6141 49.0255ZM72.7101 38.8768C72.5281 40.043 72.6722 41.0702 72.6722 42.0958C72.6651 53.559 72.6651 65.0227 72.6722 76.487C72.6722 76.7638 72.6722 77.0406 72.6722 77.3159C72.6722 77.4914 72.6722 77.7153 72.9118 77.7123C73.4123 77.7123 73.9553 77.7682 74.4013 77.5973C74.7334 77.4702 74.5529 76.9589 74.5529 76.6216C74.561 69.3818 74.558 62.1416 74.5438 54.9008C74.5438 54.3244 74.7137 54.0506 75.2582 53.8857C76.2942 53.5696 77.3058 53.1763 78.3403 52.8586C78.7407 52.7346 78.9015 52.5773 78.8984 52.131C78.8741 49.5171 78.8256 46.9001 78.9166 44.2892C78.9591 43.079 78.6861 42.3227 77.5273 41.7358C75.8862 40.9144 74.3618 39.8812 72.7025 38.8768H72.7101ZM84.2237 74.4585C86.5914 73.115 88.7265 71.3998 90.5471 69.3788C90.7837 69.1171 90.7685 68.8327 90.7685 68.5362C90.7685 64.8453 90.7685 61.1528 90.7897 57.4618C90.7897 56.949 90.6092 56.7054 90.1618 56.5073C88.4418 55.7267 86.7385 54.9083 85.0276 54.1081C84.2177 53.7284 84.2116 53.7315 84.2116 54.6603C84.2116 60.6626 84.2116 66.663 84.2116 72.6614L84.2237 74.4585ZM92.7175 66.2702C93.6898 65.1917 94.3207 63.9558 94.8971 62.6881C96.429 59.3148 97.057 55.7585 97.0645 52.0781C97.0645 51.7332 96.9735 51.473 96.6095 51.296C93.7782 49.866 90.9536 48.4224 88.1354 46.9652C87.6668 46.7246 87.5363 46.8472 87.5424 47.3539C87.5656 49.1117 87.5656 50.8704 87.5424 52.6302C87.5424 53.0099 87.6531 53.2111 87.9974 53.3699C89.3519 53.9841 90.6805 54.6512 92.0395 55.2547C92.5431 55.4801 92.7251 55.757 92.719 56.3257C92.6993 59.6401 92.716 62.9559 92.716 66.2702H92.7175ZM60.3637 53.438C60.3486 53.7103 60.3288 53.9084 60.3288 54.1051C60.3288 60.6399 60.3561 67.1748 60.3061 73.7082C60.3061 74.8049 60.4942 75.4901 61.6712 75.7896C62.4432 75.9863 62.4174 76.0922 62.4174 75.2814C62.4174 69.5261 62.4174 63.7702 62.4174 58.0139C62.4174 56.9081 62.4174 55.8023 62.4174 54.6966C62.4174 54.4333 62.4948 54.1338 62.1141 54.0174C61.5362 53.8419 60.9704 53.6467 60.3637 53.438ZM58.1842 49.1692C58.1842 49.747 58.1842 50.3233 58.1842 50.8997C58.1842 51.2219 58.2767 51.4261 58.6149 51.2128C59.1579 50.8694 59.666 51.0328 60.1954 51.231C60.7596 51.4443 61.339 51.6197 61.9063 51.827C62.2506 51.9525 62.422 51.8966 62.4144 51.4866C62.3977 50.7091 62.3992 49.9316 62.4144 49.154C62.4309 49.0309 62.402 48.906 62.3331 48.8025C62.2642 48.699 62.1599 48.6239 62.0397 48.5913C60.891 48.1435 59.7479 47.6832 58.6104 47.2102C58.2585 47.0589 58.169 47.1724 58.1781 47.5128C58.1948 48.0664 58.1842 48.6185 58.1842 49.1692Z" fill="#9CB8E2"/>
<path d="M237 53.4204C233.663 53.4113 230.337 53.3796 227.004 53.4098C226.302 53.4098 226.043 53.2888 226.049 52.5234C226.087 48.4255 226.073 44.3291 226.057 40.2312C226.057 39.7033 226.157 39.4885 226.762 39.4945C229.842 39.5248 232.923 39.5157 236.002 39.4945C236.593 39.4945 236.824 39.6549 236.769 40.2645C236.728 40.8663 236.728 41.4703 236.769 42.0721C236.794 42.5713 236.665 42.7861 236.099 42.7695C234.582 42.7241 233.065 42.7937 231.549 42.7287C230.743 42.6939 230.815 43.1341 230.799 43.6635C230.783 44.2353 230.813 44.6014 231.576 44.5711C233.062 44.5076 234.555 44.5711 236.044 44.5394C236.545 44.5303 236.709 44.6906 236.687 45.1868C236.654 45.99 236.656 46.7963 236.687 47.6071C236.706 48.07 236.536 48.2213 236.081 48.2122C234.564 48.1925 233.047 48.2576 231.53 48.1895C230.543 48.1456 230.871 48.7855 230.798 49.2741C230.705 49.9034 231.027 49.9684 231.541 49.9624C233.361 49.9427 235.181 49.9624 237.001 49.9624L237 53.4204Z" fill="#9CB8E2"/>
<path d="M126.537 39.0786C130.823 39.0786 134.072 42.2749 134.055 46.4605C134.04 50.5978 130.706 53.8727 126.518 53.8727C122.017 53.8727 118.953 50.7672 118.935 46.2457C118.929 42.1735 122.367 38.9848 126.537 39.0786ZM126.449 49.0624C128.018 49.0624 129.073 48.0428 129.086 46.5104C129.101 44.7421 128.199 43.9903 125.992 43.9298C124.888 43.8995 123.929 45.0673 123.923 46.453C123.916 48.0912 124.857 49.0639 126.449 49.0654V49.0624Z" fill="#9CB8E2"/>
<path d="M178.602 64.3996C178.602 62.3635 178.62 60.3259 178.59 58.2898C178.581 57.662 178.795 57.4714 179.423 57.479C181.745 57.5107 184.07 57.479 186.392 57.4911C190.396 57.5228 192.069 60.6466 190.973 64.1348C190.789 64.7449 190.386 65.2661 189.841 65.5991C189.386 65.876 189.433 66.1135 189.705 66.4931C190.686 67.8546 191.642 69.2463 192.605 70.6258C192.731 70.8074 192.951 70.9843 192.852 71.2218C192.741 71.4896 192.453 71.3731 192.245 71.3731C190.729 71.3822 189.212 71.361 187.695 71.3822C187.507 71.396 187.32 71.3526 187.157 71.2578C186.995 71.163 186.865 71.0212 186.785 70.8512C186.198 69.8392 185.572 68.8514 185.006 67.8258C184.64 67.1587 184.072 67.4764 183.606 67.5006C183.14 67.5248 183.375 67.9801 183.365 68.2373C183.336 69.0405 183.328 69.8468 183.365 70.65C183.389 71.175 183.292 71.417 182.673 71.3837C181.592 71.3262 180.501 71.3383 179.418 71.3837C178.796 71.4094 178.578 71.2158 178.587 70.582C178.619 68.5217 178.599 66.4599 178.599 64.3981L178.602 64.3996ZM184.117 64.1122C185.241 64.1001 185.937 63.7491 186.033 63.1002C186.119 62.4951 186.254 61.831 185.708 61.3348C185.114 60.7948 184.37 60.8251 183.638 60.881C183.309 60.9022 183.363 61.1836 183.36 61.3984C183.36 62.0246 183.39 62.6524 183.345 63.2756C183.296 63.9337 183.477 64.2937 184.117 64.1122Z" fill="#9CB8E2"/>
<path d="M141.921 62.8415C141.921 61.2002 141.947 59.7465 141.909 58.2943C141.894 57.6892 142.035 57.4381 142.699 57.4775C143.655 57.5334 144.616 57.5062 145.581 57.4775C146.084 57.4623 146.274 57.5985 146.286 58.1506C146.38 62.4694 146.354 66.7881 146.275 71.1053C146.275 71.2929 146.365 71.5334 146.124 71.6393C145.883 71.7452 145.757 71.535 145.591 71.4336C143.024 69.8483 140.504 68.1904 138.008 66.4871C137.823 66.36 137.622 66.2556 137.278 66.0484C137.278 66.5022 137.278 66.8668 137.278 67.2253C137.278 68.381 137.266 69.5367 137.296 70.6909C137.308 71.181 137.216 71.4139 136.643 71.3867C135.635 71.3368 134.625 71.3565 133.617 71.3867C133.107 71.3988 132.913 71.2536 132.914 70.7015C132.933 66.3812 132.914 62.0609 132.914 57.7422C132.914 57.5712 132.857 57.3534 133.027 57.2551C133.3 57.0963 133.501 57.3368 133.699 57.4654C136.093 59.0355 138.485 60.6108 140.874 62.191C141.164 62.3801 141.464 62.5571 141.921 62.8415Z" fill="#9CB8E2"/>
<path d="M176.228 62.4936C176.228 63.8551 176.237 65.2074 176.228 66.5628C176.207 68.6246 175.371 70.2462 173.428 71.0736C170.719 72.2278 167.98 72.3337 165.39 70.7424C164.676 70.328 164.084 69.7338 163.673 69.0194C163.262 68.305 163.046 67.4954 163.048 66.6717C162.995 63.8082 163.034 60.9446 163.01 58.0811C163.01 57.6182 163.152 57.476 163.616 57.476C164.877 57.5002 166.14 57.5063 167.401 57.476C167.941 57.4624 168.082 57.6575 168.076 58.1718C168.051 60.4318 168.064 62.6933 168.065 64.9548C168.065 65.2573 168.065 65.5599 168.094 65.8624C168.214 67.0468 168.728 67.5264 169.821 67.4991C170.942 67.4689 171.49 66.9304 171.504 65.7293C171.531 63.2162 171.531 60.7041 171.504 58.193C171.504 57.6333 171.642 57.4579 172.215 57.4821C173.374 57.5274 174.537 57.5063 175.703 57.4911C176.119 57.4911 176.254 57.6121 176.243 58.0508C176.209 59.5287 176.228 61.0112 176.228 62.4936Z" fill="#9CB8E2"/>
<path d="M180.507 39.0635C183.442 39.121 185.699 40.2903 187.059 42.9784C187.32 43.4942 187.311 43.7635 186.683 43.9601C185.622 44.2929 184.598 44.7074 183.563 45.1037C183.163 45.255 182.937 45.1446 182.693 44.7921C182 43.7922 180.962 43.647 179.859 43.8346C178.814 44.0116 178.138 44.6469 177.888 45.6801C177.625 46.8055 177.78 47.8402 178.733 48.6147C179.63 49.3453 181.605 49.6146 182.662 48.1972C182.966 47.7933 183.242 47.7434 183.688 47.8947C184.716 48.2335 185.754 48.5451 186.8 48.8219C187.348 48.9732 187.414 49.2047 187.175 49.6827C186.47 51.117 185.326 52.2906 183.908 53.034C182.49 53.7774 180.872 54.0521 179.288 53.8184C176.316 53.3827 174.131 51.8655 173.295 48.9172C172.399 45.7739 173.001 42.9209 175.581 40.7169C176.978 39.5309 178.67 39.0529 180.507 39.0635Z" fill="#9CB8E2"/>
<path d="M103.267 47.0035C103.297 43.4169 104.612 41.0193 107.476 39.7774C110.401 38.5097 113.289 38.7185 115.818 40.8922C116.552 41.5215 117.031 42.3384 117.459 43.2006C117.644 43.5788 117.51 43.7573 117.166 43.8828C116.06 44.2882 114.946 44.6724 113.857 45.1157C113.357 45.3199 113.207 45.0234 112.966 44.7224C112.249 43.8284 110.982 43.5122 109.731 43.9448C108.695 44.3079 108.214 45.1081 108.126 46.1882C108.028 47.3454 108.376 48.2606 109.417 48.852C110.545 49.4949 112.02 49.3058 112.857 48.309C113.304 47.772 113.696 47.7599 114.286 47.9732C115.158 48.2893 116.06 48.5238 116.954 48.7779C117.724 48.9988 117.779 49.1077 117.409 49.8035C115.54 53.26 111.818 54.6789 108.005 53.4521C105.243 52.5612 103.168 49.8338 103.267 47.0035Z" fill="#9CB8E2"/>
<path d="M194.293 64.3875C194.293 62.303 194.306 60.217 194.282 58.1325C194.282 57.6454 194.41 57.476 194.913 57.479C198.068 57.4972 201.223 57.4972 204.378 57.479C204.91 57.479 205.085 57.6575 205.054 58.1764C205.02 58.8289 205.02 59.4828 205.054 60.1353C205.078 60.6724 204.846 60.8282 204.334 60.8191C202.817 60.7919 201.3 60.8282 199.793 60.7873C199.213 60.7707 199.065 60.9583 199.089 61.5134C199.133 62.5723 199.101 62.5723 200.199 62.5723C201.537 62.5723 202.876 62.5874 204.212 62.5632C204.713 62.5632 204.95 62.6797 204.918 63.2333C204.874 64.0112 204.87 64.7908 204.907 65.569C204.931 66.0878 204.768 66.2663 204.229 66.2542C202.741 66.2194 201.25 66.2875 199.764 66.2224C198.936 66.1861 199.127 66.6929 199.099 67.1391C199.072 67.5854 199.078 67.9454 199.743 67.9257C201.356 67.8788 202.972 67.9257 204.587 67.8985C205.051 67.8909 205.224 68.0347 205.212 68.4915C205.191 69.2705 205.188 70.0496 205.212 70.8286C205.224 71.2643 205.044 71.3792 204.628 71.3777C201.397 71.3671 198.167 71.3641 194.936 71.3777C194.355 71.3777 194.284 71.1085 194.288 70.632C194.305 68.5475 194.288 66.4614 194.288 64.3754L194.293 64.3875Z" fill="#9CB8E2"/>
<path d="M160.186 46.3865C160.186 44.3519 160.209 42.3158 160.172 40.2812C160.162 39.6958 160.309 39.4855 160.921 39.4901C164.027 39.5153 167.132 39.5153 170.237 39.4901C170.808 39.4901 170.996 39.6776 170.949 40.2358C170.911 40.8883 170.911 41.5423 170.949 42.1948C170.965 42.6168 170.823 42.7635 170.389 42.7575C168.9 42.7363 167.41 42.7696 165.922 42.7424C165.315 42.7318 164.92 42.7681 164.967 43.5577C165.005 44.2067 164.992 44.6272 165.877 44.5712C167.31 44.482 168.758 44.5621 170.192 44.541C170.647 44.541 170.826 44.6695 170.809 45.146C170.78 45.9236 170.771 46.7056 170.82 47.4816C170.856 48.0792 170.638 48.2788 170.049 48.2667C168.636 48.238 167.219 48.3061 165.802 48.235C164.938 48.1926 165 48.651 164.967 49.25C164.932 49.9156 165.237 49.9716 165.77 49.9625C167.31 49.9352 168.851 49.9761 170.39 49.9368C170.964 49.9216 171.14 50.1092 171.108 50.6598C171.071 51.3375 171.071 52.0167 171.108 52.6944C171.134 53.2012 170.976 53.4099 170.434 53.4084C167.23 53.3913 164.024 53.3913 160.817 53.4084C160.321 53.4084 160.171 53.2072 160.175 52.7262C160.196 50.6039 160.184 48.4921 160.186 46.3865Z" fill="#9CB8E2"/>
<path d="M120.139 64.4058C120.139 62.344 120.165 60.2821 120.124 58.2219C120.112 57.6032 120.31 57.4746 120.893 57.4791C123.999 57.5063 127.105 57.5063 130.21 57.4791C130.796 57.4791 130.959 57.6561 130.918 58.2067C130.87 58.8083 130.87 59.4128 130.918 60.0144C130.974 60.6452 130.667 60.8025 130.125 60.801C128.636 60.801 127.145 60.8373 125.657 60.7859C124.98 60.7632 124.851 61.0355 124.876 61.6194C124.898 62.1806 124.839 62.6435 125.681 62.6026C127.143 62.5346 128.61 62.6026 130.08 62.5724C130.617 62.5618 130.785 62.7388 130.761 63.2607C130.726 64.0382 130.733 64.8202 130.77 65.5978C130.791 66.0834 130.638 66.2618 130.133 66.2543C128.616 66.2286 127.099 66.28 125.582 66.2301C124.892 66.2059 124.874 66.5447 124.879 67.056C124.883 67.5673 124.857 67.953 125.605 67.9243C127.193 67.8668 128.79 67.9379 130.375 67.9031C130.965 67.891 131.117 68.1028 131.084 68.6474C131.041 69.3493 131.053 70.0542 131.072 70.7651C131.082 71.1993 130.952 71.3975 130.465 71.396C127.208 71.3793 123.943 71.3733 120.694 71.396C120.104 71.396 120.121 71.0737 120.121 70.6744C120.121 68.5884 120.121 66.5024 120.121 64.4164L120.139 64.4058Z" fill="#9CB8E2"/>
<path d="M212.741 71.8573C211.013 71.8678 209.445 71.4518 208.191 70.1933C208.138 70.1403 208.072 70.0995 208.021 70.042C206.915 68.8319 207.003 68.434 208.493 67.8713C208.728 67.782 208.957 67.6762 209.195 67.5899C209.917 67.3282 210.587 66.8911 211.167 67.9636C211.537 68.6503 212.668 68.7819 213.363 68.4703C213.728 68.3085 213.98 68.0574 213.991 67.6141C214.001 67.1709 213.754 66.9349 213.375 66.7716C212.756 66.5068 212.09 66.525 211.446 66.4282C209.019 66.0666 207.737 64.9427 207.476 62.8824C207.173 60.4908 208.347 58.305 210.496 57.5426C212.583 56.8029 214.699 56.7635 216.735 57.7997C217.56 58.2203 218.085 58.901 218.392 59.7663C218.526 60.1459 218.491 60.3713 218.072 60.5226C217.264 60.8009 216.46 61.0974 215.667 61.4181C215.323 61.5588 215.195 61.409 215.015 61.1519C214.51 60.4318 213.801 60.0839 212.92 60.273C212.465 60.3683 212.024 60.5392 211.998 61.1126C211.967 61.7585 212.483 61.884 212.938 62.0066C213.983 62.2879 215.078 62.3091 216.123 62.6207C217.658 63.0745 218.647 64.1894 218.854 65.69C219.345 69.3507 216.932 71.4216 213.813 71.7998C213.451 71.8467 213.1 71.8406 212.741 71.8573Z" fill="#9CB8E2"/>
<path d="M217.176 45.1339C217.804 43.414 218.398 41.8514 218.941 40.2721C219.131 39.7185 219.396 39.4674 220.021 39.487C221.358 39.5294 222.695 39.5097 224.033 39.5006C224.479 39.5006 224.64 39.5929 224.396 40.0588C222.563 43.5451 220.739 47.0359 218.923 50.5312C218.461 51.4192 218.001 52.3117 217.537 53.1996C217.422 53.419 217.331 53.6822 217.035 53.7124C216.698 53.7472 216.642 53.4402 216.525 53.2359C214.106 48.9838 211.799 44.6711 209.516 40.3462C209.104 39.5642 209.14 39.5067 209.99 39.5037C211.276 39.4961 212.568 39.54 213.85 39.4704C214.608 39.4311 214.924 39.7518 215.177 40.3931C215.787 41.93 216.457 43.4427 217.176 45.1339Z" fill="#9CB8E2"/>
<path d="M111.307 63.0397C111.914 61.3999 112.502 59.8827 113.015 58.3397C113.229 57.6968 113.512 57.4321 114.228 57.4714C115.46 57.5456 116.699 57.4911 117.935 57.4926C118.739 57.4926 118.751 57.5017 118.381 58.2142C116.683 61.4836 114.979 64.7516 113.268 68.018C112.712 69.0859 112.161 70.1554 111.6 71.2219C111.486 71.4412 111.403 71.712 111.081 71.6954C110.81 71.6802 110.72 71.4397 110.615 71.2491C109.25 68.7668 107.903 66.2693 106.52 63.7976C105.474 61.9324 104.518 60.0158 103.535 58.1249C103.288 57.6469 103.306 57.476 103.902 57.4866C105.39 57.5123 106.88 57.5062 108.368 57.4866C108.762 57.4866 108.939 57.6378 109.083 57.9888C109.69 59.4758 110.317 60.9507 110.946 62.427C111.055 62.6378 111.175 62.8423 111.307 63.0397V63.0397Z" fill="#9CB8E2"/>
<path d="M194.675 39.4961C196.518 39.4961 198.361 39.5157 200.202 39.4855C200.762 39.4764 200.969 39.6367 200.941 40.207C200.898 41.0587 200.909 41.9164 200.941 42.7695C200.954 43.1946 200.822 43.355 200.387 43.3202C199.533 43.2536 198.673 43.2385 197.819 43.1689C197.282 43.122 197.143 43.3202 197.146 43.8466C197.17 46.76 197.135 49.675 197.175 52.59C197.184 53.2783 196.962 53.4462 196.315 53.4174C195.232 53.369 194.144 53.372 193.061 53.4174C192.43 53.4431 192.239 53.2283 192.245 52.6036C192.274 49.7658 192.221 46.9249 192.282 44.0871C192.298 43.2687 192.025 43.1023 191.299 43.1795C190.498 43.2672 189.686 43.2672 188.883 43.3307C188.49 43.358 188.347 43.2233 188.361 42.8195C188.391 41.9406 188.399 41.0602 188.371 40.1828C188.355 39.6534 188.553 39.487 189.077 39.4945C190.939 39.5112 192.808 39.4961 194.675 39.4961Z" fill="#9CB8E2"/>
<path d="M152.247 66.236C152.247 64.7233 152.232 63.2197 152.256 61.7131C152.256 61.2502 152.118 61.0823 151.649 61.1261C150.847 61.2018 150.036 61.2018 149.236 61.3001C148.505 61.3878 148.305 61.0929 148.352 60.4152C148.409 59.6883 148.412 58.9582 148.363 58.2308C148.314 57.6031 148.572 57.4745 149.139 57.4745C152.324 57.4957 155.499 57.4881 158.679 57.4911C159.235 57.4911 159.791 57.5002 160.348 57.4821C160.739 57.4684 160.955 57.5532 160.935 58.0176C160.903 58.9252 160.909 59.8328 160.935 60.7298C160.95 61.2154 160.742 61.3349 160.301 61.2986C159.497 61.2305 158.689 61.2169 157.886 61.1322C157.28 61.0671 157.128 61.2729 157.128 61.8734C157.161 64.737 157.128 67.602 157.161 70.4655C157.17 71.1841 156.959 71.4306 156.225 71.3898C155.164 71.3293 154.102 71.349 153.04 71.3898C152.45 71.4095 152.198 71.29 152.229 70.6108C152.292 69.1571 152.248 67.6973 152.248 66.2406L152.247 66.236Z" fill="#9CB8E2"/>
<path d="M148.011 46.394C148.011 44.3337 148.031 42.2719 147.997 40.2116C147.988 39.6353 148.179 39.4719 148.731 39.4885C149.841 39.5218 150.953 39.5263 152.068 39.4885C152.729 39.4658 152.867 39.7593 152.863 40.3493C152.842 43.1644 152.877 45.9795 152.842 48.7947C152.842 49.427 153.06 49.551 153.63 49.5389C154.866 49.4996 156.106 49.5389 157.342 49.5056C157.914 49.4875 158.1 49.6826 158.068 50.2423C158.024 51.0697 158.03 51.9063 158.058 52.7292C158.073 53.1981 157.947 53.4099 157.431 53.4069C154.499 53.3867 151.57 53.3867 148.645 53.4069C148.144 53.4069 147.999 53.2148 148.003 52.7352C148.021 50.6175 148.011 48.5118 148.011 46.4V46.394Z" fill="#9CB8E2"/>
<path d="M135.765 46.4061C135.765 44.3216 135.78 42.2371 135.755 40.1526C135.755 39.6655 135.887 39.4809 136.388 39.493C137.548 39.5173 138.71 39.5203 139.869 39.493C140.442 39.4764 140.603 39.7003 140.598 40.2494C140.579 43.0887 140.598 45.9266 140.577 48.7644C140.577 49.3407 140.703 49.5722 141.325 49.5495C142.56 49.5026 143.797 49.5495 145.033 49.5177C145.633 49.498 145.846 49.7113 145.816 50.2998C145.767 51.077 145.767 51.8566 145.816 52.6339C145.866 53.2919 145.523 53.3993 145.006 53.3902C142.737 53.3751 140.467 53.361 138.196 53.3479C137.641 53.3479 137.086 53.3327 136.527 53.3585C135.969 53.3842 135.746 53.1936 135.746 52.5885C135.79 50.5267 135.766 48.4664 135.765 46.4061Z" fill="#9CB8E2"/>
<path d="M207.722 46.4696C207.722 48.5269 207.701 50.5857 207.734 52.6429C207.744 53.1618 207.593 53.3872 207.081 53.3857C205.821 53.3857 204.56 53.3857 203.298 53.3857C202.899 53.3857 202.725 53.2344 202.726 52.7987C202.738 48.5571 202.738 44.3155 202.726 40.0739C202.726 39.6715 202.838 39.4809 203.283 39.4885C204.567 39.5077 205.853 39.5077 207.14 39.4885C207.693 39.4809 207.73 39.791 207.728 40.2161C207.716 42.3021 207.722 44.3866 207.722 46.4696Z" fill="#9CB8E2"/>
</g>
<defs>
<clipPath id="clip0_109:22547">
<rect width="194" height="57" fill="white" transform="translate(43 24)"/>
</clipPath>
</defs>
</svg>
