<svg xmlns="http://www.w3.org/2000/svg" width="56" height="56" viewBox="0 0 56 56" fill="none"><path d="M51.3334 38.5H4.66669V50.1667H51.3334V38.5Z" fill="url(#paint0_linear)"></path><path d="M7.00002 31.5H49C50.2892 31.5 51.3334 32.4403 51.3334 33.6V39.9C51.3334 41.0597 50.2892 42 49 42H7.00002C5.71085 42 4.66669 41.0597 4.66669 39.9V33.6C4.66669 32.4403 5.71085 31.5 7.00002 31.5Z" fill="#AEA3FF"></path><path d="M46.0834 38.5H9.91669C8.95069 38.5 8.16669 37.716 8.16669 36.75C8.16669 35.784 8.95069 35 9.91669 35H46.0834C47.0494 35 47.8334 35.784 47.8334 36.75C47.8334 37.716 47.0494 38.5 46.0834 38.5Z" fill="#343434"></path><path d="M45.5 37.3333H10.5V11.6666C10.5 10.3775 11.5442 9.33331 12.8333 9.33331H43.1667C44.4558 9.33331 45.5 10.3775 45.5 11.6666V37.3333Z" fill="#AEEDE1"></path><path d="M39.6666 19.8333H35C34.356 19.8333 33.8333 19.3106 33.8333 18.6666V14C33.8333 13.356 34.356 12.8333 35 12.8333H39.6666C40.3106 12.8333 40.8333 13.356 40.8333 14V18.6666C40.8333 19.3106 40.3106 19.8333 39.6666 19.8333Z" fill="white"></path><path d="M39.6666 19.8334C39.368 19.8334 39.0693 19.719 38.8418 19.4915L34.1751 14.8249C33.719 14.3687 33.719 13.6314 34.1751 13.1752C34.6313 12.719 35.3686 12.719 35.8248 13.1752L40.4915 17.8419C40.9476 18.298 40.9476 19.0354 40.4915 19.4915C40.264 19.719 39.9653 19.8334 39.6666 19.8334Z" fill="#88D1C3"></path><path d="M35 19.8334C34.7013 19.8334 34.4026 19.719 34.1751 19.4915C33.719 19.0354 33.719 18.298 34.1751 17.8419L38.8418 13.1752C39.298 12.719 40.0353 12.719 40.4915 13.1752C40.9476 13.6314 40.9476 14.3687 40.4915 14.8249L35.8248 19.4915C35.5973 19.719 35.2986 19.8334 35 19.8334Z" fill="#88D1C3"></path><path d="M39.6666 31.5H35C34.356 31.5 33.8333 30.9773 33.8333 30.3333V25.6667C33.8333 25.0227 34.356 24.5 35 24.5H39.6666C40.3106 24.5 40.8333 25.0227 40.8333 25.6667V30.3333C40.8333 30.9773 40.3106 31.5 39.6666 31.5Z" fill="white"></path><path d="M45.5 35H10.5V37.3333H45.5V35Z" fill="#88D1C3"></path><path d="M15.6625 17.5H29.8375C30.1117 17.5 30.3334 17.2784 30.3334 17.0042V15.6625C30.3334 15.3884 30.1117 15.1667 29.8375 15.1667H15.6625C15.3884 15.1667 15.1667 15.3884 15.1667 15.6625V17.0042C15.1667 17.2784 15.3884 17.5 15.6625 17.5Z" fill="#88D1C3"></path><path d="M15.6625 29.1666H29.8375C30.1117 29.1666 30.3334 28.945 30.3334 28.6708V27.3291C30.3334 27.055 30.1117 26.8333 29.8375 26.8333H15.6625C15.3884 26.8333 15.1667 27.055 15.1667 27.3291V28.6708C15.1667 28.945 15.3884 29.1666 15.6625 29.1666Z" fill="#88D1C3"></path><defs><linearGradient id="paint0_linear" x1="18.4186" y1="50" x2="18.4186" y2="41" gradientUnits="userSpaceOnUse"><stop stop-color="#7068AA"></stop><stop offset="1" stop-color="#9084E7"></stop></linearGradient></defs></svg>