<svg xmlns="http://www.w3.org/2000/svg" width="56" height="56" viewBox="0 0 56 56" fill="none"><path d="M28 4.66669C25.4228 4.66669 23.3333 6.75619 23.3333 9.33335C23.3333 11.9105 25.4228 14 28 14C30.5771 14 32.6666 11.9105 32.6666 9.33335C32.6666 6.75619 30.5771 4.66669 28 4.66669ZM28 11.6667C26.7108 11.6667 25.6666 10.6225 25.6666 9.33335C25.6666 8.04419 26.7108 7.00002 28 7.00002C29.2891 7.00002 30.3333 8.04419 30.3333 9.33335C30.3333 10.6225 29.2891 11.6667 28 11.6667Z" fill="#50467D"></path><path d="M52.4615 46.2478L46.0729 11.2478C45.871 10.1383 44.905 9.33331 43.778 9.33331H12.222C11.095 9.33331 10.129 10.1383 9.9272 11.2478L3.53853 46.2478C3.4137 46.9291 3.59803 47.6303 4.04137 48.1623C4.4847 48.692 5.14153 49 5.83336 49H50.1667C50.8585 49 51.5154 48.692 51.9587 48.1611C52.402 47.6291 52.5864 46.9291 52.4615 46.2478Z" fill="url(#paint0_linear)"></path><path d="M52.4163 46L52.4615 46.2479C52.5864 46.9292 52.402 47.6292 51.9587 48.1612C51.5154 48.692 50.8585 49 50.1667 49H5.83336C5.14153 49 4.4847 48.692 4.04137 48.1624C3.59803 47.6304 3.4137 46.9292 3.53853 46.2479L3.58378 46H52.4163Z" fill="#7068AA"></path><path opacity="0.05" d="M29.3382 25.2233C27.363 24.4568 26.1625 23.9307 26.1625 23.0953C26.1625 22.8538 26.1625 22.12 27.9988 22.12C29.8585 22.12 31.3962 22.7115 32.1463 23.0638C32.7017 23.324 33.3375 23.2832 33.8532 22.9577C34.3618 22.6357 34.6651 22.0815 34.6651 21.4772V19.5568C34.6651 17.9958 33.7062 17.4545 33.2932 17.2947C32.4345 16.9598 31.3763 16.7428 30.0825 16.6367V15.6252C30.0825 14.7292 29.3533 14 28.4573 14H27.5403C26.6443 14 25.9152 14.7292 25.9152 15.6252V16.7685C22.9378 17.3763 20.097 19.369 20.097 23.4138C20.097 28.189 24.017 29.6403 26.8788 30.6997C28.665 31.3612 29.8352 31.843 29.8352 32.4975C29.8352 32.7787 29.8352 33.439 27.9988 33.439C25.6282 33.439 23.5492 32.4683 22.9682 32.1697C22.4222 31.892 21.7817 31.9142 21.259 32.2362C20.7317 32.5582 20.4167 33.1217 20.4167 33.74V35.9252C20.4167 36.8118 20.9475 37.6075 21.7653 37.9528C22.9752 38.4673 24.4673 38.8687 25.9163 39.081V40.3748C25.9163 41.2708 26.6455 42 27.5415 42H28.4585C29.3545 42 30.0836 41.2708 30.0836 40.3748V39.0647C34.3536 38.262 35.903 35.0058 35.903 32.3003C35.9018 27.7737 32.1078 26.299 29.3382 25.2233Z" fill="black"></path><path opacity="0.07" d="M29.127 25.7682C26.9279 24.9142 25.5792 24.3273 25.5792 23.0953C25.5792 21.8073 26.8952 21.5367 27.9989 21.5367C29.9705 21.5367 31.5992 22.162 32.3949 22.5353C32.7659 22.708 33.1964 22.6847 33.5405 22.4642C33.88 22.2483 34.0819 21.8797 34.0819 21.476V19.5557C34.0819 18.3983 33.4554 17.9818 33.082 17.836C32.1615 17.4778 30.9855 17.262 29.4992 17.178V15.6228C29.4992 15.0488 29.0325 14.581 28.4574 14.581H27.5404C26.9652 14.581 26.4985 15.0477 26.4985 15.6228V17.2538C23.5947 17.7007 20.6804 19.516 20.6804 23.4115C20.6804 27.7795 24.2294 29.0943 27.0819 30.1502C29.1504 30.9167 30.4185 31.4393 30.4185 32.4952C30.4185 32.872 30.4185 34.02 27.9989 34.02C25.4975 34.02 23.3124 33.0003 22.701 32.6865C22.3382 32.5022 21.9112 32.5162 21.5612 32.7308C21.2112 32.949 21 33.3247 21 33.74V35.9252C21 36.5773 21.3897 37.163 21.994 37.4162C23.2785 37.9622 24.9597 38.3892 26.4997 38.5688V40.3748C26.4997 40.9488 26.9664 41.4167 27.5415 41.4167H28.4585C29.0337 41.4167 29.5004 40.95 29.5004 40.3748V38.5677C33.782 37.9808 35.3197 34.8693 35.3197 32.3003C35.3185 28.1715 31.8862 26.8392 29.127 25.7682Z" fill="black"></path><path d="M34.7352 32.3015C34.7352 25.7052 24.9959 26.9932 24.9959 23.0953C24.9959 21.0607 27.2825 20.9533 27.9989 20.9533C29.7185 20.9533 31.3775 21.4142 32.6422 22.008C33.0412 22.1947 33.4985 21.9182 33.4985 21.4783V19.5592C33.4985 18.9152 33.2559 18.5337 32.8697 18.3832C32.0017 18.046 30.7569 17.7998 28.9147 17.7392V15.6263C28.9147 15.3732 28.7094 15.1678 28.4562 15.1678H27.5392C27.286 15.1678 27.0807 15.3732 27.0807 15.6263V17.773C24.2247 18.0518 21.2614 19.6642 21.2614 23.4162C21.2614 30.254 30.9995 28.8983 30.9995 32.4998C30.9995 33.6315 30.2762 34.608 27.9965 34.608C25.7052 34.608 23.5994 33.8077 22.4339 33.2115C22.0419 33.0108 21.5799 33.3013 21.5799 33.7423V35.9275C21.5799 36.3463 21.8319 36.7197 22.218 36.883C23.5994 37.4698 25.4509 37.9132 27.0795 38.0438V40.3783C27.0795 40.6315 27.2849 40.8368 27.538 40.8368H28.455C28.7082 40.8368 28.9135 40.6315 28.9135 40.3783V38.045C33.1905 37.6892 34.7352 34.8273 34.7352 32.3015Z" fill="white"></path><defs><linearGradient id="paint0_linear" x1="17.9397" y1="12.4558" x2="40.3605" y2="52.7545" gradientUnits="userSpaceOnUse"><stop stop-color="#7068AA"></stop><stop offset="1" stop-color="#9084E7"></stop></linearGradient></defs></svg>