<svg width="1789" height="455" viewBox="0 0 1789 455" fill="none" xmlns="http://www.w3.org/2000/svg">
<path d="M2153.84 233.92H2132.29C2132.08 233.28 2131.86 232.61 2131.64 232.03C2131.41 231.46 2131.33 231.18 2131.19 230.72C2130.84 229.75 2130.47 228.78 2130.09 227.84L2129.58 226.53C2129.34 225.94 2129.09 225.36 2128.86 224.79C2128.62 224.21 2128.48 223.93 2128.29 223.47C2127.91 222.62 2127.52 221.77 2127.13 220.93C2126.93 220.5 2126.72 220.07 2126.51 219.62C2126.3 219.17 2126.01 218.6 2125.75 218.1C2125.49 217.6 2125.08 216.79 2124.73 216.17C2124.37 215.56 2124.16 215.12 2123.86 214.61C2123.56 214.1 2123.36 213.73 2123.1 213.3L2122.37 212.07C2121.99 211.47 2121.61 210.92 2121.23 210.3C2121 209.96 2120.62 209.4 2120.4 209.04L2119.3 207.51C2119.01 207.09 2118.71 206.7 2118.41 206.29L2117.22 204.77L2116.51 203.92C2115.98 203.3 2115.47 202.71 2114.94 202.13C2114.73 201.9 2114.52 201.67 2114.29 201.45C2114.07 201.23 2113.48 200.61 2113.06 200.21C2112.86 200 2112.65 199.8 2112.44 199.6C2111.88 199.07 2111.3 198.54 2110.71 198.06L2110.14 197.56C2109.63 197.14 2109.1 196.73 2108.58 196.35L2108.17 196.04C2107.54 195.58 2106.86 195.16 2106.27 194.73L2105.71 194.39C2105.05 193.99 2104.4 193.61 2103.73 193.27L2103.45 193.14C2102.84 192.83 2102.22 192.55 2101.59 192.29L2101.09 192.08C2100.41 191.8 2099.78 191.56 2099.02 191.35L2098.6 191.21C2097.96 191.03 2097.29 190.87 2096.67 190.73C2096.56 190.72 2096.44 190.69 2096.32 190.65C2095.6 190.52 2094.88 190.4 2094.16 190.32H2093.66C2092.91 190.32 2092.17 190.21 2091.41 190.21C2090.65 190.21 2089.91 190.21 2089.16 190.32H2088.67C2087.94 190.4 2087.22 190.52 2086.5 190.65L2086.15 190.73C2085.51 190.87 2084.84 191.03 2084.22 191.21L2083.37 191.48C2082.82 191.65 2082.27 191.84 2081.73 192.08L2081.23 192.29C2080.6 192.55 2079.92 192.83 2079.37 193.14L2079.1 193.27C2078.43 193.61 2077.79 193.99 2077.12 194.39L2076.55 194.73C2075.91 195.13 2075.24 195.55 2074.65 196.04L2074.23 196.35C2073.72 196.73 2073.2 197.14 2072.69 197.56L2072.1 198.06C2071.52 198.54 2070.94 199.07 2070.38 199.6L2069.75 200.21C2069.32 200.61 2068.9 201.05 2068.49 201.48C2068.12 201.86 2068.09 201.91 2067.88 202.13C2067.35 202.71 2066.83 203.3 2066.32 203.92L2065.61 204.77L2064.41 206.29L2063.51 207.51L2062.5 208.94C2062.25 209.3 2062 209.66 2061.77 210.04C2061.32 210.69 2060.89 211.35 2060.46 212.07L2059.72 213.3C2059.46 213.73 2059.21 214.17 2058.96 214.61C2058.71 215.06 2058.37 215.64 2058.08 216.17C2057.8 216.71 2057.4 217.48 2057.06 218.1L2056.31 219.62C2056.1 220.04 2055.89 220.47 2055.7 220.93C2055.29 221.77 2054.91 222.62 2054.53 223.47C2054.33 223.91 2054.15 224.33 2053.97 224.79C2053.78 225.24 2053.48 225.94 2053.25 226.53C2053.01 227.12 2052.89 227.39 2052.72 227.84C2052.36 228.78 2051.99 229.75 2051.63 230.72C2051.48 231.14 2051.33 231.56 2051.18 232.03C2051.02 232.51 2050.74 233.28 2050.53 233.92H1985.8C1985.97 231.44 1986.1 228.93 1986.2 226.38V226.02C1986.27 223.51 1986.33 220.98 1986.33 218.41C1986.33 194.33 1982.6 172.53 1976.57 156.8C1970.54 141.07 1962.16 131.27 1952.98 131.27C1952.47 131.28 1951.94 131.32 1951.43 131.37H1950.99C1950.61 131.37 1950.23 131.5 1949.85 131.61L1949.41 131.71C1948.92 131.85 1948.42 132.02 1947.92 132.2L1947.79 132.27C1947.34 132.45 1946.9 132.66 1946.48 132.89L1946.02 133.14C1945.66 133.34 1945.31 133.55 1944.97 133.77L1944.54 134.06C1944.05 134.39 1943.59 134.73 1943.15 135.1L1942.86 135.33C1942.49 135.65 1942.13 135.96 1941.76 136.32L1941.27 136.79C1940.96 137.09 1940.66 137.4 1940.36 137.73C1940.05 138.06 1940.04 138.06 1939.9 138.23C1939.48 138.7 1939.06 139.19 1938.65 139.71C1938.51 139.88 1938.36 140.06 1938.23 140.25L1937.37 141.4C1937.28 141.53 1937.18 141.65 1937.09 141.78L1936.1 143.28L1935.58 144.08C1935.22 144.67 1934.85 145.27 1934.5 145.9L1933.97 146.86C1933.76 147.24 1933.55 147.62 1933.36 148.01C1933.16 148.4 1932.98 148.76 1932.78 149.14C1932.58 149.52 1932.41 149.87 1932.24 150.25C1932.07 150.63 1932.01 150.72 1931.9 150.96L1930.76 153.5L1930.17 154.94L1929.75 155.99C1929.55 156.49 1929.36 157 1929.17 157.51C1928.99 158.02 1928.92 158.19 1928.81 158.52C1928.14 160.38 1927.5 162.3 1926.89 164.3L1926.62 165.23C1926.42 165.86 1926.24 166.54 1926.07 167.15L1925.83 167.97C1925.24 170.16 1924.69 172.42 1924.18 174.74L1923.98 175.62C1923.83 176.35 1923.67 177.08 1923.52 177.83C1923.52 178.07 1923.43 178.32 1923.38 178.55C1923.05 180.23 1922.74 181.95 1922.45 183.69H1913.27C1908.36 183.7 1904.37 187.69 1904.36 192.6V233.92H1857.33V203.77C1857.33 202.66 1856.42 201.75 1855.31 201.75H1854.78C1850.08 201.75 1846.26 205.57 1846.26 210.27V233.92H1821.82V224.18C1821.82 218.77 1817.42 214.38 1812.01 214.38C1810.86 214.38 1809.79 214.85 1809.03 215.61C1808.27 216.37 1807.8 217.43 1807.8 218.59V233.92H1624.89L1601.12 233.97C1596.73 190.65 1593.44 143.33 1592.64 94.8401C1592.53 88.7801 1596.66 83.54 1602.52 81.99C1629.32 74.97 1650.64 54.4799 1658.88 28.2C1660.36 23.49 1664.76 20.3201 1669.7 20.3201H1688.62C1694.23 20.3201 1698.78 15.7699 1698.78 10.1599C1698.78 4.54991 1694.23 0 1688.62 0H1475.36C1469.75 0 1465.2 4.54991 1465.2 10.1599C1465.2 15.7699 1469.75 20.3201 1475.36 20.3201H1494.3C1499.24 20.3201 1503.64 23.49 1505.13 28.2C1513.36 54.47 1534.69 74.95 1561.48 81.99C1567.34 83.54 1571.46 88.7801 1571.36 94.8401C1570.56 143.36 1567.27 190.72 1562.87 234.05H1526.24L1524.36 234.13H1523.24L1521.43 234.22L1520.36 234.29L1518.58 234.42L1517.58 234.5L1515.78 234.66L1514.9 234.73L1513 234.93L1512.31 235.01L1510.17 235.27H1509.81C1506.37 235.73 1503.25 236.29 1500.21 236.95L1498.06 237.45H1497.94C1497.26 237.61 1496.63 237.78 1495.95 237.96H1495.82L1493.89 238.51H1493.8C1493.14 238.69 1492.49 238.9 1491.87 239.1V179.27C1491.87 174.65 1488.12 170.9 1483.5 170.9H1468.26C1452.29 170.9 1439.33 183.85 1439.33 199.83V239.68L1416.59 258.83C1410.47 263.98 1406.93 271.58 1406.93 279.58V293.33H1300.21C1300.2 291.09 1299.24 288.94 1297.59 287.42L1229.95 224.5C1228.42 222.96 1225.93 222.96 1224.39 224.5C1223.62 225.27 1223.2 226.33 1223.24 227.42V271.99C1223.24 276.24 1221.21 280.23 1217.79 282.75L1203.37 293.33H937.839C872.506 293.33 849.212 277.3 828.645 263.18C812.561 252.12 797.355 241.66 766.773 241.66H740.634L733.425 241.62V240.82C733.425 228.22 743.623 218.01 756.234 218.01H782.228C786.567 218.01 790.46 214.86 790.892 210.54C791.391 205.58 787.471 201.36 782.621 201.36H733.425V201.23C733.425 188.65 743.623 178.43 756.234 178.43H782.228C786.567 178.43 790.46 175.29 790.892 170.96C791.391 166.01 787.471 161.79 782.621 161.79H773.432C773.445 161.46 773.471 161.14 773.471 160.82C773.471 134.26 751.947 112.73 725.402 112.73C698.844 112.73 677.333 134.26 677.333 160.82C677.333 161.14 677.359 161.46 677.359 161.79H668.577C664.225 161.79 660.332 164.94 659.912 169.26C659.401 174.21 663.333 178.43 668.183 178.43H694.571C707.155 178.43 717.367 188.63 717.367 201.23V201.36H668.577C664.225 201.36 660.332 204.52 659.912 208.83C659.401 213.79 663.333 218.01 668.183 218.01H694.571C707.155 218.01 717.367 228.21 717.367 240.82V241.58H596.06V190.66C596.073 186.1 592.377 182.41 587.815 182.39C587.802 182.39 587.802 182.39 587.789 182.39C582.336 182.39 577.394 184.61 573.815 188.17C570.249 191.75 568.034 196.69 568.034 202.15V241.63H323.009C323.258 240.4 323.389 239.14 323.389 237.88C323.389 235.94 322.603 234.17 321.318 232.9C320.047 231.61 318.29 230.83 316.337 230.83H245.826V207.81H305.037C315.17 207.81 323.389 199.59 323.389 189.46C323.389 187.52 322.603 185.75 321.318 184.48C320.047 183.19 318.29 182.41 316.337 182.41H245.826V159.39H305.037C315.17 159.39 323.389 151.17 323.389 141.03C323.389 139.09 322.603 137.33 321.318 136.05C320.047 134.77 318.29 133.98 316.337 133.98H245.826V110.96H305.037C315.17 110.96 323.389 102.74 323.389 92.6101C323.376 88.7201 320.23 85.5701 316.337 85.5601H245.826V75.3C245.826 67.29 252.315 60.8 260.311 60.8L310.661 60.78C317.674 60.78 323.363 55.1001 323.363 48.0801C323.363 41.0701 317.674 35.3799 310.661 35.3799H136.265C129.252 35.3799 123.563 41.0701 123.563 48.0801C123.563 55.1001 129.252 60.78 136.265 60.78H185.986C194.886 63.1 200.012 69.7999 202.24 78.1899C202.358 78.6499 202.463 79.1201 202.568 79.5801C202.594 79.6701 202.62 79.7801 202.633 79.8701C202.725 80.3001 202.817 80.7399 202.896 81.1799C202.896 81.3099 202.896 81.4401 202.961 81.5701C203.04 81.9901 203.092 82.4299 203.158 82.8899V83.3601C203.158 83.7601 203.263 84.1801 203.302 84.6001V85.1001C203.302 85.5201 203.381 85.9399 203.394 86.4099V86.8701C203.459 88.1801 203.459 89.61 203.394 91V91.72C203.394 91.96 203.394 92.38 203.328 92.7C203.263 93.03 203.328 93.2901 203.263 93.5801L203.184 94.51C203.184 94.83 203.118 95.14 203.079 95.46L202.961 96.3301C202.961 96.6601 202.869 97.0001 202.817 97.3301C202.765 97.6601 202.738 97.8899 202.686 98.1699C202.633 98.4499 202.568 98.8499 202.502 99.1899L202.345 99.99C202.279 100.36 202.201 100.73 202.122 101.08C202.043 101.43 202.004 101.56 201.952 101.81C201.899 102.06 201.755 102.61 201.65 103.01C201.545 103.4 201.559 103.41 201.506 103.61C201.336 104.2 201.178 104.79 200.995 105.38C200.811 105.97 200.68 106.39 200.523 106.94L199.894 108.96V109.13L199.265 111.17C199.265 111.27 198.439 113.86 198.399 114.01C198.19 114.66 197.22 117.83 196.984 118.59C196.866 118.96 163.635 226.86 159.021 241.75L-121.541 241.59V182.6C-121.541 179.06 -124.412 176.19 -127.951 176.19H-131.346C-141.4 176.19 -150.38 182.48 -153.827 191.92L-167.998 230.75H-202.329C-211.23 230.75 -219.357 235.81 -223.303 243.78L-228.769 254.8C-232.4 262.24 -239.937 266.94 -248.209 266.96H-297.943V217.51C-297.943 205.73 -307.499 196.17 -319.283 196.17H-363V455H2153.84V311.68H2138.96C2139.2 309.91 2139.38 308.12 2139.57 306.32L2139.68 305.01C2139.82 303.63 2139.92 302.26 2140.01 300.85L2140.13 299.15C2140.21 297.84 2140.26 296.44 2140.31 295.07V293.43C2140.31 291.55 2140.41 289.66 2140.41 287.75V281.1C2140.41 279.79 2140.31 278.56 2140.25 277.3C2140.25 276.8 2140.25 276.33 2140.16 275.84C2140.08 274.53 2140 273.35 2139.91 272.12L2139.79 270.81C2139.67 269.5 2139.55 268.19 2139.41 266.97L2139.29 265.91C2139.13 264.6 2138.96 263.21 2138.78 261.88L2138.66 261.1C2138.47 259.67 2138.24 258.25 2138.01 256.85C2138.01 256.68 2138.01 256.52 2137.91 256.35C2137.67 254.84 2137.39 253.36 2137.1 251.91V251.67C2136.79 250.12 2136.46 248.58 2136.11 247.07H2153.84V233.92ZM-38.4721 306.28C-38.4459 312.23 -43.2567 317.08 -49.208 317.1H-110.753C-116.704 317.11 -121.528 312.28 -121.541 306.33C-121.541 306.33 -121.541 306.32 -121.541 306.31V254.74H-38.4721V306.28ZM152.113 263.84C151.982 264.28 151.838 264.74 151.694 265.15C151.182 266.82 150.658 268.5 150.134 270.18C149.78 271.35 149.426 272.5 149.059 273.65L147.997 277.1C146.568 281.7 145.166 286.25 143.763 290.76C143.763 290.9 143.671 291.06 143.619 291.21L137.733 310.21C137.563 310.79 137.379 311.38 137.196 311.96L130.458 333.7L121.347 324.08C117.113 319.61 111.228 317.08 105.067 317.08H44.4132V274.82C44.4132 269.52 40.1267 265.24 34.8309 265.24H9.51831V254.75H154.931C154.001 257.78 153.057 260.81 152.113 263.84ZM568.021 263.34H549.276C541.843 263.34 535.407 268.49 533.781 275.74L513.529 365.48C510.789 377.75 499.883 386.48 487.312 386.45H245.826V353.08H305.037C315.17 353.08 323.389 344.86 323.389 334.73C323.389 332.79 322.603 331.02 321.318 329.75C320.047 328.46 318.29 327.67 316.337 327.67H245.826V304.66H305.037C315.17 304.66 323.389 296.44 323.389 286.3C323.389 284.36 322.603 282.59 321.318 281.32C320.047 280.04 318.29 279.25 316.337 279.25H245.826V256.23H305.037C307.528 256.23 310.005 255.73 312.299 254.74H568.021V263.34ZM695.331 370.36C692.408 366.08 690.848 361.02 690.848 355.83V333C690.848 327.67 686.535 323.36 681.213 323.36H680.191C678.552 323.36 677.228 324.67 677.215 326.31C677.215 326.32 677.215 326.34 677.215 326.34V363.79H641.507V340.51C641.494 333.84 637.863 327.7 632.03 324.48L596.047 304.66V254.74H717.354V388.62H707.797L695.331 370.36ZM878.943 318.25L848.059 328.11C838.359 331.2 831.765 340.21 831.752 350.39V388.58H810.778V348.48C810.778 341.96 805.495 336.68 798.981 336.68H794.235V316.14C794.248 308.33 787.917 301.99 780.104 301.98C780.091 301.98 780.091 301.98 780.078 301.98H771.649C768.647 301.98 766.222 304.42 766.222 307.41V388.62H733.425V254.75H740.792V254.74H766.93C793.436 254.74 805.771 263.22 821.383 273.96L823.677 275.54L824.254 275.93L826.22 277.25L826.81 277.64C828.553 278.79 830.336 279.96 832.132 281.13H832.224C833.102 281.68 834.007 282.24 834.924 282.79L835.252 283C838.188 284.78 841.321 286.55 844.677 288.24H844.769C845.896 288.82 847.049 289.38 848.242 289.95C851.847 291.67 855.741 293.32 860.04 294.86C864.261 296.41 868.823 297.85 873.791 299.16H873.961C875.6 299.6 877.291 300.02 879.021 300.47L878.943 318.25ZM1103.85 338.48C1093.56 338.46 1083.86 343.26 1077.63 351.45L1043.31 396.73H933.435V359.12C933.435 357.65 932.858 356.24 931.823 355.19C930.852 354.23 929.555 353.67 928.191 353.6C925.019 353.56 922.424 356.11 922.384 359.28V396.73H895.42V303.66C896.914 303.88 898.422 304.08 899.982 304.26H900.113C901.62 304.45 903.141 304.62 904.701 304.77H905.12C906.589 304.93 908.096 305.08 909.617 305.21L910.442 305.27L914.755 305.6L916.066 305.68L920.09 305.91L922.175 305.99L925.714 306.14C926.736 306.14 927.785 306.14 928.834 306.22L931.613 306.28H1195.4L1195.52 338.48H1103.85ZM1406.86 373.13H1300.15V306.44H1406.86V373.13ZM1523.06 310.7C1519.83 310.7 1516.87 312.47 1515.34 315.3C1515.21 315.55 1515.08 315.8 1514.97 316.06C1514.51 317.14 1514.28 318.3 1514.28 319.47V379.03H1491.62V253.07L1493.26 252.43L1493.6 252.31C1495.23 251.72 1496.99 251.17 1498.85 250.67L1499.67 250.45L1501.32 250.05L1502.41 249.81C1503.29 249.61 1504.18 249.43 1505.11 249.26L1506.61 248.98L1508.11 248.73L1510.08 248.45L1511.47 248.26C1512.45 248.13 1513.45 248.03 1514.49 247.91L1515.8 247.79L1518.42 247.57L1519.58 247.48L1523.41 247.25H1524.37L1527.72 247.15C1527.72 247.15 1542.97 247.15 1561.47 247.14C1555.8 299.43 1548.67 345.19 1542.71 379.07H1531.8V319.47C1531.81 314.63 1527.9 310.71 1523.06 310.7ZM1807.78 258.23C1805.26 259.37 1802.83 260.68 1800.5 262.16C1798.21 263.63 1796.02 265.24 1793.95 267.01L1793.74 267.18C1792.29 268.42 1790.92 269.73 1789.61 271.11L1789.27 271.48C1788.87 271.9 1788.49 272.32 1788.11 272.79L1787.72 273.25C1786.97 274.1 1786.24 274.99 1785.54 275.87L1785.36 276.11C1785.06 276.5 1784.77 276.9 1784.47 277.31L1783.91 278.1L1783.11 279.28C1782.9 279.59 1782.7 279.92 1782.49 280.25C1782.12 280.82 1781.76 281.41 1781.41 282.02C1781.18 282.41 1780.94 282.82 1780.72 283.22L1780.26 284.08L1779.62 285.39C1779.42 285.79 1779.21 286.17 1779.03 286.58C1778.7 287.27 1778.37 287.98 1778.07 288.69L1777.77 289.44C1777.55 289.97 1777.32 290.52 1777.13 291.08C1777.01 291.39 1776.89 291.69 1776.79 292.01C1776.59 292.56 1776.41 293.11 1776.22 293.67C1776.14 293.93 1776.05 294.18 1775.97 294.44C1775.73 295.23 1775.5 296.03 1775.29 296.84C1775.29 297.07 1775.17 297.3 1775.12 297.52C1774.97 298.15 1774.82 298.78 1774.69 299.41C1774.69 299.7 1774.57 299.98 1774.52 300.25C1774.38 300.96 1774.24 301.67 1774.14 302.37C1774.14 302.53 1774.14 302.69 1774.06 302.85C1773.93 303.71 1773.81 304.58 1773.72 305.47V306.19C1773.72 306.86 1773.6 307.5 1773.56 308.22V311.71H1754.32C1745.55 311.72 1737.38 316.17 1732.6 323.51L1693.82 382.8H1621.91C1615.81 348.57 1608.37 301.37 1602.48 247.11C1616.18 247.1 1626.25 247.1 1626.25 247.08H1807.78V258.23ZM1846.24 254.67C1845.19 254.41 1844.11 254.17 1843.02 253.98L1842.46 253.87C1841.57 253.72 1840.68 253.57 1839.84 253.45L1839 253.35C1838.12 253.27 1837.26 253.19 1836.38 253.11L1835.5 253.05C1834.39 253.05 1833.26 252.94 1832.12 252.94C1831.19 252.94 1830.27 252.94 1829.35 253.01C1828.78 253.01 1828.21 253.09 1827.64 253.13L1826.74 253.2C1825.98 253.27 1825.25 253.36 1824.5 253.45H1824.24C1823.43 253.57 1822.6 253.69 1821.8 253.83V247.03H1846.25L1846.24 254.67ZM1904.39 311.68H1890.84C1890.84 310.78 1890.84 309.87 1890.78 308.98V308.22C1890.78 307.51 1890.73 306.82 1890.62 306.14V305.48C1890.53 304.6 1890.43 303.74 1890.29 302.86C1890.29 302.68 1890.23 302.49 1890.2 302.32C1890.1 301.61 1889.97 300.93 1889.84 300.24L1889.68 299.46C1889.52 298.74 1889.36 298.02 1889.18 297.3C1889.18 297.17 1889.18 297.04 1889.09 296.92C1888.87 296.1 1888.64 295.28 1888.39 294.47L1888.16 293.75C1887.96 293.13 1887.76 292.54 1887.55 291.94C1887.46 291.7 1887.37 291.46 1887.29 291.22C1887 290.43 1886.7 289.66 1886.37 288.9C1886.31 288.74 1886.23 288.58 1886.16 288.41L1885.34 286.59L1884.95 285.79C1884.68 285.24 1884.41 284.7 1884.12 284.17C1884 283.94 1883.9 283.73 1883.77 283.51C1883.39 282.82 1882.99 282.12 1882.59 281.44C1882.43 281.19 1882.27 280.94 1882.13 280.69C1881.83 280.23 1881.54 279.76 1881.22 279.3L1880.69 278.5C1880.33 277.97 1879.95 277.46 1879.58 276.94L1878.94 276.08L1877.81 274.65L1877.13 273.84C1876.82 273.46 1876.49 273.09 1876.16 272.72C1875.84 272.36 1875.7 272.2 1875.47 271.95C1874.97 271.4 1874.46 270.86 1873.93 270.32L1873.17 269.59L1872.16 268.62C1871.88 268.36 1871.59 268.08 1871.29 267.83C1870.99 267.58 1870.59 267.22 1870.24 266.92C1869.88 266.61 1869.41 266.22 1869.01 265.89L1867.7 264.87L1866.71 264.15L1865.69 263.43L1864.67 262.72L1863.36 261.88L1861.82 260.95L1860.72 260.32L1859.59 259.72L1858.49 259.16L1857.38 258.61V247.03H1904.46L1904.39 311.68ZM2045.89 251.63H2045.87C2045.85 251.71 2045.85 251.79 2045.87 251.87C2045.58 253.32 2045.3 254.8 2045.04 256.31L2044.96 256.81C2044.73 258.21 2044.5 259.63 2044.31 261.06L2044.19 261.84C2044 263.15 2043.83 264.46 2043.68 265.87L2043.56 266.93C2043.41 268.24 2043.3 269.47 2043.18 270.77L2043.06 272.08C2042.97 273.31 2042.88 274.56 2042.81 275.8C2042.81 276.22 2042.81 276.62 2042.73 277.04C2042.73 278.2 2042.59 280.1 2042.55 281.26V287.71C2042.55 289.46 2042.55 291.51 2042.64 293.4V295.03C2042.64 296.34 2042.76 297.76 2042.84 299.11L2042.96 300.81C2043.05 302.22 2043.15 303.59 2043.28 304.97L2043.4 306.28C2043.57 308.08 2043.77 309.87 2043.99 311.64H2022.49V259.69C2022.49 255.42 2019.9 251.58 2015.94 249.98L2008.59 247.03H2046.89C2046.53 248.6 2046.19 250.08 2045.89 251.63Z" fill="url(#paint0_linear_2681_6187)"/>
<defs>
<linearGradient id="paint0_linear_2681_6187" x1="894.309" y1="145" x2="895.309" y2="455" gradientUnits="userSpaceOnUse">
<stop stop-color="#EBF0FF"/>
<stop offset="1" stop-color="white"/>
</linearGradient>
</defs>
</svg>
