<svg width="1789" height="455" viewBox="0 0 1789 455" fill="none" xmlns="http://www.w3.org/2000/svg">
<path d="M2153.53 233.922H2131.98C2131.77 233.28 2131.55 232.611 2131.33 232.034C2131.1 231.458 2131.02 231.182 2130.88 230.724C2130.53 229.754 2130.16 228.783 2129.78 227.84L2129.27 226.529C2129.03 225.939 2128.78 225.362 2128.55 224.785C2128.31 224.209 2128.17 223.933 2127.98 223.474C2127.6 222.622 2127.21 221.77 2126.82 220.932C2126.62 220.499 2126.41 220.066 2126.2 219.621C2125.99 219.175 2125.7 218.598 2125.44 218.1C2125.18 217.602 2124.77 216.789 2124.42 216.173C2124.06 215.557 2123.85 215.124 2123.55 214.613C2123.25 214.102 2123.05 213.735 2122.79 213.302L2122.06 212.07C2121.68 211.467 2121.3 210.917 2120.92 210.3C2120.69 209.96 2120.31 209.396 2120.09 209.042L2118.99 207.508C2118.7 207.089 2118.4 206.696 2118.1 206.289L2116.91 204.769L2116.2 203.917C2115.67 203.3 2115.16 202.711 2114.62 202.134C2114.42 201.898 2114.21 201.675 2113.98 201.452C2113.76 201.229 2113.17 200.613 2112.75 200.207C2112.55 199.997 2112.34 199.8 2112.13 199.604C2111.57 199.066 2110.99 198.542 2110.4 198.057L2109.83 197.559C2109.32 197.139 2108.79 196.733 2108.27 196.353L2107.86 196.038C2107.23 195.579 2106.55 195.16 2105.96 194.727L2105.4 194.387C2104.74 193.993 2104.09 193.613 2103.42 193.272L2103.14 193.141C2102.53 192.827 2101.91 192.551 2101.28 192.289L2100.78 192.08C2100.1 191.804 2099.47 191.555 2098.71 191.346L2098.29 191.214C2097.65 191.031 2096.98 190.874 2096.36 190.729C2096.25 190.716 2096.13 190.69 2096.01 190.651C2095.29 190.52 2094.57 190.402 2093.85 190.323H2093.35C2092.6 190.323 2091.86 190.205 2091.1 190.205C2090.33 190.205 2089.6 190.205 2088.85 190.323H2088.36C2087.63 190.402 2086.91 190.52 2086.19 190.651L2085.84 190.729C2085.2 190.874 2084.53 191.031 2083.91 191.214L2083.06 191.477C2082.51 191.647 2081.96 191.844 2081.42 192.08L2080.92 192.289C2080.29 192.551 2079.61 192.827 2079.06 193.141L2078.79 193.272C2078.12 193.613 2077.48 193.993 2076.81 194.387L2076.24 194.727C2075.6 195.134 2074.93 195.553 2074.34 196.038L2073.92 196.353C2073.41 196.733 2072.89 197.139 2072.38 197.559L2071.79 198.057C2071.21 198.542 2070.63 199.066 2070.07 199.604L2069.44 200.207C2069.01 200.613 2068.59 201.046 2068.18 201.478C2067.81 201.859 2067.78 201.911 2067.57 202.134C2067.04 202.711 2066.52 203.3 2066.01 203.917L2065.3 204.769L2064.1 206.289L2063.2 207.508L2062.19 208.937C2061.94 209.304 2061.69 209.658 2061.46 210.038C2061.01 210.694 2060.58 211.349 2060.15 212.07L2059.41 213.302C2059.15 213.735 2058.9 214.167 2058.65 214.613C2058.4 215.059 2058.06 215.636 2057.77 216.173C2057.48 216.711 2057.09 217.484 2056.75 218.1L2056 219.621C2055.79 220.04 2055.58 220.473 2055.39 220.932C2054.98 221.77 2054.6 222.622 2054.22 223.474C2054.02 223.907 2053.84 224.327 2053.66 224.785C2053.47 225.244 2053.17 225.939 2052.94 226.529C2052.7 227.119 2052.58 227.394 2052.41 227.84C2052.04 228.783 2051.68 229.754 2051.32 230.724C2051.17 231.143 2051.02 231.562 2050.87 232.034C2050.71 232.506 2050.43 233.28 2050.22 233.922H1985.49C1985.66 231.445 1985.79 228.928 1985.89 226.385V226.018C1985.96 223.514 1986.02 220.984 1986.02 218.415C1986.02 194.334 1982.29 172.535 1976.26 156.804C1970.23 141.074 1961.84 131.269 1952.67 131.269C1952.16 131.282 1951.63 131.321 1951.12 131.374H1950.68C1950.3 131.374 1949.92 131.505 1949.54 131.61L1949.1 131.715C1948.61 131.846 1948.11 132.016 1947.61 132.2L1947.48 132.265C1947.03 132.449 1946.59 132.659 1946.17 132.894L1945.71 133.144C1945.35 133.34 1945 133.55 1944.66 133.773L1944.23 134.061C1943.74 134.389 1943.28 134.73 1942.84 135.097L1942.55 135.333C1942.18 135.647 1941.81 135.962 1941.45 136.316L1940.96 136.788C1940.65 137.089 1940.35 137.404 1940.05 137.732C1939.74 138.059 1939.73 138.059 1939.59 138.23C1939.17 138.702 1938.75 139.187 1938.34 139.711C1938.2 139.881 1938.05 140.065 1937.92 140.248L1937.06 141.402C1936.96 141.533 1936.87 141.651 1936.78 141.782L1935.79 143.276L1935.27 144.076C1934.91 144.666 1934.54 145.269 1934.19 145.898L1933.66 146.855C1933.45 147.235 1933.24 147.615 1933.05 148.009C1932.85 148.402 1932.67 148.756 1932.47 149.136C1932.27 149.516 1932.1 149.87 1931.93 150.25C1931.76 150.63 1931.7 150.722 1931.59 150.958L1930.45 153.501L1929.86 154.943L1929.44 155.992C1929.24 156.49 1929.05 157.001 1928.86 157.512C1928.68 158.024 1928.61 158.194 1928.5 158.522C1927.83 160.383 1927.19 162.297 1926.58 164.303L1926.31 165.233C1926.11 165.862 1925.93 166.544 1925.76 167.147L1925.52 167.973C1924.93 170.162 1924.38 172.417 1923.87 174.737L1923.67 175.615C1923.52 176.349 1923.36 177.083 1923.21 177.831C1923.21 178.067 1923.12 178.316 1923.07 178.552C1922.74 180.229 1922.43 181.947 1922.14 183.69H1912.96C1908.05 183.703 1904.06 187.688 1904.05 192.604V233.922H1857.02V203.772C1857.02 202.658 1856.11 201.754 1855 201.754H1854.47C1849.77 201.754 1845.95 205.568 1845.95 210.274V233.922H1821.5V224.182C1821.5 218.769 1817.11 214.377 1811.7 214.377C1810.55 214.377 1809.48 214.849 1808.72 215.609C1807.96 216.37 1807.49 217.431 1807.49 218.585V233.922H1624.58L1600.81 233.974C1596.42 190.651 1593.13 143.329 1592.33 94.8404C1592.22 88.7842 1596.35 83.5407 1602.21 81.9939C1629.01 74.9678 1650.33 54.4791 1658.57 28.1965C1660.05 23.4905 1664.45 20.3182 1669.39 20.3182H1688.31C1693.92 20.3182 1698.47 15.7696 1698.47 10.1591C1698.47 4.54867 1693.92 0 1688.31 0H1475.05C1469.44 0 1464.89 4.54867 1464.89 10.1591C1464.89 15.7696 1469.44 20.3182 1475.05 20.3182H1493.99C1498.93 20.3182 1503.33 23.4905 1504.82 28.1965C1513.05 54.466 1534.38 74.9547 1561.17 81.9939C1567.03 83.5407 1571.14 88.7842 1571.05 94.8404C1570.25 143.355 1566.96 190.716 1562.56 234.053H1525.93L1524.05 234.132H1522.93L1521.12 234.224L1520.05 234.289L1518.26 234.42L1517.27 234.499L1515.47 234.656L1514.59 234.735L1512.69 234.931L1512 235.01L1509.86 235.272H1509.5C1506.06 235.731 1502.94 236.295 1499.9 236.95L1497.75 237.448H1497.63C1496.95 237.606 1496.32 237.776 1495.64 237.959H1495.51L1493.58 238.51H1493.49C1492.83 238.694 1492.18 238.903 1491.56 239.1V179.272C1491.56 174.645 1487.81 170.896 1483.19 170.896H1467.95C1451.97 170.896 1439.02 183.847 1439.02 199.827V239.677L1416.28 258.828C1410.16 263.98 1406.62 271.583 1406.62 279.579V293.33H1299.9C1299.89 291.088 1298.93 288.939 1297.28 287.418L1229.64 224.497C1228.11 222.963 1225.62 222.963 1224.08 224.497C1223.31 225.27 1222.89 226.332 1222.93 227.42V271.989C1222.93 276.236 1220.9 280.235 1217.48 282.751L1203.06 293.33H937.53C872.197 293.33 848.903 277.298 828.336 263.18C812.252 252.117 797.046 241.656 766.464 241.656H740.325L733.115 241.617V240.817C733.115 228.22 743.314 218.008 755.924 218.008H781.919C786.258 218.008 790.151 214.862 790.583 210.536C791.081 205.581 787.162 201.36 782.312 201.36H733.115V201.229C733.115 188.645 743.314 178.434 755.924 178.434H781.919C786.258 178.434 790.151 175.287 790.583 170.962C791.081 166.007 787.162 161.786 782.312 161.786H773.123C773.136 161.458 773.162 161.143 773.162 160.816C773.162 134.258 751.638 112.734 725.093 112.734C698.535 112.734 677.024 134.258 677.024 160.816C677.024 161.143 677.05 161.458 677.05 161.786H668.267C663.915 161.786 660.022 164.945 659.603 169.258C659.092 174.213 663.024 178.434 667.874 178.434H694.262C706.846 178.434 717.057 188.632 717.057 201.229V201.36H668.267C663.915 201.36 660.022 204.52 659.603 208.832C659.092 213.787 663.024 218.008 667.874 218.008H694.262C706.846 218.008 717.057 228.207 717.057 240.817V241.577H595.751V190.664C595.764 186.102 592.068 182.405 587.506 182.392C587.493 182.392 587.493 182.392 587.479 182.392C582.026 182.392 577.084 184.608 573.506 188.173C569.94 191.752 567.725 196.694 567.725 202.147V241.63H322.7C322.949 240.398 323.08 239.139 323.08 237.881C323.08 235.941 322.294 234.171 321.009 232.9C319.737 231.615 317.981 230.828 316.028 230.828H245.517V207.81H304.728C314.861 207.81 323.08 199.591 323.08 189.458C323.08 187.518 322.294 185.748 321.009 184.477C319.737 183.192 317.981 182.405 316.028 182.405H245.517V159.387H304.728C314.861 159.387 323.08 151.168 323.08 141.035C323.08 139.095 322.294 137.325 321.009 136.054C319.737 134.769 317.981 133.982 316.028 133.982H245.517V110.964H304.728C314.861 110.964 323.08 102.745 323.08 92.6119C323.067 88.7187 319.921 85.5726 316.028 85.5595H245.517V75.2955C245.517 67.2862 252.006 60.7974 260.002 60.7974L310.352 60.7843C317.365 60.7843 323.054 55.0952 323.054 48.0821C323.054 41.0691 317.365 35.38 310.352 35.38H135.956C128.943 35.38 123.253 41.0691 123.253 48.0821C123.253 55.0952 128.943 60.7843 135.956 60.7843H185.676C194.577 63.1045 199.702 69.803 201.931 78.1925C202.049 78.6513 202.154 79.1232 202.259 79.582C202.285 79.6738 202.311 79.7786 202.324 79.8704C202.416 80.3029 202.508 80.7355 202.586 81.1812C202.586 81.3123 202.586 81.4434 202.652 81.5745C202.731 81.9939 202.783 82.4265 202.849 82.8853V83.3573C202.849 83.7636 202.953 84.1831 202.993 84.6026V85.1007C202.993 85.5201 203.071 85.9396 203.084 86.4115V86.8704C203.15 88.1812 203.15 89.61 203.084 90.9995V91.7205C203.084 91.9565 203.084 92.376 203.019 92.7037C202.953 93.0314 203.019 93.2935 202.953 93.5819L202.875 94.5127C202.875 94.8273 202.809 95.1418 202.77 95.4564L202.652 96.3347C202.652 96.6624 202.56 97.0033 202.508 97.331C202.455 97.6587 202.429 97.8947 202.377 98.1699C202.324 98.4452 202.259 98.8515 202.193 99.1924L202.036 99.992C201.97 100.359 201.892 100.726 201.813 101.08C201.734 101.434 201.695 101.565 201.643 101.814C201.59 102.063 201.446 102.614 201.341 103.007C201.236 103.4 201.249 103.413 201.197 103.61C201.026 104.2 200.869 104.79 200.686 105.38C200.502 105.97 200.371 106.389 200.214 106.94L199.584 108.958V109.129L198.955 111.174C198.955 111.265 198.129 113.861 198.09 114.005C197.88 114.66 196.91 117.833 196.674 118.593C196.556 118.96 163.326 226.856 158.712 241.748L-121.85 241.59V182.602C-121.85 179.063 -124.721 176.192 -128.26 176.192H-131.655C-141.71 176.192 -150.689 182.484 -154.137 191.922L-168.307 230.75H-202.638C-211.539 230.75 -219.666 235.81 -223.612 243.78L-229.078 254.804C-232.709 262.236 -240.247 266.942 -248.518 266.956H-298.252V217.51C-298.252 205.726 -307.808 196.169 -319.593 196.169H-363.31V455H2153.53V311.682H2138.65C2138.89 309.912 2139.07 308.116 2139.26 306.32L2139.37 305.01C2139.5 303.633 2139.61 302.257 2139.7 300.854L2139.82 299.15C2139.9 297.839 2139.95 296.437 2140 295.073V293.435C2140 291.547 2140.09 289.66 2140.09 287.746V281.1C2140.09 279.789 2140 278.557 2139.94 277.298C2139.94 276.8 2139.94 276.328 2139.85 275.843C2139.77 274.532 2139.69 273.353 2139.6 272.12L2139.48 270.81C2139.36 269.499 2139.24 268.188 2139.1 266.969L2138.98 265.907C2138.82 264.596 2138.65 263.207 2138.47 261.883L2138.35 261.096C2138.16 259.667 2137.93 258.251 2137.7 256.849C2137.7 256.678 2137.7 256.521 2137.6 256.351C2137.36 254.843 2137.08 253.362 2136.79 251.907V251.671C2136.48 250.124 2136.15 248.577 2135.8 247.07H2153.53V233.922ZM-38.7813 306.281C-38.7551 312.233 -43.5659 317.083 -49.5172 317.096H-111.062C-117.013 317.109 -121.837 312.285 -121.85 306.334C-121.85 306.334 -121.85 306.321 -121.85 306.307V254.738H-38.7813V306.281ZM151.804 263.836C151.673 264.281 151.529 264.74 151.384 265.147C150.873 266.824 150.349 268.502 149.824 270.18C149.471 271.347 149.117 272.5 148.75 273.654L147.688 277.102C146.259 281.703 144.856 286.251 143.454 290.761C143.454 290.905 143.362 291.062 143.31 291.206L137.424 310.214C137.253 310.791 137.07 311.38 136.886 311.957L130.149 333.704L121.038 324.083C116.804 319.613 110.918 317.083 104.757 317.083H44.104V274.821C44.104 269.525 39.8175 265.238 34.5217 265.238H9.20908V254.752H154.622C153.691 257.78 152.748 260.808 151.804 263.836ZM567.712 263.338H548.967C541.534 263.338 535.098 268.489 533.472 275.738L513.22 365.479C510.48 377.749 499.574 386.479 487.002 386.453H245.517V353.079H304.728C314.861 353.079 323.08 344.86 323.08 334.727C323.08 332.787 322.294 331.017 321.009 329.745C319.737 328.461 317.981 327.674 316.028 327.674H245.517V304.656H304.728C314.861 304.656 323.08 296.437 323.08 286.304C323.08 284.364 322.294 282.594 321.009 281.323C319.737 280.038 317.981 279.251 316.028 279.251H245.517V256.233H304.728C307.219 256.233 309.696 255.735 311.99 254.738H567.712V263.338ZM695.022 370.356C692.099 366.082 690.539 361.022 690.539 355.832V332.996C690.539 327.674 686.226 323.362 680.904 323.362H679.882C678.243 323.362 676.919 324.672 676.906 326.311C676.906 326.324 676.906 326.337 676.906 326.337V363.788H641.198V340.508C641.185 333.835 637.554 327.701 631.721 324.476L595.738 304.656V254.738H717.044V388.616H707.488L695.022 370.356ZM878.633 318.249L847.75 328.107C838.049 331.201 831.456 340.206 831.443 350.391V388.577H810.469V348.478C810.469 341.963 805.186 336.68 798.671 336.68H793.926V316.139C793.939 308.326 787.608 301.995 779.795 301.982C779.782 301.982 779.782 301.982 779.769 301.982H771.34C768.338 301.982 765.913 304.42 765.913 307.409V388.616H733.115V254.752H740.482V254.738H766.621C793.126 254.738 805.461 263.22 821.074 273.956L823.368 275.542L823.945 275.935L825.911 277.246L826.501 277.639C828.244 278.793 830.027 279.959 831.823 281.126H831.914C832.793 281.676 833.697 282.24 834.615 282.791L834.943 283C837.879 284.783 841.012 286.553 844.368 288.244H844.459C845.587 288.821 846.74 289.384 847.933 289.948C851.538 291.665 855.431 293.317 859.731 294.864C863.952 296.41 868.514 297.852 873.482 299.163H873.652C875.291 299.596 876.982 300.015 878.712 300.474L878.633 318.249ZM1103.54 338.476C1093.25 338.463 1083.55 343.26 1077.32 351.453L1043 396.73H933.126V359.122C933.126 357.654 932.549 356.238 931.513 355.189C930.543 354.232 929.245 353.669 927.882 353.603C924.71 353.564 922.114 356.107 922.075 359.279V396.73H895.111V303.66C896.605 303.882 898.113 304.079 899.673 304.262H899.804C901.311 304.446 902.832 304.616 904.392 304.774H904.811C906.279 304.931 907.787 305.075 909.307 305.206L910.133 305.272L914.446 305.6L915.757 305.678L919.781 305.914L921.865 305.993L925.405 306.137C926.427 306.137 927.476 306.137 928.524 306.216L931.303 306.281H1195.09L1195.2 338.476H1103.54ZM1406.55 373.135H1299.84V306.439H1406.55V373.135ZM1522.75 310.699C1519.52 310.699 1516.56 312.468 1515.03 315.3C1514.9 315.549 1514.76 315.798 1514.66 316.06C1514.2 317.135 1513.97 318.302 1513.97 319.468V379.034H1491.31V253.074L1492.95 252.431L1493.29 252.313C1494.92 251.723 1496.67 251.173 1498.54 250.675L1499.36 250.452L1501.01 250.046L1502.1 249.81C1502.98 249.613 1503.87 249.429 1504.8 249.259L1506.3 248.984L1507.8 248.735L1509.77 248.446L1511.16 248.263C1512.14 248.132 1513.14 248.027 1514.17 247.909L1515.49 247.791L1518.11 247.568L1519.27 247.476L1523.1 247.253H1524.06L1527.41 247.149C1527.41 247.149 1542.66 247.149 1561.16 247.135C1555.49 299.425 1548.36 345.187 1542.4 379.073H1531.49V319.468C1531.5 314.631 1527.59 310.712 1522.75 310.699ZM1807.47 258.225C1804.95 259.366 1802.52 260.677 1800.19 262.158C1797.9 263.626 1795.71 265.238 1793.64 267.008L1793.43 267.178C1791.98 268.424 1790.61 269.735 1789.3 271.111L1788.96 271.478C1788.56 271.898 1788.18 272.317 1787.8 272.789L1787.41 273.248C1786.66 274.1 1785.93 274.991 1785.23 275.869L1785.05 276.105C1784.75 276.499 1784.46 276.905 1784.16 277.311L1783.59 278.098L1782.8 279.278C1782.59 279.592 1782.39 279.92 1782.18 280.248C1781.81 280.824 1781.45 281.414 1781.1 282.017C1780.87 282.411 1780.63 282.817 1780.41 283.223L1779.95 284.075L1779.31 285.386C1779.11 285.793 1778.9 286.173 1778.72 286.579C1778.39 287.274 1778.06 287.982 1777.76 288.69L1777.46 289.437C1777.24 289.974 1777.01 290.525 1776.82 291.075C1776.7 291.39 1776.58 291.691 1776.48 292.006C1776.28 292.557 1776.1 293.107 1775.91 293.671C1775.83 293.933 1775.74 294.182 1775.66 294.444C1775.42 295.231 1775.19 296.03 1774.98 296.843C1774.98 297.066 1774.86 297.302 1774.81 297.525C1774.66 298.154 1774.51 298.783 1774.38 299.412C1774.38 299.701 1774.26 299.976 1774.21 300.251C1774.06 300.959 1773.93 301.667 1773.83 302.375C1773.83 302.532 1773.83 302.69 1773.75 302.847C1773.62 303.712 1773.5 304.577 1773.41 305.469V306.189C1773.41 306.858 1773.29 307.5 1773.25 308.221V311.708H1754.01C1745.24 311.721 1737.07 316.165 1732.29 323.506L1693.51 382.796H1621.6C1615.5 348.569 1608.06 301.366 1602.17 247.109C1615.87 247.096 1625.94 247.096 1625.94 247.083H1807.47V258.225ZM1845.93 254.673C1844.88 254.411 1843.8 254.175 1842.71 253.978L1842.15 253.873C1841.26 253.716 1840.37 253.572 1839.53 253.454L1838.69 253.349C1837.81 253.27 1836.95 253.192 1836.07 253.113L1835.19 253.047C1834.08 253.047 1832.95 252.943 1831.81 252.943C1830.88 252.943 1829.96 252.943 1829.04 253.008C1828.47 253.008 1827.9 253.087 1827.32 253.126L1826.43 253.205C1825.67 253.27 1824.94 253.362 1824.19 253.454H1823.93C1823.12 253.572 1822.29 253.69 1821.49 253.834V247.031H1845.94L1845.93 254.673ZM1904.08 311.682H1890.53C1890.53 310.777 1890.53 309.873 1890.47 308.982V308.221C1890.47 307.513 1890.42 306.819 1890.31 306.137V305.482C1890.22 304.603 1890.11 303.738 1889.98 302.86C1889.98 302.676 1889.92 302.493 1889.89 302.322C1889.79 301.615 1889.66 300.933 1889.53 300.238L1889.37 299.465C1889.21 298.744 1889.05 298.023 1888.87 297.302C1888.87 297.171 1888.87 297.04 1888.78 296.922C1888.55 296.096 1888.33 295.283 1888.08 294.47L1887.85 293.749C1887.65 293.133 1887.45 292.543 1887.24 291.94C1887.15 291.704 1887.06 291.455 1886.98 291.22C1886.69 290.433 1886.39 289.66 1886.06 288.899C1886 288.742 1885.92 288.585 1885.85 288.414L1885.03 286.592L1884.64 285.793C1884.37 285.242 1884.1 284.705 1883.81 284.167C1883.69 283.944 1883.59 283.735 1883.46 283.512C1883.08 282.817 1882.68 282.122 1882.28 281.441C1882.12 281.191 1881.96 280.942 1881.82 280.693C1881.52 280.235 1881.23 279.763 1880.91 279.304L1880.38 278.504C1880.02 277.967 1879.64 277.456 1879.27 276.944L1878.63 276.079L1877.5 274.65L1876.82 273.838C1876.51 273.457 1876.18 273.09 1875.85 272.723C1875.53 272.356 1875.39 272.199 1875.16 271.95C1874.66 271.399 1874.15 270.862 1873.62 270.324L1872.86 269.59L1871.85 268.62C1871.57 268.358 1871.28 268.083 1870.98 267.834C1870.67 267.585 1870.28 267.218 1869.93 266.916C1869.57 266.615 1869.1 266.222 1868.7 265.894L1867.38 264.871L1866.4 264.15L1865.38 263.429L1864.36 262.721L1863.05 261.883L1861.51 260.952L1860.41 260.323L1859.28 259.72L1858.18 259.156L1857.07 258.605V247.031H1904.15L1904.08 311.682ZM2045.58 251.632H2045.56C2045.54 251.71 2045.54 251.789 2045.56 251.868C2045.27 253.323 2044.99 254.804 2044.73 256.311L2044.65 256.81C2044.42 258.212 2044.19 259.628 2044 261.057L2043.88 261.843C2043.69 263.154 2043.52 264.465 2043.37 265.868L2043.25 266.929C2043.1 268.24 2042.99 269.472 2042.87 270.77L2042.75 272.081C2042.66 273.313 2042.57 274.559 2042.5 275.804C2042.5 276.223 2042.5 276.617 2042.42 277.036C2042.42 278.203 2042.28 280.103 2042.24 281.257V287.706C2042.24 289.463 2042.24 291.508 2042.33 293.396V295.034C2042.33 296.345 2042.45 297.761 2042.53 299.111L2042.65 300.815C2042.74 302.218 2042.84 303.594 2042.97 304.97L2043.09 306.281C2043.26 308.077 2043.46 309.873 2043.68 311.643H2022.18V259.693C2022.18 255.42 2019.59 251.579 2015.63 249.98L2008.28 247.031H2046.58C2046.22 248.604 2045.88 250.085 2045.58 251.632Z" fill="url(#paint0_linear_2599_7299)"/>
<defs>
<linearGradient id="paint0_linear_2599_7299" x1="895.111" y1="81" x2="895" y2="455" gradientUnits="userSpaceOnUse">
<stop stop-color="#080628"/>
<stop offset="1" stop-color="#160E3F"/>
</linearGradient>
</defs>
</svg>
 