<svg width="68" height="104" viewBox="0 0 68 104" fill="none" xmlns="http://www.w3.org/2000/svg">
<path d="M6.42432 53.7038H63.4343V14.9438H6.42432V53.7038ZM47.6743 48.2338C47.6743 48.5038 47.4543 48.7338 47.1743 48.7338H22.6743C22.4043 48.7338 22.1743 48.5138 22.1743 48.2338V44.5538C22.1743 44.2838 22.3943 44.0538 22.6743 44.0538H47.1743C47.4443 44.0538 47.6743 44.2738 47.6743 44.5538V48.2338ZM29.1544 36.5438V33.3638C29.1544 33.0538 29.5243 32.8738 29.7643 33.0738L34.5244 36.9738C34.7644 37.1638 35.1044 37.1638 35.3444 36.9738L40.1043 33.0738C40.3443 32.8738 40.7144 33.0438 40.7144 33.3638V36.5438C40.7144 36.8138 40.5943 37.0638 40.3843 37.2438L35.5244 41.2238C35.1844 41.5038 34.6844 41.5038 34.3444 41.2238L29.4843 37.2438C29.2743 37.0738 29.1544 36.8138 29.1544 36.5438ZM22.1843 20.5238C22.1843 20.1938 22.4544 19.9238 22.7844 19.9238H23.7243C23.9043 19.9238 24.0744 19.9838 24.2144 20.0838L34.5743 27.5538C34.7843 27.7038 35.0644 27.7038 35.2844 27.5538L45.6443 20.0838C45.7843 19.9838 45.9643 19.9238 46.1343 19.9238H47.0743C47.4043 19.9238 47.6743 20.1938 47.6743 20.5238V41.0238C47.6743 41.3938 47.3743 41.6938 47.0043 41.6938H43.6743C43.3043 41.6938 43.0043 41.3938 43.0043 41.0238V28.6038C43.0043 28.2838 42.6343 28.0938 42.3743 28.2938L35.3444 33.6338C35.1044 33.8138 34.7644 33.8138 34.5244 33.6338L27.4943 28.2938C27.2343 28.0938 26.8643 28.2838 26.8643 28.6038V41.0238C26.8643 41.3938 26.5643 41.6938 26.1943 41.6938H22.8643C22.4943 41.6938 22.1943 41.3938 22.1943 41.0238V20.5238H22.1843Z" fill="#FF8486"/>
<path d="M35.514 41.2038L40.374 37.2238C40.584 37.0538 40.704 36.7938 40.704 36.5238V33.3438C40.704 33.0338 40.3341 32.8538 40.0941 33.0538L35.334 36.9538C35.094 37.1438 34.754 37.1438 34.514 36.9538L29.754 33.0538C29.514 32.8538 29.144 33.0238 29.144 33.3438V36.5238C29.144 36.7938 29.264 37.0438 29.474 37.2238L34.334 41.2038C34.674 41.4838 35.174 41.4838 35.514 41.2038Z" fill="#38237C"/>
<path d="M22.8543 41.6938H26.1843C26.5543 41.6938 26.8543 41.3938 26.8543 41.0238V28.6038C26.8543 28.2838 27.2243 28.0938 27.4843 28.2938L34.5143 33.6338C34.7543 33.8138 35.0944 33.8138 35.3344 33.6338L42.3643 28.2938C42.6243 28.0938 42.9943 28.2838 42.9943 28.6038V41.0238C42.9943 41.3938 43.2943 41.6938 43.6643 41.6938H46.9943C47.3643 41.6938 47.6643 41.3938 47.6643 41.0238V20.5238C47.6643 20.1938 47.3943 19.9238 47.0643 19.9238H46.1243C45.9443 19.9238 45.7743 19.9838 45.6343 20.0838L35.2744 27.5538C35.0644 27.7038 34.7843 27.7038 34.5643 27.5538L24.2043 20.0838C24.0643 19.9838 23.8844 19.9238 23.7144 19.9238H22.7744C22.4444 19.9238 22.1743 20.1938 22.1743 20.5238V41.0238C22.1743 41.3938 22.4744 41.6938 22.8444 41.6938H22.8543Z" fill="#38237C"/>
<path d="M47.1741 44.0435H22.6841C22.4079 44.0435 22.1841 44.2673 22.1841 44.5435V48.2235C22.1841 48.4996 22.4079 48.7235 22.6841 48.7235H47.1741C47.4502 48.7235 47.6741 48.4996 47.6741 48.2235V44.5435C47.6741 44.2673 47.4502 44.0435 47.1741 44.0435Z" fill="#38237C"/>
<path d="M65.4342 10.9437H6.01423V6.75369C7.06423 5.98369 7.68425 4.70369 7.53425 3.32369C7.30425 1.26369 5.44423 -0.206306 3.38423 0.0236938C1.32423 0.253694 -0.145759 2.11369 0.0842408 4.17369C0.204241 5.25369 0.784199 6.16369 1.6042 6.76369V103.654H6.01423V57.7037H65.4342C66.5342 57.7037 67.4342 56.8037 67.4342 55.7037V12.9437C67.4342 11.8437 66.5342 10.9437 65.4342 10.9437ZM63.4342 53.7037H6.42421V14.9437H63.4342V53.7037Z" fill="#38237C"/>
</svg>
