<svg xmlns="http://www.w3.org/2000/svg" width="56" height="56" viewBox="0 0 56 56" fill="none"><path d="M28 7L5.83331 15.1667H50.1666L28 7Z" fill="#7068AA"></path><path d="M1.16669 46.6667H54.8334V44.3334C54.8334 43.6894 54.3107 43.1667 53.6667 43.1667H2.33335C1.68935 43.1667 1.16669 43.6894 1.16669 44.3334V46.6667Z" fill="#7068AA"></path><path d="M7 46.6667H49V44.3334C49 43.6894 48.4773 43.1667 47.8333 43.1667H8.16667C7.52267 43.1667 7 43.6894 7 44.3334V46.6667Z" fill="#8078BE"></path><path d="M3.5 43.1667H52.5V40.8334C52.5 40.1894 51.9773 39.6667 51.3333 39.6667H4.66667C4.02267 39.6667 3.5 40.1894 3.5 40.8334V43.1667Z" fill="#C1B9FF"></path><path d="M9.33331 43.1667H46.6666V40.8334C46.6666 40.1894 46.144 39.6667 45.5 39.6667H10.5C9.85598 39.6667 9.33331 40.1894 9.33331 40.8334V43.1667Z" fill="#AEA3FF"></path><path d="M50.1667 16.3333H5.83333C5.26866 16.3333 4.78449 15.9273 4.68533 15.372C4.58616 14.8143 4.89999 14.2683 5.43083 14.0723L27.5975 5.90567C27.8577 5.81001 28.1447 5.81001 28.4037 5.90567L50.5703 14.0723C51.1012 14.2683 51.415 14.8155 51.3158 15.372C51.2155 15.9273 50.7313 16.3333 50.1667 16.3333ZM12.3748 14H43.6252L28 8.24251L12.3748 14Z" fill="#C1B9FF"></path><path d="M28 12.8333C28.6443 12.8333 29.1666 12.311 29.1666 11.6667C29.1666 11.0223 28.6443 10.5 28 10.5C27.3556 10.5 26.8333 11.0223 26.8333 11.6667C26.8333 12.311 27.3556 12.8333 28 12.8333Z" fill="#4F457C"></path><path d="M44.3334 16.3333H11.6667V39.6666H44.3334V16.3333Z" fill="#5D5595"></path><path d="M36.1667 18.6667H31.5V37.3334H36.1667V18.6667Z" fill="url(#paint0_linear)"></path><path d="M47.8334 18.6667H43.1667V37.3334H47.8334V18.6667Z" fill="url(#paint1_linear)"></path><path d="M24.5 18.6667H19.8333V37.3334H24.5V18.6667Z" fill="url(#paint2_linear)"></path><path d="M12.8334 18.6667H8.16669V37.3334H12.8334V18.6667Z" fill="url(#paint3_linear)"></path><path d="M36.1666 37.3333H31.5C30.856 37.3333 30.3333 37.856 30.3333 38.5V39.6666H37.3333V38.5C37.3333 37.856 36.8106 37.3333 36.1666 37.3333Z" fill="#7068AA"></path><path d="M47.8333 37.3333H43.1667C42.5227 37.3333 42 37.856 42 38.5V39.6666H49V38.5C49 37.856 48.4773 37.3333 47.8333 37.3333Z" fill="#7068AA"></path><path d="M24.5 37.3333H19.8334C19.1894 37.3333 18.6667 37.856 18.6667 38.5V39.6666H25.6667V38.5C25.6667 37.856 25.144 37.3333 24.5 37.3333Z" fill="#7068AA"></path><path d="M12.8333 37.3333H8.16667C7.52267 37.3333 7 37.856 7 38.5V39.6666H14V38.5C14 37.856 13.4773 37.3333 12.8333 37.3333Z" fill="#7068AA"></path><path d="M37.3333 16.3333H30.3333V17.5C30.3333 18.144 30.856 18.6666 31.5 18.6666H36.1666C36.8106 18.6666 37.3333 18.144 37.3333 17.5V16.3333Z" fill="#AEA3FF"></path><path d="M49 16.3333H42V17.5C42 18.144 42.5227 18.6666 43.1667 18.6666H47.8333C48.4773 18.6666 49 18.144 49 17.5V16.3333Z" fill="#AEA3FF"></path><path d="M25.6667 16.3333H18.6667V17.5C18.6667 18.144 19.1894 18.6666 19.8334 18.6666H24.5C25.144 18.6666 25.6667 18.144 25.6667 17.5V16.3333Z" fill="#AEA3FF"></path><path d="M14 16.3333H7V17.5C7 18.144 7.52267 18.6666 8.16667 18.6666H12.8333C13.4773 18.6666 14 18.144 14 17.5V16.3333Z" fill="#AEA3FF"></path><defs><linearGradient id="paint0_linear" x1="32.8752" y1="20.1361" x2="40.8532" y2="23.0382" gradientUnits="userSpaceOnUse"><stop stop-color="#7068AA"></stop><stop offset="1" stop-color="#9084E7"></stop></linearGradient><linearGradient id="paint1_linear" x1="44.5419" y1="20.1361" x2="52.5199" y2="23.0382" gradientUnits="userSpaceOnUse"><stop stop-color="#7068AA"></stop><stop offset="1" stop-color="#9084E7"></stop></linearGradient><linearGradient id="paint2_linear" x1="21.2085" y1="20.1361" x2="29.1865" y2="23.0382" gradientUnits="userSpaceOnUse"><stop stop-color="#7068AA"></stop><stop offset="1" stop-color="#9084E7"></stop></linearGradient><linearGradient id="paint3_linear" x1="9.54188" y1="20.1361" x2="17.5199" y2="23.0382" gradientUnits="userSpaceOnUse"><stop stop-color="#7068AA"></stop><stop offset="1" stop-color="#9084E7"></stop></linearGradient></defs></svg>