<svg width="739" height="683" viewBox="0 0 739 683" fill="none" xmlns="http://www.w3.org/2000/svg">
<g opacity="0.04">
<path d="M238.032 369.344L111.987 280.415C165.924 236.335 265.911 177.887 351.806 173.231" fill="#88D1C3"/>
<path d="M636.07 491.434C781.489 408.014 865.559 282.193 823.846 210.406C782.132 138.618 630.431 148.049 485.013 231.469C339.594 314.889 255.524 440.71 297.237 512.497C338.951 584.285 490.652 574.855 636.07 491.434Z" fill="#7996C9"/>
<path d="M81.8834 493.182C46.9927 513.279 9.60757 569.651 0 608.673C38.7674 619.893 106.695 615.941 141.585 595.911C148.499 592.081 154.577 586.923 159.466 580.737C164.355 574.552 167.956 567.462 170.062 559.88C172.168 552.298 172.735 544.376 171.731 536.575C170.727 528.773 168.171 521.248 164.213 514.437C160.254 507.626 154.972 501.665 148.674 496.901C142.376 492.137 135.187 488.665 127.526 486.687C119.864 484.709 111.884 484.265 104.048 485.38C96.2123 486.495 88.678 489.147 81.8834 493.182Z" fill="#FF8080"/>
<path d="M589.367 411.011C734.786 327.591 818.856 201.77 777.143 129.983C735.429 58.1953 583.728 67.6255 438.309 151.046C292.89 234.466 208.821 360.287 250.534 432.074C292.248 503.862 443.948 494.432 589.367 411.011Z" fill="white"/>
<path d="M539.985 390.825C669.812 316.348 749.778 212.467 718.592 158.798C687.407 105.13 556.881 121.998 427.054 196.474C297.226 270.95 217.261 374.832 248.446 428.5C279.631 482.169 410.158 465.301 539.985 390.825Z" fill="#88D1C3"/>
<path d="M416.629 475.59C371.153 483.294 350.994 481.552 322.239 474.652C293.484 467.752 296.652 478.705 280.674 498.501C264.695 518.296 219.017 670.196 219.017 670.196C219.017 670.196 280.269 676.125 349.41 636.467C418.551 596.809 583.498 482.959 581.711 445.545C579.924 408.131 566.305 437.272 522.144 449.665C477.983 462.058 416.629 475.59 416.629 475.59Z" fill="#88D1C3"/>
<path d="M127.932 284.266C199.904 245.947 280.979 210.208 327.061 220.458C327.061 220.458 351.299 177.584 343.344 173.799C335.388 170.014 168.587 238.143 136.461 261.623C104.334 285.103 127.932 284.266 127.932 284.266Z" fill="white"/>
<path d="M311.655 357.183C266.348 369.442 227.816 383.979 200.005 398.314C172.193 412.65 161.102 418.11 162.687 431.173C164.271 444.236 196.903 521.208 212.781 530.05C228.659 538.893 253.234 525.998 261.898 505.197C270.562 484.397 270.561 473.41 297.631 442.092C324.701 410.775 372.874 353.699 311.655 357.183Z" fill="#88D1C3"/>
<path d="M171.316 446.345C218.168 418.632 268.907 397.997 321.869 385.116L304.676 417.673L182.576 487.678L171.316 446.345Z" fill="white"/>
<path d="M234.157 652.209C282.7 633.954 422.937 580.261 512.338 463.9C512.338 463.9 574.332 422.098 583.636 423.002C592.94 423.907 527.542 528.98 435.713 580.965C343.885 632.949 219.661 690.192 234.157 652.209Z" fill="white"/>
<path d="M650.38 181.301C698.789 264.603 395.223 438.744 346.983 355.475C325.555 315.616 320.556 269.042 333.044 225.59C345.531 182.137 374.526 145.207 413.906 122.6C453.286 99.9929 499.967 93.478 544.091 104.431C588.216 115.384 626.328 142.948 650.38 181.301Z" fill="#88D1C3"/>
<path fill-rule="evenodd" clip-rule="evenodd" d="M800.799 156.55L783.236 126.404C750.57 71.3382 663.057 56.8014 554.003 88.0522C515.869 76.2399 474.947 76.7503 437.123 89.5101C399.3 102.27 366.525 126.622 343.513 159.062C259.236 166.196 164.61 219.52 108.043 264.169C105.605 266.106 103.652 268.578 102.336 271.391C101.02 274.203 100.377 277.28 100.458 280.381C100.563 283.546 101.399 286.645 102.901 289.439C104.403 292.232 106.532 294.645 109.122 296.492L210.591 368.171C194.35 375.346 178.516 383.396 163.16 392.287C132.82 409.705 151.968 473.948 175.228 514.042C192.792 544.187 212.782 565.926 231.66 576.309L207.86 655.223C206.788 658.806 206.664 662.603 207.5 666.247C208.335 669.891 210.103 673.259 212.631 676.027C215.159 678.795 218.362 680.868 221.932 682.047C225.501 683.226 229.316 683.47 233.009 682.756C285.092 672.942 394.82 637.806 486.716 569.175V569.476C539.842 556.446 590.806 535.893 638.044 508.448C792.506 419.787 877.39 287.984 830.97 208.366L815.733 182.14L800.799 156.55ZM734.794 261.858C766.92 213.893 775.213 171.287 758.121 141.845C736.546 104.766 675.8 92.5071 598.366 107.781C625.19 124.146 647.464 146.923 663.158 174.034C693.363 226.018 624.222 296.827 542.271 343.72C492.784 372.056 438.105 392.154 395.899 392.154C382.279 392.528 368.763 389.693 356.458 383.88L302.52 460.919C366.47 482.423 475.086 459.546 576.016 401.633C644.246 362.343 700.611 312.871 734.794 261.858ZM540.269 114.428C499.18 103.487 455.401 109.204 418.553 130.323C391.635 145.805 369.823 168.721 355.765 196.288C341.708 223.854 336.011 254.883 339.366 285.606C339.431 252.883 350.357 221.094 370.45 195.167C390.544 169.239 418.682 150.621 450.506 142.196C482.33 133.771 516.062 136.01 546.475 148.567C576.888 161.123 602.284 183.296 618.727 211.649C624.424 221.429 624.256 232.717 619.907 244.675C631.403 230.708 647.786 206.089 637.673 188.671C616.393 152.074 581.358 125.369 540.269 114.428ZM325.713 191.15C261.359 202.639 188.645 241.024 136.933 279.677L230.109 345.428C243.965 306.808 272.754 265.509 313.915 226.119C316.701 214.111 320.653 202.4 325.713 191.15ZM316.948 341.811C318.044 341.693 319.131 341.551 320.218 341.409C320.354 341.391 320.491 341.373 320.626 341.355C321.578 341.231 322.53 341.109 323.488 341.007H323.32C314.384 319.764 309.47 297.065 308.824 274.05C285.968 300.176 269.012 326.671 259.371 351.29C278.282 346.626 297.534 343.457 316.948 341.811ZM201.32 499.204C202.197 500.775 203.087 502.145 203.973 503.509C204.485 504.296 204.995 505.082 205.501 505.903H205.366C215.142 516.32 226.401 515.114 235.503 509.822L255.73 498.132L263.213 473.345C266.116 463.872 270.496 454.91 276.192 446.784L330.129 369.745C328.685 369.918 327.24 370.108 325.795 370.299C323.869 370.553 321.942 370.808 320.016 371.018C283.743 374.87 246.223 378.856 178.431 417.744C174.891 422.902 177.251 457.77 201.32 499.204ZM240.199 651.138L240.189 651.171H240.054C240.102 651.16 240.151 651.149 240.199 651.138L289.441 487.514C311.442 495.06 334.601 498.732 357.873 498.366C419.227 498.366 493.964 477.901 567.352 439.85C490.909 569.23 319.248 633.173 240.199 651.138ZM541.037 521.865C541.01 521.892 540.983 521.92 540.957 521.947H540.822C540.893 521.92 540.965 521.892 541.037 521.865C553.388 509.314 564.829 495.91 575.274 481.753L587.073 502.017C571.705 509.485 556.338 516.057 541.037 521.865ZM605.58 492.706C611.536 489.557 617.48 486.286 623.413 482.892H623.278C626.508 481.033 629.649 479.1 632.8 477.163C634.417 476.168 636.037 475.172 637.673 474.183L608.783 424.443C602.845 437.718 595.986 450.566 588.253 462.895L605.58 492.706ZM655.199 462.998L655.236 463.062H655.101C655.134 463.041 655.166 463.019 655.199 462.998L622.874 407.36C633.391 400.46 643.572 393.348 653.416 386.024L685.609 441.492C675.841 448.882 665.704 456.051 655.199 462.998ZM701.983 428.387L702.027 428.462H701.892C701.922 428.437 701.953 428.412 701.983 428.387L669.9 373.195C680.014 365.157 689.486 356.984 698.521 348.577L730.377 403.374C721.404 411.856 711.895 420.205 701.983 428.387ZM745.335 388.076L745.446 388.268L745.311 388.101L745.335 388.076L713.826 333.839C723.197 324.293 731.793 314.546 739.816 304.732L770.965 358.324C762.952 368.68 754.396 378.611 745.335 388.076ZM783.998 339.503L784.112 339.7L783.978 339.533L783.998 339.503L753.436 286.946C754.198 285.878 754.983 284.815 755.768 283.753C757.1 281.95 758.429 280.15 759.638 278.337C765.465 269.566 770.788 260.474 775.583 251.106L804.575 301.014C799.04 314.5 792.145 327.395 783.998 339.503ZM812.337 273.128L812.463 273.347L812.328 273.179L812.337 273.128L786 227.592C789.114 219.351 791.593 210.885 793.417 202.27L805.519 223.104C813.568 237.293 815.46 254.391 812.337 273.128Z" fill="#4F457C"/>
<path opacity="0.15" d="M571.363 751.05C686.739 751.05 780.269 726.292 780.269 695.75C780.269 665.209 686.739 640.45 571.363 640.45C455.988 640.45 362.458 665.209 362.458 695.75C362.458 726.292 455.988 751.05 571.363 751.05Z" fill="black"/>
</g>
</svg>
