<svg id="Layer_1" data-name="Layer 1" xmlns="http://www.w3.org/2000/svg" xmlns:xlink="http://www.w3.org/1999/xlink" viewBox="0 0 1300 853.87"><defs><style>.cls-1{fill:#88d1c3;}.cls-2{fill:#4f457c;}.cls-10,.cls-20,.cls-3,.cls-9{opacity:0.6;}.cls-3{fill:url(#linear-gradient);}.cls-4{fill:#c6a35d;}.cls-5{fill:#f2ce7e;}.cls-6{fill:#7996c9;}.cls-7{fill:#ff8080;}.cls-8{fill:#fff;}.cls-9{fill:url(#linear-gradient-2);}.cls-10{fill:url(#linear-gradient-3);}.cls-11{fill:#b7d0e5;}.cls-12{fill:#9b7b43;}.cls-13{fill:url(#radial-gradient);}.cls-14,.cls-15{fill:#171735;}.cls-15{opacity:0.3;}.cls-16,.cls-17,.cls-18{fill:none;stroke:#4f457c;stroke-linecap:round;stroke-miterlimit:10;stroke-width:5px;}.cls-16{stroke-dasharray:0 12;}.cls-18{stroke-dasharray:0 12.03;}.cls-19{fill:#657a99;}.cls-20{fill:url(#linear-gradient-4);}</style><linearGradient id="linear-gradient" x1="284.96" y1="162.64" x2="289.83" y2="328.09" gradientUnits="userSpaceOnUse"><stop offset="0" stop-color="#fff" stop-opacity="0.5"/><stop offset="0.14" stop-color="#fff" stop-opacity="0.48"/><stop offset="0.34" stop-color="#fff" stop-opacity="0.41"/><stop offset="0.56" stop-color="#fff" stop-opacity="0.3"/><stop offset="0.81" stop-color="#fff" stop-opacity="0.14"/><stop offset="1" stop-color="#fff" stop-opacity="0"/></linearGradient><linearGradient id="linear-gradient-2" x1="-213.22" y1="1744.42" x2="-143.06" y2="1744.42" gradientTransform="translate(815.47 -993.86) rotate(13.52)" xlink:href="#linear-gradient"/><linearGradient id="linear-gradient-3" x1="3555.74" y1="1744.42" x2="3625.9" y2="1744.42" gradientTransform="matrix(-0.97, -0.23, -0.23, 0.97, 4225.59, -173.62)" xlink:href="#linear-gradient"/><radialGradient id="radial-gradient" cx="650.55" cy="449.65" r="247.01" gradientUnits="userSpaceOnUse"><stop offset="0" stop-color="#88d1c3" stop-opacity="0.5"/><stop offset="0.16" stop-color="#81c5ba" stop-opacity="0.47"/><stop offset="0.39" stop-color="#6da5a1" stop-opacity="0.38"/><stop offset="0.65" stop-color="#4d6f78" stop-opacity="0.24"/><stop offset="0.95" stop-color="#202540" stop-opacity="0.04"/><stop offset="1" stop-color="#171735" stop-opacity="0"/></radialGradient><linearGradient id="linear-gradient-4" x1="1004.31" y1="162.48" x2="1009.13" y2="326.16" xlink:href="#linear-gradient"/></defs><path class="cls-1" d="M764.55,107.26a1.3,1.3,0,0,1-1.3-1.3v-4.44a1.3,1.3,0,0,1,2.6,0V106A1.3,1.3,0,0,1,764.55,107.26Z"/><path class="cls-1" d="M774.16,112.44h-4.43a1.3,1.3,0,0,1,0-2.6h4.43a1.3,1.3,0,1,1,0,2.6Z"/><path class="cls-1" d="M764.55,122.05a1.3,1.3,0,0,1-1.3-1.3v-4.44a1.3,1.3,0,0,1,2.6,0v4.44A1.3,1.3,0,0,1,764.55,122.05Z"/><path class="cls-1" d="M759.37,112.44h-4.43a1.3,1.3,0,0,1,0-2.6h4.43a1.3,1.3,0,0,1,0,2.6Z"/><path class="cls-1" d="M623.59,209.54a1.3,1.3,0,0,1-1.3-1.3v-3.58a1.3,1.3,0,1,1,2.6,0v3.58A1.3,1.3,0,0,1,623.59,209.54Z"/><path class="cls-1" d="M631.09,213.46H627.5a1.3,1.3,0,1,1,0-2.6h3.59a1.3,1.3,0,0,1,0,2.6Z"/><path class="cls-1" d="M623.59,221a1.3,1.3,0,0,1-1.3-1.3v-3.59a1.3,1.3,0,1,1,2.6,0v3.59A1.3,1.3,0,0,1,623.59,221Z"/><path class="cls-1" d="M619.68,213.46h-3.59a1.3,1.3,0,0,1,0-2.6h3.59a1.3,1.3,0,0,1,0,2.6Z"/><circle class="cls-1" cx="763.25" cy="735.52" r="2.71"/><circle class="cls-1" cx="784.29" cy="627.26" r="3.06"/><circle class="cls-1" cx="965.61" cy="534.76" r="2.9"/><circle class="cls-1" cx="209.1" cy="501.18" r="3.02"/><circle class="cls-1" cx="646.97" cy="764.43" r="2.79"/><circle class="cls-1" cx="559.78" cy="740.57" r="2.38"/><circle class="cls-1" cx="544.08" cy="106.76" r="2.87"/><circle class="cls-1" cx="799.12" cy="202.59" r="2.72"/><circle class="cls-1" cx="652.79" cy="81.65" r="3.21"/><circle class="cls-1" cx="491.99" cy="196.96" r="1.93"/><circle class="cls-1" cx="740.91" cy="248.43" r="1.93"/><path class="cls-1" d="M220,77.77a1.3,1.3,0,0,1-1.3-1.3V69.29a1.3,1.3,0,0,1,2.59,0v7.18A1.3,1.3,0,0,1,220,77.77Z"/><path class="cls-1" d="M229.63,83h-4.44a1.3,1.3,0,0,1,0-2.6h4.44a1.3,1.3,0,1,1,0,2.6Z"/><path class="cls-1" d="M220,95.3a1.3,1.3,0,0,1-1.3-1.3V86.82a1.3,1.3,0,1,1,2.59,0V94A1.3,1.3,0,0,1,220,95.3Z"/><path class="cls-1" d="M214.84,83H210.4a1.3,1.3,0,0,1,0-2.6h4.44a1.3,1.3,0,0,1,0,2.6Z"/><path class="cls-2" d="M245.17,285.84c-2.07.25-1.34,4.94,1.4,5s5.24-.55,7.92-.73,2.86-6-.31-6.34S245.17,285.84,245.17,285.84Z"/><path class="cls-2" d="M312.28,288.65c-2.13-1.16-9.38-4.94-12.12-8.53,4.87-4.26,4.51-12.42-1.4-13.76-2.19,2.86-1.28,5,1.95,5.78-.19,4.14-5,7.74-10.72,7.8s-16.44-1.4-16-8.65c1.7,2.25,7.73,2.56,8.89-1.4,0,0-6.82-1.7-9.08-3.53a5.41,5.41,0,0,0,3-9c-2.93,4.62-5.91,6.45-10.23,6.15s-8.47-4.75-7.74-8.59c-5.11,3.41-1.64,9.56-.85,10.17,0,0-6.33,3.41-8.65,4.93s-1.7,6.88,2.32,8.41a50.67,50.67,0,0,0,8.64,2.25,11.28,11.28,0,0,1,.43,6.64c-.91,3.53-6,8.7-7.37,10.53-.89,1.22,2,5.05,3.23,4.51S268,294.61,268,294.61s9.31,5.24,25.33,2.8c0,0,6.39,5.73,8.16,7s6.15-1.28,4.87-2.74-4.14-5-4.14-5,1-3.1.12-5.42c0,0,5.3,1.83,7.37,2.5S314.41,289.8,312.28,288.65Zm-48.41-12.79a3.17,3.17,0,1,1,3.16-3.17A3.17,3.17,0,0,1,263.87,275.86Z"/><circle class="cls-2" cx="283.75" cy="296.94" r="6.88"/><rect class="cls-2" x="278.81" y="300.36" width="2.93" height="5.9" rx="1.46" transform="translate(155.33 -90.31) rotate(25.13)"/><rect class="cls-2" x="285.81" y="300.22" width="2.93" height="5.9" rx="1.46" transform="translate(676.11 455.65) rotate(154.87)"/><polygon class="cls-3" points="263.05 155.25 212.18 338.16 368.07 338.16 263.05 155.25"/><path class="cls-4" d="M280.86,242.28l-1.4,4c-1.25,3.59,3.25,8.43,10.05,10.81s13.35,1.41,14.61-2.18l1.39-4Z"/><ellipse class="cls-5" cx="293.18" cy="246.6" rx="6.89" ry="13.06" transform="translate(-36.41 441.87) rotate(-70.71)"/><path class="cls-4" d="M263.05,231.23l3.19,2.76c2.87,2.5,9,.1,13.76-5.35s6.23-11.88,3.36-14.37l-3.19-2.77Z"/><ellipse class="cls-5" cx="271.61" cy="221.36" rx="13.06" ry="6.89" transform="translate(-73.6 281.39) rotate(-49.05)"/><path class="cls-4" d="M251.79,323.38c-2.13,3.49-9,3.13-15.44-.79s-9.85-9.92-7.71-13.4l2.22-3.63L254,319.76Z"/><ellipse class="cls-5" cx="242.44" cy="312.66" rx="7.4" ry="13.58" transform="translate(-150.83 355.96) rotate(-58.49)"/><path class="cls-5" d="M314.33,318.18c-3.45-2.2-3-9.1,1.05-15.43s10.09-9.67,13.54-7.48l3.58,2.29-14.59,22.9Z"/><ellipse class="cls-4" cx="325.21" cy="309.01" rx="13.58" ry="7.4" transform="translate(-110.14 417.28) rotate(-57.5)"/><path class="cls-1" d="M217.27,171.32l-20.52-14.59c8.77-7.23,25.06-16.81,39.05-17.55"/><ellipse class="cls-6" cx="269.78" cy="170.03" rx="49.5" ry="24.59" transform="translate(-48.87 157.67) rotate(-30)"/><path class="cls-7" d="M191.85,191.62c-5.68,3.28-11.77,12.53-13.33,18.92,6.31,1.84,17.37,1.19,23-2.09a9.72,9.72,0,0,0-9.72-16.83Z"/><ellipse class="cls-8" cx="262.18" cy="156.86" rx="49.5" ry="24.59" transform="translate(-43.3 152.1) rotate(-30)"/><ellipse class="cls-1" cx="257.24" cy="158.92" rx="44.2" ry="18.39" transform="translate(-45 149.91) rotate(-30)"/><path class="cls-8" d="M299.06,157.52l6.81,11.79s3.1-2.44,4.19-4.65,5.85-10.88,2.32-17.18-5-8.24-6-4.66S299.06,157.52,299.06,157.52Z"/><path class="cls-1" d="M246.35,188.73c-7.4,1.27-10.69,1-15.39-.15s-4.17.67-6.77,3.91-10,28.13-10,28.13,10,1,21.23-5.52,38.11-25.16,37.82-31.29-2.51-1.35-9.7.68S246.35,188.73,246.35,188.73Z"/><path class="cls-8" d="M199.35,157.38c11.72-6.27,24.91-12.13,32.42-10.45,0,0,3.94-7,2.65-7.65S206,149.83,200.73,153.67,199.35,157.38,199.35,157.38Z"/><path class="cls-1" d="M229.26,169.33a95,95,0,0,0-18.18,6.74c-4.52,2.35-6.33,3.25-6.08,5.39s5.57,14.75,8.16,16.2,6.6-.66,8-4.08,1.41-5.2,5.82-10.34S239.23,168.76,229.26,169.33Z"/><path class="cls-8" d="M206.41,184a89.08,89.08,0,0,1,24.51-10l-2.8,5.33-19.86,11.47Z"/><path class="cls-8" d="M216.64,217.69c7.9-3,30.72-11.79,45.29-30.86,0,0,10.1-6.85,11.61-6.7s-9.13,17.36-24.08,25.88S214.26,223.9,216.64,217.69Z"/><path class="cls-1" d="M284.41,140.51c7.88,13.65-41.55,42.19-49.43,28.54a28.54,28.54,0,0,1,49.43-28.54Z"/><rect class="cls-2" x="307.29" y="134.54" width="11.22" height="4.83" transform="translate(-26.56 174.77) rotate(-30)"/><path class="cls-2" d="M313.82,145l-7.76-13.43h0c-5.32-9-19.56-11.4-37.29-6.28a30.71,30.71,0,0,0-34.27,11.63c-13.72,1.17-29.13,9.91-38.34,17.23a3.25,3.25,0,0,0-1.23,2.65,3.35,3.35,0,0,0,1.41,2.64l16.52,11.75a78.16,78.16,0,0,0-7.72,4c-4.94,2.85-1.83,13.38,2,19.95,2.86,5,6.11,8.51,9.19,10.2l-3.92,12.93a3.57,3.57,0,0,0,3.42,4.58,3.21,3.21,0,0,0,.68-.07,109.58,109.58,0,0,0,41.3-18.61v.05a93,93,0,0,0,24.64-10C307.56,179.59,321.35,158,313.82,145ZM302,134.05c2.78,4.82,1.43,11.8-3.8,19.66-5.56,8.36-14.74,16.49-25.85,22.91-16.43,9.49-34.12,13.23-44.53,9.71l8.8-12.64A14,14,0,0,0,243,175c6.87,0,15.77-3.28,23.83-7.93,13.34-7.71,24.6-19.29,19.68-27.81A30.76,30.76,0,0,0,276,128.45C288.55,126,298.44,128,302,134.05Zm-55.32-1.89a26.13,26.13,0,0,1,35.69,9.56c1.65,2.85-1,6.89-2.89,9.17a6.25,6.25,0,0,0-.2-5.41,24.37,24.37,0,0,0-45.48,12.12A26.15,26.15,0,0,1,246.63,132.16Zm-45.85,24.47C209.2,150.3,221,144,231.5,142.13a30.39,30.39,0,0,0-1.92,5.73c-6.71,6.45-11.39,13.22-13.65,19.55Zm30.38,10.05-1.07.13a60.38,60.38,0,0,0-9.37,1.56,44.63,44.63,0,0,1,8.05-12.66A30.53,30.53,0,0,0,231.16,166.68ZM212,193.7c-.22-.37-.45-.69-.68-1.08-3.92-6.79-4.3-12.5-3.73-13.35,11-6.37,17.15-7,23.07-7.66.55-.05,1.11-.14,1.66-.2L223.5,184a15.38,15.38,0,0,0-2.11,4.35l-1.24,4.08-3.31,1.92A3.68,3.68,0,0,1,212,193.7Zm5.65,23.81,8-26.82a32.57,32.57,0,0,0,11.15,1.77c10,0,22.16-3.35,34.11-9.58C258.43,204.09,230.46,214.57,217.6,217.51Zm49-21.18a61.56,61.56,0,0,0,5.59-6.57l1.92,3.32C271.58,194.3,269.07,195.38,266.57,196.33Zm13.42-6.4c-1,.56-1.93,1.09-2.9,1.61l-2.82-4.89a49.62,49.62,0,0,0,3.36-6.28l4.7,8.13C281.55,189,280.79,189.47,280,189.93Zm5.19-3.25-5.27-9.13q2.56-1.7,5-3.49l5.24,9.09Q287.75,185,285.18,186.68Zm7.61-5.67L287.56,172c1.63-1.31,3.2-2.65,4.67-4l5.18,9C296,178.29,294.42,179.66,292.79,181Zm7.07-6.61-5.14-8.92c1.52-1.56,2.92-3.16,4.23-4.77l5.07,8.78A64.27,64.27,0,0,1,299.86,174.4Zm6.3-8-5-8.65c.33-.47.69-.93,1-1.4a45.49,45.49,0,0,0,2.6-4.47l4.72,8.18A36,36,0,0,1,306.16,166.44Zm4.62-10.87-4.32-7.47a29.57,29.57,0,0,0,1.21-4.15l2,3.41A12.18,12.18,0,0,1,310.78,155.57Z"/><path class="cls-6" d="M271.61,251.63a1.3,1.3,0,0,1-1.3-1.3V239.26a1.3,1.3,0,0,1,2.6,0v11.07A1.3,1.3,0,0,1,271.61,251.63Z"/><path class="cls-6" d="M290.64,274a1.3,1.3,0,0,1-1.3-1.3v-9.86a1.3,1.3,0,1,1,2.6,0v9.86A1.3,1.3,0,0,1,290.64,274Z"/><path class="cls-6" d="M323.54,336a1.3,1.3,0,0,1-1.3-1.3v-9a1.3,1.3,0,0,1,2.6,0v9A1.3,1.3,0,0,1,323.54,336Z"/><path class="cls-6" d="M239.51,339.46a1.3,1.3,0,0,1-1.3-1.3v-8.84a1.3,1.3,0,1,1,2.6,0v8.84A1.3,1.3,0,0,1,239.51,339.46Z"/><path class="cls-6" d="M270.88,318a1.3,1.3,0,0,1-1.3-1.3v-12a1.3,1.3,0,0,1,2.6,0v12A1.3,1.3,0,0,1,270.88,318Z"/><path class="cls-6" d="M294,328.25a1.3,1.3,0,0,1-1.3-1.3V310.74a1.3,1.3,0,0,1,2.6,0V327A1.3,1.3,0,0,1,294,328.25Z"/><path class="cls-2" d="M410.12,229.8c-1.61-3.22-9.15-12-9.15-12-3.26.55-5.44-2.69-12.53,1.72,0,0-7.87-1.21-11.34-2.07-1.14,5.09,1.9,8.19,6.18,7.85s3.15,3.37.9,3.37c-5,0-18,.09-22.66.09s-7.55,3.53-7.55,8-.25,21.56,0,24.35c.18,2,4.72,2.2,5.09.49.65-3.05,2.53-10.78,2.53-10.78s1.25,6.85,1.82,10.11c.37,2.1,4.78,1.71,4.78.4,0-2.87.22-9.47.22-9.47H385s1.16,8.4,1.28,10.84,5.24,2.18,5.54,0c.41-2.92,1.15-14.61,2.28-21.91.45-2.91,2.27-3.93,3.89-3.88,2.61.06,2.48.12,6.19,0S411.13,231.82,410.12,229.8Zm-13.73-.5a3,3,0,1,1,1-4.11A3,3,0,0,1,396.39,229.3Z"/><circle class="cls-2" cx="375.3" cy="250.76" r="5.96"/><path class="cls-2" d="M397.15,263c-.6-3-1.3-15.26-1.51-16.82-.28-2.11,1.16-3.37,3.16-3.42s3.36.59,3.41,2.51-.66,16.15-.62,17.34S397.38,264.12,397.15,263Z"/><rect class="cls-2" x="376.97" y="254.01" width="2.56" height="4.36" rx="1.28" transform="translate(801.48 428.21) rotate(168.01)"/><rect class="cls-2" x="371.72" y="254.01" width="2.56" height="4.36" rx="1.28" transform="translate(61.37 -71.91) rotate(11.99)"/><path class="cls-2" d="M348.43,245.4a44.32,44.32,0,0,1,1.35-4.9c1.22-3.65,4.39-5.5,9.43-5.5v-2.6c-7.82,0-10.78,4-11.89,7.28a47.82,47.82,0,0,0-1.44,5.21Z"/><path class="cls-2" d="M347.91,242.16c2.79,2.07,2.29,7.83-1,8.6C342.89,249.58,343.48,242.91,347.91,242.16Z"/><path class="cls-2" d="M404.68,263.09a1.12,1.12,0,0,1-.35-.06,1,1,0,0,1-.58-1.29,41,41,0,0,1,2.08-4.2,1,1,0,0,1,1.36-.38,1,1,0,0,1,.38,1.37,40.94,40.94,0,0,0-1.95,3.91A1,1,0,0,1,404.68,263.09Z"/><path class="cls-2" d="M408.6,263.13A1,1,0,0,1,408,263a1,1,0,0,1-.27-1.39l1.1-1.65a1,1,0,0,1,1.39-.28,1,1,0,0,1,.27,1.39l-1.1,1.65A1,1,0,0,1,408.6,263.13Z"/><path class="cls-2" d="M386.38,210.43c-1.84,2.2-2.66,8.49,2.57,10.19s18.9,2.38,18.35-7.89c-2.16,3.53-6,4.65-10.74,4.45C390.42,216.94,385.87,213.87,386.38,210.43Z"/><path class="cls-2" d="M177.06,315a1,1,0,0,1-.85-.47,21.71,21.71,0,0,0-4.71-5.4,1,1,0,1,1,1.21-1.59,23.31,23.31,0,0,1,5.2,5.94,1,1,0,0,1-.32,1.37A1,1,0,0,1,177.06,315Z"/><path class="cls-2" d="M181.6,315a1,1,0,0,1-1-.74c-1.21-4.57-4.47-12.78-4.51-12.87a1,1,0,0,1,1.86-.74c.14.35,3.34,8.41,4.58,13.1a1,1,0,0,1-.71,1.22A1.09,1.09,0,0,1,181.6,315Z"/><path class="cls-2" d="M185.46,315a1,1,0,0,1-1-1,38.72,38.72,0,0,1,1.56-9.71,1,1,0,1,1,1.91.57,37.62,37.62,0,0,0-1.47,9.14A1,1,0,0,1,185.46,315Z"/><path class="cls-2" d="M188.81,315a.55.55,0,0,1-.18,0,1,1,0,0,1-.8-1.16,9.07,9.07,0,0,1,2.91-4.58A1,1,0,0,1,192,310.8a7.11,7.11,0,0,0-2.23,3.41A1,1,0,0,1,188.81,315Z"/><path class="cls-2" d="M148.62,255.84v11.07c0,2,4,2.08,4.16.09.2-2.51.52-6.39.68-7.95.18-1.73,2.08-2.12,2.31-.18.27,2.31.48,6.67.71,8.27s4.15,1.8,4.15-.23V255.49Z"/><circle class="cls-2" cx="139.1" cy="255.49" r="6"/><rect class="cls-2" x="135.27" y="258.97" width="2.56" height="4.43" rx="1.28" transform="translate(46.4 -19.42) rotate(9.79)"/><rect class="cls-2" x="141.11" y="258.97" width="2.56" height="4.43" rx="1.28" transform="translate(327.11 494.35) rotate(170.21)"/><path class="cls-2" d="M113.15,249.62l-2.59-.25c.65-6.7,5.28-11.94,10.55-11.94V240C117.23,240,113.66,244.33,113.15,249.62Z"/><path class="cls-2" d="M112,248.43c-4.68.38-5.35,7.18-1.39,8.75A4.77,4.77,0,0,0,112,248.43Z"/><path class="cls-2" d="M172.78,249.65l3.75-6.49c-4.89-.5-7.31,2-6.17,5.21,0,0-4.31-7-6.12-9.69a9.69,9.69,0,0,0-8.13-4.61h-29c-4.34,0-9,3.66-9,10.09v22.06c0,2.61,4.35,2.29,5,.19,1.13-3.94,2.74-9,2.74-9s2.24,7.64,2.89,9.57c.55,1.6,4.6,1.65,4.41-.55-.21-2.44-.66-9.38-.66-9.38H160.5c2.06,2.94,5.95,8.72,6.89,9.77,1.19,1.33,7.72.37,7.77-1.64s-1.19-10-1.19-10,6,1.74,8.54-2.19C182.51,253.07,175.11,254.44,172.78,249.65Zm-13.43,5.84c.1.12.26.33.44.59Zm9.34,3a2.73,2.73,0,1,1,2.72-2.72A2.72,2.72,0,0,1,168.69,258.51Z"/><path class="cls-2" d="M109.71,269.41a1,1,0,0,1-.91-.58c-1.26-2.76-2.32-5.16-2.32-5.16a1,1,0,0,1,.51-1.32,1,1,0,0,1,1.32.51s1,2.39,2.31,5.14a1,1,0,0,1-.49,1.32A1.06,1.06,0,0,1,109.71,269.41Z"/><path class="cls-2" d="M113.88,268.32a1,1,0,0,1-1-.78l-1.44-6.26a1,1,0,0,1,.75-1.2,1,1,0,0,1,1.2.75l1.44,6.27a1,1,0,0,1-.75,1.19A.91.91,0,0,1,113.88,268.32Z"/><path class="cls-2" d="M106.37,270.2a1,1,0,0,1-.87-.51,8.26,8.26,0,0,0-1.48-1.48,1,1,0,0,1,1.24-1.57,9.59,9.59,0,0,1,2,2.06,1,1,0,0,1-.38,1.36A1,1,0,0,1,106.37,270.2Z"/><path class="cls-2" d="M194.53,267.29a1,1,0,0,1-.52-.14,1,1,0,0,1-.34-1.37,15.19,15.19,0,0,1,3.17-3.57,1,1,0,0,1,1.41.16,1,1,0,0,1-.16,1.4,13.43,13.43,0,0,0-2.7,3A1,1,0,0,1,194.53,267.29Z"/><path class="cls-2" d="M190.68,267.29a1.06,1.06,0,0,1-.31,0,1,1,0,0,1-.65-1.26,48.91,48.91,0,0,1,3.95-8.83,1,1,0,0,1,1.72,1,47.42,47.42,0,0,0-3.76,8.42A1,1,0,0,1,190.68,267.29Z"/><path class="cls-2" d="M187.48,267.29a1,1,0,0,1-1-1v-6.14a1,1,0,0,1,2,0v6.14A1,1,0,0,1,187.48,267.29Z"/><path class="cls-2" d="M184.44,267.29a1,1,0,0,1-.87-.49l-1.92-3.31a1,1,0,1,1,1.72-1l1.93,3.3a1,1,0,0,1-.36,1.37A1,1,0,0,1,184.44,267.29Z"/><path class="cls-2" d="M382.09,306.29a1,1,0,0,1-.92-.59A29.9,29.9,0,0,0,379.8,303a1,1,0,0,1,.36-1.37,1,1,0,0,1,1.37.36c0,.06.78,1.35,1.47,2.9a1,1,0,0,1-.51,1.33A1.14,1.14,0,0,1,382.09,306.29Z"/><path class="cls-2" d="M385.39,306.29a1,1,0,0,1-1-1,51.65,51.65,0,0,0-.88-7.45,1,1,0,0,1,2-.38,52.77,52.77,0,0,1,.91,7.83A1,1,0,0,1,385.39,306.29Z"/><path class="cls-2" d="M388.9,306.29l-.26,0a1,1,0,0,1-.71-1.23l1.1-4.09a1,1,0,1,1,1.93.51l-1.09,4.1A1,1,0,0,1,388.9,306.29Z"/><circle class="cls-1" cx="157.76" cy="160.2" r="2.87"/><circle class="cls-1" cx="183.47" cy="126.24" r="0.96"/><circle class="cls-1" cx="152.85" cy="93.03" r="3.29"/><circle class="cls-1" cx="94.91" cy="162.31" r="3.52"/><circle class="cls-1" cx="369.34" cy="167.55" r="2.48"/><circle class="cls-1" cx="398.91" cy="63.53" r="2.48"/><circle class="cls-1" cx="282.33" cy="55.94" r="5.12"/><circle class="cls-1" cx="353.86" cy="89.83" r="3.35"/><path class="cls-2" d="M408.17,144.6a27.45,27.45,0,0,1,0-54.9,1.83,1.83,0,1,1,0,3.65,23.8,23.8,0,1,0,23.8,23.8,1.83,1.83,0,0,1,3.65,0A27.48,27.48,0,0,1,408.17,144.6Z"/><ellipse class="cls-2" cx="395.63" cy="116.04" rx="4.55" ry="5.99" transform="translate(-16.55 125.71) rotate(-17.69)"/><circle class="cls-2" cx="399.89" cy="131.02" r="1.95"/><circle class="cls-2" cx="413.3" cy="133.71" r="1.95"/><circle class="cls-2" cx="408.76" cy="124.09" r="1.37"/><circle class="cls-2" cx="421.65" cy="126.21" r="0.6"/><circle class="cls-1" cx="323.43" cy="130.72" r="7.23"/><path class="cls-1" d="M1058.42,709.55l20.69-14.35c-8.69-7.33-24.86-17.1-38.83-18"/><ellipse class="cls-6" cx="1005.93" cy="707.63" rx="24.59" ry="49.5" transform="translate(-115.95 1211.63) rotate(-59.32)"/><path class="cls-7" d="M1083.6,730.15c5.64,3.35,11.62,12.67,13.1,19.08-6.33,1.76-17.38,1-23-2.36a9.72,9.72,0,1,1,9.92-16.72Z"/><ellipse class="cls-8" cx="1013.69" cy="694.55" rx="24.59" ry="49.5" transform="translate(-100.9 1211.9) rotate(-59.32)"/><ellipse class="cls-1" cx="1018.6" cy="696.67" rx="18.39" ry="44.2" transform="translate(-100.32 1217.17) rotate(-59.32)"/><path class="cls-8" d="M976.8,694.78l-6.95,11.7s-3.07-2.47-4.14-4.69-5.71-10.95-2.11-17.21,5.09-8.19,6.07-4.59S976.8,694.78,976.8,694.78Z"/><path class="cls-1" d="M1029.14,726.61c7.38,1.36,10.67,1.11,15.39,0s4.16.71,6.72,4,9.7,28.26,9.7,28.26-10,.85-21.16-5.78-37.81-25.61-37.45-31.74,2.53-1.32,9.69.79S1029.14,726.61,1029.14,726.61Z"/><path class="cls-8" d="M1076.51,695.83c-11.65-6.42-24.77-12.43-32.3-10.84,0,0-3.86-7.08-2.56-7.68s28.33,10.88,33.52,14.79S1076.51,695.83,1076.51,695.83Z"/><path class="cls-1" d="M1046.46,707.42a95.72,95.72,0,0,1,18.09,7c4.5,2.41,6.3,3.32,6,5.46s-5.74,14.69-8.35,16.1-6.59-.74-8-4.16-1.34-5.23-5.69-10.41S1036.49,706.73,1046.46,707.42Z"/><path class="cls-8" d="M1069.13,722.3A89.45,89.45,0,0,0,1044.74,712l2.73,5.36,19.73,11.71Z"/><path class="cls-8" d="M1058.5,755.92c-7.87-3.09-30.58-12.16-44.93-31.4,0,0-10-7-11.52-6.83s8.92,17.47,23.77,26.16S1060.81,762.16,1058.5,755.92Z"/><path class="cls-1" d="M991.65,677.94c-8,13.56,41,42.68,49.08,29.13a28.54,28.54,0,1,0-49.08-29.13Z"/><path class="cls-2" d="M993,731.57a92.79,92.79,0,0,0,24.52,10.29v-.05a109.71,109.71,0,0,0,41.08,19.11,3.91,3.91,0,0,0,.67.07,3.57,3.57,0,0,0,3.48-4.53l-3.76-13c3.09-1.66,6.39-5.17,9.31-10.09,3.86-6.52,7.1-17,2.2-19.93a79.19,79.19,0,0,0-7.68-4l16.66-11.55a3.38,3.38,0,0,0,1.44-2.62,3.27,3.27,0,0,0-1.2-2.67c-9.12-7.43-24.42-16.35-38.13-17.68a30.69,30.69,0,0,0-34.13-12c-17.66-5.34-31.94-3.12-37.36,5.83h0L962.19,682C954.5,695,968,716.75,993,731.57Zm7.25-65.59a30.66,30.66,0,0,0-10.68,10.73c-5,8.46,6.1,20.17,19.35,28,8,4.74,16.86,8.14,23.73,8.22a14.07,14.07,0,0,0,6.44-1.28l8.64,12.74c-10.45,3.4-28.09-.56-44.41-10.24-11-6.55-20.11-14.79-25.58-23.21-5.13-7.93-6.4-14.92-3.56-19.71C977.78,665.24,987.69,663.35,1000.26,666Zm41.85,29.66A24.37,24.37,0,0,0,996.77,683a6.22,6.22,0,0,0-.26,5.4c-1.84-2.3-4.46-6.37-2.78-9.2a26,26,0,0,1,16-12,26.9,26.9,0,0,1,6.82-.82,26.14,26.14,0,0,1,25.56,29.27Zm17.69,10c-2.17-6.35-6.78-13.17-13.41-19.71a30.59,30.59,0,0,0-1.85-5.75c10.43,2,22.2,8.44,30.54,14.87Zm-12.69-11.85a44.74,44.74,0,0,1,7.9,12.75,60.16,60.16,0,0,0-9.36-1.66l-1.06-.15A30.68,30.68,0,0,0,1047.11,693.8Zm11.47,38.79-3.3-2-1.18-4.1a15.54,15.54,0,0,0-2.06-4.38l-8.62-12.7c.55.07,1.1.16,1.66.22,5.9.71,12,1.43,23,7.94.57.85.11,6.56-3.89,13.3-.23.39-.46.71-.69,1.07A3.67,3.67,0,0,1,1058.58,732.59Zm-53.9-12.12c11.87,6.38,24,9.87,34,10a32.58,32.58,0,0,0,11.17-1.64l7.7,26.91C1044.71,752.64,1016.87,741.83,1004.68,720.47Zm-3.32,10.16,1.95-3.3a61.7,61.7,0,0,0,5.52,6.64C1006.33,733,1003.83,731.88,1001.36,730.63Zm-8.2-4.67,4.79-8.08a51.77,51.77,0,0,0,3.29,6.32l-2.88,4.86c-1-.53-1.93-1.08-2.88-1.65C994.69,726.94,993.93,726.44,993.16,726Zm-7.73-5.45,5.35-9c1.59,1.22,3.24,2.41,4.93,3.56l-5.38,9.06Q987.78,722.36,985.43,720.51Zm-7.21-6.34,5.29-8.91c1.45,1.39,3,2.75,4.61,4.09l-5.34,9C981.18,717,979.64,715.58,978.22,714.17Zm-6.52-7.49,5.17-8.72c1.29,1.63,2.67,3.24,4.18,4.83l-5.25,8.85A61.77,61.77,0,0,1,971.7,706.68Zm-5.36-9.45,4.82-8.12a44.84,44.84,0,0,0,2.54,4.49c.31.48.66.95,1,1.42l-5.1,8.59A36,36,0,0,1,966.34,697.23Zm0-12.74,2-3.39a28.07,28.07,0,0,0,1.15,4.17l-4.4,7.41A12.11,12.11,0,0,1,966.34,684.49Z"/><path class="cls-4" d="M1119.35,666.37c0,5.83-7.55,10.56-16.87,10.56s-16.87-4.73-16.87-10.56v-4.61h33.74Z"/><ellipse class="cls-5" cx="1102.48" cy="661.76" rx="16.87" ry="10.55"/><path class="cls-6" d="M937.32,569.58c4.78,3.34,4.32,12.24-1,19.88s-13.54,11.11-18.32,7.77l-3.78-2.64,19.35-27.65Z"/><ellipse class="cls-1" cx="923.87" cy="580.77" rx="16.87" ry="10.55" transform="translate(-81.59 1004.88) rotate(-55.02)"/><path class="cls-4" d="M1069.38,804.64c2.75,6.33-3.56,15.19-14.11,19.78s-21.33,3.17-24.09-3.17l-2.18-5,38.2-16.62Z"/><ellipse class="cls-5" cx="1048.1" cy="807.93" rx="20.83" ry="12.52" transform="translate(-235.29 485.18) rotate(-23.51)"/><path class="cls-4" d="M871.77,778.77c-4.65-4.14-1.3-15.49,7.48-25.33S898.92,739,903.57,743.1l4.84,4.32-31.8,35.67Z"/><ellipse class="cls-5" cx="892.51" cy="765.25" rx="23.89" ry="11.27" transform="translate(-272.63 922.19) rotate(-48.28)"/><path class="cls-4" d="M907.54,763.23c-.42.84-.9,1.68-1.42,2.52,5,7.81,6.26,14.45,3.67,17-1.86,1.86-5.75,1.76-10.67-.27-5.35-2.22-11.26-6.41-16.65-11.79C870.7,759,866.73,747.1,870.41,743.42c2.75-2.75,10.06-1.21,18.49,4.64a5.22,5.22,0,0,1,2.2-1.6c-9.44-6.74-18.44-9-22.53-4.88-5.3,5.3,0,18.92,12.06,31,5.63,5.62,11.84,10,17.5,12.35a20.7,20.7,0,0,0,7.74,1.79,7.84,7.84,0,0,0,5.75-2.08C915.54,780.71,913.66,772.25,907.54,763.23Z"/><path class="cls-2" d="M1051.54,625.4c-4.37,1.58-10.64-4.64-14-13.91s-2.54-18.06,1.83-19.65l4.56-1.65,12.17,33.56Z"/><ellipse class="cls-6" cx="1050.01" cy="606.97" rx="8.42" ry="17.85" transform="translate(-144.04 394.41) rotate(-19.94)"/><path class="cls-2" d="M1065,592.29c-2-2.25-5.76-2.55-10.53-.87a30.83,30.83,0,0,0-3.38,1.44,20.37,20.37,0,0,1,2,2.2c.8-.37,1.58-.7,2.34-1,3.52-1.25,6.32-1.21,7.49.09s.9,4.09-.7,7.45a40,40,0,0,1-9.35,11.82c-8.92,8-17.82,10.63-20.22,7.95-1.17-1.3-.91-4.09.7-7.45a34,34,0,0,1,5.26-7.68,7.45,7.45,0,0,1-.47-3.65,39.86,39.86,0,0,0-7.35,10.11c-2.18,4.57-2.26,8.32-.25,10.56a6.57,6.57,0,0,0,5.09,2c5.05,0,12.24-3.49,19.13-9.69a43,43,0,0,0,10-12.7C1066.91,598.29,1067,594.54,1065,592.29Z"/><path class="cls-6" d="M1168.87,763.51c6,2.83,6.08,15.5.1,28.3s-15.74,20.89-21.78,18.06l-6.3-2.94,21.68-46.36Z"/><ellipse class="cls-1" cx="1151.73" cy="783.75" rx="25.59" ry="12.08" transform="translate(-46.12 1495.02) rotate(-64.94)"/><path class="cls-6" d="M1121.67,783.46c-.23,4.32,3.25,8.43,9.8,11.56a43.89,43.89,0,0,0,4.88,2,28.43,28.43,0,0,1,.23-4.24c-1.18-.43-2.32-.88-3.36-1.38-4.83-2.31-7.63-5.18-7.5-7.69s3.23-5.06,8.27-6.85c5.77-2,13.39-2.93,21.46-2.5,17.17.91,28.84,7.29,28.56,12.44-.13,2.51-3.22,5.07-8.26,6.85a49.41,49.41,0,0,1-13.13,2.45,10.57,10.57,0,0,1-3.23,4.18,57,57,0,0,0,17.71-2.8c6.84-2.42,10.73-6.14,11-10.46.14-2.54-1-5-3.18-7.14-5.12-5.12-15.94-8.87-29.22-9.57-8.58-.46-16.76.51-23,2.73C1125.79,775.42,1121.9,779.13,1121.67,783.46Z"/><path class="cls-1" d="M1130.35,721.76a1.3,1.3,0,0,1-1.3-1.3V716a1.3,1.3,0,1,1,2.6,0v4.44A1.3,1.3,0,0,1,1130.35,721.76Z"/><path class="cls-1" d="M1140,726.93h-4.43a1.3,1.3,0,0,1,0-2.6H1140a1.3,1.3,0,0,1,0,2.6Z"/><path class="cls-1" d="M1130.35,736.55a1.3,1.3,0,0,1-1.3-1.3v-4.44a1.3,1.3,0,1,1,2.6,0v4.44A1.3,1.3,0,0,1,1130.35,736.55Z"/><path class="cls-1" d="M1125.17,726.93h-4.43a1.3,1.3,0,0,1,0-2.6h4.43a1.3,1.3,0,0,1,0,2.6Z"/><path class="cls-6" d="M981.05,772.3a1.3,1.3,0,0,1-1.3-1.3v-7.18a1.3,1.3,0,0,1,2.6,0V771A1.3,1.3,0,0,1,981.05,772.3Z"/><path class="cls-6" d="M990.66,777.48h-4.44a1.3,1.3,0,0,1,0-2.6h4.44a1.3,1.3,0,1,1,0,2.6Z"/><path class="cls-6" d="M981.05,789.83a1.3,1.3,0,0,1-1.3-1.3v-7.18a1.3,1.3,0,0,1,2.6,0v7.18A1.3,1.3,0,0,1,981.05,789.83Z"/><path class="cls-6" d="M975.87,777.48h-4.44a1.3,1.3,0,0,1,0-2.6h4.44a1.3,1.3,0,0,1,0,2.6Z"/><path class="cls-6" d="M1180.68,652.18a1.3,1.3,0,0,1-1.3-1.3V643.7a1.3,1.3,0,1,1,2.6,0v7.18A1.3,1.3,0,0,1,1180.68,652.18Z"/><path class="cls-6" d="M1190.29,657.36h-4.44a1.3,1.3,0,0,1,0-2.6h4.44a1.3,1.3,0,1,1,0,2.6Z"/><path class="cls-6" d="M1180.68,669.71a1.3,1.3,0,0,1-1.3-1.3v-7.18a1.3,1.3,0,1,1,2.6,0v7.18A1.3,1.3,0,0,1,1180.68,669.71Z"/><path class="cls-6" d="M1175.5,657.36h-4.44a1.3,1.3,0,0,1,0-2.6h4.44a1.3,1.3,0,1,1,0,2.6Z"/><path class="cls-1" d="M1099.87,599.48a1.3,1.3,0,0,1-1.3-1.3v-3.59a1.3,1.3,0,0,1,2.6,0v3.59A1.3,1.3,0,0,1,1099.87,599.48Z"/><path class="cls-1" d="M1107.37,603.39h-3.59a1.3,1.3,0,0,1,0-2.6h3.59a1.3,1.3,0,1,1,0,2.6Z"/><path class="cls-1" d="M1099.87,610.89a1.3,1.3,0,0,1-1.3-1.3V606a1.3,1.3,0,1,1,2.6,0v3.59A1.3,1.3,0,0,1,1099.87,610.89Z"/><path class="cls-1" d="M1096,603.39h-3.59a1.3,1.3,0,0,1,0-2.6H1096a1.3,1.3,0,0,1,0,2.6Z"/><path class="cls-1" d="M869.13,694.06a1.3,1.3,0,0,1-1.3-1.3v-3.59a1.3,1.3,0,1,1,2.59,0v3.59A1.3,1.3,0,0,1,869.13,694.06Z"/><path class="cls-1" d="M876.63,698H873a1.3,1.3,0,1,1,0-2.6h3.59a1.3,1.3,0,0,1,0,2.6Z"/><path class="cls-1" d="M869.13,705.47a1.3,1.3,0,0,1-1.3-1.3v-3.58a1.3,1.3,0,1,1,2.59,0v3.58A1.3,1.3,0,0,1,869.13,705.47Z"/><path class="cls-1" d="M865.21,698h-3.58a1.3,1.3,0,1,1,0-2.6h3.58a1.3,1.3,0,0,1,0,2.6Z"/><path class="cls-1" d="M993.16,628.5a1.3,1.3,0,0,1-1.3-1.3v-9.5a1.3,1.3,0,1,1,2.6,0v9.5A1.3,1.3,0,0,1,993.16,628.5Z"/><path class="cls-1" d="M997.91,623.75h-9.5a1.3,1.3,0,0,1,0-2.6h9.5a1.3,1.3,0,0,1,0,2.6Z"/><rect class="cls-2" x="960.34" y="667.1" width="4.55" height="13.06" transform="translate(-107.89 1157.81) rotate(-59.32)"/><path class="cls-2" d="M952.63,654.55a2,2,0,0,1-2-1.95v-26a2,2,0,0,1,3.9,0v26A2,2,0,0,1,952.63,654.55Z"/><path class="cls-2" d="M941.36,658.46a2,2,0,0,1-1.38-.57L923.8,641.7a1.94,1.94,0,0,1,2.75-2.75l16.19,16.18a2,2,0,0,1-1.38,3.33Z"/><path class="cls-2" d="M963.9,658.46a2,2,0,0,1-1.38-3.33l12.65-12.64a1.95,1.95,0,0,1,2.75,2.76l-12.64,12.64A2,2,0,0,1,963.9,658.46Z"/><path class="cls-2" d="M937.45,669.73h-24.6a2,2,0,0,1,0-3.9h24.6a2,2,0,0,1,0,3.9Z"/><path class="cls-2" d="M924.18,698.18a2,2,0,0,1-1.37-3.33L940,677.67a2,2,0,0,1,2.76,2.76l-17.18,17.18A2,2,0,0,1,924.18,698.18Z"/><path class="cls-2" d="M952.63,706.13a2,2,0,0,1-2-2V683a2,2,0,0,1,3.9,0v21.22A2,2,0,0,1,952.63,706.13Z"/><circle class="cls-1" cx="871.74" cy="630.32" r="3.85"/><circle class="cls-1" cx="1108.41" cy="822.17" r="2.81"/><circle class="cls-1" cx="965.8" cy="817.95" r="1.41"/><circle class="cls-1" cx="823.95" cy="774.88" r="1.41"/><circle class="cls-1" cx="898.34" cy="819.36" r="4.13"/><circle class="cls-1" cx="1212.35" cy="733.48" r="2.77"/><circle class="cls-1" cx="1161.07" cy="582.09" r="3.46"/><circle class="cls-5" cx="952.63" cy="667.78" r="7.23"/><polygon class="cls-9" points="208.21 654.25 256.91 702.62 265.24 667.97 273.58 633.32 208.21 654.25"/><polygon class="cls-10" points="352.49 688.95 287.12 709.88 295.46 675.24 303.79 640.59 352.49 688.95"/><path class="cls-1" d="M464.2,700.28l16-19.48c-10.36-4.66-28.6-9.62-42.28-6.66"/><ellipse class="cls-6" cx="413.2" cy="712.85" rx="24.59" ry="49.5" transform="translate(-381.34 930.98) rotate(-75.25)"/><path class="cls-7" d="M494.07,713.17c6.34,1.67,14.65,9,17.84,14.75-5.61,3.43-16.44,5.72-22.79,4.05a9.72,9.72,0,0,1,4.95-18.8Z"/><ellipse class="cls-8" cx="417.08" cy="698.14" rx="24.59" ry="49.5" transform="translate(-364.23 923.76) rotate(-75.25)"/><ellipse class="cls-1" cx="422.38" cy="698.83" rx="18.39" ry="44.2" transform="matrix(0.25, -0.97, 0.97, 0.25, -360.95, 929.4)"/><path class="cls-8" d="M381.66,708.49l-3.46,13.15s-3.64-1.53-5.27-3.37-8.5-9-6.76-16,2.65-9.27,4.58-6.08S381.66,708.49,381.66,708.49Z"/><path class="cls-1" d="M440.73,724.72c7.48-.72,10.57-1.86,14.81-4.19s4.2-.46,7.56,2S480.19,747,480.19,747s-9.37,3.57-21.94.25S414.86,733,413.53,727s2.06-2,9.53-1.9S440.73,724.72,440.73,724.72Z"/><path class="cls-8" d="M477.83,682.12c-13-3-27.23-5.16-34-1.56,0,0-5.65-5.74-4.57-6.68s30.23,2.69,36.29,5S477.83,682.12,477.83,682.12Z"/><path class="cls-1" d="M452.12,701.51a94.89,94.89,0,0,1,19.31,1.72c5,1.08,7,1.47,7.28,3.6s-1.5,15.7-3.61,17.78-6.54,1.09-8.79-1.83-2.73-4.66-8.33-8.45S442.35,703.59,452.12,701.51Z"/><path class="cls-8" d="M478,709.6a89.23,89.23,0,0,0-26.29-3.23l4.11,4.41L478,716.62Z"/><path class="cls-8" d="M477,744.84c-8.41-.8-32.74-3.29-51.81-17.85,0,0-11.54-4-13-3.41s13.38,14.35,30,18.63S481,750.21,477,744.84Z"/><path class="cls-1" d="M391.33,688.22c-4,15.24,51.18,29.76,55.19,14.52a28.53,28.53,0,1,0-55.19-14.52Z"/><rect class="cls-2" x="360.49" y="686.68" width="4.83" height="11.22" transform="translate(-398.97 866.93) rotate(-75.25)"/><path class="cls-2" d="M407.36,739.41a92.57,92.57,0,0,0,26.4,3.16v-.05a109.67,109.67,0,0,0,44.75,7.1,3.61,3.61,0,0,0,.67-.12,3.57,3.57,0,0,0,2.1-5.31l-7.18-11.45c2.52-2.44,4.72-6.73,6.18-12.26,1.92-7.33,2.16-18.31-3.36-19.76a76.89,76.89,0,0,0-8.48-1.78l12.84-15.68a3.35,3.35,0,0,0,.67-2.92,3.26,3.26,0,0,0-1.89-2.23c-10.81-4.64-28-9-41.52-6.54a30.75,30.75,0,0,0-36.12-2.21c-18.45-.27-31.57,5.77-34.33,15.88h0l-3.95,15C360.28,714.8,379.27,732,407.36,739.41Zm-11-65.06A30.8,30.8,0,0,0,389,687.6c-2.5,9.51,11.41,17.72,26.31,21.65,9,2.36,18.45,3.19,25.07,1.39a14.12,14.12,0,0,0,5.84-3L458,717.52c-9.11,6.14-27.16,7.18-45.52,2.34-12.4-3.26-23.39-8.69-31-15.29-7.11-6.21-10.25-12.59-8.83-18C374.5,679.81,383.51,675.27,396.32,674.35Zm48.38,17a24.37,24.37,0,0,0-47.07.27,6.26,6.26,0,0,0,1.23,5.27c-2.4-1.71-6-4.9-5.2-8.09a26.11,26.11,0,0,1,51,2.55Zm19.77,4.77c-3.84-5.52-10.15-10.81-18.31-15.27a31.94,31.94,0,0,0-3.36-5c10.58-.93,23.66,2,33.45,5.92ZM449,688.24a44.48,44.48,0,0,1,11.1,10.09,61.23,61.23,0,0,0-9.45,1c-.35.06-.71.1-1.06.15A30.7,30.7,0,0,0,449,688.24Zm21.69,34.15-3.71-1-2.27-3.62a15.34,15.34,0,0,0-3.18-3.64l-11.78-9.85c.55-.09,1.11-.15,1.67-.24,5.87-1,11.93-1.93,24.26,1.32.78.66,1.91,6.28-.08,13.86-.12.43-.25.81-.38,1.22A3.66,3.66,0,0,1,470.69,722.39Zm-55.16,3.14c13.17,2.87,25.79,2.9,35.42.28a32.69,32.69,0,0,0,10.3-4.65L476,744.92C462.86,745.47,433.11,742.72,415.53,725.53Zm-.41,10.68,1-3.71a61.43,61.43,0,0,0,7.12,4.88C420.56,737.11,417.85,736.73,415.12,736.21ZM406,734l2.39-9.08a51.17,51.17,0,0,0,4.9,5.18l-1.44,5.45c-1.07-.24-2.15-.5-3.22-.79C407.7,734.5,406.83,734.23,406,734ZM397,730.85l2.67-10.14c1.86.74,3.77,1.42,5.72,2.06L402.73,733C400.77,732.31,398.87,731.6,397,730.85Zm-8.67-4.11,2.64-10c1.78.94,3.64,1.82,5.56,2.66l-2.67,10.12C392,728.62,390.11,727.71,388.36,726.74ZM380,721.33l2.58-9.8c1.69,1.21,3.46,2.38,5.34,3.49l-2.62,10A63,63,0,0,1,380,721.33Zm-7.75-7.61,2.41-9.14a45,45,0,0,0,3.67,3.62c.43.38.9.73,1.35,1.1L377.16,719A36.68,36.68,0,0,1,372.28,713.72Zm-3.49-12.26,1-3.81a28.18,28.18,0,0,0,2.26,3.69l-2.2,8.34A12.12,12.12,0,0,1,368.79,701.46Z"/><path class="cls-11" d="M123.56,607.77,83.5,598.13c-5.3-1.27-12.25,8.75-15.53,22.39s-1.64,25.72,3.65,27l40.06,9.64c5.3,1.27,12.25-8.75,15.53-22.38S128.85,609,123.56,607.77Z"/><ellipse class="cls-8" cx="117.52" cy="632.88" rx="25.74" ry="9.86" transform="translate(-525.29 599.13) rotate(-76.48)"/><rect class="cls-11" x="94.06" y="509.8" width="46.77" height="84.4" rx="4.11" transform="translate(132.35 -12.16) rotate(13.52)"/><rect class="cls-6" x="94.15" y="515.16" width="39.55" height="77.29" transform="translate(132.67 -11.28) rotate(13.52)"/><rect class="cls-11" x="57.29" y="662.66" width="46.77" height="84.4" rx="4.11" transform="translate(167.08 0.68) rotate(13.52)"/><rect class="cls-6" x="57.36" y="668.1" width="39.55" height="77.29" transform="translate(167.42 1.56) rotate(13.52)"/><polygon class="cls-8" points="70.76 606.51 112.44 616.54 118.47 607.84 76.79 597.82 70.76 606.51"/><path class="cls-6" d="M106.3,639.72,68,630.51l1.65,14s7.32,4,11,4.76S107,655.57,107,655.57Z"/><path class="cls-2" d="M125.7,600.06l-37.48-9a6.73,6.73,0,0,1-5-8.09l17.82-74.07a6.7,6.7,0,0,1,8.09-4.95l37.47,9a6.73,6.73,0,0,1,5,8.09l-17.82,74.07A6.71,6.71,0,0,1,125.7,600.06ZM108,509a1.5,1.5,0,0,0-1.82,1.12L88.32,584.17A1.51,1.51,0,0,0,89.44,586l37.48,9a1.51,1.51,0,0,0,1.82-1.12l17.82-74.06a1.53,1.53,0,0,0-1.12-1.83Z"/><path class="cls-2" d="M111.08,659.67l1.21-5c2.81.68,9.19-7.14,12.39-20.46S125.76,611,123,610.3l1.22-5c8,1.91,8.82,16.6,5.56,30.12S119,661.59,111.08,659.67Z"/><ellipse class="cls-11" cx="119.88" cy="635.41" rx="19.78" ry="6.97" transform="translate(-525.95 603.37) rotate(-76.48)"/><path class="cls-2" d="M111.08,659.67c-8-1.91-8.82-16.6-5.57-30.12s10.71-26.22,18.66-24.3l-1.22,5c-2.81-.68-9.18,7.14-12.39,20.46s-1.08,23.19,1.73,23.86Z"/><path class="cls-2" d="M85.11,619.06a45.54,45.54,0,0,1,5.69-11.78l-8.44-2A45.62,45.62,0,0,0,76.68,617Z"/><path class="cls-11" d="M72.54,607.86l-10-8.41s-5.94,1.51-9.31,9.66-3.28,14.06-3.28,14.06l16.47,4Z"/><path class="cls-2" d="M96.16,621.72a45.38,45.38,0,0,1,5.69-11.78L97,608.78a45.94,45.94,0,0,0-5.68,11.79Z"/><path class="cls-6" d="M66.46,624.39l-16.3-3s-.81,1.35-.45,7.31,2.94,11.89,6.9,11.82,8.2-2.12,9-5.13S66.46,624.39,66.46,624.39Z"/><polygon class="cls-8" points="70.61 609.57 57.43 602.17 66.96 597.52 72.82 605.21 70.61 609.57"/><path class="cls-2" d="M111.08,659.67,71,650c-8-1.91-8.82-16.61-5.56-30.13s10.7-26.21,18.66-24.3l40.06,9.64c8,1.91,8.82,16.6,5.56,30.12S119,661.59,111.08,659.67Zm-28.19-59c-2.81-.67-9.19,7.14-12.39,20.47S69.42,644.31,72.23,645l40.06,9.63c2.81.68,9.19-7.14,12.39-20.46S125.76,611,123,610.3Z"/><path class="cls-2" d="M118.79,643.32c-3.49-.84-5.25-6-3.92-11.52s5.24-9.32,8.73-8.48l4.42,1.06a82,82,0,0,0-3.19,9.81c-1.14,4.77-1.2,6.32-1.9,10.12Z"/><path class="cls-2" d="M81.67,629.54l-5-1.2c-1.8-.43-3.57,1.1-4,3.42s.77,4.55,2.57,5l5,1.19c1.8.44,3.57-1.09,4-3.42S83.47,630,81.67,629.54Z"/><ellipse class="cls-2" cx="91.57" cy="636.2" rx="4.22" ry="3.17" transform="translate(-548.48 695.16) rotate(-87.07)"/><path class="cls-2" d="M56,643.07c-7.62-1.84-11-13.83-7.81-27.31S60,593.16,67.57,595c2.25.54,7.36,6.23,8.82,8.68l-4.47,2.66A30.46,30.46,0,0,0,66.09,600c-4.05-.62-10.21,6-12.84,17s-.18,19.68,3.71,21A30.16,30.16,0,0,0,65,635l2.76,4.4C65.39,640.87,58.25,643.61,56,643.07Zm9.92-43.18Z"/><rect class="cls-2" x="75.24" y="550.05" width="84.4" height="3.9" transform="translate(-446.72 537.09) rotate(-76.48)"/><rect class="cls-2" x="120.43" y="508.1" width="3.9" height="46.77" transform="translate(-422.99 526.17) rotate(-76.48)"/><rect class="cls-2" x="115.49" y="528.62" width="3.9" height="46.77" transform="translate(-446.72 537.09) rotate(-76.48)"/><rect class="cls-2" x="110.56" y="549.13" width="3.9" height="46.77" transform="translate(-470.44 548.01) rotate(-76.48)"/><path class="cls-2" d="M88.93,752.92l-37.47-9a6.73,6.73,0,0,1-5-8.09l17.82-74.07a6.7,6.7,0,0,1,8.09-5l37.48,9a6.72,6.72,0,0,1,5,8.09L97,748A6.71,6.71,0,0,1,88.93,752.92ZM71.19,661.85A1.51,1.51,0,0,0,69.37,663L51.56,737a1.52,1.52,0,0,0,1.11,1.83l37.48,9A1.51,1.51,0,0,0,92,746.75l17.82-74.06a1.53,1.53,0,0,0-1.12-1.83Z"/><rect class="cls-2" x="38.47" y="702.91" width="84.4" height="3.9" transform="translate(-623.51 618.45) rotate(-76.48)"/><rect class="cls-2" x="83.66" y="660.96" width="3.9" height="46.77" transform="translate(-599.78 607.53) rotate(-76.48)"/><rect class="cls-2" x="78.72" y="681.48" width="3.9" height="46.77" transform="translate(-623.51 618.45) rotate(-76.48)"/><rect class="cls-2" x="73.79" y="701.99" width="3.9" height="46.77" transform="translate(-647.23 629.37) rotate(-76.48)"/><rect class="cls-2" x="102.23" y="593.99" width="8.04" height="9.09" transform="translate(-500.54 561.86) rotate(-76.48)"/><rect class="cls-2" x="87.86" y="653.72" width="8.04" height="9.09" transform="translate(-569.62 593.65) rotate(-76.48)"/><path class="cls-11" d="M167.72,600.23c-17.92-4.31-36.95,10.94-42.52,34s4.46,45.36,22.38,49.67c8.24,2,19.43-15.16,25-38.27S176,602.21,167.72,600.23Z"/><path class="cls-8" d="M127.38,634c4.08-12.93,16.1-19.24,24-21.66l8.6-12.83S132.07,604.35,127.38,634Z"/><path class="cls-6" d="M127,635.49c-2.24,13.37,5.59,24.46,11.54,30.21L140.39,681S117.71,664.06,127,635.49Z"/><path class="cls-2" d="M147,686.47c-11.33-2.72-11.94-27.06-6.77-48.58S157,595,168.33,597.7l-1.22,5.06c-5.18-1.25-16,12-21.85,36.35s-2.25,41.07,2.93,42.31Z"/><ellipse class="cls-2" cx="152.39" cy="646.73" rx="35.13" ry="12.55" transform="translate(-512.04 643.65) rotate(-76.48)"/><path class="cls-2" d="M147,686.47c-19.28-4.64-30.18-28.32-24.29-52.79s26.36-40.61,45.65-36c11.33,2.73,11.94,27.07,6.77,48.58S158.31,689.2,147,686.47Zm20.14-83.71c-16.5-4-34.16,10.44-39.38,32.13s4,42.56,20.46,46.53c5.17,1.25,16-12,21.85-36.35S172.29,604,167.11,602.76Z"/><rect class="cls-2" x="184.97" y="598.94" width="5.2" height="58.65" transform="translate(-306.64 197.39) rotate(-32.29)"/><rect class="cls-2" x="148.69" y="665.41" width="58.65" height="5.2" transform="translate(-315.63 184.02) rotate(-30.64)"/><rect class="cls-2" x="172.54" y="615.56" width="5.2" height="61.46" transform="translate(-494.19 665.43) rotate(-76.48)"/><circle class="cls-6" cx="208.21" cy="654.25" r="9.04"/><path class="cls-4" d="M266.21,707.35c-15.49-3.72-24-23.31-19.13-43.75s21.45-34,36.93-30.27l10.25,2.46-17.81,74Z"/><ellipse class="cls-5" cx="284.56" cy="672.61" rx="38.07" ry="28.83" transform="translate(-435.95 791.98) rotate(-76.48)"/><ellipse class="cls-4" cx="284.56" cy="672.61" rx="32.75" ry="23.53" transform="translate(-435.95 791.98) rotate(-76.48)"/><path class="cls-12" d="M296.84,642.71c7.89,6.61,11.4,20.36,7.94,34.77s-12.85,25.06-22.88,27.35c11.06-.6,21.86-11.44,25.53-26.72S306.42,648.27,296.84,642.71Z"/><path class="cls-12" d="M264.52,689.21,291,695.57c.55.13,1.15-.4,1.33-1.18l.83-3.43c.19-.78-.11-1.52-.66-1.65L266,683c-.55-.13-1.15.39-1.33,1.18l-.83,3.42C263.67,688.34,264,689.08,264.52,689.21Z"/><path class="cls-12" d="M292.79,653.82l-7.34,6.47-3.59-9.1a1.33,1.33,0,0,0-.89-.86l-6.71-1.61c-.55-.14-1.15.39-1.34,1.18l-6.73,28c-.19.78.11,1.53.66,1.66l2.4.58c.55.13,1.15-.4,1.34-1.18l5.56-23.13,2.1.5,5.07,12.85,2.52.61,7.84-9.75,2.1.51-5.56,23.13c-.19.78.1,1.53.65,1.66l2.41.58c.55.13,1.14-.4,1.33-1.18l6.73-28c.19-.78-.1-1.52-.65-1.66L294,653.46A1.35,1.35,0,0,0,292.79,653.82Z"/><polygon class="cls-12" points="292.55 664.71 282.19 673.85 279.63 661.61 277.12 661 274.99 669.86 280.06 682.71 282.57 683.31 290.42 673.57 295.07 665.32 292.55 664.71"/><path class="cls-5" d="M267,689.82l26.43,6.35c.55.14,1.15-.39,1.34-1.18l.82-3.42c.19-.78-.1-1.53-.65-1.66l-26.43-6.36c-.55-.13-1.15.4-1.34,1.18l-.82,3.43C266.19,688.94,266.48,689.68,267,689.82Z"/><path class="cls-5" d="M295.31,654.43,288,660.9l-3.6-9.1a1.32,1.32,0,0,0-.88-.86l-6.72-1.62c-.55-.13-1.15.4-1.34,1.18l-6.72,28c-.19.79.1,1.53.65,1.66l2.4.58c.55.13,1.15-.39,1.34-1.18l5.56-23.13,2.1.51,5.08,12.85,10.36-9.14,2.1.5-5.57,23.13c-.19.79.11,1.53.66,1.66l2.4.58c.55.13,1.15-.4,1.34-1.18l6.73-28c.18-.79-.11-1.53-.66-1.66l-6.71-1.62A1.32,1.32,0,0,0,295.31,654.43Z"/><polygon class="cls-5" points="295.07 665.32 284.71 674.46 279.63 661.61 277.5 670.46 282.57 683.31 292.94 674.17 295.07 665.32"/><path class="cls-1" d="M270.08,760.33a1.3,1.3,0,0,1-1.3-1.3v-6.27a1.3,1.3,0,0,1,2.6,0V759A1.3,1.3,0,0,1,270.08,760.33Z"/><path class="cls-1" d="M279.7,763.68h-6.27a1.3,1.3,0,0,1,0-2.6h6.27a1.3,1.3,0,1,1,0,2.6Z"/><path class="cls-1" d="M270.08,773.29a1.3,1.3,0,0,1-1.3-1.3v-6.26a1.3,1.3,0,1,1,2.6,0V772A1.3,1.3,0,0,1,270.08,773.29Z"/><path class="cls-1" d="M266.73,763.68h-6.26a1.3,1.3,0,0,1,0-2.6h6.26a1.3,1.3,0,1,1,0,2.6Z"/><path class="cls-1" d="M50.63,534.53a1.3,1.3,0,0,1-1.3-1.3v-3.59a1.3,1.3,0,0,1,2.6,0v3.59A1.3,1.3,0,0,1,50.63,534.53Z"/><path class="cls-1" d="M58.13,538.44H54.54a1.3,1.3,0,1,1,0-2.6h3.59a1.3,1.3,0,1,1,0,2.6Z"/><path class="cls-1" d="M50.63,545.94a1.3,1.3,0,0,1-1.3-1.3v-3.59a1.3,1.3,0,0,1,2.6,0v3.59A1.3,1.3,0,0,1,50.63,545.94Z"/><path class="cls-1" d="M46.72,538.44H43.13a1.3,1.3,0,1,1,0-2.6h3.59a1.3,1.3,0,1,1,0,2.6Z"/><path class="cls-1" d="M387.37,575.79a1.3,1.3,0,0,1-1.3-1.3V570.9a1.3,1.3,0,0,1,2.6,0v3.59A1.3,1.3,0,0,1,387.37,575.79Z"/><path class="cls-1" d="M394.87,579.7h-3.59a1.3,1.3,0,0,1,0-2.6h3.59a1.3,1.3,0,1,1,0,2.6Z"/><path class="cls-1" d="M387.37,587.2a1.3,1.3,0,0,1-1.3-1.3v-3.59a1.3,1.3,0,0,1,2.6,0v3.59A1.3,1.3,0,0,1,387.37,587.2Z"/><path class="cls-1" d="M383.46,579.7h-3.59a1.3,1.3,0,1,1,0-2.6h3.59a1.3,1.3,0,1,1,0,2.6Z"/><circle class="cls-1" cx="368.47" cy="634.04" r="2.6"/><circle class="cls-1" cx="203.01" cy="579.7" r="2.66"/><circle class="cls-1" cx="245.28" cy="613.29" r="2.72"/><circle class="cls-1" cx="205.62" cy="704.86" r="1.94"/><circle class="cls-1" cx="335.04" cy="755.73" r="3.8"/><circle class="cls-1" cx="392.46" cy="779.85" r="2.06"/><circle class="cls-1" cx="230.34" cy="812.64" r="2.59"/><circle class="cls-1" cx="156.79" cy="746.34" r="2.95"/><circle class="cls-1" cx="316.04" cy="569.6" r="3.53"/><circle class="cls-1" cx="200.35" cy="772.91" r="4.17"/><circle class="cls-1" cx="450.49" cy="625.16" r="2.72"/><circle class="cls-5" cx="351.13" cy="689.16" r="7.23"/><circle class="cls-13" cx="650.55" cy="449.65" r="247.01"/><ellipse class="cls-14" cx="693.25" cy="533.77" rx="7.77" ry="12.65" transform="translate(-150.31 301.57) rotate(-22.2)"/><polygon class="cls-14" points="564.42 416.18 562.74 412.76 569.54 399.48 575.47 399.48 579.66 394.27 573.88 388.41 577.7 383.99 595.77 368.98 601.95 365.55 600.65 354.92 602.74 352.68 611.05 358.54 619.56 355.86 625.51 354.74 626.14 357.01 631.84 355.86 630.59 345.55 642.59 343.13 643.54 352.36 656.98 352.52 656.34 344.35 666.18 344.35 665.05 350.82 668.99 351.89 668.99 355.86 677.06 357.9 694.31 365.55 702.2 359.68 708.05 363.59 704.88 371.76 718.65 374.1 719.93 376.24 718.01 381.77 723.54 388.9 727.81 386.04 733.44 393.47 726.07 403.1 738.97 409.94 741.45 415.29 738.25 423.95 564.42 416.18"/><ellipse class="cls-14" cx="680.21" cy="533.77" rx="7.77" ry="8.5" transform="translate(-100.39 161.93) rotate(-12.65)"/><polygon class="cls-14" points="606.81 531.35 605.11 534.43 607.96 536.47 621.12 541.66 624.92 543.15 625.99 540.69 627.64 541.66 626.58 546.84 632.54 548.37 637.84 543.42 641.88 544.17 641.88 548.37 644.37 548.37 644.37 544.17 649.58 544.17 654.68 544.17 655.51 542.07 672.08 539.78 674.84 542.07 683.97 539.86 686.94 544.17 692.51 542.3 698.8 533.77 700.46 535.5 704.24 533.77 699.62 525.58 705.08 521.98 714.88 519.01 718.24 515.57 724.05 520.44 726.9 517.95 722.66 514.63 722.66 511.31 728.58 502.55 730.89 499.33 734.07 500.85 737.93 496.48 731.41 493.03 735.08 492.09 735.57 485.45 606.81 531.35"/><rect class="cls-14" x="569.92" y="389.1" width="11.11" height="27.98" rx="5.02" transform="matrix(0.52, -0.85, 0.85, 0.52, -69.68, 681.37)"/><path class="cls-14" d="M585.7,374.27a2.62,2.62,0,0,1-3.52-3.88l8.43-7.65a30.5,30.5,0,0,0-3.34-2.69l-7.94,7.2a2.62,2.62,0,0,1-3.52-3.88l6.6-6c-5.52-2.28-11-2.06-14.54,1.14-5.78,5.25-4.13,16.47,3.67,25.06s18.82,11.32,24.59,6.08c5.34-4.84,4.33-14.78-2-23Z"/><polygon class="cls-14" points="729.14 348.38 726.51 346.25 692.63 375.82 702.52 381.26 709.9 389.81 731.78 350.51 729.14 348.38"/><path class="cls-14" d="M719.94,335.69l.23-.33a15.17,15.17,0,0,1,23.57,19.09c-.08.1-.18.19-.27.29Z"/><rect class="cls-14" x="706.66" y="342.84" width="47.99" height="7.33" rx="3.67" transform="translate(380.81 -382.56) rotate(38.99)"/><polygon class="cls-14" points="652.62 307.07 649.23 307.07 645.84 307.07 638.12 365.55 649.23 362.91 660.34 365.55 652.62 307.07"/><circle class="cls-14" cx="649.23" cy="300.85" r="14.31"/><rect class="cls-14" x="624.75" y="298.22" width="48.97" height="5.27" rx="2.64"/><rect class="cls-14" x="646.97" y="273.36" width="4.52" height="30.13"/><circle class="cls-14" cx="649.23" cy="270.67" r="5.56"/><path class="cls-14" d="M689.64,329.1l8.15-21.6a1.35,1.35,0,0,1,2.46-.15l1.93,3.65a4.54,4.54,0,0,1,.23,3.73l-10.75,28.58,8.12,8L688.4,372.89l-7.89-2.28,1.09-3-9.83-5.51,10.43-28.78a4.52,4.52,0,0,1,2.91-2.79Z"/><path class="cls-14" d="M623.86,362.43l-13.6-42.81-6.28,2S612.2,349,609.45,367Z"/><path class="cls-14" d="M618.7,317.42l-18.47,6a2.84,2.84,0,0,1-3.55-1.84h0a2.83,2.83,0,0,1,1.84-3.54L617,312a2.84,2.84,0,0,1,3.55,1.84h0A2.83,2.83,0,0,1,618.7,317.42Z"/><path class="cls-14" d="M624.24,325.54a2.83,2.83,0,0,0-3.55-1.83l-14.21,4.6a16.16,16.16,0,0,1,3,4.95l12.88-4.17A2.83,2.83,0,0,0,624.24,325.54Z"/><path class="cls-14" d="M628,337.21a2.82,2.82,0,0,0-3.55-1.83l-13.35,4.32c.32,1.86.62,3.79.81,5.67l14.25-4.61A2.84,2.84,0,0,0,628,337.21Z"/><rect class="cls-14" x="664.31" y="327.46" width="3.75" height="34.78" rx="1.87" transform="translate(66.22 -105.45) rotate(9.52)"/><rect class="cls-14" x="695.94" y="337.53" width="3.75" height="34.78" rx="1.87" transform="translate(247.16 -285.25) rotate(27.9)"/><path class="cls-14" d="M638.64,362h0a1.88,1.88,0,0,1-2.09-1.64l-5.95-36.45a1.89,1.89,0,0,1,1.64-2.09h0a1.89,1.89,0,0,1,2.09,1.64l5.95,36.46A1.88,1.88,0,0,1,638.64,362Z"/><rect class="cls-14" x="598.5" y="336.2" width="4.3" height="39.9" rx="2.15" transform="translate(-97.01 386.01) rotate(-33.12)"/><rect class="cls-14" x="604.93" y="344.71" width="6.09" height="56.52" rx="3.05" transform="translate(-103.23 426.99) rotate(-35.87)"/><path class="cls-14" d="M717.22,388.32h0a1.63,1.63,0,0,1,.2-2.3L734,372.14a1.62,1.62,0,0,1,2.29.2h0a1.64,1.64,0,0,1-.19,2.3l-16.61,13.88A1.63,1.63,0,0,1,717.22,388.32Z"/><circle class="cls-14" cx="736.28" cy="372.08" r="5.17"/><circle class="cls-14" cx="732.71" cy="400.85" r="11.04"/><circle class="cls-14" cx="650.55" cy="449.65" r="92.64"/><circle class="cls-2" cx="650.55" cy="449.65" r="82.9"/><path class="cls-1" d="M633.94,531c20.74,3.46,20.8-6.8,17.18-9.41-5.2-3.75-14.6-2.38-13.94-9.1s15.84-5.32,16.79-16-9.7-9.45-7.1-17.29,3.4-19.64-5.54-27.26-17-.88-28.63,2.26c-13.18,3.55-21.82-.16-24.91-7-2.93-6.45,1.52-12.35-.11-20.12s-16.88-.44-8.83-19.07h0A83,83,0,0,0,634,530.89"/><polygon class="cls-14" points="711.9 512.03 707.86 517.19 701.94 519.98 726.31 543.42 727.83 542.21 729.35 541 711.9 512.03"/><path class="cls-14" d="M735.07,538.14,735,538a8.21,8.21,0,0,0-12.83,10.24l.09.1Z"/><rect class="cls-14" x="714.55" y="541.64" width="28.07" height="3.02" rx="1.51" transform="translate(1636.85 513.1) rotate(141.4)"/><rect class="cls-14" x="726.43" y="533.44" width="2.59" height="17.28" transform="translate(1634.64 511.72) rotate(141.4)"/><circle class="cls-14" cx="734.07" cy="550.03" r="3.19"/><path class="cls-14" d="M736.39,523.6,746,510a2.21,2.21,0,0,0-.14-2.79,2.16,2.16,0,0,0-3.33.24L741,509.59a3.21,3.21,0,0,1-4.73.56l-11.13-9.75-1.77,3.76-2.95,2.93,12.92,7.21a3.21,3.21,0,0,1,1.06,4.64l-1.49,2.11a2.23,2.23,0,0,0,.13,2.79A2.16,2.16,0,0,0,736.39,523.6Z"/><path class="cls-14" d="M740.91,493.28l-12.15-5.36a18.2,18.2,0,0,1-3.14,4.16l13.25,5.83a2.53,2.53,0,1,0,2-4.63Z"/><circle class="cls-14" cx="724.09" cy="504.25" r="7.78"/><path class="cls-14" d="M648.75,534.59a18.37,18.37,0,0,1-3-.25l.21,15.94a2.29,2.29,0,0,0,4.58-.06l-.21-15.71C649.81,534.56,649.28,534.59,648.75,534.59Z"/><rect class="cls-14" x="602.41" y="523.32" width="2.13" height="11.04" rx="1.07" transform="translate(858.37 1289.69) rotate(-149.75)"/><path class="cls-14" d="M739.32,482.48l-8.57-2.25a15.17,15.17,0,0,1-.65,4.48l8.14,2.13a2.25,2.25,0,0,0,1.08-4.36Z"/><rect class="cls-14" x="631.42" y="543.09" width="2.24" height="20.75" rx="1.12" transform="translate(1184.3 1187.5) rotate(-172.22)"/><rect class="cls-14" x="628.61" y="531.07" width="10.21" height="27.66" rx="3.44" transform="translate(1187.79 1170.59) rotate(-172.22)"/><rect class="cls-14" x="607.9" y="527.81" width="17.32" height="17.32" rx="3.73" transform="translate(977.42 1269.77) rotate(-157.23)"/><path class="cls-1" d="M650.55,366.76A83.23,83.23,0,0,0,633,368.62a65.9,65.9,0,0,0-9.62,2.7c-2.35.81-4.66,1.73-6.91,2.74h0c-8.48,4.39,10.37-3.11,14.13,15.75,2.83,14.17,15,11,23.44,5.24,8.27-5.67,14-6.15,16.78-.95,3.27,6.15,3,9.07,11.19,13.11,10.63,5.23-.16,7.21-3.84,14.41-10.44,20.44,25.26,30,24,3-1.06-21.87,13.87-21.78,20-16.73h0A82.85,82.85,0,0,0,650.55,366.76Z"/><polygon class="cls-14" points="710.42 526.15 704.41 528.86 698.05 524.16 708.22 518.49 710.42 526.15"/><circle class="cls-2" cx="531.07" cy="485.97" r="14.43"/><circle class="cls-1" cx="794.76" cy="321.43" r="2.5"/><circle class="cls-1" cx="463.83" cy="465.85" r="4.58"/><circle class="cls-1" cx="491.33" cy="377.25" r="2.79"/><circle class="cls-1" cx="548.2" cy="394.27" r="1.99"/><circle class="cls-1" cx="531.07" cy="303.14" r="3.82"/><circle class="cls-1" cx="792.76" cy="474.98" r="5.29"/><circle class="cls-1" cx="857.14" cy="498.13" r="1.69"/><circle class="cls-1" cx="866.7" cy="354.92" r="1.69"/><circle class="cls-1" cx="605.11" cy="597.82" r="3.44"/><circle class="cls-1" cx="681.94" cy="615.34" r="1.73"/><path class="cls-1" d="M705.36,498.13A16.29,16.29,0,0,1,716.69,493a8.2,8.2,0,0,0,7.07-4.44,83.17,83.17,0,0,0,6.68-61.08h0c-1.78-5.63-8.74-4.52-10,3.31s-1.17,14.54-5,17.94-11.19-1.82-15.85,3.2c-3,3.25-3.47,10.12-1.53,15.83s5.68,21.56-17.84,34.18c-17.66,9.48-17.6,31.2,7.7,21.73h0a82,82,0,0,0,10.2-6.13,8.51,8.51,0,0,0,3.62-7.84A15.19,15.19,0,0,1,705.36,498.13Z"/><circle class="cls-1" cx="779.57" cy="553.47" r="2.52"/><circle class="cls-1" cx="695.6" cy="280.73" r="2.21"/><ellipse class="cls-1" cx="671.28" cy="465.85" rx="6.77" ry="6.13" transform="translate(-85.73 158.32) rotate(-12.65)"/><circle class="cls-1" cx="553.78" cy="512.46" r="4.46"/><circle class="cls-1" cx="615.35" cy="558.57" r="1.21"/><circle class="cls-1" cx="535.65" cy="566.94" r="1.99"/><path class="cls-15" d="M690.65,377.09c13.68,24.33,4.79,61.84-23,89.65s-65.32,36.7-89.65,23A82.91,82.91,0,1,0,690.65,377.09Z"/><circle class="cls-1" cx="758.2" cy="502.55" r="1.7"/><path class="cls-2" d="M795.7,365.85c-4.41-7.62-23.05-8.84-40,.08h0c21.62-3.14,28.57,1.39,30.78,5.23,7.84,13.57-33,62.35-117.19,111s-146.87,59.58-154.7,46c-5.09-8.81,10.35-32.48,44.89-61.33A92.47,92.47,0,0,1,558,454.25,332.45,332.45,0,0,0,532.28,477c-17.24,17.11-35.91,40.79-26.89,56.42,4.58,7.92,14.5,10.71,26.22,10.71,11.41,0,24.53-2.64,36.08-5.79,31-8.44,69-25.15,106.92-47s71.38-46.43,94.2-69.07C786.05,405.16,804.72,381.48,795.7,365.85Z"/><ellipse class="cls-1" cx="605.85" cy="416.18" rx="12.33" ry="8.5" transform="translate(-20.86 800.24) rotate(-65.99)"/><circle class="cls-1" cx="652.79" cy="426.64" r="4.17"/><circle class="cls-1" cx="584.21" cy="244.04" r="2.69"/><circle class="cls-1" cx="674.92" cy="570.1" r="1.17"/><ellipse class="cls-2" cx="612.7" cy="480.23" rx="8.22" ry="10.79"/><path class="cls-2" d="M785.62,148l10.85,8.85a4.29,4.29,0,0,1,0,6.64l-10.85,8.85a4.29,4.29,0,0,1-7-3.32v-17.7A4.29,4.29,0,0,1,785.62,148Z"/><line class="cls-16" x1="507.04" y1="160.2" x2="771.95" y2="160.2"/><path class="cls-2" d="M530.65,673.48l-10.85,8.85a4.29,4.29,0,0,0,0,6.64l10.85,8.85a4.28,4.28,0,0,0,7-3.32V676.8A4.28,4.28,0,0,0,530.65,673.48Z"/><line class="cls-16" x1="776.23" y1="685.65" x2="548.2" y2="685.65"/><path class="cls-2" d="M1043.14,544.12,1034.29,555a4.29,4.29,0,0,1-6.64,0l-8.85-10.86a4.28,4.28,0,0,1,3.32-7h17.7A4.28,4.28,0,0,1,1043.14,544.12Z"/><line class="cls-17" x1="1030.97" y1="466.78" x2="1030.97" y2="466.78"/><line class="cls-18" x1="1030.97" y1="478.81" x2="1030.97" y2="520.9"/><line class="cls-17" x1="1030.97" y1="526.91" x2="1030.97" y2="526.91"/><path class="cls-2" d="M289,481.87,280.19,471a4.27,4.27,0,0,0-6.64,0l-8.85,10.85a4.28,4.28,0,0,0,3.32,7h17.7A4.28,4.28,0,0,0,289,481.87Z"/><line class="cls-17" x1="276.87" y1="556.85" x2="276.87" y2="556.85"/><line class="cls-18" x1="276.87" y1="544.82" x2="276.87" y2="502.73"/><line class="cls-17" x1="276.87" y1="496.72" x2="276.87" y2="496.72"/><path class="cls-2" d="M961.22,269.93H937.76a1.5,1.5,0,0,1,0-3h23.46a1.5,1.5,0,0,1,0,3Z"/><path class="cls-2" d="M942.94,273.43a1.5,1.5,0,0,1-1.5-1.5v-7a1.5,1.5,0,0,1,3,0v7A1.5,1.5,0,0,1,942.94,273.43Z"/><path class="cls-2" d="M949.94,273.43a1.5,1.5,0,0,1-1.5-1.5v-7a1.5,1.5,0,0,1,3,0v7A1.5,1.5,0,0,1,949.94,273.43Z"/><path class="cls-2" d="M957,273.43a1.5,1.5,0,0,1-1.5-1.5v-7a1.5,1.5,0,0,1,3,0v7A1.5,1.5,0,0,1,957,273.43Z"/><polygon class="cls-19" points="928.54 233.48 911.69 223.92 907.13 223.92 890.28 233.48 881.06 248.43 881.06 272.94 885.63 272.94 937.76 272.94 937.76 248.43 928.54 233.48"/><path class="cls-2" d="M874.37,223.92l-16.85,9.56-9.22,15v24.51h37.33V248.43l9.21-15,16.85-9.56Zm-12.46,40.26h-7.15V254.13h7.15Zm14.13,0h-7.15V254.13H876Z"/><polygon class="cls-20" points="1051.13 153.16 931.47 336.09 1087.36 336.09 1051.13 153.16"/><path class="cls-4" d="M1052.71,216.81c1.18,3.1-2.83,7.48-8.94,9.8s-12,1.67-13.19-1.42l-1.22-3.23,22.13-8.38Z"/><ellipse class="cls-5" cx="1040.42" cy="217.77" rx="11.83" ry="6" transform="translate(-9.74 382.3) rotate(-20.73)"/><path class="cls-4" d="M1063.35,269.89c-2.58,3.44-9.53,2.59-15.54-1.9s-8.79-10.91-6.22-14.35l2.68-3.59L1066,266.3Z"/><ellipse class="cls-5" cx="1055.15" cy="258.18" rx="7.78" ry="13.58" transform="translate(216.82 948.98) rotate(-53.24)"/><path class="cls-4" d="M1007,232.74c1.47-2.71,7.6-2.21,13.69,1.12s9.81,8.21,8.33,10.92l-1.65,3.13-22-12Z"/><ellipse class="cls-5" cx="1016.37" cy="241.89" rx="5.58" ry="12.55" transform="translate(316.73 1017.79) rotate(-61.35)"/><path class="cls-6" d="M993.57,292.15c2.83,2.09,7.31,5.84,8.5,7.58s-.64,2.93-1.92,3.76-20.64,19.48-18,32.95c2.47,12.61,36.9,12.7,44.57,12.7s37.71-1.91,40-11.78c3.19-13.78-17-31.13-19.4-32.6s-3-2.84-1.7-4.21a38.42,38.42,0,0,0,6.86-11.05Z"/><path class="cls-1" d="M1019.57,284.14c-15.58,0-28,1.05-28,5.36,0,4.12,8.68,3.92,15.44,4.2s9.23,3,14.71,6c3.83,2.13,8,2.86,13-2,2.72-2.67,5.11-4.33,11.6-5s9.4-4.75,1.46-7.12S1019.57,284.14,1019.57,284.14Z"/><path class="cls-2" d="M1025.72,311.06a63.23,63.23,0,0,1-9.9-.78c-7-1.15-15.43-4-18.16-8.36a2.6,2.6,0,0,1,4.42-2.74c1.23,2,6.63,4.66,14.59,6,9.43,1.55,22.24,1,29.87-5.33a2.6,2.6,0,1,1,3.31,4C1042.75,309.69,1033.14,311.06,1025.72,311.06Z"/><path class="cls-2" d="M1016.16,341.05a2.6,2.6,0,0,1-2.47-1.79c-4.9-15.06,1.91-27.09,9.22-32.82a2.6,2.6,0,1,1,3.21,4.09c-2.17,1.7-12.73,11-7.49,27.12a2.59,2.59,0,0,1-1.66,3.27A2.54,2.54,0,0,1,1016.16,341.05Z"/><path class="cls-2" d="M1035.89,327.9a2.59,2.59,0,0,1-2.59-2.6c0-5.17-1.12-11.89-6.43-14.48a2.6,2.6,0,0,1,2.28-4.67c6,2.94,9.34,9.74,9.34,19.15A2.59,2.59,0,0,1,1035.89,327.9Z"/><path class="cls-1" d="M1047.74,285.57c-5.09-1.52-15.2-1.68-21.82-1.6l4.77,16.56a14.24,14.24,0,0,0,4-2.87c2.72-2.67,5.11-4.33,11.6-5S1055.68,287.94,1047.74,285.57Z"/><path class="cls-1" d="M1009.21,284.35c-10.38.47-17.65,1.86-17.65,5.15,0,4.12,8.68,3.92,15.44,4.2a19.11,19.11,0,0,1,5.45.95,27.21,27.21,0,0,1-2.32-5.64A27.6,27.6,0,0,1,1009.21,284.35Z"/><path class="cls-4" d="M1025.92,284,1021,267.05l-5,1.45c-5,1.45-7.7,8.11-6.83,15.85,3.2-.15,6.69-.21,10.36-.21C1019.57,284.14,1022.2,284,1025.92,284Z"/><path class="cls-4" d="M1019.57,284.14c-3.67,0-7.16.06-10.36.21a27.6,27.6,0,0,0,.92,4.66,27.21,27.21,0,0,0,2.32,5.64c3.22,1.1,5.55,3,9.26,5.06,2.76,1.54,5.69,2.33,9,.82L1025.92,284C1022.2,284,1019.57,284.14,1019.57,284.14Z"/><path class="cls-5" d="M1037.63,284.18a25.77,25.77,0,0,0-.67-2.9c-2.76-9.59-9.89-16-15.92-14.23-5.31,1.54-8,8.86-6.66,17.14,1.68,0,3.41-.05,5.19-.05C1019.57,284.14,1029.09,283.7,1037.63,284.18Z"/><path class="cls-5" d="M1037.63,284.18c-8.54-.48-18.06,0-18.06,0-1.78,0-3.51,0-5.19.05a26.71,26.71,0,0,0,.75,3.38c1.86,6.47,5.72,11.46,9.88,13.5,2.92.73,6.07.13,9.67-3.41a21.59,21.59,0,0,1,2.2-1.92A22.12,22.12,0,0,0,1037.63,284.18Z"/><path class="cls-1" d="M1065.85,79a1.3,1.3,0,0,1-1.3-1.3V74.15a1.3,1.3,0,1,1,2.6,0v3.59A1.3,1.3,0,0,1,1065.85,79Z"/><path class="cls-1" d="M1073.35,83h-3.59a1.3,1.3,0,1,1,0-2.6h3.59a1.3,1.3,0,0,1,0,2.6Z"/><path class="cls-1" d="M1065.85,90.45a1.3,1.3,0,0,1-1.3-1.3V85.56a1.3,1.3,0,1,1,2.6,0v3.59A1.3,1.3,0,0,1,1065.85,90.45Z"/><path class="cls-1" d="M1061.94,83h-3.59a1.3,1.3,0,1,1,0-2.6h3.59a1.3,1.3,0,0,1,0,2.6Z"/><path class="cls-1" d="M1009.62,142l-4.19-24.84c11.31,1.1,29.6,5.84,40,15.21"/><ellipse class="cls-6" cx="1047.67" cy="178.2" rx="24.59" ry="49.5" transform="translate(604.38 1144.05) rotate(-75)"/><path class="cls-7" d="M977.29,138.36c-6.33-1.7-17.18.54-22.8,3.95,3.16,5.76,11.44,13.13,17.77,14.82a9.72,9.72,0,0,0,5-18.77Z"/><ellipse class="cls-8" cx="1051.6" cy="163.51" rx="24.59" ry="49.5" transform="translate(621.49 1136.96) rotate(-75)"/><ellipse class="cls-1" cx="1046.65" cy="161.48" rx="18.39" ry="44.2" transform="translate(619.79 1130.67) rotate(-75)"/><path class="cls-8" d="M1077.21,190.06l-3.52,13.14s3.92.48,6.25-.31,11.83-3.56,13.79-10.51,2.3-9.36-1-7.55S1077.21,190.06,1077.21,190.06Z"/><path class="cls-1" d="M1017.87,174.85c-6.13-4.34-8.24-6.86-10.78-11s-3.41-2.47-7.54-2-27,12.8-27,12.8,6.37,7.74,18.92,11.1,44.74,9.16,48.87,4.62-.82-2.73-7.34-6.38S1017.87,174.85,1017.87,174.85Z"/><path class="cls-8" d="M1006.8,119.45c12.73,3.85,26.2,9,30.32,15.54,0,0,7.76-2.18,7.28-3.54s-27.57-12.66-34-13.64S1006.8,119.45,1006.8,119.45Z"/><path class="cls-1" d="M1019.5,149.05a95.2,95.2,0,0,0-17.61-8.09c-4.87-1.53-6.78-2.18-8.11-.48s-6.49,14.37-5.69,17.22,5.14,4.2,8.54,2.77,4.68-2.69,11.42-3.19S1027,155.7,1019.5,149.05Z"/><path class="cls-8" d="M993,143.23a89.12,89.12,0,0,1,24.43,10.24l-5.75,1.79-22.15-5.94Z"/><path class="cls-8" d="M976.39,174.32c7.71,3.47,30.06,13.39,53.85,10.21,0,0,12,2.29,12.94,3.47s-18.73,5.82-35.33,1.27S970.31,177,976.39,174.32Z"/><path class="cls-1" d="M1078.88,167.67c-4.08,15.22-59.21.45-55.13-14.77a28.54,28.54,0,1,1,55.13,14.77Z"/><rect class="cls-2" x="1099.12" y="179.69" width="4.83" height="11.22" transform="translate(637.32 1201.29) rotate(-74.99)"/><path class="cls-2" d="M1096.54,191.6l4-15h0c2.62-10.14-5.77-21.9-21.92-30.82a30.7,30.7,0,0,0-32.47-16c-10.52-8.88-27.59-13.59-39.28-14.93a3.28,3.28,0,0,0-2.75,1,3.36,3.36,0,0,0-.87,2.87l3.37,20a77.48,77.48,0,0,0-8.25-2.67c-5.51-1.48-10.75,8.17-12.72,15.49-1.48,5.53-1.69,10.34-.72,13.72L973,171.64a3.58,3.58,0,0,0-.82,5.65,3.69,3.69,0,0,0,.53.43,109.71,109.71,0,0,0,42.37,16.05l0,0a92.75,92.75,0,0,0,24.49,10.35C1067.61,211.67,1092.64,206.16,1096.54,191.6Zm-.69-16.1c-1.44,5.38-7.33,9.36-16.58,11.22-9.85,2-22.09,1.24-34.48-2.08-18.33-4.91-33.49-14.77-38.36-24.62l15.16-2.72a14,14,0,0,0,3.58,5.5c4.86,4.86,13.48,8.83,22.46,11.24,14.89,4,31,3.75,33.58-5.75a30.69,30.69,0,0,0,.22-15.13C1092.09,160.31,1097.67,168.72,1095.85,175.5Zm-37.77-40.45a26,26,0,0,1,11.68,6.72,26.38,26.38,0,0,1,4.18,5.45,26,26,0,0,1,2.61,19.83c-.86,3.18-5.6,4.14-8.53,4.44a6.27,6.27,0,0,0,3.68-4,24.37,24.37,0,0,0-40.73-23.6A26.18,26.18,0,0,1,1058.08,135.05Zm-49.73-15.12c10.43,1.48,23.25,5.41,32,11.47a30.9,30.9,0,0,0-5.4,2.69c-9.31-.17-17.41,1.29-23.48,4.18Zm14.37,28.59-.84-.66a60.41,60.41,0,0,0-7.73-5.53,44.81,44.81,0,0,1,14.64-3.26A30.82,30.82,0,0,0,1022.72,148.52ZM990,154.05c.09-.42.16-.81.28-1.25,2-7.57,5.8-11.88,6.8-12.07,12.32,3.3,17.1,7.16,21.72,10.89l1.33,1-15.12,2.71a15.5,15.5,0,0,0-4.57,1.58l-3.76,2-3.7-1A3.65,3.65,0,0,1,990,154.05ZM977.2,174.87l24.63-13.29a32.57,32.57,0,0,0,6.63,9.14c7.06,7.07,18,13.3,30.89,17.34C1015.55,194.26,988.37,181.89,977.2,174.87Zm49.59,19.66a62.21,62.21,0,0,0,8.61-.7l-1,3.7C1031.78,196.63,1029.24,195.62,1026.79,194.53Zm14,5c-1.07-.29-2.13-.59-3.19-.91l1.46-5.45a52.33,52.33,0,0,0,6.82-2.06l-2.43,9.06C1042.59,199.92,1041.7,199.73,1040.81,199.49Zm6,1.37,2.73-10.18q3,.62,6,1l-2.72,10.14Q1049.82,201.47,1046.77,200.86Zm9.4,1.38,2.71-10.11c2.07.22,4.13.38,6.14.45l-2.68,10C1060.34,202.56,1058.27,202.43,1056.17,202.24Zm9.68.32,2.66-9.95c2.19,0,4.31-.16,6.37-.38l-2.62,9.8A64.16,64.16,0,0,1,1065.85,202.56Zm10.08-1.17,2.58-9.65c.57-.1,1.15-.17,1.71-.28a47,47,0,0,0,5-1.32l-2.45,9.12A36.07,36.07,0,0,1,1075.93,201.39Zm11-4.43,2.23-8.33a28.4,28.4,0,0,0,3.79-2.09l-1,3.81A12.17,12.17,0,0,1,1086.88,197Z"/><path class="cls-2" d="M1156.77,270.34c0-4.44-2.93-8-7.55-8h-25.08c-2.25,0-4.69-1-2.86-3s5.24-6.15,1.58-9.87c-.54,3.11-3.59,7.31-11.93,7.31s-12.67-5.11-11.57-7.79c-3.9,3.65-1.69,10.12,2.47,12.18l-9.29.24s1.25,7.49,9.47,4.08c0,0-.79,8-.46,11.57.21,2.25,6.55,5.54,8.71,2.68,1.79-2.37,3-3.72,4-5.06s2.83-.94,3.19,2,1.15,16.66,1.56,19.58c.3,2.18,5.42,2.44,5.54,0s1.28-10.84,1.28-10.84h16.54s.22,6.61.22,9.47c0,1.31,4.42,1.71,4.78-.39.57-3.26,1.82-10.11,1.82-10.11s1.39,7.72,2,10.78c.36,1.7,5.39,1.49,5.57-.49C1157,291.9,1156.77,274.79,1156.77,270.34Zm-45.35.67a3,3,0,1,1,3-3A3,3,0,0,1,1111.42,271Z"/><circle class="cls-2" cx="1136.59" cy="284.35" r="5.96"/><path class="cls-2" d="M1113.59,296.56c.6-3,1.28-10.37,1.51-11.92s-.53-2.65-2.53-2.7-3.36.59-3.41,2.51,0,10.52,0,11.71S1113.36,297.7,1113.59,296.56Z"/><rect class="cls-2" x="1132.36" y="287.6" width="2.56" height="4.36" rx="1.28" transform="translate(84.95 -229.22) rotate(11.99)"/><rect class="cls-2" x="1137.61" y="287.6" width="2.56" height="4.36" rx="1.28" transform="translate(2313.14 336.6) rotate(168.01)"/><path class="cls-2" d="M1161.76,277a44.32,44.32,0,0,0-1.35-4.9c-1.22-3.65-4.39-5.5-9.43-5.5V264c7.82,0,10.78,4,11.89,7.28a47.82,47.82,0,0,1,1.44,5.21Z"/><path class="cls-2" d="M1162.28,273.75c-2.79,2.07-2.29,7.83,1,8.6C1167.3,281.16,1166.71,274.5,1162.28,273.75Z"/><path class="cls-2" d="M1106.06,296.68a1,1,0,0,1-.94-.65,38,38,0,0,0-1.95-3.92,1,1,0,0,1,.38-1.36,1,1,0,0,1,1.36.37,41,41,0,0,1,2.08,4.2,1,1,0,0,1-.58,1.29A.87.87,0,0,1,1106.06,296.68Z"/><path class="cls-2" d="M1102.14,296.72a1,1,0,0,1-.83-.45l-1.1-1.65a1,1,0,0,1,1.66-1.11l1.1,1.65a1,1,0,0,1-.28,1.39A1,1,0,0,1,1102.14,296.72Z"/><path class="cls-2" d="M1118.08,326.18a1,1,0,0,1-.8-.41l-3.73-5.06a1,1,0,1,1,1.61-1.19l3.73,5.06a1,1,0,0,1-.81,1.6Z"/><path class="cls-2" d="M1120.83,325.07a1,1,0,0,1-.89-.54l-1.54-3a1,1,0,0,1,.44-1.35,1,1,0,0,1,1.34.44l1.54,3a1,1,0,0,1-.89,1.45Z"/><path class="cls-2" d="M1123.62,324.7a1,1,0,0,1-1-.87l-1.1-8.36a1,1,0,1,1,2-.27l1.11,8.37a1,1,0,0,1-.86,1.12Z"/><path class="cls-2" d="M1127.32,325.21h0a1,1,0,0,1-1-1.06l.39-7.08a1,1,0,1,1,2,.1l-.38,7.09A1,1,0,0,1,1127.32,325.21Z"/><path class="cls-2" d="M1129.92,325.72a1,1,0,0,1-.46-.11,1,1,0,0,1-.43-1.35l1.29-2.48a1,1,0,1,1,1.77.92l-1.28,2.48A1,1,0,0,1,1129.92,325.72Z"/><path class="cls-2" d="M979.76,347.4a1,1,0,0,1-1-.68c-3.92-11.76-9.51-18.41-9.56-18.48a1,1,0,1,1,1.52-1.3c.24.28,5.89,7,9.94,19.15a1,1,0,0,1-.63,1.26A.89.89,0,0,1,979.76,347.4Z"/><path class="cls-2" d="M974.88,348.14a1,1,0,0,1-.93-.65c-1.71-4.6-7.17-8.29-7.22-8.33a1,1,0,1,1,1.11-1.66c.24.16,6.06,4.09,8,9.29a1,1,0,0,1-.59,1.29A1,1,0,0,1,974.88,348.14Z"/><path class="cls-2" d="M970,350.14a1,1,0,0,1-.91-.57c-1.48-3.14-5.89-5.37-5.93-5.39a1,1,0,1,1,.89-1.79c.2.1,5.07,2.55,6.85,6.32a1,1,0,0,1-.48,1.33A.9.9,0,0,1,970,350.14Z"/><path class="cls-2" d="M1068.77,344.28a.91.91,0,0,1-.33,0,1,1,0,0,1-.62-1.28,77.81,77.81,0,0,1,7.27-14.3,1,1,0,0,1,1.38-.29,1,1,0,0,1,.29,1.39,77.09,77.09,0,0,0-7,13.87A1,1,0,0,1,1068.77,344.28Z"/><path class="cls-2" d="M1072.34,345.94a.86.86,0,0,1-.41-.1,1,1,0,0,1-.49-1.32,27.7,27.7,0,0,1,6.21-8.28,1,1,0,0,1,1.32,1.51,25.88,25.88,0,0,0-5.72,7.6A1,1,0,0,1,1072.34,345.94Z"/><path class="cls-2" d="M1077,347.4a1,1,0,0,1-.94-1.34,7.55,7.55,0,0,1,3.22-3.65,1,1,0,0,1,1,1.75,5.66,5.66,0,0,0-2.3,2.59A1,1,0,0,1,1077,347.4Z"/><path class="cls-2" d="M897.91,303.91a1,1,0,0,1-.85-.49,13.45,13.45,0,0,0-2.71-3,1,1,0,0,1-.15-1.41,1,1,0,0,1,1.4-.15,15.19,15.19,0,0,1,3.17,3.57,1,1,0,0,1-.34,1.37A1.07,1.07,0,0,1,897.91,303.91Z"/><path class="cls-2" d="M901.77,303.91a1,1,0,0,1-.95-.7,47.88,47.88,0,0,0-3.77-8.42,1,1,0,1,1,1.72-1,48.52,48.52,0,0,1,4,8.83,1,1,0,0,1-.65,1.25A1,1,0,0,1,901.77,303.91Z"/><path class="cls-2" d="M905,303.91a1,1,0,0,1-1-1v-6.15a1,1,0,0,1,2,0v6.15A1,1,0,0,1,905,303.91Z"/><path class="cls-2" d="M908,303.91a.94.94,0,0,1-.51-.14,1,1,0,0,1-.36-1.36l1.93-3.31a1,1,0,1,1,1.73,1l-1.93,3.3A1,1,0,0,1,908,303.91Z"/><polygon class="cls-2" points="925.2 272.94 922.7 272.94 922.7 252.82 900.68 252.82 900.68 272.94 898.18 272.94 898.18 250.32 925.2 250.32 925.2 272.94"/><polyline class="cls-19" points="911.69 223.92 894.84 233.48 885.63 248.43 885.63 272.94"/><rect class="cls-2" x="909.01" y="235.6" width="5.37" height="6.88"/><circle class="cls-1" cx="920.92" cy="152.83" r="2.43"/><circle class="cls-1" cx="977.2" cy="78.52" r="4.45"/><circle class="cls-1" cx="963.61" cy="195.6" r="1.93"/><circle class="cls-1" cx="1213.51" cy="91.96" r="2.54"/><circle class="cls-1" cx="1136.59" cy="126.61" r="5.07"/><circle class="cls-1" cx="1177.11" cy="181.36" r="2.76"/><circle class="cls-1" cx="1022.05" cy="39.55" r="4.53"/><circle class="cls-1" cx="1150.98" cy="64" r="4.21"/><path class="cls-6" d="M1055.15,243.26a1.37,1.37,0,0,1-1.37-1.37v-10a1.37,1.37,0,1,1,2.73,0v10A1.36,1.36,0,0,1,1055.15,243.26Z"/><path class="cls-6" d="M1020,228.61a1.37,1.37,0,0,1-1.37-1.37V214.31a1.37,1.37,0,1,1,2.74,0v12.93A1.37,1.37,0,0,1,1020,228.61Z"/><path class="cls-6" d="M1029.61,264.05a1.37,1.37,0,0,1-1.37-1.37V253.4a1.37,1.37,0,0,1,2.74,0v9.28A1.37,1.37,0,0,1,1029.61,264.05Z"/><path class="cls-6" d="M1010.12,262.4a1.37,1.37,0,0,1-1.36-1.37v-6.52a1.37,1.37,0,1,1,2.73,0V261A1.37,1.37,0,0,1,1010.12,262.4Z"/><path class="cls-2" d="M914.38,113A31.9,31.9,0,0,1,891.81,58.5a1.83,1.83,0,1,1,2.59,2.58,28.26,28.26,0,1,0,40,0,1.83,1.83,0,1,1,2.59-2.58A31.9,31.9,0,0,1,914.38,113Z"/><path class="cls-2" d="M879,123a6.56,6.56,0,0,1-4.82-1.73c-5.82-5.83,4.26-21.39,10.8-30.14a1.82,1.82,0,1,1,2.92,2.18c-10.72,14.37-13.28,23.23-11.13,25.38,3.51,3.51,22.72-5.9,46-29.21S955.51,47,952,43.44c-2.28-2.28-12,1-26.1,11.69a1.83,1.83,0,0,1-2.21-2.91c9-6.8,25-17.31,30.89-11.36,7.23,7.22-9.22,31.22-29.2,51.2C908.67,108.76,889.16,123,879,123Z"/><circle class="cls-2" cx="899.05" cy="90.29" r="1.67"/><circle class="cls-2" cx="896.3" cy="77.13" r="1.67"/><circle class="cls-2" cx="911.82" cy="86.95" r="2.55"/><circle class="cls-2" cx="925.18" cy="99.14" r="1.89"/><circle class="cls-2" cx="911.82" cy="70.45" r="1.28"/><path class="cls-2" d="M1206.27,167.87a21.54,21.54,0,1,1,0-43.08,1.83,1.83,0,1,1,0,3.65,17.89,17.89,0,1,0,17.89,17.89,1.83,1.83,0,1,1,3.65,0A21.57,21.57,0,0,1,1206.27,167.87Z"/><circle class="cls-2" cx="1194.89" cy="143.5" r="1.09"/><circle class="cls-2" cx="1199.72" cy="136.13" r="1.09"/><circle class="cls-2" cx="1195.28" cy="152.58" r="1.09"/><circle class="cls-2" cx="1202.36" cy="147.87" r="1.67"/><circle class="cls-2" cx="1202.9" cy="159.71" r="1.24"/><circle class="cls-2" cx="1210.01" cy="140.23" r="0.84"/><circle class="cls-1" cx="1113.3" cy="188.48" r="7.23"/><polygon class="cls-2" points="899.43 272.94 901.33 272.94 911.69 263.91 922.05 272.94 923.95 272.94 924.77 271.99 913.59 262.25 924.77 252.51 923.13 250.63 911.69 260.59 900.25 250.63 898.61 252.51 909.79 262.25 898.61 271.99 899.43 272.94"/></svg>