<svg width="680" height="1046" viewBox="0 0 680 1046" fill="none" xmlns="http://www.w3.org/2000/svg">
<path opacity="0.34" fill-rule="evenodd" clip-rule="evenodd" d="M-255.863 602.766C-246.789 713.133 -219.162 822.537 -140.897 900.984C-54.9106 987.17 62.3456 1066.7 181.493 1041.14C295.943 1016.58 320.86 869.929 401.006 784.727C492.073 687.913 667.51 648.959 675.108 516.378C682.839 381.459 535.925 298.505 433.96 209.664C327.96 117.308 224.533 -16.567 85.0967 2.31189C-52.9274 20.9996 -122.077 173.262 -190.778 294.25C-244.75 389.298 -264.814 493.888 -255.863 602.766Z" fill="url(#paint0_linear)"/>
<path fill-rule="evenodd" clip-rule="evenodd" d="M129.56 183.046C35.4631 182.058 -59.2761 196.84 -131.797 256.886C-211.472 322.855 -287.971 415.798 -275.698 518.59C-263.908 617.328 -141.776 649.917 -75.9761 724.399C-1.20959 809.031 17.9755 960.488 129.56 977.321C243.111 994.451 324.836 876.69 408.012 797.412C494.479 714.998 615.875 638.018 610.849 518.59C605.874 400.37 482.47 329.926 385.493 262.316C309.308 209.201 222.387 184.02 129.56 183.046Z" fill="url(#paint1_linear)"/>
<path d="M510 439L509.673 441.406C508.101 452.991 498.991 462.101 487.406 463.673L485 464L487.406 464.327C498.991 465.899 508.101 475.009 509.673 486.594L510 489L510.327 486.594C511.899 475.009 521.009 465.899 532.594 464.327L535 464L532.594 463.673C521.009 462.101 511.899 452.991 510.327 441.406L510 439Z" fill="white"/>
<path d="M68.7225 364.555L65.3828 389.163C64.1277 398.41 56.8551 405.683 47.6078 406.938L23.0002 410.278L47.6078 413.617C56.8551 414.872 64.1277 422.145 65.3828 431.392L68.7225 456L72.0622 431.392C73.3173 422.145 80.5899 414.872 89.8372 413.617L114.445 410.278L89.8372 406.938C80.5899 405.683 73.3173 398.41 72.0622 389.163L68.7225 364.555Z" fill="white"/>
<path d="M35.6727 684.691L34.0193 696.874C33.398 701.452 29.7976 705.052 25.2195 705.674L13.0371 707.327L25.2195 708.98C29.7976 709.602 33.398 713.202 34.0193 717.78L35.6727 729.963L37.3261 717.78C37.9474 713.202 41.5479 709.602 46.1259 708.98L58.3083 707.327L46.1259 705.674C41.5479 705.052 37.9474 701.452 37.3261 696.874L35.6727 684.691Z" fill="white"/>
<circle r="8" transform="matrix(-1 0 0 1 67 651)" fill="white"/>
<circle opacity="0.78" r="8" transform="matrix(-1 0 0 1 378 379)" fill="white"/>
<circle opacity="0.78" r="5" transform="matrix(-1 0 0 1 280 448)" fill="white"/>
<circle opacity="0.4" r="6" transform="matrix(-1 0 0 1 568 489)" fill="white"/>
<circle opacity="0.9" r="3" transform="matrix(-1 0 0 1 525 521)" fill="white"/>
<circle r="6" transform="matrix(-1 0 0 1 165 831)" fill="white"/>
<circle r="6" transform="matrix(-1 0 0 1 232 785)" fill="white"/>
<circle r="6" transform="matrix(-1 0 0 1 9 623)" fill="white"/>
<circle opacity="0.34" r="6" transform="matrix(-1 0 0 1 146 443)" fill="white"/>
<path d="M386.197 659.59C386.197 663.958 389.125 667.644 393.129 668.802V679.493C377.055 680.711 364.022 692.783 361.38 708.379H337.443C334.205 708.379 331.581 710.997 331.581 714.227C331.581 717.456 334.205 720.074 337.443 720.074H361.38C363.583 733.077 373.009 743.632 385.399 747.487L381.914 854.329L359.871 846.889C358.829 846.537 357.717 846.437 356.629 846.598C355.54 846.76 354.505 847.177 353.611 847.816C352.716 848.456 351.986 849.298 351.483 850.275C350.979 851.251 350.716 852.333 350.715 853.431V880.22C350.715 882.053 349.986 883.81 348.688 885.106C347.39 886.403 345.63 887.133 343.793 887.135H336.861C335.874 877.528 329.113 869.626 320.097 866.939V845.562C320.097 842.326 321.385 839.222 323.68 836.933C325.974 834.645 329.085 833.359 332.329 833.359H338.357C339.303 833.355 340.235 833.134 341.082 832.712C341.928 832.29 342.665 831.68 343.236 830.927C343.807 830.175 344.197 829.302 344.374 828.375C344.552 827.448 344.513 826.493 344.261 825.584C343.871 824.275 343.061 823.131 341.954 822.327C340.848 821.523 339.507 821.105 338.139 821.136H320.065V815.952C320.065 812.716 321.354 809.612 323.648 807.324C325.942 805.035 329.054 803.75 332.298 803.75H344.136C345.082 803.746 346.014 803.524 346.86 803.103C347.706 802.681 348.444 802.07 349.015 801.318C349.586 800.566 349.975 799.692 350.153 798.765C350.331 797.839 350.292 796.884 350.039 795.974C349.65 794.666 348.839 793.521 347.733 792.717C346.627 791.913 345.286 791.495 343.918 791.527H320.117V788.416C320.114 787.376 319.87 786.35 319.404 785.419C318.938 784.487 318.263 783.676 317.431 783.048C316.599 782.42 315.633 781.992 314.608 781.797C313.583 781.603 312.527 781.647 311.522 781.926C310.077 782.357 308.812 783.248 307.923 784.463C307.033 785.678 306.567 787.15 306.596 788.655V791.568H282.692C281.324 791.537 279.983 791.955 278.877 792.759C277.77 793.563 276.96 794.707 276.57 796.016C276.318 796.925 276.279 797.88 276.457 798.807C276.634 799.734 277.024 800.607 277.595 801.359C278.166 802.111 278.903 802.722 279.749 803.144C280.595 803.566 281.528 803.787 282.473 803.791L294.311 803.781C297.556 803.781 300.667 805.067 302.961 807.355C305.255 809.643 306.544 812.747 306.544 815.983V821.167H288.314C287.369 821.17 286.437 821.39 285.591 821.81C284.744 822.231 284.007 822.841 283.436 823.592C282.864 824.344 282.475 825.216 282.297 826.143C282.119 827.069 282.158 828.024 282.411 828.932C282.799 830.243 283.609 831.39 284.715 832.196C285.821 833.001 287.163 833.421 288.533 833.39H294.342C297.587 833.39 300.698 834.676 302.992 836.965C305.286 839.253 306.575 842.357 306.575 845.593V866.924C297.533 869.595 290.748 877.509 289.759 887.135H281.933C281.023 887.135 280.121 886.957 279.28 886.609C278.439 886.261 277.675 885.752 277.031 885.11C276.388 884.468 275.877 883.706 275.529 882.867C275.18 882.028 275.001 881.128 275.001 880.22V848.921C275.001 847.087 274.27 845.328 272.97 844.031C271.67 842.734 269.907 842.006 268.069 842.006H242.861C234.468 826.315 216.715 786.238 215.475 726.108H227.826C232.108 726.108 235.58 722.647 235.58 718.379C235.58 714.11 232.108 710.65 227.826 710.65H185.09C180.808 710.65 177.337 714.11 177.337 718.379C177.337 722.647 180.808 726.108 185.09 726.108H197.915V743.463H185.131C184.09 743.425 183.052 743.597 182.078 743.968C181.105 744.339 180.217 744.902 179.466 745.624C178.716 746.345 178.119 747.21 177.712 748.167C177.304 749.124 177.094 750.152 177.094 751.192C177.094 752.231 177.304 753.26 177.712 754.217C178.119 755.174 178.716 756.039 179.466 756.76C180.217 757.481 181.105 758.045 182.078 758.416C183.052 758.787 184.09 758.959 185.131 758.921H197.915V776.276H185.131C184.09 776.238 183.052 776.41 182.078 776.781C181.105 777.152 180.217 777.715 179.466 778.437C178.716 779.158 178.119 780.023 177.712 780.98C177.304 781.937 177.094 782.965 177.094 784.005C177.094 785.044 177.304 786.073 177.712 787.03C178.119 787.987 178.716 788.852 179.466 789.573C180.217 790.294 181.105 790.858 182.078 791.229C183.052 791.6 184.09 791.772 185.131 791.734H197.915V809.12H185.131C184.113 809.12 183.105 809.32 182.164 809.709C181.224 810.098 180.369 810.667 179.649 811.385C178.929 812.104 178.358 812.956 177.968 813.895C177.579 814.833 177.378 815.839 177.378 816.854C177.378 817.87 177.579 818.876 177.968 819.814C178.358 820.752 178.929 821.605 179.649 822.323C180.369 823.041 181.224 823.611 182.164 824C183.105 824.388 184.113 824.588 185.131 824.588H197.915V842.006H168.731C166.892 842.006 165.129 841.277 163.829 839.98C162.529 838.684 161.799 836.925 161.799 835.091V823.946C161.799 822.112 161.068 820.353 159.768 819.056C158.468 817.759 156.705 817.03 154.866 817.03H153.224V763.897C153.224 761.63 151.382 759.792 149.109 759.792C146.836 759.792 144.993 761.63 144.993 763.897V817.03H36.0314V797.208C36.0314 793.633 37.4548 790.205 39.9887 787.678C42.5225 785.15 45.9591 783.73 49.5425 783.73H51.3821C52.1299 783.722 52.8671 783.553 53.5435 783.234C54.2197 782.915 54.8192 782.455 55.3007 781.884C55.7822 781.313 56.1345 780.645 56.3335 779.926C56.5325 779.207 56.5735 778.453 56.4539 777.717C56.1946 776.493 55.5146 775.398 54.5314 774.622C53.5482 773.846 52.3237 773.437 51.0702 773.466H10.4642C9.71967 773.473 8.98523 773.639 8.31067 773.953C7.63605 774.267 7.03699 774.722 6.55408 775.288C6.07117 775.853 5.7157 776.515 5.51166 777.229C5.30762 777.944 5.25989 778.693 5.37164 779.428C5.62677 780.654 6.30542 781.753 7.28931 782.531C8.27313 783.31 9.49969 783.72 10.7552 783.689H12.2206C15.804 783.689 19.2407 785.109 21.7745 787.636C24.3083 790.164 25.7318 793.592 25.7318 797.166V817.03H1.48462C-0.353943 817.03 -2.11725 817.759 -3.41724 819.056C-4.71729 820.353 -5.44769 822.112 -5.44769 823.946V859.568C-5.44769 861.402 -6.17798 863.161 -7.47803 864.458C-8.77808 865.755 -10.5414 866.483 -12.3799 866.483H-26.7225V830.581C-26.7225 828.926 -28.0649 827.585 -29.7209 827.585C-31.3768 827.585 -32.7193 828.926 -32.7193 830.581V866.483H-47.0532L-50.0134 784.031C-50.079 782.051 -49.7447 780.078 -49.0304 778.23C-48.3162 776.382 -47.2366 774.696 -45.8558 773.272C-44.4751 771.848 -42.8215 770.716 -40.9932 769.942C-39.165 769.169 -37.1995 768.77 -35.2136 768.77H-14.1156C-12.8094 768.767 -11.5201 768.474 -10.3408 767.914C-9.16144 767.354 -8.12128 766.54 -7.29523 765.53C-6.46924 764.521 -5.87787 763.341 -5.56378 762.077C-5.24969 760.812 -5.2207 759.493 -5.47888 758.216C-5.94629 756.191 -7.09808 754.388 -8.74078 753.109C-10.3835 751.831 -12.4172 751.156 -14.5001 751.197H-22.1619C-22.7485 742.813 -26.3481 734.888 -32.3444 728.906C-38.9188 722.348 -47.8354 718.664 -57.1328 718.664C-66.4302 718.664 -75.3469 722.348 -81.9211 728.906C-87.9175 734.888 -91.517 742.813 -92.1037 751.197H-100.15C-101.454 751.204 -102.741 751.498 -103.918 752.06C-105.095 752.621 -106.132 753.436 -106.956 754.445C-107.78 755.454 -108.369 756.632 -108.682 757.896C-108.995 759.159 -109.024 760.476 -108.766 761.751C-108.297 763.776 -107.145 765.578 -105.502 766.855C-103.86 768.133 -101.827 768.809 -99.7447 768.77H-79.0311C-77.0453 768.77 -75.0798 769.169 -73.2515 769.942C-71.4233 770.716 -69.7698 771.848 -68.389 773.272C-67.0082 774.696 -65.9286 776.382 -65.2144 778.23C-64.5002 780.078 -64.1658 782.051 -64.2313 784.031L-67.1916 866.483H-82.5024C-83.4127 866.483 -84.3141 866.662 -85.1552 867.01C-85.9963 867.357 -86.7605 867.867 -87.4042 868.509C-88.0479 869.151 -88.5585 869.913 -88.9069 870.752C-89.2553 871.591 -89.4346 872.49 -89.4346 873.398V887.612C-89.4346 889.445 -90.1635 891.202 -91.4613 892.498C-92.7591 893.795 -94.5197 894.525 -96.3564 894.527H-102.083V875.607C-102.081 874.378 -102.323 873.162 -102.794 872.027C-103.265 870.891 -103.956 869.86 -104.827 868.992L-124.595 849.304V791.433C-124.596 790.316 -124.817 789.21 -125.247 788.178C-125.677 787.146 -126.306 786.209 -127.099 785.42L-136.931 775.602C-137.26 775.273 -137.679 775.05 -138.135 774.959C-138.591 774.868 -139.064 774.914 -139.494 775.092C-139.923 775.27 -140.29 775.571 -140.549 775.957C-140.807 776.343 -140.944 776.797 -140.943 777.261V808.363L-149.912 817.31C-151.508 818.911 -152.405 821.076 -152.407 823.334V894.527H-157.333C-159.171 894.527 -160.935 893.799 -162.235 892.502C-163.535 891.205 -164.265 889.446 -164.265 887.612V872.662C-164.266 871.793 -164.452 870.934 -164.811 870.141C-165.169 869.349 -165.693 868.641 -166.346 868.066C-167 867.491 -167.768 867.06 -168.601 866.804C-169.434 866.547 -170.312 866.469 -171.177 866.577L-177.111 867.314V835.122C-177.111 832.855 -178.954 831.017 -181.227 831.017C-183.5 831.017 -185.342 832.855 -185.342 835.122V868.337L-205.828 870.882C-207.008 843.398 -208.503 808.594 -209.143 793.745C-209.225 791.768 -208.739 789.808 -207.741 788.098C-206.742 786.387 -205.274 784.998 -203.51 784.093C-199.267 781.873 -195.552 778.768 -192.616 774.99C-189.681 771.213 -187.594 766.85 -186.496 762.197H-177.007C-175.904 762.194 -174.817 761.937 -173.829 761.446C-172.842 760.955 -171.982 760.243 -171.315 759.367C-170.648 758.49 -170.193 757.472 -169.985 756.391C-169.778 755.31 -169.823 754.196 -170.117 753.136C-170.572 751.61 -171.518 750.276 -172.808 749.34C-174.098 748.403 -175.661 747.915 -177.257 747.952H-216.678V736.263C-213.357 735.299 -210.93 732.24 -210.93 728.617C-210.93 724.219 -214.504 720.654 -218.912 720.654C-223.321 720.654 -226.894 724.219 -226.894 728.617C-226.894 732.24 -224.468 735.299 -221.147 736.263V747.952H-260.818C-261.921 747.955 -263.008 748.212 -263.996 748.703C-264.983 749.194 -265.843 749.905 -266.51 750.782C-267.177 751.659 -267.632 752.677 -267.84 753.758C-268.047 754.839 -268.002 755.953 -267.708 757.013C-267.253 758.539 -266.307 759.873 -265.017 760.809C-263.727 761.746 -262.163 762.234 -260.568 762.197H-251.329C-250.231 766.85 -248.144 771.213 -245.209 774.99C-242.273 778.768 -238.558 781.873 -234.315 784.093C-232.549 784.998 -231.08 786.39 -230.081 788.102C-229.083 789.814 -228.597 791.776 -228.682 793.755L-232.136 874.151L-243.606 875.576V858.044C-243.606 853.498 -247.301 849.812 -251.859 849.812C-256.416 849.812 -260.111 853.498 -260.111 858.044V877.627L-272.219 879.132C-273.707 879.316 -275.076 880.036 -276.069 881.157C-277.063 882.278 -277.611 883.722 -277.613 885.217V896.3C-277.613 897.105 -277.772 897.902 -278.08 898.645C-278.389 899.388 -278.842 900.064 -279.412 900.633C-279.982 901.202 -280.659 901.653 -281.405 901.961C-282.15 902.269 -282.948 902.427 -283.755 902.427L-290.49 902.428C-290.49 887.844 -302.342 876.022 -316.961 876.022C-331.581 876.022 -343.433 887.844 -343.433 902.428L-375.797 902.427C-377.633 902.43 -379.394 903.16 -380.692 904.457C-381.99 905.753 -382.719 907.51 -382.719 909.343V932.753H-422.639C-425.51 932.752 -428.322 933.563 -430.75 935.091C-433.178 936.62 -435.122 938.803 -436.358 941.389L-447 963.731H-382.719V964H577.451V963.72H648L637.316 941.389C636.082 938.804 634.14 936.621 631.714 935.093C629.288 933.564 626.477 932.753 623.607 932.753H577.451V916.942C577.451 915.108 576.721 913.349 575.421 912.052C574.121 910.755 572.358 910.027 570.519 910.027H548.953C549.482 907.015 549.764 903.841 549.764 900.562C549.764 881.081 539.797 865.312 527.513 865.312C523.19 865.445 519.089 867.252 516.08 870.351C515.819 870.609 515.641 870.939 515.568 871.298C515.495 871.657 515.53 872.03 515.669 872.369C515.808 872.709 516.044 872.999 516.349 873.205C516.653 873.41 517.012 873.521 517.379 873.523H527.554V879.35H511.715C511.118 879.35 510.534 879.527 510.036 879.857C509.539 880.187 509.15 880.656 508.919 881.206L508.836 881.419C508.594 882.041 508.354 882.656 508.14 883.279C508.044 883.557 508.016 883.853 508.058 884.144C508.1 884.435 508.211 884.711 508.382 884.951C508.552 885.19 508.778 885.385 509.04 885.52C509.301 885.655 509.591 885.725 509.886 885.726H527.554V891.552H508.68C507.938 891.547 507.221 891.815 506.665 892.305C506.109 892.795 505.753 893.472 505.666 894.206C505.604 894.756 505.552 895.316 505.5 895.876C505.478 896.131 505.51 896.388 505.593 896.631C505.676 896.874 505.809 897.097 505.983 897.286C506.157 897.475 506.368 897.626 506.603 897.729C506.839 897.833 507.093 897.886 507.35 897.887H527.554V903.713L507.35 903.672C507.087 903.672 506.827 903.727 506.587 903.834C506.347 903.941 506.133 904.098 505.958 904.294C505.783 904.49 505.652 904.72 505.573 904.971C505.494 905.221 505.469 905.485 505.5 905.745C505.635 907.204 505.827 908.633 506.072 910.027H479.808C477.969 910.027 476.206 909.298 474.906 908.001C473.606 906.705 472.876 904.946 472.876 903.112V889.986C472.877 888.541 472.424 887.132 471.579 885.959C470.734 884.785 469.541 883.905 468.168 883.445L450.686 877.544V840.575C450.686 838.92 449.344 837.579 447.688 837.579C446.032 837.579 444.69 838.92 444.69 840.575V875.52L410.027 863.819L406.233 747.484C418.617 743.626 428.039 733.074 430.242 720.074H454.179C457.416 720.074 460.04 717.456 460.04 714.227C460.04 710.997 457.416 708.379 454.179 708.379H430.242C427.6 692.79 414.577 680.721 398.513 679.495V668.796C402.507 667.631 405.424 663.95 405.424 659.59C405.424 654.294 401.12 650 395.811 650C390.501 650 386.197 654.294 386.197 659.59Z" fill="url(#paint2_linear)"/>
<defs>
<linearGradient id="paint0_linear" x1="208.742" y1="0.513184" x2="208.742" y2="1046" gradientUnits="userSpaceOnUse">
<stop stop-color="#AEEDE1"/>
<stop offset="1" stop-color="#AEEDE1" stop-opacity="0"/>
</linearGradient>
<linearGradient id="paint1_linear" x1="167" y1="183" x2="167" y2="979" gradientUnits="userSpaceOnUse">
<stop stop-color="#AEEDE1"/>
<stop offset="1" stop-color="#AEEDE1" stop-opacity="0"/>
</linearGradient>
<linearGradient id="paint2_linear" x1="100.5" y1="650" x2="100.5" y2="964" gradientUnits="userSpaceOnUse">
<stop stop-color="#AEEDE1"/>
<stop offset="1" stop-color="#AEEDE1" stop-opacity="0"/>
</linearGradient>
</defs>
</svg>
