<svg width="710" height="779" viewBox="0 0 710 779" fill="none" xmlns="http://www.w3.org/2000/svg">
<path opacity="0.34" fill-rule="evenodd" clip-rule="evenodd" d="M935.863 335.766C926.789 446.133 899.162 555.537 820.897 633.984C734.911 720.17 617.654 799.7 498.507 774.138C384.057 749.585 359.14 602.929 278.994 517.727C187.927 420.913 12.4899 381.959 4.89223 249.378C-2.83939 114.459 144.075 31.5046 246.04 -57.336C352.04 -149.692 455.467 -283.567 594.903 -264.688C732.927 -246 802.077 -93.7377 870.778 27.2501C924.75 122.298 944.814 226.888 935.863 335.766Z" fill="url(#paint0_linear)"/>
<path fill-rule="evenodd" clip-rule="evenodd" d="M550.44 -83.9545C644.537 -84.9422 739.276 -70.1599 811.797 -10.1144C891.472 55.8553 967.971 148.798 955.698 251.59C943.908 350.328 821.776 382.917 755.976 457.399C681.21 542.031 662.024 693.488 550.44 710.321C436.889 727.451 355.164 609.69 271.988 530.412C185.521 447.998 64.1251 371.018 69.1512 251.59C74.1263 133.37 197.53 62.9259 294.507 -4.68414C370.692 -57.7987 457.613 -82.98 550.44 -83.9545Z" fill="url(#paint1_linear)"/>
<path d="M170 172L170.327 174.406C171.899 185.991 181.009 195.101 192.594 196.673L195 197L192.594 197.327C181.009 198.899 171.899 208.009 170.327 219.594L170 222L169.673 219.594C168.101 208.009 158.991 198.899 147.406 197.327L145 197L147.406 196.673C158.991 195.101 168.101 185.991 169.673 174.406L170 172Z" fill="white"/>
<path d="M611.278 97.5552L614.617 122.163C615.872 131.41 623.145 138.683 632.392 139.938L657 143.278L632.392 146.617C623.145 147.872 615.872 155.145 614.617 164.392L611.278 189L607.938 164.392C606.683 155.145 599.41 147.872 590.163 146.617L565.555 143.278L590.163 139.938C599.41 138.683 606.683 131.41 607.938 122.163L611.278 97.5552Z" fill="white"/>
<path d="M644.327 417.691L645.981 429.874C646.602 434.452 650.202 438.052 654.78 438.674L666.963 440.327L654.78 441.98C650.202 442.602 646.602 446.202 645.981 450.78L644.327 462.963L642.674 450.78C642.053 446.202 638.452 442.602 633.874 441.98L621.692 440.327L633.874 438.674C638.452 438.052 642.053 434.452 642.674 429.874L644.327 417.691Z" fill="white"/>
<circle cx="613" cy="384" r="8" fill="white"/>
<circle opacity="0.78" cx="302" cy="112" r="8" fill="white"/>
<circle opacity="0.78" cx="400" cy="181" r="5" fill="white"/>
<circle opacity="0.4" cx="112" cy="222" r="6" fill="white"/>
<circle opacity="0.9" cx="155" cy="254" r="3" fill="white"/>
<circle cx="515" cy="564" r="6" fill="white"/>
<circle cx="448" cy="518" r="6" fill="white"/>
<circle cx="671" cy="356" r="6" fill="white"/>
<circle opacity="0.34" cx="534" cy="176" r="6" fill="white"/>
<path d="M293.803 392.59C293.803 396.958 290.875 400.644 286.871 401.802V412.493C302.945 413.711 315.978 425.783 318.62 441.379H342.557C345.795 441.379 348.419 443.997 348.419 447.227C348.419 450.456 345.795 453.074 342.557 453.074H318.62C316.417 466.077 306.991 476.632 294.601 480.487L298.086 587.329L320.129 579.889C321.171 579.537 322.283 579.437 323.371 579.598C324.46 579.76 325.495 580.177 326.389 580.816C327.284 581.456 328.014 582.298 328.517 583.275C329.021 584.251 329.284 585.333 329.285 586.431V613.22C329.285 615.053 330.014 616.81 331.312 618.106C332.61 619.403 334.37 620.133 336.207 620.135H343.139C344.126 610.528 350.887 602.626 359.903 599.939V578.562C359.903 575.326 358.615 572.222 356.32 569.933C354.026 567.645 350.915 566.359 347.671 566.359H341.643C340.697 566.355 339.765 566.134 338.918 565.712C338.072 565.29 337.335 564.68 336.764 563.927C336.193 563.175 335.803 562.302 335.626 561.375C335.448 560.448 335.487 559.493 335.739 558.584C336.129 557.275 336.939 556.131 338.046 555.327C339.152 554.523 340.493 554.105 341.861 554.136H359.935V548.952C359.935 545.716 358.646 542.612 356.352 540.324C354.058 538.035 350.946 536.75 347.702 536.75H335.864C334.918 536.746 333.986 536.524 333.14 536.103C332.294 535.681 331.556 535.07 330.985 534.318C330.414 533.566 330.025 532.692 329.847 531.765C329.669 530.839 329.708 529.884 329.961 528.974C330.35 527.666 331.161 526.521 332.267 525.717C333.373 524.913 334.714 524.495 336.082 524.527H359.883V521.416C359.886 520.376 360.13 519.35 360.596 518.419C361.062 517.487 361.737 516.676 362.569 516.048C363.401 515.42 364.367 514.992 365.392 514.797C366.417 514.603 367.473 514.647 368.478 514.926C369.923 515.357 371.188 516.248 372.077 517.463C372.967 518.678 373.433 520.15 373.404 521.655V524.568H397.308C398.676 524.537 400.017 524.955 401.123 525.759C402.23 526.563 403.04 527.707 403.43 529.016C403.682 529.925 403.721 530.88 403.543 531.807C403.366 532.734 402.976 533.607 402.405 534.359C401.834 535.111 401.097 535.722 400.251 536.144C399.405 536.566 398.472 536.787 397.527 536.791L385.689 536.781C382.444 536.781 379.333 538.067 377.039 540.355C374.745 542.643 373.456 545.747 373.456 548.983V554.167H391.686C392.631 554.17 393.563 554.39 394.409 554.81C395.256 555.231 395.993 555.841 396.564 556.592C397.136 557.344 397.525 558.216 397.703 559.143C397.881 560.069 397.842 561.024 397.589 561.932C397.201 563.243 396.391 564.39 395.285 565.196C394.179 566.001 392.837 566.421 391.467 566.39H385.658C382.413 566.39 379.302 567.676 377.008 569.965C374.714 572.253 373.425 575.357 373.425 578.593V599.924C382.467 602.595 389.252 610.509 390.241 620.135H398.067C398.977 620.135 399.879 619.957 400.72 619.609C401.561 619.261 402.325 618.752 402.969 618.11C403.612 617.468 404.123 616.706 404.471 615.867C404.82 615.028 404.999 614.128 404.999 613.22V581.921C404.999 580.087 405.73 578.328 407.03 577.031C408.33 575.734 410.093 575.006 411.931 575.006H437.139C445.532 559.315 463.285 519.238 464.525 459.108H452.174C447.892 459.108 444.42 455.647 444.42 451.379C444.42 447.11 447.892 443.65 452.174 443.65H494.91C499.192 443.65 502.663 447.11 502.663 451.379C502.663 455.647 499.192 459.108 494.91 459.108H482.085V476.463H494.869C495.91 476.425 496.948 476.597 497.922 476.968C498.895 477.339 499.783 477.902 500.534 478.624C501.284 479.345 501.881 480.21 502.288 481.167C502.696 482.124 502.906 483.152 502.906 484.192C502.906 485.231 502.696 486.26 502.288 487.217C501.881 488.174 501.284 489.039 500.534 489.76C499.783 490.481 498.895 491.045 497.922 491.416C496.948 491.787 495.91 491.959 494.869 491.921H482.085V509.276H494.869C495.91 509.238 496.948 509.41 497.922 509.781C498.895 510.152 499.783 510.715 500.534 511.437C501.284 512.158 501.881 513.023 502.288 513.98C502.696 514.937 502.906 515.965 502.906 517.005C502.906 518.044 502.696 519.073 502.288 520.03C501.881 520.987 501.284 521.852 500.534 522.573C499.783 523.294 498.895 523.858 497.922 524.229C496.948 524.6 495.91 524.772 494.869 524.734H482.085V542.12H494.869C495.887 542.12 496.895 542.32 497.836 542.709C498.776 543.098 499.631 543.667 500.351 544.385C501.071 545.104 501.642 545.956 502.032 546.895C502.421 547.833 502.622 548.839 502.622 549.854C502.622 550.87 502.421 551.876 502.032 552.814C501.642 553.752 501.071 554.605 500.351 555.323C499.631 556.041 498.776 556.611 497.836 557C496.895 557.388 495.887 557.588 494.869 557.588H482.085V575.006H511.269C513.108 575.006 514.871 574.277 516.171 572.98C517.471 571.684 518.201 569.925 518.201 568.091V556.946C518.201 555.112 518.932 553.353 520.232 552.056C521.532 550.759 523.295 550.03 525.134 550.03H526.776V496.897C526.776 494.63 528.618 492.792 530.891 492.792C533.164 492.792 535.007 494.63 535.007 496.897V550.03H643.969V530.208C643.969 526.633 642.545 523.205 640.011 520.678C637.478 518.15 634.041 516.73 630.458 516.73H628.618C627.87 516.722 627.133 516.553 626.457 516.234C625.78 515.915 625.181 515.455 624.699 514.884C624.218 514.313 623.866 513.645 623.667 512.926C623.467 512.207 623.426 511.453 623.546 510.717C623.805 509.493 624.485 508.398 625.469 507.622C626.452 506.846 627.676 506.437 628.93 506.466H669.536C670.28 506.473 671.015 506.639 671.689 506.953C672.364 507.267 672.963 507.722 673.446 508.288C673.929 508.853 674.284 509.515 674.488 510.229C674.692 510.944 674.74 511.693 674.628 512.428C674.373 513.654 673.695 514.753 672.711 515.531C671.727 516.31 670.5 516.72 669.245 516.689H667.779C664.196 516.689 660.759 518.109 658.226 520.636C655.692 523.164 654.268 526.592 654.268 530.166V550.03H678.515C680.354 550.03 682.117 550.759 683.417 552.056C684.717 553.353 685.448 555.112 685.448 556.946V592.568C685.448 594.402 686.178 596.161 687.478 597.458C688.778 598.755 690.541 599.483 692.38 599.483H706.722V563.581C706.722 561.926 708.065 560.585 709.721 560.585C711.377 560.585 712.719 561.926 712.719 563.581V599.483H727.053L730.013 517.031C730.079 515.051 729.745 513.078 729.03 511.23C728.316 509.382 727.237 507.696 725.856 506.272C724.475 504.848 722.821 503.716 720.993 502.942C719.165 502.169 717.199 501.77 715.214 501.77H694.116C692.809 501.767 691.52 501.474 690.341 500.914C689.161 500.354 688.121 499.54 687.295 498.53C686.469 497.521 685.878 496.341 685.564 495.077C685.25 493.812 685.221 492.493 685.479 491.216C685.946 489.191 687.098 487.388 688.741 486.109C690.384 484.831 692.417 484.156 694.5 484.197H702.162C702.749 475.813 706.348 467.888 712.344 461.906C718.919 455.348 727.835 451.664 737.133 451.664C746.43 451.664 755.347 455.348 761.921 461.906C767.917 467.888 771.517 475.813 772.104 484.197H780.15C781.454 484.204 782.741 484.498 783.918 485.06C785.095 485.621 786.132 486.436 786.956 487.445C787.78 488.454 788.369 489.632 788.682 490.896C788.995 492.159 789.024 493.476 788.766 494.751C788.297 496.776 787.145 498.578 785.502 499.855C783.86 501.133 781.827 501.809 779.745 501.77H759.031C757.045 501.77 755.08 502.169 753.252 502.942C751.423 503.716 749.77 504.848 748.389 506.272C747.008 507.696 745.929 509.382 745.214 511.23C744.5 513.078 744.166 515.051 744.231 517.031L747.192 599.483H762.502C763.413 599.483 764.314 599.662 765.155 600.01C765.996 600.357 766.76 600.867 767.404 601.509C768.048 602.151 768.559 602.913 768.907 603.752C769.255 604.591 769.435 605.49 769.435 606.398V620.612C769.435 622.445 770.164 624.202 771.461 625.498C772.759 626.795 774.52 627.525 776.356 627.527H782.083V608.607C782.081 607.378 782.323 606.162 782.794 605.027C783.265 603.891 783.956 602.86 784.827 601.992L804.595 582.304V524.433C804.596 523.316 804.817 522.21 805.247 521.178C805.677 520.146 806.306 519.209 807.099 518.42L816.931 508.602C817.26 508.273 817.679 508.05 818.135 507.959C818.591 507.868 819.064 507.914 819.494 508.092C819.923 508.27 820.29 508.571 820.549 508.957C820.807 509.343 820.944 509.797 820.943 510.261V541.363L829.912 550.31C831.508 551.911 832.405 554.076 832.407 556.334V627.527H837.333C839.171 627.527 840.935 626.799 842.235 625.502C843.535 624.205 844.265 622.446 844.265 620.612V605.662C844.266 604.793 844.452 603.934 844.811 603.141C845.169 602.349 845.693 601.641 846.346 601.066C847 600.491 847.768 600.06 848.601 599.804C849.434 599.547 850.312 599.469 851.177 599.577L857.111 600.314V568.122C857.111 565.855 858.954 564.017 861.227 564.017C863.5 564.017 865.342 565.855 865.342 568.122V601.337L885.828 603.882C887.008 576.398 888.503 541.594 889.143 526.745C889.225 524.768 888.739 522.808 887.741 521.098C886.742 519.387 885.274 517.998 883.51 517.093C879.267 514.873 875.552 511.768 872.616 507.99C869.681 504.213 867.594 499.85 866.496 495.197H857.007C855.904 495.194 854.817 494.937 853.829 494.446C852.842 493.955 851.982 493.243 851.315 492.367C850.648 491.49 850.193 490.472 849.985 489.391C849.778 488.31 849.823 487.196 850.117 486.136C850.572 484.61 851.518 483.276 852.808 482.34C854.098 481.403 855.661 480.915 857.257 480.952H896.678V469.263C893.357 468.299 890.93 465.24 890.93 461.617C890.93 457.219 894.504 453.654 898.912 453.654C903.321 453.654 906.894 457.219 906.894 461.617C906.894 465.24 904.468 468.299 901.147 469.263V480.952H940.818C941.921 480.955 943.008 481.212 943.996 481.703C944.983 482.194 945.843 482.905 946.51 483.782C947.177 484.659 947.632 485.677 947.84 486.758C948.047 487.839 948.002 488.953 947.708 490.013C947.253 491.539 946.307 492.873 945.017 493.809C943.727 494.746 942.163 495.234 940.568 495.197H931.329C930.231 499.85 928.144 504.213 925.209 507.99C922.273 511.768 918.558 514.873 914.315 517.093C912.549 517.998 911.08 519.39 910.081 521.102C909.083 522.814 908.597 524.776 908.682 526.755L912.136 607.151L923.606 608.576V591.044C923.606 586.498 927.301 582.812 931.859 582.812C936.416 582.812 940.111 586.498 940.111 591.044V610.627L952.219 612.132C953.707 612.316 955.076 613.036 956.069 614.157C957.063 615.278 957.611 616.722 957.613 618.217V629.3C957.613 630.105 957.772 630.902 958.08 631.645C958.389 632.388 958.842 633.064 959.412 633.633C959.982 634.202 960.659 634.653 961.405 634.961C962.15 635.269 962.948 635.427 963.755 635.427L970.49 635.428C970.49 620.844 982.342 609.022 996.961 609.022C1011.58 609.022 1023.43 620.844 1023.43 635.428L1055.8 635.427C1057.63 635.43 1059.39 636.16 1060.69 637.457C1061.99 638.753 1062.72 640.51 1062.72 642.343V665.753H1102.64C1105.51 665.752 1108.32 666.563 1110.75 668.091C1113.18 669.62 1115.12 671.803 1116.36 674.389L1127 696.731H1062.72V697H102.549V696.72H32L42.6841 674.389C43.9176 671.804 45.86 669.621 48.2862 668.093C50.7124 666.564 53.5231 665.753 56.3927 665.753H102.549V649.942C102.549 648.108 103.279 646.349 104.579 645.052C105.879 643.755 107.642 643.027 109.481 643.027H131.047C130.518 640.015 130.236 636.841 130.236 633.562C130.236 614.081 140.203 598.312 152.487 598.312C156.81 598.445 160.911 600.252 163.92 603.351C164.181 603.609 164.359 603.939 164.432 604.298C164.505 604.657 164.47 605.03 164.331 605.369C164.192 605.709 163.956 605.999 163.651 606.205C163.347 606.41 162.988 606.521 162.621 606.523H152.446V612.35H168.285C168.882 612.35 169.466 612.527 169.964 612.857C170.461 613.187 170.85 613.656 171.081 614.206L171.164 614.419C171.406 615.041 171.646 615.656 171.86 616.279C171.956 616.557 171.984 616.853 171.942 617.144C171.9 617.435 171.789 617.711 171.618 617.951C171.448 618.19 171.222 618.385 170.96 618.52C170.699 618.655 170.409 618.725 170.114 618.726H152.446V624.552H171.32C172.062 624.547 172.779 624.815 173.335 625.305C173.891 625.795 174.247 626.472 174.334 627.206C174.396 627.756 174.448 628.316 174.5 628.876C174.522 629.131 174.49 629.388 174.407 629.631C174.324 629.874 174.191 630.097 174.017 630.286C173.843 630.475 173.632 630.626 173.397 630.729C173.161 630.833 172.907 630.886 172.65 630.887H152.446V636.713L172.65 636.672C172.913 636.672 173.173 636.727 173.413 636.834C173.653 636.941 173.867 637.098 174.042 637.294C174.217 637.49 174.348 637.72 174.427 637.971C174.506 638.221 174.531 638.485 174.5 638.745C174.365 640.204 174.173 641.633 173.928 643.027H200.192C202.031 643.027 203.794 642.298 205.094 641.001C206.394 639.705 207.124 637.946 207.124 636.112V622.986C207.123 621.541 207.576 620.132 208.421 618.959C209.266 617.785 210.459 616.905 211.832 616.445L229.314 610.544V573.575C229.314 571.92 230.656 570.579 232.312 570.579C233.968 570.579 235.31 571.92 235.31 573.575V608.52L269.973 596.819L273.767 480.484C261.383 476.626 251.961 466.074 249.758 453.074H225.821C222.584 453.074 219.96 450.456 219.96 447.227C219.96 443.997 222.584 441.379 225.821 441.379H249.758C252.4 425.79 265.423 413.721 281.487 412.495V401.796C277.493 400.631 274.576 396.95 274.576 392.59C274.576 387.294 278.88 383 284.189 383C289.499 383 293.803 387.294 293.803 392.59Z" fill="url(#paint2_linear)"/>
<mask id="mask0" style="mask-type:alpha" maskUnits="userSpaceOnUse" x="130" y="139" width="454" height="624">
<rect x="130" y="139" width="454" height="624" fill="url(#paint3_linear)"/>
</mask>
<g mask="url(#mask0)">
<path d="M356.827 485.703C278.277 485.703 214.41 421.805 214.41 343.287C214.41 264.768 278.309 200.87 356.827 200.87C435.345 200.87 499.244 264.768 499.244 343.287C499.244 421.805 435.369 485.703 356.827 485.703ZM356.827 212.806C284.902 212.806 226.393 271.315 226.393 343.239C226.393 415.164 284.894 473.696 356.827 473.696C428.759 473.696 487.26 415.18 487.26 343.255C487.26 271.331 428.743 212.806 356.827 212.806Z" fill="#4F457C"/>
<path d="M356.819 468.503C431.945 468.503 492.847 407.601 492.847 332.475C492.847 257.349 431.945 196.447 356.819 196.447C281.693 196.447 220.791 257.349 220.791 332.475C220.791 407.601 281.693 468.503 356.819 468.503Z" fill="#88D1C3"/>
<path d="M347.353 468.503C417.252 468.503 473.915 411.84 473.915 341.941C473.915 272.043 417.252 215.379 347.353 215.379C277.455 215.379 220.791 272.043 220.791 341.941C220.791 411.84 277.455 468.503 347.353 468.503Z" fill="#7996C9"/>
<path d="M560.404 460.658C548.012 460.658 528.309 457.346 496.671 446.991C451.105 432.041 393.485 406.76 334.426 375.704C256.529 334.718 113.782 248.3 131.509 214.592C140.385 197.722 183.283 204.426 259.031 234.538L254.594 245.695C169.615 211.916 144.311 216.071 142.139 220.186C140.566 223.231 146.199 238.637 191.041 272.904C228.628 301.6 281.527 334.348 340.02 365.097C398.513 395.847 455.456 420.892 500.408 435.597C554.023 453.144 569.925 449.076 571.53 446.031C574.843 439.736 550.113 406.178 455.079 347.472L461.373 337.243C512.368 368.717 595.859 425.502 582.129 451.61C580.65 454.419 577.376 460.658 560.404 460.658Z" fill="#4F457C"/>
<path d="M356.827 475.333C278.277 475.333 214.41 411.434 214.41 332.916C214.41 254.398 278.309 190.499 356.827 190.499C435.345 190.499 499.244 254.406 499.244 332.916C499.244 411.426 435.369 475.333 356.827 475.333ZM356.827 202.451C284.902 202.451 226.393 260.96 226.393 332.884C226.393 404.809 284.894 463.326 356.827 463.326C428.759 463.326 487.26 404.793 487.26 332.884C487.26 260.976 428.743 202.451 356.827 202.451Z" fill="#4F457C"/>
<path d="M304.463 229.762L275.043 208.872C287.633 198.517 310.97 184.787 331.019 183.693" fill="#88D1C3"/>
<path d="M397.368 258.442C431.31 238.846 450.933 209.289 441.197 192.426C431.46 175.562 396.052 177.777 362.11 197.374C328.169 216.97 308.546 246.527 318.282 263.39C328.019 280.254 363.427 278.039 397.368 258.442Z" fill="#7996C9"/>
<path d="M268.017 258.851C259.873 263.572 251.147 276.815 248.905 285.981C257.953 288.617 273.808 287.689 281.952 282.983C283.565 282.084 284.984 280.872 286.125 279.419C287.266 277.966 288.107 276.3 288.598 274.519C289.09 272.738 289.222 270.877 288.988 269.045C288.754 267.212 288.157 265.444 287.233 263.844C286.309 262.244 285.076 260.844 283.606 259.725C282.136 258.606 280.458 257.79 278.67 257.326C276.882 256.861 275.019 256.757 273.19 257.018C271.361 257.28 269.603 257.903 268.017 258.851Z" fill="white"/>
<path d="M386.467 239.551C420.409 219.954 440.032 190.398 430.295 173.534C420.559 156.67 385.151 158.886 351.209 178.482C317.267 198.078 297.645 227.635 307.381 244.499C317.117 261.362 352.526 259.147 386.467 239.551Z" fill="white"/>
<path d="M374.941 234.808C405.244 217.312 423.908 192.91 416.629 180.302C409.351 167.695 378.885 171.657 348.582 189.153C318.28 206.648 299.615 231.051 306.894 243.658C314.173 256.265 344.638 252.303 374.941 234.808Z" fill="#88D1C3"/>
<path d="M421.717 209.981L431.474 226.866C431.474 226.866 435.927 223.373 437.485 220.21C439.043 217.047 445.865 204.615 440.813 195.582C435.762 186.549 433.653 183.779 432.158 188.902C430.663 194.024 421.717 209.981 421.717 209.981Z" fill="white"/>
<path d="M346.15 254.72C335.535 256.53 330.83 256.121 324.118 254.5C317.407 252.879 318.146 255.452 314.417 260.102C310.687 264.752 300.025 300.435 300.025 300.435C300.025 300.435 314.322 301.828 330.46 292.512C346.598 283.196 385.098 256.451 384.681 247.662C384.264 238.873 381.085 245.719 370.777 248.63C360.47 251.541 346.15 254.72 346.15 254.72Z" fill="#88D1C3"/>
<path d="M278.765 209.776C295.564 200.775 314.487 192.38 325.243 194.787C325.243 194.787 330.901 184.716 329.044 183.827C327.187 182.938 288.254 198.942 280.756 204.457C273.257 209.973 278.765 209.776 278.765 209.776Z" fill="white"/>
<path d="M321.647 226.906C311.072 229.786 302.079 233.201 295.587 236.568C289.096 239.936 286.507 241.218 286.877 244.287C287.247 247.356 294.864 265.437 298.57 267.514C302.276 269.592 308.012 266.562 310.034 261.676C312.056 256.79 312.056 254.209 318.374 246.852C324.692 239.495 335.936 226.088 321.647 226.906Z" fill="#88D1C3"/>
<path d="M288.891 247.851C299.827 241.341 311.67 236.494 324.031 233.468L320.019 241.116L291.519 257.561L288.891 247.851Z" fill="white"/>
<path d="M303.558 296.21C314.888 291.922 347.621 279.309 368.488 251.974C368.488 251.974 382.957 242.155 385.129 242.367C387.301 242.58 372.036 267.263 350.603 279.474C329.169 291.686 300.175 305.133 303.558 296.21Z" fill="white"/>
<path d="M400.709 185.589C412.007 205.158 341.153 246.065 329.893 226.505C324.892 217.141 323.725 206.201 326.64 195.993C329.554 185.786 336.322 177.11 345.514 171.8C354.705 166.489 365.601 164.959 375.9 167.532C386.199 170.105 395.095 176.58 400.709 185.589Z" fill="#88D1C3"/>
<path d="M465.638 166.587C464.457 164.476 462.563 162.855 460.295 162.014C458.027 161.172 455.534 161.165 453.262 161.995C450.989 162.824 449.087 164.435 447.894 166.54C446.702 168.644 446.297 171.105 446.754 173.48L435.817 179.775L431.717 172.693C424.093 159.758 403.667 156.343 378.213 163.684C369.312 160.909 359.761 161.029 350.932 164.026C342.104 167.024 334.454 172.744 329.083 180.365C309.412 182.041 287.326 194.567 274.123 205.056C273.554 205.511 273.098 206.091 272.791 206.752C272.483 207.413 272.333 208.136 272.352 208.864C272.377 209.608 272.572 210.336 272.922 210.992C273.273 211.648 273.77 212.215 274.374 212.649L298.058 229.487C294.267 231.172 290.572 233.063 286.987 235.152C279.906 239.244 284.375 254.335 289.804 263.753C293.904 270.835 298.569 275.942 302.976 278.381L297.421 296.919C297.17 297.76 297.142 298.652 297.337 299.508C297.532 300.364 297.944 301.155 298.534 301.806C299.124 302.456 299.872 302.943 300.705 303.22C301.538 303.496 302.429 303.554 303.29 303.386C315.447 301.081 341.058 292.827 362.508 276.705V276.776C374.907 273.715 386.803 268.886 397.829 262.439C433.881 241.612 453.694 210.65 442.859 191.947L439.303 185.786L450.232 179.491C452.063 181.049 454.386 181.909 456.79 181.918C459.194 181.928 461.523 181.086 463.366 179.543C465.21 177.999 466.447 175.854 466.86 173.485C467.273 171.117 466.834 168.679 465.622 166.603L465.638 166.587ZM425.856 176.32C429.845 183.237 427.909 193.245 420.411 204.513C412.432 216.496 399.276 228.118 383.351 237.347C359.793 250.952 334.441 256.326 319.515 251.274L332.104 233.177C334.977 234.543 338.131 235.209 341.31 235.121C351.161 235.121 363.924 230.4 375.475 223.743C394.603 212.727 410.74 196.094 403.69 183.882C400.027 177.513 394.828 172.163 388.568 168.318C406.641 164.73 420.82 167.61 425.856 176.32ZM346.598 173.614C355.198 168.653 365.417 167.31 375.007 169.88C384.598 172.45 392.775 178.723 397.742 187.32C400.102 191.412 396.278 197.195 393.595 200.476C394.61 197.667 394.65 195.016 393.32 192.718C389.482 186.058 383.554 180.849 376.456 177.899C369.357 174.95 361.484 174.424 354.056 176.403C346.628 178.382 340.06 182.756 335.37 188.846C330.68 194.937 328.13 202.404 328.115 210.091C327.332 202.874 328.662 195.585 331.943 189.11C335.224 182.634 340.315 177.251 346.598 173.614ZM280.866 208.699C292.936 199.619 309.908 190.602 324.928 187.903C323.747 190.545 322.825 193.297 322.174 196.117C312.567 205.37 305.848 215.072 302.614 224.144L280.866 208.699ZM324.409 223.106C323.898 223.161 323.394 223.239 322.883 223.294C318.351 223.681 313.857 224.426 309.444 225.521C311.694 219.738 315.652 213.514 320.986 207.377C321.137 212.783 322.284 218.115 324.37 223.106H324.409ZM296.87 261.841C296.547 261.314 296.217 260.85 295.894 260.268C290.276 250.535 289.725 242.344 290.552 241.132C306.375 231.997 315.132 231.061 323.599 230.156C324.385 230.069 325.172 229.951 325.959 229.857L313.37 247.954C312.04 249.863 311.018 251.968 310.34 254.193L308.594 260.016L303.873 262.762C301.748 264.005 299.12 264.289 296.838 261.841H296.87ZM304.966 295.966L316.462 257.522C321.597 259.294 327.003 260.157 332.435 260.071C346.755 260.071 364.199 255.264 381.329 246.325C363.475 276.736 323.37 291.757 304.935 295.966H304.966ZM375.168 265.61C378.058 262.657 380.734 259.501 383.178 256.168L385.932 260.929C382.328 262.691 378.724 264.241 375.136 265.61H375.168ZM394.414 256.436C393.029 257.233 391.641 258.002 390.251 258.741L386.207 251.739C388.012 248.842 389.613 245.824 390.999 242.706L397.742 254.39C396.617 255.075 395.523 255.775 394.382 256.436H394.414ZM401.841 251.778L394.288 238.693C396.743 237.072 399.119 235.401 401.416 233.681L408.931 246.711C406.644 248.452 404.27 250.141 401.81 251.778H401.841ZM412.763 243.65L405.264 230.667C407.625 228.779 409.836 226.859 411.944 224.884L419.38 237.756C417.279 239.755 415.052 241.722 412.731 243.65H412.763ZM422.897 234.208L415.517 221.422C417.704 219.179 419.71 216.89 421.583 214.584L428.853 227.174C426.981 229.608 424.983 231.943 422.866 234.169L422.897 234.208ZM431.922 222.799L424.762 210.406C425.242 209.729 425.761 209.061 426.21 208.384C427.57 206.323 428.812 204.188 429.931 201.987L436.698 213.711C435.405 216.882 433.794 219.913 431.891 222.759L431.922 222.799ZM438.539 207.212L432.363 196.463C433.089 194.527 433.668 192.539 434.094 190.515L436.918 195.409C438.799 198.745 439.24 202.766 438.508 207.172L438.539 207.212Z" fill="#4F457C"/>
<g opacity="0.15">
<path opacity="0.15" d="M382.265 319.43C409.194 319.43 431.025 313.614 431.025 306.439C431.025 299.265 409.194 293.448 382.265 293.448C355.336 293.448 333.505 299.265 333.505 306.439C333.505 313.614 355.336 319.43 382.265 319.43Z" fill="black"/>
</g>
<path d="M384.644 473.602H339V763.118H384.644V473.602Z" fill="#4F457C"/>
<path d="M173.258 290.726C186.677 290.726 197.556 279.848 197.556 266.429C197.556 253.01 186.677 242.131 173.258 242.131C159.839 242.131 148.961 253.01 148.961 266.429C148.961 279.848 159.839 290.726 173.258 290.726Z" fill="#4F457C"/>
<path d="M557.65 430.058C565.603 430.058 572.049 423.612 572.049 415.659C572.049 407.707 565.603 401.26 557.65 401.26C549.698 401.26 543.251 407.707 543.251 415.659C543.251 423.612 549.698 430.058 557.65 430.058Z" fill="#4F457C"/>
<path d="M424.731 266.539C427.59 266.539 429.908 264.221 429.908 261.361C429.908 258.502 427.59 256.184 424.731 256.184C421.871 256.184 419.553 258.502 419.553 261.361C419.553 264.221 421.871 266.539 424.731 266.539Z" fill="#88D1C3"/>
<path d="M415.485 285.619C418.323 285.619 420.623 283.319 420.623 280.481C420.623 277.644 418.323 275.343 415.485 275.343C412.648 275.343 410.347 277.644 410.347 280.481C410.347 283.319 412.648 285.619 415.485 285.619Z" fill="#88D1C3"/>
<path d="M441.183 288.452C445.038 288.452 448.163 285.327 448.163 281.473C448.163 277.618 445.038 274.493 441.183 274.493C437.329 274.493 434.204 277.618 434.204 281.473C434.204 285.327 437.329 288.452 441.183 288.452Z" fill="#88D1C3"/>
<path d="M361.608 739.3C360.652 739.3 359.735 738.92 359.059 738.244C358.384 737.569 358.004 736.652 358.004 735.696V506.932C357.981 506.445 358.057 505.959 358.228 505.502C358.399 505.046 358.66 504.628 358.997 504.276C359.333 503.923 359.738 503.643 360.186 503.451C360.634 503.259 361.116 503.16 361.604 503.16C362.091 503.16 362.573 503.259 363.022 503.451C363.47 503.643 363.874 503.923 364.211 504.276C364.547 504.628 364.809 505.046 364.979 505.502C365.15 505.959 365.226 506.445 365.203 506.932V735.696C365.205 736.169 365.112 736.638 364.932 737.075C364.752 737.512 364.487 737.909 364.153 738.244C363.819 738.579 363.422 738.844 362.986 739.025C362.549 739.207 362.081 739.3 361.608 739.3Z" fill="#7996C9"/>
<path d="M215.134 450.918C211.092 450.909 207.219 449.298 204.363 446.438C201.508 443.578 199.903 439.702 199.901 435.661V376.278C199.917 372.073 201.368 367.999 204.016 364.731C206.663 361.463 210.346 359.196 214.457 358.307L467.66 304.645V297.084C467.666 294.69 468.317 292.343 469.546 290.289C470.775 288.235 472.535 286.551 474.641 285.414C476.747 284.277 479.121 283.73 481.513 283.829C483.904 283.929 486.224 284.673 488.228 285.981L545.392 323.269C547.253 324.487 548.826 326.095 550.001 327.983C551.176 329.871 551.925 331.993 552.196 334.2C552.466 336.407 552.252 338.647 551.567 340.763C550.882 342.878 549.744 344.819 548.232 346.45L490.707 408.366C488.889 410.331 486.519 411.702 483.909 412.298C481.299 412.895 478.569 412.688 476.078 411.707C473.587 410.725 471.451 409.014 469.948 406.798C468.446 404.581 467.649 401.963 467.66 399.285V397.712L218.344 450.579C217.289 450.806 216.213 450.919 215.134 450.918ZM480.966 295.793C480.748 295.796 480.534 295.853 480.344 295.958C480.136 296.062 479.963 296.224 479.845 296.423C479.726 296.622 479.667 296.852 479.675 297.084V314.394L216.951 370.07C215.528 370.38 214.253 371.165 213.336 372.296C212.42 373.428 211.916 374.838 211.908 376.294V435.677C211.912 436.159 212.024 436.634 212.235 437.068C212.446 437.502 212.751 437.883 213.127 438.185C213.504 438.486 213.943 438.7 214.412 438.81C214.882 438.921 215.37 438.926 215.842 438.824L479.691 382.904V399.285C479.688 399.547 479.765 399.803 479.911 400.02C480.058 400.236 480.268 400.403 480.512 400.497C480.756 400.591 481.022 400.609 481.277 400.547C481.531 400.485 481.76 400.347 481.933 400.151L539.459 338.235C539.78 337.887 540.021 337.473 540.166 337.022C540.312 336.571 540.357 336.094 540.299 335.624C540.242 335.154 540.082 334.702 539.833 334.3C539.583 333.897 539.249 333.554 538.853 333.294L481.697 296.014C481.482 295.866 481.226 295.789 480.966 295.793Z" fill="#4F457C"/>
<path d="M546.296 328.384L480.155 280.804L473.671 302.45L205.904 359.204V440.012L473.671 383.265L479.533 399.356L546.296 328.384Z" fill="#FFAEAE"/>
<path d="M542.897 336.26L479.534 294.928V313.859L211.766 370.605V439.784L479.534 383.03V402.897L542.897 336.26Z" fill="#FF8080"/>
<path d="M215.134 443.86C211.091 443.851 207.216 442.239 204.36 439.378C201.505 436.516 199.901 432.638 199.901 428.595V369.221C199.926 365.022 201.381 360.957 204.028 357.697C206.674 354.437 210.353 352.176 214.457 351.289L467.66 297.627V290.065C467.655 287.666 468.298 285.311 469.522 283.248C470.746 281.185 472.505 279.492 474.614 278.347C476.722 277.203 479.1 276.65 481.497 276.747C483.894 276.845 486.22 277.588 488.228 278.9L545.392 316.18C547.253 317.397 548.826 319.006 550.001 320.894C551.176 322.781 551.925 324.903 552.196 327.11C552.466 329.318 552.252 331.557 551.567 333.673C550.882 335.789 549.744 337.73 548.232 339.36L490.707 401.276C488.889 403.241 486.521 404.612 483.911 405.208C481.301 405.805 478.573 405.599 476.082 404.619C473.591 403.638 471.454 401.929 469.952 399.713C468.449 397.498 467.65 394.881 467.66 392.204V390.63L218.344 443.521C217.289 443.748 216.213 443.861 215.134 443.86ZM480.966 288.735C480.748 288.738 480.534 288.795 480.344 288.901C480.136 289.004 479.963 289.166 479.845 289.365C479.726 289.565 479.667 289.794 479.675 290.026V307.336L216.951 363.012C215.528 363.321 214.252 364.105 213.335 365.237C212.418 366.369 211.914 367.78 211.908 369.236V428.611C211.912 429.093 212.024 429.568 212.235 430.002C212.446 430.436 212.751 430.818 213.127 431.119C213.504 431.42 213.943 431.634 214.412 431.745C214.882 431.855 215.37 431.86 215.842 431.758L479.691 375.838V392.204C479.692 392.461 479.769 392.712 479.914 392.924C480.059 393.136 480.265 393.3 480.504 393.394C480.743 393.488 481.005 393.509 481.255 393.452C481.506 393.396 481.734 393.265 481.91 393.077L539.435 331.161C539.756 330.813 539.998 330.399 540.143 329.948C540.288 329.498 540.333 329.021 540.276 328.551C540.218 328.08 540.059 327.629 539.809 327.226C539.559 326.824 539.225 326.48 538.829 326.22L481.674 288.94C481.463 288.803 481.217 288.731 480.966 288.735Z" fill="#4F457C"/>
<path d="M270.354 409.687C270.335 409.985 270.219 410.268 270.024 410.494C269.83 410.72 269.567 410.876 269.276 410.938L262.029 412.449C261.905 412.485 261.775 412.493 261.648 412.47C261.521 412.448 261.4 412.397 261.296 412.321C261.192 412.245 261.107 412.146 261.047 412.032C260.987 411.918 260.954 411.791 260.951 411.662V383.085L251.21 402.472C251.102 402.831 250.898 403.154 250.621 403.406C250.344 403.658 250.004 403.83 249.636 403.904L244.058 405.061C243.744 405.151 243.409 405.12 243.117 404.975C242.826 404.829 242.6 404.579 242.484 404.274L232.475 388.986V417.54C232.456 417.837 232.341 418.121 232.146 418.346C231.952 418.572 231.689 418.728 231.397 418.791L224.143 420.302C224.019 420.338 223.889 420.346 223.763 420.323C223.636 420.301 223.516 420.25 223.413 420.174C223.309 420.098 223.224 419.999 223.165 419.884C223.106 419.77 223.075 419.644 223.073 419.515V374.831C223.09 374.534 223.204 374.251 223.397 374.025C223.59 373.799 223.852 373.643 224.143 373.58L231.799 372.006C232.144 371.865 232.529 371.86 232.878 371.992C233.226 372.123 233.513 372.381 233.679 372.714L246.709 393.172L259.81 367.324C259.938 366.93 260.177 366.581 260.498 366.319C260.819 366.057 261.208 365.892 261.62 365.845L269.339 364.271C269.462 364.233 269.593 364.225 269.721 364.246C269.849 364.268 269.97 364.319 270.074 364.395C270.179 364.472 270.264 364.571 270.324 364.686C270.383 364.801 270.415 364.929 270.417 365.058L270.354 409.687Z" fill="white"/>
<path d="M317.005 400.009C316.989 400.295 316.884 400.569 316.703 400.791C316.522 401.013 316.275 401.172 315.998 401.245L308.342 402.818C308.222 402.853 308.096 402.859 307.973 402.836C307.85 402.812 307.735 402.76 307.637 402.683C307.538 402.606 307.46 402.507 307.407 402.394C307.355 402.28 307.33 402.156 307.335 402.031V389.592L289.002 393.392V405.816C288.986 406.103 288.881 406.378 288.7 406.601C288.519 406.825 288.272 406.985 287.994 407.059L280.339 408.633C280.219 408.668 280.092 408.674 279.97 408.651C279.847 408.627 279.732 408.575 279.633 408.498C279.535 408.421 279.456 408.322 279.404 408.208C279.351 408.095 279.326 407.971 279.331 407.846V381.015C279.361 374.795 281.748 368.816 286.012 364.287C289.253 360.844 293.49 358.5 298.129 357.583C303.306 356.513 307.335 357.324 310.285 359.251C314.92 362.131 317.005 367.529 317.005 373.162V400.009ZM291.826 370.574C289.901 373.102 288.906 376.218 289.009 379.394V384.611L307.343 380.803V375.586C307.343 371.88 306.265 369.425 304.589 367.922C302.905 366.624 300.655 366.27 298.137 366.789C295.664 367.302 293.437 368.635 291.818 370.574H291.826Z" fill="white"/>
<path d="M348.077 393.778C347.982 394.136 347.781 394.457 347.5 394.698C347.219 394.94 346.872 395.091 346.503 395.131L338.446 396.799C337.573 396.988 337.101 396.799 336.872 396.107L320.207 355.065C320.122 354.914 320.076 354.744 320.071 354.571C320.067 354.397 320.106 354.225 320.183 354.07C320.261 353.914 320.375 353.781 320.517 353.68C320.658 353.579 320.822 353.514 320.994 353.492L329.114 351.808C329.988 351.619 330.531 351.855 330.798 352.595L342.435 383.549H342.569L354.592 347.701C354.68 347.305 354.889 346.947 355.189 346.675C355.489 346.403 355.866 346.231 356.268 346.182L364.333 344.506C365.12 344.341 365.474 344.892 365.12 345.781L348.077 393.778Z" fill="white"/>
<path d="M398.222 366.608L408.168 380.331C408.632 381.055 408.703 382.007 407.562 382.243L399.166 383.982C398.222 384.178 397.687 384.155 397.215 383.36L388.221 370.055L379.566 371.857V387.027C379.562 387.316 379.461 387.596 379.278 387.82C379.095 388.044 378.842 388.2 378.559 388.262L370.99 389.844C370.866 389.882 370.736 389.89 370.608 389.869C370.481 389.847 370.36 389.796 370.256 389.72C370.152 389.643 370.068 389.544 370.009 389.428C369.951 389.313 369.92 389.186 369.92 389.057V344.349C369.937 344.051 370.05 343.767 370.243 343.54C370.437 343.313 370.699 343.155 370.99 343.09L390.598 339.022C395.035 338.101 399.064 338.094 402.148 339.809C405.508 341.65 407.459 345.639 407.459 350.714C407.448 355.394 405.617 359.886 402.353 363.241C401.127 364.537 399.739 365.669 398.222 366.608ZM379.558 349.715V363.485L389 361.533C391.479 361.014 393.493 360.392 394.91 359.173C395.806 358.393 396.519 357.424 396.995 356.335C397.471 355.247 397.7 354.066 397.663 352.878C397.663 350.132 396.648 348.551 395.106 347.779C393.403 347.162 391.549 347.09 389.803 347.575L379.558 349.715Z" fill="white"/>
<path d="M442.733 329.257C442.879 328.893 443.116 328.574 443.422 328.33C443.729 328.085 444.093 327.925 444.48 327.864L453.277 326.039C454.355 325.819 454.552 326.598 453.946 327.613L436.958 356.726V375.122C436.941 375.407 436.835 375.68 436.654 375.902C436.473 376.124 436.227 376.283 435.951 376.357L428.295 377.931C428.175 377.966 428.049 377.972 427.926 377.948C427.803 377.925 427.688 377.872 427.59 377.796C427.491 377.719 427.412 377.619 427.36 377.506C427.308 377.393 427.283 377.269 427.288 377.144V358.653L410.434 336.622C410.274 336.48 410.16 336.293 410.108 336.086C410.056 335.878 410.068 335.66 410.142 335.46C410.216 335.259 410.348 335.085 410.523 334.961C410.697 334.837 410.905 334.769 411.118 334.765L419.915 332.94C420.228 332.814 420.577 332.815 420.889 332.941C421.201 333.067 421.453 333.309 421.591 333.616L432.135 347.905L442.733 329.257Z" fill="white"/>
<path d="M472.192 349.605L468.502 354.215V368.599C468.497 368.888 468.395 369.167 468.212 369.391C468.03 369.615 467.777 369.771 467.495 369.834L459.902 371.408C459.779 371.444 459.649 371.452 459.522 371.429C459.395 371.407 459.276 371.356 459.172 371.28C459.068 371.204 458.984 371.105 458.925 370.99C458.866 370.876 458.834 370.75 458.832 370.621V325.929C458.851 325.632 458.965 325.35 459.158 325.124C459.351 324.899 459.612 324.742 459.902 324.678L467.495 323.104C467.615 323.069 467.741 323.063 467.864 323.086C467.987 323.11 468.102 323.162 468.2 323.239C468.299 323.316 468.378 323.415 468.43 323.529C468.482 323.642 468.507 323.766 468.502 323.891V341.673L484.294 320.602C484.78 319.869 485.525 319.346 486.379 319.138L496.096 317.124C496.97 316.943 497.3 317.691 496.561 318.603L478.967 340.926L497.064 361.871C497.67 362.501 497.733 363.516 496.521 363.768L487.528 365.632C487.179 365.749 486.802 365.751 486.451 365.639C486.1 365.528 485.794 365.308 485.577 365.011L472.192 349.605Z" fill="white"/>
<path d="M552.284 336.276V327.101H548.027L552.284 336.276Z" fill="#4F457C"/>
<path d="M483.586 397.42C485.132 394.997 485.938 392.175 485.907 389.3C485.962 387.433 485.505 385.587 484.585 383.961C483.666 382.336 482.319 380.993 480.69 380.079C478.801 379.023 476.669 378.481 474.506 378.505C473.361 378.509 472.219 378.63 471.099 378.867C466.682 379.807 462.657 382.069 459.556 385.35C459.227 385.109 458.885 384.886 458.533 384.682C456.585 383.603 454.386 383.06 452.159 383.108C450.888 383.116 449.62 383.25 448.375 383.509C443.781 384.424 439.626 386.851 436.572 390.402C436.478 390.292 436.368 390.182 436.273 390.079C434.546 388.405 432.227 387.48 429.821 387.506C429.081 387.508 428.342 387.587 427.618 387.742C425.866 388.12 424.192 388.796 422.669 389.741L422.126 389.135L418.695 389.835C413.754 390.842 410.143 391.913 407.68 393.109L406.106 393.895C404.722 393.701 403.326 393.596 401.928 393.581C400.634 393.57 399.343 393.689 398.072 393.935L394.658 394.627V394.753C393.6 394.777 392.547 394.896 391.51 395.107C387.609 395.952 384.149 398.19 381.777 401.402L381.596 401.213C379.871 399.536 377.551 398.61 375.144 398.64C374.404 398.644 373.666 398.72 372.941 398.868C371.189 399.249 369.515 399.928 367.992 400.875L367.441 400.269L364.018 400.961C361.76 401.425 359.809 401.897 358.093 402.393C358.283 401.599 358.381 400.786 358.385 399.97C358.424 398.547 358.138 397.135 357.549 395.839C356.96 394.544 356.083 393.4 354.985 392.495C353.345 391.198 351.309 390.506 349.218 390.536C348.431 390.536 333.348 392.636 333.348 392.636L322.269 394.564C319.543 395.126 316.869 395.916 314.275 396.925L313.724 397.153C312.95 397.469 312.267 397.974 311.738 398.621C311.209 399.268 310.85 400.038 310.695 400.859L310.506 401.858C310.379 402.647 310.432 403.455 310.661 404.22C310.89 404.986 311.289 405.69 311.828 406.28C312.052 406.543 312.22 406.849 312.321 407.179C312.423 407.509 312.455 407.857 312.418 408.2C312.418 408.247 311.088 417.241 309.577 424.605C307.154 436.408 306.871 440.256 306.871 442.152V443.497C306.871 444.241 307.036 444.975 307.355 445.647C307.674 446.319 308.138 446.911 308.715 447.381C309.291 447.851 309.965 448.187 310.687 448.365C311.409 448.542 312.161 448.557 312.89 448.407L314.763 448.03C320.16 446.928 323.528 445.669 325.676 444.095L326.109 443.765C326.72 443.297 327.216 442.694 327.557 442.004C327.898 441.313 328.076 440.554 328.076 439.784V438.289C328.206 434.623 328.627 430.974 329.335 427.375C329.791 427.265 330.271 427.163 330.775 427.06C331.841 426.839 332.922 426.689 334.008 426.612C333.471 428.67 333.163 430.781 333.088 432.907C333.027 434.332 333.281 435.753 333.834 437.068C334.386 438.384 335.222 439.561 336.282 440.515C337.948 441.969 340.091 442.757 342.302 442.726C343.066 442.724 343.827 442.645 344.576 442.49C345.857 442.214 347.098 441.772 348.266 441.176V441.231L356.654 439.532C360.808 438.682 363.649 437.738 365.592 436.565L366.583 435.96C367.882 436.611 369.317 436.943 370.769 436.927C371.562 436.926 372.353 436.845 373.13 436.683C375.431 436.148 377.595 435.135 379.48 433.709C380.463 433.009 381.258 432.403 381.927 431.86C383.665 432.905 385.658 433.449 387.686 433.434C388.54 433.432 389.391 433.345 390.228 433.174C391.575 432.888 392.87 432.397 394.068 431.718C394.982 431.252 396.02 431.087 397.034 431.246C397.423 431.294 397.814 431.318 398.206 431.317C399.018 431.313 399.828 431.226 400.622 431.058C401.606 430.851 402.564 430.534 403.478 430.113C403.815 429.957 404.169 429.838 404.532 429.759L411.425 428.359C415.58 427.517 418.42 426.573 420.364 425.392L421.355 424.786C422.652 425.442 424.088 425.776 425.541 425.762C426.334 425.758 427.125 425.674 427.901 425.51C430.203 424.978 432.366 423.967 434.251 422.544L434.739 422.182C435.38 421.721 436.122 421.418 436.903 421.299C437.684 421.18 438.482 421.248 439.232 421.498C440.504 421.9 441.832 422.099 443.166 422.088C444.303 422.078 445.436 421.957 446.549 421.726C448.34 421.35 450.071 420.734 451.695 419.892C453.099 419.203 454.433 418.378 455.677 417.43C456.463 416.847 457.25 416.147 458.037 415.392C460.093 416.887 462.577 417.679 465.119 417.65C466.147 417.645 467.172 417.537 468.179 417.327C471.663 416.613 474.938 415.114 477.755 412.945C478.793 412.133 479.785 411.266 480.729 410.348C481.759 409.415 482.668 408.358 483.436 407.201L483.877 406.508C484.454 405.593 484.72 404.515 484.635 403.436C484.55 402.357 484.118 401.334 483.405 400.521L482.209 399.285C482.706 398.693 483.166 398.07 483.586 397.42ZM332.797 409.514L334.229 409.333L334.166 410.12C333.686 410.159 333.182 410.214 332.647 410.293C332.702 410.01 332.75 409.742 332.797 409.514Z" fill="#4F457C"/>
<path d="M483.586 401.52C485.132 399.096 485.938 396.274 485.907 393.4C485.962 391.533 485.505 389.686 484.586 388.061C483.666 386.435 482.319 385.092 480.69 384.178C478.801 383.123 476.669 382.58 474.506 382.604C473.361 382.608 472.219 382.73 471.099 382.966C466.683 383.907 462.657 386.168 459.556 389.45C459.227 389.209 458.886 388.985 458.533 388.781C456.585 387.702 454.386 387.159 452.16 387.207C450.888 387.215 449.62 387.35 448.375 387.609C443.781 388.523 439.626 390.95 436.572 394.501C436.478 394.391 436.368 394.281 436.273 394.179C434.546 392.504 432.227 391.579 429.821 391.606C429.081 391.607 428.342 391.686 427.618 391.842C425.866 392.22 424.192 392.896 422.669 393.84L422.126 393.234L418.696 393.935C413.754 394.942 410.143 396.012 407.68 397.208L406.106 397.995C404.722 397.801 403.326 397.695 401.928 397.68C400.634 397.669 399.343 397.788 398.073 398.034L394.658 398.727V398.852C393.6 398.877 392.547 398.995 391.511 399.206C387.609 400.052 384.149 402.29 381.777 405.501L381.596 405.312C379.871 403.635 377.551 402.71 375.144 402.739C374.404 402.743 373.666 402.819 372.941 402.968C371.189 403.348 369.515 404.027 367.992 404.974L367.441 404.368L364.019 405.061C361.76 405.525 359.809 405.997 358.094 406.493C358.283 405.699 358.381 404.885 358.385 404.069C358.424 402.647 358.138 401.234 357.549 399.939C356.96 398.643 356.083 397.5 354.986 396.594C353.345 395.298 351.309 394.606 349.218 394.635C348.425 394.64 347.634 394.725 346.858 394.887C346.586 394.903 346.315 394.849 346.071 394.729C345.164 394.386 344.176 394.317 343.23 394.533L333.222 396.752L322.246 398.648C319.518 399.223 316.844 400.025 314.251 401.048L313.701 401.276C312.926 401.593 312.242 402.099 311.713 402.747C311.184 403.396 310.826 404.167 310.671 404.99L310.482 405.981C310.356 406.77 310.409 407.578 310.638 408.343C310.867 409.109 311.265 409.813 311.804 410.403C312.028 410.666 312.196 410.972 312.298 411.302C312.399 411.632 312.432 411.98 312.394 412.323C312.394 412.37 311.065 421.364 309.554 428.728C307.13 440.531 306.847 444.379 306.847 446.275V447.62C306.847 448.364 307.013 449.098 307.332 449.77C307.651 450.442 308.115 451.034 308.691 451.504C309.268 451.974 309.941 452.31 310.663 452.488C311.385 452.665 312.138 452.68 312.866 452.53L314.739 452.153C320.137 451.051 323.504 449.831 325.653 448.218L326.085 447.888C326.697 447.42 327.193 446.817 327.534 446.127C327.875 445.436 328.052 444.677 328.052 443.907V442.412C328.182 438.746 328.603 435.097 329.311 431.498C329.768 431.388 330.248 431.286 330.751 431.183C331.818 430.962 332.898 430.812 333.985 430.735C333.448 432.793 333.139 434.904 333.064 437.03C333.004 438.456 333.259 439.878 333.811 441.194C334.364 442.511 335.199 443.689 336.259 444.646C337.927 446.095 340.069 446.879 342.278 446.849C343.042 446.847 343.804 446.768 344.552 446.613C345.834 446.337 347.074 445.895 348.243 445.299V445.354L356.63 443.655C360.785 442.805 363.625 441.869 365.569 440.688L366.56 440.083C367.858 440.734 369.293 441.066 370.746 441.05C371.539 441.049 372.33 440.967 373.106 440.806C375.408 440.271 377.571 439.258 379.456 437.832C380.44 437.132 381.234 436.526 381.903 435.983C383.642 437.028 385.635 437.572 387.663 437.557C388.517 437.555 389.368 437.468 390.204 437.297C391.551 437.011 392.846 436.52 394.044 435.841C394.958 435.375 395.997 435.21 397.01 435.369C397.399 435.417 397.791 435.441 398.183 435.44C398.995 435.436 399.804 435.349 400.598 435.181C401.583 434.974 402.541 434.657 403.455 434.236C403.792 434.08 404.146 433.961 404.509 433.882L411.402 432.482C415.556 431.64 418.397 430.696 420.34 429.515L421.331 428.909C422.629 429.565 424.064 429.899 425.517 429.885C426.311 429.881 427.102 429.797 427.878 429.633C430.179 429.101 432.343 428.09 434.228 426.667L434.716 426.305C435.357 425.844 436.099 425.541 436.88 425.422C437.661 425.303 438.459 425.371 439.208 425.62C440.481 426.023 441.808 426.222 443.143 426.211C444.279 426.201 445.413 426.08 446.526 425.849C448.316 425.473 450.047 424.857 451.672 424.015C453.076 423.326 454.409 422.501 455.653 421.553C456.44 420.97 457.227 420.27 458.014 419.515C460.069 421.01 462.553 421.802 465.095 421.773C466.124 421.768 467.149 421.66 468.156 421.45C471.64 420.736 474.914 419.237 477.732 417.068C478.769 416.256 479.762 415.389 480.706 414.471C481.735 413.538 482.645 412.481 483.413 411.324L483.853 410.631C484.431 409.717 484.698 408.641 484.613 407.563C484.527 406.485 484.095 405.463 483.381 404.651L482.264 403.377C482.742 402.786 483.184 402.165 483.586 401.52ZM332.797 413.59L334.229 413.409L334.166 414.196C333.686 414.196 333.183 414.29 332.647 414.369C332.703 414.109 332.75 413.842 332.797 413.59Z" fill="#4F457C"/>
<path d="M323.575 400.521L334.433 398.648L340.138 397.373C340.271 398.097 340.329 398.833 340.311 399.569C340.356 400.291 340.212 401.012 339.894 401.662C339.739 401.907 339.531 402.115 339.287 402.271C339.042 402.428 338.766 402.528 338.478 402.566C337.817 402.698 336.403 402.892 334.237 403.149C332.07 403.406 330.473 403.639 329.445 403.849L327.454 404.36C327.307 405.808 326.421 410.508 324.795 418.46C327.596 417.626 329.941 417.018 331.829 416.635C333.262 416.297 334.733 416.149 336.204 416.194C336.161 417.653 335.824 419.087 335.212 420.412C333.309 420.436 331.414 420.655 329.555 421.065C327.689 421.427 325.849 421.914 324.047 422.52C322.678 429.534 321.994 434.779 321.994 438.257V439.209C320.661 440.227 317.855 441.168 313.575 442.034L313.016 442.152C313.016 439.618 313.876 434.181 315.597 425.841C317.317 417.5 318.366 411.542 318.744 407.964C318.712 407.252 318.521 406.555 318.185 405.926C317.887 405.272 317.495 404.665 317.021 404.124L316.47 403.456L316.635 402.59C318.885 401.703 321.207 401.011 323.575 400.521Z" fill="#88D1C3"/>
<path d="M350.335 413.15C350.335 414.723 349.837 417.514 348.84 421.522C347.841 425.534 347.345 428.131 347.345 429.296C347.345 430.46 347.511 431.027 347.841 430.956C348.738 430.513 349.592 429.986 350.39 429.382L351.059 428.918L352.003 430.672C351.665 431.042 351.217 431.507 350.674 432.057C349.701 432.95 348.662 433.769 347.566 434.504C346.315 435.454 344.882 436.134 343.356 436.503C342.838 436.659 342.291 436.688 341.76 436.588C341.228 436.488 340.729 436.262 340.303 435.929C339.911 435.537 339.61 435.064 339.419 434.543C339.229 434.023 339.155 433.467 339.202 432.915C339.404 430.364 339.868 427.841 340.586 425.385C341.504 421.713 341.966 419.353 341.971 418.303C341.991 416.805 341.481 415.347 340.531 414.188L340.028 413.622L340.083 412.89C342.045 411.93 345.223 411.004 349.619 410.113C350.099 410.577 350.335 411.592 350.335 413.15ZM344.041 405.148C343.652 404.821 343.347 404.404 343.154 403.934C342.961 403.464 342.884 402.955 342.931 402.449C342.971 401.117 343.514 399.849 344.45 398.9C345.357 397.828 346.594 397.087 347.967 396.791C348.488 396.632 349.038 396.593 349.576 396.676C350.114 396.759 350.626 396.963 351.075 397.271C351.458 397.605 351.757 398.024 351.95 398.494C352.142 398.963 352.223 399.472 352.184 399.978C352.133 401.312 351.569 402.574 350.611 403.503C349.695 404.567 348.462 405.309 347.094 405.62C346.579 405.774 346.037 405.812 345.506 405.73C344.975 405.649 344.469 405.449 344.025 405.148H344.041Z" fill="#88D1C3"/>
<path d="M355.434 433.536L354.38 433.756C354.38 431.999 354.904 428.542 355.954 423.386C357.003 418.23 357.527 415.316 357.527 414.644C357.47 413.294 356.908 412.013 355.954 411.056L355.45 410.49L355.505 409.75C357.504 408.78 360.701 407.851 365.097 406.965C365.577 407.5 365.836 408.594 365.883 410.262C369.099 407.114 371.816 405.318 374.035 404.872C374.591 404.697 375.184 404.67 375.754 404.794C376.324 404.919 376.851 405.189 377.285 405.58C377.696 406.01 378.014 406.521 378.219 407.08C378.423 407.64 378.51 408.235 378.473 408.83C378.292 411.359 377.865 413.865 377.198 416.312C376.557 418.653 376.13 421.047 375.923 423.465C375.923 424.629 376.073 425.188 376.372 425.133C377.21 424.705 378.001 424.191 378.732 423.598L379.401 423.126L380.4 424.873C380.062 425.243 379.614 425.699 379.071 426.258C378.107 427.146 377.079 427.962 375.994 428.697C374.804 429.621 373.435 430.288 371.973 430.656C369.22 431.249 367.843 429.993 367.843 426.887C368.032 424.371 368.449 421.877 369.086 419.436C369.692 417.139 370.11 414.798 370.337 412.433C370.337 411.426 370.022 410.985 369.393 411.119C367.932 411.54 366.587 412.288 365.458 413.307C365.348 413.968 364.979 415.717 364.349 418.555C363.059 424.661 362.413 428.92 362.413 431.333C361.123 432.12 358.797 432.854 355.434 433.536Z" fill="#88D1C3"/>
<path d="M398.608 401.489C398.851 400.98 399.057 400.454 399.221 399.915C401.539 399.574 403.898 399.622 406.201 400.057C405.265 403.389 404.524 406.773 403.982 410.191C403.554 412.625 403.291 415.086 403.195 417.556C403.195 418.988 403.336 419.672 403.635 419.617C404.497 419.172 405.314 418.645 406.075 418.044L406.736 417.571L407.735 419.318C407.404 419.688 406.948 420.105 406.437 420.703C405.494 421.588 404.483 422.398 403.415 423.126C402.234 424.046 400.876 424.713 399.426 425.086C397.128 425.547 395.799 424.776 395.437 422.772C393.071 425.338 390.936 426.812 389.032 427.194C388.188 427.412 387.304 427.412 386.46 427.194C385.617 426.977 384.842 426.549 384.209 425.951C382.895 424.724 382.241 422.521 382.241 419.318C382.241 414.335 383.256 410.196 385.286 406.902C387.317 403.608 389.774 401.667 392.659 401.079C394.642 400.663 396.701 400.805 398.608 401.489ZM392.313 421.805C393.431 421.502 394.458 420.929 395.303 420.137C395.578 414.682 396.443 409.274 397.884 404.006C396.963 403.756 396.001 403.705 395.059 403.857C393.727 404.124 392.591 405.667 391.652 408.484C390.695 411.374 390.217 414.401 390.236 417.446C390.236 420.63 390.92 422.083 392.289 421.805H392.313Z" fill="#88D1C3"/>
<path d="M410.19 422.403L409.135 422.615C409.135 420.868 409.66 417.414 410.709 412.252C411.758 407.091 412.283 404.174 412.283 403.503C412.225 402.152 411.664 400.872 410.709 399.915L410.206 399.348L410.261 398.609C413.343 397.322 416.56 396.388 419.852 395.823C420.332 396.358 420.592 397.46 420.639 399.128C423.86 395.981 426.577 394.182 428.791 393.73C429.336 393.579 429.91 393.569 430.46 393.699C431.011 393.83 431.519 394.098 431.938 394.478C432.349 394.907 432.667 395.417 432.871 395.974C433.076 396.532 433.163 397.127 433.126 397.72C432.947 400.25 432.52 402.756 431.851 405.202C431.21 407.543 430.783 409.937 430.577 412.355C430.577 413.527 430.726 414.086 431.025 414.023C431.865 413.583 432.656 413.055 433.386 412.449L434.055 411.977L435.054 413.732C434.715 414.094 434.267 414.519 433.716 415.117C432.755 416.005 431.73 416.82 430.648 417.556C429.453 418.472 428.085 419.139 426.627 419.515C423.925 420.04 422.577 418.77 422.583 415.707C422.773 413.191 423.189 410.697 423.826 408.255C424.432 405.959 424.85 403.617 425.077 401.253C425.077 400.245 424.762 399.813 424.133 399.939C422.673 400.366 421.329 401.117 420.198 402.134C420.088 402.787 419.718 404.542 419.089 407.382C417.814 413.525 417.177 417.797 417.177 420.2C415.876 420.986 413.547 421.721 410.19 422.403Z" fill="#88D1C3"/>
<path d="M449.594 392.291C448.115 392.598 446.935 394.069 446.046 396.721C445.159 399.371 444.71 402.148 444.716 404.943C444.716 409.412 446.083 411.366 448.815 410.805C449.823 410.576 450.78 410.165 451.64 409.593C452.473 409.076 453.263 408.492 454.001 407.846L454.835 407.012L456.109 408.484C455.606 409.199 455.032 409.86 454.394 410.459C453.6 411.227 452.768 411.954 451.9 412.638C450.96 413.344 449.956 413.96 448.902 414.479C447.755 415.083 446.533 415.53 445.267 415.809C442.387 416.391 440.226 415.883 438.783 414.283C437.341 412.683 436.622 410.28 436.627 407.075C436.516 402.935 437.783 398.874 440.231 395.532C442.463 392.407 445.804 390.251 449.571 389.505C452.042 388.981 454.009 389.149 455.472 390.009C456.153 390.361 456.72 390.899 457.107 391.561C457.494 392.222 457.686 392.98 457.66 393.746C457.651 395.404 457.098 397.013 456.086 398.326C455.023 398.518 453.935 398.532 452.868 398.365C451.879 398.29 450.927 397.965 450.098 397.421L450.932 392.346C450.502 392.193 450.036 392.173 449.594 392.291Z" fill="#88D1C3"/>
<path d="M458.628 402.732C458.515 398.394 460.005 394.167 462.813 390.858C465.599 387.59 468.765 385.597 472.311 384.878C474.109 384.394 476.022 384.581 477.692 385.406C478.376 385.789 478.936 386.358 479.308 387.048C479.68 387.738 479.849 388.519 479.793 389.3C479.823 391.006 479.352 392.683 478.44 394.124C477.571 395.492 476.453 396.685 475.143 397.641C472.923 399.262 470.5 400.584 467.936 401.575L466.606 402.016C466.868 405.457 468.29 406.915 470.871 406.39C471.884 406.155 472.844 405.733 473.703 405.147C474.552 404.626 475.343 404.017 476.064 403.33L476.898 402.496L478.228 404.006C477.701 404.727 477.097 405.386 476.426 405.973C475.631 406.741 474.799 407.469 473.931 408.153C471.847 409.752 469.425 410.853 466.85 411.371C464.301 411.896 462.289 411.395 460.815 409.868C459.341 408.342 458.612 405.963 458.628 402.732ZM471.044 395.965C472.157 394.444 472.74 392.601 472.704 390.717C472.704 388.71 472.114 387.821 470.934 388.065C469.525 388.348 468.447 389.773 467.684 392.322C466.976 394.574 466.594 396.917 466.551 399.277C468.337 398.63 469.897 397.479 471.044 395.965Z" fill="#88D1C3"/>
<path d="M310.451 402.244L310.435 407.209L311.828 406.304L311.796 403.503L310.451 402.244Z" fill="#4F457C"/>
</g>
<defs>
<linearGradient id="paint0_linear" x1="471.258" y1="-266.487" x2="471.258" y2="778.995" gradientUnits="userSpaceOnUse">
<stop stop-color="#AEEDE1"/>
<stop offset="1" stop-color="#AEEDE1" stop-opacity="0"/>
</linearGradient>
<linearGradient id="paint1_linear" x1="513" y1="-84" x2="513" y2="712" gradientUnits="userSpaceOnUse">
<stop stop-color="#AEEDE1"/>
<stop offset="1" stop-color="#AEEDE1" stop-opacity="0"/>
</linearGradient>
<linearGradient id="paint2_linear" x1="579.5" y1="383" x2="579.5" y2="697" gradientUnits="userSpaceOnUse">
<stop stop-color="#AEEDE1"/>
<stop offset="1" stop-color="#AEEDE1" stop-opacity="0"/>
</linearGradient>
<linearGradient id="paint3_linear" x1="357" y1="544" x2="357" y2="684.5" gradientUnits="userSpaceOnUse">
<stop stop-color="#C4C4C4"/>
<stop offset="1" stop-color="#C4C4C4" stop-opacity="0"/>
</linearGradient>
</defs>
</svg>
