<svg version="1.1" viewBox="0.0 0.0 905.0 371.0" fill="none" stroke="none" stroke-linecap="square" stroke-miterlimit="10" width="905" height="371" xmlns:xlink="http://www.w3.org/1999/xlink" xmlns="http://www.w3.org/2000/svg"><path fill="#ffffff" d="M0 0L905.0 0L905.0 371.0L0 371.0L0 0Z" fill-rule="nonzero"/><path stroke="#cccccc" stroke-width="1.0" stroke-linecap="butt" d="M239.5 25.5L239.5 300.5" fill-rule="nonzero"/><path stroke="#cccccc" stroke-width="1.0" stroke-linecap="butt" d="M401.5 25.5L401.5 300.5" fill-rule="nonzero"/><path stroke="#cccccc" stroke-width="1.0" stroke-linecap="butt" d="M562.5 25.5L562.5 300.5" fill-rule="nonzero"/><path stroke="#cccccc" stroke-width="1.0" stroke-linecap="butt" d="M724.5 25.5L724.5 300.5" fill-rule="nonzero"/><path stroke="#cccccc" stroke-width="1.0" stroke-linecap="butt" d="M886.5 25.5L886.5 300.5" fill-rule="nonzero"/><path stroke="#333333" stroke-width="1.0" stroke-linecap="butt" d="M77.5 300.5L886.5 300.5" fill-rule="nonzero"/><path stroke="#cccccc" stroke-width="1.0" stroke-linecap="butt" d="M77.5 231.5L886.5 231.5" fill-rule="nonzero"/><path stroke="#cccccc" stroke-width="1.0" stroke-linecap="butt" d="M77.5 163.5L886.5 163.5" fill-rule="nonzero"/><path stroke="#cccccc" stroke-width="1.0" stroke-linecap="butt" d="M77.5 94.5L886.5 94.5" fill-rule="nonzero"/><path stroke="#cccccc" stroke-width="1.0" stroke-linecap="butt" d="M77.5 25.5L886.5 25.5" fill-rule="nonzero"/><path stroke="#000000" stroke-width="1.0" stroke-linecap="butt" d="M77.5 300.5L77.5 25.5" fill-rule="nonzero"/><clipPath id="id_0"><path d="M77.55 25.55L886.45 25.55L886.45 300.45L77.55 300.45L77.55 25.55Z" clip-rule="nonzero"/></clipPath><path stroke="#4285f4" stroke-width="2.0" stroke-linecap="butt" clip-path="url(#id_0)" d="M77.55 25.555498L85.6382 71.36667L93.72721 104.09286L101.816216 128.6375L109.90522 147.72778L117.99423 163.0L126.08324 175.49545L134.17224 185.90834L142.26126 194.71924L150.35027 202.27142L158.43927 208.81667L166.52827 214.54375L174.6173 219.59706L182.7063 224.08888L190.7953 228.1079L198.88431 231.725L206.97333 234.99762L215.06233 237.97273L223.15134 240.68913L231.24034 243.17917L239.32935 245.47L247.41837 247.58461L255.50737 249.54259L263.59637 251.36072L271.6854 253.05345L279.77438 254.63333L287.8634 256.1113L295.95242 257.4969L304.0414 258.7985L312.13043 260.02353L320.21942 261.17856L328.30844 262.26944L336.39746 263.30136L344.48645 264.27896L352.57547 265.20642L360.66446 266.0875L368.75348 266.9256L376.8425 267.72382L384.9315 268.4849L393.0205 269.21136L401.10953 269.90555L409.19852 270.56958L417.28754 271.20532L425.37653 271.81458L433.46555 272.399L441.55457 272.96L449.64355 273.49902L457.73257 274.0173L465.8216 274.51605L473.91058 274.9963L481.9996 275.45908L490.0886 275.90536L498.1776 276.33597L506.26663 276.7517L514.35565 277.15338L522.44464 277.54166L530.5336 277.9172L538.6227 278.28064L546.7117 278.63254L554.80066 278.97345L562.88965 279.30383L570.9787 279.62424L579.0677 279.9351L587.1567 280.23676L595.2457 280.52972L603.3347 280.8143L611.4237 281.09085L619.51276 281.3597L627.60175 281.62125L635.69073 281.87567L643.7798 282.12332L651.8688 282.36447L659.95776 282.59937L668.04675 282.82822L676.1358 283.05127L684.2248 283.26874L692.3138 283.48087L700.40283 283.6878L708.4918 283.88977L716.5808 284.0869L724.66986 284.27942L732.75885 284.46744L740.84784 284.65115L748.9369 284.8307L757.0259 285.00616L765.11487 285.17776L773.20386 285.3456L781.2929 285.5098L789.3819 285.67044L797.4709 285.82767L805.55994 285.98157L813.6489 286.1323L821.7379 286.2799L829.82697 286.4245L837.91595 286.56616L846.00494 286.705L854.094 286.8411L862.183 286.97452L870.272 287.10535L878.36096 287.23364L886.45 287.35953" fill-rule="nonzero"/><path fill="#000000" fill-opacity="0.0" clip-path="url(#id_0)" d="M80.55 25.555498C80.55 27.212353 79.206856 28.555498 77.55 28.555498C75.89314 28.555498 74.55 27.212353 74.55 25.555498C74.55 23.898643 75.89314 22.555498 77.55 22.555498C79.206856 22.555498 80.55 23.898643 80.55 25.555498Z" fill-rule="nonzero"/><path fill="#000000" fill-opacity="0.0" clip-path="url(#id_0)" d="M88.6382 71.36667C88.6382 73.02352 87.29505 74.36667 85.6382 74.36667C83.981346 74.36667 82.6382 73.02352 82.6382 71.36667C82.6382 69.709816 83.981346 68.36667 85.6382 68.36667C87.29505 68.36667 88.6382 69.709816 88.6382 71.36667Z" fill-rule="nonzero"/><path fill="#000000" fill-opacity="0.0" clip-path="url(#id_0)" d="M96.72721 104.09286C96.72721 105.74971 95.38406 107.09286 93.72721 107.09286C92.07035 107.09286 90.72721 105.74971 90.72721 104.09286C90.72721 102.436005 92.07035 101.09286 93.72721 101.09286C95.38406 101.09286 96.72721 102.436005 96.72721 104.09286Z" fill-rule="nonzero"/><path fill="#000000" fill-opacity="0.0" clip-path="url(#id_0)" d="M104.816216 128.6375C104.816216 130.29436 103.47307 131.6375 101.816216 131.6375C100.15936 131.6375 98.816216 130.29436 98.816216 128.6375C98.816216 126.980644 100.15936 125.6375 101.816216 125.6375C103.47307 125.6375 104.816216 126.980644 104.816216 128.6375Z" fill-rule="nonzero"/><path fill="#000000" fill-opacity="0.0" clip-path="url(#id_0)" d="M112.90522 147.72778C112.90522 149.38463 111.56208 150.72778 109.90522 150.72778C108.24837 150.72778 106.90522 149.38463 106.90522 147.72778C106.90522 146.07092 108.24837 144.72778 109.90522 144.72778C111.56208 144.72778 112.90522 146.07092 112.90522 147.72778Z" fill-rule="nonzero"/><path fill="#000000" fill-opacity="0.0" clip-path="url(#id_0)" d="M120.99423 163.0C120.99423 164.65686 119.651085 166.0 117.99423 166.0C116.33738 166.0 114.99423 164.65686 114.99423 163.0C114.99423 161.34314 116.33738 160.0 117.99423 160.0C119.651085 160.0 120.99423 161.34314 120.99423 163.0Z" fill-rule="nonzero"/><path fill="#000000" fill-opacity="0.0" clip-path="url(#id_0)" d="M129.08324 175.49545C129.08324 177.15231 127.7401 178.49545 126.08324 178.49545C124.426384 178.49545 123.08324 177.15231 123.08324 175.49545C123.08324 173.83861 124.426384 172.49545 126.08324 172.49545C127.7401 172.49545 129.08324 173.83861 129.08324 175.49545Z" fill-rule="nonzero"/><path fill="#000000" fill-opacity="0.0" clip-path="url(#id_0)" d="M137.17224 185.90834C137.17224 187.56519 135.8291 188.90834 134.17224 188.90834C132.5154 188.90834 131.17224 187.56519 131.17224 185.90834C131.17224 184.25148 132.5154 182.90834 134.17224 182.90834C135.8291 182.90834 137.17224 184.25148 137.17224 185.90834Z" fill-rule="nonzero"/><path fill="#000000" fill-opacity="0.0" clip-path="url(#id_0)" d="M145.26126 194.71924C145.26126 196.37608 143.9181 197.71924 142.26126 197.71924C140.6044 197.71924 139.26126 196.37608 139.26126 194.71924C139.26126 193.06238 140.6044 191.71924 142.26126 191.71924C143.9181 191.71924 145.26126 193.06238 145.26126 194.71924Z" fill-rule="nonzero"/><path fill="#000000" fill-opacity="0.0" clip-path="url(#id_0)" d="M153.35027 202.27142C153.35027 203.92828 152.00711 205.27142 150.35027 205.27142C148.6934 205.27142 147.35027 203.92828 147.35027 202.27142C147.35027 200.61458 148.6934 199.27142 150.35027 199.27142C152.00711 199.27142 153.35027 200.61458 153.35027 202.27142Z" fill-rule="nonzero"/><path fill="#000000" fill-opacity="0.0" clip-path="url(#id_0)" d="M161.43927 208.81667C161.43927 210.47353 160.09613 211.81667 158.43927 211.81667C156.78242 211.81667 155.43927 210.47353 155.43927 208.81667C155.43927 207.1598 156.78242 205.81667 158.43927 205.81667C160.09613 205.81667 161.43927 207.1598 161.43927 208.81667Z" fill-rule="nonzero"/><path fill="#000000" fill-opacity="0.0" clip-path="url(#id_0)" d="M169.52827 214.54375C169.52827 216.2006 168.18513 217.54375 166.52827 217.54375C164.87143 217.54375 163.52827 216.2006 163.52827 214.54375C163.52827 212.8869 164.87143 211.54375 166.52827 211.54375C168.18513 211.54375 169.52827 212.8869 169.52827 214.54375Z" fill-rule="nonzero"/><path fill="#000000" fill-opacity="0.0" clip-path="url(#id_0)" d="M177.6173 219.59706C177.6173 221.2539 176.27414 222.59706 174.6173 222.59706C172.96043 222.59706 171.6173 221.2539 171.6173 219.59706C171.6173 217.9402 172.96043 216.59706 174.6173 216.59706C176.27414 216.59706 177.6173 217.9402 177.6173 219.59706Z" fill-rule="nonzero"/><path fill="#000000" fill-opacity="0.0" clip-path="url(#id_0)" d="M185.7063 224.08888C185.7063 225.74574 184.36314 227.08888 182.7063 227.08888C181.04944 227.08888 179.7063 225.74574 179.7063 224.08888C179.7063 222.43204 181.04944 221.08888 182.7063 221.08888C184.36314 221.08888 185.7063 222.43204 185.7063 224.08888Z" fill-rule="nonzero"/><path fill="#000000" fill-opacity="0.0" clip-path="url(#id_0)" d="M193.7953 228.1079C193.7953 229.76476 192.45216 231.1079 190.7953 231.1079C189.13844 231.1079 187.7953 229.76476 187.7953 228.1079C187.7953 226.45103 189.13844 225.1079 190.7953 225.1079C192.45216 225.1079 193.7953 226.45103 193.7953 228.1079Z" fill-rule="nonzero"/><path fill="#000000" fill-opacity="0.0" clip-path="url(#id_0)" d="M201.88431 231.725C201.88431 233.38185 200.54117 234.725 198.88431 234.725C197.22746 234.725 195.88431 233.38185 195.88431 231.725C195.88431 230.06815 197.22746 228.725 198.88431 228.725C200.54117 228.725 201.88431 230.06815 201.88431 231.725Z" fill-rule="nonzero"/><path fill="#000000" fill-opacity="0.0" clip-path="url(#id_0)" d="M209.97333 234.99762C209.97333 236.65448 208.63017 237.99762 206.97333 237.99762C205.31647 237.99762 203.97333 236.65448 203.97333 234.99762C203.97333 233.34076 205.31647 231.99762 206.97333 231.99762C208.63017 231.99762 209.97333 233.34076 209.97333 234.99762Z" fill-rule="nonzero"/><path fill="#000000" fill-opacity="0.0" clip-path="url(#id_0)" d="M218.06233 237.97273C218.06233 239.62958 216.71918 240.97273 215.06233 240.97273C213.40547 240.97273 212.06233 239.62958 212.06233 237.97273C212.06233 236.31587 213.40547 234.97273 215.06233 234.97273C216.71918 234.97273 218.06233 236.31587 218.06233 237.97273Z" fill-rule="nonzero"/><path fill="#000000" fill-opacity="0.0" clip-path="url(#id_0)" d="M226.15134 240.68913C226.15134 242.34598 224.8082 243.68913 223.15134 243.68913C221.49448 243.68913 220.15134 242.34598 220.15134 240.68913C220.15134 239.03227 221.49448 237.68913 223.15134 237.68913C224.8082 237.68913 226.15134 239.03227 226.15134 240.68913Z" fill-rule="nonzero"/><path fill="#000000" fill-opacity="0.0" clip-path="url(#id_0)" d="M234.24034 243.17917C234.24034 244.83601 232.8972 246.17917 231.24034 246.17917C229.5835 246.17917 228.24034 244.83601 228.24034 243.17917C228.24034 241.52231 229.5835 240.17917 231.24034 240.17917C232.8972 240.17917 234.24034 241.52231 234.24034 243.17917Z" fill-rule="nonzero"/><path fill="#000000" fill-opacity="0.0" clip-path="url(#id_0)" d="M242.32935 245.47C242.32935 247.12686 240.9862 248.47 239.32935 248.47C237.6725 248.47 236.32935 247.12686 236.32935 245.47C236.32935 243.81314 237.6725 242.47 239.32935 242.47C240.9862 242.47 242.32935 243.81314 242.32935 245.47Z" fill-rule="nonzero"/><path fill="#000000" fill-opacity="0.0" clip-path="url(#id_0)" d="M250.41837 247.58461C250.41837 249.24147 249.07521 250.58461 247.41837 250.58461C245.7615 250.58461 244.41837 249.24147 244.41837 247.58461C244.41837 245.92776 245.7615 244.58461 247.41837 244.58461C249.07521 244.58461 250.41837 245.92776 250.41837 247.58461Z" fill-rule="nonzero"/><path fill="#000000" fill-opacity="0.0" clip-path="url(#id_0)" d="M258.50735 249.54259C258.50735 251.19945 257.1642 252.54259 255.50737 252.54259C253.85051 252.54259 252.50737 251.19945 252.50737 249.54259C252.50737 247.88574 253.85051 246.54259 255.50737 246.54259C257.1642 246.54259 258.50735 247.88574 258.50735 249.54259Z" fill-rule="nonzero"/><path fill="#000000" fill-opacity="0.0" clip-path="url(#id_0)" d="M266.59637 251.36072C266.59637 253.01756 265.25323 254.36072 263.59637 254.36072C261.9395 254.36072 260.59637 253.01756 260.59637 251.36072C260.59637 249.70386 261.9395 248.36072 263.59637 248.36072C265.25323 248.36072 266.59637 249.70386 266.59637 251.36072Z" fill-rule="nonzero"/><path fill="#000000" fill-opacity="0.0" clip-path="url(#id_0)" d="M274.6854 253.05345C274.6854 254.7103 273.34225 256.05344 271.6854 256.05344C270.02853 256.05344 268.6854 254.7103 268.6854 253.05345C268.6854 251.39659 270.02853 250.05345 271.6854 250.05345C273.34225 250.05345 274.6854 251.39659 274.6854 253.05345Z" fill-rule="nonzero"/><path fill="#000000" fill-opacity="0.0" clip-path="url(#id_0)" d="M282.77438 254.63333C282.77438 256.2902 281.43124 257.63333 279.77438 257.63333C278.11755 257.63333 276.77438 256.2902 276.77438 254.63333C276.77438 252.97649 278.11755 251.63333 279.77438 251.63333C281.43124 251.63333 282.77438 252.97649 282.77438 254.63333Z" fill-rule="nonzero"/><path fill="#000000" fill-opacity="0.0" clip-path="url(#id_0)" d="M290.8634 256.1113C290.8634 257.76816 289.52026 259.1113 287.8634 259.1113C286.20654 259.1113 284.8634 257.76816 284.8634 256.1113C284.8634 254.45444 286.20654 253.1113 287.8634 253.1113C289.52026 253.1113 290.8634 254.45444 290.8634 256.1113Z" fill-rule="nonzero"/><path fill="#000000" fill-opacity="0.0" clip-path="url(#id_0)" d="M298.95242 257.4969C298.95242 259.15372 297.60925 260.4969 295.95242 260.4969C294.29556 260.4969 292.95242 259.15372 292.95242 257.4969C292.95242 255.84003 294.29556 254.49687 295.95242 254.49687C297.60925 254.49687 298.95242 255.84003 298.95242 257.4969Z" fill-rule="nonzero"/><path fill="#000000" fill-opacity="0.0" clip-path="url(#id_0)" d="M307.0414 258.7985C307.0414 260.45535 305.69827 261.7985 304.0414 261.7985C302.38455 261.7985 301.0414 260.45535 301.0414 258.7985C301.0414 257.14163 302.38455 255.7985 304.0414 255.7985C305.69827 255.7985 307.0414 257.14163 307.0414 258.7985Z" fill-rule="nonzero"/><path fill="#000000" fill-opacity="0.0" clip-path="url(#id_0)" d="M315.13043 260.02353C315.13043 261.6804 313.7873 263.02353 312.13043 263.02353C310.47357 263.02353 309.13043 261.6804 309.13043 260.02353C309.13043 258.36667 310.47357 257.02353 312.13043 257.02353C313.7873 257.02353 315.13043 258.36667 315.13043 260.02353Z" fill-rule="nonzero"/><path fill="#000000" fill-opacity="0.0" clip-path="url(#id_0)" d="M323.21942 261.17856C323.21942 262.83542 321.87628 264.17856 320.21942 264.17856C318.5626 264.17856 317.21942 262.83542 317.21942 261.17856C317.21942 259.52173 318.5626 258.17856 320.21942 258.17856C321.87628 258.17856 323.21942 259.52173 323.21942 261.17856Z" fill-rule="nonzero"/><path fill="#000000" fill-opacity="0.0" clip-path="url(#id_0)" d="M331.30844 262.26944C331.30844 263.9263 329.9653 265.26944 328.30844 265.26944C326.65158 265.26944 325.30844 263.9263 325.30844 262.26944C325.30844 260.61258 326.65158 259.26944 328.30844 259.26944C329.9653 259.26944 331.30844 260.61258 331.30844 262.26944Z" fill-rule="nonzero"/><path fill="#000000" fill-opacity="0.0" clip-path="url(#id_0)" d="M339.39746 263.30136C339.39746 264.9582 338.0543 266.30136 336.39746 266.30136C334.7406 266.30136 333.39746 264.9582 333.39746 263.30136C333.39746 261.6445 334.7406 260.30136 336.39746 260.30136C338.0543 260.30136 339.39746 261.6445 339.39746 263.30136Z" fill-rule="nonzero"/><path fill="#000000" fill-opacity="0.0" clip-path="url(#id_0)" d="M347.48645 264.27896C347.48645 265.9358 346.1433 267.27896 344.48645 267.27896C342.8296 267.27896 341.48645 265.9358 341.48645 264.27896C341.48645 262.6221 342.8296 261.27896 344.48645 261.27896C346.1433 261.27896 347.48645 262.6221 347.48645 264.27896Z" fill-rule="nonzero"/><path fill="#000000" fill-opacity="0.0" clip-path="url(#id_0)" d="M355.57547 265.20642C355.57547 266.86325 354.23233 268.20642 352.57547 268.20642C350.9186 268.20642 349.57547 266.86325 349.57547 265.20642C349.57547 263.54956 350.9186 262.20642 352.57547 262.20642C354.23233 262.20642 355.57547 263.54956 355.57547 265.20642Z" fill-rule="nonzero"/><path fill="#000000" fill-opacity="0.0" clip-path="url(#id_0)" d="M363.66446 266.0875C363.66446 267.74435 362.32132 269.0875 360.66446 269.0875C359.00763 269.0875 357.66446 267.74435 357.66446 266.0875C357.66446 264.43063 359.00763 263.0875 360.66446 263.0875C362.32132 263.0875 363.66446 264.43063 363.66446 266.0875Z" fill-rule="nonzero"/><path fill="#000000" fill-opacity="0.0" clip-path="url(#id_0)" d="M371.75348 266.9256C371.75348 268.58246 370.41034 269.9256 368.75348 269.9256C367.09662 269.9256 365.75348 268.58246 365.75348 266.9256C365.75348 265.26877 367.09662 263.9256 368.75348 263.9256C370.41034 263.9256 371.75348 265.26877 371.75348 266.9256Z" fill-rule="nonzero"/><path fill="#000000" fill-opacity="0.0" clip-path="url(#id_0)" d="M379.8425 267.72382C379.8425 269.38068 378.49936 270.72382 376.8425 270.72382C375.18564 270.72382 373.8425 269.38068 373.8425 267.72382C373.8425 266.06696 375.18564 264.72382 376.8425 264.72382C378.49936 264.72382 379.8425 266.06696 379.8425 267.72382Z" fill-rule="nonzero"/><path fill="#000000" fill-opacity="0.0" clip-path="url(#id_0)" d="M387.9315 268.4849C387.9315 270.14172 386.58835 271.4849 384.9315 271.4849C383.27466 271.4849 381.9315 270.14172 381.9315 268.4849C381.9315 266.82803 383.27466 265.4849 384.9315 265.4849C386.58835 265.4849 387.9315 266.82803 387.9315 268.4849Z" fill-rule="nonzero"/><path fill="#000000" fill-opacity="0.0" clip-path="url(#id_0)" d="M396.0205 269.21136C396.0205 270.86823 394.67737 272.21136 393.0205 272.21136C391.36365 272.21136 390.0205 270.86823 390.0205 269.21136C390.0205 267.5545 391.36365 266.21136 393.0205 266.21136C394.67737 266.21136 396.0205 267.5545 396.0205 269.21136Z" fill-rule="nonzero"/><path fill="#000000" fill-opacity="0.0" clip-path="url(#id_0)" d="M404.10953 269.90555C404.10953 271.5624 402.76636 272.90555 401.10953 272.90555C399.45267 272.90555 398.10953 271.5624 398.10953 269.90555C398.10953 268.2487 399.45267 266.90555 401.10953 266.90555C402.76636 266.90555 404.10953 268.2487 404.10953 269.90555Z" fill-rule="nonzero"/><path fill="#000000" fill-opacity="0.0" clip-path="url(#id_0)" d="M412.19852 270.56958C412.19852 272.2264 410.85538 273.56958 409.19852 273.56958C407.54166 273.56958 406.19852 272.2264 406.19852 270.56958C406.19852 268.91272 407.54166 267.56958 409.19852 267.56958C410.85538 267.56958 412.19852 268.91272 412.19852 270.56958Z" fill-rule="nonzero"/><path fill="#000000" fill-opacity="0.0" clip-path="url(#id_0)" d="M420.28754 271.20532C420.28754 272.86218 418.9444 274.20532 417.28754 274.20532C415.63068 274.20532 414.28754 272.86218 414.28754 271.20532C414.28754 269.54846 415.63068 268.20532 417.28754 268.20532C418.9444 268.20532 420.28754 269.54846 420.28754 271.20532Z" fill-rule="nonzero"/><path fill="#000000" fill-opacity="0.0" clip-path="url(#id_0)" d="M428.37653 271.81458C428.37653 273.47144 427.0334 274.81458 425.37653 274.81458C423.7197 274.81458 422.37653 273.47144 422.37653 271.81458C422.37653 270.1577 423.7197 268.81458 425.37653 268.81458C427.0334 268.81458 428.37653 270.1577 428.37653 271.81458Z" fill-rule="nonzero"/><path fill="#000000" fill-opacity="0.0" clip-path="url(#id_0)" d="M436.46555 272.399C436.46555 274.05585 435.1224 275.399 433.46555 275.399C431.8087 275.399 430.46555 274.05585 430.46555 272.399C430.46555 270.74213 431.8087 269.399 433.46555 269.399C435.1224 269.399 436.46555 270.74213 436.46555 272.399Z" fill-rule="nonzero"/><path fill="#000000" fill-opacity="0.0" clip-path="url(#id_0)" d="M444.55457 272.96C444.55457 274.61685 443.2114 275.96 441.55457 275.96C439.8977 275.96 438.55457 274.61685 438.55457 272.96C438.55457 271.30313 439.8977 269.96 441.55457 269.96C443.2114 269.96 444.55457 271.30313 444.55457 272.96Z" fill-rule="nonzero"/><path fill="#000000" fill-opacity="0.0" clip-path="url(#id_0)" d="M452.64355 273.49902C452.64355 275.15588 451.3004 276.49902 449.64355 276.49902C447.9867 276.49902 446.64355 275.15588 446.64355 273.49902C446.64355 271.84216 447.9867 270.49902 449.64355 270.49902C451.3004 270.49902 452.64355 271.84216 452.64355 273.49902Z" fill-rule="nonzero"/><path fill="#000000" fill-opacity="0.0" clip-path="url(#id_0)" d="M460.73257 274.0173C460.73257 275.67416 459.38943 277.0173 457.73257 277.0173C456.0757 277.0173 454.73257 275.67416 454.73257 274.0173C454.73257 272.36044 456.0757 271.0173 457.73257 271.0173C459.38943 271.0173 460.73257 272.36044 460.73257 274.0173Z" fill-rule="nonzero"/><path fill="#000000" fill-opacity="0.0" clip-path="url(#id_0)" d="M468.8216 274.51605C468.8216 276.17288 467.47842 277.51605 465.8216 277.51605C464.16473 277.51605 462.8216 276.17288 462.8216 274.51605C462.8216 272.8592 464.16473 271.51605 465.8216 271.51605C467.47842 271.51605 468.8216 272.8592 468.8216 274.51605Z" fill-rule="nonzero"/><path fill="#000000" fill-opacity="0.0" clip-path="url(#id_0)" d="M476.91058 274.9963C476.91058 276.65314 475.56744 277.9963 473.91058 277.9963C472.25372 277.9963 470.91058 276.65314 470.91058 274.9963C470.91058 273.33945 472.25372 271.9963 473.91058 271.9963C475.56744 271.9963 476.91058 273.33945 476.91058 274.9963Z" fill-rule="nonzero"/><path fill="#000000" fill-opacity="0.0" clip-path="url(#id_0)" d="M484.9996 275.45908C484.9996 277.11594 483.65646 278.45908 481.9996 278.45908C480.34274 278.45908 478.9996 277.11594 478.9996 275.45908C478.9996 273.80225 480.34274 272.45908 481.9996 272.45908C483.65646 272.45908 484.9996 273.80225 484.9996 275.45908Z" fill-rule="nonzero"/><path fill="#000000" fill-opacity="0.0" clip-path="url(#id_0)" d="M493.0886 275.90536C493.0886 277.56223 491.74545 278.90536 490.0886 278.90536C488.43176 278.90536 487.0886 277.56223 487.0886 275.90536C487.0886 274.2485 488.43176 272.90536 490.0886 272.90536C491.74545 272.90536 493.0886 274.2485 493.0886 275.90536Z" fill-rule="nonzero"/><path fill="#000000" fill-opacity="0.0" clip-path="url(#id_0)" d="M501.1776 276.33597C501.1776 277.99283 499.83447 279.33597 498.1776 279.33597C496.52075 279.33597 495.1776 277.99283 495.1776 276.33597C495.1776 274.6791 496.52075 273.33597 498.1776 273.33597C499.83447 273.33597 501.1776 274.6791 501.1776 276.33597Z" fill-rule="nonzero"/><path fill="#000000" fill-opacity="0.0" clip-path="url(#id_0)" d="M509.26663 276.7517C509.26663 278.40857 507.92346 279.7517 506.26663 279.7517C504.60977 279.7517 503.26663 278.40857 503.26663 276.7517C503.26663 275.09488 504.60977 273.7517 506.26663 273.7517C507.92346 273.7517 509.26663 275.09488 509.26663 276.7517Z" fill-rule="nonzero"/><path fill="#000000" fill-opacity="0.0" clip-path="url(#id_0)" d="M517.35565 277.15338C517.35565 278.81024 516.0125 280.15338 514.35565 280.15338C512.6988 280.15338 511.35562 278.81024 511.35562 277.15338C511.35562 275.49652 512.6988 274.15338 514.35565 274.15338C516.0125 274.15338 517.35565 275.49652 517.35565 277.15338Z" fill-rule="nonzero"/><path fill="#000000" fill-opacity="0.0" clip-path="url(#id_0)" d="M525.44464 277.54166C525.44464 279.19852 524.1015 280.54166 522.44464 280.54166C520.7878 280.54166 519.44464 279.19852 519.44464 277.54166C519.44464 275.88483 520.7878 274.54166 522.44464 274.54166C524.1015 274.54166 525.44464 275.88483 525.44464 277.54166Z" fill-rule="nonzero"/><path fill="#000000" fill-opacity="0.0" clip-path="url(#id_0)" d="M533.5336 277.9172C533.5336 279.57407 532.1905 280.9172 530.5336 280.9172C528.8768 280.9172 527.5336 279.57407 527.5336 277.9172C527.5336 276.26035 528.8768 274.9172 530.5336 274.9172C532.1905 274.9172 533.5336 276.26035 533.5336 277.9172Z" fill-rule="nonzero"/><path fill="#000000" fill-opacity="0.0" clip-path="url(#id_0)" d="M541.6227 278.28064C541.6227 279.9375 540.2795 281.28064 538.6227 281.28064C536.9658 281.28064 535.6227 279.9375 535.6227 278.28064C535.6227 276.62378 536.9658 275.28064 538.6227 275.28064C540.2795 275.28064 541.6227 276.62378 541.6227 278.28064Z" fill-rule="nonzero"/><path fill="#000000" fill-opacity="0.0" clip-path="url(#id_0)" d="M549.7117 278.63254C549.7117 280.2894 548.3685 281.63254 546.7117 281.63254C545.0548 281.63254 543.7117 280.2894 543.7117 278.63254C543.7117 276.97568 545.0548 275.63254 546.7117 275.63254C548.3685 275.63254 549.7117 276.97568 549.7117 278.63254Z" fill-rule="nonzero"/><path fill="#000000" fill-opacity="0.0" clip-path="url(#id_0)" d="M557.80066 278.97345C557.80066 280.63028 556.4575 281.97345 554.80066 281.97345C553.1438 281.97345 551.80066 280.63028 551.80066 278.97345C551.80066 277.3166 553.1438 275.97345 554.80066 275.97345C556.4575 275.97345 557.80066 277.3166 557.80066 278.97345Z" fill-rule="nonzero"/><path fill="#000000" fill-opacity="0.0" clip-path="url(#id_0)" d="M565.88965 279.30383C565.88965 280.9607 564.5465 282.30383 562.88965 282.30383C561.23285 282.30383 559.88965 280.9607 559.88965 279.30383C559.88965 277.647 561.23285 276.30383 562.88965 276.30383C564.5465 276.30383 565.88965 277.647 565.88965 279.30383Z" fill-rule="nonzero"/><path fill="#000000" fill-opacity="0.0" clip-path="url(#id_0)" d="M573.9787 279.62424C573.9787 281.2811 572.63556 282.62424 570.9787 282.62424C569.32184 282.62424 567.9787 281.2811 567.9787 279.62424C567.9787 277.96738 569.32184 276.62424 570.9787 276.62424C572.63556 276.62424 573.9787 277.96738 573.9787 279.62424Z" fill-rule="nonzero"/><path fill="#000000" fill-opacity="0.0" clip-path="url(#id_0)" d="M582.0677 279.9351C582.0677 281.59192 580.72455 282.9351 579.0677 282.9351C577.4108 282.9351 576.0677 281.59192 576.0677 279.9351C576.0677 278.27823 577.4108 276.9351 579.0677 276.9351C580.72455 276.9351 582.0677 278.27823 582.0677 279.9351Z" fill-rule="nonzero"/><path fill="#000000" fill-opacity="0.0" clip-path="url(#id_0)" d="M590.1567 280.23676C590.1567 281.89362 588.81354 283.23676 587.1567 283.23676C585.4998 283.23676 584.1567 281.89362 584.1567 280.23676C584.1567 278.57993 585.4998 277.23676 587.1567 277.23676C588.81354 277.23676 590.1567 278.57993 590.1567 280.23676Z" fill-rule="nonzero"/><path fill="#000000" fill-opacity="0.0" clip-path="url(#id_0)" d="M598.2457 280.52972C598.2457 282.18655 596.9026 283.52972 595.2457 283.52972C593.58887 283.52972 592.2457 282.18655 592.2457 280.52972C592.2457 278.87286 593.58887 277.52972 595.2457 277.52972C596.9026 277.52972 598.2457 278.87286 598.2457 280.52972Z" fill-rule="nonzero"/><path fill="#000000" fill-opacity="0.0" clip-path="url(#id_0)" d="M606.3347 280.8143C606.3347 282.47113 604.9916 283.8143 603.3347 283.8143C601.67786 283.8143 600.3347 282.47113 600.3347 280.8143C600.3347 279.15744 601.67786 277.8143 603.3347 277.8143C604.9916 277.8143 606.3347 279.15744 606.3347 280.8143Z" fill-rule="nonzero"/><path fill="#000000" fill-opacity="0.0" clip-path="url(#id_0)" d="M614.4237 281.09085C614.4237 282.7477 613.08057 284.09085 611.4237 284.09085C609.76685 284.09085 608.4237 282.7477 608.4237 281.09085C608.4237 279.434 609.76685 278.09085 611.4237 278.09085C613.08057 278.09085 614.4237 279.434 614.4237 281.09085Z" fill-rule="nonzero"/><path fill="#000000" fill-opacity="0.0" clip-path="url(#id_0)" d="M622.51276 281.3597C622.51276 283.01657 621.1696 284.3597 619.51276 284.3597C617.8559 284.3597 616.51276 283.01657 616.51276 281.3597C616.51276 279.70288 617.8559 278.3597 619.51276 278.3597C621.1696 278.3597 622.51276 279.70288 622.51276 281.3597Z" fill-rule="nonzero"/><path fill="#000000" fill-opacity="0.0" clip-path="url(#id_0)" d="M630.60175 281.62125C630.60175 283.27808 629.2586 284.62125 627.60175 284.62125C625.9449 284.62125 624.60175 283.27808 624.60175 281.62125C624.60175 279.9644 625.9449 278.62125 627.60175 278.62125C629.2586 278.62125 630.60175 279.9644 630.60175 281.62125Z" fill-rule="nonzero"/><path fill="#000000" fill-opacity="0.0" clip-path="url(#id_0)" d="M638.69073 281.87567C638.69073 283.53253 637.3476 284.87567 635.69073 284.87567C634.0339 284.87567 632.69073 283.53253 632.69073 281.87567C632.69073 280.2188 634.0339 278.87567 635.69073 278.87567C637.3476 278.87567 638.69073 280.2188 638.69073 281.87567Z" fill-rule="nonzero"/><path fill="#000000" fill-opacity="0.0" clip-path="url(#id_0)" d="M646.7798 282.12332C646.7798 283.78018 645.4366 285.12332 643.7798 285.12332C642.1229 285.12332 640.7798 283.78018 640.7798 282.12332C640.7798 280.4665 642.1229 279.12332 643.7798 279.12332C645.4366 279.12332 646.7798 280.4665 646.7798 282.12332Z" fill-rule="nonzero"/><path fill="#000000" fill-opacity="0.0" clip-path="url(#id_0)" d="M654.8688 282.36447C654.8688 284.02133 653.52563 285.36447 651.8688 285.36447C650.2119 285.36447 648.8688 284.02133 648.8688 282.36447C648.8688 280.7076 650.2119 279.36447 651.8688 279.36447C653.52563 279.36447 654.8688 280.7076 654.8688 282.36447Z" fill-rule="nonzero"/><path fill="#000000" fill-opacity="0.0" clip-path="url(#id_0)" d="M662.95776 282.59937C662.95776 284.2562 661.6146 285.59937 659.95776 285.59937C658.3009 285.59937 656.95776 284.2562 656.95776 282.59937C656.95776 280.9425 658.3009 279.59937 659.95776 279.59937C661.6146 279.59937 662.95776 280.9425 662.95776 282.59937Z" fill-rule="nonzero"/><path fill="#000000" fill-opacity="0.0" clip-path="url(#id_0)" d="M671.04675 282.82822C671.04675 284.48505 669.7036 285.82822 668.04675 285.82822C666.38995 285.82822 665.04675 284.48505 665.04675 282.82822C665.04675 281.17136 666.38995 279.82822 668.04675 279.82822C669.7036 279.82822 671.04675 281.17136 671.04675 282.82822Z" fill-rule="nonzero"/><path fill="#000000" fill-opacity="0.0" clip-path="url(#id_0)" d="M679.1358 283.05127C679.1358 284.70813 677.79266 286.05127 676.1358 286.05127C674.47894 286.05127 673.1358 284.70813 673.1358 283.05127C673.1358 281.3944 674.47894 280.05127 676.1358 280.05127C677.79266 280.05127 679.1358 281.3944 679.1358 283.05127Z" fill-rule="nonzero"/><path fill="#000000" fill-opacity="0.0" clip-path="url(#id_0)" d="M687.2248 283.26874C687.2248 284.9256 685.88165 286.26874 684.2248 286.26874C682.56793 286.26874 681.2248 284.9256 681.2248 283.26874C681.2248 281.6119 682.56793 280.26874 684.2248 280.26874C685.88165 280.26874 687.2248 281.6119 687.2248 283.26874Z" fill-rule="nonzero"/><path fill="#000000" fill-opacity="0.0" clip-path="url(#id_0)" d="M695.3138 283.48087C695.3138 285.13773 693.97064 286.48087 692.3138 286.48087C690.6569 286.48087 689.3138 285.13773 689.3138 283.48087C689.3138 281.824 690.6569 280.48087 692.3138 280.48087C693.97064 280.48087 695.3138 281.824 695.3138 283.48087Z" fill-rule="nonzero"/><path fill="#000000" fill-opacity="0.0" clip-path="url(#id_0)" d="M703.40283 283.6878C703.40283 285.34467 702.0597 286.6878 700.40283 286.6878C698.746 286.6878 697.40283 285.34467 697.40283 283.6878C697.40283 282.03094 698.746 280.6878 700.40283 280.6878C702.0597 280.6878 703.40283 282.03094 703.40283 283.6878Z" fill-rule="nonzero"/><path fill="#000000" fill-opacity="0.0" clip-path="url(#id_0)" d="M711.4918 283.88977C711.4918 285.5466 710.1487 286.88977 708.4918 286.88977C706.83496 286.88977 705.4918 285.5466 705.4918 283.88977C705.4918 282.2329 706.83496 280.88977 708.4918 280.88977C710.1487 280.88977 711.4918 282.2329 711.4918 283.88977Z" fill-rule="nonzero"/><path fill="#000000" fill-opacity="0.0" clip-path="url(#id_0)" d="M719.5808 284.0869C719.5808 285.74374 718.2377 287.0869 716.5808 287.0869C714.92395 287.0869 713.5808 285.74374 713.5808 284.0869C713.5808 282.43005 714.92395 281.0869 716.5808 281.0869C718.2377 281.0869 719.5808 282.43005 719.5808 284.0869Z" fill-rule="nonzero"/><path fill="#000000" fill-opacity="0.0" clip-path="url(#id_0)" d="M727.66986 284.27942C727.66986 285.93628 726.3267 287.27942 724.66986 287.27942C723.013 287.27942 721.66986 285.93628 721.66986 284.27942C721.66986 282.62256 723.013 281.27942 724.66986 281.27942C726.3267 281.27942 727.66986 282.62256 727.66986 284.27942Z" fill-rule="nonzero"/><path fill="#000000" fill-opacity="0.0" clip-path="url(#id_0)" d="M735.75885 284.46744C735.75885 286.1243 734.4157 287.46744 732.75885 287.46744C731.102 287.46744 729.75885 286.1243 729.75885 284.46744C729.75885 282.81058 731.102 281.46744 732.75885 281.46744C734.4157 281.46744 735.75885 282.81058 735.75885 284.46744Z" fill-rule="nonzero"/><path fill="#000000" fill-opacity="0.0" clip-path="url(#id_0)" d="M743.84784 284.65115C743.84784 286.308 742.5047 287.65115 740.84784 287.65115C739.191 287.65115 737.84784 286.308 737.84784 284.65115C737.84784 282.9943 739.191 281.65115 740.84784 281.65115C742.5047 281.65115 743.84784 282.9943 743.84784 284.65115Z" fill-rule="nonzero"/><path fill="#000000" fill-opacity="0.0" clip-path="url(#id_0)" d="M751.9369 284.8307C751.9369 286.48755 750.5937 287.8307 748.9369 287.8307C747.28 287.8307 745.9369 286.48755 745.9369 284.8307C745.9369 283.17383 747.28 281.8307 748.9369 281.8307C750.5937 281.8307 751.9369 283.17383 751.9369 284.8307Z" fill-rule="nonzero"/><path fill="#000000" fill-opacity="0.0" clip-path="url(#id_0)" d="M760.0259 285.00616C760.0259 286.66302 758.68274 288.00616 757.0259 288.00616C755.369 288.00616 754.0259 286.66302 754.0259 285.00616C754.0259 283.34933 755.369 282.00616 757.0259 282.00616C758.68274 282.00616 760.0259 283.34933 760.0259 285.00616Z" fill-rule="nonzero"/><path fill="#000000" fill-opacity="0.0" clip-path="url(#id_0)" d="M768.11487 285.17776C768.11487 286.83463 766.7717 288.17776 765.11487 288.17776C763.458 288.17776 762.11487 286.83463 762.11487 285.17776C762.11487 283.52094 763.458 282.17776 765.11487 282.17776C766.7717 282.17776 768.11487 283.52094 768.11487 285.17776Z" fill-rule="nonzero"/><path fill="#000000" fill-opacity="0.0" clip-path="url(#id_0)" d="M776.20386 285.3456C776.20386 287.00247 774.8607 288.3456 773.20386 288.3456C771.54706 288.3456 770.20386 287.00247 770.20386 285.3456C770.20386 283.68875 771.54706 282.3456 773.20386 282.3456C774.8607 282.3456 776.20386 283.68875 776.20386 285.3456Z" fill-rule="nonzero"/><path fill="#000000" fill-opacity="0.0" clip-path="url(#id_0)" d="M784.2929 285.5098C784.2929 287.16663 782.94977 288.5098 781.2929 288.5098C779.63605 288.5098 778.2929 287.16663 778.2929 285.5098C778.2929 283.85294 779.63605 282.5098 781.2929 282.5098C782.94977 282.5098 784.2929 283.85294 784.2929 285.5098Z" fill-rule="nonzero"/><path fill="#000000" fill-opacity="0.0" clip-path="url(#id_0)" d="M792.3819 285.67044C792.3819 287.32727 791.03876 288.67044 789.3819 288.67044C787.72504 288.67044 786.3819 287.32727 786.3819 285.67044C786.3819 284.01358 787.72504 282.67044 789.3819 282.67044C791.03876 282.67044 792.3819 284.01358 792.3819 285.67044Z" fill-rule="nonzero"/><path fill="#000000" fill-opacity="0.0" clip-path="url(#id_0)" d="M800.4709 285.82767C800.4709 287.48453 799.12775 288.82767 797.4709 288.82767C795.8141 288.82767 794.4709 287.48453 794.4709 285.82767C794.4709 284.1708 795.8141 282.82767 797.4709 282.82767C799.12775 282.82767 800.4709 284.1708 800.4709 285.82767Z" fill-rule="nonzero"/><path fill="#000000" fill-opacity="0.0" clip-path="url(#id_0)" d="M808.55994 285.98157C808.55994 287.63843 807.2168 288.98157 805.55994 288.98157C803.9031 288.98157 802.55994 287.63843 802.55994 285.98157C802.55994 284.32474 803.9031 282.98157 805.55994 282.98157C807.2168 282.98157 808.55994 284.32474 808.55994 285.98157Z" fill-rule="nonzero"/><path fill="#000000" fill-opacity="0.0" clip-path="url(#id_0)" d="M816.6489 286.1323C816.6489 287.78915 815.3058 289.1323 813.6489 289.1323C811.99207 289.1323 810.6489 287.78915 810.6489 286.1323C810.6489 284.47543 811.99207 283.1323 813.6489 283.1323C815.3058 283.1323 816.6489 284.47543 816.6489 286.1323Z" fill-rule="nonzero"/><path fill="#000000" fill-opacity="0.0" clip-path="url(#id_0)" d="M824.7379 286.2799C824.7379 287.93674 823.3948 289.2799 821.7379 289.2799C820.08105 289.2799 818.7379 287.93674 818.7379 286.2799C818.7379 284.62305 820.08105 283.2799 821.7379 283.2799C823.3948 283.2799 824.7379 284.62305 824.7379 286.2799Z" fill-rule="nonzero"/><path fill="#000000" fill-opacity="0.0" clip-path="url(#id_0)" d="M832.82697 286.4245C832.82697 288.08133 831.4838 289.4245 829.82697 289.4245C828.1701 289.4245 826.82697 288.08133 826.82697 286.4245C826.82697 284.76764 828.1701 283.4245 829.82697 283.4245C831.4838 283.4245 832.82697 284.76764 832.82697 286.4245Z" fill-rule="nonzero"/><path fill="#000000" fill-opacity="0.0" clip-path="url(#id_0)" d="M840.91595 286.56616C840.91595 288.22302 839.5728 289.56616 837.91595 289.56616C836.2591 289.56616 834.91595 288.22302 834.91595 286.56616C834.91595 284.9093 836.2591 283.56616 837.91595 283.56616C839.5728 283.56616 840.91595 284.9093 840.91595 286.56616Z" fill-rule="nonzero"/><path fill="#000000" fill-opacity="0.0" clip-path="url(#id_0)" d="M849.00494 286.705C849.00494 288.36185 847.6618 289.705 846.00494 289.705C844.3481 289.705 843.00494 288.36185 843.00494 286.705C843.00494 285.04816 844.3481 283.705 846.00494 283.705C847.6618 283.705 849.00494 285.04816 849.00494 286.705Z" fill-rule="nonzero"/><path fill="#000000" fill-opacity="0.0" clip-path="url(#id_0)" d="M857.094 286.8411C857.094 288.49796 855.7508 289.8411 854.094 289.8411C852.43713 289.8411 851.094 288.49796 851.094 286.8411C851.094 285.18423 852.43713 283.8411 854.094 283.8411C855.7508 283.8411 857.094 285.18423 857.094 286.8411Z" fill-rule="nonzero"/><path fill="#000000" fill-opacity="0.0" clip-path="url(#id_0)" d="M865.183 286.97452C865.183 288.63138 863.83984 289.97452 862.183 289.97452C860.5261 289.97452 859.183 288.63138 859.183 286.97452C859.183 285.31766 860.5261 283.97452 862.183 283.97452C863.83984 283.97452 865.183 285.31766 865.183 286.97452Z" fill-rule="nonzero"/><path fill="#000000" fill-opacity="0.0" clip-path="url(#id_0)" d="M873.272 287.10535C873.272 288.7622 871.92883 290.10535 870.272 290.10535C868.6151 290.10535 867.272 288.7622 867.272 287.10535C867.272 285.4485 868.6151 284.10535 870.272 284.10535C871.92883 284.10535 873.272 285.4485 873.272 287.10535Z" fill-rule="nonzero"/><path fill="#000000" fill-opacity="0.0" clip-path="url(#id_0)" d="M881.36096 287.23364C881.36096 288.8905 880.0178 290.23364 878.36096 290.23364C876.70416 290.23364 875.36096 288.8905 875.36096 287.23364C875.36096 285.5768 876.70416 284.23364 878.36096 284.23364C880.0178 284.23364 881.36096 285.5768 881.36096 287.23364Z" fill-rule="nonzero"/><path fill="#000000" fill-opacity="0.0" clip-path="url(#id_0)" d="M889.45 287.35953C889.45 289.0164 888.1069 290.35953 886.45 290.35953C884.79315 290.35953 883.45 289.0164 883.45 287.35953C883.45 285.70267 884.79315 284.35953 886.45 284.35953C888.1069 284.35953 889.45 285.70267 889.45 287.35953Z" fill-rule="nonzero"/><path fill="#000000" d="M462.39062 349.45L462.39062 340.85626L464.10938 340.85626L466.14062 346.9344Q466.42188 347.79376 466.54688 348.21564Q466.6875 347.7469 467.0 346.84064L469.0625 340.85626L470.59375 340.85626L470.59375 349.45L469.5 349.45L469.5 342.2625L467.0 349.45L465.96875 349.45L463.48438 342.1375L463.48438 349.45L462.39062 349.45ZM471.375 349.45L471.375 340.85626L472.51562 340.85626L472.51562 348.4344L476.75 348.4344L476.75 349.45L471.375 349.45ZM478.625 349.45L478.625 340.85626L479.75 340.85626L479.75 349.45L478.625 349.45ZM486.3125 351.98126Q485.4375 350.8719 484.82812 349.40314Q484.23438 347.91876 484.23438 346.34064Q484.23438 344.95 484.67188 343.66876Q485.20312 342.1844 486.3125 340.71564L487.0625 340.71564Q486.35938 341.9344 486.125 342.45Q485.76562 343.2625 485.5625 344.1375Q485.3125 345.23126 485.3125 346.34064Q485.3125 349.16876 487.0625 351.98126L486.3125 351.98126ZM488.20312 342.91876Q488.20312 341.9969 488.65625 341.35626Q489.125 340.71564 490.0 340.71564Q490.8125 340.71564 491.34375 341.29376Q491.875 341.8719 491.875 342.98126Q491.875 344.075 491.32812 344.66876Q490.79688 345.2469 490.01562 345.2469Q489.23438 345.2469 488.71875 344.66876Q488.20312 344.09064 488.20312 342.91876ZM490.03125 341.4344Q489.64062 341.4344 489.375 341.77814Q489.125 342.1219 489.125 343.02814Q489.125 343.85626 489.375 344.2Q489.64062 344.52814 490.03125 344.52814Q490.4375 344.52814 490.6875 344.1844Q490.95312 343.84064 490.95312 342.95Q490.95312 342.10626 490.6875 341.77814Q490.42188 341.4344 490.03125 341.4344ZM490.03125 349.7625L494.73438 340.71564L495.59375 340.71564L490.90625 349.7625L490.03125 349.7625ZM493.75 347.4344Q493.75 346.5125 494.20312 345.8719Q494.67188 345.23126 495.5625 345.23126Q496.375 345.23126 496.90625 345.8094Q497.4375 346.3719 497.4375 347.4969Q497.4375 348.59064 496.89062 349.1844Q496.35938 349.7625 495.5625 349.7625Q494.79688 349.7625 494.26562 349.1844Q493.75 348.60626 493.75 347.4344ZM495.59375 345.95Q495.1875 345.95 494.92188 346.29376Q494.67188 346.6375 494.67188 347.54376Q494.67188 348.35626 494.9375 348.7Q495.20312 349.04376 495.59375 349.04376Q495.98438 349.04376 496.25 348.7Q496.51562 348.35626 496.51562 347.45Q496.51562 346.6219 496.25 346.29376Q495.98438 345.95 495.59375 345.95ZM499.98438 351.98126L499.23438 351.98126Q500.98438 349.16876 500.98438 346.34064Q500.98438 345.2469 500.73438 344.15314Q500.53125 343.27814 500.17188 342.46564Q499.9375 341.95 499.23438 340.71564L499.98438 340.71564Q501.07812 342.1844 501.60938 343.66876Q502.0625 344.95 502.0625 346.34064Q502.0625 347.91876 501.45312 349.40314Q500.84375 350.8719 499.98438 351.98126Z" fill-rule="nonzero"/><path fill="#000000" d="M29.550013 190.01562L20.956263 190.01562L20.956263 184.21875L21.971888 184.21875L21.971888 188.875L24.628138 188.875L24.628138 184.84375L25.643763 184.84375L25.643763 188.875L29.550013 188.875L29.550013 190.01562ZM27.550013 178.95312L27.675013 177.85938Q28.628138 178.10938 29.159388 178.8125Q29.690638 179.51562 29.690638 180.59375Q29.690638 181.95312 28.846888 182.76562Q28.003138 183.5625 26.487513 183.5625Q24.925013 183.5625 24.065638 182.75Q23.190638 181.9375 23.190638 180.65625Q23.190638 179.40625 24.034388 178.625Q24.878138 177.82812 26.425013 177.82812Q26.518763 177.82812 26.706263 177.82812L26.706263 182.46875Q27.737513 182.40625 28.284388 181.89062Q28.815638 181.375 28.815638 180.59375Q28.815638 180.01562 28.518763 179.60938Q28.206263 179.1875 27.550013 178.95312ZM25.846888 182.40625L25.846888 178.9375Q25.050013 179.0 24.659388 179.32812Q24.050013 179.84375 24.050013 180.64062Q24.050013 181.375 24.534388 181.875Q25.018763 182.35938 25.846888 182.40625ZM27.550013 171.95312L27.675013 170.85938Q28.628138 171.10938 29.159388 171.8125Q29.690638 172.51562 29.690638 173.59375Q29.690638 174.95312 28.846888 175.76562Q28.003138 176.5625 26.487513 176.5625Q24.925013 176.5625 24.065638 175.75Q23.190638 174.9375 23.190638 173.65625Q23.190638 172.40625 24.034388 171.625Q24.878138 170.82812 26.425013 170.82812Q26.518763 170.82812 26.706263 170.82812L26.706263 175.46875Q27.737513 175.40625 28.284388 174.89062Q28.815638 174.375 28.815638 173.59375Q28.815638 173.01562 28.518763 172.60938Q28.206263 172.1875 27.550013 171.95312ZM25.846888 175.40625L25.846888 171.9375Q25.050013 172.0 24.659388 172.32812Q24.050013 172.84375 24.050013 173.64062Q24.050013 174.375 24.534388 174.875Q25.018763 175.35938 25.846888 175.40625ZM32.08126 164.1875Q30.971888 165.0625 29.503138 165.67188Q28.018763 166.26562 26.440638 166.26562Q25.050013 166.26562 23.768763 165.82812Q22.284388 165.29688 20.815638 164.1875L20.815638 163.4375Q22.034388 164.14062 22.550013 164.375Q23.362513 164.73438 24.237513 164.9375Q25.331263 165.1875 26.440638 165.1875Q29.268763 165.1875 32.08126 163.4375L32.08126 164.1875ZM23.018763 162.29688Q22.096888 162.29688 21.456263 161.84375Q20.815638 161.375 20.815638 160.5Q20.815638 159.6875 21.393763 159.15625Q21.971888 158.625 23.081263 158.625Q24.175013 158.625 24.768763 159.17188Q25.346888 159.70312 25.346888 160.48438Q25.346888 161.26562 24.768763 161.78125Q24.190638 162.29688 23.018763 162.29688ZM21.534388 160.46875Q21.534388 160.85938 21.878138 161.125Q22.221888 161.375 23.128138 161.375Q23.956263 161.375 24.300013 161.125Q24.628138 160.85938 24.628138 160.46875Q24.628138 160.0625 24.284388 159.8125Q23.940638 159.54688 23.050013 159.54688Q22.206263 159.54688 21.878138 159.8125Q21.534388 160.07812 21.534388 160.46875ZM29.862513 160.46875L20.815638 155.76562L20.815638 154.90625L29.862513 159.59375L29.862513 160.46875ZM27.534388 156.75Q26.612513 156.75 25.971888 156.29688Q25.331263 155.82812 25.331263 154.9375Q25.331263 154.125 25.909388 153.59375Q26.471888 153.0625 27.596888 153.0625Q28.690638 153.0625 29.284388 153.60938Q29.862513 154.14062 29.862513 154.9375Q29.862513 155.70312 29.284388 156.23438Q28.706263 156.75 27.534388 156.75ZM26.050013 154.90625Q26.050013 155.3125 26.393763 155.57812Q26.737513 155.82812 27.643763 155.82812Q28.456263 155.82812 28.800013 155.5625Q29.143763 155.29688 29.143763 154.90625Q29.143763 154.51562 28.800013 154.25Q28.456263 153.98438 27.550013 153.98438Q26.721888 153.98438 26.393763 154.25Q26.050013 154.51562 26.050013 154.90625ZM32.08126 150.51562L32.08126 151.26562Q29.268763 149.51562 26.440638 149.51562Q25.346888 149.51562 24.253138 149.76562Q23.378138 149.96875 22.565638 150.32812Q22.050013 150.5625 20.815638 151.26562L20.815638 150.51562Q22.284388 149.42188 23.768763 148.89062Q25.050013 148.4375 26.440638 148.4375Q28.018763 148.4375 29.503138 149.04688Q30.971888 149.65625 32.08126 150.51562Z" fill-rule="nonzero"/><path fill="#000000" d="M65.05 300.21564Q65.05 298.6844 65.3625 297.7625Q65.675 296.825 66.28438 296.325Q66.90938 295.825 67.84688 295.825Q68.53438 295.825 69.05 296.10626Q69.58125 296.3875 69.925 296.91876Q70.26875 297.4344 70.45625 298.1844Q70.64375 298.9344 70.64375 300.21564Q70.64375 301.73126 70.33125 302.65314Q70.03438 303.575 69.40938 304.09064Q68.8 304.59064 67.84688 304.59064Q66.6125 304.59064 65.89375 303.7Q65.05 302.6375 65.05 300.21564ZM66.12813 300.21564Q66.12813 302.325 66.62813 303.02814Q67.12813 303.73126 67.84688 303.73126Q68.58125 303.73126 69.06563 303.02814Q69.56563 302.325 69.56563 300.21564Q69.56563 298.09064 69.06563 297.40314Q68.58125 296.7 67.83125 296.7Q67.1125 296.7 66.675 297.3094Q66.12813 298.09064 66.12813 300.21564Z" fill-rule="nonzero"/><path fill="#000000" d="M63.596874 234.70938L63.596874 235.725L57.909374 235.725Q57.909374 235.35 58.034374 234.99063Q58.253124 234.4125 58.721874 233.85Q59.20625 233.2875 60.1125 232.55313Q61.51875 231.39688 62.003124 230.725Q62.503124 230.05313 62.503124 229.45938Q62.503124 228.83438 62.05 228.4125Q61.596874 227.975 60.878124 227.975Q60.1125 227.975 59.659374 228.42813Q59.20625 228.88126 59.190624 229.69376L58.1125 229.58438Q58.221874 228.36563 58.940624 227.74063Q59.675 227.1 60.909374 227.1Q62.14375 227.1 62.8625 227.7875Q63.58125 228.475 63.58125 229.49063Q63.58125 230.00626 63.3625 230.50626Q63.159374 230.99063 62.659374 231.55313Q62.175 232.1 61.05 233.05313Q60.096874 233.85 59.815624 234.14688Q59.55 234.42813 59.378124 234.70938L63.596874 234.70938ZM65.05 233.475L66.15938 233.38126Q66.28438 234.19376 66.72188 234.6Q67.175 235.00626 67.81563 235.00626Q68.56563 235.00626 69.09688 234.42813Q69.62813 233.85 69.62813 232.9125Q69.62813 232.00626 69.1125 231.49063Q68.6125 230.95938 67.78438 230.95938Q67.28438 230.95938 66.8625 231.19376Q66.45625 231.42813 66.22188 231.7875L65.2375 231.6625L66.06563 227.25626L70.34688 227.25626L70.34688 228.25626L66.90938 228.25626L66.45625 230.56876Q67.22188 230.02188 68.06563 230.02188Q69.19063 230.02188 69.95625 230.80313Q70.7375 231.58438 70.7375 232.81876Q70.7375 233.975 70.06563 234.83438Q69.2375 235.86563 67.81563 235.86563Q66.64375 235.86563 65.89375 235.20938Q65.15938 234.55313 65.05 233.475Z" fill-rule="nonzero"/><path fill="#000000" d="M58.05 164.75L59.159374 164.65625Q59.284374 165.46875 59.721874 165.875Q60.175 166.28125 60.815624 166.28125Q61.565624 166.28125 62.096874 165.70312Q62.628124 165.125 62.628124 164.1875Q62.628124 163.28125 62.1125 162.76562Q61.6125 162.23438 60.784374 162.23438Q60.284374 162.23438 59.8625 162.46875Q59.45625 162.70312 59.221874 163.0625L58.2375 162.9375L59.065624 158.53125L63.346874 158.53125L63.346874 159.53125L59.909374 159.53125L59.45625 161.84375Q60.221874 161.29688 61.065624 161.29688Q62.190624 161.29688 62.95625 162.07812Q63.7375 162.85938 63.7375 164.09375Q63.7375 165.25 63.065624 166.10938Q62.2375 167.14062 60.815624 167.14062Q59.64375 167.14062 58.89375 166.48438Q58.159374 165.82812 58.05 164.75ZM65.05 162.76562Q65.05 161.23438 65.3625 160.3125Q65.675 159.375 66.28438 158.875Q66.90938 158.375 67.84688 158.375Q68.53438 158.375 69.05 158.65625Q69.58125 158.9375 69.925 159.46875Q70.26875 159.98438 70.45625 160.73438Q70.64375 161.48438 70.64375 162.76562Q70.64375 164.28125 70.33125 165.20312Q70.03438 166.125 69.40938 166.64062Q68.8 167.14062 67.84688 167.14062Q66.6125 167.14062 65.89375 166.25Q65.05 165.1875 65.05 162.76562ZM66.12813 162.76562Q66.12813 164.875 66.62813 165.57812Q67.12813 166.28125 67.84688 166.28125Q68.58125 166.28125 69.06563 165.57812Q69.56563 164.875 69.56563 162.76562Q69.56563 160.64062 69.06563 159.95312Q68.58125 159.25 67.83125 159.25Q67.1125 159.25 66.675 159.85938Q66.12813 160.64062 66.12813 162.76562Z" fill-rule="nonzero"/><path fill="#000000" d="M58.1125 90.80625L58.1125 89.79063L63.675 89.79063L63.675 90.61875Q62.8625 91.49375 62.05 92.94688Q61.253124 94.38438 60.815624 95.91563Q60.4875 96.99375 60.409374 98.275L59.315624 98.275Q59.33125 97.25938 59.70625 95.82188Q60.096874 94.38438 60.8 93.05625Q61.51875 91.72813 62.33125 90.80625L58.1125 90.80625ZM65.05 96.025L66.15938 95.93125Q66.28438 96.74375 66.72188 97.15Q67.175 97.55625 67.81563 97.55625Q68.56563 97.55625 69.09688 96.97813Q69.62813 96.4 69.62813 95.4625Q69.62813 94.55625 69.1125 94.04063Q68.6125 93.50938 67.78438 93.50938Q67.28438 93.50938 66.8625 93.74375Q66.45625 93.97813 66.22188 94.3375L65.2375 94.2125L66.06563 89.80625L70.34688 89.80625L70.34688 90.80625L66.90938 90.80625L66.45625 93.11875Q67.22188 92.57188 68.06563 92.57188Q69.19063 92.57188 69.95625 93.35313Q70.7375 94.13438 70.7375 95.36875Q70.7375 96.525 70.06563 97.38438Q69.2375 98.41563 67.81563 98.41563Q66.64375 98.41563 65.89375 97.75938Q65.15938 97.10313 65.05 96.025Z" fill-rule="nonzero"/><path fill="#000000" d="M55.01875 29.55L53.971874 29.55L53.971874 22.83125Q53.58125 23.190624 52.95625 23.565624Q52.346874 23.925 51.8625 24.096874L51.8625 23.08125Q52.7375 22.659374 53.39375 22.08125Q54.065624 21.4875 54.346874 20.925L55.01875 20.925L55.01875 29.55ZM58.05 25.315624Q58.05 23.784374 58.3625 22.8625Q58.675 21.925 59.284374 21.425Q59.909374 20.925 60.846874 20.925Q61.534374 20.925 62.05 21.20625Q62.58125 21.4875 62.925 22.01875Q63.26875 22.534374 63.45625 23.284374Q63.64375 24.034374 63.64375 25.315624Q63.64375 26.83125 63.33125 27.753124Q63.034374 28.675 62.409374 29.190624Q61.8 29.690624 60.846874 29.690624Q59.6125 29.690624 58.89375 28.8Q58.05 27.7375 58.05 25.315624ZM59.128124 25.315624Q59.128124 27.425 59.628124 28.128124Q60.128124 28.83125 60.846874 28.83125Q61.58125 28.83125 62.065624 28.128124Q62.565624 27.425 62.565624 25.315624Q62.565624 23.190624 62.065624 22.503124Q61.58125 21.8 60.83125 21.8Q60.1125 21.8 59.675 22.409374Q59.128124 23.190624 59.128124 25.315624ZM65.05 25.315624Q65.05 23.784374 65.3625 22.8625Q65.675 21.925 66.28438 21.425Q66.90938 20.925 67.84688 20.925Q68.53438 20.925 69.05 21.20625Q69.58125 21.4875 69.925 22.01875Q70.26875 22.534374 70.45625 23.284374Q70.64375 24.034374 70.64375 25.315624Q70.64375 26.83125 70.33125 27.753124Q70.03438 28.675 69.40938 29.190624Q68.8 29.690624 67.84688 29.690624Q66.6125 29.690624 65.89375 28.8Q65.05 27.7375 65.05 25.315624ZM66.12813 25.315624Q66.12813 27.425 66.62813 28.128124Q67.12813 28.83125 67.84688 28.83125Q68.58125 28.83125 69.06563 28.128124Q69.56563 27.425 69.56563 25.315624Q69.56563 23.190624 69.06563 22.503124Q68.58125 21.8 67.83125 21.8Q67.1125 21.8 66.675 22.409374Q66.12813 23.190624 66.12813 25.315624Z" fill-rule="nonzero"/><path fill="#000000" d="M238.37622 316.4344L238.37622 317.45L232.68872 317.45Q232.68872 317.075 232.81372 316.71564Q233.03247 316.1375 233.50122 315.575Q233.9856 315.0125 234.89185 314.27814Q236.2981 313.1219 236.78247 312.45Q237.28247 311.77814 237.28247 311.1844Q237.28247 310.5594 236.82935 310.1375Q236.37622 309.7 235.65747 309.7Q234.89185 309.7 234.43872 310.15314Q233.9856 310.60626 233.96997 311.41876L232.89185 311.3094Q233.00122 310.09064 233.71997 309.46564Q234.45435 308.825 235.68872 308.825Q236.9231 308.825 237.64185 309.5125Q238.3606 310.2 238.3606 311.21564Q238.3606 311.73126 238.14185 312.23126Q237.93872 312.71564 237.43872 313.27814Q236.95435 313.825 235.82935 314.77814Q234.87622 315.575 234.59497 315.8719Q234.32935 316.15314 234.15747 316.4344L238.37622 316.4344ZM239.82935 313.21564Q239.82935 311.6844 240.14185 310.7625Q240.45435 309.825 241.06372 309.325Q241.68872 308.825 242.62622 308.825Q243.31372 308.825 243.82935 309.10626Q244.3606 309.3875 244.70435 309.91876Q245.0481 310.4344 245.2356 311.1844Q245.4231 311.9344 245.4231 313.21564Q245.4231 314.73126 245.1106 315.65314Q244.81372 316.575 244.18872 317.09064Q243.57935 317.59064 242.62622 317.59064Q241.39185 317.59064 240.6731 316.7Q239.82935 315.6375 239.82935 313.21564ZM240.90747 313.21564Q240.90747 315.325 241.40747 316.02814Q241.90747 316.73126 242.62622 316.73126Q243.3606 316.73126 243.84497 316.02814Q244.34497 315.325 244.34497 313.21564Q244.34497 311.09064 243.84497 310.40314Q243.3606 309.7 242.6106 309.7Q241.89185 309.7 241.45435 310.3094Q240.90747 311.09064 240.90747 313.21564Z" fill-rule="nonzero"/><path fill="#000000" d="M397.98453 317.45L397.98453 315.3875L394.26578 315.3875L394.26578 314.41876L398.18765 308.85626L399.04703 308.85626L399.04703 314.41876L400.20328 314.41876L400.20328 315.3875L399.04703 315.3875L399.04703 317.45L397.98453 317.45ZM397.98453 314.41876L397.98453 310.5594L395.29703 314.41876L397.98453 314.41876ZM401.60953 313.21564Q401.60953 311.6844 401.92203 310.7625Q402.23453 309.825 402.8439 309.325Q403.4689 308.825 404.4064 308.825Q405.0939 308.825 405.60953 309.10626Q406.14078 309.3875 406.48453 309.91876Q406.82828 310.4344 407.01578 311.1844Q407.20328 311.9344 407.20328 313.21564Q407.20328 314.73126 406.89078 315.65314Q406.5939 316.575 405.9689 317.09064Q405.35953 317.59064 404.4064 317.59064Q403.17203 317.59064 402.45328 316.7Q401.60953 315.6375 401.60953 313.21564ZM402.68765 313.21564Q402.68765 315.325 403.18765 316.02814Q403.68765 316.73126 404.4064 316.73126Q405.14078 316.73126 405.62515 316.02814Q406.12515 315.325 406.12515 313.21564Q406.12515 311.09064 405.62515 310.40314Q405.14078 309.7 404.39078 309.7Q403.67203 309.7 403.23453 310.3094Q402.68765 311.09064 402.68765 313.21564Z" fill-rule="nonzero"/><path fill="#000000" d="M561.8584 310.96564L560.8115 311.04376Q560.6709 310.41876 560.4209 310.1375Q559.9834 309.6844 559.3584 309.6844Q558.8584 309.6844 558.4678 309.96564Q557.9834 310.34064 557.6865 311.04376Q557.4053 311.73126 557.38965 313.0125Q557.76465 312.4344 558.3115 312.15314Q558.874 311.8719 559.4834 311.8719Q560.5303 311.8719 561.26465 312.65314Q562.01465 313.4344 562.01465 314.65314Q562.01465 315.46564 561.6553 316.16876Q561.3115 316.85626 560.70215 317.23126Q560.0928 317.59064 559.32715 317.59064Q557.999 317.59064 557.1709 316.6219Q556.3428 315.65314 556.3428 313.4344Q556.3428 310.9344 557.26465 309.8094Q558.0615 308.825 559.4209 308.825Q560.4365 308.825 561.07715 309.40314Q561.7334 309.96564 561.8584 310.96564ZM557.5615 314.66876Q557.5615 315.21564 557.7803 315.71564Q558.01465 316.2 558.4209 316.46564Q558.8428 316.73126 559.3115 316.73126Q559.9678 316.73126 560.45215 316.2Q560.9365 315.65314 560.9365 314.73126Q560.9365 313.84064 560.45215 313.325Q559.9834 312.8094 559.26465 312.8094Q558.5459 312.8094 558.0459 313.325Q557.5615 313.84064 557.5615 314.66876ZM563.38965 313.21564Q563.38965 311.6844 563.70215 310.7625Q564.01465 309.825 564.624 309.325Q565.249 308.825 566.1865 308.825Q566.874 308.825 567.38965 309.10626Q567.9209 309.3875 568.26465 309.91876Q568.6084 310.4344 568.7959 311.1844Q568.9834 311.9344 568.9834 313.21564Q568.9834 314.73126 568.6709 315.65314Q568.374 316.575 567.749 317.09064Q567.13965 317.59064 566.1865 317.59064Q564.95215 317.59064 564.2334 316.7Q563.38965 315.6375 563.38965 313.21564ZM564.4678 313.21564Q564.4678 315.325 564.9678 316.02814Q565.4678 316.73126 566.1865 316.73126Q566.9209 316.73126 567.4053 316.02814Q567.9053 315.325 567.9053 313.21564Q567.9053 311.09064 567.4053 310.40314Q566.9209 309.7 566.1709 309.7Q565.45215 309.7 565.01465 310.3094Q564.4678 311.09064 564.4678 313.21564Z" fill-rule="nonzero"/><path fill="#000000" d="M719.79486 312.79376Q719.1386 312.54376 718.8105 312.10626Q718.498 311.65314 718.498 311.04376Q718.498 310.10626 719.16986 309.46564Q719.85736 308.825 720.96674 308.825Q722.09174 308.825 722.77924 309.48126Q723.46674 310.1375 723.46674 311.075Q723.46674 311.66876 723.15424 312.10626Q722.84174 312.54376 722.2011 312.79376Q722.998 313.04376 723.40424 313.6219Q723.8105 314.2 723.8105 314.9969Q723.8105 316.09064 723.02924 316.84064Q722.2636 317.59064 720.98236 317.59064Q719.71674 317.59064 718.9355 316.84064Q718.15424 316.09064 718.15424 314.96564Q718.15424 314.1219 718.5761 313.5594Q719.0136 312.9969 719.79486 312.79376ZM719.5761 310.9969Q719.5761 311.60626 719.96674 311.9969Q720.373 312.3875 720.998 312.3875Q721.60736 312.3875 721.998 312.0125Q722.3886 311.6219 722.3886 311.0594Q722.3886 310.48126 721.98236 310.09064Q721.5761 309.6844 720.98236 309.6844Q720.373 309.6844 719.96674 310.075Q719.5761 310.46564 719.5761 310.9969ZM719.248 314.96564Q719.248 315.41876 719.4511 315.84064Q719.66986 316.2625 720.09174 316.4969Q720.5136 316.73126 720.998 316.73126Q721.748 316.73126 722.23236 316.2469Q722.73236 315.7625 722.73236 315.0125Q722.73236 314.2469 722.23236 313.7469Q721.73236 313.2469 720.96674 313.2469Q720.21674 313.2469 719.73236 313.7469Q719.248 314.23126 719.248 314.96564ZM725.16986 313.21564Q725.16986 311.6844 725.48236 310.7625Q725.79486 309.825 726.40424 309.325Q727.02924 308.825 727.96674 308.825Q728.65424 308.825 729.16986 309.10626Q729.7011 309.3875 730.04486 309.91876Q730.3886 310.4344 730.5761 311.1844Q730.7636 311.9344 730.7636 313.21564Q730.7636 314.73126 730.4511 315.65314Q730.15424 316.575 729.52924 317.09064Q728.91986 317.59064 727.96674 317.59064Q726.73236 317.59064 726.0136 316.7Q725.16986 315.6375 725.16986 313.21564ZM726.248 313.21564Q726.248 315.325 726.748 316.02814Q727.248 316.73126 727.96674 316.73126Q728.7011 316.73126 729.1855 316.02814Q729.6855 315.325 729.6855 313.21564Q729.6855 311.09064 729.1855 310.40314Q728.7011 309.7 727.9511 309.7Q727.23236 309.7 726.79486 310.3094Q726.248 311.09064 726.248 313.21564Z" fill-rule="nonzero"/><path fill="#000000" d="M880.41876 317.45L879.3719 317.45L879.3719 310.73126Q878.98126 311.09064 878.35626 311.46564Q877.7469 311.825 877.2625 311.9969L877.2625 310.98126Q878.1375 310.5594 878.79376 309.98126Q879.46564 309.3875 879.7469 308.825L880.41876 308.825L880.41876 317.45ZM883.45 313.21564Q883.45 311.6844 883.7625 310.7625Q884.075 309.825 884.6844 309.325Q885.3094 308.825 886.2469 308.825Q886.9344 308.825 887.45 309.10626Q887.98126 309.3875 888.325 309.91876Q888.66876 310.4344 888.85626 311.1844Q889.04376 311.9344 889.04376 313.21564Q889.04376 314.73126 888.73126 315.65314Q888.4344 316.575 887.8094 317.09064Q887.2 317.59064 886.2469 317.59064Q885.0125 317.59064 884.29376 316.7Q883.45 315.6375 883.45 313.21564ZM884.52814 313.21564Q884.52814 315.325 885.02814 316.02814Q885.52814 316.73126 886.2469 316.73126Q886.98126 316.73126 887.46564 316.02814Q887.96564 315.325 887.96564 313.21564Q887.96564 311.09064 887.46564 310.40314Q886.98126 309.7 886.23126 309.7Q885.5125 309.7 885.075 310.3094Q884.52814 311.09064 884.52814 313.21564ZM890.45 313.21564Q890.45 311.6844 890.7625 310.7625Q891.075 309.825 891.6844 309.325Q892.3094 308.825 893.2469 308.825Q893.9344 308.825 894.45 309.10626Q894.98126 309.3875 895.325 309.91876Q895.66876 310.4344 895.85626 311.1844Q896.04376 311.9344 896.04376 313.21564Q896.04376 314.73126 895.73126 315.65314Q895.4344 316.575 894.8094 317.09064Q894.2 317.59064 893.2469 317.59064Q892.0125 317.59064 891.29376 316.7Q890.45 315.6375 890.45 313.21564ZM891.52814 313.21564Q891.52814 315.325 892.02814 316.02814Q892.52814 316.73126 893.2469 316.73126Q893.98126 316.73126 894.46564 316.02814Q894.96564 315.325 894.96564 313.21564Q894.96564 311.09064 894.46564 310.40314Q893.98126 309.7 893.23126 309.7Q892.5125 309.7 892.075 310.3094Q891.52814 311.09064 891.52814 313.21564Z" fill-rule="nonzero"/></svg>