<svg width="1191" height="303" viewBox="0 0 1191 303" fill="none" xmlns="http://www.w3.org/2000/svg">
<g clip-path="url(#clip0)">
<path d="M361.75 36.9064C357.781 29.478 349.367 26.1889 341.839 29.1235C334.311 32.058 329.867 40.3593 331.323 48.767L308.778 62.6087L314.373 72.9453L336.847 59.1038C342.956 64.6103 351.892 64.632 358.024 59.1553C364.157 53.6785 365.709 44.2903 361.702 36.9064H361.75Z" fill="#7996C9"/>
<path d="M93.4464 145.889L44.1116 110.15C65.1528 92.5197 104.201 69.0214 137.847 67.3337" fill="#88D1C3"/>
<path d="M245.879 194.444C302.075 161.428 334.568 111.637 318.453 83.2331C302.339 54.8299 243.719 58.5699 187.523 91.587C131.327 124.604 98.8346 174.395 114.949 202.798C131.064 231.201 189.683 227.461 245.879 194.444Z" fill="#7996C9"/>
<path d="M31.7123 194.137C18.2467 202.82 3.80547 227.295 0 244.2C14.9536 249.073 41.1772 247.358 54.6427 238.755C61.7717 234.164 66.1646 225.678 66.1667 216.493C66.1687 207.308 61.7797 198.82 54.6527 194.225C47.5257 189.63 38.7437 189.628 31.6147 194.218L31.7123 194.137Z" fill="#FF8080"/>
<path d="M226.835 164.642C283.031 131.625 315.523 81.8339 299.409 53.4307C283.294 25.0274 224.675 28.7674 168.479 61.7844C112.282 94.8016 79.7901 144.592 95.9044 172.996C112.019 201.399 170.639 197.659 226.835 164.642Z" fill="white"/>
<path d="M208.749 154.658C258.919 125.182 289.823 84.0705 277.774 62.8333C265.725 41.5961 215.287 48.2754 165.116 77.7515C114.946 107.229 84.0427 148.34 96.0918 169.577C108.141 190.814 158.579 184.135 208.749 154.658Z" fill="#88D1C3"/>
<path d="M286.722 112.211L302.129 140.279C302.129 140.279 309.121 134.469 311.638 129.223C314.156 123.977 324.878 103.288 316.906 88.2859C308.935 73.2839 305.579 68.6751 303.271 77.1816C300.963 85.6877 286.722 112.211 286.722 112.211Z" fill="white"/>
<path d="M157.97 192.924C140.68 195.975 133.043 195.385 121.948 192.58C110.853 189.775 112.223 194.154 106.147 201.929C100.071 209.704 82.7085 269.193 82.7085 269.193C82.7085 269.193 106.003 271.653 132.275 255.981C158.546 240.309 221.128 195.828 220.552 181.164C219.976 166.501 214.716 177.917 197.931 182.788C181.144 187.66 157.97 192.924 157.97 192.924Z" fill="#88D1C3"/>
<path d="M52.92 117.833C81.1047 102.288 112.8 87.7874 130.848 91.9413C130.848 91.9413 140.317 74.536 137.227 73.0065C134.137 71.4777 68.8911 99.1279 56.2577 108.634C43.6241 118.139 52.92 117.833 52.92 117.833Z" fill="white"/>
<path d="M120.411 134.732C104.983 138.803 90.0032 144.49 75.7057 151.706C64.5421 157.676 60.0766 159.918 60.7109 165.341C61.3452 170.764 74.3357 202.833 80.7801 206.457C87.2246 210.081 97.0686 204.788 100.519 196.028C103.97 187.268 103.894 182.992 114.779 169.956C125.663 156.92 144.996 133.272 120.411 134.732Z" fill="#88D1C3"/>
<path d="M66.1665 174.952C83.3198 164.323 101.905 156.419 121.305 151.5L115.012 163.959L70.3317 190.778L66.1665 174.952Z" fill="white"/>
<path d="M94.193 258.866C112.492 251.651 165.248 230.451 198.896 184.48C198.896 184.48 222.24 167.991 225.738 168.338C229.236 168.685 204.679 210.193 170.102 230.724C135.527 251.254 88.6008 273.843 94.193 258.866Z" fill="white"/>
<path d="M135.791 137.18C117.321 104.176 130.249 65.7505 162.243 46.6972C175.604 38.7406 187.782 37.5829 201.968 39.5844C221.754 42.3759 240.893 48.9596 251.651 68.1811C270.121 101.188 154.261 170.161 135.791 137.18Z" fill="#88D1C3"/>
<path d="M320.442 87.4831L302.054 55.2776C289.421 33.5265 255.645 27.7048 213.602 40.0419C183.415 30.4635 150.594 41.7875 132.393 68.0606C99.8852 70.8601 63.3536 91.8925 41.5272 109.531C39.6093 111.07 38.5234 113.441 38.6008 115.923C38.6826 118.45 39.9175 120.794 41.9418 122.265L81.1073 150.556C74.8384 153.39 68.7247 156.566 62.7927 160.069C51.087 166.956 58.4762 192.274 67.4507 208.105C74.2305 220.046 81.9121 228.592 89.2281 232.68L79.937 263.919C79.1941 266.518 79.696 269.32 81.2925 271.487C82.8883 273.654 85.3935 274.933 88.0578 274.943C88.5989 274.943 89.1386 274.886 89.6674 274.769C125.024 266.876 158.372 251.578 187.581 229.855C208.079 224.717 227.741 216.607 245.964 205.776C305.614 170.92 338.317 118.92 320.442 87.4831ZM292.299 61.2479C298.908 72.8668 295.713 89.6633 283.325 108.59C270.107 128.73 248.353 148.227 222.04 163.76C183.02 186.601 141.148 195.619 116.468 187.146L137.32 156.725C142.109 158.986 147.357 160.063 152.635 159.87C168.925 159.87 190.044 151.968 209.115 140.77C240.818 122.215 267.449 94.3206 255.792 73.8825C249.699 63.1822 241.063 54.2047 230.673 47.7712C260.547 41.776 283.983 46.6069 292.299 61.2479ZM161.194 56.6896C190.821 39.3413 228.682 49.6522 245.793 79.7291C249.695 86.5913 243.355 96.3025 238.915 101.802C240.737 97.6247 240.566 92.8283 238.452 88.7956C225.376 65.8596 198.789 54.6733 173.577 61.5006C148.366 68.3279 130.789 91.4738 130.686 117.979C128.029 93.2181 139.988 69.1929 161.194 56.6896ZM52.5014 115.626C72.4502 100.414 100.519 85.2533 125.297 80.5961C123.353 85.0371 121.834 89.6578 120.761 94.395C104.861 109.953 93.7643 126.229 88.3993 141.464L52.5014 115.626ZM124.492 139.829L122.053 140.151C114.563 140.806 107.134 142.057 99.8363 143.892C104.463 132.711 110.91 122.402 118.907 113.396C119.17 122.479 121.062 131.437 124.492 139.829ZM78.9855 204.884C78.4492 204.017 77.8882 203.224 77.3519 202.407C68.0847 186.056 67.158 172.282 68.5237 170.201C94.6909 154.842 109.177 153.281 123.199 151.77L127.15 151.249L106.299 181.547C104.148 184.781 102.503 188.332 101.422 192.076L98.4952 201.985L90.6181 206.593C86.8957 209.194 81.8302 208.45 78.9855 204.884ZM92.3743 262.209L111.372 197.65C119.87 200.638 128.815 202.105 137.807 201.985C161.487 201.985 190.337 193.934 218.65 178.922C189.215 229.93 122.858 255.149 92.3743 262.209ZM208.432 211.226C213.223 206.28 217.656 200.99 221.698 195.396L226.234 203.398C220.333 206.321 214.382 208.922 208.432 211.226ZM240.257 195.817C237.981 197.155 235.689 198.443 233.38 199.681L226.698 187.915C229.705 183.075 232.37 178.025 234.673 172.802L245.793 192.373C243.964 193.538 242.159 194.702 240.257 195.817ZM252.451 187.988L239.965 166.015C244.013 163.29 247.964 160.49 251.743 157.592L264.181 179.466C260.491 182.39 256.637 185.23 252.622 187.988H252.451ZM270.522 174.339L258.206 152.439C262.059 149.268 265.766 146.048 269.253 142.728L281.447 164.33C278.13 167.798 274.57 171.093 270.619 174.339H270.522ZM287.276 158.409L275.082 136.931C278.716 133.165 282.032 129.325 285.129 125.436L297.152 146.592C294.258 150.49 290.999 154.429 287.373 158.409H287.276ZM302.2 139.26L290.372 118.425C291.153 117.285 292.007 116.17 292.811 115.031C295.055 111.574 297.107 107.993 298.957 104.304L310.15 124.123C308.021 129.414 305.391 134.484 302.298 139.26H302.2ZM313.15 113.074L302.907 95.0884C304.114 91.867 305.068 88.5532 305.761 85.1789L310.443 93.404C313.595 99.4316 314.586 106.385 313.248 113.074H313.15Z" fill="#4F457C"/>
<g opacity="0.15">
<path opacity="0.15" d="M234.339 303C278.495 303 314.291 292.951 314.291 280.556C314.291 268.16 278.495 258.111 234.339 258.111C190.183 258.111 154.388 268.16 154.388 280.556C154.388 292.951 190.183 303 234.339 303Z" fill="black"/>
</g>
<path d="M545.876 215.998C545.81 217.602 544.489 218.861 542.899 218.834H522.635C521.031 218.874 519.688 217.616 519.61 215.998V137.166L492.481 185.1C491.825 187.021 489.976 188.262 487.968 188.129H472.386C470.395 188.218 468.577 186.991 467.897 185.1L439.831 137.166V215.998C439.766 217.611 438.43 218.874 436.83 218.834H416.543C414.943 218.874 413.607 217.611 413.542 215.998V92.6494C413.607 91.0352 414.943 89.7729 416.543 89.8136H437.959C440.173 89.5505 442.299 90.7804 443.192 92.8429L479.613 156.698L516.225 92.8429C517.028 90.7935 519.1 89.5491 521.267 89.8136H542.875C544.474 89.7729 545.81 91.0352 545.876 92.6494V215.998Z" fill="white"/>
<path d="M672.575 210.423C672.537 211.953 671.307 213.184 669.78 213.222H648.495C646.966 213.184 645.737 211.953 645.7 210.423V176.569H594.838V210.423C594.788 211.957 593.552 213.185 592.019 213.222H570.734C569.211 213.172 567.988 211.948 567.939 210.423V137.283C567.655 121.29 574.504 106.003 586.62 95.5814C606.523 80.3612 634.134 80.3612 654.037 95.5814C666.913 106.037 672.695 121.899 672.695 137.283L672.575 210.423ZM602.555 115.966C597.777 121.014 594.719 128.311 594.719 138.408V152.619H645.7V138.408C645.7 128.311 642.689 121.014 638.031 115.966C633.167 111.46 626.736 109.039 620.114 109.219C613.603 109.071 607.296 111.495 602.555 115.966Z" fill="white"/>
<path d="M762.179 215.958C761.635 217.847 759.79 219.049 757.841 218.78H735.274C733.278 219.108 731.35 217.899 730.772 215.958L684.115 93.7922C683.177 91.5245 683.922 89.836 686.352 89.836H709.114C711.296 89.5303 713.368 90.9082 713.926 93.0444L746.461 184.717H746.847L780.532 93.0444C781.049 90.8731 783.155 89.471 785.351 89.836H807.918C810.183 89.836 811.12 91.5245 810.183 93.7922L762.179 215.958Z" fill="white"/>
<path d="M908.051 170.288L936.449 213.909C937.798 216.187 937.97 218.757 934.728 218.757H910.729C908.436 219.154 906.158 217.994 905.153 215.921L879.46 174.092H854.697V215.97C854.711 216.726 854.408 217.454 853.871 217.989C853.327 218.524 852.59 218.818 851.819 218.805H830.154C828.515 218.846 827.152 217.583 827.083 215.97V92.6157C827.152 91.0023 828.515 89.7393 830.154 89.7792H886.186C898.846 89.7792 910.336 92.0586 919.169 98.505C928.766 105.508 934.336 117.626 934.336 131.658C934.618 143.844 929.255 155.491 919.761 163.284C916.243 166.201 912.298 168.564 908.051 170.288ZM854.697 112.9V150.973H881.567C888.664 150.973 894.427 150.415 898.454 147.749C903.721 144.26 906.715 138.27 906.309 132.022C906.309 124.46 903.438 119.516 898.943 116.487C894.344 113.894 889.091 112.65 883.804 112.9H854.697Z" fill="white"/>
<path d="M1036.59 92.6432C1037.45 90.7632 1039.43 89.6256 1041.53 89.8074H1066.81C1069.89 89.8074 1070.46 92.0861 1068.73 94.5335L1020.01 165.202V216.096C1019.91 217.62 1018.64 218.812 1017.08 218.834H995.126C993.542 218.796 992.276 217.549 992.234 215.999V165.106L943.837 94.5335C942.109 92.1102 942.681 89.8074 945.765 89.8074H971.024C973.096 89.5767 975.065 90.7384 975.836 92.6432L1006.13 138.108L1036.59 92.6432Z" fill="white"/>
<path d="M1118.81 165.769L1108.28 176.386V215.994C1108.3 216.75 1108 217.479 1107.46 218.014C1106.92 218.549 1106.18 218.844 1105.42 218.831H1083.78C1082.15 218.871 1080.79 217.608 1080.72 215.994V92.6123C1080.79 90.9982 1082.15 89.7352 1083.78 89.7759H1105.42C1106.18 89.7635 1106.92 90.0575 1107.46 90.5926C1108 91.1276 1108.3 91.8562 1108.28 92.6123V141.698L1153.25 92.6123C1154.69 90.8329 1156.87 89.7917 1159.17 89.7759H1186.83C1189.27 89.7759 1190.28 92.0552 1188.17 94.1397L1138.14 145.674L1189.79 213.885C1191.52 215.994 1191.7 218.733 1188.27 218.733H1162.62C1160.38 218.877 1158.24 217.786 1157.07 215.897L1118.81 165.769Z" fill="white"/>
</g>
<defs>
<clipPath id="clip0">
<rect width="1191" height="303" fill="white"/>
</clipPath>
</defs>
</svg>
