<svg width="228" height="162" viewBox="0 0 228 162" fill="none" xmlns="http://www.w3.org/2000/svg">
<g clip-path="url(#clip0_2599_7311)">
<path d="M117.309 21.7283C117.053 21.6719 116.801 21.6205 116.55 21.5641C93.6775 16.8623 74.0082 31.9068 72.5556 55.2153C72.5402 55.4719 72.5248 55.7337 72.5146 55.9904C70.9336 88.0453 95.3457 119.956 126.697 126.824C126.954 126.881 127.206 126.932 127.457 126.989C150.329 131.69 169.998 116.646 171.451 93.3373C171.466 93.0806 171.482 92.8188 171.492 92.5622C173.073 60.5073 148.661 28.5961 117.309 21.7283Z" fill="white"/>
<path d="M108.434 46.5921C108.183 46.5407 84.9206 29.1146 84.9206 29.1146C84.9206 29.1146 72.884 36.8088 64.7329 46.4689C59.8464 52.2639 56.7102 59.8041 56.1148 68.4787C56.0994 68.7353 56.0789 68.992 56.0686 69.2486C54.3132 101.067 78.4275 132.599 109.6 139.23C109.851 139.282 110.103 139.338 110.359 139.384C118.89 141.083 126.985 140.031 133.858 136.828C145.314 131.495 157.382 120.516 157.382 120.516C157.382 120.516 154.389 105.215 154.405 104.958C156.16 73.1394 139.612 53.2186 108.445 46.5818L108.434 46.5921Z" fill="#8D86EB"/>
<path d="M118.392 144.045C115.497 144.045 112.556 143.753 109.605 143.162C109.338 143.111 109.066 143.054 108.799 142.998C75.7379 135.961 50.3608 102.782 52.2292 69.0382C52.2446 68.7661 52.26 68.4889 52.2806 68.2169C52.9119 58.9982 56.2021 50.6214 61.7969 43.9845C70.2251 33.9959 82.3388 26.1991 82.852 25.8706L85.1003 24.4333L87.2355 26.0297C94.9811 31.8298 107.254 40.9972 110.01 42.9887C126.169 46.5612 138.539 53.6036 146.782 63.9309C155.241 74.5304 159.106 88.266 158.275 104.768C158.593 106.554 160.169 114.7 161.165 119.782L161.58 121.912L159.974 123.37C159.466 123.832 147.337 134.806 135.485 140.324C130.182 142.793 124.387 144.045 118.397 144.045H118.392ZM84.8077 33.8368C81.0709 36.4546 73.3203 42.2547 67.6741 48.948C63.1417 54.3222 60.4726 61.1643 59.9542 68.7404C59.9388 68.9817 59.9234 69.2229 59.908 69.4642C59.1073 83.9389 63.9476 98.8141 73.541 111.349C83.1292 123.888 96.2181 132.45 110.395 135.468C110.631 135.519 110.867 135.566 111.103 135.612C118.551 137.095 125.85 136.31 132.225 133.343C140.654 129.416 149.595 122.143 153.168 119.084C150.509 105.477 150.514 105.364 150.55 104.753C151.366 90.0163 148.065 77.8975 140.751 68.7353C133.519 59.6758 122.375 53.4958 107.629 50.3544C106.971 50.2141 102.52 47.0677 94.2727 40.9151C90.6438 38.2049 87.0251 35.4999 84.8025 33.8368H84.8077Z" fill="#503EAA"/>
<path d="M89.4598 94.3271L68.2915 110.517L72.969 116.633L94.1373 100.443L89.4598 94.3271Z" fill="#503EAA"/>
<path d="M77.3962 77.2947L58.1074 92.0474L62.7849 98.163L82.0736 83.4103L77.3962 77.2947Z" fill="#503EAA"/>
<path d="M102.681 110.479L83.3926 125.231L88.07 131.347L107.359 116.594L102.681 110.479Z" fill="#503EAA"/>
<path d="M122.169 120.023L102.88 134.776L107.557 140.892L126.846 126.139L122.169 120.023Z" fill="#503EAA"/>
<path d="M72.8947 56.2923L53.606 71.045L58.2834 77.1606L77.5722 62.4079L72.8947 56.2923Z" fill="#503EAA"/>
<path d="M135.423 128.174C132.39 128.174 129.249 127.753 126.087 126.917C125.856 126.855 125.625 126.793 125.394 126.727C111.591 122.898 98.5333 113.648 88.6217 100.693C78.7101 87.7373 73.2076 72.7134 73.1255 58.3875C73.1255 58.1462 73.1255 57.9101 73.1255 57.6689C73.2435 39.9399 84.9157 27.5593 101.51 27.5593C104.544 27.5593 107.685 27.9802 110.847 28.8169C111.078 28.8785 111.309 28.9401 111.54 29.0068C125.342 32.8359 138.4 42.0854 148.312 55.0408C158.224 67.9962 163.726 83.0202 163.808 97.3461C163.808 97.5873 163.808 97.8234 163.808 98.0647C163.69 115.794 152.018 128.174 135.423 128.174Z" fill="#86D4C9"/>
<path d="M101.51 27.8211C104.523 27.8211 107.644 28.242 110.78 29.0684C111.011 29.13 111.242 29.1916 111.468 29.2532C125.219 33.072 138.226 42.2804 148.107 55.1948C157.982 68.1091 163.469 83.0767 163.551 97.3461C163.551 97.5822 163.551 97.8234 163.551 98.0595C163.433 115.64 151.864 127.912 135.423 127.912C132.41 127.912 129.289 127.492 126.153 126.665C125.922 126.604 125.691 126.542 125.465 126.48C111.714 122.661 98.7076 113.453 88.8268 100.539C78.9511 87.6244 73.4641 72.6569 73.3819 58.3874C73.3819 58.1513 73.3819 57.9101 73.3819 57.674C73.5 40.0938 85.0695 27.8211 101.51 27.8211ZM101.51 27.3078C85.1465 27.3078 72.9918 39.4214 72.8687 57.674C72.8687 57.9152 72.8687 58.1513 72.8687 58.3926C73.0432 88.1223 96.6801 119.022 125.327 126.978C125.558 127.045 125.789 127.107 126.025 127.168C129.269 128.025 132.42 128.436 135.428 128.436C151.792 128.436 163.947 116.322 164.07 98.0698C164.07 97.8286 164.07 97.5925 164.07 97.3512C163.895 67.6215 140.258 36.7215 111.612 28.7655C111.381 28.6988 111.15 28.6372 110.914 28.5756C107.67 27.7184 104.518 27.3078 101.51 27.3078Z" fill="white"/>
<path d="M135.808 131.706C132.816 131.706 129.756 131.393 126.677 130.761C126.405 130.705 126.138 130.648 125.866 130.592C92.6508 123.313 66.9915 89.7648 68.6648 55.8056C68.6802 55.5284 68.6956 55.2512 68.711 54.9792C69.4809 42.5781 74.9783 31.8709 84.1764 24.8337C93.3797 17.7965 105.149 15.2968 117.319 17.7965C117.592 17.853 117.858 17.9095 118.13 17.9659C151.345 25.2444 177.005 58.7929 175.331 92.7521C175.316 93.0293 175.301 93.3065 175.285 93.5785C174.515 105.98 169.023 116.687 159.82 123.724C152.947 128.98 144.642 131.706 135.803 131.706H135.808ZM108.224 24.5514C101.058 24.5514 94.3601 26.7329 88.8525 30.9419C81.4508 36.6035 77.0263 45.3088 76.3949 55.4514C76.3796 55.6927 76.3642 55.9339 76.3539 56.1803C75.6353 70.7731 80.5937 85.8073 90.3102 98.5112C100.027 111.215 113.239 119.936 127.513 123.062C127.75 123.113 127.991 123.165 128.227 123.211C138.18 125.259 147.742 123.262 155.144 117.6C162.545 111.939 166.97 103.233 167.601 93.0909C167.617 92.8497 167.632 92.6084 167.642 92.362C168.361 77.7692 163.403 62.735 153.686 50.026C143.969 37.3221 130.757 28.6013 116.483 25.4753C116.247 25.424 116.005 25.3727 115.769 25.3265C113.218 24.8029 110.693 24.5412 108.224 24.5412V24.5514Z" fill="#503EAA"/>
<path d="M146.084 84.7962C145.027 87.8605 142.85 90.6785 139.986 92.9164C141.059 94.7694 141.598 95.6984 142.671 97.5514C142.984 98.0904 142.897 98.773 142.363 99.0861C141.439 99.6354 140.977 99.9074 140.053 100.451C139.581 100.734 138.883 100.513 138.564 99.9793C137.492 98.1981 136.953 97.3102 135.88 95.5239C131.055 97.4949 126.482 99.2607 121.154 98.9116C120.553 98.9065 120.071 98.5626 119.978 97.8902C119.532 94.9388 119.326 93.4554 118.941 90.468C118.803 89.8264 119.054 89.4055 119.865 89.4722C123.52 89.5698 128.237 89.6673 132.775 86.9776C134.889 85.7252 136.08 84.324 136.573 83.0151C137.23 81.2648 136.86 79.5966 136.157 78.3852C134.638 75.7623 131.717 75.7315 128.17 76.3372C124.264 77.0044 119.799 78.5956 115.076 78.3031C111.011 78.0516 107.203 76.5476 104.431 71.5944C102.342 67.8628 102.085 63.8591 103.553 60.0146C104.621 57.2172 106.776 54.4043 110.108 51.9868C108.984 50.0517 108.419 49.0867 107.3 47.1567C106.987 46.6177 107.131 45.9043 107.603 45.622C108.527 45.0727 108.989 44.8007 109.913 44.2566C110.447 43.9435 111.083 44.195 111.406 44.7237C112.551 46.6075 113.121 47.5519 114.26 49.4408C119.321 46.8949 123.648 46.32 126.769 46.279C127.431 46.2482 127.852 46.6331 127.898 47.2337C128.401 50.221 128.632 51.7301 129.074 54.7585C129.11 55.3693 128.689 55.8005 128.088 55.7902C124.377 55.7286 120.235 56.283 116.503 58.4953C114.64 59.5988 113.398 60.9231 112.895 62.0729C112.31 63.4228 112.443 64.7779 113.105 65.9225C114.471 68.2785 117.237 68.2067 120.871 67.4675C125.096 66.6103 129.926 64.8138 134.715 65.3271C138.544 65.7378 142.296 67.4367 144.965 72.1795C147.367 76.4501 147.434 80.8746 146.084 84.791V84.7962Z" fill="#503EAA"/>
<path d="M56.2177 150.913C45.4746 150.913 40.1466 147.13 37.5083 143.193C33.5457 137.28 32.2214 125.885 48.4003 105.169C49.7092 103.495 52.1268 103.198 53.8053 104.506C55.4786 105.815 55.7763 108.233 54.4674 109.911C44.3607 122.851 40.4135 133.697 43.909 138.912C47.4045 144.127 58.933 144.605 74.7474 140.185C92.3841 135.258 113.414 124.961 133.966 111.2C154.518 97.4384 172.041 81.9063 183.313 67.4726C193.42 54.5326 197.367 43.6868 193.872 38.4718C190.376 33.2568 178.848 32.7794 163.033 37.1988C160.985 37.7686 158.86 36.5726 158.29 34.5246C157.721 32.4766 158.917 30.3516 160.959 29.7818C186.27 22.7087 196.305 28.2727 200.267 34.1858C204.23 40.0989 205.554 51.4991 189.375 72.2103C177.616 87.2702 159.456 103.387 138.241 117.595C117.027 131.803 95.2123 142.459 76.8109 147.602C68.3519 149.963 61.6021 150.918 56.2126 150.918L56.2177 150.913Z" fill="#503EAA"/>
<path d="M20.3696 102.104C21.41 102.104 22.2534 101.261 22.2534 100.22C22.2534 99.1801 21.41 98.3367 20.3696 98.3367C19.3292 98.3367 18.4858 99.1801 18.4858 100.22C18.4858 101.261 19.3292 102.104 20.3696 102.104Z" fill="#503EAA"/>
<path d="M206.18 94.6667C207.221 94.6667 208.064 93.8233 208.064 92.7829C208.064 91.7426 207.221 90.8992 206.18 90.8992C205.14 90.8992 204.296 91.7426 204.296 92.7829C204.296 93.8233 205.14 94.6667 206.18 94.6667Z" fill="#503EAA"/>
<path d="M162.787 17.0882C163.827 17.0882 164.67 16.2448 164.67 15.2044C164.67 14.1641 163.827 13.3207 162.787 13.3207C161.746 13.3207 160.903 14.1641 160.903 15.2044C160.903 16.2448 161.746 17.0882 162.787 17.0882Z" fill="#503EAA"/>
<path d="M98.2866 4.54855C99.327 4.54855 100.17 3.70515 100.17 2.66478C100.17 1.6244 99.327 0.781006 98.2866 0.781006C97.2462 0.781006 96.4028 1.6244 96.4028 2.66478C96.4028 3.70515 97.2462 4.54855 98.2866 4.54855Z" fill="#503EAA"/>
<path d="M100.17 162C101.211 162 102.054 161.157 102.054 160.116C102.054 159.076 101.211 158.232 100.17 158.232C99.13 158.232 98.2866 159.076 98.2866 160.116C98.2866 161.157 99.13 162 100.17 162Z" fill="#503EAA"/>
<path d="M38.9658 61.8111C40.0062 61.8111 40.8496 60.9677 40.8496 59.9273C40.8496 58.8869 40.0062 58.0435 38.9658 58.0435C37.9254 58.0435 37.082 58.8869 37.082 59.9273C37.082 60.9677 37.9254 61.8111 38.9658 61.8111Z" fill="#503EAA"/>
<path d="M42.2662 21.1483C44.398 21.1483 46.1261 19.4202 46.1261 17.2884C46.1261 15.1566 44.398 13.4285 42.2662 13.4285C40.1344 13.4285 38.4062 15.1566 38.4062 17.2884C38.4062 19.4202 40.1344 21.1483 42.2662 21.1483Z" fill="#503EAA"/>
<path d="M183.78 140.95C185.912 140.95 187.64 139.222 187.64 137.09C187.64 134.958 185.912 133.23 183.78 133.23C181.649 133.23 179.92 134.958 179.92 137.09C179.92 139.222 181.649 140.95 183.78 140.95Z" fill="#503EAA"/>
<path d="M15.1339 52.8747H13.0756C10.8839 52.8747 9.10791 51.0987 9.10791 48.907V43.5328C9.06172 43.0093 8.60489 42.6243 8.08647 42.6705C7.62451 42.7116 7.26007 43.076 7.22414 43.5328V48.907C7.22414 51.0987 5.44816 52.8747 3.25642 52.8747H1.18786C0.664307 52.9209 0.27934 53.3777 0.325536 53.8961C0.366599 54.3581 0.731034 54.7225 1.18786 54.7585H3.25128C5.44303 54.7585 7.21901 56.5344 7.21901 58.7262V64.1003C7.2652 64.6239 7.72203 65.0088 8.24045 64.9626C8.70241 64.9216 9.06685 64.5571 9.10278 64.1003V58.7262C9.10278 56.5344 10.8788 54.7585 13.0705 54.7585H15.1288C15.6523 54.8047 16.1092 54.4146 16.1502 53.8961C16.1964 53.3726 15.8063 52.9157 15.2879 52.8747C15.2366 52.8747 15.1801 52.8747 15.1288 52.8747H15.1339Z" fill="#503EAA"/>
<path d="M226.162 139.251H224.104C221.912 139.251 220.136 137.475 220.136 135.283V129.909C220.09 129.386 219.633 129.001 219.115 129.047C218.653 129.088 218.289 129.452 218.253 129.909V135.283C218.253 137.475 216.477 139.251 214.285 139.251H212.222C211.698 139.297 211.313 139.754 211.359 140.272C211.4 140.734 211.765 141.099 212.222 141.135H214.285C216.477 141.135 218.253 142.911 218.253 145.102V150.477C218.299 151 218.756 151.385 219.274 151.339C219.736 151.298 220.101 150.933 220.136 150.477V145.102C220.136 142.911 221.912 141.135 224.104 141.135H226.162C226.686 141.181 227.143 140.791 227.184 140.272C227.23 139.749 226.84 139.292 226.322 139.251C226.27 139.251 226.214 139.251 226.162 139.251Z" fill="#503EAA"/>
</g>
<defs>
<clipPath id="clip0_2599_7311">
<rect width="226.863" height="161.219" fill="white" transform="translate(0.320312 0.781006)"/>
</clipPath>
</defs>
</svg>
