<svg width="80" height="80" viewBox="0 0 80 80" fill="none" xmlns="http://www.w3.org/2000/svg">
<path d="M73.3334 40.0001C73.3334 58.4084 58.4084 73.3334 40.0001 73.3334C21.5917 73.3334 6.66675 58.4084 6.66675 40.0001C6.66675 21.5917 21.5917 6.66675 40.0001 6.66675C58.4084 6.66675 73.3334 21.5917 73.3334 40.0001Z" fill="url(#paint0_linear)"/>
<path d="M52.2468 47.8201C52.2468 35.8268 34.5401 38.1684 34.5401 31.0818C34.5401 27.3818 38.6984 27.1868 40.0001 27.1868C43.1251 27.1868 46.1418 28.0251 48.4418 29.1034C49.1668 29.4451 50.0001 28.9418 50.0001 28.1418V24.6501C50.0001 23.4801 49.5601 22.7851 48.8568 22.5117C47.2801 21.8984 45.0151 21.4517 41.6668 21.3401V17.5001C41.6668 17.0401 41.2934 16.6667 40.8334 16.6667H39.1668C38.7068 16.6667 38.3334 17.0401 38.3334 17.5001V21.4034C33.1401 21.9117 27.7534 24.8417 27.7534 31.6634C27.7534 44.0968 45.4601 41.6318 45.4601 48.1784C45.4601 50.2368 44.1451 52.0101 40.0001 52.0101C35.8334 52.0101 32.0051 50.5568 29.8867 49.4718C29.1734 49.1068 28.3334 49.6351 28.3334 50.4351V54.4084C28.3334 55.1701 28.7917 55.8484 29.4934 56.1451C32.0034 57.2118 35.3718 58.0184 38.3334 58.2551V62.5001C38.3334 62.9601 38.7068 63.3334 39.1668 63.3334H40.8334C41.2934 63.3334 41.6668 62.9601 41.6668 62.5001V58.2651C49.4384 57.6151 52.2468 52.4134 52.2468 47.8201Z" fill="white"/>
<defs>
<linearGradient id="paint0_linear" x1="11.0001" y1="17.5" x2="63.0001" y2="67" gradientUnits="userSpaceOnUse">
<stop stop-color="#7068AA"/>
<stop offset="1" stop-color="#9084E7"/>
</linearGradient>
</defs>
</svg>
