<svg width="829" height="318" viewBox="0 0 829 318" fill="none" xmlns="http://www.w3.org/2000/svg">
<path d="M15.6992 318C4.85457 318 -3.20646 307.403 2.16373 297.982C3.6376 295.396 5.28537 292.9 7.14104 290.515C9.92183 286.962 14.4435 286.515 18.788 286.515C31.7496 286.515 44.7138 286.515 57.6806 286.515C63.5657 286.515 64.0972 285.954 64.1511 280.177C64.1511 277.608 64.1511 275.046 64.1511 272.485C64.2898 266.054 66.6546 263.615 73.0019 263.485C77.7547 263.385 82.4997 263.485 87.2525 263.423C92.0052 263.362 92.9296 262.254 92.4443 257.562C91.4737 248.246 93.3302 239.462 97.3435 231.085C99.6266 226.149 103.51 222.127 108.366 219.669C110.856 218.449 113.649 217.979 116.402 218.32C119.155 218.66 121.748 219.795 123.865 221.585V221.585C125.212 222.796 124.425 225.484 122.697 226.027C122.594 226.059 122.491 226.086 122.386 226.108C120.776 226.431 118.912 225.885 117.448 226.454C117.364 226.487 117.281 226.526 117.2 226.569C115.221 227.617 115.281 231.782 117.495 232.123V232.123C120.514 232.592 123.657 232.446 126.738 232.608C128.14 232.677 129.712 232.531 130.882 233.115C132.053 233.7 133.255 235.039 133.247 236.046C133.247 236.877 131.583 238.146 130.459 238.415C128.625 238.846 126.607 238.631 124.712 238.669C122.401 238.708 120.021 238.4 117.78 238.885V238.885C115.45 239.406 115.302 244.298 117.665 244.64C117.683 244.642 117.7 244.644 117.718 244.646C121.654 245.054 125.667 244.746 129.635 244.954C132.107 245.092 135.936 243.969 135.959 247.954C135.982 251.939 132.107 250.777 129.665 250.915C125.814 251.131 121.962 250.769 118.111 251.177V251.177C115.655 251.446 115.561 256.67 118.009 257.001C118.03 257.003 118.051 257.006 118.072 257.008C122.394 257.423 126.784 257.262 131.167 257.246C133.802 257.246 135.835 257.646 136.706 260.769C137.014 261.9 139.063 263.231 140.357 263.277C147.798 263.523 155.247 263.538 162.696 263.362C166.863 263.262 169.413 260.492 169.629 256.123C169.844 252.415 169.629 248.685 169.806 244.969C169.991 239.785 171.901 237.277 176.846 235.646C180.374 234.462 183.879 233.146 187.492 232.292C191.667 231.3 192.884 228.815 192.83 224.769C192.638 216.185 192.769 207.592 192.769 199C192.769 197.723 192.468 196.323 192.876 195.154V195.154C193.659 193.017 197.803 192.986 197.86 195.262V195.262C198.091 204.354 197.96 213.462 197.999 222.562C197.999 227.746 198.7 228.231 203.707 226.592C212.118 223.839 220.476 220.892 228.919 218.239C232.185 217.208 233.725 215.515 233.826 211.962C234.103 201.331 234.789 190.716 235.112 180.092C235.736 159.092 236.206 138.085 236.784 117.085C236.915 112.346 237.207 107.616 237.485 102.885C237.662 99.854 236.568 97.9002 233.633 96.6079C223.758 92.2848 217.41 84.6771 214.198 74.5156C213.22 71.4387 211.51 70.1387 208.344 70.1925C202.444 70.2848 196.535 70.2617 190.627 70.1925C185.951 70.1079 183.163 67.931 183.201 64.654C183.24 61.5156 186.283 58.9848 190.612 58.8771C196.512 58.731 202.42 58.7002 208.329 58.8387C211.679 58.9156 213.428 57.5694 214.453 54.3541C218.574 41.4079 227.548 33.5848 240.643 30.2618C242.245 29.8464 244.494 28.3925 244.779 27.0772C245.465 23.6695 245.981 20.0387 242.769 17.0772C237.985 12.6695 237.238 9.11563 239.857 4.95409C241.906 1.70025 244.787 -0.338205 248.793 0.04641C252.513 0.400256 255.425 2.20025 256.688 5.86948C258.021 9.71563 257.412 13.4464 254.162 16.0079C250.911 18.5695 250.218 21.7002 250.456 25.4925C250.626 28.0695 251.781 29.4618 254.262 30.0541C268.243 33.3772 277.741 41.5925 281.993 55.5156C282.763 58.0387 284.535 58.831 286.969 58.8233C292.23 58.8233 297.491 58.8233 302.752 58.8617C304.164 58.8295 305.576 58.8783 306.981 59.0079C310.448 59.431 312.612 61.6848 312.597 64.7233C312.581 67.7617 310.371 69.9617 306.742 70.1079C300.719 70.2771 294.672 70.3848 288.648 70.1079C284.496 69.9463 282.486 71.5002 281.238 75.531C279.879 80.168 277.512 84.4484 274.306 88.0665C271.099 91.6846 267.133 94.5512 262.689 96.4617C259.176 98.0463 258.067 100.308 258.236 103.977C259.076 127.054 259.777 150.069 260.494 173.116C260.779 182.346 260.994 191.577 261.364 200.808C261.595 206.377 262.442 206.9 267.65 205.2C272.857 203.5 277.879 201.785 283.002 200.115C289.388 198.046 293.278 200.739 293.416 207.562C293.563 215.254 293.416 222.946 293.478 230.639C293.478 238.2 297.091 241.408 304.67 240.331C306.057 240.131 308.006 238.615 308.375 237.339C310.555 229.646 315.208 224.339 322.279 220.785C323.604 220.115 325.045 218.154 325.091 216.746C325.396 210.224 325.303 203.688 324.814 197.177C324.151 189.931 320.046 186.223 312.851 185.331C310.54 185.046 308.229 185.054 305.918 184.862C302.637 184.585 300.696 182.777 300.426 179.477C300.179 176.477 302.498 173.908 305.903 173.723C310.64 173.469 315.401 173.631 320.146 173.523C324.413 173.431 325.361 172.323 325.022 168.139C324.39 160.446 320.107 155.916 312.35 155.2C308.499 154.846 304.647 155.062 300.796 154.846C296.651 154.623 294.741 152.816 294.703 149.423C294.664 146.031 296.921 143.723 300.942 143.631C307.104 143.477 313.267 143.477 319.429 143.569C322.511 143.608 324.467 142.762 325.029 139.285C325.576 135.939 327.787 133.754 331.408 133.746C335.028 133.739 337.254 135.916 337.778 139.285C338.325 142.769 340.258 143.608 343.363 143.562C349.397 143.475 355.431 143.492 361.465 143.616C365.994 143.708 368.12 145.608 368.182 149.285C368.243 152.962 366.187 154.716 361.534 154.908C357.436 155.077 353.292 154.908 349.255 155.485C341.93 156.554 337.87 161.939 338.101 169.269C338.194 172.162 339.396 173.531 342.276 173.531C346.513 173.531 350.75 173.531 354.986 173.6C359.893 173.7 362.636 175.815 362.582 179.339C362.528 182.862 359.955 184.677 355.225 184.915C353.047 184.979 350.873 185.167 348.716 185.477C345.888 185.885 343.291 187.266 341.374 189.383C339.457 191.5 338.34 194.218 338.217 197.069C337.963 203.469 338.217 209.885 338.094 216.3C338.048 218.908 339.45 220.185 341.568 221.246C344.463 222.657 347.048 224.629 349.173 227.047C351.299 229.465 352.921 232.281 353.947 235.331C355.834 240.654 356.45 241.008 362.79 240.477C367.296 240.1 370 237.739 370.631 233.446C370.814 231.915 370.883 230.372 370.839 228.831C370.839 220.623 370.839 212.423 370.839 204.215C370.839 196.608 373.035 194.5 380.792 194.454C386.184 194.454 391.576 194.2 396.968 194.515C401.397 194.777 403.901 193.239 405.903 189.131C415.858 168.409 422.712 146.341 426.247 123.631C428.342 110.362 429.459 96.9387 430.761 83.5617C431.393 77.1079 430.53 76.4387 424.16 76.3848C422.365 76.3848 420.562 76.3848 418.768 76.3156C413.607 76.0463 410.81 73.354 410.887 68.8156C410.964 64.2771 413.737 61.5618 418.86 61.3233C422.064 61.1694 425.284 61.2464 428.489 61.2464C438.888 61.2464 449.287 61.0541 459.678 61.4002C462.428 61.5308 465.044 62.6196 467.073 64.4771C471.102 68.6079 468.46 75.3233 462.713 76.0848C459.386 76.4051 456.041 76.513 452.699 76.4079C449.618 76.4079 448.247 77.8694 448.309 80.9079C448.37 83.9463 448.393 87.0617 448.309 90.1386C448.201 93.4156 449.849 94.8233 452.93 94.8771C455.757 94.931 458.584 94.8771 461.404 95.0233C466.026 95.2386 468.883 97.9233 468.984 102.016C469.084 106.292 466.218 109.177 461.404 109.439C458.461 109.6 455.503 109.539 452.553 109.569C449.772 109.569 448.232 110.816 448.278 113.762C448.332 117.092 448.339 120.431 448.278 123.762C448.208 126.9 449.818 128.139 452.784 128.123C455.75 128.108 458.692 128.069 461.635 128.231C465.879 128.469 468.637 130.992 468.96 134.7C469.188 136.579 468.664 138.472 467.504 139.968C466.343 141.464 464.638 142.443 462.759 142.692C459.456 143.133 456.122 143.3 452.792 143.192C449.811 143.192 448.17 144.308 448.27 147.469C448.347 150.8 448.27 154.139 448.27 157.469C448.27 160.008 449.533 161.231 452.052 161.254C455.003 161.254 457.961 161.254 460.911 161.385C465.533 161.623 468.714 164.762 468.614 168.785C468.537 172.977 465.486 175.985 460.911 176.223C458.099 176.369 455.264 176.354 452.437 176.331C449.61 176.308 448.147 177.546 448.208 180.485C448.27 183.816 448.208 187.146 448.208 190.485C448.208 192.923 449.187 194.392 451.821 194.392C460.68 194.392 469.538 194.508 478.397 194.308C482.441 194.215 484.898 191.431 485.329 186.915C485.614 183.739 485.537 180.515 485.545 177.315C485.545 173.469 486.855 170.523 490.983 169.623C494.026 168.931 494.065 166.546 494.065 164.239C494.065 149.367 494.065 134.495 494.065 119.623C494.065 117.962 493.81 116.108 494.457 114.7C495.027 113.431 496.668 111.877 497.847 111.869C499.025 111.862 500.566 113.462 501.174 114.723C501.783 115.985 501.521 117.739 501.521 119.269C501.521 133.885 501.521 148.5 501.521 163.116C501.521 168.985 502.122 169.639 507.822 169.639C540.688 169.639 573.555 169.639 606.421 169.639C612.16 169.639 612.707 169.008 612.737 163.139C612.737 158.654 612.822 154.162 612.691 149.677C612.445 141.392 607.438 135.977 599.288 134.992C593.896 134.339 591.947 132.946 592.17 129.869C592.394 126.792 594.905 125.254 599.812 125.254C611.751 125.213 623.691 125.213 635.631 125.254C636.902 125.254 638.527 125.016 639.374 125.677C640.838 126.808 642.733 128.554 642.741 130.054C642.748 131.554 640.869 133.316 639.421 134.469C638.573 135.146 636.956 134.846 635.677 135.008C628.097 135.931 622.944 141.162 622.582 148.739C622.304 154.231 622.582 159.754 622.482 165.269C622.482 168.408 624.13 169.631 627.042 169.639C633.204 169.639 639.367 169.639 645.529 169.708C652.054 169.808 654.002 171.739 654.002 178.316C654.064 188.7 654.002 199.085 654.002 209.469C654.041 216.877 656.853 219.646 664.301 219.754C666.612 219.754 668.923 219.646 671.234 219.754C675.086 219.954 676.526 218.131 676.488 214.446C676.403 205.731 676.488 197.008 676.488 188.292C676.488 186.885 676.226 185.346 676.703 184.1C676.74 184.005 676.781 183.911 676.826 183.82C677.692 182.059 680.866 182.175 681.525 184.023V184.023C681.926 185.146 681.687 186.562 681.687 187.869C681.687 196.708 681.787 205.562 681.687 214.4C681.625 218.123 682.997 219.7 686.825 219.785C696.8 220 697.124 219.715 697.44 209.785C698.148 187.377 698.98 164.977 699.751 142.569C699.835 140.008 699.859 137.439 699.751 134.877C699.466 127.185 694.636 121.154 686.971 120.339C679.307 119.523 671.565 119.754 663.916 119.631C659.965 119.562 656.899 118.269 655.327 114.416C653.201 109.2 656.39 102.877 661.921 103.139C669.254 103.462 671.673 100.454 673.653 93.6848C678.383 77.531 692.371 69.0694 710.527 69.7925C724.146 70.3463 737.264 81.731 741.023 96.2617C742.649 102.531 742.649 102.531 749.22 102.769C755.135 102.985 758.679 106.069 758.756 111.046C758.841 116.154 755.182 119.508 749.073 119.616C743.296 119.731 737.519 119.562 731.741 119.677C719.162 119.923 713.131 126.769 713.917 139.362C714.425 147.539 714.556 155.746 714.826 163.939C715.375 180.585 715.907 197.231 716.42 213.877C716.582 218.939 717.252 219.623 722.297 219.723C725.633 219.777 728.976 219.669 732.311 219.831C736.61 220.039 738.605 222 738.828 226.331C739.075 231.062 738.828 235.831 739.29 240.531C739.799 245.585 743.142 248.1 748.241 248.146C751.261 248.146 752.809 246.877 752.817 243.815C752.817 238.946 752.501 234.031 753.04 229.2C753.385 226.351 754.524 223.656 756.329 221.423C760.142 216.915 764.312 212.722 768.801 208.885C773.823 204.631 775.672 199.762 775.464 193.131C774.986 177.892 775.464 162.623 775.21 147.377C775.125 142.092 776.565 137.892 780.602 134.492C782.658 132.769 784.361 130.646 786.402 128.877C787.272 128.108 788.867 127.292 789.645 127.631C790.423 127.969 791.078 129.677 791.093 130.8C791.239 138.362 791.417 145.939 791.147 153.485C790.97 158.216 792.095 162.069 795.961 164.931C801.515 169.054 803.048 174.523 802.894 181.362C802.509 201.362 802.725 221.362 802.779 241.362C802.779 244.308 802.008 247.946 806.869 248.062C811.36 248.177 814.919 245.454 815.188 241.269C815.45 237.315 815.304 233.331 815.335 229.354C815.412 221.2 817.753 219.146 825.965 220.031V220.031C827.706 220.215 829 221.741 829 223.492V301.692C829 310.699 821.699 318 812.692 318H15.6992Z" fill="#4F447C"/>
</svg>
