<svg xmlns="http://www.w3.org/2000/svg" width="56" height="56" viewBox="0 0 56 56" fill="none"><path d="M29.981 5.64199L31.4685 7.35933L33.4332 6.21716C34.8133 5.41449 36.5832 6.02233 37.1805 7.50399L38.0298 9.61099L40.2582 9.16883C41.8238 8.85849 43.3008 10.0077 43.3848 11.6025L43.5038 13.8717L45.7555 14.1773C47.3375 14.392 48.3607 15.9588 47.922 17.4942L47.2978 19.6782L49.3278 20.6978C50.7547 21.4142 51.2132 23.2295 50.3008 24.5385L49.0012 26.4017L50.5901 28.0257C51.7066 29.1667 51.5515 31.0322 50.2635 31.9737L48.4295 33.3142L49.4048 35.3663C50.0908 36.8083 49.3383 38.5222 47.8135 38.9947L45.6435 39.6667L45.9002 41.9242C46.0798 43.5097 44.8128 44.8875 43.2168 44.8385L40.9465 44.7697L40.4565 46.9875C40.1123 48.5462 38.4662 49.4375 36.9728 48.8728L34.8472 48.0702L33.663 50.0092C32.8312 51.3718 30.9843 51.6798 29.7558 50.6613L28 49.21L26.25 50.659C25.0203 51.6775 23.1746 51.3695 22.3428 50.0068L21.1586 48.0678L19.033 48.8705C17.5396 49.434 15.8935 48.5438 15.5493 46.9852L15.0593 44.7673L12.789 44.8362C11.193 44.8852 9.92598 43.5073 10.1056 41.9218L10.3623 39.6643L8.19231 38.9923C6.66748 38.5198 5.91498 36.806 6.60098 35.364L7.57631 33.3118L5.74231 31.9713C4.45198 31.0322 4.29798 29.1667 5.41448 28.0257L7.00348 26.4017L5.70381 24.5385C4.79031 23.2295 5.24998 21.4153 6.67682 20.6978L8.70681 19.6782L8.08265 17.4942C7.64398 15.96 8.66715 14.392 10.2491 14.1773L12.5008 13.8717L12.6198 11.6025C12.7026 10.0088 14.1808 8.85849 15.7465 9.16883L17.9748 9.61099L18.8241 7.50399C19.4203 6.02349 21.1913 5.41566 22.5715 6.21716L24.5361 7.35933L26.0236 5.64199C27.0643 4.43566 28.9356 4.43566 29.981 5.64199Z" fill="url(#paint0_linear)"></path><path opacity="0.05" d="M36.4665 15.4828H34.1472C33.3014 15.4828 32.522 15.9063 32.0612 16.6145L18.1639 37.9972C17.8384 38.5 17.5864 40.516 19.5324 40.516H21.8225C22.6695 40.516 23.4489 40.0925 23.9062 39.3867L37.8339 18.0052C38.1605 17.5035 38.4895 15.4828 36.4665 15.4828Z" fill="black"></path><path opacity="0.07" d="M37.345 17.6867L23.4173 39.0682C23.0662 39.6083 22.4688 39.9327 21.8225 39.9327H19.5323C18.375 39.9327 18.3902 38.7205 18.6538 38.3145L32.55 16.933C32.9023 16.3917 33.5008 16.0662 34.1472 16.0662H36.4677C37.6623 16.0662 37.6087 17.2818 37.345 17.6867Z" fill="black"></path><path opacity="0.05" d="M36.1573 33.7143C36.1573 35.7128 35.4807 35.7128 35.0758 35.7128C34.6523 35.7128 34.0107 35.7128 34.0107 33.8403C34.0107 31.794 34.7165 31.794 35.1388 31.794C36.0582 31.794 36.1573 33.1368 36.1573 33.7143ZM35.2812 26.6747C31.1267 26.6747 28.3372 29.6182 28.3372 33.999C28.3372 38.7193 31.626 40.8322 34.8857 40.8322C39.0203 40.8322 41.7993 37.9015 41.7993 33.5393C41.7993 29.2413 39.3622 26.6747 35.2812 26.6747Z" fill="black"></path><path opacity="0.07" d="M35.0758 36.2973C34.1203 36.2973 33.4273 35.791 33.4273 33.8415C33.4273 31.7473 34.1635 31.2118 35.1388 31.2118C36.3895 31.2118 36.7406 32.6375 36.7406 33.7155C36.7406 35.77 36.0278 36.2973 35.0758 36.2973ZM35.2811 27.258C31.479 27.258 28.9205 29.8958 28.9205 33.999C28.9205 38.2713 31.8325 40.2488 34.8856 40.2488C38.766 40.2488 41.216 37.5188 41.216 33.5393C41.216 29.5925 39.0471 27.258 35.2811 27.258Z" fill="black"></path><path opacity="0.05" d="M22.1573 22.0477C22.1573 24.0462 21.4807 24.0462 21.0758 24.0462C20.6523 24.0462 20.0107 24.0462 20.0107 22.1737C20.0107 20.1273 20.7165 20.1273 21.1388 20.1273C22.0582 20.1273 22.1573 21.4702 22.1573 22.0477ZM21.2812 15.008C17.1267 15.008 14.3372 17.9515 14.3372 22.3323C14.3372 27.0527 17.626 29.1655 20.8857 29.1655C25.0203 29.1655 27.7993 26.2348 27.7993 21.8727C27.7993 17.5747 25.3622 15.008 21.2812 15.008Z" fill="black"></path><path opacity="0.07" d="M21.0758 24.6306C20.1203 24.6306 19.4273 24.1243 19.4273 22.1748C19.4273 20.0806 20.1635 19.5451 21.1388 19.5451C22.3895 19.5451 22.7406 20.9708 22.7406 22.0488C22.7406 24.1033 22.0278 24.6306 21.0758 24.6306ZM21.2811 15.5913C17.479 15.5913 14.9205 18.2291 14.9205 22.3323C14.9205 26.6046 17.8325 28.5821 20.8856 28.5821C24.766 28.5821 27.216 25.8521 27.216 21.8726C27.216 17.9258 25.0471 15.5913 21.2811 15.5913Z" fill="black"></path><path d="M20.7504 28.1586C18.6959 28.1586 15.3685 27.027 15.3685 22.491C15.3685 18.5651 17.7042 16.3333 21.147 16.3333C24.4849 16.3333 26.4974 18.452 26.4974 22.064C26.4974 25.676 24.3729 28.1586 20.7504 28.1586ZM36.8562 17.3681L22.9297 38.7496C22.6859 39.1241 22.2694 39.3493 21.8237 39.3493H19.5335C19.1649 39.3493 18.9432 38.941 19.1439 38.6318L33.04 17.2503C33.2839 16.8758 33.7004 16.6495 34.1472 16.6495H36.4677C36.8352 16.6495 37.0569 17.059 36.8562 17.3681ZM21.0502 19.1193C19.509 19.1193 18.739 20.1903 18.739 22.3323C18.739 24.3588 19.4729 25.3715 20.9394 25.3715C22.4374 25.3715 23.1875 24.3156 23.1875 22.2051C23.1875 20.1483 22.4759 19.1193 21.0502 19.1193ZM34.8857 39.6666C32.0379 39.6666 29.5039 37.8245 29.5039 33.999C29.5039 30.1735 31.8314 27.8413 35.2824 27.8413C38.7334 27.8413 40.6327 29.9425 40.6327 33.5405C40.6327 37.1385 38.5105 39.6666 34.8857 39.6666ZM35.1389 30.6273C33.6082 30.6273 32.844 31.6983 32.844 33.8403C32.844 35.8668 33.5884 36.8795 35.0759 36.8795C36.5739 36.8795 37.324 35.8236 37.324 33.7131C37.324 32.1358 36.7209 30.6273 35.1389 30.6273Z" fill="white"></path><defs><linearGradient id="paint0_linear" x1="18.4199" y1="8.39979" x2="47.2819" y2="50.5248" gradientUnits="userSpaceOnUse"><stop stop-color="#7068AA"></stop><stop offset="1" stop-color="#9084E7"></stop></linearGradient></defs></svg>