<svg width="80" height="80" viewBox="0 0 80 80" fill="none" xmlns="http://www.w3.org/2000/svg">
<path d="M9.99992 38.3333C6.32325 38.3333 3.33325 35.3433 3.33325 31.6667C3.33325 30.7467 4.07825 30 4.99992 30C5.92159 30 6.66658 30.7467 6.66658 31.6667C6.66658 33.505 8.16158 35 9.99992 35C11.8383 35 13.3333 33.505 13.3333 31.6667C13.3333 30.7467 14.0783 30 14.9999 30C15.9216 30 16.6666 30.7467 16.6666 31.6667C16.6666 35.3433 13.6766 38.3333 9.99992 38.3333Z" fill="#7068AA"/>
<path d="M61.6666 56.6667L48.3333 60.0001L58.2899 72.1051C58.9299 72.8834 59.8832 73.3334 60.8916 73.3334C63.0166 73.3334 64.6116 71.3884 64.1949 69.3051L61.6666 56.6667Z" fill="#7068AA"/>
<path d="M16.6667 56.6667L30 60.0001L20.935 72.0868C20.3467 72.8718 19.4233 73.3334 18.4417 73.3334C16.5983 73.3334 15.1584 71.7418 15.3417 69.9084L16.6667 56.6667Z" fill="#7068AA"/>
<path d="M73.3333 36.6667H68.3333L60.75 58.8484L73.2383 51.9051C75.355 50.7301 76.6667 48.4984 76.6667 46.0784V40.0001C76.6667 38.1584 75.175 36.6667 73.3333 36.6667Z" fill="#7068AA"/>
<path d="M50 24.9999C55 13.3333 65 13.3333 65 13.3333L63.3333 28.3333L50 24.9999Z" fill="#7068AA"/>
<path d="M39.9999 70.0001C57.4889 70.0001 71.6666 58.061 71.6666 43.3334C71.6666 28.6058 57.4889 16.6667 39.9999 16.6667C22.5109 16.6667 8.33325 28.6058 8.33325 43.3334C8.33325 58.061 22.5109 70.0001 39.9999 70.0001Z" fill="url(#paint0_linear)"/>
<path d="M60.8333 36.6667C59.4533 36.6667 58.3333 37.7867 58.3333 39.1667C58.3333 40.5467 59.4533 41.6667 60.8333 41.6667C62.2133 41.6667 63.3333 40.5467 63.3333 39.1667C63.3333 37.7867 62.2133 36.6667 60.8333 36.6667Z" fill="white"/>
<path d="M44.1666 21.6667H25.8333C24.4533 21.6667 23.3333 22.7867 23.3333 24.1667C23.3333 25.5467 24.4533 26.6667 25.8333 26.6667H44.1666C45.5466 26.6667 46.6666 25.5467 46.6666 24.1667C46.6666 22.7867 45.5466 21.6667 44.1666 21.6667Z" fill="#4F457C"/>
<path d="M29.0133 26.6667H40.9866C44.3849 24.6283 46.6666 20.9183 46.6666 16.6667C46.6666 10.2233 41.4433 5 34.9999 5C28.5566 5 23.3333 10.2233 23.3333 16.6667C23.3333 20.9183 25.6149 24.6283 29.0133 26.6667Z" fill="#AEEDE1"/>
<path d="M35.0001 24.9999C39.6025 24.9999 43.3334 21.269 43.3334 16.6666C43.3334 12.0642 39.6025 8.33325 35.0001 8.33325C30.3977 8.33325 26.6667 12.0642 26.6667 16.6666C26.6667 21.269 30.3977 24.9999 35.0001 24.9999Z" fill="#88D1C3"/>
<defs>
<linearGradient id="paint0_linear" x1="26.9966" y1="20.8651" x2="57.7583" y2="74.0167" gradientUnits="userSpaceOnUse">
<stop stop-color="#7068AA"/>
<stop offset="1" stop-color="#9084E7"/>
</linearGradient>
</defs>
</svg>
