<svg width="209" height="165" viewBox="0 0 209 165" fill="none" xmlns="http://www.w3.org/2000/svg">
<g clip-path="url(#clip0_2599_7416)">
<path d="M12.9974 96.3259C14.6614 96.8855 16.4542 96.9796 18.1777 96.6676C19.188 98.3019 20.5648 99.6985 22.204 100.753C25.022 102.571 28.3699 103.061 31.6435 102.536C34.9517 102.011 38.0322 100.526 40.969 98.9804C42.2616 98.3019 41.068 96.3754 39.7854 97.0489C35.5609 99.2726 30.6282 101.526 25.7946 99.9758C23.5709 99.2627 21.7286 97.8215 20.4607 95.9841C20.7034 95.8801 20.9461 95.7712 21.1838 95.6523C23.6749 94.3845 25.4826 92.0271 26.3047 89.3825C27.0822 86.8716 27.2011 82.8898 24.398 81.5922C21.4661 80.2352 18.5491 82.3103 17.3506 84.9698C16.1075 87.7283 15.9887 90.9772 16.89 93.8546C16.9643 94.0824 17.0435 94.3102 17.1277 94.5331C16.2313 94.6222 15.3151 94.5776 14.4336 94.3746C8.74317 93.0869 6.69779 86.5843 5.77663 81.5575C5.66767 80.9533 4.91985 80.6265 4.37507 80.7849C3.7362 80.9682 3.48858 81.5823 3.60248 82.1865C4.63755 87.8422 7.04446 94.3152 13.0023 96.3209L12.9974 96.3259ZM18.6184 88.8674C18.8215 86.9112 19.7278 83.8505 22.0257 83.4692C22.9766 83.3107 23.9176 83.6574 24.2593 84.6033C24.6307 85.6384 24.5515 86.9013 24.3336 87.9562C23.8928 90.0808 22.6497 92.0568 20.8173 93.2454C20.3617 93.5426 19.8813 93.7852 19.3762 93.9833C18.7175 92.3936 18.4352 90.6354 18.6184 88.8625V88.8674Z" fill="#503EAA"/>
<path d="M29.1721 105.463C26.0917 105.463 23.2143 104.646 20.7282 103.041C19.2622 102.095 17.9548 100.907 16.8801 99.5499C15.2507 99.6291 13.6312 99.4112 12.1257 98.9061C6.30156 96.9449 2.52777 91.4823 0.918211 82.6817C0.541822 80.6314 1.67594 78.7346 3.61236 78.17C4.65734 77.8679 5.80136 78.0314 6.75224 78.6207C7.64864 79.1754 8.2677 80.0668 8.45094 81.0722C9.45135 86.5249 11.1451 89.8579 13.6213 91.1951C13.4282 88.6643 13.8492 86.1089 14.8644 83.8555C15.8945 81.5625 17.8012 79.7152 19.9556 78.9129C21.8128 78.2195 23.7442 78.2938 25.537 79.1259C29.6228 81.0177 30.1428 86.193 28.8998 90.1947C28.1222 92.6957 26.6761 94.8896 24.7842 96.4992C25.3488 96.8756 25.9679 97.1727 26.6216 97.3807C30.4548 98.6089 34.7685 96.6081 38.5125 94.637C39.7556 93.9833 41.2017 94.0378 42.3804 94.7807C43.5839 95.5384 44.302 96.8756 44.2475 98.2672C44.198 99.5895 43.4452 100.758 42.2368 101.392C39.3148 102.932 35.8778 104.621 32.0694 105.23C31.0888 105.389 30.1181 105.463 29.1672 105.463H29.1721Z" fill="#503EAA"/>
<path d="M171.908 54.101L161.062 55.0469C158.392 50.5253 155.129 46.4098 151.38 42.7697L152.425 21.4047C152.425 21.4047 138.27 22.4942 131.218 29.6456C118.867 24.5842 104.603 23.0984 90.1867 26.2284C54.5486 33.9642 31.4651 66.9675 38.6214 99.9412C41.6672 113.972 49.7001 125.734 60.6699 134.019L57.4904 149.659C56.5841 154.107 58.9266 158.584 63.0966 160.376C67.2666 162.174 72.125 160.797 74.735 157.083L83.2631 144.954C93.5495 147.693 104.787 148.084 116.118 145.623C127.826 143.082 138.181 137.808 146.551 130.711L156.312 138.288C159.898 141.072 164.944 140.963 168.406 138.021C171.868 135.079 172.789 130.117 170.62 126.13L162.349 110.926C165.712 104.389 167.886 97.3164 168.664 90.0016L178.925 86.3664C182.665 85.0392 184.834 81.1416 183.992 77.2687L180.297 60.2619C179.455 56.3841 175.865 53.7395 171.913 54.0861L171.908 54.101Z" fill="#C0DBFF"/>
<path d="M135.675 69.8202C138.958 69.8202 141.618 67.1594 141.618 63.8772C141.618 60.595 138.958 57.9342 135.675 57.9342C132.393 57.9342 129.732 60.595 129.732 63.8772C129.732 67.1594 132.393 69.8202 135.675 69.8202Z" fill="#503EAA"/>
<path d="M74.2694 130.295C63.5275 122.242 54.0583 111.882 51.072 98.2573C44.0593 66.2296 64.5427 36.8366 99.4578 29.3187C103.37 28.4768 105.668 27.9915 109.521 27.8132C103.573 27.521 97.457 27.9964 91.3109 29.3187C56.3959 36.8366 33.7829 68.894 40.7956 100.922C43.7819 114.551 51.6514 125.971 62.3934 134.024L74.2645 130.295H74.2694Z" fill="#77A4F2"/>
<path d="M140.955 120.92C140.955 120.92 130.693 131.984 113.86 134.708C97.0261 137.432 85.8137 133.638 85.8137 133.638L81.1138 142.632C91.7616 146.455 105.356 147.272 118.649 143.543C130.302 140.274 147.65 127.7 147.65 127.7L140.955 120.92Z" fill="#77A4F2"/>
<path d="M74.1902 130.557L63.6563 158.019C63.6563 158.019 55.1628 158.732 57.3171 152.185L64.1218 129.572C66.6922 131.969 71.4664 128.398 74.1902 130.557Z" fill="#77A4F2"/>
<path d="M163.305 107.192C166.321 100.971 168.337 94.2706 169.199 87.3223L159.507 90.8237C158.808 98.4802 156.169 105.869 152.865 112.684L161.309 128.7C162.855 131.627 163.424 135.03 162.146 137.857C164.786 138.264 167.53 137.521 169.654 135.639C173.091 132.593 173.968 127.403 171.749 123.203L163.305 107.187V107.192Z" fill="white"/>
<path d="M174.221 54.101L163.375 55.0469C160.705 50.5253 157.442 46.4098 153.693 42.7697L154.738 21.4047C154.738 21.4047 141.529 22.4249 134.274 28.9423C139.801 27.1347 147.007 25.1834 147.007 25.1834L142.683 48.1134C146.432 51.7535 151.83 58.5335 154.5 63.0551L164.281 62.1092C168.233 61.7625 171.824 64.4121 172.666 68.2849L176.36 82.6273C176.811 84.7024 176.39 86.7824 175.335 88.4762L181.238 86.3862C184.977 85.059 187.147 81.1614 186.305 77.2885L182.61 60.2817C181.768 56.4039 178.178 53.7593 174.226 54.1059L174.221 54.101Z" fill="white"/>
<path d="M106.268 55.1905C106.268 55.1905 108.377 43.9731 117.341 40.3727C117.341 40.3727 117.322 37.4111 116.653 36.8762C103.826 39.0454 98.6309 54.0069 98.6309 54.0069L106.263 55.1905H106.268Z" fill="#77A4F2"/>
<path d="M117.48 63.7979C117.421 63.7979 117.366 63.7979 117.307 63.7979C115.395 63.7038 113.919 62.0794 114.013 60.1677L115.004 39.9121C110.735 41.066 104.079 44.1712 101.374 52.4963C100.785 54.3189 98.8289 55.3143 97.0064 54.725C95.1839 54.1356 94.1884 52.1794 94.7778 50.3569C100.325 33.2609 117.787 32.3397 118.53 32.31C119.501 32.2704 120.446 32.6418 121.135 33.3302C121.823 34.0186 122.185 34.9695 122.135 35.9402L120.937 60.4996C120.848 62.3518 119.312 63.7979 117.475 63.7979H117.48Z" fill="#503EAA"/>
<path d="M66.8456 164.626C65.1172 164.626 63.3739 164.284 61.7198 163.571C56.0739 161.139 52.8647 155.003 54.088 148.976L56.8416 135.436C45.6737 126.407 38.2202 114.432 35.2339 100.679C31.5641 83.7763 35.2141 66.3584 45.5152 51.6346C55.757 36.9951 71.3573 26.7682 89.4487 22.8409C103.385 19.8149 117.529 20.7856 130.49 25.639C138.627 19.0621 151.568 17.9924 152.157 17.9478C153.153 17.8735 154.128 18.2252 154.841 18.9185C155.555 19.6119 155.936 20.5776 155.886 21.573L154.921 41.3978C157.937 44.4733 160.606 47.8262 162.899 51.4068L171.61 50.6441C177.291 50.1489 182.476 53.9722 183.685 59.5388L187.379 76.5456C188.588 82.1122 185.453 87.7432 180.079 89.6499L171.838 92.5719C170.942 98.8665 169.07 105.008 166.257 110.871L173.666 124.491C176.603 129.889 175.335 136.699 170.65 140.68C165.965 144.662 159.041 144.811 154.188 141.042L146.605 135.153C137.998 141.879 127.766 146.658 116.856 149.025C106.203 151.338 95.154 151.289 84.7389 148.901L77.5776 159.089C75.0816 162.64 71.0205 164.626 66.8605 164.626H66.8456ZM105.371 28.0509C100.577 28.0509 95.7384 28.5709 90.9196 29.6159C74.5418 33.1718 60.4321 42.4032 51.1957 55.6115C42.0188 68.7356 38.7551 84.2171 42.0089 99.2082C44.7922 112.015 51.9634 123.099 62.7598 131.261C63.8246 132.063 64.3347 133.41 64.0673 134.718L60.8878 150.358C60.3133 153.18 61.8188 156.063 64.4684 157.202C67.118 158.341 70.243 157.459 71.8971 155.102L80.4253 142.973C81.2623 141.785 82.748 141.245 84.1545 141.616C94.1932 144.286 104.99 144.504 115.38 142.25C126.127 139.918 136.131 135.02 144.307 128.081C145.56 127.021 147.383 126.982 148.676 127.987L158.437 135.564C160.715 137.332 163.959 137.263 166.158 135.396C168.357 133.529 168.951 130.335 167.574 127.804L159.304 112.6C158.754 111.589 158.739 110.376 159.269 109.356C162.493 103.086 164.499 96.4596 165.217 89.6499C165.355 88.3227 166.247 87.1935 167.505 86.7478L177.766 83.1127C179.856 82.3747 181.075 80.1808 180.604 78.0165L176.91 61.0097C176.439 58.8455 174.419 57.3597 172.215 57.5479L161.369 58.4938C160.037 58.6077 158.759 57.954 158.08 56.8001C155.599 52.6004 152.534 48.7127 148.968 45.2509C148.255 44.5575 147.873 43.5918 147.918 42.5964L148.755 25.4261C144.446 26.2333 137.622 28.0856 133.684 32.0773C132.699 33.0777 131.203 33.3847 129.901 32.8499C122.115 29.6605 113.81 28.0459 105.371 28.0459V28.0509Z" fill="#503EAA"/>
<path d="M56.9259 67.7302C56.3464 67.7302 55.7621 67.7005 55.1826 67.646C45.4708 66.6951 38.3442 58.0233 39.2901 48.3115C40.1815 39.2039 47.739 32.3348 56.8764 32.3348C57.4558 32.3348 58.0402 32.3645 58.6196 32.419C68.3315 33.3698 75.4581 42.0416 74.5122 51.7535C73.6207 60.8611 66.0632 67.7302 56.9259 67.7302Z" fill="#8D86EB"/>
<path d="M56.8764 29.3633V35.3063C57.3568 35.3063 57.8471 35.331 58.3324 35.3756C66.4149 36.163 72.343 43.3788 71.5555 51.4613C70.8176 59.0386 64.528 64.7538 56.9259 64.7538C56.4455 64.7538 55.9552 64.729 55.4699 64.6844C51.5574 64.3031 48.0263 62.4162 45.5253 59.3803C43.0292 56.3444 41.8654 52.5112 42.2467 48.5987C42.9846 41.0214 49.2743 35.3063 56.8764 35.3063V29.3633ZM56.8764 29.3633C46.3672 29.3633 37.3735 37.3467 36.3335 48.0243C35.2241 59.3853 43.5344 69.4933 54.8904 70.6026C55.5739 70.667 56.2524 70.7017 56.9259 70.7017C67.4351 70.7017 76.4288 62.7183 77.4688 52.0407C78.5782 40.6797 70.2679 30.5717 58.9118 29.4623C58.2284 29.3979 57.5499 29.3633 56.8764 29.3633Z" fill="#503EAA"/>
<path d="M55.4697 80.8395L67.7073 59.727L86.5763 46.0037L81.4604 72.2667L55.4697 80.8395Z" fill="#C0DBFF"/>
<path d="M58.2977 78.2493C57.8866 78.2493 57.4657 78.175 57.0546 78.0166C55.2668 77.3282 54.3753 75.3274 55.0588 73.5395C59.6646 61.5446 68.589 51.912 80.1926 46.4098C81.9211 45.5877 83.9912 46.3256 84.8084 48.059C85.6305 49.7874 84.8925 51.8575 83.1592 52.6747C73.175 57.4093 65.4887 65.7047 61.5267 76.0257C60.9968 77.4025 59.6844 78.2493 58.2878 78.2493H58.2977Z" fill="#503EAA"/>
<path d="M129.732 100.184C136.833 100.184 142.589 94.4277 142.589 87.3272C142.589 80.2266 136.833 74.4705 129.732 74.4705C122.632 74.4705 116.876 80.2266 116.876 87.3272C116.876 94.4277 122.632 100.184 129.732 100.184Z" fill="#FF8486"/>
<path d="M28.1371 152.17C29.141 152.17 29.9547 151.356 29.9547 150.353C29.9547 149.349 29.141 148.535 28.1371 148.535C27.1333 148.535 26.3196 149.349 26.3196 150.353C26.3196 151.356 27.1333 152.17 28.1371 152.17Z" fill="#503EAA"/>
<path d="M183.516 24.5049C184.52 24.5049 185.334 23.6911 185.334 22.6873C185.334 21.6835 184.52 20.8698 183.516 20.8698C182.512 20.8698 181.699 21.6835 181.699 22.6873C181.699 23.6911 182.512 24.5049 183.516 24.5049Z" fill="#503EAA"/>
<path d="M207.145 68.8296C208.148 68.8296 208.962 68.0159 208.962 67.0121C208.962 66.0083 208.148 65.1945 207.145 65.1945C206.141 65.1945 205.327 66.0083 205.327 67.0121C205.327 68.0159 206.141 68.8296 207.145 68.8296Z" fill="#503EAA"/>
<path d="M66.7565 3.63513C67.7603 3.63513 68.5741 2.82137 68.5741 1.81756C68.5741 0.813751 67.7603 0 66.7565 0C65.7527 0 64.939 0.813751 64.939 1.81756C64.939 2.82137 65.7527 3.63513 66.7565 3.63513Z" fill="#503EAA"/>
<path d="M147.651 158.767C148.654 158.767 149.468 157.953 149.468 156.949C149.468 155.945 148.654 155.132 147.651 155.132C146.647 155.132 145.833 155.945 145.833 156.949C145.833 157.953 146.647 158.767 147.651 158.767Z" fill="#503EAA"/>
<path d="M9.52069 58.8851C10.5245 58.8851 11.3383 58.0713 11.3383 57.0675C11.3383 56.0637 10.5245 55.2499 9.52069 55.2499C8.51688 55.2499 7.70312 56.0637 7.70312 57.0675C7.70312 58.0713 8.51688 58.8851 9.52069 58.8851Z" fill="#503EAA"/>
<path d="M9.52066 124.644C11.5775 124.644 13.2449 122.977 13.2449 120.92C13.2449 118.863 11.5775 117.196 9.52066 117.196C7.4638 117.196 5.79639 118.863 5.79639 120.92C5.79639 122.977 7.4638 124.644 9.52066 124.644Z" fill="#503EAA"/>
<path d="M191.158 111.753C193.215 111.753 194.882 110.085 194.882 108.029C194.882 105.972 193.215 104.304 191.158 104.304C189.101 104.304 187.434 105.972 187.434 108.029C187.434 110.085 189.101 111.753 191.158 111.753Z" fill="#503EAA"/>
<path d="M20.3022 16.7493H18.3163C16.2016 16.7493 14.488 15.0358 14.488 12.9211V7.73085C14.4434 7.22569 14.0027 6.85426 13.5025 6.89883C13.0567 6.93845 12.7051 7.29008 12.6704 7.73085V12.9161C12.6704 15.0308 10.9569 16.7444 8.84217 16.7444H6.85127C6.34612 16.7889 5.97468 17.2297 6.01925 17.7299C6.05887 18.1756 6.4105 18.5273 6.85127 18.5619H8.84217C10.9569 18.5619 12.6704 20.2755 12.6704 22.3902V27.5755C12.715 28.0806 13.1558 28.4521 13.656 28.4075C14.1017 28.3679 14.4533 28.0162 14.488 27.5755V22.3902C14.488 20.2755 16.2016 18.5619 18.3163 18.5619H20.3022C20.8074 18.6065 21.2482 18.2301 21.2878 17.7299C21.3323 17.2248 20.956 16.784 20.4558 16.7444C20.4062 16.7444 20.3517 16.7444 20.3022 16.7444V16.7493Z" fill="#503EAA"/>
<path d="M197.809 150.169H195.823C193.709 150.169 191.995 148.456 191.995 146.341V141.156C191.951 140.651 191.51 140.279 191.01 140.324C190.564 140.363 190.212 140.715 190.178 141.156V146.341C190.178 148.456 188.464 150.169 186.349 150.169H184.358C183.853 150.214 183.482 150.655 183.526 151.155C183.566 151.601 183.918 151.952 184.358 151.987H186.349C188.464 151.987 190.178 153.7 190.178 155.815V161C190.222 161.506 190.663 161.877 191.163 161.832C191.609 161.793 191.96 161.441 191.995 161V155.815C191.995 153.7 193.709 151.987 195.823 151.987H197.809C198.314 152.031 198.755 151.655 198.795 151.155C198.839 150.65 198.463 150.209 197.963 150.169C197.913 150.169 197.859 150.169 197.809 150.169Z" fill="#503EAA"/>
</g>
<defs>
<clipPath id="clip0_2599_7416">
<rect width="208.113" height="164.626" fill="white" transform="translate(0.848877)"/>
</clipPath>
</defs>
</svg>
