<svg width="80" height="80" viewBox="0 0 80 80" fill="none" xmlns="http://www.w3.org/2000/svg">
<path d="M58.9651 31.3767C50.7751 39.5817 39.4368 35.795 39.4368 35.795L64.6351 10.5483C64.6351 10.5483 67.1534 23.1717 58.9651 31.3767Z" fill="#88D1C3"/>
<path d="M39.435 35.7934C39.435 35.7934 35.025 25.0634 43.845 16.2267C52.665 7.39005 64.6334 10.5467 64.6334 10.5467L39.435 35.7934Z" fill="#AEEDE1"/>
<path d="M35.7151 10.1235C44.9451 19.3369 40.6851 32.0935 40.6851 32.0935L12.2834 3.74519C12.2834 3.74519 26.4834 0.910192 35.7151 10.1235Z" fill="#88D1C3"/>
<path d="M12.2834 3.74512C12.2834 3.74512 8.74345 17.2018 18.6735 27.1318C27.4518 35.9101 38.3335 32.1701 38.3335 39.4468V45.0001H41.6668V35.8168C41.6668 34.0451 40.9618 32.3468 39.7085 31.0968L12.2834 3.74512Z" fill="#AEEDE1"/>
<path d="M57.0818 71.6667H22.9184C21.2484 71.6667 19.8351 70.4301 19.6151 68.7734L16.6667 46.6667H63.3334L60.3851 68.7734C60.1651 70.4301 58.7518 71.6667 57.0818 71.6667Z" fill="url(#paint0_linear)"/>
<path d="M15 46.6668V43.3334C15 42.4134 15.7467 41.6667 16.6667 41.6667H63.3333C64.2533 41.6667 65 42.4134 65 43.3334V46.6668C65 47.5868 64.2533 48.3334 63.3333 48.3334H16.6667C15.7467 48.3334 15 47.5868 15 46.6668Z" fill="#7068AA"/>
<defs>
<linearGradient id="paint0_linear" x1="30.4187" y1="48.6347" x2="41.2026" y2="77.9245" gradientUnits="userSpaceOnUse">
<stop stop-color="#7068AA"/>
<stop offset="1" stop-color="#9084E7"/>
</linearGradient>
</defs>
</svg>
