<svg width="211" height="171" viewBox="0 0 211 171" fill="none" xmlns="http://www.w3.org/2000/svg">
<g clip-path="url(#clip0_2599_7341)">
<path d="M107.624 170.43C105.545 170.43 103.858 168.743 103.858 166.665V13.2231C103.858 11.1448 105.545 9.45801 107.624 9.45801C109.702 9.45801 111.389 11.1448 111.389 13.2231V166.665C111.389 168.743 109.702 170.43 107.624 170.43Z" fill="#503EAA"/>
<path d="M34.2937 169.426C32.2153 169.426 30.5286 167.739 30.5286 165.661V69.1028C30.5286 67.0244 32.2153 65.3376 34.2937 65.3376C36.3721 65.3376 38.0588 67.0244 38.0588 69.1028V165.661C38.0588 167.739 36.3721 169.426 34.2937 169.426Z" fill="#503EAA"/>
<path d="M175.808 169.115C173.729 169.115 172.042 167.428 172.042 165.35V98.767C172.042 96.6887 173.729 95.0019 175.808 95.0019C177.886 95.0019 179.573 96.6887 179.573 98.767V165.35C179.573 167.428 177.886 169.115 175.808 169.115Z" fill="#503EAA"/>
<path d="M141.545 136.438C141.545 136.438 142.775 150.008 151.927 158.798C161.078 167.589 174.688 168.261 174.688 168.261C174.688 168.261 173.458 154.692 164.306 145.902C155.155 137.111 141.545 136.438 141.545 136.438Z" fill="#503EAA"/>
<path d="M174.688 169.019C174.688 169.019 174.663 169.019 174.653 169.019C174.086 168.989 160.657 168.226 151.405 159.346C142.157 150.465 140.847 137.076 140.797 136.509C140.777 136.293 140.852 136.077 141.003 135.921C141.153 135.766 141.369 135.68 141.585 135.69C142.152 135.721 155.581 136.484 164.834 145.364C174.081 154.245 175.391 167.634 175.441 168.201C175.461 168.417 175.386 168.633 175.235 168.789C175.095 168.939 174.899 169.019 174.693 169.019H174.688ZM142.408 137.272C142.87 140.409 144.949 151.057 152.444 158.256C159.954 165.465 170.667 167.102 173.82 167.433C173.358 164.295 171.279 153.648 163.784 146.449C156.274 139.24 145.561 137.603 142.408 137.272Z" fill="#503EAA"/>
<path d="M210.076 136.438C210.076 136.438 208.846 150.008 199.694 158.798C190.542 167.589 176.932 168.261 176.932 168.261C176.932 168.261 178.162 154.692 187.314 145.902C196.466 137.111 210.076 136.438 210.076 136.438Z" fill="#503EAA"/>
<path d="M176.927 169.019C176.721 169.019 176.526 168.934 176.385 168.789C176.234 168.633 176.159 168.417 176.179 168.201C176.229 167.634 177.54 154.245 186.787 145.364C196.034 136.484 209.468 135.721 210.035 135.69C210.251 135.68 210.467 135.766 210.618 135.921C210.768 136.077 210.844 136.293 210.824 136.509C210.773 137.076 209.463 150.465 200.216 159.346C190.969 168.226 177.535 168.989 176.967 169.019C176.957 169.019 176.942 169.019 176.932 169.019H176.927ZM209.207 137.272C206.054 137.608 195.331 139.25 187.831 146.449C180.331 153.648 178.258 164.295 177.796 167.433C180.948 167.097 191.671 165.455 199.172 158.256C206.672 151.057 208.745 140.409 209.207 137.272Z" fill="#503EAA"/>
<path d="M138.859 85.4636C138.859 85.4636 137.629 99.0331 128.478 107.823C119.326 116.614 105.716 117.286 105.716 117.286C105.716 117.286 106.946 103.717 116.098 94.9266C125.25 86.1363 138.859 85.4636 138.859 85.4636Z" fill="#503EAA"/>
<path d="M105.716 118.04C105.51 118.04 105.314 117.954 105.174 117.809C105.023 117.653 104.948 117.437 104.968 117.221C105.018 116.654 106.329 103.265 115.576 94.3844C124.823 85.5037 138.257 84.7406 138.824 84.7105C139.04 84.7005 139.256 84.7858 139.406 84.9414C139.557 85.0971 139.632 85.3129 139.612 85.5288C139.562 86.0961 138.252 99.4849 129.005 108.366C119.758 117.246 106.323 118.009 105.756 118.04C105.746 118.04 105.731 118.04 105.721 118.04H105.716ZM137.996 86.2919C134.843 86.6282 124.12 88.2698 116.62 95.4688C109.11 102.678 107.041 113.321 106.58 116.453C109.732 116.117 120.455 114.475 127.955 107.276C135.466 100.067 137.534 89.4245 137.996 86.2919Z" fill="#503EAA"/>
<path d="M1.1604 136.438C1.1604 136.438 2.39035 150.008 11.5421 158.798C20.6939 167.589 34.3036 168.261 34.3036 168.261C34.3036 168.261 33.0737 154.692 23.9219 145.902C14.7701 137.111 1.1604 136.438 1.1604 136.438Z" fill="#503EAA"/>
<path d="M34.3038 169.019C34.3038 169.019 34.2787 169.019 34.2686 169.019C33.7013 168.989 20.2723 168.226 11.0202 159.346C1.77298 150.46 0.462713 137.071 0.407491 136.509C0.387411 136.293 0.462713 136.077 0.613319 135.921C0.763924 135.766 0.974772 135.68 1.19566 135.69C1.76294 135.721 15.1919 136.484 24.4441 145.364C33.6913 154.245 35.0016 167.634 35.0568 168.201C35.0769 168.417 35.0016 168.633 34.851 168.789C34.7104 168.939 34.5146 169.019 34.3088 169.019H34.3038ZM2.02399 137.272C2.48585 140.409 4.5642 151.057 12.0593 158.256C19.5595 165.455 30.2826 167.097 33.4353 167.433C32.9734 164.295 30.8951 153.648 23.3999 146.449C15.8998 139.25 5.17666 137.608 2.02399 137.272Z" fill="#503EAA"/>
<path d="M58.968 121.855C58.968 121.855 60.8154 142.242 74.5657 155.445C88.316 168.648 108.763 169.662 108.763 169.662C108.763 169.662 106.916 149.275 93.1655 136.072C79.4152 122.869 58.968 121.855 58.968 121.855Z" fill="#503EAA"/>
<path d="M108.758 170.42C108.758 170.42 108.733 170.42 108.723 170.42C108.517 170.41 87.834 169.235 74.0436 155.992C60.2481 142.749 58.2401 122.131 58.22 121.925C58.1999 121.709 58.2752 121.493 58.4258 121.338C58.5764 121.182 58.7873 121.097 59.0082 121.107C59.214 121.117 79.8971 122.292 93.6876 135.535C107.483 148.778 109.491 169.396 109.511 169.602C109.531 169.818 109.456 170.034 109.305 170.189C109.165 170.34 108.969 170.42 108.763 170.42H108.758ZM59.8214 122.683C60.3736 126.729 63.3155 143.612 75.0828 154.908C86.8501 166.203 103.838 168.457 107.9 168.844C107.347 164.797 104.406 147.92 92.6384 136.619C80.8711 125.324 63.8828 123.07 59.8214 122.683Z" fill="#503EAA"/>
<path d="M85.2537 27.9574C85.1131 28.0779 64.9621 33.826 64.9621 33.826C64.9621 33.826 64.1238 44.0922 66.1117 52.978C67.3015 58.3094 70.2584 63.3999 74.9824 67.5264C75.123 67.6469 75.2635 67.7674 75.4041 67.8929C92.8944 82.7878 121.509 82.7075 138.914 67.7172C139.055 67.5967 139.196 67.4712 139.336 67.3507C144.035 63.1991 146.962 58.0935 148.126 52.7521C150.064 43.8513 149.03 32.1392 149.03 32.1392C149.03 32.1392 138.945 27.1792 138.804 27.0588C121.314 12.1639 102.659 12.9671 85.2537 27.9574Z" fill="#8D86EB"/>
<path d="M109.647 59.6507L104.627 59.6647L104.681 78.8768L109.701 78.8628L109.647 59.6507Z" fill="#503EAA"/>
<path d="M94.6056 59.1455L89.5854 59.1595L89.6343 76.6648L94.6545 76.6508L94.6056 59.1455Z" fill="#503EAA"/>
<path d="M124.681 59.1167L119.661 59.1307L119.71 76.636L124.73 76.622L124.681 59.1167Z" fill="#503EAA"/>
<path d="M138.658 52.0946L133.638 52.1086L133.687 69.614L138.707 69.5999L138.658 52.0946Z" fill="#503EAA"/>
<path d="M80.591 52.563L75.5708 52.577L75.6197 70.0823L80.6398 70.0683L80.591 52.563Z" fill="#503EAA"/>
<path d="M74.9623 13.8206C74.8217 13.941 74.6762 14.0666 74.5406 14.187C61.8998 25.2616 61.95 43.1083 74.6511 54.1126C74.7916 54.233 74.9322 54.3535 75.0778 54.474C92.7237 69.3689 121.6 69.2886 139.16 54.2983C139.301 54.1778 139.447 54.0523 139.582 53.9318C152.223 42.8573 152.173 25.0105 139.472 14.0063C139.331 13.8858 139.191 13.7653 139.045 13.6449C121.399 -1.25003 92.5229 -1.1697 74.9623 13.8206Z" fill="#86D4C9"/>
<path d="M141.274 14.8045C141.133 14.689 140.993 14.5685 140.847 14.4531C130.686 6.21999 116.811 2.7661 103.507 4.05127C113.211 4.99004 122.604 8.44895 130.019 14.4531C130.159 14.5685 130.305 14.684 130.445 14.8045C143.147 25.367 143.197 42.5059 130.556 53.1336C130.415 53.249 130.275 53.3695 130.134 53.485C122.679 59.5895 113.191 63.1087 103.387 64.0575C116.786 65.3527 130.777 61.8336 140.963 53.485C141.103 53.3695 141.249 53.249 141.384 53.1336C152.228 44.0119 152.158 23.8559 141.274 14.8045Z" fill="white"/>
<path d="M108.904 65.0816C107.051 65.0816 105.189 64.9913 103.316 64.8105V63.3095C113.432 62.3306 122.544 58.7311 129.657 52.9027C129.798 52.7872 129.938 52.6717 130.074 52.5563C136.013 47.5612 139.271 40.9546 139.251 33.9465C139.231 26.9383 135.933 20.3468 129.964 15.3818C129.823 15.2664 129.687 15.1509 129.547 15.0404C122.473 9.3074 113.447 5.76817 103.437 4.8043V3.30327C117.544 1.93778 131.349 5.79327 141.324 13.8707C141.47 13.9912 141.615 14.1067 141.756 14.2272C147.042 18.6249 150.21 25.9995 150.23 33.9515C150.25 41.9034 147.128 49.2881 141.866 53.7109C141.726 53.8314 141.58 53.9519 141.435 54.0673C132.745 61.186 121.123 65.0766 108.899 65.0766L108.904 65.0816ZM111.288 4.58843C118.523 6.32541 125.064 9.47307 130.496 13.8707C130.641 13.9912 130.787 14.1067 130.927 14.2272C137.243 19.4833 140.737 26.4865 140.757 33.9465C140.777 41.4064 137.328 48.4247 131.043 53.7109C130.902 53.8314 130.757 53.9519 130.611 54.0673C125.129 58.5604 118.507 61.7683 111.168 63.5254C122.207 63.0786 132.599 59.3636 140.486 52.9027C140.626 52.7872 140.767 52.6717 140.903 52.5563C145.822 48.4146 148.749 41.4617 148.729 33.9515C148.709 26.4363 145.742 19.4934 140.797 15.3768C140.657 15.2613 140.521 15.1459 140.38 15.0354C132.539 8.67988 122.232 5.02519 111.293 4.58341L111.288 4.58843Z" fill="white"/>
<path d="M106.996 68.1138C94.8573 68.1138 82.7185 64.2081 73.4512 56.3917C73.3006 56.2662 73.15 56.1357 72.9994 56.0051C66.3025 50.2018 62.5976 42.4506 62.5775 34.1774C62.5524 25.9041 66.2121 18.1329 72.8789 12.2944C73.0295 12.1639 73.1751 12.0333 73.3257 11.9078C91.8452 -3.89569 122.052 -3.98103 140.656 11.7221C140.807 11.8476 140.958 11.9781 141.108 12.1087C147.805 17.912 151.51 25.6631 151.53 33.9364C151.555 42.2097 147.895 49.9809 141.229 55.8194C141.078 55.9499 140.932 56.0804 140.782 56.2059C131.485 64.1428 119.235 68.1138 106.991 68.1138H106.996ZM107.127 5.0302C107.076 5.0302 107.031 5.0302 106.981 5.0302C95.4296 5.06032 84.6362 8.8606 76.5939 15.7232C76.4583 15.8386 76.3278 15.9541 76.1973 16.0696C70.6399 20.9392 67.5877 27.365 67.6077 34.1623C67.6278 40.9596 70.7152 47.3704 76.2977 52.2099C76.4282 52.3253 76.5637 52.4408 76.6993 52.5512C84.7818 59.3737 95.5852 63.1137 107.147 63.0786C118.698 63.0484 129.492 59.2482 137.534 52.3856C137.669 52.2701 137.8 52.1546 137.935 52.0392C143.493 47.1696 146.545 40.7438 146.525 33.9464C146.505 27.1491 143.417 20.7383 137.835 15.8989C137.705 15.7834 137.569 15.668 137.433 15.5575C129.386 8.76521 118.628 5.0302 107.132 5.0302H107.127Z" fill="#503EAA"/>
<path d="M107.041 81.5328C94.9979 81.5328 82.9645 77.627 73.7725 69.8006C73.6219 69.6751 73.4713 69.5446 73.3257 69.414C68.3558 65.0666 65.0123 59.5745 63.6569 53.5252C61.6086 44.3683 62.4219 34.0519 62.457 33.6201L67.4622 34.0268C67.4521 34.1272 66.684 44.032 68.5566 52.4308C69.6761 57.4309 72.4673 61.9992 76.629 65.6389C76.7595 65.7543 76.8951 65.8698 77.0256 65.9802C85.0278 72.7976 95.7208 76.5176 107.177 76.4975C118.618 76.4674 129.306 72.6721 137.273 65.8095C137.408 65.6941 137.539 65.5786 137.669 65.4631C141.811 61.8034 144.577 57.22 145.667 52.2149C147.499 43.8061 146.535 32.4705 146.525 32.355L151.525 31.9133C151.57 32.4052 152.569 44.1123 150.571 53.2792C149.251 59.3335 145.943 64.8507 140.993 69.2233C140.847 69.3538 140.697 69.4843 140.546 69.6098C131.324 77.5517 119.18 81.5277 107.036 81.5277L107.041 81.5328Z" fill="#503EAA"/>
<path d="M161.455 96.3774C161.36 96.4577 147.675 100.363 147.675 100.363C147.675 100.363 147.107 107.336 148.453 113.376C149.261 117 151.269 120.454 154.477 123.255C154.572 123.336 154.668 123.421 154.763 123.501C166.641 133.617 186.079 133.562 197.907 123.381C198.002 123.301 198.097 123.215 198.193 123.13C201.386 120.309 203.374 116.84 204.162 113.215C205.477 107.171 204.779 99.2138 204.779 99.2138C204.779 99.2138 197.932 95.8453 197.831 95.7649C185.954 85.6493 173.283 86.1914 161.455 96.3774Z" fill="#8D86EB"/>
<path d="M176.26 133.567C167.891 133.567 159.527 130.851 153.142 125.414L152.83 125.148C149.321 122.081 146.962 118.2 146.008 113.923C144.592 107.587 145.149 100.459 145.175 100.163L145.315 98.4307L146.987 97.9537C151.425 96.6887 158.423 94.6856 160.215 94.1434C172.976 83.3902 186.812 83.2245 199.252 93.6816C200.141 94.1384 203.675 95.8804 205.889 96.9698L207.159 97.5923L207.284 99.003C207.314 99.3443 208.002 107.412 206.622 113.757C205.688 118.04 203.353 121.935 199.859 125.018C199.754 125.108 199.654 125.198 199.548 125.289C193.137 130.806 184.698 133.567 176.26 133.567ZM150.094 102.286C150.024 104.631 150.044 108.978 150.908 112.829C151.631 116.057 153.438 119.008 156.134 121.368L156.4 121.594C161.666 126.077 168.714 128.547 176.26 128.547C176.29 128.547 176.325 128.547 176.355 128.547C183.935 128.527 191.009 126.017 196.275 121.483L196.536 121.257C199.222 118.883 201.009 115.921 201.712 112.688C202.615 108.541 202.495 103.29 202.369 100.83C196.541 97.9638 196.501 97.9337 196.21 97.6827C185.396 88.4756 174.256 88.6765 163.102 98.2851C162.774 98.5696 158.44 99.9049 150.099 102.291L150.094 102.286Z" fill="#503EAA"/>
<path d="M173.003 117.557L167.983 117.571L168.016 129.459L173.036 129.445L173.003 117.557Z" fill="#503EAA"/>
<path d="M184.64 117.54L179.619 117.554L179.653 129.441L184.673 129.427L184.64 117.54Z" fill="#503EAA"/>
<path d="M196.272 114.284L191.252 114.298L191.285 126.186L196.305 126.172L196.272 114.284Z" fill="#503EAA"/>
<path d="M161.371 114.01L156.351 114.024L156.384 125.912L161.404 125.898L161.371 114.01Z" fill="#503EAA"/>
<path d="M154.467 85.5489C154.372 85.6292 154.276 85.7145 154.181 85.7999C145.596 93.3201 145.631 105.444 154.256 112.919C154.351 112.999 154.447 113.085 154.547 113.165C166.535 123.281 186.144 123.225 198.077 113.044C198.173 112.964 198.268 112.879 198.363 112.793C206.948 105.273 206.913 93.1494 198.288 85.6744C198.193 85.594 198.097 85.5087 197.997 85.4284C186.009 75.3127 166.4 75.3679 154.467 85.5489Z" fill="#86D4C9"/>
<path d="M198.363 86.6684C198.278 86.5931 198.192 86.5178 198.107 86.4425C192.018 81.111 183.699 78.872 175.727 79.7054C181.541 80.3128 187.173 82.5518 191.616 86.4425C191.701 86.5178 191.787 86.5931 191.872 86.6684C199.483 93.5109 199.513 104.605 191.937 111.493C191.852 111.568 191.767 111.644 191.681 111.719C187.213 115.675 181.525 117.954 175.652 118.567C183.684 119.405 192.068 117.126 198.172 111.719C198.258 111.644 198.343 111.568 198.428 111.493C206.004 104.61 205.974 93.5109 198.363 86.6684Z" fill="white"/>
<path d="M178.96 119.49C177.841 119.49 176.711 119.43 175.577 119.315L168.403 118.567L175.577 117.819C181.571 117.191 186.967 114.887 191.184 111.157L191.43 110.936C194.934 107.748 196.857 103.536 196.847 99.0632C196.837 94.5953 194.889 90.3934 191.37 87.2256L191.124 87.0047C186.932 83.335 181.586 81.0709 175.652 80.4484L168.478 79.7004L175.652 78.9524C184.196 78.0588 192.565 80.5839 198.604 85.8702L198.865 86.1011C202.706 89.555 204.829 94.1535 204.844 99.0532C204.859 103.953 202.761 108.566 198.936 112.045L198.675 112.281C193.408 116.945 186.365 119.49 178.96 119.49ZM182.896 80.5287C186.32 81.7285 189.437 83.5308 192.113 85.8702L192.374 86.1011C196.215 89.555 198.338 94.1535 198.353 99.0532C198.368 103.953 196.27 108.566 192.444 112.045L192.183 112.281C189.478 114.681 186.31 116.518 182.826 117.738C188.418 117.02 193.609 114.751 197.676 111.152L197.922 110.931C201.426 107.743 203.348 103.531 203.338 99.0582C203.328 94.5902 201.38 90.3883 197.861 87.2206L197.615 86.9997C193.574 83.4655 188.433 81.2315 182.901 80.5237L182.896 80.5287Z" fill="white"/>
<path d="M176.229 123.225C167.796 123.225 159.362 120.514 152.926 115.083C152.82 114.992 152.715 114.902 152.61 114.812C147.886 110.715 145.27 105.238 145.255 99.3795C145.24 93.5209 147.82 88.0289 152.529 83.9073L152.84 83.6362C165.707 72.6571 186.692 72.5968 199.619 83.5057C199.724 83.596 199.829 83.6814 199.935 83.7717C204.664 87.8682 207.274 93.3502 207.294 99.2038C207.309 105.057 204.729 110.554 200.02 114.676C199.92 114.766 199.814 114.857 199.709 114.947C193.248 120.459 184.739 123.22 176.234 123.22L176.229 123.225ZM176.32 80.3831C176.285 80.3831 176.255 80.3831 176.224 80.3831C168.569 80.4032 161.42 82.9133 156.104 87.4515L155.837 87.6825C152.243 90.8351 150.265 94.9818 150.28 99.3644C150.29 103.747 152.288 107.884 155.908 111.016L156.174 111.242C161.495 115.73 168.614 118.2 176.234 118.2C176.27 118.2 176.3 118.2 176.33 118.2C183.986 118.18 191.134 115.67 196.451 111.132L196.712 110.906C200.311 107.753 202.284 103.601 202.274 99.2239C202.264 94.8412 200.266 90.7046 196.647 87.572L196.386 87.3461C191.064 82.8531 183.94 80.3831 176.32 80.3831Z" fill="#503EAA"/>
<path d="M19.4941 76.3369C19.3987 76.4172 5.7137 80.3229 5.7137 80.3229C5.7137 80.3229 5.14642 87.2959 6.49183 93.3352C7.30008 96.9598 9.30815 100.414 12.516 103.215C12.6114 103.295 12.7068 103.381 12.8022 103.461C24.6799 113.577 44.1181 113.521 55.9456 103.34C56.041 103.26 56.1364 103.175 56.2318 103.089C59.4246 100.268 61.4126 96.7991 62.2008 93.1746C63.5161 87.1303 62.8183 79.1733 62.8183 79.1733C62.8183 79.1733 55.9707 75.8047 55.8703 75.7244C43.9926 65.6087 31.3216 66.1509 19.4941 76.3369Z" fill="#8D86EB"/>
<path d="M34.2937 113.526C25.9251 113.526 17.5614 110.81 11.1758 105.374C11.0703 105.283 10.9649 105.193 10.8645 105.103C7.3554 102.035 5.00094 98.1546 4.04208 93.8774C2.62639 87.5419 3.18363 80.4133 3.20873 80.1171L3.3493 78.3851L5.02102 77.9082C9.45886 76.6431 16.457 74.6401 18.2492 74.0979C31.0105 63.3447 44.8461 63.179 57.2861 73.636C58.1747 74.0929 61.7089 75.8349 63.9228 76.9243L65.1929 77.5468L65.3184 78.9574C65.3485 79.2988 66.0363 87.3662 64.6558 93.7117C63.722 97.994 61.3876 101.89 57.8936 104.972C57.7932 105.062 57.6877 105.153 57.5823 105.243C51.1715 110.76 42.7326 113.521 34.2937 113.521V113.526ZM8.12851 82.2457C8.05823 84.5901 8.07831 88.9376 8.94178 92.788C9.66469 96.016 11.472 98.9679 14.1678 101.327L14.4288 101.553C19.695 106.041 26.7484 108.506 34.2887 108.506C34.3188 108.506 34.3539 108.506 34.3841 108.506C41.9645 108.486 49.038 105.976 54.3041 101.443L54.5652 101.217C57.251 98.8424 59.0432 95.8805 59.746 92.6475C60.6497 88.4857 60.5292 83.2497 60.4037 80.7898C54.5702 77.9233 54.5351 77.8932 54.2389 77.6371C43.4254 68.4301 32.2856 68.6309 21.1308 78.2396C20.6388 78.6663 20.6137 78.6813 8.12851 82.2457Z" fill="#503EAA"/>
<path d="M31.0419 97.5214L26.0217 97.5354L26.0549 109.423L31.0751 109.409L31.0419 97.5214Z" fill="#503EAA"/>
<path d="M42.6684 97.4989L37.6482 97.5129L37.6814 109.401L42.7016 109.387L42.6684 97.4989Z" fill="#503EAA"/>
<path d="M54.3061 94.2485L49.2859 94.2625L49.3191 106.15L54.3392 106.136L54.3061 94.2485Z" fill="#503EAA"/>
<path d="M19.4052 93.9696L14.385 93.9836L14.4182 105.871L19.4384 105.857L19.4052 93.9696Z" fill="#503EAA"/>
<path d="M12.5011 65.5083C12.4057 65.5887 12.3103 65.674 12.2149 65.7594C3.63042 73.2796 3.66556 85.4033 12.2902 92.8784C12.3856 92.9587 12.481 93.044 12.5814 93.1244C24.5696 103.24 44.1784 103.185 56.1114 93.0039C56.2068 92.9236 56.3022 92.8382 56.3976 92.7529C64.9821 85.2326 64.9469 73.1089 56.3223 65.6338C56.2269 65.5535 56.1315 65.4682 56.0311 65.3879C44.0429 55.2722 24.4341 55.3274 12.5011 65.5083Z" fill="#86D4C9"/>
<path d="M56.3976 66.6278C56.3122 66.5525 56.2269 66.4772 56.1415 66.4019C50.0521 61.0705 41.7336 58.8315 33.7616 59.6648C39.575 60.2723 45.2076 62.5113 49.6505 66.4019C49.7358 66.4772 49.8211 66.5525 49.9065 66.6278C57.5171 73.4703 57.5472 84.5649 49.9717 91.4526C49.8864 91.5279 49.8011 91.6032 49.7157 91.6785C45.2478 95.6344 39.5599 97.9136 33.6863 98.5261C41.7186 99.3644 50.1023 97.0853 56.2068 91.6785C56.2922 91.6032 56.3775 91.5279 56.4628 91.4526C64.0383 84.57 64.0082 73.4703 56.3976 66.6278Z" fill="white"/>
<path d="M36.9946 99.4548C35.8751 99.4548 34.7455 99.3946 33.611 99.2791L26.4421 98.5311L33.611 97.7831C39.6051 97.1556 45.0068 94.8513 49.2187 91.1213L49.4647 90.9004C52.9688 87.7126 54.8915 83.5007 54.8815 79.0277C54.8714 74.5597 52.9236 70.3578 49.4045 67.1901L49.1585 66.9692C44.9666 63.2995 39.6201 61.0354 33.6863 60.4129L26.5124 59.6649L33.6863 58.9168C42.2306 58.0233 50.5993 60.5484 56.6385 65.8347L56.8996 66.0656C60.74 69.5195 62.8636 74.118 62.8786 79.0176C62.8937 83.9173 60.7952 88.5309 56.9699 92.0049L56.7088 92.2408C51.4426 96.9046 44.3993 99.4498 36.9946 99.4498V99.4548ZM40.9304 60.4932C44.3541 61.693 47.4717 63.4953 50.1474 65.8347L50.4085 66.0656C54.2489 69.5195 56.3725 74.118 56.3875 79.0176C56.4026 83.9173 54.3041 88.5309 50.4788 92.0049L50.2177 92.2408C47.5118 94.6405 44.3441 96.4778 40.8601 97.6977C46.4526 96.9799 51.6435 94.7107 55.7098 91.1113L55.9558 90.8904C59.4599 87.7076 61.3826 83.4906 61.3726 79.0176C61.3625 74.5497 59.4147 70.3478 55.8955 67.1801L55.6496 66.9592C51.6083 63.425 46.4676 61.191 40.9354 60.4831L40.9304 60.4932Z" fill="white"/>
<path d="M34.2635 103.19C25.8296 103.19 17.3957 100.479 10.9599 95.0471C10.8544 94.9567 10.749 94.8664 10.6436 94.781C5.91458 90.6846 3.30408 85.2025 3.284 79.349C3.26894 73.4954 5.84931 67.9984 10.5582 63.8768C10.6586 63.7864 10.7641 63.6961 10.8695 63.6057C23.7362 52.6266 44.7206 52.5663 57.6475 63.4752C57.753 63.5655 57.8584 63.6559 57.9638 63.7412C62.6928 67.8377 65.3033 73.3197 65.3234 79.1733C65.3385 85.0268 62.7581 90.5239 58.0492 94.6455L57.7379 94.9166C51.2769 100.429 42.7677 103.19 34.2635 103.19ZM14.1326 67.416L13.8665 67.6419C10.2671 70.7946 8.29414 74.9413 8.30418 79.3239C8.31422 83.7065 10.3123 87.8431 13.9318 90.9757L14.1979 91.2016C19.5393 95.7098 26.678 98.1847 34.3589 98.1596C42.0147 98.1395 49.1634 95.6294 54.4798 91.0912L54.7459 90.8603C58.3454 87.7076 60.3183 83.5609 60.3082 79.1783C60.2982 74.7957 58.3002 70.659 54.6806 67.5265L54.4146 67.3005C49.0731 62.7924 41.9243 60.3125 34.2535 60.3426C26.5977 60.3627 19.449 62.8727 14.1326 67.411V67.416Z" fill="#503EAA"/>
<path d="M114.662 32.3802C114.697 33.9515 114.712 34.7396 114.747 36.311C114.752 36.6423 114.601 36.9636 114.33 37.1795C111.815 39.1976 110.54 40.1916 107.96 42.1645C107.503 42.5109 106.845 42.5109 106.388 42.1645C103.803 40.1916 102.528 39.1976 100.018 37.1795C99.7468 36.9636 99.5962 36.6423 99.6012 36.311C99.6363 34.7396 99.6514 33.9515 99.6865 32.3802C99.6966 31.9936 100.174 31.7878 100.485 32.0388C102.915 34.0117 104.144 34.9856 106.645 36.9134C106.956 37.1544 107.403 37.1544 107.714 36.9134C110.209 34.9856 111.444 34.0067 113.874 32.0388C114.185 31.7878 114.662 31.9886 114.672 32.3802H114.662Z" fill="#503EAA"/>
<path d="M122.955 16.2352C123.352 24.6641 123.748 33.098 124.15 41.5269C124.17 41.9838 123.788 42.3753 123.291 42.3954C121.514 42.4757 120.626 42.5109 118.844 42.5661C118.347 42.5812 117.935 42.2247 117.92 41.7629C117.769 36.6473 117.614 31.5368 117.463 26.4212C117.453 26.0196 116.971 25.8087 116.65 26.0597C113.141 28.7957 111.353 30.1462 107.709 32.7918C107.392 33.0177 106.961 33.0177 106.644 32.7918C103 30.1462 101.208 28.8008 97.7035 26.0597C97.3823 25.8087 96.9003 26.0196 96.8903 26.4212C96.7397 31.5368 96.584 36.6473 96.4334 41.7629C96.4184 42.2197 96.0067 42.5812 95.5097 42.5661C93.7326 42.5109 92.839 42.4757 91.0618 42.3954C90.5649 42.3753 90.1833 41.9838 90.2034 41.5269C90.6 33.098 90.9966 24.6641 91.3982 16.2352C91.4183 15.8236 91.7647 15.5073 92.1763 15.5274C92.6382 15.5475 92.8691 15.5575 93.331 15.5776C93.5468 15.5876 93.7577 15.6629 93.9334 15.7985C98.1001 19.0767 102.382 22.2494 106.73 25.2866C106.996 25.4724 107.357 25.4724 107.628 25.2866C111.976 22.2494 116.258 19.0767 120.425 15.7985C120.596 15.6629 120.806 15.5876 121.027 15.5776C121.489 15.5575 121.72 15.5475 122.182 15.5274C122.594 15.5073 122.94 15.8286 122.96 16.2352H122.955Z" fill="#503EAA"/>
<path d="M124.356 45.8794C124.441 47.6967 124.486 48.6054 124.572 50.4277C124.587 50.7641 124.295 51.0552 123.924 51.0703C112.739 51.4819 101.619 51.4819 90.4343 51.0703C90.0578 51.0552 89.7716 50.7641 89.7867 50.4277C89.872 48.6104 89.9172 47.7017 90.0026 45.8794C90.0176 45.5431 90.3289 45.282 90.7004 45.2971C101.71 45.7037 112.659 45.7037 123.668 45.2971C124.034 45.282 124.346 45.538 124.366 45.8794H124.356Z" fill="#503EAA"/>
<path d="M39.3591 77.8028C39.3792 78.8219 39.3892 79.3289 39.4143 80.353C39.4143 80.5689 39.319 80.7747 39.1433 80.9153C37.5117 82.2205 36.6884 82.8681 35.0116 84.1483C34.7154 84.3742 34.2887 84.3742 33.9925 84.1483C32.3158 82.8732 31.4925 82.2256 29.8609 80.9153C29.6852 80.7747 29.5898 80.5689 29.5898 80.353C29.6099 79.3339 29.625 78.8269 29.6451 77.8028C29.6501 77.5518 29.9613 77.4212 30.1621 77.5819C31.7385 78.862 32.5367 79.4946 34.1532 80.7446C34.354 80.9002 34.6452 80.9002 34.846 80.7446C36.4625 79.4946 37.2657 78.862 38.837 77.5819C39.0378 77.4162 39.3491 77.5518 39.3541 77.8028H39.3591Z" fill="#503EAA"/>
<path d="M44.7356 67.3357C44.9917 72.8027 45.2527 78.2696 45.5087 83.7316C45.5238 84.0278 45.2728 84.2838 44.9515 84.2939C43.7969 84.3441 43.2195 84.3692 42.0699 84.4043C41.7486 84.4143 41.4826 84.1834 41.4725 83.8822C41.352 79.9012 41.2968 77.9132 41.1763 73.9372C41.1663 73.6762 40.8601 73.5406 40.6492 73.7013C38.3751 75.4784 37.2154 76.3519 34.8509 78.0638C34.6451 78.2094 34.3639 78.2094 34.1631 78.0638C31.7986 76.3469 30.639 75.4734 28.3648 73.7013C28.154 73.5356 27.8427 73.6762 27.8377 73.9372C27.7172 77.9132 27.662 79.9062 27.5415 83.8822C27.5315 84.1784 27.2654 84.4143 26.9441 84.4043C25.7895 84.3692 25.2121 84.3441 24.0625 84.2939C23.7412 84.2788 23.4902 84.0278 23.5053 83.7316C23.7613 78.2646 24.0224 72.7976 24.2784 67.3357C24.2935 67.0696 24.5194 66.8638 24.7854 66.8738C25.0866 66.8889 25.2372 66.8939 25.5334 66.9039C25.674 66.909 25.8095 66.9592 25.92 67.0495C29.148 69.5697 30.8046 70.8046 34.2183 73.1993C34.3941 73.3197 34.625 73.3197 34.8007 73.1993C38.2094 70.7996 39.8711 69.5697 43.0991 67.0495C43.2095 66.9642 43.345 66.914 43.4906 66.9039C43.7918 66.8939 43.9424 66.8839 44.2386 66.8738C44.5047 66.8638 44.7306 67.0696 44.7457 67.3357H44.7356Z" fill="#503EAA"/>
<path d="M45.6394 86.5529C45.6946 87.7327 45.7247 88.32 45.7799 89.4998C45.79 89.7206 45.6042 89.9064 45.3582 89.9164C38.0991 90.1574 30.9051 90.1574 23.646 89.9164C23.405 89.9064 23.2142 89.7206 23.2243 89.4998C23.2795 88.32 23.3096 87.7327 23.3648 86.5529C23.3749 86.332 23.5757 86.1664 23.8166 86.1764C30.9604 86.4123 38.0438 86.4123 45.1875 86.1764C45.4285 86.1664 45.6293 86.332 45.6394 86.5529Z" fill="#503EAA"/>
<path d="M181.781 97.9889C181.802 99.008 181.812 99.5201 181.837 100.539C181.837 100.755 181.741 100.961 181.566 101.101C179.934 102.407 179.111 103.054 177.434 104.334C177.138 104.56 176.711 104.56 176.415 104.334C174.738 103.059 173.915 102.412 172.283 101.101C172.108 100.961 172.012 100.755 172.012 100.539C172.032 99.5201 172.047 99.008 172.067 97.9889C172.072 97.7379 172.384 97.6074 172.585 97.768C174.161 99.0482 174.959 99.6807 176.576 100.931C176.776 101.086 177.068 101.086 177.268 100.931C178.885 99.6807 179.688 99.0482 181.259 97.768C181.46 97.6024 181.771 97.7379 181.776 97.9889H181.781Z" fill="#503EAA"/>
<path d="M187.158 87.5219C187.414 92.9888 187.675 98.4558 187.931 103.918C187.946 104.214 187.695 104.47 187.374 104.48C186.219 104.53 185.642 104.555 184.493 104.59C184.171 104.601 183.905 104.37 183.895 104.068C183.775 100.092 183.719 98.0994 183.599 94.1234C183.589 93.8623 183.283 93.7268 183.072 93.8874C180.798 95.6646 179.638 96.5381 177.274 98.25C177.068 98.3956 176.787 98.3956 176.586 98.25C174.221 96.5331 173.062 95.6596 170.787 93.8874C170.577 93.7218 170.265 93.8623 170.26 94.1234C170.14 98.0994 170.085 100.092 169.964 104.068C169.954 104.365 169.688 104.601 169.367 104.59C168.212 104.555 167.635 104.53 166.485 104.48C166.164 104.465 165.913 104.214 165.928 103.918C166.184 98.4508 166.445 92.9838 166.701 87.5219C166.716 87.2558 166.942 87.05 167.208 87.06C167.509 87.0751 167.66 87.0801 167.956 87.0901C168.097 87.0951 168.232 87.1453 168.343 87.2307C171.571 89.7508 173.227 90.9858 176.641 93.3804C176.817 93.5009 177.048 93.5009 177.223 93.3804C180.632 90.9858 182.294 89.7508 185.522 87.2307C185.632 87.1453 185.768 87.0951 185.913 87.0851C186.214 87.0751 186.365 87.065 186.661 87.055C186.927 87.0449 187.153 87.2508 187.168 87.5168L187.158 87.5219Z" fill="#503EAA"/>
<path d="M188.067 106.739C188.122 107.919 188.152 108.506 188.207 109.686C188.217 109.907 188.032 110.093 187.786 110.103C180.527 110.344 173.333 110.344 166.073 110.103C165.832 110.093 165.642 109.907 165.652 109.686C165.707 108.506 165.737 107.919 165.792 106.739C165.802 106.518 166.003 106.353 166.244 106.363C173.388 106.599 180.471 106.599 187.615 106.363C187.856 106.353 188.057 106.518 188.067 106.739Z" fill="#503EAA"/>
</g>
<defs>
<clipPath id="clip0_2599_7341">
<rect width="210.421" height="170.43" fill="white" transform="translate(0.407471)"/>
</clipPath>
</defs>
</svg>
