<svg xmlns="http://www.w3.org/2000/svg" width="56" height="56" viewBox="0 0 56 56" fill="none"><path d="M29.778 10.5793L11.0308 29.3265C9.35667 31.0006 9.35667 33.7143 11.0308 35.3885L24.1115 48.4691C25.7857 50.1433 28.4993 50.1433 30.1735 48.4691L48.9218 29.7208C49.7187 28.924 50.1667 27.8425 50.1667 26.7143V13.587C50.1667 11.2478 48.2522 9.33331 45.913 9.33331H32.7868C31.6575 9.33331 30.576 9.78131 29.778 10.5793Z" fill="#7068AA"></path><path d="M25.4765 7.05715L7.06649 25.4683C5.42266 27.1121 5.42266 29.778 7.06649 31.4218L19.9127 44.268C21.5565 45.9118 24.2223 45.9118 25.8662 44.268L44.2773 25.8568C45.0602 25.0728 45.5 24.01 45.5 22.9016V10.0111C45.5 7.71281 43.6205 5.83331 41.3222 5.83331H28.4317C27.3233 5.83331 26.2605 6.27315 25.4765 7.05715ZM39.2338 14.4095C38.0847 14.4095 37.1455 13.4691 37.1455 12.3211C37.1455 11.1731 38.0858 10.2328 39.2338 10.2328C40.3818 10.2328 41.3222 11.1731 41.3222 12.3211C41.3222 13.4691 40.383 14.4095 39.2338 14.4095Z" fill="url(#paint0_linear)"></path><defs><linearGradient id="paint0_linear" x1="8" y1="11.4999" x2="47.1698" y2="12.6336" gradientUnits="userSpaceOnUse"><stop stop-color="#7068AA"></stop><stop offset="1" stop-color="#9084E7"></stop></linearGradient></defs></svg>