<svg width="1056" height="724" viewBox="0 0 1056 724" fill="none" xmlns="http://www.w3.org/2000/svg">
<path opacity="0.34" fill-rule="evenodd" clip-rule="evenodd" d="M2.32331 394.02C12.5901 466.226 43.8486 537.803 132.401 589.127C229.69 645.513 362.36 697.545 497.169 680.823C626.663 664.754 654.855 568.809 745.536 513.066C848.574 449.726 1047.07 424.241 1055.67 337.501C1064.42 249.231 898.19 194.959 782.822 136.835C662.889 76.4122 545.866 -11.1746 388.101 1.1768C231.934 13.4031 153.695 113.02 75.9636 192.175C14.8971 254.36 -7.80428 322.787 2.32331 394.02Z" fill="url(#paint0_linear)"/>
<path fill-rule="evenodd" clip-rule="evenodd" d="M510.56 30.0397C416.463 29.1783 321.724 42.0661 249.203 94.4178C169.528 151.934 93.0294 232.967 105.302 322.587C117.092 408.673 239.224 437.086 305.024 502.024C379.791 575.811 398.976 707.86 510.56 722.536C624.111 737.471 705.836 634.8 789.012 565.681C875.479 493.827 996.875 426.712 991.849 322.587C986.874 219.516 863.47 158.099 766.493 99.1521C690.308 52.8432 603.387 30.8889 510.56 30.0397Z" fill="url(#paint1_linear)"/>
<path d="M891 286.487L890.673 288.893C889.101 300.478 879.991 309.588 868.406 311.16L866 311.487L868.406 311.814C879.991 313.386 889.101 322.496 890.673 334.081L891 336.487L891.327 334.081C892.899 322.496 902.009 313.386 913.594 311.814L916 311.487L913.594 311.16C902.009 309.588 892.899 300.478 891.327 288.893L891 286.487Z" fill="white"/>
<path d="M355.722 126L352.383 150.608C351.127 159.855 343.855 167.128 334.608 168.383L310 171.723L334.608 175.062C343.855 176.317 351.127 183.59 352.383 192.837L355.722 217.445L359.062 192.837C360.317 183.59 367.59 176.317 376.837 175.062L401.445 171.723L376.837 168.383C367.59 167.128 360.317 159.855 359.062 150.608L355.722 126Z" fill="white"/>
<path d="M416.673 532.178L415.019 544.361C414.398 548.939 410.798 552.539 406.22 553.161L394.037 554.814L406.22 556.467C410.798 557.089 414.398 560.689 415.019 565.267L416.673 577.45L418.326 565.267C418.947 560.689 422.548 557.089 427.126 556.467L439.308 554.814L427.126 553.161C422.548 552.539 418.947 548.939 418.326 544.361L416.673 532.178Z" fill="white"/>
<path d="M448 506.487C443.582 506.487 440 502.905 440 498.487C440 494.069 443.582 490.487 448 490.487C452.418 490.487 456 494.069 456 498.487C456 502.905 452.418 506.487 448 506.487Z" fill="white"/>
<path opacity="0.78" d="M759 234.487C754.582 234.487 751 230.905 751 226.487C751 222.069 754.582 218.487 759 218.487C763.418 218.487 767 222.069 767 226.487C767 230.905 763.418 234.487 759 234.487Z" fill="white"/>
<path opacity="0.78" d="M804 347C801.239 347 799 344.761 799 342C799 339.239 801.239 337 804 337C806.761 337 809 339.239 809 342C809 344.761 806.761 347 804 347Z" fill="white"/>
<path opacity="0.4" d="M949 342.487C945.686 342.487 943 339.801 943 336.487C943 333.173 945.686 330.487 949 330.487C952.314 330.487 955 333.173 955 336.487C955 339.801 952.314 342.487 949 342.487Z" fill="white"/>
<path opacity="0.9" d="M906 371.487C904.343 371.487 903 370.144 903 368.487C903 366.83 904.343 365.487 906 365.487C907.657 365.487 909 366.83 909 368.487C909 370.144 907.657 371.487 906 371.487Z" fill="white"/>
<path d="M546 684.487C542.686 684.487 540 681.801 540 678.487C540 675.173 542.686 672.487 546 672.487C549.314 672.487 552 675.173 552 678.487C552 681.801 549.314 684.487 546 684.487Z" fill="white"/>
<path d="M613 638.487C609.686 638.487 607 635.801 607 632.487C607 629.173 609.686 626.487 613 626.487C616.314 626.487 619 629.173 619 632.487C619 635.801 616.314 638.487 613 638.487Z" fill="white"/>
<path d="M390 476.487C386.686 476.487 384 473.801 384 470.487C384 467.173 386.686 464.487 390 464.487C393.314 464.487 396 467.173 396 470.487C396 473.801 393.314 476.487 390 476.487Z" fill="white"/>
<path opacity="0.34" d="M603 132C599.686 132 597 129.314 597 126C597 122.686 599.686 120 603 120C606.314 120 609 122.686 609 126C609 129.314 606.314 132 603 132Z" fill="white"/>
<defs>
<linearGradient id="paint0_linear" x1="528" y1="5.42789e-06" x2="528" y2="684.002" gradientUnits="userSpaceOnUse">
<stop stop-color="#AECBED"/>
<stop offset="1" stop-color="#AECBED" stop-opacity="0"/>
</linearGradient>
<linearGradient id="paint1_linear" x1="548" y1="29.9996" x2="548" y2="724" gradientUnits="userSpaceOnUse">
<stop stop-color="#AECBED"/>
<stop offset="1" stop-color="#AECBED" stop-opacity="0"/>
</linearGradient>
</defs>
</svg>
