<svg width="1129" height="930" viewBox="0 0 1129 930" fill="none" xmlns="http://www.w3.org/2000/svg">
    <path d="M652.697 595.89C652.697 606.71 644.001 615.41 633.195 615.41H464.692C453.886 615.41 445.19 606.71 445.19 595.89C445.19 585.08 453.886 576.37 464.692 576.37H633.195C644.001 576.37 652.697 585.09 652.697 595.89Z" fill="#6B5EC6"/>
    <path d="M626.797 615.41H471.196V886.76H626.797V615.41Z" fill="#6B5EC6"/>
    <path d="M517.894 615.41H471.196V886.76H517.894V615.41Z" fill="#5E4FB9"/>
    <path d="M626.797 615.41H580.099V886.76H626.797V615.41Z" fill="#8077DE"/>
    <path d="M633.195 576.37H598.292V615.5H633.195C644.001 615.5 652.697 606.8 652.697 595.99C652.697 585.09 644.001 576.37 633.195 576.37Z" fill="#8077DE"/>
    <path d="M499.606 576.37H464.704C453.898 576.37 445.202 585.08 445.202 595.89C445.202 606.71 453.898 615.41 464.704 615.41H499.606V576.37Z" fill="#5E4FB9"/>
    <path d="M626.797 615.41H471.196V886.76H626.797V615.41Z" stroke="#503EAA" stroke-width="5.9405" stroke-miterlimit="8.4865" stroke-linejoin="round"/>
    <path d="M572.298 886.85H556.697V640.04C556.697 635.73 560.197 632.23 564.498 632.23C568.799 632.23 572.298 635.73 572.298 640.04V886.85Z" fill="#503EAA"/>
    <path d="M603.407 886.85H587.805V640.04C587.805 635.73 591.305 632.23 595.606 632.23C599.907 632.23 603.407 635.73 603.407 640.04V886.85Z" fill="#503EAA"/>
    <path d="M541.202 886.85H525.601V640.04C525.601 635.73 529.1 632.23 533.401 632.23C537.702 632.23 541.202 635.73 541.202 640.04V886.85Z" fill="#503EAA"/>
    <path d="M510.105 886.85H494.504V640.04C494.504 635.73 498.004 632.23 502.305 632.23C506.605 632.23 510.105 635.73 510.105 640.04V886.85Z" fill="#503EAA"/>
    <path d="M652.697 595.89C652.697 606.71 644.001 615.41 633.195 615.41H464.692C453.886 615.41 445.19 606.71 445.19 595.89C445.19 585.08 453.886 576.37 464.692 576.37H633.195C644.001 576.37 652.697 585.09 652.697 595.89Z" stroke="#503EAA" stroke-width="5.9405" stroke-miterlimit="8.4865" stroke-linejoin="round"/>
    <path d="M468.816 597.225H472.816V599.85C471.841 600.55 470.641 600.95 469.466 600.95C466.541 600.95 464.066 598.4 464.066 595.4C464.066 592.425 466.541 589.875 469.466 589.875C471.041 589.875 472.716 590.625 473.741 591.8L476.416 589.4C474.691 587.6 472.041 586.525 469.466 586.525C464.491 586.525 460.266 590.575 460.266 595.4C460.266 600.225 464.491 604.3 469.466 604.3C472.041 604.3 474.691 603.225 476.416 601.425V594.35H468.816V597.225ZM487.97 604.3C492.945 604.3 497.095 600.225 497.095 595.4C497.095 590.575 492.945 586.525 487.97 586.525C483.045 586.525 478.845 590.575 478.845 595.4C478.845 600.225 483.045 604.3 487.97 604.3ZM487.97 600.95C485.095 600.95 482.645 598.4 482.645 595.4C482.645 592.425 485.095 589.875 487.97 589.875C490.87 589.875 493.32 592.425 493.32 595.4C493.32 598.4 490.87 600.95 487.97 600.95ZM512.433 586.825L507.508 598.925L502.583 586.825H498.433L505.433 604H509.558L516.558 586.825H512.433ZM531.807 590.15V586.825H518.582V604H531.807V600.675H522.282V596.9H530.907V593.575H522.282V590.15H531.807ZM549.123 604L544.898 598C547.248 597.175 548.798 595.175 548.798 592.625C548.798 589.225 546.048 586.825 542.323 586.825H534.598V604H538.273V598.425H540.998L544.923 604H549.123ZM538.273 590.2H541.923C543.748 590.2 544.998 591.15 544.998 592.625C544.998 594.1 543.748 595.05 541.923 595.05H538.273V590.2ZM551.691 604H555.366V592.9L563.641 604H567.341V586.825H563.641V597.925L555.366 586.825H551.691V604ZM583.502 604H587.652L580.652 586.825H576.527L569.527 604H573.652L574.752 601.3H582.402L583.502 604ZM576.027 598.175L578.577 591.9L581.127 598.175H576.027ZM589.826 604H593.501V592.9L601.776 604H605.476V586.825H601.776V597.925L593.501 586.825H589.826V604ZM617.486 604.3C620.086 604.3 622.486 603.175 624.161 601.425L621.486 599.025C620.486 600.175 619.061 600.95 617.486 600.95C614.611 600.95 612.161 598.4 612.161 595.4C612.161 592.425 614.611 589.875 617.486 589.875C619.061 589.875 620.486 590.65 621.486 591.8L624.161 589.4C622.486 587.625 620.086 586.525 617.486 586.525C612.561 586.525 608.361 590.575 608.361 595.4C608.361 600.225 612.561 604.3 617.486 604.3ZM639.669 590.15V586.825H626.444V604H639.669V600.675H630.144V596.9H638.769V593.575H630.144V590.15H639.669Z" fill="#86D4C9"/>
    <path d="M652.803 886.85H445.202V925.99H652.803V886.85Z" fill="#6B5EC6"/>
    <path d="M652.709 886.85H598.304V925.99H652.709V886.85Z" fill="#8077DE"/>
    <path d="M499.606 886.85H445.202V925.99H499.606V886.85Z" fill="#5A4AB5"/>
    <path d="M652.697 886.85V925.89H445.202V886.85H652.697Z" stroke="#503EAA" stroke-width="5.9405" stroke-miterlimit="8.4865" stroke-linejoin="round"/>
    <path d="M1125.6 396.31C1125.6 407.12 1116.91 415.83 1106.1 415.83H937.6C926.79 415.83 918.1 407.12 918.1 396.31C918.1 385.49 926.79 376.79 937.6 376.79H1106.1C1116.8 376.79 1125.6 385.51 1125.6 396.31Z" fill="#6B5EC6"/>
    <path d="M1099.6 415.93H944V886.87H1099.6V415.93Z" fill="#6B5EC6"/>
    <path d="M990.69 415.93H944V886.87H990.69V415.93Z" fill="#5E4FB9"/>
    <path d="M1099.6 415.93H1052.9V886.87H1099.6V415.93Z" fill="#8077DE"/>
    <path d="M1106.1 376.79H1071.2V415.92H1106.1C1116.91 415.92 1125.6 407.22 1125.6 396.4C1125.6 385.51 1116.8 376.79 1106.1 376.79Z" fill="#8077DE"/>
    <path d="M972.5 376.79H937.6C926.79 376.79 918.1 385.49 918.1 396.31C918.1 407.12 926.79 415.83 937.6 415.83H972.5V376.79Z" fill="#5E4FB9"/>
    <path d="M1099.6 415.93H944V886.87H1099.6V415.93Z" stroke="#503EAA" stroke-width="5.9405" stroke-miterlimit="8.4865" stroke-linejoin="round"/>
    <path d="M1045.1 886.86H1029.5V440.44C1029.5 436.14 1033 432.64 1037.3 432.64C1041.6 432.64 1045.1 436.14 1045.1 440.44V886.86Z" fill="#503EAA"/>
    <path d="M1076.3 886.86H1060.7V440.44C1060.7 436.14 1064.2 432.64 1068.5 432.64C1072.8 432.64 1076.3 436.14 1076.3 440.44V886.86Z" fill="#503EAA"/>
    <path d="M1014 886.86H998.4V440.44C998.4 436.14 1001.9 432.64 1006.2 432.64C1010.5 432.64 1014 436.14 1014 440.44V886.86Z" fill="#503EAA"/>
    <path d="M982.9 886.86H967.3V440.44C967.3 436.14 970.8 432.64 975.1 432.64C979.41 432.64 982.9 436.14 982.9 440.44V886.86Z" fill="#503EAA"/>
    <path d="M1125.6 396.31C1125.6 407.12 1116.91 415.83 1106.1 415.83H937.6C926.79 415.83 918.1 407.12 918.1 396.31C918.1 385.49 926.79 376.79 937.6 376.79H1106.1C1116.8 376.79 1125.6 385.51 1125.6 396.31Z" stroke="#503EAA" stroke-width="5.9405" stroke-miterlimit="8.4865" stroke-linejoin="round"/>
    <path d="M1125.6 886.86H918V925.99H1125.6V886.86Z" fill="#6B5EC6"/>
    <path d="M1125.51 886.86H1071.1V925.99H1125.51V886.86Z" fill="#8077DE"/>
    <path d="M972.41 886.86H918V925.99H972.41V886.86Z" fill="#5A4AB5"/>
    <path d="M1125.6 886.86V926H918V886.86H1125.6Z" stroke="#503EAA" stroke-width="5.9405" stroke-miterlimit="8.4865" stroke-linejoin="round"/>
    <path d="M980.185 405.3C985.16 405.3 989.31 401.225 989.31 396.4C989.31 391.575 985.16 387.525 980.185 387.525C975.26 387.525 971.06 391.575 971.06 396.4C971.06 401.225 975.26 405.3 980.185 405.3ZM980.185 401.95C977.31 401.95 974.86 399.4 974.86 396.4C974.86 393.425 977.31 390.875 980.185 390.875C983.085 390.875 985.535 393.425 985.535 396.4C985.535 399.4 983.085 401.95 980.185 401.95ZM1006.55 405L1002.32 399C1004.67 398.175 1006.22 396.175 1006.22 393.625C1006.22 390.225 1003.47 387.825 999.748 387.825H992.023V405H995.698V399.425H998.423L1002.35 405H1006.55ZM995.698 391.2H999.348C1001.17 391.2 1002.42 392.15 1002.42 393.625C1002.42 395.1 1001.17 396.05 999.348 396.05H995.698V391.2ZM1021.57 405H1025.72L1018.72 387.825H1014.59L1007.59 405H1011.72L1012.82 402.3H1020.47L1021.57 405ZM1014.09 399.175L1016.64 392.9L1019.19 399.175H1014.09ZM1036.19 405.3C1038.79 405.3 1041.19 404.175 1042.87 402.425L1040.19 400.025C1039.19 401.175 1037.77 401.95 1036.19 401.95C1033.32 401.95 1030.87 399.4 1030.87 396.4C1030.87 393.425 1033.32 390.875 1036.19 390.875C1037.77 390.875 1039.19 391.65 1040.19 392.8L1042.87 390.4C1041.19 388.625 1038.79 387.525 1036.19 387.525C1031.27 387.525 1027.07 391.575 1027.07 396.4C1027.07 401.225 1031.27 405.3 1036.19 405.3ZM1048.72 401.675V387.825H1045.02V405H1057.27V401.675H1048.72ZM1072.87 391.15V387.825H1059.65V405H1072.87V401.675H1063.35V397.9H1071.97V394.575H1063.35V391.15H1072.87Z" fill="#86D4C9"/>
    <path d="M211.1 354.37C211.1 365.18 202.404 373.89 191.598 373.89H23.095C12.289 373.89 3.59302 365.18 3.59302 354.37C3.59302 343.55 12.289 334.85 23.095 334.85H191.598C202.404 334.86 211.1 343.57 211.1 354.37Z" fill="#6B5EC6"/>
    <path d="M185.106 373.89H29.505V887.3H185.106V373.89Z" fill="#6B5EC6"/>
    <path d="M76.203 373.89H29.505V887.3H76.203V373.89Z" fill="#5E4FB9"/>
    <path d="M185.094 373.89H138.396V887.3H185.094V373.89Z" fill="#8077DE"/>
    <path d="M191.598 334.75H156.696V373.89H191.598C202.404 373.89 211.1 365.18 211.1 354.37C211.1 343.57 202.298 334.75 191.598 334.75Z" fill="#8077DE"/>
    <path d="M57.997 334.75H23.095C12.289 334.75 3.59302 343.46 3.59302 354.27C3.59302 365.09 12.289 373.79 23.095 373.79H57.997V334.75Z" fill="#5E4FB9"/>
    <path d="M185.106 373.89H29.505V887.3H185.106V373.89Z" stroke="#503EAA" stroke-width="5.9405" stroke-miterlimit="8.4865" stroke-linejoin="round"/>
    <path d="M130.701 887.41H115.1V398.41C115.1 394.1 118.6 390.6 122.901 390.6C127.202 390.6 130.701 394.1 130.701 398.41V887.41Z" fill="#503EAA"/>
    <path d="M161.798 887.41H146.197V398.41C146.197 394.1 149.696 390.6 153.997 390.6C158.298 390.6 161.798 394.1 161.798 398.41V887.41Z" fill="#503EAA"/>
    <path d="M99.499 887.41H84.004V398.41C84.004 394.1 87.503 390.6 91.804 390.6C96.105 390.6 99.605 394.1 99.605 398.41V887.41H99.499Z" fill="#503EAA"/>
    <path d="M68.402 887.41H52.801V398.41C52.801 394.1 56.301 390.6 60.602 390.6C64.903 390.6 68.402 394.1 68.402 398.41V887.41Z" fill="#503EAA"/>
    <path d="M211.1 354.37C211.1 365.18 202.404 373.89 191.598 373.89H23.095C12.289 373.89 3.59302 365.18 3.59302 354.37C3.59302 343.55 12.289 334.85 23.095 334.85H191.598C202.298 334.86 211.1 343.57 211.1 354.37Z" stroke="#503EAA" stroke-width="5.9405" stroke-miterlimit="8.4865" stroke-linejoin="round"/>
    <path d="M211.1 887.41H3.49902V926.54H211.1V887.41Z" fill="#6B5EC6"/>
    <path d="M211.006 887.41H156.602V926.54H211.006V887.41Z" fill="#8077DE"/>
    <path d="M57.903 887.41H3.49902V926.54H57.903V887.41Z" fill="#5A4AB5"/>
    <path d="M211.1 887.41V926.45H3.49902V887.41H211.1Z" stroke="#503EAA" stroke-width="5.9405" stroke-miterlimit="8.4865" stroke-linejoin="round"/>
    <path d="M82.1243 361.3C86.6743 361.3 89.8993 358.1 89.8993 353.575V343.825H86.1993V353.425C86.1993 356.075 84.4993 357.95 82.1243 357.95C79.7243 357.95 78.0243 356.075 78.0243 353.425V343.825H74.3493V353.575C74.3493 358.1 77.5493 361.3 82.1243 361.3ZM99.7464 361.3C103.946 361.3 106.421 359.125 106.421 355.85C106.421 352.675 103.971 351.575 100.271 350.75C97.6214 350.15 96.5964 349.75 96.5964 348.5C96.5964 347.475 97.5464 346.65 99.1214 346.65C100.771 346.65 102.496 347.325 104.021 348.55L105.946 345.9C104.196 344.4 102.021 343.525 99.2214 343.525C95.4714 343.525 92.8714 345.7 92.8714 348.875C92.8714 352.2 95.4464 353.225 99.0714 354.05C101.696 354.65 102.696 355.025 102.696 356.25C102.696 357.325 101.746 358.175 99.8964 358.175C97.7214 358.175 95.8714 357.325 94.2464 355.925L92.1214 358.45C94.1214 360.3 96.7714 361.3 99.7464 361.3ZM122.292 347.15V343.825H109.067V361H122.292V357.675H112.767V353.9H121.392V350.575H112.767V347.15H122.292ZM139.607 361L135.382 355C137.732 354.175 139.282 352.175 139.282 349.625C139.282 346.225 136.532 343.825 132.807 343.825H125.082V361H128.757V355.425H131.482L135.407 361H139.607ZM128.757 347.2H132.407C134.232 347.2 135.482 348.15 135.482 349.625C135.482 351.1 134.232 352.05 132.407 352.05H128.757V347.2Z" fill="#86D4C9"/>
    <path d="M330.184 255H332.536V248.152L335.944 254.36L339.336 248.152V255H341.704V244.008H339.336L335.944 250.216L332.536 244.008H330.184V255ZM352.043 244.008L348.891 251.752L345.739 244.008H343.083L347.563 255H350.203L354.683 244.008H352.043ZM356.059 255H358.411V251.928L359.787 250.456L363.163 255H366.027L361.435 248.776L365.723 244.008H362.859L358.411 249.048V244.008H356.059V255ZM380.979 254.392L379.251 252.568C379.795 251.848 380.291 250.984 380.771 250.024L379.075 249.224C378.787 249.944 378.419 250.632 378.003 251.24C377.331 250.52 376.787 249.912 376.307 249.352C378.051 248.552 378.819 247.88 378.819 246.648C378.819 245.064 377.507 243.864 375.715 243.864C373.971 243.864 372.595 245.128 372.595 246.664C372.595 247.48 372.803 248.056 373.379 248.904C371.699 249.656 370.995 250.568 370.995 252.008C370.995 254.008 372.579 255.192 374.691 255.192C375.939 255.192 376.979 254.776 377.891 254.04L379.059 255.256L380.979 254.392ZM375.747 245.544C376.371 245.544 376.803 246.024 376.803 246.664C376.803 247.384 376.371 247.72 375.299 248.152C374.851 247.592 374.595 247.176 374.595 246.664C374.595 246.008 375.107 245.544 375.747 245.544ZM374.979 253.416C374.067 253.416 373.315 252.824 373.315 251.848C373.315 251.208 373.651 250.696 374.403 250.248C374.963 250.904 375.683 251.72 376.659 252.744C376.115 253.16 375.555 253.416 374.979 253.416ZM391.923 255.192C394.835 255.192 396.899 253.144 396.899 250.248V244.008H394.531V250.152C394.531 251.848 393.443 253.048 391.923 253.048C390.387 253.048 389.299 251.848 389.299 250.152V244.008H386.947V250.248C386.947 253.144 388.995 255.192 391.923 255.192ZM403.201 255.192C405.889 255.192 407.473 253.8 407.473 251.704C407.473 249.672 405.905 248.968 403.537 248.44C401.841 248.056 401.185 247.8 401.185 247C401.185 246.344 401.793 245.816 402.801 245.816C403.857 245.816 404.961 246.248 405.937 247.032L407.169 245.336C406.049 244.376 404.657 243.816 402.865 243.816C400.465 243.816 398.801 245.208 398.801 247.24C398.801 249.368 400.449 250.024 402.769 250.552C404.449 250.936 405.089 251.176 405.089 251.96C405.089 252.648 404.481 253.192 403.297 253.192C401.905 253.192 400.721 252.648 399.681 251.752L398.321 253.368C399.601 254.552 401.297 255.192 403.201 255.192ZM409.262 255H413.198C416.894 255 419.518 252.712 419.518 249.496C419.518 246.28 416.894 244.008 413.198 244.008H409.262V255ZM411.614 252.856V246.152H413.502C415.598 246.152 417.086 247.544 417.086 249.496C417.086 251.464 415.598 252.856 413.502 252.856H411.614ZM421.434 255H423.786V248.152L427.194 254.36L430.586 248.152V255H432.954V244.008H430.586L427.194 250.216L423.786 244.008H421.434V255Z" fill="#38237C"/>
    <path d="M355.384 273L352.68 269.16C354.184 268.632 355.176 267.352 355.176 265.72C355.176 263.544 353.416 262.008 351.032 262.008H346.088V273H348.44V269.432H350.184L352.696 273H355.384ZM348.44 264.168H350.776C351.944 264.168 352.744 264.776 352.744 265.72C352.744 266.664 351.944 267.272 350.776 267.272H348.44V264.168ZM360.772 271.128C359.796 271.128 359.076 270.52 358.804 269.624H364.772C364.772 266.504 363.252 264.536 360.66 264.536C358.244 264.536 356.404 266.344 356.404 268.84C356.404 271.384 358.324 273.192 360.788 273.192C362.004 273.192 363.428 272.68 364.164 271.912L362.676 270.392C362.228 270.824 361.428 271.128 360.772 271.128ZM360.756 266.6C361.7 266.6 362.308 267.128 362.532 267.944H358.836C359.14 267.112 359.876 266.6 360.756 266.6ZM368.042 273H370.138L371.69 267.8L373.226 273H375.322L378.138 264.728H375.85L374.282 269.88L372.65 264.728H370.714L369.082 269.88L367.514 264.728H365.226L368.042 273ZM383.111 264.536C381.959 264.536 380.823 264.856 379.655 265.448L380.439 267C381.095 266.664 381.815 266.408 382.583 266.408C383.943 266.408 384.487 267.176 384.487 268.056V268.216C383.783 267.944 383.047 267.8 382.375 267.8C380.455 267.8 378.935 268.92 378.935 270.552C378.935 272.136 380.295 273.192 382.055 273.192C382.951 273.192 383.895 272.84 384.487 272.168V273H386.743V268.056C386.743 265.896 385.271 264.536 383.111 264.536ZM382.583 271.576C381.783 271.576 381.191 271.16 381.191 270.488C381.191 269.816 381.863 269.32 382.711 269.32C383.351 269.32 383.959 269.432 384.487 269.624V270.392C384.327 271.16 383.479 271.576 382.583 271.576ZM391.048 266.264V264.728H388.712V273H391.048V269.048C391.048 267.496 392.152 266.504 393.88 266.504V264.536C392.616 264.536 391.592 265.192 391.048 266.264ZM401.403 261.816V265.912C400.747 265.048 399.787 264.536 398.619 264.536C396.411 264.536 394.811 266.328 394.811 268.856C394.811 271.4 396.411 273.192 398.619 273.192C399.787 273.192 400.747 272.68 401.403 271.816V273H403.739V261.816H401.403ZM399.291 271.224C397.995 271.224 397.083 270.248 397.083 268.856C397.083 267.48 397.995 266.504 399.291 266.504C400.523 266.504 401.403 267.48 401.403 268.856C401.403 270.248 400.523 271.224 399.291 271.224ZM408.894 273.192C410.926 273.192 412.254 272.152 412.254 270.52C412.254 268.712 410.67 268.232 409.246 267.864C408.126 267.56 407.79 267.432 407.79 266.984C407.79 266.696 408.19 266.488 408.766 266.488C409.47 266.488 410.334 266.76 411.086 267.224L412.03 265.56C411.118 264.952 409.95 264.536 408.766 264.536C406.814 264.536 405.518 265.656 405.534 267.224C405.55 268.856 406.862 269.32 408.558 269.736C409.406 269.96 410.014 270.12 410.014 270.632C410.014 271 409.566 271.256 408.942 271.256C407.838 271.256 406.91 270.856 406.174 270.328L405.166 271.944C406.158 272.744 407.566 273.192 408.894 273.192Z" fill="#38237C"/>
    <path d="M263.184 183H267.12C270.816 183 273.44 180.712 273.44 177.496C273.44 174.28 270.816 172.008 267.12 172.008H263.184V183ZM265.536 180.856V174.152H267.424C269.52 174.152 271.008 175.544 271.008 177.496C271.008 179.464 269.52 180.856 267.424 180.856H265.536ZM279.1 181.128C278.124 181.128 277.404 180.52 277.132 179.624H283.1C283.1 176.504 281.58 174.536 278.988 174.536C276.572 174.536 274.732 176.344 274.732 178.84C274.732 181.384 276.652 183.192 279.116 183.192C280.332 183.192 281.756 182.68 282.492 181.912L281.004 180.392C280.556 180.824 279.756 181.128 279.1 181.128ZM279.084 176.6C280.028 176.6 280.636 177.128 280.86 177.944H277.164C277.468 177.112 278.204 176.6 279.084 176.6ZM284.68 183H287.016V171.816H284.68V183ZM292.959 181.128C291.983 181.128 291.263 180.52 290.991 179.624H296.959C296.959 176.504 295.439 174.536 292.847 174.536C290.431 174.536 288.591 176.344 288.591 178.84C288.591 181.384 290.511 183.192 292.975 183.192C294.191 183.192 295.615 182.68 296.351 181.912L294.863 180.392C294.415 180.824 293.615 181.128 292.959 181.128ZM292.943 176.6C293.887 176.6 294.495 177.128 294.719 177.944H291.023C291.327 177.112 292.063 176.6 292.943 176.6ZM304.524 174.728V175.848C303.964 175.064 302.908 174.536 301.788 174.536C299.708 174.536 298.124 176.152 298.124 178.456C298.124 180.76 299.708 182.392 301.788 182.392C302.876 182.392 303.868 181.912 304.524 181.112V182.024C304.524 183.096 303.564 183.784 302.06 183.784C301.1 183.784 300.14 183.48 299.596 183L298.78 184.648C299.596 185.288 300.972 185.752 302.428 185.752C305.036 185.752 306.876 184.248 306.876 182.12V174.728H304.524ZM302.524 180.424C301.356 180.424 300.524 179.608 300.524 178.456C300.524 177.304 301.356 176.504 302.524 176.504C303.692 176.504 304.524 177.304 304.524 178.456C304.524 179.608 303.692 180.424 302.524 180.424ZM312.626 174.536C311.474 174.536 310.338 174.856 309.17 175.448L309.954 177C310.61 176.664 311.33 176.408 312.098 176.408C313.458 176.408 314.002 177.176 314.002 178.056V178.216C313.298 177.944 312.562 177.8 311.89 177.8C309.97 177.8 308.45 178.92 308.45 180.552C308.45 182.136 309.81 183.192 311.57 183.192C312.466 183.192 313.41 182.84 314.002 182.168V183H316.258V178.056C316.258 175.896 314.786 174.536 312.626 174.536ZM312.098 181.576C311.298 181.576 310.706 181.16 310.706 180.488C310.706 179.816 311.378 179.32 312.226 179.32C312.866 179.32 313.474 179.432 314.002 179.624V180.392C313.842 181.16 312.994 181.576 312.098 181.576ZM322.579 180.952C322.419 181.112 322.099 181.224 321.779 181.224C321.347 181.224 320.995 180.84 320.995 180.296V176.616H322.787V174.728H320.995V172.456H318.755V174.728H317.619V176.616H318.755V180.664C318.755 182.152 319.779 183.192 321.235 183.192C321.907 183.192 322.659 182.904 323.139 182.472L322.579 180.952ZM328.506 181.128C327.53 181.128 326.81 180.52 326.538 179.624H332.506C332.506 176.504 330.986 174.536 328.394 174.536C325.978 174.536 324.138 176.344 324.138 178.84C324.138 181.384 326.058 183.192 328.522 183.192C329.738 183.192 331.162 182.68 331.898 181.912L330.41 180.392C329.962 180.824 329.162 181.128 328.506 181.128ZM328.49 176.6C329.434 176.6 330.042 177.128 330.266 177.944H326.57C326.874 177.112 327.61 176.6 328.49 176.6ZM340.263 171.816V175.912C339.607 175.048 338.647 174.536 337.479 174.536C335.271 174.536 333.671 176.328 333.671 178.856C333.671 181.4 335.271 183.192 337.479 183.192C338.647 183.192 339.607 182.68 340.263 181.816V183H342.599V171.816H340.263ZM338.151 181.224C336.855 181.224 335.943 180.248 335.943 178.856C335.943 177.48 336.855 176.504 338.151 176.504C339.383 176.504 340.263 177.48 340.263 178.856C340.263 180.248 339.383 181.224 338.151 181.224Z" fill="#38237C"/>
    <path d="M285.184 200H287.536V193.152L290.944 199.36L294.336 193.152V200H296.704V189.008H294.336L290.944 195.216L287.536 189.008H285.184V200ZM307.043 189.008L303.891 196.752L300.739 189.008H298.083L302.563 200H305.203L309.683 189.008H307.043ZM311.059 200H313.411V196.928L314.787 195.456L318.163 200H321.027L316.435 193.776L320.723 189.008H317.859L313.411 194.048V189.008H311.059V200Z" fill="#38237C"/>
    <path d="M759.248 241.192C761.936 241.192 763.52 239.8 763.52 237.704C763.52 235.672 761.952 234.968 759.584 234.44C757.888 234.056 757.232 233.8 757.232 233C757.232 232.344 757.84 231.816 758.848 231.816C759.904 231.816 761.008 232.248 761.984 233.032L763.216 231.336C762.096 230.376 760.704 229.816 758.912 229.816C756.512 229.816 754.848 231.208 754.848 233.24C754.848 235.368 756.496 236.024 758.816 236.552C760.496 236.936 761.136 237.176 761.136 237.96C761.136 238.648 760.528 239.192 759.344 239.192C757.952 239.192 756.768 238.648 755.728 237.752L754.368 239.368C755.648 240.552 757.344 241.192 759.248 241.192ZM766.317 231.592C767.005 231.592 767.565 231.016 767.565 230.312C767.565 229.656 767.005 229.064 766.317 229.064C765.597 229.064 765.037 229.656 765.037 230.312C765.037 231.016 765.597 231.592 766.317 231.592ZM765.133 241H767.469V232.728H765.133V241ZM775.492 232.728V233.848C774.932 233.064 773.876 232.536 772.756 232.536C770.676 232.536 769.092 234.152 769.092 236.456C769.092 238.76 770.676 240.392 772.756 240.392C773.844 240.392 774.836 239.912 775.492 239.112V240.024C775.492 241.096 774.532 241.784 773.028 241.784C772.068 241.784 771.108 241.48 770.564 241L769.748 242.648C770.564 243.288 771.94 243.752 773.396 243.752C776.004 243.752 777.844 242.248 777.844 240.12V232.728H775.492ZM773.492 238.424C772.324 238.424 771.492 237.608 771.492 236.456C771.492 235.304 772.324 234.504 773.492 234.504C774.66 234.504 775.492 235.304 775.492 236.456C775.492 237.608 774.66 238.424 773.492 238.424ZM784.683 232.536C783.611 232.536 782.683 233.016 782.187 233.768V232.728H779.851V241H782.187V236.056L782.203 236.104C782.203 235.208 782.955 234.504 783.931 234.504C784.859 234.504 785.499 235.208 785.499 236.232V241H787.755V235.736C787.755 233.864 786.475 232.536 784.683 232.536ZM793.631 239.128C792.655 239.128 791.935 238.52 791.663 237.624H797.631C797.631 234.504 796.111 232.536 793.519 232.536C791.103 232.536 789.263 234.344 789.263 236.84C789.263 239.384 791.183 241.192 793.647 241.192C794.863 241.192 796.287 240.68 797.023 239.912L795.535 238.392C795.087 238.824 794.287 239.128 793.631 239.128ZM793.615 234.6C794.559 234.6 795.167 235.128 795.391 235.944H791.695C791.999 235.112 792.735 234.6 793.615 234.6ZM805.388 229.816V233.912C804.732 233.048 803.772 232.536 802.604 232.536C800.396 232.536 798.796 234.328 798.796 236.856C798.796 239.4 800.396 241.192 802.604 241.192C803.772 241.192 804.732 240.68 805.388 239.816V241H807.724V229.816H805.388ZM803.276 239.224C801.98 239.224 801.068 238.248 801.068 236.856C801.068 235.48 801.98 234.504 803.276 234.504C804.508 234.504 805.388 235.48 805.388 236.856C805.388 238.248 804.508 239.224 803.276 239.224Z" fill="#38237C"/>
    <path d="M747.128 249.536C745.976 249.536 745.016 250.032 744.36 250.88V249.728H742.024V260.752H744.36V256.832C745.016 257.696 745.976 258.192 747.128 258.192C749.336 258.192 750.936 256.4 750.936 253.856C750.936 251.328 749.336 249.536 747.128 249.536ZM746.456 256.224C745.32 256.224 744.488 255.392 744.36 254.176V253.536C744.488 252.336 745.32 251.504 746.456 251.504C747.752 251.504 748.664 252.48 748.664 253.856C748.664 255.248 747.752 256.224 746.456 256.224ZM754.923 251.264V249.728H752.587V258H754.923V254.048C754.923 252.496 756.027 251.504 757.755 251.504V249.536C756.491 249.536 755.467 250.192 754.923 251.264ZM760.27 248.592C760.958 248.592 761.518 248.016 761.518 247.312C761.518 246.656 760.958 246.064 760.27 246.064C759.55 246.064 758.99 246.656 758.99 247.312C758.99 248.016 759.55 248.592 760.27 248.592ZM759.086 258H761.422V249.728H759.086V258ZM767.51 258.192C768.886 258.192 770.006 257.632 770.822 256.736L769.27 255.424C768.838 255.904 768.166 256.224 767.526 256.224C766.294 256.224 765.27 255.136 765.27 253.84C765.27 252.576 766.294 251.504 767.51 251.504C768.15 251.504 768.806 251.808 769.222 252.272L770.774 250.944C769.974 250.08 768.87 249.536 767.526 249.536C765.078 249.536 762.998 251.504 762.998 253.856C762.998 256.208 765.062 258.192 767.51 258.192ZM776.131 256.128C775.155 256.128 774.435 255.52 774.163 254.624H780.131C780.131 251.504 778.611 249.536 776.019 249.536C773.603 249.536 771.763 251.344 771.763 253.84C771.763 256.384 773.683 258.192 776.147 258.192C777.363 258.192 778.787 257.68 779.523 256.912L778.035 255.392C777.587 255.824 776.787 256.128 776.131 256.128ZM776.115 251.6C777.059 251.6 777.667 252.128 777.891 252.944H774.195C774.499 252.112 775.235 251.6 776.115 251.6ZM788.948 249.28C788.948 248.736 789.3 248.352 789.732 248.352C790.052 248.352 790.372 248.464 790.532 248.624L791.092 247.2C790.612 246.768 789.86 246.48 789.188 246.48C787.732 246.48 786.708 247.52 786.708 249.008V249.728H785.572V251.616H786.708V258H788.948V251.616H790.74V249.728H788.948V249.28ZM796.147 256.128C795.171 256.128 794.451 255.52 794.179 254.624H800.147C800.147 251.504 798.627 249.536 796.035 249.536C793.619 249.536 791.779 251.344 791.779 253.84C791.779 256.384 793.699 258.192 796.163 258.192C797.379 258.192 798.803 257.68 799.539 256.912L798.051 255.392C797.603 255.824 796.803 256.128 796.147 256.128ZM796.131 251.6C797.075 251.6 797.683 252.128 797.907 252.944H794.211C794.515 252.112 795.251 251.6 796.131 251.6ZM805.631 256.128C804.655 256.128 803.935 255.52 803.663 254.624H809.631C809.631 251.504 808.111 249.536 805.519 249.536C803.103 249.536 801.263 251.344 801.263 253.84C801.263 256.384 803.183 258.192 805.647 258.192C806.863 258.192 808.287 257.68 809.023 256.912L807.535 255.392C807.087 255.824 806.287 256.128 805.631 256.128ZM805.615 251.6C806.559 251.6 807.167 252.128 807.391 252.944H803.695C803.999 252.112 804.735 251.6 805.615 251.6ZM817.388 246.816V250.912C816.732 250.048 815.772 249.536 814.604 249.536C812.396 249.536 810.796 251.328 810.796 253.856C810.796 256.4 812.396 258.192 814.604 258.192C815.772 258.192 816.732 257.68 817.388 256.816V258H819.724V246.816H817.388ZM815.276 256.224C813.98 256.224 813.068 255.248 813.068 253.856C813.068 252.48 813.98 251.504 815.276 251.504C816.508 251.504 817.388 252.48 817.388 253.856C817.388 255.248 816.508 256.224 815.276 256.224Z" fill="#38237C"/>
    <path d="M837.184 306H839.536V299.152L842.944 305.36L846.336 299.152V306H848.704V295.008H846.336L842.944 301.216L839.536 295.008H837.184V306ZM859.043 295.008L855.891 302.752L852.739 295.008H850.083L854.563 306H857.203L861.683 295.008H859.043ZM863.059 306H865.411V302.928L866.787 301.456L870.163 306H873.027L868.435 299.776L872.723 295.008H869.859L865.411 300.048V295.008H863.059V306Z" fill="#38237C"/>
    <path d="M833.384 324L830.68 320.16C832.184 319.632 833.176 318.352 833.176 316.72C833.176 314.544 831.416 313.008 829.032 313.008H824.088V324H826.44V320.432H828.184L830.696 324H833.384ZM826.44 315.168H828.776C829.944 315.168 830.744 315.776 830.744 316.72C830.744 317.664 829.944 318.272 828.776 318.272H826.44V315.168ZM838.772 322.128C837.796 322.128 837.076 321.52 836.804 320.624H842.772C842.772 317.504 841.252 315.536 838.66 315.536C836.244 315.536 834.404 317.344 834.404 319.84C834.404 322.384 836.324 324.192 838.788 324.192C840.004 324.192 841.428 323.68 842.164 322.912L840.676 321.392C840.228 321.824 839.428 322.128 838.772 322.128ZM838.756 317.6C839.7 317.6 840.308 318.128 840.532 318.944H836.836C837.14 318.112 837.876 317.6 838.756 317.6ZM846.042 324H848.138L849.69 318.8L851.226 324H853.322L856.138 315.728H853.85L852.282 320.88L850.65 315.728H848.714L847.082 320.88L845.514 315.728H843.226L846.042 324ZM861.111 315.536C859.959 315.536 858.823 315.856 857.655 316.448L858.439 318C859.095 317.664 859.815 317.408 860.583 317.408C861.943 317.408 862.487 318.176 862.487 319.056V319.216C861.783 318.944 861.047 318.8 860.375 318.8C858.455 318.8 856.935 319.92 856.935 321.552C856.935 323.136 858.295 324.192 860.055 324.192C860.951 324.192 861.895 323.84 862.487 323.168V324H864.743V319.056C864.743 316.896 863.271 315.536 861.111 315.536ZM860.583 322.576C859.783 322.576 859.191 322.16 859.191 321.488C859.191 320.816 859.863 320.32 860.711 320.32C861.351 320.32 861.959 320.432 862.487 320.624V321.392C862.327 322.16 861.479 322.576 860.583 322.576ZM869.048 317.264V315.728H866.712V324H869.048V320.048C869.048 318.496 870.152 317.504 871.88 317.504V315.536C870.616 315.536 869.592 316.192 869.048 317.264ZM879.403 312.816V316.912C878.747 316.048 877.787 315.536 876.619 315.536C874.411 315.536 872.811 317.328 872.811 319.856C872.811 322.4 874.411 324.192 876.619 324.192C877.787 324.192 878.747 323.68 879.403 322.816V324H881.739V312.816H879.403ZM877.291 322.224C875.995 322.224 875.083 321.248 875.083 319.856C875.083 318.48 875.995 317.504 877.291 317.504C878.523 317.504 879.403 318.48 879.403 319.856C879.403 321.248 878.523 322.224 877.291 322.224ZM886.894 324.192C888.926 324.192 890.254 323.152 890.254 321.52C890.254 319.712 888.67 319.232 887.246 318.864C886.126 318.56 885.79 318.432 885.79 317.984C885.79 317.696 886.19 317.488 886.766 317.488C887.47 317.488 888.334 317.76 889.086 318.224L890.03 316.56C889.118 315.952 887.95 315.536 886.766 315.536C884.814 315.536 883.518 316.656 883.534 318.224C883.55 319.856 884.862 320.32 886.558 320.736C887.406 320.96 888.014 321.12 888.014 321.632C888.014 322 887.566 322.256 886.942 322.256C885.838 322.256 884.91 321.856 884.174 321.328L883.166 322.944C884.158 323.744 885.566 324.192 886.894 324.192Z" fill="#38237C"/>
    <path d="M493.048 370.099C495.96 370.099 498.024 368.051 498.024 365.155V358.915H495.656V365.059C495.656 366.755 494.568 367.955 493.048 367.955C491.512 367.955 490.424 366.755 490.424 365.059V358.915H488.072V365.155C488.072 368.051 490.12 370.099 493.048 370.099ZM504.326 370.099C507.014 370.099 508.598 368.707 508.598 366.611C508.598 364.579 507.03 363.875 504.662 363.347C502.966 362.963 502.31 362.707 502.31 361.907C502.31 361.251 502.918 360.723 503.926 360.723C504.982 360.723 506.086 361.155 507.062 361.939L508.294 360.243C507.174 359.283 505.782 358.723 503.99 358.723C501.59 358.723 499.926 360.115 499.926 362.147C499.926 364.275 501.574 364.931 503.894 365.459C505.574 365.843 506.214 366.083 506.214 366.867C506.214 367.555 505.606 368.099 504.422 368.099C503.03 368.099 501.846 367.555 500.806 366.659L499.446 368.275C500.726 369.459 502.422 370.099 504.326 370.099ZM510.387 369.907H514.323C518.019 369.907 520.643 367.619 520.643 364.403C520.643 361.187 518.019 358.915 514.323 358.915H510.387V369.907ZM512.739 367.763V361.059H514.627C516.723 361.059 518.211 362.451 518.211 364.403C518.211 366.371 516.723 367.763 514.627 367.763H512.739ZM522.559 369.907H524.911V363.059L528.319 369.267L531.711 363.059V369.907H534.079V358.915H531.711L528.319 365.123L524.911 358.915H522.559V369.907Z" fill="#38237C"/>
    <path d="M488.384 387.695L485.68 383.855C487.184 383.327 488.176 382.047 488.176 380.415C488.176 378.239 486.416 376.703 484.032 376.703H479.088V387.695H481.44V384.127H483.184L485.696 387.695H488.384ZM481.44 378.863H483.776C484.944 378.863 485.744 379.471 485.744 380.415C485.744 381.359 484.944 381.967 483.776 381.967H481.44V378.863ZM493.772 385.823C492.796 385.823 492.076 385.215 491.804 384.319H497.772C497.772 381.199 496.252 379.231 493.66 379.231C491.244 379.231 489.404 381.039 489.404 383.535C489.404 386.079 491.324 387.887 493.788 387.887C495.004 387.887 496.428 387.375 497.164 386.607L495.676 385.087C495.228 385.519 494.428 385.823 493.772 385.823ZM493.756 381.295C494.7 381.295 495.308 381.823 495.532 382.639H491.836C492.14 381.807 492.876 381.295 493.756 381.295ZM501.042 387.695H503.138L504.69 382.495L506.226 387.695H508.322L511.138 379.423H508.85L507.282 384.575L505.65 379.423H503.714L502.082 384.575L500.514 379.423H498.226L501.042 387.695ZM516.111 379.231C514.959 379.231 513.823 379.551 512.655 380.143L513.439 381.695C514.095 381.359 514.815 381.103 515.583 381.103C516.943 381.103 517.487 381.871 517.487 382.751V382.911C516.783 382.639 516.047 382.495 515.375 382.495C513.455 382.495 511.935 383.615 511.935 385.247C511.935 386.831 513.295 387.887 515.055 387.887C515.951 387.887 516.895 387.535 517.487 386.863V387.695H519.743V382.751C519.743 380.591 518.271 379.231 516.111 379.231ZM515.583 386.271C514.783 386.271 514.191 385.855 514.191 385.183C514.191 384.511 514.863 384.015 515.711 384.015C516.351 384.015 516.959 384.127 517.487 384.319V385.087C517.327 385.855 516.479 386.271 515.583 386.271ZM524.048 380.959V379.423H521.712V387.695H524.048V383.743C524.048 382.191 525.152 381.199 526.88 381.199V379.231C525.616 379.231 524.592 379.887 524.048 380.959ZM534.403 376.511V380.607C533.747 379.743 532.787 379.231 531.619 379.231C529.411 379.231 527.811 381.023 527.811 383.551C527.811 386.095 529.411 387.887 531.619 387.887C532.787 387.887 533.747 387.375 534.403 386.511V387.695H536.739V376.511H534.403ZM532.291 385.919C530.995 385.919 530.083 384.943 530.083 383.551C530.083 382.175 530.995 381.199 532.291 381.199C533.523 381.199 534.403 382.175 534.403 383.551C534.403 384.943 533.523 385.919 532.291 385.919ZM541.894 387.887C543.926 387.887 545.254 386.847 545.254 385.215C545.254 383.407 543.67 382.927 542.246 382.559C541.126 382.255 540.79 382.127 540.79 381.679C540.79 381.391 541.19 381.183 541.766 381.183C542.47 381.183 543.334 381.455 544.086 381.919L545.03 380.255C544.118 379.647 542.95 379.231 541.766 379.231C539.814 379.231 538.518 380.351 538.534 381.919C538.55 383.551 539.862 384.015 541.558 384.431C542.406 384.655 543.014 384.815 543.014 385.327C543.014 385.695 542.566 385.951 541.942 385.951C540.838 385.951 539.91 385.551 539.174 385.023L538.166 386.639C539.158 387.439 540.566 387.887 541.894 387.887Z" fill="#38237C"/>
    <path d="M583.168 337.008L580.016 344.752L576.864 337.008H574.208L578.688 348H581.328L585.808 337.008H583.168ZM589.979 348.192C592.427 348.192 594.475 346.208 594.475 343.856C594.475 341.504 592.427 339.536 589.979 339.536C587.515 339.536 585.451 341.504 585.451 343.856C585.451 346.208 587.515 348.192 589.979 348.192ZM589.979 346.224C588.731 346.224 587.691 345.136 587.691 343.856C587.691 342.576 588.731 341.504 589.979 341.504C591.211 341.504 592.251 342.576 592.251 343.856C592.251 345.136 591.211 346.224 589.979 346.224ZM600.407 345.952C600.247 346.112 599.927 346.224 599.607 346.224C599.175 346.224 598.823 345.84 598.823 345.296V341.616H600.615V339.728H598.823V337.456H596.583V339.728H595.447V341.616H596.583V345.664C596.583 347.152 597.607 348.192 599.063 348.192C599.735 348.192 600.487 347.904 600.967 347.472L600.407 345.952ZM606.334 346.128C605.358 346.128 604.638 345.52 604.366 344.624H610.334C610.334 341.504 608.814 339.536 606.222 339.536C603.806 339.536 601.966 341.344 601.966 343.84C601.966 346.384 603.886 348.192 606.35 348.192C607.566 348.192 608.99 347.68 609.726 346.912L608.238 345.392C607.79 345.824 606.99 346.128 606.334 346.128ZM606.318 341.6C607.262 341.6 607.87 342.128 608.094 342.944H604.398C604.702 342.112 605.438 341.6 606.318 341.6ZM615.019 348.192C617.051 348.192 618.379 347.152 618.379 345.52C618.379 343.712 616.795 343.232 615.371 342.864C614.251 342.56 613.915 342.432 613.915 341.984C613.915 341.696 614.315 341.488 614.891 341.488C615.595 341.488 616.459 341.76 617.211 342.224L618.155 340.56C617.243 339.952 616.075 339.536 614.891 339.536C612.939 339.536 611.643 340.656 611.659 342.224C611.675 343.856 612.987 344.32 614.683 344.736C615.531 344.96 616.139 345.12 616.139 345.632C616.139 346 615.691 346.256 615.067 346.256C613.963 346.256 613.035 345.856 612.299 345.328L611.291 346.944C612.283 347.744 613.691 348.192 615.019 348.192Z" fill="#38237C"/>
    <path d="M240.205 215.31C238.508 215.31 237.106 213.91 237.106 212.1C237.106 211.3 237.401 210.5 238.001 209.9C251.399 196.49 251.399 174.76 238.001 161.35C236.8 160.15 236.705 158.14 237.907 156.95C239.109 155.75 241.112 155.65 242.302 156.86L242.397 156.95C258.198 172.77 258.198 198.49 242.397 214.4C241.796 215 241.1 215.31 240.205 215.31Z" fill="#86D4C9"/>
    <path d="M230.696 206.047C229.894 206.047 229.093 205.757 228.492 205.157C227.29 203.947 227.29 201.947 228.492 200.757C236.587 192.647 236.587 179.427 228.492 171.217C227.29 169.927 227.491 167.918 228.693 166.817C229.894 165.727 231.697 165.727 232.887 166.817C243.493 177.437 243.493 194.647 232.887 205.157C232.298 205.757 231.497 206.047 230.696 206.047Z" fill="#86D4C9"/>
    <path d="M221.198 196.12C219.501 196.12 218.099 194.71 218.099 193.01C218.099 192.21 218.394 191.41 218.995 190.81C221.893 187.91 221.893 183.2 218.995 180.3C217.793 179.1 217.793 177.09 218.995 175.9C220.197 174.7 222.2 174.7 223.39 175.9C228.693 181.3 228.693 189.91 223.39 195.31C222.801 195.82 222 196.12 221.198 196.12Z" fill="#86D4C9"/>
    <path d="M298.898 228C300.595 228 301.998 229.4 301.998 231.21C301.998 232.01 301.703 232.81 301.102 233.41C287.704 246.82 287.704 268.55 301.102 281.96C302.304 283.16 302.398 285.17 301.196 286.36C299.994 287.56 297.991 287.65 296.801 286.45L296.707 286.36C280.905 270.54 280.905 244.82 296.707 228.91C297.296 228.29 298.097 228 298.898 228Z" fill="#86D4C9"/>
    <path d="M308.396 237.51C309.197 237.51 309.999 237.8 310.6 238.4C311.802 239.6 311.802 241.61 310.6 242.8C302.504 250.9 302.504 264.12 310.6 272.33C311.802 273.63 311.601 275.64 310.399 276.73C309.197 277.83 307.395 277.83 306.204 276.73C295.599 266.12 295.599 248.91 306.204 238.4C306.805 237.81 307.607 237.51 308.396 237.51Z" fill="#86D4C9"/>
    <path d="M317.905 247.01C319.602 247.01 321.004 248.41 321.004 250.11C321.004 250.91 320.71 251.72 320.109 252.32C317.21 255.22 317.21 259.93 320.109 262.83C321.31 264.03 321.31 266.04 320.109 267.23C318.907 268.43 316.903 268.43 315.713 267.23C310.411 261.82 310.411 253.21 315.713 247.81C316.302 247.32 317.104 247.01 317.905 247.01Z" fill="#86D4C9"/>
    <path d="M850.117 273.303C848.417 273.303 847.017 271.903 847.017 270.093C847.017 269.293 847.307 268.493 847.907 267.893C861.307 254.483 861.307 232.753 847.907 219.343C846.707 218.143 846.617 216.133 847.817 214.943C849.017 213.753 851.017 213.653 852.207 214.853L852.307 214.943C868.107 230.763 868.107 256.483 852.307 272.393C851.807 272.993 851.007 273.303 850.117 273.303Z" fill="#86D4C9"/>
    <path d="M840.607 263.792C839.807 263.792 838.997 263.502 838.397 262.902C837.197 261.702 837.197 259.692 838.397 258.502C846.497 250.402 846.497 237.172 838.397 228.972C837.197 227.672 837.397 225.663 838.597 224.573C839.807 223.473 841.607 223.473 842.797 224.573C853.397 235.183 853.397 252.392 842.797 262.902C842.317 263.492 841.507 263.792 840.607 263.792Z" fill="#86D4C9"/>
    <path d="M831.107 254.283C829.407 254.283 828.007 252.872 828.007 251.172C828.007 250.372 828.308 249.573 828.908 248.973C831.798 246.073 831.798 241.363 828.908 238.463C827.697 237.263 827.697 235.253 828.908 234.063C830.108 232.863 832.107 232.863 833.297 234.063C838.597 239.463 838.597 248.073 833.297 253.473C832.807 253.983 832.017 254.283 831.107 254.283Z" fill="#86D4C9"/>
    <path d="M792.11 280C793.8 280 795.21 281.4 795.21 283.2C795.21 284.01 794.91 284.81 794.31 285.41C780.91 298.82 780.91 320.55 794.31 333.96C795.51 335.16 795.61 337.16 794.4 338.35C793.2 339.56 791.2 339.65 790.01 338.45L789.92 338.35C774.11 322.54 774.11 296.82 789.92 280.9C790.5 280.4 791.31 280 792.11 280Z" fill="#86D4C9"/>
    <path d="M801.6 289.61C802.41 289.61 803.21 289.9 803.81 290.51C805.01 291.71 805.01 293.71 803.81 294.9C795.71 303.01 795.71 316.23 803.81 324.44C805.01 325.73 804.81 327.74 803.61 328.84C802.41 329.93 800.6 329.93 799.41 328.84C788.81 318.22 788.81 301.01 799.41 290.51C800 289.9 800.8 289.61 801.6 289.61Z" fill="#86D4C9"/>
    <path d="M811.1 299.12C812.8 299.12 814.2 300.52 814.2 302.22C814.2 303.02 813.91 303.82 813.31 304.42C810.41 307.32 810.41 312.03 813.31 314.93C814.51 316.13 814.51 318.14 813.31 319.33C812.1 320.53 810.1 320.53 808.91 319.33C803.61 313.93 803.61 305.32 808.91 299.92C809.5 299.41 810.3 299.12 811.1 299.12Z" fill="#86D4C9"/>
    <path d="M541.255 327.057C541.255 328.757 539.852 330.157 538.05 330.157C537.248 330.157 536.447 329.857 535.846 329.257C522.448 315.847 500.743 315.847 487.345 329.257C486.143 330.467 484.14 330.558 482.95 329.358C481.748 328.148 481.654 326.147 482.856 324.957L482.95 324.858C498.752 309.047 524.451 309.047 540.347 324.858C540.96 325.448 541.255 326.257 541.255 327.057Z" fill="#86D4C9"/>
    <path d="M531.757 336.667C531.757 337.467 531.463 338.267 530.862 338.867C529.66 340.077 527.657 340.077 526.467 338.867C518.371 330.767 505.162 330.767 496.961 338.867C495.665 340.077 493.661 339.877 492.565 338.667C491.47 337.467 491.47 335.667 492.565 334.477C503.171 323.857 520.363 323.857 530.862 334.477C531.451 334.967 531.757 335.757 531.757 336.667Z" fill="#86D4C9"/>
    <path d="M522.26 346.177C522.26 347.867 520.858 349.277 519.161 349.277C518.36 349.277 517.558 348.978 516.957 348.378C514.059 345.478 509.357 345.478 506.458 348.378C505.256 349.578 503.253 349.578 502.063 348.378C500.873 347.178 500.861 345.167 502.063 343.977C507.46 338.667 516.062 338.667 521.459 343.977C521.953 344.477 522.26 345.277 522.26 346.177Z" fill="#86D4C9"/>
    <path d="M567 387C567 385.3 568.402 383.9 570.205 383.9C571.006 383.9 571.808 384.2 572.409 384.8C585.806 398.21 607.512 398.21 620.909 384.8C622.111 383.59 624.114 383.5 625.305 384.7C626.507 385.91 626.601 387.91 625.399 389.1L625.305 389.2C609.503 405.01 583.803 405.01 567.907 389.2C567.306 388.7 567 387.9 567 387Z" fill="#86D4C9"/>
    <path d="M576.509 377.5C576.509 376.69 576.804 375.89 577.405 375.29C578.607 374.09 580.61 374.09 581.8 375.29C589.895 383.39 603.104 383.39 611.306 375.29C612.602 374.09 614.605 374.29 615.701 375.49C616.797 376.69 616.797 378.5 615.701 379.69C605.096 390.31 587.904 390.31 577.405 379.69C576.898 379.1 576.509 378.39 576.509 377.5Z" fill="#86D4C9"/>
    <path d="M586.007 367.99C586.007 366.29 587.409 364.89 589.106 364.89C589.907 364.89 590.708 365.18 591.309 365.79C594.208 368.69 598.91 368.69 601.808 365.79C603.01 364.58 605.013 364.58 606.204 365.79C607.405 366.99 607.405 368.99 606.204 370.18C600.807 375.49 592.205 375.49 586.808 370.18C586.407 369.58 586.007 368.78 586.007 367.99Z" fill="#86D4C9"/>
    <path d="M666.11 556.26V540.15C666.11 540.15 672.3 526.03 670.61 525.63L630.402 511.62H633.007C638.003 511.62 642.103 507.52 642.103 502.51V501.71C642.103 496.71 638.003 492.61 633.007 492.61H612.303C611.502 477.3 604.997 462.98 593.803 452.07C582.609 441.16 567.903 434.96 552.207 434.15V428.15C554.812 426.95 556.603 424.35 556.603 421.24C556.603 417.04 553.197 413.63 549.002 413.63C544.807 413.63 541.402 417.04 541.402 421.24C541.402 424.34 543.205 426.95 545.797 428.15V434.15C530.102 434.96 515.396 441.16 504.202 452.07C492.901 462.98 486.397 477.3 485.702 492.61H464.998C460.002 492.61 455.901 496.71 455.901 501.71V502.51C455.901 507.52 460.002 511.62 464.998 511.62H467.496L433.501 522.64C431.804 523.04 430.802 524.73 431.203 526.43L427.409 531.43C431.71 525.93 428.611 537.14 429.412 537.64C429.907 537.93 432.311 537.64 432.912 537.64C433.206 537.64 434.514 536.14 434.809 536.14L435.009 542.05L431.804 556.26H412.008V578.68H686.01V556.26H666.11Z" fill="#C0DBFF"/>
    <path d="M508.703 510.62H472.705V559.46H508.703V510.62Z" fill="#77A4F2"/>
    <path d="M625.206 540.85L662.9 550.55V536.54L625.206 526.74V540.85Z" fill="#77A4F2"/>
    <path d="M556.603 437.26C556.603 437.26 593.002 445.36 593.002 497.71L609.098 495.41C609.098 495.4 605.705 445.27 556.603 437.26Z" fill="white"/>
    <path d="M543.299 437.26C543.299 437.26 506.9 445.36 506.9 497.71L490.804 495.4C490.804 495.4 494.198 445.27 543.299 437.26Z" fill="#77A4F2"/>
    <path d="M636.707 497.71H593.403V505.12H636.707V497.71Z" fill="white"/>
    <path d="M507.101 498.41H459.896V505.82H507.101V498.41Z" fill="#77A4F2"/>
    <path d="M612.398 498.81H485.501V495.6C485.501 479.19 492.1 463.68 504.096 452.06C516.091 440.45 531.999 434.04 548.896 434.04C565.794 434.04 581.702 440.44 593.697 452.06C605.693 463.66 612.291 479.19 612.291 495.6V498.81H612.398ZM492.1 492.3H605.799C604.998 478.78 599.2 466.28 589.302 456.56C578.497 446.15 564.203 440.35 549.003 440.35C533.802 440.35 519.497 446.06 508.703 456.56C498.699 466.28 492.901 478.89 492.1 492.3Z" fill="#503EAA"/>
    <path d="M583.599 495.6H577.094C577.094 480.79 573.889 466.27 568.292 455.87C562.989 446.06 555.99 440.45 548.896 440.45C541.897 440.45 534.792 446.06 529.501 455.87C523.904 466.28 520.699 480.79 520.699 495.6H514.194C514.194 479.49 517.6 464.28 523.798 452.86C530.302 440.75 539.199 434.05 548.896 434.05C558.594 434.05 567.396 440.76 573.995 452.86C580.205 464.28 583.599 479.49 583.599 495.6Z" fill="#503EAA"/>
    <path d="M552.208 424.04H545.703V495.6H552.208V424.04Z" fill="#503EAA"/>
    <path d="M628.505 562.66H469.499V505.71H628.505V562.66ZM475.898 556.26H622.001V512.22H475.898V556.26Z" fill="#503EAA"/>
    <path d="M625.3 510.62H472.705V530.54H625.3V510.62Z" fill="#77A4F2"/>
    <path d="M612.398 562.66H485.501V505.71H612.303V562.66H612.398ZM492.006 556.26H605.905V512.22H492.006V556.26Z" fill="#503EAA"/>
    <path d="M682.8 559.47H644.107V575.38H682.8V559.47Z" fill="white"/>
    <path d="M485.796 559.47H415.496V575.38H485.796V559.47Z" fill="#77A4F2"/>
    <path d="M564.498 556.96V527.03C564.498 525.83 564.993 524.63 565.794 523.83C566.69 522.93 567.797 522.53 568.999 522.53C570.201 522.53 571.403 523.02 572.204 523.83C573.1 524.72 573.5 525.83 573.5 527.03V556.96H564.498Z" fill="#503EAA"/>
    <path d="M569.105 523.33C570.107 523.33 571.108 523.73 571.803 524.43C572.499 525.12 572.899 526.03 572.899 527.03V556.17H565.299V527.03C565.299 526.03 565.7 525.14 566.395 524.43C567.196 523.63 568.104 523.33 569.105 523.33ZM569.105 521.63C567.703 521.63 566.301 522.23 565.311 523.24C564.309 524.24 563.708 525.54 563.708 527.03V556.17V557.77H565.311H572.911H574.514V556.17V527.03C574.514 525.63 573.913 524.23 572.911 523.24C571.898 522.23 570.602 521.63 569.105 521.63Z" fill="#503EAA"/>
    <path d="M584.706 556.96V527.03C584.706 525.83 585.201 524.63 586.002 523.83C586.898 522.93 588.006 522.53 589.208 522.53C590.409 522.53 591.611 523.02 592.413 523.83C593.308 524.63 593.709 525.83 593.709 527.03V556.96H584.706Z" fill="#503EAA"/>
    <path d="M589.302 523.33C590.303 523.33 591.305 523.73 592 524.43C592.695 525.12 593.096 526.03 593.096 527.03V556.17H585.496V527.03C585.496 526.03 585.896 525.14 586.592 524.43C587.299 523.63 588.3 523.33 589.302 523.33ZM589.302 521.63C587.9 521.63 586.497 522.23 585.508 523.24C584.506 524.24 583.905 525.64 583.905 527.03V556.17V557.77H585.508H593.108H594.71V556.17V527.03C594.71 525.63 594.11 524.23 593.108 523.24C592.106 522.23 590.704 521.63 589.302 521.63Z" fill="#503EAA"/>
    <path d="M524.304 556.96V527.03C524.304 525.83 524.799 524.63 525.6 523.83C526.496 522.93 527.604 522.53 528.806 522.53C530.007 522.53 531.209 523.02 532.011 523.83C532.906 524.72 533.307 525.83 533.307 527.03V556.96H524.304Z" fill="#503EAA"/>
    <path d="M528.9 523.33C529.901 523.33 530.903 523.73 531.598 524.43C532.293 525.12 532.694 526.03 532.694 527.03V556.17H525.094V527.03C525.094 526.03 525.494 525.14 526.19 524.43C526.897 523.63 527.804 523.33 528.9 523.33ZM528.9 521.63C527.498 521.63 526.095 522.23 525.105 523.24C524.104 524.24 523.503 525.54 523.503 527.03V556.17V557.77H525.105H532.706H534.308V556.17V527.03C534.308 525.63 533.707 524.23 532.706 523.24C531.598 522.23 530.302 521.63 528.9 521.63Z" fill="#503EAA"/>
    <path d="M544.395 556.96V527.03C544.395 525.83 544.89 524.63 545.691 523.83C546.587 522.93 547.694 522.53 548.896 522.53C550.098 522.53 551.3 523.02 552.101 523.83C552.997 524.63 553.398 525.83 553.398 527.03V556.96H544.395Z" fill="#503EAA"/>
    <path d="M549.002 523.33C550.004 523.33 551.005 523.73 551.701 524.43C552.396 525.12 552.797 526.03 552.797 527.03V556.17H545.196V527.03C545.196 526.03 545.597 525.14 546.292 524.43C546.999 523.63 548.001 523.33 549.002 523.33ZM549.002 521.63C547.6 521.63 546.198 522.23 545.208 523.24C544.206 524.24 543.605 525.64 543.605 527.03V556.17V557.77H545.208H552.808H554.411V556.17V527.03C554.411 525.63 553.81 524.23 552.808 523.24C551.795 522.23 550.405 521.63 549.002 521.63Z" fill="#503EAA"/>
    <path d="M504.096 556.96V527.03C504.096 525.83 504.591 524.63 505.392 523.83C506.287 522.93 507.395 522.53 508.597 522.53C509.799 522.53 511.001 523.02 511.802 523.83C512.698 524.72 513.098 525.83 513.098 527.03V556.96H504.096Z" fill="#503EAA"/>
    <path d="M508.703 523.33C509.705 523.33 510.706 523.73 511.401 524.43C512.097 525.12 512.497 526.03 512.497 527.03V556.17H504.897V527.03C504.897 526.03 505.298 525.14 505.993 524.43C506.7 523.63 507.701 523.33 508.703 523.33ZM508.703 521.63C507.301 521.63 505.898 522.23 504.909 523.24C503.907 524.24 503.306 525.54 503.306 527.03V556.17V557.77H504.909H512.509H514.112V556.17V527.03C514.112 525.63 513.511 524.23 512.509 523.24C511.496 522.23 510.105 521.63 508.703 521.63Z" fill="#503EAA"/>
    <path d="M633.007 499.01C634.503 499.01 635.705 500.21 635.705 501.71V502.51C635.705 504.01 634.503 505.21 633.007 505.21H464.998C463.502 505.21 462.3 504.01 462.3 502.51V501.71C462.3 500.21 463.502 499.01 464.998 499.01H633.007ZM633.007 492.61H464.998C460.002 492.61 455.901 496.71 455.901 501.71V502.51C455.901 507.51 460.002 511.62 464.998 511.62H632.995C637.991 511.62 642.092 507.51 642.092 502.51V501.71C642.104 496.71 638.003 492.61 633.007 492.61Z" fill="#503EAA"/>
    <path d="M686 578.68H411.996V556.26H686V578.68ZM418.406 572.17H679.5V562.67H418.406V572.17Z" fill="#503EAA"/>
    <path d="M472.705 526.63L434.809 536.05C431.51 536.85 428.104 534.75 427.409 531.34C426.714 528.13 428.705 525.03 431.804 524.23L472.705 513.52V526.63Z" fill="#77A4F2"/>
    <path d="M433.301 539.44C431.604 539.44 429.895 538.95 428.399 538.04C426.195 536.63 424.793 534.54 424.204 532.04C423.202 527.23 426.207 522.42 430.909 521.13L471.809 510.42C472.811 510.12 473.812 510.42 474.613 511.02C475.415 511.62 475.91 512.62 475.91 513.62V526.63C475.91 528.13 474.908 529.44 473.506 529.74L435.61 539.15C434.797 539.44 433.996 539.44 433.301 539.44ZM469.405 517.82L432.499 527.53C431.003 527.93 430.096 529.33 430.402 530.83C430.602 531.63 431.003 532.24 431.698 532.64C432.393 533.04 433.1 533.13 433.902 533.04L469.405 524.23V517.82Z" fill="#503EAA"/>
    <path d="M472.705 559.47H434.998V536.54L472.705 526.74V559.47Z" fill="#77A4F2"/>
    <path d="M475.898 562.66H431.792V534.04L475.898 522.53V562.66ZM438.202 556.26H469.405V530.94L438.202 539.04V556.26Z" fill="#503EAA"/>
    <path d="M625.206 526.63L663.1 536.05C666.4 536.85 669.81 534.75 670.5 531.34C671.2 528.13 669.21 525.03 666.11 524.23L625.206 513.52V526.63Z" fill="white"/>
    <path d="M664.6 539.44C663.8 539.44 663.1 539.35 662.3 539.15L624.405 529.74C623.003 529.33 622.001 528.13 622.001 526.63V513.62C622.001 512.62 622.496 511.73 623.297 511.02C624.098 510.31 625.1 510.22 626.102 510.42L667 521.13C671.8 522.42 674.7 527.13 673.71 532.04C673.21 534.54 671.7 536.64 669.51 538.04C668.1 539.04 666.4 539.44 664.6 539.44ZM628.505 524.13L664.01 532.94C664.81 533.14 665.51 533.04 666.21 532.54C666.91 532.14 667.31 531.45 667.51 530.74C667.8 529.24 666.91 527.84 665.41 527.44L628.505 517.73V524.13Z" fill="#503EAA"/>
    <path d="M666.11 562.66H622.001V522.53L666.11 534.04V562.66ZM628.505 556.26H659.71V539.04L628.505 530.94V556.26Z" fill="#503EAA"/>
    <path d="M549.002 428.85C553.2 428.85 556.603 425.44 556.603 421.24C556.603 417.04 553.2 413.63 549.002 413.63C544.805 413.63 541.402 417.04 541.402 421.24C541.402 425.44 544.805 428.85 549.002 428.85Z" fill="#503EAA"/>
    <path d="M454.699 550.96C457.628 550.96 460.002 548.59 460.002 545.66C460.002 542.73 457.628 540.35 454.699 540.35C451.771 540.35 449.397 542.73 449.397 545.66C449.397 548.59 451.771 550.96 454.699 550.96Z" fill="#503EAA"/>
    <path d="M644.107 550.96C647.035 550.96 649.409 548.59 649.409 545.66C649.409 542.73 647.035 540.35 644.107 540.35C641.178 540.35 638.804 542.73 638.804 545.66C638.804 548.59 641.178 550.96 644.107 550.96Z" fill="#503EAA"/>
    <path d="M49.1951 205.94L70.5001 221.15L98.8981 188.62C78.9011 187.42 58.5041 198.02 49.1951 205.94Z" fill="#77A4F2"/>
    <path d="M47.404 249.38C51.01 257.08 48.205 266.09 41.006 269.39C32.31 273.5 15.801 272.4 6.60999 268.39C9.41399 258.68 19.206 245.37 28.009 241.37C35.102 238.07 43.798 241.67 47.404 249.38Z" fill="#FF8486"/>
    <path d="M177.906 192.62L190.208 186.82L187.804 181.82L175.502 187.62L177.906 192.62Z" fill="#503EAA"/>
    <path d="M53.496 206.43C53.496 206.43 69.699 193.62 87.892 191.32C99.393 189.83 87.892 199.73 87.892 199.73C87.892 199.73 73.705 196.73 53.496 206.43Z" fill="white"/>
    <path d="M47.498 208.44C47.098 208.14 46.803 207.84 46.603 207.44C46.402 207.03 46.308 206.54 46.202 206.14C46.202 205.64 46.296 205.24 46.402 204.84C46.603 204.44 46.897 204.04 47.204 203.74C57.302 195.24 72.409 188.43 87.503 185.72H87.798L88.894 191.73H88.599C76.203 193.93 63.394 199.23 54.297 205.94L72.503 218.95L69.003 223.95L47.498 208.44Z" fill="#503EAA"/>
    <path d="M87.704 185.92L88.705 191.43C76.109 193.73 63.1 199.13 54.003 205.84L72.303 218.85L69.097 223.36L47.793 208.14C47.498 207.94 47.192 207.54 46.992 207.25C46.791 206.85 46.697 206.44 46.697 206.04C46.697 205.64 46.791 205.24 46.897 204.84C47.098 204.44 47.298 204.14 47.593 203.84C57.503 195.32 72.503 188.62 87.704 185.92ZM88.104 185.32L87.609 185.42C72.409 188.12 57.314 194.92 47.204 203.44C46.803 203.73 46.509 204.13 46.308 204.64C46.108 205.14 46.014 205.64 46.014 206.14C46.014 206.63 46.214 207.14 46.414 207.54C46.615 207.94 47.015 208.34 47.416 208.64L68.72 223.85L69.121 224.15L69.416 223.75L72.621 219.24L72.915 218.84L72.515 218.55L54.816 205.94C63.913 199.43 76.521 194.23 88.717 192.02L89.212 191.93L89.118 191.43L88.116 185.92L88.104 185.32Z" fill="#503EAA"/>
    <path d="M201.603 176.71C199.705 172.61 194.804 170.8 190.703 172.81C186.602 174.71 184.799 179.61 186.803 183.72C188.7 187.82 193.602 189.63 197.702 187.62C201.803 185.62 203.5 180.82 201.603 176.71Z" fill="#503EAA"/>
    <path d="M55.9 249.78C59.895 256.69 69.298 263.89 69.298 263.89L78.901 242.48L70.9 222.86L51.399 222.66C45.095 225.75 51.906 242.87 55.9 249.78Z" fill="#77A4F2"/>
    <path d="M72.998 231.46L51.894 239.47L50.291 230.86L71.395 227.96L72.998 231.46Z" fill="white"/>
    <path d="M69.805 266.29C66.706 266.29 58.61 264.48 50.704 247.77C46.909 239.67 45.307 232.86 46.108 227.45C46.909 221.74 49.902 219.84 51.104 219.24C53.508 218.14 61.002 217.94 64.101 217.94C66.399 217.94 68.697 218.04 70.7 218.14H70.995L70.594 224.25H70.3C68.296 224.16 66.199 224.05 64.101 224.05C58.599 224.05 54.498 224.45 53.697 224.75C52.801 225.15 49.301 230.55 56.301 245.17C63.206 259.78 69.204 260.18 69.899 260.18C70.193 260.18 70.394 260.09 70.5 260.09C71.596 259.48 76.804 254.08 81.506 247.57L81.706 247.37L86.608 250.98L86.408 251.18C82.613 256.38 75.908 264.3 73.104 265.59C72.102 266.09 70.995 266.29 69.805 266.29Z" fill="#503EAA"/>
    <path d="M64.196 218.25C66.494 218.25 68.791 218.35 70.7 218.45L70.406 224.05C68.202 223.96 66.105 223.85 64.101 223.85C58.705 223.85 54.498 224.25 53.602 224.55C52.401 225.15 49.007 230.66 56.006 245.37C62.11 258.28 67.707 260.58 69.805 260.58C70.099 260.58 70.3 260.58 70.5 260.49C71.596 259.79 76.898 254.38 81.6 247.88L86.101 251.18C82.307 256.38 75.602 264.3 72.904 265.59C72.102 265.99 71.007 266.29 69.805 266.29C65.009 266.29 57.809 262.38 50.904 247.97C42.302 229.86 47.004 221.65 51.199 219.75C53.202 218.55 58.799 218.25 64.196 218.25ZM64.196 217.74C61.097 217.74 53.496 217.84 51.093 219.04C46.792 221.05 41.795 229.46 50.598 247.97C58.493 264.79 66.8 266.58 69.899 266.58C71.101 266.58 72.303 266.38 73.198 265.89C76.097 264.48 82.896 256.38 86.596 251.37L86.891 250.97L86.49 250.67L81.989 247.37L81.588 247.08L81.294 247.48C76.498 254.08 71.289 259.39 70.394 259.99C70.394 259.99 70.3 259.99 69.993 259.99C69.392 259.99 63.489 259.59 56.595 245.08C52.895 237.27 52.294 232.37 52.401 229.57C52.495 226.27 53.697 225.07 54.003 224.97C54.698 224.68 58.799 224.28 64.302 224.28C66.399 224.28 68.497 224.37 70.5 224.48H70.995V223.98L71.289 218.47V217.98H70.794C68.697 217.74 66.505 217.74 64.196 217.74Z" fill="#503EAA"/>
    <path d="M70.606 221.15L83.909 249.38C109.515 258.08 173.204 240.16 175.408 188.82C134.295 157.99 80.103 195.83 70.606 221.15Z" fill="#C0DBFF"/>
    <path d="M139.398 241.17C110.799 254.68 85.194 254.78 85.194 254.78L76.191 235.77C130.796 229.66 170.294 196.12 173.393 189.12C170.895 205.94 167.996 227.65 139.398 241.17Z" fill="#77A4F2"/>
    <path d="M111.895 185.82C82.896 199.53 70.9 219.75 70.9 219.75L74.695 227.76C81.399 217.34 90.096 206.23 117.492 193.33C144.889 180.42 162.587 187.33 173.593 191.83C166.7 182.31 140.906 172.1 111.895 185.82Z" fill="white"/>
    <path d="M98.603 254.48C92.606 254.48 87.209 253.68 82.908 252.28L82.012 251.98L81.411 251.29C78.112 246.98 75.213 242.28 72.809 237.37C68.614 228.46 67.507 221.95 67.507 221.66L67.413 220.86L67.707 220.06C73.41 204.84 94.809 184.72 120.709 177.22C127.508 175.21 134.307 174.21 140.906 174.21C154.21 174.21 166.511 178.32 177.211 186.42L178.507 187.42L178.413 189.02C177.317 214.45 162.116 229.96 149.614 238.57C145.82 241.18 141.813 243.48 137.618 245.38C125.399 251.18 111.2 254.48 98.603 254.48ZM85.701 246.77C89.306 247.87 93.902 248.47 98.804 248.47C114.806 248.47 132.504 242.87 146.209 233.56C157.214 226.06 170.706 212.44 172.309 190.42C162.906 183.81 152.407 180.4 140.906 180.4C134.908 180.4 128.71 181.3 122.5 183.1C98.297 190.22 79.302 208.13 73.799 221.54C74.801 226.14 76.403 230.65 78.395 234.86C80.398 238.96 82.896 242.97 85.701 246.77Z" fill="#503EAA"/>
    <path d="M140.906 174.41C152.206 174.41 164.909 177.42 177.105 186.52L178.307 187.42L178.212 188.92C177.117 214.24 162.01 229.75 149.508 238.27C145.714 240.87 141.707 243.17 137.607 245.07C124.503 251.27 110.41 254.18 98.709 254.18C92.712 254.18 87.315 253.37 83.108 251.97L82.307 251.68L81.812 250.98C78.513 246.67 75.614 241.97 73.21 237.06C69.015 228.25 68.014 221.65 67.907 221.45L67.813 220.75L68.108 220.06C73.811 204.95 95.104 184.83 120.909 177.31C126.495 175.71 133.4 174.41 140.906 174.41ZM98.804 248.68C113.003 248.68 131.302 243.97 146.303 233.67C157.497 225.96 171.001 212.25 172.497 190.12C161.798 182.51 150.698 180.01 140.8 180.01C133.895 180.01 127.602 181.22 122.3 182.71C98.603 189.63 79.102 207.54 73.399 221.35C74.4 225.95 76.003 230.46 78.1 234.76C80.198 239.07 82.696 243.07 85.594 246.97C89.306 248.17 93.796 248.68 98.804 248.68ZM140.906 173.9V174.4V173.9C134.307 173.9 127.508 174.91 120.603 176.91C94.703 184.41 73.198 204.73 67.401 219.95L67.106 220.64V220.74V220.83L67.2 221.53C67.2 221.82 68.296 228.33 72.503 237.35C74.907 242.25 77.9 246.96 81.199 251.36L81.694 252.05L81.788 252.15H81.989L82.79 252.44C87.091 253.94 92.594 254.65 98.592 254.65C111.188 254.65 125.493 251.35 137.795 245.54C141.99 243.54 145.996 241.24 149.791 238.63C162.387 230.02 177.588 214.41 178.696 188.88L178.79 187.39V187.09L178.589 186.89L177.388 185.99C166.606 178.01 154.304 173.9 140.906 173.9ZM74 221.45C79.502 208.13 98.403 190.32 122.5 183.32C128.698 181.51 134.896 180.62 140.906 180.62C152.301 180.62 162.811 183.92 172.109 190.52C170.506 212.34 157.108 225.86 146.209 233.36C132.599 242.66 114.9 248.28 99.004 248.28C94.102 248.28 89.707 247.68 86.101 246.67C83.297 242.97 80.905 238.87 78.795 234.76C76.604 230.46 75.001 225.95 74 221.45Z" fill="#503EAA"/>
    <path d="M67.896 278.8C82.99 278.31 133.093 256.09 144.9 218.14C108.195 242.57 78.501 241.46 78.501 241.46L67.896 278.8Z" fill="#77A4F2"/>
    <path d="M126.895 232.66C126.895 232.66 117.091 255.28 73.493 275C91.993 273.8 132.292 255.79 140.694 226.26C142.002 221.65 126.895 232.66 126.895 232.66Z" fill="white"/>
    <path d="M67.896 281.81C67.495 281.81 67 281.72 66.599 281.52C66.199 281.31 65.798 281.02 65.504 280.62C65.209 280.22 65.009 279.82 64.903 279.32C64.797 278.83 64.808 278.32 64.997 277.92L75.602 240.59C75.802 239.99 76.203 239.39 76.698 238.99C77.193 238.58 77.9 238.38 78.501 238.38C79.703 238.38 108.101 237.98 144.5 217.77C144.995 217.57 145.502 217.37 145.996 217.37C146.091 217.37 146.197 217.37 146.291 217.37C146.892 217.46 147.493 217.66 147.988 218.06C148.483 218.46 148.789 218.96 148.989 219.56C149.19 220.16 149.19 220.76 148.989 221.36C142.285 242.98 123.985 257.8 109.786 266.3C105.791 268.71 101.691 270.9 97.484 272.91C86.396 278.11 74.801 281.61 67.896 281.81ZM72.102 275.21C89.507 272.1 126.601 254.99 140.199 226.95C110.799 241.77 87.598 244.07 80.905 244.38L72.102 275.21Z" fill="#503EAA"/>
    <path d="M145.996 217.65C146.091 217.65 146.197 217.65 146.197 217.65C146.798 217.65 147.293 217.94 147.693 218.25C148.094 218.65 148.388 219.05 148.589 219.65C148.789 220.15 148.789 220.75 148.589 221.26C141.884 242.78 123.69 257.49 109.586 266.1C105.591 268.51 101.585 270.7 97.39 272.7C85.394 278.41 74.294 281.52 67.99 281.72H67.896C67.495 281.72 67.094 281.62 66.694 281.42C66.293 281.22 65.999 280.93 65.692 280.62C65.398 280.32 65.197 279.92 65.197 279.42C65.103 279.01 65.103 278.52 65.292 278.12L75.897 240.79C76.097 240.19 76.392 239.69 76.898 239.29C77.393 238.89 77.994 238.69 78.595 238.69C78.89 238.69 107.9 238.49 144.794 217.97C145.101 217.74 145.501 217.65 145.996 217.65ZM140.706 226.35C111.011 241.46 87.609 243.77 80.61 244.17L71.713 275.61C88.705 272.69 127.096 255.49 140.706 226.35ZM145.996 217.05C145.395 217.05 144.901 217.14 144.394 217.45C107.995 237.66 79.691 238.07 78.489 238.07C77.794 238.07 77.087 238.27 76.486 238.76C75.885 239.16 75.484 239.76 75.284 240.46L64.679 277.79C64.584 278.28 64.478 278.79 64.585 279.29C64.691 279.78 64.879 280.29 65.185 280.69C65.48 281.09 65.881 281.39 66.387 281.69C66.788 281.89 67.283 281.99 67.79 281.99H67.884C74.883 281.79 86.184 278.28 97.484 272.98C101.679 270.97 105.779 268.78 109.786 266.37C123.985 257.76 142.285 242.95 149.084 221.23C149.284 220.63 149.284 219.94 149.084 219.34C148.883 218.73 148.483 218.13 147.988 217.73C147.493 217.33 146.892 217.04 146.185 217.04C146.197 217.05 146.102 217.05 145.996 217.05ZM80.999 244.67C87.904 244.27 110.693 241.86 139.504 227.56C125.8 254.88 89.801 271.7 72.409 274.9L80.999 244.67Z" fill="#503EAA"/>
    <path d="M129.7 170.4C121.499 167.39 112.402 167.8 104.495 171.5C96.6 175.2 90.496 181.91 87.492 190.11C84.487 198.32 84.887 207.42 88.587 215.34C96.282 231.85 155.883 203.93 148.188 187.52C144.606 179.51 137.901 173.41 129.7 170.4Z" fill="#77A4F2"/>
    <path d="M139.999 193.13C136.794 186.42 131.102 181.32 124.197 178.81C117.292 176.31 109.692 176.61 103.093 179.71C96.494 182.81 91.392 188.41 88.894 195.32C86.396 202.23 86.69 209.84 89.695 216.65C96.2 230.66 146.597 207.14 139.999 193.13Z" fill="#503EAA"/>
    <path d="M99.605 223.36C92.7 223.36 87.904 221.06 85.807 216.55C81.812 207.85 81.305 198.13 84.605 189.13C87.81 180.12 94.408 172.91 103.01 168.81L103.105 168.72C107.406 166.71 112.001 165.61 116.703 165.41C117.198 165.41 117.799 165.41 118.305 165.41C122.5 165.41 126.601 166.11 130.607 167.62C135.109 169.22 139.103 171.72 142.603 174.92C146.103 178.13 148.907 181.92 150.898 186.23C155.694 196.54 141.802 208.85 125.8 216.35L125.399 216.55C116.102 220.85 106.699 223.36 99.605 223.36ZM118.4 171.51C114.004 171.51 109.798 172.41 105.803 174.32L105.709 174.41C98.509 177.82 93.1119 183.82 90.4139 191.32C87.7149 198.83 88.116 206.94 91.415 214.15C92.417 216.25 95.21 217.45 99.617 217.45C105.815 217.45 114.323 215.15 122.913 211.14L123.313 210.94C138.314 203.83 148.011 194.12 145.513 188.81C142.108 181.61 136.11 176.1 128.616 173.4C125.305 172.1 121.899 171.51 118.4 171.51Z" fill="#503EAA"/>
    <path d="M118.4 165.7C122.595 165.7 126.695 166.39 130.596 167.8C134.991 169.4 139.091 171.9 142.497 175C145.996 178.21 148.801 182.01 150.698 186.22C155.494 196.43 141.601 208.53 125.694 216.05L125.293 216.25C116.491 220.35 107.088 223.05 99.487 223.05C93.183 223.05 88.187 221.15 85.983 216.45C81.989 207.84 81.5881 198.13 84.7811 189.23C87.9871 180.32 94.585 173.11 103.081 169.01L103.175 168.92C107.37 166.91 111.978 165.81 116.679 165.61C117.398 165.7 117.905 165.7 118.4 165.7ZM99.6051 217.54C105.603 217.54 114.11 215.34 123.007 211.23L123.408 211.03C138.502 203.92 148.306 194.12 145.702 188.61C142.296 181.41 136.204 175.8 128.698 173C125.399 171.79 121.899 171.19 118.4 171.19C114.004 171.19 109.703 172.09 105.697 174L105.603 174.09C98.403 177.5 92.806 183.6 90.108 191.11C87.409 198.61 87.8101 206.82 91.1091 214.13C92.2051 216.45 95.3041 217.54 99.6051 217.54ZM118.4 165.09C117.905 165.09 117.304 165.09 116.797 165.09C112.001 165.29 107.394 166.39 103.093 168.5L102.999 168.6C94.302 172.7 87.704 180 84.404 189.12C81.105 198.24 81.6 208.04 85.606 216.74C87.704 221.25 92.6061 223.65 99.6051 223.65C106.71 223.65 116.208 221.15 125.599 216.74L126 216.54C142.096 208.93 156.201 196.53 151.299 186.02C149.296 181.71 146.503 177.81 142.897 174.61C139.398 171.4 135.297 168.9 130.796 167.31C126.801 165.9 122.701 165.09 118.4 165.09ZM99.6051 217.05C95.4101 217.05 92.6061 215.95 91.6041 213.95C88.3051 206.83 87.904 198.73 90.602 191.32C93.301 183.92 98.6981 177.91 105.803 174.61L105.897 174.52C109.798 172.71 114.099 171.71 118.4 171.71C121.899 171.71 125.305 172.31 128.498 173.52C135.898 176.22 141.896 181.62 145.195 188.82C146.291 191.23 144.795 194.83 140.8 198.84C136.699 202.94 130.395 207.14 123.101 210.55L122.701 210.75C114.205 214.75 105.803 217.05 99.6051 217.05Z" fill="#503EAA"/>
    <path d="M69.899 264.59C66.493 265.09 59.8 252.68 62.204 255.49C64.608 258.29 71.101 252.98 74 246.88C74.106 246.88 73.304 264.19 69.899 264.59Z" fill="#503EAA"/>
    <path d="M522.501 120.36L479.503 178.12C473.8 185.72 485.101 203.84 504.803 218.45C524.398 233.17 545.008 238.77 550.699 231.17L593.803 173.41C599.506 165.8 588.206 147.69 568.504 133.07C548.802 118.46 528.098 112.75 522.501 120.36Z" fill="#C0DBFF"/>
    <path d="M595.031 174.32C600.711 166.7 589.163 148.46 569.238 133.59C549.313 118.72 528.556 112.85 522.876 120.47C517.196 128.09 528.744 146.33 548.669 161.2C568.594 176.07 589.351 181.95 595.031 174.32Z" fill="white"/>
    <path d="M349.402 74.7204L389.702 20.6604C392.106 17.4504 396.607 16.8604 399.8 19.1604L506.5 98.8303C509.705 101.24 510.294 105.75 507.996 108.94L467.697 163C465.293 166.2 460.791 166.79 457.598 164.49L350.899 84.82C347.706 82.32 346.999 77.8204 349.402 74.7204Z" fill="#C0DBFF"/>
    <path d="M396.772 33.0298L355.465 88.48L463.782 169.32L505.089 113.87L396.772 33.0298Z" fill="#77A4F2"/>
    <path d="M566.407 236.97L606.305 182.92C608.709 179.71 613.104 179.12 616.31 181.42L722.91 260.39C726.12 262.8 726.71 267.2 724.41 270.41L684.51 324.46C682.11 327.67 677.71 328.26 674.51 325.96L567.903 246.98C564.698 244.67 564.003 240.16 566.407 236.97Z" fill="#C0DBFF"/>
    <path d="M616.509 197.06L575.522 252.49L683.72 332.64L724.7 277.2L616.509 197.06Z" fill="#77A4F2"/>
    <path d="M484.099 204.44L528.9 144.28L519.096 128.57L474.295 188.72L484.099 204.44Z" fill="white"/>
    <path d="M561.905 170.11L520.805 225.36L544.407 232.37C544.407 232.37 555.908 223.36 559.608 217.85C563.308 212.34 587.911 180.01 587.911 180.01L561.905 170.11Z" fill="#77A4F2"/>
    <path d="M511.496 111.65L471.196 165.71C467.296 170.91 460.002 172.02 454.794 168.11L348.094 88.4397C342.898 84.5397 341.79 77.2296 345.691 72.0296L385.99 17.97C389.89 12.77 397.184 11.6596 402.393 15.5696L509.092 95.24C514.3 99.03 515.396 106.35 511.496 111.65C511.496 111.65 511.602 111.65 511.496 111.65ZM352.996 77.4197C352.101 78.6197 352.395 80.2199 353.491 81.1199L460.191 160.79C461.392 161.69 462.995 161.49 463.891 160.29L504.19 106.24C505.085 105.04 504.791 103.43 503.695 102.54L396.996 22.7596C395.794 21.8596 394.191 22.0696 393.296 23.2596L352.996 77.4197Z" fill="#503EAA"/>
    <path d="M597.303 176.2L589.997 170.8C593.002 166.7 584.895 151.08 565.699 136.78C546.504 122.46 529.194 119.06 526.095 123.17L518.79 117.76C527.285 106.25 551.595 115.06 571.085 129.57C590.598 143.98 605.799 164.71 597.303 176.2Z" fill="#503EAA"/>
    <path d="M592.337 166C596.363 160.6 587.21 146.95 571.891 135.52C556.573 124.09 540.891 119.2 536.865 124.6C532.838 130.01 541.992 143.66 557.31 155.09C572.628 166.52 588.31 171.41 592.337 166Z" fill="#C0DBFF"/>
    <path d="M597.303 176.2C588.807 187.72 564.498 178.91 545.008 164.4C525.518 149.89 510.306 129.17 518.813 117.66L526.119 123.06C523.114 127.06 531.315 142.78 550.416 157.09C569.612 171.4 587.016 174.71 590.021 170.8L597.303 176.2Z" fill="#503EAA"/>
    <path d="M514.1 190.03C508.302 185.03 503.2 179.21 499.099 172.71L490.003 184.92C494.198 191.32 499.206 197.13 505.003 202.14L514.1 190.03Z" fill="#503EAA"/>
    <path d="M487.505 202.53L467.107 212.84C467.107 212.84 465.41 223.45 476.204 234.46C487.01 245.47 496.507 249.36 496.507 249.36L514.206 225.65L487.505 202.53Z" fill="#C0DBFF"/>
    <path d="M526.001 174.01C520.204 169.01 515.101 163.2 510.906 156.7L505.71 163.61C509.905 170.01 514.913 175.82 520.71 180.83L526.001 174.01Z" fill="#503EAA"/>
    <path d="M509.905 223.65L493.903 247.77C493.903 247.77 495.505 249.98 505.297 253.48C515.101 256.98 526.402 256.98 528.994 250.47C531.598 243.96 531.197 235.86 526.897 232.56C522.596 229.26 509.905 223.65 509.905 223.65Z" fill="#77A4F2"/>
    <path d="M488.895 206.74L467.897 222.85L467.001 204.33L483.404 200.23L488.895 206.74Z" fill="white"/>
    <path d="M597.303 176.2L554.305 233.96C545.809 245.47 521.5 236.66 502.01 222.15C482.508 207.64 467.308 186.93 475.815 175.41L518.919 117.66C527.415 106.15 551.724 114.96 571.214 129.46C590.598 143.98 605.799 164.71 597.303 176.2ZM483.003 180.91C479.998 184.91 488.2 200.63 507.301 214.94C526.496 229.25 543.806 232.65 546.799 228.55L589.903 170.79C592.907 166.69 584.8 151.07 565.605 136.76C546.41 122.45 529.1 119.05 526.107 123.15L483.003 180.91Z" fill="#503EAA"/>
    <path d="M576.305 152.49C572.605 157.49 563.107 156.79 555.106 150.88C547.105 144.97 543.712 136.07 547.506 130.96L552.302 124.56C556.603 128.76 561.104 132.77 565.9 136.47C572.805 141.58 575.197 142.78 580.9 146.48L576.305 152.49Z" fill="#503EAA"/>
    <path d="M528.605 202.73L523.303 209.94C521.406 212.54 522.607 216.45 526.107 218.64C529.607 220.83 533.908 220.54 535.911 217.94L541.308 210.74C543.205 208.13 542.003 204.23 538.503 202.03C535.004 199.83 530.502 200.14 528.605 202.73Z" fill="#503EAA"/>
    <path d="M552.45 194.54C553.787 191.8 551.897 188.13 548.227 186.33C544.557 184.53 540.498 185.28 539.161 188.02C537.823 190.75 539.714 194.42 543.383 196.22C547.053 198.02 551.112 197.27 552.45 194.54Z" fill="#503EAA"/>
    <path d="M532.706 253.28C524.505 264.3 502.905 261.49 483.51 247.08C464.114 232.56 455.312 212.65 463.407 201.63C465.811 198.43 478.502 194.13 483.404 193.42L484.606 202.44C479.704 203.44 474.908 205.14 470.407 207.44C466.612 213.55 473.105 228.05 488.812 239.76C504.614 251.57 520.31 253.57 525.011 248.27C526.013 243.27 526.213 238.25 525.813 233.25L534.815 231.85C535.605 236.77 535.098 250.07 532.706 253.28Z" fill="#503EAA"/>
    <path d="M371.823 44.96L367.759 50.4102L486.014 138.67L490.078 133.22L371.823 44.96Z" fill="#503EAA"/>
    <path d="M421.055 34.9102L372.21 100.47L377.661 104.54L426.505 38.98L421.055 34.9102Z" fill="#503EAA"/>
    <path d="M450.598 56.9199L401.754 122.49L407.205 126.56L456.049 60.9902L450.598 56.9199Z" fill="#503EAA"/>
    <path d="M480.175 79.0801L431.331 144.65L436.782 148.71L485.626 83.1499L480.175 79.0801Z" fill="#503EAA"/>
    <path d="M731.8 276L691.5 330.05C687.6 335.25 680.31 336.36 675.1 332.45L568.398 252.78C563.201 248.88 562.2 241.57 565.994 236.37L606.294 182.31C610.194 177.11 617.488 176 622.696 179.91L729.4 259.58C734.6 263.49 735.7 270.79 731.8 276C731.8 276 731.91 276 731.8 276ZM573.3 241.88C572.404 243.08 572.605 244.68 573.795 245.58L680.49 325.25C681.7 326.14 683.3 325.94 684.19 324.75L724.49 270.7C725.39 269.5 725.19 267.89 724 267L617.299 187.22C616.097 186.32 614.495 186.52 613.599 187.72L573.3 241.88Z" fill="#503EAA"/>
    <path d="M592.165 209.38L588.101 214.84L706.36 303.1L710.42 297.64L592.165 209.38Z" fill="#503EAA"/>
    <path d="M637.419 197.03L588.938 262.59L594.403 266.64L642.884 201.08L637.419 197.03Z" fill="#503EAA"/>
    <path d="M666.89 218.92L618.41 284.48L623.875 288.53L672.36 222.97L666.89 218.92Z" fill="#503EAA"/>
    <path d="M700.52 243.48L651.68 309.05L657.13 313.12L705.98 247.55L700.52 243.48Z" fill="#503EAA"/>
    <path d="M495.071 131.28L485.569 144.03L496.791 152.41L506.294 139.65L495.071 131.28Z" fill="#503EAA"/>
    <path d="M581.182 195.51L571.68 208.26L582.902 216.64L592.405 203.88L581.182 195.51Z" fill="#503EAA"/>
    <path d="M540.801 44.1897C521.5 70.0097 532.906 111.15 566.301 135.97C599.601 160.8 642.198 160.09 661.5 134.17C670.4 122.26 650.493 92.5399 617.193 67.5999C583.799 42.7899 549.603 32.2797 540.801 44.1897Z" fill="#C0DBFF"/>
    <path d="M567.302 132.27C549.297 116.86 547.506 93.1402 549.002 78.7202L534.297 56.0098C534.297 56.0998 522.796 104.34 567.302 132.27Z" fill="white"/>
    <path d="M569.4 133.88C589.302 146.68 612.504 141.68 625.901 136.17L651.801 143.78C651.695 143.78 608.898 168.5 569.4 133.88Z" fill="#77A4F2"/>
    <path d="M665 136.98C652.803 153.29 613.293 137.58 582.303 114.36C551.3 91.2399 524.905 57.8002 537.007 41.4902L544.313 46.8901C538.81 54.3901 552.608 80.82 587.711 107.04C622.814 133.26 652.108 138.97 657.72 131.47L665 136.98Z" fill="#503EAA"/>
    <path d="M654.44 137.55C661.67 127.84 645.494 103.52 618.306 83.23C591.119 62.94 563.216 54.3598 555.984 64.0698C548.752 73.7798 564.928 98.1001 592.116 118.39C619.303 138.68 647.206 147.26 654.44 137.55Z" fill="#503EAA"/>
    <path d="M665 136.98C644.295 164.8 598.693 166 563.496 139.68C528.193 113.35 516.398 69.3104 537.101 41.4904C549.297 25.1804 588.807 40.89 619.797 64.11C650.8 87.12 677.21 120.56 665 136.98ZM544.395 46.8903C526.696 70.7203 537.69 109.05 568.893 132.37C600.095 155.68 639.994 155.28 657.69 131.47C663.29 123.97 649.397 97.54 614.295 71.32C579.203 45.09 549.898 39.3803 544.395 46.8903Z" fill="#503EAA"/>
    <path d="M649.349 18.96L548.136 35.2002L549.576 44.1899L650.789 27.9502L649.349 18.96Z" fill="#503EAA"/>
    <path d="M654.4 22.6001L645.383 23.7798L658.69 125.49L667.71 124.31L654.4 22.6001Z" fill="#503EAA"/>
    <path d="M648.589 18.1499L584.382 104.34L591.675 109.78L655.88 23.5898L648.589 18.1499Z" fill="#503EAA"/>
    <path d="M655.4 32.0801C664.12 32.0801 671.2 24.9998 671.2 16.2598C671.2 7.52977 664.12 0.450195 655.4 0.450195C646.668 0.450195 639.594 7.52977 639.594 16.2598C639.594 24.9998 646.668 32.0801 655.4 32.0801Z" fill="#77A4F2"/>
    <path d="M1022.2 311.63C1030.54 311.63 1037.3 304.86 1037.3 296.52C1037.3 288.17 1030.54 281.41 1022.2 281.41C1013.87 281.41 1007.11 288.17 1007.11 296.52C1007.11 304.86 1013.87 311.63 1022.2 311.63Z" fill="#503EAA"/>
    <path d="M933.1 298.72C951.3 316.95 992.99 310.64 1022.59 281.1C1052.19 251.48 1058.5 209.74 1040.29 191.53C1031.89 183.12 1001.19 200.34 971.59 229.96C941.99 259.59 924.71 290.31 933.1 298.72Z" fill="#C0DBFF"/>
    <path d="M1002.13 260.85C1031.87 231.76 1049.1 201.13 1040.61 192.43C1032.12 183.73 1001.12 200.26 971.38 229.35C941.64 258.44 924.41 289.08 932.9 297.77C941.39 306.47 972.39 289.94 1002.13 260.85Z" fill="#77A4F2"/>
    <path d="M1021.6 277.91C1037.5 259.88 1037.1 236.97 1034.3 223.65L1046.41 199.33C1046.41 199.23 1061.9 242.87 1021.6 277.91Z" fill="white"/>
    <path d="M1019.7 279.7C1001.7 295.61 978.8 295.21 965.5 292.41L941.2 304.53C941.2 304.63 984.8 320.05 1019.7 279.7Z" fill="#77A4F2"/>
    <path d="M1004.96 263.09C1024.09 243.94 1034.07 222.87 1027.24 216.03C1020.41 209.19 999.36 219.17 980.22 238.31C961.08 257.46 951.1 278.52 957.93 285.37C964.76 292.21 985.82 282.23 1004.96 263.09Z" fill="#503EAA"/>
    <path d="M961.6 312.53C948.8 312.53 937.9 308.63 930.5 301.22C928.41 299.12 927.4 296.22 927.3 292.61C927.3 278.6 944 252.37 968.89 227.45C983.4 212.93 998.69 200.83 1012 193.42C1026.7 185.22 1037.3 183.72 1042.6 189.03C1052.3 198.73 1055.9 214.65 1052.6 232.66C1049.3 250.98 1039.41 269 1024.9 283.61C1010.3 298.13 992.3 308.04 974 311.34C969.8 312.13 965.61 312.53 961.6 312.53ZM1034 192.93C1030.39 192.93 1024.3 194.63 1015.5 199.53C1002.8 206.65 988.1 218.35 974 232.37C962.3 244.08 952.2 256.29 945 267.6C938.29 278.01 934.5 287.12 934.5 292.52C934.5 294.22 934.9 295.42 935.59 296.13C943.6 304.14 957.19 307.14 972.89 304.23C989.79 301.13 1006.48 292.02 1019.99 278.51C1033.49 264.99 1042.68 248.18 1045.79 231.37C1048.69 215.66 1045.7 202.03 1037.7 194.04C1037 193.33 1035.8 192.93 1034 192.93Z" fill="#503EAA"/>
    <path d="M994.41 268.2L953.2 218.35L959.8 211.74L1009.81 252.78L994.41 268.2Z" fill="#C0DBFF"/>
    <path d="M994.41 268.2L953.2 218.35L956.5 215.04L1002.01 260.59L994.41 268.2Z" fill="#77A4F2"/>
    <path d="M939.8 304.63C935.9 304.63 932.8 303.54 930.5 301.22C929.1 299.82 929.1 297.61 930.5 296.22C931.91 294.83 934.11 294.82 935.5 296.22C936.3 297.12 937.8 297.52 939.69 297.52C945.49 297.52 954.4 293.82 964.99 287.21C976.19 280.1 988.29 270.19 999.9 258.59C1014 244.47 1025.6 229.66 1032.5 216.85C1037 208.54 1041 197.63 1037.6 194.13C1036.2 192.73 1036.2 190.52 1037.6 189.13C1039.01 187.74 1041.21 187.73 1042.6 189.13C1048.1 194.64 1046.79 205.44 1038.7 220.36C1031.39 233.77 1019.4 249.19 1004.9 263.8C980.5 288.11 954.31 304.63 939.8 304.63Z" fill="#503EAA"/>
    <path d="M994.41 271.7C994.31 271.7 994.31 271.7 994.21 271.7C993.2 271.7 992.31 271.21 991.6 270.41L950.41 220.66C949.2 219.25 949.31 217.15 950.61 215.86L957.21 209.25C958.5 207.95 960.61 207.85 962 209.05L1012 249.99C1012.8 250.59 1013.29 251.59 1013.29 252.6C1013.39 253.6 1013 254.6 1012.29 255.3L996.89 270.71C996.3 271.4 995.41 271.7 994.41 271.7ZM958.01 218.55L994.61 262.79L1004.41 252.97L959.92 216.54L958.01 218.55Z" fill="#503EAA"/>
    <path d="M950.21 221.45C957.16 221.45 962.8 215.8 962.8 208.84C962.8 201.88 957.16 196.23 950.21 196.23C943.25 196.23 937.61 201.88 937.61 208.84C937.61 215.8 943.25 221.45 950.21 221.45Z" fill="#503EAA"/>
    <path d="M1056.2 368.78H988.2L1004.6 313.83C1006.9 306.02 1014.1 300.72 1022.1 300.72C1030.19 300.72 1037.3 306.02 1039.59 313.83L1056.2 368.78Z" fill="#C0DBFF"/>
    <path d="M1033.8 307.73C1033.8 307.73 1022.3 305.33 1019.09 314.54C1015.89 323.75 1006.79 358.18 1006.79 358.18H990.79L1004.59 313.74C1004.59 313.74 1007.79 302.72 1015.29 301.53C1022.8 300.33 1029.4 299.32 1033.8 307.73Z" fill="#77A4F2"/>
    <path d="M1061.01 372.28H983.4L1001.2 312.73C1004.01 303.43 1012.4 297.12 1022.2 297.12C1032.01 297.12 1040.41 303.43 1043.2 312.73L1061.01 372.28ZM993 365.18H1051.4L1036.31 314.83C1034.41 308.52 1028.71 304.33 1022.2 304.33C1015.6 304.33 1010.01 308.52 1008.1 314.83L993 365.18Z" fill="#503EAA"/>
    <path d="M1072.89 359.88H970.7V372.59H1072.89V359.88Z" fill="#C0DBFF"/>
    <path d="M1000.1 358.18H969.4V374.09H1000.1V358.18Z" fill="#77A4F2"/>
    <path d="M1075 358.18H1056.8V374.09H1075V358.18Z" fill="white"/>
    <path d="M1072.91 359.88V372.59H970.71V359.88H1072.91ZM1072.91 352.78H970.71C966.81 352.78 963.6 355.98 963.6 359.89V372.6C963.6 376.51 966.81 379.71 970.71 379.71H1072.91C1076.81 379.71 1080.01 376.51 1080.01 372.6V359.89C1080 355.88 1076.81 352.78 1072.91 352.78Z" fill="#503EAA"/>
    <path d="M1027.91 346.37C1030.61 346.37 1032.81 344.18 1032.81 341.47C1032.81 338.76 1030.61 336.56 1027.91 336.56C1025.2 336.56 1023 338.76 1023 341.47C1023 344.18 1025.2 346.37 1027.91 346.37Z" fill="#8D86EB"/>
    <path d="M1027.91 331.45C1030.61 331.45 1032.81 329.26 1032.81 326.55C1032.81 323.84 1030.61 321.64 1027.91 321.64C1025.2 321.64 1023 323.84 1023 326.55C1023 329.26 1025.2 331.45 1027.91 331.45Z" fill="#FF8486"/>
</svg>
