<svg id="Layer_1" data-name="Layer 1" xmlns="http://www.w3.org/2000/svg" viewBox="0 0 948.88 727.88"><defs><style>.cls-1,.cls-6{fill:#88d1c3;}.cls-2{fill:#b7d0e5;}.cls-3{fill:#fff;}.cls-4,.cls-7{fill:#7996c9;}.cls-5{fill:#4f457c;}.cls-6{font-size:21px;font-family:Metropolis-Medium, Metropolis;font-weight:500;}.cls-7{font-size:13px;font-family:Metropolis-Regular, Metropolis;}.cls-8,.cls-9{fill:none;stroke:#0f0f23;stroke-miterlimit:10;stroke-width:4px;}.cls-8{stroke-linecap:round;}</style></defs><path class="cls-1" d="M402.73,126a1.43,1.43,0,0,1-1.43-1.42v-6.87a1.43,1.43,0,0,1,2.85,0v6.87A1.43,1.43,0,0,1,402.73,126Z"/><path class="cls-1" d="M413.26,129.68h-6.87a1.43,1.43,0,0,1,0-2.85h6.87a1.43,1.43,0,0,1,0,2.85Z"/><path class="cls-1" d="M402.73,140.21a1.43,1.43,0,0,1-1.43-1.42v-6.87a1.43,1.43,0,0,1,2.85,0v6.87A1.43,1.43,0,0,1,402.73,140.21Z"/><path class="cls-1" d="M399.06,129.68h-6.87a1.43,1.43,0,0,1,0-2.85h6.87a1.43,1.43,0,0,1,0,2.85Z"/><path class="cls-1" d="M611.19,609.83a1.43,1.43,0,0,1-1.42-1.42v-3.93a1.43,1.43,0,0,1,2.85,0v3.93A1.43,1.43,0,0,1,611.19,609.83Z"/><path class="cls-1" d="M619.41,614.12h-3.93a1.43,1.43,0,1,1,0-2.85h3.93a1.43,1.43,0,0,1,0,2.85Z"/><path class="cls-1" d="M611.19,622.33a1.43,1.43,0,0,1-1.42-1.42V617a1.43,1.43,0,1,1,2.85,0v3.93A1.43,1.43,0,0,1,611.19,622.33Z"/><path class="cls-1" d="M606.91,614.12H603a1.43,1.43,0,0,1,0-2.85h3.93a1.43,1.43,0,0,1,0,2.85Z"/><path class="cls-2" d="M450.73,336l-50.37,30.57c-6.66,4-3.62,21.21,6.78,38.36s24.24,27.77,30.89,23.73l50.38-30.57c6.66-4,3.62-21.21-6.78-38.36S457.39,331.93,450.73,336Z"/><ellipse class="cls-3" cx="469.89" cy="367.54" rx="14.1" ry="36.81" transform="translate(-122.49 297.08) rotate(-31.25)"/><rect class="cls-2" x="354.9" y="225.17" width="66.88" height="120.7" rx="5.88" transform="translate(-91.77 242.88) rotate(-31.25)"/><rect class="cls-4" x="358.31" y="235.63" width="56.56" height="110.53" transform="translate(-94.82 242.75) rotate(-31.25)"/><rect class="cls-2" x="471.54" y="417.39" width="66.88" height="120.7" rx="5.88" transform="matrix(0.85, -0.52, 0.52, 0.85, -174.57, 331.28)"/><rect class="cls-4" x="475.01" y="427.95" width="56.56" height="110.53" transform="matrix(0.85, -0.52, 0.52, 0.85, -177.66, 331.2)"/><polygon class="cls-3" points="395.86 387.88 448.27 356.08 445.64 341.17 393.23 372.97 395.86 387.88"/><path class="cls-4" d="M465.39,385.8,417.25,415,433,427.52s11.5-3.28,16-6.29,33.07-20,33.07-20Z"/><path class="cls-5" d="M445.14,326,398,354.58a9.6,9.6,0,0,1-13.18-3.22l-56.52-93.14A9.61,9.61,0,0,1,331.55,245l47.12-28.59a9.6,9.6,0,0,1,13.18,3.22l56.52,93.14A9.62,9.62,0,0,1,445.14,326ZM335.4,251.4a2.16,2.16,0,0,0-.72,3l56.51,93.13a2.16,2.16,0,0,0,3,.73l47.13-28.6a2.16,2.16,0,0,0,.72-3L385.5,223.53a2.16,2.16,0,0,0-3-.73Z"/><path class="cls-5" d="M490.34,401.24l-3.86-6.35c3.54-2.15,2.14-16.51-8-33.26S456.2,337,452.66,339.15l-3.85-6.35c10-6.07,25.67,8,36,25S500.34,395.17,490.34,401.24Z"/><ellipse class="cls-2" cx="474.84" cy="367.74" rx="9.97" ry="28.28" transform="translate(-121.88 299.68) rotate(-31.25)"/><path class="cls-5" d="M490.34,401.24c-10,6.07-25.68-8-36-25s-15.53-37.4-5.53-43.46l3.85,6.35c-3.53,2.14-2.13,16.5,8,33.25S483,397,486.48,394.89Z"/><path class="cls-5" d="M423.07,386.17a64.62,64.62,0,0,1-6.09-17.7l-10.61,6.44a65.3,65.3,0,0,0,6.1,17.69Z"/><path class="cls-2" d="M399,387.45,380.36,389s-4.51,7.52.28,19.18,10.84,17.57,10.84,17.57l20.71-12.56Z"/><path class="cls-5" d="M437,377.73A64.68,64.68,0,0,1,430.88,360l-6.05,3.67a65.31,65.31,0,0,0,6.11,17.68Z"/><path class="cls-4" d="M409.5,410.36,390,423.75s.53,2.19,6.91,7.87,14.94,9.11,18.91,5.05,6.18-10.42,3.91-14.22S409.5,410.36,409.5,410.36Z"/><polygon class="cls-3" points="398.78 391.13 377.95 396.89 382.95 382.57 396.65 384.48 398.78 391.13"/><path class="cls-5" d="M490.34,401.24,440,431.81c-10,6.07-25.68-8-36-25s-15.53-37.4-5.53-43.47l50.38-30.56c10-6.07,25.67,8,36,25S500.34,395.17,490.34,401.24Zm-88.06-31.52c-3.53,2.14-2.13,16.5,8,33.25s22.25,24.63,25.79,22.48l50.37-30.56c3.54-2.15,2.14-16.51-8-33.26S456.2,337,452.66,339.15Z"/><path class="cls-5" d="M481.7,376.86c-4.39,2.67-11.37-.8-15.58-7.75s-4.07-14.73.32-17.4l5.56-3.37a115.57,115.57,0,0,0,6.64,13.17c3.63,6,5.15,7.63,8.26,12.2Z"/><path class="cls-5" d="M430.13,400.26l-6.25,3.8c-2.27,1.37-2.52,4.71-.57,7.45s5.36,3.85,7.62,2.48l6.26-3.79c2.26-1.38,2.51-4.71.56-7.45S432.39,398.89,430.13,400.26Z"/><ellipse class="cls-5" cx="446.89" cy="397.06" rx="4.53" ry="6.03" transform="translate(-150.9 399.42) rotate(-41.85)"/><path class="cls-5" d="M417.7,439.84c-9.58,5.82-25.14-2.9-35.43-19.85S371.44,385.21,381,379.4c2.83-1.72,13.74-1.1,17.69-.08l-1.85,7.2a43.52,43.52,0,0,0-12.3-.56c-4.74,3.44-4.28,16.41,4.07,30.17s19.64,20.16,24.88,17.55a43.36,43.36,0,0,0,5.19-11.17l7.24,1.68C425,428.17,420.53,438.13,417.7,439.84ZM384.29,386Z"/><rect class="cls-5" x="385.56" y="225.17" width="5.57" height="120.7" transform="translate(-91.77 242.88) rotate(-31.25)"/><rect class="cls-5" x="339.25" y="256.93" width="66.88" height="5.57" transform="translate(-80.66 231.02) rotate(-31.25)"/><rect class="cls-5" x="354.9" y="282.73" width="66.88" height="5.57" transform="translate(-91.77 242.88) rotate(-31.25)"/><rect class="cls-5" x="370.56" y="308.53" width="66.88" height="5.57" transform="translate(-102.88 254.75) rotate(-31.25)"/><path class="cls-5" d="M561.78,518.21,514.65,546.8a9.6,9.6,0,0,1-13.18-3.22L445,450.44a9.61,9.61,0,0,1,3.23-13.18l47.12-28.59a9.6,9.6,0,0,1,13.18,3.22L565,505A9.6,9.6,0,0,1,561.78,518.21ZM452,443.62a2.16,2.16,0,0,0-.73,3l56.52,93.13a2.16,2.16,0,0,0,3,.73l47.12-28.6a2.16,2.16,0,0,0,.73-3l-56.51-93.13a2.16,2.16,0,0,0-3-.73Z"/><rect class="cls-5" x="502.2" y="417.39" width="5.57" height="120.7" transform="translate(-174.57 331.28) rotate(-31.25)"/><rect class="cls-5" x="455.89" y="449.15" width="66.88" height="5.57" transform="matrix(0.85, -0.52, 0.52, 0.85, -163.46, 319.41)"/><rect class="cls-5" x="471.54" y="474.95" width="66.88" height="5.57" transform="matrix(0.85, -0.52, 0.52, 0.85, -174.57, 331.28)"/><rect class="cls-5" x="487.2" y="500.74" width="66.88" height="5.57" transform="translate(-185.68 343.14) rotate(-31.25)"/><rect class="cls-5" x="417.35" y="338.29" width="13" height="11.49" transform="translate(-116.98 269.79) rotate(-31.25)"/><rect class="cls-5" x="462.93" y="413.4" width="13" height="11.49" transform="translate(-149.33 304.33) rotate(-31.25)"/><path class="cls-2" d="M488,283.84c-22.54,13.67-26.5,48.32-8.86,77.39s50.2,41.55,72.73,27.88c10.37-6.29,4.47-34.95-13.17-64S498.33,277.55,488,283.84Z"/><path class="cls-3" d="M481.07,358.79c-8.88-17.23-3-35.75,2.56-46.17l-4.19-21.69S455.93,323.93,481.07,358.79Z"/><path class="cls-4" d="M482.18,360.62c11.18,15.83,30.31,19.19,42.13,19.05l17.3,13.73S501.49,399,482.18,360.62Z"/><path class="cls-5" d="M553.77,392.29c-14.25,8.64-39.38-15.45-55.8-42.5S471.79,289.31,486,280.66l3.85,6.36c-6.5,4-4.16,28.27,14.43,58.91s39.09,43.95,45.6,40Z"/><ellipse class="cls-5" cx="519.24" cy="346.48" rx="17.95" ry="50.24" transform="translate(-104.41 319.63) rotate(-31.25)"/><path class="cls-5" d="M553.77,392.29c-24.24,14.71-59.16,1.64-77.84-29.13s-14.14-67.78,10.11-82.5c14.25-8.64,39.39,15.45,55.8,42.5S568,383.64,553.77,392.29ZM489.89,287c-20.74,12.58-24.15,45-7.61,72.28s46.89,39.22,67.64,26.63c6.51-3.95,4.16-28.27-14.43-58.91S496.4,283.07,489.89,287Z"/><rect class="cls-5" x="532.64" y="250.37" width="7.43" height="83.87" transform="translate(131.43 749.64) rotate(-77.07)"/><rect class="cls-5" x="524.75" y="338.56" width="83.87" height="7.43" transform="translate(92.76 804.54) rotate(-75.42)"/><rect class="cls-5" x="497.94" y="319.42" width="87.9" height="7.43" transform="translate(-89.01 327.99) rotate(-31.25)"/><circle class="cls-4" cx="583.48" cy="297.89" r="12.93"/><path class="cls-1" d="M132.93,427.72a56.49,56.49,0,0,1-72.39,0,59.87,59.87,0,0,0-22.6,36.52,9.35,9.35,0,0,0,9.16,11.12h99.28a9.35,9.35,0,0,0,9.16-11.12A59.88,59.88,0,0,0,132.93,427.72Z"/><path class="cls-5" d="M96.74,445.34a61,61,0,1,1,61-61A61.11,61.11,0,0,1,96.74,445.34Zm0-113.07a52,52,0,1,0,52,52A52.1,52.1,0,0,0,96.74,332.27Z"/><path class="cls-5" d="M312.17,388.26A2.51,2.51,0,0,1,310.4,384a27.38,27.38,0,0,0,0-38.7,2.5,2.5,0,1,1,3.53-3.54,32.37,32.37,0,0,1,0,45.77A2.5,2.5,0,0,1,312.17,388.26Z"/><path class="cls-5" d="M304.58,380.67a2.45,2.45,0,0,1-1.76-.73,2.5,2.5,0,0,1,0-3.54,16.65,16.65,0,0,0,0-23.53,2.5,2.5,0,0,1,3.53-3.53,21.63,21.63,0,0,1,0,30.6A2.49,2.49,0,0,1,304.58,380.67Z"/><path class="cls-5" d="M297,373.09a2.5,2.5,0,0,1-1.77-4.27,5.91,5.91,0,0,0,0-8.36,2.5,2.5,0,0,1,3.54-3.54,10.94,10.94,0,0,1,0,15.44A2.53,2.53,0,0,1,297,373.09Z"/><path class="cls-5" d="M731.11,455.54a2.5,2.5,0,0,1-1.77-4.26,27.38,27.38,0,0,0,0-38.7,2.5,2.5,0,0,1,3.53-3.54,32.36,32.36,0,0,1,0,45.77A2.45,2.45,0,0,1,731.11,455.54Z"/><path class="cls-5" d="M723.52,448a2.49,2.49,0,0,1-1.77-.73,2.52,2.52,0,0,1,0-3.54,16.62,16.62,0,0,0,0-23.53,2.5,2.5,0,1,1,3.54-3.53,21.63,21.63,0,0,1,0,30.6A2.49,2.49,0,0,1,723.52,448Z"/><path class="cls-5" d="M715.94,440.38a2.51,2.51,0,0,1-1.77-4.27,5.91,5.91,0,0,0,0-8.36,2.5,2.5,0,1,1,3.53-3.54,10.9,10.9,0,0,1,0,15.43A2.46,2.46,0,0,1,715.94,440.38Z"/><path class="cls-5" d="M563,214.4a2.47,2.47,0,0,1-1.76-.73,2.5,2.5,0,0,1,0-3.54,27.37,27.37,0,0,0,0-38.69,2.5,2.5,0,1,1,3.53-3.54,32.36,32.36,0,0,1,0,45.77A2.49,2.49,0,0,1,563,214.4Z"/><path class="cls-5" d="M555.37,206.82a2.51,2.51,0,0,1-1.77-4.27,16.62,16.62,0,0,0,0-23.53,2.5,2.5,0,0,1,3.54-3.54,21.63,21.63,0,0,1,0,30.6A2.5,2.5,0,0,1,555.37,206.82Z"/><path class="cls-5" d="M547.79,199.23A2.5,2.5,0,0,1,546,195a5.93,5.93,0,0,0,0-8.37,2.5,2.5,0,1,1,3.53-3.53,10.9,10.9,0,0,1,0,15.43A2.47,2.47,0,0,1,547.79,199.23Z"/><path class="cls-5" d="M241.52,454.16a2.49,2.49,0,0,1-1.76-.73,32.36,32.36,0,0,1,0-45.77,2.5,2.5,0,0,1,3.53,3.53,27.38,27.38,0,0,0,0,38.7,2.5,2.5,0,0,1,0,3.54A2.53,2.53,0,0,1,241.52,454.16Z"/><path class="cls-5" d="M249.11,446.57a2.49,2.49,0,0,1-1.77-.73,21.63,21.63,0,0,1,0-30.6,2.5,2.5,0,1,1,3.53,3.54,16.63,16.63,0,0,0,0,23.53,2.5,2.5,0,0,1-1.77,4.26Z"/><path class="cls-5" d="M256.69,439a2.49,2.49,0,0,1-1.77-.73,10.94,10.94,0,0,1,0-15.44,2.5,2.5,0,0,1,3.54,3.54,5.91,5.91,0,0,0,0,8.36,2.5,2.5,0,0,1-1.77,4.27Z"/><path class="cls-5" d="M635.05,508.53a2.49,2.49,0,0,1-1.77-.73,32.36,32.36,0,0,1,0-45.77,2.5,2.5,0,1,1,3.53,3.54,27.37,27.37,0,0,0,0,38.7,2.5,2.5,0,0,1-1.77,4.26Z"/><path class="cls-5" d="M642.63,501a2.49,2.49,0,0,1-1.77-.73,21.66,21.66,0,0,1,0-30.6,2.5,2.5,0,0,1,3.54,3.53,16.65,16.65,0,0,0,0,23.53,2.5,2.5,0,0,1-1.77,4.27Z"/><path class="cls-5" d="M650.22,493.37a2.5,2.5,0,0,1-1.77-.74,10.91,10.91,0,0,1,0-15.43,2.5,2.5,0,0,1,3.53,3.54,5.93,5.93,0,0,0,0,8.36,2.51,2.51,0,0,1-1.76,4.27Z"/><path class="cls-5" d="M514.72,267.3a2.49,2.49,0,0,1-1.77-.73,32.36,32.36,0,0,1,0-45.77,2.5,2.5,0,1,1,3.54,3.53,27.35,27.35,0,0,0,0,38.7,2.5,2.5,0,0,1-1.77,4.27Z"/><path class="cls-5" d="M522.31,259.72a2.5,2.5,0,0,1-1.77-.74,21.63,21.63,0,0,1,0-30.6,2.5,2.5,0,1,1,3.53,3.54,16.65,16.65,0,0,0,0,23.53,2.51,2.51,0,0,1-1.76,4.27Z"/><path class="cls-5" d="M529.89,252.13a2.49,2.49,0,0,1-1.77-.73,10.93,10.93,0,0,1,0-15.43,2.5,2.5,0,0,1,3.54,3.53,5.91,5.91,0,0,0,0,8.36,2.52,2.52,0,0,1,0,3.54A2.49,2.49,0,0,1,529.89,252.13Z"/><path class="cls-1" d="M96.74,354.26c-17.08,0-30.92,16.39-30.92,36.6s13.84,36.61,30.92,36.61c13.53,0,24.23-13.21,24.23-28.86l6.69-1.12C127.66,370,113.81,354.26,96.74,354.26Zm5.51,41.67c-4.34,0-7.85-4.42-7.85-9.87s3.51-9.88,7.85-9.88,7.86,4.42,7.86,9.88S106.59,395.93,102.25,395.93Z"/><path class="cls-1" d="M89.53,355.26c10-3.51,23.59-2.67,25.84-13.45,10.87,4,11.29,18.54,3.51,23.52S89.53,355.26,89.53,355.26Z"/><path class="cls-5" d="M66.08,341.3a4.5,4.5,0,0,1-3.87-2.19L49.16,317.24a4.5,4.5,0,0,1,7.73-4.61l13,21.86a4.5,4.5,0,0,1-3.86,6.81Z"/><circle class="cls-5" cx="53.03" cy="314.94" r="12.79"/><path class="cls-5" d="M594.36,104.32h0a4,4,0,0,0,4,4.05h6.08v67.46a4.05,4.05,0,0,0,4,4.06H758.76a4.06,4.06,0,0,0,4.06-4.06V108.37h6.07a4.05,4.05,0,0,0,4.06-4.05h0a4.06,4.06,0,0,0-4.06-4.06H598.41A4.05,4.05,0,0,0,594.36,104.32Z"/><path class="cls-1" d="M729.16,171.78v-5.14a3,3,0,0,0-3-3H641.11a3,3,0,0,0-3,3v5.14H633.5a3,3,0,0,0-3,3v5.14H736.78v-5.14a3,3,0,0,0-3-3Z"/><rect class="cls-1" x="630.53" y="105.32" width="106.25" height="8.11" rx="4.06"/><rect class="cls-5" x="621.9" y="84.94" width="123.5" height="8.11" rx="4.06"/><path class="cls-1" d="M621.33,146.74h0a5.9,5.9,0,0,1,5.9,5.9v11.51a2.76,2.76,0,0,1-2.76,2.76h-6.28a2.76,2.76,0,0,1-2.76-2.76V152.65A5.9,5.9,0,0,1,621.33,146.74Z"/><rect class="cls-1" x="615.42" y="118.16" width="11.81" height="20.18" rx="5.9"/><path class="cls-1" d="M742.84,146.74h6.28a2.76,2.76,0,0,1,2.76,2.76V161a5.9,5.9,0,0,1-5.9,5.9h0a5.9,5.9,0,0,1-5.9-5.9V149.51A2.76,2.76,0,0,1,742.84,146.74Z" transform="translate(1491.95 313.67) rotate(180)"/><rect class="cls-1" x="740.07" y="118.16" width="11.81" height="20.18" rx="5.9" transform="translate(1491.95 256.51) rotate(-180)"/><path class="cls-5" d="M683.65,57.89A42.61,42.61,0,0,0,641,100.5h85.23A42.62,42.62,0,0,0,683.65,57.89Z"/><path class="cls-1" d="M651,119h0a4.46,4.46,0,0,1,4.46,4.46v40.24a0,0,0,0,1,0,0h-8.91a0,0,0,0,1,0,0V123.43A4.46,4.46,0,0,1,651,119Z"/><path class="cls-1" d="M672.76,119h0a4.46,4.46,0,0,1,4.46,4.46v40.24a0,0,0,0,1,0,0h-8.91a0,0,0,0,1,0,0V123.43A4.46,4.46,0,0,1,672.76,119Z"/><path class="cls-1" d="M694.54,119h0a4.46,4.46,0,0,1,4.46,4.46v40.24a0,0,0,0,1,0,0h-8.91a0,0,0,0,1,0,0V123.43A4.46,4.46,0,0,1,694.54,119Z"/><path class="cls-1" d="M711.87,119h8.91a0,0,0,0,1,0,0v40.24a4.46,4.46,0,0,1-4.46,4.46h0a4.46,4.46,0,0,1-4.46-4.46V119A0,0,0,0,1,711.87,119Z" transform="translate(1432.65 282.64) rotate(180)"/><rect class="cls-5" x="681.21" y="45.08" width="4.87" height="16.68"/><circle class="cls-5" cx="683.65" cy="39.89" r="7.2"/><path class="cls-1" d="M681.21,100.26V66.06a43.62,43.62,0,0,0-5.51,6.13c-5.86,7.93-8.92,17.37-9.13,28.07Z"/><path class="cls-1" d="M673.64,66.88a34.87,34.87,0,0,0-24.83,33.38h12.88C662,84.28,668.11,73.44,673.64,66.88Z"/><text class="cls-6" transform="translate(71.03 520.21)">User</text><text class="cls-7" transform="translate(272.28 430.54)">MVK &amp; zUSD<tspan x="10" y="12.59">Rewards</tspan></text><text class="cls-7" transform="translate(186.58 368.81)">Delegated MVK</text><text class="cls-7" transform="translate(665.95 486.68)">MVK Rewards</text><text class="cls-7" transform="translate(588.36 435.54)">Signed price feed</text><text class="cls-7" transform="translate(542.4 248.85)">zUSD Rewards</text><text class="cls-7" transform="translate(498.88 194.73)">Votes</text><text class="cls-6" transform="translate(618.75 215.32)">Governance</text><text class="cls-6" transform="translate(788.36 663.64)">Oracle</text><rect class="cls-5" x="752.61" y="514.19" width="141.36" height="98.51" rx="8.67"/><rect class="cls-1" x="764.89" y="524.64" width="116.8" height="77.6"/><rect class="cls-5" x="819.29" y="496.86" width="8" height="20.21"/><circle class="cls-1" cx="823.29" cy="491.8" r="12.41"/><path class="cls-5" d="M853.25,495.19a3.38,3.38,0,0,1-3.38-3.39,26.58,26.58,0,0,0-53.16,0,3.38,3.38,0,1,1-6.76,0,33.34,33.34,0,0,1,66.68,0A3.38,3.38,0,0,1,853.25,495.19Z"/><path class="cls-5" d="M853.25,495.19a3.38,3.38,0,0,1-3.38-3.39,26.58,26.58,0,0,0-53.16,0,3.38,3.38,0,1,1-6.76,0,33.34,33.34,0,0,1,66.68,0A3.38,3.38,0,0,1,853.25,495.19Z"/><path class="cls-5" d="M873.63,495.19a3.38,3.38,0,0,1-3.38-3.39,47,47,0,0,0-93.92,0,3.39,3.39,0,1,1-6.77,0,53.73,53.73,0,0,1,107.45,0A3.38,3.38,0,0,1,873.63,495.19Z"/><path class="cls-5" d="M873.63,495.19a3.38,3.38,0,0,1-3.38-3.39,47,47,0,0,0-93.92,0,3.39,3.39,0,1,1-6.77,0,53.73,53.73,0,0,1,107.45,0A3.38,3.38,0,0,1,873.63,495.19Z"/><rect class="cls-5" x="816.76" y="537.57" width="50.91" height="9.38" rx="2.11"/><rect class="cls-5" x="816.76" y="558.75" width="50.91" height="9.38" rx="2.11"/><rect class="cls-5" x="778.91" y="579.93" width="88.75" height="9.38" rx="2.11"/><rect class="cls-5" x="778.91" y="537.57" width="26.09" height="30.56" rx="2.11"/><path class="cls-5" d="M737.76,619.14H908.82a4.35,4.35,0,0,1,4.35,4.35v0a7.49,7.49,0,0,1-7.49,7.49H740.9a7.49,7.49,0,0,1-7.49-7.49v0A4.35,4.35,0,0,1,737.76,619.14Z"/><path class="cls-4" d="M210.55,203.53a39.27,39.27,0,1,1,13.32-76.21,2.5,2.5,0,1,1-1.7,4.7,34.27,34.27,0,1,0,20.58,43.87,2.5,2.5,0,1,1,4.7,1.7,39.35,39.35,0,0,1-36.9,25.94Z"/><path class="cls-4" d="M259.47,194.53a83.94,83.94,0,0,1-8.51-.48c-13.22-1.35-29.91-5.5-47-11.67s-32.56-13.66-43.59-21.06c-12.26-8.24-17.46-15.23-15.45-20.78,3.49-9.67,26.09-6.58,39.26-3.87a2.5,2.5,0,0,1-1,4.9c-22.75-4.68-32.53-2.16-33.55.67-.84,2.34,3,7.86,13.54,14.92,10.7,7.19,25.8,14.47,42.5,20.51s33,10.09,45.8,11.41c12.61,1.29,19.1-.49,20-2.82,1.05-2.91-5.1-11.3-26.36-22.5a2.5,2.5,0,0,1,2.33-4.42c12.26,6.46,32.29,18.76,28.73,28.61C274.54,192.33,269,194.53,259.47,194.53Z"/><circle class="cls-4" cx="192.35" cy="152.08" r="2.04"/><circle class="cls-4" cx="205.49" cy="142.2" r="2.04"/><circle class="cls-4" cx="202.68" cy="164.48" r="3.12"/><circle class="cls-4" cx="196.13" cy="185.59" r="2.31"/><circle class="cls-4" cx="220.94" cy="155.91" r="1.56"/><path class="cls-4" d="M449.76,665.31a30.63,30.63,0,1,1,0-61.26,2.5,2.5,0,0,1,0,5,25.63,25.63,0,1,0,25.62,25.63,2.5,2.5,0,0,1,5,0A30.66,30.66,0,0,1,449.76,665.31Z"/><circle class="cls-4" cx="433.52" cy="630.65" r="1.56"/><circle class="cls-4" cx="440.4" cy="620.13" r="1.56"/><circle class="cls-4" cx="434.07" cy="643.61" r="1.56"/><circle class="cls-4" cx="444.17" cy="636.89" r="2.39"/><circle class="cls-4" cx="444.95" cy="653.78" r="1.76"/><circle class="cls-4" cx="455.08" cy="625.98" r="1.19"/><path class="cls-1" d="M297,585.75a1.41,1.41,0,0,1-1.42-1.42v-8.86a1.42,1.42,0,1,1,2.84,0v8.86A1.41,1.41,0,0,1,297,585.75Z"/><path class="cls-1" d="M307.53,592.42h-3.86a1.43,1.43,0,0,1,0-2.85h3.86a1.43,1.43,0,0,1,0,2.85Z"/><path class="cls-1" d="M297,608a1.42,1.42,0,0,1-1.42-1.42v-8.86a1.42,1.42,0,1,1,2.84,0v8.86A1.42,1.42,0,0,1,297,608Z"/><path class="cls-1" d="M290.33,592.42h-3.86a1.43,1.43,0,0,1,0-2.85h3.86a1.43,1.43,0,0,1,0,2.85Z"/><path class="cls-1" d="M721.48,299.33h-9.1V285.22a1.43,1.43,0,0,0-2.85,0v14.11h-9.11a1.43,1.43,0,0,0,0,2.85h9.11v14.11a1.43,1.43,0,0,0,2.85,0V302.18h9.1a1.43,1.43,0,1,0,0-2.85Z"/><circle class="cls-1" cx="268.03" cy="312.49" r="1.22"/><circle class="cls-1" cx="94.4" cy="574.04" r="1.22"/><circle class="cls-1" cx="704.64" cy="652.02" r="1.22"/><circle class="cls-1" cx="199.97" cy="269.92" r="3.66"/><circle class="cls-1" cx="334.36" cy="177.25" r="4.03"/><circle class="cls-1" cx="458.72" cy="228.86" r="2.67"/><circle class="cls-1" cx="111.94" cy="192.02" r="2.71"/><circle class="cls-1" cx="68.91" cy="269.92" r="3.66"/><circle class="cls-1" cx="184.22" cy="424.69" r="2.82"/><circle class="cls-1" cx="239.34" cy="510.64" r="3.28"/><circle class="cls-1" cx="370.41" cy="505.62" r="3.28"/><circle class="cls-1" cx="589.1" cy="468.3" r="3.09"/><circle class="cls-1" cx="629.63" cy="358.69" r="2.93"/><circle class="cls-1" cx="758.35" cy="365.1" r="3.43"/><circle class="cls-1" cx="801.91" cy="231.53" r="3.79"/><circle class="cls-1" cx="844.6" cy="399.68" r="3.56"/><circle class="cls-1" cx="687.47" cy="546.95" r="3.24"/><circle class="cls-1" cx="529.97" cy="582.3" r="2.32"/><circle class="cls-1" cx="372.69" cy="596.24" r="3.77"/><circle class="cls-1" cx="524.53" cy="132.3" r="1.78"/><path class="cls-8" d="M734.72,563.44A327.66,327.66,0,0,1,687.3,611.6c-65.11,53.9-149.95,83.59-238.89,83.59S274.62,665.5,209.51,611.6a318.61,318.61,0,0,1-73.8-87"/><path class="cls-8" d="M756.38,228.86q6.27,10.21,11.73,20.9a286,286,0,0,1,27.63,179.73"/><path class="cls-8" d="M239.11,127.9C299.37,88,372.39,66.27,448.41,66.27A387.54,387.54,0,0,1,589.1,92.4"/><path class="cls-8" d="M105.68,310.44a291.42,291.42,0,0,1,23-60.68,307.62,307.62,0,0,1,39.33-59"/><path class="cls-9" d="M611.2,514.62q-5.84,6-12.21,11.51c-40.75,35.5-94.23,55.06-150.58,55.06s-109.83-19.56-150.59-55.06A200.88,200.88,0,0,1,252,468.89q-1.71-3.19-3.28-6.45"/><path class="cls-9" d="M626.7,264.61A195.65,195.65,0,0,1,648.07,299a186.54,186.54,0,0,1,16.44,111.85"/><path class="cls-9" d="M578.45,219.49q8.31,5.64,16.07,12"/><path class="cls-9" d="M233,346.48A187.36,187.36,0,0,1,248.75,299a200.2,200.2,0,0,1,49.07-63.69c40.76-35.5,94.23-55,150.59-55a240.68,240.68,0,0,1,33.65,2.35"/><path class="cls-8" d="M326.17,342.47a111.33,111.33,0,0,1,20.56-32.77"/><path class="cls-8" d="M323,410a102.13,102.13,0,0,1-3.33-15.32"/><path class="cls-8" d="M448.41,495.19c-40,0-75.67-15.95-99.46-41"/><path class="cls-8" d="M578.06,380.73c0,25-9.1,48.18-24.54,67"/><path class="cls-8" d="M440.36,266.48q4-.21,8.05-.21a146.12,146.12,0,0,1,35.22,4.27"/></svg>