<svg width="1129" height="926" viewBox="0 0 1129 926" fill="none" xmlns="http://www.w3.org/2000/svg">
<path d="M652.697 595.521C652.697 606.337 644.001 615.041 633.195 615.041H464.692C453.886 615.041 445.19 606.337 445.19 595.521C445.19 584.706 453.886 576.002 464.692 576.002H633.195C644.001 576.002 652.697 584.718 652.697 595.521Z" fill="#6B5EC6"/>
<path d="M626.797 615.412H471.196V886.762H626.797V615.412Z" fill="#6B5EC6"/>
<path d="M517.894 615.412H471.196V886.762H517.894V615.412Z" fill="#5E4FB9"/>
<path d="M626.797 615.412H580.099V886.762H626.797V615.412Z" fill="#8077DE"/>
<path d="M633.195 576.373H598.292V615.506H633.195C644.001 615.506 652.697 606.802 652.697 595.987C652.697 585.089 644.001 576.373 633.195 576.373Z" fill="#8077DE"/>
<path d="M499.606 576.373H464.704C453.898 576.373 445.202 585.077 445.202 595.893C445.202 606.708 453.898 615.412 464.704 615.412H499.606V576.373Z" fill="#5E4FB9"/>
<path d="M626.797 615.412H471.196V886.762H626.797V615.412Z" stroke="#503EAA" stroke-width="5.9405" stroke-miterlimit="8.4865" stroke-linejoin="round"/>
<path d="M572.298 886.856H556.697V640.038C556.697 635.733 560.197 632.23 564.498 632.23C568.799 632.23 572.298 635.733 572.298 640.038V886.856Z" fill="#503EAA"/>
<path d="M603.407 886.856H587.805V640.038C587.805 635.733 591.305 632.23 595.606 632.23C599.907 632.23 603.407 635.733 603.407 640.038V886.856Z" fill="#503EAA"/>
<path d="M541.202 886.856H525.601V640.038C525.601 635.733 529.1 632.23 533.401 632.23C537.702 632.23 541.202 635.733 541.202 640.038V886.856Z" fill="#503EAA"/>
<path d="M510.105 886.856H494.504V640.038C494.504 635.733 498.004 632.23 502.305 632.23C506.605 632.23 510.105 635.733 510.105 640.038V886.856Z" fill="#503EAA"/>
<path d="M652.507 595.521C652.507 606.337 643.811 615.041 633.005 615.041H464.502C453.696 615.041 445 606.337 445 595.521C445 584.706 453.696 576.002 464.502 576.002H633.005C643.811 576.002 652.507 584.718 652.507 595.521Z" stroke="#503EAA" stroke-width="5.9405" stroke-miterlimit="8.4865" stroke-linejoin="round"/>
<path d="M467.816 596.227H471.816V598.852C470.841 599.552 469.641 599.952 468.466 599.952C465.541 599.952 463.066 597.402 463.066 594.402C463.066 591.427 465.541 588.877 468.466 588.877C470.041 588.877 471.716 589.627 472.741 590.802L475.416 588.402C473.691 586.602 471.041 585.527 468.466 585.527C463.491 585.527 459.266 589.577 459.266 594.402C459.266 599.227 463.491 603.302 468.466 603.302C471.041 603.302 473.691 602.227 475.416 600.427V593.352H467.816V596.227ZM486.97 603.302C491.945 603.302 496.095 599.227 496.095 594.402C496.095 589.577 491.945 585.527 486.97 585.527C482.045 585.527 477.845 589.577 477.845 594.402C477.845 599.227 482.045 603.302 486.97 603.302ZM486.97 599.952C484.095 599.952 481.645 597.402 481.645 594.402C481.645 591.427 484.095 588.877 486.97 588.877C489.87 588.877 492.32 591.427 492.32 594.402C492.32 597.402 489.87 599.952 486.97 599.952ZM511.433 585.827L506.508 597.927L501.583 585.827H497.433L504.433 603.002H508.558L515.558 585.827H511.433ZM530.807 589.152V585.827H517.582V603.002H530.807V599.677H521.282V595.902H529.907V592.577H521.282V589.152H530.807ZM548.123 603.002L543.898 597.002C546.248 596.177 547.798 594.177 547.798 591.627C547.798 588.227 545.048 585.827 541.323 585.827H533.598V603.002H537.273V597.427H539.998L543.923 603.002H548.123ZM537.273 589.202H540.923C542.748 589.202 543.998 590.152 543.998 591.627C543.998 593.102 542.748 594.052 540.923 594.052H537.273V589.202ZM550.691 603.002H554.366V591.902L562.641 603.002H566.341V585.827H562.641V596.927L554.366 585.827H550.691V603.002ZM582.502 603.002H586.652L579.652 585.827H575.527L568.527 603.002H572.652L573.752 600.302H581.402L582.502 603.002ZM575.027 597.177L577.577 590.902L580.127 597.177H575.027ZM588.826 603.002H592.501V591.902L600.776 603.002H604.476V585.827H600.776V596.927L592.501 585.827H588.826V603.002ZM616.486 603.302C619.086 603.302 621.486 602.177 623.161 600.427L620.486 598.027C619.486 599.177 618.061 599.952 616.486 599.952C613.611 599.952 611.161 597.402 611.161 594.402C611.161 591.427 613.611 588.877 616.486 588.877C618.061 588.877 619.486 589.652 620.486 590.802L623.161 588.402C621.486 586.627 619.086 585.527 616.486 585.527C611.561 585.527 607.361 589.577 607.361 594.402C607.361 599.227 611.561 603.302 616.486 603.302ZM638.669 589.152V585.827H625.444V603.002H638.669V599.677H629.144V595.902H637.769V592.577H629.144V589.152H638.669Z" fill="#86D4C9"/>
<path d="M652.803 886.857H445.202V925.991H652.803V886.857Z" fill="#6B5EC6"/>
<path d="M652.709 886.857H598.304V925.991H652.709V886.857Z" fill="#8077DE"/>
<path d="M499.606 886.857H445.202V925.991H499.606V886.857Z" fill="#5A4AB5"/>
<path d="M652.697 886.857V925.896H445.202V886.857H652.697Z" stroke="#503EAA" stroke-width="5.9405" stroke-miterlimit="8.4865" stroke-linejoin="round"/>
<path d="M1125.6 396.31C1125.6 407.126 1116.91 415.83 1106.1 415.83H937.598C926.792 415.83 918.096 407.126 918.096 396.31C918.096 385.495 926.792 376.791 937.598 376.791H1106.1C1116.8 376.791 1125.6 385.507 1125.6 396.31Z" fill="#6B5EC6"/>
<path d="M1099.6 415.936H943.996V886.868H1099.6V415.936Z" fill="#6B5EC6"/>
<path d="M990.694 415.936H943.996V886.868H990.694V415.936Z" fill="#5E4FB9"/>
<path d="M1099.6 415.936H1052.9V886.868H1099.6V415.936Z" fill="#8077DE"/>
<path d="M1106.1 376.791H1071.2V415.924H1106.1C1116.91 415.924 1125.6 407.22 1125.6 396.405C1125.6 385.507 1116.8 376.791 1106.1 376.791Z" fill="#8077DE"/>
<path d="M972.5 376.791H937.598C926.792 376.791 918.096 385.495 918.096 396.31C918.096 407.126 926.792 415.83 937.598 415.83H972.5V376.791Z" fill="#5E4FB9"/>
<path d="M1099.6 415.936H943.996V886.868H1099.6V415.936Z" stroke="#503EAA" stroke-width="5.9405" stroke-miterlimit="8.4865" stroke-linejoin="round"/>
<path d="M1045.1 886.857H1029.5V440.445C1029.5 436.14 1033 432.637 1037.3 432.637C1041.6 432.637 1045.1 436.14 1045.1 440.445V886.857Z" fill="#503EAA"/>
<path d="M1076.3 886.857H1060.7V440.445C1060.7 436.14 1064.2 432.637 1068.5 432.637C1072.8 432.637 1076.3 436.14 1076.3 440.445V886.857Z" fill="#503EAA"/>
<path d="M1014 886.857H998.4V440.445C998.4 436.14 1001.9 432.637 1006.2 432.637C1010.5 432.637 1014 436.14 1014 440.445V886.857Z" fill="#503EAA"/>
<path d="M982.905 886.857H967.303V440.445C967.303 436.14 970.803 432.637 975.104 432.637C979.405 432.637 982.905 436.14 982.905 440.445V886.857Z" fill="#503EAA"/>
<path d="M1125.51 396.521C1125.51 407.337 1116.81 416.041 1106 416.041H937.502C926.696 416.041 918 407.337 918 396.521C918 385.706 926.696 377.002 937.502 377.002H1106C1116.7 377.002 1125.51 385.718 1125.51 396.521Z" stroke="#503EAA" stroke-width="5.9405" stroke-miterlimit="8.4865" stroke-linejoin="round"/>
<path d="M1125.6 886.857H918.001V925.991H1125.6V886.857Z" fill="#6B5EC6"/>
<path d="M1125.51 886.857H1071.1V925.991H1125.51V886.857Z" fill="#8077DE"/>
<path d="M972.406 886.857H918.001V925.991H972.406V886.857Z" fill="#5A4AB5"/>
<path d="M1125.6 886.857V926.002H918.001V886.857H1125.6Z" stroke="#503EAA" stroke-width="5.9405" stroke-miterlimit="8.4865" stroke-linejoin="round"/>
<path d="M980.185 404.302C985.16 404.302 989.31 400.227 989.31 395.402C989.31 390.577 985.16 386.527 980.185 386.527C975.26 386.527 971.06 390.577 971.06 395.402C971.06 400.227 975.26 404.302 980.185 404.302ZM980.185 400.952C977.31 400.952 974.86 398.402 974.86 395.402C974.86 392.427 977.31 389.877 980.185 389.877C983.085 389.877 985.535 392.427 985.535 395.402C985.535 398.402 983.085 400.952 980.185 400.952ZM1006.55 404.002L1002.32 398.002C1004.67 397.177 1006.22 395.177 1006.22 392.627C1006.22 389.227 1003.47 386.827 999.748 386.827H992.023V404.002H995.698V398.427H998.423L1002.35 404.002H1006.55ZM995.698 390.202H999.348C1001.17 390.202 1002.42 391.152 1002.42 392.627C1002.42 394.102 1001.17 395.052 999.348 395.052H995.698V390.202ZM1021.57 404.002H1025.72L1018.72 386.827H1014.59L1007.59 404.002H1011.72L1012.82 401.302H1020.47L1021.57 404.002ZM1014.09 398.177L1016.64 391.902L1019.19 398.177H1014.09ZM1036.19 404.302C1038.79 404.302 1041.19 403.177 1042.87 401.427L1040.19 399.027C1039.19 400.177 1037.77 400.952 1036.19 400.952C1033.32 400.952 1030.87 398.402 1030.87 395.402C1030.87 392.427 1033.32 389.877 1036.19 389.877C1037.77 389.877 1039.19 390.652 1040.19 391.802L1042.87 389.402C1041.19 387.627 1038.79 386.527 1036.19 386.527C1031.27 386.527 1027.07 390.577 1027.07 395.402C1027.07 400.227 1031.27 404.302 1036.19 404.302ZM1048.72 400.677V386.827H1045.02V404.002H1057.27V400.677H1048.72ZM1072.87 390.152V386.827H1059.65V404.002H1072.87V400.677H1063.35V396.902H1071.97V393.577H1063.35V390.152H1072.87Z" fill="#86D4C9"/>
<path d="M211.1 354.369C211.1 365.184 202.404 373.889 191.598 373.889H23.0949C12.2894 373.889 3.59326 365.184 3.59326 354.369C3.59326 343.554 12.2894 334.85 23.0949 334.85H191.598C202.404 334.861 211.1 343.566 211.1 354.369Z" fill="#6B5EC6"/>
<path d="M185.105 373.889H29.5049V887.304H185.105V373.889Z" fill="#6B5EC6"/>
<path d="M76.2027 373.889H29.5049V887.304H76.2027V373.889Z" fill="#5E4FB9"/>
<path d="M185.094 373.889H138.396V887.304H185.094V373.889Z" fill="#8077DE"/>
<path d="M191.598 334.756H156.696V373.889H191.598C202.404 373.889 211.1 365.185 211.1 354.37C211.1 343.566 202.298 334.756 191.598 334.756Z" fill="#8077DE"/>
<path d="M57.9975 334.756H23.0949C12.2894 334.756 3.59326 343.46 3.59326 354.275C3.59326 365.091 12.2894 373.795 23.0949 373.795H57.9975V334.756Z" fill="#5E4FB9"/>
<path d="M185.105 373.889H29.5049V887.304H185.105V373.889Z" stroke="#503EAA" stroke-width="5.9405" stroke-miterlimit="8.4865" stroke-linejoin="round"/>
<path d="M130.701 887.41H115.1V398.409C115.1 394.104 118.6 390.602 122.901 390.602C127.202 390.602 130.701 394.104 130.701 398.409V887.41Z" fill="#503EAA"/>
<path d="M161.798 887.41H146.196V398.409C146.196 394.104 149.696 390.602 153.997 390.602C158.298 390.602 161.798 394.104 161.798 398.409V887.41Z" fill="#503EAA"/>
<path d="M99.4987 887.41H84.0034V398.409C84.0034 394.104 87.5031 390.602 91.8041 390.602C96.1051 390.602 99.6047 394.104 99.6047 398.409V887.41H99.4987Z" fill="#503EAA"/>
<path d="M68.4021 887.41H52.8008V398.409C52.8008 394.104 56.3005 390.602 60.6014 390.602C64.9024 390.602 68.4021 394.104 68.4021 398.409V887.41Z" fill="#503EAA"/>
<path d="M211.507 354.521C211.507 365.337 202.811 374.041 192.005 374.041H23.5016C12.6962 374.041 4 365.337 4 354.521C4 343.706 12.6962 335.002 23.5016 335.002H192.005C202.705 335.014 211.507 343.718 211.507 354.521Z" stroke="#503EAA" stroke-width="5.9405" stroke-miterlimit="8.4865" stroke-linejoin="round"/>
<path d="M211.1 887.41H3.49902V926.543H211.1V887.41Z" fill="#6B5EC6"/>
<path d="M211.006 887.41H156.602V926.543H211.006V887.41Z" fill="#8077DE"/>
<path d="M57.9032 887.41H3.49902V926.543H57.9032V887.41Z" fill="#5A4AB5"/>
<path d="M211.1 887.41V926.449H3.49902V887.41H211.1Z" stroke="#503EAA" stroke-width="5.9405" stroke-miterlimit="8.4865" stroke-linejoin="round"/>
<path d="M83.1243 362.3C87.6743 362.3 90.8993 359.1 90.8993 354.575V344.825H87.1993V354.425C87.1993 357.075 85.4993 358.95 83.1243 358.95C80.7243 358.95 79.0243 357.075 79.0243 354.425V344.825H75.3493V354.575C75.3493 359.1 78.5493 362.3 83.1243 362.3ZM100.746 362.3C104.946 362.3 107.421 360.125 107.421 356.85C107.421 353.675 104.971 352.575 101.271 351.75C98.6214 351.15 97.5964 350.75 97.5964 349.5C97.5964 348.475 98.5464 347.65 100.121 347.65C101.771 347.65 103.496 348.325 105.021 349.55L106.946 346.9C105.196 345.4 103.021 344.525 100.221 344.525C96.4714 344.525 93.8714 346.7 93.8714 349.875C93.8714 353.2 96.4464 354.225 100.071 355.05C102.696 355.65 103.696 356.025 103.696 357.25C103.696 358.325 102.746 359.175 100.896 359.175C98.7214 359.175 96.8714 358.325 95.2464 356.925L93.1214 359.45C95.1214 361.3 97.7714 362.3 100.746 362.3ZM123.292 348.15V344.825H110.067V362H123.292V358.675H113.767V354.9H122.392V351.575H113.767V348.15H123.292ZM140.607 362L136.382 356C138.732 355.175 140.282 353.175 140.282 350.625C140.282 347.225 137.532 344.825 133.807 344.825H126.082V362H129.757V356.425H132.482L136.407 362H140.607ZM129.757 348.2H133.407C135.232 348.2 136.482 349.15 136.482 350.625C136.482 352.1 135.232 353.05 133.407 353.05H129.757V348.2Z" fill="#86D4C9"/>
<path d="M240.205 215.309C238.508 215.309 237.106 213.905 237.106 212.101C237.106 211.299 237.401 210.497 238.002 209.895C251.399 196.485 251.399 174.76 238.002 161.35C236.8 160.147 236.706 158.142 237.907 156.951C239.109 155.748 241.113 155.653 242.303 156.856L242.397 156.951C258.198 172.767 258.198 198.49 242.397 214.401C241.796 215.002 241.101 215.309 240.205 215.309Z" fill="#503EAA"/>
<path d="M230.696 205.791C229.894 205.791 229.093 205.496 228.492 204.894C227.29 203.691 227.29 201.686 228.492 200.495C236.587 192.392 236.587 179.171 228.492 170.962C227.29 169.665 227.491 167.66 228.693 166.563C229.894 165.466 231.697 165.466 232.887 166.563C243.493 177.178 243.493 194.386 232.887 204.894C232.298 205.496 231.497 205.791 230.696 205.791Z" fill="#503EAA"/>
<path d="M221.198 196.286C219.501 196.286 218.099 194.882 218.099 193.184C218.099 192.382 218.394 191.58 218.995 190.978C221.893 188.077 221.893 183.371 218.995 180.469C217.793 179.266 217.793 177.261 218.995 176.07C220.197 174.867 222.2 174.867 223.39 176.07C228.693 181.472 228.693 190.082 223.39 195.484C222.801 195.991 222 196.286 221.198 196.286Z" fill="#503EAA"/>
<path d="M298.898 228C300.595 228 301.998 229.404 301.998 231.208C301.998 232.01 301.703 232.812 301.102 233.414C287.704 246.824 287.704 268.549 301.102 281.959C302.304 283.162 302.398 285.167 301.196 286.358C299.994 287.561 297.991 287.655 296.801 286.452L296.707 286.358C280.905 270.542 280.905 244.819 296.707 228.908C297.296 228.295 298.097 228 298.898 228Z" fill="#503EAA"/>
<path d="M308.396 237.506C309.197 237.506 309.999 237.801 310.6 238.402C311.802 239.605 311.802 241.61 310.6 242.801C302.504 250.904 302.504 264.125 310.6 272.334C311.802 273.632 311.601 275.637 310.399 276.733C309.197 277.83 307.395 277.83 306.204 276.733C295.599 266.119 295.599 248.911 306.204 238.402C306.805 237.812 307.607 237.506 308.396 237.506Z" fill="#503EAA"/>
<path d="M317.905 247.012C319.602 247.012 321.004 248.415 321.004 250.114C321.004 250.916 320.71 251.718 320.109 252.319C317.21 255.221 317.21 259.926 320.109 262.828C321.31 264.031 321.31 266.036 320.109 267.227C318.907 268.43 316.903 268.43 315.713 267.227C310.411 261.825 310.411 253.215 315.713 247.814C316.302 247.318 317.104 247.012 317.905 247.012Z" fill="#503EAA"/>
<path d="M852.112 272.304C850.415 272.304 849.013 270.901 849.013 269.096C849.013 268.294 849.307 267.492 849.908 266.891C863.306 253.481 863.306 231.756 849.908 218.346C848.706 217.143 848.612 215.138 849.814 213.947C851.016 212.755 853.019 212.649 854.209 213.852L854.303 213.947C870.105 229.763 870.105 255.486 854.303 271.396C853.809 271.998 853.007 272.304 852.112 272.304Z" fill="#503EAA"/>
<path d="M842.602 262.798C841.801 262.798 841 262.504 840.399 261.902C839.197 260.699 839.197 258.694 840.399 257.503C848.494 249.4 848.494 236.179 840.399 227.97C839.197 226.673 839.397 224.668 840.599 223.571C841.801 222.474 843.604 222.474 844.794 223.571C855.399 234.186 855.399 251.393 844.794 261.902C844.311 262.492 843.51 262.798 842.602 262.798Z" fill="#503EAA"/>
<path d="M833.105 253.28C831.408 253.28 830.006 251.876 830.006 250.178C830.006 249.376 830.3 248.574 830.901 247.972C833.8 245.071 833.8 240.365 830.901 237.464C829.7 236.261 829.7 234.256 830.901 233.064C832.103 231.861 834.107 231.861 835.297 233.064C840.599 238.466 840.599 247.076 835.297 252.478C834.802 252.985 834.012 253.28 833.105 253.28Z" fill="#503EAA"/>
<path d="M792.107 280C793.804 280 795.206 281.404 795.206 283.208C795.206 284.01 794.911 284.812 794.311 285.414C780.913 298.824 780.913 320.549 794.311 333.959C795.512 335.162 795.607 337.167 794.405 338.358C793.203 339.561 791.2 339.655 790.009 338.452L789.915 338.358C774.114 322.542 774.114 296.819 789.915 280.908C790.504 280.401 791.306 280 792.107 280Z" fill="#503EAA"/>
<path d="M801.605 289.613C802.406 289.613 803.207 289.908 803.808 290.51C805.01 291.713 805.01 293.718 803.808 294.909C795.713 303.012 795.713 316.233 803.808 324.442C805.01 325.739 804.81 327.744 803.608 328.841C802.406 329.938 800.603 329.938 799.413 328.841C788.808 318.226 788.808 301.018 799.413 290.51C800.002 289.908 800.803 289.613 801.605 289.613Z" fill="#503EAA"/>
<path d="M811.102 299.119C812.799 299.119 814.201 300.523 814.201 302.221C814.201 303.023 813.906 303.825 813.305 304.427C810.407 307.328 810.407 312.034 813.305 314.935C814.507 316.138 814.507 318.143 813.305 319.335C812.103 320.538 810.1 320.538 808.91 319.335C803.607 313.933 803.607 305.323 808.91 299.921C809.499 299.414 810.301 299.119 811.102 299.119Z" fill="#503EAA"/>
<path d="M546.255 327.148C546.255 328.846 544.852 330.25 543.049 330.25C542.248 330.25 541.447 329.955 540.846 329.353C527.448 315.943 505.743 315.943 492.345 329.353C491.143 330.556 489.14 330.651 487.95 329.448C486.748 328.245 486.654 326.24 487.856 325.048L487.95 324.954C503.752 309.138 529.451 309.138 545.347 324.954C545.96 325.544 546.255 326.346 546.255 327.148Z" fill="#503EAA"/>
<path d="M536.757 336.76C536.757 337.562 536.462 338.364 535.862 338.966C534.66 340.169 532.656 340.169 531.466 338.966C523.371 330.863 510.162 330.863 501.961 338.966C500.664 340.169 498.661 339.968 497.565 338.765C496.469 337.562 496.469 335.758 497.565 334.567C508.17 323.952 525.362 323.952 535.862 334.567C536.451 335.062 536.757 335.852 536.757 336.76Z" fill="#503EAA"/>
<path d="M527.26 346.266C527.26 347.965 525.857 349.368 524.161 349.368C523.359 349.368 522.558 349.073 521.957 348.472C519.058 345.57 514.357 345.57 511.458 348.472C510.256 349.675 508.253 349.675 507.063 348.472C505.873 347.269 505.861 345.264 507.063 344.072C512.46 338.765 521.062 338.765 526.458 344.072C526.953 344.568 527.26 345.37 527.26 346.266Z" fill="#503EAA"/>
<path d="M568 387.002C568 385.304 569.402 383.9 571.205 383.9C572.006 383.9 572.808 384.195 573.409 384.797C586.806 398.207 608.512 398.207 621.909 384.797C623.111 383.594 625.114 383.499 626.304 384.702C627.506 385.905 627.601 387.91 626.399 389.101L626.304 389.196C610.503 405.012 584.803 405.012 568.907 389.196C568.306 388.7 568 387.898 568 387.002Z" fill="#503EAA"/>
<path d="M577.509 377.496C577.509 376.694 577.804 375.892 578.405 375.291C579.607 374.088 581.61 374.088 582.8 375.291C590.895 383.394 604.104 383.394 612.306 375.291C613.602 374.088 615.605 374.288 616.701 375.491C617.797 376.694 617.797 378.499 616.701 379.69C606.096 390.305 588.904 390.305 578.405 379.69C577.898 379.1 577.509 378.393 577.509 377.496Z" fill="#503EAA"/>
<path d="M587.007 367.991C587.007 366.292 588.409 364.889 590.106 364.889C590.907 364.889 591.708 365.184 592.309 365.785C595.208 368.686 599.909 368.686 602.808 365.785C604.01 364.582 606.013 364.582 607.203 365.785C608.405 366.988 608.405 368.993 607.203 370.184C601.807 375.492 593.205 375.492 587.808 370.184C587.407 369.583 587.007 368.781 587.007 367.991Z" fill="#503EAA"/>
<path d="M666.106 556.261V540.15C666.106 540.15 672.305 526.032 670.608 525.631L630.402 511.619H633.007C638.003 511.619 642.103 507.515 642.103 502.514V501.712C642.103 496.711 638.003 492.607 633.007 492.607H612.303C611.502 477.298 604.997 462.98 593.803 452.07C582.609 441.161 567.903 434.957 552.207 434.155V428.152C554.812 426.949 556.603 424.354 556.603 421.24C556.603 417.041 553.197 413.633 549.002 413.633C544.807 413.633 541.402 417.041 541.402 421.24C541.402 424.342 543.205 426.949 545.797 428.152V434.155C530.102 434.957 515.396 441.161 504.202 452.07C492.901 462.98 486.397 477.298 485.702 492.607H464.998C460.002 492.607 455.901 496.711 455.901 501.712V502.514C455.901 507.515 460.002 511.619 464.998 511.619H467.496L433.501 522.635C431.804 523.036 430.802 524.735 431.203 526.433L427.409 531.434C431.71 525.926 428.611 537.142 429.412 537.637C429.907 537.932 432.311 537.637 432.912 537.637C433.206 537.637 434.514 536.14 434.809 536.14L435.009 542.049L431.804 556.261H412.008V578.682H686.009V556.261H666.106Z" fill="#C0DBFF"/>
<path d="M508.703 510.617H472.705V559.457H508.703V510.617Z" fill="#77A4F2"/>
<path d="M625.206 540.846L662.901 550.553V536.541L625.206 526.74V540.846Z" fill="#77A4F2"/>
<path d="M556.603 437.256C556.603 437.256 593.002 445.359 593.002 497.713L609.098 495.413C609.098 495.402 605.705 445.264 556.603 437.256Z" fill="white"/>
<path d="M543.299 437.256C543.299 437.256 506.9 445.359 506.9 497.713L490.804 495.401C490.804 495.401 494.198 445.264 543.299 437.256Z" fill="#77A4F2"/>
<path d="M636.707 497.715H593.403V505.122H636.707V497.715Z" fill="white"/>
<path d="M507.101 498.41H459.896V505.817H507.101V498.41Z" fill="#77A4F2"/>
<path d="M612.398 498.811H485.501V495.603C485.501 479.186 492.1 463.676 504.096 452.059C516.091 440.453 531.999 434.037 548.896 434.037C565.794 434.037 581.702 440.441 593.697 452.059C605.693 463.664 612.291 479.186 612.291 495.603V498.811H612.398ZM492.1 492.301H605.799C604.998 478.784 599.2 466.283 589.302 456.564C578.497 446.15 564.203 440.347 549.003 440.347C533.802 440.347 519.497 446.055 508.703 456.564C498.699 466.283 492.901 478.891 492.1 492.301Z" fill="#503EAA"/>
<path d="M583.599 495.603H577.094C577.094 480.789 573.889 466.271 568.292 455.868C562.989 446.055 555.99 440.453 548.896 440.453C541.897 440.453 534.792 446.055 529.501 455.868C523.904 466.283 520.699 480.789 520.699 495.603H514.194C514.194 479.492 517.6 464.277 523.798 452.861C530.302 440.748 539.199 434.049 548.896 434.049C558.594 434.049 567.396 440.76 573.995 452.861C580.205 464.277 583.599 479.492 583.599 495.603Z" fill="#503EAA"/>
<path d="M552.208 424.035H545.703V495.603H552.208V424.035Z" fill="#503EAA"/>
<path d="M628.505 562.665H469.499V505.711H628.505V562.665ZM475.898 556.261H622.001V512.221H475.898V556.261Z" fill="#503EAA"/>
<path d="M625.3 510.617H472.705V530.538H625.3V510.617Z" fill="#77A4F2"/>
<path d="M612.398 562.665H485.501V505.711H612.303V562.665H612.398ZM492.006 556.261H605.905V512.221H492.006V556.261Z" fill="#503EAA"/>
<path d="M682.804 559.469H644.107V575.379H682.804V559.469Z" fill="white"/>
<path d="M485.796 559.469H415.496V575.379H485.796V559.469Z" fill="#77A4F2"/>
<path d="M564.498 556.957V527.035C564.498 525.832 564.993 524.629 565.794 523.827C566.69 522.93 567.797 522.529 568.999 522.529C570.201 522.529 571.403 523.025 572.204 523.827C573.1 524.723 573.5 525.832 573.5 527.035V556.957H564.498Z" fill="#503EAA"/>
<path d="M569.105 523.331C570.107 523.331 571.108 523.732 571.803 524.428C572.499 525.124 572.899 526.032 572.899 527.035V556.166H565.299V527.035C565.299 526.032 565.7 525.136 566.395 524.428C567.196 523.626 568.104 523.331 569.105 523.331ZM569.105 521.633C567.703 521.633 566.301 522.234 565.311 523.237C564.309 524.239 563.708 525.537 563.708 527.035V556.166V557.77H565.311H572.911H574.514V556.166V527.035C574.514 525.631 573.913 524.228 572.911 523.237C571.898 522.234 570.602 521.633 569.105 521.633Z" fill="#503EAA"/>
<path d="M584.706 556.957V527.035C584.706 525.832 585.201 524.629 586.002 523.827C586.898 522.93 588.006 522.529 589.208 522.529C590.409 522.529 591.611 523.025 592.413 523.827C593.308 524.629 593.709 525.832 593.709 527.035V556.957H584.706Z" fill="#503EAA"/>
<path d="M589.302 523.331C590.303 523.331 591.305 523.732 592 524.428C592.695 525.124 593.096 526.032 593.096 527.035V556.166H585.496V527.035C585.496 526.032 585.896 525.136 586.592 524.428C587.299 523.626 588.3 523.331 589.302 523.331ZM589.302 521.633C587.9 521.633 586.497 522.234 585.508 523.237C584.506 524.239 583.905 525.643 583.905 527.035V556.166V557.77H585.508H593.108H594.71V556.166V527.035C594.71 525.631 594.11 524.228 593.108 523.237C592.106 522.234 590.704 521.633 589.302 521.633Z" fill="#503EAA"/>
<path d="M524.304 556.957V527.035C524.304 525.832 524.799 524.629 525.6 523.827C526.496 522.93 527.604 522.529 528.806 522.529C530.007 522.529 531.209 523.025 532.011 523.827C532.906 524.723 533.307 525.832 533.307 527.035V556.957H524.304Z" fill="#503EAA"/>
<path d="M528.9 523.331C529.901 523.331 530.903 523.732 531.598 524.428C532.293 525.124 532.694 526.032 532.694 527.035V556.166H525.094V527.035C525.094 526.032 525.494 525.136 526.19 524.428C526.897 523.626 527.804 523.331 528.9 523.331ZM528.9 521.633C527.498 521.633 526.095 522.234 525.105 523.237C524.104 524.239 523.503 525.537 523.503 527.035V556.166V557.77H525.105H532.706H534.308V556.166V527.035C534.308 525.631 533.707 524.228 532.706 523.237C531.598 522.234 530.302 521.633 528.9 521.633Z" fill="#503EAA"/>
<path d="M544.395 556.957V527.035C544.395 525.832 544.89 524.629 545.691 523.827C546.587 522.93 547.694 522.529 548.896 522.529C550.098 522.529 551.3 523.025 552.101 523.827C552.997 524.629 553.398 525.832 553.398 527.035V556.957H544.395Z" fill="#503EAA"/>
<path d="M549.002 523.331C550.004 523.331 551.005 523.732 551.701 524.428C552.396 525.124 552.797 526.032 552.797 527.035V556.166H545.196V527.035C545.196 526.032 545.597 525.136 546.292 524.428C546.999 523.626 548.001 523.331 549.002 523.331ZM549.002 521.633C547.6 521.633 546.198 522.234 545.208 523.237C544.206 524.239 543.605 525.643 543.605 527.035V556.166V557.77H545.208H552.808H554.411V556.166V527.035C554.411 525.631 553.81 524.228 552.808 523.237C551.795 522.234 550.405 521.633 549.002 521.633Z" fill="#503EAA"/>
<path d="M504.096 556.957V527.035C504.096 525.832 504.591 524.629 505.392 523.827C506.287 522.93 507.395 522.529 508.597 522.529C509.799 522.529 511.001 523.025 511.802 523.827C512.698 524.723 513.098 525.832 513.098 527.035V556.957H504.096Z" fill="#503EAA"/>
<path d="M508.703 523.331C509.705 523.331 510.706 523.732 511.401 524.428C512.097 525.124 512.497 526.032 512.497 527.035V556.166H504.897V527.035C504.897 526.032 505.298 525.136 505.993 524.428C506.7 523.626 507.701 523.331 508.703 523.331ZM508.703 521.633C507.301 521.633 505.898 522.234 504.909 523.237C503.907 524.239 503.306 525.537 503.306 527.035V556.166V557.77H504.909H512.509H514.112V556.166V527.035C514.112 525.631 513.511 524.228 512.509 523.237C511.496 522.234 510.105 521.633 508.703 521.633Z" fill="#503EAA"/>
<path d="M633.007 499.012C634.503 499.012 635.705 500.215 635.705 501.713V502.515C635.705 504.012 634.503 505.215 633.007 505.215H464.998C463.502 505.215 462.3 504.012 462.3 502.515V501.713C462.3 500.215 463.502 499.012 464.998 499.012H633.007ZM633.007 492.607H464.998C460.002 492.607 455.901 496.712 455.901 501.713V502.515C455.901 507.515 460.002 511.62 464.998 511.62H632.995C637.991 511.62 642.092 507.515 642.092 502.515V501.713C642.104 496.712 638.003 492.607 633.007 492.607Z" fill="#503EAA"/>
<path d="M685.997 578.681H411.996V556.26H685.997V578.681ZM418.406 572.17H679.504V562.664H418.406V572.17Z" fill="#503EAA"/>
<path d="M472.705 526.633L434.809 536.045C431.51 536.847 428.104 534.747 427.409 531.339C426.714 528.131 428.705 525.029 431.804 524.227L472.705 513.518V526.633Z" fill="#77A4F2"/>
<path d="M433.301 539.442C431.604 539.442 429.895 538.946 428.399 538.038C426.195 536.635 424.793 534.535 424.204 532.035C423.202 527.235 426.207 522.423 430.909 521.125L471.809 510.416C472.811 510.121 473.812 510.416 474.613 511.018C475.415 511.619 475.91 512.622 475.91 513.624V526.633C475.91 528.131 474.908 529.44 473.506 529.735L435.61 539.147C434.797 539.442 433.996 539.442 433.301 539.442ZM469.405 517.823L432.499 527.53C431.003 527.931 430.096 529.334 430.402 530.832C430.602 531.634 431.003 532.236 431.698 532.637C432.393 533.038 433.1 533.132 433.902 533.038L469.405 524.227V517.823Z" fill="#503EAA"/>
<path d="M472.705 559.469H434.998V536.541L472.705 526.74V559.469Z" fill="#77A4F2"/>
<path d="M475.898 562.665H431.792V534.04L475.898 522.529V562.665ZM438.202 556.261H469.405V530.939L438.202 539.041V556.261Z" fill="#503EAA"/>
<path d="M625.206 526.633L663.102 536.045C666.401 536.847 669.806 534.747 670.502 531.339C671.197 528.131 669.205 525.029 666.106 524.227L625.206 513.518V526.633Z" fill="white"/>
<path d="M664.598 539.442C663.797 539.442 663.102 539.348 662.3 539.147L624.405 529.735C623.003 529.334 622.001 528.131 622.001 526.634V513.625C622.001 512.622 622.496 511.726 623.297 511.018C624.098 510.31 625.1 510.216 626.102 510.417L667.002 521.126C671.798 522.423 674.697 527.129 673.707 532.035C673.212 534.536 671.704 536.635 669.512 538.039C668.098 539.041 666.401 539.442 664.598 539.442ZM628.505 524.133L664.009 532.943C664.81 533.144 665.505 533.038 666.212 532.542C666.908 532.141 667.308 531.446 667.509 530.738C667.803 529.24 666.908 527.837 665.411 527.436L628.505 517.729V524.133Z" fill="#503EAA"/>
<path d="M666.106 562.665H622.001V522.529L666.106 534.04V562.665ZM628.505 556.261H659.708V539.041L628.505 530.939V556.261Z" fill="#503EAA"/>
<path d="M549.002 428.847C553.2 428.847 556.603 425.441 556.603 421.24C556.603 417.039 553.2 413.633 549.002 413.633C544.805 413.633 541.402 417.039 541.402 421.24C541.402 425.441 544.805 428.847 549.002 428.847Z" fill="#503EAA"/>
<path d="M454.699 550.964C457.628 550.964 460.002 548.588 460.002 545.657C460.002 542.726 457.628 540.35 454.699 540.35C451.771 540.35 449.397 542.726 449.397 545.657C449.397 548.588 451.771 550.964 454.699 550.964Z" fill="#503EAA"/>
<path d="M644.107 550.964C647.035 550.964 649.409 548.588 649.409 545.657C649.409 542.726 647.035 540.35 644.107 540.35C641.178 540.35 638.804 542.726 638.804 545.657C638.804 548.588 641.178 550.964 644.107 550.964Z" fill="#503EAA"/>
<path d="M49.1953 205.939L70.4998 221.154L98.8979 188.625C78.9014 187.422 58.5042 198.025 49.1953 205.939Z" fill="#77A4F2"/>
<path d="M47.4042 249.378C51.0099 257.079 48.2055 266.09 41.0058 269.393C32.3096 273.497 15.801 272.4 6.60986 268.39C9.41433 258.683 19.2064 245.368 28.0086 241.37C35.1023 238.067 43.7984 241.676 47.4042 249.378Z" fill="#FF8486"/>
<path d="M177.906 192.624L190.208 186.821L187.804 181.82L175.502 187.623L177.906 192.624Z" fill="#503EAA"/>
<path d="M53.4961 206.434C53.4961 206.434 69.6984 193.626 87.892 191.326C99.3927 189.828 87.892 199.735 87.892 199.735C87.892 199.735 73.7047 196.728 53.4961 206.434Z" fill="white"/>
<path d="M47.4983 208.438C47.0977 208.144 46.8031 207.837 46.6028 207.436C46.4025 207.035 46.3082 206.539 46.2021 206.138C46.2021 205.643 46.2964 205.242 46.4024 204.841C46.6028 204.44 46.8974 204.039 47.2038 203.744C57.3022 195.241 72.4086 188.435 87.5032 185.723H87.7978L88.8936 191.726H88.5991C76.2029 193.931 63.3942 199.227 54.2974 205.938L72.5028 218.947L69.0032 223.948L47.4983 208.438Z" fill="#503EAA"/>
<path d="M87.7035 185.924L88.7051 191.432C76.1086 193.732 63.0997 199.133 54.0028 205.844L72.3025 218.853L69.0974 223.359L47.793 208.144C47.4984 207.944 47.192 207.543 46.9917 207.248C46.7914 206.847 46.6971 206.446 46.6971 206.045C46.6971 205.644 46.7914 205.243 46.8974 204.842C47.0977 204.441 47.2981 204.146 47.5926 203.839C57.5025 195.324 72.5029 188.625 87.7035 185.924ZM88.1041 185.322L87.6092 185.417C72.4086 188.118 57.314 194.923 47.2038 203.438C46.8032 203.733 46.5086 204.134 46.3083 204.641C46.1079 205.137 46.0137 205.644 46.0137 206.139C46.0137 206.634 46.214 207.142 46.4143 207.543C46.6146 207.944 47.0153 208.345 47.4159 208.64L68.7204 223.854L69.121 224.149L69.4156 223.748L72.6207 219.243L72.9153 218.842L72.5146 218.547L54.8159 205.939C63.9127 199.428 76.521 194.227 88.7169 192.021L89.2118 191.927L89.1175 191.432L88.1159 185.924L88.1041 185.322Z" fill="#503EAA"/>
<path d="M201.603 176.714C199.705 172.609 194.804 170.805 190.703 172.81C186.602 174.709 184.799 179.615 186.803 183.719C188.7 187.824 193.602 189.628 197.702 187.623C201.803 185.618 203.5 180.818 201.603 176.714Z" fill="#503EAA"/>
<path d="M55.9001 249.779C59.8947 256.69 69.2979 263.897 69.2979 263.897L78.9014 242.478L70.9004 222.865L51.3988 222.664C45.0947 225.754 51.9055 242.868 55.9001 249.779Z" fill="#77A4F2"/>
<path d="M72.9977 231.462L51.8935 239.47L50.291 230.86L71.3952 227.959L72.9977 231.462Z" fill="white"/>
<path d="M69.8046 266.292C66.7056 266.292 58.6103 264.487 50.7036 247.775C46.9094 239.672 45.3068 232.867 46.108 227.453C46.9093 221.745 49.9023 219.846 51.1043 219.245C53.5081 218.148 61.0024 217.947 64.1014 217.947C66.3992 217.947 68.697 218.042 70.7002 218.148H70.9948L70.5941 224.257H70.2995C68.2963 224.163 66.1989 224.057 64.1014 224.057C58.5985 224.057 54.4979 224.458 53.6966 224.753C52.8011 225.154 49.3014 230.555 56.3008 245.168C63.2059 259.781 69.2036 260.182 69.8989 260.182C70.1935 260.182 70.3938 260.088 70.4998 260.088C71.5957 259.487 76.804 254.085 81.5056 247.574L81.7059 247.374L86.6078 250.983L86.4075 251.183C82.6132 256.385 75.9084 264.299 73.104 265.596C72.1024 266.091 70.9947 266.292 69.8046 266.292Z" fill="#503EAA"/>
<path d="M64.1957 218.253C66.4935 218.253 68.7913 218.348 70.7002 218.454L70.4056 224.056C68.2021 223.962 66.1047 223.856 64.1015 223.856C58.7047 223.856 54.498 224.257 53.6024 224.551C52.4005 225.153 49.0069 230.661 56.0063 245.368C62.1101 258.283 67.7072 260.583 69.8047 260.583C70.0993 260.583 70.2996 260.583 70.4999 260.488C71.5958 259.793 76.8983 254.379 81.5999 247.88L86.1012 251.183C82.3069 256.384 75.6021 264.298 72.9037 265.595C72.1025 265.996 71.0066 266.291 69.8047 266.291C65.0088 266.291 57.8091 262.387 50.904 247.975C42.3021 229.859 47.0037 221.65 51.1986 219.751C53.2018 218.548 58.7989 218.253 64.1957 218.253ZM64.1957 217.746C61.0967 217.746 53.4964 217.84 51.0925 219.043C46.7916 221.048 41.7954 229.458 50.5977 247.975C58.4926 264.793 66.7999 266.586 69.8989 266.586C71.1008 266.586 72.3028 266.386 73.1983 265.89C76.097 264.487 82.8961 256.384 86.5961 251.371L86.8907 250.97L86.4901 250.676L81.9888 247.373L81.5881 247.078L81.2935 247.479C76.4977 254.084 71.2894 259.392 70.3939 259.993C70.3939 259.993 70.2996 259.993 69.9932 259.993C69.3923 259.993 63.4888 259.592 56.5954 245.085C52.8954 237.277 52.2945 232.371 52.4005 229.576C52.4948 226.273 53.6967 225.07 54.0031 224.976C54.6983 224.681 58.7989 224.28 64.3018 224.28C66.3992 224.28 68.4967 224.374 70.4999 224.481H70.9948V223.985L71.2894 218.477V217.982H70.7945C68.697 217.746 66.5053 217.746 64.1957 217.746Z" fill="#503EAA"/>
<path d="M70.606 221.154L83.9095 249.378C109.515 258.082 173.205 240.167 175.408 188.826C134.296 157.996 80.1034 195.832 70.606 221.154Z" fill="#C0DBFF"/>
<path d="M139.398 241.169C110.799 254.685 85.1939 254.78 85.1939 254.78L76.1914 235.767C130.796 229.658 170.294 196.127 173.393 189.121C170.895 205.94 167.996 227.653 139.398 241.169Z" fill="#77A4F2"/>
<path d="M111.895 185.818C82.896 199.535 70.9004 219.75 70.9004 219.75L74.6947 227.759C81.3994 217.344 90.0956 206.234 117.492 193.331C144.889 180.416 162.587 187.328 173.593 191.833C166.7 182.315 140.906 172.102 111.895 185.818Z" fill="white"/>
<path d="M98.6029 254.484C92.6051 254.484 87.2083 253.682 82.9074 252.279L82.0118 251.984L81.4109 251.288C78.1115 246.983 75.2127 242.277 72.8089 237.371C68.614 228.466 67.5064 221.956 67.5064 221.661L67.4121 220.859L67.7067 220.057C73.4099 204.843 94.8087 184.722 120.709 177.22C127.508 175.215 134.307 174.213 140.906 174.213C154.209 174.213 166.511 178.317 177.21 186.42L178.507 187.422L178.412 189.026C177.316 214.455 162.116 229.964 149.614 238.574C145.819 241.181 141.813 243.48 137.618 245.379C125.398 251.182 111.199 254.484 98.6029 254.484ZM85.7 246.771C89.3058 247.868 93.9013 248.469 98.8032 248.469C114.805 248.469 132.504 242.867 146.208 233.561C157.214 226.06 170.706 212.438 172.308 190.418C162.905 183.813 152.406 180.405 140.906 180.405C134.908 180.405 128.71 181.301 122.5 183.106C98.2966 190.218 79.3016 208.133 73.7987 221.543C74.8003 226.143 76.4029 230.648 78.3943 234.859C80.3975 238.963 82.8956 242.973 85.7 246.771Z" fill="#503EAA"/>
<path d="M140.906 174.413C152.206 174.413 164.909 177.421 177.105 186.526L178.306 187.422L178.212 188.92C177.116 214.243 162.01 229.752 149.508 238.267C145.713 240.874 141.707 243.174 137.606 245.073C124.503 251.277 110.41 254.178 98.7092 254.178C92.7114 254.178 87.3146 253.376 83.1079 251.972L82.3066 251.678L81.8117 250.982C78.5124 246.677 75.6136 241.971 73.2098 237.064C69.0149 228.254 68.0133 221.649 67.9072 221.449L67.813 220.753L68.1076 220.057C73.8108 204.949 95.1035 184.828 120.909 177.315C126.495 175.711 133.4 174.413 140.906 174.413ZM98.8034 248.682C113.003 248.682 131.302 243.976 146.303 233.668C157.497 225.966 171.001 212.249 172.497 190.123C161.798 182.516 150.698 180.016 140.8 180.016C133.895 180.016 127.602 181.219 122.3 182.717C98.6031 189.628 79.1015 207.543 73.3983 221.355C74.3999 225.954 76.0025 230.46 78.0999 234.765C80.1974 239.069 82.6955 243.068 85.5942 246.972C89.306 248.175 93.7955 248.682 98.8034 248.682ZM140.906 173.906V174.402V173.906C134.307 173.906 127.508 174.909 120.603 176.914C94.7028 184.415 73.198 204.736 67.4005 219.951L67.106 220.647V220.741V220.836L67.2002 221.531C67.2002 221.826 68.2961 228.337 72.5028 237.348C74.9066 242.254 77.8996 246.96 81.199 251.359L81.6939 252.055L81.7882 252.149H81.9885L82.7897 252.444C87.0907 253.942 92.5936 254.65 98.5914 254.65C111.188 254.65 125.493 251.347 137.795 245.545C141.99 243.539 145.996 241.24 149.79 238.633C162.387 230.023 177.588 214.408 178.695 188.885L178.79 187.387V187.092L178.589 186.892L177.387 185.995C166.605 178.011 154.304 173.906 140.906 173.906ZM73.9993 221.449C79.5022 208.133 98.4028 190.324 122.5 183.318C128.698 181.514 134.896 180.617 140.906 180.617C152.3 180.617 162.811 183.92 172.108 190.524C170.506 212.344 157.108 225.86 146.208 233.361C132.598 242.667 114.9 248.281 99.0038 248.281C94.1019 248.281 89.7066 247.679 86.1009 246.677C83.2964 242.973 80.9044 238.869 78.7952 234.765C76.6034 230.46 75.0009 225.954 73.9993 221.449Z" fill="#503EAA"/>
<path d="M67.8955 278.804C82.9901 278.309 133.093 256.089 144.9 218.146C108.195 242.572 78.5006 241.464 78.5006 241.464L67.8955 278.804Z" fill="#77A4F2"/>
<path d="M126.895 232.665C126.895 232.665 117.091 255.287 73.4927 275.007C91.9927 273.804 132.292 255.794 140.694 226.261C142.002 221.649 126.895 232.665 126.895 232.665Z" fill="white"/>
<path d="M67.8954 281.811C67.4948 281.811 66.9999 281.717 66.5992 281.516C66.1986 281.316 65.798 281.021 65.5034 280.62C65.2088 280.219 65.0085 279.818 64.9024 279.322C64.7964 278.827 64.8082 278.32 64.9967 277.919L75.6018 240.59C75.8021 239.989 76.2028 239.387 76.6977 238.986C77.1926 238.585 77.8996 238.385 78.5005 238.385C79.7024 238.385 108.101 237.984 144.5 217.768C144.995 217.568 145.501 217.367 145.996 217.367C146.09 217.367 146.197 217.367 146.291 217.367C146.892 217.462 147.493 217.662 147.988 218.063C148.482 218.464 148.789 218.959 148.989 219.561C149.19 220.162 149.19 220.764 148.989 221.365C142.284 242.984 123.985 257.798 109.786 266.301C105.791 268.708 101.69 270.901 97.4837 272.906C86.3954 278.108 74.8005 281.61 67.8954 281.811ZM72.1021 275.206C89.5063 272.104 126.601 254.991 140.199 226.956C110.799 241.769 87.5974 244.069 80.9044 244.376L72.1021 275.206Z" fill="#503EAA"/>
<path d="M145.996 217.65C146.09 217.65 146.196 217.65 146.196 217.65C146.797 217.65 147.292 217.945 147.693 218.252C148.094 218.653 148.388 219.054 148.588 219.655C148.789 220.151 148.789 220.752 148.588 221.259C141.884 242.784 123.69 257.491 109.585 266.101C105.591 268.507 101.584 270.701 97.3894 272.706C85.3938 278.414 74.2938 281.516 67.9897 281.717H67.8954C67.4948 281.717 67.0941 281.622 66.6935 281.422C66.2928 281.221 65.9983 280.927 65.6919 280.62C65.3973 280.325 65.197 279.924 65.197 279.417C65.1027 279.016 65.1028 278.52 65.2913 278.119L75.8964 240.791C76.0967 240.189 76.3913 239.694 76.898 239.293C77.3929 238.892 77.9938 238.691 78.5948 238.691C78.8894 238.691 107.9 238.491 144.794 217.969C145.101 217.745 145.501 217.65 145.996 217.65ZM140.705 226.355C111.011 241.463 87.6091 243.775 80.6098 244.176L71.7132 275.607C88.705 272.694 127.095 255.486 140.705 226.355ZM145.996 217.049C145.395 217.049 144.9 217.143 144.394 217.45C107.994 237.665 79.6906 238.066 78.4887 238.066C77.7935 238.066 77.0865 238.267 76.4856 238.762C75.8846 239.163 75.4839 239.765 75.2836 240.46L64.6785 277.789C64.5843 278.285 64.4782 278.792 64.5843 279.287C64.6903 279.782 64.8788 280.29 65.1852 280.691C65.4798 281.092 65.8805 281.386 66.3871 281.693C66.7878 281.894 67.2827 281.988 67.7894 281.988H67.8836C74.883 281.787 86.1833 278.285 97.4837 272.977C101.679 270.972 105.779 268.778 109.786 266.372C123.985 257.763 142.284 242.949 149.083 221.236C149.284 220.634 149.284 219.938 149.083 219.337C148.883 218.735 148.482 218.134 147.988 217.733C147.493 217.332 146.892 217.037 146.185 217.037C146.196 217.049 146.102 217.049 145.996 217.049ZM80.9986 244.671C87.9037 244.27 110.693 241.864 139.503 227.558C125.799 254.885 89.8008 271.703 72.4085 274.9L80.9986 244.671Z" fill="#503EAA"/>
<path d="M129.7 170.404C121.498 167.396 112.402 167.797 104.495 171.501C96.5999 175.204 90.4961 181.915 87.4913 190.112C84.4865 198.321 84.8872 207.426 88.5872 215.34C96.2818 231.852 155.883 203.935 148.188 187.517C144.606 179.509 137.901 173.411 129.7 170.404Z" fill="#77A4F2"/>
<path d="M139.999 193.131C136.794 186.42 131.102 181.325 124.197 178.813C117.292 176.313 109.692 176.608 103.093 179.709C96.4942 182.811 91.3919 188.414 88.8938 195.325C86.3957 202.237 86.6903 209.844 89.6951 216.649C96.1996 230.661 146.597 207.143 139.999 193.131Z" fill="#503EAA"/>
<path d="M99.6047 223.359C92.6996 223.359 87.9037 221.059 85.8063 216.554C81.8117 207.85 81.305 198.131 84.6044 189.132C87.8095 180.121 94.4082 172.915 103.01 168.811L103.104 168.716C107.405 166.711 112.001 165.615 116.703 165.414C117.197 165.414 117.798 165.414 118.305 165.414C122.5 165.414 126.601 166.11 130.607 167.62C135.108 169.224 139.103 171.724 142.603 174.92C146.102 178.128 148.907 181.926 150.898 186.231C155.694 196.539 141.801 208.852 125.799 216.353L125.399 216.554C116.102 220.847 106.698 223.359 99.6047 223.359ZM118.399 171.512C114.004 171.512 109.797 172.408 105.803 174.319L105.709 174.413C98.5089 177.822 93.112 183.825 90.4136 191.326C87.7152 198.827 88.1158 206.942 91.4152 214.148C92.4168 216.247 95.2095 217.45 99.6165 217.45C105.815 217.45 114.322 215.15 122.912 211.14L123.313 210.94C138.313 203.828 148.011 194.121 145.513 188.814C142.108 181.608 136.11 176.1 128.616 173.399C125.304 172.101 121.899 171.512 118.399 171.512Z" fill="#503EAA"/>
<path d="M118.399 165.697C122.594 165.697 126.695 166.393 130.595 167.797C134.99 169.401 139.091 171.901 142.497 175.003C145.996 178.211 148.801 182.009 150.698 186.219C155.494 196.433 141.601 208.534 125.693 216.047L125.293 216.247C116.49 220.352 107.087 223.053 99.4869 223.053C93.1828 223.053 88.1866 221.154 85.9831 216.448C81.9885 207.838 81.5879 198.131 84.7812 189.227C87.9863 180.322 94.585 173.116 103.081 169.011L103.175 168.917C107.37 166.912 111.977 165.815 116.679 165.615C117.398 165.697 117.904 165.697 118.399 165.697ZM99.6048 217.545C105.603 217.545 114.11 215.339 123.007 211.235L123.407 211.034C138.502 203.922 148.306 194.121 145.702 188.613C142.296 181.407 136.204 175.805 128.698 172.998C125.399 171.795 121.899 171.193 118.399 171.193C114.004 171.193 109.703 172.09 105.697 174L105.603 174.095C98.4029 177.503 92.8057 183.601 90.1073 191.114C87.4089 198.615 87.8095 206.824 91.1089 214.136C92.2047 216.448 95.3038 217.545 99.6048 217.545ZM118.399 165.096C117.904 165.096 117.304 165.096 116.797 165.096C112.001 165.296 107.394 166.393 103.093 168.504L102.998 168.599C94.3022 172.703 87.7035 180.004 84.4041 189.121C81.1047 198.238 81.5997 208.039 85.606 216.743C87.7035 221.248 92.6054 223.654 99.6048 223.654C106.71 223.654 116.208 221.154 125.599 216.743L126 216.542C142.096 208.935 156.201 196.527 151.299 186.019C149.296 181.714 146.503 177.81 142.897 174.614C139.398 171.406 135.297 168.905 130.796 167.313C126.801 165.898 122.7 165.096 118.399 165.096ZM99.6048 217.049C95.4099 217.049 92.6054 215.952 91.6038 213.947C88.3044 206.836 87.9038 198.733 90.6022 191.326C93.3006 183.919 98.6974 177.916 105.803 174.614L105.897 174.519C109.797 172.715 114.098 171.712 118.399 171.712C121.899 171.712 125.304 172.314 128.498 173.517C135.898 176.218 141.896 181.619 145.195 188.826C146.291 191.232 144.794 194.829 140.8 198.839C136.699 202.943 130.395 207.142 123.101 210.551L122.7 210.751C114.204 214.749 105.803 217.049 99.6048 217.049Z" fill="#503EAA"/>
<path d="M69.8987 264.592C66.4932 265.087 59.8002 252.68 62.204 255.487C64.6079 258.294 71.1006 252.986 73.9993 246.877C74.1054 246.877 73.3041 264.191 69.8987 264.592Z" fill="#503EAA"/>
<path d="M522.501 120.359L479.503 178.115C473.8 185.722 485.101 203.838 504.803 218.451C524.398 233.171 545.008 238.773 550.699 231.166L593.803 173.409C599.506 165.802 588.206 147.686 568.504 133.073C548.802 118.46 528.098 112.751 522.501 120.359Z" fill="#C0DBFF"/>
<path d="M595.031 174.323C600.711 166.699 589.163 148.463 569.238 133.592C549.313 118.721 528.556 112.846 522.876 120.47C517.196 128.095 528.744 146.331 548.669 161.202C568.594 176.073 589.351 181.947 595.031 174.323Z" fill="white"/>
<path d="M349.402 74.7148L389.702 20.6618C392.105 17.4538 396.607 16.864 399.8 19.1639L506.499 98.8341C509.704 101.24 510.294 105.745 507.996 108.942L467.696 162.995C465.293 166.203 460.791 166.792 457.598 164.493L350.899 84.8225C347.705 82.3221 346.998 77.8167 349.402 74.7148Z" fill="#C0DBFF"/>
<path d="M396.772 33.0299L355.465 88.4766L463.782 169.319L505.089 113.872L396.772 33.0299Z" fill="#77A4F2"/>
<path d="M566.407 236.969L606.305 182.916C608.709 179.708 613.104 179.118 616.31 181.418L722.915 260.392C726.12 262.798 726.709 267.197 724.411 270.405L684.512 324.459C682.108 327.667 677.713 328.256 674.508 325.956L567.903 246.982C564.698 244.67 564.003 240.165 566.407 236.969Z" fill="#C0DBFF"/>
<path d="M616.509 197.057L575.522 252.488L683.716 332.637L724.703 277.206L616.509 197.057Z" fill="#77A4F2"/>
<path d="M484.099 204.441L528.9 144.278L519.096 128.568L474.295 188.719L484.099 204.441Z" fill="white"/>
<path d="M561.905 170.107L520.805 225.363L544.407 232.369C544.407 232.369 555.908 223.358 559.608 217.851C563.308 212.343 587.911 180.015 587.911 180.015L561.905 170.107Z" fill="#77A4F2"/>
<path d="M511.496 111.656L471.196 165.709C467.296 170.91 460.002 172.019 454.794 168.115L348.094 88.4449C342.898 84.541 341.79 77.2285 345.691 72.0273L385.99 17.9743C389.89 12.773 397.184 11.6644 402.393 15.5683L509.092 95.2383C514.3 99.0361 515.396 106.349 511.496 111.656C511.602 111.656 511.496 111.656 511.496 111.656ZM352.996 77.4173C352.101 78.6203 352.395 80.2243 353.491 81.1206L460.191 160.791C461.392 161.687 462.995 161.487 463.891 160.295L504.19 106.242C505.085 105.039 504.791 103.435 503.695 102.539L396.996 22.7628C395.794 21.8664 394.191 22.0669 393.296 23.2581L352.996 77.4173Z" fill="#503EAA"/>
<path d="M597.303 176.204L589.997 170.802C593.002 166.698 584.895 151.082 565.699 136.776C546.504 122.458 529.194 119.061 526.095 123.166L518.79 117.764C527.285 106.253 551.595 115.063 571.085 129.57C590.598 143.982 605.799 164.705 597.303 176.204Z" fill="#503EAA"/>
<path d="M592.337 166.005C596.363 160.601 587.21 146.951 571.891 135.518C556.573 124.086 540.891 119.199 536.865 124.604C532.838 130.009 541.992 143.659 557.31 155.091C572.628 166.524 588.31 171.41 592.337 166.005Z" fill="#C0DBFF"/>
<path d="M597.303 176.205C588.807 187.716 564.498 178.906 545.008 164.399C525.518 149.892 510.306 129.169 518.813 117.658L526.119 123.06C523.114 127.058 531.315 142.78 550.416 157.086C569.612 171.405 587.016 174.707 590.021 170.803L597.303 176.205Z" fill="#503EAA"/>
<path d="M514.1 190.029C508.302 185.028 503.2 179.213 499.099 172.715L490.003 184.922C494.198 191.326 499.206 197.129 505.003 202.142L514.1 190.029Z" fill="#503EAA"/>
<path d="M487.505 202.529L467.107 212.837C467.107 212.837 465.41 223.452 476.204 234.456C487.01 245.472 496.507 249.364 496.507 249.364L514.206 225.646L487.505 202.529Z" fill="#C0DBFF"/>
<path d="M526.001 174.011C520.204 169.01 515.101 163.196 510.906 156.697L505.71 163.609C509.905 170.013 514.913 175.816 520.71 180.828L526.001 174.011Z" fill="#503EAA"/>
<path d="M509.905 223.652L493.903 247.772C493.903 247.772 495.505 249.977 505.297 253.48C515.101 256.983 526.402 256.983 528.994 250.472C531.598 243.962 531.197 235.859 526.897 232.557C522.596 229.255 509.905 223.652 509.905 223.652Z" fill="#77A4F2"/>
<path d="M488.895 206.741L467.897 222.852L467.001 204.335L483.404 200.23L488.895 206.741Z" fill="white"/>
<path d="M597.303 176.205L554.305 233.961C545.809 245.472 521.5 236.662 502.01 222.155C482.508 207.637 467.308 186.926 475.815 175.415L518.919 117.658C527.415 106.147 551.724 114.957 571.214 129.464C590.598 143.983 605.799 164.706 597.303 176.205ZM483.003 180.911C479.998 184.909 488.2 200.631 507.301 214.937C526.496 229.255 543.806 232.652 546.799 228.548L589.903 170.791C592.907 166.687 584.8 151.071 565.605 136.765C546.41 122.447 529.1 119.05 526.107 123.154L483.003 180.911Z" fill="#503EAA"/>
<path d="M576.305 152.487C572.605 157.488 563.107 156.792 555.106 150.883C547.105 144.974 543.712 136.07 547.506 130.963L552.302 124.559C556.603 128.757 561.104 132.767 565.9 136.471C572.805 141.578 575.197 142.781 580.9 146.484L576.305 152.487Z" fill="#503EAA"/>
<path d="M528.605 202.73L523.303 209.936C521.406 212.543 522.607 216.447 526.107 218.641C529.607 220.834 533.908 220.539 535.911 217.945L541.308 210.738C543.205 208.132 542.003 204.228 538.503 202.034C535.004 199.829 530.502 200.135 528.605 202.73Z" fill="#503EAA"/>
<path d="M552.45 194.535C553.787 191.803 551.897 188.13 548.227 186.33C544.557 184.529 540.498 185.284 539.161 188.015C537.823 190.747 539.714 194.42 543.383 196.221C547.053 198.021 551.112 197.266 552.45 194.535Z" fill="#503EAA"/>
<path d="M532.706 253.28C524.505 264.295 502.905 261.488 483.51 247.076C464.114 232.557 455.312 212.648 463.407 201.633C465.811 198.425 478.502 194.131 483.404 193.424L484.606 202.435C479.704 203.437 474.908 205.136 470.407 207.435C466.612 213.545 473.105 228.052 488.812 239.763C504.614 251.569 520.31 253.574 525.011 248.267C526.013 243.266 526.213 238.254 525.813 233.253L534.815 231.849C535.605 236.768 535.098 250.072 532.706 253.28Z" fill="#503EAA"/>
<path d="M371.823 44.9563L367.759 50.4121L486.014 138.672L490.078 133.216L371.823 44.9563Z" fill="#503EAA"/>
<path d="M421.055 34.9087L372.21 100.473L377.661 104.541L426.505 38.9769L421.055 34.9087Z" fill="#503EAA"/>
<path d="M450.598 56.9243L401.754 122.488L407.205 126.556L456.049 60.9925L450.598 56.9243Z" fill="#503EAA"/>
<path d="M480.175 79.0824L431.331 144.646L436.782 148.715L485.626 83.1506L480.175 79.0824Z" fill="#503EAA"/>
<path d="M731.799 275.996L691.5 330.049C687.599 335.25 680.306 336.359 675.097 332.455L568.398 252.785C563.201 248.881 562.2 241.568 565.994 236.367L606.294 182.314C610.194 177.113 617.488 176.004 622.696 179.908L729.395 259.578C734.604 263.494 735.7 270.795 731.799 275.996C731.905 275.996 731.799 275.996 731.799 275.996ZM573.3 241.875C572.404 243.078 572.605 244.682 573.795 245.578L680.494 325.249C681.696 326.145 683.298 325.944 684.194 324.753L724.493 270.7C725.389 269.497 725.189 267.893 723.999 266.997L617.299 187.221C616.097 186.324 614.495 186.525 613.599 187.716L573.3 241.875Z" fill="#503EAA"/>
<path d="M592.165 209.382L588.101 214.838L706.356 303.097L710.42 297.641L592.165 209.382Z" fill="#503EAA"/>
<path d="M637.419 197.031L588.938 262.596L594.403 266.644L642.884 201.079L637.419 197.031Z" fill="#503EAA"/>
<path d="M666.891 218.917L618.41 284.482L623.875 288.531L672.356 222.966L666.891 218.917Z" fill="#503EAA"/>
<path d="M700.524 243.485L651.68 309.049L657.131 313.117L705.975 247.553L700.524 243.485Z" fill="#503EAA"/>
<path d="M495.071 131.278L485.569 144.033L496.791 152.409L506.294 139.654L495.071 131.278Z" fill="#503EAA"/>
<path d="M581.182 195.506L571.68 208.262L582.902 216.638L592.405 203.882L581.182 195.506Z" fill="#503EAA"/>
<path d="M540.801 44.1922C521.5 70.0098 532.906 111.148 566.301 135.975C599.601 160.802 642.198 160.094 661.499 134.171C670.396 122.258 650.493 92.5368 617.193 67.6038C583.799 42.7887 549.603 32.28 540.801 44.1922Z" fill="#C0DBFF"/>
<path d="M567.302 132.271C549.297 116.856 547.506 93.138 549.002 78.7255L534.297 56.0098C534.297 56.1041 522.796 104.343 567.302 132.271Z" fill="white"/>
<path d="M569.4 133.875C589.302 146.684 612.504 141.683 625.901 136.175L651.801 143.782C651.695 143.782 608.898 168.503 569.4 133.875Z" fill="#77A4F2"/>
<path d="M664.999 136.978C652.803 153.29 613.293 137.58 582.303 114.357C551.3 91.2403 524.905 57.8036 537.007 41.4922L544.313 46.8939C538.81 54.3951 552.608 80.826 587.711 107.045C622.814 133.263 652.108 138.972 657.717 131.47L664.999 136.978Z" fill="#503EAA"/>
<path d="M654.438 137.55C661.671 127.842 645.494 103.523 618.306 83.2318C591.119 62.9405 563.216 54.3609 555.984 64.0688C548.752 73.7767 564.928 98.0958 592.116 118.387C619.303 138.678 647.206 147.258 654.438 137.55Z" fill="#503EAA"/>
<path d="M664.999 136.978C644.295 164.801 598.693 166.004 563.496 139.679C528.193 113.354 516.398 69.3148 537.101 41.4921C549.297 25.1807 588.807 40.8906 619.797 64.1135C650.8 87.1241 677.206 120.561 664.999 136.978ZM544.395 46.8939C526.696 70.7183 537.69 109.05 568.893 132.367C600.095 155.684 639.994 155.283 657.693 131.47C663.29 123.969 649.397 97.5384 614.295 71.3198C579.203 45.0894 549.898 39.381 544.395 46.8939Z" fill="#503EAA"/>
<path d="M649.349 18.9579L548.136 35.1992L549.576 44.1897L650.789 27.9484L649.349 18.9579Z" fill="#503EAA"/>
<path d="M654.402 22.5994L645.383 23.7812L658.686 125.496L667.706 124.314L654.402 22.5994Z" fill="#503EAA"/>
<path d="M648.589 18.1515L584.382 104.338L591.675 109.781L655.882 23.5946L648.589 18.1515Z" fill="#503EAA"/>
<path d="M655.395 32.0794C664.122 32.0794 671.197 24.9983 671.197 16.2634C671.197 7.52837 664.122 0.447266 655.395 0.447266C646.668 0.447266 639.594 7.52837 639.594 16.2634C639.594 24.9983 646.668 32.0794 655.395 32.0794Z" fill="#77A4F2"/>
<path d="M341.936 255H344.304V246.136H347.728V244.008H338.512V246.136H341.936V255ZM351.579 248.264V246.728H349.243V255H351.579V251.048C351.579 249.496 352.683 248.504 354.411 248.504V246.536C353.147 246.536 352.123 247.192 351.579 248.264ZM359.662 253.128C358.686 253.128 357.966 252.52 357.694 251.624H363.662C363.662 248.504 362.142 246.536 359.55 246.536C357.134 246.536 355.294 248.344 355.294 250.84C355.294 253.384 357.214 255.192 359.678 255.192C360.894 255.192 362.318 254.68 363.054 253.912L361.566 252.392C361.118 252.824 360.318 253.128 359.662 253.128ZM359.646 248.6C360.59 248.6 361.198 249.128 361.422 249.944H357.726C358.03 249.112 358.766 248.6 359.646 248.6ZM368.939 246.536C367.787 246.536 366.651 246.856 365.483 247.448L366.267 249C366.923 248.664 367.643 248.408 368.411 248.408C369.771 248.408 370.315 249.176 370.315 250.056V250.216C369.611 249.944 368.875 249.8 368.203 249.8C366.283 249.8 364.763 250.92 364.763 252.552C364.763 254.136 366.123 255.192 367.883 255.192C368.779 255.192 369.723 254.84 370.315 254.168V255H372.571V250.056C372.571 247.896 371.099 246.536 368.939 246.536ZM368.411 253.576C367.611 253.576 367.019 253.16 367.019 252.488C367.019 251.816 367.691 251.32 368.539 251.32C369.179 251.32 369.787 251.432 370.315 251.624V252.392C370.155 253.16 369.307 253.576 368.411 253.576ZM377.644 255.192C379.676 255.192 381.004 254.152 381.004 252.52C381.004 250.712 379.42 250.232 377.996 249.864C376.876 249.56 376.54 249.432 376.54 248.984C376.54 248.696 376.94 248.488 377.516 248.488C378.22 248.488 379.084 248.76 379.836 249.224L380.78 247.56C379.868 246.952 378.7 246.536 377.516 246.536C375.564 246.536 374.268 247.656 374.284 249.224C374.3 250.856 375.612 251.32 377.308 251.736C378.156 251.96 378.764 252.12 378.764 252.632C378.764 253 378.316 253.256 377.692 253.256C376.588 253.256 375.66 252.856 374.924 252.328L373.916 253.944C374.908 254.744 376.316 255.192 377.644 255.192ZM388.059 246.728V251.672L388.043 251.624C388.043 252.52 387.291 253.224 386.315 253.224C385.387 253.224 384.747 252.52 384.747 251.496V246.728H382.491V251.992C382.491 253.864 383.771 255.192 385.563 255.192C386.635 255.192 387.563 254.712 388.059 253.96V255H390.395V246.728H388.059ZM394.735 248.264V246.728H392.399V255H394.735V251.048C394.735 249.496 395.839 248.504 397.567 248.504V246.536C396.303 246.536 395.279 247.192 394.735 248.264ZM400.803 257.88C402.099 257.88 403.155 257.032 403.779 255.416L407.171 246.728H404.787L402.723 252.536L400.547 246.728H398.131L401.571 255.08L401.283 255.688C401.107 255.992 400.755 256.136 400.307 256.136C400.035 256.136 399.619 255.992 399.219 255.768L398.723 257.368C399.283 257.672 400.115 257.88 400.803 257.88Z" fill="#86D4C9"/>
<path d="M349.384 273L346.68 269.16C348.184 268.632 349.176 267.352 349.176 265.72C349.176 263.544 347.416 262.008 345.032 262.008H340.088V273H342.44V269.432H344.184L346.696 273H349.384ZM342.44 264.168H344.776C345.944 264.168 346.744 264.776 346.744 265.72C346.744 266.664 345.944 267.272 344.776 267.272H342.44V264.168ZM354.772 271.128C353.796 271.128 353.076 270.52 352.804 269.624H358.772C358.772 266.504 357.252 264.536 354.66 264.536C352.244 264.536 350.404 266.344 350.404 268.84C350.404 271.384 352.324 273.192 354.788 273.192C356.004 273.192 357.428 272.68 358.164 271.912L356.676 270.392C356.228 270.824 355.428 271.128 354.772 271.128ZM354.756 266.6C355.7 266.6 356.308 267.128 356.532 267.944H352.836C353.14 267.112 353.876 266.6 354.756 266.6ZM362.042 273H364.138L365.69 267.8L367.226 273H369.322L372.138 264.728H369.85L368.282 269.88L366.65 264.728H364.714L363.082 269.88L361.514 264.728H359.226L362.042 273ZM377.111 264.536C375.959 264.536 374.823 264.856 373.655 265.448L374.439 267C375.095 266.664 375.815 266.408 376.583 266.408C377.943 266.408 378.487 267.176 378.487 268.056V268.216C377.783 267.944 377.047 267.8 376.375 267.8C374.455 267.8 372.935 268.92 372.935 270.552C372.935 272.136 374.295 273.192 376.055 273.192C376.951 273.192 377.895 272.84 378.487 272.168V273H380.743V268.056C380.743 265.896 379.271 264.536 377.111 264.536ZM376.583 271.576C375.783 271.576 375.191 271.16 375.191 270.488C375.191 269.816 375.863 269.32 376.711 269.32C377.351 269.32 377.959 269.432 378.487 269.624V270.392C378.327 271.16 377.479 271.576 376.583 271.576ZM385.048 266.264V264.728H382.712V273H385.048V269.048C385.048 267.496 386.152 266.504 387.88 266.504V264.536C386.616 264.536 385.592 265.192 385.048 266.264ZM395.403 261.816V265.912C394.747 265.048 393.787 264.536 392.619 264.536C390.411 264.536 388.811 266.328 388.811 268.856C388.811 271.4 390.411 273.192 392.619 273.192C393.787 273.192 394.747 272.68 395.403 271.816V273H397.739V261.816H395.403ZM393.291 271.224C391.995 271.224 391.083 270.248 391.083 268.856C391.083 267.48 391.995 266.504 393.291 266.504C394.523 266.504 395.403 267.48 395.403 268.856C395.403 270.248 394.523 271.224 393.291 271.224ZM402.894 273.192C404.926 273.192 406.254 272.152 406.254 270.52C406.254 268.712 404.67 268.232 403.246 267.864C402.126 267.56 401.79 267.432 401.79 266.984C401.79 266.696 402.19 266.488 402.766 266.488C403.47 266.488 404.334 266.76 405.086 267.224L406.03 265.56C405.118 264.952 403.95 264.536 402.766 264.536C400.814 264.536 399.518 265.656 399.534 267.224C399.55 268.856 400.862 269.32 402.558 269.736C403.406 269.96 404.014 270.12 404.014 270.632C404.014 271 403.566 271.256 402.942 271.256C401.838 271.256 400.91 270.856 400.174 270.328L399.166 271.944C400.158 272.744 401.566 273.192 402.894 273.192Z" fill="#86D4C9"/>
<path d="M266.184 183H270.12C273.816 183 276.44 180.712 276.44 177.496C276.44 174.28 273.816 172.008 270.12 172.008H266.184V183ZM268.536 180.856V174.152H270.424C272.52 174.152 274.008 175.544 274.008 177.496C274.008 179.464 272.52 180.856 270.424 180.856H268.536ZM282.1 181.128C281.124 181.128 280.404 180.52 280.132 179.624H286.1C286.1 176.504 284.58 174.536 281.988 174.536C279.572 174.536 277.732 176.344 277.732 178.84C277.732 181.384 279.652 183.192 282.116 183.192C283.332 183.192 284.756 182.68 285.492 181.912L284.004 180.392C283.556 180.824 282.756 181.128 282.1 181.128ZM282.084 176.6C283.028 176.6 283.636 177.128 283.86 177.944H280.164C280.468 177.112 281.204 176.6 282.084 176.6ZM287.68 183H290.016V171.816H287.68V183ZM295.959 181.128C294.983 181.128 294.263 180.52 293.991 179.624H299.959C299.959 176.504 298.439 174.536 295.847 174.536C293.431 174.536 291.591 176.344 291.591 178.84C291.591 181.384 293.511 183.192 295.975 183.192C297.191 183.192 298.615 182.68 299.351 181.912L297.863 180.392C297.415 180.824 296.615 181.128 295.959 181.128ZM295.943 176.6C296.887 176.6 297.495 177.128 297.719 177.944H294.023C294.327 177.112 295.063 176.6 295.943 176.6ZM307.524 174.728V175.848C306.964 175.064 305.908 174.536 304.788 174.536C302.708 174.536 301.124 176.152 301.124 178.456C301.124 180.76 302.708 182.392 304.788 182.392C305.876 182.392 306.868 181.912 307.524 181.112V182.024C307.524 183.096 306.564 183.784 305.06 183.784C304.1 183.784 303.14 183.48 302.596 183L301.78 184.648C302.596 185.288 303.972 185.752 305.428 185.752C308.036 185.752 309.876 184.248 309.876 182.12V174.728H307.524ZM305.524 180.424C304.356 180.424 303.524 179.608 303.524 178.456C303.524 177.304 304.356 176.504 305.524 176.504C306.692 176.504 307.524 177.304 307.524 178.456C307.524 179.608 306.692 180.424 305.524 180.424ZM315.626 174.536C314.474 174.536 313.338 174.856 312.17 175.448L312.954 177C313.61 176.664 314.33 176.408 315.098 176.408C316.458 176.408 317.002 177.176 317.002 178.056V178.216C316.298 177.944 315.562 177.8 314.89 177.8C312.97 177.8 311.45 178.92 311.45 180.552C311.45 182.136 312.81 183.192 314.57 183.192C315.466 183.192 316.41 182.84 317.002 182.168V183H319.258V178.056C319.258 175.896 317.786 174.536 315.626 174.536ZM315.098 181.576C314.298 181.576 313.706 181.16 313.706 180.488C313.706 179.816 314.378 179.32 315.226 179.32C315.866 179.32 316.474 179.432 317.002 179.624V180.392C316.842 181.16 315.994 181.576 315.098 181.576ZM325.579 180.952C325.419 181.112 325.099 181.224 324.779 181.224C324.347 181.224 323.995 180.84 323.995 180.296V176.616H325.787V174.728H323.995V172.456H321.755V174.728H320.619V176.616H321.755V180.664C321.755 182.152 322.779 183.192 324.235 183.192C324.907 183.192 325.659 182.904 326.139 182.472L325.579 180.952ZM331.506 181.128C330.53 181.128 329.81 180.52 329.538 179.624H335.506C335.506 176.504 333.986 174.536 331.394 174.536C328.978 174.536 327.138 176.344 327.138 178.84C327.138 181.384 329.058 183.192 331.522 183.192C332.738 183.192 334.162 182.68 334.898 181.912L333.41 180.392C332.962 180.824 332.162 181.128 331.506 181.128ZM331.49 176.6C332.434 176.6 333.042 177.128 333.266 177.944H329.57C329.874 177.112 330.61 176.6 331.49 176.6ZM343.263 171.816V175.912C342.607 175.048 341.647 174.536 340.479 174.536C338.271 174.536 336.671 176.328 336.671 178.856C336.671 181.4 338.271 183.192 340.479 183.192C341.647 183.192 342.607 182.68 343.263 181.816V183H345.599V171.816H343.263ZM341.151 181.224C339.855 181.224 338.943 180.248 338.943 178.856C338.943 177.48 339.855 176.504 341.151 176.504C342.383 176.504 343.263 177.48 343.263 178.856C343.263 180.248 342.383 181.224 341.151 181.224Z" fill="#86D4C9"/>
<path d="M288.184 200V189.008H290.536L293.944 195.216L297.336 189.008H299.704V200H297.336V193.152L293.944 199.36L290.536 193.152V200H288.184ZM310.043 189.008H312.683L308.203 200H305.563L301.083 189.008H303.739L306.891 196.752L310.043 189.008ZM314.075 200V189.008H316.427L321.723 196.112V189.008H324.091V200H321.723L316.427 192.896V200H314.075Z" fill="#86D4C9"/>
<path d="M840.184 307V296.008H842.536L845.944 302.216L849.336 296.008H851.704V307H849.336V300.152L845.944 306.36L842.536 300.152V307H840.184ZM862.043 296.008H864.683L860.203 307H857.563L853.083 296.008H855.739L858.891 303.752L862.043 296.008ZM866.075 307V296.008H868.427L873.723 303.112V296.008H876.091V307H873.723L868.427 299.896V307H866.075Z" fill="#86D4C9"/>
<path d="M836.384 325L833.68 321.16C835.184 320.632 836.176 319.352 836.176 317.72C836.176 315.544 834.416 314.008 832.032 314.008H827.088V325H829.44V321.432H831.184L833.696 325H836.384ZM829.44 316.168H831.776C832.944 316.168 833.744 316.776 833.744 317.72C833.744 318.664 832.944 319.272 831.776 319.272H829.44V316.168ZM841.772 323.128C840.796 323.128 840.076 322.52 839.804 321.624H845.772C845.772 318.504 844.252 316.536 841.66 316.536C839.244 316.536 837.404 318.344 837.404 320.84C837.404 323.384 839.324 325.192 841.788 325.192C843.004 325.192 844.428 324.68 845.164 323.912L843.676 322.392C843.228 322.824 842.428 323.128 841.772 323.128ZM841.756 318.6C842.7 318.6 843.308 319.128 843.532 319.944H839.836C840.14 319.112 840.876 318.6 841.756 318.6ZM849.042 325H851.138L852.69 319.8L854.226 325H856.322L859.138 316.728H856.85L855.282 321.88L853.65 316.728H851.714L850.082 321.88L848.514 316.728H846.226L849.042 325ZM864.111 316.536C862.959 316.536 861.823 316.856 860.655 317.448L861.439 319C862.095 318.664 862.815 318.408 863.583 318.408C864.943 318.408 865.487 319.176 865.487 320.056V320.216C864.783 319.944 864.047 319.8 863.375 319.8C861.455 319.8 859.935 320.92 859.935 322.552C859.935 324.136 861.295 325.192 863.055 325.192C863.951 325.192 864.895 324.84 865.487 324.168V325H867.743V320.056C867.743 317.896 866.271 316.536 864.111 316.536ZM863.583 323.576C862.783 323.576 862.191 323.16 862.191 322.488C862.191 321.816 862.863 321.32 863.711 321.32C864.351 321.32 864.959 321.432 865.487 321.624V322.392C865.327 323.16 864.479 323.576 863.583 323.576ZM872.048 318.264V316.728H869.712V325H872.048V321.048C872.048 319.496 873.152 318.504 874.88 318.504V316.536C873.616 316.536 872.592 317.192 872.048 318.264ZM882.403 313.816V317.912C881.747 317.048 880.787 316.536 879.619 316.536C877.411 316.536 875.811 318.328 875.811 320.856C875.811 323.4 877.411 325.192 879.619 325.192C880.787 325.192 881.747 324.68 882.403 323.816V325H884.739V313.816H882.403ZM880.291 323.224C878.995 323.224 878.083 322.248 878.083 320.856C878.083 319.48 878.995 318.504 880.291 318.504C881.523 318.504 882.403 319.48 882.403 320.856C882.403 322.248 881.523 323.224 880.291 323.224ZM889.894 325.192C891.926 325.192 893.254 324.152 893.254 322.52C893.254 320.712 891.67 320.232 890.246 319.864C889.126 319.56 888.79 319.432 888.79 318.984C888.79 318.696 889.19 318.488 889.766 318.488C890.47 318.488 891.334 318.76 892.086 319.224L893.03 317.56C892.118 316.952 890.95 316.536 889.766 316.536C887.814 316.536 886.518 317.656 886.534 319.224C886.55 320.856 887.862 321.32 889.558 321.736C890.406 321.96 891.014 322.12 891.014 322.632C891.014 323 890.566 323.256 889.942 323.256C888.838 323.256 887.91 322.856 887.174 322.328L886.166 323.944C887.158 324.744 888.566 325.192 889.894 325.192Z" fill="#86D4C9"/>
<path d="M760.248 240.192C762.936 240.192 764.52 238.8 764.52 236.704C764.52 234.672 762.952 233.968 760.584 233.44C758.888 233.056 758.232 232.8 758.232 232C758.232 231.344 758.84 230.816 759.848 230.816C760.904 230.816 762.008 231.248 762.984 232.032L764.216 230.336C763.096 229.376 761.704 228.816 759.912 228.816C757.512 228.816 755.848 230.208 755.848 232.24C755.848 234.368 757.496 235.024 759.816 235.552C761.496 235.936 762.136 236.176 762.136 236.96C762.136 237.648 761.528 238.192 760.344 238.192C758.952 238.192 757.768 237.648 756.728 236.752L755.368 238.368C756.648 239.552 758.344 240.192 760.248 240.192ZM767.317 230.592C768.005 230.592 768.565 230.016 768.565 229.312C768.565 228.656 768.005 228.064 767.317 228.064C766.597 228.064 766.037 228.656 766.037 229.312C766.037 230.016 766.597 230.592 767.317 230.592ZM766.133 240H768.469V231.728H766.133V240ZM776.492 231.728V232.848C775.932 232.064 774.876 231.536 773.756 231.536C771.676 231.536 770.092 233.152 770.092 235.456C770.092 237.76 771.676 239.392 773.756 239.392C774.844 239.392 775.836 238.912 776.492 238.112V239.024C776.492 240.096 775.532 240.784 774.028 240.784C773.068 240.784 772.108 240.48 771.564 240L770.748 241.648C771.564 242.288 772.94 242.752 774.396 242.752C777.004 242.752 778.844 241.248 778.844 239.12V231.728H776.492ZM774.492 237.424C773.324 237.424 772.492 236.608 772.492 235.456C772.492 234.304 773.324 233.504 774.492 233.504C775.66 233.504 776.492 234.304 776.492 235.456C776.492 236.608 775.66 237.424 774.492 237.424ZM785.683 231.536C784.611 231.536 783.683 232.016 783.187 232.768V231.728H780.851V240H783.187V235.056L783.203 235.104C783.203 234.208 783.955 233.504 784.931 233.504C785.859 233.504 786.499 234.208 786.499 235.232V240H788.755V234.736C788.755 232.864 787.475 231.536 785.683 231.536ZM794.631 238.128C793.655 238.128 792.935 237.52 792.663 236.624H798.631C798.631 233.504 797.111 231.536 794.519 231.536C792.103 231.536 790.263 233.344 790.263 235.84C790.263 238.384 792.183 240.192 794.647 240.192C795.863 240.192 797.287 239.68 798.023 238.912L796.535 237.392C796.087 237.824 795.287 238.128 794.631 238.128ZM794.615 233.6C795.559 233.6 796.167 234.128 796.391 234.944H792.695C792.999 234.112 793.735 233.6 794.615 233.6ZM806.388 228.816V232.912C805.732 232.048 804.772 231.536 803.604 231.536C801.396 231.536 799.796 233.328 799.796 235.856C799.796 238.4 801.396 240.192 803.604 240.192C804.772 240.192 805.732 239.68 806.388 238.816V240H808.724V228.816H806.388ZM804.276 238.224C802.98 238.224 802.068 237.248 802.068 235.856C802.068 234.48 802.98 233.504 804.276 233.504C805.508 233.504 806.388 234.48 806.388 235.856C806.388 237.248 805.508 238.224 804.276 238.224Z" fill="#86D4C9"/>
<path d="M748.128 248.536C746.976 248.536 746.016 249.032 745.36 249.88V248.728H743.024V259.752H745.36V255.832C746.016 256.696 746.976 257.192 748.128 257.192C750.336 257.192 751.936 255.4 751.936 252.856C751.936 250.328 750.336 248.536 748.128 248.536ZM747.456 255.224C746.32 255.224 745.488 254.392 745.36 253.176V252.536C745.488 251.336 746.32 250.504 747.456 250.504C748.752 250.504 749.664 251.48 749.664 252.856C749.664 254.248 748.752 255.224 747.456 255.224ZM755.923 250.264V248.728H753.587V257H755.923V253.048C755.923 251.496 757.027 250.504 758.755 250.504V248.536C757.491 248.536 756.467 249.192 755.923 250.264ZM761.27 247.592C761.958 247.592 762.518 247.016 762.518 246.312C762.518 245.656 761.958 245.064 761.27 245.064C760.55 245.064 759.99 245.656 759.99 246.312C759.99 247.016 760.55 247.592 761.27 247.592ZM760.086 257H762.422V248.728H760.086V257ZM768.51 257.192C769.886 257.192 771.006 256.632 771.822 255.736L770.27 254.424C769.838 254.904 769.166 255.224 768.526 255.224C767.294 255.224 766.27 254.136 766.27 252.84C766.27 251.576 767.294 250.504 768.51 250.504C769.15 250.504 769.806 250.808 770.222 251.272L771.774 249.944C770.974 249.08 769.87 248.536 768.526 248.536C766.078 248.536 763.998 250.504 763.998 252.856C763.998 255.208 766.062 257.192 768.51 257.192ZM777.131 255.128C776.155 255.128 775.435 254.52 775.163 253.624H781.131C781.131 250.504 779.611 248.536 777.019 248.536C774.603 248.536 772.763 250.344 772.763 252.84C772.763 255.384 774.683 257.192 777.147 257.192C778.363 257.192 779.787 256.68 780.523 255.912L779.035 254.392C778.587 254.824 777.787 255.128 777.131 255.128ZM777.115 250.6C778.059 250.6 778.667 251.128 778.891 251.944H775.195C775.499 251.112 776.235 250.6 777.115 250.6ZM789.948 248.28C789.948 247.736 790.3 247.352 790.732 247.352C791.052 247.352 791.372 247.464 791.532 247.624L792.092 246.2C791.612 245.768 790.86 245.48 790.188 245.48C788.732 245.48 787.708 246.52 787.708 248.008V248.728H786.572V250.616H787.708V257H789.948V250.616H791.74V248.728H789.948V248.28ZM797.147 255.128C796.171 255.128 795.451 254.52 795.179 253.624H801.147C801.147 250.504 799.627 248.536 797.035 248.536C794.619 248.536 792.779 250.344 792.779 252.84C792.779 255.384 794.699 257.192 797.163 257.192C798.379 257.192 799.803 256.68 800.539 255.912L799.051 254.392C798.603 254.824 797.803 255.128 797.147 255.128ZM797.131 250.6C798.075 250.6 798.683 251.128 798.907 251.944H795.211C795.515 251.112 796.251 250.6 797.131 250.6ZM806.631 255.128C805.655 255.128 804.935 254.52 804.663 253.624H810.631C810.631 250.504 809.111 248.536 806.519 248.536C804.103 248.536 802.263 250.344 802.263 252.84C802.263 255.384 804.183 257.192 806.647 257.192C807.863 257.192 809.287 256.68 810.023 255.912L808.535 254.392C808.087 254.824 807.287 255.128 806.631 255.128ZM806.615 250.6C807.559 250.6 808.167 251.128 808.391 251.944H804.695C804.999 251.112 805.735 250.6 806.615 250.6ZM818.388 245.816V249.912C817.732 249.048 816.772 248.536 815.604 248.536C813.396 248.536 811.796 250.328 811.796 252.856C811.796 255.4 813.396 257.192 815.604 257.192C816.772 257.192 817.732 256.68 818.388 255.816V257H820.724V245.816H818.388ZM816.276 255.224C814.98 255.224 814.068 254.248 814.068 252.856C814.068 251.48 814.98 250.504 816.276 250.504C817.508 250.504 818.388 251.48 818.388 252.856C818.388 254.248 817.508 255.224 816.276 255.224Z" fill="#86D4C9"/>
<path d="M484.936 372H487.304V363.136H490.728V361.008H481.512V363.136H484.936V372ZM494.579 365.264V363.728H492.243V372H494.579V368.048C494.579 366.496 495.683 365.504 497.411 365.504V363.536C496.147 363.536 495.123 364.192 494.579 365.264ZM502.662 370.128C501.686 370.128 500.966 369.52 500.694 368.624H506.662C506.662 365.504 505.142 363.536 502.55 363.536C500.134 363.536 498.294 365.344 498.294 367.84C498.294 370.384 500.214 372.192 502.678 372.192C503.894 372.192 505.318 371.68 506.054 370.912L504.566 369.392C504.118 369.824 503.318 370.128 502.662 370.128ZM502.646 365.6C503.59 365.6 504.198 366.128 504.422 366.944H500.726C501.03 366.112 501.766 365.6 502.646 365.6ZM511.939 363.536C510.787 363.536 509.651 363.856 508.483 364.448L509.267 366C509.923 365.664 510.643 365.408 511.411 365.408C512.771 365.408 513.315 366.176 513.315 367.056V367.216C512.611 366.944 511.875 366.8 511.203 366.8C509.283 366.8 507.763 367.92 507.763 369.552C507.763 371.136 509.123 372.192 510.883 372.192C511.779 372.192 512.723 371.84 513.315 371.168V372H515.571V367.056C515.571 364.896 514.099 363.536 511.939 363.536ZM511.411 370.576C510.611 370.576 510.019 370.16 510.019 369.488C510.019 368.816 510.691 368.32 511.539 368.32C512.179 368.32 512.787 368.432 513.315 368.624V369.392C513.155 370.16 512.307 370.576 511.411 370.576ZM520.644 372.192C522.676 372.192 524.004 371.152 524.004 369.52C524.004 367.712 522.42 367.232 520.996 366.864C519.876 366.56 519.54 366.432 519.54 365.984C519.54 365.696 519.94 365.488 520.516 365.488C521.22 365.488 522.084 365.76 522.836 366.224L523.78 364.56C522.868 363.952 521.7 363.536 520.516 363.536C518.564 363.536 517.268 364.656 517.284 366.224C517.3 367.856 518.612 368.32 520.308 368.736C521.156 368.96 521.764 369.12 521.764 369.632C521.764 370 521.316 370.256 520.692 370.256C519.588 370.256 518.66 369.856 517.924 369.328L516.916 370.944C517.908 371.744 519.316 372.192 520.644 372.192ZM531.059 363.728V368.672L531.043 368.624C531.043 369.52 530.291 370.224 529.315 370.224C528.387 370.224 527.747 369.52 527.747 368.496V363.728H525.491V368.992C525.491 370.864 526.771 372.192 528.563 372.192C529.635 372.192 530.563 371.712 531.059 370.96V372H533.395V363.728H531.059ZM537.735 365.264V363.728H535.399V372H537.735V368.048C537.735 366.496 538.839 365.504 540.567 365.504V363.536C539.303 363.536 538.279 364.192 537.735 365.264ZM543.803 374.88C545.099 374.88 546.155 374.032 546.779 372.416L550.171 363.728H547.787L545.723 369.536L543.547 363.728H541.131L544.571 372.08L544.283 372.688C544.107 372.992 543.755 373.136 543.307 373.136C543.035 373.136 542.619 372.992 542.219 372.768L541.723 374.368C542.283 374.672 543.115 374.88 543.803 374.88Z" fill="#86D4C9"/>
<path d="M492.384 389.789L489.68 385.949C491.184 385.421 492.176 384.141 492.176 382.509C492.176 380.333 490.416 378.797 488.032 378.797H483.088V389.789H485.44V386.221H487.184L489.696 389.789H492.384ZM485.44 380.957H487.776C488.944 380.957 489.744 381.565 489.744 382.509C489.744 383.453 488.944 384.061 487.776 384.061H485.44V380.957ZM497.772 387.917C496.796 387.917 496.076 387.309 495.804 386.413H501.772C501.772 383.293 500.252 381.325 497.66 381.325C495.244 381.325 493.404 383.133 493.404 385.629C493.404 388.173 495.324 389.981 497.788 389.981C499.004 389.981 500.428 389.469 501.164 388.701L499.676 387.181C499.228 387.613 498.428 387.917 497.772 387.917ZM497.756 383.389C498.7 383.389 499.308 383.917 499.532 384.733H495.836C496.14 383.901 496.876 383.389 497.756 383.389ZM505.042 389.789H507.138L508.69 384.589L510.226 389.789H512.322L515.138 381.517H512.85L511.282 386.669L509.65 381.517H507.714L506.082 386.669L504.514 381.517H502.226L505.042 389.789ZM520.111 381.325C518.959 381.325 517.823 381.645 516.655 382.237L517.439 383.789C518.095 383.453 518.815 383.197 519.583 383.197C520.943 383.197 521.487 383.965 521.487 384.845V385.005C520.783 384.733 520.047 384.589 519.375 384.589C517.455 384.589 515.935 385.709 515.935 387.341C515.935 388.925 517.295 389.981 519.055 389.981C519.951 389.981 520.895 389.629 521.487 388.957V389.789H523.743V384.845C523.743 382.685 522.271 381.325 520.111 381.325ZM519.583 388.365C518.783 388.365 518.191 387.949 518.191 387.277C518.191 386.605 518.863 386.109 519.711 386.109C520.351 386.109 520.959 386.221 521.487 386.413V387.181C521.327 387.949 520.479 388.365 519.583 388.365ZM528.048 383.053V381.517H525.712V389.789H528.048V385.837C528.048 384.285 529.152 383.293 530.88 383.293V381.325C529.616 381.325 528.592 381.981 528.048 383.053ZM538.403 378.605V382.701C537.747 381.837 536.787 381.325 535.619 381.325C533.411 381.325 531.811 383.117 531.811 385.645C531.811 388.189 533.411 389.981 535.619 389.981C536.787 389.981 537.747 389.469 538.403 388.605V389.789H540.739V378.605H538.403ZM536.291 388.013C534.995 388.013 534.083 387.037 534.083 385.645C534.083 384.269 534.995 383.293 536.291 383.293C537.523 383.293 538.403 384.269 538.403 385.645C538.403 387.037 537.523 388.013 536.291 388.013ZM545.894 389.981C547.926 389.981 549.254 388.941 549.254 387.309C549.254 385.501 547.67 385.021 546.246 384.653C545.126 384.349 544.79 384.221 544.79 383.773C544.79 383.485 545.19 383.277 545.766 383.277C546.47 383.277 547.334 383.549 548.086 384.013L549.03 382.349C548.118 381.741 546.95 381.325 545.766 381.325C543.814 381.325 542.518 382.445 542.534 384.013C542.55 385.645 543.862 386.109 545.558 386.525C546.406 386.749 547.014 386.909 547.014 387.421C547.014 387.789 546.566 388.045 545.942 388.045C544.838 388.045 543.91 387.645 543.174 387.117L542.166 388.733C543.158 389.533 544.566 389.981 545.894 389.981Z" fill="#86D4C9"/>
<path d="M585.168 339.008L582.016 346.752L578.864 339.008H576.208L580.688 350H583.328L587.808 339.008H585.168ZM591.979 350.192C594.427 350.192 596.475 348.208 596.475 345.856C596.475 343.504 594.427 341.536 591.979 341.536C589.515 341.536 587.451 343.504 587.451 345.856C587.451 348.208 589.515 350.192 591.979 350.192ZM591.979 348.224C590.731 348.224 589.691 347.136 589.691 345.856C589.691 344.576 590.731 343.504 591.979 343.504C593.211 343.504 594.251 344.576 594.251 345.856C594.251 347.136 593.211 348.224 591.979 348.224ZM602.407 347.952C602.247 348.112 601.927 348.224 601.607 348.224C601.175 348.224 600.823 347.84 600.823 347.296V343.616H602.615V341.728H600.823V339.456H598.583V341.728H597.447V343.616H598.583V347.664C598.583 349.152 599.607 350.192 601.063 350.192C601.735 350.192 602.487 349.904 602.967 349.472L602.407 347.952ZM608.334 348.128C607.358 348.128 606.638 347.52 606.366 346.624H612.334C612.334 343.504 610.814 341.536 608.222 341.536C605.806 341.536 603.966 343.344 603.966 345.84C603.966 348.384 605.886 350.192 608.35 350.192C609.566 350.192 610.99 349.68 611.726 348.912L610.238 347.392C609.79 347.824 608.99 348.128 608.334 348.128ZM608.318 343.6C609.262 343.6 609.87 344.128 610.094 344.944H606.398C606.702 344.112 607.438 343.6 608.318 343.6ZM617.019 350.192C619.051 350.192 620.379 349.152 620.379 347.52C620.379 345.712 618.795 345.232 617.371 344.864C616.251 344.56 615.915 344.432 615.915 343.984C615.915 343.696 616.315 343.488 616.891 343.488C617.595 343.488 618.459 343.76 619.211 344.224L620.155 342.56C619.243 341.952 618.075 341.536 616.891 341.536C614.939 341.536 613.643 342.656 613.659 344.224C613.675 345.856 614.987 346.32 616.683 346.736C617.531 346.96 618.139 347.12 618.139 347.632C618.139 348 617.691 348.256 617.067 348.256C615.963 348.256 615.035 347.856 614.299 347.328L613.291 348.944C614.283 349.744 615.691 350.192 617.019 350.192Z" fill="#86D4C9"/>
<path d="M1022.2 311.627C1030.54 311.627 1037.3 304.863 1037.3 296.519C1037.3 288.174 1030.54 281.41 1022.2 281.41C1013.87 281.41 1007.11 288.174 1007.11 296.519C1007.11 304.863 1013.87 311.627 1022.2 311.627Z" fill="#503EAA"/>
<path d="M933.096 298.724C951.301 316.946 992.991 310.636 1022.59 281.104C1052.19 251.477 1058.5 209.737 1040.29 191.526C1031.89 183.117 1001.19 200.337 971.593 229.964C941.992 259.591 924.706 290.315 933.096 298.724Z" fill="#C0DBFF"/>
<path d="M1002.13 260.852C1031.87 231.761 1049.1 201.128 1040.61 192.43C1032.12 183.733 1001.12 200.264 971.379 229.355C941.638 258.445 924.411 289.078 932.903 297.776C941.395 306.474 972.389 289.942 1002.13 260.852Z" fill="#77A4F2"/>
<path d="M1021.6 277.907C1037.5 259.886 1037.1 236.97 1034.3 223.654L1046.41 199.334C1046.41 199.228 1061.9 242.867 1021.6 277.907Z" fill="white"/>
<path d="M1019.7 279.699C1001.7 295.61 978.804 295.209 965.501 292.413L941.203 304.526C941.203 304.632 984.802 320.047 1019.7 279.699Z" fill="#77A4F2"/>
<path d="M1004.96 263.09C1024.09 243.944 1034.07 222.877 1027.24 216.035C1020.41 209.193 999.355 219.168 980.216 238.314C961.077 257.46 951.1 278.527 957.931 285.368C964.763 292.21 985.816 282.236 1004.96 263.09Z" fill="#503EAA"/>
<path d="M961.6 312.535C948.803 312.535 937.904 308.631 930.504 301.225C928.406 299.125 927.405 296.224 927.299 292.615C927.299 278.603 943.996 252.373 968.894 227.452C983.4 212.933 998.695 200.832 1012 193.425C1026.7 185.216 1037.3 183.719 1042.6 189.026C1052.3 198.733 1055.9 214.655 1052.6 232.665C1049.3 250.981 1039.41 269.003 1024.9 283.616C1010.3 298.135 992.296 308.042 973.996 311.344C969.802 312.134 965.607 312.535 961.6 312.535ZM1034 192.93C1030.39 192.93 1024.3 194.628 1015.5 199.535C1002.8 206.647 988.101 218.347 973.996 232.37C962.295 244.082 952.197 256.289 944.997 267.599C938.292 278.014 934.498 287.119 934.498 292.52C934.498 294.219 934.899 295.422 935.594 296.13C943.595 304.138 957.193 307.145 972.889 304.232C989.786 301.13 1006.48 292.025 1019.99 278.509C1033.49 264.993 1042.68 248.186 1045.79 231.367C1048.69 215.657 1045.7 202.035 1037.7 194.039C1037 193.331 1035.8 192.93 1034 192.93Z" fill="#503EAA"/>
<path d="M994.405 268.201L953.199 218.347L959.797 211.742L1009.81 252.786L994.405 268.201Z" fill="#C0DBFF"/>
<path d="M994.405 268.202L953.199 218.347L956.498 215.045L1002.01 260.594L994.405 268.202Z" fill="#77A4F2"/>
<path d="M939.801 304.633C935.901 304.633 932.802 303.536 930.504 301.225C929.102 299.821 929.102 297.616 930.504 296.224C931.906 294.832 934.11 294.82 935.5 296.224C936.301 297.12 937.798 297.521 939.695 297.521C945.492 297.521 954.401 293.818 964.994 287.213C976.188 280.101 988.29 270.194 999.897 258.589C1014 244.471 1025.6 229.657 1032.5 216.849C1037 208.546 1041 197.636 1037.6 194.133C1036.2 192.729 1036.2 190.524 1037.6 189.132C1039.01 187.74 1041.21 187.729 1042.6 189.132C1048.1 194.64 1046.79 205.444 1038.7 220.363C1031.39 233.773 1019.4 249.189 1004.9 263.802C980.501 288.11 954.306 304.633 939.801 304.633Z" fill="#503EAA"/>
<path d="M994.405 271.703C994.311 271.703 994.311 271.703 994.205 271.703C993.203 271.703 992.308 271.208 991.601 270.406L950.406 220.657C949.204 219.254 949.31 217.155 950.606 215.857L957.205 209.252C958.501 207.955 960.611 207.849 962.001 209.052L1012 249.99C1012.8 250.591 1013.29 251.594 1013.29 252.596C1013.39 253.599 1013 254.601 1012.29 255.297L996.892 270.712C996.303 271.396 995.407 271.703 994.405 271.703ZM958.006 218.546L994.606 262.786L1004.41 252.974L959.915 216.541L958.006 218.546Z" fill="#503EAA"/>
<path d="M950.206 221.449C957.162 221.449 962.802 215.804 962.802 208.84C962.802 201.877 957.162 196.232 950.206 196.232C943.249 196.232 937.609 201.877 937.609 208.84C937.609 215.804 943.249 221.449 950.206 221.449Z" fill="#503EAA"/>
<path d="M1056.2 368.783H988.196L1004.6 313.834C1006.9 306.026 1014.1 300.719 1022.1 300.719C1030.19 300.719 1037.3 306.026 1039.59 313.834L1056.2 368.783Z" fill="#C0DBFF"/>
<path d="M1033.8 307.736C1033.8 307.736 1022.3 305.33 1019.09 314.541C1015.89 323.752 1006.79 358.18 1006.79 358.18H990.788L1004.59 313.739C1004.59 313.739 1007.79 302.723 1015.29 301.532C1022.8 300.329 1029.4 299.326 1033.8 307.736Z" fill="#77A4F2"/>
<path d="M1061.01 372.286H983.4L1001.2 312.737C1004.01 303.431 1012.4 297.121 1022.2 297.121C1032.01 297.121 1040.41 303.431 1043.2 312.737L1061.01 372.286ZM993.003 365.186H1051.4L1036.31 314.836C1034.41 308.526 1028.71 304.327 1022.2 304.327C1015.6 304.327 1010.01 308.526 1008.1 314.836L993.003 365.186Z" fill="#503EAA"/>
<path d="M1072.89 359.877H970.697V372.591H1072.89V359.877Z" fill="#C0DBFF"/>
<path d="M1000.1 358.18H969.401V374.09H1000.1V358.18Z" fill="#77A4F2"/>
<path d="M1075 358.18H1056.8V374.09H1075V358.18Z" fill="white"/>
<path d="M1072.91 359.878V372.592H970.709V359.878H1072.91ZM1072.91 352.777H970.709C966.808 352.777 963.603 355.985 963.603 359.889V372.603C963.603 376.507 966.808 379.715 970.709 379.715H1072.91C1076.81 379.715 1080.01 376.507 1080.01 372.603V359.889C1080 355.879 1076.81 352.777 1072.91 352.777Z" fill="#503EAA"/>
<path d="M1027.91 346.373C1030.61 346.373 1032.81 344.177 1032.81 341.467C1032.81 338.757 1030.61 336.561 1027.91 336.561C1025.2 336.561 1023 338.757 1023 341.467C1023 344.177 1025.2 346.373 1027.91 346.373Z" fill="#8D86EB"/>
<path d="M1027.91 331.453C1030.61 331.453 1032.81 329.257 1032.81 326.547C1032.81 323.837 1030.61 321.641 1027.91 321.641C1025.2 321.641 1023 323.837 1023 326.547C1023 329.257 1025.2 331.453 1027.91 331.453Z" fill="#FF8486"/>
</svg>
