<svg width="497" height="445" viewBox="0 0 497 445" fill="none" xmlns="http://www.w3.org/2000/svg">
<path d="M290.215 287.108C290.215 292.16 286.153 296.225 281.106 296.225H202.405C197.358 296.225 193.296 292.16 193.296 287.108C193.296 282.057 197.358 277.992 202.405 277.992H281.106C286.153 277.992 290.215 282.063 290.215 287.108Z" fill="#6B5EC6"/>
<path d="M278.117 296.225H205.442V422.962H278.117V296.225Z" fill="#6B5EC6"/>
<path d="M227.253 296.225H205.442V422.962H227.253V296.225Z" fill="#5E4FB9"/>
<path d="M278.118 296.225H256.307V422.962H278.118V296.225Z" fill="#8077DE"/>
<path d="M281.106 277.992H264.805V296.269H281.106C286.153 296.269 290.215 292.204 290.215 287.153C290.215 282.063 286.153 277.992 281.106 277.992Z" fill="#8077DE"/>
<path d="M218.712 277.992H202.41C197.363 277.992 193.302 282.057 193.302 287.108C193.302 292.16 197.363 296.225 202.41 296.225H218.712V277.992Z" fill="#5E4FB9"/>
<path d="M278.117 296.225H205.442V422.962H278.117V296.225Z" stroke="#503EAA" stroke-width="5.9405" stroke-miterlimit="8.4865" stroke-linejoin="round"/>
<path d="M252.664 423.006H245.377V307.727C245.377 305.717 247.012 304.081 249.02 304.081C251.029 304.081 252.664 305.717 252.664 307.727V423.006Z" fill="#503EAA"/>
<path d="M267.193 423.006H259.906V307.727C259.906 305.717 261.541 304.081 263.55 304.081C265.558 304.081 267.193 305.717 267.193 307.727V423.006Z" fill="#503EAA"/>
<path d="M238.14 423.006H230.853V307.727C230.853 305.717 232.488 304.081 234.496 304.081C236.505 304.081 238.14 305.717 238.14 307.727V423.006Z" fill="#503EAA"/>
<path d="M223.616 423.006H216.329V307.727C216.329 305.717 217.964 304.081 219.972 304.081C221.981 304.081 223.616 305.717 223.616 307.727V423.006Z" fill="#503EAA"/>
<path d="M290.215 287.108C290.215 292.16 286.153 296.225 281.106 296.225H202.405C197.358 296.225 193.296 292.16 193.296 287.108C193.296 282.057 197.358 277.992 202.405 277.992H281.106C286.153 277.992 290.215 282.063 290.215 287.108Z" stroke="#503EAA" stroke-width="5.9405" stroke-miterlimit="8.4865" stroke-linejoin="round"/>
<path d="M201.532 288.748H203.452V290.008C202.984 290.344 202.408 290.536 201.844 290.536C200.44 290.536 199.252 289.312 199.252 287.872C199.252 286.444 200.44 285.22 201.844 285.22C202.6 285.22 203.404 285.58 203.896 286.144L205.18 284.992C204.352 284.128 203.08 283.612 201.844 283.612C199.456 283.612 197.428 285.556 197.428 287.872C197.428 290.188 199.456 292.144 201.844 292.144C203.08 292.144 204.352 291.628 205.18 290.764V287.368H201.532V288.748ZM210.726 292.144C213.114 292.144 215.106 290.188 215.106 287.872C215.106 285.556 213.114 283.612 210.726 283.612C208.362 283.612 206.346 285.556 206.346 287.872C206.346 290.188 208.362 292.144 210.726 292.144ZM210.726 290.536C209.346 290.536 208.17 289.312 208.17 287.872C208.17 286.444 209.346 285.22 210.726 285.22C212.118 285.22 213.294 286.444 213.294 287.872C213.294 289.312 212.118 290.536 210.726 290.536ZM222.468 283.756L220.104 289.564L217.74 283.756H215.748L219.108 292H221.088L224.448 283.756H222.468ZM231.768 285.352V283.756H225.42V292H231.768V290.404H227.196V288.592H231.336V286.996H227.196V285.352H231.768ZM240.079 292L238.051 289.12C239.179 288.724 239.923 287.764 239.923 286.54C239.923 284.908 238.603 283.756 236.815 283.756H233.107V292H234.871V289.324H236.179L238.063 292H240.079ZM234.871 285.376H236.623C237.499 285.376 238.099 285.832 238.099 286.54C238.099 287.248 237.499 287.704 236.623 287.704H234.871V285.376ZM241.312 292H243.076V286.672L247.048 292H248.824V283.756H247.048V289.084L243.076 283.756H241.312V292ZM256.581 292H258.573L255.213 283.756H253.233L249.873 292H251.853L252.381 290.704H256.053L256.581 292ZM252.993 289.204L254.217 286.192L255.441 289.204H252.993ZM259.617 292H261.381V286.672L265.353 292H267.129V283.756H265.353V289.084L261.381 283.756H259.617V292ZM272.893 292.144C274.141 292.144 275.293 291.604 276.097 290.764L274.813 289.612C274.333 290.164 273.649 290.536 272.893 290.536C271.513 290.536 270.337 289.312 270.337 287.872C270.337 286.444 271.513 285.22 272.893 285.22C273.649 285.22 274.333 285.592 274.813 286.144L276.097 284.992C275.293 284.14 274.141 283.612 272.893 283.612C270.529 283.612 268.513 285.556 268.513 287.872C268.513 290.188 270.529 292.144 272.893 292.144ZM283.541 285.352V283.756H277.193V292H283.541V290.404H278.969V288.592H283.109V286.996H278.969V285.352H283.541Z" fill="#86D4C9"/>
<path d="M290.264 423.006H193.302V441.283H290.264V423.006Z" fill="#6B5EC6"/>
<path d="M290.22 423.006H264.81V441.283H290.22V423.006Z" fill="#8077DE"/>
<path d="M218.712 423.006H193.302V441.283H218.712V423.006Z" fill="#5A4AB5"/>
<path d="M290.214 423.006V441.239H193.302V423.006H290.214Z" stroke="#503EAA" stroke-width="5.9405" stroke-miterlimit="8.4865" stroke-linejoin="round"/>
<path d="M493.962 193.891C493.962 198.943 489.9 203.008 484.854 203.008H406.152C401.106 203.008 397.044 198.943 397.044 193.891C397.044 188.84 401.106 184.775 406.152 184.775H484.854C489.851 184.775 493.962 188.846 493.962 193.891Z" fill="#6B5EC6"/>
<path d="M481.816 203.058H409.141V423.012H481.816V203.058Z" fill="#6B5EC6"/>
<path d="M430.952 203.058H409.141V423.012H430.952V203.058Z" fill="#5E4FB9"/>
<path d="M481.816 203.058H460.005V423.012H481.816V203.058Z" fill="#8077DE"/>
<path d="M484.854 184.775H468.552V203.052H484.854C489.901 203.052 493.962 198.987 493.962 193.936C493.962 188.846 489.851 184.775 484.854 184.775Z" fill="#8077DE"/>
<path d="M422.454 184.775H406.152C401.106 184.775 397.044 188.84 397.044 193.891C397.044 198.943 401.106 203.008 406.152 203.008H422.454V184.775Z" fill="#5E4FB9"/>
<path d="M481.816 203.058H409.141V423.012H481.816V203.058Z" stroke="#503EAA" stroke-width="5.9405" stroke-miterlimit="8.4865" stroke-linejoin="round"/>
<path d="M456.361 423.006H449.075V214.505C449.075 212.494 450.709 210.858 452.718 210.858C454.727 210.858 456.361 212.494 456.361 214.505V423.006Z" fill="#503EAA"/>
<path d="M470.935 423.006H463.648V214.505C463.648 212.494 465.283 210.858 467.291 210.858C469.3 210.858 470.935 212.494 470.935 214.505V423.006Z" fill="#503EAA"/>
<path d="M441.838 423.006H434.551V214.505C434.551 212.494 436.185 210.858 438.194 210.858C440.203 210.858 441.838 212.494 441.838 214.505V423.006Z" fill="#503EAA"/>
<path d="M427.314 423.006H420.027V214.505C420.027 212.494 421.661 210.858 423.67 210.858C425.679 210.858 427.314 212.494 427.314 214.505V423.006Z" fill="#503EAA"/>
<path d="M493.962 193.891C493.962 198.943 489.9 203.008 484.854 203.008H406.152C401.106 203.008 397.044 198.943 397.044 193.891C397.044 188.84 401.106 184.775 406.152 184.775H484.854C489.851 184.775 493.962 188.846 493.962 193.891Z" stroke="#503EAA" stroke-width="5.9405" stroke-miterlimit="8.4865" stroke-linejoin="round"/>
<path d="M493.962 423.006H397V441.283H493.962V423.006Z" fill="#6B5EC6"/>
<path d="M493.918 423.006H468.508V441.283H493.918V423.006Z" fill="#8077DE"/>
<path d="M422.41 423.006H397V441.283H422.41V423.006Z" fill="#5A4AB5"/>
<path d="M493.962 423.006V441.289H397V423.006H493.962Z" stroke="#503EAA" stroke-width="5.9405" stroke-miterlimit="8.4865" stroke-linejoin="round"/>
<path d="M426.429 198.144C428.817 198.144 430.809 196.188 430.809 193.872C430.809 191.556 428.817 189.612 426.429 189.612C424.065 189.612 422.049 191.556 422.049 193.872C422.049 196.188 424.065 198.144 426.429 198.144ZM426.429 196.536C425.049 196.536 423.873 195.312 423.873 193.872C423.873 192.444 425.049 191.22 426.429 191.22C427.821 191.22 428.997 192.444 428.997 193.872C428.997 195.312 427.821 196.536 426.429 196.536ZM439.083 198L437.055 195.12C438.183 194.724 438.927 193.764 438.927 192.54C438.927 190.908 437.607 189.756 435.819 189.756H432.111V198H433.875V195.324H435.183L437.067 198H439.083ZM433.875 191.376H435.627C436.503 191.376 437.103 191.832 437.103 192.54C437.103 193.248 436.503 193.704 435.627 193.704H433.875V191.376ZM446.292 198H448.284L444.924 189.756H442.944L439.584 198H441.564L442.092 196.704H445.764L446.292 198ZM442.704 195.204L443.928 192.192L445.152 195.204H442.704ZM453.311 198.144C454.559 198.144 455.711 197.604 456.515 196.764L455.231 195.612C454.751 196.164 454.067 196.536 453.311 196.536C451.931 196.536 450.755 195.312 450.755 193.872C450.755 192.444 451.931 191.22 453.311 191.22C454.067 191.22 454.751 191.592 455.231 192.144L456.515 190.992C455.711 190.14 454.559 189.612 453.311 189.612C450.947 189.612 448.931 191.556 448.931 193.872C448.931 196.188 450.947 198.144 453.311 198.144ZM459.327 196.404V189.756H457.551V198H463.431V196.404H459.327ZM470.92 191.352V189.756H464.572V198H470.92V196.404H466.348V194.592H470.488V192.996H466.348V191.352H470.92Z" fill="#86D4C9"/>
<path d="M99.962 174.303C99.962 179.354 95.9 183.419 90.854 183.419H12.152C7.106 183.419 3.04401 179.354 3.04401 174.303C3.04401 169.251 7.106 165.186 12.152 165.186H90.854C95.9 165.191 99.962 169.257 99.962 174.303Z" fill="#6B5EC6"/>
<path d="M87.821 183.419H15.146V423.215H87.821V183.419Z" fill="#6B5EC6"/>
<path d="M36.957 183.419H15.146V423.215H36.957V183.419Z" fill="#5E4FB9"/>
<path d="M87.816 183.419H66.005V423.215H87.816V183.419Z" fill="#8077DE"/>
<path d="M90.853 165.142H74.552V183.419H90.853C95.9 183.419 99.962 179.354 99.962 174.303C99.962 169.257 95.851 165.142 90.853 165.142Z" fill="#8077DE"/>
<path d="M28.454 165.142H12.152C7.106 165.142 3.04401 169.207 3.04401 174.259C3.04401 179.31 7.106 183.375 12.152 183.375H28.454V165.142Z" fill="#5E4FB9"/>
<path d="M87.821 183.419H15.146V423.215H87.821V183.419Z" stroke="#503EAA" stroke-width="5.9405" stroke-miterlimit="8.4865" stroke-linejoin="round"/>
<path d="M62.411 423.265H55.125V194.872C55.125 192.861 56.759 191.225 58.768 191.225C60.777 191.225 62.411 192.861 62.411 194.872V423.265Z" fill="#503EAA"/>
<path d="M76.935 423.265H69.648V194.872C69.648 192.861 71.283 191.225 73.292 191.225C75.301 191.225 76.935 192.861 76.935 194.872V423.265Z" fill="#503EAA"/>
<path d="M47.837 423.265H40.6V194.872C40.6 192.861 42.235 191.225 44.243 191.225C46.252 191.225 47.887 192.861 47.887 194.872V423.265H47.837Z" fill="#503EAA"/>
<path d="M33.314 423.265H26.027V194.872C26.027 192.861 27.661 191.225 29.67 191.225C31.679 191.225 33.314 192.861 33.314 194.872V423.265Z" fill="#503EAA"/>
<path d="M99.962 174.303C99.962 179.354 95.9 183.419 90.854 183.419H12.152C7.106 183.419 3.04401 179.354 3.04401 174.303C3.04401 169.251 7.106 165.186 12.152 165.186H90.854C95.851 165.191 99.962 169.257 99.962 174.303Z" stroke="#503EAA" stroke-width="5.9405" stroke-miterlimit="8.4865" stroke-linejoin="round"/>
<path d="M99.962 423.265H3V441.542H99.962V423.265Z" fill="#6B5EC6"/>
<path d="M99.918 423.265H74.508V441.542H99.918V423.265Z" fill="#8077DE"/>
<path d="M28.41 423.265H3V441.542H28.41V423.265Z" fill="#5A4AB5"/>
<path d="M99.962 423.265V441.498H3V423.265H99.962Z" stroke="#503EAA" stroke-width="5.9405" stroke-miterlimit="8.4865" stroke-linejoin="round"/>
<path d="M38.748 178.144C40.932 178.144 42.48 176.608 42.48 174.436V169.756H40.704V174.364C40.704 175.636 39.888 176.536 38.748 176.536C37.596 176.536 36.78 175.636 36.78 174.364V169.756H35.016V174.436C35.016 176.608 36.552 178.144 38.748 178.144ZM47.206 178.144C49.222 178.144 50.41 177.1 50.41 175.528C50.41 174.004 49.234 173.476 47.458 173.08C46.186 172.792 45.694 172.6 45.694 172C45.694 171.508 46.15 171.112 46.906 171.112C47.698 171.112 48.526 171.436 49.258 172.024L50.182 170.752C49.342 170.032 48.298 169.612 46.954 169.612C45.154 169.612 43.906 170.656 43.906 172.18C43.906 173.776 45.142 174.268 46.882 174.664C48.142 174.952 48.622 175.132 48.622 175.72C48.622 176.236 48.166 176.644 47.278 176.644C46.234 176.644 45.346 176.236 44.566 175.564L43.546 176.776C44.506 177.664 45.778 178.144 47.206 178.144ZM58.028 171.352V169.756H51.68V178H58.028V176.404H53.456V174.592H57.596V172.996H53.456V171.352H58.028ZM66.34 178L64.312 175.12C65.44 174.724 66.184 173.764 66.184 172.54C66.184 170.908 64.864 169.756 63.076 169.756H59.368V178H61.132V175.324H62.44L64.324 178H66.34ZM61.132 171.376H62.884C63.76 171.376 64.36 171.832 64.36 172.54C64.36 173.248 63.76 173.704 62.884 173.704H61.132V171.376Z" fill="#86D4C9"/>
<path d="M115.328 105.701C114.535 105.701 113.88 105.045 113.88 104.202C113.88 103.828 114.018 103.453 114.299 103.172C120.556 96.9089 120.556 86.7619 114.299 80.4989C113.737 79.9369 113.693 78.9999 114.255 78.4439C114.816 77.8819 115.752 77.8379 116.307 78.3999L116.351 78.4439C123.732 85.8309 123.732 97.8449 116.351 105.277C116.071 105.558 115.746 105.701 115.328 105.701Z" fill="#38237C"/>
<path d="M110.886 101.255C110.512 101.255 110.138 101.118 109.857 100.837C109.296 100.275 109.296 99.3381 109.857 98.7821C113.638 94.9971 113.638 88.8221 109.857 84.9881C109.296 84.3821 109.389 83.4461 109.951 82.9341C110.512 82.4211 111.354 82.4211 111.91 82.9341C116.863 87.8911 116.863 95.9281 111.91 100.837C111.635 101.118 111.26 101.255 110.886 101.255Z" fill="#38237C"/>
<path d="M106.45 96.8149C105.658 96.8149 105.003 96.1599 105.003 95.3669C105.003 94.9919 105.14 94.6169 105.421 94.3359C106.775 92.9809 106.775 90.7829 105.421 89.4279C104.86 88.8659 104.86 87.9299 105.421 87.3739C105.982 86.8119 106.918 86.8119 107.474 87.3739C109.95 89.8969 109.95 93.9179 107.474 96.4409C107.199 96.6779 106.824 96.8149 106.45 96.8149Z" fill="#38237C"/>
<path d="M128.559 127C129.351 127 130.006 127.656 130.006 128.498C130.006 128.873 129.869 129.248 129.588 129.528C123.33 135.792 123.33 145.939 129.588 152.202C130.149 152.764 130.194 153.7 129.632 154.257C129.071 154.819 128.135 154.863 127.579 154.301L127.535 154.257C120.155 146.87 120.155 134.855 127.535 127.424C127.81 127.138 128.185 127 128.559 127Z" fill="#38237C"/>
<path d="M132.995 131.44C133.369 131.44 133.743 131.578 134.024 131.859C134.585 132.42 134.585 133.357 134.024 133.913C130.243 137.698 130.243 143.873 134.024 147.707C134.585 148.313 134.492 149.249 133.931 149.762C133.369 150.274 132.527 150.274 131.971 149.762C127.018 144.804 127.018 136.767 131.971 131.859C132.252 131.583 132.626 131.44 132.995 131.44Z" fill="#38237C"/>
<path d="M137.436 135.88C138.229 135.88 138.884 136.535 138.884 137.329C138.884 137.703 138.746 138.078 138.466 138.359C137.112 139.714 137.112 141.912 138.466 143.267C139.027 143.829 139.027 144.765 138.466 145.322C137.904 145.884 136.969 145.884 136.413 145.322C133.936 142.799 133.936 138.777 136.413 136.254C136.688 136.023 137.062 135.88 137.436 135.88Z" fill="#38237C"/>
<path d="M383.327 109.699C382.535 109.699 381.88 109.043 381.88 108.2C381.88 107.826 382.017 107.451 382.298 107.17C388.556 100.907 388.556 90.76 382.298 84.497C381.737 83.935 381.693 82.998 382.254 82.442C382.816 81.886 383.751 81.836 384.307 82.398L384.351 82.442C391.731 89.829 391.731 101.843 384.351 109.275C384.12 109.555 383.746 109.699 383.327 109.699Z" fill="#38237C"/>
<path d="M378.886 105.259C378.512 105.259 378.138 105.121 377.857 104.84C377.296 104.278 377.296 103.342 377.857 102.786C381.638 99.001 381.638 92.826 377.857 88.992C377.296 88.386 377.389 87.45 377.951 86.937C378.512 86.425 379.354 86.425 379.91 86.937C384.863 91.895 384.863 99.932 379.91 104.84C379.684 105.116 379.31 105.259 378.886 105.259Z" fill="#38237C"/>
<path d="M374.45 100.813C373.658 100.813 373.003 100.158 373.003 99.3649C373.003 98.9899 373.14 98.6149 373.421 98.3349C374.775 96.9789 374.775 94.7809 373.421 93.4259C372.86 92.8639 372.86 91.9279 373.421 91.3719C373.982 90.8099 374.918 90.8099 375.474 91.3719C377.95 93.8949 377.95 97.9159 375.474 100.439C375.243 100.676 374.874 100.813 374.45 100.813Z" fill="#38237C"/>
<path d="M338.559 135C339.351 135 340.006 135.656 340.006 136.498C340.006 136.873 339.869 137.248 339.588 137.528C333.33 143.792 333.33 153.939 339.588 160.202C340.149 160.764 340.194 161.7 339.632 162.257C339.071 162.819 338.135 162.863 337.579 162.301L337.535 162.257C330.155 154.87 330.155 142.855 337.535 135.424C337.81 135.187 338.185 135 338.559 135Z" fill="#38237C"/>
<path d="M342.995 139.49C343.369 139.49 343.743 139.627 344.024 139.908C344.586 140.47 344.586 141.406 344.024 141.963C340.243 145.747 340.243 151.922 344.024 155.756C344.586 156.362 344.492 157.299 343.931 157.811C343.369 158.323 342.527 158.323 341.971 157.811C337.018 152.853 337.018 144.816 341.971 139.908C342.246 139.627 342.621 139.49 342.995 139.49Z" fill="#38237C"/>
<path d="M347.43 143.929C348.223 143.929 348.878 144.585 348.878 145.378C348.878 145.753 348.74 146.127 348.46 146.408C347.106 147.763 347.106 149.961 348.46 151.317C349.021 151.878 349.021 152.815 348.46 153.371C347.898 153.933 346.963 153.933 346.407 153.371C343.93 150.848 343.93 146.827 346.407 144.304C346.682 144.067 347.056 143.929 347.43 143.929Z" fill="#38237C"/>
<path d="M234.675 167.565C234.675 168.358 234.02 169.014 233.178 169.014C232.804 169.014 232.43 168.876 232.149 168.595C225.892 162.332 215.754 162.332 209.497 168.595C208.935 169.157 208 169.201 207.444 168.639C206.882 168.077 206.838 167.141 207.4 166.584L207.444 166.54C214.824 159.153 226.827 159.153 234.252 166.54C234.538 166.816 234.675 167.19 234.675 167.565Z" fill="#38237C"/>
<path d="M230.24 172.054C230.24 172.429 230.102 172.804 229.821 173.085C229.26 173.646 228.324 173.646 227.768 173.085C223.988 169.3 217.818 169.3 213.987 173.085C213.382 173.646 212.446 173.553 211.935 172.991C211.423 172.429 211.423 171.586 211.935 171.03C216.888 166.072 224.918 166.072 229.821 171.03C230.096 171.261 230.24 171.63 230.24 172.054Z" fill="#38237C"/>
<path d="M225.804 176.494C225.804 177.288 225.149 177.943 224.356 177.943C223.982 177.943 223.608 177.805 223.327 177.525C221.973 176.169 219.777 176.169 218.423 177.525C217.862 178.086 216.926 178.086 216.371 177.525C215.815 176.963 215.809 176.026 216.371 175.47C218.891 172.991 222.909 172.991 225.43 175.47C225.661 175.701 225.804 176.076 225.804 176.494Z" fill="#38237C"/>
<path d="M250 194.545C250 193.752 250.655 193.096 251.497 193.096C251.871 193.096 252.245 193.234 252.526 193.515C258.784 199.778 268.921 199.778 275.179 193.515C275.74 192.953 276.676 192.909 277.232 193.471C277.793 194.033 277.837 194.969 277.276 195.526L277.232 195.57C269.851 202.957 257.848 202.957 250.424 195.57C250.143 195.338 250 194.964 250 194.545Z" fill="#38237C"/>
<path d="M254.441 190.105C254.441 189.73 254.579 189.356 254.86 189.075C255.421 188.513 256.357 188.513 256.913 189.075C260.694 192.859 266.863 192.859 270.694 189.075C271.299 188.513 272.235 188.607 272.746 189.169C273.258 189.73 273.258 190.573 272.746 191.13C267.793 196.087 259.763 196.087 254.86 191.13C254.623 190.854 254.441 190.524 254.441 190.105Z" fill="#38237C"/>
<path d="M258.877 185.665C258.877 184.872 259.532 184.216 260.325 184.216C260.699 184.216 261.073 184.354 261.354 184.635C262.708 185.99 264.904 185.99 266.258 184.635C266.819 184.073 267.755 184.073 268.311 184.635C268.872 185.197 268.872 186.133 268.311 186.69C265.79 189.169 261.772 189.169 259.252 186.69C259.065 186.409 258.877 186.034 258.877 185.665Z" fill="#38237C"/>
<path d="M296.478 268.599V261.074C296.478 261.074 299.373 254.48 298.58 254.293L279.802 247.749H281.018C283.352 247.749 285.267 245.832 285.267 243.496V243.121C285.267 240.786 283.352 238.869 281.018 238.869H271.348C270.974 231.718 267.936 225.031 262.708 219.935C257.479 214.84 250.611 211.942 243.28 211.568V208.764C244.496 208.202 245.333 206.99 245.333 205.536C245.333 203.575 243.742 201.983 241.783 201.983C239.824 201.983 238.233 203.575 238.233 205.536C238.233 206.985 239.075 208.202 240.286 208.764V211.568C232.955 211.942 226.087 214.84 220.858 219.935C215.58 225.031 212.542 231.718 212.218 238.869H202.548C200.214 238.869 198.299 240.786 198.299 243.121V243.496C198.299 245.832 200.214 247.749 202.548 247.749H203.715L187.837 252.894C187.044 253.081 186.577 253.874 186.764 254.667L184.992 257.003C187 254.43 185.553 259.669 185.927 259.901C186.158 260.038 187.281 259.901 187.562 259.901C187.699 259.901 188.31 259.201 188.448 259.201L188.541 261.961L187.044 268.599H177.798V279.071H305.773V268.599H296.478Z" fill="#C0DBFF"/>
<path d="M222.96 247.28H206.146V270.091H222.96V247.28Z" fill="#77A4F2"/>
<path d="M277.374 261.399L294.98 265.932V259.388L277.374 254.811V261.399Z" fill="#77A4F2"/>
<path d="M245.332 213.017C245.332 213.017 262.333 216.801 262.333 241.254L269.851 240.18C269.851 240.174 268.265 216.757 245.332 213.017Z" fill="white"/>
<path d="M239.119 213.017C239.119 213.017 222.118 216.801 222.118 241.254L214.6 240.174C214.6 240.174 216.185 216.757 239.119 213.017Z" fill="#77A4F2"/>
<path d="M282.745 241.254H262.52V244.713H282.745V241.254Z" fill="white"/>
<path d="M222.212 241.579H200.165V245.038H222.212V241.579Z" fill="#77A4F2"/>
<path d="M271.392 241.766H212.124V240.268C212.124 232.6 215.206 225.356 220.808 219.93C226.411 214.509 233.841 211.513 241.733 211.513C249.625 211.513 257.055 214.504 262.657 219.93C268.26 225.35 271.342 232.6 271.342 240.268V241.766H271.392ZM215.206 238.725H268.31C267.935 232.412 265.228 226.573 260.605 222.034C255.558 217.17 248.882 214.46 241.782 214.46C234.683 214.46 228.001 217.126 222.96 222.034C218.288 226.573 215.58 232.462 215.206 238.725Z" fill="#503EAA"/>
<path d="M257.941 240.268H254.903C254.903 233.349 253.406 226.568 250.792 221.709C248.315 217.126 245.046 214.509 241.733 214.509C238.464 214.509 235.145 217.126 232.674 221.709C230.06 226.573 228.563 233.349 228.563 240.268H225.525C225.525 232.743 227.115 225.637 230.01 220.305C233.048 214.647 237.204 211.518 241.733 211.518C246.262 211.518 250.374 214.653 253.456 220.305C256.356 225.637 257.941 232.743 257.941 240.268Z" fill="#503EAA"/>
<path d="M243.279 206.842H240.241V240.268H243.279V206.842Z" fill="#503EAA"/>
<path d="M278.915 271.59H204.649V244.989H278.915V271.59ZM207.638 268.599H275.877V248.03H207.638V268.599Z" fill="#503EAA"/>
<path d="M277.418 247.28H206.146V256.584H277.418V247.28Z" fill="#77A4F2"/>
<path d="M271.392 271.59H212.124V244.989H271.348V271.59H271.392ZM215.162 268.599H268.359V248.03H215.162V268.599Z" fill="#503EAA"/>
<path d="M304.275 270.097H286.201V277.528H304.275V270.097Z" fill="white"/>
<path d="M212.261 270.097H179.427V277.528H212.261V270.097Z" fill="#77A4F2"/>
<path d="M249.02 268.924V254.948C249.02 254.386 249.251 253.825 249.625 253.45C250.043 253.031 250.561 252.844 251.122 252.844C251.683 252.844 252.245 253.075 252.619 253.45C253.037 253.869 253.224 254.386 253.224 254.948V268.924H249.02Z" fill="#503EAA"/>
<path d="M251.172 253.219C251.639 253.219 252.107 253.406 252.432 253.731C252.757 254.056 252.944 254.48 252.944 254.948V268.555H249.394V254.948C249.394 254.48 249.581 254.061 249.906 253.731C250.28 253.356 250.704 253.219 251.172 253.219ZM251.172 252.425C250.517 252.425 249.862 252.706 249.399 253.174C248.932 253.643 248.651 254.249 248.651 254.948V268.555V269.304H249.399H252.949H253.698V268.555V254.948C253.698 254.293 253.417 253.637 252.949 253.174C252.476 252.706 251.87 252.425 251.172 252.425Z" fill="#503EAA"/>
<path d="M258.458 268.924V254.948C258.458 254.386 258.689 253.825 259.063 253.45C259.482 253.031 259.999 252.844 260.56 252.844C261.122 252.844 261.683 253.075 262.057 253.45C262.476 253.825 262.663 254.386 262.663 254.948V268.924H258.458Z" fill="#503EAA"/>
<path d="M260.605 253.219C261.072 253.219 261.54 253.406 261.865 253.731C262.19 254.056 262.377 254.48 262.377 254.948V268.555H258.827V254.948C258.827 254.48 259.014 254.061 259.339 253.731C259.669 253.356 260.137 253.219 260.605 253.219ZM260.605 252.425C259.95 252.425 259.295 252.706 258.832 253.174C258.365 253.643 258.084 254.298 258.084 254.948V268.555V269.304H258.832H262.382H263.131V268.555V254.948C263.131 254.293 262.85 253.637 262.382 253.174C261.914 252.706 261.26 252.425 260.605 252.425Z" fill="#503EAA"/>
<path d="M230.247 268.924V254.948C230.247 254.386 230.478 253.825 230.852 253.45C231.271 253.031 231.788 252.844 232.349 252.844C232.911 252.844 233.472 253.075 233.846 253.45C234.265 253.869 234.452 254.386 234.452 254.948V268.924H230.247Z" fill="#503EAA"/>
<path d="M232.394 253.219C232.861 253.219 233.329 253.406 233.654 253.731C233.979 254.056 234.166 254.48 234.166 254.948V268.555H230.616V254.948C230.616 254.48 230.803 254.061 231.128 253.731C231.458 253.356 231.882 253.219 232.394 253.219ZM232.394 252.425C231.739 252.425 231.084 252.706 230.622 253.174C230.154 253.643 229.873 254.249 229.873 254.948V268.555V269.304H230.622H234.171H234.92V268.555V254.948C234.92 254.293 234.639 253.637 234.171 253.174C233.654 252.706 233.049 252.425 232.394 252.425Z" fill="#503EAA"/>
<path d="M239.631 268.924V254.948C239.631 254.386 239.862 253.825 240.236 253.45C240.655 253.031 241.172 252.844 241.733 252.844C242.295 252.844 242.856 253.075 243.23 253.45C243.648 253.825 243.836 254.386 243.836 254.948V268.924H239.631Z" fill="#503EAA"/>
<path d="M241.783 253.219C242.251 253.219 242.718 253.406 243.043 253.731C243.368 254.056 243.555 254.48 243.555 254.948V268.555H240.005V254.948C240.005 254.48 240.192 254.061 240.517 253.731C240.847 253.356 241.315 253.219 241.783 253.219ZM241.783 252.425C241.128 252.425 240.473 252.706 240.011 253.174C239.543 253.643 239.262 254.298 239.262 254.948V268.555V269.304H240.011H243.561H244.309V268.555V254.948C244.309 254.293 244.028 253.637 243.561 253.174C243.087 252.706 242.438 252.425 241.783 252.425Z" fill="#503EAA"/>
<path d="M220.809 268.924V254.948C220.809 254.386 221.04 253.825 221.414 253.45C221.832 253.031 222.35 252.844 222.911 252.844C223.472 252.844 224.034 253.075 224.408 253.45C224.826 253.869 225.013 254.386 225.013 254.948V268.924H220.809Z" fill="#503EAA"/>
<path d="M222.961 253.219C223.428 253.219 223.896 253.406 224.221 253.731C224.546 254.056 224.733 254.48 224.733 254.948V268.555H221.183V254.948C221.183 254.48 221.37 254.061 221.695 253.731C222.025 253.356 222.493 253.219 222.961 253.219ZM222.961 252.425C222.306 252.425 221.651 252.706 221.188 253.174C220.721 253.643 220.44 254.249 220.44 254.948V268.555V269.304H221.188H224.738H225.487V268.555V254.948C225.487 254.293 225.206 253.637 224.738 253.174C224.265 252.706 223.616 252.425 222.961 252.425Z" fill="#503EAA"/>
<path d="M281.017 241.86C281.716 241.86 282.278 242.422 282.278 243.121V243.496C282.278 244.195 281.716 244.757 281.017 244.757H202.547C201.848 244.757 201.287 244.195 201.287 243.496V243.121C201.287 242.422 201.848 241.86 202.547 241.86H281.017ZM281.017 238.869H202.547C200.214 238.869 198.298 240.786 198.298 243.121V243.496C198.298 245.832 200.214 247.749 202.547 247.749H281.012C283.345 247.749 285.26 245.832 285.26 243.496V243.121C285.266 240.786 283.351 238.869 281.017 238.869Z" fill="#503EAA"/>
<path d="M305.767 279.071H177.792V268.599H305.767V279.071ZM180.786 276.03H302.734V271.59H180.786V276.03Z" fill="#503EAA"/>
<path d="M206.147 254.761L188.448 259.157C186.907 259.532 185.316 258.551 184.991 256.959C184.667 255.461 185.597 254.012 187.044 253.637L206.147 248.635V254.761Z" fill="#77A4F2"/>
<path d="M187.743 260.743C186.951 260.743 186.152 260.512 185.454 260.088C184.424 259.432 183.769 258.452 183.494 257.284C183.026 255.042 184.43 252.794 186.626 252.189L205.729 247.187C206.197 247.049 206.664 247.187 207.039 247.468C207.413 247.749 207.644 248.217 207.644 248.685V254.761C207.644 255.461 207.176 256.072 206.521 256.21L188.822 260.606C188.442 260.743 188.068 260.743 187.743 260.743ZM204.606 250.646L187.369 255.18C186.67 255.367 186.246 256.023 186.389 256.722C186.483 257.097 186.67 257.378 186.995 257.565C187.319 257.752 187.649 257.796 188.024 257.752L204.606 253.637V250.646Z" fill="#503EAA"/>
<path d="M206.147 270.097H188.535V259.388L206.147 254.811V270.097Z" fill="#77A4F2"/>
<path d="M207.638 271.59H187.038V258.22L207.638 252.844V271.59ZM190.032 268.599H204.606V256.772L190.032 260.556V268.599Z" fill="#503EAA"/>
<path d="M277.374 254.761L295.074 259.157C296.615 259.532 298.205 258.551 298.53 256.959C298.855 255.461 297.924 254.012 296.477 253.637L277.374 248.635V254.761Z" fill="white"/>
<path d="M295.772 260.743C295.398 260.743 295.073 260.699 294.699 260.606L277 256.21C276.345 256.022 275.877 255.461 275.877 254.761V248.685C275.877 248.217 276.108 247.798 276.482 247.468C276.857 247.137 277.324 247.093 277.792 247.187L296.895 252.188C299.135 252.794 300.489 254.992 300.027 257.284C299.796 258.452 299.091 259.432 298.067 260.088C297.407 260.556 296.614 260.743 295.772 260.743ZM278.915 253.593L295.497 257.708C295.871 257.802 296.196 257.752 296.526 257.521C296.851 257.333 297.038 257.009 297.132 256.678C297.269 255.978 296.851 255.323 296.152 255.136L278.915 250.602V253.593Z" fill="#503EAA"/>
<path d="M296.477 271.59H275.877V252.844L296.477 258.22V271.59ZM278.915 268.599H293.488V260.556L278.915 256.772V268.599Z" fill="#503EAA"/>
<path d="M241.782 209.089C243.743 209.089 245.332 207.498 245.332 205.536C245.332 203.574 243.743 201.983 241.782 201.983C239.822 201.983 238.232 203.574 238.232 205.536C238.232 207.498 239.822 209.089 241.782 209.089Z" fill="#503EAA"/>
<path d="M197.737 266.125C199.105 266.125 200.214 265.015 200.214 263.646C200.214 262.277 199.105 261.167 197.737 261.167C196.37 261.167 195.261 262.277 195.261 263.646C195.261 265.015 196.37 266.125 197.737 266.125Z" fill="#503EAA"/>
<path d="M286.202 266.125C287.57 266.125 288.678 265.015 288.678 263.646C288.678 262.277 287.57 261.167 286.202 261.167C284.834 261.167 283.725 262.277 283.725 263.646C283.725 265.015 284.834 266.125 286.202 266.125Z" fill="#503EAA"/>
<path d="M24.343 104.977L34.293 112.083L47.557 96.8901C38.217 96.3281 28.691 101.28 24.343 104.977Z" fill="#77A4F2"/>
<path d="M23.506 125.265C25.19 128.862 23.88 133.071 20.518 134.613C16.456 136.53 8.745 136.018 4.453 134.145C5.762 129.611 10.336 123.392 14.447 121.525C17.76 119.982 21.822 121.668 23.506 125.265Z" fill="#FF8486"/>
<path d="M84.458 98.7579L90.204 96.0469L89.081 93.7119L83.335 96.4219L84.458 98.7579Z" fill="#503EAA"/>
<path d="M26.351 105.208C26.351 105.208 33.919 99.2259 42.416 98.1519C47.788 97.4519 42.416 102.079 42.416 102.079C42.416 102.079 35.79 100.675 26.351 105.208Z" fill="white"/>
<path d="M23.55 106.145C23.363 106.007 23.226 105.864 23.132 105.676C23.038 105.489 22.994 105.258 22.945 105.07C22.945 104.839 22.989 104.652 23.038 104.464C23.132 104.277 23.27 104.09 23.413 103.952C28.129 99.9799 35.185 96.8019 42.235 95.5349H42.372L42.884 98.3389H42.747C36.957 99.3689 30.975 101.842 26.726 104.977L35.229 111.053L33.594 113.388L23.55 106.145Z" fill="#503EAA"/>
<path d="M42.329 95.6289L42.796 98.2009C36.913 99.2749 30.837 101.798 26.588 104.933L35.135 111.009L33.638 113.113L23.688 106.007C23.55 105.913 23.407 105.726 23.314 105.588C23.22 105.401 23.176 105.214 23.176 105.026C23.176 104.839 23.22 104.652 23.27 104.464C23.363 104.277 23.457 104.139 23.594 103.996C28.223 100.019 35.229 96.8899 42.329 95.6289ZM42.516 95.3479L42.285 95.3919C35.185 96.6529 28.135 99.8319 23.413 103.809C23.226 103.947 23.088 104.134 22.995 104.371C22.901 104.602 22.857 104.839 22.857 105.07C22.857 105.302 22.95 105.539 23.044 105.726C23.138 105.913 23.325 106.1 23.512 106.238L33.462 113.344L33.649 113.482L33.787 113.295L35.284 111.19L35.422 111.003L35.234 110.865L26.968 104.977C31.217 101.936 37.106 99.5069 42.802 98.4769L43.033 98.4319L42.989 98.2009L42.521 95.6289L42.516 95.3479Z" fill="#503EAA"/>
<path d="M95.526 91.3261C94.64 89.4091 92.351 88.5671 90.435 89.5031C88.52 90.3901 87.678 92.6821 88.614 94.5991C89.5 96.5161 91.789 97.3581 93.705 96.4221C95.62 95.4851 96.412 93.2431 95.526 91.3261Z" fill="#503EAA"/>
<path d="M27.474 125.452C29.34 128.68 33.732 132.046 33.732 132.046L38.217 122.043L34.48 112.882L25.372 112.788C22.428 114.231 25.609 122.224 27.474 125.452Z" fill="#77A4F2"/>
<path d="M35.46 116.898L25.603 120.638L24.854 116.617L34.711 115.261L35.46 116.898Z" fill="white"/>
<path d="M33.968 133.165C32.521 133.165 28.74 132.322 25.047 124.516C23.275 120.732 22.526 117.553 22.901 115.025C23.275 112.358 24.673 111.472 25.234 111.191C26.357 110.678 29.857 110.585 31.305 110.585C32.378 110.585 33.451 110.629 34.387 110.678H34.524L34.337 113.532H34.2C33.264 113.488 32.284 113.438 31.305 113.438C28.734 113.438 26.819 113.625 26.445 113.763C26.027 113.95 24.392 116.473 27.661 123.299C30.886 130.124 33.688 130.311 34.012 130.311C34.15 130.311 34.244 130.267 34.293 130.267C34.805 129.986 37.238 127.463 39.433 124.422L39.527 124.329L41.817 126.014L41.723 126.108C39.951 128.537 36.819 132.234 35.509 132.84C35.042 133.071 34.524 133.165 33.968 133.165Z" fill="#503EAA"/>
<path d="M31.349 110.728C32.422 110.728 33.495 110.772 34.387 110.821L34.249 113.438C33.22 113.394 32.24 113.344 31.305 113.344C28.784 113.344 26.819 113.532 26.401 113.669C25.84 113.95 24.255 116.523 27.524 123.392C30.375 129.424 32.989 130.498 33.968 130.498C34.106 130.498 34.2 130.498 34.293 130.454C34.805 130.129 37.282 127.601 39.478 124.566L41.58 126.108C39.808 128.537 36.676 132.234 35.416 132.839C35.042 133.027 34.53 133.164 33.968 133.164C31.728 133.164 28.366 131.341 25.141 124.61C21.123 116.148 23.319 112.314 25.278 111.427C26.214 110.866 28.828 110.728 31.349 110.728ZM31.349 110.491C29.901 110.491 26.351 110.535 25.229 111.097C23.22 112.033 20.886 115.961 24.998 124.61C28.685 132.465 32.565 133.302 34.012 133.302C34.574 133.302 35.135 133.209 35.553 132.977C36.907 132.322 40.083 128.537 41.811 126.196L41.949 126.009L41.762 125.871L39.659 124.329L39.472 124.191L39.334 124.378C37.094 127.463 34.662 129.942 34.244 130.223C34.244 130.223 34.2 130.223 34.057 130.223C33.776 130.223 31.019 130.036 27.799 123.26C26.071 119.613 25.79 117.322 25.84 116.016C25.884 114.474 26.445 113.912 26.588 113.868C26.913 113.73 28.828 113.543 31.398 113.543C32.378 113.543 33.358 113.587 34.293 113.636H34.524V113.405L34.662 110.833V110.601H34.431C33.451 110.491 32.427 110.491 31.349 110.491Z" fill="#503EAA"/>
<path d="M34.342 112.083L40.556 125.265C52.515 129.33 82.262 120.963 83.291 96.9839C64.089 82.5839 38.778 100.256 34.342 112.083Z" fill="#C0DBFF"/>
<path d="M66.473 121.431C53.116 127.744 41.156 127.788 41.156 127.788L36.952 118.908C62.455 116.055 80.903 100.394 82.351 97.1221C81.184 104.977 79.83 115.118 66.473 121.431Z" fill="#77A4F2"/>
<path d="M53.627 95.579C40.083 101.986 34.48 111.427 34.48 111.427L36.253 115.168C39.384 110.304 43.446 105.114 56.242 99.088C69.037 93.056 77.304 96.284 82.444 98.388C79.225 93.943 67.177 89.172 53.627 95.579Z" fill="white"/>
<path d="M47.419 127.65C44.618 127.65 42.097 127.276 40.088 126.62L39.67 126.483L39.389 126.158C37.848 124.147 36.494 121.949 35.372 119.657C33.412 115.498 32.895 112.458 32.895 112.32L32.851 111.945L32.989 111.571C35.652 104.465 45.647 95.0669 57.744 91.5629C60.919 90.6269 64.095 90.1589 67.177 90.1589C73.39 90.1589 79.136 92.0759 84.133 95.8599L84.739 96.3279L84.695 97.0779C84.183 108.954 77.083 116.198 71.244 120.219C69.472 121.437 67.601 122.511 65.641 123.398C59.934 126.108 53.302 127.65 47.419 127.65ZM41.393 124.048C43.077 124.56 45.223 124.841 47.513 124.841C54.986 124.841 63.253 122.224 69.654 117.878C74.794 114.375 81.095 108.012 81.844 97.7279C77.452 94.6429 72.548 93.0509 67.177 93.0509C64.376 93.0509 61.481 93.469 58.58 94.312C47.276 97.634 38.404 106.001 35.834 112.265C36.302 114.413 37.05 116.517 37.98 118.484C38.916 120.401 40.083 122.274 41.393 124.048Z" fill="#503EAA"/>
<path d="M67.177 90.2521C72.455 90.2521 78.388 91.6571 84.084 95.9101L84.645 96.3281L84.601 97.0281C84.089 108.855 77.034 116.099 71.195 120.076C69.422 121.293 67.551 122.368 65.636 123.254C59.516 126.152 52.934 127.507 47.469 127.507C44.667 127.507 42.147 127.132 40.182 126.477L39.808 126.339L39.576 126.014C38.035 124.004 36.682 121.806 35.559 119.514C33.6 115.399 33.132 112.314 33.082 112.221L33.038 111.896L33.176 111.571C35.84 104.514 45.785 95.1161 57.837 91.6071C60.446 90.8581 63.671 90.2521 67.177 90.2521ZM47.513 124.94C54.144 124.94 62.692 122.742 69.698 117.928C74.926 114.33 81.233 107.924 81.932 97.5901C76.935 94.0371 71.75 92.8691 67.127 92.8691C63.902 92.8691 60.963 93.4311 58.487 94.1301C47.419 97.3581 38.311 105.726 35.647 112.177C36.115 114.325 36.863 116.429 37.843 118.44C38.822 120.451 39.989 122.318 41.343 124.141C43.077 124.703 45.174 124.94 47.513 124.94ZM67.177 90.0151V90.2471V90.0151C64.095 90.0151 60.919 90.4841 57.694 91.4201C45.597 94.9241 35.553 104.415 32.846 111.521L32.708 111.846V111.89V111.934L32.752 112.259C32.752 112.397 33.264 115.438 35.229 119.646C36.351 121.938 37.749 124.136 39.29 126.191L39.521 126.516L39.565 126.56H39.659L40.033 126.697C42.042 127.397 44.612 127.727 47.414 127.727C53.297 127.727 59.978 126.185 65.724 123.475C67.683 122.538 69.555 121.464 71.327 120.247C77.21 116.225 84.31 108.932 84.827 97.0111L84.871 96.3121V96.1741L84.777 96.0801L84.216 95.6621C79.18 91.9321 73.435 90.0151 67.177 90.0151ZM35.928 112.221C38.498 106.001 47.326 97.6831 58.58 94.4111C61.475 93.5681 64.37 93.1501 67.177 93.1501C72.499 93.1501 77.408 94.6921 81.75 97.7771C81.002 107.968 74.744 114.281 69.654 117.784C63.297 122.131 55.031 124.753 47.606 124.753C45.317 124.753 43.264 124.472 41.58 124.004C40.27 122.274 39.153 120.357 38.168 118.44C37.144 116.429 36.395 114.325 35.928 112.221Z" fill="#503EAA"/>
<path d="M33.077 139.009C40.127 138.778 63.528 128.399 69.043 110.678C51.899 122.087 38.03 121.569 38.03 121.569L33.077 139.009Z" fill="#77A4F2"/>
<path d="M60.633 117.459C60.633 117.459 56.054 128.025 35.691 137.235C44.332 136.673 63.154 128.262 67.078 114.468C67.689 112.314 60.633 117.459 60.633 117.459Z" fill="white"/>
<path d="M33.077 140.414C32.89 140.414 32.658 140.37 32.471 140.276C32.284 140.182 32.097 140.045 31.959 139.857C31.822 139.67 31.728 139.483 31.679 139.251C31.629 139.02 31.635 138.783 31.723 138.596L36.676 121.161C36.77 120.88 36.957 120.599 37.188 120.412C37.419 120.225 37.749 120.131 38.03 120.131C38.591 120.131 51.855 119.944 68.855 110.502C69.087 110.408 69.323 110.315 69.554 110.315C69.598 110.315 69.648 110.315 69.692 110.315C69.973 110.359 70.253 110.452 70.485 110.64C70.716 110.827 70.859 111.058 70.952 111.339C71.046 111.62 71.046 111.901 70.952 112.182C67.821 122.279 59.274 129.198 52.642 133.17C50.776 134.294 48.861 135.318 46.896 136.255C41.717 138.684 36.302 140.32 33.077 140.414ZM35.041 137.329C43.17 135.88 60.496 127.887 66.847 114.793C53.115 121.712 42.279 122.786 39.153 122.929L35.041 137.329Z" fill="#503EAA"/>
<path d="M69.554 110.447C69.598 110.447 69.648 110.447 69.648 110.447C69.928 110.447 70.16 110.585 70.347 110.728C70.534 110.915 70.671 111.102 70.765 111.383C70.859 111.615 70.859 111.896 70.765 112.132C67.633 122.186 59.136 129.055 52.548 133.076C50.682 134.2 48.811 135.225 46.852 136.161C41.249 138.827 36.065 140.276 33.12 140.37H33.076C32.889 140.37 32.702 140.326 32.515 140.232C32.328 140.138 32.19 140.001 32.047 139.857C31.91 139.72 31.816 139.532 31.816 139.295C31.772 139.108 31.772 138.877 31.86 138.69L36.813 121.255C36.907 120.974 37.045 120.742 37.281 120.555C37.512 120.368 37.793 120.274 38.074 120.274C38.211 120.274 51.761 120.181 68.993 110.596C69.136 110.491 69.323 110.447 69.554 110.447ZM67.083 114.512C53.214 121.569 42.284 122.648 39.015 122.836L34.86 137.516C42.796 136.156 60.726 128.119 67.083 114.512ZM69.554 110.166C69.274 110.166 69.042 110.21 68.806 110.353C51.805 119.795 38.586 119.982 38.024 119.982C37.699 119.982 37.369 120.076 37.089 120.307C36.808 120.495 36.621 120.776 36.527 121.101L31.574 138.535C31.53 138.767 31.48 139.004 31.53 139.235C31.579 139.466 31.668 139.703 31.811 139.89C31.948 140.078 32.135 140.215 32.372 140.359C32.559 140.452 32.79 140.496 33.027 140.496H33.071C36.34 140.403 41.618 138.767 46.896 136.288C48.855 135.351 50.77 134.327 52.642 133.203C59.273 129.182 67.821 122.263 70.996 112.121C71.09 111.841 71.09 111.516 70.996 111.235C70.903 110.954 70.715 110.673 70.484 110.485C70.253 110.298 69.972 110.16 69.642 110.16C69.648 110.166 69.604 110.166 69.554 110.166ZM39.196 123.067C42.422 122.88 53.065 121.756 66.522 115.074C60.121 127.838 43.308 135.693 35.184 137.186L39.196 123.067Z" fill="#503EAA"/>
<path d="M61.943 88.379C58.113 86.974 53.864 87.162 50.171 88.891C46.484 90.621 43.633 93.756 42.229 97.584C40.826 101.418 41.013 105.671 42.741 109.367C46.335 117.079 74.172 104.04 70.578 96.372C68.905 92.632 65.774 89.784 61.943 88.379Z" fill="#77A4F2"/>
<path d="M66.753 98.9939C65.256 95.8599 62.598 93.4799 59.373 92.3069C56.148 91.1389 52.598 91.2769 49.516 92.7259C46.434 94.1739 44.051 96.7909 42.884 100.019C41.718 103.247 41.855 106.8 43.259 109.979C46.297 116.523 69.835 105.539 66.753 98.9939Z" fill="#503EAA"/>
<path d="M47.887 113.113C44.662 113.113 42.422 112.039 41.442 109.934C39.577 105.869 39.34 101.33 40.881 97.1271C42.378 92.9181 45.46 89.553 49.478 87.636L49.522 87.5911C51.53 86.6551 53.677 86.1431 55.873 86.0491C56.104 86.0491 56.385 86.0491 56.621 86.0491C58.581 86.0491 60.496 86.3741 62.367 87.0791C64.469 87.8281 66.335 88.9961 67.97 90.4891C69.604 91.9871 70.914 93.7611 71.844 95.7721C74.084 100.586 67.595 106.337 60.122 109.841L59.934 109.934C55.592 111.94 51.2 113.113 47.887 113.113ZM56.665 88.8971C54.612 88.8971 52.648 89.3161 50.782 90.2081L50.738 90.2521C47.375 91.8441 44.855 94.6481 43.594 98.1521C42.334 101.655 42.521 105.445 44.062 108.811C44.53 109.791 45.834 110.353 47.893 110.353C50.787 110.353 54.761 109.279 58.773 107.406L58.96 107.312C65.966 103.991 70.496 99.4571 69.329 96.9781C67.739 93.6121 64.937 91.0401 61.437 89.7781C59.89 89.1721 58.3 88.8971 56.665 88.8971Z" fill="#503EAA"/>
<path d="M56.665 86.1809C58.625 86.1809 60.54 86.5059 62.362 87.1619C64.415 87.9109 66.33 89.0789 67.92 90.5279C69.555 92.0259 70.865 93.7999 71.751 95.7659C73.991 100.537 67.502 106.189 60.072 109.698L59.885 109.791C55.774 111.708 51.382 112.97 47.832 112.97C44.888 112.97 42.554 112.083 41.525 109.885C39.659 105.864 39.472 101.33 40.964 97.1709C42.461 93.0119 45.543 89.6459 49.511 87.7289L49.555 87.6849C51.514 86.7489 53.666 86.2359 55.862 86.1429C56.198 86.1809 56.434 86.1809 56.665 86.1809ZM47.887 110.397C50.689 110.397 54.662 109.367 58.817 107.45L59.004 107.356C66.055 104.035 70.634 99.4569 69.417 96.8849C67.827 93.5189 64.981 90.9019 61.476 89.5909C59.935 89.0289 58.3 88.7479 56.665 88.7479C54.613 88.7479 52.604 89.1669 50.733 90.0589L50.689 90.1029C47.326 91.6949 44.712 94.5429 43.451 98.0519C42.191 101.556 42.378 105.39 43.919 108.805C44.431 109.885 45.878 110.397 47.887 110.397ZM56.665 85.8999C56.434 85.8999 56.154 85.8999 55.917 85.8999C53.677 85.9939 51.525 86.5059 49.516 87.4919L49.472 87.5359C45.411 89.4529 42.329 92.8629 40.788 97.1209C39.247 101.38 39.478 105.957 41.349 110.023C42.329 112.127 44.618 113.251 47.887 113.251C51.206 113.251 55.642 112.083 60.028 110.023L60.215 109.929C67.733 106.376 74.321 100.581 72.031 95.6729C71.096 93.6619 69.792 91.8389 68.107 90.3459C66.473 88.8479 64.558 87.6799 62.455 86.9359C60.59 86.2749 58.674 85.8999 56.665 85.8999ZM47.887 110.166C45.928 110.166 44.618 109.654 44.15 108.717C42.609 105.395 42.422 101.611 43.683 98.1519C44.943 94.6919 47.463 91.8879 50.782 90.3459L50.826 90.3019C52.648 89.4589 54.657 88.9909 56.665 88.9909C58.3 88.9909 59.891 89.2719 61.382 89.8339C64.838 91.0949 67.64 93.6179 69.181 96.9839C69.692 98.1069 68.993 99.7879 67.128 101.661C65.213 103.578 62.268 105.539 58.861 107.131L58.674 107.224C54.706 109.092 50.782 110.166 47.887 110.166Z" fill="#503EAA"/>
<path d="M34.012 132.371C32.422 132.602 29.296 126.807 30.418 128.118C31.541 129.43 34.573 126.951 35.927 124.097C35.977 124.097 35.603 132.184 34.012 132.371Z" fill="#503EAA"/>
<path d="M233.228 52.362L214.452 77.583C211.962 80.905 216.896 88.816 225.5 95.197C234.057 101.624 243.056 104.071 245.541 100.749L264.364 75.528C266.854 72.206 261.92 64.295 253.316 57.914C244.713 51.533 235.672 49.041 233.228 52.362Z" fill="#C0DBFF"/>
<path d="M264.9 75.927C267.38 72.597 262.338 64.634 253.637 58.14C244.936 51.647 235.872 49.081 233.392 52.411C230.912 55.74 235.954 63.703 244.655 70.197C253.356 76.691 262.42 79.256 264.9 75.927Z" fill="white"/>
<path d="M157.641 32.431L175.238 8.82699C176.288 7.42699 178.254 7.169 179.648 8.173L226.241 42.963C227.64 44.014 227.898 45.981 226.894 47.377L209.297 70.98C208.247 72.381 206.281 72.639 204.887 71.635L158.294 36.845C156.9 35.753 156.591 33.785 157.641 32.431Z" fill="#C0DBFF"/>
<path d="M178.326 14.228L160.288 38.44L207.587 73.742L225.625 49.53L178.326 14.228Z" fill="#77A4F2"/>
<path d="M252.4 103.283L269.823 79.6791C270.873 78.2781 272.792 78.0211 274.192 79.0251L320.743 113.511C322.143 114.562 322.4 116.483 321.397 117.884L303.974 141.487C302.924 142.888 301.005 143.146 299.606 142.141L253.054 107.655C251.654 106.646 251.351 104.678 252.4 103.283Z" fill="#C0DBFF"/>
<path d="M274.279 85.854L256.381 110.06L303.627 145.058L321.525 120.853L274.279 85.854Z" fill="#77A4F2"/>
<path d="M216.459 89.078L236.023 62.807L231.742 55.947L212.178 82.213L216.459 89.078Z" fill="white"/>
<path d="M250.435 74.0859L232.488 98.2149L242.794 101.274C242.794 101.274 247.816 97.3399 249.432 94.9339C251.048 92.5289 261.792 78.4119 261.792 78.4119L250.435 74.0859Z" fill="#77A4F2"/>
<path d="M228.423 48.5619L210.825 72.1649C209.122 74.4359 205.937 74.9209 203.662 73.2159L157.07 38.4259C154.8 36.7209 154.317 33.5279 156.02 31.2569L173.618 7.65292C175.321 5.38192 178.506 4.89792 180.78 6.60292L227.373 41.3919C229.647 43.0509 230.126 46.2439 228.423 48.5619C228.423 48.5619 228.469 48.5619 228.423 48.5619ZM159.21 33.6099C158.819 34.1359 158.948 34.8359 159.426 35.2279L206.019 70.0169C206.544 70.4089 207.244 70.3209 207.635 69.8009L225.232 46.1979C225.623 45.6719 225.495 44.9719 225.016 44.5799L178.424 9.74392C177.899 9.35292 177.199 9.43992 176.808 9.96092L159.21 33.6099Z" fill="#503EAA"/>
<path d="M265.892 76.749L262.702 74.3901C264.014 72.5981 260.474 65.779 252.092 59.532C243.71 53.279 236.151 51.796 234.798 53.588L231.607 51.2291C235.317 46.2031 245.933 50.05 254.443 56.385C262.964 62.678 269.602 71.727 265.892 76.749Z" fill="#503EAA"/>
<path d="M263.724 72.2951C265.482 69.9351 261.485 63.9741 254.796 58.9821C248.107 53.9901 241.259 51.8561 239.501 54.2161C237.742 56.5761 241.739 62.5371 248.428 67.5291C255.117 72.5211 261.965 74.6551 263.724 72.2951Z" fill="#C0DBFF"/>
<path d="M265.892 76.7491C262.182 81.7761 251.567 77.9281 243.056 71.5931C234.545 65.2591 227.903 56.2101 231.618 51.1831L234.808 53.5421C233.496 55.2881 237.077 62.1531 245.418 68.4001C253.8 74.6531 261.4 76.0951 262.712 74.3901L265.892 76.7491Z" fill="#503EAA"/>
<path d="M229.56 82.7851C227.028 80.6011 224.8 78.0621 223.009 75.2241L219.037 80.5551C220.869 83.3511 223.056 85.8851 225.587 88.0741L229.56 82.7851Z" fill="#503EAA"/>
<path d="M217.947 88.2439L209.04 92.7449C209.04 92.7449 208.299 97.3809 213.012 102.186C217.731 106.996 221.878 108.696 221.878 108.696L229.607 98.3389L217.947 88.2439Z" fill="#C0DBFF"/>
<path d="M234.757 75.791C232.225 73.607 229.997 71.068 228.165 68.23L225.896 71.248C227.728 74.045 229.915 76.579 232.446 78.768L234.757 75.791Z" fill="#503EAA"/>
<path d="M227.728 97.468L220.74 108.001C220.74 108.001 221.44 108.964 225.716 110.493C229.997 112.023 234.932 112.023 236.064 109.18C237.201 106.337 237.026 102.799 235.148 101.357C233.27 99.915 227.728 97.468 227.728 97.468Z" fill="#77A4F2"/>
<path d="M218.554 90.083L209.384 97.118L208.993 89.032L216.156 87.24L218.554 90.083Z" fill="white"/>
<path d="M265.892 76.7489L247.116 101.97C243.406 106.996 232.791 103.149 224.28 96.8139C215.764 90.4739 209.127 81.4299 212.842 76.4039L231.664 51.1829C235.374 46.1559 245.989 50.0039 254.5 56.3379C262.964 62.6779 269.602 71.7269 265.892 76.7489ZM215.981 78.8039C214.668 80.5499 218.25 87.4149 226.591 93.6619C234.973 99.9149 242.531 101.398 243.838 99.6059L262.661 74.3849C263.973 72.5929 260.433 65.7739 252.051 59.5259C243.669 53.2739 236.11 51.7909 234.803 53.5829L215.981 78.8039Z" fill="#503EAA"/>
<path d="M256.723 66.392C255.108 68.576 250.96 68.272 247.466 65.691C243.973 63.111 242.491 59.223 244.148 56.993L246.242 54.196C248.12 56.03 250.085 57.781 252.18 59.398C255.195 61.628 256.24 62.1531 258.73 63.7701L256.723 66.392Z" fill="#503EAA"/>
<path d="M235.894 88.3321L233.578 91.4791C232.75 92.6171 233.274 94.322 234.803 95.279C236.331 96.237 238.209 96.1091 239.084 94.9761L241.44 91.8291C242.269 90.6911 241.744 88.9861 240.216 88.0281C238.688 87.0651 236.722 87.1991 235.894 88.3321Z" fill="#503EAA"/>
<path d="M246.306 84.7531C246.89 83.5611 246.064 81.9571 244.462 81.1701C242.859 80.3841 241.087 80.7141 240.503 81.9071C239.919 83.0991 240.744 84.7031 242.347 85.4901C243.949 86.2761 245.722 85.9461 246.306 84.7531Z" fill="#503EAA"/>
<path d="M237.685 110.406C234.104 115.216 224.672 113.99 216.202 107.696C207.733 101.357 203.889 92.6631 207.424 87.8531C208.474 86.4521 214.015 84.5771 216.156 84.2681L216.681 88.2031C214.54 88.6411 212.446 89.3821 210.481 90.3871C208.824 93.0541 211.659 99.3891 218.518 104.503C225.418 109.659 232.272 110.534 234.325 108.217C234.762 106.033 234.85 103.844 234.675 101.66L238.606 101.048C238.951 103.195 238.729 109.005 237.685 110.406Z" fill="#503EAA"/>
<path d="M167.431 19.436L165.656 21.819L217.295 60.359L219.07 57.977L167.431 19.436Z" fill="#503EAA"/>
<path d="M188.929 15.0481L167.6 43.6781L169.98 45.4551L191.309 16.8251L188.929 15.0481Z" fill="#503EAA"/>
<path d="M201.83 24.6621L180.501 53.2921L182.882 55.0681L204.211 26.4381L201.83 24.6621Z" fill="#503EAA"/>
<path d="M214.746 34.3379L193.417 62.9679L195.797 64.7439L217.126 36.1139L214.746 34.3379Z" fill="#503EAA"/>
<path d="M324.623 120.325L307.026 143.929C305.323 146.2 302.137 146.684 299.863 144.979L253.27 110.189C251.001 108.485 250.564 105.291 252.221 103.02L269.818 79.417C271.522 77.145 274.707 76.661 276.981 78.366L323.574 113.156C325.848 114.866 326.327 118.054 324.623 120.325C324.623 120.325 324.67 120.325 324.623 120.325ZM255.411 105.425C255.02 105.951 255.107 106.651 255.627 107.043L302.22 141.832C302.745 142.224 303.444 142.136 303.835 141.616L321.433 118.013C321.824 117.487 321.737 116.787 321.217 116.395L274.624 81.559C274.099 81.168 273.4 81.255 273.009 81.776L255.411 105.425Z" fill="#503EAA"/>
<path d="M263.649 91.2361L261.874 93.6191L313.513 132.159L315.288 129.777L263.649 91.2361Z" fill="#503EAA"/>
<path d="M283.41 85.843L262.24 114.473L264.626 116.241L285.797 87.61L283.41 85.843Z" fill="#503EAA"/>
<path d="M296.28 95.3999L275.109 124.031L277.496 125.799L298.666 97.1679L296.28 95.3999Z" fill="#503EAA"/>
<path d="M310.966 106.128L289.637 134.758L292.017 136.534L313.346 107.904L310.966 106.128Z" fill="#503EAA"/>
<path d="M221.251 57.1299L217.101 62.6999L222.002 66.3579L226.151 60.7879L221.251 57.1299Z" fill="#503EAA"/>
<path d="M258.853 85.178L254.704 90.748L259.604 94.405L263.754 88.835L258.853 85.178Z" fill="#503EAA"/>
<path d="M241.219 19.102C232.791 30.376 237.772 48.34 252.354 59.181C266.895 70.023 285.497 69.714 293.925 58.393C297.81 53.192 289.119 40.213 274.578 29.325C259.995 18.489 245.063 13.901 241.219 19.102Z" fill="#C0DBFF"/>
<path d="M252.792 57.5639C244.929 50.8329 244.147 40.4759 244.801 34.1819L238.379 24.2629C238.379 24.3039 233.357 45.3679 252.792 57.5639Z" fill="white"/>
<path d="M253.708 58.2649C262.398 63.8579 272.53 61.6739 278.38 59.2689L289.69 62.5909C289.644 62.5909 270.955 73.3859 253.708 58.2649Z" fill="#77A4F2"/>
<path d="M295.453 59.6191C290.128 66.7421 272.875 59.8821 259.342 49.7411C245.804 39.6471 234.278 25.0461 239.563 17.9231L242.753 20.2821C240.35 23.5571 246.375 35.0991 261.704 46.5481C277.032 57.9971 289.824 60.4901 292.274 57.2141L295.453 59.6191Z" fill="#503EAA"/>
<path d="M290.842 59.8699C294 55.6299 286.936 45.0109 275.064 36.1499C263.192 27.2899 251.008 23.5429 247.85 27.7819C244.692 32.0209 251.756 42.6409 263.628 51.5019C275.5 60.3619 287.684 64.1089 290.842 59.8699Z" fill="#503EAA"/>
<path d="M295.454 59.6191C286.413 71.7691 266.5 72.2941 251.13 60.7991C235.714 49.3031 230.563 30.0721 239.604 17.9231C244.93 10.8001 262.183 17.6601 275.715 27.8011C289.253 37.8491 300.784 52.4501 295.454 59.6191ZM242.789 20.2821C235.061 30.6851 239.861 47.4231 253.487 57.6051C267.112 67.7871 284.535 67.6121 292.263 57.2141C294.708 53.9381 288.641 42.3971 273.312 30.9481C257.989 19.4941 245.192 17.0011 242.789 20.2821Z" fill="#503EAA"/>
<path d="M288.619 8.08301L244.422 15.176L245.051 19.101L289.248 12.009L288.619 8.08301Z" fill="#503EAA"/>
<path d="M290.826 9.6731L286.887 10.1891L292.696 54.6051L296.635 54.0891L290.826 9.6731Z" fill="#503EAA"/>
<path d="M288.288 7.73096L260.25 45.366L263.435 47.743L291.472 10.108L288.288 7.73096Z" fill="#503EAA"/>
<path d="M291.26 13.813C295.071 13.813 298.16 10.721 298.16 6.90601C298.16 3.09201 295.071 0 291.26 0C287.449 0 284.36 3.09201 284.36 6.90601C284.36 10.721 287.449 13.813 291.26 13.813Z" fill="#77A4F2"/>
<path d="M144.225 137.146H145.401V133.722L147.105 136.826L148.801 133.722V137.146H149.985V131.65H148.801L147.105 134.754L145.401 131.65H144.225V137.146ZM155.155 131.65L153.579 135.522L152.003 131.65H150.675L152.915 137.146H154.235L156.475 131.65H155.155ZM157.163 137.146H158.339V135.61L159.027 134.874L160.715 137.146H162.147L159.851 134.034L161.995 131.65H160.563L158.339 134.17V131.65H157.163V137.146ZM169.623 136.842L168.759 135.93C169.031 135.57 169.279 135.138 169.519 134.658L168.671 134.258C168.527 134.618 168.343 134.962 168.135 135.266C167.799 134.906 167.527 134.602 167.287 134.322C168.159 133.922 168.543 133.586 168.543 132.97C168.543 132.178 167.887 131.578 166.991 131.578C166.119 131.578 165.431 132.21 165.431 132.978C165.431 133.386 165.535 133.674 165.823 134.098C164.983 134.474 164.631 134.93 164.631 135.65C164.631 136.65 165.423 137.242 166.479 137.242C167.103 137.242 167.623 137.034 168.079 136.666L168.663 137.274L169.623 136.842ZM167.007 132.418C167.319 132.418 167.535 132.658 167.535 132.978C167.535 133.338 167.319 133.506 166.783 133.722C166.559 133.442 166.431 133.234 166.431 132.978C166.431 132.65 166.687 132.418 167.007 132.418ZM166.623 136.354C166.167 136.354 165.791 136.058 165.791 135.57C165.791 135.25 165.959 134.994 166.335 134.77C166.615 135.098 166.975 135.506 167.463 136.018C167.191 136.226 166.911 136.354 166.623 136.354ZM175.095 137.242C176.551 137.242 177.583 136.218 177.583 134.77V131.65H176.399V134.722C176.399 135.57 175.855 136.17 175.095 136.17C174.327 136.17 173.783 135.57 173.783 134.722V131.65H172.607V134.77C172.607 136.218 173.631 137.242 175.095 137.242ZM180.734 137.242C182.078 137.242 182.87 136.546 182.87 135.498C182.87 134.482 182.086 134.13 180.902 133.866C180.054 133.674 179.726 133.546 179.726 133.146C179.726 132.818 180.03 132.554 180.534 132.554C181.062 132.554 181.614 132.77 182.102 133.162L182.718 132.314C182.158 131.834 181.462 131.554 180.566 131.554C179.366 131.554 178.534 132.25 178.534 133.266C178.534 134.33 179.358 134.658 180.518 134.922C181.358 135.114 181.678 135.234 181.678 135.626C181.678 135.97 181.374 136.242 180.782 136.242C180.086 136.242 179.494 135.97 178.974 135.522L178.294 136.33C178.934 136.922 179.782 137.242 180.734 137.242ZM183.764 137.146H185.732C187.58 137.146 188.892 136.002 188.892 134.394C188.892 132.786 187.58 131.65 185.732 131.65H183.764V137.146ZM184.94 136.074V132.722H185.884C186.932 132.722 187.676 133.418 187.676 134.394C187.676 135.378 186.932 136.074 185.884 136.074H184.94ZM189.85 137.146H191.026V133.722L192.73 136.826L194.426 133.722V137.146H195.61V131.65H194.426L192.73 134.754L191.026 131.65H189.85V137.146Z" fill="#86D4C9"/>
<path d="M148.825 147.672L147.473 145.752C148.225 145.488 148.721 144.848 148.721 144.032C148.721 142.944 147.841 142.176 146.649 142.176H144.177V147.672H145.353V145.888H146.225L147.481 147.672H148.825ZM145.353 143.256H146.521C147.105 143.256 147.505 143.56 147.505 144.032C147.505 144.504 147.105 144.808 146.521 144.808H145.353V143.256ZM151.519 146.736C151.031 146.736 150.671 146.432 150.535 145.984H153.519C153.519 144.424 152.759 143.44 151.463 143.44C150.255 143.44 149.335 144.344 149.335 145.592C149.335 146.864 150.295 147.768 151.527 147.768C152.135 147.768 152.847 147.512 153.215 147.128L152.471 146.368C152.247 146.584 151.847 146.736 151.519 146.736ZM151.511 144.472C151.983 144.472 152.287 144.736 152.399 145.144H150.551C150.703 144.728 151.071 144.472 151.511 144.472ZM155.154 147.672H156.202L156.978 145.072L157.746 147.672H158.794L160.202 143.536H159.058L158.274 146.112L157.458 143.536H156.49L155.674 146.112L154.89 143.536H153.746L155.154 147.672ZM162.689 143.44C162.113 143.44 161.545 143.6 160.961 143.896L161.353 144.672C161.681 144.504 162.041 144.376 162.425 144.376C163.105 144.376 163.377 144.76 163.377 145.2V145.28C163.025 145.144 162.657 145.072 162.321 145.072C161.361 145.072 160.601 145.632 160.601 146.448C160.601 147.24 161.281 147.768 162.161 147.768C162.609 147.768 163.081 147.592 163.377 147.256V147.672H164.505V145.2C164.505 144.12 163.769 143.44 162.689 143.44ZM162.425 146.96C162.025 146.96 161.729 146.752 161.729 146.416C161.729 146.08 162.065 145.832 162.489 145.832C162.809 145.832 163.113 145.888 163.377 145.984V146.368C163.297 146.752 162.873 146.96 162.425 146.96ZM166.657 144.304V143.536H165.489V147.672H166.657V145.696C166.657 144.92 167.209 144.424 168.073 144.424V143.44C167.441 143.44 166.929 143.768 166.657 144.304ZM171.835 142.08V144.128C171.507 143.696 171.027 143.44 170.443 143.44C169.339 143.44 168.539 144.336 168.539 145.6C168.539 146.872 169.339 147.768 170.443 147.768C171.027 147.768 171.507 147.512 171.835 147.08V147.672H173.003V142.08H171.835ZM170.779 146.784C170.131 146.784 169.675 146.296 169.675 145.6C169.675 144.912 170.131 144.424 170.779 144.424C171.395 144.424 171.835 144.912 171.835 145.6C171.835 146.296 171.395 146.784 170.779 146.784ZM175.58 147.768C176.596 147.768 177.26 147.248 177.26 146.432C177.26 145.528 176.468 145.288 175.756 145.104C175.196 144.952 175.028 144.888 175.028 144.664C175.028 144.52 175.228 144.416 175.516 144.416C175.868 144.416 176.3 144.552 176.676 144.784L177.148 143.952C176.692 143.648 176.108 143.44 175.516 143.44C174.54 143.44 173.892 144 173.9 144.784C173.908 145.6 174.564 145.832 175.412 146.04C175.836 146.152 176.14 146.232 176.14 146.488C176.14 146.672 175.916 146.8 175.604 146.8C175.052 146.8 174.588 146.6 174.22 146.336L173.716 147.144C174.212 147.544 174.916 147.768 175.58 147.768Z" fill="#86D4C9"/>
<path d="M128.592 88H130.56C132.408 88 133.72 86.856 133.72 85.248C133.72 83.64 132.408 82.504 130.56 82.504H128.592V88ZM129.768 86.928V83.576H130.712C131.76 83.576 132.504 84.272 132.504 85.248C132.504 86.232 131.76 86.928 130.712 86.928H129.768ZM136.55 87.064C136.062 87.064 135.702 86.76 135.566 86.312H138.55C138.55 84.752 137.79 83.768 136.494 83.768C135.286 83.768 134.366 84.672 134.366 85.92C134.366 87.192 135.326 88.096 136.558 88.096C137.166 88.096 137.878 87.84 138.246 87.456L137.502 86.696C137.278 86.912 136.878 87.064 136.55 87.064ZM136.542 84.8C137.014 84.8 137.318 85.064 137.43 85.472H135.582C135.734 85.056 136.102 84.8 136.542 84.8ZM139.34 88H140.508V82.408H139.34V88ZM143.48 87.064C142.992 87.064 142.632 86.76 142.496 86.312H145.48C145.48 84.752 144.72 83.768 143.424 83.768C142.216 83.768 141.296 84.672 141.296 85.92C141.296 87.192 142.256 88.096 143.488 88.096C144.096 88.096 144.808 87.84 145.176 87.456L144.432 86.696C144.208 86.912 143.808 87.064 143.48 87.064ZM143.472 84.8C143.944 84.8 144.248 85.064 144.36 85.472H142.512C142.664 85.056 143.032 84.8 143.472 84.8ZM149.262 83.864V84.424C148.982 84.032 148.454 83.768 147.894 83.768C146.854 83.768 146.062 84.576 146.062 85.728C146.062 86.88 146.854 87.696 147.894 87.696C148.438 87.696 148.934 87.456 149.262 87.056V87.512C149.262 88.048 148.782 88.392 148.03 88.392C147.55 88.392 147.07 88.24 146.798 88L146.39 88.824C146.798 89.144 147.486 89.376 148.214 89.376C149.518 89.376 150.438 88.624 150.438 87.56V83.864H149.262ZM148.262 86.712C147.678 86.712 147.262 86.304 147.262 85.728C147.262 85.152 147.678 84.752 148.262 84.752C148.846 84.752 149.262 85.152 149.262 85.728C149.262 86.304 148.846 86.712 148.262 86.712ZM153.313 83.768C152.737 83.768 152.169 83.928 151.585 84.224L151.977 85C152.305 84.832 152.665 84.704 153.049 84.704C153.729 84.704 154.001 85.088 154.001 85.528V85.608C153.649 85.472 153.281 85.4 152.945 85.4C151.985 85.4 151.225 85.96 151.225 86.776C151.225 87.568 151.905 88.096 152.785 88.096C153.233 88.096 153.705 87.92 154.001 87.584V88H155.129V85.528C155.129 84.448 154.393 83.768 153.313 83.768ZM153.049 87.288C152.649 87.288 152.353 87.08 152.353 86.744C152.353 86.408 152.689 86.16 153.113 86.16C153.433 86.16 153.737 86.216 154.001 86.312V86.696C153.921 87.08 153.497 87.288 153.049 87.288ZM158.29 86.976C158.21 87.056 158.05 87.112 157.89 87.112C157.674 87.112 157.498 86.92 157.498 86.648V84.808H158.394V83.864H157.498V82.728H156.378V83.864H155.81V84.808H156.378V86.832C156.378 87.576 156.89 88.096 157.618 88.096C157.954 88.096 158.33 87.952 158.57 87.736L158.29 86.976ZM161.253 87.064C160.765 87.064 160.405 86.76 160.269 86.312H163.253C163.253 84.752 162.493 83.768 161.197 83.768C159.989 83.768 159.069 84.672 159.069 85.92C159.069 87.192 160.029 88.096 161.261 88.096C161.869 88.096 162.581 87.84 162.949 87.456L162.205 86.696C161.981 86.912 161.581 87.064 161.253 87.064ZM161.245 84.8C161.717 84.8 162.021 85.064 162.133 85.472H160.285C160.437 85.056 160.805 84.8 161.245 84.8ZM167.131 82.408V84.456C166.803 84.024 166.323 83.768 165.739 83.768C164.635 83.768 163.835 84.664 163.835 85.928C163.835 87.2 164.635 88.096 165.739 88.096C166.323 88.096 166.803 87.84 167.131 87.408V88H168.299V82.408H167.131ZM166.075 87.112C165.427 87.112 164.971 86.624 164.971 85.928C164.971 85.24 165.427 84.752 166.075 84.752C166.691 84.752 167.131 85.24 167.131 85.928C167.131 86.624 166.691 87.112 166.075 87.112Z" fill="#86D4C9"/>
<path d="M128.592 98.081H129.768V94.657L131.472 97.761L133.168 94.657V98.081H134.352V92.585H133.168L131.472 95.689L129.768 92.585H128.592V98.081ZM139.522 92.585L137.946 96.457L136.37 92.585H135.042L137.282 98.081H138.602L140.842 92.585H139.522ZM141.529 98.081H142.705V96.545L143.393 95.809L145.081 98.081H146.513L144.217 94.969L146.361 92.585H144.929L142.705 95.105V92.585H141.529V98.081Z" fill="#86D4C9"/>
<path d="M332.592 92.9999H333.768V89.5759L335.472 92.6799L337.168 89.5759V92.9999H338.352V87.5039H337.168L335.472 90.6079L333.768 87.5039H332.592V92.9999ZM343.522 87.5039L341.946 91.3759L340.37 87.5039H339.042L341.282 92.9999H342.602L344.842 87.5039H343.522ZM345.529 92.9999H346.705V91.4639L347.393 90.7279L349.081 92.9999H350.513L348.217 89.8879L350.361 87.5039H348.929L346.705 90.0239V87.5039H345.529V92.9999Z" fill="#86D4C9"/>
<path d="M337.192 103.888L335.84 101.968C336.592 101.704 337.088 101.064 337.088 100.248C337.088 99.1599 336.208 98.3919 335.016 98.3919H332.544V103.888H333.72V102.104H334.592L335.848 103.888H337.192ZM333.72 99.4719H334.888C335.472 99.4719 335.872 99.7759 335.872 100.248C335.872 100.72 335.472 101.024 334.888 101.024H333.72V99.4719ZM339.886 102.952C339.398 102.952 339.038 102.648 338.902 102.2H341.886C341.886 100.64 341.126 99.6559 339.83 99.6559C338.622 99.6559 337.702 100.56 337.702 101.808C337.702 103.08 338.662 103.984 339.894 103.984C340.502 103.984 341.214 103.728 341.582 103.344L340.838 102.584C340.614 102.8 340.214 102.952 339.886 102.952ZM339.878 100.688C340.35 100.688 340.654 100.952 340.766 101.36H338.918C339.07 100.944 339.438 100.688 339.878 100.688ZM343.521 103.888H344.569L345.345 101.288L346.113 103.888H347.161L348.569 99.7519H347.425L346.641 102.328L345.825 99.7519H344.857L344.041 102.328L343.257 99.7519H342.113L343.521 103.888ZM351.055 99.6559C350.479 99.6559 349.911 99.8159 349.327 100.112L349.719 100.888C350.047 100.72 350.407 100.592 350.791 100.592C351.471 100.592 351.743 100.976 351.743 101.416V101.496C351.391 101.36 351.023 101.288 350.687 101.288C349.727 101.288 348.967 101.848 348.967 102.664C348.967 103.456 349.647 103.984 350.527 103.984C350.975 103.984 351.447 103.808 351.743 103.472V103.888H352.871V101.416C352.871 100.336 352.135 99.6559 351.055 99.6559ZM350.791 103.176C350.391 103.176 350.095 102.968 350.095 102.632C350.095 102.296 350.431 102.048 350.855 102.048C351.175 102.048 351.479 102.104 351.743 102.2V102.584C351.663 102.968 351.239 103.176 350.791 103.176ZM355.024 100.52V99.7519H353.856V103.888H355.024V101.912C355.024 101.136 355.576 100.64 356.44 100.64V99.6559C355.808 99.6559 355.296 99.9839 355.024 100.52ZM360.202 98.2959V100.344C359.874 99.9119 359.394 99.6559 358.81 99.6559C357.706 99.6559 356.906 100.552 356.906 101.816C356.906 103.088 357.706 103.984 358.81 103.984C359.394 103.984 359.874 103.728 360.202 103.296V103.888H361.37V98.2959H360.202ZM359.146 103C358.498 103 358.042 102.512 358.042 101.816C358.042 101.128 358.498 100.64 359.146 100.64C359.762 100.64 360.202 101.128 360.202 101.816C360.202 102.512 359.762 103 359.146 103ZM363.947 103.984C364.963 103.984 365.627 103.464 365.627 102.648C365.627 101.744 364.835 101.504 364.123 101.32C363.563 101.168 363.395 101.104 363.395 100.88C363.395 100.736 363.595 100.632 363.883 100.632C364.235 100.632 364.667 100.768 365.043 101L365.515 100.168C365.059 99.8639 364.475 99.6559 363.883 99.6559C362.907 99.6559 362.259 100.216 362.267 101C362.275 101.816 362.931 102.048 363.779 102.256C364.203 102.368 364.507 102.448 364.507 102.704C364.507 102.888 364.283 103.016 363.971 103.016C363.419 103.016 362.955 102.816 362.587 102.552L362.083 103.36C362.579 103.76 363.283 103.984 363.947 103.984Z" fill="#86D4C9"/>
<path d="M357.624 147.096C358.968 147.096 359.76 146.4 359.76 145.352C359.76 144.336 358.976 143.984 357.792 143.72C356.944 143.528 356.616 143.4 356.616 143C356.616 142.672 356.92 142.408 357.424 142.408C357.952 142.408 358.504 142.624 358.992 143.016L359.608 142.168C359.048 141.688 358.352 141.408 357.456 141.408C356.256 141.408 355.424 142.104 355.424 143.12C355.424 144.184 356.248 144.512 357.408 144.776C358.248 144.968 358.568 145.088 358.568 145.48C358.568 145.824 358.264 146.096 357.672 146.096C356.976 146.096 356.384 145.824 355.864 145.376L355.184 146.184C355.824 146.776 356.672 147.096 357.624 147.096ZM361.159 142.296C361.503 142.296 361.783 142.008 361.783 141.656C361.783 141.328 361.503 141.032 361.159 141.032C360.799 141.032 360.519 141.328 360.519 141.656C360.519 142.008 360.799 142.296 361.159 142.296ZM360.567 147H361.735V142.864H360.567V147ZM365.746 142.864V143.424C365.466 143.032 364.938 142.768 364.378 142.768C363.338 142.768 362.546 143.576 362.546 144.728C362.546 145.88 363.338 146.696 364.378 146.696C364.922 146.696 365.418 146.456 365.746 146.056V146.512C365.746 147.048 365.266 147.392 364.514 147.392C364.034 147.392 363.554 147.24 363.282 147L362.874 147.824C363.282 148.144 363.97 148.376 364.698 148.376C366.002 148.376 366.922 147.624 366.922 146.56V142.864H365.746ZM364.746 145.712C364.162 145.712 363.746 145.304 363.746 144.728C363.746 144.152 364.162 143.752 364.746 143.752C365.33 143.752 365.746 144.152 365.746 144.728C365.746 145.304 365.33 145.712 364.746 145.712ZM370.342 142.768C369.806 142.768 369.342 143.008 369.094 143.384V142.864H367.926V147H369.094V144.528L369.102 144.552C369.102 144.104 369.478 143.752 369.966 143.752C370.43 143.752 370.75 144.104 370.75 144.616V147H371.878V144.368C371.878 143.432 371.238 142.768 370.342 142.768ZM374.816 146.064C374.328 146.064 373.968 145.76 373.832 145.312H376.816C376.816 143.752 376.056 142.768 374.76 142.768C373.552 142.768 372.632 143.672 372.632 144.92C372.632 146.192 373.592 147.096 374.824 147.096C375.432 147.096 376.144 146.84 376.512 146.456L375.768 145.696C375.544 145.912 375.144 146.064 374.816 146.064ZM374.808 143.8C375.28 143.8 375.584 144.064 375.696 144.472H373.848C374 144.056 374.368 143.8 374.808 143.8ZM380.694 141.408V143.456C380.366 143.024 379.886 142.768 379.302 142.768C378.198 142.768 377.398 143.664 377.398 144.928C377.398 146.2 378.198 147.096 379.302 147.096C379.886 147.096 380.366 146.84 380.694 146.408V147H381.862V141.408H380.694ZM379.638 146.112C378.99 146.112 378.534 145.624 378.534 144.928C378.534 144.24 378.99 143.752 379.638 143.752C380.254 143.752 380.694 144.24 380.694 144.928C380.694 145.624 380.254 146.112 379.638 146.112Z" fill="#86D4C9"/>
<path d="M358.064 154.368C357.488 154.368 357.008 154.616 356.68 155.04V154.464H355.512V159.976H356.68V158.016C357.008 158.448 357.488 158.696 358.064 158.696C359.168 158.696 359.968 157.8 359.968 156.528C359.968 155.264 359.168 154.368 358.064 154.368ZM357.728 157.712C357.16 157.712 356.744 157.296 356.68 156.688V156.368C356.744 155.768 357.16 155.352 357.728 155.352C358.376 155.352 358.832 155.84 358.832 156.528C358.832 157.224 358.376 157.712 357.728 157.712ZM361.961 155.232V154.464H360.793V158.6H361.961V156.624C361.961 155.848 362.513 155.352 363.377 155.352V154.368C362.745 154.368 362.233 154.696 361.961 155.232ZM364.635 153.896C364.979 153.896 365.259 153.608 365.259 153.256C365.259 152.928 364.979 152.632 364.635 152.632C364.275 152.632 363.995 152.928 363.995 153.256C363.995 153.608 364.275 153.896 364.635 153.896ZM364.043 158.6H365.211V154.464H364.043V158.6ZM368.255 158.696C368.943 158.696 369.503 158.416 369.911 157.968L369.135 157.312C368.919 157.552 368.583 157.712 368.263 157.712C367.647 157.712 367.135 157.168 367.135 156.52C367.135 155.888 367.647 155.352 368.255 155.352C368.575 155.352 368.903 155.504 369.111 155.736L369.887 155.072C369.487 154.64 368.935 154.368 368.263 154.368C367.039 154.368 365.999 155.352 365.999 156.528C365.999 157.704 367.031 158.696 368.255 158.696ZM372.566 157.664C372.078 157.664 371.718 157.36 371.582 156.912H374.566C374.566 155.352 373.806 154.368 372.51 154.368C371.302 154.368 370.382 155.272 370.382 156.52C370.382 157.792 371.342 158.696 372.574 158.696C373.182 158.696 373.894 158.44 374.262 158.056L373.518 157.296C373.294 157.512 372.894 157.664 372.566 157.664ZM372.558 155.4C373.03 155.4 373.334 155.664 373.446 156.072H371.598C371.75 155.656 372.118 155.4 372.558 155.4ZM378.974 154.24C378.974 153.968 379.15 153.776 379.366 153.776C379.526 153.776 379.686 153.832 379.766 153.912L380.046 153.2C379.806 152.984 379.43 152.84 379.094 152.84C378.366 152.84 377.854 153.36 377.854 154.104V154.464H377.286V155.408H377.854V158.6H378.974V155.408H379.87V154.464H378.974V154.24ZM382.573 157.664C382.085 157.664 381.725 157.36 381.589 156.912H384.573C384.573 155.352 383.813 154.368 382.517 154.368C381.309 154.368 380.389 155.272 380.389 156.52C380.389 157.792 381.349 158.696 382.581 158.696C383.189 158.696 383.901 158.44 384.269 158.056L383.525 157.296C383.301 157.512 382.901 157.664 382.573 157.664ZM382.565 155.4C383.037 155.4 383.341 155.664 383.453 156.072H381.605C381.757 155.656 382.125 155.4 382.565 155.4ZM387.316 157.664C386.828 157.664 386.468 157.36 386.332 156.912H389.316C389.316 155.352 388.556 154.368 387.26 154.368C386.052 154.368 385.132 155.272 385.132 156.52C385.132 157.792 386.092 158.696 387.324 158.696C387.932 158.696 388.644 158.44 389.012 158.056L388.268 157.296C388.044 157.512 387.644 157.664 387.316 157.664ZM387.308 155.4C387.78 155.4 388.084 155.664 388.196 156.072H386.348C386.5 155.656 386.868 155.4 387.308 155.4ZM393.194 153.008V155.056C392.866 154.624 392.386 154.368 391.802 154.368C390.698 154.368 389.898 155.264 389.898 156.528C389.898 157.8 390.698 158.696 391.802 158.696C392.386 158.696 392.866 158.44 393.194 158.008V158.6H394.362V153.008H393.194ZM392.138 157.712C391.49 157.712 391.034 157.224 391.034 156.528C391.034 155.84 391.49 155.352 392.138 155.352C392.754 155.352 393.194 155.84 393.194 156.528C393.194 157.224 392.754 157.712 392.138 157.712Z" fill="#86D4C9"/>
<path d="M253.463 167.096C254.919 167.096 255.951 166.072 255.951 164.624V161.504H254.767V164.576C254.767 165.424 254.223 166.024 253.463 166.024C252.695 166.024 252.151 165.424 252.151 164.576V161.504H250.975V164.624C250.975 166.072 251.999 167.096 253.463 167.096ZM259.102 167.096C260.446 167.096 261.238 166.4 261.238 165.352C261.238 164.336 260.454 163.984 259.27 163.72C258.422 163.528 258.094 163.4 258.094 163C258.094 162.672 258.398 162.408 258.902 162.408C259.43 162.408 259.982 162.624 260.47 163.016L261.086 162.168C260.526 161.688 259.83 161.408 258.934 161.408C257.734 161.408 256.902 162.104 256.902 163.12C256.902 164.184 257.726 164.512 258.886 164.776C259.726 164.968 260.046 165.088 260.046 165.48C260.046 165.824 259.742 166.096 259.15 166.096C258.454 166.096 257.862 165.824 257.342 165.376L256.662 166.184C257.302 166.776 258.15 167.096 259.102 167.096ZM262.133 167H264.101C265.949 167 267.261 165.856 267.261 164.248C267.261 162.64 265.949 161.504 264.101 161.504H262.133V167ZM263.309 165.928V162.576H264.253C265.301 162.576 266.045 163.272 266.045 164.248C266.045 165.232 265.301 165.928 264.253 165.928H263.309ZM268.218 167H269.394V163.576L271.098 166.68L272.794 163.576V167H273.978V161.504H272.794L271.098 164.608L269.394 161.504H268.218V167Z" fill="#86D4C9"/>
<path d="M255.631 176.107L254.279 174.187C255.031 173.923 255.527 173.283 255.527 172.467C255.527 171.379 254.647 170.611 253.455 170.611H250.983V176.107H252.159V174.323H253.031L254.287 176.107H255.631ZM252.159 171.691H253.327C253.911 171.691 254.311 171.995 254.311 172.467C254.311 172.939 253.911 173.243 253.327 173.243H252.159V171.691ZM258.325 175.171C257.837 175.171 257.477 174.867 257.341 174.419H260.325C260.325 172.859 259.565 171.875 258.269 171.875C257.061 171.875 256.141 172.779 256.141 174.027C256.141 175.299 257.101 176.203 258.333 176.203C258.941 176.203 259.653 175.947 260.021 175.563L259.277 174.803C259.053 175.019 258.653 175.171 258.325 175.171ZM258.317 172.907C258.789 172.907 259.093 173.171 259.205 173.579H257.357C257.509 173.163 257.877 172.907 258.317 172.907ZM261.96 176.107H263.008L263.784 173.507L264.552 176.107H265.6L267.008 171.971H265.864L265.08 174.547L264.264 171.971H263.296L262.48 174.547L261.696 171.971H260.552L261.96 176.107ZM269.494 171.875C268.918 171.875 268.35 172.035 267.766 172.331L268.158 173.107C268.486 172.939 268.846 172.811 269.23 172.811C269.91 172.811 270.182 173.195 270.182 173.635V173.715C269.83 173.579 269.462 173.507 269.126 173.507C268.166 173.507 267.406 174.067 267.406 174.883C267.406 175.675 268.086 176.203 268.966 176.203C269.414 176.203 269.886 176.027 270.182 175.691V176.107H271.31V173.635C271.31 172.555 270.574 171.875 269.494 171.875ZM269.23 175.395C268.83 175.395 268.534 175.187 268.534 174.851C268.534 174.515 268.87 174.267 269.294 174.267C269.614 174.267 269.918 174.323 270.182 174.419V174.803C270.102 175.187 269.678 175.395 269.23 175.395ZM273.463 172.739V171.971H272.295V176.107H273.463V174.131C273.463 173.355 274.015 172.859 274.879 172.859V171.875C274.247 171.875 273.735 172.203 273.463 172.739ZM278.641 170.515V172.563C278.313 172.131 277.833 171.875 277.249 171.875C276.145 171.875 275.345 172.771 275.345 174.035C275.345 175.307 276.145 176.203 277.249 176.203C277.833 176.203 278.313 175.947 278.641 175.515V176.107H279.809V170.515H278.641ZM277.585 175.219C276.937 175.219 276.481 174.731 276.481 174.035C276.481 173.347 276.937 172.859 277.585 172.859C278.201 172.859 278.641 173.347 278.641 174.035C278.641 174.731 278.201 175.219 277.585 175.219ZM282.386 176.203C283.402 176.203 284.066 175.683 284.066 174.867C284.066 173.963 283.274 173.723 282.562 173.539C282.002 173.387 281.834 173.323 281.834 173.099C281.834 172.955 282.034 172.851 282.322 172.851C282.674 172.851 283.106 172.987 283.482 173.219L283.954 172.387C283.498 172.083 282.914 171.875 282.322 171.875C281.346 171.875 280.698 172.435 280.706 173.219C280.714 174.035 281.37 174.267 282.218 174.475C282.642 174.587 282.946 174.667 282.946 174.923C282.946 175.107 282.722 175.235 282.41 175.235C281.858 175.235 281.394 175.035 281.026 174.771L280.522 175.579C281.018 175.979 281.722 176.203 282.386 176.203Z" fill="#86D4C9"/>
<path d="M214.435 182.45L212.859 186.322L211.283 182.45H209.955L212.195 187.946H213.515L215.755 182.45H214.435ZM217.84 188.042C219.064 188.042 220.088 187.05 220.088 185.874C220.088 184.698 219.064 183.714 217.84 183.714C216.608 183.714 215.576 184.698 215.576 185.874C215.576 187.05 216.608 188.042 217.84 188.042ZM217.84 187.058C217.216 187.058 216.696 186.514 216.696 185.874C216.696 185.234 217.216 184.698 217.84 184.698C218.456 184.698 218.976 185.234 218.976 185.874C218.976 186.514 218.456 187.058 217.84 187.058ZM223.055 186.922C222.975 187.002 222.815 187.058 222.655 187.058C222.439 187.058 222.263 186.866 222.263 186.594V184.754H223.159V183.81H222.263V182.674H221.143V183.81H220.575V184.754H221.143V186.778C221.143 187.522 221.655 188.042 222.383 188.042C222.719 188.042 223.095 187.898 223.335 187.682L223.055 186.922ZM226.018 187.01C225.53 187.01 225.17 186.706 225.034 186.258H228.018C228.018 184.698 227.258 183.714 225.962 183.714C224.754 183.714 223.834 184.618 223.834 185.866C223.834 187.138 224.794 188.042 226.026 188.042C226.634 188.042 227.346 187.786 227.714 187.402L226.97 186.642C226.746 186.858 226.346 187.01 226.018 187.01ZM226.01 184.746C226.482 184.746 226.786 185.01 226.898 185.418H225.05C225.202 185.002 225.57 184.746 226.01 184.746ZM230.36 188.042C231.376 188.042 232.04 187.522 232.04 186.706C232.04 185.802 231.248 185.562 230.536 185.378C229.976 185.226 229.808 185.162 229.808 184.938C229.808 184.794 230.008 184.69 230.296 184.69C230.648 184.69 231.08 184.826 231.456 185.058L231.928 184.226C231.472 183.922 230.888 183.714 230.296 183.714C229.32 183.714 228.672 184.274 228.68 185.058C228.688 185.874 229.344 186.106 230.192 186.314C230.616 186.426 230.92 186.506 230.92 186.762C230.92 186.946 230.696 187.074 230.384 187.074C229.832 187.074 229.368 186.874 229 186.61L228.496 187.418C228.992 187.818 229.696 188.042 230.36 188.042Z" fill="#86D4C9"/>
<path d="M447.89 154.339C451.784 154.339 454.94 151.18 454.94 147.283C454.94 143.386 451.784 140.226 447.89 140.226C443.996 140.226 440.84 143.386 440.84 147.283C440.84 151.18 443.996 154.339 447.89 154.339Z" fill="#503EAA"/>
<path d="M406.272 148.313C414.775 156.824 434.246 153.877 448.071 140.083C461.896 126.246 464.841 106.751 456.338 98.245C452.414 94.318 438.077 102.36 424.252 116.198C410.427 130.035 402.353 144.385 406.272 148.313Z" fill="#C0DBFF"/>
<path d="M438.515 130.624C452.406 117.037 460.452 102.73 456.486 98.6669C452.519 94.6049 438.043 102.326 424.152 115.913C410.261 129.5 402.215 143.808 406.181 147.87C410.147 151.932 424.624 144.211 438.515 130.624Z" fill="#77A4F2"/>
<path d="M447.609 138.59C455.033 130.173 454.846 119.47 453.542 113.251L459.194 101.892C459.194 101.842 466.431 122.224 447.609 138.59Z" fill="white"/>
<path d="M446.723 139.428C438.313 146.859 427.62 146.672 421.406 145.366L410.058 151.023C410.058 151.073 430.421 158.273 446.723 139.428Z" fill="#77A4F2"/>
<path d="M439.834 131.669C448.773 122.727 453.433 112.887 450.242 109.692C447.051 106.496 437.218 111.155 428.279 120.097C419.34 129.039 414.68 138.879 417.871 142.074C421.061 145.27 430.895 140.611 439.834 131.669Z" fill="#503EAA"/>
<path d="M419.584 154.764C413.608 154.764 408.517 152.94 405.06 149.481C404.081 148.5 403.613 147.145 403.563 145.46C403.563 138.915 411.362 126.664 422.991 115.024C429.766 108.243 436.91 102.591 443.123 99.132C449.992 95.298 454.939 94.598 457.416 97.077C461.945 101.611 463.63 109.048 462.089 117.459C460.548 126.014 455.925 134.431 449.15 141.256C442.331 148.038 433.921 152.665 425.374 154.207C423.415 154.576 421.456 154.764 419.584 154.764ZM453.398 98.9011C451.714 98.9011 448.869 99.694 444.758 101.986C438.825 105.307 431.962 110.772 425.374 117.322C419.909 122.792 415.192 128.493 411.83 133.776C408.698 138.64 406.926 142.893 406.926 145.415C406.926 146.209 407.113 146.771 407.438 147.101C411.175 150.841 417.526 152.246 424.857 150.886C432.749 149.437 440.548 145.184 446.855 138.871C453.162 132.558 457.455 124.709 458.907 116.853C460.261 109.516 458.863 103.153 455.127 99.418C454.802 99.088 454.24 98.9011 453.398 98.9011Z" fill="#503EAA"/>
<path d="M434.907 134.057L415.661 110.772L418.743 107.687L442.1 126.857L434.907 134.057Z" fill="#C0DBFF"/>
<path d="M434.907 134.057L415.661 110.772L417.202 109.229L438.456 130.504L434.907 134.057Z" fill="#77A4F2"/>
<path d="M409.403 151.073C407.581 151.073 406.134 150.561 405.061 149.481C404.406 148.825 404.406 147.795 405.061 147.145C405.715 146.495 406.745 146.49 407.394 147.145C407.768 147.564 408.467 147.751 409.353 147.751C412.061 147.751 416.222 146.022 421.17 142.937C426.398 139.615 432.05 134.988 437.471 129.567C444.059 122.973 449.474 116.055 452.7 110.072C454.802 106.194 456.668 101.099 455.083 99.4631C454.428 98.8071 454.428 97.7771 455.083 97.1271C455.738 96.4771 456.767 96.4721 457.416 97.1271C459.986 99.7001 459.375 104.745 455.594 111.714C452.182 117.977 446.58 125.177 439.81 132.002C428.412 143.355 416.178 151.073 409.403 151.073Z" fill="#503EAA"/>
<path d="M434.907 135.693C434.863 135.693 434.863 135.693 434.813 135.693C434.345 135.693 433.927 135.462 433.597 135.087L414.356 111.852C413.795 111.196 413.844 110.216 414.45 109.61L417.532 106.525C418.137 105.919 419.122 105.869 419.772 106.431L443.123 125.552C443.498 125.832 443.729 126.301 443.729 126.769C443.773 127.237 443.591 127.705 443.261 128.03L436.068 135.23C435.793 135.55 435.374 135.693 434.907 135.693ZM417.906 110.866L435 131.528L439.579 126.945L418.798 109.929L417.906 110.866Z" fill="#503EAA"/>
<path d="M414.263 112.221C417.512 112.221 420.146 109.584 420.146 106.332C420.146 103.08 417.512 100.443 414.263 100.443C411.013 100.443 408.379 103.08 408.379 106.332C408.379 109.584 411.013 112.221 414.263 112.221Z" fill="#503EAA"/>
<path d="M463.767 181.034H432.006L439.667 155.37C440.74 151.723 444.103 149.244 447.84 149.244C451.621 149.244 454.939 151.723 456.012 155.37L463.767 181.034Z" fill="#C0DBFF"/>
<path d="M453.305 152.522C453.305 152.522 447.933 151.398 446.436 155.7C444.939 160.002 440.691 176.082 440.691 176.082H433.217L439.661 155.326C439.661 155.326 441.158 150.181 444.659 149.624C448.17 149.062 451.252 148.594 453.305 152.522Z" fill="#77A4F2"/>
<path d="M466.013 182.67H429.766L438.082 154.857C439.392 150.511 443.31 147.564 447.889 147.564C452.468 147.564 456.392 150.511 457.697 154.857L466.013 182.67ZM434.251 179.354H461.527L454.477 155.838C453.591 152.891 450.927 150.93 447.889 150.93C444.807 150.93 442.193 152.891 441.302 155.838L434.251 179.354Z" fill="#503EAA"/>
<path d="M471.566 176.875H423.833V182.814H471.566V176.875Z" fill="#C0DBFF"/>
<path d="M437.565 176.082H423.228V183.513H437.565V176.082Z" fill="#77A4F2"/>
<path d="M472.551 176.082H464.048V183.513H472.551V176.082Z" fill="white"/>
<path d="M471.571 176.875V182.814H423.839V176.875H471.571ZM471.571 173.559H423.839C422.017 173.559 420.52 175.057 420.52 176.881V182.819C420.52 184.642 422.017 186.141 423.839 186.141H471.571C473.393 186.141 474.89 184.642 474.89 182.819V176.881C474.885 175.008 473.393 173.559 471.571 173.559Z" fill="#503EAA"/>
<path d="M450.553 170.568C451.818 170.568 452.843 169.542 452.843 168.276C452.843 167.011 451.818 165.985 450.553 165.985C449.289 165.985 448.264 167.011 448.264 168.276C448.264 169.542 449.289 170.568 450.553 170.568Z" fill="#8D86EB"/>
<path d="M450.553 163.6C451.818 163.6 452.843 162.574 452.843 161.308C452.843 160.042 451.818 159.016 450.553 159.016C449.289 159.016 448.264 160.042 448.264 161.308C448.264 162.574 449.289 163.6 450.553 163.6Z" fill="#FF8486"/>
</svg>
