<svg width="1129" height="929" viewBox="0 0 1129 929" fill="none" xmlns="http://www.w3.org/2000/svg">
        <path d="M652.697 595.519C652.697 606.335 644.001 615.039 633.195 615.039H464.692C453.886 615.039 445.19 606.335 445.19 595.519C445.19 584.704 453.886 576 464.692 576H633.195C644.001 576 652.697 584.716 652.697 595.519Z" fill="#6B5EC6"/>
        <path d="M626.797 615.411H471.196V886.761H626.797V615.411Z" fill="#6B5EC6"/>
        <path d="M517.894 615.411H471.196V886.761H517.894V615.411Z" fill="#5E4FB9"/>
        <path d="M626.797 615.411H580.099V886.761H626.797V615.411Z" fill="#8077DE"/>
        <path d="M633.195 576.372H598.292V615.505H633.195C644.001 615.505 652.697 606.801 652.697 595.985C652.697 585.088 644.001 576.372 633.195 576.372Z" fill="#8077DE"/>
        <path d="M499.606 576.372H464.704C453.898 576.372 445.202 585.076 445.202 595.891C445.202 606.706 453.898 615.411 464.704 615.411H499.606V576.372Z" fill="#5E4FB9"/>
        <path d="M626.797 615.411H471.196V886.761H626.797V615.411Z" stroke="#503EAA" stroke-width="5.9405" stroke-miterlimit="8.4865" stroke-linejoin="round"/>
        <path d="M572.298 886.855H556.697V640.037C556.697 635.732 560.197 632.229 564.498 632.229C568.799 632.229 572.298 635.732 572.298 640.037V886.855Z" fill="#503EAA"/>
        <path d="M603.407 886.855H587.805V640.037C587.805 635.732 591.305 632.229 595.606 632.229C599.907 632.229 603.407 635.732 603.407 640.037V886.855Z" fill="#503EAA"/>
        <path d="M541.202 886.855H525.601V640.037C525.601 635.732 529.1 632.229 533.401 632.229C537.702 632.229 541.202 635.732 541.202 640.037V886.855Z" fill="#503EAA"/>
        <path d="M510.105 886.855H494.504V640.037C494.504 635.732 498.004 632.229 502.305 632.229C506.605 632.229 510.105 635.732 510.105 640.037V886.855Z" fill="#503EAA"/>
        <path d="M652.507 595.519C652.507 606.335 643.811 615.039 633.005 615.039H464.502C453.696 615.039 445 606.335 445 595.519C445 584.704 453.696 576 464.502 576H633.005C643.811 576 652.507 584.716 652.507 595.519Z" stroke="#503EAA" stroke-width="5.9405" stroke-miterlimit="8.4865" stroke-linejoin="round"/>
        <path d="M467.816 596.225H471.816V598.85C470.841 599.55 469.641 599.95 468.466 599.95C465.541 599.95 463.066 597.4 463.066 594.4C463.066 591.425 465.541 588.875 468.466 588.875C470.041 588.875 471.716 589.625 472.741 590.8L475.416 588.4C473.691 586.6 471.041 585.525 468.466 585.525C463.491 585.525 459.266 589.575 459.266 594.4C459.266 599.225 463.491 603.3 468.466 603.3C471.041 603.3 473.691 602.225 475.416 600.425V593.35H467.816V596.225ZM486.97 603.3C491.945 603.3 496.095 599.225 496.095 594.4C496.095 589.575 491.945 585.525 486.97 585.525C482.045 585.525 477.845 589.575 477.845 594.4C477.845 599.225 482.045 603.3 486.97 603.3ZM486.97 599.95C484.095 599.95 481.645 597.4 481.645 594.4C481.645 591.425 484.095 588.875 486.97 588.875C489.87 588.875 492.32 591.425 492.32 594.4C492.32 597.4 489.87 599.95 486.97 599.95ZM511.433 585.825L506.508 597.925L501.583 585.825H497.433L504.433 603H508.558L515.558 585.825H511.433ZM530.807 589.15V585.825H517.582V603H530.807V599.675H521.282V595.9H529.907V592.575H521.282V589.15H530.807ZM548.123 603L543.898 597C546.248 596.175 547.798 594.175 547.798 591.625C547.798 588.225 545.048 585.825 541.323 585.825H533.598V603H537.273V597.425H539.998L543.923 603H548.123ZM537.273 589.2H540.923C542.748 589.2 543.998 590.15 543.998 591.625C543.998 593.1 542.748 594.05 540.923 594.05H537.273V589.2ZM550.691 603H554.366V591.9L562.641 603H566.341V585.825H562.641V596.925L554.366 585.825H550.691V603ZM582.502 603H586.652L579.652 585.825H575.527L568.527 603H572.652L573.752 600.3H581.402L582.502 603ZM575.027 597.175L577.577 590.9L580.127 597.175H575.027ZM588.826 603H592.501V591.9L600.776 603H604.476V585.825H600.776V596.925L592.501 585.825H588.826V603ZM616.486 603.3C619.086 603.3 621.486 602.175 623.161 600.425L620.486 598.025C619.486 599.175 618.061 599.95 616.486 599.95C613.611 599.95 611.161 597.4 611.161 594.4C611.161 591.425 613.611 588.875 616.486 588.875C618.061 588.875 619.486 589.65 620.486 590.8L623.161 588.4C621.486 586.625 619.086 585.525 616.486 585.525C611.561 585.525 607.361 589.575 607.361 594.4C607.361 599.225 611.561 603.3 616.486 603.3ZM638.669 589.15V585.825H625.444V603H638.669V599.675H629.144V595.9H637.769V592.575H629.144V589.15H638.669Z" fill="#86D4C9"/>
        <path d="M652.803 886.855H445.202V925.988H652.803V886.855Z" fill="#6B5EC6"/>
        <path d="M652.709 886.855H598.304V925.988H652.709V886.855Z" fill="#8077DE"/>
        <path d="M499.606 886.855H445.202V925.988H499.606V886.855Z" fill="#5A4AB5"/>
        <path d="M652.697 886.855V925.894H445.202V886.855H652.697Z" stroke="#503EAA" stroke-width="5.9405" stroke-miterlimit="8.4865" stroke-linejoin="round"/>
        <path d="M1125.6 396.309C1125.6 407.124 1116.91 415.828 1106.1 415.828H937.598C926.792 415.828 918.096 407.124 918.096 396.309C918.096 385.493 926.792 376.789 937.598 376.789H1106.1C1116.8 376.789 1125.6 385.505 1125.6 396.309Z" fill="#6B5EC6"/>
        <path d="M1099.6 415.934H943.996V886.867H1099.6V415.934Z" fill="#6B5EC6"/>
        <path d="M990.694 415.934H943.996V886.867H990.694V415.934Z" fill="#5E4FB9"/>
        <path d="M1099.6 415.934H1052.9V886.867H1099.6V415.934Z" fill="#8077DE"/>
        <path d="M1106.1 376.789H1071.2V415.923H1106.1C1116.91 415.923 1125.6 407.218 1125.6 396.403C1125.6 385.505 1116.8 376.789 1106.1 376.789Z" fill="#8077DE"/>
        <path d="M972.5 376.789H937.598C926.792 376.789 918.096 385.493 918.096 396.309C918.096 407.124 926.792 415.828 937.598 415.828H972.5V376.789Z" fill="#5E4FB9"/>
        <path d="M1099.6 415.934H943.996V886.867H1099.6V415.934Z" stroke="#503EAA" stroke-width="5.9405" stroke-miterlimit="8.4865" stroke-linejoin="round"/>
        <path d="M1045.1 886.855H1029.5V440.443C1029.5 436.138 1033 432.635 1037.3 432.635C1041.6 432.635 1045.1 436.138 1045.1 440.443V886.855Z" fill="#503EAA"/>
        <path d="M1076.3 886.855H1060.7V440.443C1060.7 436.138 1064.2 432.635 1068.5 432.635C1072.8 432.635 1076.3 436.138 1076.3 440.443V886.855Z" fill="#503EAA"/>
        <path d="M1014 886.855H998.4V440.443C998.4 436.138 1001.9 432.635 1006.2 432.635C1010.5 432.635 1014 436.138 1014 440.443V886.855Z" fill="#503EAA"/>
        <path d="M982.905 886.855H967.303V440.443C967.303 436.138 970.803 432.635 975.104 432.635C979.405 432.635 982.905 436.138 982.905 440.443V886.855Z" fill="#503EAA"/>
        <path d="M1125.51 396.519C1125.51 407.335 1116.81 416.039 1106 416.039H937.502C926.696 416.039 918 407.335 918 396.519C918 385.704 926.696 377 937.502 377H1106C1116.7 377 1125.51 385.716 1125.51 396.519Z" stroke="#503EAA" stroke-width="5.9405" stroke-miterlimit="8.4865" stroke-linejoin="round"/>
        <path d="M1125.6 886.855H918.001V925.988H1125.6V886.855Z" fill="#6B5EC6"/>
        <path d="M1125.51 886.855H1071.1V925.988H1125.51V886.855Z" fill="#8077DE"/>
        <path d="M972.406 886.855H918.001V925.988H972.406V886.855Z" fill="#5A4AB5"/>
        <path d="M1125.6 886.855V926H918.001V886.855H1125.6Z" stroke="#503EAA" stroke-width="5.9405" stroke-miterlimit="8.4865" stroke-linejoin="round"/>
        <path d="M980.185 404.3C985.16 404.3 989.31 400.225 989.31 395.4C989.31 390.575 985.16 386.525 980.185 386.525C975.26 386.525 971.06 390.575 971.06 395.4C971.06 400.225 975.26 404.3 980.185 404.3ZM980.185 400.95C977.31 400.95 974.86 398.4 974.86 395.4C974.86 392.425 977.31 389.875 980.185 389.875C983.085 389.875 985.535 392.425 985.535 395.4C985.535 398.4 983.085 400.95 980.185 400.95ZM1006.55 404L1002.32 398C1004.67 397.175 1006.22 395.175 1006.22 392.625C1006.22 389.225 1003.47 386.825 999.748 386.825H992.023V404H995.698V398.425H998.423L1002.35 404H1006.55ZM995.698 390.2H999.348C1001.17 390.2 1002.42 391.15 1002.42 392.625C1002.42 394.1 1001.17 395.05 999.348 395.05H995.698V390.2ZM1021.57 404H1025.72L1018.72 386.825H1014.59L1007.59 404H1011.72L1012.82 401.3H1020.47L1021.57 404ZM1014.09 398.175L1016.64 391.9L1019.19 398.175H1014.09ZM1036.19 404.3C1038.79 404.3 1041.19 403.175 1042.87 401.425L1040.19 399.025C1039.19 400.175 1037.77 400.95 1036.19 400.95C1033.32 400.95 1030.87 398.4 1030.87 395.4C1030.87 392.425 1033.32 389.875 1036.19 389.875C1037.77 389.875 1039.19 390.65 1040.19 391.8L1042.87 389.4C1041.19 387.625 1038.79 386.525 1036.19 386.525C1031.27 386.525 1027.07 390.575 1027.07 395.4C1027.07 400.225 1031.27 404.3 1036.19 404.3ZM1048.72 400.675V386.825H1045.02V404H1057.27V400.675H1048.72ZM1072.87 390.15V386.825H1059.65V404H1072.87V400.675H1063.35V396.9H1071.97V393.575H1063.35V390.15H1072.87Z" fill="#86D4C9"/>
        <path d="M211.1 354.368C211.1 365.184 202.404 373.888 191.598 373.888H23.0949C12.2894 373.888 3.59326 365.184 3.59326 354.368C3.59326 343.553 12.2894 334.849 23.0949 334.849H191.598C202.404 334.861 211.1 343.565 211.1 354.368Z" fill="#6B5EC6"/>
        <path d="M185.105 373.888H29.5049V887.303H185.105V373.888Z" fill="#6B5EC6"/>
        <path d="M76.2027 373.888H29.5049V887.303H76.2027V373.888Z" fill="#5E4FB9"/>
        <path d="M185.094 373.888H138.396V887.303H185.094V373.888Z" fill="#8077DE"/>
        <path d="M191.598 334.755H156.696V373.888H191.598C202.404 373.888 211.1 365.184 211.1 354.368C211.1 343.565 202.298 334.755 191.598 334.755Z" fill="#8077DE"/>
        <path d="M57.9975 334.755H23.0949C12.2894 334.755 3.59326 343.459 3.59326 354.274C3.59326 365.089 12.2894 373.794 23.0949 373.794H57.9975V334.755Z" fill="#5E4FB9"/>
        <path d="M185.105 373.888H29.5049V887.303H185.105V373.888Z" stroke="#503EAA" stroke-width="5.9405" stroke-miterlimit="8.4865" stroke-linejoin="round"/>
        <path d="M130.701 887.409H115.1V398.408C115.1 394.103 118.6 390.6 122.901 390.6C127.202 390.6 130.701 394.103 130.701 398.408V887.409Z" fill="#503EAA"/>
        <path d="M161.798 887.409H146.196V398.408C146.196 394.103 149.696 390.6 153.997 390.6C158.298 390.6 161.798 394.103 161.798 398.408V887.409Z" fill="#503EAA"/>
        <path d="M99.4987 887.409H84.0034V398.408C84.0034 394.103 87.5031 390.6 91.8041 390.6C96.1051 390.6 99.6047 394.103 99.6047 398.408V887.409H99.4987Z" fill="#503EAA"/>
        <path d="M68.4021 887.409H52.8008V398.408C52.8008 394.103 56.3005 390.6 60.6014 390.6C64.9024 390.6 68.4021 394.103 68.4021 398.408V887.409Z" fill="#503EAA"/>
        <path d="M211.507 354.519C211.507 365.335 202.811 374.039 192.005 374.039H23.5016C12.6962 374.039 4 365.335 4 354.519C4 343.704 12.6962 335 23.5016 335H192.005C202.705 335.012 211.507 343.716 211.507 354.519Z" stroke="#503EAA" stroke-width="5.9405" stroke-miterlimit="8.4865" stroke-linejoin="round"/>
        <path d="M211.1 887.409H3.49902V926.542H211.1V887.409Z" fill="#6B5EC6"/>
        <path d="M211.006 887.409H156.602V926.542H211.006V887.409Z" fill="#8077DE"/>
        <path d="M57.9032 887.409H3.49902V926.542H57.9032V887.409Z" fill="#5A4AB5"/>
        <path d="M211.1 887.409V926.448H3.49902V887.409H211.1Z" stroke="#503EAA" stroke-width="5.9405" stroke-miterlimit="8.4865" stroke-linejoin="round"/>
        <path d="M83.1243 362.3C87.6743 362.3 90.8993 359.1 90.8993 354.575V344.825H87.1993V354.425C87.1993 357.075 85.4993 358.95 83.1243 358.95C80.7243 358.95 79.0243 357.075 79.0243 354.425V344.825H75.3493V354.575C75.3493 359.1 78.5493 362.3 83.1243 362.3ZM100.746 362.3C104.946 362.3 107.421 360.125 107.421 356.85C107.421 353.675 104.971 352.575 101.271 351.75C98.6214 351.15 97.5964 350.75 97.5964 349.5C97.5964 348.475 98.5464 347.65 100.121 347.65C101.771 347.65 103.496 348.325 105.021 349.55L106.946 346.9C105.196 345.4 103.021 344.525 100.221 344.525C96.4714 344.525 93.8714 346.7 93.8714 349.875C93.8714 353.2 96.4464 354.225 100.071 355.05C102.696 355.65 103.696 356.025 103.696 357.25C103.696 358.325 102.746 359.175 100.896 359.175C98.7214 359.175 96.8714 358.325 95.2464 356.925L93.1214 359.45C95.1214 361.3 97.7714 362.3 100.746 362.3ZM123.292 348.15V344.825H110.067V362H123.292V358.675H113.767V354.9H122.392V351.575H113.767V348.15H123.292ZM140.607 362L136.382 356C138.732 355.175 140.282 353.175 140.282 350.625C140.282 347.225 137.532 344.825 133.807 344.825H126.082V362H129.757V356.425H132.482L136.407 362H140.607ZM129.757 348.2H133.407C135.232 348.2 136.482 349.15 136.482 350.625C136.482 352.1 135.232 353.05 133.407 353.05H129.757V348.2Z" fill="#86D4C9"/>
        <path d="M240.205 215.309C238.508 215.309 237.106 213.905 237.106 212.101C237.106 211.299 237.401 210.497 238.002 209.895C251.399 196.485 251.399 174.76 238.002 161.35C236.8 160.147 236.706 158.142 237.907 156.951C239.109 155.748 241.113 155.653 242.303 156.856L242.397 156.951C258.198 172.767 258.198 198.49 242.397 214.401C241.796 215.002 241.101 215.309 240.205 215.309Z" fill="#503EAA"/>
        <path d="M230.696 205.791C229.894 205.791 229.093 205.496 228.492 204.894C227.29 203.691 227.29 201.686 228.492 200.495C236.587 192.393 236.587 179.171 228.492 170.962C227.29 169.665 227.491 167.66 228.693 166.563C229.894 165.466 231.697 165.466 232.887 166.563C243.493 177.178 243.493 194.386 232.887 204.894C232.298 205.496 231.497 205.791 230.696 205.791Z" fill="#503EAA"/>
        <path d="M221.198 196.285C219.501 196.285 218.099 194.881 218.099 193.183C218.099 192.381 218.394 191.579 218.995 190.977C221.893 188.076 221.893 183.37 218.995 180.469C217.793 179.266 217.793 177.26 218.995 176.069C220.197 174.866 222.2 174.866 223.39 176.069C228.693 181.471 228.693 190.081 223.39 195.483C222.801 195.99 222 196.285 221.198 196.285Z" fill="#503EAA"/>
        <path d="M298.898 228C300.595 228 301.998 229.404 301.998 231.208C301.998 232.01 301.703 232.812 301.102 233.414C287.704 246.824 287.704 268.549 301.102 281.959C302.304 283.162 302.398 285.167 301.196 286.358C299.994 287.561 297.991 287.655 296.801 286.452L296.707 286.358C280.905 270.542 280.905 244.819 296.707 228.908C297.296 228.295 298.097 228 298.898 228Z" fill="#503EAA"/>
        <path d="M308.396 237.506C309.197 237.506 309.999 237.801 310.6 238.403C311.802 239.606 311.802 241.611 310.6 242.802C302.504 250.904 302.504 264.126 310.6 272.335C311.802 273.632 311.601 275.637 310.399 276.734C309.197 277.831 307.395 277.831 306.204 276.734C295.599 266.119 295.599 248.911 306.204 238.403C306.805 237.813 307.607 237.506 308.396 237.506Z" fill="#503EAA"/>
        <path d="M317.905 247.012C319.602 247.012 321.004 248.416 321.004 250.114C321.004 250.916 320.71 251.718 320.109 252.32C317.21 255.221 317.21 259.927 320.109 262.828C321.31 264.031 321.31 266.036 320.109 267.228C318.907 268.431 316.903 268.431 315.713 267.228C310.411 261.826 310.411 253.216 315.713 247.814C316.302 247.319 317.104 247.012 317.905 247.012Z" fill="#503EAA"/>
        <path d="M852.112 272.304C850.415 272.304 849.013 270.901 849.013 269.096C849.013 268.294 849.307 267.492 849.908 266.891C863.306 253.481 863.306 231.756 849.908 218.346C848.706 217.143 848.612 215.138 849.814 213.947C851.016 212.755 853.019 212.649 854.209 213.852L854.303 213.947C870.105 229.763 870.105 255.486 854.303 271.396C853.809 271.998 853.007 272.304 852.112 272.304Z" fill="#503EAA"/>
        <path d="M842.602 262.798C841.801 262.798 841 262.504 840.399 261.902C839.197 260.699 839.197 258.694 840.399 257.503C848.494 249.4 848.494 236.179 840.399 227.97C839.197 226.673 839.397 224.668 840.599 223.571C841.801 222.474 843.604 222.474 844.794 223.571C855.399 234.186 855.399 251.393 844.794 261.902C844.311 262.492 843.51 262.798 842.602 262.798Z" fill="#503EAA"/>
        <path d="M833.105 253.28C831.408 253.28 830.006 251.877 830.006 250.178C830.006 249.376 830.3 248.574 830.901 247.973C833.8 245.072 833.8 240.366 830.901 237.464C829.7 236.261 829.7 234.256 830.901 233.065C832.103 231.862 834.107 231.862 835.297 233.065C840.599 238.467 840.599 247.077 835.297 252.478C834.802 252.985 834.012 253.28 833.105 253.28Z" fill="#503EAA"/>
        <path d="M792.107 280C793.804 280 795.206 281.404 795.206 283.208C795.206 284.01 794.911 284.812 794.311 285.414C780.913 298.824 780.913 320.549 794.311 333.959C795.512 335.162 795.607 337.167 794.405 338.358C793.203 339.561 791.2 339.655 790.009 338.452L789.915 338.358C774.114 322.542 774.114 296.819 789.915 280.908C790.504 280.401 791.306 280 792.107 280Z" fill="#503EAA"/>
        <path d="M801.605 289.612C802.406 289.612 803.207 289.907 803.808 290.509C805.01 291.712 805.01 293.717 803.808 294.908C795.713 303.011 795.713 316.232 803.808 324.441C805.01 325.738 804.81 327.743 803.608 328.84C802.406 329.937 800.603 329.937 799.413 328.84C788.808 318.225 788.808 301.017 799.413 290.509C800.002 289.907 800.803 289.612 801.605 289.612Z" fill="#503EAA"/>
        <path d="M811.102 299.118C812.799 299.118 814.201 300.522 814.201 302.22C814.201 303.022 813.906 303.824 813.305 304.426C810.407 307.327 810.407 312.033 813.305 314.935C814.507 316.138 814.507 318.143 813.305 319.334C812.103 320.537 810.1 320.537 808.91 319.334C803.607 313.932 803.607 305.322 808.91 299.92C809.499 299.413 810.301 299.118 811.102 299.118Z" fill="#503EAA"/>
        <path d="M540.255 327.147C540.255 328.846 538.852 330.249 537.049 330.249C536.248 330.249 535.447 329.954 534.846 329.353C521.448 315.943 499.743 315.943 486.345 329.353C485.143 330.556 483.14 330.65 481.95 329.447C480.748 328.244 480.654 326.239 481.856 325.048L481.95 324.954C497.752 309.138 523.451 309.138 539.347 324.954C539.96 325.543 540.255 326.345 540.255 327.147Z" fill="#503EAA"/>
        <path d="M530.757 336.76C530.757 337.562 530.462 338.364 529.862 338.965C528.66 340.168 526.656 340.168 525.466 338.965C517.371 330.863 504.162 330.863 495.961 338.965C494.664 340.168 492.661 339.968 491.565 338.765C490.469 337.562 490.469 335.757 491.565 334.566C502.17 323.951 519.362 323.951 529.862 334.566C530.451 335.061 530.757 335.851 530.757 336.76Z" fill="#503EAA"/>
        <path d="M521.26 346.266C521.26 347.964 519.857 349.368 518.161 349.368C517.359 349.368 516.558 349.073 515.957 348.471C513.058 345.57 508.357 345.57 505.458 348.471C504.256 349.674 502.253 349.674 501.063 348.471C499.873 347.268 499.861 345.263 501.063 344.072C506.46 338.765 515.062 338.765 520.458 344.072C520.953 344.567 521.26 345.37 521.26 346.266Z" fill="#503EAA"/>
        <path d="M568 387.003C568 385.305 569.402 383.901 571.205 383.901C572.006 383.901 572.808 384.196 573.409 384.798C586.806 398.208 608.512 398.208 621.909 384.798C623.111 383.595 625.114 383.5 626.304 384.703C627.506 385.906 627.601 387.911 626.399 389.103L626.304 389.197C610.503 405.013 584.803 405.013 568.907 389.197C568.306 388.701 568 387.9 568 387.003Z" fill="#503EAA"/>
        <path d="M577.509 377.497C577.509 376.695 577.804 375.893 578.405 375.291C579.607 374.088 581.61 374.088 582.8 375.291C590.895 383.394 604.104 383.394 612.306 375.291C613.602 374.088 615.605 374.289 616.701 375.492C617.797 376.695 617.797 378.499 616.701 379.691C606.096 390.306 588.904 390.306 578.405 379.691C577.898 379.101 577.509 378.393 577.509 377.497Z" fill="#503EAA"/>
        <path d="M587.007 367.991C587.007 366.292 588.409 364.889 590.106 364.889C590.907 364.889 591.708 365.184 592.309 365.785C595.208 368.687 599.909 368.687 602.808 365.785C604.01 364.582 606.013 364.582 607.203 365.785C608.405 366.988 608.405 368.993 607.203 370.185C601.807 375.492 593.205 375.492 587.808 370.185C587.407 369.583 587.007 368.781 587.007 367.991Z" fill="#503EAA"/>
        <path d="M666.106 556.261V540.15C666.106 540.15 672.305 526.032 670.608 525.631L630.402 511.619H633.007C638.003 511.619 642.103 507.515 642.103 502.514V501.712C642.103 496.711 638.003 492.607 633.007 492.607H612.303C611.502 477.298 604.997 462.98 593.803 452.07C582.609 441.161 567.903 434.957 552.207 434.155V428.152C554.812 426.949 556.603 424.354 556.603 421.24C556.603 417.041 553.197 413.633 549.002 413.633C544.807 413.633 541.402 417.041 541.402 421.24C541.402 424.342 543.205 426.949 545.797 428.152V434.155C530.102 434.957 515.396 441.161 504.202 452.07C492.901 462.98 486.397 477.298 485.702 492.607H464.998C460.002 492.607 455.901 496.711 455.901 501.712V502.514C455.901 507.515 460.002 511.619 464.998 511.619H467.496L433.501 522.635C431.804 523.036 430.802 524.735 431.203 526.433L427.409 531.434C431.71 525.926 428.611 537.142 429.412 537.637C429.907 537.932 432.311 537.637 432.912 537.637C433.206 537.637 434.514 536.14 434.809 536.14L435.009 542.049L431.804 556.261H412.008V578.682H686.009V556.261H666.106Z" fill="#C0DBFF"/>
        <path d="M508.703 510.617H472.705V559.457H508.703V510.617Z" fill="#77A4F2"/>
        <path d="M625.206 540.845L662.901 550.552V536.541L625.206 526.74V540.845Z" fill="#77A4F2"/>
        <path d="M556.603 437.257C556.603 437.257 593.002 445.359 593.002 497.714L609.098 495.414C609.098 495.402 605.705 445.265 556.603 437.257Z" fill="white"/>
        <path d="M543.299 437.257C543.299 437.257 506.9 445.359 506.9 497.714L490.804 495.402C490.804 495.402 494.198 445.265 543.299 437.257Z" fill="#77A4F2"/>
        <path d="M636.707 497.714H593.403V505.121H636.707V497.714Z" fill="white"/>
        <path d="M507.101 498.41H459.896V505.816H507.101V498.41Z" fill="#77A4F2"/>
        <path d="M612.398 498.811H485.501V495.603C485.501 479.185 492.1 463.676 504.096 452.058C516.091 440.453 531.999 434.037 548.896 434.037C565.794 434.037 581.702 440.441 593.697 452.058C605.693 463.664 612.291 479.185 612.291 495.603V498.811H612.398ZM492.1 492.3H605.799C604.998 478.784 599.2 466.282 589.302 456.564C578.497 446.15 564.203 440.347 549.003 440.347C533.802 440.347 519.497 446.055 508.703 456.564C498.699 466.282 492.901 478.89 492.1 492.3Z" fill="#503EAA"/>
        <path d="M583.599 495.603H577.094C577.094 480.789 573.889 466.27 568.292 455.868C562.989 446.055 555.99 440.453 548.896 440.453C541.897 440.453 534.792 446.055 529.501 455.868C523.904 466.282 520.699 480.789 520.699 495.603H514.194C514.194 479.492 517.6 464.277 523.798 452.86C530.302 440.748 539.199 434.049 548.896 434.049C558.594 434.049 567.396 440.759 573.995 452.86C580.205 464.277 583.599 479.492 583.599 495.603Z" fill="#503EAA"/>
        <path d="M552.208 424.035H545.703V495.603H552.208V424.035Z" fill="#503EAA"/>
        <path d="M628.505 562.665H469.499V505.71H628.505V562.665ZM475.898 556.261H622.001V512.221H475.898V556.261Z" fill="#503EAA"/>
        <path d="M625.3 510.617H472.705V530.537H625.3V510.617Z" fill="#77A4F2"/>
        <path d="M612.398 562.665H485.501V505.71H612.303V562.665H612.398ZM492.006 556.261H605.905V512.221H492.006V556.261Z" fill="#503EAA"/>
        <path d="M682.804 559.469H644.107V575.379H682.804V559.469Z" fill="white"/>
        <path d="M485.796 559.469H415.496V575.379H485.796V559.469Z" fill="#77A4F2"/>
        <path d="M564.498 556.956V527.034C564.498 525.831 564.993 524.628 565.794 523.826C566.69 522.93 567.797 522.529 568.999 522.529C570.201 522.529 571.403 523.024 572.204 523.826C573.1 524.723 573.5 525.831 573.5 527.034V556.956H564.498Z" fill="#503EAA"/>
        <path d="M569.105 523.331C570.107 523.331 571.108 523.732 571.803 524.428C572.499 525.124 572.899 526.032 572.899 527.034V556.166H565.299V527.034C565.299 526.032 565.7 525.136 566.395 524.428C567.196 523.626 568.104 523.331 569.105 523.331ZM569.105 521.633C567.703 521.633 566.301 522.234 565.311 523.237C564.309 524.239 563.708 525.536 563.708 527.034V556.166V557.77H565.311H572.911H574.514V556.166V527.034C574.514 525.631 573.913 524.227 572.911 523.237C571.898 522.234 570.602 521.633 569.105 521.633Z" fill="#503EAA"/>
        <path d="M584.706 556.956V527.034C584.706 525.831 585.201 524.628 586.002 523.826C586.898 522.93 588.006 522.529 589.208 522.529C590.409 522.529 591.611 523.024 592.413 523.826C593.308 524.628 593.709 525.831 593.709 527.034V556.956H584.706Z" fill="#503EAA"/>
        <path d="M589.302 523.331C590.303 523.331 591.305 523.732 592 524.428C592.695 525.124 593.096 526.032 593.096 527.034V556.166H585.496V527.034C585.496 526.032 585.896 525.136 586.592 524.428C587.299 523.626 588.3 523.331 589.302 523.331ZM589.302 521.633C587.9 521.633 586.497 522.234 585.508 523.237C584.506 524.239 583.905 525.643 583.905 527.034V556.166V557.77H585.508H593.108H594.71V556.166V527.034C594.71 525.631 594.11 524.227 593.108 523.237C592.106 522.234 590.704 521.633 589.302 521.633Z" fill="#503EAA"/>
        <path d="M524.304 556.956V527.034C524.304 525.831 524.799 524.628 525.6 523.826C526.496 522.93 527.604 522.529 528.806 522.529C530.007 522.529 531.209 523.024 532.011 523.826C532.906 524.723 533.307 525.831 533.307 527.034V556.956H524.304Z" fill="#503EAA"/>
        <path d="M528.9 523.331C529.901 523.331 530.903 523.732 531.598 524.428C532.293 525.124 532.694 526.032 532.694 527.034V556.166H525.094V527.034C525.094 526.032 525.494 525.136 526.19 524.428C526.897 523.626 527.804 523.331 528.9 523.331ZM528.9 521.633C527.498 521.633 526.095 522.234 525.105 523.237C524.104 524.239 523.503 525.536 523.503 527.034V556.166V557.77H525.105H532.706H534.308V556.166V527.034C534.308 525.631 533.707 524.227 532.706 523.237C531.598 522.234 530.302 521.633 528.9 521.633Z" fill="#503EAA"/>
        <path d="M544.395 556.956V527.034C544.395 525.831 544.89 524.628 545.691 523.826C546.587 522.93 547.694 522.529 548.896 522.529C550.098 522.529 551.3 523.024 552.101 523.826C552.997 524.628 553.398 525.831 553.398 527.034V556.956H544.395Z" fill="#503EAA"/>
        <path d="M549.002 523.331C550.004 523.331 551.005 523.732 551.701 524.428C552.396 525.124 552.797 526.032 552.797 527.034V556.166H545.196V527.034C545.196 526.032 545.597 525.136 546.292 524.428C546.999 523.626 548.001 523.331 549.002 523.331ZM549.002 521.633C547.6 521.633 546.198 522.234 545.208 523.237C544.206 524.239 543.605 525.643 543.605 527.034V556.166V557.77H545.208H552.808H554.411V556.166V527.034C554.411 525.631 553.81 524.227 552.808 523.237C551.795 522.234 550.405 521.633 549.002 521.633Z" fill="#503EAA"/>
        <path d="M504.096 556.956V527.034C504.096 525.831 504.591 524.628 505.392 523.826C506.287 522.93 507.395 522.529 508.597 522.529C509.799 522.529 511.001 523.024 511.802 523.826C512.698 524.723 513.098 525.831 513.098 527.034V556.956H504.096Z" fill="#503EAA"/>
        <path d="M508.703 523.331C509.705 523.331 510.706 523.732 511.401 524.428C512.097 525.124 512.497 526.032 512.497 527.034V556.166H504.897V527.034C504.897 526.032 505.298 525.136 505.993 524.428C506.7 523.626 507.701 523.331 508.703 523.331ZM508.703 521.633C507.301 521.633 505.898 522.234 504.909 523.237C503.907 524.239 503.306 525.536 503.306 527.034V556.166V557.77H504.909H512.509H514.112V556.166V527.034C514.112 525.631 513.511 524.227 512.509 523.237C511.496 522.234 510.105 521.633 508.703 521.633Z" fill="#503EAA"/>
        <path d="M633.007 499.011C634.503 499.011 635.705 500.214 635.705 501.712V502.514C635.705 504.012 634.503 505.215 633.007 505.215H464.998C463.502 505.215 462.3 504.012 462.3 502.514V501.712C462.3 500.214 463.502 499.011 464.998 499.011H633.007ZM633.007 492.607H464.998C460.002 492.607 455.901 496.711 455.901 501.712V502.514C455.901 507.515 460.002 511.619 464.998 511.619H632.995C637.991 511.619 642.092 507.515 642.092 502.514V501.712C642.104 496.711 638.003 492.607 633.007 492.607Z" fill="#503EAA"/>
        <path d="M685.997 578.682H411.996V556.261H685.997V578.682ZM418.406 572.171H679.504V562.665H418.406V572.171Z" fill="#503EAA"/>
        <path d="M472.705 526.634L434.809 536.045C431.51 536.847 428.104 534.748 427.409 531.339C426.714 528.131 428.705 525.029 431.804 524.227L472.705 513.518V526.634Z" fill="#77A4F2"/>
        <path d="M433.301 539.442C431.604 539.442 429.895 538.947 428.399 538.039C426.195 536.635 424.793 534.536 424.204 532.035C423.202 527.235 426.207 522.423 430.909 521.126L471.809 510.416C472.811 510.122 473.812 510.416 474.613 511.018C475.415 511.619 475.91 512.622 475.91 513.624V526.634C475.91 528.131 474.908 529.441 473.506 529.735L435.61 539.147C434.797 539.442 433.996 539.442 433.301 539.442ZM469.405 517.823L432.499 527.53C431.003 527.931 430.096 529.334 430.402 530.832C430.602 531.634 431.003 532.236 431.698 532.637C432.393 533.038 433.1 533.132 433.902 533.038L469.405 524.227V517.823Z" fill="#503EAA"/>
        <path d="M472.705 559.469H434.998V536.541L472.705 526.74V559.469Z" fill="#77A4F2"/>
        <path d="M475.898 562.665H431.792V534.04L475.898 522.529V562.665ZM438.202 556.261H469.405V530.938L438.202 539.041V556.261Z" fill="#503EAA"/>
        <path d="M625.206 526.634L663.102 536.045C666.401 536.847 669.806 534.748 670.502 531.339C671.197 528.131 669.205 525.029 666.106 524.227L625.206 513.518V526.634Z" fill="white"/>
        <path d="M664.598 539.442C663.797 539.442 663.102 539.348 662.3 539.147L624.405 529.735C623.003 529.334 622.001 528.131 622.001 526.634V513.625C622.001 512.622 622.496 511.726 623.297 511.018C624.098 510.31 625.1 510.216 626.102 510.417L667.002 521.126C671.798 522.423 674.697 527.129 673.707 532.035C673.212 534.536 671.704 536.635 669.512 538.039C668.098 539.041 666.401 539.442 664.598 539.442ZM628.505 524.133L664.009 532.943C664.81 533.144 665.505 533.038 666.212 532.542C666.908 532.141 667.308 531.446 667.509 530.738C667.803 529.24 666.908 527.837 665.411 527.436L628.505 517.729V524.133Z" fill="#503EAA"/>
        <path d="M666.106 562.665H622.001V522.529L666.106 534.04V562.665ZM628.505 556.261H659.708V539.041L628.505 530.938V556.261Z" fill="#503EAA"/>
        <path d="M549.002 428.847C553.2 428.847 556.603 425.441 556.603 421.24C556.603 417.039 553.2 413.633 549.002 413.633C544.805 413.633 541.402 417.039 541.402 421.24C541.402 425.441 544.805 428.847 549.002 428.847Z" fill="#503EAA"/>
        <path d="M454.699 550.965C457.628 550.965 460.002 548.589 460.002 545.658C460.002 542.726 457.628 540.35 454.699 540.35C451.771 540.35 449.397 542.726 449.397 545.658C449.397 548.589 451.771 550.965 454.699 550.965Z" fill="#503EAA"/>
        <path d="M644.107 550.965C647.035 550.965 649.409 548.589 649.409 545.658C649.409 542.726 647.035 540.35 644.107 540.35C641.178 540.35 638.804 542.726 638.804 545.658C638.804 548.589 641.178 550.965 644.107 550.965Z" fill="#503EAA"/>
        <path d="M49.1953 205.938L70.4998 221.152L98.8979 188.624C78.9014 187.421 58.5042 198.024 49.1953 205.938Z" fill="#77A4F2"/>
        <path d="M47.4042 249.376C51.0099 257.078 48.2055 266.089 41.0058 269.391C32.3096 273.495 15.801 272.398 6.60986 268.388C9.41433 258.682 19.2064 245.366 28.0086 241.368C35.1023 238.065 43.7984 241.674 47.4042 249.376Z" fill="#FF8486"/>
        <path d="M177.906 192.622L190.208 186.82L187.804 181.819L175.502 187.622L177.906 192.622Z" fill="#503EAA"/>
        <path d="M53.4961 206.433C53.4961 206.433 69.6984 193.625 87.892 191.325C99.3927 189.827 87.892 199.734 87.892 199.734C87.892 199.734 73.7047 196.727 53.4961 206.433Z" fill="white"/>
        <path d="M47.4983 208.438C47.0977 208.143 46.8031 207.837 46.6028 207.436C46.4025 207.035 46.3082 206.539 46.2021 206.138C46.2021 205.643 46.2964 205.242 46.4024 204.841C46.6028 204.44 46.8974 204.039 47.2038 203.744C57.3022 195.24 72.4086 188.435 87.5032 185.723H87.7978L88.8936 191.726H88.5991C76.2029 193.931 63.3942 199.227 54.2974 205.938L72.5028 218.947L69.0032 223.948L47.4983 208.438Z" fill="#503EAA"/>
        <path d="M87.7035 185.923L88.7051 191.431C76.1086 193.731 63.0997 199.133 54.0028 205.844L72.3025 218.853L69.0974 223.358L47.793 208.143C47.4984 207.943 47.192 207.542 46.9917 207.247C46.7914 206.846 46.6971 206.445 46.6971 206.044C46.6971 205.643 46.7914 205.242 46.8974 204.841C47.0977 204.44 47.2981 204.145 47.5926 203.839C57.5025 195.323 72.5029 188.624 87.7035 185.923ZM88.1041 185.322L87.6092 185.416C72.4086 188.117 57.314 194.922 47.2038 203.438C46.8032 203.732 46.5086 204.133 46.3083 204.641C46.1079 205.136 46.0137 205.643 46.0137 206.138C46.0137 206.634 46.214 207.141 46.4143 207.542C46.6146 207.943 47.0153 208.344 47.4159 208.639L68.7204 223.853L69.121 224.148L69.4156 223.747L72.6207 219.242L72.9153 218.841L72.5146 218.546L54.8159 205.938C63.9127 199.427 76.521 194.226 88.7169 192.021L89.2118 191.926L89.1175 191.431L88.1159 185.923L88.1041 185.322Z" fill="#503EAA"/>
        <path d="M201.603 176.712C199.705 172.607 194.804 170.803 190.703 172.808C186.602 174.707 184.799 179.613 186.803 183.718C188.7 187.822 193.602 189.627 197.702 187.622C201.803 185.617 203.5 180.816 201.603 176.712Z" fill="#503EAA"/>
        <path d="M55.9001 249.777C59.8947 256.689 69.2979 263.895 69.2979 263.895L78.9014 242.477L70.9004 222.863L51.3988 222.662C45.0947 225.752 51.9055 242.866 55.9001 249.777Z" fill="#77A4F2"/>
        <path d="M72.9977 231.461L51.8935 239.469L50.291 230.859L71.3952 227.958L72.9977 231.461Z" fill="white"/>
        <path d="M69.8046 266.289C66.7056 266.289 58.6103 264.484 50.7036 247.772C46.9094 239.669 45.3068 232.864 46.108 227.45C46.9093 221.742 49.9023 219.843 51.1043 219.242C53.5081 218.145 61.0024 217.944 64.1014 217.944C66.3992 217.944 68.697 218.039 70.7002 218.145H70.9948L70.5941 224.254H70.2995C68.2963 224.16 66.1989 224.054 64.1014 224.054C58.5985 224.054 54.4979 224.455 53.6966 224.75C52.8011 225.151 49.3014 230.552 56.3008 245.165C63.2059 259.779 69.2036 260.18 69.8989 260.18C70.1935 260.18 70.3938 260.085 70.4998 260.085C71.5957 259.484 76.804 254.082 81.5056 247.571L81.7059 247.371L86.6078 250.98L86.4075 251.181C82.6132 256.382 75.9084 264.296 73.104 265.593C72.1024 266.088 70.9947 266.289 69.8046 266.289Z" fill="#503EAA"/>
        <path d="M64.1957 218.251C66.4935 218.251 68.7913 218.345 70.7002 218.452L70.4056 224.054C68.2021 223.959 66.1047 223.853 64.1015 223.853C58.7047 223.853 54.498 224.254 53.6024 224.549C52.4005 225.151 49.0069 230.659 56.0063 245.366C62.1101 258.281 67.7072 260.581 69.8047 260.581C70.0993 260.581 70.2996 260.581 70.4999 260.486C71.5958 259.79 76.8983 254.377 81.5999 247.878L86.1012 251.181C82.3069 256.382 75.6021 264.296 72.9037 265.593C72.1025 265.994 71.0066 266.289 69.8047 266.289C65.0088 266.289 57.8091 262.385 50.904 247.973C42.3021 229.857 47.0037 221.648 51.1986 219.749C53.2018 218.546 58.7989 218.251 64.1957 218.251ZM64.1957 217.744C61.0967 217.744 53.4964 217.838 51.0925 219.041C46.7916 221.046 41.7954 229.456 50.5977 247.973C58.4926 264.791 66.7999 266.584 69.8989 266.584C71.1008 266.584 72.3028 266.383 73.1983 265.888C76.097 264.484 82.8961 256.382 86.5961 251.369L86.8907 250.968L86.4901 250.673L81.9888 247.371L81.5881 247.076L81.2935 247.477C76.4977 254.082 71.2894 259.389 70.3939 259.991C70.3939 259.991 70.2996 259.991 69.9932 259.991C69.3923 259.991 63.4888 259.59 56.5954 245.083C52.8954 237.275 52.2945 232.369 52.4005 229.574C52.4948 226.271 53.6967 225.068 54.0031 224.974C54.6983 224.679 58.7989 224.278 64.3018 224.278C66.3992 224.278 68.4967 224.372 70.4999 224.478H70.9948V223.983L71.2894 218.475V217.98H70.7945C68.697 217.744 66.5053 217.744 64.1957 217.744Z" fill="#503EAA"/>
        <path d="M70.606 221.153L83.9095 249.376C109.515 258.08 173.205 240.165 175.408 188.825C134.296 157.994 80.1034 195.83 70.606 221.153Z" fill="#C0DBFF"/>
        <path d="M139.398 241.167C110.799 254.684 85.1939 254.778 85.1939 254.778L76.1914 235.766C130.796 229.656 170.294 196.125 173.393 189.119C170.895 205.938 167.996 227.651 139.398 241.167Z" fill="#77A4F2"/>
        <path d="M111.895 185.817C82.896 199.534 70.9004 219.749 70.9004 219.749L74.6947 227.757C81.3994 217.343 90.0956 206.233 117.492 193.33C144.889 180.415 162.587 187.327 173.593 191.832C166.7 182.314 140.906 172.1 111.895 185.817Z" fill="white"/>
        <path d="M98.6029 254.483C92.6051 254.483 87.2083 253.681 82.9074 252.277L82.0118 251.983L81.4109 251.287C78.1115 246.982 75.2127 242.276 72.8089 237.37C68.614 228.465 67.5064 221.954 67.5064 221.66L67.4121 220.858L67.7067 220.056C73.4099 204.841 94.8087 184.72 120.709 177.219C127.508 175.214 134.307 174.211 140.906 174.211C154.209 174.211 166.511 178.316 177.21 186.418L178.507 187.421L178.412 189.025C177.316 214.453 162.116 229.963 149.614 238.573C145.819 241.179 141.813 243.479 137.618 245.378C125.398 251.181 111.199 254.483 98.6029 254.483ZM85.7 246.77C89.3058 247.866 93.9013 248.468 98.8032 248.468C114.805 248.468 132.504 242.866 146.208 233.56C157.214 226.059 170.706 212.437 172.308 190.417C162.905 183.812 152.406 180.403 140.906 180.403C134.908 180.403 128.71 181.3 122.5 183.104C98.2966 190.216 79.3016 208.132 73.7987 221.542C74.8003 226.141 76.4029 230.647 78.3943 234.857C80.3975 238.962 82.8956 242.972 85.7 246.77Z" fill="#503EAA"/>
        <path d="M140.906 174.412C152.206 174.412 164.909 177.419 177.105 186.525L178.306 187.421L178.212 188.919C177.116 214.241 162.01 229.751 149.508 238.266C145.713 240.873 141.707 243.172 137.606 245.071C124.503 251.275 110.41 254.176 98.7092 254.176C92.7114 254.176 87.3146 253.374 83.1079 251.971L82.3066 251.676L81.8117 250.98C78.5124 246.675 75.6136 241.969 73.2098 237.063C69.0149 228.253 68.0133 221.648 67.9072 221.447L67.813 220.752L68.1076 220.056C73.8108 204.947 95.1035 184.826 120.909 177.313C126.495 175.709 133.4 174.412 140.906 174.412ZM98.8034 248.68C113.003 248.68 131.302 243.974 146.303 233.666C157.497 225.965 171.001 212.248 172.497 190.122C161.798 182.515 150.698 180.014 140.8 180.014C133.895 180.014 127.602 181.217 122.3 182.715C98.6031 189.627 79.1015 207.542 73.3983 221.353C74.3999 225.953 76.0025 230.458 78.0999 234.763C80.1974 239.068 82.6955 243.066 85.5942 246.97C89.306 248.173 93.7955 248.68 98.8034 248.68ZM140.906 173.905V174.4V173.905C134.307 173.905 127.508 174.907 120.603 176.912C94.7028 184.413 73.198 204.735 67.4005 219.95L67.106 220.645V220.74V220.834L67.2002 221.53C67.2002 221.825 68.2961 228.335 72.5028 237.346C74.9066 242.252 77.8996 246.958 81.199 251.358L81.6939 252.053L81.7882 252.148H81.9885L82.7897 252.443C87.0907 253.941 92.5936 254.648 98.5914 254.648C111.188 254.648 125.493 251.346 137.795 245.543C141.99 243.538 145.996 241.238 149.79 238.632C162.387 230.022 177.588 214.406 178.695 188.883L178.79 187.386V187.091L178.589 186.89L177.387 185.994C166.605 178.009 154.304 173.905 140.906 173.905ZM73.9993 221.447C79.5022 208.132 98.4028 190.322 122.5 183.317C128.698 181.512 134.896 180.616 140.906 180.616C152.3 180.616 162.811 183.918 172.108 190.523C170.506 212.342 157.108 225.858 146.208 233.36C132.598 242.665 114.9 248.279 99.0038 248.279C94.1019 248.279 89.7066 247.678 86.1009 246.675C83.2964 242.972 80.9044 238.868 78.7952 234.763C76.6034 230.458 75.0009 225.953 73.9993 221.447Z" fill="#503EAA"/>
        <path d="M67.8955 278.803C82.9901 278.307 133.093 256.087 144.9 218.145C108.195 242.571 78.5006 241.462 78.5006 241.462L67.8955 278.803Z" fill="#77A4F2"/>
        <path d="M126.895 232.664C126.895 232.664 117.091 255.285 73.4927 275.005C91.9927 273.802 132.292 255.792 140.694 226.259C142.002 221.648 126.895 232.664 126.895 232.664Z" fill="white"/>
        <path d="M67.8954 281.81C67.4948 281.81 66.9999 281.716 66.5992 281.516C66.1986 281.315 65.798 281.02 65.5034 280.619C65.2088 280.218 65.0085 279.817 64.9024 279.322C64.7964 278.826 64.8082 278.319 64.9967 277.918L75.6018 240.59C75.8021 239.988 76.2028 239.387 76.6977 238.986C77.1926 238.585 77.8996 238.384 78.5005 238.384C79.7024 238.384 108.101 237.983 144.5 217.768C144.995 217.567 145.501 217.367 145.996 217.367C146.09 217.367 146.197 217.367 146.291 217.367C146.892 217.461 147.493 217.662 147.988 218.063C148.482 218.464 148.789 218.959 148.989 219.56C149.19 220.162 149.19 220.763 148.989 221.365C142.284 242.984 123.985 257.797 109.786 266.301C105.791 268.707 101.69 270.901 97.4837 272.906C86.3954 278.107 74.8005 281.61 67.8954 281.81ZM72.1021 275.206C89.5063 272.104 126.601 254.99 140.199 226.955C110.799 241.769 87.5974 244.069 80.9044 244.376L72.1021 275.206Z" fill="#503EAA"/>
        <path d="M145.996 217.65C146.09 217.65 146.196 217.65 146.196 217.65C146.797 217.65 147.292 217.945 147.693 218.251C148.094 218.652 148.388 219.053 148.588 219.655C148.789 220.15 148.789 220.752 148.588 221.259C141.884 242.783 123.69 257.491 109.585 266.1C105.591 268.506 101.584 270.7 97.3894 272.705C85.3938 278.414 74.2938 281.515 67.9897 281.716H67.8954C67.4948 281.716 67.0941 281.622 66.6935 281.421C66.2928 281.221 65.9983 280.926 65.6919 280.619C65.3973 280.324 65.197 279.923 65.197 279.416C65.1027 279.015 65.1028 278.52 65.2913 278.119L75.8964 240.79C76.0967 240.188 76.3913 239.693 76.898 239.292C77.3929 238.891 77.9938 238.691 78.5948 238.691C78.8894 238.691 107.9 238.49 144.794 217.968C145.101 217.744 145.501 217.65 145.996 217.65ZM140.705 226.354C111.011 241.462 87.6091 243.774 80.6098 244.175L71.7132 275.607C88.705 272.693 127.095 255.486 140.705 226.354ZM145.996 217.048C145.395 217.048 144.9 217.142 144.394 217.449C107.994 237.664 79.6906 238.065 78.4887 238.065C77.7935 238.065 77.0865 238.266 76.4856 238.761C75.8846 239.162 75.4839 239.764 75.2836 240.46L64.6785 277.788C64.5843 278.284 64.4782 278.791 64.5843 279.286C64.6903 279.782 64.8788 280.289 65.1852 280.69C65.4798 281.091 65.8805 281.386 66.3871 281.692C66.7878 281.893 67.2827 281.987 67.7894 281.987H67.8836C74.883 281.787 86.1833 278.284 97.4837 272.976C101.679 270.971 105.779 268.778 109.786 266.372C123.985 257.762 142.284 242.948 149.083 221.235C149.284 220.634 149.284 219.938 149.083 219.336C148.883 218.735 148.482 218.133 147.988 217.732C147.493 217.331 146.892 217.036 146.185 217.036C146.196 217.048 146.102 217.048 145.996 217.048ZM80.9986 244.67C87.9037 244.269 110.693 241.863 139.503 227.557C125.799 254.884 89.8008 271.703 72.4085 274.899L80.9986 244.67Z" fill="#503EAA"/>
        <path d="M129.7 170.402C121.498 167.394 112.402 167.795 104.495 171.499C96.5999 175.202 90.4961 181.913 87.4913 190.11C84.4865 198.319 84.8872 207.424 88.5872 215.338C96.2818 231.85 155.883 203.933 148.188 187.515C144.606 179.507 137.901 173.409 129.7 170.402Z" fill="#77A4F2"/>
        <path d="M139.999 193.129C136.794 186.418 131.102 181.323 124.197 178.811C117.292 176.311 109.692 176.606 103.093 179.708C96.4942 182.809 91.3919 188.412 88.8938 195.323C86.3957 202.235 86.6903 209.842 89.6951 216.647C96.1996 230.659 146.597 207.141 139.999 193.129Z" fill="#503EAA"/>
        <path d="M99.6047 223.358C92.6996 223.358 87.9037 221.058 85.8063 216.553C81.8117 207.849 81.305 198.13 84.6044 189.131C87.8095 180.12 94.4082 172.914 103.01 168.81L103.104 168.715C107.405 166.71 112.001 165.613 116.703 165.413C117.197 165.413 117.798 165.413 118.305 165.413C122.5 165.413 126.601 166.109 130.607 167.618C135.108 169.222 139.103 171.723 142.603 174.919C146.102 178.127 148.907 181.925 150.898 186.23C155.694 196.538 141.801 208.851 125.799 216.352L125.399 216.553C116.102 220.846 106.698 223.358 99.6047 223.358ZM118.399 171.511C114.004 171.511 109.797 172.407 105.803 174.318L105.709 174.412C98.5089 177.821 93.112 183.824 90.4136 191.325C87.7152 198.826 88.1158 206.94 91.4152 214.147C92.4168 216.246 95.2095 217.449 99.6165 217.449C105.815 217.449 114.322 215.149 122.912 211.139L123.313 210.939C138.313 203.827 148.011 194.12 145.513 188.813C142.108 181.606 136.11 176.099 128.616 173.398C125.304 172.1 121.899 171.511 118.399 171.511Z" fill="#503EAA"/>
        <path d="M118.399 165.696C122.594 165.696 126.695 166.392 130.595 167.795C134.99 169.399 139.091 171.9 142.497 175.002C145.996 178.21 148.801 182.007 150.698 186.218C155.494 196.432 141.601 208.533 125.693 216.046L125.293 216.246C116.49 220.351 107.087 223.051 99.4869 223.051C93.1828 223.051 88.1866 221.153 85.9831 216.447C81.9885 207.837 81.5879 198.13 84.7812 189.225C87.9863 180.321 94.585 173.115 103.081 169.01L103.175 168.916C107.37 166.911 111.977 165.814 116.679 165.613C117.398 165.696 117.904 165.696 118.399 165.696ZM99.6048 217.543C105.603 217.543 114.11 215.338 123.007 211.234L123.407 211.033C138.502 203.921 148.306 194.12 145.702 188.612C142.296 181.406 136.204 175.804 128.698 172.997C125.399 171.794 121.899 171.192 118.399 171.192C114.004 171.192 109.703 172.088 105.697 173.999L105.603 174.093C98.4029 177.502 92.8057 183.6 90.1073 191.113C87.4089 198.614 87.8095 206.822 91.1089 214.135C92.2047 216.447 95.3038 217.543 99.6048 217.543ZM118.399 165.094C117.904 165.094 117.304 165.094 116.797 165.094C112.001 165.295 107.394 166.392 103.093 168.503L102.998 168.597C94.3022 172.702 87.7035 180.002 84.4041 189.119C81.1047 198.236 81.5997 208.037 85.606 216.741C87.7035 221.247 92.6054 223.653 99.6048 223.653C106.71 223.653 116.208 221.153 125.599 216.741L126 216.541C142.096 208.934 156.201 196.526 151.299 186.017C149.296 181.713 146.503 177.809 142.897 174.612C139.398 171.404 135.297 168.904 130.796 167.312C126.801 165.896 122.7 165.094 118.399 165.094ZM99.6048 217.048C95.4099 217.048 92.6054 215.951 91.6038 213.946C88.3044 206.834 87.9038 198.732 90.6022 191.325C93.3006 183.918 98.6974 177.915 105.803 174.612L105.897 174.518C109.797 172.714 114.098 171.711 118.399 171.711C121.899 171.711 125.304 172.313 128.498 173.516C135.898 176.216 141.896 181.618 145.195 188.824C146.291 191.231 144.794 194.828 140.8 198.838C136.699 202.942 130.395 207.141 123.101 210.55L122.7 210.75C114.204 214.748 105.803 217.048 99.6048 217.048Z" fill="#503EAA"/>
        <path d="M69.8987 264.591C66.4932 265.086 59.8002 252.678 62.204 255.486C64.6079 258.293 71.1006 252.985 73.9993 246.876C74.1054 246.876 73.3041 264.19 69.8987 264.591Z" fill="#503EAA"/>
        <path d="M522.501 120.359L479.503 178.115C473.8 185.722 485.101 203.838 504.803 218.451C524.398 233.171 545.008 238.773 550.699 231.166L593.803 173.409C599.506 165.802 588.206 147.686 568.504 133.073C548.802 118.46 528.098 112.752 522.501 120.359Z" fill="#C0DBFF"/>
        <path d="M595.031 174.322C600.711 166.697 589.163 148.461 569.238 133.59C549.313 118.72 528.556 112.845 522.876 120.469C517.196 128.094 528.744 146.329 548.669 161.2C568.594 176.071 589.351 181.946 595.031 174.322Z" fill="white"/>
        <path d="M349.402 74.7151L389.702 20.662C392.105 17.454 396.607 16.8643 399.8 19.1642L506.499 98.8343C509.704 101.24 510.294 105.746 507.996 108.942L467.696 162.995C465.293 166.203 460.791 166.793 457.598 164.493L350.899 84.8227C347.705 82.3223 346.998 77.8169 349.402 74.7151Z" fill="#C0DBFF"/>
        <path d="M396.772 33.0297L355.465 88.4764L463.782 169.319L505.089 113.872L396.772 33.0297Z" fill="#77A4F2"/>
        <path d="M566.407 236.969L606.305 182.915C608.709 179.707 613.104 179.118 616.31 181.418L722.915 260.392C726.12 262.798 726.709 267.197 724.411 270.405L684.512 324.458C682.108 327.666 677.713 328.256 674.508 325.956L567.903 246.982C564.698 244.67 564.003 240.165 566.407 236.969Z" fill="#C0DBFF"/>
        <path d="M616.509 197.057L575.522 252.488L683.716 332.636L724.703 277.205L616.509 197.057Z" fill="#77A4F2"/>
        <path d="M484.099 204.44L528.9 144.278L519.096 128.568L474.295 188.718L484.099 204.44Z" fill="white"/>
        <path d="M561.905 170.107L520.805 225.363L544.407 232.369C544.407 232.369 555.908 223.358 559.608 217.85C563.308 212.342 587.911 180.014 587.911 180.014L561.905 170.107Z" fill="#77A4F2"/>
        <path d="M511.496 111.655L471.196 165.708C467.296 170.909 460.002 172.018 454.794 168.114L348.094 88.4437C342.898 84.5398 341.79 77.2273 345.691 72.0261L385.99 17.9731C389.89 12.7718 397.184 11.6631 402.393 15.567L509.092 95.2371C514.3 99.0349 515.396 106.347 511.496 111.655C511.602 111.655 511.496 111.655 511.496 111.655ZM352.996 77.416C352.101 78.619 352.395 80.2231 353.491 81.1194L460.191 160.79C461.392 161.686 462.995 161.485 463.891 160.294L504.19 106.241C505.085 105.038 504.791 103.434 503.695 102.538L396.996 22.7615C395.794 21.8652 394.191 22.0657 393.296 23.2569L352.996 77.416Z" fill="#503EAA"/>
        <path d="M597.303 176.205L589.997 170.803C593.002 166.698 584.895 151.083 565.699 136.776C546.504 122.458 529.194 119.062 526.095 123.166L518.79 117.764C527.285 106.253 551.595 115.063 571.085 129.57C590.598 143.983 605.799 164.705 597.303 176.205Z" fill="#503EAA"/>
        <path d="M592.337 166.005C596.363 160.6 587.21 146.951 571.891 135.518C556.573 124.086 540.891 119.199 536.865 124.604C532.838 130.009 541.992 143.658 557.31 155.091C572.628 166.524 588.31 171.41 592.337 166.005Z" fill="#C0DBFF"/>
        <path d="M597.303 176.205C588.807 187.716 564.498 178.905 545.008 164.399C525.518 149.892 510.306 129.169 518.813 117.658L526.119 123.06C523.114 127.058 531.315 142.78 550.416 157.086C569.612 171.404 587.016 174.707 590.021 170.803L597.303 176.205Z" fill="#503EAA"/>
        <path d="M514.1 190.027C508.302 185.027 503.2 179.212 499.099 172.714L490.003 184.921C494.198 191.325 499.206 197.128 505.003 202.14L514.1 190.027Z" fill="#503EAA"/>
        <path d="M487.505 202.529L467.107 212.837C467.107 212.837 465.41 223.452 476.204 234.456C487.01 245.472 496.507 249.364 496.507 249.364L514.206 225.646L487.505 202.529Z" fill="#C0DBFF"/>
        <path d="M526.001 174.011C520.204 169.01 515.101 163.196 510.906 156.697L505.71 163.608C509.905 170.013 514.913 175.815 520.71 180.828L526.001 174.011Z" fill="#503EAA"/>
        <path d="M509.905 223.653L493.903 247.772C493.903 247.772 495.505 249.978 505.297 253.481C515.101 256.983 526.402 256.983 528.994 250.473C531.598 243.963 531.197 235.86 526.897 232.558C522.596 229.255 509.905 223.653 509.905 223.653Z" fill="#77A4F2"/>
        <path d="M488.895 206.74L467.897 222.851L467.001 204.334L483.404 200.229L488.895 206.74Z" fill="white"/>
        <path d="M597.303 176.205L554.305 233.961C545.809 245.472 521.5 236.662 502.01 222.155C482.508 207.636 467.308 186.926 475.815 175.414L518.919 117.658C527.415 106.147 551.724 114.957 571.214 129.464C590.598 143.983 605.799 164.705 597.303 176.205ZM483.003 180.91C479.998 184.909 488.2 200.63 507.301 214.937C526.496 229.255 543.806 232.652 546.799 228.547L589.903 170.791C592.907 166.687 584.8 151.071 565.605 136.765C546.41 122.446 529.1 119.05 526.107 123.154L483.003 180.91Z" fill="#503EAA"/>
        <path d="M576.305 152.486C572.605 157.487 563.107 156.791 555.106 150.882C547.105 144.973 543.712 136.069 547.506 130.962L552.302 124.558C556.603 128.756 561.104 132.766 565.9 136.47C572.805 141.577 575.197 142.78 580.9 146.483L576.305 152.486Z" fill="#503EAA"/>
        <path d="M528.605 202.73L523.303 209.936C521.406 212.543 522.607 216.447 526.107 218.64C529.607 220.834 533.908 220.539 535.911 217.944L541.308 210.738C543.205 208.132 542.003 204.228 538.503 202.034C535.004 199.828 530.502 200.135 528.605 202.73Z" fill="#503EAA"/>
        <path d="M552.45 194.535C553.787 191.804 551.897 188.13 548.227 186.33C544.557 184.53 540.498 185.284 539.161 188.016C537.823 190.747 539.714 194.421 543.383 196.221C547.053 198.021 551.112 197.267 552.45 194.535Z" fill="#503EAA"/>
        <path d="M532.706 253.28C524.505 264.296 502.905 261.489 483.51 247.076C464.114 232.558 455.312 212.649 463.407 201.633C465.811 198.425 478.502 194.132 483.404 193.424L484.606 202.435C479.704 203.438 474.908 205.136 470.407 207.436C466.612 213.545 473.105 228.052 488.812 239.764C504.614 251.57 520.31 253.575 525.011 248.267C526.013 243.267 526.213 238.254 525.813 233.253L534.815 231.85C535.605 236.768 535.098 250.072 532.706 253.28Z" fill="#503EAA"/>
        <path d="M371.823 44.9562L367.759 50.412L486.014 138.671L490.078 133.216L371.823 44.9562Z" fill="#503EAA"/>
        <path d="M421.055 34.9087L372.21 100.473L377.661 104.541L426.505 38.9769L421.055 34.9087Z" fill="#503EAA"/>
        <path d="M450.598 56.9238L401.754 122.488L407.205 126.556L456.049 60.992L450.598 56.9238Z" fill="#503EAA"/>
        <path d="M480.175 79.0812L431.331 144.645L436.782 148.713L485.626 83.1494L480.175 79.0812Z" fill="#503EAA"/>
        <path d="M731.799 275.996L691.5 330.049C687.599 335.25 680.306 336.359 675.097 332.455L568.398 252.785C563.201 248.881 562.2 241.568 565.994 236.367L606.294 182.314C610.194 177.113 617.488 176.004 622.696 179.908L729.395 259.578C734.604 263.494 735.7 270.794 731.799 275.996C731.905 275.996 731.799 275.996 731.799 275.996ZM573.3 241.875C572.404 243.078 572.605 244.682 573.795 245.578L680.494 325.248C681.696 326.145 683.298 325.944 684.194 324.753L724.493 270.7C725.389 269.497 725.189 267.893 723.999 266.997L617.299 187.22C616.097 186.324 614.495 186.525 613.599 187.716L573.3 241.875Z" fill="#503EAA"/>
        <path d="M592.165 209.382L588.101 214.838L706.356 303.097L710.42 297.641L592.165 209.382Z" fill="#503EAA"/>
        <path d="M637.419 197.03L588.938 262.595L594.403 266.643L642.884 201.078L637.419 197.03Z" fill="#503EAA"/>
        <path d="M666.891 218.917L618.41 284.482L623.875 288.531L672.356 222.966L666.891 218.917Z" fill="#503EAA"/>
        <path d="M700.524 243.484L651.68 309.048L657.131 313.116L705.975 247.552L700.524 243.484Z" fill="#503EAA"/>
        <path d="M495.071 131.277L485.569 144.033L496.791 152.409L506.294 139.653L495.071 131.277Z" fill="#503EAA"/>
        <path d="M581.182 195.507L571.68 208.262L582.902 216.638L592.405 203.883L581.182 195.507Z" fill="#503EAA"/>
        <path d="M540.801 44.1916C521.5 70.0092 532.906 111.148 566.301 135.974C599.601 160.801 642.198 160.094 661.499 134.17C670.396 122.258 650.493 92.5362 617.193 67.6032C583.799 42.7881 549.603 32.2794 540.801 44.1916Z" fill="#C0DBFF"/>
        <path d="M567.302 132.271C549.297 116.856 547.506 93.1378 549.002 78.7252L534.297 56.0095C534.297 56.1039 522.796 104.342 567.302 132.271Z" fill="white"/>
        <path d="M569.4 133.875C589.302 146.684 612.504 141.683 625.901 136.175L651.801 143.782C651.695 143.782 608.898 168.503 569.4 133.875Z" fill="#77A4F2"/>
        <path d="M664.999 136.977C652.803 153.288 613.293 137.578 582.303 114.356C551.3 91.2388 524.905 57.8022 537.007 41.4907L544.313 46.8925C538.81 54.3936 552.608 80.8245 587.711 107.043C622.814 133.262 652.108 138.97 657.717 131.469L664.999 136.977Z" fill="#503EAA"/>
        <path d="M654.438 137.55C661.671 127.843 645.494 103.523 618.306 83.2321C591.119 62.9408 563.216 54.3613 555.984 64.0692C548.752 73.777 564.928 98.0962 592.116 118.388C619.303 138.679 647.206 147.258 654.438 137.55Z" fill="#503EAA"/>
        <path d="M664.999 136.977C644.295 164.8 598.693 166.003 563.496 139.678C528.193 113.353 516.398 69.3134 537.101 41.4908C549.297 25.1794 588.807 40.8893 619.797 64.1122C650.8 87.1227 677.206 120.559 664.999 136.977ZM544.395 46.8926C526.696 70.7169 537.69 109.048 568.893 132.365C600.095 155.683 639.994 155.282 657.693 131.469C663.29 123.968 649.397 97.537 614.295 71.3184C579.203 45.088 549.898 39.3796 544.395 46.8926Z" fill="#503EAA"/>
        <path d="M649.349 18.9579L548.136 35.1992L549.576 44.1897L650.789 27.9484L649.349 18.9579Z" fill="#503EAA"/>
        <path d="M654.402 22.5981L645.383 23.7799L658.686 125.494L667.706 124.312L654.402 22.5981Z" fill="#503EAA"/>
        <path d="M648.589 18.1508L584.382 104.337L591.675 109.78L655.882 23.5938L648.589 18.1508Z" fill="#503EAA"/>
        <path d="M655.395 32.0789C664.122 32.0789 671.197 24.9978 671.197 16.2629C671.197 7.52788 664.122 0.446777 655.395 0.446777C646.668 0.446777 639.594 7.52788 639.594 16.2629C639.594 24.9978 646.668 32.0789 655.395 32.0789Z" fill="#77A4F2"/>
        <path d="M332.184 255H334.536V248.152L337.944 254.36L341.336 248.152V255H343.704V244.008H341.336L337.944 250.216L334.536 244.008H332.184V255ZM354.043 244.008L350.891 251.752L347.739 244.008H345.083L349.563 255H352.203L356.683 244.008H354.043ZM358.059 255H360.411V251.928L361.787 250.456L365.163 255H368.027L363.435 248.776L367.723 244.008H364.859L360.411 249.048V244.008H358.059V255ZM382.979 254.392L381.251 252.568C381.795 251.848 382.291 250.984 382.771 250.024L381.075 249.224C380.787 249.944 380.419 250.632 380.003 251.24C379.331 250.52 378.787 249.912 378.307 249.352C380.051 248.552 380.819 247.88 380.819 246.648C380.819 245.064 379.507 243.864 377.715 243.864C375.971 243.864 374.595 245.128 374.595 246.664C374.595 247.48 374.803 248.056 375.379 248.904C373.699 249.656 372.995 250.568 372.995 252.008C372.995 254.008 374.579 255.192 376.691 255.192C377.939 255.192 378.979 254.776 379.891 254.04L381.059 255.256L382.979 254.392ZM377.747 245.544C378.371 245.544 378.803 246.024 378.803 246.664C378.803 247.384 378.371 247.72 377.299 248.152C376.851 247.592 376.595 247.176 376.595 246.664C376.595 246.008 377.107 245.544 377.747 245.544ZM376.979 253.416C376.067 253.416 375.315 252.824 375.315 251.848C375.315 251.208 375.651 250.696 376.403 250.248C376.963 250.904 377.683 251.72 378.659 252.744C378.115 253.16 377.555 253.416 376.979 253.416ZM393.923 255.192C396.835 255.192 398.899 253.144 398.899 250.248V244.008H396.531V250.152C396.531 251.848 395.443 253.048 393.923 253.048C392.387 253.048 391.299 251.848 391.299 250.152V244.008H388.947V250.248C388.947 253.144 390.995 255.192 393.923 255.192ZM405.201 255.192C407.889 255.192 409.473 253.8 409.473 251.704C409.473 249.672 407.905 248.968 405.537 248.44C403.841 248.056 403.185 247.8 403.185 247C403.185 246.344 403.793 245.816 404.801 245.816C405.857 245.816 406.961 246.248 407.937 247.032L409.169 245.336C408.049 244.376 406.657 243.816 404.865 243.816C402.465 243.816 400.801 245.208 400.801 247.24C400.801 249.368 402.449 250.024 404.769 250.552C406.449 250.936 407.089 251.176 407.089 251.96C407.089 252.648 406.481 253.192 405.297 253.192C403.905 253.192 402.721 252.648 401.681 251.752L400.321 253.368C401.601 254.552 403.297 255.192 405.201 255.192ZM411.262 255H415.198C418.894 255 421.518 252.712 421.518 249.496C421.518 246.28 418.894 244.008 415.198 244.008H411.262V255ZM413.614 252.856V246.152H415.502C417.598 246.152 419.086 247.544 419.086 249.496C419.086 251.464 417.598 252.856 415.502 252.856H413.614ZM423.434 255H425.786V248.152L429.194 254.36L432.586 248.152V255H434.954V244.008H432.586L429.194 250.216L425.786 244.008H423.434V255Z" fill="#86D4C9"/>
        <path d="M357.384 273L354.68 269.16C356.184 268.632 357.176 267.352 357.176 265.72C357.176 263.544 355.416 262.008 353.032 262.008H348.088V273H350.44V269.432H352.184L354.696 273H357.384ZM350.44 264.168H352.776C353.944 264.168 354.744 264.776 354.744 265.72C354.744 266.664 353.944 267.272 352.776 267.272H350.44V264.168ZM362.772 271.128C361.796 271.128 361.076 270.52 360.804 269.624H366.772C366.772 266.504 365.252 264.536 362.66 264.536C360.244 264.536 358.404 266.344 358.404 268.84C358.404 271.384 360.324 273.192 362.788 273.192C364.004 273.192 365.428 272.68 366.164 271.912L364.676 270.392C364.228 270.824 363.428 271.128 362.772 271.128ZM362.756 266.6C363.7 266.6 364.308 267.128 364.532 267.944H360.836C361.14 267.112 361.876 266.6 362.756 266.6ZM370.042 273H372.138L373.69 267.8L375.226 273H377.322L380.138 264.728H377.85L376.282 269.88L374.65 264.728H372.714L371.082 269.88L369.514 264.728H367.226L370.042 273ZM385.111 264.536C383.959 264.536 382.823 264.856 381.655 265.448L382.439 267C383.095 266.664 383.815 266.408 384.583 266.408C385.943 266.408 386.487 267.176 386.487 268.056V268.216C385.783 267.944 385.047 267.8 384.375 267.8C382.455 267.8 380.935 268.92 380.935 270.552C380.935 272.136 382.295 273.192 384.055 273.192C384.951 273.192 385.895 272.84 386.487 272.168V273H388.743V268.056C388.743 265.896 387.271 264.536 385.111 264.536ZM384.583 271.576C383.783 271.576 383.191 271.16 383.191 270.488C383.191 269.816 383.863 269.32 384.711 269.32C385.351 269.32 385.959 269.432 386.487 269.624V270.392C386.327 271.16 385.479 271.576 384.583 271.576ZM393.048 266.264V264.728H390.712V273H393.048V269.048C393.048 267.496 394.152 266.504 395.88 266.504V264.536C394.616 264.536 393.592 265.192 393.048 266.264ZM403.403 261.816V265.912C402.747 265.048 401.787 264.536 400.619 264.536C398.411 264.536 396.811 266.328 396.811 268.856C396.811 271.4 398.411 273.192 400.619 273.192C401.787 273.192 402.747 272.68 403.403 271.816V273H405.739V261.816H403.403ZM401.291 271.224C399.995 271.224 399.083 270.248 399.083 268.856C399.083 267.48 399.995 266.504 401.291 266.504C402.523 266.504 403.403 267.48 403.403 268.856C403.403 270.248 402.523 271.224 401.291 271.224ZM410.894 273.192C412.926 273.192 414.254 272.152 414.254 270.52C414.254 268.712 412.67 268.232 411.246 267.864C410.126 267.56 409.79 267.432 409.79 266.984C409.79 266.696 410.19 266.488 410.766 266.488C411.47 266.488 412.334 266.76 413.086 267.224L414.03 265.56C413.118 264.952 411.95 264.536 410.766 264.536C408.814 264.536 407.518 265.656 407.534 267.224C407.55 268.856 408.862 269.32 410.558 269.736C411.406 269.96 412.014 270.12 412.014 270.632C412.014 271 411.566 271.256 410.942 271.256C409.838 271.256 408.91 270.856 408.174 270.328L407.166 271.944C408.158 272.744 409.566 273.192 410.894 273.192Z" fill="#86D4C9"/>
        <path d="M266.184 183H270.12C273.816 183 276.44 180.712 276.44 177.496C276.44 174.28 273.816 172.008 270.12 172.008H266.184V183ZM268.536 180.856V174.152H270.424C272.52 174.152 274.008 175.544 274.008 177.496C274.008 179.464 272.52 180.856 270.424 180.856H268.536ZM282.1 181.128C281.124 181.128 280.404 180.52 280.132 179.624H286.1C286.1 176.504 284.58 174.536 281.988 174.536C279.572 174.536 277.732 176.344 277.732 178.84C277.732 181.384 279.652 183.192 282.116 183.192C283.332 183.192 284.756 182.68 285.492 181.912L284.004 180.392C283.556 180.824 282.756 181.128 282.1 181.128ZM282.084 176.6C283.028 176.6 283.636 177.128 283.86 177.944H280.164C280.468 177.112 281.204 176.6 282.084 176.6ZM287.68 183H290.016V171.816H287.68V183ZM295.959 181.128C294.983 181.128 294.263 180.52 293.991 179.624H299.959C299.959 176.504 298.439 174.536 295.847 174.536C293.431 174.536 291.591 176.344 291.591 178.84C291.591 181.384 293.511 183.192 295.975 183.192C297.191 183.192 298.615 182.68 299.351 181.912L297.863 180.392C297.415 180.824 296.615 181.128 295.959 181.128ZM295.943 176.6C296.887 176.6 297.495 177.128 297.719 177.944H294.023C294.327 177.112 295.063 176.6 295.943 176.6ZM307.524 174.728V175.848C306.964 175.064 305.908 174.536 304.788 174.536C302.708 174.536 301.124 176.152 301.124 178.456C301.124 180.76 302.708 182.392 304.788 182.392C305.876 182.392 306.868 181.912 307.524 181.112V182.024C307.524 183.096 306.564 183.784 305.06 183.784C304.1 183.784 303.14 183.48 302.596 183L301.78 184.648C302.596 185.288 303.972 185.752 305.428 185.752C308.036 185.752 309.876 184.248 309.876 182.12V174.728H307.524ZM305.524 180.424C304.356 180.424 303.524 179.608 303.524 178.456C303.524 177.304 304.356 176.504 305.524 176.504C306.692 176.504 307.524 177.304 307.524 178.456C307.524 179.608 306.692 180.424 305.524 180.424ZM315.626 174.536C314.474 174.536 313.338 174.856 312.17 175.448L312.954 177C313.61 176.664 314.33 176.408 315.098 176.408C316.458 176.408 317.002 177.176 317.002 178.056V178.216C316.298 177.944 315.562 177.8 314.89 177.8C312.97 177.8 311.45 178.92 311.45 180.552C311.45 182.136 312.81 183.192 314.57 183.192C315.466 183.192 316.41 182.84 317.002 182.168V183H319.258V178.056C319.258 175.896 317.786 174.536 315.626 174.536ZM315.098 181.576C314.298 181.576 313.706 181.16 313.706 180.488C313.706 179.816 314.378 179.32 315.226 179.32C315.866 179.32 316.474 179.432 317.002 179.624V180.392C316.842 181.16 315.994 181.576 315.098 181.576ZM325.579 180.952C325.419 181.112 325.099 181.224 324.779 181.224C324.347 181.224 323.995 180.84 323.995 180.296V176.616H325.787V174.728H323.995V172.456H321.755V174.728H320.619V176.616H321.755V180.664C321.755 182.152 322.779 183.192 324.235 183.192C324.907 183.192 325.659 182.904 326.139 182.472L325.579 180.952ZM331.506 181.128C330.53 181.128 329.81 180.52 329.538 179.624H335.506C335.506 176.504 333.986 174.536 331.394 174.536C328.978 174.536 327.138 176.344 327.138 178.84C327.138 181.384 329.058 183.192 331.522 183.192C332.738 183.192 334.162 182.68 334.898 181.912L333.41 180.392C332.962 180.824 332.162 181.128 331.506 181.128ZM331.49 176.6C332.434 176.6 333.042 177.128 333.266 177.944H329.57C329.874 177.112 330.61 176.6 331.49 176.6ZM343.263 171.816V175.912C342.607 175.048 341.647 174.536 340.479 174.536C338.271 174.536 336.671 176.328 336.671 178.856C336.671 181.4 338.271 183.192 340.479 183.192C341.647 183.192 342.607 182.68 343.263 181.816V183H345.599V171.816H343.263ZM341.151 181.224C339.855 181.224 338.943 180.248 338.943 178.856C338.943 177.48 339.855 176.504 341.151 176.504C342.383 176.504 343.263 177.48 343.263 178.856C343.263 180.248 342.383 181.224 341.151 181.224Z" fill="#86D4C9"/>
        <path d="M288.184 200H290.536V193.152L293.944 199.36L297.336 193.152V200H299.704V189.008H297.336L293.944 195.216L290.536 189.008H288.184V200ZM310.043 189.008L306.891 196.752L303.739 189.008H301.083L305.563 200H308.203L312.683 189.008H310.043ZM314.059 200H316.411V196.928L317.787 195.456L321.163 200H324.027L319.435 193.776L323.723 189.008H320.859L316.411 194.048V189.008H314.059V200Z" fill="#86D4C9"/>
        <path d="M840.184 307H842.536V300.152L845.944 306.36L849.336 300.152V307H851.704V296.008H849.336L845.944 302.216L842.536 296.008H840.184V307ZM862.043 296.008L858.891 303.752L855.739 296.008H853.083L857.563 307H860.203L864.683 296.008H862.043ZM866.059 307H868.411V303.928L869.787 302.456L873.163 307H876.027L871.435 300.776L875.723 296.008H872.859L868.411 301.048V296.008H866.059V307Z" fill="#86D4C9"/>
        <path d="M836.384 325L833.68 321.16C835.184 320.632 836.176 319.352 836.176 317.72C836.176 315.544 834.416 314.008 832.032 314.008H827.088V325H829.44V321.432H831.184L833.696 325H836.384ZM829.44 316.168H831.776C832.944 316.168 833.744 316.776 833.744 317.72C833.744 318.664 832.944 319.272 831.776 319.272H829.44V316.168ZM841.772 323.128C840.796 323.128 840.076 322.52 839.804 321.624H845.772C845.772 318.504 844.252 316.536 841.66 316.536C839.244 316.536 837.404 318.344 837.404 320.84C837.404 323.384 839.324 325.192 841.788 325.192C843.004 325.192 844.428 324.68 845.164 323.912L843.676 322.392C843.228 322.824 842.428 323.128 841.772 323.128ZM841.756 318.6C842.7 318.6 843.308 319.128 843.532 319.944H839.836C840.14 319.112 840.876 318.6 841.756 318.6ZM849.042 325H851.138L852.69 319.8L854.226 325H856.322L859.138 316.728H856.85L855.282 321.88L853.65 316.728H851.714L850.082 321.88L848.514 316.728H846.226L849.042 325ZM864.111 316.536C862.959 316.536 861.823 316.856 860.655 317.448L861.439 319C862.095 318.664 862.815 318.408 863.583 318.408C864.943 318.408 865.487 319.176 865.487 320.056V320.216C864.783 319.944 864.047 319.8 863.375 319.8C861.455 319.8 859.935 320.92 859.935 322.552C859.935 324.136 861.295 325.192 863.055 325.192C863.951 325.192 864.895 324.84 865.487 324.168V325H867.743V320.056C867.743 317.896 866.271 316.536 864.111 316.536ZM863.583 323.576C862.783 323.576 862.191 323.16 862.191 322.488C862.191 321.816 862.863 321.32 863.711 321.32C864.351 321.32 864.959 321.432 865.487 321.624V322.392C865.327 323.16 864.479 323.576 863.583 323.576ZM872.048 318.264V316.728H869.712V325H872.048V321.048C872.048 319.496 873.152 318.504 874.88 318.504V316.536C873.616 316.536 872.592 317.192 872.048 318.264ZM882.403 313.816V317.912C881.747 317.048 880.787 316.536 879.619 316.536C877.411 316.536 875.811 318.328 875.811 320.856C875.811 323.4 877.411 325.192 879.619 325.192C880.787 325.192 881.747 324.68 882.403 323.816V325H884.739V313.816H882.403ZM880.291 323.224C878.995 323.224 878.083 322.248 878.083 320.856C878.083 319.48 878.995 318.504 880.291 318.504C881.523 318.504 882.403 319.48 882.403 320.856C882.403 322.248 881.523 323.224 880.291 323.224ZM889.894 325.192C891.926 325.192 893.254 324.152 893.254 322.52C893.254 320.712 891.67 320.232 890.246 319.864C889.126 319.56 888.79 319.432 888.79 318.984C888.79 318.696 889.19 318.488 889.766 318.488C890.47 318.488 891.334 318.76 892.086 319.224L893.03 317.56C892.118 316.952 890.95 316.536 889.766 316.536C887.814 316.536 886.518 317.656 886.534 319.224C886.55 320.856 887.862 321.32 889.558 321.736C890.406 321.96 891.014 322.12 891.014 322.632C891.014 323 890.566 323.256 889.942 323.256C888.838 323.256 887.91 322.856 887.174 322.328L886.166 323.944C887.158 324.744 888.566 325.192 889.894 325.192Z" fill="#86D4C9"/>
        <path d="M760.248 240.192C762.936 240.192 764.52 238.8 764.52 236.704C764.52 234.672 762.952 233.968 760.584 233.44C758.888 233.056 758.232 232.8 758.232 232C758.232 231.344 758.84 230.816 759.848 230.816C760.904 230.816 762.008 231.248 762.984 232.032L764.216 230.336C763.096 229.376 761.704 228.816 759.912 228.816C757.512 228.816 755.848 230.208 755.848 232.24C755.848 234.368 757.496 235.024 759.816 235.552C761.496 235.936 762.136 236.176 762.136 236.96C762.136 237.648 761.528 238.192 760.344 238.192C758.952 238.192 757.768 237.648 756.728 236.752L755.368 238.368C756.648 239.552 758.344 240.192 760.248 240.192ZM767.317 230.592C768.005 230.592 768.565 230.016 768.565 229.312C768.565 228.656 768.005 228.064 767.317 228.064C766.597 228.064 766.037 228.656 766.037 229.312C766.037 230.016 766.597 230.592 767.317 230.592ZM766.133 240H768.469V231.728H766.133V240ZM776.492 231.728V232.848C775.932 232.064 774.876 231.536 773.756 231.536C771.676 231.536 770.092 233.152 770.092 235.456C770.092 237.76 771.676 239.392 773.756 239.392C774.844 239.392 775.836 238.912 776.492 238.112V239.024C776.492 240.096 775.532 240.784 774.028 240.784C773.068 240.784 772.108 240.48 771.564 240L770.748 241.648C771.564 242.288 772.94 242.752 774.396 242.752C777.004 242.752 778.844 241.248 778.844 239.12V231.728H776.492ZM774.492 237.424C773.324 237.424 772.492 236.608 772.492 235.456C772.492 234.304 773.324 233.504 774.492 233.504C775.66 233.504 776.492 234.304 776.492 235.456C776.492 236.608 775.66 237.424 774.492 237.424ZM785.683 231.536C784.611 231.536 783.683 232.016 783.187 232.768V231.728H780.851V240H783.187V235.056L783.203 235.104C783.203 234.208 783.955 233.504 784.931 233.504C785.859 233.504 786.499 234.208 786.499 235.232V240H788.755V234.736C788.755 232.864 787.475 231.536 785.683 231.536ZM794.631 238.128C793.655 238.128 792.935 237.52 792.663 236.624H798.631C798.631 233.504 797.111 231.536 794.519 231.536C792.103 231.536 790.263 233.344 790.263 235.84C790.263 238.384 792.183 240.192 794.647 240.192C795.863 240.192 797.287 239.68 798.023 238.912L796.535 237.392C796.087 237.824 795.287 238.128 794.631 238.128ZM794.615 233.6C795.559 233.6 796.167 234.128 796.391 234.944H792.695C792.999 234.112 793.735 233.6 794.615 233.6ZM806.388 228.816V232.912C805.732 232.048 804.772 231.536 803.604 231.536C801.396 231.536 799.796 233.328 799.796 235.856C799.796 238.4 801.396 240.192 803.604 240.192C804.772 240.192 805.732 239.68 806.388 238.816V240H808.724V228.816H806.388ZM804.276 238.224C802.98 238.224 802.068 237.248 802.068 235.856C802.068 234.48 802.98 233.504 804.276 233.504C805.508 233.504 806.388 234.48 806.388 235.856C806.388 237.248 805.508 238.224 804.276 238.224Z" fill="#86D4C9"/>
        <path d="M748.128 248.536C746.976 248.536 746.016 249.032 745.36 249.88V248.728H743.024V259.752H745.36V255.832C746.016 256.696 746.976 257.192 748.128 257.192C750.336 257.192 751.936 255.4 751.936 252.856C751.936 250.328 750.336 248.536 748.128 248.536ZM747.456 255.224C746.32 255.224 745.488 254.392 745.36 253.176V252.536C745.488 251.336 746.32 250.504 747.456 250.504C748.752 250.504 749.664 251.48 749.664 252.856C749.664 254.248 748.752 255.224 747.456 255.224ZM755.923 250.264V248.728H753.587V257H755.923V253.048C755.923 251.496 757.027 250.504 758.755 250.504V248.536C757.491 248.536 756.467 249.192 755.923 250.264ZM761.27 247.592C761.958 247.592 762.518 247.016 762.518 246.312C762.518 245.656 761.958 245.064 761.27 245.064C760.55 245.064 759.99 245.656 759.99 246.312C759.99 247.016 760.55 247.592 761.27 247.592ZM760.086 257H762.422V248.728H760.086V257ZM768.51 257.192C769.886 257.192 771.006 256.632 771.822 255.736L770.27 254.424C769.838 254.904 769.166 255.224 768.526 255.224C767.294 255.224 766.27 254.136 766.27 252.84C766.27 251.576 767.294 250.504 768.51 250.504C769.15 250.504 769.806 250.808 770.222 251.272L771.774 249.944C770.974 249.08 769.87 248.536 768.526 248.536C766.078 248.536 763.998 250.504 763.998 252.856C763.998 255.208 766.062 257.192 768.51 257.192ZM777.131 255.128C776.155 255.128 775.435 254.52 775.163 253.624H781.131C781.131 250.504 779.611 248.536 777.019 248.536C774.603 248.536 772.763 250.344 772.763 252.84C772.763 255.384 774.683 257.192 777.147 257.192C778.363 257.192 779.787 256.68 780.523 255.912L779.035 254.392C778.587 254.824 777.787 255.128 777.131 255.128ZM777.115 250.6C778.059 250.6 778.667 251.128 778.891 251.944H775.195C775.499 251.112 776.235 250.6 777.115 250.6ZM789.948 248.28C789.948 247.736 790.3 247.352 790.732 247.352C791.052 247.352 791.372 247.464 791.532 247.624L792.092 246.2C791.612 245.768 790.86 245.48 790.188 245.48C788.732 245.48 787.708 246.52 787.708 248.008V248.728H786.572V250.616H787.708V257H789.948V250.616H791.74V248.728H789.948V248.28ZM797.147 255.128C796.171 255.128 795.451 254.52 795.179 253.624H801.147C801.147 250.504 799.627 248.536 797.035 248.536C794.619 248.536 792.779 250.344 792.779 252.84C792.779 255.384 794.699 257.192 797.163 257.192C798.379 257.192 799.803 256.68 800.539 255.912L799.051 254.392C798.603 254.824 797.803 255.128 797.147 255.128ZM797.131 250.6C798.075 250.6 798.683 251.128 798.907 251.944H795.211C795.515 251.112 796.251 250.6 797.131 250.6ZM806.631 255.128C805.655 255.128 804.935 254.52 804.663 253.624H810.631C810.631 250.504 809.111 248.536 806.519 248.536C804.103 248.536 802.263 250.344 802.263 252.84C802.263 255.384 804.183 257.192 806.647 257.192C807.863 257.192 809.287 256.68 810.023 255.912L808.535 254.392C808.087 254.824 807.287 255.128 806.631 255.128ZM806.615 250.6C807.559 250.6 808.167 251.128 808.391 251.944H804.695C804.999 251.112 805.735 250.6 806.615 250.6ZM818.388 245.816V249.912C817.732 249.048 816.772 248.536 815.604 248.536C813.396 248.536 811.796 250.328 811.796 252.856C811.796 255.4 813.396 257.192 815.604 257.192C816.772 257.192 817.732 256.68 818.388 255.816V257H820.724V245.816H818.388ZM816.276 255.224C814.98 255.224 814.068 254.248 814.068 252.856C814.068 251.48 814.98 250.504 816.276 250.504C817.508 250.504 818.388 251.48 818.388 252.856C818.388 254.248 817.508 255.224 816.276 255.224Z" fill="#86D4C9"/>
        <path d="M493.048 372.192C495.96 372.192 498.024 370.144 498.024 367.248V361.008H495.656V367.152C495.656 368.848 494.568 370.048 493.048 370.048C491.512 370.048 490.424 368.848 490.424 367.152V361.008H488.072V367.248C488.072 370.144 490.12 372.192 493.048 372.192ZM504.326 372.192C507.014 372.192 508.598 370.8 508.598 368.704C508.598 366.672 507.03 365.968 504.662 365.44C502.966 365.056 502.31 364.8 502.31 364C502.31 363.344 502.918 362.816 503.926 362.816C504.982 362.816 506.086 363.248 507.062 364.032L508.294 362.336C507.174 361.376 505.782 360.816 503.99 360.816C501.59 360.816 499.926 362.208 499.926 364.24C499.926 366.368 501.574 367.024 503.894 367.552C505.574 367.936 506.214 368.176 506.214 368.96C506.214 369.648 505.606 370.192 504.422 370.192C503.03 370.192 501.846 369.648 500.806 368.752L499.446 370.368C500.726 371.552 502.422 372.192 504.326 372.192ZM510.387 372H514.323C518.019 372 520.643 369.712 520.643 366.496C520.643 363.28 518.019 361.008 514.323 361.008H510.387V372ZM512.739 369.856V363.152H514.627C516.723 363.152 518.211 364.544 518.211 366.496C518.211 368.464 516.723 369.856 514.627 369.856H512.739ZM522.559 372H524.911V365.152L528.319 371.36L531.711 365.152V372H534.079V361.008H531.711L528.319 367.216L524.911 361.008H522.559V372Z" fill="#86D4C9"/>
        <path d="M488.384 389.788L485.68 385.948C487.184 385.42 488.176 384.14 488.176 382.508C488.176 380.332 486.416 378.796 484.032 378.796H479.088V389.788H481.44V386.22H483.184L485.696 389.788H488.384ZM481.44 380.956H483.776C484.944 380.956 485.744 381.564 485.744 382.508C485.744 383.452 484.944 384.06 483.776 384.06H481.44V380.956ZM493.772 387.916C492.796 387.916 492.076 387.308 491.804 386.412H497.772C497.772 383.292 496.252 381.324 493.66 381.324C491.244 381.324 489.404 383.132 489.404 385.628C489.404 388.172 491.324 389.98 493.788 389.98C495.004 389.98 496.428 389.468 497.164 388.7L495.676 387.18C495.228 387.612 494.428 387.916 493.772 387.916ZM493.756 383.388C494.7 383.388 495.308 383.916 495.532 384.732H491.836C492.14 383.9 492.876 383.388 493.756 383.388ZM501.042 389.788H503.138L504.69 384.588L506.226 389.788H508.322L511.138 381.516H508.85L507.282 386.668L505.65 381.516H503.714L502.082 386.668L500.514 381.516H498.226L501.042 389.788ZM516.111 381.324C514.959 381.324 513.823 381.644 512.655 382.236L513.439 383.788C514.095 383.452 514.815 383.196 515.583 383.196C516.943 383.196 517.487 383.964 517.487 384.844V385.004C516.783 384.732 516.047 384.588 515.375 384.588C513.455 384.588 511.935 385.708 511.935 387.34C511.935 388.924 513.295 389.98 515.055 389.98C515.951 389.98 516.895 389.628 517.487 388.956V389.788H519.743V384.844C519.743 382.684 518.271 381.324 516.111 381.324ZM515.583 388.364C514.783 388.364 514.191 387.948 514.191 387.276C514.191 386.604 514.863 386.108 515.711 386.108C516.351 386.108 516.959 386.22 517.487 386.412V387.18C517.327 387.948 516.479 388.364 515.583 388.364ZM524.048 383.052V381.516H521.712V389.788H524.048V385.836C524.048 384.284 525.152 383.292 526.88 383.292V381.324C525.616 381.324 524.592 381.98 524.048 383.052ZM534.403 378.604V382.7C533.747 381.836 532.787 381.324 531.619 381.324C529.411 381.324 527.811 383.116 527.811 385.644C527.811 388.188 529.411 389.98 531.619 389.98C532.787 389.98 533.747 389.468 534.403 388.604V389.788H536.739V378.604H534.403ZM532.291 388.012C530.995 388.012 530.083 387.036 530.083 385.644C530.083 384.268 530.995 383.292 532.291 383.292C533.523 383.292 534.403 384.268 534.403 385.644C534.403 387.036 533.523 388.012 532.291 388.012ZM541.894 389.98C543.926 389.98 545.254 388.94 545.254 387.308C545.254 385.5 543.67 385.02 542.246 384.652C541.126 384.348 540.79 384.22 540.79 383.772C540.79 383.484 541.19 383.276 541.766 383.276C542.47 383.276 543.334 383.548 544.086 384.012L545.03 382.348C544.118 381.74 542.95 381.324 541.766 381.324C539.814 381.324 538.518 382.444 538.534 384.012C538.55 385.644 539.862 386.108 541.558 386.524C542.406 386.748 543.014 386.908 543.014 387.42C543.014 387.788 542.566 388.044 541.942 388.044C540.838 388.044 539.91 387.644 539.174 387.116L538.166 388.732C539.158 389.532 540.566 389.98 541.894 389.98Z" fill="#86D4C9"/>
        <path d="M585.168 339.008L582.016 346.752L578.864 339.008H576.208L580.688 350H583.328L587.808 339.008H585.168ZM591.979 350.192C594.427 350.192 596.475 348.208 596.475 345.856C596.475 343.504 594.427 341.536 591.979 341.536C589.515 341.536 587.451 343.504 587.451 345.856C587.451 348.208 589.515 350.192 591.979 350.192ZM591.979 348.224C590.731 348.224 589.691 347.136 589.691 345.856C589.691 344.576 590.731 343.504 591.979 343.504C593.211 343.504 594.251 344.576 594.251 345.856C594.251 347.136 593.211 348.224 591.979 348.224ZM602.407 347.952C602.247 348.112 601.927 348.224 601.607 348.224C601.175 348.224 600.823 347.84 600.823 347.296V343.616H602.615V341.728H600.823V339.456H598.583V341.728H597.447V343.616H598.583V347.664C598.583 349.152 599.607 350.192 601.063 350.192C601.735 350.192 602.487 349.904 602.967 349.472L602.407 347.952ZM608.334 348.128C607.358 348.128 606.638 347.52 606.366 346.624H612.334C612.334 343.504 610.814 341.536 608.222 341.536C605.806 341.536 603.966 343.344 603.966 345.84C603.966 348.384 605.886 350.192 608.35 350.192C609.566 350.192 610.99 349.68 611.726 348.912L610.238 347.392C609.79 347.824 608.99 348.128 608.334 348.128ZM608.318 343.6C609.262 343.6 609.87 344.128 610.094 344.944H606.398C606.702 344.112 607.438 343.6 608.318 343.6ZM617.019 350.192C619.051 350.192 620.379 349.152 620.379 347.52C620.379 345.712 618.795 345.232 617.371 344.864C616.251 344.56 615.915 344.432 615.915 343.984C615.915 343.696 616.315 343.488 616.891 343.488C617.595 343.488 618.459 343.76 619.211 344.224L620.155 342.56C619.243 341.952 618.075 341.536 616.891 341.536C614.939 341.536 613.643 342.656 613.659 344.224C613.675 345.856 614.987 346.32 616.683 346.736C617.531 346.96 618.139 347.12 618.139 347.632C618.139 348 617.691 348.256 617.067 348.256C615.963 348.256 615.035 347.856 614.299 347.328L613.291 348.944C614.283 349.744 615.691 350.192 617.019 350.192Z" fill="#86D4C9"/>
        <path d="M1022.2 311.626C1030.54 311.626 1037.3 304.862 1037.3 296.518C1037.3 288.174 1030.54 281.409 1022.2 281.409C1013.87 281.409 1007.11 288.174 1007.11 296.518C1007.11 304.862 1013.87 311.626 1022.2 311.626Z" fill="#503EAA"/>
        <path d="M933.096 298.723C951.301 316.945 992.991 310.635 1022.59 281.103C1052.19 251.476 1058.5 209.736 1040.29 191.525C1031.89 183.116 1001.19 200.336 971.593 229.963C941.992 259.59 924.706 290.314 933.096 298.723Z" fill="#C0DBFF"/>
        <path d="M1002.13 260.851C1031.87 231.76 1049.1 201.127 1040.61 192.429C1032.12 183.731 1001.12 200.263 971.379 229.353C941.638 258.444 924.411 289.077 932.903 297.775C941.395 306.472 972.389 289.941 1002.13 260.851Z" fill="#77A4F2"/>
        <path d="M1021.6 277.906C1037.5 259.885 1037.1 236.969 1034.3 223.653L1046.41 199.333C1046.41 199.227 1061.9 242.866 1021.6 277.906Z" fill="white"/>
        <path d="M1019.7 279.699C1001.7 295.61 978.804 295.209 965.501 292.413L941.203 304.526C941.203 304.632 984.802 320.047 1019.7 279.699Z" fill="#77A4F2"/>
        <path d="M1004.96 263.088C1024.09 243.942 1034.07 222.875 1027.24 216.033C1020.41 209.191 999.355 219.166 980.216 238.312C961.077 257.458 951.1 278.525 957.931 285.366C964.763 292.208 985.816 282.234 1004.96 263.088Z" fill="#503EAA"/>
        <path d="M961.6 312.534C948.803 312.534 937.904 308.63 930.504 301.224C928.406 299.124 927.405 296.223 927.299 292.614C927.299 278.602 943.996 252.372 968.894 227.451C983.4 212.932 998.695 200.831 1012 193.424C1026.7 185.215 1037.3 183.718 1042.6 189.025C1052.3 198.732 1055.9 214.654 1052.6 232.664C1049.3 250.98 1039.41 269.002 1024.9 283.615C1010.3 298.133 992.296 308.041 973.996 311.343C969.802 312.133 965.607 312.534 961.6 312.534ZM1034 192.929C1030.39 192.929 1024.3 194.627 1015.5 199.534C1002.8 206.646 988.101 218.345 973.996 232.369C962.295 244.08 952.197 256.287 944.997 267.598C938.292 278.012 934.498 287.118 934.498 292.519C934.498 294.218 934.899 295.421 935.594 296.128C943.595 304.137 957.193 307.144 972.889 304.231C989.786 301.129 1006.48 292.024 1019.99 278.508C1033.49 264.992 1042.68 248.185 1045.79 231.366C1048.69 215.656 1045.7 202.034 1037.7 194.038C1037 193.33 1035.8 192.929 1034 192.929Z" fill="#503EAA"/>
        <path d="M994.405 268.2L953.199 218.345L959.797 211.741L1009.81 252.785L994.405 268.2Z" fill="#C0DBFF"/>
        <path d="M994.405 268.2L953.199 218.345L956.498 215.043L1002.01 260.592L994.405 268.2Z" fill="#77A4F2"/>
        <path d="M939.801 304.632C935.901 304.632 932.802 303.535 930.504 301.224C929.102 299.82 929.102 297.615 930.504 296.223C931.906 294.831 934.11 294.819 935.5 296.223C936.301 297.119 937.798 297.52 939.695 297.52C945.492 297.52 954.401 293.817 964.994 287.212C976.188 280.1 988.29 270.193 999.897 258.587C1014 244.47 1025.6 229.656 1032.5 216.848C1037 208.544 1041 197.635 1037.6 194.132C1036.2 192.728 1036.2 190.523 1037.6 189.131C1039.01 187.739 1041.21 187.728 1042.6 189.131C1048.1 194.639 1046.79 205.443 1038.7 220.362C1031.39 233.772 1019.4 249.187 1004.9 263.8C980.501 288.108 954.306 304.632 939.801 304.632Z" fill="#503EAA"/>
        <path d="M994.405 271.703C994.311 271.703 994.311 271.703 994.205 271.703C993.203 271.703 992.308 271.207 991.601 270.405L950.406 220.657C949.204 219.254 949.31 217.154 950.606 215.857L957.205 209.252C958.501 207.955 960.611 207.849 962.001 209.052L1012 249.989C1012.8 250.591 1013.29 251.593 1013.29 252.596C1013.39 253.598 1013 254.601 1012.29 255.297L996.892 270.712C996.303 271.396 995.407 271.703 994.405 271.703ZM958.006 218.546L994.606 262.786L1004.41 252.973L959.915 216.541L958.006 218.546Z" fill="#503EAA"/>
        <path d="M950.206 221.447C957.162 221.447 962.802 215.802 962.802 208.839C962.802 201.876 957.162 196.231 950.206 196.231C943.249 196.231 937.609 201.876 937.609 208.839C937.609 215.802 943.249 221.447 950.206 221.447Z" fill="#503EAA"/>
        <path d="M1056.2 368.781H988.196L1004.6 313.832C1006.9 306.024 1014.1 300.716 1022.1 300.716C1030.19 300.716 1037.3 306.024 1039.59 313.832L1056.2 368.781Z" fill="#C0DBFF"/>
        <path d="M1033.8 307.734C1033.8 307.734 1022.3 305.328 1019.09 314.539C1015.89 323.751 1006.79 358.178 1006.79 358.178H990.788L1004.59 313.737C1004.59 313.737 1007.79 302.721 1015.29 301.53C1022.8 300.327 1029.4 299.325 1033.8 307.734Z" fill="#77A4F2"/>
        <path d="M1061.01 372.284H983.4L1001.2 312.735C1004.01 303.429 1012.4 297.119 1022.2 297.119C1032.01 297.119 1040.41 303.429 1043.2 312.735L1061.01 372.284ZM993.003 365.184H1051.4L1036.31 314.834C1034.41 308.524 1028.71 304.325 1022.2 304.325C1015.6 304.325 1010.01 308.524 1008.1 314.834L993.003 365.184Z" fill="#503EAA"/>
        <path d="M1072.89 359.876H970.697V372.591H1072.89V359.876Z" fill="#C0DBFF"/>
        <path d="M1000.1 358.178H969.401V374.088H1000.1V358.178Z" fill="#77A4F2"/>
        <path d="M1075 358.178H1056.8V374.088H1075V358.178Z" fill="white"/>
        <path d="M1072.91 359.876V372.591H970.709V359.876H1072.91ZM1072.91 352.776H970.709C966.808 352.776 963.603 355.984 963.603 359.888V372.602C963.603 376.506 966.808 379.714 970.709 379.714H1072.91C1076.81 379.714 1080.01 376.506 1080.01 372.602V359.888C1080 355.878 1076.81 352.776 1072.91 352.776Z" fill="#503EAA"/>
        <path d="M1027.91 346.372C1030.61 346.372 1032.81 344.175 1032.81 341.466C1032.81 338.756 1030.61 336.559 1027.91 336.559C1025.2 336.559 1023 338.756 1023 341.466C1023 344.175 1025.2 346.372 1027.91 346.372Z" fill="#8D86EB"/>
        <path d="M1027.91 331.452C1030.61 331.452 1032.81 329.256 1032.81 326.546C1032.81 323.836 1030.61 321.639 1027.91 321.639C1025.2 321.639 1023 323.836 1023 326.546C1023 329.256 1025.2 331.452 1027.91 331.452Z" fill="#FF8486"/>
</svg>
