<svg width="1129" height="929" viewBox="0 0 1129 929" fill="none" xmlns="http://www.w3.org/2000/svg">
<path d="M652.198 595.072C652.198 605.888 643.502 614.592 632.696 614.592H464.193C453.387 614.592 444.691 605.888 444.691 595.072C444.691 584.257 453.387 575.553 464.193 575.553H632.696C643.502 575.553 652.198 584.269 652.198 595.072Z" fill="#6B5EC6"/>
<path d="M626.298 614.964H470.697V886.313H626.298V614.964Z" fill="#6B5EC6"/>
<path d="M517.395 614.964H470.697V886.313H517.395V614.964Z" fill="#5E4FB9"/>
<path d="M626.298 614.964H579.6V886.313H626.298V614.964Z" fill="#8077DE"/>
<path d="M632.696 575.925H597.793V615.058H632.696C643.502 615.058 652.198 606.354 652.198 595.538C652.198 584.641 643.502 575.925 632.696 575.925Z" fill="#8077DE"/>
<path d="M499.107 575.925H464.205C453.399 575.925 444.703 584.629 444.703 595.444C444.703 606.259 453.399 614.964 464.205 614.964H499.107V575.925Z" fill="#5E4FB9"/>
<path d="M626.298 614.964H470.697V886.313H626.298V614.964Z" stroke="#503EAA" stroke-width="5.9405" stroke-miterlimit="8.4865" stroke-linejoin="round"/>
<path d="M571.799 886.403H556.198V639.59C556.198 635.285 559.698 631.782 563.999 631.782C568.3 631.782 571.799 635.285 571.799 639.59V886.403Z" fill="#503EAA"/>
<path d="M602.908 886.403H587.306V639.59C587.306 635.285 590.806 631.782 595.107 631.782C599.408 631.782 602.908 635.285 602.908 639.59V886.403Z" fill="#503EAA"/>
<path d="M540.703 886.403H525.102V639.59C525.102 635.285 528.601 631.782 532.902 631.782C537.203 631.782 540.703 635.285 540.703 639.59V886.403Z" fill="#503EAA"/>
<path d="M509.606 886.403H494.005V639.59C494.005 635.285 497.505 631.782 501.806 631.782C506.106 631.782 509.606 635.285 509.606 639.59V886.403Z" fill="#503EAA"/>
<path d="M652.008 595.072C652.008 605.888 643.312 614.592 632.506 614.592H464.003C453.197 614.592 444.501 605.888 444.501 595.072C444.501 584.257 453.197 575.553 464.003 575.553H632.506C643.312 575.553 652.008 584.269 652.008 595.072Z" stroke="#503EAA" stroke-width="5.9405" stroke-miterlimit="8.4865" stroke-linejoin="round"/>
<path d="M467.317 595.778H471.317V598.403C470.342 599.103 469.142 599.503 467.967 599.503C465.042 599.503 462.567 596.953 462.567 593.953C462.567 590.978 465.042 588.428 467.967 588.428C469.542 588.428 471.217 589.178 472.242 590.353L474.917 587.953C473.192 586.153 470.542 585.078 467.967 585.078C462.992 585.078 458.767 589.128 458.767 593.953C458.767 598.778 462.992 602.853 467.967 602.853C470.542 602.853 473.192 601.778 474.917 599.978V592.903H467.317V595.778ZM486.471 602.853C491.446 602.853 495.596 598.778 495.596 593.953C495.596 589.128 491.446 585.078 486.471 585.078C481.546 585.078 477.346 589.128 477.346 593.953C477.346 598.778 481.546 602.853 486.471 602.853ZM486.471 599.503C483.596 599.503 481.146 596.953 481.146 593.953C481.146 590.978 483.596 588.428 486.471 588.428C489.371 588.428 491.821 590.978 491.821 593.953C491.821 596.953 489.371 599.503 486.471 599.503ZM510.934 585.378L506.009 597.478L501.084 585.378H496.934L503.934 602.553H508.059L515.059 585.378H510.934ZM530.308 588.703V585.378H517.083V602.553H530.308V599.228H520.783V595.453H529.408V592.128H520.783V588.703H530.308ZM547.624 602.553L543.399 596.553C545.749 595.728 547.299 593.728 547.299 591.178C547.299 587.778 544.549 585.378 540.824 585.378H533.099V602.553H536.774V596.978H539.499L543.424 602.553H547.624ZM536.774 588.753H540.424C542.249 588.753 543.499 589.703 543.499 591.178C543.499 592.653 542.249 593.603 540.424 593.603H536.774V588.753ZM550.192 602.553H553.867V591.453L562.142 602.553H565.842V585.378H562.142V596.478L553.867 585.378H550.192V602.553ZM582.003 602.553H586.153L579.153 585.378H575.028L568.028 602.553H572.153L573.253 599.853H580.903L582.003 602.553ZM574.528 596.728L577.078 590.453L579.628 596.728H574.528ZM588.327 602.553H592.002V591.453L600.277 602.553H603.977V585.378H600.277V596.478L592.002 585.378H588.327V602.553ZM615.987 602.853C618.587 602.853 620.987 601.728 622.662 599.978L619.987 597.578C618.987 598.728 617.562 599.503 615.987 599.503C613.112 599.503 610.662 596.953 610.662 593.953C610.662 590.978 613.112 588.428 615.987 588.428C617.562 588.428 618.987 589.203 619.987 590.353L622.662 587.953C620.987 586.178 618.587 585.078 615.987 585.078C611.062 585.078 606.862 589.128 606.862 593.953C606.862 598.778 611.062 602.853 615.987 602.853ZM638.17 588.703V585.378H624.945V602.553H638.17V599.228H628.645V595.453H637.27V592.128H628.645V588.703H638.17Z" fill="#86D4C9"/>
<path d="M652.304 886.403H444.703V925.543H652.304V886.403Z" fill="#6B5EC6"/>
<path d="M652.21 886.403H597.805V925.543H652.21V886.403Z" fill="#8077DE"/>
<path d="M499.107 886.403H444.703V925.543H499.107V886.403Z" fill="#5A4AB5"/>
<path d="M652.198 886.403V925.443H444.703V886.403H652.198Z" stroke="#503EAA" stroke-width="5.9405" stroke-miterlimit="8.4865" stroke-linejoin="round"/>
<path d="M1125.1 395.862C1125.1 406.677 1116.41 415.381 1105.6 415.381H937.101C926.291 415.381 917.601 406.677 917.601 395.862C917.601 385.046 926.291 376.342 937.101 376.342H1105.6C1116.3 376.342 1125.1 385.058 1125.1 395.862Z" fill="#6B5EC6"/>
<path d="M1099.1 415.487H943.501V886.423H1099.1V415.487Z" fill="#6B5EC6"/>
<path d="M990.191 415.487H943.501V886.423H990.191V415.487Z" fill="#5E4FB9"/>
<path d="M1099.1 415.487H1052.4V886.423H1099.1V415.487Z" fill="#8077DE"/>
<path d="M1105.6 376.342H1070.7V415.476H1105.6C1116.41 415.476 1125.1 406.771 1125.1 395.956C1125.1 385.058 1116.3 376.342 1105.6 376.342Z" fill="#8077DE"/>
<path d="M972.001 376.342H937.101C926.291 376.342 917.601 385.046 917.601 395.862C917.601 406.677 926.291 415.381 937.101 415.381H972.001V376.342Z" fill="#5E4FB9"/>
<path d="M1099.1 415.487H943.501V886.423H1099.1V415.487Z" stroke="#503EAA" stroke-width="5.9405" stroke-miterlimit="8.4865" stroke-linejoin="round"/>
<path d="M1044.6 886.403H1029V439.996C1029 435.691 1032.5 432.188 1036.8 432.188C1041.1 432.188 1044.6 435.691 1044.6 439.996V886.403Z" fill="#503EAA"/>
<path d="M1075.8 886.403H1060.2V439.996C1060.2 435.691 1063.7 432.188 1068 432.188C1072.3 432.188 1075.8 435.691 1075.8 439.996V886.403Z" fill="#503EAA"/>
<path d="M1013.5 886.403H997.901V439.996C997.901 435.691 1001.4 432.188 1005.7 432.188C1010 432.188 1013.5 435.691 1013.5 439.996V886.403Z" fill="#503EAA"/>
<path d="M982.401 886.403H966.801V439.996C966.801 435.691 970.301 432.188 974.601 432.188C978.911 432.188 982.401 435.691 982.401 439.996V886.403Z" fill="#503EAA"/>
<path d="M1125.01 396.072C1125.01 406.888 1116.31 415.592 1105.5 415.592H937.001C926.201 415.592 917.501 406.888 917.501 396.072C917.501 385.257 926.201 376.553 937.001 376.553H1105.5C1116.2 376.553 1125.01 385.269 1125.01 396.072Z" stroke="#503EAA" stroke-width="5.9405" stroke-miterlimit="8.4865" stroke-linejoin="round"/>
<path d="M1125.1 886.403H917.501V925.543H1125.1V886.403Z" fill="#6B5EC6"/>
<path d="M1125.01 886.403H1070.6V925.543H1125.01V886.403Z" fill="#8077DE"/>
<path d="M971.911 886.403H917.501V925.543H971.911V886.403Z" fill="#5A4AB5"/>
<path d="M1125.1 886.403V925.553H917.501V886.403H1125.1Z" stroke="#503EAA" stroke-width="5.9405" stroke-miterlimit="8.4865" stroke-linejoin="round"/>
<path d="M979.681 403.853C984.661 403.853 988.811 399.778 988.811 394.953C988.811 390.128 984.661 386.078 979.681 386.078C974.761 386.078 970.561 390.128 970.561 394.953C970.561 399.778 974.761 403.853 979.681 403.853ZM979.681 400.503C976.811 400.503 974.361 397.953 974.361 394.953C974.361 391.978 976.811 389.428 979.681 389.428C982.581 389.428 985.031 391.978 985.031 394.953C985.031 397.953 982.581 400.503 979.681 400.503ZM1006.05 403.553L1001.82 397.553C1004.17 396.728 1005.72 394.728 1005.72 392.178C1005.72 388.778 1002.97 386.378 999.251 386.378H991.521V403.553H995.201V397.978H997.921L1001.85 403.553H1006.05ZM995.201 389.753H998.851C1000.67 389.753 1001.92 390.703 1001.92 392.178C1001.92 393.653 1000.67 394.603 998.851 394.603H995.201V389.753ZM1021.07 403.553H1025.22L1018.22 386.378H1014.09L1007.09 403.553H1011.22L1012.32 400.853H1019.97L1021.07 403.553ZM1013.59 397.728L1016.14 391.453L1018.69 397.728H1013.59ZM1035.69 403.853C1038.29 403.853 1040.69 402.728 1042.37 400.978L1039.69 398.578C1038.69 399.728 1037.27 400.503 1035.69 400.503C1032.82 400.503 1030.37 397.953 1030.37 394.953C1030.37 391.978 1032.82 389.428 1035.69 389.428C1037.27 389.428 1038.69 390.203 1039.69 391.353L1042.37 388.953C1040.69 387.178 1038.29 386.078 1035.69 386.078C1030.77 386.078 1026.57 390.128 1026.57 394.953C1026.57 399.778 1030.77 403.853 1035.69 403.853ZM1048.22 400.228V386.378H1044.52V403.553H1056.77V400.228H1048.22ZM1072.37 389.703V386.378H1059.15V403.553H1072.37V400.228H1062.85V396.453H1071.47V393.128H1062.85V389.703H1072.37Z" fill="#86D4C9"/>
<path d="M210.601 353.921C210.601 364.737 201.905 373.441 191.099 373.441H22.5958C11.7898 373.441 3.09375 364.737 3.09375 353.921C3.09375 343.106 11.7898 334.402 22.5958 334.402H191.099C201.905 334.414 210.601 343.118 210.601 353.921Z" fill="#6B5EC6"/>
<path d="M184.606 373.441H29.0059V886.853H184.606V373.441Z" fill="#6B5EC6"/>
<path d="M75.7039 373.441H29.0059V886.853H75.7039V373.441Z" fill="#5E4FB9"/>
<path d="M184.595 373.441H137.897V886.853H184.595V373.441Z" fill="#8077DE"/>
<path d="M191.099 334.308H156.197V373.441H191.099C201.905 373.441 210.601 364.737 210.601 353.921C210.601 343.118 201.799 334.308 191.099 334.308Z" fill="#8077DE"/>
<path d="M57.4978 334.308H22.5958C11.7898 334.308 3.09375 343.012 3.09375 353.827C3.09375 364.642 11.7898 373.347 22.5958 373.347H57.4978V334.308Z" fill="#5E4FB9"/>
<path d="M184.606 373.441H29.0059V886.853H184.606V373.441Z" stroke="#503EAA" stroke-width="5.9405" stroke-miterlimit="8.4865" stroke-linejoin="round"/>
<path d="M130.202 886.963H114.601V397.961C114.601 393.656 118.101 390.153 122.402 390.153C126.703 390.153 130.202 393.656 130.202 397.961V886.963Z" fill="#503EAA"/>
<path d="M161.299 886.963H145.697V397.961C145.697 393.656 149.197 390.153 153.498 390.153C157.799 390.153 161.299 393.656 161.299 397.961V886.963Z" fill="#503EAA"/>
<path d="M98.9999 886.963H83.5039V397.961C83.5039 393.656 87.0039 390.153 91.3049 390.153C95.6059 390.153 99.1059 393.656 99.1059 397.961V886.963H98.9999Z" fill="#503EAA"/>
<path d="M67.9028 886.963H52.3018V397.961C52.3018 393.656 55.8008 390.153 60.1018 390.153C64.4028 390.153 67.9028 393.656 67.9028 397.961V886.963Z" fill="#503EAA"/>
<path d="M211.008 354.072C211.008 364.888 202.312 373.592 191.506 373.592H23.003C12.197 373.592 3.50098 364.888 3.50098 354.072C3.50098 343.257 12.197 334.553 23.003 334.553H191.506C202.206 334.565 211.008 343.269 211.008 354.072Z" stroke="#503EAA" stroke-width="5.9405" stroke-miterlimit="8.4865" stroke-linejoin="round"/>
<path d="M210.601 886.963H3V926.093H210.601V886.963Z" fill="#6B5EC6"/>
<path d="M210.507 886.963H156.103V926.093H210.507V886.963Z" fill="#8077DE"/>
<path d="M57.404 886.963H3V926.093H57.404V886.963Z" fill="#5A4AB5"/>
<path d="M210.601 886.963V926.003H3V886.963H210.601Z" stroke="#503EAA" stroke-width="5.9405" stroke-miterlimit="8.4865" stroke-linejoin="round"/>
<path d="M82.6251 361.853C87.1751 361.853 90.4001 358.653 90.4001 354.128V344.378H86.7001V353.978C86.7001 356.628 85.0001 358.503 82.6251 358.503C80.2251 358.503 78.5251 356.628 78.5251 353.978V344.378H74.8501V354.128C74.8501 358.653 78.0501 361.853 82.6251 361.853ZM100.247 361.853C104.447 361.853 106.922 359.678 106.922 356.403C106.922 353.228 104.472 352.128 100.772 351.303C98.1221 350.703 97.0971 350.303 97.0971 349.053C97.0971 348.028 98.0471 347.203 99.6221 347.203C101.272 347.203 102.997 347.878 104.522 349.103L106.447 346.453C104.697 344.953 102.522 344.078 99.7221 344.078C95.9721 344.078 93.3721 346.253 93.3721 349.428C93.3721 352.753 95.9471 353.778 99.5721 354.603C102.197 355.203 103.197 355.578 103.197 356.803C103.197 357.878 102.247 358.728 100.397 358.728C98.2221 358.728 96.3721 357.878 94.7471 356.478L92.6221 359.003C94.6221 360.853 97.2721 361.853 100.247 361.853ZM122.793 347.703V344.378H109.568V361.553H122.793V358.228H113.268V354.453H121.893V351.128H113.268V347.703H122.793ZM140.108 361.553L135.883 355.553C138.233 354.728 139.783 352.728 139.783 350.178C139.783 346.778 137.033 344.378 133.308 344.378H125.583V361.553H129.258V355.978H131.983L135.908 361.553H140.108ZM129.258 347.753H132.908C134.733 347.753 135.983 348.703 135.983 350.178C135.983 351.653 134.733 352.603 132.908 352.603H129.258V347.753Z" fill="#86D4C9"/>
<path d="M239.706 214.862C238.009 214.862 236.607 213.458 236.607 211.654C236.607 210.852 236.902 210.05 237.503 209.448C250.9 196.038 250.9 174.313 237.503 160.903C236.301 159.7 236.207 157.695 237.408 156.504C238.61 155.301 240.614 155.206 241.804 156.409L241.898 156.504C257.699 172.32 257.699 198.043 241.898 213.954C241.297 214.555 240.602 214.862 239.706 214.862Z" fill="#503EAA"/>
<path d="M230.197 205.344C229.395 205.344 228.594 205.049 227.993 204.447C226.791 203.244 226.791 201.239 227.993 200.048C236.088 191.946 236.088 178.724 227.993 170.515C226.791 169.218 226.992 167.213 228.194 166.116C229.395 165.019 231.198 165.019 232.388 166.116C242.994 176.731 242.994 193.939 232.388 204.447C231.799 205.049 230.998 205.344 230.197 205.344Z" fill="#503EAA"/>
<path d="M220.699 195.838C219.002 195.838 217.6 194.434 217.6 192.736C217.6 191.934 217.895 191.132 218.496 190.53C221.394 187.629 221.394 182.923 218.496 180.022C217.294 178.819 217.294 176.813 218.496 175.622C219.698 174.419 221.701 174.419 222.891 175.622C228.194 181.024 228.194 189.634 222.891 195.036C222.302 195.543 221.501 195.838 220.699 195.838Z" fill="#503EAA"/>
<path d="M298.399 227.553C300.096 227.553 301.499 228.957 301.499 230.761C301.499 231.563 301.204 232.365 300.603 232.967C287.205 246.377 287.205 268.102 300.603 281.512C301.805 282.715 301.899 284.72 300.697 285.911C299.495 287.114 297.492 287.208 296.302 286.005L296.208 285.911C280.406 270.095 280.406 244.372 296.208 228.461C296.797 227.848 297.598 227.553 298.399 227.553Z" fill="#503EAA"/>
<path d="M307.897 237.059C308.698 237.059 309.5 237.354 310.101 237.956C311.303 239.159 311.303 241.164 310.101 242.355C302.005 250.457 302.005 263.679 310.101 271.888C311.303 273.185 311.102 275.19 309.9 276.287C308.698 277.384 306.896 277.384 305.705 276.287C295.1 265.672 295.1 248.464 305.705 237.956C306.306 237.366 307.108 237.059 307.897 237.059Z" fill="#503EAA"/>
<path d="M317.406 246.565C319.103 246.565 320.505 247.969 320.505 249.667C320.505 250.469 320.211 251.271 319.61 251.873C316.711 254.774 316.711 259.48 319.61 262.381C320.811 263.584 320.811 265.589 319.61 266.781C318.408 267.984 316.404 267.984 315.214 266.781C309.912 261.379 309.912 252.769 315.214 247.367C315.803 246.872 316.605 246.565 317.406 246.565Z" fill="#503EAA"/>
<path d="M851.611 271.857C849.911 271.857 848.511 270.454 848.511 268.649C848.511 267.847 848.811 267.045 849.411 266.444C862.811 253.034 862.811 231.309 849.411 217.899C848.211 216.696 848.111 214.691 849.311 213.5C850.521 212.308 852.521 212.202 853.711 213.405L853.801 213.5C869.611 229.316 869.611 255.039 853.801 270.949C853.311 271.551 852.511 271.857 851.611 271.857Z" fill="#503EAA"/>
<path d="M842.101 262.351C841.301 262.351 840.501 262.057 839.901 261.455C838.701 260.252 838.701 258.247 839.901 257.056C847.991 248.953 847.991 235.732 839.901 227.523C838.701 226.226 838.901 224.221 840.101 223.124C841.301 222.027 843.101 222.027 844.291 223.124C854.901 233.739 854.901 250.946 844.291 261.455C843.811 262.045 843.011 262.351 842.101 262.351Z" fill="#503EAA"/>
<path d="M832.601 252.833C830.911 252.833 829.511 251.43 829.511 249.731C829.511 248.929 829.801 248.127 830.401 247.526C833.301 244.625 833.301 239.919 830.401 237.017C829.201 235.814 829.201 233.809 830.401 232.618C831.601 231.415 833.611 231.415 834.801 232.618C840.101 238.02 840.101 246.63 834.801 252.031C834.301 252.538 833.511 252.833 832.601 252.833Z" fill="#503EAA"/>
<path d="M791.611 279.553C793.301 279.553 794.711 280.957 794.711 282.761C794.711 283.563 794.411 284.365 793.811 284.967C780.411 298.377 780.411 320.102 793.811 333.512C795.011 334.715 795.111 336.72 793.901 337.911C792.701 339.114 790.701 339.208 789.511 338.005L789.421 337.911C773.611 322.095 773.611 296.372 789.421 280.461C790.001 279.954 790.811 279.553 791.611 279.553Z" fill="#503EAA"/>
<path d="M801.101 289.165C801.911 289.165 802.711 289.46 803.311 290.062C804.511 291.265 804.511 293.27 803.311 294.461C795.211 302.564 795.211 315.785 803.311 323.994C804.511 325.291 804.311 327.296 803.111 328.393C801.911 329.49 800.101 329.49 798.911 328.393C788.311 317.778 788.311 300.57 798.911 290.062C799.501 289.46 800.301 289.165 801.101 289.165Z" fill="#503EAA"/>
<path d="M810.601 298.671C812.301 298.671 813.701 300.075 813.701 301.773C813.701 302.575 813.411 303.377 812.811 303.979C809.911 306.88 809.911 311.586 812.811 314.488C814.011 315.691 814.011 317.696 812.811 318.887C811.601 320.09 809.601 320.09 808.411 318.887C803.111 313.485 803.111 304.875 808.411 299.473C809.001 298.966 809.801 298.671 810.601 298.671Z" fill="#503EAA"/>
<path d="M539.756 326.7C539.756 328.399 538.353 329.802 536.55 329.802C535.749 329.802 534.948 329.507 534.347 328.906C520.949 315.496 499.244 315.496 485.846 328.906C484.644 330.109 482.641 330.203 481.451 329C480.249 327.797 480.155 325.792 481.357 324.601L481.451 324.507C497.253 308.691 522.952 308.691 538.848 324.507C539.461 325.096 539.756 325.898 539.756 326.7Z" fill="#503EAA"/>
<path d="M530.258 336.313C530.258 337.115 529.963 337.917 529.363 338.518C528.161 339.721 526.157 339.721 524.967 338.518C516.872 330.416 503.663 330.416 495.462 338.518C494.165 339.721 492.162 339.521 491.066 338.318C489.97 337.115 489.97 335.31 491.066 334.119C501.671 323.504 518.863 323.504 529.363 334.119C529.952 334.614 530.258 335.404 530.258 336.313Z" fill="#503EAA"/>
<path d="M520.761 345.819C520.761 347.517 519.358 348.921 517.662 348.921C516.86 348.921 516.059 348.626 515.458 348.024C512.559 345.123 507.858 345.123 504.959 348.024C503.757 349.227 501.754 349.227 500.564 348.024C499.374 346.821 499.362 344.816 500.564 343.625C505.961 338.318 514.563 338.318 519.959 343.625C520.454 344.12 520.761 344.923 520.761 345.819Z" fill="#503EAA"/>
<path d="M567.501 386.556C567.501 384.858 568.903 383.454 570.706 383.454C571.507 383.454 572.309 383.749 572.91 384.351C586.307 397.761 608.013 397.761 621.41 384.351C622.612 383.148 624.615 383.053 625.805 384.256C627.007 385.459 627.102 387.464 625.9 388.656L625.805 388.75C610.004 404.566 584.304 404.566 568.408 388.75C567.807 388.254 567.501 387.453 567.501 386.556Z" fill="#503EAA"/>
<path d="M577.01 377.05C577.01 376.248 577.305 375.446 577.906 374.844C579.108 373.641 581.111 373.641 582.301 374.844C590.396 382.947 603.605 382.947 611.807 374.844C613.103 373.641 615.106 373.842 616.202 375.045C617.298 376.248 617.298 378.052 616.202 379.244C605.597 389.859 588.405 389.859 577.906 379.244C577.399 378.654 577.01 377.946 577.01 377.05Z" fill="#503EAA"/>
<path d="M586.508 367.544C586.508 365.845 587.91 364.442 589.607 364.442C590.408 364.442 591.209 364.737 591.81 365.338C594.709 368.24 599.41 368.24 602.309 365.338C603.511 364.135 605.514 364.135 606.704 365.338C607.906 366.541 607.906 368.546 606.704 369.738C601.308 375.045 592.706 375.045 587.309 369.738C586.908 369.136 586.508 368.334 586.508 367.544Z" fill="#503EAA"/>
<path d="M665.611 555.814V539.703C665.611 539.703 671.801 525.585 670.111 525.184L629.903 511.172H632.508C637.504 511.172 641.604 507.068 641.604 502.067V501.265C641.604 496.264 637.504 492.16 632.508 492.16H611.804C611.003 476.851 604.498 462.533 593.304 451.623C582.11 440.714 567.404 434.51 551.708 433.708V427.705C554.313 426.502 556.104 423.907 556.104 420.793C556.104 416.594 552.698 413.186 548.503 413.186C544.308 413.186 540.903 416.594 540.903 420.793C540.903 423.895 542.706 426.502 545.298 427.705V433.708C529.603 434.51 514.897 440.714 503.703 451.623C492.402 462.533 485.898 476.851 485.203 492.16H464.499C459.503 492.16 455.402 496.264 455.402 501.265V502.067C455.402 507.068 459.503 511.172 464.499 511.172H466.997L433.002 522.188C431.305 522.589 430.303 524.288 430.704 525.986L426.91 530.987C431.211 525.479 428.112 536.695 428.913 537.19C429.408 537.485 431.812 537.19 432.413 537.19C432.707 537.19 434.015 535.693 434.31 535.693L434.51 541.602L431.305 555.814H411.509V578.235H685.511V555.814H665.611Z" fill="#C0DBFF"/>
<path d="M508.204 510.17H472.206V559.01H508.204V510.17Z" fill="#77A4F2"/>
<path d="M624.707 540.398L662.401 550.105V536.094L624.707 526.293V540.398Z" fill="#77A4F2"/>
<path d="M556.104 436.81C556.104 436.81 592.503 444.912 592.503 497.267L608.599 494.967C608.599 494.955 605.206 444.818 556.104 436.81Z" fill="white"/>
<path d="M542.8 436.81C542.8 436.81 506.401 444.912 506.401 497.267L490.305 494.955C490.305 494.955 493.699 444.818 542.8 436.81Z" fill="#77A4F2"/>
<path d="M636.208 497.267H592.904V504.674H636.208V497.267Z" fill="white"/>
<path d="M506.602 497.963H459.397V505.369H506.602V497.963Z" fill="#77A4F2"/>
<path d="M611.899 498.364H485.002V495.156C485.002 478.738 491.601 463.229 503.597 451.611C515.592 440.006 531.5 433.59 548.397 433.59C565.295 433.59 581.203 439.994 593.198 451.611C605.194 463.217 611.792 478.738 611.792 495.156V498.364H611.899ZM491.601 491.853H605.3C604.499 478.337 598.701 465.835 588.803 456.117C577.998 445.703 563.704 439.9 548.504 439.9C533.303 439.9 518.998 445.608 508.204 456.117C498.2 465.835 492.402 478.443 491.601 491.853Z" fill="#503EAA"/>
<path d="M583.1 495.156H576.595C576.595 480.342 573.39 465.823 567.793 455.421C562.49 445.608 555.491 440.006 548.397 440.006C541.398 440.006 534.293 445.608 529.002 455.421C523.405 465.835 520.2 480.342 520.2 495.156H513.695C513.695 479.045 517.101 463.83 523.299 452.413C529.803 440.301 538.7 433.602 548.397 433.602C558.095 433.602 566.897 440.312 573.496 452.413C579.706 463.83 583.1 479.045 583.1 495.156Z" fill="#503EAA"/>
<path d="M551.709 423.588H545.204V495.156H551.709V423.588Z" fill="#503EAA"/>
<path d="M628.006 562.218H469V505.263H628.006V562.218ZM475.399 555.814H621.502V511.774H475.399V555.814Z" fill="#503EAA"/>
<path d="M624.801 510.17H472.206V530.09H624.801V510.17Z" fill="#77A4F2"/>
<path d="M611.899 562.218H485.002V505.263H611.804V562.218H611.899ZM491.507 555.814H605.406V511.774H491.507V555.814Z" fill="#503EAA"/>
<path d="M682.301 559.022H643.608V574.932H682.301V559.022Z" fill="white"/>
<path d="M485.297 559.022H414.997V574.932H485.297V559.022Z" fill="#77A4F2"/>
<path d="M563.999 556.509V526.587C563.999 525.384 564.494 524.181 565.295 523.379C566.191 522.483 567.298 522.082 568.5 522.082C569.702 522.082 570.904 522.577 571.705 523.379C572.601 524.276 573.001 525.384 573.001 526.587V556.509H563.999Z" fill="#503EAA"/>
<path d="M568.606 522.884C569.608 522.884 570.609 523.285 571.304 523.981C572 524.677 572.4 525.585 572.4 526.587V555.719H564.8V526.587C564.8 525.585 565.201 524.689 565.896 523.981C566.697 523.179 567.605 522.884 568.606 522.884ZM568.606 521.186C567.204 521.186 565.802 521.787 564.812 522.79C563.81 523.792 563.209 525.089 563.209 526.587V555.719V557.323H564.812H572.412H574.015V555.719V526.587C574.015 525.184 573.414 523.78 572.412 522.79C571.399 521.787 570.103 521.186 568.606 521.186Z" fill="#503EAA"/>
<path d="M584.207 556.509V526.587C584.207 525.384 584.702 524.181 585.503 523.379C586.399 522.483 587.507 522.082 588.709 522.082C589.91 522.082 591.112 522.577 591.914 523.379C592.809 524.181 593.21 525.384 593.21 526.587V556.509H584.207Z" fill="#503EAA"/>
<path d="M588.803 522.884C589.804 522.884 590.806 523.285 591.501 523.981C592.196 524.677 592.597 525.585 592.597 526.587V555.719H584.997V526.587C584.997 525.585 585.397 524.689 586.093 523.981C586.8 523.179 587.801 522.884 588.803 522.884ZM588.803 521.186C587.401 521.186 585.998 521.787 585.009 522.79C584.007 523.792 583.406 525.196 583.406 526.587V555.719V557.323H585.009H592.609H594.211V555.719V526.587C594.211 525.184 593.611 523.78 592.609 522.79C591.607 521.787 590.205 521.186 588.803 521.186Z" fill="#503EAA"/>
<path d="M523.805 556.509V526.587C523.805 525.384 524.3 524.181 525.101 523.379C525.997 522.483 527.105 522.082 528.307 522.082C529.508 522.082 530.71 522.577 531.512 523.379C532.407 524.276 532.808 525.384 532.808 526.587V556.509H523.805Z" fill="#503EAA"/>
<path d="M528.401 522.884C529.402 522.884 530.404 523.285 531.099 523.981C531.794 524.677 532.195 525.585 532.195 526.587V555.719H524.595V526.587C524.595 525.585 524.995 524.689 525.691 523.981C526.398 523.179 527.305 522.884 528.401 522.884ZM528.401 521.186C526.999 521.186 525.596 521.787 524.606 522.79C523.605 523.792 523.004 525.089 523.004 526.587V555.719V557.323H524.606H532.207H533.809V555.719V526.587C533.809 525.184 533.208 523.78 532.207 522.79C531.099 521.787 529.803 521.186 528.401 521.186Z" fill="#503EAA"/>
<path d="M543.896 556.509V526.587C543.896 525.384 544.391 524.181 545.192 523.379C546.088 522.483 547.195 522.082 548.397 522.082C549.599 522.082 550.801 522.577 551.602 523.379C552.498 524.181 552.899 525.384 552.899 526.587V556.509H543.896Z" fill="#503EAA"/>
<path d="M548.503 522.884C549.505 522.884 550.506 523.285 551.202 523.981C551.897 524.677 552.298 525.585 552.298 526.587V555.719H544.697V526.587C544.697 525.585 545.098 524.689 545.793 523.981C546.5 523.179 547.502 522.884 548.503 522.884ZM548.503 521.186C547.101 521.186 545.699 521.787 544.709 522.79C543.707 523.792 543.106 525.196 543.106 526.587V555.719V557.323H544.709H552.309H553.912V555.719V526.587C553.912 525.184 553.311 523.78 552.309 522.79C551.296 521.787 549.906 521.186 548.503 521.186Z" fill="#503EAA"/>
<path d="M503.597 556.509V526.587C503.597 525.384 504.092 524.181 504.893 523.379C505.788 522.483 506.896 522.082 508.098 522.082C509.3 522.082 510.502 522.577 511.303 523.379C512.199 524.276 512.599 525.384 512.599 526.587V556.509H503.597Z" fill="#503EAA"/>
<path d="M508.204 522.884C509.206 522.884 510.207 523.285 510.902 523.981C511.598 524.677 511.998 525.585 511.998 526.587V555.719H504.398V526.587C504.398 525.585 504.799 524.689 505.494 523.981C506.201 523.179 507.202 522.884 508.204 522.884ZM508.204 521.186C506.802 521.186 505.399 521.787 504.41 522.79C503.408 523.792 502.807 525.089 502.807 526.587V555.719V557.323H504.41H512.01H513.613V555.719V526.587C513.613 525.184 513.012 523.78 512.01 522.79C510.997 521.787 509.606 521.186 508.204 521.186Z" fill="#503EAA"/>
<path d="M632.508 498.564C634.004 498.564 635.206 499.767 635.206 501.265V502.067C635.206 503.565 634.004 504.768 632.508 504.768H464.499C463.003 504.768 461.801 503.565 461.801 502.067V501.265C461.801 499.767 463.003 498.564 464.499 498.564H632.508ZM632.508 492.16H464.499C459.503 492.16 455.402 496.264 455.402 501.265V502.067C455.402 507.068 459.503 511.172 464.499 511.172H632.496C637.492 511.172 641.593 507.068 641.593 502.067V501.265C641.605 496.264 637.504 492.16 632.508 492.16Z" fill="#503EAA"/>
<path d="M685.501 578.235H411.497V555.814H685.501V578.235ZM417.907 571.724H679.001V562.218H417.907V571.724Z" fill="#503EAA"/>
<path d="M472.206 526.187L434.31 535.598C431.011 536.4 427.605 534.301 426.91 530.892C426.215 527.684 428.206 524.582 431.305 523.78L472.206 513.071V526.187Z" fill="#77A4F2"/>
<path d="M432.802 538.995C431.105 538.995 429.396 538.5 427.9 537.592C425.696 536.188 424.294 534.089 423.705 531.588C422.703 526.788 425.708 521.976 430.41 520.679L471.31 509.969C472.312 509.675 473.313 509.969 474.114 510.571C474.916 511.172 475.411 512.175 475.411 513.177V526.187C475.411 527.684 474.409 528.994 473.007 529.288L435.111 538.7C434.298 538.995 433.497 538.995 432.802 538.995ZM468.906 517.376L432 527.083C430.504 527.484 429.597 528.887 429.903 530.385C430.103 531.187 430.504 531.789 431.199 532.19C431.894 532.591 432.601 532.685 433.403 532.591L468.906 523.78V517.376Z" fill="#503EAA"/>
<path d="M472.206 559.022H434.499V536.094L472.206 526.293V559.022Z" fill="#77A4F2"/>
<path d="M475.399 562.218H431.293V533.593L475.399 522.082V562.218ZM437.703 555.814H468.906V530.491L437.703 538.594V555.814Z" fill="#503EAA"/>
<path d="M624.707 526.187L662.601 535.598C665.901 536.4 669.311 534.301 670.001 530.892C670.701 527.684 668.711 524.582 665.611 523.78L624.707 513.071V526.187Z" fill="white"/>
<path d="M664.101 538.995C663.301 538.995 662.601 538.901 661.801 538.7L623.906 529.288C622.504 528.887 621.502 527.684 621.502 526.187V513.178C621.502 512.175 621.997 511.279 622.798 510.571C623.599 509.863 624.601 509.769 625.603 509.97L666.501 520.679C671.301 521.976 674.201 526.682 673.211 531.588C672.711 534.089 671.201 536.188 669.011 537.592C667.601 538.594 665.901 538.995 664.101 538.995ZM628.006 523.686L663.511 532.496C664.311 532.697 665.011 532.591 665.711 532.095C666.411 531.694 666.811 530.999 667.011 530.291C667.301 528.793 666.411 527.39 664.911 526.989L628.006 517.282V523.686Z" fill="#503EAA"/>
<path d="M665.611 562.218H621.502V522.082L665.611 533.593V562.218ZM628.006 555.814H659.211V538.594L628.006 530.491V555.814Z" fill="#503EAA"/>
<path d="M548.503 428.4C552.701 428.4 556.104 424.994 556.104 420.793C556.104 416.592 552.701 413.186 548.503 413.186C544.306 413.186 540.903 416.592 540.903 420.793C540.903 424.994 544.306 428.4 548.503 428.4Z" fill="#503EAA"/>
<path d="M454.2 550.518C457.129 550.518 459.503 548.142 459.503 545.211C459.503 542.279 457.129 539.903 454.2 539.903C451.272 539.903 448.898 542.279 448.898 545.211C448.898 548.142 451.272 550.518 454.2 550.518Z" fill="#503EAA"/>
<path d="M643.608 550.518C646.536 550.518 648.91 548.142 648.91 545.211C648.91 542.279 646.536 539.903 643.608 539.903C640.679 539.903 638.305 542.279 638.305 545.211C638.305 548.142 640.679 550.518 643.608 550.518Z" fill="#503EAA"/>
<path d="M48.6958 205.491L70.0008 220.705L98.3988 188.177C78.4018 186.974 58.0048 197.577 48.6958 205.491Z" fill="#77A4F2"/>
<path d="M46.9048 248.929C50.5108 256.631 47.7059 265.642 40.5069 268.944C31.8109 273.048 15.3018 271.951 6.11084 267.941C8.91484 258.235 18.7069 244.919 27.5099 240.921C34.6029 237.618 43.2988 241.227 46.9048 248.929Z" fill="#FF8486"/>
<path d="M177.407 192.175L189.709 186.373L187.305 181.372L175.003 187.175L177.407 192.175Z" fill="#503EAA"/>
<path d="M52.9971 205.986C52.9971 205.986 69.1991 193.178 87.3931 190.878C98.8941 189.38 87.3931 199.287 87.3931 199.287C87.3931 199.287 73.2061 196.28 52.9971 205.986Z" fill="white"/>
<path d="M46.9991 207.991C46.5991 207.696 46.3041 207.39 46.1041 206.989C45.9031 206.588 45.8091 206.092 45.7031 205.691C45.7031 205.196 45.7971 204.795 45.9031 204.394C46.1041 203.993 46.3981 203.592 46.7051 203.297C56.8031 194.793 71.9101 187.988 87.0041 185.276H87.2991L88.3951 191.279H88.1001C75.7041 193.484 62.8951 198.78 53.7981 205.491L72.0041 218.5L68.5041 223.501L46.9991 207.991Z" fill="#503EAA"/>
<path d="M87.2051 185.476L88.2061 190.984C75.6101 193.284 62.6011 198.686 53.5041 205.397L71.8041 218.406L68.5981 222.911L47.2941 207.696C46.9991 207.496 46.6931 207.095 46.4931 206.8C46.2921 206.399 46.1981 205.998 46.1981 205.597C46.1981 205.196 46.2921 204.795 46.3981 204.394C46.5991 203.993 46.7991 203.698 47.0941 203.392C57.0041 194.876 72.0041 188.177 87.2051 185.476ZM87.6051 184.875L87.1101 184.969C71.9101 187.67 56.8151 194.475 46.7051 202.991C46.3041 203.285 46.0101 203.686 45.8091 204.194C45.6091 204.689 45.5151 205.196 45.5151 205.691C45.5151 206.187 45.7151 206.694 45.9151 207.095C46.1161 207.496 46.5161 207.897 46.9171 208.192L68.2211 223.406L68.6221 223.701L68.9171 223.3L72.1221 218.795L72.4161 218.394L72.0161 218.099L54.3171 205.491C63.4141 198.98 76.0221 193.779 88.2181 191.574L88.7131 191.479L88.6191 190.984L87.6171 185.476L87.6051 184.875Z" fill="#503EAA"/>
<path d="M201.104 176.265C199.206 172.16 194.305 170.356 190.204 172.361C186.103 174.26 184.3 179.166 186.304 183.271C188.201 187.375 193.103 189.18 197.203 187.175C201.304 185.17 203.001 180.369 201.104 176.265Z" fill="#503EAA"/>
<path d="M55.4012 249.33C59.3962 256.242 68.7992 263.448 68.7992 263.448L78.4022 242.03L70.4012 222.416L50.9002 222.215C44.5962 225.305 51.4072 242.419 55.4012 249.33Z" fill="#77A4F2"/>
<path d="M72.499 231.014L51.395 239.022L49.792 230.412L70.896 227.511L72.499 231.014Z" fill="white"/>
<path d="M69.3059 265.842C66.2069 265.842 58.111 264.037 50.205 247.325C46.41 239.222 44.8079 232.417 45.6089 227.003C46.4099 221.295 49.4029 219.396 50.6049 218.795C53.0089 217.698 60.503 217.497 63.602 217.497C65.9 217.497 68.198 217.592 70.201 217.698H70.4959L70.0949 223.807H69.8009C67.7969 223.713 65.7 223.607 63.602 223.607C58.1 223.607 53.9989 224.008 53.1979 224.303C52.3019 224.704 48.8019 230.105 55.8019 244.718C62.7069 259.332 68.7049 259.733 69.3999 259.733C69.6939 259.733 69.8949 259.638 70.0009 259.638C71.0969 259.037 76.305 253.635 81.007 247.124L81.2069 246.924L86.1089 250.533L85.9089 250.734C82.1139 255.935 75.4089 263.849 72.6049 265.146C71.6029 265.641 70.4959 265.842 69.3059 265.842Z" fill="#503EAA"/>
<path d="M63.697 217.804C65.995 217.804 68.292 217.898 70.201 218.005L69.907 223.607C67.703 223.512 65.606 223.406 63.602 223.406C58.206 223.406 53.9989 223.807 53.1029 224.102C51.9019 224.704 48.508 230.212 55.507 244.919C61.611 257.834 67.2079 260.134 69.3059 260.134C69.5999 260.134 69.8009 260.134 70.0009 260.039C71.0969 259.343 76.399 253.93 81.101 247.431L85.602 250.734C81.808 255.935 75.1029 263.849 72.4049 265.146C71.6029 265.547 70.5079 265.842 69.3059 265.842C64.5099 265.842 57.3099 261.938 50.4049 247.526C41.8029 229.41 46.505 221.201 50.7 219.302C52.703 218.099 58.3 217.804 63.697 217.804ZM63.697 217.297C60.598 217.297 52.9969 217.391 50.5939 218.594C46.2929 220.599 41.2959 229.009 50.0989 247.526C57.9939 264.344 66.3009 266.137 69.3999 266.137C70.6019 266.137 71.8039 265.936 72.6989 265.441C75.5979 264.037 82.397 255.935 86.097 250.922L86.3919 250.521L85.9909 250.226L81.49 246.924L81.089 246.629L80.795 247.03C75.999 253.635 70.79 258.942 69.895 259.544C69.895 259.544 69.801 259.544 69.494 259.544C68.893 259.544 62.99 259.143 56.096 244.636C52.396 236.828 51.7949 231.922 51.9019 229.127C51.9959 225.824 53.1979 224.621 53.5039 224.527C54.1989 224.232 58.3 223.831 63.8029 223.831C65.8999 223.831 67.9979 223.925 70.0009 224.031H70.4959V223.536L70.7899 218.028V217.533H70.295C68.198 217.297 66.006 217.297 63.697 217.297Z" fill="#503EAA"/>
<path d="M70.1069 220.706L83.4099 248.929C109.016 257.633 172.706 239.718 174.909 188.378C133.797 157.547 79.6039 195.383 70.1069 220.706Z" fill="#C0DBFF"/>
<path d="M138.899 240.72C110.3 254.237 84.6949 254.331 84.6949 254.331L75.6919 235.319C130.297 229.209 169.795 195.678 172.894 188.672C170.396 205.491 167.497 227.204 138.899 240.72Z" fill="#77A4F2"/>
<path d="M111.396 185.37C82.3969 199.087 70.4009 219.302 70.4009 219.302L74.1959 227.31C80.8999 216.896 89.5969 205.786 116.993 192.883C144.39 179.968 162.088 186.88 173.094 191.385C166.201 181.867 140.407 171.653 111.396 185.37Z" fill="white"/>
<path d="M98.1041 254.036C92.1061 254.036 86.7091 253.234 82.4081 251.83L81.5131 251.536L80.9121 250.84C77.6121 246.535 74.7141 241.829 72.3101 236.923C68.1151 228.018 67.0071 221.507 67.0071 221.213L66.9131 220.411L67.2081 219.609C72.9111 204.394 94.3101 184.273 120.21 176.772C127.009 174.767 133.808 173.764 140.407 173.764C153.71 173.764 166.012 177.869 176.711 185.971L178.008 186.974L177.913 188.578C176.817 214.006 161.617 229.516 149.115 238.126C145.32 240.732 141.314 243.032 137.119 244.931C124.899 250.734 110.7 254.036 98.1041 254.036ZM85.2011 246.323C88.8071 247.419 93.4021 248.021 98.3041 248.021C114.306 248.021 132.005 242.419 145.709 233.113C156.715 225.612 170.207 211.99 171.809 189.97C162.406 183.365 151.907 179.956 140.407 179.956C134.409 179.956 128.211 180.853 122.001 182.657C97.7981 189.769 78.8031 207.685 73.3001 221.095C74.3011 225.694 75.9041 230.2 77.8951 234.41C79.8981 238.515 82.3971 242.525 85.2011 246.323Z" fill="#503EAA"/>
<path d="M140.407 173.965C151.707 173.965 164.41 176.972 176.606 186.078L177.807 186.974L177.713 188.472C176.617 213.794 161.511 229.304 149.009 237.819C145.214 240.426 141.208 242.725 137.107 244.624C124.004 250.828 109.911 253.729 98.21 253.729C92.212 253.729 86.8159 252.927 82.6089 251.524L81.808 251.229L81.313 250.533C78.013 246.228 75.1149 241.522 72.7109 236.616C68.5159 227.806 67.514 221.201 67.408 221L67.3139 220.305L67.6089 219.609C73.3119 204.5 94.6039 184.379 120.41 176.866C125.996 175.262 132.901 173.965 140.407 173.965ZM98.304 248.233C112.504 248.233 130.803 243.527 145.804 233.219C156.998 225.518 170.502 211.801 171.998 189.675C161.299 182.068 150.199 179.567 140.301 179.567C133.396 179.567 127.103 180.77 121.801 182.268C98.1039 189.18 78.603 207.095 72.899 220.906C73.901 225.506 75.503 230.011 77.601 234.316C79.698 238.621 82.1959 242.619 85.0949 246.523C88.8069 247.726 93.296 248.233 98.304 248.233ZM140.407 173.458V173.953V173.458C133.808 173.458 127.009 174.46 120.104 176.465C94.2039 183.966 72.6989 204.288 66.9019 219.503L66.6069 220.198V220.293V220.387L66.701 221.083C66.701 221.378 67.7969 227.888 72.0039 236.899C74.4079 241.805 77.401 246.511 80.7 250.911L81.1949 251.606L81.2889 251.701H81.489L82.291 251.996C86.592 253.494 92.0949 254.201 98.0919 254.201C110.689 254.201 124.994 250.899 137.296 245.096C141.491 243.091 145.497 240.791 149.291 238.185C161.888 229.575 177.089 213.959 178.196 188.436L178.291 186.939V186.644L178.09 186.443L176.888 185.547C166.106 177.562 153.805 173.458 140.407 173.458ZM73.4999 221C79.0029 207.685 97.9039 189.875 122.001 182.87C128.199 181.065 134.397 180.169 140.407 180.169C151.801 180.169 162.312 183.471 171.609 190.076C170.007 211.895 156.609 225.411 145.709 232.913C132.099 242.218 114.401 247.832 98.5049 247.832C93.6029 247.832 89.208 247.231 85.602 246.228C82.797 242.525 80.405 238.421 78.296 234.316C76.104 230.011 74.5019 225.506 73.4999 221Z" fill="#503EAA"/>
<path d="M67.397 278.356C82.491 277.86 132.594 255.64 144.401 217.698C107.696 242.124 78.002 241.015 78.002 241.015L67.397 278.356Z" fill="#77A4F2"/>
<path d="M126.396 232.217C126.396 232.217 116.592 254.838 72.9941 274.558C91.4941 273.355 131.793 255.345 140.195 225.812C141.503 221.201 126.396 232.217 126.396 232.217Z" fill="white"/>
<path d="M67.3962 281.363C66.9962 281.363 66.5012 281.269 66.1002 281.069C65.7002 280.868 65.2992 280.573 65.0042 280.172C64.7102 279.771 64.5092 279.37 64.4032 278.875C64.2972 278.379 64.3092 277.872 64.4982 277.471L75.1032 240.143C75.3032 239.541 75.7042 238.94 76.1992 238.539C76.6942 238.138 77.4012 237.937 78.0022 237.937C79.2032 237.937 107.602 237.536 144.001 217.321C144.496 217.12 145.002 216.92 145.497 216.92C145.591 216.92 145.698 216.92 145.792 216.92C146.393 217.014 146.994 217.215 147.489 217.616C147.983 218.017 148.29 218.512 148.49 219.113C148.691 219.715 148.691 220.316 148.49 220.918C141.785 242.537 123.486 257.35 109.287 265.854C105.292 268.26 101.191 270.454 96.9852 272.459C85.8962 277.66 74.3022 281.163 67.3962 281.363ZM71.6032 274.759C89.0072 271.657 126.102 254.543 139.7 226.508C110.3 241.322 87.0982 243.622 80.4052 243.929L71.6032 274.759Z" fill="#503EAA"/>
<path d="M145.497 217.203C145.591 217.203 145.697 217.203 145.697 217.203C146.298 217.203 146.793 217.498 147.194 217.804C147.595 218.205 147.889 218.606 148.089 219.208C148.29 219.703 148.29 220.305 148.089 220.812C141.385 242.336 123.191 257.044 109.086 265.653C105.092 268.059 101.085 270.253 96.8902 272.258C84.8952 277.967 73.7952 281.068 67.4912 281.269H67.3962C66.9962 281.269 66.5952 281.175 66.1942 280.974C65.7942 280.774 65.4992 280.479 65.1932 280.172C64.8982 279.877 64.6982 279.476 64.6982 278.969C64.6042 278.568 64.6042 278.073 64.7922 277.672L75.3972 240.343C75.5982 239.741 75.8922 239.246 76.3992 238.845C76.8942 238.444 77.4952 238.244 78.0962 238.244C78.3902 238.244 107.401 238.043 144.295 217.521C144.602 217.297 145.002 217.203 145.497 217.203ZM140.206 225.907C110.512 241.015 87.1102 243.327 80.1112 243.728L71.2142 275.16C88.2062 272.246 126.596 255.039 140.206 225.907ZM145.497 216.601C144.896 216.601 144.401 216.695 143.895 217.002C107.495 237.217 79.1922 237.618 77.9902 237.618C77.2952 237.618 76.5882 237.819 75.9872 238.314C75.3862 238.715 74.9852 239.317 74.7852 240.013L64.1802 277.341C64.0852 277.837 63.9792 278.344 64.0852 278.839C64.1912 279.335 64.3802 279.842 64.6862 280.243C64.9812 280.644 65.3812 280.939 65.8882 281.245C66.2892 281.446 66.7842 281.54 67.2902 281.54H67.3852C74.3842 281.34 85.6842 277.837 96.9852 272.529C101.18 270.524 105.28 268.331 109.287 265.925C123.486 257.315 141.785 242.501 148.584 220.788C148.785 220.187 148.785 219.491 148.584 218.889C148.384 218.288 147.983 217.686 147.489 217.285C146.994 216.884 146.393 216.589 145.686 216.589C145.697 216.601 145.603 216.601 145.497 216.601ZM80.5002 244.223C87.4052 243.822 110.194 241.416 139.004 227.11C125.3 254.437 89.3022 271.256 71.9092 274.452L80.5002 244.223Z" fill="#503EAA"/>
<path d="M129.201 169.955C120.999 166.947 111.903 167.348 103.996 171.052C96.1009 174.755 89.9969 181.466 86.9919 189.663C83.9879 197.872 84.3879 206.977 88.0879 214.891C95.7829 231.403 155.384 203.486 147.689 187.068C144.107 179.06 137.402 172.962 129.201 169.955Z" fill="#77A4F2"/>
<path d="M139.5 192.682C136.295 185.971 130.603 180.876 123.698 178.364C116.793 175.864 109.193 176.159 102.594 179.261C95.9949 182.362 90.893 187.965 88.395 194.876C85.897 201.788 86.191 209.395 89.196 216.2C95.701 230.212 146.098 206.694 139.5 192.682Z" fill="#503EAA"/>
<path d="M99.106 222.911C92.201 222.911 87.4049 220.611 85.3069 216.106C81.3129 207.402 80.806 197.683 84.105 188.684C87.31 179.673 93.909 172.467 102.511 168.363L102.605 168.268C106.906 166.263 111.502 165.166 116.204 164.966C116.698 164.966 117.299 164.966 117.806 164.966C122.001 164.966 126.102 165.662 130.108 167.171C134.609 168.775 138.604 171.276 142.104 174.472C145.603 177.68 148.408 181.478 150.399 185.783C155.195 196.091 141.302 208.404 125.3 215.905L124.9 216.106C115.603 220.399 106.199 222.911 99.106 222.911ZM117.9 171.064C113.505 171.064 109.298 171.96 105.304 173.871L105.21 173.965C98.01 177.374 92.6129 183.377 89.9149 190.878C87.2159 198.379 87.617 206.493 90.916 213.7C91.918 215.799 94.7099 217.002 99.1169 217.002C105.316 217.002 113.823 214.702 122.413 210.692L122.814 210.492C137.814 203.38 147.512 193.673 145.014 188.366C141.609 181.159 135.611 175.652 128.117 172.951C124.805 171.653 121.4 171.064 117.9 171.064Z" fill="#503EAA"/>
<path d="M117.9 165.249C122.095 165.249 126.196 165.945 130.096 167.348C134.491 168.952 138.592 171.453 141.998 174.555C145.497 177.763 148.302 181.56 150.199 185.771C154.995 195.985 141.102 208.086 125.194 215.599L124.794 215.799C115.991 219.904 106.588 222.604 98.9878 222.604C92.6838 222.604 87.6878 220.706 85.4838 216C81.4898 207.39 81.0888 197.683 84.2818 188.778C87.4868 179.874 94.0858 172.668 102.582 168.563L102.676 168.469C106.871 166.464 111.478 165.367 116.18 165.166C116.899 165.249 117.405 165.249 117.9 165.249ZM99.1058 217.096C105.104 217.096 113.611 214.891 122.508 210.787L122.908 210.586C138.003 203.474 147.807 193.673 145.203 188.165C141.797 180.959 135.705 175.357 128.199 172.55C124.9 171.347 121.4 170.745 117.9 170.745C113.505 170.745 109.204 171.641 105.198 173.552L105.104 173.646C97.9038 177.055 92.3068 183.153 89.6078 190.666C86.9098 198.167 87.3108 206.375 90.6098 213.688C91.7058 216 94.8048 217.096 99.1058 217.096ZM117.9 164.647C117.405 164.647 116.805 164.647 116.298 164.647C111.502 164.848 106.895 165.945 102.594 168.056L102.499 168.15C93.8028 172.255 87.2038 179.555 83.9048 188.672C80.6058 197.789 81.1008 207.59 85.1068 216.294C87.2038 220.8 92.1058 223.206 99.1058 223.206C106.211 223.206 115.709 220.706 125.1 216.294L125.501 216.094C141.597 208.487 155.702 196.079 150.8 185.57C148.797 181.266 146.004 177.362 142.398 174.165C138.899 170.957 134.798 168.457 130.297 166.865C126.302 165.449 122.201 164.647 117.9 164.647ZM99.1058 216.601C94.9108 216.601 92.1058 215.504 91.1048 213.499C87.8048 206.387 87.4048 198.285 90.1028 190.878C92.8018 183.471 98.1978 177.468 105.304 174.165L105.398 174.071C109.298 172.267 113.599 171.264 117.9 171.264C121.4 171.264 124.805 171.866 127.999 173.069C135.399 175.769 141.397 181.171 144.696 188.377C145.792 190.784 144.295 194.381 140.301 198.391C136.2 202.495 129.896 206.694 122.602 210.103L122.201 210.303C113.705 214.301 105.304 216.601 99.1058 216.601Z" fill="#503EAA"/>
<path d="M69.4001 264.144C65.9941 264.639 59.3011 252.231 61.7051 255.039C64.1091 257.846 70.6021 252.538 73.5001 246.429C73.6061 246.429 72.8051 263.743 69.4001 264.144Z" fill="#503EAA"/>
<path d="M522.002 119.912L479.004 177.668C473.301 185.275 484.602 203.391 504.304 218.004C523.899 232.724 544.509 238.326 550.2 230.719L593.304 172.962C599.007 165.355 587.707 147.239 568.005 132.626C548.303 118.013 527.599 112.305 522.002 119.912Z" fill="#C0DBFF"/>
<path d="M594.532 173.875C600.212 166.25 588.664 148.014 568.739 133.143C548.814 118.273 528.057 112.398 522.377 120.022C516.697 127.647 528.245 145.882 548.17 160.753C568.095 175.624 588.852 181.499 594.532 173.875Z" fill="white"/>
<path d="M348.903 74.2681L389.203 20.2151C391.606 17.0071 396.108 16.4171 399.301 18.7171L506 98.3872C509.205 100.793 509.795 105.299 507.497 108.495L467.197 162.548C464.794 165.756 460.292 166.346 457.099 164.046L350.4 84.3761C347.206 81.8751 346.499 77.3701 348.903 74.2681Z" fill="#C0DBFF"/>
<path d="M396.273 32.583L354.966 88.029L463.283 168.872L504.59 113.425L396.273 32.583Z" fill="#77A4F2"/>
<path d="M565.908 236.522L605.806 182.468C608.21 179.26 612.605 178.671 615.811 180.971L722.411 259.945C725.621 262.351 726.211 266.75 723.911 269.958L684.011 324.011C681.611 327.219 677.211 327.809 674.011 325.509L567.404 246.535C564.199 244.223 563.504 239.718 565.908 236.522Z" fill="#C0DBFF"/>
<path d="M616.01 196.61L575.023 252.041L683.221 332.189L724.201 276.758L616.01 196.61Z" fill="#77A4F2"/>
<path d="M483.6 203.993L528.401 143.831L518.597 128.121L473.796 188.271L483.6 203.993Z" fill="white"/>
<path d="M561.406 169.66L520.306 224.916L543.908 231.922C543.908 231.922 555.409 222.911 559.109 217.403C562.809 211.895 587.412 179.567 587.412 179.567L561.406 169.66Z" fill="#77A4F2"/>
<path d="M510.997 111.208L470.697 165.261C466.797 170.462 459.503 171.571 454.295 167.667L347.595 87.997C342.399 84.093 341.291 76.78 345.192 71.579L385.491 17.526C389.391 12.325 396.685 11.216 401.894 15.12L508.593 94.79C513.801 98.588 514.897 105.9 510.997 111.208C510.997 111.208 511.103 111.208 510.997 111.208ZM352.497 76.969C351.602 78.172 351.896 79.776 352.992 80.672L459.692 160.343C460.893 161.239 462.496 161.038 463.392 159.847L503.691 105.794C504.586 104.591 504.292 102.987 503.196 102.091L396.497 22.315C395.295 21.418 393.692 21.619 392.797 22.81L352.497 76.969Z" fill="#503EAA"/>
<path d="M596.804 175.758L589.498 170.356C592.503 166.251 584.396 150.636 565.2 136.329C546.005 122.011 528.695 118.615 525.596 122.719L518.291 117.317C526.786 105.806 551.096 114.616 570.586 129.123C590.099 143.536 605.3 164.258 596.804 175.758Z" fill="#503EAA"/>
<path d="M591.838 165.558C595.864 160.153 586.711 146.504 571.392 135.071C556.074 123.639 540.392 118.752 536.366 124.157C532.339 129.562 541.493 143.211 556.811 154.644C572.129 166.077 587.811 170.963 591.838 165.558Z" fill="#C0DBFF"/>
<path d="M596.804 175.758C588.308 187.269 563.999 178.458 544.509 163.952C525.019 149.445 509.807 128.722 518.314 117.211L525.62 122.613C522.615 126.611 530.816 142.333 549.917 156.639C569.113 170.957 586.517 174.26 589.522 170.356L596.804 175.758Z" fill="#503EAA"/>
<path d="M513.601 189.58C507.803 184.58 502.701 178.765 498.6 172.267L489.504 184.474C493.699 190.878 498.707 196.681 504.504 201.693L513.601 189.58Z" fill="#503EAA"/>
<path d="M487.006 202.082L466.608 212.39C466.608 212.39 464.911 223.005 475.705 234.009C486.511 245.025 496.008 248.917 496.008 248.917L513.707 225.199L487.006 202.082Z" fill="#C0DBFF"/>
<path d="M525.502 173.564C519.705 168.563 514.602 162.749 510.407 156.25L505.211 163.161C509.406 169.566 514.414 175.368 520.211 180.381L525.502 173.564Z" fill="#503EAA"/>
<path d="M509.406 223.206L493.404 247.325C493.404 247.325 495.006 249.531 504.798 253.034C514.602 256.536 525.903 256.536 528.495 250.026C531.099 243.516 530.698 235.413 526.398 232.111C522.097 228.808 509.406 223.206 509.406 223.206Z" fill="#77A4F2"/>
<path d="M488.396 206.293L467.398 222.404L466.502 203.887L482.905 199.782L488.396 206.293Z" fill="white"/>
<path d="M596.804 175.758L553.806 233.514C545.31 245.025 521.001 236.215 501.511 221.708C482.009 207.189 466.809 186.479 475.316 174.967L518.42 117.211C526.916 105.7 551.225 114.51 570.715 129.017C590.099 143.536 605.3 164.258 596.804 175.758ZM482.504 180.463C479.499 184.462 487.701 200.183 506.802 214.49C525.997 228.808 543.307 232.205 546.3 228.1L589.404 170.344C592.408 166.24 584.301 150.624 565.106 136.318C545.911 121.999 528.601 118.603 525.608 122.707L482.504 180.463Z" fill="#503EAA"/>
<path d="M575.806 152.039C572.106 157.04 562.608 156.344 554.607 150.435C546.606 144.526 543.213 135.622 547.007 130.515L551.803 124.111C556.104 128.309 560.605 132.319 565.401 136.023C572.306 141.13 574.698 142.333 580.401 146.036L575.806 152.039Z" fill="#503EAA"/>
<path d="M528.106 202.283L522.804 209.489C520.907 212.096 522.108 216 525.608 218.193C529.108 220.387 533.409 220.092 535.412 217.497L540.809 210.291C542.706 207.685 541.504 203.781 538.004 201.587C534.505 199.381 530.003 199.688 528.106 202.283Z" fill="#503EAA"/>
<path d="M551.951 194.088C553.288 191.357 551.398 187.683 547.728 185.883C544.058 184.083 539.999 184.837 538.662 187.569C537.324 190.3 539.215 193.974 542.884 195.774C546.554 197.574 550.613 196.82 551.951 194.088Z" fill="#503EAA"/>
<path d="M532.207 252.833C524.006 263.849 502.406 261.042 483.011 246.629C463.615 232.111 454.813 212.202 462.908 201.186C465.312 197.978 478.003 193.685 482.905 192.977L484.107 201.988C479.205 202.991 474.409 204.689 469.908 206.989C466.113 213.098 472.606 227.605 488.313 239.317C504.115 251.123 519.811 253.128 524.512 247.82C525.514 242.82 525.714 237.807 525.314 232.806L534.316 231.403C535.106 236.321 534.599 249.625 532.207 252.833Z" fill="#503EAA"/>
<path d="M371.324 44.5088L367.26 49.9648L485.515 138.224L489.579 132.769L371.324 44.5088Z" fill="#503EAA"/>
<path d="M420.556 34.4619L371.711 100.026L377.162 104.094L426.006 38.5299L420.556 34.4619Z" fill="#503EAA"/>
<path d="M450.099 56.4771L401.255 122.041L406.706 126.109L455.55 60.545L450.099 56.4771Z" fill="#503EAA"/>
<path d="M479.676 78.6338L430.832 144.198L436.283 148.266L485.127 82.7018L479.676 78.6338Z" fill="#503EAA"/>
<path d="M731.301 275.549L691.001 329.602C687.101 334.803 679.811 335.912 674.601 332.008L567.899 252.338C562.702 248.434 561.701 241.121 565.495 235.92L605.795 181.867C609.695 176.666 616.989 175.557 622.197 179.461L728.901 259.131C734.101 263.047 735.201 270.347 731.301 275.549C731.301 275.549 731.411 275.549 731.301 275.549ZM572.801 241.428C571.905 242.631 572.106 244.235 573.296 245.131L679.991 324.801C681.201 325.698 682.801 325.497 683.691 324.306L723.991 270.253C724.891 269.05 724.691 267.446 723.501 266.55L616.8 186.773C615.598 185.877 613.996 186.078 613.1 187.269L572.801 241.428Z" fill="#503EAA"/>
<path d="M591.666 208.935L587.602 214.391L705.861 302.65L709.921 297.194L591.666 208.935Z" fill="#503EAA"/>
<path d="M636.92 196.583L588.439 262.148L593.904 266.196L642.385 200.631L636.92 196.583Z" fill="#503EAA"/>
<path d="M666.391 218.47L617.911 284.035L623.376 288.084L671.861 222.519L666.391 218.47Z" fill="#503EAA"/>
<path d="M700.021 243.037L651.181 308.601L656.631 312.669L705.481 247.105L700.021 243.037Z" fill="#503EAA"/>
<path d="M494.572 130.83L485.07 143.586L496.292 151.962L505.795 139.206L494.572 130.83Z" fill="#503EAA"/>
<path d="M580.683 195.06L571.181 207.815L582.403 216.191L591.906 203.436L580.683 195.06Z" fill="#503EAA"/>
<path d="M540.302 43.7449C521.001 69.5619 532.407 110.701 565.802 135.527C599.102 160.354 641.699 159.647 661.001 133.723C669.901 121.811 649.994 92.0889 616.694 67.1559C583.3 42.3409 549.104 31.8319 540.302 43.7449Z" fill="#C0DBFF"/>
<path d="M566.803 131.824C548.798 116.409 547.007 92.691 548.503 78.278L533.798 55.563C533.798 55.657 522.297 103.895 566.803 131.824Z" fill="white"/>
<path d="M568.901 133.428C588.803 146.237 612.005 141.236 625.402 135.728L651.302 143.335C651.196 143.335 608.399 168.056 568.901 133.428Z" fill="#77A4F2"/>
<path d="M664.501 136.53C652.304 152.841 612.794 137.131 581.804 113.909C550.801 90.7919 524.406 57.3549 536.508 41.0439L543.814 46.4449C538.311 53.9469 552.109 80.3779 587.212 106.596C622.315 132.815 651.609 138.523 657.221 131.022L664.501 136.53Z" fill="#503EAA"/>
<path d="M653.939 137.103C661.171 127.396 644.995 103.076 617.807 82.7848C590.62 62.4938 562.717 53.9138 555.485 63.6218C548.253 73.3298 564.429 97.6488 591.617 117.941C618.804 138.232 646.707 146.811 653.939 137.103Z" fill="#503EAA"/>
<path d="M664.501 136.53C643.796 164.353 598.194 165.556 562.997 139.231C527.694 112.906 515.899 68.8662 536.602 41.0442C548.798 24.7322 588.308 40.4422 619.298 63.6652C650.301 86.6762 676.711 120.112 664.501 136.53ZM543.896 46.4463C526.197 70.2703 537.191 108.601 568.394 131.918C599.596 155.236 639.495 154.835 657.191 131.022C662.791 123.521 648.898 97.0902 613.796 70.8712C578.704 44.6412 549.399 38.9333 543.896 46.4463Z" fill="#503EAA"/>
<path d="M648.85 18.5112L547.637 34.7522L549.077 43.7432L650.29 27.5012L648.85 18.5112Z" fill="#503EAA"/>
<path d="M653.903 22.1509L644.884 23.3329L658.191 125.047L667.211 123.865L653.903 22.1509Z" fill="#503EAA"/>
<path d="M648.09 17.7041L583.883 103.89L591.176 109.333L655.383 23.1471L648.09 17.7041Z" fill="#503EAA"/>
<path d="M654.896 31.632C663.621 31.632 670.701 24.551 670.701 15.816C670.701 7.08101 663.621 0 654.896 0C646.169 0 639.095 7.08101 639.095 15.816C639.095 24.551 646.169 31.632 654.896 31.632Z" fill="#77A4F2"/>
<path d="M331.685 254.553H334.037V247.705L337.445 253.913L340.837 247.705V254.553H343.205V243.561H340.837L337.445 249.769L334.037 243.561H331.685V254.553ZM353.544 243.561L350.392 251.305L347.24 243.561H344.584L349.064 254.553H351.704L356.184 243.561H353.544ZM357.56 254.553H359.912V251.481L361.288 250.009L364.664 254.553H367.528L362.936 248.329L367.224 243.561H364.36L359.912 248.601V243.561H357.56V254.553ZM382.48 253.945L380.752 252.121C381.296 251.401 381.792 250.537 382.272 249.577L380.576 248.777C380.288 249.497 379.92 250.185 379.504 250.793C378.832 250.073 378.288 249.465 377.808 248.905C379.552 248.105 380.32 247.433 380.32 246.201C380.32 244.617 379.008 243.417 377.216 243.417C375.472 243.417 374.096 244.681 374.096 246.217C374.096 247.033 374.304 247.609 374.88 248.457C373.2 249.209 372.496 250.121 372.496 251.561C372.496 253.561 374.08 254.745 376.192 254.745C377.44 254.745 378.48 254.329 379.392 253.593L380.56 254.809L382.48 253.945ZM377.248 245.097C377.872 245.097 378.304 245.577 378.304 246.217C378.304 246.937 377.872 247.273 376.8 247.705C376.352 247.145 376.096 246.729 376.096 246.217C376.096 245.561 376.608 245.097 377.248 245.097ZM376.48 252.969C375.568 252.969 374.816 252.377 374.816 251.401C374.816 250.761 375.152 250.249 375.904 249.801C376.464 250.457 377.184 251.273 378.16 252.297C377.616 252.713 377.056 252.969 376.48 252.969ZM393.424 254.745C396.336 254.745 398.4 252.697 398.4 249.801V243.561H396.032V249.705C396.032 251.401 394.944 252.601 393.424 252.601C391.888 252.601 390.8 251.401 390.8 249.705V243.561H388.448V249.801C388.448 252.697 390.496 254.745 393.424 254.745ZM404.702 254.745C407.39 254.745 408.974 253.353 408.974 251.257C408.974 249.225 407.406 248.521 405.038 247.993C403.342 247.609 402.686 247.353 402.686 246.553C402.686 245.897 403.294 245.369 404.302 245.369C405.358 245.369 406.462 245.801 407.438 246.585L408.67 244.889C407.55 243.929 406.158 243.369 404.366 243.369C401.966 243.369 400.302 244.761 400.302 246.793C400.302 248.921 401.95 249.577 404.27 250.105C405.95 250.489 406.59 250.729 406.59 251.513C406.59 252.201 405.982 252.745 404.798 252.745C403.406 252.745 402.222 252.201 401.182 251.305L399.822 252.921C401.102 254.105 402.798 254.745 404.702 254.745ZM410.763 254.553H414.699C418.395 254.553 421.019 252.265 421.019 249.049C421.019 245.833 418.395 243.561 414.699 243.561H410.763V254.553ZM413.115 252.409V245.705H415.003C417.099 245.705 418.587 247.097 418.587 249.049C418.587 251.017 417.099 252.409 415.003 252.409H413.115ZM422.935 254.553H425.287V247.705L428.695 253.913L432.087 247.705V254.553H434.455V243.561H432.087L428.695 249.769L425.287 243.561H422.935V254.553Z" fill="#86D4C9"/>
<path d="M356.885 272.553L354.181 268.713C355.685 268.185 356.677 266.905 356.677 265.273C356.677 263.097 354.917 261.561 352.533 261.561H347.589V272.553H349.941V268.985H351.685L354.197 272.553H356.885ZM349.941 263.721H352.277C353.445 263.721 354.245 264.329 354.245 265.273C354.245 266.217 353.445 266.825 352.277 266.825H349.941V263.721ZM362.273 270.681C361.297 270.681 360.577 270.073 360.305 269.177H366.273C366.273 266.057 364.753 264.089 362.161 264.089C359.745 264.089 357.905 265.897 357.905 268.393C357.905 270.937 359.825 272.745 362.289 272.745C363.505 272.745 364.929 272.233 365.665 271.465L364.177 269.945C363.729 270.377 362.929 270.681 362.273 270.681ZM362.257 266.153C363.201 266.153 363.809 266.681 364.033 267.497H360.337C360.641 266.665 361.377 266.153 362.257 266.153ZM369.543 272.553H371.639L373.191 267.353L374.727 272.553H376.823L379.639 264.281H377.351L375.783 269.433L374.151 264.281H372.215L370.583 269.433L369.015 264.281H366.727L369.543 272.553ZM384.612 264.089C383.46 264.089 382.324 264.409 381.156 265.001L381.94 266.553C382.596 266.217 383.316 265.961 384.084 265.961C385.444 265.961 385.988 266.729 385.988 267.609V267.769C385.284 267.497 384.548 267.353 383.876 267.353C381.956 267.353 380.436 268.473 380.436 270.105C380.436 271.689 381.796 272.745 383.556 272.745C384.452 272.745 385.396 272.393 385.988 271.721V272.553H388.244V267.609C388.244 265.449 386.772 264.089 384.612 264.089ZM384.084 271.129C383.284 271.129 382.692 270.713 382.692 270.041C382.692 269.369 383.364 268.873 384.212 268.873C384.852 268.873 385.46 268.985 385.988 269.177V269.945C385.828 270.713 384.98 271.129 384.084 271.129ZM392.549 265.817V264.281H390.213V272.553H392.549V268.601C392.549 267.049 393.653 266.057 395.381 266.057V264.089C394.117 264.089 393.093 264.745 392.549 265.817ZM402.904 261.369V265.465C402.248 264.601 401.288 264.089 400.12 264.089C397.912 264.089 396.312 265.881 396.312 268.409C396.312 270.953 397.912 272.745 400.12 272.745C401.288 272.745 402.248 272.233 402.904 271.369V272.553H405.24V261.369H402.904ZM400.792 270.777C399.496 270.777 398.584 269.801 398.584 268.409C398.584 267.033 399.496 266.057 400.792 266.057C402.024 266.057 402.904 267.033 402.904 268.409C402.904 269.801 402.024 270.777 400.792 270.777ZM410.395 272.745C412.427 272.745 413.755 271.705 413.755 270.073C413.755 268.265 412.171 267.785 410.747 267.417C409.627 267.113 409.291 266.985 409.291 266.537C409.291 266.249 409.691 266.041 410.267 266.041C410.971 266.041 411.835 266.313 412.587 266.777L413.531 265.113C412.619 264.505 411.451 264.089 410.267 264.089C408.315 264.089 407.019 265.209 407.035 266.777C407.051 268.409 408.363 268.873 410.059 269.289C410.907 269.513 411.515 269.673 411.515 270.185C411.515 270.553 411.067 270.809 410.443 270.809C409.339 270.809 408.411 270.409 407.675 269.881L406.667 271.497C407.659 272.297 409.067 272.745 410.395 272.745Z" fill="#86D4C9"/>
<path d="M265.685 182.553H269.621C273.317 182.553 275.941 180.265 275.941 177.049C275.941 173.833 273.317 171.561 269.621 171.561H265.685V182.553ZM268.037 180.409V173.705H269.925C272.021 173.705 273.509 175.097 273.509 177.049C273.509 179.017 272.021 180.409 269.925 180.409H268.037ZM281.601 180.681C280.625 180.681 279.905 180.073 279.633 179.177H285.601C285.601 176.057 284.081 174.089 281.489 174.089C279.073 174.089 277.233 175.897 277.233 178.393C277.233 180.937 279.153 182.745 281.617 182.745C282.833 182.745 284.257 182.233 284.993 181.465L283.505 179.945C283.057 180.377 282.257 180.681 281.601 180.681ZM281.585 176.153C282.529 176.153 283.137 176.681 283.361 177.497H279.665C279.969 176.665 280.705 176.153 281.585 176.153ZM287.181 182.553H289.517V171.369H287.181V182.553ZM295.46 180.681C294.484 180.681 293.764 180.073 293.492 179.177H299.46C299.46 176.057 297.94 174.089 295.348 174.089C292.932 174.089 291.092 175.897 291.092 178.393C291.092 180.937 293.012 182.745 295.476 182.745C296.692 182.745 298.116 182.233 298.852 181.465L297.364 179.945C296.916 180.377 296.116 180.681 295.46 180.681ZM295.444 176.153C296.388 176.153 296.996 176.681 297.22 177.497H293.524C293.828 176.665 294.564 176.153 295.444 176.153ZM307.025 174.281V175.401C306.465 174.617 305.409 174.089 304.289 174.089C302.209 174.089 300.625 175.705 300.625 178.009C300.625 180.313 302.209 181.945 304.289 181.945C305.377 181.945 306.369 181.465 307.025 180.665V181.577C307.025 182.649 306.065 183.337 304.561 183.337C303.601 183.337 302.641 183.033 302.097 182.553L301.281 184.201C302.097 184.841 303.473 185.305 304.929 185.305C307.537 185.305 309.377 183.801 309.377 181.673V174.281H307.025ZM305.025 179.977C303.857 179.977 303.025 179.161 303.025 178.009C303.025 176.857 303.857 176.057 305.025 176.057C306.193 176.057 307.025 176.857 307.025 178.009C307.025 179.161 306.193 179.977 305.025 179.977ZM315.127 174.089C313.975 174.089 312.839 174.409 311.671 175.001L312.455 176.553C313.111 176.217 313.831 175.961 314.599 175.961C315.959 175.961 316.503 176.729 316.503 177.609V177.769C315.799 177.497 315.063 177.353 314.391 177.353C312.471 177.353 310.951 178.473 310.951 180.105C310.951 181.689 312.311 182.745 314.071 182.745C314.967 182.745 315.911 182.393 316.503 181.721V182.553H318.759V177.609C318.759 175.449 317.287 174.089 315.127 174.089ZM314.599 181.129C313.799 181.129 313.207 180.713 313.207 180.041C313.207 179.369 313.879 178.873 314.727 178.873C315.367 178.873 315.975 178.985 316.503 179.177V179.945C316.343 180.713 315.495 181.129 314.599 181.129ZM325.08 180.505C324.92 180.665 324.6 180.777 324.28 180.777C323.848 180.777 323.496 180.393 323.496 179.849V176.169H325.288V174.281H323.496V172.009H321.256V174.281H320.12V176.169H321.256V180.217C321.256 181.705 322.28 182.745 323.736 182.745C324.408 182.745 325.16 182.457 325.64 182.025L325.08 180.505ZM331.007 180.681C330.031 180.681 329.311 180.073 329.039 179.177H335.007C335.007 176.057 333.487 174.089 330.895 174.089C328.479 174.089 326.639 175.897 326.639 178.393C326.639 180.937 328.559 182.745 331.023 182.745C332.239 182.745 333.663 182.233 334.399 181.465L332.911 179.945C332.463 180.377 331.663 180.681 331.007 180.681ZM330.991 176.153C331.935 176.153 332.543 176.681 332.767 177.497H329.071C329.375 176.665 330.111 176.153 330.991 176.153ZM342.764 171.369V175.465C342.108 174.601 341.148 174.089 339.98 174.089C337.772 174.089 336.172 175.881 336.172 178.409C336.172 180.953 337.772 182.745 339.98 182.745C341.148 182.745 342.108 182.233 342.764 181.369V182.553H345.1V171.369H342.764ZM340.652 180.777C339.356 180.777 338.444 179.801 338.444 178.409C338.444 177.033 339.356 176.057 340.652 176.057C341.884 176.057 342.764 177.033 342.764 178.409C342.764 179.801 341.884 180.777 340.652 180.777Z" fill="#86D4C9"/>
<path d="M287.685 199.553H290.037V192.705L293.445 198.913L296.837 192.705V199.553H299.205V188.561H296.837L293.445 194.769L290.037 188.561H287.685V199.553ZM309.544 188.561L306.392 196.305L303.24 188.561H300.584L305.064 199.553H307.704L312.184 188.561H309.544ZM313.56 199.553H315.912V196.481L317.288 195.009L320.664 199.553H323.528L318.936 193.329L323.224 188.561H320.36L315.912 193.601V188.561H313.56V199.553Z" fill="#86D4C9"/>
<path d="M839.681 306.553H842.041V299.705L845.441 305.913L848.841 299.705V306.553H851.201V295.561H848.841L845.441 301.769L842.041 295.561H839.681V306.553ZM861.541 295.561L858.391 303.305L855.241 295.561H852.581L857.061 306.553H859.701L864.181 295.561H861.541ZM865.561 306.553H867.911V303.481L869.291 302.009L872.661 306.553H875.531L870.931 300.329L875.221 295.561H872.361L867.911 300.601V295.561H865.561V306.553Z" fill="#86D4C9"/>
<path d="M835.881 324.553L833.181 320.713C834.681 320.185 835.681 318.905 835.681 317.273C835.681 315.097 833.921 313.561 831.531 313.561H826.591V324.553H828.941V320.985H830.681L833.201 324.553H835.881ZM828.941 315.721H831.281C832.441 315.721 833.241 316.329 833.241 317.273C833.241 318.217 832.441 318.825 831.281 318.825H828.941V315.721ZM841.271 322.681C840.301 322.681 839.581 322.073 839.301 321.177H845.271C845.271 318.057 843.751 316.089 841.161 316.089C838.741 316.089 836.901 317.897 836.901 320.393C836.901 322.937 838.821 324.745 841.291 324.745C842.501 324.745 843.931 324.233 844.661 323.465L843.181 321.945C842.731 322.377 841.931 322.681 841.271 322.681ZM841.261 318.153C842.201 318.153 842.811 318.681 843.031 319.497H839.341C839.641 318.665 840.381 318.153 841.261 318.153ZM848.541 324.553H850.641L852.191 319.353L853.731 324.553H855.821L858.641 316.281H856.351L854.781 321.433L853.151 316.281H851.211L849.581 321.433L848.011 316.281H845.731L848.541 324.553ZM863.611 316.089C862.461 316.089 861.321 316.409 860.151 317.001L860.941 318.553C861.591 318.217 862.311 317.961 863.081 317.961C864.441 317.961 864.991 318.729 864.991 319.609V319.769C864.281 319.497 863.551 319.353 862.871 319.353C860.951 319.353 859.431 320.473 859.431 322.105C859.431 323.689 860.791 324.745 862.551 324.745C863.451 324.745 864.391 324.393 864.991 323.721V324.553H867.241V319.609C867.241 317.449 865.771 316.089 863.611 316.089ZM863.081 323.129C862.281 323.129 861.691 322.713 861.691 322.041C861.691 321.369 862.361 320.873 863.211 320.873C863.851 320.873 864.461 320.985 864.991 321.177V321.945C864.831 322.713 863.981 323.129 863.081 323.129ZM871.551 317.817V316.281H869.211V324.553H871.551V320.601C871.551 319.049 872.651 318.057 874.381 318.057V316.089C873.121 316.089 872.091 316.745 871.551 317.817ZM881.901 313.369V317.465C881.251 316.601 880.291 316.089 879.121 316.089C876.911 316.089 875.311 317.881 875.311 320.409C875.311 322.953 876.911 324.745 879.121 324.745C880.291 324.745 881.251 324.233 881.901 323.369V324.553H884.241V313.369H881.901ZM879.791 322.777C878.501 322.777 877.581 321.801 877.581 320.409C877.581 319.033 878.501 318.057 879.791 318.057C881.021 318.057 881.901 319.033 881.901 320.409C881.901 321.801 881.021 322.777 879.791 322.777ZM889.391 324.745C891.431 324.745 892.751 323.705 892.751 322.073C892.751 320.265 891.171 319.785 889.751 319.417C888.631 319.113 888.291 318.985 888.291 318.537C888.291 318.249 888.691 318.041 889.271 318.041C889.971 318.041 890.831 318.313 891.591 318.777L892.531 317.113C891.621 316.505 890.451 316.089 889.271 316.089C887.311 316.089 886.021 317.209 886.031 318.777C886.051 320.409 887.361 320.873 889.061 321.289C889.911 321.513 890.511 321.673 890.511 322.185C890.511 322.553 890.071 322.809 889.441 322.809C888.341 322.809 887.411 322.409 886.671 321.881L885.671 323.497C886.661 324.297 888.071 324.745 889.391 324.745Z" fill="#86D4C9"/>
<path d="M759.751 239.745C762.441 239.745 764.021 238.353 764.021 236.257C764.021 234.225 762.451 233.521 760.081 232.993C758.391 232.609 757.731 232.353 757.731 231.553C757.731 230.897 758.341 230.369 759.351 230.369C760.401 230.369 761.511 230.801 762.481 231.585L763.721 229.889C762.601 228.929 761.201 228.369 759.411 228.369C757.011 228.369 755.351 229.761 755.351 231.793C755.351 233.921 757.001 234.577 759.321 235.105C761.001 235.489 761.641 235.729 761.641 236.513C761.641 237.201 761.031 237.745 759.841 237.745C758.451 237.745 757.271 237.201 756.231 236.305L754.871 237.921C756.151 239.105 757.841 239.745 759.751 239.745ZM766.821 230.145C767.511 230.145 768.071 229.569 768.071 228.865C768.071 228.209 767.511 227.617 766.821 227.617C766.101 227.617 765.541 228.209 765.541 228.865C765.541 229.569 766.101 230.145 766.821 230.145ZM765.631 239.553H767.971V231.281H765.631V239.553ZM775.991 231.281V232.401C775.431 231.617 774.381 231.089 773.261 231.089C771.181 231.089 769.591 232.705 769.591 235.009C769.591 237.313 771.181 238.945 773.261 238.945C774.341 238.945 775.341 238.465 775.991 237.665V238.577C775.991 239.649 775.031 240.337 773.531 240.337C772.571 240.337 771.611 240.033 771.061 239.553L770.251 241.201C771.061 241.841 772.441 242.305 773.901 242.305C776.501 242.305 778.341 240.801 778.341 238.673V231.281H775.991ZM773.991 236.977C772.821 236.977 771.991 236.161 771.991 235.009C771.991 233.857 772.821 233.057 773.991 233.057C775.161 233.057 775.991 233.857 775.991 235.009C775.991 236.161 775.161 236.977 773.991 236.977ZM785.181 231.089C784.111 231.089 783.181 231.569 782.691 232.321V231.281H780.351V239.553H782.691V234.609L782.701 234.657C782.701 233.761 783.461 233.057 784.431 233.057C785.361 233.057 786.001 233.761 786.001 234.785V239.553H788.261V234.289C788.261 232.417 786.981 231.089 785.181 231.089ZM794.131 237.681C793.161 237.681 792.441 237.073 792.161 236.177H798.131C798.131 233.057 796.611 231.089 794.021 231.089C791.601 231.089 789.761 232.897 789.761 235.393C789.761 237.937 791.681 239.745 794.151 239.745C795.361 239.745 796.791 239.233 797.521 238.465L796.041 236.945C795.591 237.377 794.791 237.681 794.131 237.681ZM794.121 233.153C795.061 233.153 795.671 233.681 795.891 234.497H792.201C792.501 233.665 793.241 233.153 794.121 233.153ZM805.891 228.369V232.465C805.231 231.601 804.271 231.089 803.101 231.089C800.901 231.089 799.301 232.881 799.301 235.409C799.301 237.953 800.901 239.745 803.101 239.745C804.271 239.745 805.231 239.233 805.891 238.369V239.553H808.221V228.369H805.891ZM803.781 237.777C802.481 237.777 801.571 236.801 801.571 235.409C801.571 234.033 802.481 233.057 803.781 233.057C805.011 233.057 805.891 234.033 805.891 235.409C805.891 236.801 805.011 237.777 803.781 237.777Z" fill="#86D4C9"/>
<path d="M747.631 248.089C746.481 248.089 745.521 248.585 744.861 249.433V248.281H742.521V259.305H744.861V255.385C745.521 256.249 746.481 256.745 747.631 256.745C749.841 256.745 751.441 254.953 751.441 252.409C751.441 249.881 749.841 248.089 747.631 248.089ZM746.961 254.777C745.821 254.777 744.991 253.945 744.861 252.729V252.089C744.991 250.889 745.821 250.057 746.961 250.057C748.251 250.057 749.161 251.033 749.161 252.409C749.161 253.801 748.251 254.777 746.961 254.777ZM755.421 249.817V248.281H753.091V256.553H755.421V252.601C755.421 251.049 756.531 250.057 758.251 250.057V248.089C756.991 248.089 755.971 248.745 755.421 249.817ZM760.771 247.145C761.461 247.145 762.021 246.569 762.021 245.865C762.021 245.209 761.461 244.617 760.771 244.617C760.051 244.617 759.491 245.209 759.491 245.865C759.491 246.569 760.051 247.145 760.771 247.145ZM759.591 256.553H761.921V248.281H759.591V256.553ZM768.011 256.745C769.391 256.745 770.511 256.185 771.321 255.289L769.771 253.977C769.341 254.457 768.671 254.777 768.031 254.777C766.791 254.777 765.771 253.689 765.771 252.393C765.771 251.129 766.791 250.057 768.011 250.057C768.651 250.057 769.311 250.361 769.721 250.825L771.271 249.497C770.471 248.633 769.371 248.089 768.031 248.089C765.581 248.089 763.501 250.057 763.501 252.409C763.501 254.761 765.561 256.745 768.011 256.745ZM776.631 254.681C775.661 254.681 774.941 254.073 774.661 253.177H780.631C780.631 250.057 779.111 248.089 776.521 248.089C774.101 248.089 772.261 249.897 772.261 252.393C772.261 254.937 774.181 256.745 776.651 256.745C777.861 256.745 779.291 256.233 780.021 255.465L778.541 253.945C778.091 254.377 777.291 254.681 776.631 254.681ZM776.621 250.153C777.561 250.153 778.171 250.681 778.391 251.497H774.701C775.001 250.665 775.741 250.153 776.621 250.153ZM789.451 247.833C789.451 247.289 789.801 246.905 790.231 246.905C790.551 246.905 790.871 247.017 791.031 247.177L791.591 245.753C791.111 245.321 790.361 245.033 789.691 245.033C788.231 245.033 787.211 246.073 787.211 247.561V248.281H786.071V250.169H787.211V256.553H789.451V250.169H791.241V248.281H789.451V247.833ZM796.651 254.681C795.671 254.681 794.951 254.073 794.681 253.177H800.651C800.651 250.057 799.131 248.089 796.531 248.089C794.121 248.089 792.281 249.897 792.281 252.393C792.281 254.937 794.201 256.745 796.661 256.745C797.881 256.745 799.301 256.233 800.041 255.465L798.551 253.945C798.101 254.377 797.301 254.681 796.651 254.681ZM796.631 250.153C797.571 250.153 798.181 250.681 798.411 251.497H794.711C795.011 250.665 795.751 250.153 796.631 250.153ZM806.131 254.681C805.161 254.681 804.441 254.073 804.161 253.177H810.131C810.131 250.057 808.611 248.089 806.021 248.089C803.601 248.089 801.761 249.897 801.761 252.393C801.761 254.937 803.681 256.745 806.151 256.745C807.361 256.745 808.791 256.233 809.521 255.465L808.041 253.945C807.591 254.377 806.791 254.681 806.131 254.681ZM806.121 250.153C807.061 250.153 807.671 250.681 807.891 251.497H804.201C804.501 250.665 805.241 250.153 806.121 250.153ZM817.891 245.369V249.465C817.231 248.601 816.271 248.089 815.101 248.089C812.901 248.089 811.301 249.881 811.301 252.409C811.301 254.953 812.901 256.745 815.101 256.745C816.271 256.745 817.231 256.233 817.891 255.369V256.553H820.221V245.369H817.891ZM815.781 254.777C814.481 254.777 813.571 253.801 813.571 252.409C813.571 251.033 814.481 250.057 815.781 250.057C817.011 250.057 817.891 251.033 817.891 252.409C817.891 253.801 817.011 254.777 815.781 254.777Z" fill="#86D4C9"/>
<path d="M582.549 335.745C585.461 335.745 587.525 333.697 587.525 330.801V324.561H585.157V330.705C585.157 332.401 584.069 333.601 582.549 333.601C581.013 333.601 579.925 332.401 579.925 330.705V324.561H577.573V330.801C577.573 333.697 579.621 335.745 582.549 335.745ZM593.827 335.745C596.515 335.745 598.099 334.353 598.099 332.257C598.099 330.225 596.531 329.521 594.163 328.993C592.467 328.609 591.811 328.353 591.811 327.553C591.811 326.897 592.419 326.369 593.427 326.369C594.483 326.369 595.587 326.801 596.563 327.585L597.795 325.889C596.675 324.929 595.283 324.369 593.491 324.369C591.091 324.369 589.427 325.761 589.427 327.793C589.427 329.921 591.075 330.577 593.395 331.105C595.075 331.489 595.715 331.729 595.715 332.513C595.715 333.201 595.107 333.745 593.923 333.745C592.531 333.745 591.347 333.201 590.307 332.305L588.947 333.921C590.227 335.105 591.923 335.745 593.827 335.745ZM599.888 335.553H603.824C607.52 335.553 610.144 333.265 610.144 330.049C610.144 326.833 607.52 324.561 603.824 324.561H599.888V335.553ZM602.24 333.409V326.705H604.128C606.224 326.705 607.712 328.097 607.712 330.049C607.712 332.017 606.224 333.409 604.128 333.409H602.24ZM612.06 335.553H614.412V328.705L617.82 334.913L621.212 328.705V335.553H623.58V324.561H621.212L617.82 330.769L614.412 324.561H612.06V335.553Z" fill="#86D4C9"/>
<path d="M577.885 353.341L575.181 349.501C576.685 348.973 577.677 347.693 577.677 346.061C577.677 343.885 575.917 342.349 573.533 342.349H568.589V353.341H570.941V349.773H572.685L575.197 353.341H577.885ZM570.941 344.509H573.277C574.445 344.509 575.245 345.117 575.245 346.061C575.245 347.005 574.445 347.613 573.277 347.613H570.941V344.509ZM583.273 351.469C582.297 351.469 581.577 350.861 581.305 349.965H587.273C587.273 346.845 585.753 344.877 583.161 344.877C580.745 344.877 578.905 346.685 578.905 349.181C578.905 351.725 580.825 353.533 583.289 353.533C584.505 353.533 585.929 353.021 586.665 352.253L585.177 350.733C584.729 351.165 583.929 351.469 583.273 351.469ZM583.257 346.941C584.201 346.941 584.809 347.469 585.033 348.285H581.337C581.641 347.453 582.377 346.941 583.257 346.941ZM590.543 353.341H592.639L594.191 348.141L595.727 353.341H597.823L600.639 345.069H598.351L596.783 350.221L595.151 345.069H593.215L591.583 350.221L590.015 345.069H587.727L590.543 353.341ZM605.612 344.877C604.46 344.877 603.324 345.197 602.156 345.789L602.94 347.341C603.596 347.005 604.316 346.749 605.084 346.749C606.444 346.749 606.988 347.517 606.988 348.397V348.557C606.284 348.285 605.548 348.141 604.876 348.141C602.956 348.141 601.436 349.261 601.436 350.893C601.436 352.477 602.796 353.533 604.556 353.533C605.452 353.533 606.396 353.181 606.988 352.509V353.341H609.244V348.397C609.244 346.237 607.772 344.877 605.612 344.877ZM605.084 351.917C604.284 351.917 603.692 351.501 603.692 350.829C603.692 350.157 604.364 349.661 605.212 349.661C605.852 349.661 606.46 349.773 606.988 349.965V350.733C606.828 351.501 605.98 351.917 605.084 351.917ZM613.549 346.605V345.069H611.213V353.341H613.549V349.389C613.549 347.837 614.653 346.845 616.381 346.845V344.877C615.117 344.877 614.093 345.533 613.549 346.605ZM623.904 342.157V346.253C623.248 345.389 622.288 344.877 621.12 344.877C618.912 344.877 617.312 346.669 617.312 349.197C617.312 351.741 618.912 353.533 621.12 353.533C622.288 353.533 623.248 353.021 623.904 352.157V353.341H626.24V342.157H623.904ZM621.792 351.565C620.496 351.565 619.584 350.589 619.584 349.197C619.584 347.821 620.496 346.845 621.792 346.845C623.024 346.845 623.904 347.821 623.904 349.197C623.904 350.589 623.024 351.565 621.792 351.565ZM631.395 353.533C633.427 353.533 634.755 352.493 634.755 350.861C634.755 349.053 633.171 348.573 631.747 348.205C630.627 347.901 630.291 347.773 630.291 347.325C630.291 347.037 630.691 346.829 631.267 346.829C631.971 346.829 632.835 347.101 633.587 347.565L634.531 345.901C633.619 345.293 632.451 344.877 631.267 344.877C629.315 344.877 628.019 345.997 628.035 347.565C628.051 349.197 629.363 349.661 631.059 350.077C631.907 350.301 632.515 350.461 632.515 350.973C632.515 351.341 632.067 351.597 631.443 351.597C630.339 351.597 629.411 351.197 628.675 350.669L627.667 352.285C628.659 353.085 630.067 353.533 631.395 353.533Z" fill="#86D4C9"/>
<path d="M496.669 360.561L493.517 368.305L490.365 360.561H487.709L492.189 371.553H494.829L499.309 360.561H496.669ZM503.48 371.745C505.928 371.745 507.976 369.761 507.976 367.409C507.976 365.057 505.928 363.089 503.48 363.089C501.016 363.089 498.952 365.057 498.952 367.409C498.952 369.761 501.016 371.745 503.48 371.745ZM503.48 369.777C502.232 369.777 501.192 368.689 501.192 367.409C501.192 366.129 502.232 365.057 503.48 365.057C504.712 365.057 505.752 366.129 505.752 367.409C505.752 368.689 504.712 369.777 503.48 369.777ZM513.908 369.505C513.748 369.665 513.428 369.777 513.108 369.777C512.676 369.777 512.324 369.393 512.324 368.849V365.169H514.116V363.281H512.324V361.009H510.084V363.281H508.948V365.169H510.084V369.217C510.084 370.705 511.108 371.745 512.564 371.745C513.236 371.745 513.988 371.457 514.468 371.025L513.908 369.505ZM519.835 369.681C518.859 369.681 518.139 369.073 517.867 368.177H523.835C523.835 365.057 522.315 363.089 519.723 363.089C517.307 363.089 515.467 364.897 515.467 367.393C515.467 369.937 517.387 371.745 519.851 371.745C521.067 371.745 522.491 371.233 523.227 370.465L521.739 368.945C521.291 369.377 520.491 369.681 519.835 369.681ZM519.819 365.153C520.763 365.153 521.371 365.681 521.595 366.497H517.899C518.203 365.665 518.939 365.153 519.819 365.153ZM528.52 371.745C530.552 371.745 531.88 370.705 531.88 369.073C531.88 367.265 530.296 366.785 528.872 366.417C527.752 366.113 527.416 365.985 527.416 365.537C527.416 365.249 527.816 365.041 528.392 365.041C529.096 365.041 529.96 365.313 530.712 365.777L531.656 364.113C530.744 363.505 529.576 363.089 528.392 363.089C526.44 363.089 525.144 364.209 525.16 365.777C525.176 367.409 526.488 367.873 528.184 368.289C529.032 368.513 529.64 368.673 529.64 369.185C529.64 369.553 529.192 369.809 528.568 369.809C527.464 369.809 526.536 369.409 525.8 368.881L524.792 370.497C525.784 371.297 527.192 371.745 528.52 371.745Z" fill="#86D4C9"/>
<path d="M1021.7 311.179C1030.04 311.179 1036.8 304.415 1036.8 296.071C1036.8 287.727 1030.04 280.962 1021.7 280.962C1013.37 280.962 1006.61 287.727 1006.61 296.071C1006.61 304.415 1013.37 311.179 1021.7 311.179Z" fill="#503EAA"/>
<path d="M932.601 298.276C950.801 316.498 992.491 310.188 1022.09 280.656C1051.69 251.029 1058 209.289 1039.79 191.078C1031.39 182.669 1000.69 199.889 971.091 229.516C941.491 259.143 924.211 289.867 932.601 298.276Z" fill="#C0DBFF"/>
<path d="M1001.63 260.404C1031.37 231.313 1048.6 200.68 1040.11 191.982C1031.62 183.284 1000.62 199.816 970.881 228.906C941.141 257.997 923.911 288.63 932.401 297.328C940.891 306.025 971.891 289.494 1001.63 260.404Z" fill="#77A4F2"/>
<path d="M1021.1 277.459C1037 259.438 1036.6 236.522 1033.8 223.206L1045.91 198.886C1045.91 198.78 1061.4 242.419 1021.1 277.459Z" fill="white"/>
<path d="M1019.2 279.252C1001.2 295.163 978.301 294.762 965.001 291.966L940.701 304.079C940.701 304.185 984.301 319.6 1019.2 279.252Z" fill="#77A4F2"/>
<path d="M1004.46 262.641C1023.59 243.495 1033.57 222.428 1026.74 215.586C1019.91 208.744 998.861 218.719 979.721 237.865C960.581 257.011 950.601 278.078 957.431 284.919C964.261 291.761 985.321 281.787 1004.46 262.641Z" fill="#503EAA"/>
<path d="M961.101 312.087C948.301 312.087 937.401 308.183 930.001 300.777C927.911 298.677 926.901 295.776 926.801 292.167C926.801 278.155 943.501 251.925 968.391 227.004C982.901 212.485 998.191 200.384 1011.5 192.977C1026.2 184.768 1036.8 183.271 1042.1 188.578C1051.8 198.285 1055.4 214.207 1052.1 232.217C1048.8 250.533 1038.91 268.555 1024.4 283.168C1009.8 297.686 991.801 307.594 973.501 310.896C969.301 311.686 965.111 312.087 961.101 312.087ZM1033.5 192.482C1029.89 192.482 1023.8 194.18 1015 199.087C1002.3 206.199 987.601 217.898 973.501 231.922C961.801 243.633 951.701 255.84 944.501 267.151C937.791 277.565 934.001 286.671 934.001 292.072C934.001 293.771 934.401 294.974 935.091 295.681C943.101 303.69 956.691 306.697 972.391 303.784C989.291 300.682 1005.98 291.577 1019.49 278.061C1032.99 264.545 1042.18 247.738 1045.29 230.919C1048.19 215.209 1045.2 201.587 1037.2 193.591C1036.5 192.883 1035.3 192.482 1033.5 192.482Z" fill="#503EAA"/>
<path d="M993.911 267.753L952.701 217.898L959.301 211.294L1009.31 252.338L993.911 267.753Z" fill="#C0DBFF"/>
<path d="M993.911 267.753L952.701 217.898L956.001 214.596L1001.51 260.145L993.911 267.753Z" fill="#77A4F2"/>
<path d="M939.301 304.185C935.401 304.185 932.301 303.088 930.001 300.777C928.601 299.373 928.601 297.168 930.001 295.776C931.411 294.384 933.611 294.372 935.001 295.776C935.801 296.672 937.301 297.073 939.191 297.073C944.991 297.073 953.901 293.37 964.491 286.765C975.691 279.653 987.791 269.746 999.401 258.14C1013.5 244.023 1025.1 229.209 1032 216.401C1036.5 208.097 1040.5 197.188 1037.1 193.685C1035.7 192.281 1035.7 190.076 1037.1 188.684C1038.51 187.292 1040.71 187.281 1042.1 188.684C1047.6 194.192 1046.29 204.996 1038.2 219.915C1030.89 233.325 1018.9 248.74 1004.4 263.353C980.001 287.661 953.811 304.185 939.301 304.185Z" fill="#503EAA"/>
<path d="M993.911 271.256C993.811 271.256 993.811 271.256 993.711 271.256C992.701 271.256 991.811 270.76 991.101 269.958L949.911 220.21C948.701 218.807 948.811 216.707 950.111 215.41L956.711 208.805C958.001 207.508 960.111 207.402 961.501 208.605L1011.5 249.542C1012.3 250.144 1012.79 251.146 1012.79 252.149C1012.89 253.151 1012.5 254.154 1011.79 254.85L996.391 270.265C995.801 270.949 994.911 271.256 993.911 271.256ZM957.511 218.099L994.111 262.339L1003.91 252.526L959.421 216.094L957.511 218.099Z" fill="#503EAA"/>
<path d="M949.711 221C956.661 221 962.301 215.355 962.301 208.392C962.301 201.429 956.661 195.784 949.711 195.784C942.751 195.784 937.111 201.429 937.111 208.392C937.111 215.355 942.751 221 949.711 221Z" fill="#503EAA"/>
<path d="M1055.7 368.334H987.701L1004.1 313.385C1006.4 305.577 1013.6 300.269 1021.6 300.269C1029.69 300.269 1036.8 305.577 1039.09 313.385L1055.7 368.334Z" fill="#C0DBFF"/>
<path d="M1033.3 307.287C1033.3 307.287 1021.8 304.881 1018.59 314.092C1015.39 323.304 1006.29 357.731 1006.29 357.731H990.291L1004.09 313.29C1004.09 313.29 1007.29 302.274 1014.79 301.083C1022.3 299.88 1028.9 298.878 1033.3 307.287Z" fill="#77A4F2"/>
<path d="M1060.51 371.837H982.901L1000.7 312.288C1003.51 302.982 1011.9 296.672 1021.7 296.672C1031.51 296.672 1039.91 302.982 1042.7 312.288L1060.51 371.837ZM992.501 364.737H1050.9L1035.81 314.387C1033.91 308.077 1028.21 303.878 1021.7 303.878C1015.1 303.878 1009.51 308.077 1007.6 314.387L992.501 364.737Z" fill="#503EAA"/>
<path d="M1072.39 359.429H970.201V372.144H1072.39V359.429Z" fill="#C0DBFF"/>
<path d="M999.601 357.731H968.901V373.641H999.601V357.731Z" fill="#77A4F2"/>
<path d="M1074.5 357.731H1056.3V373.641H1074.5V357.731Z" fill="white"/>
<path d="M1072.41 359.429V372.144H970.211V359.429H1072.41ZM1072.41 352.329H970.211C966.311 352.329 963.101 355.537 963.101 359.441V372.155C963.101 376.059 966.311 379.267 970.211 379.267H1072.41C1076.31 379.267 1079.51 376.059 1079.51 372.155V359.441C1079.5 355.431 1076.31 352.329 1072.41 352.329Z" fill="#503EAA"/>
<path d="M1027.41 345.925C1030.11 345.925 1032.31 343.728 1032.31 341.019C1032.31 338.309 1030.11 336.112 1027.41 336.112C1024.7 336.112 1022.5 338.309 1022.5 341.019C1022.5 343.728 1024.7 345.925 1027.41 345.925Z" fill="#8D86EB"/>
<path d="M1027.41 331.005C1030.11 331.005 1032.31 328.809 1032.31 326.099C1032.31 323.389 1030.11 321.192 1027.41 321.192C1024.7 321.192 1022.5 323.389 1022.5 326.099C1022.5 328.809 1024.7 331.005 1027.41 331.005Z" fill="#FF8486"/>
</svg>
