<svg width="1129" height="929" viewBox="0 0 1129 929" fill="none" xmlns="http://www.w3.org/2000/svg">
<path d="M652.198 595.444C652.198 606.259 643.502 614.963 632.696 614.963H464.193C453.387 614.963 444.691 606.259 444.691 595.444C444.691 584.629 453.387 575.924 464.193 575.924H632.696C643.502 575.924 652.198 584.64 652.198 595.444Z" fill="#6B5EC6"/>
<path d="M626.298 614.963H470.697V886.313H626.298V614.963Z" fill="#6B5EC6"/>
<path d="M517.395 614.963H470.697V886.313H517.395V614.963Z" fill="#5E4FB9"/>
<path d="M626.298 614.963H579.6V886.313H626.298V614.963Z" fill="#8077DE"/>
<path d="M632.696 575.924H597.793V615.058H632.696C643.502 615.058 652.198 606.354 652.198 595.538C652.198 584.64 643.502 575.924 632.696 575.924Z" fill="#8077DE"/>
<path d="M499.107 575.924H464.205C453.399 575.924 444.703 584.629 444.703 595.444C444.703 606.259 453.399 614.963 464.205 614.963H499.107V575.924Z" fill="#5E4FB9"/>
<path d="M626.298 614.963H470.697V886.313H626.298V614.963Z" stroke="#503EAA" stroke-width="5.9405" stroke-miterlimit="8.4865" stroke-linejoin="round"/>
<path d="M571.799 886.403H556.198V639.59C556.198 635.285 559.698 631.782 563.999 631.782C568.3 631.782 571.799 635.285 571.799 639.59V886.403Z" fill="#503EAA"/>
<path d="M602.908 886.403H587.306V639.59C587.306 635.285 590.806 631.782 595.107 631.782C599.408 631.782 602.908 635.285 602.908 639.59V886.403Z" fill="#503EAA"/>
<path d="M540.703 886.403H525.102V639.59C525.102 635.285 528.601 631.782 532.902 631.782C537.203 631.782 540.703 635.285 540.703 639.59V886.403Z" fill="#503EAA"/>
<path d="M509.606 886.403H494.005V639.59C494.005 635.285 497.505 631.782 501.806 631.782C506.106 631.782 509.606 635.285 509.606 639.59V886.403Z" fill="#503EAA"/>
<path d="M652.198 595.444C652.198 606.259 643.502 614.963 632.696 614.963H464.193C453.387 614.963 444.691 606.259 444.691 595.444C444.691 584.629 453.387 575.924 464.193 575.924H632.696C643.502 575.924 652.198 584.64 652.198 595.444Z" stroke="#503EAA" stroke-width="5.9405" stroke-miterlimit="8.4865" stroke-linejoin="round"/>
<path d="M488.927 597.312H491.875V599.277C491.152 599.778 490.262 600.075 489.409 600.075C487.221 600.075 485.404 598.202 485.404 595.958C485.404 593.733 487.221 591.86 489.409 591.86C490.577 591.86 491.82 592.416 492.562 593.288L494.546 591.507C493.285 590.172 491.319 589.375 489.409 589.375C485.682 589.375 482.585 592.36 482.585 595.958C482.585 599.574 485.682 602.56 489.409 602.56C491.319 602.56 493.285 601.762 494.546 600.427V595.179H488.927V597.312ZM502.845 602.56C506.517 602.56 509.613 599.537 509.613 595.958C509.613 592.379 506.517 589.375 502.845 589.375C499.173 589.375 496.076 592.379 496.076 595.958C496.076 599.537 499.173 602.56 502.845 602.56ZM502.845 600.075C500.712 600.075 498.895 598.183 498.895 595.958C498.895 593.751 500.712 591.86 502.845 591.86C504.996 591.86 506.795 593.751 506.795 595.958C506.795 598.183 504.996 600.075 502.845 600.075ZM520.165 589.597L516.53 598.573L512.877 589.597H509.799L514.991 602.337H518.051L523.243 589.597H520.165ZM534.858 592.064V589.597H525.048V602.337H534.858V599.871H527.793V597.071H534.19V594.604H527.793V592.064H534.858ZM547.714 593.9C547.714 591.378 545.675 589.597 542.912 589.597H537.182V602.337H539.907V598.202H541.558L544.469 602.337H547.585L544.525 597.979C546.435 597.423 547.714 595.902 547.714 593.9ZM539.907 592.101H542.633C543.969 592.101 544.896 592.805 544.896 593.9C544.896 594.994 543.969 595.698 542.633 595.698H539.907V592.101ZM549.822 602.337H552.548V594.104L558.704 602.337H561.43V589.597H558.704V597.831L552.548 589.597H549.822V602.337ZM573.569 602.337H576.628L571.455 589.597H568.376L563.203 602.337H566.262L567.153 600.149H572.679L573.569 602.337ZM568.024 598.016L569.916 593.38L571.807 598.016H568.024ZM578.416 602.337H581.142V594.104L587.299 602.337H590.025V589.597H587.299V597.831L581.142 589.597H578.416V602.337ZM598.77 602.56C600.698 602.56 602.46 601.725 603.702 600.427L601.737 598.647C600.995 599.5 599.938 600.075 598.77 600.075C596.637 600.075 594.82 598.183 594.82 595.958C594.82 593.751 596.637 591.86 598.77 591.86C599.938 591.86 600.995 592.435 601.718 593.288L603.702 591.507C602.46 590.191 600.698 589.375 598.77 589.375C595.098 589.375 592.001 592.379 592.001 595.958C592.001 599.537 595.098 602.56 598.77 602.56ZM615.336 592.064V589.597H605.526V602.337H615.336V599.871H608.27V597.071H614.668V594.604H608.27V592.064H615.336Z" fill="#86D4C9"/>
<path d="M652.304 886.403H444.703V925.543H652.304V886.403Z" fill="#6B5EC6"/>
<path d="M652.21 886.403H597.805V925.543H652.21V886.403Z" fill="#8077DE"/>
<path d="M499.107 886.403H444.703V925.543H499.107V886.403Z" fill="#5A4AB5"/>
<path d="M652.198 886.403V925.443H444.703V886.403H652.198Z" stroke="#503EAA" stroke-width="5.9405" stroke-miterlimit="8.4865" stroke-linejoin="round"/>
<path d="M1125.1 395.862C1125.1 406.677 1116.41 415.381 1105.6 415.381H937.101C926.291 415.381 917.601 406.677 917.601 395.862C917.601 385.046 926.291 376.342 937.101 376.342H1105.6C1116.3 376.342 1125.1 385.058 1125.1 395.862Z" fill="#6B5EC6"/>
<path d="M1099.1 415.487H943.501V886.423H1099.1V415.487Z" fill="#6B5EC6"/>
<path d="M990.191 415.487H943.501V886.423H990.191V415.487Z" fill="#5E4FB9"/>
<path d="M1099.1 415.487H1052.4V886.423H1099.1V415.487Z" fill="#8077DE"/>
<path d="M1105.6 376.342H1070.7V415.476H1105.6C1116.41 415.476 1125.1 406.771 1125.1 395.956C1125.1 385.058 1116.3 376.342 1105.6 376.342Z" fill="#8077DE"/>
<path d="M972.001 376.342H937.101C926.291 376.342 917.601 385.046 917.601 395.862C917.601 406.677 926.291 415.381 937.101 415.381H972.001V376.342Z" fill="#5E4FB9"/>
<path d="M1099.1 415.487H943.501V886.423H1099.1V415.487Z" stroke="#503EAA" stroke-width="5.9405" stroke-miterlimit="8.4865" stroke-linejoin="round"/>
<path d="M1044.6 886.403H1029V439.996C1029 435.691 1032.5 432.188 1036.8 432.188C1041.1 432.188 1044.6 435.691 1044.6 439.996V886.403Z" fill="#503EAA"/>
<path d="M1075.8 886.403H1060.2V439.996C1060.2 435.691 1063.7 432.188 1068 432.188C1072.3 432.188 1075.8 435.691 1075.8 439.996V886.403Z" fill="#503EAA"/>
<path d="M1013.5 886.403H997.901V439.996C997.901 435.691 1001.4 432.188 1005.7 432.188C1010 432.188 1013.5 435.691 1013.5 439.996V886.403Z" fill="#503EAA"/>
<path d="M982.401 886.403H966.801V439.996C966.801 435.691 970.301 432.188 974.601 432.188C978.911 432.188 982.401 435.691 982.401 439.996V886.403Z" fill="#503EAA"/>
<path d="M1125.1 395.862C1125.1 406.677 1116.41 415.381 1105.6 415.381H937.101C926.291 415.381 917.601 406.677 917.601 395.862C917.601 385.046 926.291 376.342 937.101 376.342H1105.6C1116.3 376.342 1125.1 385.058 1125.1 395.862Z" stroke="#503EAA" stroke-width="5.9405" stroke-miterlimit="8.4865" stroke-linejoin="round"/>
<path d="M1125.1 886.403H917.501V925.543H1125.1V886.403Z" fill="#6B5EC6"/>
<path d="M1125.01 886.403H1070.6V925.543H1125.01V886.403Z" fill="#8077DE"/>
<path d="M971.911 886.403H917.501V925.543H971.911V886.403Z" fill="#5A4AB5"/>
<path d="M1125.1 886.403V925.553H917.501V886.403H1125.1Z" stroke="#503EAA" stroke-width="5.9405" stroke-miterlimit="8.4865" stroke-linejoin="round"/>
<path d="M991.041 402.009C994.721 402.009 997.811 398.986 997.811 395.407C997.811 391.828 994.721 388.824 991.041 388.824C987.371 388.824 984.271 391.828 984.271 395.407C984.271 398.986 987.371 402.009 991.041 402.009ZM991.041 399.524C988.911 399.524 987.091 397.632 987.091 395.407C987.091 393.2 988.911 391.309 991.041 391.309C993.191 391.309 994.991 393.2 994.991 395.407C994.991 397.632 993.191 399.524 991.041 399.524ZM1010.32 393.349C1010.32 390.827 1008.28 389.046 1005.52 389.046H999.791V401.786H1002.52V397.651H1004.17L1007.08 401.786H1010.19L1007.14 397.428C1009.05 396.872 1010.32 395.351 1010.32 393.349ZM1002.52 391.55H1005.24C1006.58 391.55 1007.51 392.255 1007.51 393.349C1007.51 394.443 1006.58 395.147 1005.24 395.147H1002.52V391.55ZM1021.73 401.786H1024.79L1019.61 389.046H1016.54L1011.36 401.786H1014.42L1015.31 399.598H1020.84L1021.73 401.786ZM1016.18 397.465L1018.07 392.829L1019.97 397.465H1016.18ZM1031.73 402.009C1033.66 402.009 1035.43 401.174 1036.67 399.876L1034.7 398.096C1033.96 398.949 1032.9 399.524 1031.73 399.524C1029.6 399.524 1027.79 397.632 1027.79 395.407C1027.79 393.2 1029.6 391.309 1031.73 391.309C1032.9 391.309 1033.96 391.884 1034.68 392.737L1036.67 390.957C1035.43 389.64 1033.66 388.824 1031.73 388.824C1028.06 388.824 1024.97 391.828 1024.97 395.407C1024.97 398.986 1028.06 402.009 1031.73 402.009ZM1041.22 399.32V389.046H1038.49V401.786H1047.56V399.32H1041.22ZM1059.28 391.513V389.046H1049.47V401.786H1059.28V399.32H1052.21V396.52H1058.61V394.053H1052.21V391.513H1059.28Z" fill="#86D4C9"/>
<path d="M210.601 353.921C210.601 364.737 201.905 373.441 191.099 373.441H22.596C11.79 373.441 3.09399 364.737 3.09399 353.921C3.09399 343.106 11.79 334.402 22.596 334.402H191.099C201.905 334.414 210.601 343.118 210.601 353.921Z" fill="#6B5EC6"/>
<path d="M184.606 373.441H29.006V886.853H184.606V373.441Z" fill="#6B5EC6"/>
<path d="M75.704 373.441H29.006V886.853H75.704V373.441Z" fill="#5E4FB9"/>
<path d="M184.595 373.441H137.897V886.853H184.595V373.441Z" fill="#8077DE"/>
<path d="M191.099 334.308H156.197V373.441H191.099C201.905 373.441 210.601 364.737 210.601 353.921C210.601 343.118 201.799 334.308 191.099 334.308Z" fill="#8077DE"/>
<path d="M57.498 334.308H22.596C11.79 334.308 3.09399 343.012 3.09399 353.827C3.09399 364.642 11.79 373.347 22.596 373.347H57.498V334.308Z" fill="#5E4FB9"/>
<path d="M184.606 373.441H29.006V886.853H184.606V373.441Z" stroke="#503EAA" stroke-width="5.9405" stroke-miterlimit="8.4865" stroke-linejoin="round"/>
<path d="M130.202 886.963H114.601V397.961C114.601 393.656 118.101 390.153 122.402 390.153C126.703 390.153 130.202 393.656 130.202 397.961V886.963Z" fill="#503EAA"/>
<path d="M161.299 886.963H145.697V397.961C145.697 393.656 149.197 390.153 153.498 390.153C157.799 390.153 161.299 393.656 161.299 397.961V886.963Z" fill="#503EAA"/>
<path d="M99 886.963H83.504V397.961C83.504 393.656 87.004 390.153 91.305 390.153C95.606 390.153 99.106 393.656 99.106 397.961V886.963H99Z" fill="#503EAA"/>
<path d="M67.903 886.963H52.302V397.961C52.302 393.656 55.801 390.153 60.102 390.153C64.403 390.153 67.903 393.656 67.903 397.961V886.963Z" fill="#503EAA"/>
<path d="M210.601 353.921C210.601 364.737 201.905 373.441 191.099 373.441H22.596C11.79 373.441 3.09399 364.737 3.09399 353.921C3.09399 343.106 11.79 334.402 22.596 334.402H191.099C201.799 334.414 210.601 343.118 210.601 353.921Z" stroke="#503EAA" stroke-width="5.9405" stroke-miterlimit="8.4865" stroke-linejoin="round"/>
<path d="M210.601 886.963H3V926.093H210.601V886.963Z" fill="#6B5EC6"/>
<path d="M210.507 886.963H156.103V926.093H210.507V886.963Z" fill="#8077DE"/>
<path d="M57.404 886.963H3V926.093H57.404V886.963Z" fill="#5A4AB5"/>
<path d="M210.601 886.963V926.003H3V886.963H210.601Z" stroke="#503EAA" stroke-width="5.9405" stroke-miterlimit="8.4865" stroke-linejoin="round"/>
<path d="M87.844 361.012C91.219 361.012 93.612 358.639 93.612 355.282V348.05H90.867V355.171C90.867 357.137 89.625 358.527 87.844 358.527C86.064 358.527 84.8221 357.137 84.8221 355.171V348.05H82.077V355.282C82.077 358.639 84.469 361.012 87.844 361.012ZM100.724 361.012C103.839 361.012 105.675 359.399 105.675 356.97C105.675 354.615 103.857 353.799 101.113 353.187C99.147 352.742 98.387 352.445 98.387 351.518C98.387 350.758 99.092 350.146 100.26 350.146C101.484 350.146 102.763 350.646 103.895 351.555L105.322 349.589C104.024 348.477 102.411 347.828 100.334 347.828C97.553 347.828 95.624 349.441 95.624 351.796C95.624 354.262 97.534 355.023 100.223 355.635C102.17 356.08 102.912 356.358 102.912 357.266C102.912 358.064 102.207 358.694 100.835 358.694C99.2211 358.694 97.849 358.064 96.644 357.025L95.068 358.898C96.551 360.271 98.517 361.012 100.724 361.012ZM117.446 350.516V348.05H107.636V360.79H117.446V358.323H110.381V355.523H116.778V353.057H110.381V350.516H117.446ZM130.302 352.352C130.302 349.83 128.262 348.05 125.499 348.05H119.769V360.79H122.495V356.655H124.146L127.057 360.79H130.172L127.113 356.432C129.023 355.876 130.302 354.355 130.302 352.352ZM122.495 350.554H125.221C126.556 350.554 127.484 351.258 127.484 352.352C127.484 353.446 126.556 354.151 125.221 354.151H122.495V350.554Z" fill="#86D4C9"/>
<path d="M239.706 214.903C238.009 214.903 236.607 213.499 236.607 211.695C236.607 210.893 236.902 210.091 237.503 209.489C250.9 196.079 250.9 174.354 237.503 160.944C236.301 159.741 236.207 157.736 237.408 156.545C238.61 155.342 240.614 155.247 241.804 156.45L241.898 156.545C257.699 172.361 257.699 198.084 241.898 213.995C241.297 214.596 240.602 214.903 239.706 214.903Z" fill="#38237C"/>
<path d="M230.197 205.385C229.395 205.385 228.594 205.09 227.993 204.488C226.791 203.285 226.791 201.28 227.993 200.089C236.088 191.987 236.088 178.765 227.993 170.556C226.791 169.259 226.992 167.254 228.194 166.157C229.395 165.06 231.198 165.06 232.388 166.157C242.994 176.772 242.994 193.98 232.388 204.488C231.799 205.09 230.998 205.385 230.197 205.385Z" fill="#38237C"/>
<path d="M220.699 195.879C219.002 195.879 217.6 194.475 217.6 192.777C217.6 191.975 217.895 191.173 218.496 190.571C221.394 187.67 221.394 182.964 218.496 180.063C217.294 178.86 217.294 176.854 218.496 175.663C219.698 174.46 221.701 174.46 222.891 175.663C228.194 181.065 228.194 189.675 222.891 195.077C222.302 195.584 221.501 195.879 220.699 195.879Z" fill="#38237C"/>
<path d="M298.399 227.912C300.096 227.912 301.499 229.315 301.499 231.12C301.499 231.922 301.204 232.724 300.603 233.325C287.205 246.735 287.205 268.46 300.603 281.87C301.805 283.073 301.899 285.078 300.697 286.27C299.495 287.473 297.492 287.567 296.302 286.364L296.208 286.27C280.406 270.454 280.406 244.73 296.208 228.82C296.797 228.207 297.598 227.912 298.399 227.912Z" fill="#38237C"/>
<path d="M307.897 237.418C308.698 237.418 309.5 237.713 310.101 238.314C311.303 239.517 311.303 241.522 310.101 242.713C302.005 250.816 302.005 264.037 310.101 272.246C311.303 273.544 311.102 275.549 309.9 276.645C308.698 277.742 306.896 277.742 305.705 276.645C295.1 266.031 295.1 248.823 305.705 238.314C306.306 237.724 307.108 237.418 307.897 237.418Z" fill="#38237C"/>
<path d="M317.406 246.924C319.103 246.924 320.505 248.327 320.505 250.026C320.505 250.828 320.211 251.63 319.61 252.231C316.711 255.133 316.711 259.839 319.61 262.74C320.811 263.943 320.811 265.948 319.61 267.139C318.408 268.342 316.404 268.342 315.214 267.139C309.912 261.738 309.912 253.128 315.214 247.726C315.803 247.231 316.605 246.924 317.406 246.924Z" fill="#38237C"/>
<path d="M843.011 272.753C841.311 272.753 839.911 271.35 839.911 269.545C839.911 268.743 840.201 267.941 840.801 267.34C854.201 253.93 854.201 232.205 840.801 218.795C839.601 217.592 839.511 215.587 840.711 214.396C841.911 213.204 843.911 213.098 845.101 214.301L845.201 214.396C861.001 230.212 861.001 255.935 845.201 271.845C844.701 272.447 843.901 272.753 843.011 272.753Z" fill="#38237C"/>
<path d="M833.501 263.247C832.701 263.247 831.891 262.953 831.291 262.351C830.091 261.148 830.091 259.143 831.291 257.952C839.391 249.849 839.391 236.628 831.291 228.419C830.091 227.122 830.291 225.117 831.491 224.02C832.701 222.923 834.501 222.923 835.691 224.02C846.291 234.635 846.291 251.842 835.691 262.351C835.211 262.941 834.401 263.247 833.501 263.247Z" fill="#38237C"/>
<path d="M824.001 253.729C822.301 253.729 820.901 252.326 820.901 250.627C820.901 249.825 821.201 249.023 821.801 248.422C824.691 245.521 824.691 240.815 821.801 237.913C820.591 236.71 820.591 234.705 821.801 233.514C823.001 232.311 825.001 232.311 826.191 233.514C831.491 238.916 831.491 247.526 826.191 252.927C825.701 253.434 824.911 253.729 824.001 253.729Z" fill="#38237C"/>
<path d="M791.611 279.96C793.301 279.96 794.711 281.363 794.711 283.168C794.711 283.97 794.411 284.772 793.811 285.373C780.411 298.783 780.411 320.508 793.811 333.918C795.011 335.121 795.111 337.126 793.901 338.318C792.701 339.521 790.701 339.615 789.511 338.412L789.421 338.318C773.611 322.502 773.611 296.778 789.421 280.868C790.001 280.361 790.811 279.96 791.611 279.96Z" fill="#38237C"/>
<path d="M801.101 289.572C801.911 289.572 802.711 289.867 803.311 290.468C804.511 291.671 804.511 293.676 803.311 294.868C795.211 302.97 795.211 316.192 803.311 324.4C804.511 325.698 804.311 327.703 803.111 328.8C801.911 329.896 800.101 329.896 798.911 328.8C788.311 318.185 788.311 300.977 798.911 290.468C799.501 289.867 800.301 289.572 801.101 289.572Z" fill="#38237C"/>
<path d="M810.601 299.078C812.301 299.078 813.701 300.482 813.701 302.18C813.701 302.982 813.411 303.784 812.811 304.386C809.911 307.287 809.911 311.993 812.811 314.894C814.011 316.097 814.011 318.102 812.811 319.294C811.601 320.497 809.601 320.497 808.411 319.294C803.111 313.892 803.111 305.282 808.411 299.88C809.001 299.373 809.801 299.078 810.601 299.078Z" fill="#38237C"/>
<path d="M540.102 326.7C540.102 328.399 538.699 329.802 536.897 329.802C536.095 329.802 535.294 329.507 534.693 328.906C521.295 315.496 499.59 315.496 486.192 328.906C484.99 330.109 482.987 330.203 481.797 329C480.595 327.797 480.501 325.792 481.703 324.601L481.797 324.507C497.599 308.691 523.298 308.691 539.194 324.507C539.807 325.096 540.102 325.898 540.102 326.7Z" fill="#38237C"/>
<path d="M530.604 336.313C530.604 337.115 530.31 337.917 529.709 338.518C528.507 339.721 526.504 339.721 525.314 338.518C517.218 330.416 504.009 330.416 495.808 338.518C494.512 339.721 492.508 339.521 491.412 338.318C490.317 337.115 490.317 335.31 491.412 334.119C502.018 323.504 519.21 323.504 529.709 334.119C530.298 334.614 530.604 335.404 530.604 336.313Z" fill="#38237C"/>
<path d="M521.107 345.819C521.107 347.517 519.705 348.921 518.008 348.921C517.207 348.921 516.405 348.626 515.804 348.024C512.906 345.123 508.204 345.123 505.305 348.024C504.103 349.227 502.1 349.227 500.91 348.024C499.72 346.821 499.708 344.816 500.91 343.625C506.307 338.318 514.909 338.318 520.306 343.625C520.8 344.12 521.107 344.923 521.107 345.819Z" fill="#38237C"/>
<path d="M567.298 386.556C567.298 384.858 568.7 383.454 570.503 383.454C571.304 383.454 572.106 383.749 572.707 384.351C586.104 397.761 607.81 397.761 621.207 384.351C622.409 383.148 624.412 383.053 625.603 384.256C626.805 385.459 626.899 387.464 625.697 388.656L625.603 388.75C609.801 404.566 584.101 404.566 568.205 388.75C567.604 388.254 567.298 387.453 567.298 386.556Z" fill="#38237C"/>
<path d="M576.807 377.05C576.807 376.248 577.102 375.446 577.703 374.844C578.905 373.641 580.908 373.641 582.098 374.844C590.193 382.947 603.402 382.947 611.604 374.844C612.9 373.641 614.903 373.842 615.999 375.045C617.095 376.248 617.095 378.052 615.999 379.244C605.394 389.859 588.202 389.859 577.703 379.244C577.196 378.654 576.807 377.946 576.807 377.05Z" fill="#38237C"/>
<path d="M586.305 367.544C586.305 365.845 587.707 364.442 589.404 364.442C590.205 364.442 591.006 364.737 591.607 365.338C594.506 368.24 599.208 368.24 602.106 365.338C603.308 364.135 605.311 364.135 606.502 365.338C607.703 366.541 607.703 368.546 606.502 369.738C601.105 375.045 592.503 375.045 587.106 369.738C586.705 369.136 586.305 368.334 586.305 367.544Z" fill="#38237C"/>
<path d="M665.611 555.814V539.703C665.611 539.703 671.801 525.585 670.111 525.184L629.903 511.172H632.508C637.504 511.172 641.604 507.068 641.604 502.067V501.265C641.604 496.264 637.504 492.16 632.508 492.16H611.804C611.003 476.851 604.498 462.533 593.304 451.623C582.11 440.714 567.404 434.51 551.708 433.708V427.705C554.313 426.502 556.104 423.907 556.104 420.793C556.104 416.594 552.698 413.186 548.503 413.186C544.308 413.186 540.903 416.594 540.903 420.793C540.903 423.895 542.706 426.502 545.298 427.705V433.708C529.603 434.51 514.897 440.714 503.703 451.623C492.402 462.533 485.898 476.851 485.203 492.16H464.499C459.503 492.16 455.402 496.264 455.402 501.265V502.067C455.402 507.068 459.503 511.172 464.499 511.172H466.997L433.002 522.188C431.305 522.589 430.303 524.288 430.704 525.986L426.91 530.987C431.211 525.479 428.112 536.695 428.913 537.19C429.408 537.485 431.812 537.19 432.413 537.19C432.707 537.19 434.015 535.693 434.31 535.693L434.51 541.602L431.305 555.814H411.509V578.235H685.511V555.814H665.611Z" fill="#C0DBFF"/>
<path d="M508.204 510.17H472.206V559.01H508.204V510.17Z" fill="#77A4F2"/>
<path d="M624.707 540.398L662.401 550.105V536.094L624.707 526.293V540.398Z" fill="#77A4F2"/>
<path d="M556.104 436.81C556.104 436.81 592.503 444.912 592.503 497.267L608.599 494.967C608.599 494.955 605.206 444.818 556.104 436.81Z" fill="white"/>
<path d="M542.8 436.81C542.8 436.81 506.401 444.912 506.401 497.267L490.305 494.955C490.305 494.955 493.699 444.818 542.8 436.81Z" fill="#77A4F2"/>
<path d="M636.208 497.267H592.904V504.674H636.208V497.267Z" fill="white"/>
<path d="M506.602 497.963H459.397V505.37H506.602V497.963Z" fill="#77A4F2"/>
<path d="M611.899 498.364H485.002V495.156C485.002 478.738 491.601 463.229 503.597 451.611C515.592 440.006 531.5 433.59 548.397 433.59C565.295 433.59 581.203 439.994 593.198 451.611C605.194 463.217 611.792 478.738 611.792 495.156V498.364H611.899ZM491.601 491.853H605.3C604.499 478.337 598.701 465.835 588.803 456.117C577.998 445.703 563.704 439.9 548.504 439.9C533.303 439.9 518.998 445.608 508.204 456.117C498.2 465.835 492.402 478.443 491.601 491.853Z" fill="#503EAA"/>
<path d="M583.1 495.156H576.595C576.595 480.342 573.39 465.823 567.793 455.421C562.49 445.608 555.491 440.006 548.397 440.006C541.398 440.006 534.293 445.608 529.002 455.421C523.405 465.835 520.2 480.342 520.2 495.156H513.695C513.695 479.045 517.101 463.83 523.299 452.413C529.803 440.301 538.7 433.602 548.397 433.602C558.095 433.602 566.897 440.312 573.496 452.413C579.706 463.83 583.1 479.045 583.1 495.156Z" fill="#503EAA"/>
<path d="M551.709 423.588H545.204V495.156H551.709V423.588Z" fill="#503EAA"/>
<path d="M628.006 562.218H469V505.263H628.006V562.218ZM475.399 555.814H621.502V511.774H475.399V555.814Z" fill="#503EAA"/>
<path d="M624.801 510.17H472.206V530.09H624.801V510.17Z" fill="#77A4F2"/>
<path d="M611.899 562.218H485.002V505.263H611.804V562.218H611.899ZM491.507 555.814H605.406V511.774H491.507V555.814Z" fill="#503EAA"/>
<path d="M682.301 559.022H643.608V574.932H682.301V559.022Z" fill="white"/>
<path d="M485.297 559.022H414.997V574.932H485.297V559.022Z" fill="#77A4F2"/>
<path d="M563.999 556.509V526.587C563.999 525.384 564.494 524.181 565.295 523.379C566.191 522.483 567.298 522.082 568.5 522.082C569.702 522.082 570.904 522.577 571.705 523.379C572.601 524.276 573.001 525.384 573.001 526.587V556.509H563.999Z" fill="#503EAA"/>
<path d="M568.606 522.884C569.608 522.884 570.609 523.285 571.304 523.981C572 524.677 572.4 525.585 572.4 526.587V555.719H564.8V526.587C564.8 525.585 565.201 524.689 565.896 523.981C566.697 523.179 567.605 522.884 568.606 522.884ZM568.606 521.186C567.204 521.186 565.802 521.787 564.812 522.79C563.81 523.792 563.209 525.089 563.209 526.587V555.719V557.323H564.812H572.412H574.015V555.719V526.587C574.015 525.184 573.414 523.78 572.412 522.79C571.399 521.787 570.103 521.186 568.606 521.186Z" fill="#503EAA"/>
<path d="M584.207 556.509V526.587C584.207 525.384 584.702 524.181 585.503 523.379C586.399 522.483 587.507 522.082 588.709 522.082C589.91 522.082 591.112 522.577 591.914 523.379C592.809 524.181 593.21 525.384 593.21 526.587V556.509H584.207Z" fill="#503EAA"/>
<path d="M588.803 522.884C589.804 522.884 590.806 523.285 591.501 523.981C592.196 524.677 592.597 525.585 592.597 526.587V555.719H584.997V526.587C584.997 525.585 585.397 524.689 586.093 523.981C586.8 523.179 587.801 522.884 588.803 522.884ZM588.803 521.186C587.401 521.186 585.998 521.787 585.009 522.79C584.007 523.792 583.406 525.196 583.406 526.587V555.719V557.323H585.009H592.609H594.211V555.719V526.587C594.211 525.184 593.611 523.78 592.609 522.79C591.607 521.787 590.205 521.186 588.803 521.186Z" fill="#503EAA"/>
<path d="M523.805 556.509V526.587C523.805 525.384 524.3 524.181 525.101 523.379C525.997 522.483 527.105 522.082 528.307 522.082C529.508 522.082 530.71 522.577 531.512 523.379C532.407 524.276 532.808 525.384 532.808 526.587V556.509H523.805Z" fill="#503EAA"/>
<path d="M528.401 522.884C529.402 522.884 530.404 523.285 531.099 523.981C531.794 524.677 532.195 525.585 532.195 526.587V555.719H524.595V526.587C524.595 525.585 524.995 524.689 525.691 523.981C526.398 523.179 527.305 522.884 528.401 522.884ZM528.401 521.186C526.999 521.186 525.596 521.787 524.606 522.79C523.605 523.792 523.004 525.089 523.004 526.587V555.719V557.323H524.606H532.207H533.809V555.719V526.587C533.809 525.184 533.208 523.78 532.207 522.79C531.099 521.787 529.803 521.186 528.401 521.186Z" fill="#503EAA"/>
<path d="M543.896 556.509V526.587C543.896 525.384 544.391 524.181 545.192 523.379C546.088 522.483 547.195 522.082 548.397 522.082C549.599 522.082 550.801 522.577 551.602 523.379C552.498 524.181 552.899 525.384 552.899 526.587V556.509H543.896Z" fill="#503EAA"/>
<path d="M548.503 522.884C549.505 522.884 550.506 523.285 551.202 523.981C551.897 524.677 552.298 525.585 552.298 526.587V555.719H544.697V526.587C544.697 525.585 545.098 524.689 545.793 523.981C546.5 523.179 547.502 522.884 548.503 522.884ZM548.503 521.186C547.101 521.186 545.699 521.787 544.709 522.79C543.707 523.792 543.106 525.196 543.106 526.587V555.719V557.323H544.709H552.309H553.912V555.719V526.587C553.912 525.184 553.311 523.78 552.309 522.79C551.296 521.787 549.906 521.186 548.503 521.186Z" fill="#503EAA"/>
<path d="M503.597 556.509V526.587C503.597 525.384 504.092 524.181 504.893 523.379C505.788 522.483 506.896 522.082 508.098 522.082C509.3 522.082 510.502 522.577 511.303 523.379C512.199 524.276 512.599 525.384 512.599 526.587V556.509H503.597Z" fill="#503EAA"/>
<path d="M508.204 522.884C509.206 522.884 510.207 523.285 510.902 523.981C511.598 524.677 511.998 525.585 511.998 526.587V555.719H504.398V526.587C504.398 525.585 504.799 524.689 505.494 523.981C506.201 523.179 507.202 522.884 508.204 522.884ZM508.204 521.186C506.802 521.186 505.399 521.787 504.41 522.79C503.408 523.792 502.807 525.089 502.807 526.587V555.719V557.323H504.41H512.01H513.613V555.719V526.587C513.613 525.184 513.012 523.78 512.01 522.79C510.997 521.787 509.606 521.186 508.204 521.186Z" fill="#503EAA"/>
<path d="M632.508 498.564C634.004 498.564 635.206 499.767 635.206 501.265V502.067C635.206 503.565 634.004 504.768 632.508 504.768H464.499C463.003 504.768 461.801 503.565 461.801 502.067V501.265C461.801 499.767 463.003 498.564 464.499 498.564H632.508ZM632.508 492.16H464.499C459.503 492.16 455.402 496.264 455.402 501.265V502.067C455.402 507.068 459.503 511.172 464.499 511.172H632.496C637.492 511.172 641.593 507.068 641.593 502.067V501.265C641.605 496.264 637.504 492.16 632.508 492.16Z" fill="#503EAA"/>
<path d="M685.501 578.235H411.497V555.814H685.501V578.235ZM417.907 571.724H679.001V562.218H417.907V571.724Z" fill="#503EAA"/>
<path d="M472.206 526.187L434.31 535.598C431.011 536.4 427.605 534.301 426.91 530.892C426.215 527.684 428.206 524.582 431.305 523.78L472.206 513.071V526.187Z" fill="#77A4F2"/>
<path d="M432.802 538.995C431.105 538.995 429.396 538.5 427.9 537.592C425.696 536.188 424.294 534.089 423.705 531.588C422.703 526.788 425.708 521.976 430.41 520.679L471.31 509.969C472.312 509.675 473.313 509.969 474.114 510.571C474.916 511.172 475.411 512.175 475.411 513.177V526.187C475.411 527.684 474.409 528.994 473.007 529.288L435.111 538.7C434.298 538.995 433.497 538.995 432.802 538.995ZM468.906 517.376L432 527.083C430.504 527.484 429.597 528.887 429.903 530.385C430.103 531.187 430.504 531.789 431.199 532.19C431.894 532.591 432.601 532.685 433.403 532.591L468.906 523.78V517.376Z" fill="#503EAA"/>
<path d="M472.206 559.022H434.499V536.094L472.206 526.293V559.022Z" fill="#77A4F2"/>
<path d="M475.399 562.218H431.293V533.593L475.399 522.082V562.218ZM437.703 555.814H468.906V530.491L437.703 538.594V555.814Z" fill="#503EAA"/>
<path d="M624.707 526.187L662.601 535.598C665.901 536.4 669.311 534.301 670.001 530.892C670.701 527.684 668.711 524.582 665.611 523.78L624.707 513.071V526.187Z" fill="white"/>
<path d="M664.101 538.995C663.301 538.995 662.601 538.901 661.801 538.7L623.906 529.288C622.504 528.887 621.502 527.684 621.502 526.187V513.178C621.502 512.175 621.997 511.279 622.798 510.571C623.599 509.863 624.601 509.769 625.603 509.97L666.501 520.679C671.301 521.976 674.201 526.682 673.211 531.588C672.711 534.089 671.201 536.188 669.011 537.592C667.601 538.594 665.901 538.995 664.101 538.995ZM628.006 523.686L663.511 532.496C664.311 532.697 665.011 532.591 665.711 532.095C666.411 531.694 666.811 530.999 667.011 530.291C667.301 528.793 666.411 527.39 664.911 526.989L628.006 517.282V523.686Z" fill="#503EAA"/>
<path d="M665.611 562.218H621.502V522.082L665.611 533.593V562.218ZM628.006 555.814H659.211V538.594L628.006 530.491V555.814Z" fill="#503EAA"/>
<path d="M548.503 428.4C552.701 428.4 556.104 424.994 556.104 420.793C556.104 416.592 552.701 413.186 548.503 413.186C544.306 413.186 540.903 416.592 540.903 420.793C540.903 424.994 544.306 428.4 548.503 428.4Z" fill="#503EAA"/>
<path d="M454.2 550.518C457.129 550.518 459.503 548.142 459.503 545.211C459.503 542.279 457.129 539.903 454.2 539.903C451.272 539.903 448.898 542.279 448.898 545.211C448.898 548.142 451.272 550.518 454.2 550.518Z" fill="#503EAA"/>
<path d="M643.608 550.518C646.536 550.518 648.91 548.142 648.91 545.211C648.91 542.279 646.536 539.903 643.608 539.903C640.679 539.903 638.305 542.279 638.305 545.211C638.305 548.142 640.679 550.518 643.608 550.518Z" fill="#503EAA"/>
<path d="M48.696 205.491L70.001 220.705L98.399 188.177C78.402 186.974 58.005 197.577 48.696 205.491Z" fill="#77A4F2"/>
<path d="M46.905 248.929C50.511 256.631 47.706 265.642 40.507 268.944C31.811 273.048 15.302 271.951 6.11096 267.941C8.91496 258.235 18.707 244.919 27.51 240.921C34.603 237.618 43.299 241.227 46.905 248.929Z" fill="#FF8486"/>
<path d="M177.407 192.175L189.709 186.373L187.305 181.372L175.003 187.175L177.407 192.175Z" fill="#503EAA"/>
<path d="M52.9971 205.986C52.9971 205.986 69.1991 193.178 87.3931 190.878C98.8941 189.38 87.3931 199.287 87.3931 199.287C87.3931 199.287 73.2061 196.28 52.9971 205.986Z" fill="white"/>
<path d="M46.999 207.991C46.599 207.696 46.304 207.39 46.104 206.989C45.903 206.588 45.809 206.092 45.703 205.691C45.703 205.196 45.797 204.795 45.903 204.394C46.104 203.993 46.398 203.592 46.705 203.297C56.803 194.793 71.91 187.988 87.004 185.276H87.299L88.395 191.279H88.1C75.704 193.484 62.895 198.78 53.798 205.491L72.004 218.5L68.504 223.501L46.999 207.991Z" fill="#503EAA"/>
<path d="M87.205 185.476L88.206 190.984C75.61 193.284 62.601 198.686 53.504 205.397L71.804 218.406L68.598 222.911L47.294 207.696C46.999 207.496 46.693 207.095 46.493 206.8C46.292 206.399 46.198 205.998 46.198 205.597C46.198 205.196 46.292 204.795 46.398 204.394C46.599 203.993 46.799 203.698 47.094 203.392C57.004 194.876 72.004 188.177 87.205 185.476ZM87.605 184.875L87.11 184.969C71.91 187.67 56.815 194.475 46.705 202.991C46.304 203.285 46.01 203.686 45.809 204.194C45.609 204.689 45.515 205.196 45.515 205.691C45.515 206.187 45.715 206.694 45.915 207.095C46.116 207.496 46.516 207.897 46.917 208.192L68.221 223.406L68.622 223.701L68.917 223.3L72.122 218.795L72.416 218.394L72.016 218.099L54.317 205.491C63.414 198.98 76.022 193.779 88.218 191.574L88.713 191.479L88.619 190.984L87.617 185.476L87.605 184.875Z" fill="#503EAA"/>
<path d="M201.104 176.265C199.206 172.16 194.305 170.356 190.204 172.361C186.103 174.26 184.3 179.166 186.304 183.271C188.201 187.375 193.103 189.18 197.203 187.175C201.304 185.17 203.001 180.369 201.104 176.265Z" fill="#503EAA"/>
<path d="M55.401 249.33C59.396 256.242 68.799 263.448 68.799 263.448L78.402 242.03L70.401 222.416L50.8999 222.215C44.5959 225.305 51.407 242.419 55.401 249.33Z" fill="#77A4F2"/>
<path d="M72.499 231.014L51.395 239.022L49.792 230.412L70.896 227.511L72.499 231.014Z" fill="white"/>
<path d="M69.3059 265.842C66.2069 265.842 58.111 264.037 50.205 247.325C46.41 239.222 44.8079 232.417 45.6089 227.003C46.4099 221.295 49.4029 219.396 50.6049 218.795C53.0089 217.698 60.503 217.497 63.602 217.497C65.9 217.497 68.198 217.592 70.201 217.698H70.4959L70.0949 223.807H69.8009C67.7969 223.713 65.7 223.607 63.602 223.607C58.1 223.607 53.9989 224.008 53.1979 224.303C52.3019 224.704 48.8019 230.105 55.8019 244.718C62.7069 259.332 68.7049 259.733 69.3999 259.733C69.6939 259.733 69.8949 259.638 70.0009 259.638C71.0969 259.037 76.305 253.635 81.007 247.124L81.2069 246.924L86.1089 250.533L85.9089 250.734C82.1139 255.935 75.4089 263.849 72.6049 265.146C71.6029 265.641 70.4959 265.842 69.3059 265.842Z" fill="#503EAA"/>
<path d="M63.697 217.804C65.995 217.804 68.292 217.898 70.201 218.005L69.907 223.607C67.703 223.512 65.606 223.406 63.602 223.406C58.206 223.406 53.9989 223.807 53.1029 224.102C51.9019 224.704 48.508 230.212 55.507 244.919C61.611 257.834 67.2079 260.134 69.3059 260.134C69.5999 260.134 69.8009 260.134 70.0009 260.039C71.0969 259.343 76.399 253.93 81.101 247.431L85.602 250.734C81.808 255.935 75.1029 263.849 72.4049 265.146C71.6029 265.547 70.5079 265.842 69.3059 265.842C64.5099 265.842 57.3099 261.938 50.4049 247.526C41.8029 229.41 46.505 221.201 50.7 219.302C52.703 218.099 58.3 217.804 63.697 217.804ZM63.697 217.297C60.598 217.297 52.9969 217.391 50.5939 218.594C46.2929 220.599 41.2959 229.009 50.0989 247.526C57.9939 264.344 66.3009 266.137 69.3999 266.137C70.6019 266.137 71.8039 265.936 72.6989 265.441C75.5979 264.037 82.397 255.935 86.097 250.922L86.3919 250.521L85.9909 250.226L81.49 246.924L81.089 246.629L80.795 247.03C75.999 253.635 70.79 258.942 69.895 259.544C69.895 259.544 69.801 259.544 69.494 259.544C68.893 259.544 62.99 259.143 56.096 244.636C52.396 236.828 51.7949 231.922 51.9019 229.127C51.9959 225.824 53.1979 224.621 53.5039 224.527C54.1989 224.232 58.3 223.831 63.8029 223.831C65.8999 223.831 67.9979 223.925 70.0009 224.031H70.4959V223.536L70.7899 218.028V217.533H70.295C68.198 217.297 66.006 217.297 63.697 217.297Z" fill="#503EAA"/>
<path d="M70.1069 220.706L83.4099 248.929C109.016 257.633 172.706 239.718 174.909 188.378C133.797 157.547 79.6039 195.383 70.1069 220.706Z" fill="#C0DBFF"/>
<path d="M138.899 240.72C110.3 254.237 84.695 254.331 84.695 254.331L75.692 235.319C130.297 229.209 169.795 195.678 172.894 188.672C170.396 205.491 167.497 227.204 138.899 240.72Z" fill="#77A4F2"/>
<path d="M111.396 185.37C82.397 199.087 70.401 219.302 70.401 219.302L74.196 227.31C80.9 216.896 89.597 205.786 116.993 192.883C144.39 179.968 162.088 186.88 173.094 191.385C166.201 181.867 140.407 171.653 111.396 185.37Z" fill="white"/>
<path d="M98.104 254.036C92.106 254.036 86.709 253.234 82.408 251.83L81.513 251.536L80.912 250.84C77.612 246.535 74.714 241.829 72.31 236.923C68.115 228.018 67.007 221.507 67.007 221.213L66.913 220.411L67.208 219.609C72.911 204.394 94.31 184.273 120.21 176.772C127.009 174.767 133.808 173.764 140.407 173.764C153.71 173.764 166.012 177.869 176.711 185.971L178.008 186.974L177.913 188.578C176.817 214.006 161.617 229.516 149.115 238.126C145.32 240.732 141.314 243.032 137.119 244.931C124.899 250.734 110.7 254.036 98.104 254.036ZM85.201 246.323C88.807 247.419 93.402 248.021 98.304 248.021C114.306 248.021 132.005 242.419 145.709 233.113C156.715 225.612 170.207 211.99 171.809 189.97C162.406 183.365 151.907 179.956 140.407 179.956C134.409 179.956 128.211 180.853 122.001 182.657C97.798 189.769 78.803 207.685 73.3 221.095C74.301 225.694 75.904 230.2 77.895 234.41C79.898 238.515 82.397 242.525 85.201 246.323Z" fill="#503EAA"/>
<path d="M140.407 173.965C151.707 173.965 164.41 176.972 176.606 186.078L177.807 186.974L177.713 188.472C176.617 213.794 161.511 229.304 149.009 237.819C145.214 240.426 141.208 242.725 137.107 244.624C124.004 250.828 109.911 253.729 98.21 253.729C92.212 253.729 86.8159 252.927 82.6089 251.524L81.808 251.229L81.313 250.533C78.013 246.228 75.1149 241.522 72.7109 236.616C68.5159 227.806 67.514 221.201 67.408 221L67.3139 220.305L67.6089 219.609C73.3119 204.5 94.6039 184.379 120.41 176.866C125.996 175.262 132.901 173.965 140.407 173.965ZM98.304 248.233C112.504 248.233 130.803 243.527 145.804 233.219C156.998 225.518 170.502 211.801 171.998 189.675C161.299 182.068 150.199 179.567 140.301 179.567C133.396 179.567 127.103 180.77 121.801 182.268C98.1039 189.18 78.603 207.095 72.899 220.906C73.901 225.506 75.503 230.011 77.601 234.316C79.698 238.621 82.1959 242.619 85.0949 246.523C88.8069 247.726 93.296 248.233 98.304 248.233ZM140.407 173.458V173.953V173.458C133.808 173.458 127.009 174.46 120.104 176.465C94.2039 183.966 72.6989 204.288 66.9019 219.503L66.6069 220.198V220.293V220.387L66.701 221.083C66.701 221.378 67.7969 227.888 72.0039 236.899C74.4079 241.805 77.401 246.511 80.7 250.911L81.1949 251.606L81.2889 251.701H81.489L82.291 251.996C86.592 253.494 92.0949 254.201 98.0919 254.201C110.689 254.201 124.994 250.899 137.296 245.096C141.491 243.091 145.497 240.791 149.291 238.185C161.888 229.575 177.089 213.959 178.196 188.436L178.291 186.939V186.644L178.09 186.443L176.888 185.547C166.106 177.562 153.805 173.458 140.407 173.458ZM73.4999 221C79.0029 207.685 97.9039 189.875 122.001 182.87C128.199 181.065 134.397 180.169 140.407 180.169C151.801 180.169 162.312 183.471 171.609 190.076C170.007 211.895 156.609 225.411 145.709 232.913C132.099 242.218 114.401 247.832 98.5049 247.832C93.6029 247.832 89.208 247.231 85.602 246.228C82.797 242.525 80.405 238.421 78.296 234.316C76.104 230.011 74.5019 225.506 73.4999 221Z" fill="#503EAA"/>
<path d="M67.397 278.356C82.491 277.86 132.594 255.64 144.401 217.698C107.696 242.124 78.002 241.015 78.002 241.015L67.397 278.356Z" fill="#77A4F2"/>
<path d="M126.396 232.217C126.396 232.217 116.592 254.838 72.994 274.558C91.494 273.355 131.793 255.345 140.195 225.812C141.503 221.201 126.396 232.217 126.396 232.217Z" fill="white"/>
<path d="M67.396 281.363C66.996 281.363 66.501 281.269 66.1 281.069C65.7 280.868 65.299 280.573 65.004 280.172C64.71 279.771 64.509 279.37 64.403 278.875C64.297 278.379 64.309 277.872 64.498 277.471L75.103 240.143C75.303 239.541 75.704 238.94 76.199 238.539C76.694 238.138 77.401 237.937 78.002 237.937C79.203 237.937 107.602 237.536 144.001 217.321C144.496 217.12 145.002 216.92 145.497 216.92C145.591 216.92 145.698 216.92 145.792 216.92C146.393 217.014 146.994 217.215 147.489 217.616C147.983 218.017 148.29 218.512 148.49 219.113C148.691 219.715 148.691 220.316 148.49 220.918C141.785 242.537 123.486 257.35 109.287 265.854C105.292 268.26 101.191 270.454 96.985 272.459C85.896 277.66 74.302 281.163 67.396 281.363ZM71.603 274.759C89.007 271.657 126.102 254.543 139.7 226.508C110.3 241.322 87.098 243.622 80.405 243.929L71.603 274.759Z" fill="#503EAA"/>
<path d="M145.497 217.203C145.591 217.203 145.697 217.203 145.697 217.203C146.298 217.203 146.793 217.498 147.194 217.804C147.595 218.205 147.889 218.606 148.089 219.208C148.29 219.703 148.29 220.305 148.089 220.812C141.385 242.336 123.191 257.044 109.086 265.653C105.092 268.059 101.085 270.253 96.89 272.258C84.895 277.967 73.7949 281.068 67.4909 281.269H67.3959C66.9959 281.269 66.5949 281.175 66.1939 280.974C65.7939 280.774 65.4989 280.479 65.1929 280.172C64.8979 279.877 64.6979 279.476 64.6979 278.969C64.6039 278.568 64.6039 278.073 64.7919 277.672L75.3969 240.343C75.5979 239.741 75.892 239.246 76.399 238.845C76.894 238.444 77.495 238.244 78.096 238.244C78.39 238.244 107.401 238.043 144.295 217.521C144.602 217.297 145.002 217.203 145.497 217.203ZM140.206 225.907C110.512 241.015 87.1099 243.327 80.1109 243.728L71.214 275.16C88.206 272.246 126.596 255.039 140.206 225.907ZM145.497 216.601C144.896 216.601 144.401 216.695 143.895 217.002C107.495 237.217 79.192 237.618 77.99 237.618C77.295 237.618 76.5879 237.819 75.9869 238.314C75.3859 238.715 74.9849 239.317 74.7849 240.013L64.1799 277.341C64.0849 277.837 63.979 278.344 64.085 278.839C64.191 279.335 64.3799 279.842 64.6859 280.243C64.9809 280.644 65.3809 280.939 65.8879 281.245C66.2889 281.446 66.784 281.54 67.29 281.54H67.385C74.384 281.34 85.684 277.837 96.985 272.529C101.18 270.524 105.28 268.331 109.287 265.925C123.486 257.315 141.785 242.501 148.584 220.788C148.785 220.187 148.785 219.491 148.584 218.889C148.384 218.288 147.983 217.686 147.489 217.285C146.994 216.884 146.393 216.589 145.686 216.589C145.697 216.601 145.603 216.601 145.497 216.601ZM80.4999 244.223C87.4049 243.822 110.194 241.416 139.004 227.11C125.3 254.437 89.3019 271.256 71.9089 274.452L80.4999 244.223Z" fill="#503EAA"/>
<path d="M129.201 169.955C120.999 166.947 111.903 167.348 103.996 171.052C96.101 174.755 89.997 181.466 86.992 189.663C83.988 197.872 84.388 206.977 88.088 214.891C95.783 231.403 155.384 203.486 147.689 187.068C144.107 179.06 137.402 172.962 129.201 169.955Z" fill="#77A4F2"/>
<path d="M139.5 192.682C136.295 185.971 130.603 180.876 123.698 178.364C116.793 175.864 109.193 176.159 102.594 179.261C95.9949 182.362 90.893 187.965 88.395 194.876C85.897 201.788 86.191 209.395 89.196 216.2C95.701 230.212 146.098 206.694 139.5 192.682Z" fill="#503EAA"/>
<path d="M99.106 222.911C92.201 222.911 87.4049 220.611 85.3069 216.106C81.3129 207.402 80.806 197.683 84.105 188.684C87.31 179.673 93.909 172.467 102.511 168.363L102.605 168.268C106.906 166.263 111.502 165.166 116.204 164.966C116.698 164.966 117.299 164.966 117.806 164.966C122.001 164.966 126.102 165.662 130.108 167.171C134.609 168.775 138.604 171.276 142.104 174.472C145.603 177.68 148.408 181.478 150.399 185.783C155.195 196.091 141.302 208.404 125.3 215.905L124.9 216.106C115.603 220.399 106.199 222.911 99.106 222.911ZM117.9 171.064C113.505 171.064 109.298 171.96 105.304 173.871L105.21 173.965C98.01 177.374 92.6129 183.377 89.9149 190.878C87.2159 198.379 87.617 206.493 90.916 213.7C91.918 215.799 94.7099 217.002 99.1169 217.002C105.316 217.002 113.823 214.702 122.413 210.692L122.814 210.492C137.814 203.38 147.512 193.673 145.014 188.366C141.609 181.159 135.611 175.652 128.117 172.951C124.805 171.653 121.4 171.064 117.9 171.064Z" fill="#503EAA"/>
<path d="M117.9 165.249C122.095 165.249 126.196 165.945 130.096 167.348C134.491 168.952 138.592 171.453 141.998 174.555C145.497 177.763 148.302 181.56 150.199 185.771C154.995 195.985 141.102 208.086 125.194 215.599L124.794 215.799C115.991 219.904 106.588 222.604 98.988 222.604C92.684 222.604 87.688 220.706 85.484 216C81.49 207.39 81.089 197.683 84.282 188.778C87.487 179.874 94.086 172.668 102.582 168.563L102.676 168.469C106.871 166.464 111.478 165.367 116.18 165.166C116.899 165.249 117.405 165.249 117.9 165.249ZM99.106 217.096C105.104 217.096 113.611 214.891 122.508 210.787L122.908 210.586C138.003 203.474 147.807 193.673 145.203 188.165C141.797 180.959 135.705 175.357 128.199 172.55C124.9 171.347 121.4 170.745 117.9 170.745C113.505 170.745 109.204 171.641 105.198 173.552L105.104 173.646C97.904 177.055 92.307 183.153 89.608 190.666C86.91 198.167 87.311 206.375 90.61 213.688C91.706 216 94.805 217.096 99.106 217.096ZM117.9 164.647C117.405 164.647 116.805 164.647 116.298 164.647C111.502 164.848 106.895 165.945 102.594 168.056L102.499 168.15C93.803 172.255 87.204 179.555 83.905 188.672C80.606 197.789 81.101 207.59 85.107 216.294C87.204 220.8 92.106 223.206 99.106 223.206C106.211 223.206 115.709 220.706 125.1 216.294L125.501 216.094C141.597 208.487 155.702 196.079 150.8 185.57C148.797 181.266 146.004 177.362 142.398 174.165C138.899 170.957 134.798 168.457 130.297 166.865C126.302 165.449 122.201 164.647 117.9 164.647ZM99.106 216.601C94.911 216.601 92.106 215.504 91.105 213.499C87.805 206.387 87.405 198.285 90.103 190.878C92.802 183.471 98.198 177.468 105.304 174.165L105.398 174.071C109.298 172.267 113.599 171.264 117.9 171.264C121.4 171.264 124.805 171.866 127.999 173.069C135.399 175.769 141.397 181.171 144.696 188.377C145.792 190.784 144.295 194.381 140.301 198.391C136.2 202.495 129.896 206.694 122.602 210.103L122.201 210.303C113.705 214.301 105.304 216.601 99.106 216.601Z" fill="#503EAA"/>
<path d="M69.4001 264.144C65.9941 264.639 59.3011 252.231 61.7051 255.039C64.1091 257.846 70.6021 252.538 73.5001 246.429C73.6061 246.429 72.8051 263.743 69.4001 264.144Z" fill="#503EAA"/>
<path d="M522.002 119.912L479.004 177.668C473.301 185.275 484.602 203.391 504.304 218.004C523.899 232.724 544.509 238.326 550.2 230.719L593.304 172.962C599.007 165.355 587.707 147.239 568.005 132.626C548.303 118.013 527.599 112.305 522.002 119.912Z" fill="#C0DBFF"/>
<path d="M594.532 173.875C600.212 166.25 588.664 148.014 568.739 133.143C548.814 118.273 528.057 112.398 522.377 120.022C516.697 127.647 528.245 145.882 548.17 160.753C568.095 175.624 588.852 181.499 594.532 173.875Z" fill="white"/>
<path d="M348.903 74.268L389.203 20.215C391.606 17.007 396.108 16.417 399.301 18.717L506 98.387C509.205 100.793 509.795 105.299 507.497 108.495L467.197 162.548C464.794 165.756 460.292 166.346 457.099 164.046L350.4 84.376C347.206 81.875 346.499 77.37 348.903 74.268Z" fill="#C0DBFF"/>
<path d="M396.273 32.583L354.966 88.029L463.283 168.872L504.59 113.425L396.273 32.583Z" fill="#77A4F2"/>
<path d="M565.908 236.522L605.806 182.468C608.21 179.26 612.605 178.671 615.811 180.971L722.411 259.945C725.621 262.351 726.211 266.75 723.911 269.958L684.011 324.011C681.611 327.219 677.211 327.809 674.011 325.509L567.404 246.535C564.199 244.223 563.504 239.718 565.908 236.522Z" fill="#C0DBFF"/>
<path d="M616.01 196.61L575.023 252.041L683.221 332.189L724.201 276.758L616.01 196.61Z" fill="#77A4F2"/>
<path d="M483.6 203.993L528.401 143.831L518.597 128.121L473.796 188.271L483.6 203.993Z" fill="white"/>
<path d="M561.406 169.66L520.306 224.916L543.908 231.922C543.908 231.922 555.409 222.911 559.109 217.403C562.809 211.895 587.412 179.567 587.412 179.567L561.406 169.66Z" fill="#77A4F2"/>
<path d="M510.997 111.208L470.697 165.261C466.797 170.462 459.503 171.571 454.295 167.667L347.595 87.997C342.399 84.093 341.291 76.78 345.192 71.579L385.491 17.526C389.391 12.325 396.685 11.216 401.894 15.12L508.593 94.79C513.801 98.588 514.897 105.9 510.997 111.208C510.997 111.208 511.103 111.208 510.997 111.208ZM352.497 76.969C351.602 78.172 351.896 79.776 352.992 80.672L459.692 160.343C460.893 161.239 462.496 161.038 463.392 159.847L503.691 105.794C504.586 104.591 504.292 102.987 503.196 102.091L396.497 22.315C395.295 21.418 393.692 21.619 392.797 22.81L352.497 76.969Z" fill="#503EAA"/>
<path d="M596.804 175.758L589.498 170.356C592.503 166.251 584.396 150.636 565.2 136.329C546.005 122.011 528.695 118.615 525.596 122.719L518.291 117.317C526.786 105.806 551.096 114.616 570.586 129.123C590.099 143.536 605.3 164.258 596.804 175.758Z" fill="#503EAA"/>
<path d="M591.838 165.558C595.864 160.153 586.711 146.504 571.392 135.071C556.074 123.639 540.392 118.752 536.366 124.157C532.339 129.562 541.493 143.211 556.811 154.644C572.129 166.077 587.811 170.963 591.838 165.558Z" fill="#C0DBFF"/>
<path d="M596.804 175.758C588.308 187.269 563.999 178.458 544.509 163.952C525.019 149.445 509.807 128.722 518.314 117.211L525.62 122.613C522.615 126.611 530.816 142.333 549.917 156.639C569.113 170.957 586.517 174.26 589.522 170.356L596.804 175.758Z" fill="#503EAA"/>
<path d="M513.601 189.58C507.803 184.58 502.701 178.765 498.6 172.267L489.504 184.474C493.699 190.878 498.707 196.681 504.504 201.693L513.601 189.58Z" fill="#503EAA"/>
<path d="M487.006 202.082L466.608 212.39C466.608 212.39 464.911 223.005 475.705 234.009C486.511 245.025 496.008 248.917 496.008 248.917L513.707 225.199L487.006 202.082Z" fill="#C0DBFF"/>
<path d="M525.502 173.564C519.705 168.563 514.602 162.749 510.407 156.25L505.211 163.161C509.406 169.566 514.414 175.368 520.211 180.381L525.502 173.564Z" fill="#503EAA"/>
<path d="M509.406 223.206L493.404 247.325C493.404 247.325 495.006 249.531 504.798 253.034C514.602 256.536 525.903 256.536 528.495 250.026C531.099 243.516 530.698 235.413 526.398 232.111C522.097 228.808 509.406 223.206 509.406 223.206Z" fill="#77A4F2"/>
<path d="M488.396 206.293L467.398 222.404L466.502 203.887L482.905 199.782L488.396 206.293Z" fill="white"/>
<path d="M596.804 175.758L553.806 233.514C545.31 245.025 521.001 236.215 501.511 221.708C482.009 207.189 466.809 186.479 475.316 174.967L518.42 117.211C526.916 105.7 551.225 114.51 570.715 129.017C590.099 143.536 605.3 164.258 596.804 175.758ZM482.504 180.463C479.499 184.462 487.701 200.183 506.802 214.49C525.997 228.808 543.307 232.205 546.3 228.1L589.404 170.344C592.408 166.24 584.301 150.624 565.106 136.318C545.911 121.999 528.601 118.603 525.608 122.707L482.504 180.463Z" fill="#503EAA"/>
<path d="M575.806 152.039C572.106 157.04 562.608 156.344 554.607 150.435C546.606 144.526 543.213 135.622 547.007 130.515L551.803 124.111C556.104 128.309 560.605 132.319 565.401 136.023C572.306 141.13 574.698 142.333 580.401 146.036L575.806 152.039Z" fill="#503EAA"/>
<path d="M528.106 202.283L522.804 209.489C520.907 212.096 522.108 216 525.608 218.193C529.108 220.387 533.409 220.092 535.412 217.497L540.809 210.291C542.706 207.685 541.504 203.781 538.004 201.587C534.505 199.381 530.003 199.688 528.106 202.283Z" fill="#503EAA"/>
<path d="M551.951 194.088C553.288 191.357 551.398 187.683 547.728 185.883C544.058 184.083 539.999 184.837 538.662 187.569C537.324 190.3 539.215 193.974 542.884 195.774C546.554 197.574 550.613 196.82 551.951 194.088Z" fill="#503EAA"/>
<path d="M532.207 252.833C524.006 263.849 502.406 261.042 483.011 246.629C463.615 232.111 454.813 212.202 462.908 201.186C465.312 197.978 478.003 193.685 482.905 192.977L484.107 201.988C479.205 202.991 474.409 204.689 469.908 206.989C466.113 213.098 472.606 227.605 488.313 239.317C504.115 251.123 519.811 253.128 524.512 247.82C525.514 242.82 525.714 237.807 525.314 232.806L534.316 231.403C535.106 236.321 534.599 249.625 532.207 252.833Z" fill="#503EAA"/>
<path d="M371.324 44.509L367.26 49.965L485.515 138.224L489.579 132.769L371.324 44.509Z" fill="#503EAA"/>
<path d="M420.556 34.462L371.711 100.026L377.162 104.094L426.006 38.53L420.556 34.462Z" fill="#503EAA"/>
<path d="M450.099 56.4771L401.255 122.041L406.706 126.109L455.55 60.545L450.099 56.4771Z" fill="#503EAA"/>
<path d="M479.676 78.634L430.832 144.198L436.283 148.266L485.127 82.702L479.676 78.634Z" fill="#503EAA"/>
<path d="M731.301 275.549L691.001 329.602C687.101 334.803 679.811 335.912 674.601 332.008L567.899 252.338C562.702 248.434 561.701 241.121 565.495 235.92L605.795 181.867C609.695 176.666 616.989 175.557 622.197 179.461L728.901 259.131C734.101 263.047 735.201 270.347 731.301 275.549C731.301 275.549 731.411 275.549 731.301 275.549ZM572.801 241.428C571.905 242.631 572.106 244.235 573.296 245.131L679.991 324.801C681.201 325.698 682.801 325.497 683.691 324.306L723.991 270.253C724.891 269.05 724.691 267.446 723.501 266.55L616.8 186.773C615.598 185.877 613.996 186.078 613.1 187.269L572.801 241.428Z" fill="#503EAA"/>
<path d="M591.666 208.935L587.602 214.391L705.861 302.65L709.921 297.194L591.666 208.935Z" fill="#503EAA"/>
<path d="M636.92 196.583L588.439 262.148L593.904 266.196L642.385 200.631L636.92 196.583Z" fill="#503EAA"/>
<path d="M666.391 218.47L617.911 284.035L623.376 288.084L671.861 222.519L666.391 218.47Z" fill="#503EAA"/>
<path d="M700.021 243.037L651.181 308.601L656.631 312.669L705.481 247.105L700.021 243.037Z" fill="#503EAA"/>
<path d="M494.572 130.83L485.07 143.586L496.292 151.962L505.795 139.206L494.572 130.83Z" fill="#503EAA"/>
<path d="M580.683 195.06L571.181 207.815L582.403 216.191L591.906 203.436L580.683 195.06Z" fill="#503EAA"/>
<path d="M540.302 43.745C521.001 69.562 532.407 110.701 565.802 135.527C599.102 160.354 641.699 159.647 661.001 133.723C669.901 121.811 649.994 92.089 616.694 67.156C583.3 42.341 549.104 31.832 540.302 43.745Z" fill="#C0DBFF"/>
<path d="M566.803 131.824C548.798 116.409 547.007 92.691 548.503 78.278L533.798 55.563C533.798 55.657 522.297 103.895 566.803 131.824Z" fill="white"/>
<path d="M568.901 133.428C588.803 146.237 612.005 141.236 625.402 135.728L651.302 143.335C651.196 143.335 608.399 168.056 568.901 133.428Z" fill="#77A4F2"/>
<path d="M664.501 136.53C652.304 152.841 612.794 137.131 581.804 113.909C550.801 90.792 524.406 57.355 536.508 41.044L543.814 46.445C538.311 53.947 552.109 80.378 587.212 106.596C622.315 132.815 651.609 138.523 657.221 131.022L664.501 136.53Z" fill="#503EAA"/>
<path d="M653.941 137.103C661.171 127.396 644.995 103.076 617.807 82.785C590.62 62.494 562.717 53.914 555.485 63.622C548.253 73.33 564.429 97.649 591.617 117.941C618.804 138.232 646.707 146.811 653.941 137.103Z" fill="#503EAA"/>
<path d="M664.501 136.53C643.796 164.353 598.194 165.556 562.997 139.231C527.694 112.906 515.899 68.866 536.602 41.044C548.798 24.732 588.308 40.442 619.298 63.665C650.301 86.676 676.711 120.112 664.501 136.53ZM543.896 46.446C526.197 70.27 537.191 108.601 568.394 131.918C599.596 155.236 639.495 154.835 657.191 131.022C662.791 123.521 648.898 97.09 613.796 70.871C578.704 44.641 549.399 38.933 543.896 46.446Z" fill="#503EAA"/>
<path d="M648.85 18.511L547.637 34.752L549.077 43.743L650.29 27.501L648.85 18.511Z" fill="#503EAA"/>
<path d="M653.901 22.151L644.884 23.333L658.191 125.047L667.211 123.865L653.901 22.151Z" fill="#503EAA"/>
<path d="M648.09 17.704L583.883 103.89L591.176 109.333L655.381 23.147L648.09 17.704Z" fill="#503EAA"/>
<path d="M654.901 31.632C663.621 31.632 670.701 24.551 670.701 15.816C670.701 7.08101 663.621 0 654.901 0C646.169 0 639.095 7.08101 639.095 15.816C639.095 24.551 646.169 31.632 654.901 31.632Z" fill="#77A4F2"/>
<path d="M331.543 246.789H333.343V241.549L335.95 246.299L338.546 241.549V246.789H340.358V238.378H338.546L335.95 243.128L333.343 238.378H331.543V246.789ZM348.393 238.378L345.993 244.304L343.581 238.378H341.549L344.977 246.789H346.997L350.425 238.378H348.393ZM351.617 246.789H353.417V244.438L354.47 243.312L357.053 246.789H359.244L355.731 242.026L359.012 238.378H356.82L353.417 242.235V238.378H351.617V246.789ZM371.147 246.324L369.825 244.928C370.241 244.377 370.62 243.716 370.988 242.981L369.69 242.369C369.47 242.92 369.188 243.447 368.87 243.912C368.355 243.361 367.939 242.896 367.572 242.467C368.906 241.855 369.494 241.341 369.494 240.398C369.494 239.186 368.49 238.268 367.119 238.268C365.784 238.268 364.732 239.235 364.732 240.41C364.732 241.035 364.891 241.475 365.331 242.124C364.046 242.7 363.507 243.398 363.507 244.499C363.507 246.03 364.719 246.936 366.335 246.936C367.29 246.936 368.086 246.617 368.784 246.054L369.678 246.985L371.147 246.324ZM367.143 239.553C367.621 239.553 367.951 239.921 367.951 240.41C367.951 240.961 367.621 241.218 366.801 241.549C366.458 241.12 366.262 240.802 366.262 240.41C366.262 239.908 366.654 239.553 367.143 239.553ZM366.556 245.577C365.858 245.577 365.283 245.124 365.283 244.377C365.283 243.887 365.54 243.496 366.115 243.153C366.544 243.655 367.094 244.279 367.841 245.063C367.425 245.381 366.997 245.577 366.556 245.577ZM379.547 246.936C381.775 246.936 383.355 245.369 383.355 243.153V238.378H381.543V243.079C381.543 244.377 380.722 245.295 379.547 245.295C378.372 245.295 377.552 244.377 377.552 243.079V238.378H375.74V243.153C375.74 245.369 377.319 246.936 379.547 246.936ZM388.05 246.936C390.107 246.936 391.319 245.871 391.319 244.267C391.319 242.712 390.119 242.173 388.307 241.769C387.009 241.475 386.507 241.28 386.507 240.667C386.507 240.165 386.973 239.761 387.744 239.761C388.552 239.761 389.397 240.092 390.143 240.692L391.086 239.394C390.229 238.66 389.164 238.231 387.793 238.231C385.956 238.231 384.683 239.296 384.683 240.851C384.683 242.479 385.944 242.981 387.719 243.385C389.005 243.679 389.495 243.863 389.495 244.463C389.495 244.989 389.029 245.405 388.123 245.405C387.058 245.405 386.152 244.989 385.357 244.304L384.316 245.54C385.295 246.446 386.593 246.936 388.05 246.936ZM392.614 246.789H395.625C398.453 246.789 400.461 245.038 400.461 242.577C400.461 240.117 398.453 238.378 395.625 238.378H392.614V246.789ZM394.413 245.148V240.019H395.858C397.474 240.019 398.6 241.084 398.6 242.577C398.6 244.083 397.474 245.148 395.858 245.148H394.413ZM401.772 246.789H403.571V241.549L406.179 246.299L408.775 241.549V246.789H410.587V238.378H408.775L406.179 243.128L403.571 238.378H401.772V246.789Z" fill="#86D4C9"/>
<path d="M338.497 258.534C338.497 256.869 337.15 255.694 335.326 255.694H331.543V264.105H333.343V261.375H334.432L336.355 264.105H338.411L336.391 261.228C337.652 260.86 338.497 259.857 338.497 258.534ZM333.343 257.347H335.142C336.024 257.347 336.636 257.812 336.636 258.534C336.636 259.257 336.024 259.722 335.142 259.722H333.343V257.347ZM342.273 262.868C341.404 262.868 340.804 262.268 340.645 261.411H345.419C345.419 259.061 344.219 257.628 342.236 257.628C340.387 257.628 338.943 259.012 338.943 260.922C338.943 262.868 340.449 264.252 342.334 264.252C343.265 264.252 344.354 263.86 344.917 263.272L343.913 262.244C343.509 262.611 342.848 262.868 342.273 262.868ZM342.248 259.012C343.056 259.012 343.558 259.563 343.705 260.346H340.657C340.853 259.538 341.453 259.012 342.248 259.012ZM347.635 264.105H349.238L350.426 260.126L351.613 264.105H353.217L355.36 257.775H353.609L352.421 261.717L351.16 257.775H349.679L348.43 261.717L347.231 257.775H345.48L347.635 264.105ZM358.492 257.628C357.611 257.628 356.742 257.873 355.848 258.326L356.448 259.514C356.95 259.257 357.501 259.061 358.088 259.061C359.129 259.061 359.557 259.648 359.557 260.322V260.456C359.019 260.236 358.443 260.126 357.929 260.126C356.472 260.126 355.309 260.983 355.309 262.232C355.309 263.444 356.338 264.252 357.684 264.252C358.382 264.252 359.105 263.97 359.557 263.468V264.105H361.284V260.322C361.284 258.669 360.145 257.628 358.492 257.628ZM358.088 263.015C357.476 263.015 357.011 262.697 357.011 262.183C357.011 261.668 357.537 261.289 358.186 261.289C358.676 261.289 359.153 261.375 359.557 261.534V262.109C359.423 262.697 358.774 263.015 358.088 263.015ZM364.304 258.963V257.775H362.516V264.105H364.304V261.081C364.304 259.893 365.149 259.134 366.471 259.134V257.628C365.504 257.628 364.72 258.143 364.304 258.963ZM371.964 255.547V258.669C371.462 258.02 370.715 257.628 369.834 257.628C368.144 257.628 366.932 259 366.932 260.934C366.932 262.88 368.144 264.252 369.834 264.252C370.715 264.252 371.462 263.86 371.964 263.211V264.105H373.752V255.547H371.964ZM370.348 262.746C369.369 262.746 368.671 261.999 368.671 260.934C368.671 259.881 369.369 259.134 370.348 259.134C371.303 259.134 371.964 259.881 371.964 260.934C371.964 261.999 371.303 262.746 370.348 262.746ZM377.578 264.252C379.133 264.252 380.161 263.456 380.161 262.207C380.161 260.824 378.949 260.456 377.847 260.175C377.002 259.942 376.647 259.844 376.647 259.501C376.647 259.146 377.015 258.914 377.492 258.914C378.08 258.914 378.765 259.195 379.329 259.563L379.99 258.412C379.28 257.947 378.398 257.628 377.492 257.628C375.999 257.628 375.019 258.485 375.019 259.685C375.019 260.934 376.023 261.289 377.333 261.607C378.019 261.779 378.533 261.95 378.533 262.354C378.533 262.721 378.214 262.942 377.615 262.942C376.941 262.942 376.109 262.636 375.448 262.17L374.725 263.297C375.497 263.909 376.574 264.252 377.578 264.252Z" fill="#86D4C9"/>
<path d="M265.37 177.553H268.382C271.21 177.553 273.218 175.802 273.218 173.341C273.218 170.881 271.21 169.142 268.382 169.142H265.37V177.553ZM267.17 175.912V170.783H268.615C270.231 170.783 271.357 171.848 271.357 173.341C271.357 174.847 270.231 175.912 268.615 175.912H267.17ZM277.308 176.316C276.438 176.316 275.838 175.717 275.679 174.86H280.454C280.454 172.509 279.254 171.077 277.271 171.077C275.422 171.077 273.978 172.46 273.978 174.37C273.978 176.316 275.483 177.7 277.369 177.7C278.299 177.7 279.389 177.308 279.952 176.72L278.948 175.692C278.544 176.059 277.883 176.316 277.308 176.316ZM277.283 172.46C278.091 172.46 278.593 173.011 278.74 173.794H275.691C275.887 172.986 276.487 172.46 277.283 172.46ZM281.472 177.553H283.26V168.995H281.472V177.553ZM287.661 176.316C286.792 176.316 286.192 175.717 286.033 174.86H290.808C290.808 172.509 289.608 171.077 287.625 171.077C285.776 171.077 284.331 172.46 284.331 174.37C284.331 176.316 285.837 177.7 287.723 177.7C288.653 177.7 289.743 177.308 290.306 176.72L289.302 175.692C288.898 176.059 288.237 176.316 287.661 176.316ZM287.637 172.46C288.445 172.46 288.947 173.011 289.094 173.794H286.045C286.241 172.986 286.841 172.46 287.637 172.46ZM296.319 171.223V172.08C295.891 171.481 295.07 171.077 294.226 171.077C292.622 171.077 291.41 172.313 291.41 174.076C291.41 175.839 292.622 177.088 294.226 177.088C295.07 177.088 295.817 176.72 296.319 176.096V176.806C296.319 177.626 295.585 178.153 294.434 178.153C293.699 178.153 292.952 177.92 292.536 177.553L291.912 178.814C292.548 179.304 293.589 179.659 294.703 179.659C296.699 179.659 298.107 178.508 298.107 176.88V171.223H296.319ZM294.789 175.582C293.895 175.582 293.258 174.958 293.258 174.076C293.258 173.195 293.895 172.582 294.789 172.582C295.682 172.582 296.319 173.195 296.319 174.076C296.319 174.958 295.682 175.582 294.789 175.582ZM302.267 171.077C301.385 171.077 300.516 171.321 299.622 171.774L300.222 172.962C300.724 172.705 301.275 172.509 301.863 172.509C302.903 172.509 303.332 173.097 303.332 173.77V173.905C302.793 173.684 302.218 173.574 301.704 173.574C300.247 173.574 299.084 174.431 299.084 175.68C299.084 176.892 300.112 177.7 301.459 177.7C302.157 177.7 302.879 177.418 303.332 176.916V177.553H305.058V173.77C305.058 172.117 303.92 171.077 302.267 171.077ZM301.863 176.463C301.251 176.463 300.785 176.145 300.785 175.631C300.785 175.117 301.312 174.737 301.961 174.737C302.45 174.737 302.928 174.823 303.332 174.982V175.557C303.197 176.145 302.548 176.463 301.863 176.463ZM309.647 175.986C309.524 176.108 309.291 176.194 309.047 176.194C308.704 176.194 308.447 175.9 308.447 175.484V172.668H309.818V171.223H308.447V169.485H306.72V171.223H305.851V172.668H306.72V175.766C306.72 176.904 307.504 177.7 308.63 177.7C309.132 177.7 309.708 177.48 310.075 177.149L309.647 175.986ZM313.892 176.316C313.023 176.316 312.423 175.717 312.264 174.86H317.039C317.039 172.509 315.839 171.077 313.856 171.077C312.007 171.077 310.562 172.46 310.562 174.37C310.562 176.316 312.068 177.7 313.954 177.7C314.884 177.7 315.974 177.308 316.537 176.72L315.533 175.692C315.129 176.059 314.468 176.316 313.892 176.316ZM313.868 172.46C314.676 172.46 315.178 173.011 315.325 173.794H312.276C312.472 172.986 313.072 172.46 313.868 172.46ZM322.685 168.995V172.117C322.183 171.468 321.436 171.077 320.555 171.077C318.865 171.077 317.653 172.448 317.653 174.382C317.653 176.329 318.865 177.7 320.555 177.7C321.436 177.7 322.183 177.308 322.685 176.659V177.553H324.472V168.995H322.685ZM321.069 176.194C320.089 176.194 319.392 175.447 319.392 174.382C319.392 173.329 320.089 172.582 321.069 172.582C322.024 172.582 322.685 173.329 322.685 174.382C322.685 175.447 322.024 176.194 321.069 176.194Z" fill="#86D4C9"/>
<path d="M265.37 194.869H267.17V189.629L269.778 194.379L272.373 189.629V194.869H274.185V186.458H272.373L269.778 191.208L267.17 186.458H265.37V194.869ZM282.22 186.458L279.82 192.384L277.409 186.458H275.376L278.804 194.869H280.824L284.252 186.458H282.22ZM285.444 194.869H287.244V192.518L288.297 191.392L290.88 194.869H293.071L289.558 190.106L292.839 186.458H290.647L287.244 190.315V186.458H285.444V194.869Z" fill="#86D4C9"/>
<path d="M757.391 231.765H759.191V226.525L761.801 231.275L764.391 226.525V231.765H766.201V223.354H764.391L761.801 228.104L759.191 223.354H757.391V231.765ZM774.241 223.354L771.841 229.28L769.431 223.354H767.391L770.821 231.765H772.841L776.271 223.354H774.241ZM777.461 231.765H779.261V229.414L780.311 228.288L782.901 231.765H785.091L781.581 227.002L784.861 223.354H782.671L779.261 227.211V223.354H777.461V231.765Z" fill="#86D4C9"/>
<path d="M764.341 243.51C764.341 241.845 763.001 240.67 761.171 240.67H757.391V249.081H759.191V246.351H760.281L762.201 249.081H764.261L762.241 246.204C763.501 245.836 764.341 244.832 764.341 243.51ZM759.191 242.323H760.991C761.871 242.323 762.481 242.788 762.481 243.51C762.481 244.233 761.871 244.698 760.991 244.698H759.191V242.323ZM768.121 247.844C767.251 247.844 766.651 247.244 766.491 246.387H771.261C771.261 244.037 770.061 242.604 768.081 242.604C766.231 242.604 764.791 243.988 764.791 245.898C764.791 247.844 766.291 249.228 768.181 249.228C769.111 249.228 770.201 248.836 770.761 248.248L769.761 247.22C769.351 247.587 768.691 247.844 768.121 247.844ZM768.091 243.988C768.901 243.988 769.401 244.539 769.551 245.322H766.501C766.701 244.514 767.301 243.988 768.091 243.988ZM773.481 249.081H775.081L776.271 245.102L777.461 249.081H779.061L781.201 242.751H779.451L778.271 246.693L777.011 242.751H775.521L774.281 246.693L773.081 242.751H771.321L773.481 249.081ZM784.341 242.604C783.461 242.604 782.591 242.849 781.691 243.302L782.291 244.49C782.791 244.233 783.351 244.037 783.931 244.037C784.971 244.037 785.401 244.624 785.401 245.298V245.432C784.861 245.212 784.291 245.102 783.771 245.102C782.321 245.102 781.151 245.959 781.151 247.208C781.151 248.42 782.181 249.228 783.531 249.228C784.231 249.228 784.951 248.946 785.401 248.444V249.081H787.131V245.298C787.131 243.645 785.991 242.604 784.341 242.604ZM783.931 247.991C783.321 247.991 782.861 247.673 782.861 247.159C782.861 246.644 783.381 246.265 784.031 246.265C784.521 246.265 785.001 246.351 785.401 246.51V247.085C785.271 247.673 784.621 247.991 783.931 247.991ZM790.151 243.939V242.751H788.361V249.081H790.151V246.057C790.151 244.869 790.991 244.11 792.321 244.11V242.604C791.351 242.604 790.571 243.118 790.151 243.939ZM797.811 240.523V243.645C797.311 242.996 796.561 242.604 795.681 242.604C793.991 242.604 792.781 243.975 792.781 245.91C792.781 247.856 793.991 249.228 795.681 249.228C796.561 249.228 797.311 248.836 797.811 248.187V249.081H799.601V240.523H797.811ZM796.191 247.722C795.211 247.722 794.521 246.975 794.521 245.91C794.521 244.857 795.211 244.11 796.191 244.11C797.151 244.11 797.811 244.857 797.811 245.91C797.811 246.975 797.151 247.722 796.191 247.722ZM803.421 249.228C804.981 249.228 806.011 248.432 806.011 247.183C806.011 245.8 804.791 245.432 803.691 245.151C802.851 244.918 802.491 244.82 802.491 244.477C802.491 244.122 802.861 243.89 803.341 243.89C803.921 243.89 804.611 244.171 805.171 244.539L805.831 243.388C805.121 242.923 804.241 242.604 803.341 242.604C801.841 242.604 800.861 243.461 800.861 244.661C800.861 245.91 801.871 246.265 803.181 246.583C803.861 246.755 804.381 246.926 804.381 247.33C804.381 247.697 804.061 247.918 803.461 247.918C802.791 247.918 801.951 247.612 801.291 247.146L800.571 248.273C801.341 248.885 802.421 249.228 803.421 249.228Z" fill="#86D4C9"/>
<path d="M830.291 301.258C832.351 301.258 833.561 300.193 833.561 298.589C833.561 297.034 832.361 296.496 830.551 296.092C829.251 295.798 828.751 295.602 828.751 294.99C828.751 294.488 829.211 294.084 829.981 294.084C830.791 294.084 831.641 294.414 832.381 295.014L833.331 293.716C832.471 292.982 831.401 292.553 830.031 292.553C828.201 292.553 826.921 293.619 826.921 295.173C826.921 296.802 828.181 297.304 829.961 297.708C831.241 298.001 831.731 298.185 831.731 298.785C831.731 299.311 831.271 299.728 830.361 299.728C829.301 299.728 828.391 299.311 827.601 298.626L826.561 299.862C827.541 300.768 828.831 301.258 830.291 301.258ZM835.581 293.912C836.101 293.912 836.541 293.472 836.541 292.933C836.541 292.431 836.101 291.978 835.581 291.978C835.031 291.978 834.601 292.431 834.601 292.933C834.601 293.472 835.031 293.912 835.581 293.912ZM834.671 301.111H836.461V294.782H834.671V301.111ZM842.401 294.782V295.639C841.981 295.039 841.161 294.635 840.311 294.635C838.711 294.635 837.501 295.871 837.501 297.634C837.501 299.397 838.711 300.646 840.311 300.646C841.161 300.646 841.901 300.279 842.401 299.654V300.364C842.401 301.185 841.671 301.711 840.521 301.711C839.781 301.711 839.041 301.478 838.621 301.111L838.001 302.372C838.631 302.862 839.671 303.217 840.791 303.217C842.781 303.217 844.191 302.066 844.191 300.438V294.782H842.401ZM840.871 299.14C839.981 299.14 839.341 298.516 839.341 297.634C839.341 296.753 839.981 296.141 840.871 296.141C841.771 296.141 842.401 296.753 842.401 297.634C842.401 298.516 841.771 299.14 840.871 299.14ZM849.281 294.635C848.461 294.635 847.751 295.002 847.371 295.565V294.782H845.591V301.111H847.371V297.365C847.371 296.679 847.961 296.141 848.711 296.141C849.421 296.141 849.911 296.679 849.911 297.463V301.111H851.621V297.083C851.621 295.639 850.651 294.635 849.281 294.635ZM855.841 299.875C854.971 299.875 854.371 299.275 854.211 298.418H858.991C858.991 296.067 857.791 294.635 855.801 294.635C853.961 294.635 852.511 296.018 852.511 297.928C852.511 299.875 854.021 301.258 855.901 301.258C856.831 301.258 857.921 300.866 858.491 300.279L857.481 299.25C857.081 299.617 856.421 299.875 855.841 299.875ZM855.821 296.018C856.631 296.018 857.131 296.569 857.271 297.353H854.231C854.421 296.545 855.021 296.018 855.821 296.018ZM864.631 292.553V295.675C864.131 295.026 863.391 294.635 862.501 294.635C860.811 294.635 859.601 296.006 859.601 297.94C859.601 299.887 860.811 301.258 862.501 301.258C863.391 301.258 864.131 300.866 864.631 300.217V301.111H866.421V292.553H864.631ZM863.021 299.752C862.041 299.752 861.341 299.005 861.341 297.94C861.341 296.887 862.041 296.141 863.021 296.141C863.971 296.141 864.631 296.887 864.631 297.94C864.631 299.005 863.971 299.752 863.021 299.752Z" fill="#86D4C9"/>
<path d="M830.891 311.951C830.011 311.951 829.261 312.342 828.761 312.991V312.098H826.971V320.533H828.761V317.533C829.261 318.182 830.011 318.574 830.891 318.574C832.581 318.574 833.791 317.203 833.791 315.256C833.791 313.322 832.581 311.951 830.891 311.951ZM830.381 317.068C829.421 317.068 828.761 316.321 828.761 315.256C828.761 314.203 829.421 313.457 830.381 313.457C831.361 313.457 832.051 314.203 832.051 315.256C832.051 316.321 831.361 317.068 830.381 317.068ZM836.621 313.285V312.098H834.841V318.427H836.621V315.403C836.621 314.216 837.471 313.457 838.791 313.457V311.951C837.821 311.951 837.041 312.465 836.621 313.285ZM840.661 311.228C841.181 311.228 841.621 310.788 841.621 310.249C841.621 309.747 841.181 309.294 840.661 309.294C840.111 309.294 839.681 309.747 839.681 310.249C839.681 310.788 840.111 311.228 840.661 311.228ZM839.751 318.427H841.541V312.098H839.751V318.427ZM845.981 318.574C847.031 318.574 847.901 318.146 848.511 317.46L847.331 316.456C847.011 316.823 846.491 317.068 845.991 317.068C845.061 317.068 844.281 316.236 844.281 315.244C844.281 314.277 845.061 313.457 845.991 313.457C846.481 313.457 846.981 313.689 847.291 314.044L848.481 313.028C847.881 312.367 847.021 311.951 846.001 311.951C844.121 311.951 842.541 313.457 842.541 315.256C842.541 317.056 844.121 318.574 845.981 318.574ZM852.371 317.191C851.511 317.191 850.911 316.591 850.751 315.734H855.521C855.521 313.383 854.321 311.951 852.341 311.951C850.491 311.951 849.041 313.334 849.041 315.244C849.041 317.191 850.551 318.574 852.441 318.574C853.371 318.574 854.461 318.182 855.021 317.595L854.011 316.566C853.611 316.934 852.951 317.191 852.371 317.191ZM852.351 313.334C853.161 313.334 853.661 313.885 853.811 314.669H850.761C850.951 313.861 851.551 313.334 852.351 313.334ZM862.031 311.755C862.031 311.339 862.291 311.045 862.621 311.045C862.861 311.045 863.111 311.13 863.231 311.253L863.661 310.163C863.291 309.833 862.721 309.612 862.211 309.612C861.091 309.612 860.301 310.408 860.301 311.547V312.098H859.431V313.542H860.301V318.427H862.031V313.542H863.401V312.098H862.031V311.755ZM867.261 317.191C866.391 317.191 865.791 316.591 865.631 315.734H870.411C870.411 313.383 869.211 311.951 867.221 311.951C865.371 311.951 863.931 313.334 863.931 315.244C863.931 317.191 865.441 318.574 867.321 318.574C868.251 318.574 869.341 318.182 869.901 317.595L868.901 316.566C868.501 316.934 867.831 317.191 867.261 317.191ZM867.231 313.334C868.041 313.334 868.541 313.885 868.691 314.669H865.641C865.841 313.861 866.441 313.334 867.231 313.334ZM874.311 317.191C873.441 317.191 872.841 316.591 872.691 315.734H877.461C877.461 313.383 876.261 311.951 874.281 311.951C872.431 311.951 870.981 313.334 870.981 315.244C870.981 317.191 872.491 318.574 874.371 318.574C875.311 318.574 876.391 318.182 876.961 317.595L875.951 316.566C875.551 316.934 874.891 317.191 874.311 317.191ZM874.291 313.334C875.101 313.334 875.601 313.885 875.751 314.669H872.701C872.891 313.861 873.491 313.334 874.291 313.334ZM883.111 309.869V312.991C882.601 312.342 881.861 311.951 880.981 311.951C879.291 311.951 878.071 313.322 878.071 315.256C878.071 317.203 879.291 318.574 880.981 318.574C881.861 318.574 882.601 318.182 883.111 317.533V318.427H884.891V309.869H883.111ZM881.491 317.068C880.511 317.068 879.811 316.321 879.811 315.256C879.811 314.203 880.511 313.457 881.491 313.457C882.441 313.457 883.111 314.203 883.111 315.256C883.111 316.321 882.441 317.068 881.491 317.068Z" fill="#86D4C9"/>
<path d="M578.013 332.912C580.241 332.912 581.821 331.345 581.821 329.129V324.354H580.009V329.055C580.009 330.353 579.188 331.271 578.013 331.271C576.838 331.271 576.018 330.353 576.018 329.055V324.354H574.206V329.129C574.206 331.345 575.785 332.912 578.013 332.912ZM586.516 332.912C588.573 332.912 589.785 331.847 589.785 330.243C589.785 328.688 588.585 328.149 586.773 327.745C585.475 327.452 584.973 327.256 584.973 326.644C584.973 326.142 585.439 325.738 586.21 325.738C587.018 325.738 587.863 326.068 588.609 326.668L589.552 325.37C588.695 324.636 587.63 324.207 586.259 324.207C584.422 324.207 583.149 325.272 583.149 326.827C583.149 328.455 584.41 328.957 586.185 329.361C587.471 329.655 587.961 329.839 587.961 330.439C587.961 330.965 587.495 331.381 586.589 331.381C585.524 331.381 584.618 330.965 583.823 330.28L582.782 331.516C583.761 332.422 585.059 332.912 586.516 332.912ZM591.08 332.765H594.091C596.919 332.765 598.927 331.014 598.927 328.553C598.927 326.093 596.919 324.354 594.091 324.354H591.08V332.765ZM592.879 331.124V325.995H594.324C595.94 325.995 597.066 327.06 597.066 328.553C597.066 330.059 595.94 331.124 594.324 331.124H592.879ZM600.238 332.765H602.038V327.525L604.645 332.275L607.241 327.525V332.765H609.053V324.354H607.241L604.645 329.104L602.038 324.354H600.238V332.765Z" fill="#86D4C9"/>
<path d="M581.343 344.51C581.343 342.845 579.996 341.67 578.172 341.67H574.389V350.081H576.189V347.35H577.279L579.201 350.081H581.257L579.237 347.204C580.498 346.836 581.343 345.832 581.343 344.51ZM576.189 343.323H577.989C578.87 343.323 579.482 343.788 579.482 344.51C579.482 345.232 578.87 345.698 577.989 345.698H576.189V343.323ZM585.119 348.844C584.25 348.844 583.65 348.244 583.491 347.387H588.265C588.265 345.037 587.066 343.604 585.082 343.604C583.234 343.604 581.789 344.988 581.789 346.897C581.789 348.844 583.295 350.228 585.18 350.228C586.111 350.228 587.2 349.836 587.763 349.248L586.76 348.22C586.356 348.587 585.694 348.844 585.119 348.844ZM585.095 344.988C585.903 344.988 586.405 345.539 586.551 346.322H583.503C583.699 345.514 584.299 344.988 585.095 344.988ZM590.481 350.081H592.085L593.272 346.102L594.46 350.081H596.063L598.206 343.751H596.455L595.268 347.693L594.007 343.751H592.525L591.277 347.693L590.077 343.751H588.326L590.481 350.081ZM601.339 343.604C600.457 343.604 599.588 343.849 598.694 344.302L599.294 345.49C599.796 345.232 600.347 345.037 600.935 345.037C601.975 345.037 602.404 345.624 602.404 346.298V346.432C601.865 346.212 601.29 346.102 600.775 346.102C599.318 346.102 598.155 346.959 598.155 348.207C598.155 349.419 599.184 350.228 600.531 350.228C601.228 350.228 601.951 349.946 602.404 349.444V350.081H604.13V346.298C604.13 344.645 602.991 343.604 601.339 343.604ZM600.935 348.991C600.322 348.991 599.857 348.673 599.857 348.158C599.857 347.644 600.384 347.265 601.032 347.265C601.522 347.265 602 347.35 602.404 347.51V348.085C602.269 348.673 601.62 348.991 600.935 348.991ZM607.15 344.939V343.751H605.363V350.081H607.15V347.057C607.15 345.869 607.995 345.11 609.317 345.11V343.604C608.35 343.604 607.566 344.118 607.15 344.939ZM614.81 341.523V344.645C614.308 343.996 613.562 343.604 612.68 343.604C610.991 343.604 609.779 344.975 609.779 346.91C609.779 348.856 610.991 350.228 612.68 350.228C613.562 350.228 614.308 349.836 614.81 349.187V350.081H616.598V341.523H614.81ZM613.194 348.722C612.215 348.722 611.517 347.975 611.517 346.91C611.517 345.857 612.215 345.11 613.194 345.11C614.149 345.11 614.81 345.857 614.81 346.91C614.81 347.975 614.149 348.722 613.194 348.722ZM620.424 350.228C621.979 350.228 623.007 349.432 623.007 348.183C623.007 346.8 621.795 346.432 620.693 346.151C619.849 345.918 619.494 345.82 619.494 345.477C619.494 345.122 619.861 344.89 620.338 344.89C620.926 344.89 621.612 345.171 622.175 345.539L622.836 344.388C622.126 343.922 621.244 343.604 620.338 343.604C618.845 343.604 617.865 344.461 617.865 345.661C617.865 346.91 618.869 347.265 620.179 347.583C620.865 347.754 621.379 347.926 621.379 348.33C621.379 348.697 621.061 348.918 620.461 348.918C619.787 348.918 618.955 348.611 618.294 348.146L617.571 349.273C618.343 349.885 619.42 350.228 620.424 350.228Z" fill="#86D4C9"/>
<path d="M497.972 359.644L495.573 365.57L493.161 359.644H491.128L494.556 368.055H496.576L500.004 359.644H497.972ZM503.237 368.202C505.134 368.202 506.689 366.708 506.689 364.884C506.689 363.06 505.134 361.579 503.237 361.579C501.339 361.579 499.784 363.06 499.784 364.884C499.784 366.708 501.339 368.202 503.237 368.202ZM503.237 366.696C502.282 366.696 501.498 365.876 501.498 364.884C501.498 363.892 502.282 363.084 503.237 363.084C504.192 363.084 504.975 363.892 504.975 364.884C504.975 365.876 504.192 366.696 503.237 366.696ZM510.92 366.488C510.798 366.61 510.565 366.696 510.32 366.696C509.977 366.696 509.72 366.402 509.72 365.986V363.17H511.091V361.725H509.72V359.987H507.994V361.725H507.125V363.17H507.994V366.268C507.994 367.406 508.778 368.202 509.904 368.202C510.406 368.202 510.981 367.981 511.349 367.651L510.92 366.488ZM515.166 366.818C514.297 366.818 513.697 366.219 513.538 365.362H518.312C518.312 363.011 517.113 361.579 515.129 361.579C513.281 361.579 511.836 362.962 511.836 364.872C511.836 366.818 513.342 368.202 515.227 368.202C516.158 368.202 517.247 367.81 517.81 367.222L516.807 366.194C516.403 366.561 515.741 366.818 515.166 366.818ZM515.141 362.962C515.95 362.962 516.451 363.513 516.598 364.296H513.55C513.746 363.488 514.346 362.962 515.141 362.962ZM521.287 368.202C522.842 368.202 523.87 367.406 523.87 366.157C523.87 364.774 522.658 364.407 521.556 364.125C520.711 363.892 520.356 363.794 520.356 363.452C520.356 363.097 520.724 362.864 521.201 362.864C521.789 362.864 522.474 363.146 523.037 363.513L523.699 362.362C522.988 361.897 522.107 361.579 521.201 361.579C519.707 361.579 518.728 362.436 518.728 363.635C518.728 364.884 519.732 365.239 521.042 365.557C521.727 365.729 522.242 365.9 522.242 366.304C522.242 366.672 521.923 366.892 521.323 366.892C520.65 366.892 519.818 366.586 519.156 366.121L518.434 367.247C519.205 367.859 520.283 368.202 521.287 368.202Z" fill="#86D4C9"/>
<path d="M1021.7 311.179C1030.04 311.179 1036.8 304.415 1036.8 296.071C1036.8 287.727 1030.04 280.962 1021.7 280.962C1013.37 280.962 1006.61 287.727 1006.61 296.071C1006.61 304.415 1013.37 311.179 1021.7 311.179Z" fill="#503EAA"/>
<path d="M932.601 298.276C950.801 316.498 992.491 310.188 1022.09 280.656C1051.69 251.029 1058 209.289 1039.79 191.078C1031.39 182.669 1000.69 199.889 971.091 229.516C941.491 259.143 924.211 289.867 932.601 298.276Z" fill="#C0DBFF"/>
<path d="M1001.63 260.404C1031.37 231.313 1048.6 200.68 1040.11 191.982C1031.62 183.284 1000.62 199.816 970.881 228.906C941.141 257.997 923.911 288.63 932.401 297.328C940.891 306.025 971.891 289.494 1001.63 260.404Z" fill="#77A4F2"/>
<path d="M1021.1 277.459C1037 259.438 1036.6 236.522 1033.8 223.206L1045.91 198.886C1045.91 198.78 1061.4 242.419 1021.1 277.459Z" fill="white"/>
<path d="M1019.2 279.252C1001.2 295.163 978.301 294.762 965.001 291.966L940.701 304.079C940.701 304.185 984.301 319.6 1019.2 279.252Z" fill="#77A4F2"/>
<path d="M1004.46 262.641C1023.59 243.495 1033.57 222.428 1026.74 215.586C1019.91 208.744 998.861 218.719 979.721 237.865C960.581 257.011 950.601 278.078 957.431 284.919C964.261 291.761 985.321 281.787 1004.46 262.641Z" fill="#503EAA"/>
<path d="M961.101 312.087C948.301 312.087 937.401 308.183 930.001 300.777C927.911 298.677 926.901 295.776 926.801 292.167C926.801 278.155 943.501 251.925 968.391 227.004C982.901 212.485 998.191 200.384 1011.5 192.977C1026.2 184.768 1036.8 183.271 1042.1 188.578C1051.8 198.285 1055.4 214.207 1052.1 232.217C1048.8 250.533 1038.91 268.555 1024.4 283.168C1009.8 297.686 991.801 307.594 973.501 310.896C969.301 311.686 965.111 312.087 961.101 312.087ZM1033.5 192.482C1029.89 192.482 1023.8 194.18 1015 199.087C1002.3 206.199 987.601 217.898 973.501 231.922C961.801 243.633 951.701 255.84 944.501 267.151C937.791 277.565 934.001 286.671 934.001 292.072C934.001 293.771 934.401 294.974 935.091 295.681C943.101 303.69 956.691 306.697 972.391 303.784C989.291 300.682 1005.98 291.577 1019.49 278.061C1032.99 264.545 1042.18 247.738 1045.29 230.919C1048.19 215.209 1045.2 201.587 1037.2 193.591C1036.5 192.883 1035.3 192.482 1033.5 192.482Z" fill="#503EAA"/>
<path d="M993.911 267.753L952.701 217.898L959.301 211.294L1009.31 252.338L993.911 267.753Z" fill="#C0DBFF"/>
<path d="M993.911 267.753L952.701 217.898L956.001 214.596L1001.51 260.145L993.911 267.753Z" fill="#77A4F2"/>
<path d="M939.301 304.185C935.401 304.185 932.301 303.088 930.001 300.777C928.601 299.373 928.601 297.168 930.001 295.776C931.411 294.384 933.611 294.372 935.001 295.776C935.801 296.672 937.301 297.073 939.191 297.073C944.991 297.073 953.901 293.37 964.491 286.765C975.691 279.653 987.791 269.746 999.401 258.14C1013.5 244.023 1025.1 229.209 1032 216.401C1036.5 208.097 1040.5 197.188 1037.1 193.685C1035.7 192.281 1035.7 190.076 1037.1 188.684C1038.51 187.292 1040.71 187.281 1042.1 188.684C1047.6 194.192 1046.29 204.996 1038.2 219.915C1030.89 233.325 1018.9 248.74 1004.4 263.353C980.001 287.661 953.811 304.185 939.301 304.185Z" fill="#503EAA"/>
<path d="M993.911 271.256C993.811 271.256 993.811 271.256 993.711 271.256C992.701 271.256 991.811 270.76 991.101 269.958L949.911 220.21C948.701 218.807 948.811 216.707 950.111 215.41L956.711 208.805C958.001 207.508 960.111 207.402 961.501 208.605L1011.5 249.542C1012.3 250.144 1012.79 251.146 1012.79 252.149C1012.89 253.151 1012.5 254.154 1011.79 254.85L996.391 270.265C995.801 270.949 994.911 271.256 993.911 271.256ZM957.511 218.099L994.111 262.339L1003.91 252.526L959.421 216.094L957.511 218.099Z" fill="#503EAA"/>
<path d="M949.711 221C956.661 221 962.301 215.355 962.301 208.392C962.301 201.429 956.661 195.784 949.711 195.784C942.751 195.784 937.111 201.429 937.111 208.392C937.111 215.355 942.751 221 949.711 221Z" fill="#503EAA"/>
<path d="M1055.7 368.334H987.701L1004.1 313.385C1006.4 305.577 1013.6 300.269 1021.6 300.269C1029.69 300.269 1036.8 305.577 1039.09 313.385L1055.7 368.334Z" fill="#C0DBFF"/>
<path d="M1033.3 307.287C1033.3 307.287 1021.8 304.881 1018.59 314.092C1015.39 323.304 1006.29 357.731 1006.29 357.731H990.291L1004.09 313.29C1004.09 313.29 1007.29 302.274 1014.79 301.083C1022.3 299.88 1028.9 298.878 1033.3 307.287Z" fill="#77A4F2"/>
<path d="M1060.51 371.837H982.901L1000.7 312.288C1003.51 302.982 1011.9 296.672 1021.7 296.672C1031.51 296.672 1039.91 302.982 1042.7 312.288L1060.51 371.837ZM992.501 364.737H1050.9L1035.81 314.387C1033.91 308.077 1028.21 303.878 1021.7 303.878C1015.1 303.878 1009.51 308.077 1007.6 314.387L992.501 364.737Z" fill="#503EAA"/>
<path d="M1072.39 359.429H970.201V372.144H1072.39V359.429Z" fill="#C0DBFF"/>
<path d="M999.601 357.731H968.901V373.641H999.601V357.731Z" fill="#77A4F2"/>
<path d="M1074.5 357.731H1056.3V373.641H1074.5V357.731Z" fill="white"/>
<path d="M1072.41 359.429V372.144H970.211V359.429H1072.41ZM1072.41 352.329H970.211C966.311 352.329 963.101 355.537 963.101 359.441V372.155C963.101 376.059 966.311 379.267 970.211 379.267H1072.41C1076.31 379.267 1079.51 376.059 1079.51 372.155V359.441C1079.5 355.431 1076.31 352.329 1072.41 352.329Z" fill="#503EAA"/>
<path d="M1027.41 345.925C1030.11 345.925 1032.31 343.728 1032.31 341.019C1032.31 338.309 1030.11 336.112 1027.41 336.112C1024.7 336.112 1022.5 338.309 1022.5 341.019C1022.5 343.728 1024.7 345.925 1027.41 345.925Z" fill="#8D86EB"/>
<path d="M1027.41 331.005C1030.11 331.005 1032.31 328.809 1032.31 326.099C1032.31 323.389 1030.11 321.192 1027.41 321.192C1024.7 321.192 1022.5 323.389 1022.5 326.099C1022.5 328.809 1024.7 331.005 1027.41 331.005Z" fill="#FF8486"/>
</svg>
