<svg width="1129" height="930" viewBox="0 0 1129 930" fill="none" xmlns="http://www.w3.org/2000/svg">
    <path d="M652.697 595.889C652.697 606.709 644.001 615.409 633.195 615.409H464.692C453.886 615.409 445.19 606.709 445.19 595.889C445.19 585.079 453.886 576.369 464.692 576.369H633.195C644.001 576.369 652.697 585.089 652.697 595.889Z"
          fill="#6B5EC6"/>
    <path d="M626.797 615.41H471.196V886.76H626.797V615.41Z" fill="#6B5EC6"/>
    <path d="M517.894 615.41H471.196V886.76H517.894V615.41Z" fill="#5E4FB9"/>
    <path d="M626.797 615.41H580.099V886.76H626.797V615.41Z" fill="#8077DE"/>
    <path d="M633.195 576.369H598.292V615.499H633.195C644.001 615.499 652.697 606.799 652.697 595.989C652.697 585.089 644.001 576.369 633.195 576.369Z"
          fill="#8077DE"/>
    <path d="M499.606 576.369H464.704C453.898 576.369 445.202 585.079 445.202 595.889C445.202 606.709 453.898 615.409 464.704 615.409H499.606V576.369Z"
          fill="#5E4FB9"/>
    <path d="M626.797 615.41H471.196V886.76H626.797V615.41Z" stroke="#503EAA" stroke-width="5.9405"
          stroke-miterlimit="8.4865" stroke-linejoin="round"/>
    <path d="M572.298 886.849H556.697V640.039C556.697 635.729 560.197 632.229 564.498 632.229C568.799 632.229 572.298 635.729 572.298 640.039V886.849Z"
          fill="#503EAA"/>
    <path d="M603.407 886.849H587.805V640.039C587.805 635.729 591.305 632.229 595.606 632.229C599.907 632.229 603.407 635.729 603.407 640.039V886.849Z"
          fill="#503EAA"/>
    <path d="M541.202 886.849H525.601V640.039C525.601 635.729 529.1 632.229 533.401 632.229C537.702 632.229 541.202 635.729 541.202 640.039V886.849Z"
          fill="#503EAA"/>
    <path d="M510.105 886.849H494.504V640.039C494.504 635.729 498.004 632.229 502.305 632.229C506.605 632.229 510.105 635.729 510.105 640.039V886.849Z"
          fill="#503EAA"/>
    <path d="M652.697 595.889C652.697 606.709 644.001 615.409 633.195 615.409H464.692C453.886 615.409 445.19 606.709 445.19 595.889C445.19 585.079 453.886 576.369 464.692 576.369H633.195C644.001 576.369 652.697 585.089 652.697 595.889Z"
          stroke="#503EAA" stroke-width="5.9405" stroke-miterlimit="8.4865" stroke-linejoin="round"/>
    <path d="M468.816 597.225H472.816V599.85C471.841 600.55 470.641 600.95 469.466 600.95C466.541 600.95 464.066 598.4 464.066 595.4C464.066 592.425 466.541 589.875 469.466 589.875C471.041 589.875 472.716 590.625 473.741 591.8L476.416 589.4C474.691 587.6 472.041 586.525 469.466 586.525C464.491 586.525 460.266 590.575 460.266 595.4C460.266 600.225 464.491 604.3 469.466 604.3C472.041 604.3 474.691 603.225 476.416 601.425V594.35H468.816V597.225ZM487.97 604.3C492.945 604.3 497.095 600.225 497.095 595.4C497.095 590.575 492.945 586.525 487.97 586.525C483.045 586.525 478.845 590.575 478.845 595.4C478.845 600.225 483.045 604.3 487.97 604.3ZM487.97 600.95C485.095 600.95 482.645 598.4 482.645 595.4C482.645 592.425 485.095 589.875 487.97 589.875C490.87 589.875 493.32 592.425 493.32 595.4C493.32 598.4 490.87 600.95 487.97 600.95ZM512.433 586.825L507.508 598.925L502.583 586.825H498.433L505.433 604H509.558L516.558 586.825H512.433ZM531.807 590.15V586.825H518.582V604H531.807V600.675H522.282V596.9H530.907V593.575H522.282V590.15H531.807ZM549.123 604L544.898 598C547.248 597.175 548.798 595.175 548.798 592.625C548.798 589.225 546.048 586.825 542.323 586.825H534.598V604H538.273V598.425H540.998L544.923 604H549.123ZM538.273 590.2H541.923C543.748 590.2 544.998 591.15 544.998 592.625C544.998 594.1 543.748 595.05 541.923 595.05H538.273V590.2ZM551.691 604H555.366V592.9L563.641 604H567.341V586.825H563.641V597.925L555.366 586.825H551.691V604ZM583.502 604H587.652L580.652 586.825H576.527L569.527 604H573.652L574.752 601.3H582.402L583.502 604ZM576.027 598.175L578.577 591.9L581.127 598.175H576.027ZM589.826 604H593.501V592.9L601.776 604H605.476V586.825H601.776V597.925L593.501 586.825H589.826V604ZM617.486 604.3C620.086 604.3 622.486 603.175 624.161 601.425L621.486 599.025C620.486 600.175 619.061 600.95 617.486 600.95C614.611 600.95 612.161 598.4 612.161 595.4C612.161 592.425 614.611 589.875 617.486 589.875C619.061 589.875 620.486 590.65 621.486 591.8L624.161 589.4C622.486 587.625 620.086 586.525 617.486 586.525C612.561 586.525 608.361 590.575 608.361 595.4C608.361 600.225 612.561 604.3 617.486 604.3ZM639.669 590.15V586.825H626.444V604H639.669V600.675H630.144V596.9H638.769V593.575H630.144V590.15H639.669Z"
          fill="#86D4C9"/>
    <path d="M652.803 886.85H445.202V925.99H652.803V886.85Z" fill="#6B5EC6"/>
    <path d="M652.709 886.85H598.304V925.99H652.709V886.85Z" fill="#8077DE"/>
    <path d="M499.606 886.85H445.202V925.99H499.606V886.85Z" fill="#5A4AB5"/>
    <path d="M652.697 886.85V925.89H445.202V886.85H652.697Z" stroke="#503EAA" stroke-width="5.9405"
          stroke-miterlimit="8.4865" stroke-linejoin="round"/>
    <path d="M1125.6 396.309C1125.6 407.119 1116.91 415.829 1106.1 415.829H937.6C926.79 415.829 918.1 407.119 918.1 396.309C918.1 385.489 926.79 376.789 937.6 376.789H1106.1C1116.8 376.789 1125.6 385.509 1125.6 396.309Z"
          fill="#6B5EC6"/>
    <path d="M1099.6 415.93H944V886.87H1099.6V415.93Z" fill="#6B5EC6"/>
    <path d="M990.69 415.93H944V886.87H990.69V415.93Z" fill="#5E4FB9"/>
    <path d="M1099.6 415.93H1052.9V886.87H1099.6V415.93Z" fill="#8077DE"/>
    <path d="M1106.1 376.789H1071.2V415.919H1106.1C1116.91 415.919 1125.6 407.219 1125.6 396.399C1125.6 385.509 1116.8 376.789 1106.1 376.789Z"
          fill="#8077DE"/>
    <path d="M972.5 376.789H937.6C926.79 376.789 918.1 385.489 918.1 396.309C918.1 407.119 926.79 415.829 937.6 415.829H972.5V376.789Z"
          fill="#5E4FB9"/>
    <path d="M1099.6 415.93H944V886.87H1099.6V415.93Z" stroke="#503EAA" stroke-width="5.9405" stroke-miterlimit="8.4865"
          stroke-linejoin="round"/>
    <path d="M1045.1 886.858H1029.5V440.438C1029.5 436.138 1033 432.639 1037.3 432.639C1041.6 432.639 1045.1 436.138 1045.1 440.438V886.858Z"
          fill="#503EAA"/>
    <path d="M1076.3 886.858H1060.7V440.438C1060.7 436.138 1064.2 432.639 1068.5 432.639C1072.8 432.639 1076.3 436.138 1076.3 440.438V886.858Z"
          fill="#503EAA"/>
    <path d="M1014 886.858H998.4V440.438C998.4 436.138 1001.9 432.639 1006.2 432.639C1010.5 432.639 1014 436.138 1014 440.438V886.858Z"
          fill="#503EAA"/>
    <path d="M982.9 886.858H967.3V440.438C967.3 436.138 970.8 432.639 975.1 432.639C979.41 432.639 982.9 436.138 982.9 440.438V886.858Z"
          fill="#503EAA"/>
    <path d="M1125.6 396.309C1125.6 407.119 1116.91 415.829 1106.1 415.829H937.6C926.79 415.829 918.1 407.119 918.1 396.309C918.1 385.489 926.79 376.789 937.6 376.789H1106.1C1116.8 376.789 1125.6 385.509 1125.6 396.309Z"
          stroke="#503EAA" stroke-width="5.9405" stroke-miterlimit="8.4865" stroke-linejoin="round"/>
    <path d="M1125.6 886.859H918V925.99H1125.6V886.859Z" fill="#6B5EC6"/>
    <path d="M1125.51 886.859H1071.1V925.99H1125.51V886.859Z" fill="#8077DE"/>
    <path d="M972.41 886.859H918V925.99H972.41V886.859Z" fill="#5A4AB5"/>
    <path d="M1125.6 886.859V926H918V886.859H1125.6Z" stroke="#503EAA" stroke-width="5.9405" stroke-miterlimit="8.4865"
          stroke-linejoin="round"/>
    <path d="M980.185 405.3C985.16 405.3 989.31 401.225 989.31 396.4C989.31 391.575 985.16 387.525 980.185 387.525C975.26 387.525 971.06 391.575 971.06 396.4C971.06 401.225 975.26 405.3 980.185 405.3ZM980.185 401.95C977.31 401.95 974.86 399.4 974.86 396.4C974.86 393.425 977.31 390.875 980.185 390.875C983.085 390.875 985.535 393.425 985.535 396.4C985.535 399.4 983.085 401.95 980.185 401.95ZM1006.55 405L1002.32 399C1004.67 398.175 1006.22 396.175 1006.22 393.625C1006.22 390.225 1003.47 387.825 999.748 387.825H992.023V405H995.698V399.425H998.423L1002.35 405H1006.55ZM995.698 391.2H999.348C1001.17 391.2 1002.42 392.15 1002.42 393.625C1002.42 395.1 1001.17 396.05 999.348 396.05H995.698V391.2ZM1021.57 405H1025.72L1018.72 387.825H1014.59L1007.59 405H1011.72L1012.82 402.3H1020.47L1021.57 405ZM1014.09 399.175L1016.64 392.9L1019.19 399.175H1014.09ZM1036.19 405.3C1038.79 405.3 1041.19 404.175 1042.87 402.425L1040.19 400.025C1039.19 401.175 1037.77 401.95 1036.19 401.95C1033.32 401.95 1030.87 399.4 1030.87 396.4C1030.87 393.425 1033.32 390.875 1036.19 390.875C1037.77 390.875 1039.19 391.65 1040.19 392.8L1042.87 390.4C1041.19 388.625 1038.79 387.525 1036.19 387.525C1031.27 387.525 1027.07 391.575 1027.07 396.4C1027.07 401.225 1031.27 405.3 1036.19 405.3ZM1048.72 401.675V387.825H1045.02V405H1057.27V401.675H1048.72ZM1072.87 391.15V387.825H1059.65V405H1072.87V401.675H1063.35V397.9H1071.97V394.575H1063.35V391.15H1072.87Z"
          fill="#86D4C9"/>
    <path d="M211.1 354.37C211.1 365.18 202.404 373.89 191.598 373.89H23.095C12.289 373.89 3.59302 365.18 3.59302 354.37C3.59302 343.55 12.289 334.85 23.095 334.85H191.598C202.404 334.86 211.1 343.57 211.1 354.37Z"
          fill="#6B5EC6"/>
    <path d="M185.106 373.889H29.505V887.298H185.106V373.889Z" fill="#6B5EC6"/>
    <path d="M76.203 373.889H29.505V887.298H76.203V373.889Z" fill="#5E4FB9"/>
    <path d="M185.094 373.889H138.396V887.298H185.094V373.889Z" fill="#8077DE"/>
    <path d="M191.598 334.75H156.696V373.89H191.598C202.404 373.89 211.1 365.18 211.1 354.37C211.1 343.57 202.298 334.75 191.598 334.75Z"
          fill="#8077DE"/>
    <path d="M57.997 334.75H23.095C12.289 334.75 3.59302 343.46 3.59302 354.27C3.59302 365.09 12.289 373.79 23.095 373.79H57.997V334.75Z"
          fill="#5E4FB9"/>
    <path d="M185.106 373.889H29.505V887.298H185.106V373.889Z" stroke="#503EAA" stroke-width="5.9405"
          stroke-miterlimit="8.4865" stroke-linejoin="round"/>
    <path d="M130.701 887.41H115.1V398.41C115.1 394.1 118.6 390.6 122.901 390.6C127.202 390.6 130.701 394.1 130.701 398.41V887.41Z"
          fill="#503EAA"/>
    <path d="M161.798 887.41H146.197V398.41C146.197 394.1 149.696 390.6 153.997 390.6C158.298 390.6 161.798 394.1 161.798 398.41V887.41Z"
          fill="#503EAA"/>
    <path d="M99.499 887.41H84.004V398.41C84.004 394.1 87.503 390.6 91.804 390.6C96.105 390.6 99.605 394.1 99.605 398.41V887.41H99.499Z"
          fill="#503EAA"/>
    <path d="M68.402 887.41H52.801V398.41C52.801 394.1 56.301 390.6 60.602 390.6C64.903 390.6 68.402 394.1 68.402 398.41V887.41Z"
          fill="#503EAA"/>
    <path d="M211.1 354.37C211.1 365.18 202.404 373.89 191.598 373.89H23.095C12.289 373.89 3.59302 365.18 3.59302 354.37C3.59302 343.55 12.289 334.85 23.095 334.85H191.598C202.298 334.86 211.1 343.57 211.1 354.37Z"
          stroke="#503EAA" stroke-width="5.9405" stroke-miterlimit="8.4865" stroke-linejoin="round"/>
    <path d="M211.1 887.41H3.49902V926.54H211.1V887.41Z" fill="#6B5EC6"/>
    <path d="M211.006 887.41H156.602V926.54H211.006V887.41Z" fill="#8077DE"/>
    <path d="M57.903 887.41H3.49902V926.54H57.903V887.41Z" fill="#5A4AB5"/>
    <path d="M211.1 887.41V926.45H3.49902V887.41H211.1Z" stroke="#503EAA" stroke-width="5.9405"
          stroke-miterlimit="8.4865" stroke-linejoin="round"/>
    <path d="M82.1243 361.3C86.6743 361.3 89.8993 358.1 89.8993 353.575V343.825H86.1993V353.425C86.1993 356.075 84.4993 357.95 82.1243 357.95C79.7243 357.95 78.0243 356.075 78.0243 353.425V343.825H74.3493V353.575C74.3493 358.1 77.5493 361.3 82.1243 361.3ZM99.7464 361.3C103.946 361.3 106.421 359.125 106.421 355.85C106.421 352.675 103.971 351.575 100.271 350.75C97.6214 350.15 96.5964 349.75 96.5964 348.5C96.5964 347.475 97.5464 346.65 99.1214 346.65C100.771 346.65 102.496 347.325 104.021 348.55L105.946 345.9C104.196 344.4 102.021 343.525 99.2214 343.525C95.4714 343.525 92.8714 345.7 92.8714 348.875C92.8714 352.2 95.4464 353.225 99.0714 354.05C101.696 354.65 102.696 355.025 102.696 356.25C102.696 357.325 101.746 358.175 99.8964 358.175C97.7214 358.175 95.8714 357.325 94.2464 355.925L92.1214 358.45C94.1214 360.3 96.7714 361.3 99.7464 361.3ZM122.292 347.15V343.825H109.067V361H122.292V357.675H112.767V353.9H121.392V350.575H112.767V347.15H122.292ZM139.607 361L135.382 355C137.732 354.175 139.282 352.175 139.282 349.625C139.282 346.225 136.532 343.825 132.807 343.825H125.082V361H128.757V355.425H131.482L135.407 361H139.607ZM128.757 347.2H132.407C134.232 347.2 135.482 348.15 135.482 349.625C135.482 351.1 134.232 352.05 132.407 352.05H128.757V347.2Z"
          fill="#86D4C9"/>
    <path d="M332.936 255H335.304V246.136H338.728V244.008H329.512V246.136H332.936V255ZM342.579 248.264V246.728H340.243V255H342.579V251.048C342.579 249.496 343.683 248.504 345.411 248.504V246.536C344.147 246.536 343.123 247.192 342.579 248.264ZM350.662 253.128C349.686 253.128 348.966 252.52 348.694 251.624H354.662C354.662 248.504 353.142 246.536 350.55 246.536C348.134 246.536 346.294 248.344 346.294 250.84C346.294 253.384 348.214 255.192 350.678 255.192C351.894 255.192 353.318 254.68 354.054 253.912L352.566 252.392C352.118 252.824 351.318 253.128 350.662 253.128ZM350.646 248.6C351.59 248.6 352.198 249.128 352.422 249.944H348.726C349.03 249.112 349.766 248.6 350.646 248.6ZM359.939 246.536C358.787 246.536 357.651 246.856 356.483 247.448L357.267 249C357.923 248.664 358.643 248.408 359.411 248.408C360.771 248.408 361.315 249.176 361.315 250.056V250.216C360.611 249.944 359.875 249.8 359.203 249.8C357.283 249.8 355.763 250.92 355.763 252.552C355.763 254.136 357.123 255.192 358.883 255.192C359.779 255.192 360.723 254.84 361.315 254.168V255H363.571V250.056C363.571 247.896 362.099 246.536 359.939 246.536ZM359.411 253.576C358.611 253.576 358.019 253.16 358.019 252.488C358.019 251.816 358.691 251.32 359.539 251.32C360.179 251.32 360.787 251.432 361.315 251.624V252.392C361.155 253.16 360.307 253.576 359.411 253.576ZM368.644 255.192C370.676 255.192 372.004 254.152 372.004 252.52C372.004 250.712 370.42 250.232 368.996 249.864C367.876 249.56 367.54 249.432 367.54 248.984C367.54 248.696 367.94 248.488 368.516 248.488C369.22 248.488 370.084 248.76 370.836 249.224L371.78 247.56C370.868 246.952 369.7 246.536 368.516 246.536C366.564 246.536 365.268 247.656 365.284 249.224C365.3 250.856 366.612 251.32 368.308 251.736C369.156 251.96 369.764 252.12 369.764 252.632C369.764 253 369.316 253.256 368.692 253.256C367.588 253.256 366.66 252.856 365.924 252.328L364.916 253.944C365.908 254.744 367.316 255.192 368.644 255.192ZM379.059 246.728V251.672L379.043 251.624C379.043 252.52 378.291 253.224 377.315 253.224C376.387 253.224 375.747 252.52 375.747 251.496V246.728H373.491V251.992C373.491 253.864 374.771 255.192 376.563 255.192C377.635 255.192 378.563 254.712 379.059 253.96V255H381.395V246.728H379.059ZM385.735 248.264V246.728H383.399V255H385.735V251.048C385.735 249.496 386.839 248.504 388.567 248.504V246.536C387.303 246.536 386.279 247.192 385.735 248.264ZM391.803 257.88C393.099 257.88 394.155 257.032 394.779 255.416L398.171 246.728H395.787L393.723 252.536L391.547 246.728H389.131L392.571 255.08L392.283 255.688C392.107 255.992 391.755 256.136 391.307 256.136C391.035 256.136 390.619 255.992 390.219 255.768L389.723 257.368C390.283 257.672 391.115 257.88 391.803 257.88Z"
          fill="#38237C"/>
    <path d="M340.384 273L337.68 269.16C339.184 268.632 340.176 267.352 340.176 265.72C340.176 263.544 338.416 262.008 336.032 262.008H331.088V273H333.44V269.432H335.184L337.696 273H340.384ZM333.44 264.168H335.776C336.944 264.168 337.744 264.776 337.744 265.72C337.744 266.664 336.944 267.272 335.776 267.272H333.44V264.168ZM345.772 271.128C344.796 271.128 344.076 270.52 343.804 269.624H349.772C349.772 266.504 348.252 264.536 345.66 264.536C343.244 264.536 341.404 266.344 341.404 268.84C341.404 271.384 343.324 273.192 345.788 273.192C347.004 273.192 348.428 272.68 349.164 271.912L347.676 270.392C347.228 270.824 346.428 271.128 345.772 271.128ZM345.756 266.6C346.7 266.6 347.308 267.128 347.532 267.944H343.836C344.14 267.112 344.876 266.6 345.756 266.6ZM353.042 273H355.138L356.69 267.8L358.226 273H360.322L363.138 264.728H360.85L359.282 269.88L357.65 264.728H355.714L354.082 269.88L352.514 264.728H350.226L353.042 273ZM368.111 264.536C366.959 264.536 365.823 264.856 364.655 265.448L365.439 267C366.095 266.664 366.815 266.408 367.583 266.408C368.943 266.408 369.487 267.176 369.487 268.056V268.216C368.783 267.944 368.047 267.8 367.375 267.8C365.455 267.8 363.935 268.92 363.935 270.552C363.935 272.136 365.295 273.192 367.055 273.192C367.951 273.192 368.895 272.84 369.487 272.168V273H371.743V268.056C371.743 265.896 370.271 264.536 368.111 264.536ZM367.583 271.576C366.783 271.576 366.191 271.16 366.191 270.488C366.191 269.816 366.863 269.32 367.711 269.32C368.351 269.32 368.959 269.432 369.487 269.624V270.392C369.327 271.16 368.479 271.576 367.583 271.576ZM376.048 266.264V264.728H373.712V273H376.048V269.048C376.048 267.496 377.152 266.504 378.88 266.504V264.536C377.616 264.536 376.592 265.192 376.048 266.264ZM386.403 261.816V265.912C385.747 265.048 384.787 264.536 383.619 264.536C381.411 264.536 379.811 266.328 379.811 268.856C379.811 271.4 381.411 273.192 383.619 273.192C384.787 273.192 385.747 272.68 386.403 271.816V273H388.739V261.816H386.403ZM384.291 271.224C382.995 271.224 382.083 270.248 382.083 268.856C382.083 267.48 382.995 266.504 384.291 266.504C385.523 266.504 386.403 267.48 386.403 268.856C386.403 270.248 385.523 271.224 384.291 271.224ZM393.894 273.192C395.926 273.192 397.254 272.152 397.254 270.52C397.254 268.712 395.67 268.232 394.246 267.864C393.126 267.56 392.79 267.432 392.79 266.984C392.79 266.696 393.19 266.488 393.766 266.488C394.47 266.488 395.334 266.76 396.086 267.224L397.03 265.56C396.118 264.952 394.95 264.536 393.766 264.536C391.814 264.536 390.518 265.656 390.534 267.224C390.55 268.856 391.862 269.32 393.558 269.736C394.406 269.96 395.014 270.12 395.014 270.632C395.014 271 394.566 271.256 393.942 271.256C392.838 271.256 391.91 270.856 391.174 270.328L390.166 271.944C391.158 272.744 392.566 273.192 393.894 273.192Z"
          fill="#38237C"/>
    <path d="M263.184 183H267.12C270.816 183 273.44 180.712 273.44 177.496C273.44 174.28 270.816 172.008 267.12 172.008H263.184V183ZM265.536 180.856V174.152H267.424C269.52 174.152 271.008 175.544 271.008 177.496C271.008 179.464 269.52 180.856 267.424 180.856H265.536ZM279.1 181.128C278.124 181.128 277.404 180.52 277.132 179.624H283.1C283.1 176.504 281.58 174.536 278.988 174.536C276.572 174.536 274.732 176.344 274.732 178.84C274.732 181.384 276.652 183.192 279.116 183.192C280.332 183.192 281.756 182.68 282.492 181.912L281.004 180.392C280.556 180.824 279.756 181.128 279.1 181.128ZM279.084 176.6C280.028 176.6 280.636 177.128 280.86 177.944H277.164C277.468 177.112 278.204 176.6 279.084 176.6ZM284.68 183H287.016V171.816H284.68V183ZM292.959 181.128C291.983 181.128 291.263 180.52 290.991 179.624H296.959C296.959 176.504 295.439 174.536 292.847 174.536C290.431 174.536 288.591 176.344 288.591 178.84C288.591 181.384 290.511 183.192 292.975 183.192C294.191 183.192 295.615 182.68 296.351 181.912L294.863 180.392C294.415 180.824 293.615 181.128 292.959 181.128ZM292.943 176.6C293.887 176.6 294.495 177.128 294.719 177.944H291.023C291.327 177.112 292.063 176.6 292.943 176.6ZM304.524 174.728V175.848C303.964 175.064 302.908 174.536 301.788 174.536C299.708 174.536 298.124 176.152 298.124 178.456C298.124 180.76 299.708 182.392 301.788 182.392C302.876 182.392 303.868 181.912 304.524 181.112V182.024C304.524 183.096 303.564 183.784 302.06 183.784C301.1 183.784 300.14 183.48 299.596 183L298.78 184.648C299.596 185.288 300.972 185.752 302.428 185.752C305.036 185.752 306.876 184.248 306.876 182.12V174.728H304.524ZM302.524 180.424C301.356 180.424 300.524 179.608 300.524 178.456C300.524 177.304 301.356 176.504 302.524 176.504C303.692 176.504 304.524 177.304 304.524 178.456C304.524 179.608 303.692 180.424 302.524 180.424ZM312.626 174.536C311.474 174.536 310.338 174.856 309.17 175.448L309.954 177C310.61 176.664 311.33 176.408 312.098 176.408C313.458 176.408 314.002 177.176 314.002 178.056V178.216C313.298 177.944 312.562 177.8 311.89 177.8C309.97 177.8 308.45 178.92 308.45 180.552C308.45 182.136 309.81 183.192 311.57 183.192C312.466 183.192 313.41 182.84 314.002 182.168V183H316.258V178.056C316.258 175.896 314.786 174.536 312.626 174.536ZM312.098 181.576C311.298 181.576 310.706 181.16 310.706 180.488C310.706 179.816 311.378 179.32 312.226 179.32C312.866 179.32 313.474 179.432 314.002 179.624V180.392C313.842 181.16 312.994 181.576 312.098 181.576ZM322.579 180.952C322.419 181.112 322.099 181.224 321.779 181.224C321.347 181.224 320.995 180.84 320.995 180.296V176.616H322.787V174.728H320.995V172.456H318.755V174.728H317.619V176.616H318.755V180.664C318.755 182.152 319.779 183.192 321.235 183.192C321.907 183.192 322.659 182.904 323.139 182.472L322.579 180.952ZM328.506 181.128C327.53 181.128 326.81 180.52 326.538 179.624H332.506C332.506 176.504 330.986 174.536 328.394 174.536C325.978 174.536 324.138 176.344 324.138 178.84C324.138 181.384 326.058 183.192 328.522 183.192C329.738 183.192 331.162 182.68 331.898 181.912L330.41 180.392C329.962 180.824 329.162 181.128 328.506 181.128ZM328.49 176.6C329.434 176.6 330.042 177.128 330.266 177.944H326.57C326.874 177.112 327.61 176.6 328.49 176.6ZM340.263 171.816V175.912C339.607 175.048 338.647 174.536 337.479 174.536C335.271 174.536 333.671 176.328 333.671 178.856C333.671 181.4 335.271 183.192 337.479 183.192C338.647 183.192 339.607 182.68 340.263 181.816V183H342.599V171.816H340.263ZM338.151 181.224C336.855 181.224 335.943 180.248 335.943 178.856C335.943 177.48 336.855 176.504 338.151 176.504C339.383 176.504 340.263 177.48 340.263 178.856C340.263 180.248 339.383 181.224 338.151 181.224Z"
          fill="#38237C"/>
    <path d="M285.184 200H287.536V193.152L290.944 199.36L294.336 193.152V200H296.704V189.008H294.336L290.944 195.216L287.536 189.008H285.184V200ZM307.043 189.008L303.891 196.752L300.739 189.008H298.083L302.563 200H305.203L309.683 189.008H307.043ZM311.059 200H313.411V196.928L314.787 195.456L318.163 200H321.027L316.435 193.776L320.723 189.008H317.859L313.411 194.048V189.008H311.059V200Z"
          fill="#38237C"/>
    <path d="M759.248 241.192C761.936 241.192 763.52 239.8 763.52 237.704C763.52 235.672 761.952 234.968 759.584 234.44C757.888 234.056 757.232 233.8 757.232 233C757.232 232.344 757.84 231.816 758.848 231.816C759.904 231.816 761.008 232.248 761.984 233.032L763.216 231.336C762.096 230.376 760.704 229.816 758.912 229.816C756.512 229.816 754.848 231.208 754.848 233.24C754.848 235.368 756.496 236.024 758.816 236.552C760.496 236.936 761.136 237.176 761.136 237.96C761.136 238.648 760.528 239.192 759.344 239.192C757.952 239.192 756.768 238.648 755.728 237.752L754.368 239.368C755.648 240.552 757.344 241.192 759.248 241.192ZM766.317 231.592C767.005 231.592 767.565 231.016 767.565 230.312C767.565 229.656 767.005 229.064 766.317 229.064C765.597 229.064 765.037 229.656 765.037 230.312C765.037 231.016 765.597 231.592 766.317 231.592ZM765.133 241H767.469V232.728H765.133V241ZM775.492 232.728V233.848C774.932 233.064 773.876 232.536 772.756 232.536C770.676 232.536 769.092 234.152 769.092 236.456C769.092 238.76 770.676 240.392 772.756 240.392C773.844 240.392 774.836 239.912 775.492 239.112V240.024C775.492 241.096 774.532 241.784 773.028 241.784C772.068 241.784 771.108 241.48 770.564 241L769.748 242.648C770.564 243.288 771.94 243.752 773.396 243.752C776.004 243.752 777.844 242.248 777.844 240.12V232.728H775.492ZM773.492 238.424C772.324 238.424 771.492 237.608 771.492 236.456C771.492 235.304 772.324 234.504 773.492 234.504C774.66 234.504 775.492 235.304 775.492 236.456C775.492 237.608 774.66 238.424 773.492 238.424ZM784.683 232.536C783.611 232.536 782.683 233.016 782.187 233.768V232.728H779.851V241H782.187V236.056L782.203 236.104C782.203 235.208 782.955 234.504 783.931 234.504C784.859 234.504 785.499 235.208 785.499 236.232V241H787.755V235.736C787.755 233.864 786.475 232.536 784.683 232.536ZM793.631 239.128C792.655 239.128 791.935 238.52 791.663 237.624H797.631C797.631 234.504 796.111 232.536 793.519 232.536C791.103 232.536 789.263 234.344 789.263 236.84C789.263 239.384 791.183 241.192 793.647 241.192C794.863 241.192 796.287 240.68 797.023 239.912L795.535 238.392C795.087 238.824 794.287 239.128 793.631 239.128ZM793.615 234.6C794.559 234.6 795.167 235.128 795.391 235.944H791.695C791.999 235.112 792.735 234.6 793.615 234.6ZM805.388 229.816V233.912C804.732 233.048 803.772 232.536 802.604 232.536C800.396 232.536 798.796 234.328 798.796 236.856C798.796 239.4 800.396 241.192 802.604 241.192C803.772 241.192 804.732 240.68 805.388 239.816V241H807.724V229.816H805.388ZM803.276 239.224C801.98 239.224 801.068 238.248 801.068 236.856C801.068 235.48 801.98 234.504 803.276 234.504C804.508 234.504 805.388 235.48 805.388 236.856C805.388 238.248 804.508 239.224 803.276 239.224Z"
          fill="#38237C"/>
    <path d="M747.128 249.536C745.976 249.536 745.016 250.032 744.36 250.88V249.728H742.024V260.752H744.36V256.832C745.016 257.696 745.976 258.192 747.128 258.192C749.336 258.192 750.936 256.4 750.936 253.856C750.936 251.328 749.336 249.536 747.128 249.536ZM746.456 256.224C745.32 256.224 744.488 255.392 744.36 254.176V253.536C744.488 252.336 745.32 251.504 746.456 251.504C747.752 251.504 748.664 252.48 748.664 253.856C748.664 255.248 747.752 256.224 746.456 256.224ZM754.923 251.264V249.728H752.587V258H754.923V254.048C754.923 252.496 756.027 251.504 757.755 251.504V249.536C756.491 249.536 755.467 250.192 754.923 251.264ZM760.27 248.592C760.958 248.592 761.518 248.016 761.518 247.312C761.518 246.656 760.958 246.064 760.27 246.064C759.55 246.064 758.99 246.656 758.99 247.312C758.99 248.016 759.55 248.592 760.27 248.592ZM759.086 258H761.422V249.728H759.086V258ZM767.51 258.192C768.886 258.192 770.006 257.632 770.822 256.736L769.27 255.424C768.838 255.904 768.166 256.224 767.526 256.224C766.294 256.224 765.27 255.136 765.27 253.84C765.27 252.576 766.294 251.504 767.51 251.504C768.15 251.504 768.806 251.808 769.222 252.272L770.774 250.944C769.974 250.08 768.87 249.536 767.526 249.536C765.078 249.536 762.998 251.504 762.998 253.856C762.998 256.208 765.062 258.192 767.51 258.192ZM776.131 256.128C775.155 256.128 774.435 255.52 774.163 254.624H780.131C780.131 251.504 778.611 249.536 776.019 249.536C773.603 249.536 771.763 251.344 771.763 253.84C771.763 256.384 773.683 258.192 776.147 258.192C777.363 258.192 778.787 257.68 779.523 256.912L778.035 255.392C777.587 255.824 776.787 256.128 776.131 256.128ZM776.115 251.6C777.059 251.6 777.667 252.128 777.891 252.944H774.195C774.499 252.112 775.235 251.6 776.115 251.6ZM788.948 249.28C788.948 248.736 789.3 248.352 789.732 248.352C790.052 248.352 790.372 248.464 790.532 248.624L791.092 247.2C790.612 246.768 789.86 246.48 789.188 246.48C787.732 246.48 786.708 247.52 786.708 249.008V249.728H785.572V251.616H786.708V258H788.948V251.616H790.74V249.728H788.948V249.28ZM796.147 256.128C795.171 256.128 794.451 255.52 794.179 254.624H800.147C800.147 251.504 798.627 249.536 796.035 249.536C793.619 249.536 791.779 251.344 791.779 253.84C791.779 256.384 793.699 258.192 796.163 258.192C797.379 258.192 798.803 257.68 799.539 256.912L798.051 255.392C797.603 255.824 796.803 256.128 796.147 256.128ZM796.131 251.6C797.075 251.6 797.683 252.128 797.907 252.944H794.211C794.515 252.112 795.251 251.6 796.131 251.6ZM805.631 256.128C804.655 256.128 803.935 255.52 803.663 254.624H809.631C809.631 251.504 808.111 249.536 805.519 249.536C803.103 249.536 801.263 251.344 801.263 253.84C801.263 256.384 803.183 258.192 805.647 258.192C806.863 258.192 808.287 257.68 809.023 256.912L807.535 255.392C807.087 255.824 806.287 256.128 805.631 256.128ZM805.615 251.6C806.559 251.6 807.167 252.128 807.391 252.944H803.695C803.999 252.112 804.735 251.6 805.615 251.6ZM817.388 246.816V250.912C816.732 250.048 815.772 249.536 814.604 249.536C812.396 249.536 810.796 251.328 810.796 253.856C810.796 256.4 812.396 258.192 814.604 258.192C815.772 258.192 816.732 257.68 817.388 256.816V258H819.724V246.816H817.388ZM815.276 256.224C813.98 256.224 813.068 255.248 813.068 253.856C813.068 252.48 813.98 251.504 815.276 251.504C816.508 251.504 817.388 252.48 817.388 253.856C817.388 255.248 816.508 256.224 815.276 256.224Z"
          fill="#38237C"/>
    <path d="M837.184 306H839.536V299.152L842.944 305.36L846.336 299.152V306H848.704V295.008H846.336L842.944 301.216L839.536 295.008H837.184V306ZM859.043 295.008L855.891 302.752L852.739 295.008H850.083L854.563 306H857.203L861.683 295.008H859.043ZM863.059 306H865.411V302.928L866.787 301.456L870.163 306H873.027L868.435 299.776L872.723 295.008H869.859L865.411 300.048V295.008H863.059V306Z"
          fill="#38237C"/>
    <path d="M833.384 324L830.68 320.16C832.184 319.632 833.176 318.352 833.176 316.72C833.176 314.544 831.416 313.008 829.032 313.008H824.088V324H826.44V320.432H828.184L830.696 324H833.384ZM826.44 315.168H828.776C829.944 315.168 830.744 315.776 830.744 316.72C830.744 317.664 829.944 318.272 828.776 318.272H826.44V315.168ZM838.772 322.128C837.796 322.128 837.076 321.52 836.804 320.624H842.772C842.772 317.504 841.252 315.536 838.66 315.536C836.244 315.536 834.404 317.344 834.404 319.84C834.404 322.384 836.324 324.192 838.788 324.192C840.004 324.192 841.428 323.68 842.164 322.912L840.676 321.392C840.228 321.824 839.428 322.128 838.772 322.128ZM838.756 317.6C839.7 317.6 840.308 318.128 840.532 318.944H836.836C837.14 318.112 837.876 317.6 838.756 317.6ZM846.042 324H848.138L849.69 318.8L851.226 324H853.322L856.138 315.728H853.85L852.282 320.88L850.65 315.728H848.714L847.082 320.88L845.514 315.728H843.226L846.042 324ZM861.111 315.536C859.959 315.536 858.823 315.856 857.655 316.448L858.439 318C859.095 317.664 859.815 317.408 860.583 317.408C861.943 317.408 862.487 318.176 862.487 319.056V319.216C861.783 318.944 861.047 318.8 860.375 318.8C858.455 318.8 856.935 319.92 856.935 321.552C856.935 323.136 858.295 324.192 860.055 324.192C860.951 324.192 861.895 323.84 862.487 323.168V324H864.743V319.056C864.743 316.896 863.271 315.536 861.111 315.536ZM860.583 322.576C859.783 322.576 859.191 322.16 859.191 321.488C859.191 320.816 859.863 320.32 860.711 320.32C861.351 320.32 861.959 320.432 862.487 320.624V321.392C862.327 322.16 861.479 322.576 860.583 322.576ZM869.048 317.264V315.728H866.712V324H869.048V320.048C869.048 318.496 870.152 317.504 871.88 317.504V315.536C870.616 315.536 869.592 316.192 869.048 317.264ZM879.403 312.816V316.912C878.747 316.048 877.787 315.536 876.619 315.536C874.411 315.536 872.811 317.328 872.811 319.856C872.811 322.4 874.411 324.192 876.619 324.192C877.787 324.192 878.747 323.68 879.403 322.816V324H881.739V312.816H879.403ZM877.291 322.224C875.995 322.224 875.083 321.248 875.083 319.856C875.083 318.48 875.995 317.504 877.291 317.504C878.523 317.504 879.403 318.48 879.403 319.856C879.403 321.248 878.523 322.224 877.291 322.224ZM886.894 324.192C888.926 324.192 890.254 323.152 890.254 321.52C890.254 319.712 888.67 319.232 887.246 318.864C886.126 318.56 885.79 318.432 885.79 317.984C885.79 317.696 886.19 317.488 886.766 317.488C887.47 317.488 888.334 317.76 889.086 318.224L890.03 316.56C889.118 315.952 887.95 315.536 886.766 315.536C884.814 315.536 883.518 316.656 883.534 318.224C883.55 319.856 884.862 320.32 886.558 320.736C887.406 320.96 888.014 321.12 888.014 321.632C888.014 322 887.566 322.256 886.942 322.256C885.838 322.256 884.91 321.856 884.174 321.328L883.166 322.944C884.158 323.744 885.566 324.192 886.894 324.192Z"
          fill="#38237C"/>
    <path d="M481.936 370H484.304V361.136H487.728V359.008H478.512V361.136H481.936V370ZM491.579 363.264V361.728H489.243V370H491.579V366.048C491.579 364.496 492.683 363.504 494.411 363.504V361.536C493.147 361.536 492.123 362.192 491.579 363.264ZM499.662 368.128C498.686 368.128 497.966 367.52 497.694 366.624H503.662C503.662 363.504 502.142 361.536 499.55 361.536C497.134 361.536 495.294 363.344 495.294 365.84C495.294 368.384 497.214 370.192 499.678 370.192C500.894 370.192 502.318 369.68 503.054 368.912L501.566 367.392C501.118 367.824 500.318 368.128 499.662 368.128ZM499.646 363.6C500.59 363.6 501.198 364.128 501.422 364.944H497.726C498.03 364.112 498.766 363.6 499.646 363.6ZM508.939 361.536C507.787 361.536 506.651 361.856 505.483 362.448L506.267 364C506.923 363.664 507.643 363.408 508.411 363.408C509.771 363.408 510.315 364.176 510.315 365.056V365.216C509.611 364.944 508.875 364.8 508.203 364.8C506.283 364.8 504.763 365.92 504.763 367.552C504.763 369.136 506.123 370.192 507.883 370.192C508.779 370.192 509.723 369.84 510.315 369.168V370H512.571V365.056C512.571 362.896 511.099 361.536 508.939 361.536ZM508.411 368.576C507.611 368.576 507.019 368.16 507.019 367.488C507.019 366.816 507.691 366.32 508.539 366.32C509.179 366.32 509.787 366.432 510.315 366.624V367.392C510.155 368.16 509.307 368.576 508.411 368.576ZM517.644 370.192C519.676 370.192 521.004 369.152 521.004 367.52C521.004 365.712 519.42 365.232 517.996 364.864C516.876 364.56 516.54 364.432 516.54 363.984C516.54 363.696 516.94 363.488 517.516 363.488C518.22 363.488 519.084 363.76 519.836 364.224L520.78 362.56C519.868 361.952 518.7 361.536 517.516 361.536C515.564 361.536 514.268 362.656 514.284 364.224C514.3 365.856 515.612 366.32 517.308 366.736C518.156 366.96 518.764 367.12 518.764 367.632C518.764 368 518.316 368.256 517.692 368.256C516.588 368.256 515.66 367.856 514.924 367.328L513.916 368.944C514.908 369.744 516.316 370.192 517.644 370.192ZM528.059 361.728V366.672L528.043 366.624C528.043 367.52 527.291 368.224 526.315 368.224C525.387 368.224 524.747 367.52 524.747 366.496V361.728H522.491V366.992C522.491 368.864 523.771 370.192 525.563 370.192C526.635 370.192 527.563 369.712 528.059 368.96V370H530.395V361.728H528.059ZM534.735 363.264V361.728H532.399V370H534.735V366.048C534.735 364.496 535.839 363.504 537.567 363.504V361.536C536.303 361.536 535.279 362.192 534.735 363.264ZM540.803 372.88C542.099 372.88 543.155 372.032 543.779 370.416L547.171 361.728H544.787L542.723 367.536L540.547 361.728H538.131L541.571 370.08L541.283 370.688C541.107 370.992 540.755 371.136 540.307 371.136C540.035 371.136 539.619 370.992 539.219 370.768L538.723 372.368C539.283 372.672 540.115 372.88 540.803 372.88Z"
          fill="#38237C"/>
    <path d="M489.384 387.695L486.68 383.855C488.184 383.327 489.176 382.047 489.176 380.415C489.176 378.239 487.416 376.703 485.032 376.703H480.088V387.695H482.44V384.127H484.184L486.696 387.695H489.384ZM482.44 378.863H484.776C485.944 378.863 486.744 379.471 486.744 380.415C486.744 381.359 485.944 381.967 484.776 381.967H482.44V378.863ZM494.772 385.823C493.796 385.823 493.076 385.215 492.804 384.319H498.772C498.772 381.199 497.252 379.231 494.66 379.231C492.244 379.231 490.404 381.039 490.404 383.535C490.404 386.079 492.324 387.887 494.788 387.887C496.004 387.887 497.428 387.375 498.164 386.607L496.676 385.087C496.228 385.519 495.428 385.823 494.772 385.823ZM494.756 381.295C495.7 381.295 496.308 381.823 496.532 382.639H492.836C493.14 381.807 493.876 381.295 494.756 381.295ZM502.042 387.695H504.138L505.69 382.495L507.226 387.695H509.322L512.138 379.423H509.85L508.282 384.575L506.65 379.423H504.714L503.082 384.575L501.514 379.423H499.226L502.042 387.695ZM517.111 379.231C515.959 379.231 514.823 379.551 513.655 380.143L514.439 381.695C515.095 381.359 515.815 381.103 516.583 381.103C517.943 381.103 518.487 381.871 518.487 382.751V382.911C517.783 382.639 517.047 382.495 516.375 382.495C514.455 382.495 512.935 383.615 512.935 385.247C512.935 386.831 514.295 387.887 516.055 387.887C516.951 387.887 517.895 387.535 518.487 386.863V387.695H520.743V382.751C520.743 380.591 519.271 379.231 517.111 379.231ZM516.583 386.271C515.783 386.271 515.191 385.855 515.191 385.183C515.191 384.511 515.863 384.015 516.711 384.015C517.351 384.015 517.959 384.127 518.487 384.319V385.087C518.327 385.855 517.479 386.271 516.583 386.271ZM525.048 380.959V379.423H522.712V387.695H525.048V383.743C525.048 382.191 526.152 381.199 527.88 381.199V379.231C526.616 379.231 525.592 379.887 525.048 380.959ZM535.403 376.511V380.607C534.747 379.743 533.787 379.231 532.619 379.231C530.411 379.231 528.811 381.023 528.811 383.551C528.811 386.095 530.411 387.887 532.619 387.887C533.787 387.887 534.747 387.375 535.403 386.511V387.695H537.739V376.511H535.403ZM533.291 385.919C531.995 385.919 531.083 384.943 531.083 383.551C531.083 382.175 531.995 381.199 533.291 381.199C534.523 381.199 535.403 382.175 535.403 383.551C535.403 384.943 534.523 385.919 533.291 385.919ZM542.894 387.887C544.926 387.887 546.254 386.847 546.254 385.215C546.254 383.407 544.67 382.927 543.246 382.559C542.126 382.255 541.79 382.127 541.79 381.679C541.79 381.391 542.19 381.183 542.766 381.183C543.47 381.183 544.334 381.455 545.086 381.919L546.03 380.255C545.118 379.647 543.95 379.231 542.766 379.231C540.814 379.231 539.518 380.351 539.534 381.919C539.55 383.551 540.862 384.015 542.558 384.431C543.406 384.655 544.014 384.815 544.014 385.327C544.014 385.695 543.566 385.951 542.942 385.951C541.838 385.951 540.91 385.551 540.174 385.023L539.166 386.639C540.158 387.439 541.566 387.887 542.894 387.887Z"
          fill="#38237C"/>
    <path d="M583.168 337.008L580.016 344.752L576.864 337.008H574.208L578.688 348H581.328L585.808 337.008H583.168ZM589.979 348.192C592.427 348.192 594.475 346.208 594.475 343.856C594.475 341.504 592.427 339.536 589.979 339.536C587.515 339.536 585.451 341.504 585.451 343.856C585.451 346.208 587.515 348.192 589.979 348.192ZM589.979 346.224C588.731 346.224 587.691 345.136 587.691 343.856C587.691 342.576 588.731 341.504 589.979 341.504C591.211 341.504 592.251 342.576 592.251 343.856C592.251 345.136 591.211 346.224 589.979 346.224ZM600.407 345.952C600.247 346.112 599.927 346.224 599.607 346.224C599.175 346.224 598.823 345.84 598.823 345.296V341.616H600.615V339.728H598.823V337.456H596.583V339.728H595.447V341.616H596.583V345.664C596.583 347.152 597.607 348.192 599.063 348.192C599.735 348.192 600.487 347.904 600.967 347.472L600.407 345.952ZM606.334 346.128C605.358 346.128 604.638 345.52 604.366 344.624H610.334C610.334 341.504 608.814 339.536 606.222 339.536C603.806 339.536 601.966 341.344 601.966 343.84C601.966 346.384 603.886 348.192 606.35 348.192C607.566 348.192 608.99 347.68 609.726 346.912L608.238 345.392C607.79 345.824 606.99 346.128 606.334 346.128ZM606.318 341.6C607.262 341.6 607.87 342.128 608.094 342.944H604.398C604.702 342.112 605.438 341.6 606.318 341.6ZM615.019 348.192C617.051 348.192 618.379 347.152 618.379 345.52C618.379 343.712 616.795 343.232 615.371 342.864C614.251 342.56 613.915 342.432 613.915 341.984C613.915 341.696 614.315 341.488 614.891 341.488C615.595 341.488 616.459 341.76 617.211 342.224L618.155 340.56C617.243 339.952 616.075 339.536 614.891 339.536C612.939 339.536 611.643 340.656 611.659 342.224C611.675 343.856 612.987 344.32 614.683 344.736C615.531 344.96 616.139 345.12 616.139 345.632C616.139 346 615.691 346.256 615.067 346.256C613.963 346.256 613.035 345.856 612.299 345.328L611.291 346.944C612.283 347.744 613.691 348.192 615.019 348.192Z"
          fill="#38237C"/>
    <path d="M240.205 215.31C238.508 215.31 237.106 213.91 237.106 212.1C237.106 211.3 237.401 210.5 238.001 209.9C251.399 196.49 251.399 174.76 238.001 161.35C236.8 160.15 236.705 158.14 237.907 156.95C239.109 155.75 241.112 155.65 242.302 156.86L242.397 156.95C258.198 172.77 258.198 198.49 242.397 214.4C241.796 215 241.1 215.31 240.205 215.31Z"
          fill="#86D4C9"/>
    <path d="M230.696 206.047C229.894 206.047 229.093 205.757 228.492 205.157C227.29 203.947 227.29 201.947 228.492 200.757C236.587 192.647 236.587 179.427 228.492 171.217C227.29 169.927 227.491 167.918 228.693 166.817C229.894 165.727 231.697 165.727 232.887 166.817C243.493 177.438 243.493 194.647 232.887 205.157C232.298 205.757 231.497 206.047 230.696 206.047Z"
          fill="#86D4C9"/>
    <path d="M221.198 196.12C219.501 196.12 218.099 194.71 218.099 193.01C218.099 192.21 218.394 191.41 218.995 190.81C221.893 187.91 221.893 183.2 218.995 180.3C217.793 179.1 217.793 177.09 218.995 175.9C220.197 174.7 222.2 174.7 223.39 175.9C228.693 181.3 228.693 189.91 223.39 195.31C222.801 195.82 222 196.12 221.198 196.12Z"
          fill="#86D4C9"/>
    <path d="M298.898 228C300.595 228 301.998 229.4 301.998 231.21C301.998 232.01 301.703 232.81 301.102 233.41C287.704 246.82 287.704 268.55 301.102 281.96C302.304 283.16 302.398 285.17 301.196 286.36C299.994 287.56 297.991 287.65 296.801 286.45L296.707 286.36C280.905 270.54 280.905 244.82 296.707 228.91C297.296 228.29 298.097 228 298.898 228Z"
          fill="#86D4C9"/>
    <path d="M308.396 237.51C309.197 237.51 309.999 237.799 310.6 238.399C311.802 239.599 311.802 241.61 310.6 242.8C302.504 250.9 302.504 264.12 310.6 272.33C311.802 273.63 311.601 275.639 310.399 276.729C309.197 277.829 307.395 277.829 306.204 276.729C295.599 266.119 295.599 248.909 306.204 238.399C306.805 237.809 307.607 237.51 308.396 237.51Z"
          fill="#86D4C9"/>
    <path d="M317.905 247.01C319.602 247.01 321.004 248.41 321.004 250.11C321.004 250.91 320.71 251.72 320.109 252.32C317.21 255.22 317.21 259.93 320.109 262.83C321.31 264.03 321.31 266.039 320.109 267.229C318.907 268.429 316.903 268.429 315.713 267.229C310.411 261.819 310.411 253.21 315.713 247.81C316.302 247.32 317.104 247.01 317.905 247.01Z"
          fill="#86D4C9"/>
    <path d="M850.117 273.303C848.417 273.303 847.017 271.903 847.017 270.093C847.017 269.293 847.307 268.493 847.907 267.893C861.307 254.483 861.307 232.753 847.907 219.343C846.707 218.143 846.617 216.133 847.817 214.943C849.017 213.753 851.017 213.653 852.207 214.853L852.307 214.943C868.107 230.763 868.107 256.483 852.307 272.393C851.807 272.993 851.007 273.303 850.117 273.303Z"
          fill="#86D4C9"/>
    <path d="M840.607 263.793C839.807 263.793 838.997 263.503 838.397 262.903C837.197 261.703 837.197 259.693 838.397 258.503C846.497 250.403 846.497 237.173 838.397 228.973C837.197 227.673 837.397 225.663 838.597 224.573C839.807 223.473 841.607 223.473 842.797 224.573C853.397 235.183 853.397 252.393 842.797 262.903C842.317 263.493 841.507 263.793 840.607 263.793Z"
          fill="#86D4C9"/>
    <path d="M831.107 254.282C829.407 254.282 828.007 252.872 828.007 251.172C828.007 250.372 828.308 249.572 828.908 248.972C831.798 246.072 831.798 241.362 828.908 238.462C827.697 237.262 827.697 235.252 828.908 234.062C830.108 232.862 832.107 232.862 833.297 234.062C838.597 239.462 838.597 248.072 833.297 253.472C832.807 253.982 832.017 254.282 831.107 254.282Z"
          fill="#86D4C9"/>
    <path d="M792.11 280C793.8 280 795.21 281.4 795.21 283.2C795.21 284.01 794.91 284.81 794.31 285.41C780.91 298.82 780.91 320.55 794.31 333.96C795.51 335.16 795.61 337.16 794.4 338.35C793.2 339.56 791.2 339.65 790.01 338.45L789.92 338.35C774.11 322.54 774.11 296.82 789.92 280.9C790.5 280.4 791.31 280 792.11 280Z"
          fill="#86D4C9"/>
    <path d="M801.6 289.609C802.41 289.609 803.21 289.899 803.81 290.509C805.01 291.709 805.01 293.709 803.81 294.899C795.71 303.009 795.71 316.229 803.81 324.439C805.01 325.729 804.81 327.739 803.61 328.839C802.41 329.929 800.6 329.929 799.41 328.839C788.81 318.219 788.81 301.009 799.41 290.509C800 289.899 800.8 289.609 801.6 289.609Z"
          fill="#86D4C9"/>
    <path d="M811.1 299.119C812.8 299.119 814.2 300.519 814.2 302.219C814.2 303.019 813.91 303.819 813.31 304.419C810.41 307.319 810.41 312.029 813.31 314.929C814.51 316.129 814.51 318.14 813.31 319.33C812.1 320.53 810.1 320.53 808.91 319.33C803.61 313.93 803.61 305.319 808.91 299.919C809.5 299.409 810.3 299.119 811.1 299.119Z"
          fill="#86D4C9"/>
    <path d="M542.255 327.057C542.255 328.757 540.852 330.157 539.05 330.157C538.248 330.157 537.447 329.857 536.846 329.257C523.448 315.847 501.743 315.847 488.345 329.257C487.143 330.467 485.14 330.558 483.95 329.358C482.748 328.148 482.654 326.147 483.856 324.957L483.95 324.858C499.752 309.047 525.451 309.047 541.347 324.858C541.96 325.448 542.255 326.257 542.255 327.057Z"
          fill="#86D4C9"/>
    <path d="M532.757 336.667C532.757 337.467 532.463 338.267 531.862 338.867C530.66 340.077 528.657 340.077 527.467 338.867C519.371 330.767 506.162 330.767 497.961 338.867C496.665 340.077 494.661 339.877 493.565 338.667C492.47 337.467 492.47 335.667 493.565 334.477C504.171 323.857 521.363 323.857 531.862 334.477C532.451 334.967 532.757 335.757 532.757 336.667Z"
          fill="#86D4C9"/>
    <path d="M523.26 346.177C523.26 347.867 521.858 349.277 520.161 349.277C519.36 349.277 518.558 348.977 517.957 348.377C515.059 345.477 510.357 345.477 507.458 348.377C506.256 349.577 504.253 349.577 503.063 348.377C501.873 347.177 501.861 345.167 503.063 343.977C508.46 338.667 517.062 338.667 522.459 343.977C522.953 344.477 523.26 345.277 523.26 346.177Z"
          fill="#86D4C9"/>
    <path d="M567 386.999C567 385.299 568.402 383.899 570.205 383.899C571.006 383.899 571.808 384.199 572.409 384.799C585.806 398.209 607.512 398.209 620.909 384.799C622.111 383.589 624.114 383.499 625.305 384.699C626.507 385.909 626.601 387.909 625.399 389.099L625.305 389.199C609.503 405.009 583.803 405.009 567.907 389.199C567.306 388.699 567 387.899 567 386.999Z"
          fill="#86D4C9"/>
    <path d="M576.509 377.499C576.509 376.689 576.804 375.889 577.405 375.289C578.607 374.089 580.61 374.089 581.8 375.289C589.895 383.389 603.104 383.389 611.306 375.289C612.602 374.089 614.605 374.289 615.701 375.489C616.797 376.689 616.797 378.499 615.701 379.689C605.096 390.309 587.904 390.309 577.405 379.689C576.898 379.099 576.509 378.389 576.509 377.499Z"
          fill="#86D4C9"/>
    <path d="M586.007 367.989C586.007 366.289 587.409 364.888 589.106 364.888C589.907 364.888 590.708 365.178 591.309 365.788C594.208 368.688 598.91 368.688 601.808 365.788C603.01 364.578 605.013 364.578 606.204 365.788C607.405 366.988 607.405 368.988 606.204 370.178C600.807 375.488 592.205 375.488 586.808 370.178C586.407 369.578 586.007 368.779 586.007 367.989Z"
          fill="#86D4C9"/>
    <path d="M666.11 556.259V540.149C666.11 540.149 672.3 526.029 670.61 525.629L630.402 511.619H633.007C638.003 511.619 642.103 507.519 642.103 502.509V501.709C642.103 496.709 638.003 492.609 633.007 492.609H612.303C611.502 477.299 604.997 462.979 593.803 452.069C582.609 441.159 567.903 434.959 552.207 434.149V428.149C554.812 426.949 556.603 424.349 556.603 421.239C556.603 417.039 553.197 413.629 549.002 413.629C544.807 413.629 541.402 417.039 541.402 421.239C541.402 424.339 543.205 426.949 545.797 428.149V434.149C530.102 434.959 515.396 441.159 504.202 452.069C492.901 462.979 486.397 477.299 485.702 492.609H464.998C460.002 492.609 455.901 496.709 455.901 501.709V502.509C455.901 507.519 460.002 511.619 464.998 511.619H467.496L433.501 522.639C431.804 523.039 430.802 524.729 431.203 526.429L427.409 531.429C431.71 525.929 428.611 537.139 429.412 537.639C429.907 537.929 432.311 537.639 432.912 537.639C433.206 537.639 434.514 536.139 434.809 536.139L435.009 542.049L431.804 556.259H412.008V578.679H686.01V556.259H666.11Z"
          fill="#C0DBFF"/>
    <path d="M508.703 510.619H472.705V559.459H508.703V510.619Z" fill="#77A4F2"/>
    <path d="M625.206 540.848L662.9 550.548V536.538L625.206 526.738V540.848Z" fill="#77A4F2"/>
    <path d="M556.603 437.258C556.603 437.258 593.002 445.358 593.002 497.708L609.098 495.408C609.098 495.398 605.705 445.268 556.603 437.258Z"
          fill="white"/>
    <path d="M543.299 437.258C543.299 437.258 506.9 445.358 506.9 497.708L490.804 495.398C490.804 495.398 494.198 445.268 543.299 437.258Z"
          fill="#77A4F2"/>
    <path d="M636.707 497.709H593.403V505.119H636.707V497.709Z" fill="white"/>
    <path d="M507.101 498.41H459.896V505.82H507.101V498.41Z" fill="#77A4F2"/>
    <path d="M612.398 498.809H485.501V495.599C485.501 479.189 492.1 463.679 504.096 452.059C516.091 440.449 531.999 434.039 548.896 434.039C565.794 434.039 581.702 440.439 593.697 452.059C605.693 463.659 612.291 479.189 612.291 495.599V498.809H612.398ZM492.1 492.299H605.799C604.998 478.779 599.2 466.279 589.302 456.559C578.497 446.149 564.203 440.349 549.003 440.349C533.802 440.349 519.497 446.059 508.703 456.559C498.699 466.279 492.901 478.889 492.1 492.299Z"
          fill="#503EAA"/>
    <path d="M583.599 495.599H577.094C577.094 480.789 573.889 466.269 568.292 455.869C562.989 446.059 555.99 440.449 548.896 440.449C541.897 440.449 534.792 446.059 529.501 455.869C523.904 466.279 520.699 480.789 520.699 495.599H514.194C514.194 479.489 517.6 464.279 523.798 452.859C530.302 440.749 539.199 434.049 548.896 434.049C558.594 434.049 567.396 440.759 573.995 452.859C580.205 464.279 583.599 479.489 583.599 495.599Z"
          fill="#503EAA"/>
    <path d="M552.208 424.039H545.703V495.599H552.208V424.039Z" fill="#503EAA"/>
    <path d="M628.505 562.659H469.499V505.709H628.505V562.659ZM475.898 556.259H622.001V512.219H475.898V556.259Z"
          fill="#503EAA"/>
    <path d="M625.3 510.619H472.705V530.539H625.3V510.619Z" fill="#77A4F2"/>
    <path d="M612.398 562.659H485.501V505.709H612.303V562.659H612.398ZM492.006 556.259H605.905V512.219H492.006V556.259Z"
          fill="#503EAA"/>
    <path d="M682.8 559.469H644.107V575.378H682.8V559.469Z" fill="white"/>
    <path d="M485.796 559.469H415.496V575.378H485.796V559.469Z" fill="#77A4F2"/>
    <path d="M564.498 556.959V527.029C564.498 525.829 564.993 524.63 565.794 523.83C566.69 522.93 567.797 522.529 568.999 522.529C570.201 522.529 571.403 523.02 572.204 523.83C573.1 524.72 573.5 525.829 573.5 527.029V556.959H564.498Z"
          fill="#503EAA"/>
    <path d="M569.105 523.329C570.107 523.329 571.108 523.729 571.803 524.429C572.499 525.119 572.899 526.029 572.899 527.029V556.169H565.299V527.029C565.299 526.029 565.7 525.139 566.395 524.429C567.196 523.629 568.104 523.329 569.105 523.329ZM569.105 521.629C567.703 521.629 566.301 522.229 565.311 523.239C564.309 524.239 563.708 525.539 563.708 527.029V556.169V557.769H565.311H572.911H574.514V556.169V527.029C574.514 525.629 573.913 524.229 572.911 523.239C571.898 522.229 570.602 521.629 569.105 521.629Z"
          fill="#503EAA"/>
    <path d="M584.706 556.959V527.029C584.706 525.829 585.201 524.63 586.002 523.83C586.898 522.93 588.006 522.529 589.208 522.529C590.409 522.529 591.611 523.02 592.413 523.83C593.308 524.63 593.709 525.829 593.709 527.029V556.959H584.706Z"
          fill="#503EAA"/>
    <path d="M589.302 523.329C590.303 523.329 591.305 523.729 592 524.429C592.695 525.119 593.096 526.029 593.096 527.029V556.169H585.496V527.029C585.496 526.029 585.896 525.139 586.592 524.429C587.299 523.629 588.3 523.329 589.302 523.329ZM589.302 521.629C587.9 521.629 586.497 522.229 585.508 523.239C584.506 524.239 583.905 525.639 583.905 527.029V556.169V557.769H585.508H593.108H594.71V556.169V527.029C594.71 525.629 594.11 524.229 593.108 523.239C592.106 522.229 590.704 521.629 589.302 521.629Z"
          fill="#503EAA"/>
    <path d="M524.304 556.959V527.029C524.304 525.829 524.799 524.63 525.6 523.83C526.496 522.93 527.604 522.529 528.806 522.529C530.007 522.529 531.209 523.02 532.011 523.83C532.906 524.72 533.307 525.829 533.307 527.029V556.959H524.304Z"
          fill="#503EAA"/>
    <path d="M528.9 523.329C529.901 523.329 530.903 523.729 531.598 524.429C532.293 525.119 532.694 526.029 532.694 527.029V556.169H525.094V527.029C525.094 526.029 525.494 525.139 526.19 524.429C526.897 523.629 527.804 523.329 528.9 523.329ZM528.9 521.629C527.498 521.629 526.095 522.229 525.105 523.239C524.104 524.239 523.503 525.539 523.503 527.029V556.169V557.769H525.105H532.706H534.308V556.169V527.029C534.308 525.629 533.707 524.229 532.706 523.239C531.598 522.229 530.302 521.629 528.9 521.629Z"
          fill="#503EAA"/>
    <path d="M544.395 556.959V527.029C544.395 525.829 544.89 524.63 545.691 523.83C546.587 522.93 547.694 522.529 548.896 522.529C550.098 522.529 551.3 523.02 552.101 523.83C552.997 524.63 553.398 525.829 553.398 527.029V556.959H544.395Z"
          fill="#503EAA"/>
    <path d="M549.002 523.329C550.004 523.329 551.005 523.729 551.701 524.429C552.396 525.119 552.797 526.029 552.797 527.029V556.169H545.196V527.029C545.196 526.029 545.597 525.139 546.292 524.429C546.999 523.629 548.001 523.329 549.002 523.329ZM549.002 521.629C547.6 521.629 546.198 522.229 545.208 523.239C544.206 524.239 543.605 525.639 543.605 527.029V556.169V557.769H545.208H552.808H554.411V556.169V527.029C554.411 525.629 553.81 524.229 552.808 523.239C551.795 522.229 550.405 521.629 549.002 521.629Z"
          fill="#503EAA"/>
    <path d="M504.096 556.959V527.029C504.096 525.829 504.591 524.63 505.392 523.83C506.287 522.93 507.395 522.529 508.597 522.529C509.799 522.529 511.001 523.02 511.802 523.83C512.698 524.72 513.098 525.829 513.098 527.029V556.959H504.096Z"
          fill="#503EAA"/>
    <path d="M508.703 523.329C509.705 523.329 510.706 523.729 511.401 524.429C512.097 525.119 512.497 526.029 512.497 527.029V556.169H504.897V527.029C504.897 526.029 505.298 525.139 505.993 524.429C506.7 523.629 507.701 523.329 508.703 523.329ZM508.703 521.629C507.301 521.629 505.898 522.229 504.909 523.239C503.907 524.239 503.306 525.539 503.306 527.029V556.169V557.769H504.909H512.509H514.112V556.169V527.029C514.112 525.629 513.511 524.229 512.509 523.239C511.496 522.229 510.105 521.629 508.703 521.629Z"
          fill="#503EAA"/>
    <path d="M633.007 499.009C634.503 499.009 635.705 500.209 635.705 501.709V502.509C635.705 504.009 634.503 505.209 633.007 505.209H464.998C463.502 505.209 462.3 504.009 462.3 502.509V501.709C462.3 500.209 463.502 499.009 464.998 499.009H633.007ZM633.007 492.609H464.998C460.002 492.609 455.901 496.709 455.901 501.709V502.509C455.901 507.509 460.002 511.62 464.998 511.62H632.995C637.991 511.62 642.092 507.509 642.092 502.509V501.709C642.104 496.709 638.003 492.609 633.007 492.609Z"
          fill="#503EAA"/>
    <path d="M686 578.678H411.996V556.258H686V578.678ZM418.406 572.168H679.5V562.668H418.406V572.168Z" fill="#503EAA"/>
    <path d="M472.705 526.629L434.809 536.049C431.51 536.849 428.104 534.749 427.409 531.339C426.714 528.129 428.705 525.029 431.804 524.229L472.705 513.52V526.629Z"
          fill="#77A4F2"/>
    <path d="M433.301 539.438C431.604 539.438 429.895 538.949 428.399 538.039C426.195 536.629 424.793 534.539 424.204 532.039C423.202 527.229 426.207 522.418 430.909 521.128L471.809 510.418C472.811 510.118 473.812 510.419 474.613 511.019C475.415 511.619 475.91 512.619 475.91 513.619V526.628C475.91 528.128 474.908 529.439 473.506 529.739L435.61 539.148C434.797 539.438 433.996 539.438 433.301 539.438ZM469.405 517.818L432.499 527.528C431.003 527.928 430.096 529.329 430.402 530.829C430.602 531.629 431.003 532.239 431.698 532.639C432.393 533.039 433.1 533.129 433.902 533.039L469.405 524.229V517.818Z"
          fill="#503EAA"/>
    <path d="M472.705 559.468H434.998V536.538L472.705 526.738V559.468Z" fill="#77A4F2"/>
    <path d="M475.898 562.66H431.792V534.04L475.898 522.529V562.66ZM438.202 556.259H469.405V530.939L438.202 539.04V556.259Z"
          fill="#503EAA"/>
    <path d="M625.206 526.629L663.1 536.049C666.4 536.849 669.81 534.749 670.5 531.339C671.2 528.129 669.21 525.029 666.11 524.229L625.206 513.52V526.629Z"
          fill="white"/>
    <path d="M664.6 539.439C663.8 539.439 663.1 539.349 662.3 539.149L624.405 529.739C623.003 529.329 622.001 528.129 622.001 526.629V513.619C622.001 512.619 622.496 511.729 623.297 511.019C624.098 510.309 625.1 510.219 626.102 510.419L667 521.129C671.8 522.419 674.7 527.129 673.71 532.039C673.21 534.539 671.7 536.639 669.51 538.039C668.1 539.039 666.4 539.439 664.6 539.439ZM628.505 524.129L664.01 532.939C664.81 533.139 665.51 533.039 666.21 532.539C666.91 532.139 667.31 531.449 667.51 530.739C667.8 529.239 666.91 527.839 665.41 527.439L628.505 517.729V524.129Z"
          fill="#503EAA"/>
    <path d="M666.11 562.66H622.001V522.529L666.11 534.04V562.66ZM628.505 556.259H659.71V539.04L628.505 530.939V556.259Z"
          fill="#503EAA"/>
    <path d="M549.002 428.849C553.2 428.849 556.603 425.439 556.603 421.239C556.603 417.039 553.2 413.629 549.002 413.629C544.805 413.629 541.402 417.039 541.402 421.239C541.402 425.439 544.805 428.849 549.002 428.849Z"
          fill="#503EAA"/>
    <path d="M454.699 550.959C457.628 550.959 460.002 548.59 460.002 545.66C460.002 542.73 457.628 540.35 454.699 540.35C451.771 540.35 449.397 542.73 449.397 545.66C449.397 548.59 451.771 550.959 454.699 550.959Z"
          fill="#503EAA"/>
    <path d="M644.107 550.959C647.035 550.959 649.409 548.59 649.409 545.66C649.409 542.73 647.035 540.35 644.107 540.35C641.178 540.35 638.804 542.73 638.804 545.66C638.804 548.59 641.178 550.959 644.107 550.959Z"
          fill="#503EAA"/>
    <path d="M49.1951 205.939L70.5001 221.149L98.8981 188.619C78.9011 187.419 58.5041 198.019 49.1951 205.939Z"
          fill="#77A4F2"/>
    <path d="M47.404 249.379C51.01 257.079 48.205 266.09 41.006 269.39C32.31 273.5 15.801 272.4 6.60999 268.39C9.41399 258.68 19.206 245.369 28.009 241.369C35.102 238.069 43.798 241.669 47.404 249.379Z"
          fill="#FF8486"/>
    <path d="M177.906 192.619L190.208 186.818L187.804 181.818L175.502 187.619L177.906 192.619Z" fill="#503EAA"/>
    <path d="M53.496 206.429C53.496 206.429 69.699 193.619 87.892 191.319C99.393 189.829 87.892 199.729 87.892 199.729C87.892 199.729 73.705 196.729 53.496 206.429Z"
          fill="white"/>
    <path d="M47.498 208.438C47.098 208.138 46.803 207.838 46.603 207.438C46.402 207.028 46.308 206.539 46.202 206.139C46.202 205.639 46.296 205.238 46.402 204.838C46.603 204.438 46.897 204.039 47.204 203.739C57.302 195.239 72.409 188.429 87.503 185.719H87.798L88.894 191.729H88.599C76.203 193.929 63.394 199.228 54.297 205.938L72.503 218.949L69.003 223.949L47.498 208.438Z"
          fill="#503EAA"/>
    <path d="M87.704 185.918L88.705 191.429C76.109 193.729 63.1 199.128 54.003 205.838L72.303 218.849L69.097 223.358L47.793 208.139C47.498 207.939 47.192 207.539 46.992 207.249C46.791 206.849 46.697 206.439 46.697 206.039C46.697 205.639 46.791 205.238 46.897 204.838C47.098 204.438 47.298 204.138 47.593 203.838C57.503 195.318 72.503 188.618 87.704 185.918ZM88.104 185.318L87.609 185.418C72.409 188.118 57.314 194.918 47.204 203.438C46.803 203.728 46.509 204.129 46.308 204.639C46.108 205.139 46.014 205.639 46.014 206.139C46.014 206.629 46.214 207.139 46.414 207.539C46.615 207.939 47.015 208.339 47.416 208.639L68.72 223.849L69.121 224.148L69.416 223.749L72.621 219.239L72.915 218.838L72.515 218.548L54.816 205.938C63.913 199.428 76.521 194.229 88.717 192.019L89.212 191.929L89.118 191.429L88.116 185.918L88.104 185.318Z"
          fill="#503EAA"/>
    <path d="M201.603 176.708C199.705 172.608 194.804 170.798 190.703 172.808C186.602 174.708 184.799 179.608 186.803 183.718C188.7 187.818 193.602 189.628 197.702 187.618C201.803 185.618 203.5 180.818 201.603 176.708Z"
          fill="#503EAA"/>
    <path d="M55.9 249.78C59.895 256.69 69.298 263.89 69.298 263.89L78.901 242.48L70.9 222.86L51.399 222.66C45.095 225.75 51.906 242.87 55.9 249.78Z"
          fill="#77A4F2"/>
    <path d="M72.998 231.459L51.894 239.469L50.291 230.859L71.395 227.959L72.998 231.459Z" fill="white"/>
    <path d="M69.805 266.29C66.706 266.29 58.61 264.48 50.704 247.77C46.909 239.67 45.307 232.86 46.108 227.45C46.909 221.74 49.902 219.84 51.104 219.24C53.508 218.14 61.002 217.939 64.101 217.939C66.399 217.939 68.697 218.04 70.7 218.14H70.995L70.594 224.25H70.3C68.296 224.16 66.199 224.049 64.101 224.049C58.599 224.049 54.498 224.45 53.697 224.75C52.801 225.15 49.301 230.549 56.301 245.169C63.206 259.779 69.204 260.18 69.899 260.18C70.193 260.18 70.394 260.089 70.5 260.089C71.596 259.479 76.804 254.079 81.506 247.569L81.706 247.37L86.608 250.979L86.408 251.18C82.613 256.38 75.908 264.299 73.104 265.589C72.102 266.089 70.995 266.29 69.805 266.29Z"
          fill="#503EAA"/>
    <path d="M64.196 218.248C66.494 218.248 68.791 218.348 70.7 218.448L70.406 224.048C68.202 223.958 66.105 223.848 64.101 223.848C58.705 223.848 54.498 224.248 53.602 224.548C52.401 225.148 49.007 230.658 56.006 245.368C62.11 258.278 67.707 260.578 69.805 260.578C70.099 260.578 70.3 260.578 70.5 260.488C71.596 259.788 76.898 254.378 81.6 247.878L86.101 251.178C82.307 256.378 75.602 264.298 72.904 265.588C72.102 265.988 71.007 266.288 69.805 266.288C65.009 266.288 57.809 262.378 50.904 247.968C42.302 229.858 47.004 221.648 51.199 219.748C53.202 218.548 58.799 218.248 64.196 218.248ZM64.196 217.738C61.097 217.738 53.496 217.838 51.093 219.038C46.792 221.048 41.795 229.458 50.598 247.968C58.493 264.788 66.8 266.578 69.899 266.578C71.101 266.578 72.303 266.378 73.198 265.888C76.097 264.478 82.896 256.378 86.596 251.368L86.891 250.968L86.49 250.668L81.989 247.368L81.588 247.078L81.294 247.478C76.498 254.078 71.289 259.388 70.394 259.988C70.394 259.988 70.3 259.988 69.993 259.988C69.392 259.988 63.489 259.588 56.595 245.078C52.895 237.268 52.294 232.368 52.401 229.568C52.495 226.268 53.697 225.068 54.003 224.968C54.698 224.678 58.799 224.278 64.302 224.278C66.399 224.278 68.497 224.368 70.5 224.478H70.995V223.978L71.289 218.468V217.978H70.794C68.697 217.738 66.505 217.738 64.196 217.738Z"
          fill="#503EAA"/>
    <path d="M70.606 221.15L83.909 249.38C109.515 258.08 173.204 240.16 175.408 188.82C134.295 157.99 80.103 195.83 70.606 221.15Z"
          fill="#C0DBFF"/>
    <path d="M139.398 241.169C110.799 254.679 85.194 254.779 85.194 254.779L76.191 235.769C130.796 229.659 170.294 196.119 173.393 189.119C170.895 205.939 167.996 227.649 139.398 241.169Z"
          fill="#77A4F2"/>
    <path d="M111.895 185.82C82.896 199.53 70.9 219.75 70.9 219.75L74.695 227.76C81.399 217.34 90.096 206.23 117.492 193.33C144.889 180.42 162.587 187.33 173.593 191.83C166.7 182.31 140.906 172.1 111.895 185.82Z"
          fill="white"/>
    <path d="M98.603 254.479C92.606 254.479 87.209 253.679 82.908 252.279L82.012 251.979L81.411 251.289C78.112 246.979 75.213 242.279 72.809 237.369C68.614 228.459 67.507 221.949 67.507 221.659L67.413 220.859L67.707 220.059C73.41 204.839 94.809 184.719 120.709 177.219C127.508 175.209 134.307 174.209 140.906 174.209C154.21 174.209 166.511 178.319 177.211 186.419L178.507 187.419L178.413 189.019C177.317 214.449 162.116 229.959 149.614 238.569C145.82 241.179 141.813 243.479 137.618 245.379C125.399 251.179 111.2 254.479 98.603 254.479ZM85.701 246.769C89.306 247.869 93.902 248.469 98.804 248.469C114.806 248.469 132.504 242.869 146.209 233.559C157.214 226.059 170.706 212.439 172.309 190.419C162.906 183.809 152.407 180.399 140.906 180.399C134.908 180.399 128.71 181.299 122.5 183.099C98.297 190.219 79.302 208.129 73.799 221.539C74.801 226.139 76.403 230.649 78.395 234.859C80.398 238.959 82.896 242.969 85.701 246.769Z"
          fill="#503EAA"/>
    <path d="M140.906 174.409C152.206 174.409 164.909 177.419 177.105 186.519L178.307 187.418L178.212 188.918C177.117 214.238 162.01 229.749 149.508 238.269C145.714 240.869 141.707 243.168 137.607 245.068C124.503 251.268 110.41 254.179 98.709 254.179C92.712 254.179 87.315 253.369 83.108 251.969L82.307 251.679L81.812 250.979C78.513 246.669 75.614 241.969 73.21 237.059C69.015 228.249 68.014 221.649 67.907 221.449L67.813 220.749L68.108 220.059C73.811 204.949 95.104 184.829 120.909 177.309C126.495 175.709 133.4 174.409 140.906 174.409ZM98.804 248.679C113.003 248.679 131.302 243.968 146.303 233.668C157.497 225.958 171.001 212.249 172.497 190.119C161.798 182.509 150.698 180.008 140.8 180.008C133.895 180.008 127.602 181.218 122.3 182.708C98.603 189.628 79.102 207.539 73.399 221.349C74.4 225.949 76.003 230.458 78.1 234.758C80.198 239.068 82.696 243.069 85.594 246.969C89.306 248.169 93.796 248.679 98.804 248.679ZM140.906 173.898V174.398V173.898C134.307 173.898 127.508 174.909 120.603 176.909C94.703 184.409 73.198 204.729 67.401 219.949L67.106 220.639V220.739V220.829L67.2 221.528C67.2 221.818 68.296 228.329 72.503 237.349C74.907 242.249 77.9 246.958 81.199 251.358L81.694 252.048L81.788 252.148H81.989L82.79 252.438C87.091 253.938 92.594 254.648 98.592 254.648C111.188 254.648 125.493 251.349 137.795 245.539C141.99 243.539 145.996 241.238 149.791 238.628C162.387 230.018 177.588 214.408 178.696 188.878L178.79 187.389V187.088L178.589 186.889L177.388 185.989C166.606 178.009 154.304 173.898 140.906 173.898ZM74 221.449C79.502 208.129 98.403 190.318 122.5 183.318C128.698 181.508 134.896 180.619 140.906 180.619C152.301 180.619 162.811 183.919 172.109 190.519C170.506 212.339 157.108 225.858 146.209 233.358C132.599 242.658 114.9 248.278 99.004 248.278C94.102 248.278 89.707 247.678 86.101 246.668C83.297 242.968 80.905 238.868 78.795 234.758C76.604 230.458 75.001 225.949 74 221.449Z"
          fill="#503EAA"/>
    <path d="M67.896 278.798C82.99 278.308 133.093 256.089 144.9 218.139C108.195 242.569 78.501 241.458 78.501 241.458L67.896 278.798Z"
          fill="#77A4F2"/>
    <path d="M126.895 232.659C126.895 232.659 117.091 255.279 73.493 274.999C91.993 273.799 132.292 255.789 140.694 226.259C142.002 221.649 126.895 232.659 126.895 232.659Z"
          fill="white"/>
    <path d="M67.896 281.809C67.495 281.809 67 281.719 66.599 281.519C66.199 281.309 65.798 281.019 65.504 280.619C65.209 280.219 65.009 279.819 64.903 279.319C64.797 278.829 64.808 278.319 64.997 277.919L75.602 240.589C75.802 239.989 76.203 239.389 76.698 238.989C77.193 238.579 77.9 238.379 78.501 238.379C79.703 238.379 108.101 237.979 144.5 217.769C144.995 217.569 145.502 217.369 145.996 217.369C146.091 217.369 146.197 217.369 146.291 217.369C146.892 217.459 147.493 217.659 147.988 218.059C148.483 218.459 148.789 218.959 148.989 219.559C149.19 220.159 149.19 220.759 148.989 221.359C142.285 242.979 123.985 257.799 109.786 266.299C105.791 268.709 101.691 270.899 97.484 272.909C86.396 278.109 74.801 281.609 67.896 281.809ZM72.102 275.209C89.507 272.099 126.601 254.989 140.199 226.949C110.799 241.769 87.598 244.069 80.905 244.379L72.102 275.209Z"
          fill="#503EAA"/>
    <path d="M145.996 217.649C146.091 217.649 146.197 217.649 146.197 217.649C146.798 217.649 147.293 217.939 147.693 218.249C148.094 218.649 148.388 219.049 148.589 219.649C148.789 220.149 148.789 220.749 148.589 221.259C141.884 242.779 123.69 257.489 109.586 266.099C105.591 268.509 101.585 270.699 97.39 272.699C85.394 278.409 74.294 281.519 67.99 281.719H67.896C67.495 281.719 67.094 281.619 66.694 281.419C66.293 281.219 65.999 280.929 65.692 280.619C65.398 280.319 65.197 279.919 65.197 279.419C65.103 279.009 65.103 278.519 65.292 278.119L75.897 240.789C76.097 240.189 76.392 239.689 76.898 239.289C77.393 238.889 77.994 238.689 78.595 238.689C78.89 238.689 107.9 238.489 144.794 217.969C145.101 217.739 145.501 217.649 145.996 217.649ZM140.706 226.349C111.011 241.459 87.609 243.769 80.61 244.169L71.713 275.609C88.705 272.689 127.096 255.489 140.706 226.349ZM145.996 217.049C145.395 217.049 144.901 217.139 144.394 217.449C107.995 237.659 79.691 238.069 78.489 238.069C77.794 238.069 77.087 238.269 76.486 238.759C75.885 239.159 75.484 239.759 75.284 240.459L64.679 277.789C64.584 278.279 64.478 278.789 64.585 279.289C64.691 279.779 64.879 280.289 65.185 280.689C65.48 281.089 65.881 281.389 66.387 281.689C66.788 281.889 67.283 281.989 67.79 281.989H67.884C74.883 281.789 86.184 278.279 97.484 272.979C101.679 270.969 105.779 268.779 109.786 266.369C123.985 257.759 142.285 242.949 149.084 221.229C149.284 220.629 149.284 219.939 149.084 219.339C148.883 218.729 148.483 218.129 147.988 217.729C147.493 217.329 146.892 217.039 146.185 217.039C146.197 217.049 146.102 217.049 145.996 217.049ZM80.999 244.669C87.904 244.269 110.693 241.859 139.504 227.559C125.8 254.879 89.801 271.699 72.409 274.899L80.999 244.669Z"
          fill="#503EAA"/>
    <path d="M129.7 170.398C121.499 167.388 112.402 167.799 104.495 171.499C96.6 175.199 90.496 181.908 87.492 190.108C84.487 198.318 84.887 207.418 88.587 215.338C96.282 231.848 155.883 203.929 148.188 187.519C144.606 179.509 137.901 173.408 129.7 170.398Z"
          fill="#77A4F2"/>
    <path d="M139.999 193.129C136.794 186.419 131.102 181.319 124.197 178.809C117.292 176.309 109.692 176.609 103.093 179.709C96.494 182.809 91.392 188.409 88.894 195.319C86.396 202.229 86.69 209.839 89.695 216.649C96.2 230.659 146.597 207.139 139.999 193.129Z"
          fill="#503EAA"/>
    <path d="M99.605 223.36C92.7 223.36 87.904 221.06 85.807 216.55C81.812 207.85 81.305 198.13 84.605 189.13C87.81 180.12 94.408 172.91 103.01 168.81L103.105 168.72C107.406 166.71 112.001 165.61 116.703 165.41C117.198 165.41 117.799 165.41 118.305 165.41C122.5 165.41 126.601 166.11 130.607 167.62C135.109 169.22 139.103 171.72 142.603 174.92C146.103 178.13 148.907 181.92 150.898 186.23C155.694 196.54 141.802 208.85 125.8 216.35L125.399 216.55C116.102 220.85 106.699 223.36 99.605 223.36ZM118.4 171.51C114.004 171.51 109.798 172.41 105.803 174.32L105.709 174.41C98.509 177.82 93.1119 183.82 90.4139 191.32C87.7149 198.83 88.116 206.94 91.415 214.15C92.417 216.25 95.21 217.45 99.617 217.45C105.815 217.45 114.323 215.15 122.913 211.14L123.313 210.94C138.314 203.83 148.011 194.12 145.513 188.81C142.108 181.61 136.11 176.1 128.616 173.4C125.305 172.1 121.899 171.51 118.4 171.51Z"
          fill="#503EAA"/>
    <path d="M118.4 165.7C122.595 165.7 126.695 166.39 130.596 167.8C134.991 169.4 139.091 171.9 142.497 175C145.996 178.21 148.801 182.01 150.698 186.22C155.494 196.43 141.601 208.53 125.694 216.05L125.293 216.25C116.491 220.35 107.088 223.05 99.487 223.05C93.183 223.05 88.187 221.15 85.983 216.45C81.989 207.84 81.5881 198.13 84.7811 189.23C87.9871 180.32 94.585 173.11 103.081 169.01L103.175 168.92C107.37 166.91 111.978 165.81 116.679 165.61C117.398 165.7 117.905 165.7 118.4 165.7ZM99.6051 217.54C105.603 217.54 114.11 215.34 123.007 211.23L123.408 211.03C138.502 203.92 148.306 194.12 145.702 188.61C142.296 181.41 136.204 175.8 128.698 173C125.399 171.79 121.899 171.19 118.4 171.19C114.004 171.19 109.703 172.09 105.697 174L105.603 174.09C98.403 177.5 92.806 183.6 90.108 191.11C87.409 198.61 87.8101 206.82 91.1091 214.13C92.2051 216.45 95.3041 217.54 99.6051 217.54ZM118.4 165.09C117.905 165.09 117.304 165.09 116.797 165.09C112.001 165.29 107.394 166.39 103.093 168.5L102.999 168.6C94.302 172.7 87.704 180 84.404 189.12C81.105 198.24 81.6 208.04 85.606 216.74C87.704 221.25 92.6061 223.65 99.6051 223.65C106.71 223.65 116.208 221.15 125.599 216.74L126 216.54C142.096 208.93 156.201 196.53 151.299 186.02C149.296 181.71 146.503 177.81 142.897 174.61C139.398 171.4 135.297 168.9 130.796 167.31C126.801 165.9 122.701 165.09 118.4 165.09ZM99.6051 217.05C95.4101 217.05 92.6061 215.95 91.6041 213.95C88.3051 206.83 87.904 198.73 90.602 191.32C93.301 183.92 98.6981 177.91 105.803 174.61L105.897 174.52C109.798 172.71 114.099 171.71 118.4 171.71C121.899 171.71 125.305 172.31 128.498 173.52C135.898 176.22 141.896 181.62 145.195 188.82C146.291 191.23 144.795 194.83 140.8 198.84C136.699 202.94 130.395 207.14 123.101 210.55L122.701 210.75C114.205 214.75 105.803 217.05 99.6051 217.05Z"
          fill="#503EAA"/>
    <path d="M69.899 264.589C66.493 265.089 59.8 252.679 62.204 255.489C64.608 258.289 71.101 252.979 74 246.879C74.106 246.879 73.304 264.189 69.899 264.589Z"
          fill="#503EAA"/>
    <path d="M522.501 120.358L479.503 178.119C473.8 185.719 485.101 203.839 504.803 218.449C524.398 233.169 545.008 238.768 550.699 231.168L593.803 173.409C599.506 165.799 588.206 147.688 568.504 133.068C548.802 118.458 528.098 112.748 522.501 120.358Z"
          fill="#C0DBFF"/>
    <path d="M595.031 174.32C600.711 166.7 589.163 148.46 569.238 133.59C549.313 118.72 528.556 112.85 522.876 120.47C517.196 128.09 528.744 146.33 548.669 161.2C568.594 176.07 589.351 181.95 595.031 174.32Z"
          fill="white"/>
    <path d="M349.402 74.7199L389.702 20.6599C392.106 17.4499 396.607 16.8599 399.8 19.1599L506.5 98.8298C509.705 101.24 510.294 105.75 507.996 108.94L467.697 163C465.293 166.2 460.791 166.79 457.598 164.49L350.899 84.8195C347.706 82.3195 346.999 77.8199 349.402 74.7199Z"
          fill="#C0DBFF"/>
    <path d="M396.772 33.0293L355.465 88.4795L463.782 169.319L505.089 113.87L396.772 33.0293Z" fill="#77A4F2"/>
    <path d="M566.407 236.97L606.305 182.92C608.709 179.71 613.104 179.12 616.31 181.42L722.91 260.39C726.12 262.8 726.71 267.2 724.41 270.41L684.51 324.46C682.11 327.67 677.71 328.26 674.51 325.96L567.903 246.98C564.698 244.67 564.003 240.16 566.407 236.97Z"
          fill="#C0DBFF"/>
    <path d="M616.509 197.059L575.522 252.489L683.72 332.639L724.7 277.199L616.509 197.059Z" fill="#77A4F2"/>
    <path d="M484.099 204.438L528.9 144.278L519.096 128.568L474.295 188.719L484.099 204.438Z" fill="white"/>
    <path d="M561.905 170.109L520.805 225.359L544.407 232.37C544.407 232.37 555.908 223.36 559.608 217.85C563.308 212.34 587.911 180.009 587.911 180.009L561.905 170.109Z"
          fill="#77A4F2"/>
    <path d="M511.496 111.649L471.196 165.709C467.296 170.909 460.002 172.019 454.794 168.109L348.094 88.4388C342.898 84.5388 341.79 77.2286 345.691 72.0286L385.99 17.969C389.89 12.769 397.184 11.6586 402.393 15.5686L509.092 95.2391C514.3 99.0291 515.396 106.349 511.496 111.649C511.602 111.649 511.496 111.649 511.496 111.649ZM352.996 77.4187C352.101 78.6187 352.395 80.2189 353.491 81.1189L460.191 160.789C461.392 161.689 462.995 161.489 463.891 160.289L504.19 106.239C505.085 105.039 504.791 103.429 503.695 102.539L396.996 22.7586C395.794 21.8586 394.191 22.0686 393.296 23.2586L352.996 77.4187Z"
          fill="#503EAA"/>
    <path d="M597.303 176.199L589.997 170.799C593.002 166.699 584.895 151.079 565.699 136.779C546.504 122.459 529.194 119.059 526.095 123.169L518.79 117.759C527.285 106.249 551.595 115.059 571.085 129.569C590.598 143.979 605.799 164.709 597.303 176.199Z"
          fill="#503EAA"/>
    <path d="M592.337 165.999C596.363 160.599 587.21 146.949 571.891 135.519C556.573 124.089 540.891 119.199 536.865 124.599C532.838 130.009 541.992 143.659 557.31 155.089C572.628 166.519 588.31 171.409 592.337 165.999Z"
          fill="#C0DBFF"/>
    <path d="M597.303 176.2C588.807 187.72 564.498 178.91 545.008 164.4C525.518 149.89 510.306 129.17 518.813 117.66L526.119 123.06C523.114 127.06 531.315 142.78 550.416 157.09C569.612 171.4 587.016 174.71 590.021 170.8L597.303 176.2Z"
          fill="#503EAA"/>
    <path d="M514.1 190.029C508.302 185.029 503.2 179.209 499.099 172.709L490.003 184.919C494.198 191.319 499.206 197.129 505.003 202.139L514.1 190.029Z"
          fill="#503EAA"/>
    <path d="M487.505 202.529L467.107 212.839C467.107 212.839 465.41 223.449 476.204 234.459C487.01 245.469 496.507 249.359 496.507 249.359L514.206 225.649L487.505 202.529Z"
          fill="#C0DBFF"/>
    <path d="M526.001 174.009C520.204 169.009 515.101 163.199 510.906 156.699L505.71 163.609C509.905 170.009 514.913 175.819 520.71 180.829L526.001 174.009Z"
          fill="#503EAA"/>
    <path d="M509.905 223.648L493.903 247.769C493.903 247.769 495.505 249.979 505.297 253.479C515.101 256.979 526.402 256.979 528.994 250.469C531.598 243.959 531.197 235.859 526.897 232.559C522.596 229.259 509.905 223.648 509.905 223.648Z"
          fill="#77A4F2"/>
    <path d="M488.895 206.739L467.897 222.849L467.001 204.329L483.404 200.229L488.895 206.739Z" fill="white"/>
    <path d="M597.303 176.2L554.305 233.96C545.809 245.47 521.5 236.66 502.01 222.15C482.508 207.64 467.308 186.93 475.815 175.41L518.919 117.66C527.415 106.15 551.724 114.96 571.214 129.46C590.598 143.98 605.799 164.71 597.303 176.2ZM483.003 180.91C479.998 184.91 488.2 200.63 507.301 214.94C526.496 229.25 543.806 232.649 546.799 228.549L589.903 170.79C592.907 166.69 584.8 151.069 565.605 136.759C546.41 122.449 529.1 119.05 526.107 123.15L483.003 180.91Z"
          fill="#503EAA"/>
    <path d="M576.305 152.489C572.605 157.489 563.107 156.788 555.106 150.878C547.105 144.968 543.712 136.068 547.506 130.958L552.302 124.559C556.603 128.759 561.104 132.769 565.9 136.469C572.805 141.579 575.197 142.779 580.9 146.479L576.305 152.489Z"
          fill="#503EAA"/>
    <path d="M528.605 202.729L523.303 209.939C521.406 212.539 522.607 216.449 526.107 218.639C529.607 220.829 533.908 220.539 535.911 217.939L541.308 210.739C543.205 208.129 542.003 204.229 538.503 202.029C535.004 199.829 530.502 200.139 528.605 202.729Z"
          fill="#503EAA"/>
    <path d="M552.45 194.539C553.787 191.799 551.897 188.129 548.227 186.329C544.557 184.529 540.498 185.279 539.161 188.019C537.823 190.749 539.714 194.419 543.383 196.219C547.053 198.019 551.112 197.269 552.45 194.539Z"
          fill="#503EAA"/>
    <path d="M532.706 253.278C524.505 264.298 502.905 261.488 483.51 247.078C464.114 232.558 455.312 212.648 463.407 201.628C465.811 198.428 478.502 194.128 483.404 193.418L484.606 202.438C479.704 203.438 474.908 205.138 470.407 207.438C466.612 213.548 473.105 228.048 488.812 239.758C504.614 251.568 520.31 253.568 525.011 248.268C526.013 243.268 526.213 238.248 525.813 233.248L534.815 231.848C535.605 236.768 535.098 250.068 532.706 253.278Z"
          fill="#503EAA"/>
    <path d="M371.823 44.959L367.759 50.4092L486.014 138.669L490.078 133.219L371.823 44.959Z" fill="#503EAA"/>
    <path d="M421.055 34.9102L372.21 100.47L377.661 104.54L426.505 38.98L421.055 34.9102Z" fill="#503EAA"/>
    <path d="M450.598 56.918L401.754 122.488L407.205 126.558L456.049 60.9883L450.598 56.918Z" fill="#503EAA"/>
    <path d="M480.175 79.0781L431.331 144.648L436.782 148.708L485.626 83.1479L480.175 79.0781Z" fill="#503EAA"/>
    <path d="M731.8 275.998L691.5 330.048C687.6 335.248 680.31 336.359 675.1 332.449L568.398 252.778C563.201 248.878 562.2 241.569 565.994 236.369L606.294 182.309C610.194 177.109 617.488 175.999 622.696 179.909L729.4 259.579C734.6 263.489 735.7 270.788 731.8 275.998C731.91 275.998 731.8 275.998 731.8 275.998ZM573.3 241.878C572.404 243.078 572.605 244.679 573.795 245.579L680.49 325.249C681.7 326.139 683.3 325.939 684.19 324.749L724.49 270.699C725.39 269.499 725.19 267.888 724 266.998L617.299 187.219C616.097 186.319 614.495 186.519 613.599 187.719L573.3 241.878Z"
          fill="#503EAA"/>
    <path d="M592.165 209.379L588.101 214.839L706.36 303.099L710.42 297.639L592.165 209.379Z" fill="#503EAA"/>
    <path d="M637.419 197.029L588.938 262.589L594.403 266.64L642.884 201.08L637.419 197.029Z" fill="#503EAA"/>
    <path d="M666.89 218.918L618.41 284.478L623.875 288.528L672.36 222.968L666.89 218.918Z" fill="#503EAA"/>
    <path d="M700.52 243.479L651.68 309.048L657.13 313.119L705.98 247.548L700.52 243.479Z" fill="#503EAA"/>
    <path d="M495.071 131.279L485.569 144.029L496.791 152.41L506.294 139.649L495.071 131.279Z" fill="#503EAA"/>
    <path d="M581.182 195.508L571.68 208.258L582.902 216.638L592.405 203.878L581.182 195.508Z" fill="#503EAA"/>
    <path d="M540.801 44.1887C521.5 70.0087 532.906 111.149 566.301 135.969C599.601 160.799 642.198 160.089 661.5 134.169C670.4 122.259 650.493 92.5389 617.193 67.5989C583.799 42.7889 549.603 32.2787 540.801 44.1887Z"
          fill="#C0DBFF"/>
    <path d="M567.302 132.268C549.297 116.858 547.506 93.1383 549.002 78.7183L534.297 56.0078C534.297 56.0978 522.796 104.338 567.302 132.268Z"
          fill="white"/>
    <path d="M569.4 133.879C589.302 146.679 612.504 141.679 625.901 136.169L651.801 143.779C651.695 143.779 608.898 168.499 569.4 133.879Z"
          fill="#77A4F2"/>
    <path d="M665 136.978C652.803 153.288 613.293 137.578 582.303 114.358C551.3 91.2379 524.905 57.7983 537.007 41.4883L544.313 46.8882C538.81 54.3882 552.608 80.8181 587.711 107.038C622.814 133.258 652.108 138.968 657.72 131.468L665 136.978Z"
          fill="#503EAA"/>
    <path d="M654.44 137.549C661.67 127.839 645.494 103.519 618.306 83.2295C591.119 62.9395 563.216 54.3593 555.984 64.0693C548.752 73.7793 564.928 98.0996 592.116 118.39C619.303 138.68 647.206 147.259 654.44 137.549Z"
          fill="#503EAA"/>
    <path d="M665 136.979C644.295 164.799 598.693 165.999 563.496 139.679C528.193 113.349 516.398 69.3094 537.101 41.4894C549.297 25.1794 588.807 40.889 619.797 64.109C650.8 87.119 677.21 120.559 665 136.979ZM544.395 46.8893C526.696 70.7193 537.69 109.049 568.893 132.369C600.095 155.679 639.994 155.279 657.69 131.469C663.29 123.969 649.397 97.539 614.295 71.319C579.203 45.089 549.898 39.3793 544.395 46.8893Z"
          fill="#503EAA"/>
    <path d="M649.349 18.959L548.136 35.1992L549.576 44.189L650.789 27.9492L649.349 18.959Z" fill="#503EAA"/>
    <path d="M654.4 22.5996L645.383 23.7793L658.69 125.49L667.71 124.31L654.4 22.5996Z" fill="#503EAA"/>
    <path d="M648.589 18.1484L584.382 104.338L591.675 109.778L655.88 23.5884L648.589 18.1484Z" fill="#503EAA"/>
    <path d="M655.4 32.0791C664.12 32.0791 671.2 24.9988 671.2 16.2588C671.2 7.52879 664.12 0.449219 655.4 0.449219C646.668 0.449219 639.594 7.52879 639.594 16.2588C639.594 24.9988 646.668 32.0791 655.4 32.0791Z"
          fill="#77A4F2"/>
    <path d="M1022.2 311.63C1030.54 311.63 1037.3 304.86 1037.3 296.52C1037.3 288.17 1030.54 281.41 1022.2 281.41C1013.87 281.41 1007.11 288.17 1007.11 296.52C1007.11 304.86 1013.87 311.63 1022.2 311.63Z"
          fill="#503EAA"/>
    <path d="M933.1 298.719C951.3 316.949 992.99 310.639 1022.59 281.099C1052.19 251.479 1058.5 209.739 1040.29 191.529C1031.89 183.119 1001.19 200.339 971.59 229.959C941.99 259.589 924.71 290.309 933.1 298.719Z"
          fill="#C0DBFF"/>
    <path d="M1002.13 260.849C1031.87 231.759 1049.1 201.129 1040.61 192.429C1032.12 183.729 1001.12 200.259 971.38 229.349C941.64 258.439 924.41 289.079 932.9 297.769C941.39 306.469 972.39 289.939 1002.13 260.849Z"
          fill="#77A4F2"/>
    <path d="M1021.6 277.908C1037.5 259.878 1037.1 236.968 1034.3 223.648L1046.41 199.328C1046.41 199.228 1061.9 242.868 1021.6 277.908Z"
          fill="white"/>
    <path d="M1019.7 279.699C1001.7 295.609 978.8 295.209 965.5 292.409L941.2 304.529C941.2 304.629 984.8 320.049 1019.7 279.699Z"
          fill="#77A4F2"/>
    <path d="M1004.96 263.089C1024.09 243.939 1034.07 222.869 1027.24 216.029C1020.41 209.189 999.36 219.169 980.22 238.309C961.08 257.459 951.1 278.519 957.93 285.369C964.76 292.209 985.82 282.229 1004.96 263.089Z"
          fill="#503EAA"/>
    <path d="M961.6 312.53C948.8 312.53 937.9 308.63 930.5 301.22C928.41 299.12 927.4 296.22 927.3 292.61C927.3 278.6 944 252.37 968.89 227.45C983.4 212.93 998.69 200.83 1012 193.42C1026.7 185.22 1037.3 183.72 1042.6 189.03C1052.3 198.73 1055.9 214.65 1052.6 232.66C1049.3 250.98 1039.41 269 1024.9 283.61C1010.3 298.13 992.3 308.04 974 311.34C969.8 312.13 965.61 312.53 961.6 312.53ZM1034 192.93C1030.39 192.93 1024.3 194.63 1015.5 199.53C1002.8 206.65 988.1 218.35 974 232.37C962.3 244.08 952.2 256.29 945 267.6C938.29 278.01 934.5 287.12 934.5 292.52C934.5 294.22 934.9 295.42 935.59 296.13C943.6 304.14 957.19 307.14 972.89 304.23C989.79 301.13 1006.48 292.02 1019.99 278.51C1033.49 264.99 1042.68 248.18 1045.79 231.37C1048.69 215.66 1045.7 202.03 1037.7 194.04C1037 193.33 1035.8 192.93 1034 192.93Z"
          fill="#503EAA"/>
    <path d="M994.41 268.198L953.2 218.348L959.8 211.738L1009.81 252.778L994.41 268.198Z" fill="#C0DBFF"/>
    <path d="M994.41 268.199L953.2 218.349L956.5 215.039L1002.01 260.589L994.41 268.199Z" fill="#77A4F2"/>
    <path d="M939.8 304.628C935.9 304.628 932.8 303.539 930.5 301.219C929.1 299.819 929.1 297.609 930.5 296.219C931.91 294.829 934.11 294.819 935.5 296.219C936.3 297.119 937.8 297.518 939.69 297.518C945.49 297.518 954.4 293.818 964.99 287.208C976.19 280.098 988.29 270.188 999.9 258.588C1014 244.468 1025.6 229.659 1032.5 216.848C1037 208.538 1041 197.628 1037.6 194.128C1036.2 192.728 1036.2 190.518 1037.6 189.128C1039.01 187.738 1041.21 187.728 1042.6 189.128C1048.1 194.638 1046.79 205.438 1038.7 220.358C1031.39 233.768 1019.4 249.188 1004.9 263.798C980.5 288.108 954.31 304.628 939.8 304.628Z"
          fill="#503EAA"/>
    <path d="M994.41 271.698C994.31 271.698 994.31 271.698 994.21 271.698C993.2 271.698 992.31 271.208 991.6 270.408L950.41 220.658C949.2 219.248 949.31 217.148 950.61 215.858L957.21 209.248C958.5 207.948 960.61 207.848 962 209.048L1012 249.988C1012.8 250.588 1013.29 251.588 1013.29 252.598C1013.39 253.598 1013 254.598 1012.29 255.298L996.89 270.708C996.3 271.398 995.41 271.698 994.41 271.698ZM958.01 218.548L994.61 262.788L1004.41 252.968L959.92 216.538L958.01 218.548Z"
          fill="#503EAA"/>
    <path d="M950.21 221.449C957.16 221.449 962.8 215.798 962.8 208.838C962.8 201.878 957.16 196.229 950.21 196.229C943.25 196.229 937.61 201.878 937.61 208.838C937.61 215.798 943.25 221.449 950.21 221.449Z"
          fill="#503EAA"/>
    <path d="M1056.2 368.778H988.2L1004.6 313.829C1006.9 306.019 1014.1 300.719 1022.1 300.719C1030.19 300.719 1037.3 306.019 1039.59 313.829L1056.2 368.778Z"
          fill="#C0DBFF"/>
    <path d="M1033.8 307.73C1033.8 307.73 1022.3 305.33 1019.09 314.54C1015.89 323.75 1006.79 358.18 1006.79 358.18H990.79L1004.59 313.74C1004.59 313.74 1007.79 302.72 1015.29 301.53C1022.8 300.33 1029.4 299.32 1033.8 307.73Z"
          fill="#77A4F2"/>
    <path d="M1061.01 372.279H983.4L1001.2 312.729C1004.01 303.429 1012.4 297.119 1022.2 297.119C1032.01 297.119 1040.41 303.429 1043.2 312.729L1061.01 372.279ZM993 365.179H1051.4L1036.31 314.829C1034.41 308.519 1028.71 304.329 1022.2 304.329C1015.6 304.329 1010.01 308.519 1008.1 314.829L993 365.179Z"
          fill="#503EAA"/>
    <path d="M1072.89 359.879H970.7V372.589H1072.89V359.879Z" fill="#C0DBFF"/>
    <path d="M1000.1 358.18H969.4V374.089H1000.1V358.18Z" fill="#77A4F2"/>
    <path d="M1075 358.18H1056.8V374.089H1075V358.18Z" fill="white"/>
    <path d="M1072.91 359.879V372.589H970.71V359.879H1072.91ZM1072.91 352.779H970.71C966.81 352.779 963.6 355.98 963.6 359.89V372.6C963.6 376.51 966.81 379.709 970.71 379.709H1072.91C1076.81 379.709 1080.01 376.51 1080.01 372.6V359.89C1080 355.88 1076.81 352.779 1072.91 352.779Z"
          fill="#503EAA"/>
    <path d="M1027.91 346.369C1030.61 346.369 1032.81 344.179 1032.81 341.469C1032.81 338.759 1030.61 336.559 1027.91 336.559C1025.2 336.559 1023 338.759 1023 341.469C1023 344.179 1025.2 346.369 1027.91 346.369Z"
          fill="#8D86EB"/>
    <path d="M1027.91 331.449C1030.61 331.449 1032.81 329.258 1032.81 326.548C1032.81 323.838 1030.61 321.639 1027.91 321.639C1025.2 321.639 1023 323.838 1023 326.548C1023 329.258 1025.2 331.449 1027.91 331.449Z"
          fill="#FF8486"/>
</svg>
