<svg width="1129" height="929" viewBox="0 0 1129 929" fill="none" xmlns="http://www.w3.org/2000/svg">
<g clip-path="url(#clip0_17_213)">
<path d="M649.198 595.44C649.198 606.26 640.502 614.96 629.696 614.96H461.193C450.387 614.96 441.691 606.26 441.691 595.44C441.691 584.63 450.387 575.92 461.193 575.92H629.696C640.502 575.92 649.198 584.64 649.198 595.44Z" fill="#6B5EC6"/>
<path d="M623.298 614.96H467.697V886.31H623.298V614.96Z" fill="#6B5EC6"/>
<path d="M514.395 614.96H467.697V886.31H514.395V614.96Z" fill="#5E4FB9"/>
<path d="M623.298 614.96H576.6V886.31H623.298V614.96Z" fill="#8077DE"/>
<path d="M629.696 575.92H594.793V615.05H629.696C640.502 615.05 649.198 606.35 649.198 595.54C649.198 584.64 640.502 575.92 629.696 575.92Z" fill="#8077DE"/>
<path d="M496.107 575.92H461.205C450.399 575.92 441.703 584.63 441.703 595.44C441.703 606.26 450.399 614.96 461.205 614.96H496.107V575.92Z" fill="#5E4FB9"/>
<path d="M623.298 614.96H467.697V886.31H623.298V614.96Z" stroke="#503EAA" stroke-width="5.9405" stroke-miterlimit="8.4865" stroke-linejoin="round"/>
<path d="M568.799 886.4H553.198V639.59C553.198 635.28 556.698 631.78 560.999 631.78C565.3 631.78 568.799 635.28 568.799 639.59V886.4Z" fill="#503EAA"/>
<path d="M599.908 886.4H584.306V639.59C584.306 635.28 587.806 631.78 592.107 631.78C596.408 631.78 599.908 635.28 599.908 639.59V886.4Z" fill="#503EAA"/>
<path d="M537.703 886.4H522.102V639.59C522.102 635.28 525.601 631.78 529.902 631.78C534.203 631.78 537.703 635.28 537.703 639.59V886.4Z" fill="#503EAA"/>
<path d="M506.606 886.4H491.005V639.59C491.005 635.28 494.505 631.78 498.806 631.78C503.106 631.78 506.606 635.28 506.606 639.59V886.4Z" fill="#503EAA"/>
<path d="M649.198 595.44C649.198 606.26 640.502 614.96 629.696 614.96H461.193C450.387 614.96 441.691 606.26 441.691 595.44C441.691 584.63 450.387 575.92 461.193 575.92H629.696C640.502 575.92 649.198 584.64 649.198 595.44Z" stroke="#503EAA" stroke-width="5.9405" stroke-miterlimit="8.4865" stroke-linejoin="round"/>
<path d="M485.927 597.31H488.875V599.27C488.152 599.78 487.262 600.07 486.409 600.07C484.221 600.07 482.404 598.2 482.404 595.96C482.404 593.73 484.221 591.86 486.409 591.86C487.577 591.86 488.82 592.41 489.562 593.28L491.546 591.5C490.285 590.17 488.319 589.37 486.409 589.37C482.682 589.37 479.585 592.36 479.585 595.96C479.585 599.57 482.682 602.56 486.409 602.56C488.319 602.56 490.285 601.76 491.546 600.42V595.18H485.927V597.31ZM499.845 602.56C503.517 602.56 506.613 599.53 506.613 595.96C506.613 592.38 503.517 589.37 499.845 589.37C496.173 589.37 493.076 592.38 493.076 595.96C493.076 599.53 496.173 602.56 499.845 602.56ZM499.845 600.07C497.712 600.07 495.895 598.18 495.895 595.96C495.895 593.75 497.712 591.86 499.845 591.86C501.996 591.86 503.795 593.75 503.795 595.96C503.795 598.18 501.996 600.07 499.845 600.07ZM517.165 589.59L513.53 598.57L509.877 589.59H506.799L511.991 602.33H515.051L520.243 589.59H517.165ZM531.858 592.06V589.59H522.048V602.33H531.858V599.87H524.793V597.07H531.19V594.6H524.793V592.06H531.858ZM544.714 593.9C544.714 591.37 542.675 589.59 539.912 589.59H534.182V602.33H536.907V598.2H538.558L541.469 602.33H544.585L541.525 597.98C543.435 597.42 544.714 595.9 544.714 593.9ZM536.907 592.1H539.633C540.969 592.1 541.896 592.8 541.896 593.9C541.896 594.99 540.969 595.7 539.633 595.7H536.907V592.1ZM546.822 602.33H549.548V594.1L555.704 602.33H558.43V589.59H555.704V597.83L549.548 589.59H546.822V602.33ZM570.569 602.33H573.628L568.455 589.59H565.376L560.203 602.33H563.262L564.153 600.15H569.679L570.569 602.33ZM565.024 598.01L566.916 593.38L568.807 598.01H565.024ZM575.416 602.33H578.142V594.1L584.299 602.33H587.025V589.59H584.299V597.83L578.142 589.59H575.416V602.33ZM595.77 602.56C597.698 602.56 599.46 601.72 600.702 600.42L598.737 598.64C597.995 599.5 596.938 600.07 595.77 600.07C593.637 600.07 591.82 598.18 591.82 595.96C591.82 593.75 593.637 591.86 595.77 591.86C596.938 591.86 597.995 592.43 598.718 593.28L600.702 591.5C599.46 590.19 597.698 589.37 595.77 589.37C592.098 589.37 589.001 592.38 589.001 595.96C589.001 599.53 592.098 602.56 595.77 602.56ZM612.336 592.06V589.59H602.526V602.33H612.336V599.87H605.27V597.07H611.668V594.6H605.27V592.06H612.336Z" fill="#86D4C9"/>
<path d="M649.304 886.4H441.703V925.54H649.304V886.4Z" fill="#6B5EC6"/>
<path d="M649.21 886.4H594.805V925.54H649.21V886.4Z" fill="#8077DE"/>
<path d="M496.107 886.4H441.703V925.54H496.107V886.4Z" fill="#5A4AB5"/>
<path d="M649.198 886.4V925.44H441.703V886.4H649.198Z" stroke="#503EAA" stroke-width="5.9405" stroke-miterlimit="8.4865" stroke-linejoin="round"/>
<path d="M1122.1 395.86C1122.1 406.67 1113.41 415.38 1102.6 415.38H934.101C923.291 415.38 914.601 406.67 914.601 395.86C914.601 385.04 923.291 376.34 934.101 376.34H1102.6C1113.3 376.34 1122.1 385.06 1122.1 395.86Z" fill="#6B5EC6"/>
<path d="M1096.1 415.48H940.501V886.42H1096.1V415.48Z" fill="#6B5EC6"/>
<path d="M987.191 415.48H940.501V886.42H987.191V415.48Z" fill="#5E4FB9"/>
<path d="M1096.1 415.48H1049.4V886.42H1096.1V415.48Z" fill="#8077DE"/>
<path d="M1102.6 376.34H1067.7V415.47H1102.6C1113.41 415.47 1122.1 406.77 1122.1 395.95C1122.1 385.06 1113.3 376.34 1102.6 376.34Z" fill="#8077DE"/>
<path d="M969.001 376.34H934.101C923.291 376.34 914.601 385.04 914.601 395.86C914.601 406.67 923.291 415.38 934.101 415.38H969.001V376.34Z" fill="#5E4FB9"/>
<path d="M1096.1 415.48H940.501V886.42H1096.1V415.48Z" stroke="#503EAA" stroke-width="5.9405" stroke-miterlimit="8.4865" stroke-linejoin="round"/>
<path d="M1041.6 886.41H1026V439.99C1026 435.69 1029.5 432.19 1033.8 432.19C1038.1 432.19 1041.6 435.69 1041.6 439.99V886.41Z" fill="#503EAA"/>
<path d="M1072.8 886.41H1057.2V439.99C1057.2 435.69 1060.7 432.19 1065 432.19C1069.3 432.19 1072.8 435.69 1072.8 439.99V886.41Z" fill="#503EAA"/>
<path d="M1010.5 886.41H994.901V439.99C994.901 435.69 998.401 432.19 1002.7 432.19C1007 432.19 1010.5 435.69 1010.5 439.99V886.41Z" fill="#503EAA"/>
<path d="M979.401 886.41H963.801V439.99C963.801 435.69 967.301 432.19 971.601 432.19C975.911 432.19 979.401 435.69 979.401 439.99V886.41Z" fill="#503EAA"/>
<path d="M1122.1 395.86C1122.1 406.67 1113.41 415.38 1102.6 415.38H934.101C923.291 415.38 914.601 406.67 914.601 395.86C914.601 385.04 923.291 376.34 934.101 376.34H1102.6C1113.3 376.34 1122.1 385.06 1122.1 395.86Z" stroke="#503EAA" stroke-width="5.9405" stroke-miterlimit="8.4865" stroke-linejoin="round"/>
<path d="M1122.1 886.41H914.501V925.54H1122.1V886.41Z" fill="#6B5EC6"/>
<path d="M1122.01 886.41H1067.6V925.54H1122.01V886.41Z" fill="#8077DE"/>
<path d="M968.911 886.41H914.501V925.54H968.911V886.41Z" fill="#5A4AB5"/>
<path d="M1122.1 886.41V925.55H914.501V886.41H1122.1Z" stroke="#503EAA" stroke-width="5.9405" stroke-miterlimit="8.4865" stroke-linejoin="round"/>
<path d="M988.041 402.01C991.721 402.01 994.811 398.98 994.811 395.4C994.811 391.83 991.721 388.82 988.041 388.82C984.371 388.82 981.271 391.83 981.271 395.4C981.271 398.98 984.371 402.01 988.041 402.01ZM988.041 399.52C985.911 399.52 984.091 397.63 984.091 395.4C984.091 393.2 985.911 391.31 988.041 391.31C990.191 391.31 991.991 393.2 991.991 395.4C991.991 397.63 990.191 399.52 988.041 399.52ZM1007.32 393.35C1007.32 390.82 1005.28 389.04 1002.52 389.04H996.791V401.78H999.521V397.65H1001.17L1004.08 401.78H1007.19L1004.14 397.43C1006.05 396.87 1007.32 395.35 1007.32 393.35ZM999.521 391.55H1002.24C1003.58 391.55 1004.51 392.25 1004.51 393.35C1004.51 394.44 1003.58 395.14 1002.24 395.14H999.521V391.55ZM1018.73 401.78H1021.79L1016.61 389.04H1013.54L1008.36 401.78H1011.42L1012.31 399.6H1017.84L1018.73 401.78ZM1013.18 397.46L1015.07 392.83L1016.97 397.46H1013.18ZM1028.73 402.01C1030.66 402.01 1032.43 401.17 1033.67 399.87L1031.7 398.09C1030.96 398.95 1029.9 399.52 1028.73 399.52C1026.6 399.52 1024.79 397.63 1024.79 395.4C1024.79 393.2 1026.6 391.31 1028.73 391.31C1029.9 391.31 1030.96 391.88 1031.68 392.73L1033.67 390.95C1032.43 389.64 1030.66 388.82 1028.73 388.82C1025.06 388.82 1021.97 391.83 1021.97 395.4C1021.97 398.98 1025.06 402.01 1028.73 402.01ZM1038.22 399.32V389.04H1035.49V401.78H1044.56V399.32H1038.22ZM1056.28 391.51V389.04H1046.47V401.78H1056.28V399.32H1049.21V396.52H1055.61V394.05H1049.21V391.51H1056.28Z" fill="#86D4C9"/>
<path d="M207.601 353.92C207.601 364.73 198.905 373.44 188.099 373.44H19.596C8.79001 373.44 0.0939941 364.73 0.0939941 353.92C0.0939941 343.1 8.79001 334.4 19.596 334.4H188.099C198.905 334.41 207.601 343.12 207.601 353.92Z" fill="#6B5EC6"/>
<path d="M181.607 373.44H26.006V886.85H181.607V373.44Z" fill="#6B5EC6"/>
<path d="M72.704 373.44H26.006V886.85H72.704V373.44Z" fill="#5E4FB9"/>
<path d="M181.595 373.44H134.897V886.85H181.595V373.44Z" fill="#8077DE"/>
<path d="M188.099 334.3H153.197V373.44H188.099C198.905 373.44 207.601 364.73 207.601 353.92C207.601 343.12 198.799 334.3 188.099 334.3Z" fill="#8077DE"/>
<path d="M54.498 334.3H19.596C8.79001 334.3 0.0939941 343.01 0.0939941 353.82C0.0939941 364.64 8.79001 373.34 19.596 373.34H54.498V334.3Z" fill="#5E4FB9"/>
<path d="M181.607 373.44H26.006V886.85H181.607V373.44Z" stroke="#503EAA" stroke-width="5.9405" stroke-miterlimit="8.4865" stroke-linejoin="round"/>
<path d="M127.202 886.96H111.601V397.96C111.601 393.65 115.101 390.15 119.402 390.15C123.703 390.15 127.202 393.65 127.202 397.96V886.96Z" fill="#503EAA"/>
<path d="M158.299 886.96H142.698V397.96C142.698 393.65 146.197 390.15 150.498 390.15C154.799 390.15 158.299 393.65 158.299 397.96V886.96Z" fill="#503EAA"/>
<path d="M96 886.96H80.505V397.96C80.505 393.65 84.004 390.15 88.305 390.15C92.606 390.15 96.106 393.65 96.106 397.96V886.96H96Z" fill="#503EAA"/>
<path d="M64.903 886.96H49.302V397.96C49.302 393.65 52.802 390.15 57.103 390.15C61.404 390.15 64.903 393.65 64.903 397.96V886.96Z" fill="#503EAA"/>
<path d="M207.601 353.92C207.601 364.73 198.905 373.44 188.099 373.44H19.596C8.79001 373.44 0.0939941 364.73 0.0939941 353.92C0.0939941 343.1 8.79001 334.4 19.596 334.4H188.099C198.799 334.41 207.601 343.12 207.601 353.92Z" stroke="#503EAA" stroke-width="5.9405" stroke-miterlimit="8.4865" stroke-linejoin="round"/>
<path d="M207.601 886.96H0V926.09H207.601V886.96Z" fill="#6B5EC6"/>
<path d="M207.507 886.96H153.103V926.09H207.507V886.96Z" fill="#8077DE"/>
<path d="M54.404 886.96H0V926.09H54.404V886.96Z" fill="#5A4AB5"/>
<path d="M207.601 886.96V926H0V886.96H207.601Z" stroke="#503EAA" stroke-width="5.9405" stroke-miterlimit="8.4865" stroke-linejoin="round"/>
<path d="M84.8439 361.01C88.2189 361.01 90.6119 358.64 90.6119 355.28V348.05H87.8669V355.17C87.8669 357.13 86.6249 358.52 84.8439 358.52C83.0639 358.52 81.8219 357.13 81.8219 355.17V348.05H79.0769V355.28C79.0769 358.64 81.4689 361.01 84.8439 361.01ZM97.7239 361.01C100.839 361.01 102.675 359.4 102.675 356.97C102.675 354.61 100.857 353.8 98.1129 353.18C96.1469 352.74 95.3869 352.44 95.3869 351.51C95.3869 350.75 96.0919 350.14 97.2599 350.14C98.4839 350.14 99.7629 350.64 100.895 351.55L102.322 349.59C101.024 348.47 99.4109 347.82 97.3339 347.82C94.5529 347.82 92.6239 349.44 92.6239 351.79C92.6239 354.26 94.5339 355.02 97.2229 355.63C99.1699 356.08 99.9119 356.35 99.9119 357.26C99.9119 358.06 99.2069 358.69 97.8349 358.69C96.2209 358.69 94.8489 358.06 93.6439 357.02L92.0679 358.9C93.5509 360.27 95.5169 361.01 97.7239 361.01ZM114.446 350.51V348.05H104.636V360.79H114.446V358.32H107.381V355.52H113.778V353.05H107.381V350.51H114.446ZM127.302 352.35C127.302 349.83 125.262 348.05 122.499 348.05H116.769V360.79H119.495V356.65H121.146L124.057 360.79H127.172L124.113 356.43C126.023 355.87 127.302 354.35 127.302 352.35ZM119.495 350.55H122.221C123.556 350.55 124.484 351.26 124.484 352.35C124.484 353.44 123.556 354.15 122.221 354.15H119.495V350.55Z" fill="#86D4C9"/>
<path d="M329.524 247.57H331.323V242.33L333.931 247.08L336.527 242.33V247.57H338.339V239.16H336.527L333.931 243.91L331.323 239.16H329.524V247.57ZM346.374 239.16L343.974 245.09L341.562 239.16H339.53L342.958 247.57H344.978L348.406 239.16H346.374ZM349.598 247.57H351.397V245.22L352.45 244.1L355.033 247.57H357.225L353.711 242.81L356.992 239.16H354.801L351.397 243.02V239.16H349.598V247.57ZM369.128 247.11L367.805 245.71C368.222 245.16 368.601 244.5 368.968 243.77L367.671 243.15C367.45 243.71 367.169 244.23 366.85 244.7C366.336 244.15 365.92 243.68 365.553 243.25C366.887 242.64 367.475 242.13 367.475 241.18C367.475 239.97 366.471 239.05 365.1 239.05C363.765 239.05 362.712 240.02 362.712 241.2C362.712 241.82 362.871 242.26 363.312 242.91C362.027 243.48 361.488 244.18 361.488 245.28C361.488 246.81 362.7 247.72 364.316 247.72C365.271 247.72 366.067 247.4 366.765 246.84L367.658 247.77L369.128 247.11ZM365.124 240.34C365.602 240.34 365.932 240.71 365.932 241.2C365.932 241.75 365.602 242 364.781 242.33C364.439 241.91 364.243 241.59 364.243 241.2C364.243 240.69 364.634 240.34 365.124 240.34ZM364.536 246.36C363.839 246.36 363.263 245.91 363.263 245.16C363.263 244.67 363.52 244.28 364.096 243.94C364.524 244.44 365.075 245.06 365.822 245.85C365.406 246.17 364.977 246.36 364.536 246.36ZM377.528 247.72C379.756 247.72 381.335 246.15 381.335 243.94V239.16H379.523V243.86C379.523 245.16 378.703 246.08 377.528 246.08C376.353 246.08 375.532 245.16 375.532 243.86V239.16H373.72V243.94C373.72 246.15 375.3 247.72 377.528 247.72ZM386.031 247.72C388.087 247.72 389.299 246.66 389.299 245.05C389.299 243.5 388.1 242.96 386.288 242.55C384.99 242.26 384.488 242.06 384.488 241.45C384.488 240.95 384.953 240.55 385.725 240.55C386.533 240.55 387.377 240.88 388.124 241.48L389.067 240.18C388.21 239.44 387.145 239.02 385.774 239.02C383.937 239.02 382.664 240.08 382.664 241.64C382.664 243.26 383.925 243.77 385.7 244.17C386.986 244.46 387.475 244.65 387.475 245.25C387.475 245.77 387.01 246.19 386.104 246.19C385.039 246.19 384.133 245.77 383.337 245.09L382.297 246.33C383.276 247.23 384.574 247.72 386.031 247.72ZM390.594 247.57H393.606C396.434 247.57 398.442 245.82 398.442 243.36C398.442 240.9 396.434 239.16 393.606 239.16H390.594V247.57ZM392.394 245.93V240.8H393.839C395.455 240.8 396.581 241.87 396.581 243.36C396.581 244.87 395.455 245.93 393.839 245.93H392.394ZM399.753 247.57H401.552V242.33L404.16 247.08L406.755 242.33V247.57H408.567V239.16H406.755L404.16 243.91L401.552 239.16H399.753V247.57Z" fill="#38237C"/>
<path d="M336.478 259.32C336.478 257.65 335.131 256.48 333.307 256.48H329.524V264.89H331.323V262.16H332.413L334.335 264.89H336.392L334.372 262.01C335.633 261.65 336.478 260.64 336.478 259.32ZM331.323 258.13H333.123C334.005 258.13 334.617 258.6 334.617 259.32C334.617 260.04 334.005 260.51 333.123 260.51H331.323V258.13ZM340.254 263.65C339.384 263.65 338.784 263.05 338.625 262.2H343.4C343.4 259.85 342.2 258.41 340.217 258.41C338.368 258.41 336.924 259.8 336.924 261.71C336.924 263.65 338.429 265.04 340.315 265.04C341.245 265.04 342.335 264.64 342.898 264.06L341.894 263.03C341.49 263.4 340.829 263.65 340.254 263.65ZM340.229 259.8C341.037 259.8 341.539 260.35 341.686 261.13H338.638C338.833 260.32 339.433 259.8 340.229 259.8ZM345.615 264.89H347.219L348.407 260.91L349.594 264.89H351.198L353.34 258.56H351.59L350.402 262.5L349.141 258.56H347.66L346.411 262.5L345.211 258.56H343.461L345.615 264.89ZM356.473 258.41C355.592 258.41 354.722 258.66 353.829 259.11L354.429 260.3C354.93 260.04 355.481 259.85 356.069 259.85C357.11 259.85 357.538 260.43 357.538 261.11V261.24C357 261.02 356.424 260.91 355.91 260.91C354.453 260.91 353.29 261.77 353.29 263.02C353.29 264.23 354.318 265.04 355.665 265.04C356.363 265.04 357.085 264.76 357.538 264.25V264.89H359.264V261.11C359.264 259.45 358.126 258.41 356.473 258.41ZM356.069 263.8C355.457 263.8 354.992 263.48 354.992 262.97C354.992 262.45 355.518 262.07 356.167 262.07C356.657 262.07 357.134 262.16 357.538 262.32V262.89C357.404 263.48 356.755 263.8 356.069 263.8ZM362.285 259.75V258.56H360.497V264.89H362.285V261.87C362.285 260.68 363.129 259.92 364.452 259.92V258.41C363.484 258.41 362.701 258.93 362.285 259.75ZM369.945 256.33V259.45C369.443 258.81 368.696 258.41 367.815 258.41C366.125 258.41 364.913 259.78 364.913 261.72C364.913 263.67 366.125 265.04 367.815 265.04C368.696 265.04 369.443 264.64 369.945 264V264.89H371.732V256.33H369.945ZM368.329 263.53C367.349 263.53 366.652 262.78 366.652 261.72C366.652 260.67 367.349 259.92 368.329 259.92C369.284 259.92 369.945 260.67 369.945 261.72C369.945 262.78 369.284 263.53 368.329 263.53ZM375.559 265.04C377.113 265.04 378.142 264.24 378.142 262.99C378.142 261.61 376.93 261.24 375.828 260.96C374.983 260.73 374.628 260.63 374.628 260.29C374.628 259.93 374.995 259.7 375.473 259.7C376.061 259.7 376.746 259.98 377.309 260.35L377.97 259.2C377.26 258.73 376.379 258.41 375.473 258.41C373.979 258.41 373 259.27 373 260.47C373 261.72 374.004 262.07 375.314 262.39C375.999 262.56 376.513 262.74 376.513 263.14C376.513 263.51 376.195 263.73 375.595 263.73C374.922 263.73 374.089 263.42 373.428 262.96L372.706 264.08C373.477 264.69 374.555 265.04 375.559 265.04Z" fill="#38237C"/>
<path d="M263.351 178.34H266.363C269.191 178.34 271.199 176.59 271.199 174.13C271.199 171.67 269.191 169.93 266.363 169.93H263.351V178.34ZM265.151 176.7V171.57H266.596C268.212 171.57 269.338 172.63 269.338 174.13C269.338 175.63 268.212 176.7 266.596 176.7H265.151ZM275.288 177.1C274.419 177.1 273.819 176.5 273.66 175.64H278.435C278.435 173.29 277.235 171.86 275.252 171.86C273.403 171.86 271.958 173.25 271.958 175.15C271.958 177.1 273.464 178.48 275.35 178.48C276.28 178.48 277.37 178.09 277.933 177.51L276.929 176.48C276.525 176.84 275.864 177.1 275.288 177.1ZM275.264 173.25C276.072 173.25 276.574 173.8 276.721 174.58H273.672C273.868 173.77 274.468 173.25 275.264 173.25ZM279.453 178.34H281.241V169.78H279.453V178.34ZM285.642 177.1C284.773 177.1 284.173 176.5 284.014 175.64H288.789C288.789 173.29 287.589 171.86 285.606 171.86C283.757 171.86 282.312 173.25 282.312 175.15C282.312 177.1 283.818 178.48 285.703 178.48C286.634 178.48 287.724 178.09 288.287 177.51L287.283 176.48C286.879 176.84 286.218 177.1 285.642 177.1ZM285.618 173.25C286.426 173.25 286.928 173.8 287.075 174.58H284.026C284.222 173.77 284.822 173.25 285.618 173.25ZM294.3 172.01V172.87C293.872 172.27 293.051 171.86 292.207 171.86C290.603 171.86 289.391 173.1 289.391 174.86C289.391 176.62 290.603 177.87 292.207 177.87C293.051 177.87 293.798 177.51 294.3 176.88V177.59C294.3 178.41 293.565 178.94 292.415 178.94C291.68 178.94 290.933 178.71 290.517 178.34L289.893 179.6C290.529 180.09 291.57 180.44 292.684 180.44C294.68 180.44 296.087 179.29 296.087 177.66V172.01H294.3ZM292.77 176.37C291.876 176.37 291.239 175.74 291.239 174.86C291.239 173.98 291.876 173.37 292.77 173.37C293.663 173.37 294.3 173.98 294.3 174.86C294.3 175.74 293.663 176.37 292.77 176.37ZM300.248 171.86C299.366 171.86 298.497 172.11 297.603 172.56L298.203 173.75C298.705 173.49 299.256 173.29 299.844 173.29C300.884 173.29 301.313 173.88 301.313 174.56V174.69C300.774 174.47 300.199 174.36 299.685 174.36C298.228 174.36 297.065 175.22 297.065 176.46C297.065 177.68 298.093 178.48 299.44 178.48C300.138 178.48 300.86 178.2 301.313 177.7V178.34H303.039V174.56C303.039 172.9 301.901 171.86 300.248 171.86ZM299.844 177.25C299.232 177.25 298.766 176.93 298.766 176.42C298.766 175.9 299.293 175.52 299.942 175.52C300.431 175.52 300.909 175.61 301.313 175.77V176.34C301.178 176.93 300.529 177.25 299.844 177.25ZM307.627 176.77C307.505 176.89 307.272 176.98 307.028 176.98C306.685 176.98 306.428 176.69 306.428 176.27V173.45H307.799V172.01H306.428V170.27H304.701V172.01H303.832V173.45H304.701V176.55C304.701 177.69 305.485 178.48 306.611 178.48C307.113 178.48 307.689 178.26 308.056 177.93L307.627 176.77ZM311.873 177.1C311.004 177.1 310.404 176.5 310.245 175.64H315.02C315.02 173.29 313.82 171.86 311.837 171.86C309.988 171.86 308.543 173.25 308.543 175.15C308.543 177.1 310.049 178.48 311.935 178.48C312.865 178.48 313.955 178.09 314.518 177.51L313.514 176.48C313.11 176.84 312.449 177.1 311.873 177.1ZM311.849 173.25C312.657 173.25 313.159 173.8 313.306 174.58H310.257C310.453 173.77 311.053 173.25 311.849 173.25ZM320.666 169.78V172.9C320.164 172.25 319.417 171.86 318.536 171.86C316.846 171.86 315.634 173.23 315.634 175.17C315.634 177.11 316.846 178.48 318.536 178.48C319.417 178.48 320.164 178.09 320.666 177.44V178.34H322.453V169.78H320.666ZM319.05 176.98C318.07 176.98 317.373 176.23 317.373 175.17C317.373 174.11 318.07 173.37 319.05 173.37C320.005 173.37 320.666 174.11 320.666 175.17C320.666 176.23 320.005 176.98 319.05 176.98Z" fill="#38237C"/>
<path d="M263.351 195.65H265.151V190.41L267.759 195.16L270.354 190.41V195.65H272.166V187.24H270.354L267.759 191.99L265.151 187.24H263.351V195.65ZM280.201 187.24L277.801 193.17L275.39 187.24H273.357L276.785 195.65H278.805L282.233 187.24H280.201ZM283.425 195.65H285.225V193.3L286.278 192.18L288.861 195.65H291.052L287.539 190.89L290.82 187.24H288.628L285.225 191.1V187.24H283.425V195.65Z" fill="#38237C"/>
<path d="M755.371 232.55H757.171V227.31L759.781 232.06L762.371 227.31V232.55H764.181V224.14H762.371L759.781 228.89L757.171 224.14H755.371V232.55ZM772.221 224.14L769.821 230.06L767.411 224.14H765.381L768.801 232.55H770.821L774.251 224.14H772.221ZM775.441 232.55H777.241V230.2L778.301 229.07L780.881 232.55H783.071L779.561 227.79L782.841 224.14H780.651L777.241 228V224.14H775.441V232.55Z" fill="#38237C"/>
<path d="M762.321 244.3C762.321 242.63 760.981 241.46 759.151 241.46H755.371V249.87H757.171V247.14H758.261L760.181 249.87H762.241L760.221 246.99C761.481 246.62 762.321 245.62 762.321 244.3ZM757.171 243.11H758.971C759.851 243.11 760.461 243.57 760.461 244.3C760.461 245.02 759.851 245.48 758.971 245.48H757.171V243.11ZM766.101 248.63C765.231 248.63 764.631 248.03 764.471 247.17H769.251C769.251 244.82 768.051 243.39 766.061 243.39C764.211 243.39 762.771 244.77 762.771 246.68C762.771 248.63 764.271 250.01 766.161 250.01C767.091 250.01 768.181 249.62 768.741 249.03L767.741 248.01C767.341 248.37 766.671 248.63 766.101 248.63ZM766.071 244.77C766.881 244.77 767.381 245.32 767.531 246.11H764.481C764.681 245.3 765.281 244.77 766.071 244.77ZM771.461 249.87H773.061L774.251 245.89L775.441 249.87H777.041L779.191 243.54H777.441L776.251 247.48L774.991 243.54H773.511L772.261 247.48L771.061 243.54H769.311L771.461 249.87ZM782.321 243.39C781.441 243.39 780.571 243.63 779.671 244.09L780.271 245.27C780.781 245.02 781.331 244.82 781.911 244.82C782.961 244.82 783.381 245.41 783.381 246.08V246.22C782.841 246 782.271 245.89 781.761 245.89C780.301 245.89 779.141 246.74 779.141 247.99C779.141 249.2 780.161 250.01 781.511 250.01C782.211 250.01 782.931 249.73 783.381 249.23V249.87H785.111V246.08C785.111 244.43 783.971 243.39 782.321 243.39ZM781.911 248.78C781.301 248.78 780.841 248.46 780.841 247.94C780.841 247.43 781.361 247.05 782.011 247.05C782.501 247.05 782.981 247.14 783.381 247.29V247.87C783.251 248.46 782.601 248.78 781.911 248.78ZM788.131 244.72V243.54H786.341V249.87H788.131V246.84C788.131 245.65 788.971 244.9 790.301 244.9V243.39C789.331 243.39 788.551 243.9 788.131 244.72ZM795.791 241.31V244.43C795.291 243.78 794.541 243.39 793.661 243.39C791.971 243.39 790.761 244.76 790.761 246.7C790.761 248.64 791.971 250.01 793.661 250.01C794.541 250.01 795.291 249.62 795.791 248.97V249.87H797.581V241.31H795.791ZM794.171 248.51C793.191 248.51 792.501 247.76 792.501 246.7C792.501 245.64 793.191 244.9 794.171 244.9C795.131 244.9 795.791 245.64 795.791 246.7C795.791 247.76 795.131 248.51 794.171 248.51ZM801.401 250.01C802.961 250.01 803.991 249.22 803.991 247.97C803.991 246.58 802.781 246.22 801.671 245.94C800.831 245.7 800.471 245.61 800.471 245.26C800.471 244.91 800.841 244.67 801.321 244.67C801.911 244.67 802.591 244.96 803.151 245.32L803.821 244.17C803.111 243.71 802.221 243.39 801.321 243.39C799.821 243.39 798.851 244.25 798.851 245.45C798.851 246.7 799.851 247.05 801.161 247.37C801.841 247.54 802.361 247.71 802.361 248.12C802.361 248.48 802.041 248.7 801.441 248.7C800.771 248.7 799.931 248.4 799.271 247.93L798.551 249.06C799.321 249.67 800.401 250.01 801.401 250.01Z" fill="#38237C"/>
<path d="M828.271 302.04C830.331 302.04 831.541 300.98 831.541 299.37C831.541 297.82 830.341 297.28 828.531 296.88C827.231 296.58 826.731 296.39 826.731 295.77C826.731 295.27 827.191 294.87 827.961 294.87C828.771 294.87 829.621 295.2 830.361 295.8L831.311 294.5C830.451 293.77 829.391 293.34 828.011 293.34C826.181 293.34 824.901 294.4 824.901 295.96C824.901 297.59 826.171 298.09 827.941 298.49C829.231 298.79 829.721 298.97 829.721 299.57C829.721 300.1 829.251 300.51 828.341 300.51C827.281 300.51 826.371 300.1 825.581 299.41L824.541 300.65C825.521 301.55 826.811 302.04 828.271 302.04ZM833.561 294.7C834.081 294.7 834.521 294.26 834.521 293.72C834.521 293.22 834.081 292.76 833.561 292.76C833.011 292.76 832.581 293.22 832.581 293.72C832.581 294.26 833.011 294.7 833.561 294.7ZM832.651 301.9H834.441V295.57H832.651V301.9ZM840.391 295.57V296.42C839.961 295.82 839.141 295.42 838.291 295.42C836.691 295.42 835.481 296.66 835.481 298.42C835.481 300.18 836.691 301.43 838.291 301.43C839.141 301.43 839.881 301.06 840.391 300.44V301.15C840.391 301.97 839.651 302.5 838.501 302.5C837.771 302.5 837.021 302.26 836.601 301.9L835.981 303.16C836.621 303.65 837.661 304 838.771 304C840.771 304 842.171 302.85 842.171 301.22V295.57H840.391ZM838.861 299.93C837.961 299.93 837.331 299.3 837.331 298.42C837.331 297.54 837.961 296.93 838.861 296.93C839.751 296.93 840.391 297.54 840.391 298.42C840.391 299.3 839.751 299.93 838.861 299.93ZM847.261 295.42C846.441 295.42 845.731 295.79 845.351 296.35V295.57H843.571V301.9H845.351V298.15C845.351 297.46 845.941 296.93 846.691 296.93C847.401 296.93 847.891 297.46 847.891 298.25V301.9H849.601V297.87C849.601 296.42 848.641 295.42 847.261 295.42ZM853.821 300.66C852.951 300.66 852.351 300.06 852.191 299.2H856.971C856.971 296.85 855.771 295.42 853.791 295.42C851.941 295.42 850.491 296.8 850.491 298.71C850.491 300.66 852.001 302.04 853.881 302.04C854.811 302.04 855.901 301.65 856.471 301.06L855.461 300.04C855.061 300.4 854.401 300.66 853.821 300.66ZM853.801 296.8C854.611 296.8 855.111 297.35 855.251 298.14H852.211C852.401 297.33 853.001 296.8 853.801 296.8ZM862.611 293.34V296.46C862.111 295.81 861.371 295.42 860.481 295.42C858.801 295.42 857.581 296.79 857.581 298.73C857.581 300.67 858.801 302.04 860.481 302.04C861.371 302.04 862.111 301.65 862.611 301V301.9H864.401V293.34H862.611ZM861.001 300.54C860.021 300.54 859.321 299.79 859.321 298.73C859.321 297.67 860.021 296.93 861.001 296.93C861.951 296.93 862.611 297.67 862.611 298.73C862.611 299.79 861.951 300.54 861.001 300.54Z" fill="#38237C"/>
<path d="M828.871 312.74C827.991 312.74 827.241 313.13 826.741 313.78V312.88H824.951V321.32H826.741V318.32C827.241 318.97 827.991 319.36 828.871 319.36C830.561 319.36 831.771 317.99 831.771 316.04C831.771 314.11 830.561 312.74 828.871 312.74ZM828.361 317.85C827.401 317.85 826.741 317.11 826.741 316.04C826.741 314.99 827.401 314.24 828.361 314.24C829.341 314.24 830.031 314.99 830.031 316.04C830.031 317.11 829.341 317.85 828.361 317.85ZM834.611 314.07V312.88H832.821V319.21H834.611V316.19C834.611 315 835.451 314.24 836.771 314.24V312.74C835.811 312.74 835.021 313.25 834.611 314.07ZM838.641 312.01C839.161 312.01 839.611 311.57 839.611 311.03C839.611 310.53 839.161 310.08 838.641 310.08C838.091 310.08 837.661 310.53 837.661 311.03C837.661 311.57 838.091 312.01 838.641 312.01ZM837.731 319.21H839.521V312.88H837.731V319.21ZM843.961 319.36C845.011 319.36 845.881 318.93 846.501 318.24L845.311 317.24C844.991 317.61 844.481 317.85 843.971 317.85C843.041 317.85 842.261 317.02 842.261 316.03C842.261 315.06 843.041 314.24 843.971 314.24C844.461 314.24 844.971 314.47 845.271 314.83L846.461 313.81C845.861 313.15 845.001 312.74 843.991 312.74C842.101 312.74 840.521 314.24 840.521 316.04C840.521 317.84 842.101 319.36 843.961 319.36ZM850.361 317.98C849.491 317.98 848.891 317.38 848.731 316.52H853.501C853.501 314.17 852.301 312.74 850.321 312.74C848.471 312.74 847.031 314.12 847.031 316.03C847.031 317.98 848.531 319.36 850.421 319.36C851.351 319.36 852.441 318.97 853.001 318.38L852.001 317.35C851.591 317.72 850.931 317.98 850.361 317.98ZM850.331 314.12C851.141 314.12 851.641 314.67 851.791 315.45H848.741C848.941 314.65 849.541 314.12 850.331 314.12ZM860.011 312.54C860.011 312.12 860.271 311.83 860.601 311.83C860.841 311.83 861.091 311.92 861.211 312.04L861.641 310.95C861.271 310.62 860.701 310.4 860.191 310.4C859.071 310.4 858.281 311.19 858.281 312.33V312.88H857.411V314.33H858.281V319.21H860.011V314.33H861.381V312.88H860.011V312.54ZM865.241 317.98C864.371 317.98 863.771 317.38 863.611 316.52H868.391C868.391 314.17 867.191 312.74 865.201 312.74C863.351 312.74 861.911 314.12 861.911 316.03C861.911 317.98 863.421 319.36 865.301 319.36C866.231 319.36 867.321 318.97 867.881 318.38L866.881 317.35C866.481 317.72 865.821 317.98 865.241 317.98ZM865.221 314.12C866.021 314.12 866.531 314.67 866.671 315.45H863.621C863.821 314.65 864.421 314.12 865.221 314.12ZM872.291 317.98C871.431 317.98 870.831 317.38 870.671 316.52H875.441C875.441 314.17 874.241 312.74 872.261 312.74C870.411 312.74 868.961 314.12 868.961 316.03C868.961 317.98 870.471 319.36 872.361 319.36C873.291 319.36 874.381 318.97 874.941 318.38L873.931 317.35C873.531 317.72 872.871 317.98 872.291 317.98ZM872.271 314.12C873.081 314.12 873.581 314.67 873.731 315.45H870.681C870.871 314.65 871.471 314.12 872.271 314.12ZM881.091 310.65V313.78C880.581 313.13 879.841 312.74 878.961 312.74C877.271 312.74 876.051 314.11 876.051 316.04C876.051 317.99 877.271 319.36 878.961 319.36C879.841 319.36 880.581 318.97 881.091 318.32V319.21H882.871V310.65H881.091ZM879.471 317.85C878.491 317.85 877.791 317.11 877.791 316.04C877.791 314.99 878.491 314.24 879.471 314.24C880.431 314.24 881.091 314.99 881.091 316.04C881.091 317.11 880.431 317.85 879.471 317.85Z" fill="#38237C"/>
<path d="M575.994 333.7C578.222 333.7 579.802 332.13 579.802 329.91V325.14H577.99V329.84C577.99 331.14 577.169 332.06 575.994 332.06C574.819 332.06 573.999 331.14 573.999 329.84V325.14H572.187V329.91C572.187 332.13 573.766 333.7 575.994 333.7ZM584.497 333.7C586.554 333.7 587.766 332.63 587.766 331.03C587.766 329.47 586.566 328.93 584.754 328.53C583.456 328.24 582.954 328.04 582.954 327.43C582.954 326.93 583.42 326.52 584.191 326.52C584.999 326.52 585.844 326.85 586.59 327.45L587.533 326.16C586.676 325.42 585.611 324.99 584.24 324.99C582.403 324.99 581.13 326.06 581.13 327.61C581.13 329.24 582.391 329.74 584.166 330.15C585.452 330.44 585.942 330.62 585.942 331.22C585.942 331.75 585.476 332.17 584.57 332.17C583.505 332.17 582.599 331.75 581.804 331.06L580.763 332.3C581.742 333.21 583.04 333.7 584.497 333.7ZM589.061 333.55H592.072C594.9 333.55 596.908 331.8 596.908 329.34C596.908 326.88 594.9 325.14 592.072 325.14H589.061V333.55ZM590.86 331.91V326.78H592.305C593.921 326.78 595.047 327.84 595.047 329.34C595.047 330.84 593.921 331.91 592.305 331.91H590.86ZM598.219 333.55H600.018V328.31L602.626 333.06L605.222 328.31V333.55H607.034V325.14H605.222L602.626 329.89L600.018 325.14H598.219V333.55Z" fill="#38237C"/>
<path d="M579.324 345.3C579.324 343.63 577.977 342.46 576.153 342.46H572.37V350.87H574.17V348.14H575.26L577.182 350.87H579.238L577.218 347.99C578.479 347.62 579.324 346.62 579.324 345.3ZM574.17 344.11H575.97C576.851 344.11 577.463 344.57 577.463 345.3C577.463 346.02 576.851 346.48 575.97 346.48H574.17V344.11ZM583.1 349.63C582.231 349.63 581.631 349.03 581.472 348.17H586.246C586.246 345.82 585.047 344.39 583.063 344.39C581.215 344.39 579.77 345.77 579.77 347.68C579.77 349.63 581.276 351.01 583.161 351.01C584.092 351.01 585.181 350.62 585.744 350.03L584.741 349.01C584.337 349.37 583.675 349.63 583.1 349.63ZM583.076 345.77C583.884 345.77 584.385 346.32 584.532 347.11H581.484C581.68 346.3 582.28 345.77 583.076 345.77ZM588.462 350.87H590.065L591.253 346.89L592.441 350.87H594.044L596.187 344.54H594.436L593.249 348.48L591.988 344.54H590.506L589.257 348.48L588.058 344.54H586.307L588.462 350.87ZM599.32 344.39C598.438 344.39 597.569 344.63 596.675 345.09L597.275 346.27C597.777 346.02 598.328 345.82 598.915 345.82C599.956 345.82 600.385 346.41 600.385 347.08V347.22C599.846 347 599.271 346.89 598.756 346.89C597.299 346.89 596.136 347.74 596.136 348.99C596.136 350.2 597.165 351.01 598.511 351.01C599.209 351.01 599.932 350.73 600.385 350.23V350.87H602.111V347.08C602.111 345.43 600.972 344.39 599.32 344.39ZM598.915 349.78C598.303 349.78 597.838 349.46 597.838 348.94C597.838 348.43 598.365 348.05 599.013 348.05C599.503 348.05 599.981 348.14 600.385 348.29V348.87C600.25 349.46 599.601 349.78 598.915 349.78ZM605.131 345.72V344.54H603.344V350.87H605.131V347.84C605.131 346.65 605.976 345.9 607.298 345.9V344.39C606.331 344.39 605.547 344.9 605.131 345.72ZM612.791 342.31V345.43C612.289 344.78 611.543 344.39 610.661 344.39C608.972 344.39 607.759 345.76 607.759 347.7C607.759 349.64 608.972 351.01 610.661 351.01C611.543 351.01 612.289 350.62 612.791 349.97V350.87H614.579V342.31H612.791ZM611.175 349.51C610.196 349.51 609.498 348.76 609.498 347.7C609.498 346.64 610.196 345.9 611.175 345.9C612.13 345.9 612.791 346.64 612.791 347.7C612.791 348.76 612.13 349.51 611.175 349.51ZM618.405 351.01C619.96 351.01 620.988 350.22 620.988 348.97C620.988 347.58 619.776 347.22 618.674 346.94C617.83 346.7 617.475 346.61 617.475 346.26C617.475 345.91 617.842 345.67 618.319 345.67C618.907 345.67 619.593 345.96 620.156 346.32L620.817 345.17C620.107 344.71 619.225 344.39 618.319 344.39C616.826 344.39 615.846 345.25 615.846 346.45C615.846 347.7 616.85 348.05 618.16 348.37C618.846 348.54 619.36 348.71 619.36 349.12C619.36 349.48 619.042 349.7 618.442 349.7C617.768 349.7 616.936 349.4 616.275 348.93L615.552 350.06C616.324 350.67 617.401 351.01 618.405 351.01Z" fill="#38237C"/>
<path d="M495.953 360.43L493.553 366.35L491.142 360.43H489.109L492.537 368.84H494.557L497.985 360.43H495.953ZM501.218 368.99C503.115 368.99 504.67 367.49 504.67 365.67C504.67 363.84 503.115 362.36 501.218 362.36C499.32 362.36 497.765 363.84 497.765 365.67C497.765 367.49 499.32 368.99 501.218 368.99ZM501.218 367.48C500.263 367.48 499.479 366.66 499.479 365.67C499.479 364.68 500.263 363.87 501.218 363.87C502.173 363.87 502.956 364.68 502.956 365.67C502.956 366.66 502.173 367.48 501.218 367.48ZM508.901 367.27C508.779 367.4 508.546 367.48 508.301 367.48C507.958 367.48 507.701 367.19 507.701 366.77V363.96H509.072V362.51H507.701V360.77H505.975V362.51H505.106V363.96H505.975V367.05C505.975 368.19 506.758 368.99 507.885 368.99C508.387 368.99 508.962 368.77 509.329 368.44L508.901 367.27ZM513.147 367.6C512.278 367.6 511.678 367 511.519 366.15H516.293C516.293 363.8 515.094 362.36 513.11 362.36C511.262 362.36 509.817 363.75 509.817 365.66C509.817 367.6 511.323 368.99 513.208 368.99C514.139 368.99 515.228 368.6 515.791 368.01L514.787 366.98C514.383 367.35 513.722 367.6 513.147 367.6ZM513.122 363.75C513.93 363.75 514.432 364.3 514.579 365.08H511.531C511.727 364.27 512.327 363.75 513.122 363.75ZM519.268 368.99C520.823 368.99 521.851 368.19 521.851 366.94C521.851 365.56 520.639 365.19 519.537 364.91C518.692 364.68 518.337 364.58 518.337 364.24C518.337 363.88 518.705 363.65 519.182 363.65C519.77 363.65 520.455 363.93 521.018 364.3L521.68 363.15C520.969 362.68 520.088 362.36 519.182 362.36C517.688 362.36 516.709 363.22 516.709 364.42C516.709 365.67 517.713 366.02 519.023 366.34C519.708 366.51 520.223 366.69 520.223 367.09C520.223 367.46 519.904 367.68 519.304 367.68C518.631 367.68 517.799 367.37 517.137 366.91L516.415 368.03C517.186 368.64 518.264 368.99 519.268 368.99Z" fill="#38237C"/>
<path d="M236.706 214.9C235.009 214.9 233.607 213.5 233.607 211.69C233.607 210.89 233.902 210.09 234.502 209.49C247.9 196.08 247.9 174.35 234.502 160.94C233.301 159.74 233.206 157.73 234.408 156.54C235.61 155.34 237.613 155.24 238.803 156.45L238.898 156.54C254.699 172.36 254.699 198.08 238.898 213.99C238.297 214.59 237.601 214.9 236.706 214.9Z" fill="#86D4C9"/>
<path d="M227.197 205.38C226.395 205.38 225.594 205.09 224.993 204.49C223.791 203.28 223.791 201.28 224.993 200.09C233.088 191.98 233.088 178.76 224.993 170.55C223.791 169.26 223.992 167.25 225.194 166.15C226.395 165.06 228.198 165.06 229.388 166.15C239.994 176.77 239.994 193.98 229.388 204.49C228.799 205.09 227.998 205.38 227.197 205.38Z" fill="#86D4C9"/>
<path d="M217.699 195.88C216.002 195.88 214.6 194.47 214.6 192.77C214.6 191.97 214.895 191.17 215.496 190.57C218.394 187.67 218.394 182.96 215.496 180.06C214.294 178.86 214.294 176.85 215.496 175.66C216.698 174.46 218.701 174.46 219.891 175.66C225.194 181.06 225.194 189.67 219.891 195.07C219.302 195.58 218.501 195.88 217.699 195.88Z" fill="#86D4C9"/>
<path d="M295.399 227.91C297.096 227.91 298.499 229.31 298.499 231.12C298.499 231.92 298.204 232.72 297.603 233.32C284.205 246.73 284.205 268.46 297.603 281.87C298.805 283.07 298.899 285.08 297.697 286.27C296.495 287.47 294.492 287.56 293.302 286.36L293.208 286.27C277.406 270.45 277.406 244.73 293.208 228.82C293.797 228.2 294.598 227.91 295.399 227.91Z" fill="#86D4C9"/>
<path d="M304.897 237.42C305.698 237.42 306.5 237.71 307.101 238.31C308.303 239.51 308.303 241.52 307.101 242.71C299.005 250.81 299.005 264.03 307.101 272.24C308.303 273.54 308.102 275.55 306.9 276.64C305.698 277.74 303.896 277.74 302.705 276.64C292.1 266.03 292.1 248.82 302.705 238.31C303.306 237.72 304.108 237.42 304.897 237.42Z" fill="#86D4C9"/>
<path d="M314.406 246.92C316.103 246.92 317.505 248.32 317.505 250.02C317.505 250.82 317.211 251.63 316.61 252.23C313.711 255.13 313.711 259.84 316.61 262.74C317.811 263.94 317.811 265.95 316.61 267.14C315.408 268.34 313.404 268.34 312.214 267.14C306.912 261.73 306.912 253.12 312.214 247.72C312.803 247.23 313.605 246.92 314.406 246.92Z" fill="#86D4C9"/>
<path d="M840.011 272.75C838.311 272.75 836.911 271.35 836.911 269.54C836.911 268.74 837.201 267.94 837.801 267.34C851.201 253.93 851.201 232.2 837.801 218.79C836.601 217.59 836.511 215.58 837.711 214.39C838.911 213.2 840.911 213.1 842.101 214.3L842.201 214.39C858.001 230.21 858.001 255.93 842.201 271.84C841.701 272.44 840.901 272.75 840.011 272.75Z" fill="#86D4C9"/>
<path d="M830.501 263.24C829.701 263.24 828.891 262.95 828.291 262.35C827.091 261.15 827.091 259.14 828.291 257.95C836.391 249.85 836.391 236.62 828.291 228.42C827.091 227.12 827.291 225.11 828.491 224.02C829.701 222.92 831.501 222.92 832.691 224.02C843.291 234.63 843.291 251.84 832.691 262.35C832.211 262.94 831.401 263.24 830.501 263.24Z" fill="#86D4C9"/>
<path d="M821.001 253.73C819.301 253.73 817.901 252.32 817.901 250.62C817.901 249.82 818.201 249.02 818.801 248.42C821.691 245.52 821.691 240.81 818.801 237.91C817.591 236.71 817.591 234.7 818.801 233.51C820.001 232.31 822.001 232.31 823.191 233.51C828.491 238.91 828.491 247.52 823.191 252.92C822.701 253.43 821.911 253.73 821.001 253.73Z" fill="#86D4C9"/>
<path d="M788.611 279.96C790.301 279.96 791.711 281.36 791.711 283.16C791.711 283.97 791.411 284.77 790.811 285.37C777.411 298.78 777.411 320.51 790.811 333.92C792.011 335.12 792.111 337.12 790.901 338.31C789.701 339.52 787.701 339.61 786.511 338.41L786.421 338.31C770.611 322.5 770.611 296.78 786.421 280.86C787.001 280.36 787.811 279.96 788.611 279.96Z" fill="#86D4C9"/>
<path d="M798.101 289.57C798.911 289.57 799.711 289.86 800.311 290.47C801.511 291.67 801.511 293.67 800.311 294.86C792.211 302.97 792.211 316.19 800.311 324.4C801.511 325.69 801.311 327.7 800.111 328.8C798.911 329.89 797.101 329.89 795.911 328.8C785.311 318.18 785.311 300.97 795.911 290.47C796.501 289.86 797.301 289.57 798.101 289.57Z" fill="#86D4C9"/>
<path d="M807.601 299.08C809.301 299.08 810.701 300.48 810.701 302.18C810.701 302.98 810.411 303.78 809.811 304.38C806.911 307.28 806.911 311.99 809.811 314.89C811.011 316.09 811.011 318.1 809.811 319.29C808.601 320.49 806.601 320.49 805.411 319.29C800.111 313.89 800.111 305.28 805.411 299.88C806.001 299.37 806.801 299.08 807.601 299.08Z" fill="#86D4C9"/>
<path d="M537.102 326.7C537.102 328.4 535.699 329.8 533.897 329.8C533.095 329.8 532.294 329.5 531.693 328.9C518.295 315.49 496.59 315.49 483.192 328.9C481.99 330.11 479.987 330.2 478.797 329C477.595 327.79 477.501 325.79 478.703 324.6L478.797 324.5C494.599 308.69 520.298 308.69 536.194 324.5C536.807 325.09 537.102 325.9 537.102 326.7Z" fill="#86D4C9"/>
<path d="M527.604 336.31C527.604 337.11 527.31 337.91 526.709 338.51C525.507 339.72 523.504 339.72 522.314 338.51C514.218 330.41 501.009 330.41 492.808 338.51C491.512 339.72 489.508 339.52 488.412 338.31C487.317 337.11 487.317 335.31 488.412 334.12C499.018 323.5 516.21 323.5 526.709 334.12C527.298 334.61 527.604 335.4 527.604 336.31Z" fill="#86D4C9"/>
<path d="M518.107 345.82C518.107 347.51 516.705 348.92 515.008 348.92C514.207 348.92 513.405 348.62 512.804 348.02C509.906 345.12 505.204 345.12 502.305 348.02C501.103 349.22 499.1 349.22 497.91 348.02C496.72 346.82 496.708 344.81 497.91 343.62C503.307 338.31 511.909 338.31 517.306 343.62C517.8 344.12 518.107 344.92 518.107 345.82Z" fill="#86D4C9"/>
<path d="M564.298 386.55C564.298 384.85 565.7 383.45 567.503 383.45C568.304 383.45 569.106 383.75 569.707 384.35C583.104 397.76 604.81 397.76 618.207 384.35C619.409 383.14 621.412 383.05 622.603 384.25C623.805 385.46 623.899 387.46 622.697 388.65L622.603 388.75C606.801 404.56 581.101 404.56 565.205 388.75C564.604 388.25 564.298 387.45 564.298 386.55Z" fill="#86D4C9"/>
<path d="M573.807 377.05C573.807 376.24 574.102 375.44 574.703 374.84C575.905 373.64 577.908 373.64 579.098 374.84C587.193 382.94 600.402 382.94 608.604 374.84C609.9 373.64 611.903 373.84 612.999 375.04C614.095 376.24 614.095 378.05 612.999 379.24C602.394 389.86 585.202 389.86 574.703 379.24C574.196 378.65 573.807 377.94 573.807 377.05Z" fill="#86D4C9"/>
<path d="M583.305 367.54C583.305 365.84 584.707 364.44 586.404 364.44C587.205 364.44 588.006 364.73 588.607 365.34C591.506 368.24 596.208 368.24 599.106 365.34C600.308 364.13 602.311 364.13 603.502 365.34C604.703 366.54 604.703 368.54 603.502 369.73C598.105 375.04 589.503 375.04 584.106 369.73C583.705 369.13 583.305 368.33 583.305 367.54Z" fill="#86D4C9"/>
<path d="M662.611 555.81V539.7C662.611 539.7 668.801 525.58 667.111 525.18L626.903 511.17H629.508C634.504 511.17 638.604 507.07 638.604 502.06V501.26C638.604 496.26 634.504 492.16 629.508 492.16H608.804C608.003 476.85 601.498 462.53 590.304 451.62C579.11 440.71 564.404 434.51 548.708 433.7V427.7C551.313 426.5 553.104 423.9 553.104 420.79C553.104 416.59 549.698 413.18 545.503 413.18C541.308 413.18 537.903 416.59 537.903 420.79C537.903 423.89 539.706 426.5 542.298 427.7V433.7C526.603 434.51 511.897 440.71 500.703 451.62C489.402 462.53 482.898 476.85 482.203 492.16H461.499C456.503 492.16 452.402 496.26 452.402 501.26V502.06C452.402 507.07 456.503 511.17 461.499 511.17H463.997L430.002 522.19C428.305 522.59 427.303 524.28 427.704 525.98L423.91 530.98C428.211 525.48 425.112 536.69 425.913 537.19C426.408 537.48 428.812 537.19 429.413 537.19C429.707 537.19 431.015 535.69 431.31 535.69L431.51 541.6L428.305 555.81H408.509V578.23H682.511V555.81H662.611Z" fill="#C0DBFF"/>
<path d="M505.204 510.17H469.206V559.01H505.204V510.17Z" fill="#77A4F2"/>
<path d="M621.707 540.4L659.401 550.1V536.09L621.707 526.29V540.4Z" fill="#77A4F2"/>
<path d="M553.104 436.81C553.104 436.81 589.503 444.91 589.503 497.26L605.599 494.96C605.599 494.95 602.206 444.82 553.104 436.81Z" fill="white"/>
<path d="M539.8 436.81C539.8 436.81 503.401 444.91 503.401 497.26L487.305 494.95C487.305 494.95 490.699 444.82 539.8 436.81Z" fill="#77A4F2"/>
<path d="M633.208 497.26H589.904V504.67H633.208V497.26Z" fill="white"/>
<path d="M503.602 497.96H456.397V505.37H503.602V497.96Z" fill="#77A4F2"/>
<path d="M608.899 498.36H482.002V495.15C482.002 478.74 488.601 463.23 500.597 451.61C512.592 440 528.5 433.59 545.397 433.59C562.295 433.59 578.203 439.99 590.198 451.61C602.194 463.21 608.792 478.74 608.792 495.15V498.36H608.899ZM488.601 491.85H602.3C601.499 478.33 595.701 465.83 585.803 456.11C574.998 445.7 560.704 439.9 545.504 439.9C530.303 439.9 515.998 445.61 505.204 456.11C495.2 465.83 489.402 478.44 488.601 491.85Z" fill="#503EAA"/>
<path d="M580.1 495.15H573.595C573.595 480.34 570.39 465.82 564.793 455.42C559.49 445.61 552.491 440 545.397 440C538.398 440 531.293 445.61 526.002 455.42C520.405 465.83 517.2 480.34 517.2 495.15H510.695C510.695 479.04 514.101 463.83 520.299 452.41C526.803 440.3 535.7 433.6 545.397 433.6C555.095 433.6 563.897 440.31 570.496 452.41C576.706 463.83 580.1 479.04 580.1 495.15Z" fill="#503EAA"/>
<path d="M548.709 423.59H542.204V495.15H548.709V423.59Z" fill="#503EAA"/>
<path d="M625.006 562.21H466V505.26H625.006V562.21ZM472.399 555.81H618.502V511.77H472.399V555.81Z" fill="#503EAA"/>
<path d="M621.801 510.17H469.206V530.09H621.801V510.17Z" fill="#77A4F2"/>
<path d="M608.899 562.21H482.002V505.26H608.804V562.21H608.899ZM488.507 555.81H602.406V511.77H488.507V555.81Z" fill="#503EAA"/>
<path d="M679.301 559.02H640.608V574.93H679.301V559.02Z" fill="white"/>
<path d="M482.297 559.02H411.997V574.93H482.297V559.02Z" fill="#77A4F2"/>
<path d="M560.999 556.51V526.58C560.999 525.38 561.494 524.18 562.295 523.38C563.191 522.48 564.298 522.08 565.5 522.08C566.702 522.08 567.904 522.57 568.705 523.38C569.601 524.27 570.001 525.38 570.001 526.58V556.51H560.999Z" fill="#503EAA"/>
<path d="M565.606 522.88C566.608 522.88 567.609 523.28 568.304 523.98C569 524.67 569.4 525.58 569.4 526.58V555.72H561.8V526.58C561.8 525.58 562.201 524.69 562.896 523.98C563.697 523.18 564.605 522.88 565.606 522.88ZM565.606 521.18C564.204 521.18 562.802 521.78 561.812 522.79C560.81 523.79 560.209 525.09 560.209 526.58V555.72V557.32H561.812H569.412H571.015V555.72V526.58C571.015 525.18 570.414 523.78 569.412 522.79C568.399 521.78 567.103 521.18 565.606 521.18Z" fill="#503EAA"/>
<path d="M581.207 556.51V526.58C581.207 525.38 581.702 524.18 582.503 523.38C583.399 522.48 584.507 522.08 585.709 522.08C586.91 522.08 588.112 522.57 588.914 523.38C589.809 524.18 590.21 525.38 590.21 526.58V556.51H581.207Z" fill="#503EAA"/>
<path d="M585.803 522.88C586.804 522.88 587.806 523.28 588.501 523.98C589.196 524.67 589.597 525.58 589.597 526.58V555.72H581.997V526.58C581.997 525.58 582.397 524.69 583.093 523.98C583.8 523.18 584.801 522.88 585.803 522.88ZM585.803 521.18C584.401 521.18 582.998 521.78 582.009 522.79C581.007 523.79 580.406 525.19 580.406 526.58V555.72V557.32H582.009H589.609H591.211V555.72V526.58C591.211 525.18 590.611 523.78 589.609 522.79C588.607 521.78 587.205 521.18 585.803 521.18Z" fill="#503EAA"/>
<path d="M520.805 556.51V526.58C520.805 525.38 521.3 524.18 522.101 523.38C522.997 522.48 524.105 522.08 525.307 522.08C526.508 522.08 527.71 522.57 528.512 523.38C529.407 524.27 529.808 525.38 529.808 526.58V556.51H520.805Z" fill="#503EAA"/>
<path d="M525.401 522.88C526.402 522.88 527.404 523.28 528.099 523.98C528.794 524.67 529.195 525.58 529.195 526.58V555.72H521.595V526.58C521.595 525.58 521.995 524.69 522.691 523.98C523.398 523.18 524.305 522.88 525.401 522.88ZM525.401 521.18C523.999 521.18 522.596 521.78 521.606 522.79C520.605 523.79 520.004 525.09 520.004 526.58V555.72V557.32H521.606H529.207H530.809V555.72V526.58C530.809 525.18 530.208 523.78 529.207 522.79C528.099 521.78 526.803 521.18 525.401 521.18Z" fill="#503EAA"/>
<path d="M540.896 556.51V526.58C540.896 525.38 541.391 524.18 542.192 523.38C543.088 522.48 544.195 522.08 545.397 522.08C546.599 522.08 547.801 522.57 548.602 523.38C549.498 524.18 549.899 525.38 549.899 526.58V556.51H540.896Z" fill="#503EAA"/>
<path d="M545.503 522.88C546.505 522.88 547.506 523.28 548.202 523.98C548.897 524.67 549.298 525.58 549.298 526.58V555.72H541.697V526.58C541.697 525.58 542.098 524.69 542.793 523.98C543.5 523.18 544.502 522.88 545.503 522.88ZM545.503 521.18C544.101 521.18 542.699 521.78 541.709 522.79C540.707 523.79 540.106 525.19 540.106 526.58V555.72V557.32H541.709H549.309H550.912V555.72V526.58C550.912 525.18 550.311 523.78 549.309 522.79C548.296 521.78 546.906 521.18 545.503 521.18Z" fill="#503EAA"/>
<path d="M500.597 556.51V526.58C500.597 525.38 501.092 524.18 501.893 523.38C502.788 522.48 503.896 522.08 505.098 522.08C506.3 522.08 507.502 522.57 508.303 523.38C509.199 524.27 509.599 525.38 509.599 526.58V556.51H500.597Z" fill="#503EAA"/>
<path d="M505.204 522.88C506.206 522.88 507.207 523.28 507.902 523.98C508.598 524.67 508.998 525.58 508.998 526.58V555.72H501.398V526.58C501.398 525.58 501.799 524.69 502.494 523.98C503.201 523.18 504.202 522.88 505.204 522.88ZM505.204 521.18C503.802 521.18 502.399 521.78 501.41 522.79C500.408 523.79 499.807 525.09 499.807 526.58V555.72V557.32H501.41H509.01H510.613V555.72V526.58C510.613 525.18 510.012 523.78 509.01 522.79C507.997 521.78 506.606 521.18 505.204 521.18Z" fill="#503EAA"/>
<path d="M629.508 498.56C631.004 498.56 632.206 499.76 632.206 501.26V502.06C632.206 503.56 631.004 504.76 629.508 504.76H461.499C460.003 504.76 458.801 503.56 458.801 502.06V501.26C458.801 499.76 460.003 498.56 461.499 498.56H629.508ZM629.508 492.16H461.499C456.503 492.16 452.402 496.26 452.402 501.26V502.06C452.402 507.06 456.503 511.17 461.499 511.17H629.496C634.492 511.17 638.593 507.06 638.593 502.06V501.26C638.605 496.26 634.504 492.16 629.508 492.16Z" fill="#503EAA"/>
<path d="M682.501 578.23H408.497V555.81H682.501V578.23ZM414.907 571.72H676.001V562.22H414.907V571.72Z" fill="#503EAA"/>
<path d="M469.206 526.18L431.31 535.6C428.011 536.4 424.605 534.3 423.91 530.89C423.215 527.68 425.206 524.58 428.305 523.78L469.206 513.07V526.18Z" fill="#77A4F2"/>
<path d="M429.802 538.99C428.105 538.99 426.396 538.5 424.9 537.59C422.696 536.18 421.294 534.09 420.705 531.59C419.703 526.78 422.708 521.97 427.41 520.68L468.31 509.97C469.312 509.67 470.313 509.97 471.114 510.57C471.916 511.17 472.411 512.17 472.411 513.17V526.18C472.411 527.68 471.409 528.99 470.007 529.29L432.111 538.7C431.298 538.99 430.497 538.99 429.802 538.99ZM465.906 517.37L429 527.08C427.504 527.48 426.597 528.88 426.903 530.38C427.103 531.18 427.504 531.79 428.199 532.19C428.894 532.59 429.601 532.68 430.403 532.59L465.906 523.78V517.37Z" fill="#503EAA"/>
<path d="M469.206 559.02H431.499V536.09L469.206 526.29V559.02Z" fill="#77A4F2"/>
<path d="M472.399 562.21H428.293V533.59L472.399 522.08V562.21ZM434.703 555.81H465.906V530.49L434.703 538.59V555.81Z" fill="#503EAA"/>
<path d="M621.707 526.18L659.601 535.6C662.901 536.4 666.311 534.3 667.001 530.89C667.701 527.68 665.711 524.58 662.611 523.78L621.707 513.07V526.18Z" fill="white"/>
<path d="M661.101 538.99C660.301 538.99 659.601 538.9 658.801 538.7L620.906 529.29C619.504 528.88 618.502 527.68 618.502 526.18V513.17C618.502 512.17 618.997 511.28 619.798 510.57C620.599 509.86 621.601 509.77 622.603 509.97L663.501 520.68C668.301 521.97 671.201 526.68 670.211 531.59C669.711 534.09 668.201 536.19 666.011 537.59C664.601 538.59 662.901 538.99 661.101 538.99ZM625.006 523.68L660.511 532.49C661.311 532.69 662.011 532.59 662.711 532.09C663.411 531.69 663.811 531 664.011 530.29C664.301 528.79 663.411 527.39 661.911 526.99L625.006 517.28V523.68Z" fill="#503EAA"/>
<path d="M662.611 562.21H618.502V522.08L662.611 533.59V562.21ZM625.006 555.81H656.211V538.59L625.006 530.49V555.81Z" fill="#503EAA"/>
<path d="M545.503 428.4C549.701 428.4 553.104 424.99 553.104 420.79C553.104 416.59 549.701 413.18 545.503 413.18C541.306 413.18 537.903 416.59 537.903 420.79C537.903 424.99 541.306 428.4 545.503 428.4Z" fill="#503EAA"/>
<path d="M451.2 550.51C454.129 550.51 456.503 548.14 456.503 545.21C456.503 542.28 454.129 539.9 451.2 539.9C448.272 539.9 445.898 542.28 445.898 545.21C445.898 548.14 448.272 550.51 451.2 550.51Z" fill="#503EAA"/>
<path d="M640.608 550.51C643.536 550.51 645.91 548.14 645.91 545.21C645.91 542.28 643.536 539.9 640.608 539.9C637.679 539.9 635.305 542.28 635.305 545.21C635.305 548.14 637.679 550.51 640.608 550.51Z" fill="#503EAA"/>
<path d="M45.696 205.49L67.001 220.7L95.399 188.17C75.402 186.97 55.005 197.57 45.696 205.49Z" fill="#77A4F2"/>
<path d="M43.905 248.93C47.511 256.63 44.706 265.64 37.507 268.94C28.811 273.05 12.302 271.95 3.11096 267.94C5.91496 258.23 15.707 244.92 24.51 240.92C31.603 237.62 40.299 241.22 43.905 248.93Z" fill="#FF8486"/>
<path d="M174.407 192.17L186.709 186.37L184.305 181.37L172.003 187.17L174.407 192.17Z" fill="#503EAA"/>
<path d="M49.9969 205.98C49.9969 205.98 66.1999 193.17 84.3929 190.87C95.8939 189.38 84.3929 199.28 84.3929 199.28C84.3929 199.28 70.2059 196.28 49.9969 205.98Z" fill="white"/>
<path d="M43.999 207.99C43.599 207.69 43.304 207.39 43.104 206.99C42.903 206.58 42.809 206.09 42.703 205.69C42.703 205.19 42.797 204.79 42.903 204.39C43.104 203.99 43.398 203.59 43.705 203.29C53.803 194.79 68.91 187.98 84.004 185.27H84.299L85.395 191.28H85.1C72.704 193.48 59.895 198.78 50.798 205.49L69.004 218.5L65.504 223.5L43.999 207.99Z" fill="#503EAA"/>
<path d="M84.205 185.47L85.206 190.98C72.61 193.28 59.601 198.68 50.504 205.39L68.804 218.4L65.598 222.91L44.294 207.69C43.999 207.49 43.693 207.09 43.493 206.8C43.292 206.4 43.198 205.99 43.198 205.59C43.198 205.19 43.292 204.79 43.398 204.39C43.599 203.99 43.799 203.69 44.094 203.39C54.004 194.87 69.004 188.17 84.205 185.47ZM84.605 184.87L84.11 184.97C68.91 187.67 53.815 194.47 43.705 202.99C43.304 203.28 43.01 203.68 42.809 204.19C42.609 204.69 42.515 205.19 42.515 205.69C42.515 206.18 42.715 206.69 42.915 207.09C43.116 207.49 43.516 207.89 43.917 208.19L65.221 223.4L65.622 223.7L65.917 223.3L69.122 218.79L69.416 218.39L69.016 218.1L51.317 205.49C60.414 198.98 73.022 193.78 85.218 191.57L85.713 191.48L85.619 190.98L84.617 185.47L84.605 184.87Z" fill="#503EAA"/>
<path d="M198.104 176.26C196.206 172.16 191.305 170.35 187.204 172.36C183.103 174.26 181.3 179.16 183.304 183.27C185.201 187.37 190.103 189.18 194.203 187.17C198.304 185.17 200.001 180.37 198.104 176.26Z" fill="#503EAA"/>
<path d="M52.401 249.33C56.396 256.24 65.799 263.44 65.799 263.44L75.402 242.03L67.401 222.41L47.8999 222.21C41.5959 225.3 48.407 242.42 52.401 249.33Z" fill="#77A4F2"/>
<path d="M69.499 231.01L48.395 239.02L46.792 230.41L67.896 227.51L69.499 231.01Z" fill="white"/>
<path d="M66.3059 265.84C63.2069 265.84 55.111 264.03 47.205 247.32C43.41 239.22 41.8079 232.41 42.6089 227C43.4099 221.29 46.4029 219.39 47.6049 218.79C50.0089 217.69 57.503 217.49 60.602 217.49C62.9 217.49 65.198 217.59 67.201 217.69H67.4959L67.0949 223.8H66.8009C64.7969 223.71 62.7 223.6 60.602 223.6C55.1 223.6 50.9989 224 50.1979 224.3C49.3019 224.7 45.8019 230.1 52.8019 244.72C59.7069 259.33 65.7049 259.73 66.3999 259.73C66.6939 259.73 66.8949 259.64 67.0009 259.64C68.0969 259.03 73.305 253.63 78.007 247.12L78.2069 246.92L83.1089 250.53L82.9089 250.73C79.1139 255.93 72.4089 263.85 69.6049 265.14C68.6029 265.64 67.4959 265.84 66.3059 265.84Z" fill="#503EAA"/>
<path d="M60.697 217.8C62.995 217.8 65.292 217.9 67.201 218L66.907 223.6C64.703 223.51 62.606 223.4 60.602 223.4C55.206 223.4 50.9989 223.8 50.1029 224.1C48.9019 224.7 45.508 230.21 52.507 244.92C58.611 257.83 64.2079 260.13 66.3059 260.13C66.5999 260.13 66.8009 260.13 67.0009 260.04C68.0969 259.34 73.399 253.93 78.101 247.43L82.602 250.73C78.808 255.93 72.1029 263.85 69.4049 265.14C68.6029 265.54 67.5079 265.84 66.3059 265.84C61.5099 265.84 54.3099 261.93 47.4049 247.52C38.8029 229.41 43.505 221.2 47.7 219.3C49.703 218.1 55.3 217.8 60.697 217.8ZM60.697 217.29C57.598 217.29 49.9969 217.39 47.5939 218.59C43.2929 220.6 38.2959 229.01 47.0989 247.52C54.9939 264.34 63.3009 266.13 66.3999 266.13C67.6019 266.13 68.8039 265.93 69.6989 265.44C72.5979 264.03 79.397 255.93 83.097 250.92L83.3919 250.52L82.9909 250.22L78.49 246.92L78.089 246.63L77.795 247.03C72.999 253.63 67.79 258.94 66.895 259.54C66.895 259.54 66.801 259.54 66.494 259.54C65.893 259.54 59.99 259.14 53.096 244.63C49.396 236.82 48.7949 231.92 48.9019 229.12C48.9959 225.82 50.1979 224.62 50.5039 224.52C51.1989 224.23 55.3 223.83 60.8029 223.83C62.8999 223.83 64.9979 223.92 67.0009 224.03H67.4959V223.53L67.7899 218.02V217.53H67.295C65.198 217.29 63.006 217.29 60.697 217.29Z" fill="#503EAA"/>
<path d="M67.1069 220.7L80.4099 248.93C106.016 257.63 169.705 239.71 171.909 188.37C130.796 157.54 76.6039 195.38 67.1069 220.7Z" fill="#C0DBFF"/>
<path d="M135.899 240.72C107.3 254.23 81.695 254.33 81.695 254.33L72.692 235.32C127.297 229.21 166.795 195.67 169.894 188.67C167.396 205.49 164.497 227.2 135.899 240.72Z" fill="#77A4F2"/>
<path d="M108.396 185.37C79.397 199.08 67.401 219.3 67.401 219.3L71.196 227.31C77.9 216.89 86.597 205.78 113.993 192.88C141.39 179.97 159.088 186.88 170.094 191.38C163.201 181.86 137.407 171.65 108.396 185.37Z" fill="white"/>
<path d="M95.1039 254.03C89.1069 254.03 83.7099 253.23 79.4089 251.83L78.5129 251.53L77.912 250.84C74.613 246.53 71.7139 241.83 69.3099 236.92C65.1149 228.01 64.0079 221.5 64.0079 221.21L63.9139 220.41L64.2079 219.61C69.9109 204.39 91.31 184.27 117.21 176.77C124.009 174.76 130.808 173.76 137.407 173.76C150.711 173.76 163.012 177.87 173.712 185.97L175.008 186.97L174.914 188.57C173.818 214 158.617 229.51 146.115 238.12C142.321 240.73 138.314 243.03 134.119 244.93C121.9 250.73 107.701 254.03 95.1039 254.03ZM82.2019 246.32C85.8069 247.42 90.4029 248.02 95.3049 248.02C111.307 248.02 129.005 242.42 142.71 233.11C153.715 225.61 167.207 211.99 168.81 189.97C159.407 183.36 148.908 179.95 137.407 179.95C131.409 179.95 125.211 180.85 119.001 182.65C94.7979 189.77 75.803 207.68 70.3 221.09C71.302 225.69 72.9039 230.2 74.8959 234.41C76.8989 238.51 79.3969 242.52 82.2019 246.32Z" fill="#503EAA"/>
<path d="M137.407 173.96C148.707 173.96 161.41 176.97 173.606 186.07L174.808 186.97L174.713 188.47C173.618 213.79 158.511 229.3 146.009 237.82C142.215 240.42 138.208 242.72 134.108 244.62C121.004 250.82 106.911 253.73 95.21 253.73C89.213 253.73 83.8159 252.92 79.6089 251.52L78.808 251.23L78.313 250.53C75.014 246.22 72.1149 241.52 69.7109 236.61C65.5159 227.8 64.515 221.2 64.408 221L64.3139 220.3L64.6089 219.61C70.3119 204.5 91.6049 184.38 117.41 176.86C122.996 175.26 129.901 173.96 137.407 173.96ZM95.3049 248.23C109.504 248.23 127.803 243.52 142.804 233.22C153.998 225.51 167.502 211.8 168.998 189.67C158.299 182.06 147.199 179.56 137.301 179.56C130.396 179.56 124.103 180.77 118.801 182.26C95.1039 189.18 75.6029 207.09 69.8999 220.9C70.9009 225.5 72.504 230.01 74.601 234.31C76.699 238.62 79.1969 242.62 82.0949 246.52C85.8069 247.72 90.2969 248.23 95.3049 248.23ZM137.407 173.45V173.95V173.45C130.808 173.45 124.009 174.46 117.104 176.46C91.2039 183.96 69.6989 204.28 63.9019 219.5L63.6069 220.19V220.29V220.38L63.701 221.08C63.701 221.37 64.7969 227.88 69.0039 236.9C71.4079 241.8 74.401 246.51 77.7 250.91L78.1949 251.6L78.2889 251.7H78.49L79.291 251.99C83.592 253.49 89.095 254.2 95.093 254.2C107.689 254.2 121.994 250.9 134.296 245.09C138.491 243.09 142.497 240.79 146.292 238.18C158.888 229.57 174.089 213.96 175.197 188.43L175.291 186.94V186.64L175.09 186.44L173.889 185.54C163.107 177.56 150.805 173.45 137.407 173.45ZM70.5009 221C76.0029 207.68 94.9039 189.87 119.001 182.87C125.199 181.06 131.397 180.17 137.407 180.17C148.802 180.17 159.312 183.47 168.61 190.07C167.007 211.89 153.609 225.41 142.71 232.91C129.1 242.21 111.401 247.83 95.5049 247.83C90.6029 247.83 86.208 247.23 82.602 246.22C79.798 242.52 77.406 238.42 75.296 234.31C73.105 230.01 71.5019 225.5 70.5009 221Z" fill="#503EAA"/>
<path d="M64.397 278.35C79.491 277.86 129.594 255.64 141.401 217.69C104.696 242.12 75.002 241.01 75.002 241.01L64.397 278.35Z" fill="#77A4F2"/>
<path d="M123.396 232.21C123.396 232.21 113.592 254.83 69.994 274.55C88.494 273.35 128.793 255.34 137.195 225.81C138.503 221.2 123.396 232.21 123.396 232.21Z" fill="white"/>
<path d="M64.3969 281.36C63.9959 281.36 63.501 281.27 63.1 281.07C62.7 280.86 62.2989 280.57 62.0049 280.17C61.7099 279.77 61.51 279.37 61.404 278.87C61.298 278.38 61.309 277.87 61.498 277.47L72.1029 240.14C72.3029 239.54 72.7039 238.94 73.1989 238.54C73.6939 238.13 74.401 237.93 75.002 237.93C76.204 237.93 104.602 237.53 141.001 217.32C141.496 217.12 142.003 216.92 142.497 216.92C142.592 216.92 142.698 216.92 142.792 216.92C143.393 217.01 143.994 217.21 144.489 217.61C144.984 218.01 145.29 218.51 145.49 219.11C145.691 219.71 145.691 220.31 145.49 220.91C138.786 242.53 120.486 257.35 106.287 265.85C102.292 268.26 98.192 270.45 93.985 272.46C82.897 277.66 71.3019 281.16 64.3969 281.36ZM68.6029 274.76C86.0079 271.65 123.102 254.54 136.7 226.5C107.3 241.32 84.099 243.62 77.406 243.93L68.6029 274.76Z" fill="#503EAA"/>
<path d="M142.497 217.2C142.592 217.2 142.698 217.2 142.698 217.2C143.299 217.2 143.794 217.49 144.194 217.8C144.595 218.2 144.889 218.6 145.09 219.2C145.29 219.7 145.29 220.3 145.09 220.81C138.385 242.33 120.191 257.04 106.087 265.65C102.092 268.06 98.086 270.25 93.891 272.25C81.895 277.96 70.795 281.07 64.491 281.27H64.397C63.996 281.27 63.595 281.17 63.195 280.97C62.794 280.77 62.5 280.48 62.193 280.17C61.899 279.87 61.698 279.47 61.698 278.97C61.604 278.56 61.604 278.07 61.793 277.67L72.398 240.34C72.598 239.74 72.893 239.24 73.399 238.84C73.894 238.44 74.495 238.24 75.096 238.24C75.391 238.24 104.401 238.04 141.295 217.52C141.602 217.29 142.002 217.2 142.497 217.2ZM137.207 225.9C107.512 241.01 84.11 243.32 77.111 243.72L68.214 275.16C85.206 272.24 123.597 255.04 137.207 225.9ZM142.497 216.6C141.896 216.6 141.402 216.69 140.895 217C104.496 237.21 76.192 237.62 74.99 237.62C74.295 237.62 73.588 237.82 72.987 238.31C72.386 238.71 71.985 239.31 71.785 240.01L61.18 277.34C61.085 277.83 60.979 278.34 61.086 278.84C61.192 279.33 61.38 279.84 61.686 280.24C61.981 280.64 62.382 280.94 62.888 281.24C63.289 281.44 63.784 281.54 64.291 281.54H64.385C71.384 281.34 82.685 277.83 93.985 272.53C98.18 270.52 102.28 268.33 106.287 265.92C120.486 257.31 138.786 242.5 145.585 220.78C145.785 220.18 145.785 219.49 145.585 218.89C145.384 218.28 144.984 217.68 144.489 217.28C143.994 216.88 143.393 216.59 142.686 216.59C142.698 216.6 142.603 216.6 142.497 216.6ZM77.5 244.22C84.405 243.82 107.194 241.41 136.005 227.11C122.301 254.43 86.302 271.25 68.91 274.45L77.5 244.22Z" fill="#503EAA"/>
<path d="M126.201 169.95C118 166.94 108.903 167.35 100.996 171.05C93.101 174.75 86.997 181.46 83.993 189.66C80.988 197.87 81.388 206.97 85.088 214.89C92.783 231.4 152.384 203.48 144.689 187.07C141.107 179.06 134.402 172.96 126.201 169.95Z" fill="#77A4F2"/>
<path d="M136.5 192.68C133.295 185.97 127.603 180.87 120.698 178.36C113.793 175.86 106.193 176.16 99.5939 179.26C92.9949 182.36 87.893 187.96 85.395 194.87C82.897 201.78 83.191 209.39 86.196 216.2C92.701 230.21 143.098 206.69 136.5 192.68Z" fill="#503EAA"/>
<path d="M96.1059 222.91C89.2009 222.91 84.4049 220.61 82.3079 216.1C78.3129 207.4 77.8059 197.68 81.1059 188.68C84.3109 179.67 90.9089 172.46 99.5109 168.36L99.6059 168.27C103.907 166.26 108.502 165.16 113.204 164.96C113.699 164.96 114.3 164.96 114.806 164.96C119.001 164.96 123.102 165.66 127.108 167.17C131.61 168.77 135.604 171.27 139.104 174.47C142.604 177.68 145.408 181.47 147.399 185.78C152.195 196.09 138.303 208.4 122.301 215.9L121.9 216.1C112.603 220.4 103.2 222.91 96.1059 222.91ZM114.901 171.06C110.505 171.06 106.299 171.96 102.304 173.87L102.21 173.96C95.0099 177.37 89.6129 183.37 86.9149 190.87C84.2159 198.38 84.6169 206.49 87.9159 213.7C88.9179 215.8 91.7109 217 96.1179 217C102.316 217 110.824 214.7 119.414 210.69L119.814 210.49C134.815 203.38 144.512 193.67 142.014 188.36C138.609 181.16 132.611 175.65 125.117 172.95C121.806 171.65 118.4 171.06 114.901 171.06Z" fill="#503EAA"/>
<path d="M114.901 165.25C119.096 165.25 123.196 165.94 127.097 167.35C131.492 168.95 135.592 171.45 138.998 174.55C142.497 177.76 145.302 181.56 147.199 185.77C151.995 195.98 138.102 208.08 122.195 215.6L121.794 215.8C112.992 219.9 103.589 222.6 95.988 222.6C89.684 222.6 84.688 220.7 82.484 216C78.49 207.39 78.089 197.68 81.282 188.78C84.488 179.87 91.086 172.66 99.582 168.56L99.676 168.47C103.871 166.46 108.479 165.36 113.18 165.16C113.899 165.25 114.406 165.25 114.901 165.25ZM96.106 217.09C102.104 217.09 110.611 214.89 119.508 210.78L119.909 210.58C135.003 203.47 144.807 193.67 142.203 188.16C138.797 180.96 132.705 175.35 125.199 172.55C121.9 171.34 118.4 170.74 114.901 170.74C110.505 170.74 106.204 171.64 102.198 173.55L102.104 173.64C94.904 177.05 89.307 183.15 86.609 190.66C83.91 198.16 84.311 206.37 87.61 213.68C88.706 216 91.805 217.09 96.106 217.09ZM114.901 164.64C114.406 164.64 113.805 164.64 113.298 164.64C108.502 164.84 103.895 165.94 99.594 168.05L99.5 168.15C90.803 172.25 84.205 179.55 80.905 188.67C77.606 197.79 78.101 207.59 82.107 216.29C84.205 220.8 89.107 223.2 96.106 223.2C103.211 223.2 112.709 220.7 122.1 216.29L122.501 216.09C138.597 208.48 152.702 196.08 147.8 185.57C145.797 181.26 143.004 177.36 139.398 174.16C135.899 170.95 131.798 168.45 127.297 166.86C123.302 165.45 119.202 164.64 114.901 164.64ZM96.106 216.6C91.911 216.6 89.107 215.5 88.105 213.5C84.806 206.38 84.405 198.28 87.103 190.87C89.802 183.47 95.199 177.46 102.304 174.16L102.398 174.07C106.299 172.26 110.6 171.26 114.901 171.26C118.4 171.26 121.806 171.86 124.999 173.07C132.399 175.77 138.397 181.17 141.696 188.37C142.792 190.78 141.296 194.38 137.301 198.39C133.2 202.49 126.896 206.69 119.602 210.1L119.202 210.3C110.706 214.3 102.304 216.6 96.106 216.6Z" fill="#503EAA"/>
<path d="M66.3999 264.14C62.9939 264.64 56.301 252.23 58.705 255.04C61.109 257.84 67.602 252.53 70.501 246.43C70.607 246.43 69.8049 263.74 66.3999 264.14Z" fill="#503EAA"/>
<path d="M519.002 119.91L476.004 177.67C470.301 185.27 481.602 203.39 501.304 218C520.899 232.72 541.509 238.32 547.2 230.72L590.304 172.96C596.007 165.35 584.707 147.24 565.005 132.62C545.303 118.01 524.599 112.3 519.002 119.91Z" fill="#C0DBFF"/>
<path d="M591.532 173.87C597.212 166.25 585.664 148.01 565.739 133.14C545.814 118.27 525.057 112.4 519.377 120.02C513.697 127.64 525.245 145.88 545.17 160.75C565.095 175.62 585.852 181.5 591.532 173.87Z" fill="white"/>
<path d="M345.903 74.2699L386.203 20.2099C388.607 16.9999 393.108 16.4099 396.301 18.7099L503.001 98.3799C506.206 100.79 506.795 105.3 504.497 108.49L464.198 162.55C461.794 165.75 457.292 166.34 454.099 164.04L347.4 84.3699C344.207 81.8699 343.5 77.3699 345.903 74.2699Z" fill="#C0DBFF"/>
<path d="M393.273 32.5801L351.966 88.0301L460.283 168.87L501.59 113.42L393.273 32.5801Z" fill="#77A4F2"/>
<path d="M562.908 236.52L602.806 182.47C605.21 179.26 609.605 178.67 612.811 180.97L719.411 259.94C722.621 262.35 723.211 266.75 720.911 269.96L681.011 324.01C678.611 327.22 674.211 327.81 671.011 325.51L564.404 246.53C561.199 244.22 560.504 239.71 562.908 236.52Z" fill="#C0DBFF"/>
<path d="M613.01 196.61L572.023 252.04L680.221 332.19L721.201 276.75L613.01 196.61Z" fill="#77A4F2"/>
<path d="M480.6 203.99L525.401 143.83L515.597 128.12L470.796 188.27L480.6 203.99Z" fill="white"/>
<path d="M558.406 169.66L517.306 224.91L540.908 231.92C540.908 231.92 552.409 222.91 556.109 217.4C559.809 211.89 584.412 179.56 584.412 179.56L558.406 169.66Z" fill="#77A4F2"/>
<path d="M507.997 111.2L467.697 165.26C463.797 170.46 456.503 171.57 451.295 167.66L344.595 87.99C339.399 84.09 338.291 76.78 342.192 71.58L382.491 17.52C386.391 12.32 393.685 11.21 398.894 15.12L505.593 94.79C510.801 98.58 511.897 105.9 507.997 111.2C508.103 111.2 507.997 111.2 507.997 111.2ZM349.497 76.9701C348.602 78.1701 348.896 79.77 349.992 80.67L456.692 160.34C457.893 161.24 459.496 161.04 460.392 159.84L500.691 105.79C501.586 104.59 501.292 102.98 500.196 102.09L393.497 22.3101C392.295 21.4101 390.692 21.6201 389.797 22.8101L349.497 76.9701Z" fill="#503EAA"/>
<path d="M593.804 175.75L586.498 170.35C589.503 166.25 581.396 150.63 562.2 136.33C543.005 122.01 525.695 118.61 522.596 122.72L515.291 117.31C523.786 105.8 548.096 114.61 567.586 129.12C587.099 143.53 602.3 164.26 593.804 175.75Z" fill="#503EAA"/>
<path d="M588.838 165.55C592.864 160.15 583.711 146.5 568.392 135.07C553.074 123.64 537.392 118.75 533.366 124.15C529.339 129.56 538.493 143.21 553.811 154.64C569.129 166.07 584.811 170.96 588.838 165.55Z" fill="#C0DBFF"/>
<path d="M593.804 175.75C585.308 187.27 560.999 178.46 541.509 163.95C522.019 149.44 506.807 128.72 515.314 117.21L522.62 122.61C519.615 126.61 527.816 142.33 546.917 156.64C566.113 170.95 583.517 174.26 586.522 170.35L593.804 175.75Z" fill="#503EAA"/>
<path d="M510.601 189.58C504.803 184.58 499.701 178.76 495.6 172.26L486.504 184.47C490.699 190.87 495.707 196.68 501.504 201.69L510.601 189.58Z" fill="#503EAA"/>
<path d="M484.006 202.08L463.608 212.39C463.608 212.39 461.911 223 472.705 234.01C483.511 245.02 493.008 248.91 493.008 248.91L510.707 225.2L484.006 202.08Z" fill="#C0DBFF"/>
<path d="M522.502 173.56C516.705 168.56 511.602 162.75 507.407 156.25L502.211 163.16C506.406 169.56 511.414 175.37 517.211 180.38L522.502 173.56Z" fill="#503EAA"/>
<path d="M506.406 223.2L490.404 247.32C490.404 247.32 492.006 249.53 501.798 253.03C511.602 256.53 522.903 256.53 525.495 250.02C528.099 243.51 527.698 235.41 523.398 232.11C519.097 228.81 506.406 223.2 506.406 223.2Z" fill="#77A4F2"/>
<path d="M485.396 206.29L464.398 222.4L463.502 203.88L479.905 199.78L485.396 206.29Z" fill="white"/>
<path d="M593.804 175.75L550.806 233.51C542.31 245.02 518.001 236.21 498.511 221.7C479.009 207.19 463.809 186.48 472.316 174.96L515.42 117.21C523.916 105.7 548.225 114.51 567.715 129.01C587.099 143.53 602.3 164.26 593.804 175.75ZM479.504 180.46C476.499 184.46 484.701 200.18 503.802 214.49C522.997 228.8 540.307 232.2 543.3 228.1L586.404 170.34C589.408 166.24 581.301 150.62 562.106 136.31C542.911 122 525.601 118.6 522.608 122.7L479.504 180.46Z" fill="#503EAA"/>
<path d="M572.806 152.04C569.106 157.04 559.608 156.34 551.607 150.43C543.606 144.52 540.213 135.62 544.007 130.51L548.803 124.11C553.104 128.31 557.605 132.32 562.401 136.02C569.306 141.13 571.698 142.33 577.401 146.03L572.806 152.04Z" fill="#503EAA"/>
<path d="M525.106 202.28L519.804 209.49C517.907 212.09 519.108 216 522.608 218.19C526.108 220.38 530.409 220.09 532.412 217.49L537.809 210.29C539.706 207.68 538.504 203.78 535.004 201.58C531.505 199.38 527.003 199.69 525.106 202.28Z" fill="#503EAA"/>
<path d="M548.951 194.09C550.288 191.35 548.398 187.68 544.728 185.88C541.058 184.08 536.999 184.83 535.662 187.57C534.324 190.3 536.215 193.97 539.884 195.77C543.554 197.57 547.613 196.82 548.951 194.09Z" fill="#503EAA"/>
<path d="M529.207 252.83C521.006 263.85 499.406 261.04 480.011 246.63C460.615 232.11 451.813 212.2 459.908 201.18C462.312 197.98 475.003 193.68 479.905 192.97L481.107 201.99C476.205 202.99 471.409 204.69 466.908 206.99C463.113 213.1 469.606 227.6 485.313 239.31C501.115 251.12 516.811 253.12 521.512 247.82C522.514 242.82 522.714 237.8 522.314 232.8L531.316 231.4C532.106 236.32 531.599 249.62 529.207 252.83Z" fill="#503EAA"/>
<path d="M368.324 44.51L364.26 49.96L482.515 138.22L486.579 132.77L368.324 44.51Z" fill="#503EAA"/>
<path d="M417.556 34.46L368.711 100.02L374.162 104.09L423.006 38.53L417.556 34.46Z" fill="#503EAA"/>
<path d="M447.099 56.47L398.255 122.04L403.706 126.11L452.55 60.5399L447.099 56.47Z" fill="#503EAA"/>
<path d="M476.676 78.6301L427.832 144.2L433.283 148.26L482.127 82.7001L476.676 78.6301Z" fill="#503EAA"/>
<path d="M728.301 275.55L688.001 329.6C684.101 334.8 676.811 335.91 671.601 332L564.899 252.33C559.702 248.43 558.701 241.12 562.495 235.92L602.795 181.86C606.695 176.66 613.989 175.55 619.197 179.46L725.901 259.13C731.101 263.04 732.201 270.34 728.301 275.55C728.411 275.55 728.301 275.55 728.301 275.55ZM569.801 241.43C568.905 242.63 569.106 244.23 570.296 245.13L676.991 324.8C678.201 325.69 679.801 325.49 680.691 324.3L720.991 270.25C721.891 269.05 721.691 267.44 720.501 266.55L613.8 186.77C612.598 185.87 610.996 186.07 610.1 187.27L569.801 241.43Z" fill="#503EAA"/>
<path d="M588.666 208.93L584.602 214.39L702.861 302.65L706.921 297.19L588.666 208.93Z" fill="#503EAA"/>
<path d="M633.92 196.58L585.439 262.14L590.904 266.19L639.385 200.63L633.92 196.58Z" fill="#503EAA"/>
<path d="M663.391 218.47L614.911 284.03L620.376 288.08L668.861 222.52L663.391 218.47Z" fill="#503EAA"/>
<path d="M697.021 243.03L648.181 308.6L653.631 312.67L702.481 247.1L697.021 243.03Z" fill="#503EAA"/>
<path d="M491.572 130.83L482.07 143.58L493.292 151.96L502.795 139.2L491.572 130.83Z" fill="#503EAA"/>
<path d="M577.683 195.06L568.181 207.81L579.403 216.19L588.906 203.43L577.683 195.06Z" fill="#503EAA"/>
<path d="M537.302 43.74C518.001 69.56 529.407 110.7 562.802 135.52C596.102 160.35 638.699 159.64 658.001 133.72C666.901 121.81 646.994 92.09 613.694 67.15C580.3 42.34 546.104 31.83 537.302 43.74Z" fill="#C0DBFF"/>
<path d="M563.803 131.82C545.798 116.41 544.007 92.6901 545.503 78.2701L530.798 55.5601C530.798 55.6501 519.297 103.89 563.803 131.82Z" fill="white"/>
<path d="M565.901 133.43C585.803 146.23 609.005 141.23 622.402 135.72L648.302 143.33C648.196 143.33 605.399 168.05 565.901 133.43Z" fill="#77A4F2"/>
<path d="M661.501 136.53C649.304 152.84 609.794 137.13 578.804 113.91C547.801 90.79 521.406 57.35 533.508 41.04L540.814 46.4401C535.311 53.9401 549.109 80.3701 584.212 106.59C619.315 132.81 648.609 138.52 654.221 131.02L661.501 136.53Z" fill="#503EAA"/>
<path d="M650.941 137.1C658.171 127.39 641.995 103.07 614.807 82.7801C587.62 62.4901 559.717 53.9101 552.485 63.6201C545.253 73.3301 561.429 97.6501 588.617 117.94C615.804 138.23 643.707 146.81 650.941 137.1Z" fill="#503EAA"/>
<path d="M661.501 136.53C640.796 164.35 595.194 165.55 559.997 139.23C524.694 112.9 512.899 68.8601 533.602 41.0401C545.798 24.7301 585.308 40.4401 616.298 63.6601C647.301 86.6701 673.711 120.11 661.501 136.53ZM540.896 46.4401C523.197 70.2701 534.191 108.6 565.394 131.92C596.596 155.23 636.495 154.83 654.191 131.02C659.791 123.52 645.898 97.0901 610.796 70.8701C575.704 44.6401 546.399 38.9301 540.896 46.4401Z" fill="#503EAA"/>
<path d="M645.85 18.51L544.637 34.75L546.077 43.74L647.29 27.5L645.85 18.51Z" fill="#503EAA"/>
<path d="M650.901 22.1501L641.884 23.3301L655.191 125.04L664.211 123.86L650.901 22.1501Z" fill="#503EAA"/>
<path d="M645.09 17.7L580.883 103.89L588.176 109.33L652.381 23.14L645.09 17.7Z" fill="#503EAA"/>
<path d="M651.901 31.63C660.621 31.63 667.701 24.55 667.701 15.81C667.701 7.08 660.621 0 651.901 0C643.169 0 636.095 7.08 636.095 15.81C636.095 24.55 643.169 31.63 651.901 31.63Z" fill="#77A4F2"/>
<path d="M1018.7 311.18C1027.04 311.18 1033.8 304.41 1033.8 296.07C1033.8 287.72 1027.04 280.96 1018.7 280.96C1010.37 280.96 1003.61 287.72 1003.61 296.07C1003.61 304.41 1010.37 311.18 1018.7 311.18Z" fill="#503EAA"/>
<path d="M929.601 298.27C947.801 316.5 989.491 310.19 1019.09 280.65C1048.69 251.03 1055 209.29 1036.79 191.08C1028.39 182.67 997.691 199.89 968.091 229.51C938.491 259.14 921.211 289.86 929.601 298.27Z" fill="#C0DBFF"/>
<path d="M998.631 260.4C1028.37 231.31 1045.6 200.68 1037.11 191.98C1028.62 183.28 997.621 199.81 967.881 228.9C938.141 257.99 920.911 288.63 929.401 297.32C937.891 306.02 968.891 289.49 998.631 260.4Z" fill="#77A4F2"/>
<path d="M1018.1 277.46C1034 259.43 1033.6 236.52 1030.8 223.2L1042.91 198.88C1042.91 198.78 1058.4 242.42 1018.1 277.46Z" fill="white"/>
<path d="M1016.2 279.25C998.201 295.16 975.301 294.76 962.001 291.96L937.701 304.08C937.701 304.18 981.301 319.6 1016.2 279.25Z" fill="#77A4F2"/>
<path d="M1001.46 262.64C1020.59 243.49 1030.57 222.42 1023.74 215.58C1016.91 208.74 995.861 218.72 976.721 237.86C957.581 257.01 947.601 278.07 954.431 284.92C961.261 291.76 982.321 281.78 1001.46 262.64Z" fill="#503EAA"/>
<path d="M958.101 312.08C945.301 312.08 934.401 308.18 927.001 300.77C924.911 298.67 923.901 295.77 923.801 292.16C923.801 278.15 940.501 251.92 965.391 227C979.901 212.48 995.191 200.38 1008.5 192.97C1023.2 184.77 1033.8 183.27 1039.1 188.58C1048.8 198.28 1052.4 214.2 1049.1 232.21C1045.8 250.53 1035.91 268.55 1021.4 283.16C1006.8 297.68 988.801 307.59 970.501 310.89C966.301 311.68 962.111 312.08 958.101 312.08ZM1030.5 192.48C1026.89 192.48 1020.8 194.18 1012 199.08C999.301 206.2 984.601 217.9 970.501 231.92C958.801 243.63 948.701 255.84 941.501 267.15C934.791 277.56 931.001 286.67 931.001 292.07C931.001 293.77 931.401 294.97 932.091 295.68C940.101 303.69 953.691 306.69 969.391 303.78C986.291 300.68 1002.98 291.57 1016.49 278.06C1029.99 264.54 1039.18 247.73 1042.29 230.92C1045.19 215.21 1042.2 201.58 1034.2 193.59C1033.5 192.88 1032.3 192.48 1030.5 192.48Z" fill="#503EAA"/>
<path d="M990.911 267.75L949.701 217.9L956.301 211.29L1006.31 252.33L990.911 267.75Z" fill="#C0DBFF"/>
<path d="M990.911 267.75L949.701 217.9L953.001 214.59L998.511 260.14L990.911 267.75Z" fill="#77A4F2"/>
<path d="M936.301 304.18C932.401 304.18 929.301 303.09 927.001 300.77C925.601 299.37 925.601 297.16 927.001 295.77C928.411 294.38 930.611 294.37 932.001 295.77C932.801 296.67 934.301 297.07 936.191 297.07C941.991 297.07 950.901 293.37 961.491 286.76C972.691 279.65 984.791 269.74 996.401 258.14C1010.5 244.02 1022.1 229.21 1029 216.4C1033.5 208.09 1037.5 197.18 1034.1 193.68C1032.7 192.28 1032.7 190.07 1034.1 188.68C1035.51 187.29 1037.71 187.28 1039.1 188.68C1044.6 194.19 1043.29 204.99 1035.2 219.91C1027.89 233.32 1015.9 248.74 1001.4 263.35C977.001 287.66 950.811 304.18 936.301 304.18Z" fill="#503EAA"/>
<path d="M990.911 271.25C990.811 271.25 990.811 271.25 990.711 271.25C989.701 271.25 988.811 270.76 988.101 269.96L946.911 220.21C945.701 218.8 945.811 216.7 947.111 215.41L953.711 208.8C955.001 207.5 957.111 207.4 958.501 208.6L1008.5 249.54C1009.3 250.14 1009.79 251.14 1009.79 252.15C1009.89 253.15 1009.5 254.15 1008.79 254.85L993.391 270.26C992.801 270.95 991.911 271.25 990.911 271.25ZM954.511 218.1L991.111 262.34L1000.91 252.52L956.421 216.09L954.511 218.1Z" fill="#503EAA"/>
<path d="M946.711 221C953.661 221 959.301 215.35 959.301 208.39C959.301 201.43 953.661 195.78 946.711 195.78C939.751 195.78 934.111 201.43 934.111 208.39C934.111 215.35 939.751 221 946.711 221Z" fill="#503EAA"/>
<path d="M1052.7 368.33H984.701L1001.1 313.38C1003.4 305.57 1010.6 300.27 1018.6 300.27C1026.69 300.27 1033.8 305.57 1036.09 313.38L1052.7 368.33Z" fill="#C0DBFF"/>
<path d="M1030.3 307.28C1030.3 307.28 1018.8 304.88 1015.59 314.09C1012.39 323.3 1003.29 357.73 1003.29 357.73H987.291L1001.09 313.29C1001.09 313.29 1004.29 302.27 1011.79 301.08C1019.3 299.88 1025.9 298.87 1030.3 307.28Z" fill="#77A4F2"/>
<path d="M1057.51 371.83H979.901L997.701 312.28C1000.51 302.98 1008.9 296.67 1018.7 296.67C1028.51 296.67 1036.91 302.98 1039.7 312.28L1057.51 371.83ZM989.501 364.73H1047.9L1032.81 314.38C1030.91 308.07 1025.21 303.88 1018.7 303.88C1012.1 303.88 1006.51 308.07 1004.6 314.38L989.501 364.73Z" fill="#503EAA"/>
<path d="M1069.39 359.43H967.201V372.14H1069.39V359.43Z" fill="#C0DBFF"/>
<path d="M996.601 357.73H965.901V373.64H996.601V357.73Z" fill="#77A4F2"/>
<path d="M1071.5 357.73H1053.3V373.64H1071.5V357.73Z" fill="white"/>
<path d="M1069.41 359.43V372.14H967.211V359.43H1069.41ZM1069.41 352.33H967.211C963.311 352.33 960.101 355.53 960.101 359.44V372.15C960.101 376.06 963.311 379.26 967.211 379.26H1069.41C1073.31 379.26 1076.51 376.06 1076.51 372.15V359.44C1076.5 355.43 1073.31 352.33 1069.41 352.33Z" fill="#503EAA"/>
<path d="M1024.41 345.92C1027.11 345.92 1029.31 343.73 1029.31 341.02C1029.31 338.31 1027.11 336.11 1024.41 336.11C1021.7 336.11 1019.5 338.31 1019.5 341.02C1019.5 343.73 1021.7 345.92 1024.41 345.92Z" fill="#8D86EB"/>
<path d="M1024.41 331C1027.11 331 1029.31 328.81 1029.31 326.1C1029.31 323.39 1027.11 321.19 1024.41 321.19C1021.7 321.19 1019.5 323.39 1019.5 326.1C1019.5 328.81 1021.7 331 1024.41 331Z" fill="#FF8486"/>
</g>
<defs>
<clipPath id="clip0_17_213">
<rect width="1129" height="929" fill="white"/>
</clipPath>
</defs>
</svg>
