<svg width="497" height="441" viewBox="0 0 497 441" fill="none" xmlns="http://www.w3.org/2000/svg">
<g clip-path="url(#clip0_29_416)">
<path d="M290.215 287.108C290.215 292.16 286.153 296.225 281.106 296.225H202.405C197.358 296.225 193.296 292.16 193.296 287.108C193.296 282.057 197.358 277.992 202.405 277.992H281.106C286.153 277.992 290.215 282.063 290.215 287.108Z" fill="#6B5EC6"/>
<path d="M278.117 296.225H205.442V422.962H278.117V296.225Z" fill="#6B5EC6"/>
<path d="M227.253 296.225H205.442V422.962H227.253V296.225Z" fill="#5E4FB9"/>
<path d="M278.118 296.225H256.307V422.962H278.118V296.225Z" fill="#8077DE"/>
<path d="M281.106 277.992H264.805V296.269H281.106C286.153 296.269 290.215 292.204 290.215 287.153C290.215 282.063 286.153 277.992 281.106 277.992Z" fill="#8077DE"/>
<path d="M218.712 277.992H202.41C197.363 277.992 193.302 282.057 193.302 287.108C193.302 292.16 197.363 296.225 202.41 296.225H218.712V277.992Z" fill="#5E4FB9"/>
<path d="M278.117 296.225H205.442V422.962H278.117V296.225Z" stroke="#503EAA" stroke-width="5.9405" stroke-miterlimit="8.4865" stroke-linejoin="round"/>
<path d="M252.664 423.006H245.377V307.727C245.377 305.717 247.012 304.081 249.02 304.081C251.029 304.081 252.664 305.717 252.664 307.727V423.006Z" fill="#503EAA"/>
<path d="M267.193 423.006H259.906V307.727C259.906 305.717 261.541 304.081 263.55 304.081C265.558 304.081 267.193 305.717 267.193 307.727V423.006Z" fill="#503EAA"/>
<path d="M238.14 423.006H230.853V307.727C230.853 305.717 232.488 304.081 234.496 304.081C236.505 304.081 238.14 305.717 238.14 307.727V423.006Z" fill="#503EAA"/>
<path d="M223.616 423.006H216.329V307.727C216.329 305.717 217.964 304.081 219.972 304.081C221.981 304.081 223.616 305.717 223.616 307.727V423.006Z" fill="#503EAA"/>
<path d="M290.215 287.108C290.215 292.16 286.153 296.225 281.106 296.225H202.405C197.358 296.225 193.296 292.16 193.296 287.108C193.296 282.057 197.358 277.992 202.405 277.992H281.106C286.153 277.992 290.215 282.063 290.215 287.108Z" stroke="#503EAA" stroke-width="5.9405" stroke-miterlimit="8.4865" stroke-linejoin="round"/>
<path d="M290.264 423.006H193.302V441.283H290.264V423.006Z" fill="#6B5EC6"/>
<path d="M290.22 423.006H264.81V441.283H290.22V423.006Z" fill="#8077DE"/>
<path d="M218.712 423.006H193.302V441.283H218.712V423.006Z" fill="#5A4AB5"/>
<path d="M290.214 423.006V441.239H193.302V423.006H290.214Z" stroke="#503EAA" stroke-width="5.9405" stroke-miterlimit="8.4865" stroke-linejoin="round"/>
<path d="M493.962 193.891C493.962 198.943 489.9 203.008 484.854 203.008H406.152C401.106 203.008 397.044 198.943 397.044 193.891C397.044 188.84 401.106 184.775 406.152 184.775H484.854C489.851 184.775 493.962 188.846 493.962 193.891Z" fill="#6B5EC6"/>
<path d="M481.816 203.058H409.141V423.012H481.816V203.058Z" fill="#6B5EC6"/>
<path d="M430.952 203.058H409.141V423.012H430.952V203.058Z" fill="#5E4FB9"/>
<path d="M481.816 203.058H460.005V423.012H481.816V203.058Z" fill="#8077DE"/>
<path d="M484.854 184.775H468.552V203.052H484.854C489.901 203.052 493.962 198.987 493.962 193.936C493.962 188.846 489.851 184.775 484.854 184.775Z" fill="#8077DE"/>
<path d="M422.454 184.775H406.152C401.106 184.775 397.044 188.84 397.044 193.891C397.044 198.943 401.106 203.008 406.152 203.008H422.454V184.775Z" fill="#5E4FB9"/>
<path d="M481.816 203.058H409.141V423.012H481.816V203.058Z" stroke="#503EAA" stroke-width="5.9405" stroke-miterlimit="8.4865" stroke-linejoin="round"/>
<path d="M456.361 423.006H449.075V214.505C449.075 212.494 450.709 210.858 452.718 210.858C454.727 210.858 456.361 212.494 456.361 214.505V423.006Z" fill="#503EAA"/>
<path d="M470.935 423.006H463.648V214.505C463.648 212.494 465.283 210.858 467.291 210.858C469.3 210.858 470.935 212.494 470.935 214.505V423.006Z" fill="#503EAA"/>
<path d="M441.838 423.006H434.551V214.505C434.551 212.494 436.185 210.858 438.194 210.858C440.203 210.858 441.838 212.494 441.838 214.505V423.006Z" fill="#503EAA"/>
<path d="M427.314 423.006H420.027V214.505C420.027 212.494 421.661 210.858 423.67 210.858C425.679 210.858 427.314 212.494 427.314 214.505V423.006Z" fill="#503EAA"/>
<path d="M493.962 193.891C493.962 198.943 489.9 203.008 484.854 203.008H406.152C401.106 203.008 397.044 198.943 397.044 193.891C397.044 188.84 401.106 184.775 406.152 184.775H484.854C489.851 184.775 493.962 188.846 493.962 193.891Z" stroke="#503EAA" stroke-width="5.9405" stroke-miterlimit="8.4865" stroke-linejoin="round"/>
<path d="M493.962 423.006H397V441.283H493.962V423.006Z" fill="#6B5EC6"/>
<path d="M493.918 423.006H468.508V441.283H493.918V423.006Z" fill="#8077DE"/>
<path d="M422.41 423.006H397V441.283H422.41V423.006Z" fill="#5A4AB5"/>
<path d="M493.962 423.006V441.289H397V423.006H493.962Z" stroke="#503EAA" stroke-width="5.9405" stroke-miterlimit="8.4865" stroke-linejoin="round"/>
<path d="M426.429 198.144C428.817 198.144 430.809 196.188 430.809 193.872C430.809 191.556 428.817 189.612 426.429 189.612C424.065 189.612 422.049 191.556 422.049 193.872C422.049 196.188 424.065 198.144 426.429 198.144ZM426.429 196.536C425.049 196.536 423.873 195.312 423.873 193.872C423.873 192.444 425.049 191.22 426.429 191.22C427.821 191.22 428.997 192.444 428.997 193.872C428.997 195.312 427.821 196.536 426.429 196.536ZM439.083 198L437.055 195.12C438.183 194.724 438.927 193.764 438.927 192.54C438.927 190.908 437.607 189.756 435.819 189.756H432.111V198H433.875V195.324H435.183L437.067 198H439.083ZM433.875 191.376H435.627C436.503 191.376 437.103 191.832 437.103 192.54C437.103 193.248 436.503 193.704 435.627 193.704H433.875V191.376ZM446.292 198H448.284L444.924 189.756H442.944L439.584 198H441.564L442.092 196.704H445.764L446.292 198ZM442.704 195.204L443.928 192.192L445.152 195.204H442.704ZM453.311 198.144C454.559 198.144 455.711 197.604 456.515 196.764L455.231 195.612C454.751 196.164 454.067 196.536 453.311 196.536C451.931 196.536 450.755 195.312 450.755 193.872C450.755 192.444 451.931 191.22 453.311 191.22C454.067 191.22 454.751 191.592 455.231 192.144L456.515 190.992C455.711 190.14 454.559 189.612 453.311 189.612C450.947 189.612 448.931 191.556 448.931 193.872C448.931 196.188 450.947 198.144 453.311 198.144ZM459.327 196.404V189.756H457.551V198H463.431V196.404H459.327ZM470.92 191.352V189.756H464.572V198H470.92V196.404H466.348V194.592H470.488V192.996H466.348V191.352H470.92Z" fill="#86D4C9"/>
<path d="M99.9621 174.303C99.9621 179.354 95.9005 183.419 90.8537 183.419H12.1524C7.10559 183.419 3.04395 179.354 3.04395 174.303C3.04395 169.251 7.10559 165.186 12.1524 165.186H90.8537C95.9005 165.191 99.9621 169.257 99.9621 174.303Z" fill="#6B5EC6"/>
<path d="M87.8208 183.419H15.146V423.215H87.8208V183.419Z" fill="#6B5EC6"/>
<path d="M36.9567 183.419H15.146V423.215H36.9567V183.419Z" fill="#5E4FB9"/>
<path d="M87.8156 183.419H66.0049V423.215H87.8156V183.419Z" fill="#8077DE"/>
<path d="M90.8534 165.142H74.5518V183.419H90.8534C95.9002 183.419 99.9619 179.354 99.9619 174.303C99.9619 169.257 95.8507 165.142 90.8534 165.142Z" fill="#8077DE"/>
<path d="M28.454 165.142H12.1524C7.10558 165.142 3.04395 169.207 3.04395 174.259C3.04395 179.31 7.10558 183.375 12.1524 183.375H28.454V165.142Z" fill="#5E4FB9"/>
<path d="M87.8208 183.419H15.146V423.215H87.8208V183.419Z" stroke="#503EAA" stroke-width="5.9405" stroke-miterlimit="8.4865" stroke-linejoin="round"/>
<path d="M62.4113 423.265H55.1245V194.872C55.1245 192.861 56.7591 191.225 58.7679 191.225C60.7767 191.225 62.4113 192.861 62.4113 194.872V423.265Z" fill="#503EAA"/>
<path d="M76.9352 423.265H69.6484V194.872C69.6484 192.861 71.283 191.225 73.2918 191.225C75.3006 191.225 76.9352 192.861 76.9352 194.872V423.265Z" fill="#503EAA"/>
<path d="M47.8373 423.265H40.6001V194.872C40.6001 192.861 42.2347 191.225 44.2435 191.225C46.2523 191.225 47.8869 192.861 47.8869 194.872V423.265H47.8373Z" fill="#503EAA"/>
<path d="M33.3136 423.265H26.0269V194.872C26.0269 192.861 27.6614 191.225 29.6702 191.225C31.679 191.225 33.3136 192.861 33.3136 194.872V423.265Z" fill="#503EAA"/>
<path d="M99.9621 174.303C99.9621 179.354 95.9005 183.419 90.8537 183.419H12.1524C7.10559 183.419 3.04395 179.354 3.04395 174.303C3.04395 169.251 7.10559 165.186 12.1524 165.186H90.8537C95.8509 165.191 99.9621 169.257 99.9621 174.303Z" stroke="#503EAA" stroke-width="5.9405" stroke-miterlimit="8.4865" stroke-linejoin="round"/>
<path d="M99.9622 423.265H3V441.542H99.9622V423.265Z" fill="#6B5EC6"/>
<path d="M99.9183 423.265H74.5083V441.542H99.9183V423.265Z" fill="#8077DE"/>
<path d="M28.41 423.265H3V441.542H28.41V423.265Z" fill="#5A4AB5"/>
<path d="M99.9622 423.265V441.498H3V423.265H99.9622Z" stroke="#503EAA" stroke-width="5.9405" stroke-miterlimit="8.4865" stroke-linejoin="round"/>
<path d="M38.7476 178.144C40.9316 178.144 42.4796 176.608 42.4796 174.436V169.756H40.7036V174.364C40.7036 175.636 39.8876 176.536 38.7476 176.536C37.5956 176.536 36.7796 175.636 36.7796 174.364V169.756H35.0156V174.436C35.0156 176.608 36.5516 178.144 38.7476 178.144ZM47.2062 178.144C49.2222 178.144 50.4102 177.1 50.4102 175.528C50.4102 174.004 49.2342 173.476 47.4582 173.08C46.1862 172.792 45.6942 172.6 45.6942 172C45.6942 171.508 46.1502 171.112 46.9062 171.112C47.6982 171.112 48.5262 171.436 49.2582 172.024L50.1822 170.752C49.3422 170.032 48.2982 169.612 46.9542 169.612C45.1542 169.612 43.9062 170.656 43.9062 172.18C43.9062 173.776 45.1422 174.268 46.8822 174.664C48.1422 174.952 48.6222 175.132 48.6222 175.72C48.6222 176.236 48.1662 176.644 47.2782 176.644C46.2342 176.644 45.3462 176.236 44.5662 175.564L43.5462 176.776C44.5062 177.664 45.7782 178.144 47.2062 178.144ZM58.0279 171.352V169.756H51.6799V178H58.0279V176.404H53.4559V174.592H57.5959V172.996H53.4559V171.352H58.0279ZM66.3394 178L64.3114 175.12C65.4394 174.724 66.1834 173.764 66.1834 172.54C66.1834 170.908 64.8634 169.756 63.0754 169.756H59.3674V178H61.1314V175.324H62.4394L64.3234 178H66.3394ZM61.1314 171.376H62.8834C63.7594 171.376 64.3594 171.832 64.3594 172.54C64.3594 173.248 63.7594 173.704 62.8834 173.704H61.1314V171.376Z" fill="#86D4C9"/>
<path d="M115.328 105.701C114.535 105.701 113.88 105.045 113.88 104.202C113.88 103.828 114.018 103.453 114.299 103.172C120.556 96.909 120.556 86.7621 114.299 80.4988C113.737 79.9369 113.693 79.0005 114.255 78.4441C114.816 77.8822 115.752 77.8381 116.307 78.4L116.351 78.4441C123.732 85.8312 123.732 97.8455 116.351 105.277C116.071 105.558 115.746 105.701 115.328 105.701Z" fill="#86D4C9"/>
<path d="M110.886 101.255C110.512 101.255 110.138 101.118 109.857 100.837C109.296 100.275 109.296 99.3382 109.857 98.7818C113.638 94.9974 113.638 88.8223 109.857 84.9883C109.296 84.3823 109.389 83.4458 109.951 82.9335C110.512 82.4212 111.354 82.4212 111.91 82.9335C116.863 87.8913 116.863 95.9284 111.91 100.837C111.635 101.118 111.26 101.255 110.886 101.255Z" fill="#86D4C9"/>
<path d="M106.45 96.8153C105.658 96.8153 105.003 96.1598 105.003 95.3666C105.003 94.992 105.14 94.6174 105.421 94.3365C106.775 92.9813 106.775 90.7834 105.421 89.4283C104.86 88.8664 104.86 87.9299 105.421 87.3736C105.982 86.8117 106.918 86.8117 107.474 87.3736C109.95 89.8965 109.95 93.9178 107.474 96.4407C107.199 96.6776 106.824 96.8153 106.45 96.8153Z" fill="#86D4C9"/>
<path d="M128.559 127C129.351 127 130.006 127.656 130.006 128.498C130.006 128.873 129.869 129.248 129.588 129.528C123.33 135.792 123.33 145.939 129.588 152.202C130.149 152.764 130.194 153.7 129.632 154.257C129.071 154.819 128.135 154.863 127.579 154.301L127.535 154.257C120.155 146.87 120.155 134.855 127.535 127.424C127.81 127.138 128.185 127 128.559 127Z" fill="#86D4C9"/>
<path d="M132.995 131.44C133.369 131.44 133.743 131.578 134.024 131.859C134.585 132.42 134.585 133.357 134.024 133.913C130.243 137.698 130.243 143.873 134.024 147.707C134.585 148.313 134.492 149.249 133.931 149.762C133.369 150.274 132.527 150.274 131.971 149.762C127.018 144.804 127.018 136.767 131.971 131.859C132.252 131.583 132.626 131.44 132.995 131.44Z" fill="#86D4C9"/>
<path d="M137.436 135.88C138.229 135.88 138.884 136.535 138.884 137.329C138.884 137.703 138.746 138.078 138.466 138.359C137.112 139.714 137.112 141.912 138.466 143.267C139.027 143.829 139.027 144.765 138.466 145.322C137.904 145.884 136.969 145.884 136.413 145.322C133.936 142.799 133.936 138.777 136.413 136.254C136.688 136.023 137.062 135.88 137.436 135.88Z" fill="#86D4C9"/>
<path d="M383.327 109.699C382.535 109.699 381.88 109.043 381.88 108.2C381.88 107.826 382.017 107.451 382.298 107.17C388.556 100.907 388.556 90.7601 382.298 84.4968C381.737 83.9349 381.693 82.9985 382.254 82.4421C382.816 81.8857 383.751 81.8362 384.307 82.398L384.351 82.4421C391.731 89.8292 391.731 101.843 384.351 109.275C384.12 109.555 383.746 109.699 383.327 109.699Z" fill="#86D4C9"/>
<path d="M378.886 105.259C378.512 105.259 378.138 105.121 377.857 104.84C377.296 104.278 377.296 103.342 377.857 102.786C381.638 99.0011 381.638 92.8259 377.857 88.9919C377.296 88.386 377.389 87.4495 377.951 86.9372C378.512 86.4249 379.354 86.4249 379.91 86.9372C384.863 91.895 384.863 99.9321 379.91 104.84C379.684 105.116 379.31 105.259 378.886 105.259Z" fill="#86D4C9"/>
<path d="M374.45 100.813C373.658 100.813 373.003 100.158 373.003 99.3646C373.003 98.99 373.14 98.6155 373.421 98.3345C374.775 96.9794 374.775 94.7814 373.421 93.4263C372.86 92.8644 372.86 91.928 373.421 91.3716C373.982 90.8097 374.918 90.8097 375.474 91.3716C377.95 93.8946 377.95 97.9159 375.474 100.439C375.243 100.676 374.874 100.813 374.45 100.813Z" fill="#86D4C9"/>
<path d="M338.559 135C339.351 135 340.006 135.656 340.006 136.498C340.006 136.873 339.869 137.248 339.588 137.528C333.33 143.792 333.33 153.939 339.588 160.202C340.149 160.764 340.194 161.7 339.632 162.257C339.071 162.819 338.135 162.863 337.579 162.301L337.535 162.257C330.155 154.87 330.155 142.855 337.535 135.424C337.81 135.187 338.185 135 338.559 135Z" fill="#86D4C9"/>
<path d="M342.995 139.49C343.369 139.49 343.743 139.627 344.024 139.908C344.586 140.47 344.586 141.406 344.024 141.963C340.243 145.747 340.243 151.922 344.024 155.756C344.586 156.362 344.492 157.299 343.931 157.811C343.369 158.323 342.527 158.323 341.971 157.811C337.018 152.853 337.018 144.816 341.971 139.908C342.246 139.627 342.621 139.49 342.995 139.49Z" fill="#86D4C9"/>
<path d="M347.43 143.929C348.223 143.929 348.878 144.585 348.878 145.378C348.878 145.753 348.74 146.127 348.46 146.408C347.106 147.763 347.106 149.961 348.46 151.317C349.021 151.878 349.021 152.815 348.46 153.371C347.898 153.933 346.963 153.933 346.407 153.371C343.93 150.848 343.93 146.827 346.407 144.304C346.682 144.067 347.056 143.929 347.43 143.929Z" fill="#86D4C9"/>
<path d="M234.675 167.565C234.675 168.358 234.02 169.014 233.178 169.014C232.804 169.014 232.43 168.876 232.149 168.595C225.892 162.332 215.754 162.332 209.497 168.595C208.935 169.157 208 169.201 207.444 168.639C206.882 168.077 206.838 167.141 207.4 166.584L207.444 166.54C214.824 159.153 226.827 159.153 234.252 166.54C234.538 166.816 234.675 167.19 234.675 167.565Z" fill="#86D4C9"/>
<path d="M230.24 172.054C230.24 172.429 230.102 172.804 229.821 173.085C229.26 173.646 228.324 173.646 227.768 173.085C223.988 169.3 217.818 169.3 213.987 173.085C213.382 173.646 212.446 173.553 211.935 172.991C211.423 172.429 211.423 171.586 211.935 171.03C216.888 166.072 224.918 166.072 229.821 171.03C230.096 171.261 230.24 171.63 230.24 172.054Z" fill="#86D4C9"/>
<path d="M225.804 176.494C225.804 177.288 225.149 177.943 224.356 177.943C223.982 177.943 223.608 177.805 223.327 177.525C221.973 176.169 219.777 176.169 218.423 177.525C217.862 178.086 216.926 178.086 216.371 177.525C215.815 176.963 215.809 176.026 216.371 175.47C218.891 172.991 222.909 172.991 225.43 175.47C225.661 175.701 225.804 176.076 225.804 176.494Z" fill="#86D4C9"/>
<path d="M251 194.545C251 193.752 251.655 193.096 252.497 193.096C252.871 193.096 253.245 193.234 253.526 193.515C259.784 199.778 269.921 199.778 276.179 193.515C276.74 192.953 277.676 192.909 278.232 193.471C278.793 194.033 278.837 194.969 278.276 195.526L278.232 195.57C270.851 202.957 258.848 202.957 251.424 195.57C251.143 195.338 251 194.964 251 194.545Z" fill="#86D4C9"/>
<path d="M255.441 190.105C255.441 189.73 255.579 189.356 255.86 189.075C256.421 188.513 257.357 188.513 257.913 189.075C261.694 192.859 267.863 192.859 271.694 189.075C272.299 188.513 273.235 188.607 273.746 189.169C274.258 189.73 274.258 190.573 273.746 191.13C268.793 196.087 260.763 196.087 255.86 191.13C255.623 190.854 255.441 190.524 255.441 190.105Z" fill="#86D4C9"/>
<path d="M259.877 185.665C259.877 184.872 260.532 184.216 261.325 184.216C261.699 184.216 262.073 184.354 262.354 184.635C263.708 185.99 265.904 185.99 267.258 184.635C267.819 184.073 268.755 184.073 269.311 184.635C269.872 185.197 269.872 186.133 269.311 186.69C266.79 189.169 262.772 189.169 260.252 186.69C260.065 186.409 259.877 186.034 259.877 185.665Z" fill="#86D4C9"/>
<path d="M296.478 268.599V261.074C296.478 261.074 299.373 254.48 298.58 254.293L279.802 247.749H281.018C283.352 247.749 285.267 245.832 285.267 243.496V243.121C285.267 240.786 283.352 238.869 281.018 238.869H271.348C270.974 231.718 267.936 225.031 262.708 219.935C257.479 214.84 250.611 211.942 243.28 211.568V208.764C244.496 208.202 245.333 206.99 245.333 205.536C245.333 203.575 243.742 201.983 241.783 201.983C239.824 201.983 238.233 203.575 238.233 205.536C238.233 206.985 239.075 208.202 240.286 208.764V211.568C232.955 211.942 226.087 214.84 220.858 219.935C215.58 225.031 212.542 231.718 212.218 238.869H202.548C200.214 238.869 198.299 240.786 198.299 243.121V243.496C198.299 245.832 200.214 247.749 202.548 247.749H203.715L187.837 252.894C187.044 253.081 186.577 253.874 186.764 254.667L184.992 257.003C187 254.43 185.553 259.669 185.927 259.901C186.158 260.038 187.281 259.901 187.562 259.901C187.699 259.901 188.31 259.201 188.448 259.201L188.541 261.961L187.044 268.599H177.798V279.071H305.773V268.599H296.478Z" fill="#C0DBFF"/>
<path d="M222.96 247.28H206.146V270.091H222.96V247.28Z" fill="#77A4F2"/>
<path d="M277.374 261.399L294.98 265.932V259.388L277.374 254.811V261.399Z" fill="#77A4F2"/>
<path d="M245.332 213.017C245.332 213.017 262.333 216.801 262.333 241.254L269.851 240.18C269.851 240.174 268.265 216.757 245.332 213.017Z" fill="white"/>
<path d="M239.119 213.017C239.119 213.017 222.118 216.801 222.118 241.254L214.6 240.174C214.6 240.174 216.185 216.757 239.119 213.017Z" fill="#77A4F2"/>
<path d="M282.745 241.254H262.52V244.713H282.745V241.254Z" fill="white"/>
<path d="M222.212 241.579H200.165V245.038H222.212V241.579Z" fill="#77A4F2"/>
<path d="M271.392 241.766H212.124V240.268C212.124 232.6 215.206 225.356 220.808 219.93C226.411 214.509 233.841 211.513 241.733 211.513C249.625 211.513 257.055 214.504 262.657 219.93C268.26 225.35 271.342 232.6 271.342 240.268V241.766H271.392ZM215.206 238.725H268.31C267.935 232.412 265.228 226.573 260.605 222.034C255.558 217.17 248.882 214.46 241.782 214.46C234.683 214.46 228.001 217.126 222.96 222.034C218.288 226.573 215.58 232.462 215.206 238.725Z" fill="#503EAA"/>
<path d="M257.941 240.268H254.903C254.903 233.349 253.406 226.568 250.792 221.709C248.315 217.126 245.046 214.509 241.733 214.509C238.464 214.509 235.145 217.126 232.674 221.709C230.06 226.573 228.563 233.349 228.563 240.268H225.525C225.525 232.743 227.115 225.637 230.01 220.305C233.048 214.647 237.204 211.518 241.733 211.518C246.262 211.518 250.374 214.653 253.456 220.305C256.356 225.637 257.941 232.743 257.941 240.268Z" fill="#503EAA"/>
<path d="M243.279 206.842H240.241V240.268H243.279V206.842Z" fill="#503EAA"/>
<path d="M278.915 271.59H204.649V244.989H278.915V271.59ZM207.638 268.599H275.877V248.03H207.638V268.599Z" fill="#503EAA"/>
<path d="M277.418 247.28H206.146V256.584H277.418V247.28Z" fill="#77A4F2"/>
<path d="M271.392 271.59H212.124V244.989H271.348V271.59H271.392ZM215.162 268.599H268.359V248.03H215.162V268.599Z" fill="#503EAA"/>
<path d="M304.275 270.097H286.201V277.528H304.275V270.097Z" fill="white"/>
<path d="M212.261 270.097H179.427V277.528H212.261V270.097Z" fill="#77A4F2"/>
<path d="M249.02 268.924V254.948C249.02 254.386 249.251 253.825 249.625 253.45C250.043 253.031 250.561 252.844 251.122 252.844C251.683 252.844 252.245 253.075 252.619 253.45C253.037 253.869 253.224 254.386 253.224 254.948V268.924H249.02Z" fill="#503EAA"/>
<path d="M251.172 253.219C251.639 253.219 252.107 253.406 252.432 253.731C252.757 254.056 252.944 254.48 252.944 254.948V268.555H249.394V254.948C249.394 254.48 249.581 254.061 249.906 253.731C250.28 253.356 250.704 253.219 251.172 253.219ZM251.172 252.425C250.517 252.425 249.862 252.706 249.399 253.174C248.932 253.643 248.651 254.249 248.651 254.948V268.555V269.304H249.399H252.949H253.698V268.555V254.948C253.698 254.293 253.417 253.637 252.949 253.174C252.476 252.706 251.87 252.425 251.172 252.425Z" fill="#503EAA"/>
<path d="M258.458 268.924V254.948C258.458 254.386 258.689 253.825 259.063 253.45C259.482 253.031 259.999 252.844 260.56 252.844C261.122 252.844 261.683 253.075 262.057 253.45C262.476 253.825 262.663 254.386 262.663 254.948V268.924H258.458Z" fill="#503EAA"/>
<path d="M260.605 253.219C261.072 253.219 261.54 253.406 261.865 253.731C262.19 254.056 262.377 254.48 262.377 254.948V268.555H258.827V254.948C258.827 254.48 259.014 254.061 259.339 253.731C259.669 253.356 260.137 253.219 260.605 253.219ZM260.605 252.425C259.95 252.425 259.295 252.706 258.832 253.174C258.365 253.643 258.084 254.298 258.084 254.948V268.555V269.304H258.832H262.382H263.131V268.555V254.948C263.131 254.293 262.85 253.637 262.382 253.174C261.914 252.706 261.26 252.425 260.605 252.425Z" fill="#503EAA"/>
<path d="M230.247 268.924V254.948C230.247 254.386 230.478 253.825 230.852 253.45C231.271 253.031 231.788 252.844 232.349 252.844C232.911 252.844 233.472 253.075 233.846 253.45C234.265 253.869 234.452 254.386 234.452 254.948V268.924H230.247Z" fill="#503EAA"/>
<path d="M232.394 253.219C232.861 253.219 233.329 253.406 233.654 253.731C233.979 254.056 234.166 254.48 234.166 254.948V268.555H230.616V254.948C230.616 254.48 230.803 254.061 231.128 253.731C231.458 253.356 231.882 253.219 232.394 253.219ZM232.394 252.425C231.739 252.425 231.084 252.706 230.622 253.174C230.154 253.643 229.873 254.249 229.873 254.948V268.555V269.304H230.622H234.171H234.92V268.555V254.948C234.92 254.293 234.639 253.637 234.171 253.174C233.654 252.706 233.049 252.425 232.394 252.425Z" fill="#503EAA"/>
<path d="M239.631 268.924V254.948C239.631 254.386 239.862 253.825 240.236 253.45C240.655 253.031 241.172 252.844 241.733 252.844C242.295 252.844 242.856 253.075 243.23 253.45C243.648 253.825 243.836 254.386 243.836 254.948V268.924H239.631Z" fill="#503EAA"/>
<path d="M241.783 253.219C242.251 253.219 242.718 253.406 243.043 253.731C243.368 254.056 243.555 254.48 243.555 254.948V268.555H240.005V254.948C240.005 254.48 240.192 254.061 240.517 253.731C240.847 253.356 241.315 253.219 241.783 253.219ZM241.783 252.425C241.128 252.425 240.473 252.706 240.011 253.174C239.543 253.643 239.262 254.298 239.262 254.948V268.555V269.304H240.011H243.561H244.309V268.555V254.948C244.309 254.293 244.028 253.637 243.561 253.174C243.087 252.706 242.438 252.425 241.783 252.425Z" fill="#503EAA"/>
<path d="M220.809 268.924V254.948C220.809 254.386 221.04 253.825 221.414 253.45C221.832 253.031 222.35 252.844 222.911 252.844C223.472 252.844 224.034 253.075 224.408 253.45C224.826 253.869 225.013 254.386 225.013 254.948V268.924H220.809Z" fill="#503EAA"/>
<path d="M222.961 253.219C223.428 253.219 223.896 253.406 224.221 253.731C224.546 254.056 224.733 254.48 224.733 254.948V268.555H221.183V254.948C221.183 254.48 221.37 254.061 221.695 253.731C222.025 253.356 222.493 253.219 222.961 253.219ZM222.961 252.425C222.306 252.425 221.651 252.706 221.188 253.174C220.721 253.643 220.44 254.249 220.44 254.948V268.555V269.304H221.188H224.738H225.487V268.555V254.948C225.487 254.293 225.206 253.637 224.738 253.174C224.265 252.706 223.616 252.425 222.961 252.425Z" fill="#503EAA"/>
<path d="M281.017 241.86C281.716 241.86 282.278 242.422 282.278 243.121V243.496C282.278 244.195 281.716 244.757 281.017 244.757H202.547C201.848 244.757 201.287 244.195 201.287 243.496V243.121C201.287 242.422 201.848 241.86 202.547 241.86H281.017ZM281.017 238.869H202.547C200.214 238.869 198.298 240.786 198.298 243.121V243.496C198.298 245.832 200.214 247.749 202.547 247.749H281.012C283.345 247.749 285.26 245.832 285.26 243.496V243.121C285.266 240.786 283.351 238.869 281.017 238.869Z" fill="#503EAA"/>
<path d="M305.767 279.071H177.792V268.599H305.767V279.071ZM180.786 276.03H302.734V271.59H180.786V276.03Z" fill="#503EAA"/>
<path d="M206.147 254.761L188.448 259.157C186.907 259.532 185.316 258.551 184.991 256.959C184.667 255.461 185.597 254.012 187.044 253.637L206.147 248.635V254.761Z" fill="#77A4F2"/>
<path d="M187.743 260.743C186.951 260.743 186.152 260.512 185.454 260.088C184.424 259.432 183.769 258.452 183.494 257.284C183.026 255.042 184.43 252.794 186.626 252.189L205.729 247.187C206.197 247.049 206.664 247.187 207.039 247.468C207.413 247.749 207.644 248.217 207.644 248.685V254.761C207.644 255.461 207.176 256.072 206.521 256.21L188.822 260.606C188.442 260.743 188.068 260.743 187.743 260.743ZM204.606 250.646L187.369 255.18C186.67 255.367 186.246 256.023 186.389 256.722C186.483 257.097 186.67 257.378 186.995 257.565C187.319 257.752 187.649 257.796 188.024 257.752L204.606 253.637V250.646Z" fill="#503EAA"/>
<path d="M206.147 270.097H188.535V259.388L206.147 254.811V270.097Z" fill="#77A4F2"/>
<path d="M207.638 271.59H187.038V258.22L207.638 252.844V271.59ZM190.032 268.599H204.606V256.772L190.032 260.556V268.599Z" fill="#503EAA"/>
<path d="M277.374 254.761L295.074 259.157C296.615 259.532 298.205 258.551 298.53 256.959C298.855 255.461 297.924 254.012 296.477 253.637L277.374 248.635V254.761Z" fill="white"/>
<path d="M295.772 260.743C295.398 260.743 295.073 260.699 294.699 260.606L277 256.21C276.345 256.022 275.877 255.461 275.877 254.761V248.685C275.877 248.217 276.108 247.798 276.482 247.468C276.857 247.137 277.324 247.093 277.792 247.187L296.895 252.188C299.135 252.794 300.489 254.992 300.027 257.284C299.796 258.452 299.091 259.432 298.067 260.088C297.407 260.556 296.614 260.743 295.772 260.743ZM278.915 253.593L295.497 257.708C295.871 257.802 296.196 257.752 296.526 257.521C296.851 257.333 297.038 257.009 297.132 256.678C297.269 255.978 296.851 255.323 296.152 255.136L278.915 250.602V253.593Z" fill="#503EAA"/>
<path d="M296.477 271.59H275.877V252.844L296.477 258.22V271.59ZM278.915 268.599H293.488V260.556L278.915 256.772V268.599Z" fill="#503EAA"/>
<path d="M241.782 209.089C243.743 209.089 245.332 207.498 245.332 205.536C245.332 203.574 243.743 201.983 241.782 201.983C239.822 201.983 238.232 203.574 238.232 205.536C238.232 207.498 239.822 209.089 241.782 209.089Z" fill="#503EAA"/>
<path d="M197.737 266.125C199.105 266.125 200.214 265.015 200.214 263.646C200.214 262.277 199.105 261.167 197.737 261.167C196.37 261.167 195.261 262.277 195.261 263.646C195.261 265.015 196.37 266.125 197.737 266.125Z" fill="#503EAA"/>
<path d="M286.202 266.125C287.57 266.125 288.678 265.015 288.678 263.646C288.678 262.277 287.57 261.167 286.202 261.167C284.834 261.167 283.725 262.277 283.725 263.646C283.725 265.015 284.834 266.125 286.202 266.125Z" fill="#503EAA"/>
<path d="M24.3428 104.977L34.2932 112.083L47.5569 96.8901C38.2173 96.3282 28.6906 101.28 24.3428 104.977Z" fill="#77A4F2"/>
<path d="M23.506 125.265C25.1901 128.862 23.8803 133.071 20.5176 134.613C16.456 136.53 8.74543 136.018 4.45264 134.145C5.76249 129.611 10.336 123.392 14.4471 121.525C17.7603 119.982 21.8219 121.668 23.506 125.265Z" fill="#FF8486"/>
<path d="M84.4582 98.7576L90.2039 96.0473L89.0812 93.7117L83.3354 96.4219L84.4582 98.7576Z" fill="#503EAA"/>
<path d="M26.3511 105.208C26.3511 105.208 33.9185 99.2258 42.416 98.1516C47.7875 97.452 42.416 102.079 42.416 102.079C42.416 102.079 35.7897 100.675 26.3511 105.208Z" fill="white"/>
<path d="M23.5502 106.145C23.3631 106.007 23.2255 105.864 23.1319 105.676C23.0384 105.489 22.9944 105.258 22.9448 105.07C22.9448 104.839 22.9888 104.652 23.0384 104.464C23.1319 104.277 23.2695 104.09 23.4126 103.952C28.1292 99.9804 35.1848 96.8019 42.2349 95.5349H42.3725L42.8843 98.3388H42.7467C36.957 99.3689 30.9746 101.842 26.7258 104.977L35.2288 111.053L33.5943 113.388L23.5502 106.145Z" fill="#503EAA"/>
<path d="M42.3286 95.6286L42.7964 98.2011C36.9131 99.2753 30.8371 101.798 26.5884 104.933L35.1354 111.009L33.6384 113.113L23.688 106.007C23.5504 105.913 23.4073 105.726 23.3137 105.588C23.2202 105.401 23.1761 105.214 23.1761 105.026C23.1761 104.839 23.2202 104.652 23.2697 104.464C23.3633 104.277 23.4568 104.139 23.5944 103.996C28.2229 100.019 35.229 96.8901 42.3286 95.6286ZM42.5157 95.3477L42.2846 95.3917C35.1849 96.6532 28.1349 99.8317 23.4128 103.809C23.2257 103.947 23.0881 104.134 22.9945 104.371C22.901 104.602 22.8569 104.839 22.8569 105.07C22.8569 105.302 22.9505 105.539 23.0441 105.726C23.1376 105.913 23.3247 106.1 23.5119 106.238L33.4623 113.344L33.6495 113.482L33.7871 113.295L35.284 111.19L35.4216 111.003L35.2345 110.865L26.9681 104.977C31.2169 101.936 37.1057 99.5067 42.8019 98.4765L43.0331 98.4325L42.989 98.2011L42.5212 95.6286L42.5157 95.3477Z" fill="#503EAA"/>
<path d="M95.5263 91.3264C94.6402 89.4094 92.3507 88.5666 90.4354 89.503C88.5202 90.3899 87.6781 92.6815 88.6138 94.5985C89.4998 96.5155 91.7893 97.3583 93.7046 96.4219C95.6198 95.4854 96.4123 93.2434 95.5263 91.3264Z" fill="#503EAA"/>
<path d="M27.4744 125.452C29.3401 128.68 33.732 132.046 33.732 132.046L38.2174 122.043L34.4805 112.882L25.372 112.788C22.4276 114.231 25.6087 122.224 27.4744 125.452Z" fill="#77A4F2"/>
<path d="M35.4599 116.898L25.603 120.638L24.8545 116.617L34.7114 115.261L35.4599 116.898Z" fill="white"/>
<path d="M33.9684 133.165C32.5209 133.165 28.74 132.322 25.0471 124.516C23.2749 120.732 22.5264 117.553 22.9007 115.025C23.2749 112.358 24.6728 111.472 25.2342 111.191C26.3569 110.678 29.8572 110.585 31.3047 110.585C32.3779 110.585 33.4511 110.629 34.3867 110.678H34.5243L34.3371 113.532H34.1995C33.2639 113.488 32.2843 113.438 31.3047 113.438C28.7345 113.438 26.8192 113.625 26.445 113.763C26.0267 113.95 24.3922 116.473 27.6613 123.299C30.8864 130.124 33.6877 130.311 34.0124 130.311C34.15 130.311 34.2436 130.267 34.2931 130.267C34.8049 129.986 37.2375 127.463 39.4334 124.422L39.527 124.329L41.8165 126.014L41.7229 126.108C39.9508 128.537 36.8192 132.234 35.5094 132.84C35.0416 133.071 34.5243 133.165 33.9684 133.165Z" fill="#503EAA"/>
<path d="M31.3487 110.728C32.4219 110.728 33.4952 110.772 34.3867 110.821L34.2491 113.438C33.22 113.394 32.2403 113.344 31.3047 113.344C28.7841 113.344 26.8193 113.532 26.401 113.669C25.8397 113.95 24.2546 116.523 27.5238 123.392C30.3746 129.424 32.9888 130.498 33.9685 130.498C34.106 130.498 34.1996 130.498 34.2932 130.454C34.805 130.129 37.2816 127.601 39.4775 124.566L41.5799 126.108C39.8077 128.537 36.6762 132.234 35.4159 132.839C35.0417 133.027 34.5298 133.164 33.9685 133.164C31.7285 133.164 28.3658 131.341 25.1407 124.61C21.1231 116.148 23.319 112.314 25.2783 111.427C26.2139 110.866 28.8281 110.728 31.3487 110.728ZM31.3487 110.491C29.9013 110.491 26.3515 110.535 25.2288 111.097C23.22 112.033 20.8864 115.961 24.9976 124.61C28.685 132.465 32.565 133.302 34.0125 133.302C34.5738 133.302 35.1352 133.209 35.5535 132.977C36.9074 132.322 40.0829 128.537 41.8111 126.196L41.9487 126.009L41.7615 125.871L39.6592 124.329L39.472 124.191L39.3344 124.378C37.0945 127.463 34.6619 129.942 34.2436 130.223C34.2436 130.223 34.1996 130.223 34.0565 130.223C33.7758 130.223 31.0185 130.036 27.7989 123.26C26.0708 119.613 25.7901 117.322 25.8397 116.016C25.8837 114.474 26.4451 113.912 26.5881 113.868C26.9129 113.73 28.8281 113.543 31.3983 113.543C32.3779 113.543 33.3576 113.587 34.2932 113.636H34.5243V113.405L34.6619 110.833V110.601H34.4308C33.4511 110.491 32.4274 110.491 31.3487 110.491Z" fill="#503EAA"/>
<path d="M34.3423 112.083L40.5558 125.265C52.5151 129.33 82.262 120.963 83.2912 96.9837C64.0892 82.5841 38.7782 100.256 34.3423 112.083Z" fill="#C0DBFF"/>
<path d="M66.4729 121.431C53.1157 127.744 41.1564 127.788 41.1564 127.788L36.9517 118.908C62.4553 116.055 80.9033 100.394 82.3507 97.1216C81.184 104.977 79.8301 115.118 66.4729 121.431Z" fill="#77A4F2"/>
<path d="M53.6274 95.579C40.0831 101.986 34.4805 111.427 34.4805 111.427L36.2526 115.168C39.3842 110.304 43.4458 105.114 56.2416 99.088C69.0375 93.0561 77.3038 96.2841 82.4442 98.3884C79.2246 93.943 67.1773 89.1725 53.6274 95.579Z" fill="white"/>
<path d="M47.4191 127.65C44.6177 127.65 42.0971 127.276 40.0883 126.62L39.67 126.483L39.3893 126.158C37.8483 124.147 36.4944 121.949 35.3717 119.657C33.4124 115.498 32.8951 112.458 32.8951 112.32L32.8511 111.945L32.9887 111.571C35.6524 104.465 45.6469 95.0669 57.7438 91.5634C60.9194 90.6269 64.0949 90.1587 67.1769 90.1587C73.3905 90.1587 79.1362 92.0757 84.1335 95.8601L84.7389 96.3283L84.6949 97.0775C84.183 108.954 77.0834 116.198 71.2441 120.219C69.4719 121.437 67.6007 122.511 65.6414 123.398C59.9342 126.108 53.3024 127.65 47.4191 127.65ZM41.3926 124.048C43.0767 124.56 45.2231 124.841 47.5126 124.841C54.9865 124.841 63.2529 122.224 69.6535 117.878C74.7939 114.375 81.0955 108.012 81.844 97.7275C77.4521 94.6427 72.5484 93.0507 67.1769 93.0507C64.3756 93.0507 61.4807 93.4694 58.5803 94.3122C47.276 97.6339 38.4042 106.001 35.834 112.265C36.3018 114.413 37.0503 116.517 37.9804 118.484C38.916 120.401 40.0828 122.274 41.3926 124.048Z" fill="#503EAA"/>
<path d="M67.177 90.2522C72.4549 90.2522 78.3878 91.657 84.084 95.9096L84.6453 96.3283L84.6013 97.0279C84.0895 108.855 77.0339 116.099 71.1946 120.076C69.4224 121.293 67.5512 122.368 65.636 123.254C59.516 126.152 52.9337 127.507 47.4686 127.507C44.6673 127.507 42.1467 127.132 40.1819 126.477L39.8076 126.339L39.5765 126.014C38.0355 124.004 36.6816 121.806 35.5589 119.514C33.5996 115.399 33.1318 112.314 33.0822 112.221L33.0382 111.896L33.1758 111.571C35.8396 104.514 45.7845 95.1164 57.8374 91.6074C60.4461 90.8582 63.6712 90.2522 67.177 90.2522ZM47.5126 124.94C54.1445 124.94 62.6915 122.742 69.6976 117.928C74.926 114.33 81.2331 107.924 81.9321 97.5897C76.9348 94.0367 71.7504 92.8688 67.1274 92.8688C63.9023 92.8688 60.9634 93.4307 58.4868 94.1303C47.4191 97.3584 38.3107 105.726 35.6469 112.177C36.1147 114.325 36.8632 116.429 37.8429 118.44C38.8225 120.451 39.9893 122.318 41.3431 124.141C43.0768 124.703 45.1736 124.94 47.5126 124.94ZM67.177 90.0154V90.2467V90.0154C64.095 90.0154 60.9194 90.4836 57.6943 91.4201C45.5974 94.9236 35.5534 104.415 32.8456 111.521L32.708 111.846V111.89V111.934L32.752 112.259C32.752 112.397 33.2639 115.438 35.2287 119.646C36.3514 121.938 37.7493 124.136 39.2903 126.191L39.5214 126.516L39.5655 126.56H39.659L40.0333 126.697C42.0421 127.397 44.6123 127.727 47.4136 127.727C53.2969 127.727 59.9783 126.185 65.724 123.475C67.6833 122.538 69.5545 121.464 71.3267 120.247C77.21 116.225 84.3096 108.932 84.827 97.0113L84.871 96.3117V96.174L84.7774 96.0804L84.216 95.6617C79.1803 91.9324 73.4345 90.0154 67.177 90.0154ZM35.9276 112.221C38.4978 106.001 47.3255 97.6834 58.5804 94.4113C61.4752 93.5684 64.3701 93.1498 67.177 93.1498C72.4989 93.1498 77.4081 94.6922 81.7505 97.777C81.002 107.968 74.7444 114.281 69.6536 117.784C63.2969 122.131 55.0305 124.753 47.6062 124.753C45.3167 124.753 43.2639 124.472 41.5798 124.004C40.2699 122.274 39.1527 120.357 38.1676 118.44C37.1439 116.429 36.3954 114.325 35.9276 112.221Z" fill="#503EAA"/>
<path d="M33.0767 139.009C40.1268 138.778 63.528 128.399 69.0426 110.678C51.8989 122.087 38.0299 121.569 38.0299 121.569L33.0767 139.009Z" fill="#77A4F2"/>
<path d="M60.6332 117.459C60.6332 117.459 56.0542 128.025 35.6909 137.235C44.3315 136.673 63.1538 128.262 67.0779 114.468C67.6888 112.314 60.6332 117.459 60.6332 117.459Z" fill="white"/>
<path d="M33.0766 140.414C32.8895 140.414 32.6584 140.37 32.4712 140.276C32.2841 140.182 32.097 140.045 31.9594 139.857C31.8218 139.67 31.7283 139.483 31.6787 139.251C31.6292 139.02 31.6347 138.783 31.7228 138.596L36.676 121.161C36.7696 120.88 36.9567 120.599 37.1878 120.412C37.419 120.225 37.7492 120.131 38.0299 120.131C38.5912 120.131 51.8549 119.944 68.8554 110.502C69.0866 110.408 69.3233 110.315 69.5544 110.315C69.5984 110.315 69.648 110.315 69.692 110.315C69.9727 110.359 70.2534 110.452 70.4845 110.64C70.7157 110.827 70.8588 111.058 70.9523 111.339C71.0459 111.62 71.0459 111.901 70.9523 112.182C67.8208 122.279 59.2737 129.198 52.6419 133.17C50.7762 134.294 48.8609 135.318 46.8961 136.255C41.7173 138.684 36.3017 140.32 33.0766 140.414ZM35.0414 137.329C43.1702 135.88 60.4955 127.887 66.8466 114.793C53.1152 121.712 42.2786 122.786 39.1526 122.929L35.0414 137.329Z" fill="#503EAA"/>
<path d="M69.5542 110.447C69.5982 110.447 69.6477 110.447 69.6477 110.447C69.9284 110.447 70.1596 110.585 70.3467 110.728C70.5338 110.915 70.6714 111.102 70.765 111.383C70.8585 111.615 70.8585 111.896 70.765 112.132C67.6334 122.186 59.1359 129.055 52.5481 133.076C50.6824 134.2 48.8112 135.225 46.8519 136.161C41.2493 138.827 36.0649 140.276 33.1205 140.37H33.0764C32.8893 140.37 32.7022 140.326 32.5151 140.232C32.3279 140.138 32.1904 140.001 32.0473 139.857C31.9097 139.72 31.8161 139.532 31.8161 139.295C31.7721 139.108 31.7721 138.877 31.8602 138.69L36.8134 121.255C36.9069 120.974 37.0445 120.742 37.2812 120.555C37.5123 120.368 37.793 120.274 38.0737 120.274C38.2113 120.274 51.7611 120.181 68.9928 110.596C69.1359 110.491 69.323 110.447 69.5542 110.447ZM67.0831 114.512C53.2141 121.569 42.2839 122.648 39.0148 122.836L34.8596 137.516C42.7958 136.156 60.7264 128.119 67.0831 114.512ZM69.5542 110.166C69.2735 110.166 69.0423 110.21 68.8057 110.353C51.8051 119.795 38.5855 119.982 38.0242 119.982C37.6994 119.982 37.3692 120.076 37.0886 120.307C36.8079 120.495 36.6207 120.776 36.5272 121.101L31.574 138.535C31.5299 138.767 31.4804 139.004 31.5299 139.235C31.5795 139.466 31.6675 139.703 31.8106 139.89C31.9482 140.078 32.1353 140.215 32.372 140.359C32.5591 140.452 32.7903 140.496 33.0269 140.496H33.0709C36.3401 140.403 41.618 138.767 46.8959 136.288C48.8552 135.351 50.7705 134.327 52.6417 133.203C59.2735 129.182 67.8206 122.263 70.9961 112.121C71.0897 111.841 71.0897 111.516 70.9961 111.235C70.9026 110.954 70.7154 110.673 70.4843 110.485C70.2531 110.298 69.9725 110.16 69.6422 110.16C69.6477 110.166 69.6037 110.166 69.5542 110.166ZM39.1964 123.067C42.4215 122.88 53.0654 121.756 66.5217 115.074C60.121 127.838 43.3076 135.693 35.1843 137.186L39.1964 123.067Z" fill="#503EAA"/>
<path d="M61.9433 88.3792C58.1128 86.9745 53.864 87.1618 50.1711 88.8915C46.4837 90.6212 43.6328 93.7556 42.2294 97.5841C40.826 101.418 41.0131 105.671 42.7412 109.367C46.3351 117.079 74.1722 104.04 70.5784 96.3722C68.9053 92.6319 65.7737 89.7839 61.9433 88.3792Z" fill="#77A4F2"/>
<path d="M66.7534 98.9944C65.2565 95.86 62.5982 93.4803 59.3731 92.3069C56.148 91.1391 52.5982 91.2768 49.5162 92.7256C46.4342 94.1743 44.0511 96.7909 42.8844 100.019C41.7176 103.247 41.8552 106.8 43.2586 109.979C46.2966 116.523 69.8354 105.539 66.7534 98.9944Z" fill="#503EAA"/>
<path d="M47.8871 113.113C44.662 113.113 42.422 112.039 41.4424 109.934C39.5767 105.869 39.34 101.33 40.881 97.1269C42.378 92.9183 45.46 89.5526 49.4776 87.6356L49.5217 87.5915C51.5305 86.655 53.6769 86.1427 55.8728 86.0491C56.104 86.0491 56.3846 86.0491 56.6213 86.0491C58.5806 86.0491 60.4958 86.3741 62.367 87.0792C64.4694 87.8284 66.3351 88.9962 67.9697 90.489C69.6043 91.9874 70.9141 93.7611 71.8442 95.7718C74.0842 100.586 67.5954 106.337 60.1216 109.841L59.9345 109.934C55.5921 111.94 51.2003 113.113 47.8871 113.113ZM56.6653 88.897C54.6125 88.897 52.6477 89.3157 50.782 90.2081L50.738 90.2521C47.3753 91.8441 44.8546 94.648 43.5943 98.1515C42.334 101.655 42.5211 105.445 44.0621 108.811C44.5299 109.791 45.8343 110.353 47.8926 110.353C50.7875 110.353 54.7611 109.279 58.7732 107.406L58.9603 107.312C65.9664 103.991 70.4958 99.457 69.3291 96.9782C67.7385 93.6124 64.9372 91.0399 61.4369 89.7784C59.8904 89.1725 58.2999 88.897 56.6653 88.897Z" fill="#503EAA"/>
<path d="M56.6655 86.1813C58.6247 86.1813 60.54 86.5063 62.3617 87.1619C64.4145 87.911 66.3298 89.0789 67.9203 90.5276C69.5549 92.026 70.8647 93.7998 71.7508 95.7663C73.9907 100.537 67.502 106.189 60.0722 109.698L59.8851 109.791C55.7739 111.708 51.382 112.97 47.8322 112.97C44.8878 112.97 42.5543 112.083 41.5251 109.885C39.6594 105.864 39.4723 101.33 40.9637 97.171C42.4607 93.012 45.5427 89.6463 49.5108 87.7293L49.5548 87.6852C51.5141 86.7487 53.666 86.2364 55.8619 86.1428C56.1977 86.1813 56.4343 86.1813 56.6655 86.1813ZM47.8872 110.397C50.6886 110.397 54.6622 109.367 58.8174 107.45L59.0045 107.356C66.0546 104.035 70.6336 99.4571 69.4173 96.8846C67.8267 93.5188 64.9814 90.9022 61.4756 89.5912C59.9346 89.0293 58.3 88.7484 56.6655 88.7484C54.6126 88.7484 52.6038 89.167 50.7326 90.0594L50.6886 90.1035C47.3259 91.6955 44.7117 94.5434 43.4514 98.0524C42.191 101.556 42.3781 105.39 43.9192 108.805C44.431 109.885 45.8784 110.397 47.8872 110.397ZM56.6655 85.9004C56.4343 85.9004 56.1536 85.9004 55.917 85.9004C53.677 85.994 51.5251 86.5063 49.5163 87.4924L49.4723 87.5365C45.4106 89.4535 42.3286 92.8633 40.7876 97.1215C39.2466 101.38 39.4778 105.957 41.349 110.023C42.3286 112.127 44.6181 113.251 47.8872 113.251C51.2059 113.251 55.6418 112.083 60.0282 110.023L60.2153 109.929C67.7332 106.376 74.321 100.581 72.0315 95.6727C71.0959 93.662 69.7915 91.8387 68.1074 90.3459C66.4728 88.8475 64.5576 87.6797 62.4552 86.936C60.5895 86.275 58.6743 85.9004 56.6655 85.9004ZM47.8872 110.166C45.928 110.166 44.6181 109.654 44.1503 108.717C42.6093 105.395 42.4222 101.611 43.6825 98.1516C44.9428 94.6921 47.4635 91.8883 50.7821 90.3459L50.8262 90.3018C52.6478 89.459 54.6566 88.9907 56.6655 88.9907C58.3 88.9907 59.8906 89.2717 61.382 89.8335C64.8383 91.095 67.6396 93.618 69.1806 96.9837C69.6924 98.1075 68.9935 99.7876 67.1278 101.661C65.2125 103.578 62.2681 105.539 58.8614 107.131L58.6743 107.224C54.7062 109.092 50.7821 110.166 47.8872 110.166Z" fill="#503EAA"/>
<path d="M34.0121 132.371C32.4215 132.602 29.2955 126.807 30.4182 128.118C31.541 129.43 34.5735 126.951 35.9273 124.097C35.9769 124.097 35.6026 132.184 34.0121 132.371Z" fill="#503EAA"/>
<path d="M233.228 52.3624L214.452 77.5831C211.962 80.905 216.896 88.8157 225.5 95.1969C234.057 101.624 243.056 104.071 245.541 100.749L264.364 75.5281C266.854 72.2062 261.92 64.2955 253.316 57.9144C244.713 51.5332 235.672 49.0405 233.228 52.3624Z" fill="#C0DBFF"/>
<path d="M264.9 75.9267C267.38 72.5974 262.338 64.6342 253.637 58.1404C244.936 51.6467 235.872 49.0814 233.392 52.4107C230.912 55.74 235.954 63.7032 244.655 70.1969C253.356 76.6907 262.42 79.256 264.9 75.9267Z" fill="white"/>
<path d="M157.641 32.431L175.238 8.82744C176.288 7.42657 178.254 7.16905 179.648 8.17334L226.241 42.9632C227.64 44.0139 227.898 45.9812 226.894 47.3769L209.297 70.9805C208.247 72.3814 206.281 72.6389 204.887 71.6346L158.294 36.8447C156.9 35.7529 156.591 33.7855 157.641 32.431Z" fill="#C0DBFF"/>
<path d="M178.326 14.228L160.288 38.4401L207.587 73.7417L225.625 49.5296L178.326 14.228Z" fill="#77A4F2"/>
<path d="M252.4 103.283L269.823 79.6792C270.873 78.2784 272.792 78.0209 274.192 79.0252L320.743 113.511C322.143 114.562 322.4 116.483 321.397 117.884L303.974 141.487C302.924 142.888 301.005 143.146 299.606 142.141L253.054 107.655C251.654 106.646 251.351 104.678 252.4 103.283Z" fill="#C0DBFF"/>
<path d="M274.279 85.8545L256.381 110.06L303.627 145.058L321.525 120.853L274.279 85.8545Z" fill="#77A4F2"/>
<path d="M216.459 89.0785L236.023 62.8071L231.742 55.947L212.178 82.2132L216.459 89.0785Z" fill="white"/>
<path d="M250.435 74.0862L232.488 98.215L242.794 101.274C242.794 101.274 247.816 97.3395 249.432 94.9343C251.048 92.5292 261.792 78.4124 261.792 78.4124L250.435 74.0862Z" fill="#77A4F2"/>
<path d="M228.423 48.5616L210.825 72.1651C209.122 74.4364 205.937 74.9205 203.662 73.2158L157.07 38.4259C154.8 36.7212 154.317 33.5281 156.02 31.2568L173.618 7.65329C175.321 5.38204 178.506 4.89791 180.78 6.60264L227.373 41.3925C229.647 43.0508 230.126 46.244 228.423 48.5616C228.423 48.5616 228.469 48.5616 228.423 48.5616ZM159.21 33.6105C158.819 34.1358 158.948 34.8362 159.426 35.2276L206.019 70.0175C206.544 70.4089 207.244 70.3213 207.635 69.8012L225.232 46.1976C225.623 45.6723 225.495 44.9719 225.016 44.5805L178.424 9.74429C177.899 9.35287 177.199 9.44041 176.808 9.96059L159.21 33.6105Z" fill="#503EAA"/>
<path d="M265.892 76.7489L262.702 74.39C264.014 72.5978 260.474 65.7788 252.092 59.5316C243.71 53.2792 236.151 51.796 234.798 53.5883L231.607 51.2294C235.317 46.2028 245.933 50.05 254.443 56.3848C262.964 62.6784 269.602 71.7274 265.892 76.7489Z" fill="#503EAA"/>
<path d="M263.724 72.2947C265.482 69.9346 261.485 63.9742 254.796 58.9819C248.107 53.9895 241.259 51.8558 239.501 54.216C237.742 56.5761 241.739 62.5365 248.428 67.5288C255.117 72.5211 261.965 74.6549 263.724 72.2947Z" fill="#C0DBFF"/>
<path d="M265.892 76.7489C262.182 81.7755 251.567 77.9283 243.056 71.5935C234.545 65.2587 227.903 56.2097 231.618 51.1831L234.808 53.5419C233.496 55.2878 237.077 62.1531 245.418 68.4003C253.8 74.6527 261.4 76.0948 262.712 74.3901L265.892 76.7489Z" fill="#503EAA"/>
<path d="M229.56 82.7849C227.028 80.6012 224.8 78.0621 223.009 75.2244L219.037 80.5549C220.869 83.3514 223.056 85.8854 225.587 88.0742L229.56 82.7849Z" fill="#503EAA"/>
<path d="M217.947 88.2441L209.04 92.7455C209.04 92.7455 208.299 97.3807 213.012 102.186C217.731 106.996 221.878 108.696 221.878 108.696L229.607 98.3386L217.947 88.2441Z" fill="#C0DBFF"/>
<path d="M234.757 75.7908C232.225 73.6071 229.997 71.068 228.165 68.2302L225.896 71.2483C227.728 74.0448 229.915 76.5788 232.446 78.7676L234.757 75.7908Z" fill="#503EAA"/>
<path d="M227.728 97.4683L220.74 108.001C220.74 108.001 221.44 108.964 225.716 110.493C229.997 112.023 234.932 112.023 236.064 109.18C237.201 106.337 237.026 102.799 235.148 101.357C233.27 99.9146 227.728 97.4683 227.728 97.4683Z" fill="#77A4F2"/>
<path d="M218.554 90.0827L209.384 97.1179L208.993 89.032L216.156 87.2397L218.554 90.0827Z" fill="white"/>
<path d="M265.892 76.7488L247.116 101.97C243.406 106.996 232.791 103.149 224.28 96.8141C215.764 90.4742 209.127 81.4304 212.842 76.4038L231.664 51.183C235.374 46.1564 245.989 50.0036 254.5 56.3384C262.964 62.6784 269.602 71.7273 265.892 76.7488ZM215.981 78.8038C214.668 80.5497 218.25 87.415 226.591 93.6622C234.973 99.9146 242.531 101.398 243.838 99.6056L262.661 74.3849C263.973 72.5926 260.433 65.7737 252.051 59.5264C243.669 53.2741 236.11 51.7908 234.803 53.5831L215.981 78.8038Z" fill="#503EAA"/>
<path d="M256.723 66.3918C255.108 68.5755 250.96 68.2716 247.466 65.6914C243.973 63.1111 242.491 59.2227 244.148 56.9926L246.242 54.196C248.12 56.0295 250.085 57.7806 252.18 59.3978C255.195 61.6278 256.24 62.1532 258.73 63.7703L256.723 66.3918Z" fill="#503EAA"/>
<path d="M235.894 88.3318L233.578 91.4786C232.75 92.6168 233.274 94.3215 234.803 95.2794C236.331 96.2374 238.209 96.1086 239.084 94.9756L241.44 91.8288C242.269 90.6906 241.744 88.9859 240.216 88.0279C238.688 87.0648 236.722 87.1987 235.894 88.3318Z" fill="#503EAA"/>
<path d="M246.306 84.7534C246.89 83.5607 246.064 81.9565 244.462 81.1704C242.859 80.3843 241.087 80.7138 240.503 81.9065C239.919 83.0993 240.744 84.7035 242.347 85.4896C243.949 86.2757 245.722 85.9461 246.306 84.7534Z" fill="#503EAA"/>
<path d="M237.685 110.406C234.104 115.216 224.672 113.99 216.202 107.696C207.733 101.357 203.889 92.663 207.424 87.8526C208.474 86.4518 214.015 84.5771 216.156 84.2681L216.681 88.2029C214.54 88.6406 212.446 89.3823 210.481 90.3865C208.824 93.0544 211.659 99.3892 218.518 104.503C225.418 109.659 232.272 110.534 234.325 108.217C234.762 106.033 234.85 103.844 234.675 101.66L238.606 101.048C238.951 103.195 238.729 109.005 237.685 110.406Z" fill="#503EAA"/>
<path d="M167.431 19.4363L165.656 21.8187L217.295 60.3593L219.07 57.9769L167.431 19.4363Z" fill="#503EAA"/>
<path d="M188.929 15.0483L167.6 43.6784L169.98 45.4548L191.309 16.8248L188.929 15.0483Z" fill="#503EAA"/>
<path d="M201.83 24.6619L180.501 53.292L182.882 55.0685L204.211 26.4384L201.83 24.6619Z" fill="#503EAA"/>
<path d="M214.746 34.3376L193.417 62.9677L195.797 64.7441L217.126 36.114L214.746 34.3376Z" fill="#503EAA"/>
<path d="M324.623 120.325L307.026 143.929C305.323 146.2 302.137 146.684 299.863 144.979L253.27 110.189C251.001 108.485 250.564 105.291 252.221 103.02L269.818 79.4167C271.522 77.1455 274.707 76.6613 276.981 78.3661L323.574 113.156C325.848 114.866 326.327 118.054 324.623 120.325C324.623 120.325 324.67 120.325 324.623 120.325ZM255.411 105.425C255.02 105.951 255.107 106.651 255.627 107.043L302.22 141.832C302.745 142.224 303.444 142.136 303.835 141.616L321.433 118.013C321.824 117.487 321.737 116.787 321.217 116.395L274.624 81.5592C274.099 81.1678 273.4 81.2553 273.009 81.7755L255.411 105.425Z" fill="#503EAA"/>
<path d="M263.649 91.2366L261.874 93.619L313.513 132.159L315.288 129.777L263.649 91.2366Z" fill="#503EAA"/>
<path d="M283.41 85.8425L262.24 114.473L264.626 116.241L285.797 87.6103L283.41 85.8425Z" fill="#503EAA"/>
<path d="M296.28 95.4001L275.109 124.031L277.496 125.799L298.666 97.1679L296.28 95.4001Z" fill="#503EAA"/>
<path d="M310.966 106.128L289.637 134.758L292.017 136.534L313.346 107.904L310.966 106.128Z" fill="#503EAA"/>
<path d="M221.251 57.1304L217.101 62.7003L222.002 66.3579L226.151 60.788L221.251 57.1304Z" fill="#503EAA"/>
<path d="M258.853 85.1775L254.704 90.7475L259.604 94.4051L263.754 88.8351L258.853 85.1775Z" fill="#503EAA"/>
<path d="M241.219 19.1023C232.791 30.3761 237.772 48.3401 252.354 59.1814C266.895 70.0226 285.497 69.7136 293.925 58.3934C297.81 53.1917 289.119 40.2131 274.578 29.3255C259.995 18.4894 245.063 13.9005 241.219 19.1023Z" fill="#C0DBFF"/>
<path d="M252.792 57.5641C244.929 50.8328 244.147 40.4756 244.801 34.182L238.379 24.2627C238.379 24.3039 233.357 45.3684 252.792 57.5641Z" fill="white"/>
<path d="M253.708 58.2646C262.398 63.8578 272.53 61.6742 278.38 59.2691L289.69 62.5909C289.644 62.5909 270.955 73.3857 253.708 58.2646Z" fill="#77A4F2"/>
<path d="M295.453 59.6192C290.128 66.7419 272.875 59.8818 259.342 49.741C245.804 39.6465 234.278 25.0456 239.563 17.9229L242.753 20.2817C240.35 23.5572 246.375 35.0989 261.704 46.5479C277.032 57.9968 289.824 60.4895 292.274 57.214L295.453 59.6192Z" fill="#503EAA"/>
<path d="M290.842 59.8698C294 55.6306 286.936 45.011 275.064 36.1504C263.192 27.2897 251.008 23.5432 247.85 27.7824C244.692 32.0216 251.756 42.6411 263.628 51.5018C275.5 60.3625 287.684 64.1089 290.842 59.8698Z" fill="#503EAA"/>
<path d="M295.454 59.6192C286.413 71.7686 266.5 72.294 251.13 60.7986C235.714 49.3033 230.563 30.0723 239.604 17.9229C244.93 10.8001 262.183 17.6602 275.715 27.8011C289.253 37.8492 300.784 52.4501 295.454 59.6192ZM242.789 20.2817C235.061 30.6852 239.861 47.4235 253.487 57.6055C267.112 67.7875 284.535 67.6124 292.263 57.2141C294.708 53.9385 288.641 42.3968 273.312 30.9478C257.989 19.4937 245.192 17.001 242.789 20.2817Z" fill="#503EAA"/>
<path d="M288.619 8.0835L244.422 15.1756L245.051 19.1015L289.248 12.0094L288.619 8.0835Z" fill="#503EAA"/>
<path d="M290.826 9.67285L286.887 10.189L292.696 54.6049L296.635 54.0889L290.826 9.67285Z" fill="#503EAA"/>
<path d="M288.288 7.73096L260.25 45.3663L263.435 47.7431L291.472 10.1078L288.288 7.73096Z" fill="#503EAA"/>
<path d="M291.26 13.8129C295.071 13.8129 298.16 10.7208 298.16 6.90647C298.16 3.09213 295.071 0 291.26 0C287.449 0 284.36 3.09213 284.36 6.90647C284.36 10.7208 287.449 13.8129 291.26 13.8129Z" fill="#77A4F2"/>
<path d="M144.592 138H145.768V134.576L147.472 137.68L149.168 134.576V138H150.352V132.504H149.168L147.472 135.608L145.768 132.504H144.592V138ZM155.522 132.504L153.946 136.376L152.37 132.504H151.042L153.282 138H154.602L156.842 132.504H155.522ZM157.529 138H158.705V136.464L159.393 135.728L161.081 138H162.513L160.217 134.888L162.361 132.504H160.929L158.705 135.024V132.504H157.529V138ZM169.989 137.696L169.125 136.784C169.397 136.424 169.645 135.992 169.885 135.512L169.037 135.112C168.893 135.472 168.709 135.816 168.501 136.12C168.165 135.76 167.893 135.456 167.653 135.176C168.525 134.776 168.909 134.44 168.909 133.824C168.909 133.032 168.253 132.432 167.357 132.432C166.485 132.432 165.797 133.064 165.797 133.832C165.797 134.24 165.901 134.528 166.189 134.952C165.349 135.328 164.997 135.784 164.997 136.504C164.997 137.504 165.789 138.096 166.845 138.096C167.469 138.096 167.989 137.888 168.445 137.52L169.029 138.128L169.989 137.696ZM167.373 133.272C167.685 133.272 167.901 133.512 167.901 133.832C167.901 134.192 167.685 134.36 167.149 134.576C166.925 134.296 166.797 134.088 166.797 133.832C166.797 133.504 167.053 133.272 167.373 133.272ZM166.989 137.208C166.533 137.208 166.157 136.912 166.157 136.424C166.157 136.104 166.325 135.848 166.701 135.624C166.981 135.952 167.341 136.36 167.829 136.872C167.557 137.08 167.277 137.208 166.989 137.208ZM175.462 138.096C176.918 138.096 177.95 137.072 177.95 135.624V132.504H176.766V135.576C176.766 136.424 176.222 137.024 175.462 137.024C174.694 137.024 174.15 136.424 174.15 135.576V132.504H172.974V135.624C172.974 137.072 173.998 138.096 175.462 138.096ZM181.101 138.096C182.445 138.096 183.237 137.4 183.237 136.352C183.237 135.336 182.453 134.984 181.269 134.72C180.421 134.528 180.093 134.4 180.093 134C180.093 133.672 180.397 133.408 180.901 133.408C181.429 133.408 181.981 133.624 182.469 134.016L183.085 133.168C182.525 132.688 181.829 132.408 180.933 132.408C179.733 132.408 178.901 133.104 178.901 134.12C178.901 135.184 179.725 135.512 180.885 135.776C181.725 135.968 182.045 136.088 182.045 136.48C182.045 136.824 181.741 137.096 181.149 137.096C180.453 137.096 179.861 136.824 179.341 136.376L178.661 137.184C179.301 137.776 180.149 138.096 181.101 138.096ZM184.131 138H186.099C187.947 138 189.259 136.856 189.259 135.248C189.259 133.64 187.947 132.504 186.099 132.504H184.131V138ZM185.307 136.928V133.576H186.251C187.299 133.576 188.043 134.272 188.043 135.248C188.043 136.232 187.299 136.928 186.251 136.928H185.307ZM190.217 138H191.393V134.576L193.097 137.68L194.793 134.576V138H195.977V132.504H194.793L193.097 135.608L191.393 132.504H190.217V138Z" fill="#38237C"/>
<path d="M158.192 148.526L156.84 146.606C157.592 146.342 158.088 145.702 158.088 144.886C158.088 143.798 157.208 143.03 156.016 143.03H153.544V148.526H154.72V146.742H155.592L156.848 148.526H158.192ZM154.72 144.11H155.888C156.472 144.11 156.872 144.414 156.872 144.886C156.872 145.358 156.472 145.662 155.888 145.662H154.72V144.11ZM160.886 147.59C160.398 147.59 160.038 147.286 159.902 146.838H162.886C162.886 145.278 162.126 144.294 160.83 144.294C159.622 144.294 158.702 145.198 158.702 146.446C158.702 147.718 159.662 148.622 160.894 148.622C161.502 148.622 162.214 148.366 162.582 147.982L161.838 147.222C161.614 147.438 161.214 147.59 160.886 147.59ZM160.878 145.326C161.35 145.326 161.654 145.59 161.766 145.998H159.918C160.07 145.582 160.438 145.326 160.878 145.326ZM164.521 148.526H165.569L166.345 145.926L167.113 148.526H168.161L169.569 144.39H168.425L167.641 146.966L166.825 144.39H165.857L165.041 146.966L164.257 144.39H163.113L164.521 148.526ZM172.055 144.294C171.479 144.294 170.911 144.454 170.327 144.75L170.719 145.526C171.047 145.358 171.407 145.23 171.791 145.23C172.471 145.23 172.743 145.614 172.743 146.054V146.134C172.391 145.998 172.023 145.926 171.687 145.926C170.727 145.926 169.967 146.486 169.967 147.302C169.967 148.094 170.647 148.622 171.527 148.622C171.975 148.622 172.447 148.446 172.743 148.11V148.526H173.871V146.054C173.871 144.974 173.135 144.294 172.055 144.294ZM171.791 147.814C171.391 147.814 171.095 147.606 171.095 147.27C171.095 146.934 171.431 146.686 171.855 146.686C172.175 146.686 172.479 146.742 172.743 146.838V147.222C172.663 147.606 172.239 147.814 171.791 147.814ZM176.024 145.158V144.39H174.856V148.526H176.024V146.55C176.024 145.774 176.576 145.278 177.44 145.278V144.294C176.808 144.294 176.296 144.622 176.024 145.158ZM181.202 142.934V144.982C180.874 144.55 180.394 144.294 179.81 144.294C178.706 144.294 177.906 145.19 177.906 146.454C177.906 147.726 178.706 148.622 179.81 148.622C180.394 148.622 180.874 148.366 181.202 147.934V148.526H182.37V142.934H181.202ZM180.146 147.638C179.498 147.638 179.042 147.15 179.042 146.454C179.042 145.766 179.498 145.278 180.146 145.278C180.762 145.278 181.202 145.766 181.202 146.454C181.202 147.15 180.762 147.638 180.146 147.638ZM184.947 148.622C185.963 148.622 186.627 148.102 186.627 147.286C186.627 146.382 185.835 146.142 185.123 145.958C184.563 145.806 184.395 145.742 184.395 145.518C184.395 145.374 184.595 145.27 184.883 145.27C185.235 145.27 185.667 145.406 186.043 145.638L186.515 144.806C186.059 144.502 185.475 144.294 184.883 144.294C183.907 144.294 183.259 144.854 183.267 145.638C183.275 146.454 183.931 146.686 184.779 146.894C185.203 147.006 185.507 147.086 185.507 147.342C185.507 147.526 185.283 147.654 184.971 147.654C184.419 147.654 183.955 147.454 183.587 147.19L183.083 147.998C183.579 148.398 184.283 148.622 184.947 148.622Z" fill="#38237C"/>
<path d="M128.592 89H130.56C132.408 89 133.72 87.856 133.72 86.248C133.72 84.64 132.408 83.504 130.56 83.504H128.592V89ZM129.768 87.928V84.576H130.712C131.76 84.576 132.504 85.272 132.504 86.248C132.504 87.232 131.76 87.928 130.712 87.928H129.768ZM136.55 88.064C136.062 88.064 135.702 87.76 135.566 87.312H138.55C138.55 85.752 137.79 84.768 136.494 84.768C135.286 84.768 134.366 85.672 134.366 86.92C134.366 88.192 135.326 89.096 136.558 89.096C137.166 89.096 137.878 88.84 138.246 88.456L137.502 87.696C137.278 87.912 136.878 88.064 136.55 88.064ZM136.542 85.8C137.014 85.8 137.318 86.064 137.43 86.472H135.582C135.734 86.056 136.102 85.8 136.542 85.8ZM139.34 89H140.508V83.408H139.34V89ZM143.48 88.064C142.992 88.064 142.632 87.76 142.496 87.312H145.48C145.48 85.752 144.72 84.768 143.424 84.768C142.216 84.768 141.296 85.672 141.296 86.92C141.296 88.192 142.256 89.096 143.488 89.096C144.096 89.096 144.808 88.84 145.176 88.456L144.432 87.696C144.208 87.912 143.808 88.064 143.48 88.064ZM143.472 85.8C143.944 85.8 144.248 86.064 144.36 86.472H142.512C142.664 86.056 143.032 85.8 143.472 85.8ZM149.262 84.864V85.424C148.982 85.032 148.454 84.768 147.894 84.768C146.854 84.768 146.062 85.576 146.062 86.728C146.062 87.88 146.854 88.696 147.894 88.696C148.438 88.696 148.934 88.456 149.262 88.056V88.512C149.262 89.048 148.782 89.392 148.03 89.392C147.55 89.392 147.07 89.24 146.798 89L146.39 89.824C146.798 90.144 147.486 90.376 148.214 90.376C149.518 90.376 150.438 89.624 150.438 88.56V84.864H149.262ZM148.262 87.712C147.678 87.712 147.262 87.304 147.262 86.728C147.262 86.152 147.678 85.752 148.262 85.752C148.846 85.752 149.262 86.152 149.262 86.728C149.262 87.304 148.846 87.712 148.262 87.712ZM153.313 84.768C152.737 84.768 152.169 84.928 151.585 85.224L151.977 86C152.305 85.832 152.665 85.704 153.049 85.704C153.729 85.704 154.001 86.088 154.001 86.528V86.608C153.649 86.472 153.281 86.4 152.945 86.4C151.985 86.4 151.225 86.96 151.225 87.776C151.225 88.568 151.905 89.096 152.785 89.096C153.233 89.096 153.705 88.92 154.001 88.584V89H155.129V86.528C155.129 85.448 154.393 84.768 153.313 84.768ZM153.049 88.288C152.649 88.288 152.353 88.08 152.353 87.744C152.353 87.408 152.689 87.16 153.113 87.16C153.433 87.16 153.737 87.216 154.001 87.312V87.696C153.921 88.08 153.497 88.288 153.049 88.288ZM158.29 87.976C158.21 88.056 158.05 88.112 157.89 88.112C157.674 88.112 157.498 87.92 157.498 87.648V85.808H158.394V84.864H157.498V83.728H156.378V84.864H155.81V85.808H156.378V87.832C156.378 88.576 156.89 89.096 157.618 89.096C157.954 89.096 158.33 88.952 158.57 88.736L158.29 87.976ZM161.253 88.064C160.765 88.064 160.405 87.76 160.269 87.312H163.253C163.253 85.752 162.493 84.768 161.197 84.768C159.989 84.768 159.069 85.672 159.069 86.92C159.069 88.192 160.029 89.096 161.261 89.096C161.869 89.096 162.581 88.84 162.949 88.456L162.205 87.696C161.981 87.912 161.581 88.064 161.253 88.064ZM161.245 85.8C161.717 85.8 162.021 86.064 162.133 86.472H160.285C160.437 86.056 160.805 85.8 161.245 85.8ZM167.131 83.408V85.456C166.803 85.024 166.323 84.768 165.739 84.768C164.635 84.768 163.835 85.664 163.835 86.928C163.835 88.2 164.635 89.096 165.739 89.096C166.323 89.096 166.803 88.84 167.131 88.408V89H168.299V83.408H167.131ZM166.075 88.112C165.427 88.112 164.971 87.624 164.971 86.928C164.971 86.24 165.427 85.752 166.075 85.752C166.691 85.752 167.131 86.24 167.131 86.928C167.131 87.624 166.691 88.112 166.075 88.112Z" fill="#38237C"/>
<path d="M139.592 99.0807H140.768V95.6567L142.472 98.7607L144.168 95.6567V99.0807H145.352V93.5847H144.168L142.472 96.6887L140.768 93.5847H139.592V99.0807ZM150.522 93.5847L148.946 97.4567L147.37 93.5847H146.042L148.282 99.0807H149.602L151.842 93.5847H150.522ZM152.529 99.0807H153.705V97.5447L154.393 96.8087L156.081 99.0807H157.513L155.217 95.9687L157.361 93.5847H155.929L153.705 96.1047V93.5847H152.529V99.0807Z" fill="#38237C"/>
<path d="M363.592 145H364.768V141.576L366.472 144.68L368.168 141.576V145H369.352V139.504H368.168L366.472 142.608L364.768 139.504H363.592V145ZM374.522 139.504L372.946 143.376L371.37 139.504H370.042L372.282 145H373.602L375.842 139.504H374.522ZM376.529 145H377.705V143.464L378.393 142.728L380.081 145H381.513L379.217 141.888L381.361 139.504H379.929L377.705 142.024V139.504H376.529V145Z" fill="#38237C"/>
<path d="M361.192 155.888L359.84 153.968C360.592 153.704 361.088 153.064 361.088 152.248C361.088 151.16 360.208 150.392 359.016 150.392H356.544V155.888H357.72V154.104H358.592L359.848 155.888H361.192ZM357.72 151.472H358.888C359.472 151.472 359.872 151.776 359.872 152.248C359.872 152.72 359.472 153.024 358.888 153.024H357.72V151.472ZM363.886 154.952C363.398 154.952 363.038 154.648 362.902 154.2H365.886C365.886 152.64 365.126 151.656 363.83 151.656C362.622 151.656 361.702 152.56 361.702 153.808C361.702 155.08 362.662 155.984 363.894 155.984C364.502 155.984 365.214 155.728 365.582 155.344L364.838 154.584C364.614 154.8 364.214 154.952 363.886 154.952ZM363.878 152.688C364.35 152.688 364.654 152.952 364.766 153.36H362.918C363.07 152.944 363.438 152.688 363.878 152.688ZM367.521 155.888H368.569L369.345 153.288L370.113 155.888H371.161L372.569 151.752H371.425L370.641 154.328L369.825 151.752H368.857L368.041 154.328L367.257 151.752H366.113L367.521 155.888ZM375.055 151.656C374.479 151.656 373.911 151.816 373.327 152.112L373.719 152.888C374.047 152.72 374.407 152.592 374.791 152.592C375.471 152.592 375.743 152.976 375.743 153.416V153.496C375.391 153.36 375.023 153.288 374.687 153.288C373.727 153.288 372.967 153.848 372.967 154.664C372.967 155.456 373.647 155.984 374.527 155.984C374.975 155.984 375.447 155.808 375.743 155.472V155.888H376.871V153.416C376.871 152.336 376.135 151.656 375.055 151.656ZM374.791 155.176C374.391 155.176 374.095 154.968 374.095 154.632C374.095 154.296 374.431 154.048 374.855 154.048C375.175 154.048 375.479 154.104 375.743 154.2V154.584C375.663 154.968 375.239 155.176 374.791 155.176ZM379.024 152.52V151.752H377.856V155.888H379.024V153.912C379.024 153.136 379.576 152.64 380.44 152.64V151.656C379.808 151.656 379.296 151.984 379.024 152.52ZM384.202 150.296V152.344C383.874 151.912 383.394 151.656 382.81 151.656C381.706 151.656 380.906 152.552 380.906 153.816C380.906 155.088 381.706 155.984 382.81 155.984C383.394 155.984 383.874 155.728 384.202 155.296V155.888H385.37V150.296H384.202ZM383.146 155C382.498 155 382.042 154.512 382.042 153.816C382.042 153.128 382.498 152.64 383.146 152.64C383.762 152.64 384.202 153.128 384.202 153.816C384.202 154.512 383.762 155 383.146 155ZM387.947 155.984C388.963 155.984 389.627 155.464 389.627 154.648C389.627 153.744 388.835 153.504 388.123 153.32C387.563 153.168 387.395 153.104 387.395 152.88C387.395 152.736 387.595 152.632 387.883 152.632C388.235 152.632 388.667 152.768 389.043 153L389.515 152.168C389.059 151.864 388.475 151.656 387.883 151.656C386.907 151.656 386.259 152.216 386.267 153C386.275 153.816 386.931 154.048 387.779 154.256C388.203 154.368 388.507 154.448 388.507 154.704C388.507 154.888 388.283 155.016 387.971 155.016C387.419 155.016 386.955 154.816 386.587 154.552L386.083 155.36C386.579 155.76 387.283 155.984 387.947 155.984Z" fill="#38237C"/>
<path d="M337.624 92.096C338.968 92.096 339.76 91.4 339.76 90.352C339.76 89.336 338.976 88.984 337.792 88.72C336.944 88.528 336.616 88.4 336.616 88C336.616 87.672 336.92 87.408 337.424 87.408C337.952 87.408 338.504 87.624 338.992 88.016L339.608 87.168C339.048 86.688 338.352 86.408 337.456 86.408C336.256 86.408 335.424 87.104 335.424 88.12C335.424 89.184 336.248 89.512 337.408 89.776C338.248 89.968 338.568 90.088 338.568 90.48C338.568 90.824 338.264 91.096 337.672 91.096C336.976 91.096 336.384 90.824 335.864 90.376L335.184 91.184C335.824 91.776 336.672 92.096 337.624 92.096ZM341.159 87.296C341.503 87.296 341.783 87.008 341.783 86.656C341.783 86.328 341.503 86.032 341.159 86.032C340.799 86.032 340.519 86.328 340.519 86.656C340.519 87.008 340.799 87.296 341.159 87.296ZM340.567 92H341.735V87.864H340.567V92ZM345.746 87.864V88.424C345.466 88.032 344.938 87.768 344.378 87.768C343.338 87.768 342.546 88.576 342.546 89.728C342.546 90.88 343.338 91.696 344.378 91.696C344.922 91.696 345.418 91.456 345.746 91.056V91.512C345.746 92.048 345.266 92.392 344.514 92.392C344.034 92.392 343.554 92.24 343.282 92L342.874 92.824C343.282 93.144 343.97 93.376 344.698 93.376C346.002 93.376 346.922 92.624 346.922 91.56V87.864H345.746ZM344.746 90.712C344.162 90.712 343.746 90.304 343.746 89.728C343.746 89.152 344.162 88.752 344.746 88.752C345.33 88.752 345.746 89.152 345.746 89.728C345.746 90.304 345.33 90.712 344.746 90.712ZM350.342 87.768C349.806 87.768 349.342 88.008 349.094 88.384V87.864H347.926V92H349.094V89.528L349.102 89.552C349.102 89.104 349.478 88.752 349.966 88.752C350.43 88.752 350.75 89.104 350.75 89.616V92H351.878V89.368C351.878 88.432 351.238 87.768 350.342 87.768ZM354.816 91.064C354.328 91.064 353.968 90.76 353.832 90.312H356.816C356.816 88.752 356.056 87.768 354.76 87.768C353.552 87.768 352.632 88.672 352.632 89.92C352.632 91.192 353.592 92.096 354.824 92.096C355.432 92.096 356.144 91.84 356.512 91.456L355.768 90.696C355.544 90.912 355.144 91.064 354.816 91.064ZM354.808 88.8C355.28 88.8 355.584 89.064 355.696 89.472H353.848C354 89.056 354.368 88.8 354.808 88.8ZM360.694 86.408V88.456C360.366 88.024 359.886 87.768 359.302 87.768C358.198 87.768 357.398 88.664 357.398 89.928C357.398 91.2 358.198 92.096 359.302 92.096C359.886 92.096 360.366 91.84 360.694 91.408V92H361.862V86.408H360.694ZM359.638 91.112C358.99 91.112 358.534 90.624 358.534 89.928C358.534 89.24 358.99 88.752 359.638 88.752C360.254 88.752 360.694 89.24 360.694 89.928C360.694 90.624 360.254 91.112 359.638 91.112Z" fill="#38237C"/>
<path d="M332.064 99.3676C331.488 99.3676 331.008 99.6156 330.68 100.04V99.4636H329.512V104.976H330.68V103.016C331.008 103.448 331.488 103.696 332.064 103.696C333.168 103.696 333.968 102.8 333.968 101.528C333.968 100.264 333.168 99.3676 332.064 99.3676ZM331.728 102.712C331.16 102.712 330.744 102.296 330.68 101.688V101.368C330.744 100.768 331.16 100.352 331.728 100.352C332.376 100.352 332.832 100.84 332.832 101.528C332.832 102.224 332.376 102.712 331.728 102.712ZM335.961 100.232V99.4636H334.793V103.6H335.961V101.624C335.961 100.848 336.513 100.352 337.377 100.352V99.3676C336.745 99.3676 336.233 99.6956 335.961 100.232ZM338.635 98.8956C338.979 98.8956 339.259 98.6076 339.259 98.2556C339.259 97.9276 338.979 97.6316 338.635 97.6316C338.275 97.6316 337.995 97.9276 337.995 98.2556C337.995 98.6076 338.275 98.8956 338.635 98.8956ZM338.043 103.6H339.211V99.4636H338.043V103.6ZM342.255 103.696C342.943 103.696 343.503 103.416 343.911 102.968L343.135 102.312C342.919 102.552 342.583 102.712 342.263 102.712C341.647 102.712 341.135 102.168 341.135 101.52C341.135 100.888 341.647 100.352 342.255 100.352C342.575 100.352 342.903 100.504 343.111 100.736L343.887 100.072C343.487 99.6396 342.935 99.3676 342.263 99.3676C341.039 99.3676 339.999 100.352 339.999 101.528C339.999 102.704 341.031 103.696 342.255 103.696ZM346.566 102.664C346.078 102.664 345.718 102.36 345.582 101.912H348.566C348.566 100.352 347.806 99.3676 346.51 99.3676C345.302 99.3676 344.382 100.272 344.382 101.52C344.382 102.792 345.342 103.696 346.574 103.696C347.182 103.696 347.894 103.44 348.262 103.056L347.518 102.296C347.294 102.512 346.894 102.664 346.566 102.664ZM346.558 100.4C347.03 100.4 347.334 100.664 347.446 101.072H345.598C345.75 100.656 346.118 100.4 346.558 100.4ZM352.974 99.2396C352.974 98.9676 353.15 98.7756 353.366 98.7756C353.526 98.7756 353.686 98.8316 353.766 98.9116L354.046 98.1996C353.806 97.9836 353.43 97.8396 353.094 97.8396C352.366 97.8396 351.854 98.3596 351.854 99.1036V99.4636H351.286V100.408H351.854V103.6H352.974V100.408H353.87V99.4636H352.974V99.2396ZM356.573 102.664C356.085 102.664 355.725 102.36 355.589 101.912H358.573C358.573 100.352 357.813 99.3676 356.517 99.3676C355.309 99.3676 354.389 100.272 354.389 101.52C354.389 102.792 355.349 103.696 356.581 103.696C357.189 103.696 357.901 103.44 358.269 103.056L357.525 102.296C357.301 102.512 356.901 102.664 356.573 102.664ZM356.565 100.4C357.037 100.4 357.341 100.664 357.453 101.072H355.605C355.757 100.656 356.125 100.4 356.565 100.4ZM361.316 102.664C360.828 102.664 360.468 102.36 360.332 101.912H363.316C363.316 100.352 362.556 99.3676 361.26 99.3676C360.052 99.3676 359.132 100.272 359.132 101.52C359.132 102.792 360.092 103.696 361.324 103.696C361.932 103.696 362.644 103.44 363.012 103.056L362.268 102.296C362.044 102.512 361.644 102.664 361.316 102.664ZM361.308 100.4C361.78 100.4 362.084 100.664 362.196 101.072H360.348C360.5 100.656 360.868 100.4 361.308 100.4ZM367.194 98.0076V100.056C366.866 99.6236 366.386 99.3676 365.802 99.3676C364.698 99.3676 363.898 100.264 363.898 101.528C363.898 102.8 364.698 103.696 365.802 103.696C366.386 103.696 366.866 103.44 367.194 103.008V103.6H368.362V98.0076H367.194ZM366.138 102.712C365.49 102.712 365.034 102.224 365.034 101.528C365.034 100.84 365.49 100.352 366.138 100.352C366.754 100.352 367.194 100.84 367.194 101.528C367.194 102.224 366.754 102.712 366.138 102.712Z" fill="#38237C"/>
<path d="M256.024 167.096C257.48 167.096 258.512 166.072 258.512 164.624V161.504H257.328V164.576C257.328 165.424 256.784 166.024 256.024 166.024C255.256 166.024 254.712 165.424 254.712 164.576V161.504H253.536V164.624C253.536 166.072 254.56 167.096 256.024 167.096ZM261.663 167.096C263.007 167.096 263.799 166.4 263.799 165.352C263.799 164.336 263.015 163.984 261.831 163.72C260.983 163.528 260.655 163.4 260.655 163C260.655 162.672 260.959 162.408 261.463 162.408C261.991 162.408 262.543 162.624 263.031 163.016L263.647 162.168C263.087 161.688 262.391 161.408 261.495 161.408C260.295 161.408 259.463 162.104 259.463 163.12C259.463 164.184 260.287 164.512 261.447 164.776C262.287 164.968 262.607 165.088 262.607 165.48C262.607 165.824 262.303 166.096 261.711 166.096C261.015 166.096 260.423 165.824 259.903 165.376L259.223 166.184C259.863 166.776 260.711 167.096 261.663 167.096ZM264.694 167H266.662C268.51 167 269.822 165.856 269.822 164.248C269.822 162.64 268.51 161.504 266.662 161.504H264.694V167ZM265.87 165.928V162.576H266.814C267.862 162.576 268.606 163.272 268.606 164.248C268.606 165.232 267.862 165.928 266.814 165.928H265.87ZM270.78 167H271.956V163.576L273.66 166.68L275.356 163.576V167H276.54V161.504H275.356L273.66 164.608L271.956 161.504H270.78V167Z" fill="#38237C"/>
<path d="M253.192 176.107L251.84 174.187C252.592 173.923 253.088 173.283 253.088 172.467C253.088 171.379 252.208 170.611 251.016 170.611H248.544V176.107H249.72V174.323H250.592L251.848 176.107H253.192ZM249.72 171.691H250.888C251.472 171.691 251.872 171.995 251.872 172.467C251.872 172.939 251.472 173.243 250.888 173.243H249.72V171.691ZM255.886 175.171C255.398 175.171 255.038 174.867 254.902 174.419H257.886C257.886 172.859 257.126 171.875 255.83 171.875C254.622 171.875 253.702 172.779 253.702 174.027C253.702 175.299 254.662 176.203 255.894 176.203C256.502 176.203 257.214 175.947 257.582 175.563L256.838 174.803C256.614 175.019 256.214 175.171 255.886 175.171ZM255.878 172.907C256.35 172.907 256.654 173.171 256.766 173.579H254.918C255.07 173.163 255.438 172.907 255.878 172.907ZM259.521 176.107H260.569L261.345 173.507L262.113 176.107H263.161L264.569 171.971H263.425L262.641 174.547L261.825 171.971H260.857L260.041 174.547L259.257 171.971H258.113L259.521 176.107ZM267.055 171.875C266.479 171.875 265.911 172.035 265.327 172.331L265.719 173.107C266.047 172.939 266.407 172.811 266.791 172.811C267.471 172.811 267.743 173.195 267.743 173.635V173.715C267.391 173.579 267.023 173.507 266.687 173.507C265.727 173.507 264.967 174.067 264.967 174.883C264.967 175.675 265.647 176.203 266.527 176.203C266.975 176.203 267.447 176.027 267.743 175.691V176.107H268.871V173.635C268.871 172.555 268.135 171.875 267.055 171.875ZM266.791 175.395C266.391 175.395 266.095 175.187 266.095 174.851C266.095 174.515 266.431 174.267 266.855 174.267C267.175 174.267 267.479 174.323 267.743 174.419V174.803C267.663 175.187 267.239 175.395 266.791 175.395ZM271.024 172.739V171.971H269.856V176.107H271.024V174.131C271.024 173.355 271.576 172.859 272.44 172.859V171.875C271.808 171.875 271.296 172.203 271.024 172.739ZM276.202 170.515V172.563C275.874 172.131 275.394 171.875 274.81 171.875C273.706 171.875 272.906 172.771 272.906 174.035C272.906 175.307 273.706 176.203 274.81 176.203C275.394 176.203 275.874 175.947 276.202 175.515V176.107H277.37V170.515H276.202ZM275.146 175.219C274.498 175.219 274.042 174.731 274.042 174.035C274.042 173.347 274.498 172.859 275.146 172.859C275.762 172.859 276.202 173.347 276.202 174.035C276.202 174.731 275.762 175.219 275.146 175.219ZM279.947 176.203C280.963 176.203 281.627 175.683 281.627 174.867C281.627 173.963 280.835 173.723 280.123 173.539C279.563 173.387 279.395 173.323 279.395 173.099C279.395 172.955 279.595 172.851 279.883 172.851C280.235 172.851 280.667 172.987 281.043 173.219L281.515 172.387C281.059 172.083 280.475 171.875 279.883 171.875C278.907 171.875 278.259 172.435 278.267 173.219C278.275 174.035 278.931 174.267 279.779 174.475C280.203 174.587 280.507 174.667 280.507 174.923C280.507 175.107 280.283 175.235 279.971 175.235C279.419 175.235 278.955 175.035 278.587 174.771L278.083 175.579C278.579 175.979 279.283 176.203 279.947 176.203Z" fill="#38237C"/>
<path d="M213.854 182.45L212.278 186.322L210.702 182.45H209.374L211.614 187.946H212.934L215.174 182.45H213.854ZM217.259 188.042C218.483 188.042 219.507 187.05 219.507 185.874C219.507 184.698 218.483 183.714 217.259 183.714C216.027 183.714 214.995 184.698 214.995 185.874C214.995 187.05 216.027 188.042 217.259 188.042ZM217.259 187.058C216.635 187.058 216.115 186.514 216.115 185.874C216.115 185.234 216.635 184.698 217.259 184.698C217.875 184.698 218.395 185.234 218.395 185.874C218.395 186.514 217.875 187.058 217.259 187.058ZM222.473 186.922C222.393 187.002 222.233 187.058 222.073 187.058C221.857 187.058 221.681 186.866 221.681 186.594V184.754H222.577V183.81H221.681V182.674H220.561V183.81H219.993V184.754H220.561V186.778C220.561 187.522 221.073 188.042 221.801 188.042C222.137 188.042 222.513 187.898 222.753 187.682L222.473 186.922ZM225.437 187.01C224.949 187.01 224.589 186.706 224.453 186.258H227.437C227.437 184.698 226.677 183.714 225.381 183.714C224.173 183.714 223.253 184.618 223.253 185.866C223.253 187.138 224.213 188.042 225.445 188.042C226.053 188.042 226.765 187.786 227.133 187.402L226.389 186.642C226.165 186.858 225.765 187.01 225.437 187.01ZM225.429 184.746C225.901 184.746 226.205 185.01 226.317 185.418H224.469C224.621 185.002 224.989 184.746 225.429 184.746ZM229.779 188.042C230.795 188.042 231.459 187.522 231.459 186.706C231.459 185.802 230.667 185.562 229.955 185.378C229.395 185.226 229.227 185.162 229.227 184.938C229.227 184.794 229.427 184.69 229.715 184.69C230.067 184.69 230.499 184.826 230.875 185.058L231.347 184.226C230.891 183.922 230.307 183.714 229.715 183.714C228.739 183.714 228.091 184.274 228.099 185.058C228.107 185.874 228.763 186.106 229.611 186.314C230.035 186.426 230.339 186.506 230.339 186.762C230.339 186.946 230.115 187.074 229.803 187.074C229.251 187.074 228.787 186.874 228.419 186.61L227.915 187.418C228.411 187.818 229.115 188.042 229.779 188.042Z" fill="#38237C"/>
<path d="M447.89 154.339C451.784 154.339 454.94 151.18 454.94 147.283C454.94 143.386 451.784 140.226 447.89 140.226C443.996 140.226 440.84 143.386 440.84 147.283C440.84 151.18 443.996 154.339 447.89 154.339Z" fill="#503EAA"/>
<path d="M406.272 148.313C414.775 156.824 434.246 153.877 448.071 140.083C461.896 126.246 464.841 106.751 456.338 98.2452C452.414 94.3176 438.077 102.36 424.252 116.198C410.427 130.035 402.353 144.385 406.272 148.313Z" fill="#C0DBFF"/>
<path d="M438.515 130.624C452.406 117.037 460.452 102.73 456.486 98.6673C452.519 94.605 438.043 102.326 424.152 115.913C410.261 129.5 402.215 143.808 406.181 147.87C410.147 151.932 424.624 144.211 438.515 130.624Z" fill="#77A4F2"/>
<path d="M447.609 138.59C455.033 130.173 454.846 119.47 453.542 113.251L459.194 101.892C459.194 101.842 466.431 122.224 447.609 138.59Z" fill="white"/>
<path d="M446.723 139.428C438.313 146.859 427.62 146.672 421.406 145.366L410.058 151.023C410.058 151.073 430.421 158.273 446.723 139.428Z" fill="#77A4F2"/>
<path d="M439.834 131.669C448.773 122.727 453.433 112.887 450.242 109.692C447.051 106.496 437.218 111.155 428.279 120.097C419.34 129.039 414.68 138.879 417.871 142.074C421.061 145.27 430.895 140.611 439.834 131.669Z" fill="#503EAA"/>
<path d="M419.584 154.764C413.608 154.764 408.517 152.94 405.06 149.481C404.081 148.5 403.613 147.145 403.563 145.46C403.563 138.915 411.362 126.664 422.991 115.024C429.766 108.243 436.91 102.591 443.123 99.132C449.992 95.298 454.939 94.5985 457.416 97.0773C461.945 101.611 463.63 109.048 462.089 117.459C460.548 126.014 455.925 134.431 449.15 141.256C442.331 148.038 433.921 152.665 425.374 154.207C423.415 154.576 421.456 154.764 419.584 154.764ZM453.398 98.9007C451.714 98.9007 448.869 99.6939 444.758 101.986C438.825 105.307 431.962 110.772 425.374 117.322C419.909 122.792 415.192 128.493 411.83 133.776C408.698 138.64 406.926 142.893 406.926 145.415C406.926 146.209 407.113 146.771 407.438 147.101C411.175 150.841 417.526 152.246 424.857 150.886C432.749 149.437 440.548 145.184 446.855 138.871C453.162 132.558 457.455 124.709 458.907 116.853C460.261 109.516 458.863 103.153 455.127 99.4185C454.802 99.088 454.24 98.9007 453.398 98.9007Z" fill="#503EAA"/>
<path d="M434.907 134.057L415.661 110.772L418.743 107.687L442.1 126.857L434.907 134.057Z" fill="#C0DBFF"/>
<path d="M434.907 134.057L415.661 110.772L417.202 109.229L438.456 130.504L434.907 134.057Z" fill="#77A4F2"/>
<path d="M409.403 151.073C407.581 151.073 406.134 150.561 405.061 149.481C404.406 148.825 404.406 147.795 405.061 147.145C405.715 146.495 406.745 146.49 407.394 147.145C407.768 147.564 408.467 147.751 409.353 147.751C412.061 147.751 416.222 146.022 421.17 142.937C426.398 139.615 432.05 134.988 437.471 129.567C444.059 122.973 449.474 116.055 452.7 110.072C454.802 106.194 456.668 101.099 455.083 99.4627C454.428 98.8072 454.428 97.7771 455.083 97.127C455.738 96.477 456.767 96.4715 457.416 97.127C459.986 99.6996 459.375 104.745 455.594 111.714C452.182 117.977 446.58 125.177 439.81 132.002C428.412 143.355 416.178 151.073 409.403 151.073Z" fill="#503EAA"/>
<path d="M434.907 135.693C434.863 135.693 434.863 135.693 434.813 135.693C434.345 135.693 433.927 135.462 433.597 135.087L414.356 111.852C413.795 111.196 413.844 110.216 414.45 109.61L417.532 106.525C418.137 105.919 419.122 105.869 419.772 106.431L443.123 125.552C443.498 125.832 443.729 126.301 443.729 126.769C443.773 127.237 443.591 127.705 443.261 128.03L436.068 135.23C435.793 135.55 435.374 135.693 434.907 135.693ZM417.906 110.866L435 131.528L439.579 126.945L418.798 109.929L417.906 110.866Z" fill="#503EAA"/>
<path d="M414.263 112.221C417.512 112.221 420.146 109.584 420.146 106.332C420.146 103.08 417.512 100.443 414.263 100.443C411.013 100.443 408.379 103.08 408.379 106.332C408.379 109.584 411.013 112.221 414.263 112.221Z" fill="#503EAA"/>
<path d="M463.767 181.034H432.006L439.667 155.37C440.74 151.723 444.103 149.244 447.84 149.244C451.621 149.244 454.939 151.723 456.012 155.37L463.767 181.034Z" fill="#C0DBFF"/>
<path d="M453.305 152.522C453.305 152.522 447.933 151.398 446.436 155.7C444.939 160.002 440.691 176.082 440.691 176.082H433.217L439.661 155.326C439.661 155.326 441.158 150.181 444.659 149.624C448.17 149.062 451.252 148.594 453.305 152.522Z" fill="#77A4F2"/>
<path d="M466.013 182.67H429.766L438.082 154.857C439.392 150.511 443.31 147.564 447.889 147.564C452.468 147.564 456.392 150.511 457.697 154.857L466.013 182.67ZM434.251 179.354H461.527L454.477 155.838C453.591 152.891 450.927 150.93 447.889 150.93C444.807 150.93 442.193 152.891 441.302 155.838L434.251 179.354Z" fill="#503EAA"/>
<path d="M471.566 176.875H423.833V182.814H471.566V176.875Z" fill="#C0DBFF"/>
<path d="M437.565 176.082H423.228V183.513H437.565V176.082Z" fill="#77A4F2"/>
<path d="M472.551 176.082H464.048V183.513H472.551V176.082Z" fill="white"/>
<path d="M471.571 176.875V182.814H423.839V176.875H471.571ZM471.571 173.559H423.839C422.017 173.559 420.52 175.057 420.52 176.881V182.819C420.52 184.642 422.017 186.141 423.839 186.141H471.571C473.393 186.141 474.89 184.642 474.89 182.819V176.881C474.885 175.008 473.393 173.559 471.571 173.559Z" fill="#503EAA"/>
<path d="M450.553 170.568C451.818 170.568 452.843 169.542 452.843 168.276C452.843 167.011 451.818 165.985 450.553 165.985C449.289 165.985 448.264 167.011 448.264 168.276C448.264 169.542 449.289 170.568 450.553 170.568Z" fill="#8D86EB"/>
<path d="M450.553 163.6C451.818 163.6 452.843 162.574 452.843 161.308C452.843 160.042 451.818 159.016 450.553 159.016C449.289 159.016 448.264 160.042 448.264 161.308C448.264 162.574 449.289 163.6 450.553 163.6Z" fill="#FF8486"/>
</g>
<defs>
<clipPath id="clip0_29_416">
<rect width="497" height="441" fill="white"/>
</clipPath>
</defs>
</svg>
