<svg width="301" height="246" viewBox="0 0 301 246" fill="none" xmlns="http://www.w3.org/2000/svg">
<g clip-path="url(#clip0)">
<path d="M106.408 148.858L74.2974 126.943C88.0382 116.08 113.51 101.676 135.393 100.529" fill="#88D1C3"/>
<path d="M207.812 178.945C244.858 158.388 266.276 127.382 255.649 109.691C245.023 92 206.375 94.324 169.328 114.882C132.282 135.439 110.865 166.445 121.491 184.136C132.118 201.827 170.765 199.503 207.812 178.945Z" fill="#7996C9"/>
<path d="M66.6287 179.376C57.7398 184.328 48.2157 198.221 45.7681 207.836C55.6444 210.602 72.9494 209.628 81.8383 204.692C83.5996 203.748 85.1478 202.477 86.3936 200.952C87.6388 199.428 88.5562 197.681 89.0928 195.812C89.6294 193.944 89.7735 191.992 89.5179 190.069C89.2622 188.147 88.6109 186.292 87.6025 184.614C86.594 182.935 85.2488 181.466 83.6438 180.293C82.0393 179.118 80.2081 178.263 78.2564 177.776C76.3047 177.288 74.2714 177.178 72.275 177.453C70.2791 177.728 68.3595 178.381 66.6287 179.376Z" fill="#FF8080"/>
<path d="M195.914 159.125C232.961 138.568 254.378 107.562 243.751 89.8709C233.124 72.1801 194.477 74.5037 157.431 95.0611C120.384 115.619 98.9663 146.625 109.593 164.316C120.22 182.007 158.867 179.683 195.914 159.125Z" fill="white"/>
<path d="M183.333 154.151C216.408 135.798 236.78 110.198 228.836 96.9725C220.891 83.7469 187.638 87.9034 154.563 106.257C121.489 124.61 101.117 150.21 109.062 163.436C117.006 176.661 150.259 172.505 183.333 154.151Z" fill="#88D1C3"/>
<path d="M234.387 128.107L245.036 145.821C245.036 145.821 249.897 142.156 251.598 138.838C253.298 135.519 260.744 122.478 255.23 113.002C249.716 103.526 247.415 100.62 245.783 105.994C244.152 111.367 234.387 128.107 234.387 128.107Z" fill="white"/>
<path d="M151.907 175.04C140.322 176.939 135.186 176.509 127.86 174.809C120.535 173.109 121.342 175.808 117.272 180.686C113.201 185.564 101.564 222.997 101.564 222.997C101.564 222.997 117.169 224.459 134.783 214.685C152.397 204.912 194.418 176.856 193.963 167.636C193.508 158.416 190.038 165.597 178.788 168.651C167.538 171.706 151.907 175.04 151.907 175.04Z" fill="#88D1C3"/>
<path d="M78.3597 127.892C96.6953 118.449 117.35 109.642 129.089 112.168C129.089 112.168 135.264 101.602 133.237 100.669C131.211 99.7367 88.7169 116.526 80.5324 122.312C72.3479 128.099 78.3597 127.892 78.3597 127.892Z" fill="white"/>
<path d="M125.165 145.861C113.622 148.882 103.806 152.464 96.7209 155.997C89.6358 159.53 86.8103 160.875 87.2138 164.094C87.6173 167.313 95.9308 186.282 99.9757 188.461C104.021 190.64 110.281 187.462 112.489 182.336C114.696 177.21 114.696 174.503 121.592 166.785C128.488 159.067 140.761 145.002 125.165 145.861Z" fill="#88D1C3"/>
<path d="M89.4116 167.834C101.348 161.005 114.274 155.92 127.766 152.745L123.386 160.768L92.2803 178.02L89.4116 167.834Z" fill="white"/>
<path d="M105.421 218.565C117.789 214.067 153.515 200.835 176.29 172.159C176.29 172.159 192.084 161.858 194.454 162.081C196.825 162.304 180.164 188.198 156.77 201.008C133.376 213.819 101.729 227.925 105.421 218.565Z" fill="white"/>
<path d="M211.458 102.518C223.79 123.047 146.455 165.961 134.165 145.44C128.706 135.618 127.433 124.14 130.614 113.432C133.795 102.724 141.182 93.6237 151.214 88.0527C161.247 82.4813 173.139 80.876 184.38 83.5749C195.621 86.2744 205.331 93.0668 211.458 102.518Z" fill="#88D1C3"/>
<path fill-rule="evenodd" clip-rule="evenodd" d="M249.778 96.4179L245.304 88.9893C236.982 75.4192 214.687 71.8364 186.905 79.5379C177.19 76.627 166.765 76.7527 157.129 79.897C147.493 83.0414 139.143 89.0424 133.281 97.0368C111.81 98.7951 87.7039 111.936 73.2928 122.939C72.6721 123.417 72.1744 124.025 71.8393 124.718C71.5037 125.411 71.3401 126.17 71.3606 126.934C71.3874 127.714 71.6005 128.478 71.9829 129.166C72.3654 129.854 72.9078 130.449 73.5674 130.904L99.4178 148.569C95.2803 150.336 91.2464 152.32 87.3346 154.511C79.6051 158.804 84.4833 174.635 90.4089 184.516C94.8831 191.944 99.976 197.301 104.785 199.86L98.7224 219.307C98.4493 220.19 98.4178 221.126 98.6303 222.024C98.8434 222.922 99.2937 223.752 99.9376 224.434C100.581 225.116 101.397 225.627 102.307 225.917C103.217 226.208 104.188 226.268 105.129 226.092C118.398 223.674 146.352 215.015 169.763 198.102V198.176C183.297 194.965 196.281 189.901 208.315 183.137C247.665 161.288 269.29 128.808 257.465 109.187L253.583 102.724L249.778 96.4179ZM232.963 122.369C241.147 110.549 243.26 100.05 238.906 92.794C233.41 83.6565 217.934 80.6358 198.207 84.3995C205.04 88.4325 210.715 94.0454 214.713 100.726C222.408 113.537 204.794 130.987 183.916 142.543C171.309 149.526 157.379 154.479 146.627 154.479C143.157 154.571 139.713 153.872 136.579 152.439L122.838 171.424C139.13 176.724 166.8 171.086 192.513 156.814C209.895 147.132 224.254 134.941 232.963 122.369ZM183.406 86.0379C172.938 83.3416 161.785 84.7502 152.398 89.9547C145.541 93.7699 139.983 99.4176 136.402 106.211C132.821 113.004 131.37 120.651 132.224 128.221C132.241 120.158 135.025 112.324 140.143 105.934C145.262 99.5449 152.431 94.9567 160.538 92.8808C168.646 90.8044 177.239 91.3565 184.987 94.4508C192.735 97.5452 199.205 103.009 203.394 109.996C204.845 112.407 204.803 115.188 203.695 118.135C206.623 114.693 210.797 108.626 208.22 104.334C202.799 95.3147 193.874 88.7337 183.406 86.0379ZM128.746 104.944C112.352 107.776 93.8268 117.235 80.653 126.761L104.39 142.964C107.92 133.446 115.255 123.269 125.741 113.562C126.45 110.603 127.457 107.717 128.746 104.944ZM126.513 142.072C126.792 142.043 127.069 142.009 127.346 141.973C127.381 141.969 127.416 141.964 127.45 141.96C127.693 141.93 127.935 141.899 128.179 141.874H128.136C125.86 136.639 124.608 131.045 124.444 125.374C118.621 131.812 114.301 138.342 111.845 144.408C116.663 143.259 121.567 142.478 126.513 142.072ZM97.0563 180.859C97.2794 181.246 97.5061 181.584 97.7318 181.92C97.8623 182.114 97.9922 182.307 98.1211 182.51H98.0869C100.577 185.077 103.446 184.78 105.764 183.476L110.917 180.595L112.824 174.487C113.563 172.152 114.679 169.944 116.13 167.941L129.871 148.957C129.503 148.999 129.135 149.046 128.767 149.093C128.276 149.155 127.785 149.218 127.295 149.27C118.054 150.219 108.496 151.202 91.2249 160.785C90.3232 162.056 90.9245 170.649 97.0563 180.859ZM106.961 218.301L106.958 218.309H106.924C106.936 218.306 106.948 218.303 106.961 218.301L119.506 177.978C125.11 179.838 131.01 180.743 136.94 180.653C152.569 180.653 171.609 175.609 190.306 166.232C170.831 198.116 127.099 213.873 106.961 218.301ZM183.602 186.443C183.595 186.45 183.588 186.457 183.581 186.464H183.547C183.565 186.457 183.584 186.45 183.602 186.443C186.749 183.351 189.663 180.048 192.324 176.559L195.33 181.552C191.415 183.393 187.5 185.012 183.602 186.443ZM200.045 179.258C201.562 178.482 203.076 177.676 204.588 176.839H204.553C205.376 176.381 206.177 175.905 206.979 175.427C207.391 175.182 207.804 174.937 208.22 174.693L200.861 162.436C199.348 165.707 197.6 168.873 195.631 171.911L200.045 179.258ZM212.685 171.937L212.695 171.953H212.66C212.669 171.947 212.677 171.942 212.685 171.937L204.45 158.226C207.13 156.526 209.723 154.773 212.231 152.968L220.433 166.637C217.944 168.458 215.362 170.225 212.685 171.937ZM224.604 163.407L224.615 163.426H224.581C224.589 163.42 224.596 163.414 224.604 163.407L216.431 149.806C219.007 147.826 221.421 145.812 223.722 143.739L231.838 157.244C229.552 159.334 227.129 161.391 224.604 163.407ZM235.649 153.474L235.677 153.521L235.642 153.48L235.649 153.474L227.621 140.108C230.009 137.755 232.199 135.353 234.242 132.935L242.178 146.141C240.136 148.694 237.957 151.141 235.649 153.474ZM245.498 141.504L245.528 141.552L245.493 141.511L245.498 141.504L237.712 128.552C237.906 128.289 238.106 128.027 238.306 127.765C238.646 127.321 238.984 126.877 239.292 126.43C240.777 124.269 242.133 122.028 243.354 119.72L250.74 132.019C249.33 135.342 247.574 138.52 245.498 141.504ZM252.718 125.147L252.75 125.201L252.716 125.159L252.718 125.147L246.008 113.925C246.802 111.894 247.433 109.808 247.897 107.685L250.981 112.819C253.031 116.316 253.513 120.529 252.718 125.147Z" fill="#4F457C"/>
<path d="M276.496 77.7842C278.971 78.667 281.039 80.368 282.328 82.5822L282.311 82.599C283.634 84.7763 284.112 87.3339 283.662 89.8183C283.211 92.3028 281.86 94.5537 279.849 96.1732C277.837 97.7922 275.294 98.675 272.67 98.665C270.046 98.655 267.511 97.7533 265.512 96.1191L253.278 102.855L249.543 96.5586L261.716 89.8131C261.218 87.3213 261.659 84.7401 262.961 82.5322C264.262 80.3243 266.339 78.6344 268.82 77.7642C271.299 76.8945 274.021 76.9013 276.496 77.7842Z" fill="#7996C9"/>
<path d="M33.6683 35.9888L33.8401 37.254C34.6672 43.3452 39.4599 48.1355 45.5541 48.9622L46.8199 49.1339L45.5541 49.3057C39.4599 50.1323 34.6672 54.9227 33.8401 61.0141L33.6683 62.2792L33.4965 61.0141C32.6694 54.9227 27.8766 50.1323 21.7825 49.3057L20.5166 49.1339L21.7825 48.9622C27.8766 48.1355 32.6694 43.3452 33.4965 37.254L33.6683 35.9888Z" fill="white"/>
<path d="M107.171 40.4871L108.929 53.4261C109.589 58.2883 113.415 62.1125 118.279 62.7724L131.225 64.528L118.279 66.2842C113.415 66.9441 109.589 70.7683 108.929 75.6304L107.171 88.5695L105.415 75.6304C104.755 70.7683 100.929 66.9441 96.0641 66.2842L83.1187 64.528L96.0641 62.7724C100.929 62.1125 104.755 58.2883 105.415 53.4261L107.171 40.4871Z" fill="white"/>
<path d="M283.196 165.175L284.066 171.581C284.392 173.988 286.286 175.881 288.695 176.207L295.104 177.077L288.695 177.946C286.286 178.273 284.392 180.166 284.066 182.573L283.196 188.979L282.326 182.573C281.999 180.166 280.105 178.273 277.697 177.946L271.288 177.077L277.697 176.207C280.105 175.881 281.999 173.988 282.326 171.581L283.196 165.175Z" fill="white"/>
<path d="M266.716 151.667C269.04 151.667 270.924 149.783 270.924 147.46C270.924 145.137 269.04 143.254 266.716 143.254C264.392 143.254 262.507 145.137 262.507 147.46C262.507 149.783 264.392 151.667 266.716 151.667Z" fill="white"/>
<path opacity="0.78" d="M103.109 8.6468C105.433 8.6468 107.317 6.76351 107.317 4.44035C107.317 2.11718 105.433 0.233887 103.109 0.233887C100.785 0.233887 98.9004 2.11718 98.9004 4.44035C98.9004 6.76351 100.785 8.6468 103.109 8.6468Z" fill="white"/>
<path opacity="0.78" d="M154.664 43.3501C156.116 43.3501 157.294 42.1731 157.294 40.7211C157.294 39.2691 156.116 38.092 154.664 38.092C153.211 38.092 152.033 39.2691 152.033 40.7211C152.033 42.1731 153.211 43.3501 154.664 43.3501Z" fill="white"/>
<path opacity="0.4" d="M3.1564 65.4342C4.89963 65.4342 6.3128 64.0217 6.3128 62.2794C6.3128 60.537 4.89963 59.1245 3.1564 59.1245C1.41317 59.1245 0 60.537 0 62.2794C0 64.0217 1.41317 65.4342 3.1564 65.4342Z" fill="white"/>
<path opacity="0.9" d="M25.7774 80.6824C26.649 80.6824 27.3556 79.9762 27.3556 79.105C27.3556 78.2338 26.649 77.5276 25.7774 77.5276C24.9058 77.5276 24.1992 78.2338 24.1992 79.105C24.1992 79.9762 24.9058 80.6824 25.7774 80.6824Z" fill="white"/>
<path d="M215.161 245.26C216.905 245.26 218.318 243.848 218.318 242.105C218.318 240.363 216.905 238.95 215.161 238.95C213.418 238.95 212.005 240.363 212.005 242.105C212.005 243.848 213.418 245.26 215.161 245.26Z" fill="white"/>
<path d="M179.915 221.073C181.658 221.073 183.071 219.661 183.071 217.918C183.071 216.176 181.658 214.763 179.915 214.763C178.171 214.763 176.758 216.176 176.758 217.918C176.758 219.661 178.171 221.073 179.915 221.073Z" fill="white"/>
<path d="M297.228 135.892C298.971 135.892 300.384 134.48 300.384 132.737C300.384 130.995 298.971 129.583 297.228 129.583C295.484 129.583 294.071 130.995 294.071 132.737C294.071 134.48 295.484 135.892 297.228 135.892Z" fill="white"/>
<path opacity="0.34" d="M225.156 41.2468C226.9 41.2468 228.313 39.8343 228.313 38.092C228.313 36.3496 226.9 34.9371 225.156 34.9371C223.413 34.9371 222 36.3496 222 38.092C222 39.8343 223.413 41.2468 225.156 41.2468Z" fill="white"/>
</g>
<defs>
<clipPath id="clip0">
<rect width="300.384" height="245.552" fill="white"/>
</clipPath>
</defs>
</svg>
