<svg width="453" height="352" viewBox="0 0 453 352" fill="none" xmlns="http://www.w3.org/2000/svg">
<path d="M115.272 173.104L54.2319 131.425C80.3521 110.766 128.772 83.3722 170.369 81.1902" fill="#88D1C3"/>
<path d="M308.03 230.325C378.452 191.228 419.165 132.259 398.964 98.6139C378.763 64.9689 305.299 69.3886 234.877 108.486C164.455 147.583 123.743 206.552 143.943 240.197C164.144 273.842 237.608 269.422 308.03 230.325Z" fill="#7996C9"/>
<path d="M39.6537 231.143C22.7572 240.562 4.65266 266.983 0 285.271C18.7739 290.53 51.669 288.678 68.5655 279.29C71.9136 277.495 74.857 275.078 77.2245 272.178C79.592 269.279 81.3363 265.957 82.356 262.403C83.3757 258.85 83.6504 255.137 83.1641 251.481C82.6778 247.824 81.4402 244.297 79.5233 241.105C77.6064 237.913 75.0485 235.119 71.9985 232.887C68.9484 230.654 65.467 229.027 61.7569 228.1C58.0468 227.173 54.182 226.964 50.3874 227.487C46.5928 228.009 42.9441 229.252 39.6537 231.143Z" fill="#FF8080"/>
<path d="M285.413 192.631C355.835 153.534 396.548 94.5647 376.347 60.9196C356.146 27.2746 282.682 31.6944 212.26 70.7914C141.838 109.888 101.125 168.857 121.326 202.502C141.527 236.147 214.991 231.728 285.413 192.631Z" fill="white"/>
<path d="M261.498 183.171C324.37 148.266 363.095 99.5788 347.993 74.4257C332.891 49.2726 269.681 57.1782 206.809 92.0833C143.938 126.988 105.213 175.675 120.315 200.828C135.417 225.981 198.627 218.076 261.498 183.171Z" fill="#88D1C3"/>
<path d="M358.546 133.639L378.789 167.328C378.789 167.328 388.029 160.358 391.262 154.047C394.494 147.736 408.648 122.933 398.167 104.911C387.686 86.8898 383.311 81.3639 380.209 91.5835C377.108 101.803 358.546 133.639 358.546 133.639Z" fill="white"/>
<path d="M201.761 222.898C179.738 226.509 169.976 225.692 156.051 222.458C142.125 219.225 143.66 224.358 135.922 233.636C128.184 242.913 106.063 314.105 106.063 314.105C106.063 314.105 135.726 316.884 169.209 298.297C202.691 279.71 282.57 226.352 281.705 208.817C280.84 191.282 274.244 204.939 252.859 210.747C231.473 216.556 201.761 222.898 201.761 222.898Z" fill="#88D1C3"/>
<path d="M61.9539 133.231C96.808 115.272 136.07 98.5216 158.386 103.325C158.386 103.325 170.124 83.2314 166.271 81.4575C162.419 79.6836 81.642 111.614 66.0842 122.618C50.5263 133.623 61.9539 133.231 61.9539 133.231Z" fill="white"/>
<path d="M150.925 167.403C128.984 173.149 110.324 179.962 96.856 186.681C83.3878 193.4 78.0168 195.958 78.7841 202.081C79.5514 208.203 95.3542 244.278 103.043 248.422C110.732 252.566 122.633 246.523 126.829 236.774C131.025 227.025 131.025 221.876 144.134 207.198C157.243 192.52 180.571 165.771 150.925 167.403Z" fill="#88D1C3"/>
<path d="M82.9631 209.193C105.652 196.205 130.224 186.534 155.871 180.497L147.545 195.755L88.4158 228.565L82.9631 209.193Z" fill="white"/>
<path d="M113.395 305.675C136.904 297.12 204.816 271.955 248.11 217.419C248.11 217.419 278.132 197.828 282.638 198.252C287.144 198.676 255.473 247.921 211.003 272.285C166.534 296.649 106.376 323.477 113.395 305.675Z" fill="white"/>
<path d="M314.96 84.9732C338.402 124.015 191.395 205.63 168.033 166.604C157.656 147.923 155.236 126.095 161.283 105.73C167.33 85.3649 181.372 68.0569 200.442 57.4615C219.513 46.8661 242.119 43.8127 263.487 48.9461C284.855 54.0796 303.312 66.998 314.96 84.9732Z" fill="#88D1C3"/>
<path fill-rule="evenodd" clip-rule="evenodd" d="M387.803 73.371L379.298 59.2425C363.479 33.4345 321.099 26.6215 268.287 41.268C249.82 35.7318 230.003 35.971 211.686 41.9513C193.369 47.9315 177.497 59.3444 166.353 74.5484C125.54 77.8921 79.7155 102.884 52.3219 123.81C51.1415 124.718 50.1956 125.876 49.5584 127.194C48.9211 128.512 48.6098 129.954 48.6488 131.408C48.6996 132.891 49.1044 134.344 49.8319 135.653C50.5594 136.962 51.59 138.093 52.8443 138.958L101.983 172.553C94.1181 175.915 86.4502 179.688 79.0135 183.855C64.3209 192.019 73.5936 222.128 84.8579 240.919C93.3633 255.047 103.044 265.235 112.186 270.102L100.661 307.087C100.142 308.766 100.081 310.546 100.486 312.253C100.891 313.961 101.746 315.54 102.971 316.837C104.195 318.134 105.746 319.106 107.475 319.658C109.203 320.211 111.051 320.325 112.839 319.991C138.062 315.391 191.2 298.924 235.702 266.758V266.899C261.429 260.792 286.11 251.16 308.986 238.297C383.787 196.744 424.894 134.971 402.414 97.6562L395.035 85.3645L387.803 73.371ZM355.839 122.726C371.397 100.246 375.413 80.2782 367.136 66.4794C356.688 49.1014 327.27 43.3559 289.771 50.5143C302.761 58.1843 313.548 68.8592 321.148 81.5655C335.775 105.929 302.292 139.115 262.606 161.093C238.641 174.374 212.161 183.793 191.722 183.793C185.126 183.968 178.581 182.64 172.622 179.915L146.502 216.021C177.47 226.1 230.07 215.378 278.947 188.235C311.989 169.821 339.285 146.635 355.839 122.726ZM261.636 53.6296C241.738 48.5017 220.537 51.1812 202.693 61.0792C189.657 68.3352 179.094 79.0756 172.287 91.9952C165.479 104.915 162.72 119.458 164.345 133.856C164.377 118.52 169.668 103.621 179.398 91.4699C189.129 79.3183 202.755 70.5922 218.167 66.6436C233.578 62.6951 249.914 63.7446 264.642 69.6295C279.37 75.5145 291.668 85.9063 299.631 99.1947C302.39 103.779 302.309 109.069 300.203 114.673C305.77 108.127 313.704 96.5887 308.806 88.4256C298.501 71.2732 281.534 58.7575 261.636 53.6296ZM157.733 89.5873C126.569 94.9718 91.3553 112.962 66.3126 131.078L111.435 161.894C118.145 143.793 132.087 124.437 152.02 105.976C153.369 100.349 155.283 94.86 157.733 89.5873ZM153.489 160.198C154.019 160.143 154.546 160.077 155.072 160.01C155.138 160.001 155.204 159.993 155.27 159.985C155.731 159.927 156.192 159.869 156.656 159.821H156.574C152.247 149.865 149.867 139.227 149.554 128.441C138.486 140.685 130.274 153.103 125.605 164.641C134.764 162.455 144.087 160.97 153.489 160.198ZM97.4935 233.964C97.918 234.701 98.349 235.343 98.7782 235.982C99.0259 236.351 99.2729 236.719 99.5178 237.104H99.4526C104.187 241.986 109.639 241.421 114.047 238.941L123.842 233.462L127.466 221.845C128.872 217.405 130.993 213.205 133.752 209.397L159.872 173.291C159.172 173.371 158.473 173.461 157.773 173.55C156.84 173.669 155.907 173.788 154.974 173.887C137.409 175.692 119.239 177.561 86.4088 195.786C84.6947 198.204 85.8374 214.546 97.4935 233.964ZM116.321 305.172L116.316 305.188H116.251C116.274 305.182 116.298 305.177 116.321 305.172L140.167 228.486C150.822 232.022 162.037 233.743 173.307 233.572C203.019 233.572 239.212 223.98 274.752 206.147C237.733 266.784 154.603 296.752 116.321 305.172ZM262.008 244.585C261.995 244.598 261.982 244.611 261.969 244.624H261.904C261.939 244.611 261.973 244.598 262.008 244.585C267.989 238.703 273.53 232.421 278.588 225.786L284.302 235.283C276.86 238.783 269.418 241.863 262.008 244.585ZM293.264 230.919C296.149 229.443 299.027 227.91 301.901 226.319H301.835C303.399 225.448 304.921 224.543 306.446 223.634C307.229 223.168 308.014 222.701 308.806 222.238L294.815 198.926C291.94 205.148 288.618 211.169 284.873 216.947L293.264 230.919ZM317.293 216.996L317.311 217.026H317.246C317.262 217.016 317.278 217.006 317.293 216.996L301.639 190.92C306.733 187.686 311.663 184.353 316.43 180.92L332.02 206.916C327.29 210.38 322.381 213.74 317.293 216.996ZM339.95 200.774L339.971 200.81H339.905C339.92 200.798 339.935 200.786 339.95 200.774L324.413 174.907C329.31 171.14 333.898 167.31 338.273 163.369L353.7 189.052C349.355 193.027 344.75 196.94 339.95 200.774ZM360.943 181.882L360.997 181.972L360.932 181.893L360.943 181.882L345.685 156.462C350.223 151.988 354.386 147.42 358.271 142.82L373.356 167.937C369.475 172.791 365.332 177.446 360.943 181.882ZM379.667 159.117L379.722 159.209L379.657 159.131L379.667 159.117L364.867 134.484C365.236 133.984 365.616 133.486 365.996 132.988C366.641 132.143 367.285 131.3 367.87 130.45C370.692 126.339 373.27 122.078 375.592 117.687L389.632 141.078C386.951 147.398 383.613 153.442 379.667 159.117ZM393.391 128.009L393.452 128.111L393.387 128.032L393.391 128.009L380.637 106.667C382.145 102.804 383.345 98.8369 384.228 94.7991L390.089 104.563C393.987 111.214 394.903 119.227 393.391 128.009Z" fill="#4F457C"/>
<path opacity="0.15" d="M276.694 352C332.567 352 377.861 340.396 377.861 326.082C377.861 311.768 332.567 300.164 276.694 300.164C220.822 300.164 175.528 311.768 175.528 326.082C175.528 340.396 220.822 352 276.694 352Z" fill="black"/>
<path d="M438.591 37.9328C443.296 39.6118 447.226 42.8467 449.677 47.0581L449.644 47.0895C452.159 51.2314 453.069 56.0954 452.212 60.8204C451.356 65.5454 448.788 69.8265 444.964 72.9058C441.14 75.9851 436.306 77.664 431.319 77.6453C426.331 77.6265 421.511 75.9113 417.712 72.8033L394.455 85.6129L387.356 73.6386L410.496 60.8098C409.55 56.0706 410.388 51.162 412.862 46.9632C415.337 42.7645 419.284 39.5499 423.999 37.8952C428.713 36.2405 433.886 36.2539 438.591 37.9328Z" fill="#7996C9"/>
</svg>
