<svg width="1448" height="893" viewBox="0 0 1448 893" fill="none" xmlns="http://www.w3.org/2000/svg">
<path d="M39.7052 324.89C41.5446 324.89 43.0357 323.399 43.0357 321.56C43.0357 319.721 41.5446 318.229 39.7052 318.229C37.8658 318.229 36.3748 319.721 36.3748 321.56C36.3748 323.399 37.8658 324.89 39.7052 324.89Z" fill="#77A4F2"/>
<path d="M386.356 850.776C388.195 850.776 389.686 849.285 389.686 847.445C389.686 845.606 388.195 844.115 386.356 844.115C384.516 844.115 383.025 845.606 383.025 847.445C383.025 849.285 384.516 850.776 386.356 850.776Z" fill="#77A4F2"/>
<path d="M1409.88 589.108C1411.72 589.108 1413.21 587.617 1413.21 585.777C1413.21 583.938 1411.72 582.447 1409.88 582.447C1408.04 582.447 1406.55 583.938 1406.55 585.777C1406.55 587.617 1408.04 589.108 1409.88 589.108Z" fill="#77A4F2"/>
<path d="M1333.2 452.01C1335.04 452.01 1336.53 450.518 1336.53 448.679C1336.53 446.84 1335.04 445.349 1333.2 445.349C1331.36 445.349 1329.87 446.84 1329.87 448.679C1329.87 450.518 1331.36 452.01 1333.2 452.01Z" fill="#77A4F2"/>
<path d="M1197.12 192.855C1198.96 192.855 1200.45 191.364 1200.45 189.525C1200.45 187.685 1198.96 186.194 1197.12 186.194C1195.28 186.194 1193.79 187.685 1193.79 189.525C1193.79 191.364 1195.28 192.855 1197.12 192.855Z" fill="#77A4F2"/>
<path d="M964.392 169.897C966.232 169.897 967.723 168.406 967.723 166.567C967.723 164.727 966.232 163.236 964.392 163.236C962.553 163.236 961.062 164.727 961.062 166.567C961.062 168.406 962.553 169.897 964.392 169.897Z" fill="#77A4F2"/>
<path d="M177.401 152.494C179.24 152.494 180.731 151.003 180.731 149.163C180.731 147.324 179.24 145.833 177.401 145.833C175.562 145.833 174.071 147.324 174.071 149.163C174.071 151.003 175.562 152.494 177.401 152.494Z" fill="#77A4F2"/>
<path d="M288.294 196.186C290.133 196.186 291.624 194.695 291.624 192.855C291.624 191.016 290.133 189.525 288.294 189.525C286.454 189.525 284.963 191.016 284.963 192.855C284.963 194.695 286.454 196.186 288.294 196.186Z" fill="#77A4F2"/>
<path d="M226.654 823.517C228.493 823.517 229.984 822.026 229.984 820.186C229.984 818.347 228.493 816.856 226.654 816.856C224.815 816.856 223.323 818.347 223.323 820.186C223.323 822.026 224.815 823.517 226.654 823.517Z" fill="#77A4F2"/>
<path d="M3.70911 508.018C5.54847 508.018 7.03956 506.527 7.03956 504.687C7.03956 502.848 5.54847 501.357 3.70911 501.357C1.86975 501.357 0.378662 502.848 0.378662 504.687C0.378662 506.527 1.86975 508.018 3.70911 508.018Z" fill="#77A4F2"/>
<path d="M158.276 233.62C159.197 233.62 159.944 232.873 159.944 231.951C159.944 231.03 159.197 230.283 158.276 230.283C157.355 230.283 156.608 231.03 156.608 231.951C156.608 232.873 157.355 233.62 158.276 233.62Z" fill="#77A4F2"/>
<path d="M1399.56 799.95C1400.48 799.95 1401.23 799.203 1401.23 798.281C1401.23 797.36 1400.48 796.613 1399.56 796.613C1398.64 796.613 1397.9 797.36 1397.9 798.281C1397.9 799.203 1398.64 799.95 1399.56 799.95Z" fill="#77A4F2"/>
<path d="M564.851 166.573C565.772 166.573 566.519 165.826 566.519 164.905C566.519 163.983 565.772 163.236 564.851 163.236C563.93 163.236 563.183 163.983 563.183 164.905C563.183 165.826 563.93 166.573 564.851 166.573Z" fill="#77A4F2"/>
<path d="M1160.6 237.281C1161.52 237.281 1162.27 236.534 1162.27 235.613C1162.27 234.692 1161.52 233.945 1160.6 233.945C1159.68 233.945 1158.93 234.692 1158.93 235.613C1158.93 236.534 1159.68 237.281 1160.6 237.281Z" fill="#77A4F2"/>
<path d="M889.247 168.235C890.169 168.235 890.916 167.488 890.916 166.567C890.916 165.645 890.169 164.898 889.247 164.898C888.326 164.898 887.579 165.645 887.579 166.567C887.579 167.488 888.326 168.235 889.247 168.235Z" fill="#77A4F2"/>
<path d="M1033.79 889.552C1034.71 889.552 1035.46 888.805 1035.46 887.884C1035.46 886.963 1034.71 886.216 1033.79 886.216C1032.87 886.216 1032.12 886.963 1032.12 887.884C1032.12 888.805 1032.87 889.552 1033.79 889.552Z" fill="#77A4F2"/>
<path d="M1367.63 517.695C1368.55 517.695 1369.29 516.948 1369.29 516.027C1369.29 515.106 1368.55 514.359 1367.63 514.359C1366.7 514.359 1365.96 515.106 1365.96 516.027C1365.96 516.948 1366.7 517.695 1367.63 517.695Z" fill="#77A4F2"/>
<path d="M850.477 882.223C851.398 882.223 852.145 881.476 852.145 880.554C852.145 879.633 851.398 878.886 850.477 878.886C849.556 878.886 848.809 879.633 848.809 880.554C848.809 881.476 849.556 882.223 850.477 882.223Z" fill="#77A4F2"/>
<path d="M1394.22 320.702C1395.14 320.702 1395.88 319.955 1395.88 319.034C1395.88 318.113 1395.14 317.366 1394.22 317.366C1393.29 317.366 1392.55 318.113 1392.55 319.034C1392.55 319.955 1393.29 320.702 1394.22 320.702Z" fill="#77A4F2"/>
<path d="M1333.79 852.444C1334.71 852.444 1335.46 851.697 1335.46 850.776C1335.46 849.854 1334.71 849.107 1333.79 849.107C1332.87 849.107 1332.12 849.854 1332.12 850.776C1332.12 851.697 1332.87 852.444 1333.79 852.444Z" fill="#77A4F2"/>
<path d="M1436.77 424.129C1437.69 424.129 1438.43 423.382 1438.43 422.461C1438.43 421.54 1437.69 420.793 1436.77 420.793C1435.84 420.793 1435.1 421.54 1435.1 422.461C1435.1 423.382 1435.84 424.129 1436.77 424.129Z" fill="#77A4F2"/>
<path d="M1.66818 396.527C2.58949 396.527 3.33636 395.78 3.33636 394.859C3.33636 393.938 2.58949 393.191 1.66818 393.191C0.74687 393.191 0 393.938 0 394.859C0 395.78 0.74687 396.527 1.66818 396.527Z" fill="#77A4F2"/>
<path d="M60.7822 577.721C61.7035 577.721 62.4504 576.974 62.4504 576.052C62.4504 575.131 61.7035 574.384 60.7822 574.384C59.8609 574.384 59.114 575.131 59.114 576.052C59.114 576.974 59.8609 577.721 60.7822 577.721Z" fill="#77A4F2"/>
<path d="M291.624 880.561C292.546 880.561 293.292 879.814 293.292 878.892C293.292 877.971 292.546 877.224 291.624 877.224C290.703 877.224 289.956 877.971 289.956 878.892C289.956 879.814 290.703 880.561 291.624 880.561Z" fill="#77A4F2"/>
<path d="M72.5719 253.685C74.4113 253.685 75.9023 252.194 75.9023 250.354C75.9023 248.515 74.4113 247.024 72.5719 247.024C70.7325 247.024 69.2415 248.515 69.2415 250.354C69.2415 252.194 70.7325 253.685 72.5719 253.685Z" fill="#77A4F2"/>
<path d="M462.997 892.877C464.837 892.877 466.328 891.386 466.328 889.546C466.328 887.707 464.837 886.216 462.997 886.216C461.158 886.216 459.667 887.707 459.667 889.546C459.667 891.386 461.158 892.877 462.997 892.877Z" fill="#77A4F2"/>
<path d="M1246.41 257.187C1248.25 257.187 1249.74 255.696 1249.74 253.856C1249.74 252.017 1248.25 250.526 1246.41 250.526C1244.57 250.526 1243.08 252.017 1243.08 253.856C1243.08 255.696 1244.57 257.187 1246.41 257.187Z" fill="#77A4F2"/>
<path d="M816.368 142.999C818.207 142.999 819.698 141.508 819.698 139.669C819.698 137.829 818.207 136.338 816.368 136.338C814.529 136.338 813.038 137.829 813.038 139.669C813.038 141.508 814.529 142.999 816.368 142.999Z" fill="#77A4F2"/>
<path d="M78.4046 181.829C82.1715 181.829 85.2252 178.775 85.2252 175.008C85.2252 171.241 82.1715 168.188 78.4046 168.188C74.6377 168.188 71.584 171.241 71.584 175.008C71.584 178.775 74.6377 181.829 78.4046 181.829Z" fill="#77A4F2"/>
<path d="M404.392 216.772C408.159 216.772 411.213 213.718 411.213 209.951C411.213 206.185 408.159 203.131 404.392 203.131C400.625 203.131 397.572 206.185 397.572 209.951C397.572 213.718 400.625 216.772 404.392 216.772Z" fill="#77A4F2"/>
<path d="M1370.29 670.896C1374.06 670.896 1377.11 667.842 1377.11 664.076C1377.11 660.309 1374.06 657.255 1370.29 657.255C1366.53 657.255 1363.47 660.309 1363.47 664.076C1363.47 667.842 1366.53 670.896 1370.29 670.896Z" fill="#77A4F2"/>
<path d="M1382.27 223.592C1386.03 223.592 1389.09 220.539 1389.09 216.772C1389.09 213.005 1386.03 209.951 1382.27 209.951C1378.5 209.951 1375.45 213.005 1375.45 216.772C1375.45 220.539 1378.5 223.592 1382.27 223.592Z" fill="#77A4F2"/>
<path d="M7.03961 711.749C10.8065 711.749 13.8602 708.695 13.8602 704.928C13.8602 701.161 10.8065 698.107 7.03961 698.107C3.27269 698.107 0.218994 701.161 0.218994 704.928C0.218994 708.695 3.27269 711.749 7.03961 711.749Z" fill="#77A4F2"/>
<path d="M1009.05 240.771C1012.82 240.771 1015.87 237.717 1015.87 233.95C1015.87 230.184 1012.82 227.13 1009.05 227.13C1005.28 227.13 1002.23 230.184 1002.23 233.95C1002.23 237.717 1005.28 240.771 1009.05 240.771Z" fill="#77A4F2"/>
<path d="M30.4531 237.896H26.8151C22.9404 237.896 19.8052 234.755 19.8052 230.886V221.386C19.7283 220.463 18.9178 219.783 17.995 219.86C17.1787 219.931 16.5339 220.576 16.4688 221.386V230.886C16.4688 234.761 13.3276 237.896 9.45888 237.896H5.80899C4.88617 237.973 4.20588 238.784 4.28278 239.707C4.35377 240.523 4.99856 241.168 5.80899 241.233H9.45888C13.3336 241.233 16.4688 244.374 16.4688 248.243V257.743C16.5457 258.666 17.3561 259.346 18.2789 259.269C19.0953 259.198 19.7401 258.553 19.8052 257.743V248.243C19.8052 244.368 22.9463 241.233 26.8151 241.233H30.4531C31.3759 241.31 32.1805 240.623 32.2633 239.707C32.3402 238.784 31.654 237.979 30.7371 237.896C30.6424 237.89 30.5478 237.89 30.459 237.896H30.4531Z" fill="#77A4F2"/>
<path d="M960.388 857.366H958.388C956.259 857.366 954.537 855.639 954.537 853.515V848.291C954.496 847.783 954.052 847.41 953.544 847.451C953.094 847.487 952.739 847.842 952.703 848.291V853.515C952.703 855.644 950.976 857.366 948.852 857.366H946.847C946.338 857.407 945.966 857.851 946.007 858.36C946.043 858.809 946.397 859.164 946.847 859.2H948.852C950.982 859.2 952.703 860.927 952.703 863.051V868.274C952.745 868.783 953.189 869.156 953.697 869.114C954.147 869.079 954.502 868.724 954.537 868.274V863.051C954.537 860.921 956.265 859.2 958.388 859.2H960.388C960.897 859.241 961.34 858.868 961.382 858.36C961.423 857.851 961.05 857.407 960.542 857.366C960.488 857.366 960.441 857.366 960.388 857.366Z" fill="#77A4F2"/>
<path d="M476.189 127.921H474.19C472.06 127.921 470.339 126.193 470.339 124.07V118.84C470.297 118.331 469.853 117.959 469.345 118C468.895 118.036 468.54 118.391 468.505 118.84V124.064C468.505 126.193 466.777 127.915 464.654 127.915H462.648C462.14 127.956 461.767 128.4 461.808 128.908C461.844 129.358 462.199 129.713 462.648 129.748H464.654C466.783 129.748 468.505 131.476 468.505 133.599V138.823C468.546 139.332 468.99 139.704 469.499 139.663C469.948 139.627 470.303 139.272 470.339 138.823V133.599C470.339 131.47 472.066 129.748 474.19 129.748H476.189C476.698 129.79 477.141 129.417 477.183 128.908C477.224 128.4 476.852 127.956 476.343 127.915C476.29 127.915 476.242 127.915 476.189 127.915V127.921Z" fill="#77A4F2"/>
<path d="M150.562 846.528H148.563C146.433 846.528 144.712 844.801 144.712 842.677V837.454C144.67 836.945 144.227 836.573 143.718 836.614C143.268 836.649 142.913 837.004 142.878 837.454V842.677C142.878 844.807 141.151 846.528 139.027 846.528H137.022C136.513 846.57 136.14 847.013 136.182 847.522C136.217 847.972 136.572 848.327 137.022 848.362H139.027C141.157 848.362 142.878 850.09 142.878 852.213V857.437C142.919 857.945 143.363 858.318 143.872 858.277C144.321 858.241 144.676 857.886 144.712 857.437V852.213C144.712 850.084 146.439 848.362 148.563 848.362H150.562C151.071 848.404 151.515 848.031 151.556 847.522C151.598 847.013 151.225 846.57 150.716 846.528C150.663 846.528 150.616 846.528 150.562 846.528Z" fill="#77A4F2"/>
<path d="M1088.34 277.347H1086.34C1084.21 277.347 1082.48 275.62 1082.48 273.496V268.273C1082.44 267.764 1082 267.391 1081.49 267.433C1081.04 267.468 1080.69 267.823 1080.65 268.273V273.496C1080.65 275.626 1078.92 277.347 1076.8 277.347H1074.79C1074.29 277.389 1073.91 277.832 1073.95 278.341C1073.99 278.791 1074.34 279.146 1074.79 279.181H1076.8C1078.93 279.181 1080.65 280.908 1080.65 283.032V288.256C1080.69 288.764 1081.14 289.137 1081.64 289.096C1082.09 289.06 1082.45 288.705 1082.48 288.256V283.032C1082.48 280.903 1084.21 279.181 1086.34 279.181H1088.34C1088.84 279.222 1089.29 278.85 1089.33 278.341C1089.37 277.832 1089 277.389 1088.49 277.347C1088.44 277.347 1088.39 277.347 1088.34 277.347Z" fill="#77A4F2"/>
<path d="M1445.19 667.891H1441.55C1437.68 667.891 1434.54 664.75 1434.54 660.881V651.381C1434.46 650.458 1433.65 649.778 1432.73 649.855C1431.92 649.926 1431.27 650.57 1431.21 651.381V660.881C1431.21 664.756 1428.06 667.891 1424.2 667.891H1420.55C1419.62 667.968 1418.94 668.778 1419.02 669.701C1419.09 670.518 1419.74 671.162 1420.55 671.227H1424.2C1428.07 671.227 1431.21 674.369 1431.21 678.237V687.738C1431.28 688.66 1432.09 689.341 1433.02 689.264C1433.83 689.193 1434.48 688.548 1434.54 687.738V678.237C1434.54 674.363 1437.68 671.227 1441.55 671.227H1445.19C1446.11 671.304 1446.92 670.618 1447 669.701C1447.08 668.778 1446.39 667.974 1445.47 667.891C1445.38 667.885 1445.28 667.885 1445.2 667.891H1445.19Z" fill="#77A4F2"/>
</svg>
