<svg width="1789" height="767" viewBox="0 0 1789 767" fill="none" xmlns="http://www.w3.org/2000/svg">
<g clip-path="url(#clip0_14_2)">
<path opacity="0.4" d="M-31 324.09V767H2166V505.46C2166 489.98 2155.83 476.38 2140.92 472L2112.65 463.73V298.79C2112.65 294.88 2111.12 291.22 2108.51 288.85C2105.91 286.25 2102.48 284.72 2098.58 284.72C2077.05 284.72 2059.54 302.21 2059.54 323.73V405.55L2038.02 413.71C2020.39 420.33 2007.15 435.7 2003.24 454.27L1998.87 474.49H1967.99C1950.01 474.49 1935.58 488.91 1935.58 506.88V546.49H1934.4C1921.39 546.49 1909.21 552.76 1898.92 563.4L1893.24 444.34C1892.76 433.22 1901.52 424.12 1912.52 424.12H1949.54C1954.86 424.12 1959 419.74 1959 414.66C1959 409.57 1954.63 405.2 1949.54 405.2H1944.22C1939.25 405.2 1935.7 400.71 1936.88 395.74C1937.71 391.84 1938.19 387.82 1938.19 383.56C1938.19 351.87 1910.74 326.1 1876.68 326.1C1842.61 326.1 1815.17 351.87 1815.17 383.56C1815.17 387.7 1815.64 391.84 1816.47 395.74C1817.65 400.47 1813.87 405.2 1809.14 405.2H1803.82C1798.49 405.2 1794.12 409.57 1794.12 414.66C1794.12 419.74 1798.49 424.12 1803.58 424.12H1840.72C1851.84 424.12 1860.59 433.34 1860 444.34L1853.61 577.83H1831.85V554.53C1831.85 543.77 1824.75 534.91 1815.05 531.95V516.34C1815.05 507.24 1807.72 499.91 1798.61 499.91H1770.7C1771.41 490.68 1771.88 481.11 1771.88 471.53C1771.88 370.67 1727.29 283.77 1662.94 242.98C1655.13 238.01 1644.84 243.57 1644.84 252.91V354.71C1603.56 356.6 1568.19 389.47 1550.69 436.89H1522.3V404.49C1522.3 401.06 1519.46 398.22 1516.03 398.22H1501.84C1493.91 398.22 1487.17 404.49 1486.7 412.53L1482.79 484.42H1466.71L1413.83 352.11H1442.22C1444.82 352.11 1447.31 350.93 1448.85 349.27C1450.62 347.5 1451.69 345.25 1451.69 342.65C1451.69 337.33 1447.55 333.19 1442.22 333.19H1361.32C1358.71 333.19 1356.23 334.38 1354.69 336.03C1352.92 337.8 1351.85 340.05 1351.85 342.65C1351.85 347.97 1355.99 352.11 1361.32 352.11H1389.7V371.03H1361.32C1358.71 371.03 1356.23 372.21 1354.69 373.87C1352.92 375.64 1351.85 377.89 1351.85 380.49C1351.85 385.81 1355.99 389.95 1361.32 389.95H1389.59V408.86H1361.2C1358.6 408.86 1356.11 410.05 1354.57 411.7C1352.8 413.48 1351.74 415.72 1351.74 418.32C1351.74 423.64 1355.88 427.78 1361.2 427.78H1389.59V446.7H1361.2C1358.6 446.7 1356.11 447.88 1354.57 449.54C1352.8 451.31 1351.74 453.56 1351.74 456.16C1351.74 461.48 1355.88 465.62 1361.2 465.62H1389.59V484.42H1334.58C1326.07 484.42 1319.21 491.39 1319.21 499.79V577.94H1305.01V485.96C1305.01 477.8 1298.39 471.18 1290.23 471.18H1286.8C1284.43 471.18 1282.66 473.07 1282.66 475.31V517.17C1282.66 521.31 1279.35 524.74 1275.09 524.74H1245.04C1235.34 492.81 1217.13 471.18 1196.43 471.18C1165.44 471.18 1140.24 519.06 1140.24 578.18V607.5H1105.94V579.6C1105.94 576.17 1103.22 573.33 1099.67 573.33H1097.31C1095.89 573.33 1094.71 574.51 1094.71 575.93V607.5H1082.4V570.14C1082.4 564.23 1077.67 559.26 1071.64 559.26H1056.62C1050.7 559.26 1045.85 563.99 1045.85 570.14V624.29C1045.85 629.02 1042.07 632.81 1037.34 632.81H1027.05C1027.17 630.8 1027.28 628.9 1027.28 626.78C1027.28 606.68 1017.7 590.48 1005.99 590.48C994.282 590.48 984.701 606.68 984.701 626.78C984.701 628.79 984.82 630.8 984.938 632.81H964.593V560.44C964.593 555.83 968.378 552.05 972.991 552.05H974.766C981.035 552.05 986.003 546.97 986.003 540.82C986.003 534.67 980.916 529.58 974.766 529.58H968.142C966.249 529.58 964.711 528.05 964.711 526.16V521.19C964.711 516.58 968.497 512.79 973.11 512.79H988.132C994.401 512.79 999.369 507.71 999.369 501.56C999.369 495.41 994.282 490.33 988.132 490.33H918.817C912.548 490.33 907.581 495.41 907.581 501.56C907.581 507.71 912.667 512.79 918.817 512.79H933.839C938.453 512.79 942.238 516.58 942.238 521.19V526.16C942.238 528.05 940.7 529.58 938.807 529.58H932.183C925.914 529.58 920.947 534.67 920.947 540.82C920.947 546.97 926.033 552.05 932.183 552.05H933.958C938.571 552.05 942.356 555.83 942.356 560.44V632.92H896.107V592.96C896.107 584.8 889.483 578.18 881.322 578.18H852.224C849.385 578.18 846.901 575.7 846.901 572.86V568.84C846.901 563.64 842.761 559.38 837.438 559.38H810.943V526.27C810.943 521.66 814.728 517.88 819.341 517.88H821.115C827.384 517.88 832.352 512.79 832.352 506.65C832.352 500.5 827.266 495.41 821.115 495.41H814.491C812.599 495.41 811.061 493.88 811.061 491.99V486.9C811.061 482.29 814.846 478.51 819.459 478.51H834.245C840.514 478.51 845.482 473.42 845.482 467.27C845.482 461.13 840.395 456.04 834.245 456.04H764.93C758.661 456.04 753.694 461.13 753.694 467.27C753.694 473.42 758.78 478.51 764.93 478.51H779.952C784.565 478.51 788.351 482.29 788.351 486.9V491.99C788.351 493.88 786.813 495.41 784.92 495.41H778.297C772.027 495.41 767.06 500.5 767.06 506.65C767.06 512.79 772.146 517.88 778.297 517.88H780.071C784.684 517.88 788.469 521.66 788.469 526.27V621.22H622.872L617.904 473.19C617.431 460.18 627.84 449.3 640.969 449.3H662.733C670.304 449.3 676.336 443.04 676.218 435.7C676.099 428.37 669.83 422.58 662.497 422.58H600.989L599.452 376.59C598.86 360.51 611.635 347.26 627.721 347.26H653.862C659.895 347.26 664.981 342.77 665.454 336.86C665.69 333.43 664.389 330.36 662.26 328.23C660.249 326.1 657.529 324.92 654.454 324.92C652.324 324.92 650.432 323.02 650.314 321.01C650.195 319 649.841 316.88 649.604 314.75C644.991 285.43 620.861 262.84 591.882 262.84C562.902 262.84 538.772 285.31 534.159 314.75C533.686 316.76 533.568 318.77 533.449 321.01C533.213 323.14 531.439 324.92 529.31 324.92C523.632 324.92 518.546 328.94 517.836 334.49C516.771 341.47 522.212 347.26 528.955 347.26H555.332C571.3 347.26 584.311 360.62 583.602 376.59L582.064 422.58H519.61C512.04 422.58 506.008 428.85 506.126 436.18C506.244 443.51 512.513 449.3 519.847 449.3H541.138C554.149 449.3 564.558 460.18 564.203 473.19L559.708 610.58L548.826 602.89C546.815 600.76 544.095 599.7 541.138 599.7H520.793C520.793 578.89 510.502 561.63 497.964 561.63C485.426 561.63 475.136 578.53 475.136 599.7H471.705V578.18H471.587V515.63C471.587 506.53 467.802 497.9 461.06 491.63L448.64 480.4L448.758 419.27C448.758 404.14 436.457 391.6 421.317 391.6H417.65C414.574 391.6 412.209 394.09 412.209 397.04V521.31L399.198 530.18C390.326 536.21 384.885 546.26 384.885 557.13V578.3H365.842C363.239 520.84 342.303 476.02 316.636 476.02C301.022 476.02 287.065 492.93 277.957 519.18H241.407V362.99C241.407 356.72 246.493 351.76 252.644 351.76H309.657C313.442 351.76 316.636 348.92 316.636 345.02C316.636 343.95 316.517 343.12 316.162 342.3C315.689 341.47 315.334 340.76 314.743 340.17C313.442 338.87 311.904 338.16 310.012 338.16H301.495C294.753 338.16 289.194 333.43 287.893 326.93C282.57 300.44 259.15 280.46 230.998 280.46C202.847 280.46 179.427 300.44 174.104 326.93C172.803 333.43 167.125 338.16 160.501 338.16H151.985C150.684 338.16 149.264 338.63 148.2 339.34C146.425 340.52 145.361 342.65 145.361 345.02C145.361 348.8 148.2 351.76 152.103 351.76H208.997C215.266 351.76 220.234 356.84 220.234 362.99V519.18H167.716C161.684 519.18 156.716 514.21 156.716 508.18V478.27C156.716 458.41 140.63 442.56 120.994 442.56H113.897V409.46C113.897 399.64 105.972 391.72 95.9183 391.72C92.6064 391.72 89.8859 394.44 89.8859 397.75V442.56H87.0471C80.5415 442.56 75.2187 437.24 75.2187 430.74V389.24C75.2187 353.53 46.1209 324.44 10.3993 324.44H-31V324.09Z" fill="url(#paint0_linear_14_2)"/>
<path opacity="0.35" d="M484.525 165.32C488.31 165.32 491.385 162.36 491.385 158.46C491.385 154.56 488.31 151.6 484.525 151.6C480.739 151.6 477.664 154.67 477.664 158.46C477.664 162.24 480.739 165.32 484.525 165.32Z" fill="#86D4C9"/>
</g>
<defs>
<linearGradient id="paint0_linear_14_2" x1="1067.5" y1="830.62" x2="1067.5" y2="241.11" gradientUnits="userSpaceOnUse">
<stop stop-color="#8D86EB"/>
<stop offset="1" stop-color="#77A4F2"/>
</linearGradient>
<clipPath id="clip0_14_2">
<rect width="1789" height="616" fill="white" transform="translate(0 151)"/>
</clipPath>
</defs>
</svg>
