<svg width="1789" height="767" viewBox="0 0 1789 767" fill="none" xmlns="http://www.w3.org/2000/svg">
<g clip-path="url(#clip0_19_6)">
<path opacity="0.4" d="M0 326.495V766.88H2197V506.836C2197 491.436 2186.83 477.916 2171.92 473.566L2143.65 465.337V301.337C2143.65 297.457 2142.12 293.813 2139.51 291.462C2136.91 288.875 2133.48 287.347 2129.58 287.347C2108.05 287.347 2090.54 304.746 2090.54 326.143V407.496L2069.02 415.608C2051.39 422.191 2038.15 437.474 2034.24 455.932L2029.87 476.035H1998.99C1981.01 476.035 1966.58 490.377 1966.58 508.247V547.63H1965.4C1952.39 547.63 1940.21 553.861 1929.92 564.442L1924.24 446.056C1923.76 435.006 1932.52 425.953 1943.52 425.953H1980.54C1985.86 425.953 1990 421.603 1990 416.548C1990 411.493 1985.63 407.143 1980.54 407.143H1975.22C1970.25 407.143 1966.7 402.676 1967.88 397.738C1968.71 393.859 1969.19 389.862 1969.19 385.629C1969.19 354.123 1941.74 328.494 1907.68 328.494C1873.61 328.494 1846.17 354.123 1846.17 385.629C1846.17 389.744 1846.64 393.859 1847.47 397.738C1848.65 402.441 1844.87 407.143 1840.14 407.143H1834.82C1829.49 407.143 1825.12 411.493 1825.12 416.548C1825.12 421.603 1829.49 425.953 1834.58 425.953H1871.72C1882.84 425.953 1891.59 435.123 1891 446.056L1884.61 578.784H1862.85V555.625C1862.85 544.926 1855.75 536.109 1846.05 533.17V517.652C1846.05 508.6 1838.72 501.311 1829.61 501.311H1801.7C1802.41 492.141 1802.88 482.618 1802.88 473.096C1802.88 372.815 1758.29 286.407 1693.94 245.848C1686.13 240.91 1675.84 246.435 1675.84 255.723V356.944C1634.56 358.825 1599.19 391.507 1581.69 438.65H1553.3V406.438C1553.3 403.029 1550.46 400.207 1547.03 400.207H1532.84C1524.91 400.207 1518.17 406.438 1517.7 414.432L1513.79 485.91H1497.71L1444.83 354.358H1473.22C1475.82 354.358 1478.31 353.182 1479.85 351.536C1481.62 349.773 1482.69 347.539 1482.69 344.953C1482.69 339.662 1478.55 335.548 1473.22 335.548H1392.32C1389.71 335.548 1387.23 336.723 1385.69 338.369C1383.92 340.133 1382.85 342.366 1382.85 344.953C1382.85 350.243 1386.99 354.358 1392.32 354.358H1420.7V373.168H1392.32C1389.71 373.168 1387.23 374.343 1385.69 375.989C1383.92 377.753 1382.85 379.986 1382.85 382.573C1382.85 387.863 1386.99 391.978 1392.32 391.978H1420.59V410.788H1392.2C1389.6 410.788 1387.11 411.963 1385.57 413.609C1383.8 415.373 1382.74 417.606 1382.74 420.193C1382.74 425.483 1386.88 429.598 1392.2 429.598H1420.59V448.408H1392.2C1389.6 448.408 1387.11 449.583 1385.57 451.229C1383.8 452.993 1382.74 455.226 1382.74 457.813C1382.74 463.103 1386.88 467.218 1392.2 467.218H1420.59V485.91H1365.58C1357.07 485.91 1350.21 492.846 1350.21 501.193V578.902H1336.01V487.438C1336.01 479.327 1329.39 472.743 1321.23 472.743H1317.8C1315.43 472.743 1313.66 474.624 1313.66 476.858V518.475C1313.66 522.59 1310.35 525.999 1306.09 525.999H1276.04C1266.34 494.257 1248.13 472.743 1227.43 472.743C1196.44 472.743 1171.24 520.356 1171.24 579.137V608.293H1136.94V580.548C1136.94 577.139 1134.22 574.317 1130.67 574.317H1128.31C1126.89 574.317 1125.71 575.493 1125.71 576.903V608.293H1113.4V571.143C1113.4 565.265 1108.67 560.327 1102.64 560.327H1087.62C1081.7 560.327 1076.85 565.03 1076.85 571.143V624.987C1076.85 629.689 1073.07 633.451 1068.34 633.451H1058.05C1058.17 631.452 1058.28 629.571 1058.28 627.455C1058.28 607.47 1048.7 591.364 1036.99 591.364C1025.28 591.364 1015.7 607.47 1015.7 627.455C1015.7 629.454 1015.82 631.452 1015.94 633.451H995.593V561.503C995.593 556.918 999.378 553.156 1003.99 553.156H1005.77C1012.03 553.156 1017 548.101 1017 541.987C1017 535.874 1011.92 530.819 1005.77 530.819H999.142C997.249 530.819 995.711 529.291 995.711 527.41V522.472C995.711 517.887 999.497 514.125 1004.11 514.125H1019.13C1025.4 514.125 1030.37 509.07 1030.37 502.957C1030.37 496.843 1025.28 491.788 1019.13 491.788H949.817C943.548 491.788 938.581 496.843 938.581 502.957C938.581 509.07 943.667 514.125 949.817 514.125H964.839C969.453 514.125 973.238 517.887 973.238 522.472V527.41C973.238 529.291 971.7 530.819 969.807 530.819H963.183C956.914 530.819 951.947 535.874 951.947 541.987C951.947 548.101 957.033 553.156 963.183 553.156H964.958C969.571 553.156 973.356 556.918 973.356 561.503V633.569H927.107V593.832C927.107 585.721 920.483 579.137 912.322 579.137H883.224C880.385 579.137 877.901 576.668 877.901 573.847V569.85C877.901 564.677 873.761 560.445 868.438 560.445H841.943V527.527C841.943 522.942 845.728 519.18 850.341 519.18H852.115C858.384 519.18 863.352 514.125 863.352 508.012C863.352 501.899 858.266 496.843 852.115 496.843H845.491C843.599 496.843 842.061 495.315 842.061 493.434V488.379C842.061 483.794 845.846 480.032 850.459 480.032H865.245C871.514 480.032 876.482 474.977 876.482 468.864C876.482 462.75 871.395 457.695 865.245 457.695H795.93C789.661 457.695 784.694 462.75 784.694 468.864C784.694 474.977 789.78 480.032 795.93 480.032H810.952C815.565 480.032 819.351 483.794 819.351 488.379V493.434C819.351 495.315 817.813 496.843 815.92 496.843H809.297C803.027 496.843 798.06 501.899 798.06 508.012C798.06 514.125 803.146 519.18 809.297 519.18H811.071C815.684 519.18 819.469 522.942 819.469 527.527V621.93H653.872L648.904 474.742C648.431 461.81 658.84 450.994 671.969 450.994H693.733C701.304 450.994 707.336 444.763 707.218 437.474C707.099 430.186 700.83 424.425 693.497 424.425H631.989L630.452 378.693C629.86 362.705 642.635 349.538 658.721 349.538H684.862C690.895 349.538 695.981 345.07 696.454 339.192C696.69 335.783 695.389 332.726 693.26 330.61C691.249 328.494 688.529 327.318 685.454 327.318C683.324 327.318 681.432 325.437 681.314 323.439C681.195 321.44 680.841 319.324 680.604 317.208C675.991 288.052 651.861 265.598 622.882 265.598C593.902 265.598 569.772 287.935 565.159 317.208C564.686 319.207 564.568 321.205 564.449 323.439C564.213 325.555 562.439 327.318 560.31 327.318C554.632 327.318 549.546 331.315 548.836 336.841C547.771 343.777 553.212 349.538 559.955 349.538H586.332C602.3 349.538 615.311 362.822 614.602 378.693L613.064 424.425H550.61C543.04 424.425 537.008 430.656 537.126 437.945C537.244 445.234 543.513 450.994 550.847 450.994H572.138C585.149 450.994 595.558 461.81 595.203 474.742L590.708 611.349L579.826 603.708C577.815 601.592 575.095 600.534 572.138 600.534H551.793C551.793 579.843 541.502 562.678 528.964 562.678C516.426 562.678 506.136 579.49 506.136 600.534H502.705V579.137H502.587V516.947C502.587 507.894 498.802 499.312 492.06 493.081L479.64 481.913L479.758 421.133C479.758 406.085 467.457 393.624 452.317 393.624H448.65C445.574 393.624 443.209 396.092 443.209 399.031V522.59L430.198 531.407C421.326 537.403 415.885 547.395 415.885 558.211V579.255H396.842C394.239 522.119 373.303 477.563 347.636 477.563C332.022 477.563 318.065 494.375 308.957 520.474H272.407V365.173C272.407 358.943 277.493 354.005 283.644 354.005H340.657C344.442 354.005 347.636 351.184 347.636 347.304C347.636 346.246 347.517 345.423 347.162 344.6C346.689 343.777 346.334 343.072 345.743 342.484C344.442 341.191 342.904 340.485 341.012 340.485H332.495C325.753 340.485 320.194 335.783 318.893 329.317C313.57 302.983 290.15 283.115 261.998 283.115C233.847 283.115 210.427 302.983 205.104 329.317C203.803 335.783 198.125 340.485 191.501 340.485H182.985C181.684 340.485 180.264 340.956 179.2 341.661C177.425 342.837 176.361 344.953 176.361 347.304C176.361 351.066 179.2 354.005 183.103 354.005H239.997C246.266 354.005 251.234 359.06 251.234 365.173V520.474H198.716C192.684 520.474 187.716 515.536 187.716 509.54V479.797C187.716 460.046 171.63 444.293 151.994 444.293H144.897V411.376C144.897 401.618 136.972 393.741 126.918 393.741C123.606 393.741 120.886 396.445 120.886 399.737V444.293H118.047C111.541 444.293 106.219 439.003 106.219 432.537V391.272C106.219 355.768 77.1209 326.848 41.3993 326.848H0V326.495Z" fill="url(#paint0_linear_19_6)"/>
<g opacity="0.35">
<path opacity="0.35" d="M115.437 207.858C117.211 207.858 118.749 206.321 118.749 204.547C118.749 202.773 117.211 201.236 115.437 201.236C113.663 201.236 112.125 202.773 112.125 204.547C112.125 206.321 113.663 207.858 115.437 207.858Z" fill="#86D4C9"/>
<path opacity="0.35" d="M1727.41 472.944C1729.18 472.944 1730.72 471.407 1730.72 469.634C1730.72 467.86 1729.18 466.323 1727.41 466.323C1725.63 466.323 1724.09 467.86 1724.09 469.634C1724.09 471.407 1725.51 472.944 1727.41 472.944Z" fill="#86D4C9"/>
<path opacity="0.35" d="M1650.4 335.317C1652.18 335.317 1653.72 333.78 1653.72 332.006C1653.72 330.233 1652.18 328.696 1650.4 328.696C1648.63 328.696 1647.09 330.233 1647.09 332.006C1647.09 333.78 1648.63 335.317 1650.4 335.317Z" fill="#86D4C9"/>
<path opacity="0.35" d="M1513.79 75.3137C1515.56 75.3137 1517.1 73.7766 1517.1 72.003C1517.1 70.2295 1515.56 68.6924 1513.79 68.6924C1512.01 68.6924 1510.47 70.2295 1510.47 72.003C1510.47 73.7766 1512.01 75.3137 1513.79 75.3137Z" fill="#86D4C9"/>
<path opacity="0.35" d="M1280.29 52.2575C1282.07 52.2575 1283.61 50.7204 1283.61 48.9469C1283.61 47.1733 1282.07 45.6362 1280.29 45.6362C1278.52 45.6362 1276.98 47.1733 1276.98 48.9469C1276.98 50.7204 1278.4 52.2575 1280.29 52.2575Z" fill="#86D4C9"/>
<path opacity="0.35" d="M253.71 34.7585C255.485 34.7585 257.022 33.2214 257.022 31.4478C257.022 29.6743 255.485 28.1372 253.71 28.1372C251.936 28.1372 250.398 29.6743 250.398 31.4478C250.398 33.2214 251.818 34.7585 253.71 34.7585Z" fill="#86D4C9"/>
<path opacity="0.35" d="M365.015 78.6242C366.789 78.6242 368.327 77.0871 368.327 75.3136C368.327 73.54 366.789 72.0029 365.015 72.0029C363.241 72.0029 361.703 73.54 361.703 75.3136C361.703 77.0871 363.241 78.6242 365.015 78.6242Z" fill="#86D4C9"/>
<path opacity="0.35" d="M79.3603 391.479C81.1346 391.479 82.6723 389.942 82.6723 388.169C82.6723 386.395 81.1346 384.858 79.3603 384.858C77.586 384.858 76.0483 386.395 76.0483 388.169C76.0483 389.942 77.4678 391.479 79.3603 391.479Z" fill="#86D4C9"/>
<path opacity="0.35" d="M234.549 116.224C235.495 116.224 236.205 115.396 236.205 114.568C236.205 113.623 235.495 112.913 234.549 112.913C233.602 112.913 232.893 113.741 232.893 114.568C232.774 115.514 233.602 116.224 234.549 116.224Z" fill="#86D4C9"/>
<path opacity="0.35" d="M642.627 48.9469C643.573 48.9469 644.283 48.2374 644.283 47.2916C644.283 46.3457 643.573 45.6362 642.627 45.6362C641.68 45.6362 640.971 46.3457 640.971 47.2916C640.971 48.1192 641.68 48.9469 642.627 48.9469Z" fill="#86D4C9"/>
<path opacity="0.35" d="M1477.24 119.889C1478.18 119.889 1478.89 119.062 1478.89 118.234C1478.89 117.288 1478.06 116.579 1477.24 116.579C1476.41 116.579 1475.58 117.406 1475.58 118.234C1475.46 119.062 1476.29 119.889 1477.24 119.889Z" fill="#86D4C9"/>
<path opacity="0.35" d="M1204.71 50.6021C1205.66 50.6021 1206.37 49.8927 1206.37 48.9468C1206.37 48.0009 1205.54 47.2915 1204.71 47.2915C1203.76 47.2915 1203.05 48.1192 1203.05 48.9468C1203.17 49.8927 1203.88 50.6021 1204.71 50.6021Z" fill="#86D4C9"/>
<path opacity="0.35" d="M1684.94 401.293C1685.89 401.293 1686.6 400.465 1686.6 399.638C1686.6 398.692 1685.89 397.982 1684.94 397.982C1684 397.982 1683.29 398.81 1683.29 399.638C1683.4 400.584 1684.11 401.293 1684.94 401.293Z" fill="#86D4C9"/>
<path opacity="0.35" d="M1165.91 767C1166.86 767 1167.57 766.291 1167.57 765.345C1167.57 764.399 1166.74 763.689 1165.91 763.689C1165.09 763.689 1164.26 764.399 1164.26 765.345C1164.26 766.291 1164.97 767 1165.91 767Z" fill="#86D4C9"/>
<path opacity="0.35" d="M1711.67 203.601C1712.62 203.601 1713.33 202.891 1713.33 201.945C1713.33 200.999 1712.62 200.29 1711.67 200.29C1710.73 200.29 1710.02 200.999 1710.02 201.945C1710.14 202.891 1710.73 203.601 1711.67 203.601Z" fill="#86D4C9"/>
<path opacity="0.35" d="M1754.49 307.295C1755.44 307.295 1756.15 306.467 1756.15 305.639C1756.15 304.812 1755.44 303.984 1754.49 303.984C1753.55 303.984 1752.84 304.812 1752.84 305.639C1752.84 306.467 1753.43 307.295 1754.49 307.295Z" fill="#86D4C9"/>
<path opacity="0.35" d="M77.3495 279.627C78.2958 279.627 79.0055 278.799 79.0055 277.972C79.0055 277.026 78.2958 276.316 77.3495 276.316C76.4032 276.316 75.6935 277.144 75.6935 277.972C75.5752 278.799 76.2849 279.627 77.3495 279.627Z" fill="#86D4C9"/>
<path opacity="0.35" d="M136.61 461.476C137.556 461.476 138.266 460.648 138.266 459.82C138.266 458.874 137.556 458.165 136.61 458.165C135.663 458.165 134.954 458.993 134.954 459.82C134.954 460.766 135.782 461.476 136.61 461.476Z" fill="#86D4C9"/>
<path opacity="0.35" d="M148.438 136.324C150.212 136.324 151.75 134.787 151.75 133.013C151.75 131.24 150.212 129.703 148.438 129.703C146.664 129.703 145.126 131.24 145.126 133.013C145.008 134.905 146.545 136.324 148.438 136.324Z" fill="#86D4C9"/>
<path opacity="0.35" d="M1563.35 139.871C1565.12 139.871 1566.66 138.334 1566.66 136.561C1566.66 134.787 1565.12 133.25 1563.35 133.25C1561.57 133.25 1560.03 134.787 1560.03 136.561C1560.03 138.334 1561.57 139.871 1563.35 139.871Z" fill="#86D4C9"/>
<path opacity="0.35" d="M1131.73 25.2995C1133.5 25.2995 1135.04 23.7624 1135.04 21.9889C1135.04 20.2153 1133.5 18.6782 1131.73 18.6782C1129.96 18.6782 1128.42 20.2153 1128.42 21.9889C1128.42 23.7624 1129.72 25.2995 1131.73 25.2995Z" fill="#86D4C9"/>
<path opacity="0.35" d="M154.352 64.1994C158.137 64.1994 161.213 61.1252 161.213 57.3416C161.213 53.5581 158.137 50.4839 154.352 50.4839C150.567 50.4839 147.492 53.5581 147.492 57.3416C147.492 61.1252 150.449 64.1994 154.352 64.1994Z" fill="#86D4C9"/>
<path opacity="0.35" d="M481.525 99.3156C485.31 99.3156 488.385 96.3597 488.385 92.4578C488.385 88.556 485.31 85.6001 481.525 85.6001C477.739 85.6001 474.664 88.6743 474.664 92.4578C474.664 96.2414 477.739 99.3156 481.525 99.3156Z" fill="#86D4C9"/>
<path opacity="0.35" d="M1699.73 106.173C1703.51 106.173 1706.59 103.218 1706.59 99.3158C1706.59 95.4139 1703.51 92.458 1699.73 92.458C1695.94 92.458 1692.87 95.4139 1692.87 99.3158C1692.87 103.218 1695.94 106.173 1699.73 106.173Z" fill="#86D4C9"/>
<path opacity="0.35" d="M82.6725 596.029C86.4575 596.029 89.5329 592.955 89.5329 589.172C89.5329 585.388 86.4575 582.314 82.6725 582.314C78.8874 582.314 75.812 585.388 75.812 589.172C75.812 592.955 78.8874 596.029 82.6725 596.029Z" fill="#86D4C9"/>
<path opacity="0.35" d="M1325.12 123.436C1328.91 123.436 1331.98 120.48 1331.98 116.578C1331.98 112.677 1328.91 109.721 1325.12 109.721C1321.34 109.721 1318.26 112.795 1318.26 116.578C1318.26 120.362 1321.34 123.436 1325.12 123.436Z" fill="#86D4C9"/>
<path opacity="0.35" d="M106.211 120.48H102.544C98.6406 120.48 95.5652 117.406 95.5652 113.504V103.927C95.4469 102.981 94.6189 102.272 93.7909 102.39C92.9629 102.508 92.2532 103.099 92.2532 103.927V113.504C92.2532 117.406 89.1779 120.48 85.2745 120.48H81.6077C80.6614 120.598 79.9517 121.426 80.07 122.254C80.1883 123.081 80.7797 123.791 81.6077 123.791H85.2745C89.1779 123.791 92.2532 126.865 92.2532 130.767V140.344C92.3715 141.29 93.1995 141.999 94.0275 141.881C94.8555 141.763 95.5652 141.172 95.5652 140.344V130.767C95.5652 126.865 98.6406 123.791 102.544 123.791H106.211C107.157 123.909 107.867 123.2 107.985 122.254C108.103 121.308 107.394 120.598 106.447 120.48H106.211Z" fill="#86D4C9"/>
<path opacity="0.35" d="M553.559 10.1651H551.548C549.419 10.1651 547.645 8.50981 547.645 6.26331V1.06088C547.645 0.587932 547.172 0.114983 546.699 0.23322C546.344 0.23322 545.871 0.587932 545.871 1.06088V6.26331C545.871 8.39157 544.215 10.1651 541.967 10.1651H539.957C539.484 10.1651 539.01 10.6381 539.129 11.111C539.129 11.4657 539.484 11.9387 539.957 11.9387H541.967C544.097 11.9387 545.871 13.594 545.871 15.8405V21.0429C545.871 21.5159 546.344 21.9888 546.817 21.8706C547.172 21.8706 547.645 21.5159 547.645 21.0429V15.8405C547.645 13.7122 549.301 11.9387 551.548 11.9387H553.559C554.032 11.9387 554.506 11.584 554.506 11.111C554.506 10.6381 554.151 10.1651 553.559 10.1651C553.678 10.1651 553.559 10.1651 553.559 10.1651Z" fill="#86D4C9"/>
<path opacity="0.35" d="M1404.61 160.089H1402.6C1400.47 160.089 1398.7 158.434 1398.7 156.188V150.985C1398.7 150.512 1398.22 150.039 1397.75 150.158C1397.39 150.158 1396.92 150.512 1396.92 150.985V156.188C1396.92 158.316 1395.27 160.089 1393.14 160.089H1391.13C1390.65 160.089 1390.18 160.562 1390.3 161.035C1390.3 161.508 1390.65 161.863 1391.13 161.863H1393.14C1395.27 161.863 1396.92 163.518 1396.92 165.647V170.849C1396.92 171.322 1397.39 171.795 1397.87 171.677C1398.22 171.677 1398.7 171.322 1398.7 170.849V165.647C1398.7 163.518 1400.35 161.863 1402.6 161.863H1404.61C1405.08 161.863 1405.56 161.508 1405.56 161.035C1405.56 160.562 1405.2 160.089 1404.73 160.089H1404.61Z" fill="#86D4C9"/>
</g>
</g>
<defs>
<linearGradient id="paint0_linear_19_6" x1="1098.5" y1="820.258" x2="1098.5" y2="234.115" gradientUnits="userSpaceOnUse">
<stop stop-color="#2F1D6C"/>
<stop offset="1" stop-color="#160E3F"/>
</linearGradient>
<clipPath id="clip0_19_6">
<rect width="1789" height="767" fill="white"/>
</clipPath>
</defs>
</svg>
