<svg width="1789" height="767" viewBox="0 0 1789 767" fill="none" xmlns="http://www.w3.org/2000/svg">
<path opacity="0.4" d="M-34 257.615V698H2163V437.956C2163 422.556 2152.83 409.036 2137.92 404.686L2109.65 396.457V232.457C2109.65 228.577 2108.12 224.933 2105.51 222.582C2102.91 219.995 2099.48 218.467 2095.58 218.467C2074.05 218.467 2056.54 235.866 2056.54 257.263V338.616L2035.02 346.728C2017.39 353.311 2004.15 368.594 2000.24 387.052L1995.87 407.155H1964.99C1947.01 407.155 1932.58 421.497 1932.58 439.367V478.75H1931.4C1918.39 478.75 1906.21 484.981 1895.92 495.562L1890.24 377.176C1889.76 366.126 1898.52 357.073 1909.52 357.073H1946.54C1951.86 357.073 1956 352.723 1956 347.668C1956 342.613 1951.63 338.263 1946.54 338.263H1941.22C1936.25 338.263 1932.7 333.796 1933.88 328.858C1934.71 324.979 1935.19 320.982 1935.19 316.749C1935.19 285.243 1907.74 259.614 1873.68 259.614C1839.61 259.614 1812.17 285.243 1812.17 316.749C1812.17 320.864 1812.64 324.979 1813.47 328.858C1814.65 333.561 1810.87 338.263 1806.14 338.263H1800.82C1795.49 338.263 1791.12 342.613 1791.12 347.668C1791.12 352.723 1795.49 357.073 1800.58 357.073H1837.72C1848.84 357.073 1857.59 366.243 1857 377.176L1850.61 509.904H1828.85V486.745C1828.85 476.046 1821.75 467.229 1812.05 464.29V448.772C1812.05 439.72 1804.72 432.431 1795.61 432.431H1767.7C1768.41 423.261 1768.88 413.738 1768.88 404.216C1768.88 303.935 1724.29 217.527 1659.94 176.968C1652.13 172.03 1641.84 177.555 1641.84 186.843V288.064C1600.56 289.945 1565.19 322.627 1547.69 369.77H1519.3V337.558C1519.3 334.149 1516.46 331.327 1513.03 331.327H1498.84C1490.91 331.327 1484.17 337.558 1483.7 345.552L1479.79 417.03H1463.71L1410.83 285.478H1439.22C1441.82 285.478 1444.31 284.302 1445.85 282.656C1447.62 280.893 1448.69 278.659 1448.69 276.073C1448.69 270.782 1444.55 266.668 1439.22 266.668H1358.32C1355.71 266.668 1353.23 267.843 1351.69 269.489C1349.92 271.253 1348.85 273.486 1348.85 276.073C1348.85 281.363 1352.99 285.478 1358.32 285.478H1386.7V304.288H1358.32C1355.71 304.288 1353.23 305.463 1351.69 307.109C1349.92 308.873 1348.85 311.106 1348.85 313.693C1348.85 318.983 1352.99 323.098 1358.32 323.098H1386.59V341.908H1358.2C1355.6 341.908 1353.11 343.083 1351.57 344.729C1349.8 346.493 1348.74 348.726 1348.74 351.313C1348.74 356.603 1352.88 360.718 1358.2 360.718H1386.59V379.528H1358.2C1355.6 379.528 1353.11 380.703 1351.57 382.349C1349.8 384.113 1348.74 386.346 1348.74 388.933C1348.74 394.223 1352.88 398.338 1358.2 398.338H1386.59V417.03H1331.58C1323.07 417.03 1316.21 423.966 1316.21 432.313V510.022H1302.01V418.558C1302.01 410.447 1295.39 403.863 1287.23 403.863H1283.8C1281.43 403.863 1279.66 405.744 1279.66 407.978V449.595C1279.66 453.71 1276.35 457.119 1272.09 457.119H1242.04C1232.34 425.377 1214.13 403.863 1193.43 403.863C1162.44 403.863 1137.24 451.476 1137.24 510.257V539.413H1102.94V511.668C1102.94 508.259 1100.22 505.437 1096.67 505.437H1094.31C1092.89 505.437 1091.71 506.613 1091.71 508.023V539.413H1079.4V502.263C1079.4 496.385 1074.67 491.447 1068.64 491.447H1053.62C1047.7 491.447 1042.85 496.15 1042.85 502.263V556.107C1042.85 560.809 1039.07 564.571 1034.34 564.571H1024.05C1024.17 562.572 1024.28 560.691 1024.28 558.575C1024.28 538.59 1014.7 522.484 1002.99 522.484C991.282 522.484 981.701 538.59 981.701 558.575C981.701 560.574 981.82 562.572 981.938 564.571H961.593V492.623C961.593 488.038 965.378 484.276 969.991 484.276H971.766C978.035 484.276 983.003 479.221 983.003 473.107C983.003 466.994 977.916 461.939 971.766 461.939H965.142C963.249 461.939 961.711 460.411 961.711 458.53V453.592C961.711 449.007 965.497 445.245 970.11 445.245H985.132C991.401 445.245 996.369 440.19 996.369 434.077C996.369 427.963 991.282 422.908 985.132 422.908H915.817C909.548 422.908 904.581 427.963 904.581 434.077C904.581 440.19 909.667 445.245 915.817 445.245H930.839C935.453 445.245 939.238 449.007 939.238 453.592V458.53C939.238 460.411 937.7 461.939 935.807 461.939H929.183C922.914 461.939 917.947 466.994 917.947 473.107C917.947 479.221 923.033 484.276 929.183 484.276H930.958C935.571 484.276 939.356 488.038 939.356 492.623V564.689H893.107V524.952C893.107 516.841 886.483 510.257 878.322 510.257H849.224C846.385 510.257 843.901 507.788 843.901 504.967V500.97C843.901 495.797 839.761 491.565 834.438 491.565H807.943V458.647C807.943 454.062 811.728 450.3 816.341 450.3H818.115C824.384 450.3 829.352 445.245 829.352 439.132C829.352 433.019 824.266 427.963 818.115 427.963H811.491C809.599 427.963 808.061 426.435 808.061 424.554V419.499C808.061 414.914 811.846 411.152 816.459 411.152H831.245C837.514 411.152 842.482 406.097 842.482 399.984C842.482 393.87 837.395 388.815 831.245 388.815H761.93C755.661 388.815 750.694 393.87 750.694 399.984C750.694 406.097 755.78 411.152 761.93 411.152H776.952C781.565 411.152 785.351 414.914 785.351 419.499V424.554C785.351 426.435 783.813 427.963 781.92 427.963H775.297C769.027 427.963 764.06 433.019 764.06 439.132C764.06 445.245 769.146 450.3 775.297 450.3H777.071C781.684 450.3 785.469 454.062 785.469 458.647V553.05H619.872L614.904 405.862C614.431 392.93 624.84 382.114 637.969 382.114H659.733C667.304 382.114 673.336 375.883 673.218 368.594C673.099 361.306 666.83 355.545 659.497 355.545H597.989L596.452 309.813C595.86 293.825 608.635 280.658 624.721 280.658H650.862C656.895 280.658 661.981 276.19 662.454 270.312C662.69 266.903 661.389 263.846 659.26 261.73C657.249 259.614 654.529 258.438 651.454 258.438C649.324 258.438 647.432 256.557 647.314 254.559C647.195 252.56 646.841 250.444 646.604 248.328C641.991 219.172 617.861 196.718 588.882 196.718C559.902 196.718 535.772 219.055 531.159 248.328C530.686 250.327 530.568 252.325 530.449 254.559C530.213 256.675 528.439 258.438 526.31 258.438C520.632 258.438 515.546 262.435 514.836 267.961C513.771 274.897 519.212 280.658 525.955 280.658H552.332C568.3 280.658 581.311 293.942 580.602 309.813L579.064 355.545H516.61C509.04 355.545 503.008 361.776 503.126 369.065C503.244 376.354 509.513 382.114 516.847 382.114H538.138C551.149 382.114 561.558 392.93 561.203 405.862L556.708 542.469L545.826 534.828C543.815 532.712 541.095 531.654 538.138 531.654H517.793C517.793 510.963 507.502 493.798 494.964 493.798C482.426 493.798 472.136 510.61 472.136 531.654H468.705V510.257H468.587V448.067C468.587 439.014 464.802 430.432 458.06 424.201L445.64 413.033L445.758 352.253C445.758 337.205 433.457 324.744 418.317 324.744H414.65C411.574 324.744 409.209 327.212 409.209 330.151V453.71L396.198 462.527C387.326 468.523 381.885 478.515 381.885 489.331V510.375H362.842C360.239 453.239 339.303 408.683 313.636 408.683C298.022 408.683 284.065 425.495 274.957 451.594H238.407V296.293C238.407 290.063 243.493 285.125 249.644 285.125H306.657C310.442 285.125 313.636 282.304 313.636 278.424C313.636 277.366 313.517 276.543 313.162 275.72C312.689 274.897 312.334 274.192 311.743 273.604C310.442 272.311 308.904 271.605 307.012 271.605H298.495C291.753 271.605 286.194 266.903 284.893 260.437C279.57 234.103 256.15 214.235 227.998 214.235C199.847 214.235 176.427 234.103 171.104 260.437C169.803 266.903 164.125 271.605 157.501 271.605H148.985C147.684 271.605 146.264 272.076 145.2 272.781C143.425 273.957 142.361 276.073 142.361 278.424C142.361 282.186 145.2 285.125 149.103 285.125H205.997C212.266 285.125 217.234 290.18 217.234 296.293V451.594H164.716C158.684 451.594 153.716 446.656 153.716 440.66V410.917C153.716 391.166 137.63 375.413 117.994 375.413H110.897V342.496C110.897 332.738 102.972 324.861 92.9183 324.861C89.6064 324.861 86.8859 327.565 86.8859 330.857V375.413H84.0471C77.5415 375.413 72.2187 370.123 72.2187 363.657V322.392C72.2187 286.888 43.1209 257.968 7.39927 257.968H-34V257.615Z" fill="url(#paint0_linear_2536_5226)"/>
<g opacity="0.35">
<path opacity="0.35" d="M115.437 207.858C117.211 207.858 118.749 206.321 118.749 204.547C118.749 202.773 117.211 201.236 115.437 201.236C113.663 201.236 112.125 202.773 112.125 204.547C112.125 206.321 113.663 207.858 115.437 207.858Z" fill="#86D4C9"/>
<path opacity="0.35" d="M1727.41 472.944C1729.18 472.944 1730.72 471.407 1730.72 469.634C1730.72 467.86 1729.18 466.323 1727.41 466.323C1725.63 466.323 1724.09 467.86 1724.09 469.634C1724.09 471.407 1725.51 472.944 1727.41 472.944Z" fill="#86D4C9"/>
<path opacity="0.35" d="M1650.4 335.317C1652.18 335.317 1653.72 333.78 1653.72 332.006C1653.72 330.233 1652.18 328.696 1650.4 328.696C1648.63 328.696 1647.09 330.233 1647.09 332.006C1647.09 333.78 1648.63 335.317 1650.4 335.317Z" fill="#86D4C9"/>
<path opacity="0.35" d="M1513.79 75.3137C1515.56 75.3137 1517.1 73.7766 1517.1 72.003C1517.1 70.2295 1515.56 68.6924 1513.79 68.6924C1512.01 68.6924 1510.47 70.2295 1510.47 72.003C1510.47 73.7766 1512.01 75.3137 1513.79 75.3137Z" fill="#86D4C9"/>
<path opacity="0.35" d="M1280.29 52.2575C1282.07 52.2575 1283.61 50.7204 1283.61 48.9469C1283.61 47.1733 1282.07 45.6362 1280.29 45.6362C1278.52 45.6362 1276.98 47.1733 1276.98 48.9469C1276.98 50.7204 1278.4 52.2575 1280.29 52.2575Z" fill="#86D4C9"/>
<path opacity="0.35" d="M253.71 34.7585C255.485 34.7585 257.022 33.2214 257.022 31.4478C257.022 29.6743 255.485 28.1372 253.71 28.1372C251.936 28.1372 250.398 29.6743 250.398 31.4478C250.398 33.2214 251.818 34.7585 253.71 34.7585Z" fill="#86D4C9"/>
<path opacity="0.35" d="M365.015 78.6242C366.789 78.6242 368.327 77.0871 368.327 75.3136C368.327 73.54 366.789 72.0029 365.015 72.0029C363.241 72.0029 361.703 73.54 361.703 75.3136C361.703 77.0871 363.241 78.6242 365.015 78.6242Z" fill="#86D4C9"/>
<path opacity="0.35" d="M79.3603 391.479C81.1346 391.479 82.6723 389.942 82.6723 388.169C82.6723 386.395 81.1346 384.858 79.3603 384.858C77.586 384.858 76.0483 386.395 76.0483 388.169C76.0483 389.942 77.4678 391.479 79.3603 391.479Z" fill="#86D4C9"/>
<path opacity="0.35" d="M234.549 116.224C235.495 116.224 236.205 115.396 236.205 114.568C236.205 113.623 235.495 112.913 234.549 112.913C233.602 112.913 232.893 113.741 232.893 114.568C232.774 115.514 233.602 116.224 234.549 116.224Z" fill="#86D4C9"/>
<path opacity="0.35" d="M642.627 48.9469C643.573 48.9469 644.283 48.2374 644.283 47.2916C644.283 46.3457 643.573 45.6362 642.627 45.6362C641.68 45.6362 640.971 46.3457 640.971 47.2916C640.971 48.1192 641.68 48.9469 642.627 48.9469Z" fill="#86D4C9"/>
<path opacity="0.35" d="M1477.24 119.889C1478.18 119.889 1478.89 119.062 1478.89 118.234C1478.89 117.288 1478.06 116.579 1477.24 116.579C1476.41 116.579 1475.58 117.406 1475.58 118.234C1475.46 119.062 1476.29 119.889 1477.24 119.889Z" fill="#86D4C9"/>
<path opacity="0.35" d="M1204.71 50.6021C1205.66 50.6021 1206.37 49.8927 1206.37 48.9468C1206.37 48.0009 1205.54 47.2915 1204.71 47.2915C1203.76 47.2915 1203.05 48.1192 1203.05 48.9468C1203.17 49.8927 1203.88 50.6021 1204.71 50.6021Z" fill="#86D4C9"/>
<path opacity="0.35" d="M1684.94 401.293C1685.89 401.293 1686.6 400.465 1686.6 399.638C1686.6 398.692 1685.89 397.982 1684.94 397.982C1684 397.982 1683.29 398.81 1683.29 399.638C1683.4 400.584 1684.11 401.293 1684.94 401.293Z" fill="#86D4C9"/>
<path opacity="0.35" d="M1165.91 767C1166.86 767 1167.57 766.291 1167.57 765.345C1167.57 764.399 1166.74 763.689 1165.91 763.689C1165.09 763.689 1164.26 764.399 1164.26 765.345C1164.26 766.291 1164.97 767 1165.91 767Z" fill="#86D4C9"/>
<path opacity="0.35" d="M1711.67 203.601C1712.62 203.601 1713.33 202.891 1713.33 201.945C1713.33 200.999 1712.62 200.29 1711.67 200.29C1710.73 200.29 1710.02 200.999 1710.02 201.945C1710.14 202.891 1710.73 203.601 1711.67 203.601Z" fill="#86D4C9"/>
<path opacity="0.35" d="M1754.49 307.295C1755.44 307.295 1756.15 306.467 1756.15 305.639C1756.15 304.812 1755.44 303.984 1754.49 303.984C1753.55 303.984 1752.84 304.812 1752.84 305.639C1752.84 306.467 1753.43 307.295 1754.49 307.295Z" fill="#86D4C9"/>
<path opacity="0.35" d="M77.3495 279.627C78.2958 279.627 79.0055 278.799 79.0055 277.972C79.0055 277.026 78.2958 276.316 77.3495 276.316C76.4032 276.316 75.6935 277.144 75.6935 277.972C75.5752 278.799 76.2849 279.627 77.3495 279.627Z" fill="#86D4C9"/>
<path opacity="0.35" d="M136.61 461.476C137.556 461.476 138.266 460.648 138.266 459.82C138.266 458.874 137.556 458.165 136.61 458.165C135.663 458.165 134.954 458.993 134.954 459.82C134.954 460.766 135.782 461.476 136.61 461.476Z" fill="#86D4C9"/>
<path opacity="0.35" d="M148.438 136.324C150.212 136.324 151.75 134.787 151.75 133.013C151.75 131.24 150.212 129.703 148.438 129.703C146.664 129.703 145.126 131.24 145.126 133.013C145.008 134.905 146.545 136.324 148.438 136.324Z" fill="#86D4C9"/>
<path opacity="0.35" d="M1563.35 139.871C1565.12 139.871 1566.66 138.334 1566.66 136.561C1566.66 134.787 1565.12 133.25 1563.35 133.25C1561.57 133.25 1560.03 134.787 1560.03 136.561C1560.03 138.334 1561.57 139.871 1563.35 139.871Z" fill="#86D4C9"/>
<path opacity="0.35" d="M1131.73 25.2995C1133.5 25.2995 1135.04 23.7624 1135.04 21.9889C1135.04 20.2153 1133.5 18.6782 1131.73 18.6782C1129.96 18.6782 1128.42 20.2153 1128.42 21.9889C1128.42 23.7624 1129.72 25.2995 1131.73 25.2995Z" fill="#86D4C9"/>
<path opacity="0.35" d="M154.352 64.1994C158.137 64.1994 161.213 61.1252 161.213 57.3416C161.213 53.5581 158.137 50.4839 154.352 50.4839C150.567 50.4839 147.492 53.5581 147.492 57.3416C147.492 61.1252 150.449 64.1994 154.352 64.1994Z" fill="#86D4C9"/>
<path opacity="0.35" d="M481.525 99.3156C485.31 99.3156 488.385 96.3597 488.385 92.4578C488.385 88.556 485.31 85.6001 481.525 85.6001C477.739 85.6001 474.664 88.6743 474.664 92.4578C474.664 96.2414 477.739 99.3156 481.525 99.3156Z" fill="#86D4C9"/>
<path opacity="0.35" d="M1699.73 106.173C1703.51 106.173 1706.59 103.218 1706.59 99.3158C1706.59 95.4139 1703.51 92.458 1699.73 92.458C1695.94 92.458 1692.87 95.4139 1692.87 99.3158C1692.87 103.218 1695.94 106.173 1699.73 106.173Z" fill="#86D4C9"/>
<path opacity="0.35" d="M82.6725 596.029C86.4575 596.029 89.5329 592.955 89.5329 589.172C89.5329 585.388 86.4575 582.314 82.6725 582.314C78.8874 582.314 75.812 585.388 75.812 589.172C75.812 592.955 78.8874 596.029 82.6725 596.029Z" fill="#86D4C9"/>
<path opacity="0.35" d="M1325.12 123.436C1328.91 123.436 1331.98 120.48 1331.98 116.578C1331.98 112.677 1328.91 109.721 1325.12 109.721C1321.34 109.721 1318.26 112.795 1318.26 116.578C1318.26 120.362 1321.34 123.436 1325.12 123.436Z" fill="#86D4C9"/>
<path opacity="0.35" d="M106.211 120.48H102.544C98.6406 120.48 95.5652 117.406 95.5652 113.504V103.927C95.4469 102.981 94.6189 102.272 93.7909 102.39C92.9629 102.508 92.2532 103.099 92.2532 103.927V113.504C92.2532 117.406 89.1779 120.48 85.2745 120.48H81.6077C80.6614 120.598 79.9517 121.426 80.07 122.254C80.1883 123.081 80.7797 123.791 81.6077 123.791H85.2745C89.1779 123.791 92.2532 126.865 92.2532 130.767V140.344C92.3715 141.29 93.1995 141.999 94.0275 141.881C94.8555 141.763 95.5652 141.172 95.5652 140.344V130.767C95.5652 126.865 98.6406 123.791 102.544 123.791H106.211C107.157 123.909 107.867 123.2 107.985 122.254C108.103 121.308 107.394 120.598 106.447 120.48H106.211Z" fill="#86D4C9"/>
<path opacity="0.35" d="M553.559 10.1651H551.548C549.419 10.1651 547.645 8.50981 547.645 6.26331V1.06088C547.645 0.587932 547.172 0.114983 546.699 0.23322C546.344 0.23322 545.871 0.587932 545.871 1.06088V6.26331C545.871 8.39157 544.215 10.1651 541.967 10.1651H539.957C539.484 10.1651 539.01 10.6381 539.129 11.111C539.129 11.4657 539.484 11.9387 539.957 11.9387H541.967C544.097 11.9387 545.871 13.594 545.871 15.8405V21.0429C545.871 21.5159 546.344 21.9888 546.817 21.8706C547.172 21.8706 547.645 21.5159 547.645 21.0429V15.8405C547.645 13.7122 549.301 11.9387 551.548 11.9387H553.559C554.032 11.9387 554.506 11.584 554.506 11.111C554.506 10.6381 554.151 10.1651 553.559 10.1651C553.559 10.1651 553.678 10.1651 553.559 10.1651Z" fill="#86D4C9"/>
<path opacity="0.35" d="M1404.61 160.089H1402.6C1400.47 160.089 1398.7 158.434 1398.7 156.188V150.985C1398.7 150.512 1398.22 150.039 1397.75 150.158C1397.39 150.158 1396.92 150.512 1396.92 150.985V156.188C1396.92 158.316 1395.27 160.089 1393.14 160.089H1391.13C1390.65 160.089 1390.18 160.562 1390.3 161.035C1390.3 161.508 1390.65 161.863 1391.13 161.863H1393.14C1395.27 161.863 1396.92 163.518 1396.92 165.647V170.849C1396.92 171.322 1397.39 171.795 1397.87 171.677C1398.22 171.677 1398.7 171.322 1398.7 170.849V165.647C1398.7 163.518 1400.35 161.863 1402.6 161.863H1404.61C1405.08 161.863 1405.56 161.508 1405.56 161.035C1405.56 160.562 1405.2 160.089 1404.73 160.089H1404.61Z" fill="#86D4C9"/>
</g>
<defs>
<linearGradient id="paint0_linear_2536_5226" x1="1064.5" y1="761.253" x2="1064.5" y2="175.11" gradientUnits="userSpaceOnUse">
<stop stop-color="#2F1D6C"/>
<stop offset="1" stop-color="#160E3F"/>
</linearGradient>
</defs>
</svg>
