<svg width="280" height="104" viewBox="0 0 280 104" fill="none" xmlns="http://www.w3.org/2000/svg">
<path d="M138.65 29.0505H125.988V63.2978H122.879V29.0505H110.249V26.4235H138.65V29.0505Z" fill="#9CB8E2"/>
<path d="M150.351 63.8427C145.822 63.9099 141.654 61.3694 139.644 57.3104C138.574 55.1735 138.035 52.8124 138.073 50.4224V49.3332C138.035 46.876 138.564 44.4444 139.612 42.221C140.545 40.2027 142.023 38.4823 143.876 37.2553C145.629 36.0763 147.694 35.442 149.806 35.4292C153.14 35.4292 155.769 36.5505 157.724 38.8251C159.679 41.0997 160.641 44.2073 160.641 48.1478V49.8458H141.055V50.4224C141.055 53.53 141.952 56.125 143.715 58.1753C145.366 60.1841 147.847 61.331 150.447 61.2829C151.928 61.3182 153.4 61.0106 154.743 60.3859C156.089 59.7227 157.253 58.7424 158.141 57.5346L160.032 58.9763C157.852 62.2088 154.615 63.8427 150.351 63.8427ZM149.806 37.9889C147.613 37.9537 145.511 38.8635 144.036 40.4878C142.465 42.1537 141.536 44.3963 141.183 47.2155H157.628V46.8952C157.532 44.2682 156.794 42.1217 155.384 40.4558C153.973 38.7899 152.114 37.9889 149.806 37.9889Z" fill="#9CB8E2"/>
<path d="M169.617 60.7669H187.44V63.3299H165.866V61.0873L182.503 38.5334H166.379V35.9064H186.318V38.181L169.617 60.7669Z" fill="#9CB8E2"/>
<path d="M191.8 49.2017C191.761 46.7445 192.29 44.3129 193.339 42.0895C194.287 40.068 195.788 38.3604 197.666 37.1559C199.567 35.9641 201.773 35.3522 204.013 35.3938C207.668 35.3938 210.617 36.6753 212.893 39.2383C215.169 41.8012 216.291 45.1971 216.291 49.426V50.0667C216.332 52.5335 215.804 54.9779 214.752 57.2109C213.813 59.2292 212.309 60.9336 210.425 62.1157C208.517 63.2819 206.315 63.8842 204.077 63.8457C200.455 63.8457 197.474 62.5643 195.198 60.0013C192.922 57.4384 191.8 54.0425 191.8 49.8136V49.2017ZM194.845 50.0347C194.845 53.3024 195.711 55.9935 197.378 58.1079C199.045 60.2224 201.288 61.2475 204.045 61.2475C206.639 61.3084 209.11 60.1455 210.713 58.1079C212.412 55.9935 213.245 53.2383 213.245 49.7784V49.2017C213.265 47.2218 212.874 45.2548 212.091 43.4351C211.405 41.8076 210.271 40.4076 208.822 39.3984C207.405 38.4341 205.725 37.9312 204.013 37.9568C201.423 37.9087 198.964 39.0845 197.378 41.1284C195.679 43.2429 194.813 46.0301 194.813 49.458L194.845 50.0347Z" fill="#9CB8E2"/>
<path d="M238.987 56.3492C239.025 54.914 238.339 53.5524 237.159 52.7291C235.941 51.832 234.146 51.0952 231.678 50.5826C229.726 50.2174 227.821 49.6279 226.004 48.8206C224.657 48.1478 223.664 47.3469 223.023 46.3858C222.346 45.3478 222 44.1304 222.029 42.8938C222.029 40.7153 222.926 38.9532 224.754 37.5436C226.581 36.134 228.889 35.4292 231.71 35.4292C234.755 35.4292 237.224 36.1981 239.083 37.7038C240.9 39.1262 241.936 41.324 241.872 43.6306H238.826C238.839 42.048 238.086 40.5583 236.807 39.626C235.46 38.5688 233.761 38.0242 231.71 38.0242C229.722 38.0242 228.12 38.4727 226.901 39.3377C225.747 40.1098 225.061 41.4105 225.074 42.7977C225.013 44.0407 225.581 45.2293 226.581 45.9693C227.575 46.7062 229.434 47.411 232.095 48.0517C234.755 48.6924 236.743 49.3332 238.089 50.038C239.272 50.6275 240.288 51.5117 241.038 52.6009C242.833 55.6765 242.048 59.6106 239.211 61.7635C237.352 63.141 234.915 63.8459 231.902 63.8459C228.697 63.8459 226.1 63.077 224.145 61.5392C222.189 60.0014 221.163 58.0472 221.163 55.6765H224.209C224.273 57.3296 225.1 58.8577 226.453 59.8092C227.831 60.8024 229.658 61.2829 231.934 61.2829C234.05 61.2829 235.749 60.8024 237.063 59.9053C238.345 58.941 238.987 57.7557 238.987 56.3492Z" fill="#9CB8E2"/>
<path d="M87.8413 65.3802C87.104 52.3412 70.6912 46.4144 69.1204 45.8057C69.0563 45.7737 69.0563 45.7096 69.0884 45.6455L86.0141 28.666V26.8399C86.0045 26.542 85.7672 26.3049 85.4691 26.2953H54.2783V16.0755V13L42.7701 15.4028V17.1327H43.4113C43.4113 17.1327 46.2322 17.1328 46.2322 19.952V26.2632H37.3206C37.1475 26.2761 37.0128 26.4106 37 26.5836V30.5882H46.2643V52.3412C46.2643 59.1651 50.656 63.9065 58.3495 63.2658C59.9331 63.1088 61.4557 62.5578 62.7733 61.6639C63.3535 61.2923 63.7029 60.6548 63.7029 59.966V57.8195C61.2025 59.4854 59.0868 59.3893 59.0868 59.3893C54.2142 59.3893 54.3104 53.2062 54.3104 53.2062V30.5882H76.7498L60.5934 46.8629C60.5614 49.0094 60.5293 50.6753 60.5293 50.7073C60.5229 50.7554 60.5582 50.797 60.6063 50.8034C60.6127 50.8034 60.6191 50.8034 60.6255 50.8034C75.4355 53.3023 79.4425 62.8813 79.4425 65.6685C79.4425 65.6685 81.0453 79.2201 67.4855 80.1492C67.4855 80.1492 58.6059 80.5336 57.0352 76.9775C56.9775 76.8622 57.0288 76.7212 57.1442 76.6668C57.1506 76.6636 57.157 76.6604 57.1634 76.6572C58.6733 76.026 59.651 74.5459 59.6317 72.9089C59.6317 70.2818 58.0289 68.1354 54.663 68.1354C51.9382 68.1354 49.6943 70.2818 49.6943 72.9089C49.6943 72.9089 48.412 84.314 67.4535 83.9936C89.1876 83.6092 87.8413 65.3802 87.8413 65.3802Z" fill="#9CB8E2"/>
<path d="M148.533 87H151.137V72.573H148.533V87ZM158.078 87.252C160.619 87.252 162.341 85.908 162.341 83.829C162.341 81.561 160.367 80.931 158.54 80.427C156.881 79.944 156.314 79.734 156.314 79.041C156.314 78.432 157.007 78.075 157.91 78.075C158.855 78.075 159.968 78.411 160.997 79.062L162.068 77.193C160.892 76.416 159.401 75.891 157.91 75.891C155.495 75.891 153.815 77.277 153.815 79.314C153.836 81.246 155.327 81.918 157.679 82.527C158.918 82.863 159.863 83.136 159.863 83.976C159.863 84.648 159.149 85.089 158.12 85.089C156.755 85.089 155.537 84.585 154.487 83.829L153.332 85.614C154.634 86.664 156.419 87.252 158.078 87.252ZM167.192 78.243V76.143H164.63V87H167.192V81.519C167.192 79.461 168.746 78.075 171.077 78.075V75.891C169.292 75.891 167.885 76.794 167.192 78.243ZM177.7 75.891C176.335 75.891 174.907 76.269 173.374 77.025L174.256 78.81C175.18 78.348 176.167 77.991 177.196 77.991C179.17 77.991 179.863 79.209 179.863 80.469V80.763C178.876 80.385 177.805 80.175 176.818 80.175C174.382 80.175 172.387 81.645 172.387 83.787C172.387 85.887 174.13 87.252 176.44 87.252C177.7 87.252 179.065 86.706 179.863 85.698V87H182.362V80.469C182.362 77.718 180.577 75.891 177.7 75.891ZM177.007 85.383C175.789 85.383 174.886 84.732 174.886 83.703C174.886 82.674 175.915 81.96 177.196 81.96C178.162 81.96 179.065 82.107 179.863 82.38V83.598C179.569 84.753 178.246 85.383 177.007 85.383ZM190.197 84.984C188.643 84.984 187.509 83.934 187.194 82.443H195.384C195.384 78.432 193.431 75.891 190.071 75.891C186.984 75.891 184.548 78.285 184.548 81.54C184.548 84.879 187.11 87.252 190.218 87.252C191.793 87.252 193.683 86.58 194.628 85.572L193.011 83.892C192.402 84.522 191.205 84.984 190.197 84.984ZM190.176 78.159C191.709 78.159 192.633 79.125 192.927 80.49H187.215C187.593 79.062 188.748 78.159 190.176 78.159ZM197.605 87H200.167V72.321H197.605V87Z" fill="#9CB8E2"/>
</svg>
