<svg width="619" height="835" viewBox="0 0 619 835" fill="none" xmlns="http://www.w3.org/2000/svg">
<path d="M304 637V780L350.5 806" stroke="#88D1C3" stroke-width="2"/>
<path d="M148 134L148 251" stroke="url(#paint0_linear_1767_3186)" stroke-width="2"/>
<path opacity="0.24" d="M303 277.357C334.941 277.357 366.062 287.469 391.903 306.244C417.744 325.018 436.978 351.491 446.848 381.869C456.718 412.247 456.718 444.969 446.848 475.347C436.978 505.725 416.744 533.198 390.903 551.972L339.269 480.904C350.101 473.034 359.164 460.936 363.302 448.201C367.44 435.467 367.44 421.749 363.302 409.015C359.164 396.28 351.101 385.182 340.269 377.312C329.436 369.441 316.39 365.202 303 365.202V277.357Z" fill="#7068AA"/>
<path d="M338.994 159C393.049 166.217 443.687 189.516 484.335 225.873C524.982 262.231 553.763 309.967 566.94 362.886C580.117 415.805 577.082 471.464 558.23 522.636C539.377 573.809 505.578 618.134 461.218 649.856L391.016 551.688C415.693 534.041 434.496 509.383 444.983 480.916C455.471 452.448 457.159 421.486 449.829 392.047C442.498 362.608 426.488 336.053 403.876 315.827C381.263 295.602 353.094 282.64 323.023 278.626L338.994 159Z" fill="#7068AA"/>
<path d="M318.251 637.048C277.701 640.029 237.167 631.061 201.66 611.251L229.731 560.936C255.403 575.258 284.709 581.743 314.026 579.587L318.251 637.048Z" fill="#88D1C3"/>
<path d="M173.225 606.256C143.223 584.339 119.26 555.18 103.572 521.499C87.8837 487.818 80.4718 450.677 82.9992 413.608L151.699 418.292C149.963 443.759 155.215 469.285 165.992 492.424C176.77 515.563 193.233 535.595 213.844 550.652L173.225 606.256Z" fill="#7996C9"/>
<path d="M99.4766 414.661C100.685 397.024 104.181 379.619 109.877 362.884L159.509 379.775C155.277 392.209 152.68 405.141 151.782 418.245L99.4766 414.661Z" fill="#FFB3B3"/>
<path d="M78.6484 352.219C94.6261 305.293 124.916 264.558 165.255 235.747C205.595 206.936 253.953 191.499 303.524 191.608L303.335 277.092C271.644 277.021 240.728 286.89 214.938 305.31C189.149 323.729 169.784 349.771 159.569 379.772L78.6484 352.219Z" fill="#FF8080"/>
<path d="M216 586.108C209.464 582.465 202.532 578.148 196.5 573.721L213.474 550.593C218.545 554.315 224.472 557.986 229.966 561.049L216 586.108Z" fill="#A3B3D0"/>
<path opacity="0.6" d="M303 252.608C311.268 252.608 319.526 253.191 327.712 254.351L324.275 278.587C317.227 277.587 310.118 277.086 303 277.086V252.608Z" fill="#7068AA"/>
<path opacity="0.24" d="M390.891 551.98C367.669 568.849 341.128 577.761 312.482 579.561C283.837 581.361 255.272 574.973 230.121 561.143L251.547 522.178C269.303 531.941 289.471 536.451 309.694 535.181C329.918 533.91 348.362 527.912 364.757 516.003L390.891 551.98Z" fill="#73D7C3"/>
<path opacity="0.24" d="M230.122 561.143C204.972 547.314 184.276 526.614 170.451 501.461C156.626 476.308 149.816 446.956 151.621 418.311L196 421.108C194.726 441.331 199.66 462.284 209.42 480.042C219.181 497.8 233.792 512.414 251.548 522.178L230.122 561.143Z" fill="#7996C9"/>
<path opacity="0.24" d="M151.67 418.261C154.098 379.867 171.447 344.642 199.499 318.316C227.552 291.991 264.581 277.344 303.051 277.357L303.031 338.31C280.064 338.303 257.957 347.047 241.21 362.763C224.463 378.48 213.951 399.187 212.501 422.108L151.67 418.261Z" fill="#FF8080"/>
<path d="M120 389L1.5 356.5V37.5L14 29" stroke="#FFB3B3" stroke-width="2"/>
<path d="M487 253V134" stroke="url(#paint1_linear_1767_3186)" stroke-width="2"/>
<path d="M315 256V60L349.5 29" stroke="#A9A4CC" stroke-width="2"/>
<path d="M207 573L183 617.632V701" stroke="url(#paint2_linear_1767_3186)" stroke-width="2"/>
<path d="M388 701L388 576" stroke="url(#paint3_linear_1767_3186)" stroke-width="2"/>
<path d="M424.501 598.108C393.088 621.08 357.144 634.173 318.334 637.042L314.086 579.583C342.146 577.509 368.29 568.217 391.001 551.608L424.501 598.108Z" fill="#B8E3DB"/>
<path d="M304.992 268.608H311.628V267.572H306.742L309.262 265.388C310.886 263.988 311.53 262.952 311.53 261.65C311.53 259.928 310.13 258.822 308.464 258.822C306.952 258.822 305.874 259.536 305.076 260.67L305.846 261.3C306.504 260.404 307.302 259.802 308.422 259.802C309.444 259.802 310.424 260.488 310.424 261.664C310.424 262.616 309.864 263.54 308.506 264.702L304.992 267.698V268.608ZM315.434 263.722C316.75 263.722 317.674 262.672 317.674 261.314C317.674 259.984 316.778 258.906 315.448 258.906C314.146 258.906 313.208 259.956 313.208 261.342C313.208 262.644 314.104 263.722 315.434 263.722ZM314.384 268.608H315.308L321.888 258.99H320.964L314.384 268.608ZM315.448 262.966C314.678 262.966 314.09 262.252 314.09 261.328C314.09 260.362 314.65 259.662 315.434 259.662C316.218 259.662 316.792 260.376 316.792 261.328C316.792 262.266 316.232 262.966 315.448 262.966ZM320.782 268.748C322.084 268.748 323.022 267.698 323.022 266.326C323.022 265.024 322.126 263.932 320.796 263.932C319.466 263.932 318.556 265.024 318.556 266.34C318.556 267.712 319.494 268.748 320.782 268.748ZM320.796 267.992C319.998 267.992 319.438 267.278 319.438 266.326C319.438 265.416 319.984 264.688 320.782 264.688C321.566 264.688 322.14 265.402 322.14 266.34C322.14 267.292 321.594 267.992 320.796 267.992Z" fill="white"/>
<path d="M204.992 572.608H211.628V571.572H206.742L209.262 569.388C210.886 567.988 211.53 566.952 211.53 565.65C211.53 563.928 210.13 562.822 208.464 562.822C206.952 562.822 205.874 563.536 205.076 564.67L205.846 565.3C206.504 564.404 207.302 563.802 208.422 563.802C209.444 563.802 210.424 564.488 210.424 565.664C210.424 566.616 209.864 567.54 208.506 568.702L204.992 571.698V572.608ZM215.434 567.722C216.75 567.722 217.674 566.672 217.674 565.314C217.674 563.984 216.778 562.906 215.448 562.906C214.146 562.906 213.208 563.956 213.208 565.342C213.208 566.644 214.104 567.722 215.434 567.722ZM214.384 572.608H215.308L221.888 562.99H220.964L214.384 572.608ZM215.448 566.966C214.678 566.966 214.09 566.252 214.09 565.328C214.09 564.362 214.65 563.662 215.434 563.662C216.218 563.662 216.792 564.376 216.792 565.328C216.792 566.266 216.232 566.966 215.448 566.966ZM220.782 572.748C222.084 572.748 223.022 571.698 223.022 570.326C223.022 569.024 222.126 567.932 220.796 567.932C219.466 567.932 218.556 569.024 218.556 570.34C218.556 571.712 219.494 572.748 220.782 572.748ZM220.796 571.992C219.998 571.992 219.438 571.278 219.438 570.326C219.438 569.416 219.984 568.688 220.782 568.688C221.566 568.688 222.14 569.402 222.14 570.34C222.14 571.292 221.594 571.992 220.796 571.992Z" fill="white"/>
<path d="M493.51 410.872C496.656 410.872 498.768 409.046 498.768 406.516C498.768 404.338 497.052 403.216 495.512 402.864C497.074 402.402 498.438 401.258 498.438 399.322C498.438 396.902 496.326 395.23 493.444 395.23C491.09 395.23 489.418 396.374 488.274 397.892L489.418 398.926C490.496 397.628 491.684 396.792 493.356 396.792C495.248 396.792 496.7 397.936 496.7 399.52C496.7 401.236 495.182 402.204 493.158 402.182L491.53 402.16V403.744H493.136C495.512 403.744 497.03 404.646 497.03 406.428C497.03 408.144 495.622 409.31 493.51 409.31C491.662 409.31 490.188 408.43 489.198 407.154L488.01 408.276C489.11 409.728 491.024 410.872 493.51 410.872ZM506.687 410.872C509.789 410.872 512.209 409.222 512.209 406.648C512.209 404.756 510.713 403.414 508.887 402.798C510.449 402.226 511.835 401.104 511.835 399.256C511.835 396.77 509.393 395.23 506.687 395.23C504.069 395.23 501.561 396.726 501.561 399.234C501.561 400.972 502.793 402.138 504.509 402.798C502.661 403.392 501.165 404.756 501.165 406.648C501.165 409.2 503.563 410.872 506.687 410.872ZM506.687 402.116C505.257 402.028 503.299 401.17 503.299 399.41C503.299 397.892 504.795 396.792 506.687 396.792C508.579 396.792 510.097 397.892 510.097 399.41C510.097 401.126 508.161 402.028 506.687 402.116ZM506.687 409.31C504.597 409.31 502.903 408.188 502.903 406.538C502.903 404.712 505.125 403.656 506.687 403.612C508.271 403.656 510.471 404.712 510.471 406.538C510.471 408.188 508.777 409.31 506.687 409.31ZM517.894 402.93C519.962 402.93 521.414 401.28 521.414 399.146C521.414 397.056 520.006 395.362 517.916 395.362C515.87 395.362 514.396 397.012 514.396 399.19C514.396 401.236 515.804 402.93 517.894 402.93ZM516.244 410.608H517.696L528.036 395.494H526.584L516.244 410.608ZM517.916 401.742C516.706 401.742 515.782 400.62 515.782 399.168C515.782 397.65 516.662 396.55 517.894 396.55C519.126 396.55 520.028 397.672 520.028 399.168C520.028 400.642 519.148 401.742 517.916 401.742ZM526.298 410.828C528.344 410.828 529.818 409.178 529.818 407.022C529.818 404.976 528.41 403.26 526.32 403.26C524.23 403.26 522.8 404.976 522.8 407.044C522.8 409.2 524.274 410.828 526.298 410.828ZM526.32 409.64C525.066 409.64 524.186 408.518 524.186 407.022C524.186 405.592 525.044 404.448 526.298 404.448C527.53 404.448 528.432 405.57 528.432 407.044C528.432 408.54 527.574 409.64 526.32 409.64Z" fill="white"/>
<path d="M199.622 352.608H200.558V345.252H203.33V344.364H196.85V345.252H199.622V352.608ZM210.732 345.252V344.364H204.816V352.608H210.732V351.72H205.764V348.852H210.24V347.964H205.764V345.252H210.732ZM219.048 352.608H220.068L216.432 344.364H215.412L211.776 352.608H212.796L213.624 350.736H218.22L219.048 352.608ZM214.008 349.848L215.928 345.516L217.836 349.848H214.008ZM221.578 352.608H222.514V346.38L225.574 352.128L228.634 346.38V352.608H229.57V344.364H228.634L225.574 350.112L222.514 344.364H221.578V352.608Z" fill="#29264C"/>
<path d="M370.287 399.608H371.223V391.364H370.287V399.608ZM373.303 399.608H374.239V392.9L379.351 399.608H380.287V391.364H379.351V398.072L374.239 391.364H373.303V399.608ZM386.257 399.752C387.397 399.752 388.453 399.26 389.221 398.492L388.585 397.844C387.985 398.48 387.157 398.888 386.257 398.888C384.481 398.888 382.981 397.328 382.981 395.48C382.981 393.644 384.481 392.084 386.257 392.084C387.157 392.084 387.985 392.492 388.585 393.128L389.221 392.48C388.453 391.7 387.397 391.22 386.257 391.22C383.977 391.22 382.033 393.164 382.033 395.48C382.033 397.796 383.977 399.752 386.257 399.752ZM396.429 392.252V391.364H390.513V399.608H396.429V398.72H391.461V395.852H395.937V394.964H391.461V392.252H396.429ZM398.217 399.608H399.153V392.9L404.265 399.608H405.201V391.364H404.265V398.072L399.153 391.364H398.217V399.608ZM409.635 399.608H410.571V392.252H413.343V391.364H406.863V392.252H409.635V399.608ZM414.83 399.608H415.766V391.364H414.83V399.608ZM424.374 391.364L421.254 398.456L418.122 391.364H417.102L420.738 399.608H421.758L425.394 391.364H424.374ZM432.64 392.252V391.364H426.724V399.608H432.64V398.72H427.672V395.852H432.148V394.964H427.672V392.252H432.64ZM437.104 399.74C439.024 399.74 440.008 398.672 440.008 397.364C440.008 395.912 438.88 395.348 437.308 394.976C435.904 394.64 435.088 394.34 435.088 393.488C435.088 392.732 435.832 392.06 436.852 392.06C437.716 392.06 438.532 392.456 439.216 393.116L439.792 392.384C439.036 391.688 438.124 391.208 436.9 391.208C435.316 391.208 434.14 392.24 434.14 393.56C434.14 394.988 435.184 395.504 436.84 395.888C438.28 396.224 439.06 396.572 439.06 397.448C439.06 398.192 438.412 398.888 437.14 398.888C435.988 398.888 435.136 398.396 434.44 397.7L433.852 398.432C434.68 399.248 435.748 399.74 437.104 399.74Z" fill="#29264C"/>
<path d="M356.741 604.872C359.843 604.872 362.263 603.222 362.263 600.648C362.263 598.756 360.767 597.414 358.941 596.798C360.503 596.226 361.889 595.104 361.889 593.256C361.889 590.77 359.447 589.23 356.741 589.23C354.123 589.23 351.615 590.726 351.615 593.234C351.615 594.972 352.847 596.138 354.563 596.798C352.715 597.392 351.219 598.756 351.219 600.648C351.219 603.2 353.617 604.872 356.741 604.872ZM356.741 596.116C355.311 596.028 353.353 595.17 353.353 593.41C353.353 591.892 354.849 590.792 356.741 590.792C358.633 590.792 360.151 591.892 360.151 593.41C360.151 595.126 358.215 596.028 356.741 596.116ZM356.741 603.31C354.651 603.31 352.957 602.188 352.957 600.538C352.957 598.712 355.179 597.656 356.741 597.612C358.325 597.656 360.525 598.712 360.525 600.538C360.525 602.188 358.831 603.31 356.741 603.31ZM367.949 596.93C370.017 596.93 371.469 595.28 371.469 593.146C371.469 591.056 370.061 589.362 367.971 589.362C365.925 589.362 364.451 591.012 364.451 593.19C364.451 595.236 365.859 596.93 367.949 596.93ZM366.299 604.608H367.751L378.091 589.494H376.639L366.299 604.608ZM367.971 595.742C366.761 595.742 365.837 594.62 365.837 593.168C365.837 591.65 366.717 590.55 367.949 590.55C369.181 590.55 370.083 591.672 370.083 593.168C370.083 594.642 369.203 595.742 367.971 595.742ZM376.353 604.828C378.399 604.828 379.873 603.178 379.873 601.022C379.873 598.976 378.465 597.26 376.375 597.26C374.285 597.26 372.855 598.976 372.855 601.044C372.855 603.2 374.329 604.828 376.353 604.828ZM376.375 603.64C375.121 603.64 374.241 602.518 374.241 601.022C374.241 599.592 375.099 598.448 376.353 598.448C377.585 598.448 378.487 599.57 378.487 601.044C378.487 602.54 377.629 603.64 376.375 603.64Z" fill="white"/>
<path d="M250.243 610.608H251.959V595.494H250.573L246.855 598.024L247.603 599.3L250.243 597.584V610.608ZM261.629 610.872C265.303 610.872 267.899 607.638 267.899 603.04C267.899 598.464 265.303 595.23 261.629 595.23C257.933 595.23 255.337 598.464 255.337 603.04C255.337 607.638 257.933 610.872 261.629 610.872ZM261.629 609.288C258.967 609.288 257.075 606.692 257.075 603.04C257.075 599.388 258.967 596.814 261.629 596.814C264.291 596.814 266.161 599.388 266.161 603.04C266.161 606.692 264.291 609.288 261.629 609.288ZM273.739 602.93C275.807 602.93 277.259 601.28 277.259 599.146C277.259 597.056 275.851 595.362 273.761 595.362C271.715 595.362 270.241 597.012 270.241 599.19C270.241 601.236 271.649 602.93 273.739 602.93ZM272.089 610.608H273.541L283.881 595.494H282.429L272.089 610.608ZM273.761 601.742C272.551 601.742 271.627 600.62 271.627 599.168C271.627 597.65 272.507 596.55 273.739 596.55C274.971 596.55 275.873 597.672 275.873 599.168C275.873 600.642 274.993 601.742 273.761 601.742ZM282.143 610.828C284.189 610.828 285.663 609.178 285.663 607.022C285.663 604.976 284.255 603.26 282.165 603.26C280.075 603.26 278.645 604.976 278.645 607.044C278.645 609.2 280.119 610.828 282.143 610.828ZM282.165 609.64C280.911 609.64 280.031 608.518 280.031 607.022C280.031 605.592 280.889 604.448 282.143 604.448C283.375 604.448 284.277 605.57 284.277 607.044C284.277 608.54 283.419 609.64 282.165 609.64Z" fill="white"/>
<path d="M123.974 513.608H125.69V498.494H124.304L120.586 501.024L121.334 502.3L123.974 500.584V513.608ZM135.096 504.17C133.314 504.17 131.752 505.028 130.828 506.48V506.282C130.828 502.652 132.742 499.792 135.162 499.792C136.614 499.792 137.604 500.452 138.55 501.376L139.496 500.034C138.374 498.956 137.054 498.23 135.206 498.23C131.774 498.23 129.09 501.772 129.09 506.282C129.09 510.55 130.74 513.872 134.832 513.872C137.978 513.872 140.156 511.672 140.156 508.878C140.156 505.886 137.846 504.17 135.096 504.17ZM134.81 512.398C132.698 512.398 131.466 510.748 131.026 508.46C131.4 506.788 132.874 505.644 134.788 505.644C136.812 505.644 138.418 506.898 138.418 508.966C138.418 510.638 137.076 512.398 134.81 512.398ZM146.009 505.93C148.077 505.93 149.529 504.28 149.529 502.146C149.529 500.056 148.121 498.362 146.031 498.362C143.985 498.362 142.511 500.012 142.511 502.19C142.511 504.236 143.919 505.93 146.009 505.93ZM144.359 513.608H145.811L156.151 498.494H154.699L144.359 513.608ZM146.031 504.742C144.821 504.742 143.897 503.62 143.897 502.168C143.897 500.65 144.777 499.55 146.009 499.55C147.241 499.55 148.143 500.672 148.143 502.168C148.143 503.642 147.263 504.742 146.031 504.742ZM154.413 513.828C156.459 513.828 157.933 512.178 157.933 510.022C157.933 507.976 156.525 506.26 154.435 506.26C152.345 506.26 150.915 507.976 150.915 510.044C150.915 512.2 152.389 513.828 154.413 513.828ZM154.435 512.64C153.181 512.64 152.301 511.518 152.301 510.022C152.301 508.592 153.159 507.448 154.413 507.448C155.645 507.448 156.547 508.57 156.547 510.044C156.547 511.54 155.689 512.64 154.435 512.64Z" fill="white"/>
<path d="M120.717 400.872C123.819 400.872 126.085 398.892 126.085 395.9C126.085 392.908 123.819 391.192 121.091 391.192C119.705 391.192 118.671 391.654 117.857 392.204L118.011 387.122H125.271V385.494H116.339L116.119 393.26L117.373 393.876C118.319 393.172 119.441 392.71 120.739 392.71C122.851 392.71 124.347 394.03 124.347 395.966C124.347 397.88 122.873 399.332 120.783 399.332C119.111 399.332 117.681 398.496 116.515 397.22L115.393 398.474C116.625 399.882 118.385 400.872 120.717 400.872ZM131.863 392.93C133.931 392.93 135.383 391.28 135.383 389.146C135.383 387.056 133.975 385.362 131.885 385.362C129.839 385.362 128.365 387.012 128.365 389.19C128.365 391.236 129.773 392.93 131.863 392.93ZM130.213 400.608H131.665L142.005 385.494H140.553L130.213 400.608ZM131.885 391.742C130.675 391.742 129.751 390.62 129.751 389.168C129.751 387.65 130.631 386.55 131.863 386.55C133.095 386.55 133.997 387.672 133.997 389.168C133.997 390.642 133.117 391.742 131.885 391.742ZM140.267 400.828C142.313 400.828 143.787 399.178 143.787 397.022C143.787 394.976 142.379 393.26 140.289 393.26C138.199 393.26 136.769 394.976 136.769 397.044C136.769 399.2 138.243 400.828 140.267 400.828ZM140.289 399.64C139.035 399.64 138.155 398.518 138.155 397.022C138.155 395.592 139.013 394.448 140.267 394.448C141.499 394.448 142.401 395.57 142.401 397.044C142.401 398.54 141.543 399.64 140.289 399.64Z" fill="white"/>
<path d="M169.974 288.608H171.69V273.494H170.304L166.586 276.024L167.334 277.3L169.974 275.584V288.608ZM180.414 273.23C177.268 273.23 175.09 275.43 175.09 278.224C175.09 281.216 177.4 282.932 180.15 282.932C181.932 282.932 183.494 282.074 184.418 280.622V280.82C184.418 284.45 182.504 287.31 180.084 287.31C178.632 287.31 177.642 286.65 176.696 285.726L175.75 287.068C176.872 288.146 178.192 288.872 180.04 288.872C183.472 288.872 186.156 285.33 186.156 280.82C186.156 276.552 184.506 273.23 180.414 273.23ZM180.458 281.458C178.434 281.458 176.828 280.204 176.828 278.136C176.828 276.464 178.17 274.704 180.436 274.704C182.548 274.704 183.78 276.354 184.22 278.642C183.846 280.314 182.372 281.458 180.458 281.458ZM192.009 280.93C194.077 280.93 195.529 279.28 195.529 277.146C195.529 275.056 194.121 273.362 192.031 273.362C189.985 273.362 188.511 275.012 188.511 277.19C188.511 279.236 189.919 280.93 192.009 280.93ZM190.359 288.608H191.811L202.151 273.494H200.699L190.359 288.608ZM192.031 279.742C190.821 279.742 189.897 278.62 189.897 277.168C189.897 275.65 190.777 274.55 192.009 274.55C193.241 274.55 194.143 275.672 194.143 277.168C194.143 278.642 193.263 279.742 192.031 279.742ZM200.413 288.828C202.459 288.828 203.933 287.178 203.933 285.022C203.933 282.976 202.525 281.26 200.435 281.26C198.345 281.26 196.915 282.976 196.915 285.044C196.915 287.2 198.389 288.828 200.413 288.828ZM200.435 287.64C199.181 287.64 198.301 286.518 198.301 285.022C198.301 283.592 199.159 282.448 200.413 282.448C201.645 282.448 202.547 283.57 202.547 285.044C202.547 286.54 201.689 287.64 200.435 287.64Z" fill="white"/>
<path d="M359 0.5H608C613.247 0.5 617.5 4.75329 617.5 10V50C617.5 55.2467 613.247 59.5 608 59.5H359C353.753 59.5 349.5 55.2467 349.5 50V10C349.5 4.75329 353.753 0.5 359 0.5Z" stroke="url(#paint4_linear_1767_3186)"/>
<path d="M349 10C349 4.47715 353.477 0 359 0V60C353.477 60 349 55.5228 349 50V10Z" fill="#A9A4CC"/>
<path d="M440.6 36H442.004V23.634H440.6V36ZM449.228 26.478C447.914 26.478 446.708 27.198 446.168 28.188V26.694H444.818V36H446.168V30.078C446.168 28.782 447.482 27.684 449.048 27.684C450.416 27.684 451.37 28.746 451.37 30.258V36H452.72V30.078C452.72 27.972 451.28 26.478 449.228 26.478ZM456.118 25.002C456.604 25.002 457 24.588 457 24.102C457 23.634 456.604 23.22 456.118 23.22C455.614 23.22 455.218 23.634 455.218 24.102C455.218 24.588 455.614 25.002 456.118 25.002ZM455.434 36H456.784V26.694H455.434V36ZM463.581 34.632C463.383 34.848 463.023 35.01 462.609 35.01C462.069 35.01 461.601 34.524 461.601 33.84V27.9H463.887V26.694H461.601V24.138H460.251V26.694H458.793V27.9H460.251V33.84C460.251 35.226 461.187 36.216 462.519 36.216C463.149 36.216 463.761 36 464.247 35.622L463.581 34.632ZM466.823 25.002C467.309 25.002 467.705 24.588 467.705 24.102C467.705 23.634 467.309 23.22 466.823 23.22C466.319 23.22 465.923 23.634 465.923 24.102C465.923 24.588 466.319 25.002 466.823 25.002ZM466.139 36H467.489V26.694H466.139V36ZM473.98 26.478C473.08 26.478 471.964 26.712 470.632 27.378L471.172 28.476C472.018 28.044 472.954 27.63 473.89 27.63C475.906 27.63 476.41 29.07 476.41 30.33V30.672C475.456 30.366 474.394 30.15 473.386 30.15C471.388 30.15 469.732 31.392 469.732 33.246C469.732 35.082 471.172 36.216 473.134 36.216C474.358 36.216 475.744 35.64 476.41 34.542V36H477.76V30.33C477.76 28.08 476.518 26.478 473.98 26.478ZM473.368 35.028C472.054 35.028 471.046 34.344 471.046 33.192C471.046 32.076 472.216 31.284 473.602 31.284C474.61 31.284 475.564 31.428 476.41 31.662V33.084C476.05 34.398 474.592 35.028 473.368 35.028ZM480.518 36H481.868V23.418H480.518V36ZM489.871 36H491.275V31.554H494.893C497.449 31.554 499.447 29.916 499.447 27.594C499.447 25.272 497.449 23.634 494.893 23.634H489.871V36ZM491.275 30.222V24.966H494.641C496.657 24.966 498.025 25.938 498.025 27.594C498.025 29.25 496.657 30.222 494.641 30.222H491.275ZM505.721 36.216C508.331 36.216 510.527 33.984 510.527 31.338C510.527 28.692 508.331 26.478 505.721 26.478C503.111 26.478 500.897 28.692 500.897 31.338C500.897 33.984 503.111 36.216 505.721 36.216ZM505.721 35.01C503.867 35.01 502.319 33.336 502.319 31.338C502.319 29.358 503.867 27.684 505.721 27.684C507.557 27.684 509.105 29.358 509.105 31.338C509.105 33.336 507.557 35.01 505.721 35.01ZM517.077 36.216C519.687 36.216 521.883 33.984 521.883 31.338C521.883 28.692 519.687 26.478 517.077 26.478C514.467 26.478 512.253 28.692 512.253 31.338C512.253 33.984 514.467 36.216 517.077 36.216ZM517.077 35.01C515.223 35.01 513.675 33.336 513.675 31.338C513.675 29.358 515.223 27.684 517.077 27.684C518.913 27.684 520.461 29.358 520.461 31.338C520.461 33.336 518.913 35.01 517.077 35.01ZM524.112 36H525.462V23.418H524.112V36Z" fill="#F7F9FD"/>
<path d="M359 74.5H608C613.247 74.5 617.5 78.7533 617.5 84V124C617.5 129.247 613.247 133.5 608 133.5H359C353.753 133.5 349.5 129.247 349.5 124V84C349.5 78.7533 353.753 74.5 359 74.5Z" stroke="url(#paint5_linear_1767_3186)"/>
<path d="M349 84C349 78.4772 353.477 74 359 74V134C353.477 134 349 129.523 349 124V84Z" fill="#7068AA"/>
<path d="M429.773 110H431.249V104.96L436.217 97.634H434.525L430.511 103.628L426.533 97.634H424.787L429.773 104.96V110ZM438.573 99.002C439.059 99.002 439.455 98.588 439.455 98.102C439.455 97.634 439.059 97.22 438.573 97.22C438.069 97.22 437.673 97.634 437.673 98.102C437.673 98.588 438.069 99.002 438.573 99.002ZM437.889 110H439.239V100.694H437.889V110ZM446.144 109.01C444.308 109.01 443.03 107.678 442.832 105.86H450.446C450.446 102.602 448.844 100.478 446.036 100.478C443.534 100.478 441.446 102.548 441.446 105.32C441.446 108.182 443.678 110.216 446.162 110.216C447.458 110.216 449.096 109.658 449.906 108.776L449.078 107.894C448.502 108.524 447.242 109.01 446.144 109.01ZM446.09 101.684C447.944 101.684 448.934 102.98 449.114 104.654H442.85C443.102 102.854 444.434 101.684 446.09 101.684ZM452.655 110H454.005V97.418H452.655V110ZM464.005 97.418V102.44C463.303 101.216 462.115 100.478 460.621 100.478C458.173 100.478 456.337 102.494 456.337 105.338C456.337 108.2 458.173 110.216 460.621 110.216C462.115 110.216 463.303 109.478 464.005 108.254V110H465.355V97.418H464.005ZM460.873 109.01C459.055 109.01 457.759 107.48 457.759 105.338C457.759 103.196 459.055 101.684 460.873 101.684C462.709 101.684 464.005 103.196 464.005 105.338C464.005 107.48 462.709 109.01 460.873 109.01ZM482.36 98.966V97.634H473.486V110H474.908V104.366H481.622V103.034H474.908V98.966H482.36ZM488.181 100.478C487.281 100.478 486.165 100.712 484.833 101.378L485.373 102.476C486.219 102.044 487.155 101.63 488.091 101.63C490.107 101.63 490.611 103.07 490.611 104.33V104.672C489.657 104.366 488.595 104.15 487.587 104.15C485.589 104.15 483.933 105.392 483.933 107.246C483.933 109.082 485.373 110.216 487.335 110.216C488.559 110.216 489.945 109.64 490.611 108.542V110H491.961V104.33C491.961 102.08 490.719 100.478 488.181 100.478ZM487.569 109.028C486.255 109.028 485.247 108.344 485.247 107.192C485.247 106.076 486.417 105.284 487.803 105.284C488.811 105.284 489.765 105.428 490.611 105.662V107.084C490.251 108.398 488.793 109.028 487.569 109.028ZM496.196 102.512V100.694H494.846V110H496.196V104.798C496.196 102.98 497.69 101.684 499.796 101.684V100.478C498.086 100.478 496.754 101.27 496.196 102.512ZM511.725 100.478C510.321 100.478 509.097 101.252 508.719 102.458C508.215 101.252 507.117 100.478 505.713 100.478C504.489 100.478 503.481 101.09 503.013 102.062V100.694H501.663V110H503.013V104.078C503.013 102.674 504.057 101.684 505.533 101.684C506.793 101.684 507.675 102.746 507.675 104.258V110H509.025V104.078C509.025 102.674 510.069 101.684 511.545 101.684C512.805 101.684 513.687 102.746 513.687 104.258V110H515.037V104.078C515.037 101.972 513.669 100.478 511.725 100.478ZM518.43 99.002C518.916 99.002 519.312 98.588 519.312 98.102C519.312 97.634 518.916 97.22 518.43 97.22C517.926 97.22 517.53 97.634 517.53 98.102C517.53 98.588 517.926 99.002 518.43 99.002ZM517.746 110H519.096V100.694H517.746V110ZM526.235 100.478C524.921 100.478 523.715 101.198 523.175 102.188V100.694H521.825V110H523.175V104.078C523.175 102.782 524.489 101.684 526.055 101.684C527.423 101.684 528.377 102.746 528.377 104.258V110H529.727V104.078C529.727 101.972 528.287 100.478 526.235 100.478ZM539.696 100.694V102.296C538.976 101.162 537.788 100.478 536.312 100.478C533.81 100.478 532.028 102.296 532.028 104.888C532.028 107.48 533.81 109.316 536.312 109.316C537.788 109.316 538.976 108.632 539.696 107.498V109.01C539.696 110.828 538.436 111.89 536.294 111.89C535.142 111.89 534.026 111.476 533.306 110.792L532.712 111.854C533.558 112.574 534.962 113.096 536.474 113.096C539.156 113.096 541.046 111.404 541.046 109.01V100.694H539.696ZM536.564 108.11C534.746 108.11 533.45 106.778 533.45 104.888C533.45 103.016 534.746 101.684 536.564 101.684C538.4 101.684 539.696 103.016 539.696 104.888C539.696 106.778 538.4 108.11 536.564 108.11Z" fill="#F7F9FD"/>
<path d="M359 701.5H608C613.247 701.5 617.5 705.753 617.5 711V751C617.5 756.247 613.247 760.5 608 760.5H359C353.753 760.5 349.5 756.247 349.5 751V711C349.5 705.753 353.753 701.5 359 701.5Z" stroke="url(#paint6_linear_1767_3186)"/>
<path d="M349 711C349 705.477 353.477 701 359 701V761C353.477 761 349 756.523 349 751V711Z" fill="#B8E3DB"/>
<path d="M423.896 737H428.072C431.996 737 434.768 734.426 434.768 730.808C434.768 727.19 431.996 724.634 428.072 724.634H423.896V737ZM425.3 735.722V725.912H428.072C431.168 725.912 433.346 727.946 433.346 730.808C433.346 733.688 431.168 735.722 428.072 735.722H425.3ZM446.45 737H447.98L442.526 724.634H440.996L435.542 737H437.072L438.314 734.192H445.208L446.45 737ZM438.89 732.86L441.77 726.362L444.632 732.86H438.89ZM455.826 737.216C459.264 737.216 462.144 734.282 462.144 730.808C462.144 727.334 459.264 724.418 455.826 724.418C452.406 724.418 449.49 727.334 449.49 730.808C449.49 734.282 452.406 737.216 455.826 737.216ZM455.826 735.92C453.162 735.92 450.912 733.58 450.912 730.808C450.912 728.054 453.162 725.714 455.826 725.714C458.49 725.714 460.722 728.054 460.722 730.808C460.722 733.58 458.49 735.92 455.826 735.92ZM473.262 737H474.666V725.966H478.824V724.634H469.104V725.966H473.262V737ZM482.476 729.512V727.694H481.126V737H482.476V731.798C482.476 729.98 483.97 728.684 486.076 728.684V727.478C484.366 727.478 483.034 728.27 482.476 729.512ZM492.137 736.01C490.301 736.01 489.023 734.678 488.825 732.86H496.439C496.439 729.602 494.837 727.478 492.029 727.478C489.527 727.478 487.439 729.548 487.439 732.32C487.439 735.182 489.671 737.216 492.155 737.216C493.451 737.216 495.089 736.658 495.899 735.776L495.071 734.894C494.495 735.524 493.235 736.01 492.137 736.01ZM492.083 728.684C493.937 728.684 494.927 729.98 495.107 731.654H488.843C489.095 729.854 490.427 728.684 492.083 728.684ZM502.428 727.478C501.528 727.478 500.412 727.712 499.08 728.378L499.62 729.476C500.466 729.044 501.402 728.63 502.338 728.63C504.354 728.63 504.858 730.07 504.858 731.33V731.672C503.904 731.366 502.842 731.15 501.834 731.15C499.836 731.15 498.18 732.392 498.18 734.246C498.18 736.082 499.62 737.216 501.582 737.216C502.806 737.216 504.192 736.64 504.858 735.542V737H506.208V731.33C506.208 729.08 504.966 727.478 502.428 727.478ZM501.816 736.028C500.502 736.028 499.494 735.344 499.494 734.192C499.494 733.076 500.664 732.284 502.05 732.284C503.058 732.284 504.012 732.428 504.858 732.662V734.084C504.498 735.398 503.04 736.028 501.816 736.028ZM512.262 737.216C514.188 737.216 515.663 736.118 515.663 734.408C515.663 732.644 514.115 732.14 512.621 731.672C510.893 731.114 510.209 730.862 510.209 730.052C510.209 729.152 511.073 728.684 512.117 728.684C512.945 728.684 513.863 728.972 514.799 729.566L515.447 728.522C514.457 727.874 513.269 727.478 512.117 727.478C510.263 727.478 508.859 728.522 508.859 730.214C508.859 731.546 509.723 732.212 511.973 732.86C513.233 733.22 514.314 733.544 514.314 734.552C514.314 735.434 513.486 736.01 512.262 736.01C511.236 736.01 510.173 735.614 509.111 734.84L508.409 735.83C509.525 736.73 510.966 737.216 512.262 737.216ZM524.448 727.694V733.616C524.448 734.912 523.134 736.01 521.568 736.01C520.2 736.01 519.246 734.948 519.246 733.436V727.694H517.896V733.616C517.896 735.722 519.336 737.216 521.388 737.216C522.702 737.216 523.908 736.496 524.448 735.506V737H525.798V727.694H524.448ZM530.025 729.512V727.694H528.676V737H530.025V731.798C530.025 729.98 531.519 728.684 533.625 728.684V727.478C531.915 727.478 530.583 728.27 530.025 729.512ZM536.879 740.24C538.157 740.222 539.056 739.628 539.704 738.044L543.952 727.694H542.494L539.416 735.434L536.158 727.694H534.664L538.715 737.036L538.174 738.188C537.814 738.818 537.418 739.016 536.824 739.016C536.428 739.016 536.05 738.944 535.726 738.782L535.402 739.934C535.834 740.132 536.339 740.24 536.879 740.24Z" fill="#F7F9FD"/>
<path d="M360 775.5H609C614.247 775.5 618.5 779.753 618.5 785V825C618.5 830.247 614.247 834.5 609 834.5H360C354.753 834.5 350.5 830.247 350.5 825V785C350.5 779.753 354.753 775.5 360 775.5Z" stroke="url(#paint7_linear_1767_3186)"/>
<path d="M350 785C350 779.477 354.477 775 360 775V835C354.477 835 350 830.523 350 825V785Z" fill="#88D1C3"/>
<path d="M419.525 811.216C421.235 811.216 422.819 810.478 423.971 809.326L423.017 808.354C422.117 809.308 420.875 809.92 419.525 809.92C416.861 809.92 414.611 807.58 414.611 804.808C414.611 802.054 416.861 799.714 419.525 799.714C420.875 799.714 422.117 800.326 423.017 801.28L423.971 800.308C422.819 799.138 421.235 798.418 419.525 798.418C416.105 798.418 413.189 801.334 413.189 804.808C413.189 808.282 416.105 811.216 419.525 811.216ZM430.175 811.216C432.785 811.216 434.981 808.984 434.981 806.338C434.981 803.692 432.785 801.478 430.175 801.478C427.565 801.478 425.351 803.692 425.351 806.338C425.351 808.984 427.565 811.216 430.175 811.216ZM430.175 810.01C428.321 810.01 426.773 808.336 426.773 806.338C426.773 804.358 428.321 802.684 430.175 802.684C432.011 802.684 433.559 804.358 433.559 806.338C433.559 808.336 432.011 810.01 430.175 810.01ZM443.763 801.694V807.616C443.763 808.912 442.449 810.01 440.883 810.01C439.515 810.01 438.561 808.948 438.561 807.436V801.694H437.211V807.616C437.211 809.722 438.651 811.216 440.703 811.216C442.017 811.216 443.223 810.496 443.763 809.506V811H445.113V801.694H443.763ZM452.291 801.478C450.977 801.478 449.771 802.198 449.231 803.188V801.694H447.881V811H449.231V805.078C449.231 803.782 450.545 802.684 452.111 802.684C453.479 802.684 454.433 803.746 454.433 805.258V811H455.783V805.078C455.783 802.972 454.343 801.478 452.291 801.478ZM462.835 811.216C464.131 811.216 465.319 810.676 466.201 809.794L465.265 808.876C464.635 809.578 463.771 810.01 462.835 810.01C460.981 810.01 459.433 808.336 459.433 806.338C459.433 804.358 460.981 802.684 462.835 802.684C463.753 802.684 464.599 803.098 465.211 803.764L466.147 802.846C465.265 802 464.095 801.478 462.835 801.478C460.225 801.478 458.011 803.692 458.011 806.338C458.011 808.984 460.225 811.216 462.835 811.216ZM468.937 800.002C469.423 800.002 469.819 799.588 469.819 799.102C469.819 798.634 469.423 798.22 468.937 798.22C468.433 798.22 468.037 798.634 468.037 799.102C468.037 799.588 468.433 800.002 468.937 800.002ZM468.253 811H469.603V801.694H468.253V811ZM472.314 811H473.664V798.418H472.314V811ZM485.213 811H486.617V799.966H490.775V798.634H481.055V799.966H485.213V811ZM494.427 803.512V801.694H493.077V811H494.427V805.798C494.427 803.98 495.921 802.684 498.027 802.684V801.478C496.317 801.478 494.985 802.27 494.427 803.512ZM504.088 810.01C502.252 810.01 500.974 808.678 500.776 806.86H508.39C508.39 803.602 506.788 801.478 503.98 801.478C501.478 801.478 499.39 803.548 499.39 806.32C499.39 809.182 501.622 811.216 504.106 811.216C505.402 811.216 507.04 810.658 507.85 809.776L507.022 808.894C506.446 809.524 505.186 810.01 504.088 810.01ZM504.034 802.684C505.888 802.684 506.878 803.98 507.058 805.654H500.794C501.046 803.854 502.378 802.684 504.034 802.684ZM514.379 801.478C513.479 801.478 512.363 801.712 511.031 802.378L511.571 803.476C512.417 803.044 513.353 802.63 514.289 802.63C516.305 802.63 516.809 804.07 516.809 805.33V805.672C515.855 805.366 514.793 805.15 513.785 805.15C511.787 805.15 510.131 806.392 510.131 808.246C510.131 810.082 511.571 811.216 513.533 811.216C514.757 811.216 516.143 810.64 516.809 809.542V811H518.159V805.33C518.159 803.08 516.917 801.478 514.379 801.478ZM513.767 810.028C512.453 810.028 511.445 809.344 511.445 808.192C511.445 807.076 512.615 806.284 514.001 806.284C515.009 806.284 515.963 806.428 516.809 806.662V808.084C516.449 809.398 514.991 810.028 513.767 810.028ZM524.212 811.216C526.138 811.216 527.614 810.118 527.614 808.408C527.614 806.644 526.066 806.14 524.572 805.672C522.844 805.114 522.16 804.862 522.16 804.052C522.16 803.152 523.024 802.684 524.068 802.684C524.896 802.684 525.814 802.972 526.75 803.566L527.398 802.522C526.408 801.874 525.22 801.478 524.068 801.478C522.214 801.478 520.81 802.522 520.81 804.214C520.81 805.546 521.674 806.212 523.924 806.86C525.184 807.22 526.264 807.544 526.264 808.552C526.264 809.434 525.436 810.01 524.212 810.01C523.186 810.01 522.124 809.614 521.062 808.84L520.36 809.83C521.476 810.73 522.916 811.216 524.212 811.216ZM536.399 801.694V807.616C536.399 808.912 535.085 810.01 533.519 810.01C532.151 810.01 531.197 808.948 531.197 807.436V801.694H529.847V807.616C529.847 809.722 531.287 811.216 533.339 811.216C534.653 811.216 535.859 810.496 536.399 809.506V811H537.749V801.694H536.399ZM541.976 803.512V801.694H540.626V811H541.976V805.798C541.976 803.98 543.47 802.684 545.576 802.684V801.478C543.866 801.478 542.534 802.27 541.976 803.512ZM548.829 814.24C550.107 814.222 551.007 813.628 551.655 812.044L555.903 801.694H554.445L551.367 809.434L548.109 801.694H546.615L550.665 811.036L550.125 812.188C549.765 812.818 549.369 813.016 548.775 813.016C548.379 813.016 548.001 812.944 547.677 812.782L547.353 813.934C547.785 814.132 548.289 814.24 548.829 814.24Z" fill="#F7F9FD"/>
<path d="M23 0.5H272C277.247 0.5 281.5 4.75329 281.5 10V50C281.5 55.2467 277.247 59.5 272 59.5H23C17.7533 59.5 13.5 55.2467 13.5 50V10C13.5 4.75329 17.7533 0.5 23 0.5Z" stroke="url(#paint8_linear_1767_3186)"/>
<path d="M14 10C14 4.47715 18.4772 0 24 0V60C18.4772 60 14 55.5228 14 50V10Z" fill="#FFB3B3"/>
<path d="M120.779 36H122.309L116.855 23.634H115.325L109.871 36H111.401L112.643 33.192H119.537L120.779 36ZM113.219 31.86L116.099 25.362L118.961 31.86H113.219ZM131.523 23.418V28.44C130.821 27.216 129.633 26.478 128.139 26.478C125.691 26.478 123.855 28.494 123.855 31.338C123.855 34.2 125.691 36.216 128.139 36.216C129.633 36.216 130.821 35.478 131.523 34.254V36H132.873V23.418H131.523ZM128.391 35.01C126.573 35.01 125.277 33.48 125.277 31.338C125.277 29.196 126.573 27.684 128.391 27.684C130.227 27.684 131.523 29.196 131.523 31.338C131.523 33.48 130.227 35.01 128.391 35.01ZM138.807 36H140.103L144.009 26.694H142.497L139.455 34.416L136.359 26.694H134.847L138.807 36ZM146.538 25.002C147.024 25.002 147.42 24.588 147.42 24.102C147.42 23.634 147.024 23.22 146.538 23.22C146.034 23.22 145.638 23.634 145.638 24.102C145.638 24.588 146.034 25.002 146.538 25.002ZM145.854 36H147.204V26.694H145.854V36ZM153.209 36.216C155.135 36.216 156.611 35.118 156.611 33.408C156.611 31.644 155.063 31.14 153.569 30.672C151.841 30.114 151.157 29.862 151.157 29.052C151.157 28.152 152.021 27.684 153.065 27.684C153.893 27.684 154.811 27.972 155.747 28.566L156.395 27.522C155.405 26.874 154.217 26.478 153.065 26.478C151.211 26.478 149.807 27.522 149.807 29.214C149.807 30.546 150.671 31.212 152.921 31.86C154.181 32.22 155.261 32.544 155.261 33.552C155.261 34.434 154.433 35.01 153.209 35.01C152.183 35.01 151.121 34.614 150.059 33.84L149.357 34.83C150.473 35.73 151.913 36.216 153.209 36.216ZM163.165 36.216C165.775 36.216 167.971 33.984 167.971 31.338C167.971 28.692 165.775 26.478 163.165 26.478C160.555 26.478 158.341 28.692 158.341 31.338C158.341 33.984 160.555 36.216 163.165 36.216ZM163.165 35.01C161.311 35.01 159.763 33.336 159.763 31.338C159.763 29.358 161.311 27.684 163.165 27.684C165.001 27.684 166.549 29.358 166.549 31.338C166.549 33.336 165.001 35.01 163.165 35.01ZM171.676 28.512V26.694H170.326V36H171.676V30.798C171.676 28.98 173.17 27.684 175.276 27.684V26.478C173.566 26.478 172.234 27.27 171.676 28.512ZM180.437 36.216C182.363 36.216 183.839 35.118 183.839 33.408C183.839 31.644 182.291 31.14 180.797 30.672C179.069 30.114 178.385 29.862 178.385 29.052C178.385 28.152 179.249 27.684 180.293 27.684C181.121 27.684 182.039 27.972 182.975 28.566L183.623 27.522C182.633 26.874 181.445 26.478 180.293 26.478C178.439 26.478 177.035 27.522 177.035 29.214C177.035 30.546 177.899 31.212 180.149 31.86C181.409 32.22 182.489 32.544 182.489 33.552C182.489 34.434 181.661 35.01 180.437 35.01C179.411 35.01 178.349 34.614 177.287 33.84L176.585 34.83C177.701 35.73 179.141 36.216 180.437 36.216Z" fill="#F7F9FD"/>
<path d="M23 74.5H272C277.247 74.5 281.5 78.7533 281.5 84V124C281.5 129.247 277.247 133.5 272 133.5H23C17.7533 133.5 13.5 129.247 13.5 124V84C13.5 78.7533 17.7533 74.5 23 74.5Z" stroke="url(#paint9_linear_1767_3186)"/>
<path d="M14 84C14 78.4772 18.4772 74 24 74V134C18.4772 134 14 129.523 14 124V84Z" fill="#FF8080"/>
<path d="M81.4717 98.966V97.634H72.5977V110H74.0197V104.366H80.7337V103.034H74.0197V98.966H81.4717ZM87.8324 110.216C90.4424 110.216 92.6384 107.984 92.6384 105.338C92.6384 102.692 90.4424 100.478 87.8324 100.478C85.2224 100.478 83.0084 102.692 83.0084 105.338C83.0084 107.984 85.2224 110.216 87.8324 110.216ZM87.8324 109.01C85.9784 109.01 84.4304 107.336 84.4304 105.338C84.4304 103.358 85.9784 101.684 87.8324 101.684C89.6684 101.684 91.2164 103.358 91.2164 105.338C91.2164 107.336 89.6684 109.01 87.8324 109.01ZM101.42 100.694V106.616C101.42 107.912 100.106 109.01 98.5399 109.01C97.1719 109.01 96.2179 107.948 96.2179 106.436V100.694H94.8679V106.616C94.8679 108.722 96.3079 110.216 98.3599 110.216C99.6739 110.216 100.88 109.496 101.42 108.506V110H102.77V100.694H101.42ZM109.948 100.478C108.634 100.478 107.428 101.198 106.888 102.188V100.694H105.538V110H106.888V104.078C106.888 102.782 108.202 101.684 109.768 101.684C111.136 101.684 112.09 102.746 112.09 104.258V110H113.44V104.078C113.44 101.972 112 100.478 109.948 100.478ZM123.445 97.418V102.44C122.743 101.216 121.555 100.478 120.061 100.478C117.613 100.478 115.777 102.494 115.777 105.338C115.777 108.2 117.613 110.216 120.061 110.216C121.555 110.216 122.743 109.478 123.445 108.254V110H124.795V97.418H123.445ZM120.313 109.01C118.495 109.01 117.199 107.48 117.199 105.338C117.199 103.196 118.495 101.684 120.313 101.684C122.149 101.684 123.445 103.196 123.445 105.338C123.445 107.48 122.149 109.01 120.313 109.01ZM131.845 109.01C130.009 109.01 128.731 107.678 128.533 105.86H136.147C136.147 102.602 134.545 100.478 131.737 100.478C129.235 100.478 127.147 102.548 127.147 105.32C127.147 108.182 129.379 110.216 131.863 110.216C133.159 110.216 134.797 109.658 135.607 108.776L134.779 107.894C134.203 108.524 132.943 109.01 131.845 109.01ZM131.791 101.684C133.645 101.684 134.635 102.98 134.815 104.654H128.551C128.803 102.854 130.135 101.684 131.791 101.684ZM139.832 102.512V100.694H138.482V110H139.832V104.798C139.832 102.98 141.326 101.684 143.432 101.684V100.478C141.722 100.478 140.39 101.27 139.832 102.512ZM148.594 110.216C150.52 110.216 151.996 109.118 151.996 107.408C151.996 105.644 150.448 105.14 148.954 104.672C147.226 104.114 146.542 103.862 146.542 103.052C146.542 102.152 147.406 101.684 148.45 101.684C149.278 101.684 150.196 101.972 151.132 102.566L151.78 101.522C150.79 100.874 149.602 100.478 148.45 100.478C146.596 100.478 145.192 101.522 145.192 103.214C145.192 104.546 146.056 105.212 148.306 105.86C149.566 106.22 150.646 106.544 150.646 107.552C150.646 108.434 149.818 109.01 148.594 109.01C147.568 109.01 146.506 108.614 145.444 107.84L144.742 108.83C145.858 109.73 147.298 110.216 148.594 110.216ZM169.386 109.532L167.334 107.444C167.964 106.544 168.522 105.464 169.044 104.312L167.874 103.79C167.496 104.816 167.01 105.752 166.47 106.562C165.354 105.392 164.49 104.456 163.644 103.466C165.408 102.764 166.668 101.99 166.668 100.352C166.668 98.804 165.408 97.49 163.752 97.49C161.898 97.49 160.602 98.768 160.602 100.388C160.602 101.306 160.944 102.134 161.646 103.106C159.738 103.952 158.82 105.122 158.82 106.724C158.82 108.884 160.512 110.216 162.708 110.216C164.238 110.216 165.462 109.55 166.488 108.488L168.108 110.126L169.386 109.532ZM163.752 98.696C164.67 98.696 165.318 99.434 165.318 100.388C165.318 101.414 164.58 101.954 162.924 102.602C162.258 101.756 161.952 101.036 161.952 100.388C161.952 99.326 162.726 98.696 163.752 98.696ZM162.762 109.01C161.358 109.01 160.17 108.146 160.17 106.688C160.17 105.536 160.998 104.636 162.348 104.006C163.212 105.05 164.148 106.076 165.624 107.606C164.796 108.488 163.842 109.01 162.762 109.01ZM180.329 110H181.733V98.966H185.891V97.634H176.171V98.966H180.329V110ZM192.261 109.01C190.425 109.01 189.147 107.678 188.949 105.86H196.563C196.563 102.602 194.961 100.478 192.153 100.478C189.651 100.478 187.563 102.548 187.563 105.32C187.563 108.182 189.795 110.216 192.279 110.216C193.575 110.216 195.213 109.658 196.023 108.776L195.195 107.894C194.619 108.524 193.359 109.01 192.261 109.01ZM192.207 101.684C194.061 101.684 195.051 102.98 195.231 104.654H188.967C189.219 102.854 190.551 101.684 192.207 101.684ZM202.552 100.478C201.652 100.478 200.536 100.712 199.204 101.378L199.744 102.476C200.59 102.044 201.526 101.63 202.462 101.63C204.478 101.63 204.982 103.07 204.982 104.33V104.672C204.028 104.366 202.966 104.15 201.958 104.15C199.96 104.15 198.304 105.392 198.304 107.246C198.304 109.082 199.744 110.216 201.706 110.216C202.93 110.216 204.316 109.64 204.982 108.542V110H206.332V104.33C206.332 102.08 205.09 100.478 202.552 100.478ZM201.94 109.028C200.626 109.028 199.618 108.344 199.618 107.192C199.618 106.076 200.788 105.284 202.174 105.284C203.182 105.284 204.136 105.428 204.982 105.662V107.084C204.622 108.398 203.164 109.028 201.94 109.028ZM219.153 100.478C217.749 100.478 216.525 101.252 216.147 102.458C215.643 101.252 214.545 100.478 213.141 100.478C211.917 100.478 210.909 101.09 210.441 102.062V100.694H209.091V110H210.441V104.078C210.441 102.674 211.485 101.684 212.961 101.684C214.221 101.684 215.103 102.746 215.103 104.258V110H216.453V104.078C216.453 102.674 217.497 101.684 218.973 101.684C220.233 101.684 221.115 102.746 221.115 104.258V110H222.465V104.078C222.465 101.972 221.097 100.478 219.153 100.478Z" fill="#F7F9FD"/>
<path d="M107 520.5L1.5 602.5L1.50001 789L15 805" stroke="#7996C9" stroke-width="2"/>
<path d="M24 775.5H273C278.247 775.5 282.5 779.753 282.5 785V825C282.5 830.247 278.247 834.5 273 834.5H24C18.7533 834.5 14.5 830.247 14.5 825V785C14.5 779.753 18.7533 775.5 24 775.5Z" stroke="url(#paint10_linear_1767_3186)"/>
<path d="M14 785C14 779.477 18.4772 775 24 775V835C18.4772 835 14 830.523 14 825V785Z" fill="#7996C9"/>
<path d="M63.5176 811H64.9216V806.554H68.5396C71.0956 806.554 73.0936 804.916 73.0936 802.594C73.0936 800.272 71.0956 798.634 68.5396 798.634H63.5176V811ZM64.9216 805.222V799.966H68.2876C70.3036 799.966 71.6716 800.938 71.6716 802.594C71.6716 804.25 70.3036 805.222 68.2876 805.222H64.9216ZM76.5236 803.512V801.694H75.1736V811H76.5236V805.798C76.5236 803.98 78.0176 802.684 80.1236 802.684V801.478C78.4136 801.478 77.0816 802.27 76.5236 803.512ZM82.657 800.002C83.143 800.002 83.539 799.588 83.539 799.102C83.539 798.634 83.143 798.22 82.657 798.22C82.153 798.22 81.757 798.634 81.757 799.102C81.757 799.588 82.153 800.002 82.657 800.002ZM81.973 811H83.323V801.694H81.973V811ZM89.112 811H90.408L94.314 801.694H92.802L89.76 809.416L86.664 801.694H85.152L89.112 811ZM99.2358 801.478C98.3358 801.478 97.2198 801.712 95.8878 802.378L96.4278 803.476C97.2738 803.044 98.2098 802.63 99.1458 802.63C101.162 802.63 101.666 804.07 101.666 805.33V805.672C100.712 805.366 99.6498 805.15 98.6418 805.15C96.6438 805.15 94.9878 806.392 94.9878 808.246C94.9878 810.082 96.4278 811.216 98.3898 811.216C99.6138 811.216 101 810.64 101.666 809.542V811H103.016V805.33C103.016 803.08 101.774 801.478 99.2358 801.478ZM98.6238 810.028C97.3098 810.028 96.3018 809.344 96.3018 808.192C96.3018 807.076 97.4718 806.284 98.8578 806.284C99.8658 806.284 100.82 806.428 101.666 806.662V808.084C101.306 809.398 99.8478 810.028 98.6238 810.028ZM109.86 809.632C109.662 809.848 109.302 810.01 108.888 810.01C108.348 810.01 107.88 809.524 107.88 808.84V802.9H110.166V801.694H107.88V799.138H106.53V801.694H105.072V802.9H106.53V808.84C106.53 810.226 107.466 811.216 108.798 811.216C109.428 811.216 110.04 811 110.526 810.622L109.86 809.632ZM116.631 810.01C114.795 810.01 113.517 808.678 113.319 806.86H120.933C120.933 803.602 119.331 801.478 116.523 801.478C114.021 801.478 111.933 803.548 111.933 806.32C111.933 809.182 114.165 811.216 116.649 811.216C117.945 811.216 119.583 810.658 120.393 809.776L119.565 808.894C118.989 809.524 117.729 810.01 116.631 810.01ZM116.577 802.684C118.431 802.684 119.421 803.98 119.601 805.654H113.337C113.589 803.854 114.921 802.684 116.577 802.684ZM134.266 811.216C135.976 811.216 137.56 810.478 138.712 809.326L137.758 808.354C136.858 809.308 135.616 809.92 134.266 809.92C131.602 809.92 129.352 807.58 129.352 804.808C129.352 802.054 131.602 799.714 134.266 799.714C135.616 799.714 136.858 800.326 137.758 801.28L138.712 800.308C137.56 799.138 135.976 798.418 134.266 798.418C130.846 798.418 127.93 801.334 127.93 804.808C127.93 808.282 130.846 811.216 134.266 811.216ZM144.917 811.216C147.527 811.216 149.723 808.984 149.723 806.338C149.723 803.692 147.527 801.478 144.917 801.478C142.307 801.478 140.093 803.692 140.093 806.338C140.093 808.984 142.307 811.216 144.917 811.216ZM144.917 810.01C143.063 810.01 141.515 808.336 141.515 806.338C141.515 804.358 143.063 802.684 144.917 802.684C146.753 802.684 148.301 804.358 148.301 806.338C148.301 808.336 146.753 810.01 144.917 810.01ZM156.38 801.478C155.066 801.478 153.86 802.198 153.32 803.188V801.694H151.97V811H153.32V805.078C153.32 803.782 154.634 802.684 156.2 802.684C157.568 802.684 158.522 803.746 158.522 805.258V811H159.872V805.078C159.872 802.972 158.432 801.478 156.38 801.478ZM166.69 809.632C166.492 809.848 166.132 810.01 165.718 810.01C165.178 810.01 164.71 809.524 164.71 808.84V802.9H166.996V801.694H164.71V799.138H163.36V801.694H161.902V802.9H163.36V808.84C163.36 810.226 164.296 811.216 165.628 811.216C166.258 811.216 166.87 811 167.356 810.622L166.69 809.632ZM170.743 803.512V801.694H169.393V811H170.743V805.798C170.743 803.98 172.237 802.684 174.343 802.684V801.478C172.633 801.478 171.301 802.27 170.743 803.512ZM176.876 800.002C177.362 800.002 177.758 799.588 177.758 799.102C177.758 798.634 177.362 798.22 176.876 798.22C176.372 798.22 175.976 798.634 175.976 799.102C175.976 799.588 176.372 800.002 176.876 800.002ZM176.192 811H177.542V801.694H176.192V811ZM185.113 801.478C183.619 801.478 182.431 802.216 181.729 803.44V798.418H180.379V811H181.729V809.254C182.431 810.478 183.619 811.216 185.113 811.216C187.561 811.216 189.397 809.2 189.397 806.338C189.397 803.494 187.561 801.478 185.113 801.478ZM184.861 810.01C183.025 810.01 181.729 808.48 181.729 806.338C181.729 804.196 183.025 802.684 184.861 802.684C186.679 802.684 187.975 804.196 187.975 806.338C187.975 808.48 186.679 810.01 184.861 810.01ZM198.283 801.694V807.616C198.283 808.912 196.969 810.01 195.403 810.01C194.035 810.01 193.081 808.948 193.081 807.436V801.694H191.731V807.616C191.731 809.722 193.171 811.216 195.223 811.216C196.537 811.216 197.743 810.496 198.283 809.506V811H199.633V801.694H198.283ZM206.47 809.632C206.272 809.848 205.912 810.01 205.498 810.01C204.958 810.01 204.49 809.524 204.49 808.84V802.9H206.776V801.694H204.49V799.138H203.14V801.694H201.682V802.9H203.14V808.84C203.14 810.226 204.076 811.216 205.408 811.216C206.038 811.216 206.65 811 207.136 810.622L206.47 809.632ZM213.366 811.216C215.976 811.216 218.172 808.984 218.172 806.338C218.172 803.692 215.976 801.478 213.366 801.478C210.756 801.478 208.542 803.692 208.542 806.338C208.542 808.984 210.756 811.216 213.366 811.216ZM213.366 810.01C211.512 810.01 209.964 808.336 209.964 806.338C209.964 804.358 211.512 802.684 213.366 802.684C215.202 802.684 216.75 804.358 216.75 806.338C216.75 808.336 215.202 810.01 213.366 810.01ZM221.877 803.512V801.694H220.527V811H221.877V805.798C221.877 803.98 223.371 802.684 225.477 802.684V801.478C223.767 801.478 222.435 802.27 221.877 803.512ZM230.639 811.216C232.565 811.216 234.041 810.118 234.041 808.408C234.041 806.644 232.493 806.14 230.999 805.672C229.271 805.114 228.587 804.862 228.587 804.052C228.587 803.152 229.451 802.684 230.495 802.684C231.323 802.684 232.241 802.972 233.177 803.566L233.825 802.522C232.835 801.874 231.647 801.478 230.495 801.478C228.641 801.478 227.237 802.522 227.237 804.214C227.237 805.546 228.101 806.212 230.351 806.86C231.611 807.22 232.691 807.544 232.691 808.552C232.691 809.434 231.863 810.01 230.639 810.01C229.613 810.01 228.551 809.614 227.489 808.84L226.787 809.83C227.903 810.73 229.343 811.216 230.639 811.216Z" fill="#F7F9FD"/>
<path d="M23 701.5H272C277.247 701.5 281.5 705.753 281.5 711V751C281.5 756.247 277.247 760.5 272 760.5H23C17.7533 760.5 13.5 756.247 13.5 751V711C13.5 705.753 17.7533 701.5 23 701.5Z" stroke="url(#paint11_linear_1767_3186)"/>
<path d="M14 711C14 705.477 18.4772 701 24 701V761C18.4772 761 14 756.523 14 751V711Z" fill="#A3B3D0"/>
<path d="M62.8086 737H64.2126V732.554H67.8306C70.3866 732.554 72.3846 730.916 72.3846 728.594C72.3846 726.272 70.3866 724.634 67.8306 724.634H62.8086V737ZM64.2126 731.222V725.966H67.5786C69.5946 725.966 70.9626 726.938 70.9626 728.594C70.9626 730.25 69.5946 731.222 67.5786 731.222H64.2126ZM80.8906 727.694V733.616C80.8906 734.912 79.5766 736.01 78.0106 736.01C76.6426 736.01 75.6886 734.948 75.6886 733.436V727.694H74.3386V733.616C74.3386 735.722 75.7786 737.216 77.8306 737.216C79.1446 737.216 80.3506 736.496 80.8906 735.506V737H82.2406V727.694H80.8906ZM89.851 727.478C88.357 727.478 87.169 728.216 86.467 729.44V724.418H85.117V737H86.467V735.254C87.169 736.478 88.357 737.216 89.851 737.216C92.299 737.216 94.135 735.2 94.135 732.338C94.135 729.494 92.299 727.478 89.851 727.478ZM89.599 736.01C87.763 736.01 86.467 734.48 86.467 732.338C86.467 730.196 87.763 728.684 89.599 728.684C91.417 728.684 92.713 730.196 92.713 732.338C92.713 734.48 91.417 736.01 89.599 736.01ZM96.4695 737H97.8195V724.418H96.4695V737ZM101.214 726.002C101.7 726.002 102.096 725.588 102.096 725.102C102.096 724.634 101.7 724.22 101.214 724.22C100.71 724.22 100.314 724.634 100.314 725.102C100.314 725.588 100.71 726.002 101.214 726.002ZM100.53 737H101.88V727.694H100.53V737ZM108.911 737.216C110.207 737.216 111.395 736.676 112.277 735.794L111.341 734.876C110.711 735.578 109.847 736.01 108.911 736.01C107.057 736.01 105.509 734.336 105.509 732.338C105.509 730.358 107.057 728.684 108.911 728.684C109.829 728.684 110.675 729.098 111.287 729.764L112.223 728.846C111.341 728 110.171 727.478 108.911 727.478C106.301 727.478 104.087 729.692 104.087 732.338C104.087 734.984 106.301 737.216 108.911 737.216ZM120.827 735.668V724.634H119.423V737H127.577V735.668H120.827ZM130.218 726.002C130.704 726.002 131.1 725.588 131.1 725.102C131.1 724.634 130.704 724.22 130.218 724.22C129.714 724.22 129.318 724.634 129.318 725.102C129.318 725.588 129.714 726.002 130.218 726.002ZM129.534 737H130.884V727.694H129.534V737ZM140.867 727.694V729.44C140.165 728.216 138.977 727.478 137.483 727.478C135.035 727.478 133.199 729.494 133.199 732.338C133.199 735.2 135.035 737.216 137.483 737.216C138.977 737.216 140.165 736.478 140.867 735.254V740.096H142.217V727.694H140.867ZM137.735 736.01C135.917 736.01 134.621 734.48 134.621 732.338C134.621 730.196 135.917 728.684 137.735 728.684C139.571 728.684 140.867 730.196 140.867 732.338C140.867 734.48 139.571 736.01 137.735 736.01ZM151.625 727.694V733.616C151.625 734.912 150.311 736.01 148.745 736.01C147.377 736.01 146.423 734.948 146.423 733.436V727.694H145.073V733.616C145.073 735.722 146.513 737.216 148.565 737.216C149.879 737.216 151.085 736.496 151.625 735.506V737H152.975V727.694H151.625ZM156.391 726.002C156.877 726.002 157.273 725.588 157.273 725.102C157.273 724.634 156.877 724.22 156.391 724.22C155.887 724.22 155.491 724.634 155.491 725.102C155.491 725.588 155.887 726.002 156.391 726.002ZM155.707 737H157.057V727.694H155.707V737ZM167.04 724.418V729.44C166.338 728.216 165.15 727.478 163.656 727.478C161.208 727.478 159.372 729.494 159.372 732.338C159.372 735.2 161.208 737.216 163.656 737.216C165.15 737.216 166.338 736.478 167.04 735.254V737H168.39V724.418H167.04ZM163.908 736.01C162.09 736.01 160.794 734.48 160.794 732.338C160.794 730.196 162.09 728.684 163.908 728.684C165.744 728.684 167.04 730.196 167.04 732.338C167.04 734.48 165.744 736.01 163.908 736.01ZM171.913 726.002C172.399 726.002 172.795 725.588 172.795 725.102C172.795 724.634 172.399 724.22 171.913 724.22C171.409 724.22 171.013 724.634 171.013 725.102C171.013 725.588 171.409 726.002 171.913 726.002ZM171.229 737H172.579V727.694H171.229V737ZM179.376 735.632C179.178 735.848 178.818 736.01 178.404 736.01C177.864 736.01 177.396 735.524 177.396 734.84V728.9H179.682V727.694H177.396V725.138H176.046V727.694H174.588V728.9H176.046V734.84C176.046 736.226 176.982 737.216 178.314 737.216C178.944 737.216 179.556 737 180.042 736.622L179.376 735.632ZM183.338 740.24C184.616 740.222 185.516 739.628 186.164 738.044L190.412 727.694H188.954L185.876 735.434L182.618 727.694H181.124L185.174 737.036L184.634 738.188C184.274 738.818 183.878 739.016 183.284 739.016C182.888 739.016 182.51 738.944 182.186 738.782L181.862 739.934C182.294 740.132 182.798 740.24 183.338 740.24ZM202.181 737.198C205.061 737.198 206.537 735.596 206.537 733.634C206.537 731.456 204.845 730.61 202.487 730.052C200.381 729.548 199.157 729.098 199.157 727.82C199.157 726.686 200.273 725.678 201.803 725.678C203.099 725.678 204.323 726.272 205.349 727.262L206.213 726.164C205.079 725.12 203.711 724.4 201.875 724.4C199.499 724.4 197.735 725.948 197.735 727.928C197.735 730.07 199.301 730.844 201.785 731.42C203.945 731.924 205.115 732.446 205.115 733.76C205.115 734.876 204.143 735.92 202.235 735.92C200.507 735.92 199.229 735.182 198.185 734.138L197.303 735.236C198.545 736.46 200.147 737.198 202.181 737.198ZM212.662 727.478C211.762 727.478 210.646 727.712 209.314 728.378L209.854 729.476C210.7 729.044 211.636 728.63 212.572 728.63C214.588 728.63 215.092 730.07 215.092 731.33V731.672C214.138 731.366 213.076 731.15 212.068 731.15C210.07 731.15 208.414 732.392 208.414 734.246C208.414 736.082 209.854 737.216 211.816 737.216C213.04 737.216 214.426 736.64 215.092 735.542V737H216.442V731.33C216.442 729.08 215.2 727.478 212.662 727.478ZM212.05 736.028C210.736 736.028 209.728 735.344 209.728 734.192C209.728 733.076 210.898 732.284 212.284 732.284C213.292 732.284 214.246 732.428 215.092 732.662V734.084C214.732 735.398 213.274 736.028 212.05 736.028ZM219.2 737H220.55V724.418H219.2V737ZM227.472 736.01C225.636 736.01 224.358 734.678 224.16 732.86H231.774C231.774 729.602 230.172 727.478 227.364 727.478C224.862 727.478 222.774 729.548 222.774 732.32C222.774 735.182 225.006 737.216 227.49 737.216C228.786 737.216 230.424 736.658 231.234 735.776L230.406 734.894C229.83 735.524 228.57 736.01 227.472 736.01ZM227.418 728.684C229.272 728.684 230.262 729.98 230.442 731.654H224.178C224.43 729.854 225.762 728.684 227.418 728.684Z" fill="#F7F9FD"/>
<path d="M279.225 551.644V550.756H273.309V559H279.225V558.112H274.257V555.244H278.733V554.356H274.257V551.644H279.225ZM284.733 559.144C285.873 559.144 286.929 558.652 287.697 557.884L287.061 557.236C286.461 557.872 285.633 558.28 284.733 558.28C282.957 558.28 281.457 556.72 281.457 554.872C281.457 553.036 282.957 551.476 284.733 551.476C285.633 551.476 286.461 551.884 287.061 552.52L287.697 551.872C286.929 551.092 285.873 550.612 284.733 550.612C282.453 550.612 280.509 552.556 280.509 554.872C280.509 557.188 282.453 559.144 284.733 559.144ZM292.713 559.144C295.005 559.144 296.925 557.188 296.925 554.872C296.925 552.556 295.005 550.612 292.713 550.612C290.433 550.612 288.489 552.556 288.489 554.872C288.489 557.188 290.433 559.144 292.713 559.144ZM292.713 558.28C290.937 558.28 289.437 556.72 289.437 554.872C289.437 553.036 290.937 551.476 292.713 551.476C294.489 551.476 295.977 553.036 295.977 554.872C295.977 556.72 294.489 558.28 292.713 558.28ZM301.349 559.132C303.269 559.132 304.253 558.064 304.253 556.756C304.253 555.304 303.125 554.74 301.553 554.368C300.149 554.032 299.333 553.732 299.333 552.88C299.333 552.124 300.077 551.452 301.097 551.452C301.961 551.452 302.777 551.848 303.461 552.508L304.037 551.776C303.281 551.08 302.369 550.6 301.145 550.6C299.561 550.6 298.385 551.632 298.385 552.952C298.385 554.38 299.429 554.896 301.085 555.28C302.525 555.616 303.305 555.964 303.305 556.84C303.305 557.584 302.657 558.28 301.385 558.28C300.233 558.28 299.381 557.788 298.685 557.092L298.097 557.824C298.925 558.64 299.993 559.132 301.349 559.132ZM308.444 559H309.428V555.64L312.74 550.756H311.612L308.936 554.752L306.284 550.756H305.12L308.444 555.64V559ZM316.759 559.132C318.679 559.132 319.663 558.064 319.663 556.756C319.663 555.304 318.535 554.74 316.963 554.368C315.559 554.032 314.743 553.732 314.743 552.88C314.743 552.124 315.487 551.452 316.507 551.452C317.371 551.452 318.187 551.848 318.871 552.508L319.447 551.776C318.691 551.08 317.779 550.6 316.555 550.6C314.971 550.6 313.795 551.632 313.795 552.952C313.795 554.38 314.839 554.896 316.495 555.28C317.935 555.616 318.715 555.964 318.715 556.84C318.715 557.584 318.067 558.28 316.795 558.28C315.643 558.28 314.791 557.788 314.095 557.092L313.507 557.824C314.335 558.64 315.403 559.132 316.759 559.132ZM323.626 559H324.562V551.644H327.334V550.756H320.854V551.644H323.626V559ZM334.737 551.644V550.756H328.821V559H334.737V558.112H329.769V555.244H334.245V554.356H329.769V551.644H334.737ZM336.524 559H337.46V552.772L340.52 558.52L343.58 552.772V559H344.516V550.756H343.58L340.52 556.504L337.46 550.756H336.524V559Z" fill="#29264C"/>
<path d="M167.252 451.654C167.822 452.642 168.776 453.31 169.825 453.591L170.069 452.717C169.218 452.515 168.451 452.002 168.001 451.222C167.113 449.684 167.714 447.605 169.314 446.681C170.904 445.763 173.005 446.282 173.893 447.82C174.343 448.6 174.404 449.521 174.153 450.359L175.032 450.585C175.324 449.53 175.211 448.376 174.641 447.388C173.501 445.414 170.846 444.702 168.84 445.86C166.834 447.018 166.112 449.68 167.252 451.654ZM171.243 458.566C172.389 460.551 175.042 461.235 177.048 460.077C179.054 458.919 179.777 456.285 178.631 454.3C177.491 452.325 174.836 451.614 172.83 452.772C170.824 453.93 170.103 456.591 171.243 458.566ZM171.991 458.134C171.103 456.596 171.704 454.517 173.304 453.593C174.894 452.675 176.995 453.194 177.883 454.732C178.771 456.27 178.164 458.338 176.574 459.256C174.974 460.18 172.879 459.672 171.991 458.134ZM174.347 463.655L174.815 464.466L180.624 461.112L177.371 468.893L177.839 469.703L184.979 465.581L184.511 464.771L178.701 468.125L181.955 460.344L181.487 459.533L174.347 463.655ZM180.056 473.544L180.524 474.354L186.895 470.676L188.281 473.077L189.05 472.633L185.81 467.021L185.041 467.465L186.427 469.866L180.056 473.544ZM190.699 480.769C192.039 479.995 192.319 478.295 191.467 476.82L189.793 473.92L182.654 478.042L183.122 478.853L185.688 477.371L186.78 479.262L185.258 482.552L185.792 483.477L187.363 480.104C188.256 481.098 189.576 481.417 190.699 480.769ZM189.492 475.175L190.614 477.118C191.286 478.282 191.181 479.396 190.225 479.948C189.269 480.5 188.251 480.034 187.579 478.87L186.457 476.927L189.492 475.175ZM186.556 484.801L187.024 485.612L194.163 481.49L193.695 480.679L186.556 484.801ZM188.064 487.413L190.026 490.811C190.74 492.048 192.06 492.463 193.204 491.803C193.983 491.353 194.351 490.503 194.293 489.442C195.039 489.871 195.692 489.993 196.45 489.555C197.49 488.955 197.759 487.718 197.093 486.565L195.203 483.291L188.064 487.413ZM192.647 485.848L194.934 484.528L196.236 486.783C196.692 487.573 196.537 488.41 195.872 488.794C195.207 489.178 194.405 488.893 193.949 488.103L192.647 485.848ZM189.27 487.798L191.909 486.274L193.283 488.654C193.793 489.537 193.603 490.478 192.834 490.922C192.065 491.366 191.154 491.061 190.644 490.178L189.27 487.798ZM193.703 497.468C194.711 499.214 196.703 499.713 198.512 498.669L202.689 496.257L202.221 495.446L198.044 497.858C196.672 498.65 195.173 498.31 194.441 497.042C193.709 495.775 194.164 494.306 195.536 493.514L199.713 491.102L199.245 490.292L195.068 492.704C193.259 493.748 192.695 495.723 193.703 497.468ZM197.722 504.142L198.19 504.953L204.561 501.275L205.947 503.675L206.716 503.231L203.476 497.619L202.707 498.063L204.093 500.464L197.722 504.142ZM201.887 511.644C203.033 513.629 205.687 514.313 207.693 513.155C209.698 511.997 210.422 509.363 209.276 507.378C208.136 505.403 205.48 504.692 203.475 505.85C201.469 507.008 200.747 509.669 201.887 511.644ZM202.635 511.212C201.747 509.674 202.348 507.595 203.949 506.671C205.539 505.753 207.64 506.272 208.528 507.81C209.416 509.348 208.809 511.416 207.219 512.334C205.618 513.258 203.523 512.75 202.635 511.212ZM212.947 519.304C214.287 518.53 214.567 516.83 213.715 515.354L212.041 512.455L204.902 516.577L205.37 517.388L207.937 515.906L209.029 517.797L207.506 521.087L208.04 522.012L209.611 518.638C210.504 519.633 211.824 519.952 212.947 519.304ZM211.74 513.71L212.862 515.653C213.534 516.817 213.429 517.931 212.473 518.483C211.517 519.035 210.5 518.569 209.828 517.405L208.706 515.462L211.74 513.71ZM210.118 525.875C211.078 527.538 212.495 527.856 213.627 527.202C214.885 526.476 214.809 525.217 214.345 523.67C213.934 522.286 213.786 521.429 214.524 521.003C215.179 520.625 216.133 520.934 216.643 521.817C217.075 522.565 217.14 523.47 216.91 524.392L217.832 524.525C218.057 523.523 218.017 522.493 217.405 521.433C216.613 520.061 215.131 519.559 213.988 520.219C212.751 520.933 212.826 522.095 213.322 523.721C213.751 525.136 213.839 525.985 213.081 526.423C212.436 526.795 211.509 526.582 210.873 525.481C210.297 524.483 210.298 523.499 210.552 522.548L209.624 522.405C209.332 523.53 209.44 524.701 210.118 525.875Z" fill="#29264C"/>
<defs>
<linearGradient id="paint0_linear_1767_3186" x1="148.5" y1="134" x2="148.5" y2="251" gradientUnits="userSpaceOnUse">
<stop stop-color="#615451"/>
<stop offset="1" stop-color="#FF8080"/>
</linearGradient>
<linearGradient id="paint1_linear_1767_3186" x1="487.5" y1="134" x2="487.5" y2="253" gradientUnits="userSpaceOnUse">
<stop stop-color="#3D4D59"/>
<stop offset="1" stop-color="#7068AA"/>
</linearGradient>
<linearGradient id="paint2_linear_1767_3186" x1="195" y1="573" x2="195" y2="701" gradientUnits="userSpaceOnUse">
<stop stop-color="#A3B3D0"/>
<stop offset="1" stop-color="#36494A"/>
</linearGradient>
<linearGradient id="paint3_linear_1767_3186" x1="388" y1="576" x2="388" y2="701" gradientUnits="userSpaceOnUse">
<stop stop-color="#B8E3DB"/>
<stop offset="1" stop-color="#97BFB8"/>
</linearGradient>
<linearGradient id="paint4_linear_1767_3186" x1="349" y1="60" x2="618" y2="60" gradientUnits="userSpaceOnUse">
<stop stop-color="#A9A4CC"/>
<stop offset="1" stop-color="#88D1C3" stop-opacity="0"/>
</linearGradient>
<linearGradient id="paint5_linear_1767_3186" x1="349" y1="134" x2="618" y2="134" gradientUnits="userSpaceOnUse">
<stop stop-color="#7068AA"/>
<stop offset="1" stop-color="#88D1C3" stop-opacity="0"/>
</linearGradient>
<linearGradient id="paint6_linear_1767_3186" x1="349" y1="761" x2="618" y2="761" gradientUnits="userSpaceOnUse">
<stop stop-color="#B8E3DB"/>
<stop offset="1" stop-color="#88D1C3" stop-opacity="0"/>
</linearGradient>
<linearGradient id="paint7_linear_1767_3186" x1="350" y1="835" x2="619" y2="835" gradientUnits="userSpaceOnUse">
<stop stop-color="#88D1C3"/>
<stop offset="1" stop-color="#88D1C3" stop-opacity="0"/>
</linearGradient>
<linearGradient id="paint8_linear_1767_3186" x1="13" y1="60" x2="282" y2="60" gradientUnits="userSpaceOnUse">
<stop stop-color="#FFB3B3"/>
<stop offset="1" stop-color="#88D1C3" stop-opacity="0"/>
</linearGradient>
<linearGradient id="paint9_linear_1767_3186" x1="13" y1="134" x2="282" y2="134" gradientUnits="userSpaceOnUse">
<stop stop-color="#FF8080"/>
<stop offset="1" stop-color="#88D1C3" stop-opacity="0"/>
</linearGradient>
<linearGradient id="paint10_linear_1767_3186" x1="14" y1="835" x2="283" y2="835" gradientUnits="userSpaceOnUse">
<stop stop-color="#7996C9"/>
<stop offset="1" stop-color="#88D1C3" stop-opacity="0"/>
</linearGradient>
<linearGradient id="paint11_linear_1767_3186" x1="13" y1="761" x2="282" y2="761" gradientUnits="userSpaceOnUse">
<stop stop-color="#A3B3D0"/>
<stop offset="1" stop-color="#88D1C3" stop-opacity="0"/>
</linearGradient>
</defs>
</svg>
