<svg width="1143" height="527" viewBox="0 0 1143 527" fill="none" xmlns="http://www.w3.org/2000/svg">
<path d="M875.5 496.5H535.5L518 473.5" stroke="#88D1C3" stroke-width="2"/>
<path d="M269 119H378" stroke="#FF8080" stroke-width="2"/>
<path opacity="0.24" d="M559 118.749C590.941 118.749 622.062 128.861 647.903 147.636C673.744 166.41 692.978 192.883 702.848 223.261C712.718 253.639 712.718 286.361 702.848 316.739C692.978 347.117 672.744 374.59 646.903 393.364L595.269 322.296C606.101 314.426 615.164 302.328 619.302 289.593C623.44 276.859 623.44 263.141 619.302 250.407C615.164 237.672 607.101 226.574 596.269 218.704C585.436 210.833 572.39 206.594 559 206.594V118.749Z" fill="#7068AA"/>
<path d="M594.995 0.39209C649.05 7.60892 699.688 30.908 740.336 67.2653C780.983 103.623 809.764 151.359 822.941 204.278C836.118 257.197 833.083 312.856 814.231 364.028C795.378 415.201 761.579 459.526 717.219 491.248L647.017 393.08C671.694 375.433 690.497 350.775 700.984 322.308C711.472 293.84 713.16 262.878 705.83 233.439C698.499 204 682.489 177.445 659.877 157.219C637.264 136.994 609.095 124.032 579.024 120.018L594.995 0.39209Z" fill="#7068AA"/>
<path d="M574.251 478.44C533.701 481.421 493.167 472.453 457.66 452.643L485.731 402.328C511.403 416.65 540.709 423.135 570.026 420.979L574.251 478.44Z" fill="#88D1C3"/>
<path d="M429.226 447.648C399.224 425.731 375.261 396.572 359.573 362.891C343.885 329.21 336.473 292.069 339 255L407.7 259.684C405.964 285.151 411.216 310.677 421.993 333.816C432.771 356.955 449.234 376.987 469.845 392.044L429.226 447.648Z" fill="#7996C9"/>
<path d="M355.478 256.053C356.686 238.416 360.182 221.011 365.878 204.276L415.51 221.167C411.278 233.601 408.681 246.533 407.783 259.637L355.478 256.053Z" fill="#FFB3B3"/>
<path d="M334.648 193.611C350.626 146.685 380.916 105.95 421.255 77.1389C461.595 48.3278 509.953 32.8909 559.524 33.0006L559.335 118.484C527.644 118.413 496.728 128.282 470.938 146.702C445.149 165.121 425.784 191.163 415.569 221.164L334.648 193.611Z" fill="#FF8080"/>
<path d="M472 427.5C465.464 423.857 458.532 419.54 452.5 415.113L469.474 391.985C474.545 395.707 480.472 399.378 485.966 402.441L472 427.5Z" fill="#A3B3D0"/>
<path opacity="0.6" d="M559 94C567.268 94 575.526 94.5826 583.712 95.7435L580.275 119.979C573.227 118.979 566.118 118.478 559 118.478V94Z" fill="#7068AA"/>
<path opacity="0.24" d="M646.892 393.372C623.67 410.241 597.129 419.153 568.483 420.953C539.838 422.753 511.273 416.365 486.122 402.535L507.548 363.57C525.304 373.333 545.472 377.843 565.695 376.573C585.919 375.302 604.363 369.304 620.758 357.395L646.892 393.372Z" fill="#73D7C3"/>
<path opacity="0.24" d="M486.122 402.535C460.972 388.706 440.276 368.006 426.451 342.853C412.626 317.7 405.816 288.348 407.621 259.703L452 262.5C450.726 282.723 455.66 303.676 465.42 321.434C475.181 339.192 489.792 353.806 507.548 363.57L486.122 402.535Z" fill="#7996C9"/>
<path opacity="0.24" d="M407.669 259.653C410.097 221.259 427.446 186.034 455.498 159.708C483.551 133.383 520.58 118.736 559.05 118.749L559.03 179.702C536.063 179.695 513.956 188.439 497.209 204.155C480.462 219.872 469.95 240.579 468.5 263.5L407.669 259.653Z" fill="#FF8080"/>
<path d="M269 230H359" stroke="#FFB3B3" stroke-width="2"/>
<path d="M829 242H874" stroke="#7068AA" stroke-width="2"/>
<path d="M571 97H874" stroke="#A9A4CC" stroke-width="2"/>
<path d="M269 350H355" stroke="#7996C9" stroke-width="2"/>
<path d="M269 462H424L464 421" stroke="#A3B3D0" stroke-width="2"/>
<path d="M875.001 374L787.5 461.501L636 461.502" stroke="#B8E3DB" stroke-width="2"/>
<path d="M680.5 439.5C649.087 462.472 613.143 475.565 574.333 478.434L570.085 420.975C598.145 418.901 624.289 409.609 647 393L680.5 439.5Z" fill="#B8E3DB"/>
<path d="M560.993 110H567.629V108.964H562.743L565.263 106.78C566.887 105.38 567.531 104.344 567.531 103.042C567.531 101.32 566.131 100.214 564.465 100.214C562.953 100.214 561.875 100.928 561.077 102.062L561.847 102.692C562.505 101.796 563.303 101.194 564.423 101.194C565.445 101.194 566.425 101.88 566.425 103.056C566.425 104.008 565.865 104.932 564.507 106.094L560.993 109.09V110ZM571.435 105.114C572.751 105.114 573.675 104.064 573.675 102.706C573.675 101.376 572.779 100.298 571.449 100.298C570.147 100.298 569.209 101.348 569.209 102.734C569.209 104.036 570.105 105.114 571.435 105.114ZM570.385 110H571.309L577.889 100.382H576.965L570.385 110ZM571.449 104.358C570.679 104.358 570.091 103.644 570.091 102.72C570.091 101.754 570.651 101.054 571.435 101.054C572.219 101.054 572.793 101.768 572.793 102.72C572.793 103.658 572.233 104.358 571.449 104.358ZM576.783 110.14C578.085 110.14 579.023 109.09 579.023 107.718C579.023 106.416 578.127 105.324 576.797 105.324C575.467 105.324 574.557 106.416 574.557 107.732C574.557 109.104 575.495 110.14 576.783 110.14ZM576.797 109.384C575.999 109.384 575.439 108.67 575.439 107.718C575.439 106.808 575.985 106.08 576.783 106.08C577.567 106.08 578.141 106.794 578.141 107.732C578.141 108.684 577.595 109.384 576.797 109.384Z" fill="white"/>
<path d="M460.993 414H467.629V412.964H462.743L465.263 410.78C466.887 409.38 467.531 408.344 467.531 407.042C467.531 405.32 466.131 404.214 464.465 404.214C462.953 404.214 461.875 404.928 461.077 406.062L461.847 406.692C462.505 405.796 463.303 405.194 464.423 405.194C465.445 405.194 466.425 405.88 466.425 407.056C466.425 408.008 465.865 408.932 464.507 410.094L460.993 413.09V414ZM471.435 409.114C472.751 409.114 473.675 408.064 473.675 406.706C473.675 405.376 472.779 404.298 471.449 404.298C470.147 404.298 469.209 405.348 469.209 406.734C469.209 408.036 470.105 409.114 471.435 409.114ZM470.385 414H471.309L477.889 404.382H476.965L470.385 414ZM471.449 408.358C470.679 408.358 470.091 407.644 470.091 406.72C470.091 405.754 470.651 405.054 471.435 405.054C472.219 405.054 472.793 405.768 472.793 406.72C472.793 407.658 472.233 408.358 471.449 408.358ZM476.783 414.14C478.085 414.14 479.023 413.09 479.023 411.718C479.023 410.416 478.127 409.324 476.797 409.324C475.467 409.324 474.557 410.416 474.557 411.732C474.557 413.104 475.495 414.14 476.783 414.14ZM476.797 413.384C475.999 413.384 475.439 412.67 475.439 411.718C475.439 410.808 475.985 410.08 476.783 410.08C477.567 410.08 478.141 410.794 478.141 411.732C478.141 412.684 477.595 413.384 476.797 413.384Z" fill="white"/>
<path d="M749.509 252.264C752.655 252.264 754.767 250.438 754.767 247.908C754.767 245.73 753.051 244.608 751.511 244.256C753.073 243.794 754.437 242.65 754.437 240.714C754.437 238.294 752.325 236.622 749.443 236.622C747.089 236.622 745.417 237.766 744.273 239.284L745.417 240.318C746.495 239.02 747.683 238.184 749.355 238.184C751.247 238.184 752.699 239.328 752.699 240.912C752.699 242.628 751.181 243.596 749.157 243.574L747.529 243.552V245.136H749.135C751.511 245.136 753.029 246.038 753.029 247.82C753.029 249.536 751.621 250.702 749.509 250.702C747.661 250.702 746.187 249.822 745.197 248.546L744.009 249.668C745.109 251.12 747.023 252.264 749.509 252.264ZM762.686 252.264C765.788 252.264 768.208 250.614 768.208 248.04C768.208 246.148 766.712 244.806 764.886 244.19C766.448 243.618 767.834 242.496 767.834 240.648C767.834 238.162 765.392 236.622 762.686 236.622C760.068 236.622 757.56 238.118 757.56 240.626C757.56 242.364 758.792 243.53 760.508 244.19C758.66 244.784 757.164 246.148 757.164 248.04C757.164 250.592 759.562 252.264 762.686 252.264ZM762.686 243.508C761.256 243.42 759.298 242.562 759.298 240.802C759.298 239.284 760.794 238.184 762.686 238.184C764.578 238.184 766.096 239.284 766.096 240.802C766.096 242.518 764.16 243.42 762.686 243.508ZM762.686 250.702C760.596 250.702 758.902 249.58 758.902 247.93C758.902 246.104 761.124 245.048 762.686 245.004C764.27 245.048 766.47 246.104 766.47 247.93C766.47 249.58 764.776 250.702 762.686 250.702ZM773.893 244.322C775.961 244.322 777.413 242.672 777.413 240.538C777.413 238.448 776.005 236.754 773.915 236.754C771.869 236.754 770.395 238.404 770.395 240.582C770.395 242.628 771.803 244.322 773.893 244.322ZM772.243 252H773.695L784.035 236.886H782.583L772.243 252ZM773.915 243.134C772.705 243.134 771.781 242.012 771.781 240.56C771.781 239.042 772.661 237.942 773.893 237.942C775.125 237.942 776.027 239.064 776.027 240.56C776.027 242.034 775.147 243.134 773.915 243.134ZM782.297 252.22C784.343 252.22 785.817 250.57 785.817 248.414C785.817 246.368 784.409 244.652 782.319 244.652C780.229 244.652 778.799 246.368 778.799 248.436C778.799 250.592 780.273 252.22 782.297 252.22ZM782.319 251.032C781.065 251.032 780.185 249.91 780.185 248.414C780.185 246.984 781.043 245.84 782.297 245.84C783.529 245.84 784.431 246.962 784.431 248.436C784.431 249.932 783.573 251.032 782.319 251.032Z" fill="white"/>
<path d="M455.621 194H456.557V186.644H459.329V185.756H452.849V186.644H455.621V194ZM466.731 186.644V185.756H460.815V194H466.731V193.112H461.763V190.244H466.239V189.356H461.763V186.644H466.731ZM475.047 194H476.067L472.431 185.756H471.411L467.775 194H468.795L469.623 192.128H474.219L475.047 194ZM470.007 191.24L471.927 186.908L473.835 191.24H470.007ZM477.577 194H478.513V187.772L481.573 193.52L484.633 187.772V194H485.569V185.756H484.633L481.573 191.504L478.513 185.756H477.577V194Z" fill="#29264C"/>
<path d="M626.288 241H627.224V232.756H626.288V241ZM629.304 241H630.24V234.292L635.352 241H636.288V232.756H635.352V239.464L630.24 232.756H629.304V241ZM642.258 241.144C643.398 241.144 644.454 240.652 645.222 239.884L644.586 239.236C643.986 239.872 643.158 240.28 642.258 240.28C640.482 240.28 638.982 238.72 638.982 236.872C638.982 235.036 640.482 233.476 642.258 233.476C643.158 233.476 643.986 233.884 644.586 234.52L645.222 233.872C644.454 233.092 643.398 232.612 642.258 232.612C639.978 232.612 638.034 234.556 638.034 236.872C638.034 239.188 639.978 241.144 642.258 241.144ZM652.43 233.644V232.756H646.514V241H652.43V240.112H647.462V237.244H651.938V236.356H647.462V233.644H652.43ZM654.218 241H655.154V234.292L660.266 241H661.202V232.756H660.266V239.464L655.154 232.756H654.218V241ZM665.636 241H666.572V233.644H669.344V232.756H662.864V233.644H665.636V241ZM670.831 241H671.767V232.756H670.831V241ZM680.375 232.756L677.255 239.848L674.123 232.756H673.103L676.739 241H677.759L681.395 232.756H680.375ZM688.641 233.644V232.756H682.725V241H688.641V240.112H683.673V237.244H688.149V236.356H683.673V233.644H688.641ZM693.105 241.132C695.025 241.132 696.009 240.064 696.009 238.756C696.009 237.304 694.881 236.74 693.309 236.368C691.905 236.032 691.089 235.732 691.089 234.88C691.089 234.124 691.833 233.452 692.853 233.452C693.717 233.452 694.533 233.848 695.217 234.508L695.793 233.776C695.037 233.08 694.125 232.6 692.901 232.6C691.317 232.6 690.141 233.632 690.141 234.952C690.141 236.38 691.185 236.896 692.841 237.28C694.281 237.616 695.061 237.964 695.061 238.84C695.061 239.584 694.413 240.28 693.141 240.28C691.989 240.28 691.137 239.788 690.441 239.092L689.853 239.824C690.681 240.64 691.749 241.132 693.105 241.132Z" fill="#29264C"/>
<path d="M537.225 393.644V392.756H531.309V401H537.225V400.112H532.257V397.244H536.733V396.356H532.257V393.644H537.225ZM542.733 401.144C543.873 401.144 544.929 400.652 545.697 399.884L545.061 399.236C544.461 399.872 543.633 400.28 542.733 400.28C540.957 400.28 539.457 398.72 539.457 396.872C539.457 395.036 540.957 393.476 542.733 393.476C543.633 393.476 544.461 393.884 545.061 394.52L545.697 393.872C544.929 393.092 543.873 392.612 542.733 392.612C540.453 392.612 538.509 394.556 538.509 396.872C538.509 399.188 540.453 401.144 542.733 401.144ZM550.713 401.144C553.005 401.144 554.925 399.188 554.925 396.872C554.925 394.556 553.005 392.612 550.713 392.612C548.433 392.612 546.489 394.556 546.489 396.872C546.489 399.188 548.433 401.144 550.713 401.144ZM550.713 400.28C548.937 400.28 547.437 398.72 547.437 396.872C547.437 395.036 548.937 393.476 550.713 393.476C552.489 393.476 553.977 395.036 553.977 396.872C553.977 398.72 552.489 400.28 550.713 400.28ZM559.349 401.132C561.269 401.132 562.253 400.064 562.253 398.756C562.253 397.304 561.125 396.74 559.553 396.368C558.149 396.032 557.333 395.732 557.333 394.88C557.333 394.124 558.077 393.452 559.097 393.452C559.961 393.452 560.777 393.848 561.461 394.508L562.037 393.776C561.281 393.08 560.369 392.6 559.145 392.6C557.561 392.6 556.385 393.632 556.385 394.952C556.385 396.38 557.429 396.896 559.085 397.28C560.525 397.616 561.305 397.964 561.305 398.84C561.305 399.584 560.657 400.28 559.385 400.28C558.233 400.28 557.381 399.788 556.685 399.092L556.097 399.824C556.925 400.64 557.993 401.132 559.349 401.132ZM566.444 401H567.428V397.64L570.74 392.756H569.612L566.936 396.752L564.284 392.756H563.12L566.444 397.64V401ZM574.759 401.132C576.679 401.132 577.663 400.064 577.663 398.756C577.663 397.304 576.535 396.74 574.963 396.368C573.559 396.032 572.743 395.732 572.743 394.88C572.743 394.124 573.487 393.452 574.507 393.452C575.371 393.452 576.187 393.848 576.871 394.508L577.447 393.776C576.691 393.08 575.779 392.6 574.555 392.6C572.971 392.6 571.795 393.632 571.795 394.952C571.795 396.38 572.839 396.896 574.495 397.28C575.935 397.616 576.715 397.964 576.715 398.84C576.715 399.584 576.067 400.28 574.795 400.28C573.643 400.28 572.791 399.788 572.095 399.092L571.507 399.824C572.335 400.64 573.403 401.132 574.759 401.132ZM581.626 401H582.562V393.644H585.334V392.756H578.854V393.644H581.626V401ZM592.737 393.644V392.756H586.821V401H592.737V400.112H587.769V397.244H592.245V396.356H587.769V393.644H592.737ZM594.524 401H595.46V394.772L598.52 400.52L601.58 394.772V401H602.516V392.756H601.58L598.52 398.504L595.46 392.756H594.524V401Z" fill="#29264C"/>
<path d="M425.253 293.654C425.823 294.642 426.777 295.31 427.826 295.591L428.069 294.717C427.219 294.515 426.451 294.002 426.001 293.222C425.113 291.684 425.714 289.605 427.315 288.681C428.905 287.763 431.006 288.282 431.894 289.82C432.344 290.6 432.404 291.521 432.154 292.359L433.033 292.585C433.324 291.53 433.212 290.376 432.642 289.388C431.502 287.414 428.846 286.702 426.841 287.86C424.835 289.018 424.113 291.68 425.253 293.654ZM429.243 300.566C430.389 302.551 433.043 303.235 435.049 302.077C437.055 300.919 437.778 298.285 436.632 296.3C435.492 294.325 432.837 293.614 430.831 294.772C428.825 295.93 428.103 298.591 429.243 300.566ZM429.992 300.134C429.104 298.596 429.705 296.517 431.305 295.593C432.895 294.675 434.996 295.194 435.884 296.732C436.772 298.27 436.165 300.338 434.575 301.256C432.975 302.18 430.88 301.672 429.992 300.134ZM432.348 305.655L432.816 306.466L438.625 303.112L435.372 310.893L435.84 311.703L442.979 307.581L442.511 306.771L436.702 310.125L439.955 302.344L439.487 301.533L432.348 305.655ZM438.057 315.544L438.525 316.354L444.895 312.676L446.281 315.077L447.051 314.633L443.811 309.021L443.041 309.465L444.427 311.866L438.057 315.544ZM448.699 322.769C450.04 321.995 450.32 320.295 449.468 318.82L447.794 315.92L440.654 320.042L441.122 320.853L443.689 319.371L444.781 321.262L443.258 324.552L443.792 325.477L445.364 322.104C446.257 323.098 447.577 323.417 448.699 322.769ZM447.493 317.175L448.615 319.118C449.287 320.282 449.182 321.396 448.225 321.948C447.269 322.5 446.252 322.034 445.58 320.87L444.458 318.927L447.493 317.175ZM444.557 326.801L445.025 327.612L452.164 323.49L451.696 322.679L444.557 326.801ZM446.065 329.413L448.027 332.811C448.741 334.048 450.061 334.463 451.204 333.803C451.984 333.353 452.352 332.503 452.294 331.442C453.04 331.871 453.692 331.993 454.451 331.555C455.49 330.955 455.76 329.718 455.094 328.565L453.204 325.291L446.065 329.413ZM450.648 327.848L452.934 326.528L454.236 328.783C454.692 329.573 454.538 330.41 453.873 330.794C453.208 331.178 452.406 330.893 451.95 330.103L450.648 327.848ZM447.27 329.798L449.91 328.274L451.284 330.654C451.794 331.537 451.603 332.478 450.834 332.922C450.065 333.366 449.154 333.061 448.644 332.178L447.27 329.798ZM451.704 339.468C452.712 341.214 454.704 341.713 456.512 340.669L460.69 338.257L460.222 337.446L456.044 339.858C454.672 340.65 453.174 340.31 452.442 339.042C451.71 337.775 452.164 336.306 453.536 335.514L457.714 333.102L457.246 332.292L453.068 334.704C451.26 335.748 450.696 337.723 451.704 339.468ZM455.723 346.142L456.191 346.953L462.561 343.275L463.947 345.675L464.717 345.231L461.477 339.619L460.707 340.063L462.093 342.464L455.723 346.142ZM459.888 353.644C461.034 355.629 463.688 356.313 465.693 355.155C467.699 353.997 468.423 351.363 467.277 349.378C466.137 347.403 463.481 346.692 461.475 347.85C459.47 349.008 458.748 351.669 459.888 353.644ZM460.636 353.212C459.748 351.674 460.349 349.595 461.949 348.671C463.539 347.753 465.64 348.272 466.528 349.81C467.416 351.348 466.809 353.416 465.219 354.334C463.619 355.258 461.524 354.75 460.636 353.212ZM470.948 361.304C472.288 360.53 472.568 358.83 471.716 357.354L470.042 354.455L462.902 358.577L463.37 359.388L465.937 357.906L467.029 359.797L465.506 363.087L466.04 364.012L467.612 360.638C468.505 361.633 469.825 361.952 470.948 361.304ZM469.741 355.71L470.863 357.653C471.535 358.817 471.43 359.931 470.474 360.483C469.517 361.035 468.5 360.569 467.828 359.405L466.706 357.462L469.741 355.71ZM468.118 367.875C469.078 369.538 470.495 369.856 471.628 369.202C472.886 368.476 472.81 367.217 472.346 365.67C471.935 364.286 471.787 363.429 472.525 363.003C473.179 362.625 474.133 362.934 474.643 363.817C475.075 364.565 475.14 365.47 474.911 366.392L475.833 366.525C476.058 365.523 476.017 364.493 475.405 363.433C474.613 362.061 473.132 361.559 471.988 362.219C470.752 362.933 470.827 364.095 471.322 365.721C471.751 367.136 471.84 367.985 471.081 368.423C470.437 368.795 469.51 368.582 468.874 367.481C468.298 366.483 468.298 365.499 468.553 364.548L467.625 364.405C467.332 365.53 467.44 366.701 468.118 367.875Z" fill="#29264C"/>
<path d="M612.74 446.264C615.842 446.264 618.262 444.614 618.262 442.04C618.262 440.148 616.766 438.806 614.94 438.19C616.502 437.618 617.888 436.496 617.888 434.648C617.888 432.162 615.446 430.622 612.74 430.622C610.122 430.622 607.614 432.118 607.614 434.626C607.614 436.364 608.846 437.53 610.562 438.19C608.714 438.784 607.218 440.148 607.218 442.04C607.218 444.592 609.616 446.264 612.74 446.264ZM612.74 437.508C611.31 437.42 609.352 436.562 609.352 434.802C609.352 433.284 610.848 432.184 612.74 432.184C614.632 432.184 616.15 433.284 616.15 434.802C616.15 436.518 614.214 437.42 612.74 437.508ZM612.74 444.702C610.65 444.702 608.956 443.58 608.956 441.93C608.956 440.104 611.178 439.048 612.74 439.004C614.324 439.048 616.524 440.104 616.524 441.93C616.524 443.58 614.83 444.702 612.74 444.702ZM623.948 438.322C626.016 438.322 627.468 436.672 627.468 434.538C627.468 432.448 626.06 430.754 623.97 430.754C621.924 430.754 620.45 432.404 620.45 434.582C620.45 436.628 621.858 438.322 623.948 438.322ZM622.298 446H623.75L634.09 430.886H632.638L622.298 446ZM623.97 437.134C622.76 437.134 621.836 436.012 621.836 434.56C621.836 433.042 622.716 431.942 623.948 431.942C625.18 431.942 626.082 433.064 626.082 434.56C626.082 436.034 625.202 437.134 623.97 437.134ZM632.352 446.22C634.398 446.22 635.872 444.57 635.872 442.414C635.872 440.368 634.464 438.652 632.374 438.652C630.284 438.652 628.854 440.368 628.854 442.436C628.854 444.592 630.328 446.22 632.352 446.22ZM632.374 445.032C631.12 445.032 630.24 443.91 630.24 442.414C630.24 440.984 631.098 439.84 632.352 439.84C633.584 439.84 634.486 440.962 634.486 442.436C634.486 443.932 633.628 445.032 632.374 445.032Z" fill="white"/>
<path d="M506.243 452H507.959V436.886H506.573L502.855 439.416L503.603 440.692L506.243 438.976V452ZM517.629 452.264C521.303 452.264 523.899 449.03 523.899 444.432C523.899 439.856 521.303 436.622 517.629 436.622C513.933 436.622 511.337 439.856 511.337 444.432C511.337 449.03 513.933 452.264 517.629 452.264ZM517.629 450.68C514.967 450.68 513.075 448.084 513.075 444.432C513.075 440.78 514.967 438.206 517.629 438.206C520.291 438.206 522.161 440.78 522.161 444.432C522.161 448.084 520.291 450.68 517.629 450.68ZM529.739 444.322C531.807 444.322 533.259 442.672 533.259 440.538C533.259 438.448 531.851 436.754 529.761 436.754C527.715 436.754 526.241 438.404 526.241 440.582C526.241 442.628 527.649 444.322 529.739 444.322ZM528.089 452H529.541L539.881 436.886H538.429L528.089 452ZM529.761 443.134C528.551 443.134 527.627 442.012 527.627 440.56C527.627 439.042 528.507 437.942 529.739 437.942C530.971 437.942 531.873 439.064 531.873 440.56C531.873 442.034 530.993 443.134 529.761 443.134ZM538.143 452.22C540.189 452.22 541.663 450.57 541.663 448.414C541.663 446.368 540.255 444.652 538.165 444.652C536.075 444.652 534.645 446.368 534.645 448.436C534.645 450.592 536.119 452.22 538.143 452.22ZM538.165 451.032C536.911 451.032 536.031 449.91 536.031 448.414C536.031 446.984 536.889 445.84 538.143 445.84C539.375 445.84 540.277 446.962 540.277 448.436C540.277 449.932 539.419 451.032 538.165 451.032Z" fill="white"/>
<path d="M379.974 355H381.69V339.886H380.304L376.586 342.416L377.334 343.692L379.974 341.976V355ZM391.096 345.562C389.314 345.562 387.752 346.42 386.828 347.872V347.674C386.828 344.044 388.742 341.184 391.162 341.184C392.614 341.184 393.604 341.844 394.55 342.768L395.496 341.426C394.374 340.348 393.054 339.622 391.206 339.622C387.774 339.622 385.09 343.164 385.09 347.674C385.09 351.942 386.74 355.264 390.832 355.264C393.978 355.264 396.156 353.064 396.156 350.27C396.156 347.278 393.846 345.562 391.096 345.562ZM390.81 353.79C388.698 353.79 387.466 352.14 387.026 349.852C387.4 348.18 388.874 347.036 390.788 347.036C392.812 347.036 394.418 348.29 394.418 350.358C394.418 352.03 393.076 353.79 390.81 353.79ZM402.009 347.322C404.077 347.322 405.529 345.672 405.529 343.538C405.529 341.448 404.121 339.754 402.031 339.754C399.985 339.754 398.511 341.404 398.511 343.582C398.511 345.628 399.919 347.322 402.009 347.322ZM400.359 355H401.811L412.151 339.886H410.699L400.359 355ZM402.031 346.134C400.821 346.134 399.897 345.012 399.897 343.56C399.897 342.042 400.777 340.942 402.009 340.942C403.241 340.942 404.143 342.064 404.143 343.56C404.143 345.034 403.263 346.134 402.031 346.134ZM410.413 355.22C412.459 355.22 413.933 353.57 413.933 351.414C413.933 349.368 412.525 347.652 410.435 347.652C408.345 347.652 406.915 349.368 406.915 351.436C406.915 353.592 408.389 355.22 410.413 355.22ZM410.435 354.032C409.181 354.032 408.301 352.91 408.301 351.414C408.301 349.984 409.159 348.84 410.413 348.84C411.645 348.84 412.547 349.962 412.547 351.436C412.547 352.932 411.689 354.032 410.435 354.032Z" fill="white"/>
<path d="M376.716 242.264C379.818 242.264 382.084 240.284 382.084 237.292C382.084 234.3 379.818 232.584 377.09 232.584C375.704 232.584 374.67 233.046 373.856 233.596L374.01 228.514H381.27V226.886H372.338L372.118 234.652L373.372 235.268C374.318 234.564 375.44 234.102 376.738 234.102C378.85 234.102 380.346 235.422 380.346 237.358C380.346 239.272 378.872 240.724 376.782 240.724C375.11 240.724 373.68 239.888 372.514 238.612L371.392 239.866C372.624 241.274 374.384 242.264 376.716 242.264ZM387.862 234.322C389.93 234.322 391.382 232.672 391.382 230.538C391.382 228.448 389.974 226.754 387.884 226.754C385.838 226.754 384.364 228.404 384.364 230.582C384.364 232.628 385.772 234.322 387.862 234.322ZM386.212 242H387.664L398.004 226.886H396.552L386.212 242ZM387.884 233.134C386.674 233.134 385.75 232.012 385.75 230.56C385.75 229.042 386.63 227.942 387.862 227.942C389.094 227.942 389.996 229.064 389.996 230.56C389.996 232.034 389.116 233.134 387.884 233.134ZM396.266 242.22C398.312 242.22 399.786 240.57 399.786 238.414C399.786 236.368 398.378 234.652 396.288 234.652C394.198 234.652 392.768 236.368 392.768 238.436C392.768 240.592 394.242 242.22 396.266 242.22ZM396.288 241.032C395.034 241.032 394.154 239.91 394.154 238.414C394.154 236.984 395.012 235.84 396.266 235.84C397.498 235.84 398.4 236.962 398.4 238.436C398.4 239.932 397.542 241.032 396.288 241.032Z" fill="white"/>
<path d="M425.974 130H427.69V114.886H426.304L422.586 117.416L423.334 118.692L425.974 116.976V130ZM436.414 114.622C433.268 114.622 431.09 116.822 431.09 119.616C431.09 122.608 433.4 124.324 436.15 124.324C437.932 124.324 439.494 123.466 440.418 122.014V122.212C440.418 125.842 438.504 128.702 436.084 128.702C434.632 128.702 433.642 128.042 432.696 127.118L431.75 128.46C432.872 129.538 434.192 130.264 436.04 130.264C439.472 130.264 442.156 126.722 442.156 122.212C442.156 117.944 440.506 114.622 436.414 114.622ZM436.458 122.85C434.434 122.85 432.828 121.596 432.828 119.528C432.828 117.856 434.17 116.096 436.436 116.096C438.548 116.096 439.78 117.746 440.22 120.034C439.846 121.706 438.372 122.85 436.458 122.85ZM448.009 122.322C450.077 122.322 451.529 120.672 451.529 118.538C451.529 116.448 450.121 114.754 448.031 114.754C445.985 114.754 444.511 116.404 444.511 118.582C444.511 120.628 445.919 122.322 448.009 122.322ZM446.359 130H447.811L458.151 114.886H456.699L446.359 130ZM448.031 121.134C446.821 121.134 445.897 120.012 445.897 118.56C445.897 117.042 446.777 115.942 448.009 115.942C449.241 115.942 450.143 117.064 450.143 118.56C450.143 120.034 449.263 121.134 448.031 121.134ZM456.413 130.22C458.459 130.22 459.933 128.57 459.933 126.414C459.933 124.368 458.525 122.652 456.435 122.652C454.345 122.652 452.915 124.368 452.915 126.436C452.915 128.592 454.389 130.22 456.413 130.22ZM456.435 129.032C455.181 129.032 454.301 127.91 454.301 126.414C454.301 124.984 455.159 123.84 456.413 123.84C457.645 123.84 458.547 124.962 458.547 126.436C458.547 127.932 457.689 129.032 456.435 129.032Z" fill="white"/>
<rect x="874" y="67" width="269" height="60" rx="10" fill="#F7F9FD"/>
<path d="M874 77C874 71.4772 878.477 67 884 67V127C878.477 127 874 122.523 874 117V77Z" fill="#A9A4CC"/>
<path d="M965.6 103H967.004V90.634H965.6V103ZM974.228 93.478C972.914 93.478 971.708 94.198 971.168 95.188V93.694H969.818V103H971.168V97.078C971.168 95.782 972.482 94.684 974.048 94.684C975.416 94.684 976.37 95.746 976.37 97.258V103H977.72V97.078C977.72 94.972 976.28 93.478 974.228 93.478ZM981.118 92.002C981.604 92.002 982 91.588 982 91.102C982 90.634 981.604 90.22 981.118 90.22C980.614 90.22 980.218 90.634 980.218 91.102C980.218 91.588 980.614 92.002 981.118 92.002ZM980.434 103H981.784V93.694H980.434V103ZM988.581 101.632C988.383 101.848 988.023 102.01 987.609 102.01C987.069 102.01 986.601 101.524 986.601 100.84V94.9H988.887V93.694H986.601V91.138H985.251V93.694H983.793V94.9H985.251V100.84C985.251 102.226 986.187 103.216 987.519 103.216C988.149 103.216 988.761 103 989.247 102.622L988.581 101.632ZM991.823 92.002C992.309 92.002 992.705 91.588 992.705 91.102C992.705 90.634 992.309 90.22 991.823 90.22C991.319 90.22 990.923 90.634 990.923 91.102C990.923 91.588 991.319 92.002 991.823 92.002ZM991.139 103H992.489V93.694H991.139V103ZM998.98 93.478C998.08 93.478 996.964 93.712 995.632 94.378L996.172 95.476C997.018 95.044 997.954 94.63 998.89 94.63C1000.91 94.63 1001.41 96.07 1001.41 97.33V97.672C1000.46 97.366 999.394 97.15 998.386 97.15C996.388 97.15 994.732 98.392 994.732 100.246C994.732 102.082 996.172 103.216 998.134 103.216C999.358 103.216 1000.74 102.64 1001.41 101.542V103H1002.76V97.33C1002.76 95.08 1001.52 93.478 998.98 93.478ZM998.368 102.028C997.054 102.028 996.046 101.344 996.046 100.192C996.046 99.076 997.216 98.284 998.602 98.284C999.61 98.284 1000.56 98.428 1001.41 98.662V100.084C1001.05 101.398 999.592 102.028 998.368 102.028ZM1005.52 103H1006.87V90.418H1005.52V103ZM1014.87 103H1016.28V98.554H1019.89C1022.45 98.554 1024.45 96.916 1024.45 94.594C1024.45 92.272 1022.45 90.634 1019.89 90.634H1014.87V103ZM1016.28 97.222V91.966H1019.64C1021.66 91.966 1023.03 92.938 1023.03 94.594C1023.03 96.25 1021.66 97.222 1019.64 97.222H1016.28ZM1030.72 103.216C1033.33 103.216 1035.53 100.984 1035.53 98.338C1035.53 95.692 1033.33 93.478 1030.72 93.478C1028.11 93.478 1025.9 95.692 1025.9 98.338C1025.9 100.984 1028.11 103.216 1030.72 103.216ZM1030.72 102.01C1028.87 102.01 1027.32 100.336 1027.32 98.338C1027.32 96.358 1028.87 94.684 1030.72 94.684C1032.56 94.684 1034.11 96.358 1034.11 98.338C1034.11 100.336 1032.56 102.01 1030.72 102.01ZM1042.08 103.216C1044.69 103.216 1046.88 100.984 1046.88 98.338C1046.88 95.692 1044.69 93.478 1042.08 93.478C1039.47 93.478 1037.25 95.692 1037.25 98.338C1037.25 100.984 1039.47 103.216 1042.08 103.216ZM1042.08 102.01C1040.22 102.01 1038.67 100.336 1038.67 98.338C1038.67 96.358 1040.22 94.684 1042.08 94.684C1043.91 94.684 1045.46 96.358 1045.46 98.338C1045.46 100.336 1043.91 102.01 1042.08 102.01ZM1049.11 103H1050.46V90.418H1049.11V103Z" fill="#29264C"/>
<rect x="874" y="212" width="269" height="60" rx="10" fill="#F7F9FD"/>
<path d="M874 222C874 216.477 878.477 212 884 212V272C878.477 272 874 267.523 874 262V222Z" fill="#7068AA"/>
<path d="M954.774 248H956.25V242.96L961.218 235.634H959.526L955.512 241.628L951.534 235.634H949.788L954.774 242.96V248ZM963.574 237.002C964.06 237.002 964.456 236.588 964.456 236.102C964.456 235.634 964.06 235.22 963.574 235.22C963.07 235.22 962.674 235.634 962.674 236.102C962.674 236.588 963.07 237.002 963.574 237.002ZM962.89 248H964.24V238.694H962.89V248ZM971.145 247.01C969.309 247.01 968.031 245.678 967.833 243.86H975.447C975.447 240.602 973.845 238.478 971.037 238.478C968.535 238.478 966.447 240.548 966.447 243.32C966.447 246.182 968.679 248.216 971.163 248.216C972.459 248.216 974.097 247.658 974.907 246.776L974.079 245.894C973.503 246.524 972.243 247.01 971.145 247.01ZM971.091 239.684C972.945 239.684 973.935 240.98 974.115 242.654H967.851C968.103 240.854 969.435 239.684 971.091 239.684ZM977.656 248H979.006V235.418H977.656V248ZM989.006 235.418V240.44C988.304 239.216 987.116 238.478 985.622 238.478C983.174 238.478 981.338 240.494 981.338 243.338C981.338 246.2 983.174 248.216 985.622 248.216C987.116 248.216 988.304 247.478 989.006 246.254V248H990.356V235.418H989.006ZM985.874 247.01C984.056 247.01 982.76 245.48 982.76 243.338C982.76 241.196 984.056 239.684 985.874 239.684C987.71 239.684 989.006 241.196 989.006 243.338C989.006 245.48 987.71 247.01 985.874 247.01ZM1007.36 236.966V235.634H998.487V248H999.909V242.366H1006.62V241.034H999.909V236.966H1007.36ZM1013.18 238.478C1012.28 238.478 1011.17 238.712 1009.83 239.378L1010.37 240.476C1011.22 240.044 1012.16 239.63 1013.09 239.63C1015.11 239.63 1015.61 241.07 1015.61 242.33V242.672C1014.66 242.366 1013.6 242.15 1012.59 242.15C1010.59 242.15 1008.93 243.392 1008.93 245.246C1008.93 247.082 1010.37 248.216 1012.34 248.216C1013.56 248.216 1014.95 247.64 1015.61 246.542V248H1016.96V242.33C1016.96 240.08 1015.72 238.478 1013.18 238.478ZM1012.57 247.028C1011.26 247.028 1010.25 246.344 1010.25 245.192C1010.25 244.076 1011.42 243.284 1012.8 243.284C1013.81 243.284 1014.77 243.428 1015.61 243.662V245.084C1015.25 246.398 1013.79 247.028 1012.57 247.028ZM1021.2 240.512V238.694H1019.85V248H1021.2V242.798C1021.2 240.98 1022.69 239.684 1024.8 239.684V238.478C1023.09 238.478 1021.75 239.27 1021.2 240.512ZM1036.73 238.478C1035.32 238.478 1034.1 239.252 1033.72 240.458C1033.22 239.252 1032.12 238.478 1030.71 238.478C1029.49 238.478 1028.48 239.09 1028.01 240.062V238.694H1026.66V248H1028.01V242.078C1028.01 240.674 1029.06 239.684 1030.53 239.684C1031.79 239.684 1032.68 240.746 1032.68 242.258V248H1034.03V242.078C1034.03 240.674 1035.07 239.684 1036.55 239.684C1037.81 239.684 1038.69 240.746 1038.69 242.258V248H1040.04V242.078C1040.04 239.972 1038.67 238.478 1036.73 238.478ZM1043.43 237.002C1043.92 237.002 1044.31 236.588 1044.31 236.102C1044.31 235.634 1043.92 235.22 1043.43 235.22C1042.93 235.22 1042.53 235.634 1042.53 236.102C1042.53 236.588 1042.93 237.002 1043.43 237.002ZM1042.75 248H1044.1V238.694H1042.75V248ZM1051.24 238.478C1049.92 238.478 1048.72 239.198 1048.18 240.188V238.694H1046.83V248H1048.18V242.078C1048.18 240.782 1049.49 239.684 1051.06 239.684C1052.42 239.684 1053.38 240.746 1053.38 242.258V248H1054.73V242.078C1054.73 239.972 1053.29 238.478 1051.24 238.478ZM1064.7 238.694V240.296C1063.98 239.162 1062.79 238.478 1061.31 238.478C1058.81 238.478 1057.03 240.296 1057.03 242.888C1057.03 245.48 1058.81 247.316 1061.31 247.316C1062.79 247.316 1063.98 246.632 1064.7 245.498V247.01C1064.7 248.828 1063.44 249.89 1061.29 249.89C1060.14 249.89 1059.03 249.476 1058.31 248.792L1057.71 249.854C1058.56 250.574 1059.96 251.096 1061.47 251.096C1064.16 251.096 1066.05 249.404 1066.05 247.01V238.694H1064.7ZM1061.56 246.11C1059.75 246.11 1058.45 244.778 1058.45 242.888C1058.45 241.016 1059.75 239.684 1061.56 239.684C1063.4 239.684 1064.7 241.016 1064.7 242.888C1064.7 244.778 1063.4 246.11 1061.56 246.11Z" fill="#29264C"/>
<rect x="874" y="344" width="269" height="60" rx="10" fill="#F7F9FD"/>
<path d="M874 354C874 348.477 878.477 344 884 344V404C878.477 404 874 399.523 874 394V354Z" fill="#B8E3DB"/>
<path d="M948.897 380H953.073C956.997 380 959.769 377.426 959.769 373.808C959.769 370.19 956.997 367.634 953.073 367.634H948.897V380ZM950.301 378.722V368.912H953.073C956.169 368.912 958.347 370.946 958.347 373.808C958.347 376.688 956.169 378.722 953.073 378.722H950.301ZM971.451 380H972.981L967.527 367.634H965.997L960.543 380H962.073L963.315 377.192H970.209L971.451 380ZM963.891 375.86L966.771 369.362L969.633 375.86H963.891ZM980.827 380.216C984.265 380.216 987.145 377.282 987.145 373.808C987.145 370.334 984.265 367.418 980.827 367.418C977.407 367.418 974.491 370.334 974.491 373.808C974.491 377.282 977.407 380.216 980.827 380.216ZM980.827 378.92C978.163 378.92 975.913 376.58 975.913 373.808C975.913 371.054 978.163 368.714 980.827 368.714C983.491 368.714 985.723 371.054 985.723 373.808C985.723 376.58 983.491 378.92 980.827 378.92ZM998.263 380H999.667V368.966H1003.82V367.634H994.105V368.966H998.263V380ZM1007.48 372.512V370.694H1006.13V380H1007.48V374.798C1007.48 372.98 1008.97 371.684 1011.08 371.684V370.478C1009.37 370.478 1008.03 371.27 1007.48 372.512ZM1017.14 379.01C1015.3 379.01 1014.02 377.678 1013.83 375.86H1021.44C1021.44 372.602 1019.84 370.478 1017.03 370.478C1014.53 370.478 1012.44 372.548 1012.44 375.32C1012.44 378.182 1014.67 380.216 1017.16 380.216C1018.45 380.216 1020.09 379.658 1020.9 378.776L1020.07 377.894C1019.5 378.524 1018.24 379.01 1017.14 379.01ZM1017.08 371.684C1018.94 371.684 1019.93 372.98 1020.11 374.654H1013.84C1014.1 372.854 1015.43 371.684 1017.08 371.684ZM1027.43 370.478C1026.53 370.478 1025.41 370.712 1024.08 371.378L1024.62 372.476C1025.47 372.044 1026.4 371.63 1027.34 371.63C1029.36 371.63 1029.86 373.07 1029.86 374.33V374.672C1028.91 374.366 1027.84 374.15 1026.84 374.15C1024.84 374.15 1023.18 375.392 1023.18 377.246C1023.18 379.082 1024.62 380.216 1026.58 380.216C1027.81 380.216 1029.19 379.64 1029.86 378.542V380H1031.21V374.33C1031.21 372.08 1029.97 370.478 1027.43 370.478ZM1026.82 379.028C1025.5 379.028 1024.5 378.344 1024.5 377.192C1024.5 376.076 1025.67 375.284 1027.05 375.284C1028.06 375.284 1029.01 375.428 1029.86 375.662V377.084C1029.5 378.398 1028.04 379.028 1026.82 379.028ZM1037.26 380.216C1039.19 380.216 1040.66 379.118 1040.66 377.408C1040.66 375.644 1039.12 375.14 1037.62 374.672C1035.89 374.114 1035.21 373.862 1035.21 373.052C1035.21 372.152 1036.07 371.684 1037.12 371.684C1037.95 371.684 1038.86 371.972 1039.8 372.566L1040.45 371.522C1039.46 370.874 1038.27 370.478 1037.12 370.478C1035.26 370.478 1033.86 371.522 1033.86 373.214C1033.86 374.546 1034.72 375.212 1036.97 375.86C1038.23 376.22 1039.31 376.544 1039.31 377.552C1039.31 378.434 1038.49 379.01 1037.26 379.01C1036.24 379.01 1035.17 378.614 1034.11 377.84L1033.41 378.83C1034.53 379.73 1035.97 380.216 1037.26 380.216ZM1049.45 370.694V376.616C1049.45 377.912 1048.14 379.01 1046.57 379.01C1045.2 379.01 1044.25 377.948 1044.25 376.436V370.694H1042.9V376.616C1042.9 378.722 1044.34 380.216 1046.39 380.216C1047.7 380.216 1048.91 379.496 1049.45 378.506V380H1050.8V370.694H1049.45ZM1055.03 372.512V370.694H1053.68V380H1055.03V374.798C1055.03 372.98 1056.52 371.684 1058.63 371.684V370.478C1056.92 370.478 1055.58 371.27 1055.03 372.512ZM1061.88 383.24C1063.16 383.222 1064.06 382.628 1064.71 381.044L1068.95 370.694H1067.5L1064.42 378.434L1061.16 370.694H1059.67L1063.72 380.036L1063.18 381.188C1062.82 381.818 1062.42 382.016 1061.83 382.016C1061.43 382.016 1061.05 381.944 1060.73 381.782L1060.4 382.934C1060.84 383.132 1061.34 383.24 1061.88 383.24Z" fill="#29264C"/>
<rect x="874" y="467" width="269" height="60" rx="10" fill="#F7F9FD"/>
<path d="M874 477C874 471.477 878.477 467 884 467V527C878.477 527 874 522.523 874 517V477Z" fill="#88D1C3"/>
<path d="M943.526 503.216C945.236 503.216 946.82 502.478 947.972 501.326L947.018 500.354C946.118 501.308 944.876 501.92 943.526 501.92C940.862 501.92 938.612 499.58 938.612 496.808C938.612 494.054 940.862 491.714 943.526 491.714C944.876 491.714 946.118 492.326 947.018 493.28L947.972 492.308C946.82 491.138 945.236 490.418 943.526 490.418C940.106 490.418 937.19 493.334 937.19 496.808C937.19 500.282 940.106 503.216 943.526 503.216ZM954.176 503.216C956.786 503.216 958.982 500.984 958.982 498.338C958.982 495.692 956.786 493.478 954.176 493.478C951.566 493.478 949.352 495.692 949.352 498.338C949.352 500.984 951.566 503.216 954.176 503.216ZM954.176 502.01C952.322 502.01 950.774 500.336 950.774 498.338C950.774 496.358 952.322 494.684 954.176 494.684C956.012 494.684 957.56 496.358 957.56 498.338C957.56 500.336 956.012 502.01 954.176 502.01ZM967.764 493.694V499.616C967.764 500.912 966.45 502.01 964.884 502.01C963.516 502.01 962.562 500.948 962.562 499.436V493.694H961.212V499.616C961.212 501.722 962.652 503.216 964.704 503.216C966.018 503.216 967.224 502.496 967.764 501.506V503H969.114V493.694H967.764ZM976.292 493.478C974.978 493.478 973.772 494.198 973.232 495.188V493.694H971.882V503H973.232V497.078C973.232 495.782 974.546 494.684 976.112 494.684C977.48 494.684 978.434 495.746 978.434 497.258V503H979.784V497.078C979.784 494.972 978.344 493.478 976.292 493.478ZM986.836 503.216C988.132 503.216 989.32 502.676 990.202 501.794L989.266 500.876C988.636 501.578 987.772 502.01 986.836 502.01C984.982 502.01 983.434 500.336 983.434 498.338C983.434 496.358 984.982 494.684 986.836 494.684C987.754 494.684 988.6 495.098 989.212 495.764L990.148 494.846C989.266 494 988.096 493.478 986.836 493.478C984.226 493.478 982.012 495.692 982.012 498.338C982.012 500.984 984.226 503.216 986.836 503.216ZM992.938 492.002C993.424 492.002 993.82 491.588 993.82 491.102C993.82 490.634 993.424 490.22 992.938 490.22C992.434 490.22 992.038 490.634 992.038 491.102C992.038 491.588 992.434 492.002 992.938 492.002ZM992.254 503H993.604V493.694H992.254V503ZM996.315 503H997.665V490.418H996.315V503ZM1009.21 503H1010.62V491.966H1014.78V490.634H1005.06V491.966H1009.21V503ZM1018.43 495.512V493.694H1017.08V503H1018.43V497.798C1018.43 495.98 1019.92 494.684 1022.03 494.684V493.478C1020.32 493.478 1018.99 494.27 1018.43 495.512ZM1028.09 502.01C1026.25 502.01 1024.98 500.678 1024.78 498.86H1032.39C1032.39 495.602 1030.79 493.478 1027.98 493.478C1025.48 493.478 1023.39 495.548 1023.39 498.32C1023.39 501.182 1025.62 503.216 1028.11 503.216C1029.4 503.216 1031.04 502.658 1031.85 501.776L1031.02 500.894C1030.45 501.524 1029.19 502.01 1028.09 502.01ZM1028.04 494.684C1029.89 494.684 1030.88 495.98 1031.06 497.654H1024.8C1025.05 495.854 1026.38 494.684 1028.04 494.684ZM1038.38 493.478C1037.48 493.478 1036.36 493.712 1035.03 494.378L1035.57 495.476C1036.42 495.044 1037.35 494.63 1038.29 494.63C1040.31 494.63 1040.81 496.07 1040.81 497.33V497.672C1039.86 497.366 1038.79 497.15 1037.79 497.15C1035.79 497.15 1034.13 498.392 1034.13 500.246C1034.13 502.082 1035.57 503.216 1037.53 503.216C1038.76 503.216 1040.14 502.64 1040.81 501.542V503H1042.16V497.33C1042.16 495.08 1040.92 493.478 1038.38 493.478ZM1037.77 502.028C1036.45 502.028 1035.45 501.344 1035.45 500.192C1035.45 499.076 1036.62 498.284 1038 498.284C1039.01 498.284 1039.96 498.428 1040.81 498.662V500.084C1040.45 501.398 1038.99 502.028 1037.77 502.028ZM1048.21 503.216C1050.14 503.216 1051.61 502.118 1051.61 500.408C1051.61 498.644 1050.07 498.14 1048.57 497.672C1046.84 497.114 1046.16 496.862 1046.16 496.052C1046.16 495.152 1047.02 494.684 1048.07 494.684C1048.9 494.684 1049.81 494.972 1050.75 495.566L1051.4 494.522C1050.41 493.874 1049.22 493.478 1048.07 493.478C1046.21 493.478 1044.81 494.522 1044.81 496.214C1044.81 497.546 1045.67 498.212 1047.92 498.86C1049.18 499.22 1050.26 499.544 1050.26 500.552C1050.26 501.434 1049.44 502.01 1048.21 502.01C1047.19 502.01 1046.12 501.614 1045.06 500.84L1044.36 501.83C1045.48 502.73 1046.92 503.216 1048.21 503.216ZM1060.4 493.694V499.616C1060.4 500.912 1059.09 502.01 1057.52 502.01C1056.15 502.01 1055.2 500.948 1055.2 499.436V493.694H1053.85V499.616C1053.85 501.722 1055.29 503.216 1057.34 503.216C1058.65 503.216 1059.86 502.496 1060.4 501.506V503H1061.75V493.694H1060.4ZM1065.98 495.512V493.694H1064.63V503H1065.98V497.798C1065.98 495.98 1067.47 494.684 1069.58 494.684V493.478C1067.87 493.478 1066.53 494.27 1065.98 495.512ZM1072.83 506.24C1074.11 506.222 1075.01 505.628 1075.66 504.044L1079.9 493.694H1078.45L1075.37 501.434L1072.11 493.694H1070.62L1074.67 503.036L1074.13 504.188C1073.77 504.818 1073.37 505.016 1072.78 505.016C1072.38 505.016 1072 504.944 1071.68 504.782L1071.35 505.934C1071.79 506.132 1072.29 506.24 1072.83 506.24Z" fill="#29264C"/>
<rect y="200" width="269" height="60" rx="10" fill="#F7F9FD"/>
<path d="M259 200C264.523 200 269 204.477 269 210V250C269 255.523 264.523 260 259 260V200Z" fill="#FFB3B3"/>
<path d="M107.779 236H109.309L103.855 223.634H102.325L96.8709 236H98.4009L99.6429 233.192H106.537L107.779 236ZM100.219 231.86L103.099 225.362L105.961 231.86H100.219ZM118.523 223.418V228.44C117.821 227.216 116.633 226.478 115.139 226.478C112.691 226.478 110.855 228.494 110.855 231.338C110.855 234.2 112.691 236.216 115.139 236.216C116.633 236.216 117.821 235.478 118.523 234.254V236H119.873V223.418H118.523ZM115.391 235.01C113.573 235.01 112.277 233.48 112.277 231.338C112.277 229.196 113.573 227.684 115.391 227.684C117.227 227.684 118.523 229.196 118.523 231.338C118.523 233.48 117.227 235.01 115.391 235.01ZM125.807 236H127.103L131.009 226.694H129.497L126.455 234.416L123.359 226.694H121.847L125.807 236ZM133.538 225.002C134.024 225.002 134.42 224.588 134.42 224.102C134.42 223.634 134.024 223.22 133.538 223.22C133.034 223.22 132.638 223.634 132.638 224.102C132.638 224.588 133.034 225.002 133.538 225.002ZM132.854 236H134.204V226.694H132.854V236ZM140.209 236.216C142.135 236.216 143.611 235.118 143.611 233.408C143.611 231.644 142.063 231.14 140.569 230.672C138.841 230.114 138.157 229.862 138.157 229.052C138.157 228.152 139.021 227.684 140.065 227.684C140.893 227.684 141.811 227.972 142.747 228.566L143.395 227.522C142.405 226.874 141.217 226.478 140.065 226.478C138.211 226.478 136.807 227.522 136.807 229.214C136.807 230.546 137.671 231.212 139.921 231.86C141.181 232.22 142.261 232.544 142.261 233.552C142.261 234.434 141.433 235.01 140.209 235.01C139.183 235.01 138.121 234.614 137.059 233.84L136.357 234.83C137.473 235.73 138.913 236.216 140.209 236.216ZM150.165 236.216C152.775 236.216 154.971 233.984 154.971 231.338C154.971 228.692 152.775 226.478 150.165 226.478C147.555 226.478 145.341 228.692 145.341 231.338C145.341 233.984 147.555 236.216 150.165 236.216ZM150.165 235.01C148.311 235.01 146.763 233.336 146.763 231.338C146.763 229.358 148.311 227.684 150.165 227.684C152.001 227.684 153.549 229.358 153.549 231.338C153.549 233.336 152.001 235.01 150.165 235.01ZM158.676 228.512V226.694H157.326V236H158.676V230.798C158.676 228.98 160.17 227.684 162.276 227.684V226.478C160.566 226.478 159.234 227.27 158.676 228.512ZM167.437 236.216C169.363 236.216 170.839 235.118 170.839 233.408C170.839 231.644 169.291 231.14 167.797 230.672C166.069 230.114 165.385 229.862 165.385 229.052C165.385 228.152 166.249 227.684 167.293 227.684C168.121 227.684 169.039 227.972 169.975 228.566L170.623 227.522C169.633 226.874 168.445 226.478 167.293 226.478C165.439 226.478 164.035 227.522 164.035 229.214C164.035 230.546 164.899 231.212 167.149 231.86C168.409 232.22 169.489 232.544 169.489 233.552C169.489 234.434 168.661 235.01 167.437 235.01C166.411 235.01 165.349 234.614 164.287 233.84L163.585 234.83C164.701 235.73 166.141 236.216 167.437 236.216Z" fill="#29264C"/>
<rect y="90" width="269" height="60" rx="10" fill="#F7F9FD"/>
<path d="M259 90C264.523 90 269 94.4772 269 100V140C269 145.523 264.523 150 259 150V90Z" fill="#FF8080"/>
<path d="M68.4718 114.966V113.634H59.5978V126H61.0198V120.366H67.7338V119.034H61.0198V114.966H68.4718ZM74.8325 126.216C77.4425 126.216 79.6385 123.984 79.6385 121.338C79.6385 118.692 77.4425 116.478 74.8325 116.478C72.2225 116.478 70.0085 118.692 70.0085 121.338C70.0085 123.984 72.2225 126.216 74.8325 126.216ZM74.8325 125.01C72.9785 125.01 71.4305 123.336 71.4305 121.338C71.4305 119.358 72.9785 117.684 74.8325 117.684C76.6685 117.684 78.2165 119.358 78.2165 121.338C78.2165 123.336 76.6685 125.01 74.8325 125.01ZM88.42 116.694V122.616C88.42 123.912 87.106 125.01 85.54 125.01C84.172 125.01 83.218 123.948 83.218 122.436V116.694H81.868V122.616C81.868 124.722 83.308 126.216 85.36 126.216C86.674 126.216 87.88 125.496 88.42 124.506V126H89.77V116.694H88.42ZM96.9483 116.478C95.6343 116.478 94.4283 117.198 93.8883 118.188V116.694H92.5383V126H93.8883V120.078C93.8883 118.782 95.2023 117.684 96.7683 117.684C98.1363 117.684 99.0903 118.746 99.0903 120.258V126H100.44V120.078C100.44 117.972 99.0003 116.478 96.9483 116.478ZM110.445 113.418V118.44C109.743 117.216 108.555 116.478 107.061 116.478C104.613 116.478 102.777 118.494 102.777 121.338C102.777 124.2 104.613 126.216 107.061 126.216C108.555 126.216 109.743 125.478 110.445 124.254V126H111.795V113.418H110.445ZM107.313 125.01C105.495 125.01 104.199 123.48 104.199 121.338C104.199 119.196 105.495 117.684 107.313 117.684C109.149 117.684 110.445 119.196 110.445 121.338C110.445 123.48 109.149 125.01 107.313 125.01ZM118.845 125.01C117.009 125.01 115.731 123.678 115.533 121.86H123.147C123.147 118.602 121.545 116.478 118.737 116.478C116.235 116.478 114.147 118.548 114.147 121.32C114.147 124.182 116.379 126.216 118.863 126.216C120.159 126.216 121.797 125.658 122.607 124.776L121.779 123.894C121.203 124.524 119.943 125.01 118.845 125.01ZM118.791 117.684C120.645 117.684 121.635 118.98 121.815 120.654H115.551C115.803 118.854 117.135 117.684 118.791 117.684ZM126.832 118.512V116.694H125.482V126H126.832V120.798C126.832 118.98 128.326 117.684 130.432 117.684V116.478C128.722 116.478 127.39 117.27 126.832 118.512ZM135.594 126.216C137.52 126.216 138.996 125.118 138.996 123.408C138.996 121.644 137.448 121.14 135.954 120.672C134.226 120.114 133.542 119.862 133.542 119.052C133.542 118.152 134.406 117.684 135.45 117.684C136.278 117.684 137.196 117.972 138.132 118.566L138.78 117.522C137.79 116.874 136.602 116.478 135.45 116.478C133.596 116.478 132.192 117.522 132.192 119.214C132.192 120.546 133.056 121.212 135.306 121.86C136.566 122.22 137.646 122.544 137.646 123.552C137.646 124.434 136.818 125.01 135.594 125.01C134.568 125.01 133.506 124.614 132.444 123.84L131.742 124.83C132.858 125.73 134.298 126.216 135.594 126.216ZM156.386 125.532L154.334 123.444C154.964 122.544 155.522 121.464 156.044 120.312L154.874 119.79C154.496 120.816 154.01 121.752 153.47 122.562C152.354 121.392 151.49 120.456 150.644 119.466C152.408 118.764 153.668 117.99 153.668 116.352C153.668 114.804 152.408 113.49 150.752 113.49C148.898 113.49 147.602 114.768 147.602 116.388C147.602 117.306 147.944 118.134 148.646 119.106C146.738 119.952 145.82 121.122 145.82 122.724C145.82 124.884 147.512 126.216 149.708 126.216C151.238 126.216 152.462 125.55 153.488 124.488L155.108 126.126L156.386 125.532ZM150.752 114.696C151.67 114.696 152.318 115.434 152.318 116.388C152.318 117.414 151.58 117.954 149.924 118.602C149.258 117.756 148.952 117.036 148.952 116.388C148.952 115.326 149.726 114.696 150.752 114.696ZM149.762 125.01C148.358 125.01 147.17 124.146 147.17 122.688C147.17 121.536 147.998 120.636 149.348 120.006C150.212 121.05 151.148 122.076 152.624 123.606C151.796 124.488 150.842 125.01 149.762 125.01ZM167.329 126H168.733V114.966H172.891V113.634H163.171V114.966H167.329V126ZM179.261 125.01C177.425 125.01 176.147 123.678 175.949 121.86H183.563C183.563 118.602 181.961 116.478 179.153 116.478C176.651 116.478 174.563 118.548 174.563 121.32C174.563 124.182 176.795 126.216 179.279 126.216C180.575 126.216 182.213 125.658 183.023 124.776L182.195 123.894C181.619 124.524 180.359 125.01 179.261 125.01ZM179.207 117.684C181.061 117.684 182.051 118.98 182.231 120.654H175.967C176.219 118.854 177.551 117.684 179.207 117.684ZM189.552 116.478C188.652 116.478 187.536 116.712 186.204 117.378L186.744 118.476C187.59 118.044 188.526 117.63 189.462 117.63C191.478 117.63 191.982 119.07 191.982 120.33V120.672C191.028 120.366 189.966 120.15 188.958 120.15C186.96 120.15 185.304 121.392 185.304 123.246C185.304 125.082 186.744 126.216 188.706 126.216C189.93 126.216 191.316 125.64 191.982 124.542V126H193.332V120.33C193.332 118.08 192.09 116.478 189.552 116.478ZM188.94 125.028C187.626 125.028 186.618 124.344 186.618 123.192C186.618 122.076 187.788 121.284 189.174 121.284C190.182 121.284 191.136 121.428 191.982 121.662V123.084C191.622 124.398 190.164 125.028 188.94 125.028ZM206.153 116.478C204.749 116.478 203.525 117.252 203.147 118.458C202.643 117.252 201.545 116.478 200.141 116.478C198.917 116.478 197.909 117.09 197.441 118.062V116.694H196.091V126H197.441V120.078C197.441 118.674 198.485 117.684 199.961 117.684C201.221 117.684 202.103 118.746 202.103 120.258V126H203.453V120.078C203.453 118.674 204.497 117.684 205.973 117.684C207.233 117.684 208.115 118.746 208.115 120.258V126H209.465V120.078C209.465 117.972 208.097 116.478 206.153 116.478Z" fill="#29264C"/>
<rect y="319" width="269" height="60" rx="10" fill="#F7F9FD"/>
<path d="M259 319C264.523 319 269 323.477 269 329V369C269 374.523 264.523 379 259 379V319Z" fill="#7996C9"/>
<path d="M49.5167 355H50.9207V350.554H54.5387C57.0947 350.554 59.0927 348.916 59.0927 346.594C59.0927 344.272 57.0947 342.634 54.5387 342.634H49.5167V355ZM50.9207 349.222V343.966H54.2867C56.3027 343.966 57.6707 344.938 57.6707 346.594C57.6707 348.25 56.3027 349.222 54.2867 349.222H50.9207ZM62.5227 347.512V345.694H61.1727V355H62.5227V349.798C62.5227 347.98 64.0167 346.684 66.1227 346.684V345.478C64.4127 345.478 63.0807 346.27 62.5227 347.512ZM68.6561 344.002C69.1421 344.002 69.5381 343.588 69.5381 343.102C69.5381 342.634 69.1421 342.22 68.6561 342.22C68.1521 342.22 67.7561 342.634 67.7561 343.102C67.7561 343.588 68.1521 344.002 68.6561 344.002ZM67.9721 355H69.3221V345.694H67.9721V355ZM75.111 355H76.407L80.313 345.694H78.801L75.759 353.416L72.663 345.694H71.151L75.111 355ZM85.2349 345.478C84.3349 345.478 83.2189 345.712 81.8869 346.378L82.4269 347.476C83.2729 347.044 84.2089 346.63 85.1449 346.63C87.1609 346.63 87.6649 348.07 87.6649 349.33V349.672C86.7109 349.366 85.6489 349.15 84.6409 349.15C82.6429 349.15 80.9869 350.392 80.9869 352.246C80.9869 354.082 82.4269 355.216 84.3889 355.216C85.6129 355.216 86.9989 354.64 87.6649 353.542V355H89.0149V349.33C89.0149 347.08 87.7729 345.478 85.2349 345.478ZM84.6229 354.028C83.3089 354.028 82.3009 353.344 82.3009 352.192C82.3009 351.076 83.4709 350.284 84.8569 350.284C85.8649 350.284 86.8189 350.428 87.6649 350.662V352.084C87.3049 353.398 85.8469 354.028 84.6229 354.028ZM95.8593 353.632C95.6613 353.848 95.3013 354.01 94.8873 354.01C94.3473 354.01 93.8793 353.524 93.8793 352.84V346.9H96.1653V345.694H93.8793V343.138H92.5293V345.694H91.0713V346.9H92.5293V352.84C92.5293 354.226 93.4653 355.216 94.7973 355.216C95.4273 355.216 96.0393 355 96.5253 354.622L95.8593 353.632ZM102.629 354.01C100.793 354.01 99.5154 352.678 99.3174 350.86H106.931C106.931 347.602 105.329 345.478 102.521 345.478C100.019 345.478 97.9314 347.548 97.9314 350.32C97.9314 353.182 100.163 355.216 102.647 355.216C103.943 355.216 105.581 354.658 106.391 353.776L105.563 352.894C104.987 353.524 103.727 354.01 102.629 354.01ZM102.575 346.684C104.429 346.684 105.419 347.98 105.599 349.654H99.3354C99.5874 347.854 100.919 346.684 102.575 346.684ZM120.265 355.216C121.975 355.216 123.559 354.478 124.711 353.326L123.757 352.354C122.857 353.308 121.615 353.92 120.265 353.92C117.601 353.92 115.351 351.58 115.351 348.808C115.351 346.054 117.601 343.714 120.265 343.714C121.615 343.714 122.857 344.326 123.757 345.28L124.711 344.308C123.559 343.138 121.975 342.418 120.265 342.418C116.845 342.418 113.929 345.334 113.929 348.808C113.929 352.282 116.845 355.216 120.265 355.216ZM130.916 355.216C133.526 355.216 135.722 352.984 135.722 350.338C135.722 347.692 133.526 345.478 130.916 345.478C128.306 345.478 126.092 347.692 126.092 350.338C126.092 352.984 128.306 355.216 130.916 355.216ZM130.916 354.01C129.062 354.01 127.514 352.336 127.514 350.338C127.514 348.358 129.062 346.684 130.916 346.684C132.752 346.684 134.3 348.358 134.3 350.338C134.3 352.336 132.752 354.01 130.916 354.01ZM142.379 345.478C141.065 345.478 139.859 346.198 139.319 347.188V345.694H137.969V355H139.319V349.078C139.319 347.782 140.633 346.684 142.199 346.684C143.567 346.684 144.521 347.746 144.521 349.258V355H145.871V349.078C145.871 346.972 144.431 345.478 142.379 345.478ZM152.689 353.632C152.491 353.848 152.131 354.01 151.717 354.01C151.177 354.01 150.709 353.524 150.709 352.84V346.9H152.995V345.694H150.709V343.138H149.359V345.694H147.901V346.9H149.359V352.84C149.359 354.226 150.295 355.216 151.627 355.216C152.257 355.216 152.869 355 153.355 354.622L152.689 353.632ZM156.741 347.512V345.694H155.391V355H156.741V349.798C156.741 347.98 158.235 346.684 160.341 346.684V345.478C158.631 345.478 157.299 346.27 156.741 347.512ZM162.875 344.002C163.361 344.002 163.757 343.588 163.757 343.102C163.757 342.634 163.361 342.22 162.875 342.22C162.371 342.22 161.975 342.634 161.975 343.102C161.975 343.588 162.371 344.002 162.875 344.002ZM162.191 355H163.541V345.694H162.191V355ZM171.112 345.478C169.618 345.478 168.43 346.216 167.728 347.44V342.418H166.378V355H167.728V353.254C168.43 354.478 169.618 355.216 171.112 355.216C173.56 355.216 175.396 353.2 175.396 350.338C175.396 347.494 173.56 345.478 171.112 345.478ZM170.86 354.01C169.024 354.01 167.728 352.48 167.728 350.338C167.728 348.196 169.024 346.684 170.86 346.684C172.678 346.684 173.974 348.196 173.974 350.338C173.974 352.48 172.678 354.01 170.86 354.01ZM184.282 345.694V351.616C184.282 352.912 182.968 354.01 181.402 354.01C180.034 354.01 179.08 352.948 179.08 351.436V345.694H177.73V351.616C177.73 353.722 179.17 355.216 181.222 355.216C182.536 355.216 183.742 354.496 184.282 353.506V355H185.632V345.694H184.282ZM192.469 353.632C192.271 353.848 191.911 354.01 191.497 354.01C190.957 354.01 190.489 353.524 190.489 352.84V346.9H192.775V345.694H190.489V343.138H189.139V345.694H187.681V346.9H189.139V352.84C189.139 354.226 190.075 355.216 191.407 355.216C192.037 355.216 192.649 355 193.135 354.622L192.469 353.632ZM199.365 355.216C201.975 355.216 204.171 352.984 204.171 350.338C204.171 347.692 201.975 345.478 199.365 345.478C196.755 345.478 194.541 347.692 194.541 350.338C194.541 352.984 196.755 355.216 199.365 355.216ZM199.365 354.01C197.511 354.01 195.963 352.336 195.963 350.338C195.963 348.358 197.511 346.684 199.365 346.684C201.201 346.684 202.749 348.358 202.749 350.338C202.749 352.336 201.201 354.01 199.365 354.01ZM207.876 347.512V345.694H206.526V355H207.876V349.798C207.876 347.98 209.37 346.684 211.476 346.684V345.478C209.766 345.478 208.434 346.27 207.876 347.512ZM216.638 355.216C218.564 355.216 220.04 354.118 220.04 352.408C220.04 350.644 218.492 350.14 216.998 349.672C215.27 349.114 214.586 348.862 214.586 348.052C214.586 347.152 215.45 346.684 216.494 346.684C217.322 346.684 218.24 346.972 219.176 347.566L219.824 346.522C218.834 345.874 217.646 345.478 216.494 345.478C214.64 345.478 213.236 346.522 213.236 348.214C213.236 349.546 214.1 350.212 216.35 350.86C217.61 351.22 218.69 351.544 218.69 352.552C218.69 353.434 217.862 354.01 216.638 354.01C215.612 354.01 214.55 353.614 213.488 352.84L212.786 353.83C213.902 354.73 215.342 355.216 216.638 355.216Z" fill="#29264C"/>
<rect y="431" width="269" height="60" rx="10" fill="#F7F9FD"/>
<path d="M259 431C264.523 431 269 435.477 269 441V481C269 486.523 264.523 491 259 491V431Z" fill="#A3B3D0"/>
<path d="M49.8077 467H51.2117V462.554H54.8297C57.3857 462.554 59.3837 460.916 59.3837 458.594C59.3837 456.272 57.3857 454.634 54.8297 454.634H49.8077V467ZM51.2117 461.222V455.966H54.5777C56.5937 455.966 57.9617 456.938 57.9617 458.594C57.9617 460.25 56.5937 461.222 54.5777 461.222H51.2117ZM67.8897 457.694V463.616C67.8897 464.912 66.5757 466.01 65.0097 466.01C63.6417 466.01 62.6877 464.948 62.6877 463.436V457.694H61.3377V463.616C61.3377 465.722 62.7777 467.216 64.8297 467.216C66.1437 467.216 67.3497 466.496 67.8897 465.506V467H69.2397V457.694H67.8897ZM76.8501 457.478C75.3561 457.478 74.1681 458.216 73.4661 459.44V454.418H72.1161V467H73.4661V465.254C74.1681 466.478 75.3561 467.216 76.8501 467.216C79.2981 467.216 81.1341 465.2 81.1341 462.338C81.1341 459.494 79.2981 457.478 76.8501 457.478ZM76.5981 466.01C74.7621 466.01 73.4661 464.48 73.4661 462.338C73.4661 460.196 74.7621 458.684 76.5981 458.684C78.4161 458.684 79.7121 460.196 79.7121 462.338C79.7121 464.48 78.4161 466.01 76.5981 466.01ZM83.4686 467H84.8186V454.418H83.4686V467ZM88.2127 456.002C88.6987 456.002 89.0947 455.588 89.0947 455.102C89.0947 454.634 88.6987 454.22 88.2127 454.22C87.7087 454.22 87.3127 454.634 87.3127 455.102C87.3127 455.588 87.7087 456.002 88.2127 456.002ZM87.5287 467H88.8787V457.694H87.5287V467ZM95.9097 467.216C97.2057 467.216 98.3937 466.676 99.2757 465.794L98.3397 464.876C97.7097 465.578 96.8457 466.01 95.9097 466.01C94.0557 466.01 92.5077 464.336 92.5077 462.338C92.5077 460.358 94.0557 458.684 95.9097 458.684C96.8277 458.684 97.6737 459.098 98.2857 459.764L99.2217 458.846C98.3397 458 97.1697 457.478 95.9097 457.478C93.2997 457.478 91.0857 459.692 91.0857 462.338C91.0857 464.984 93.2997 467.216 95.9097 467.216ZM107.826 465.668V454.634H106.422V467H114.576V465.668H107.826ZM117.217 456.002C117.703 456.002 118.099 455.588 118.099 455.102C118.099 454.634 117.703 454.22 117.217 454.22C116.713 454.22 116.317 454.634 116.317 455.102C116.317 455.588 116.713 456.002 117.217 456.002ZM116.533 467H117.883V457.694H116.533V467ZM127.866 457.694V459.44C127.164 458.216 125.976 457.478 124.482 457.478C122.034 457.478 120.198 459.494 120.198 462.338C120.198 465.2 122.034 467.216 124.482 467.216C125.976 467.216 127.164 466.478 127.866 465.254V470.096H129.216V457.694H127.866ZM124.734 466.01C122.916 466.01 121.62 464.48 121.62 462.338C121.62 460.196 122.916 458.684 124.734 458.684C126.57 458.684 127.866 460.196 127.866 462.338C127.866 464.48 126.57 466.01 124.734 466.01ZM138.624 457.694V463.616C138.624 464.912 137.31 466.01 135.744 466.01C134.376 466.01 133.422 464.948 133.422 463.436V457.694H132.072V463.616C132.072 465.722 133.512 467.216 135.564 467.216C136.878 467.216 138.084 466.496 138.624 465.506V467H139.974V457.694H138.624ZM143.39 456.002C143.876 456.002 144.272 455.588 144.272 455.102C144.272 454.634 143.876 454.22 143.39 454.22C142.886 454.22 142.49 454.634 142.49 455.102C142.49 455.588 142.886 456.002 143.39 456.002ZM142.706 467H144.056V457.694H142.706V467ZM154.039 454.418V459.44C153.337 458.216 152.149 457.478 150.655 457.478C148.207 457.478 146.371 459.494 146.371 462.338C146.371 465.2 148.207 467.216 150.655 467.216C152.149 467.216 153.337 466.478 154.039 465.254V467H155.389V454.418H154.039ZM150.907 466.01C149.089 466.01 147.793 464.48 147.793 462.338C147.793 460.196 149.089 458.684 150.907 458.684C152.743 458.684 154.039 460.196 154.039 462.338C154.039 464.48 152.743 466.01 150.907 466.01ZM158.912 456.002C159.398 456.002 159.794 455.588 159.794 455.102C159.794 454.634 159.398 454.22 158.912 454.22C158.408 454.22 158.012 454.634 158.012 455.102C158.012 455.588 158.408 456.002 158.912 456.002ZM158.228 467H159.578V457.694H158.228V467ZM166.375 465.632C166.177 465.848 165.817 466.01 165.403 466.01C164.863 466.01 164.395 465.524 164.395 464.84V458.9H166.681V457.694H164.395V455.138H163.045V457.694H161.587V458.9H163.045V464.84C163.045 466.226 163.981 467.216 165.313 467.216C165.943 467.216 166.555 467 167.041 466.622L166.375 465.632ZM170.337 470.24C171.615 470.222 172.515 469.628 173.163 468.044L177.411 457.694H175.953L172.875 465.434L169.617 457.694H168.123L172.173 467.036L171.633 468.188C171.273 468.818 170.877 469.016 170.283 469.016C169.887 469.016 169.509 468.944 169.185 468.782L168.861 469.934C169.293 470.132 169.797 470.24 170.337 470.24ZM189.18 467.198C192.06 467.198 193.536 465.596 193.536 463.634C193.536 461.456 191.844 460.61 189.486 460.052C187.38 459.548 186.156 459.098 186.156 457.82C186.156 456.686 187.272 455.678 188.802 455.678C190.098 455.678 191.322 456.272 192.348 457.262L193.212 456.164C192.078 455.12 190.71 454.4 188.874 454.4C186.498 454.4 184.734 455.948 184.734 457.928C184.734 460.07 186.3 460.844 188.784 461.42C190.944 461.924 192.114 462.446 192.114 463.76C192.114 464.876 191.142 465.92 189.234 465.92C187.506 465.92 186.228 465.182 185.184 464.138L184.302 465.236C185.544 466.46 187.146 467.198 189.18 467.198ZM199.661 457.478C198.761 457.478 197.645 457.712 196.313 458.378L196.853 459.476C197.699 459.044 198.635 458.63 199.571 458.63C201.587 458.63 202.091 460.07 202.091 461.33V461.672C201.137 461.366 200.075 461.15 199.067 461.15C197.069 461.15 195.413 462.392 195.413 464.246C195.413 466.082 196.853 467.216 198.815 467.216C200.039 467.216 201.425 466.64 202.091 465.542V467H203.441V461.33C203.441 459.08 202.199 457.478 199.661 457.478ZM199.049 466.028C197.735 466.028 196.727 465.344 196.727 464.192C196.727 463.076 197.897 462.284 199.283 462.284C200.291 462.284 201.245 462.428 202.091 462.662V464.084C201.731 465.398 200.273 466.028 199.049 466.028ZM206.199 467H207.549V454.418H206.199V467ZM214.471 466.01C212.635 466.01 211.357 464.678 211.159 462.86H218.773C218.773 459.602 217.171 457.478 214.363 457.478C211.861 457.478 209.773 459.548 209.773 462.32C209.773 465.182 212.005 467.216 214.489 467.216C215.785 467.216 217.423 466.658 218.233 465.776L217.405 464.894C216.829 465.524 215.569 466.01 214.471 466.01ZM214.417 458.684C216.271 458.684 217.261 459.98 217.441 461.654H211.177C211.429 459.854 212.761 458.684 214.417 458.684Z" fill="#29264C"/>
</svg>
