<svg width="619" height="835" viewBox="0 0 619 835" fill="none" xmlns="http://www.w3.org/2000/svg">
<path d="M304 637L304 780L350.5 806" stroke="#88D1C3" stroke-width="2"/>
<path d="M148 127L148 251" stroke="#FF8080" stroke-width="2"/>
<path opacity="0.24" d="M303 277.357C334.941 277.357 366.062 287.469 391.903 306.244C417.744 325.018 436.978 351.491 446.848 381.869C456.718 412.247 456.718 444.969 446.848 475.347C436.978 505.725 416.744 533.198 390.903 551.972L339.269 480.904C350.101 473.034 359.164 460.936 363.302 448.201C367.44 435.467 367.44 421.749 363.302 409.015C359.164 396.28 351.101 385.182 340.269 377.312C329.436 369.441 316.39 365.202 303 365.202V277.357Z" fill="#7068AA"/>
<path d="M338.995 159C393.05 166.217 443.688 189.516 484.336 225.873C524.983 262.231 553.764 309.967 566.941 362.886C580.118 415.805 577.083 471.464 558.231 522.636C539.378 573.809 505.579 618.134 461.219 649.856L391.017 551.688C415.694 534.041 434.497 509.383 444.984 480.916C455.472 452.448 457.16 421.486 449.83 392.047C442.499 362.608 426.489 336.053 403.877 315.827C381.264 295.602 353.095 282.64 323.024 278.626L338.995 159Z" fill="#7068AA"/>
<path d="M318.251 637.048C277.701 640.029 237.167 631.061 201.66 611.251L229.731 560.936C255.403 575.258 284.709 581.743 314.026 579.587L318.251 637.048Z" fill="#88D1C3"/>
<path d="M173.226 606.256C143.224 584.339 119.261 555.18 103.573 521.499C87.8846 487.818 80.4727 450.677 83.0001 413.608L151.7 418.292C149.964 443.759 155.216 469.285 165.993 492.424C176.771 515.563 193.234 535.595 213.845 550.652L173.226 606.256Z" fill="#7996C9"/>
<path d="M99.4775 414.661C100.686 397.024 104.182 379.619 109.878 362.884L159.51 379.775C155.278 392.209 152.681 405.141 151.783 418.245L99.4775 414.661Z" fill="#FFB3B3"/>
<path d="M78.6484 352.219C94.6261 305.293 124.916 264.558 165.255 235.747C205.595 206.936 253.953 191.499 303.524 191.608L303.335 277.092C271.644 277.021 240.728 286.89 214.938 305.31C189.149 323.729 169.784 349.771 159.569 379.772L78.6484 352.219Z" fill="#FF8080"/>
<path d="M216 586.108C209.464 582.465 202.532 578.148 196.5 573.721L213.474 550.593C218.545 554.315 224.472 557.986 229.966 561.049L216 586.108Z" fill="#A3B3D0"/>
<path opacity="0.6" d="M303 252.608C311.268 252.608 319.526 253.191 327.712 254.351L324.275 278.587C317.227 277.587 310.118 277.086 303 277.086V252.608Z" fill="#7068AA"/>
<path opacity="0.24" d="M390.892 551.98C367.67 568.849 341.129 577.761 312.483 579.561C283.838 581.361 255.273 574.973 230.122 561.143L251.548 522.178C269.304 531.941 289.472 536.451 309.695 535.181C329.919 533.91 348.363 527.912 364.758 516.003L390.892 551.98Z" fill="#73D7C3"/>
<path opacity="0.24" d="M230.122 561.143C204.972 547.314 184.276 526.614 170.451 501.461C156.626 476.308 149.816 446.956 151.621 418.311L196 421.108C194.726 441.331 199.66 462.284 209.42 480.042C219.181 497.8 233.792 512.414 251.548 522.178L230.122 561.143Z" fill="#7996C9"/>
<path opacity="0.24" d="M151.669 418.261C154.097 379.867 171.446 344.642 199.498 318.316C227.551 291.991 264.58 277.344 303.05 277.357L303.03 338.31C280.063 338.303 257.956 347.047 241.209 362.763C224.462 378.48 213.95 399.187 212.5 422.108L151.669 418.261Z" fill="#FF8080"/>
<path d="M120 389L1.5 356.5L1.5 37.5L14 29" stroke="#FFB3B3" stroke-width="2"/>
<path d="M487 253L487 134" stroke="#7068AA" stroke-width="2"/>
<path d="M315 256L315 60L349.5 29" stroke="#A9A4CC" stroke-width="2"/>
<path d="M207 573L183 626L183 725" stroke="#A3B3D0" stroke-width="2"/>
<path d="M387.75 725.859L387.749 574.359" stroke="#B8E3DB" stroke-width="2"/>
<path d="M424.5 598.108C393.087 621.08 357.143 634.173 318.333 637.042L314.085 579.583C342.145 577.509 368.289 568.217 391 551.608L424.5 598.108Z" fill="#B8E3DB"/>
<path d="M304.993 268.608H311.629V267.572H306.743L309.263 265.388C310.887 263.988 311.531 262.952 311.531 261.65C311.531 259.928 310.131 258.822 308.465 258.822C306.953 258.822 305.875 259.536 305.077 260.67L305.847 261.3C306.505 260.404 307.303 259.802 308.423 259.802C309.445 259.802 310.425 260.488 310.425 261.664C310.425 262.616 309.865 263.54 308.507 264.702L304.993 267.698V268.608ZM315.435 263.722C316.751 263.722 317.675 262.672 317.675 261.314C317.675 259.984 316.779 258.906 315.449 258.906C314.147 258.906 313.209 259.956 313.209 261.342C313.209 262.644 314.105 263.722 315.435 263.722ZM314.385 268.608H315.309L321.889 258.99H320.965L314.385 268.608ZM315.449 262.966C314.679 262.966 314.091 262.252 314.091 261.328C314.091 260.362 314.651 259.662 315.435 259.662C316.219 259.662 316.793 260.376 316.793 261.328C316.793 262.266 316.233 262.966 315.449 262.966ZM320.783 268.748C322.085 268.748 323.023 267.698 323.023 266.326C323.023 265.024 322.127 263.932 320.797 263.932C319.467 263.932 318.557 265.024 318.557 266.34C318.557 267.712 319.495 268.748 320.783 268.748ZM320.797 267.992C319.999 267.992 319.439 267.278 319.439 266.326C319.439 265.416 319.985 264.688 320.783 264.688C321.567 264.688 322.141 265.402 322.141 266.34C322.141 267.292 321.595 267.992 320.797 267.992Z" fill="white"/>
<path d="M204.993 572.608H211.629V571.572H206.743L209.263 569.388C210.887 567.988 211.531 566.952 211.531 565.65C211.531 563.928 210.131 562.822 208.465 562.822C206.953 562.822 205.875 563.536 205.077 564.67L205.847 565.3C206.505 564.404 207.303 563.802 208.423 563.802C209.445 563.802 210.425 564.488 210.425 565.664C210.425 566.616 209.865 567.54 208.507 568.702L204.993 571.698V572.608ZM215.435 567.722C216.751 567.722 217.675 566.672 217.675 565.314C217.675 563.984 216.779 562.906 215.449 562.906C214.147 562.906 213.209 563.956 213.209 565.342C213.209 566.644 214.105 567.722 215.435 567.722ZM214.385 572.608H215.309L221.889 562.99H220.965L214.385 572.608ZM215.449 566.966C214.679 566.966 214.091 566.252 214.091 565.328C214.091 564.362 214.651 563.662 215.435 563.662C216.219 563.662 216.793 564.376 216.793 565.328C216.793 566.266 216.233 566.966 215.449 566.966ZM220.783 572.748C222.085 572.748 223.023 571.698 223.023 570.326C223.023 569.024 222.127 567.932 220.797 567.932C219.467 567.932 218.557 569.024 218.557 570.34C218.557 571.712 219.495 572.748 220.783 572.748ZM220.797 571.992C219.999 571.992 219.439 571.278 219.439 570.326C219.439 569.416 219.985 568.688 220.783 568.688C221.567 568.688 222.141 569.402 222.141 570.34C222.141 571.292 221.595 571.992 220.797 571.992Z" fill="white"/>
<path d="M493.509 410.872C496.655 410.872 498.767 409.046 498.767 406.516C498.767 404.338 497.051 403.216 495.511 402.864C497.073 402.402 498.437 401.258 498.437 399.322C498.437 396.902 496.325 395.23 493.443 395.23C491.089 395.23 489.417 396.374 488.273 397.892L489.417 398.926C490.495 397.628 491.683 396.792 493.355 396.792C495.247 396.792 496.699 397.936 496.699 399.52C496.699 401.236 495.181 402.204 493.157 402.182L491.529 402.16V403.744H493.135C495.511 403.744 497.029 404.646 497.029 406.428C497.029 408.144 495.621 409.31 493.509 409.31C491.661 409.31 490.187 408.43 489.197 407.154L488.009 408.276C489.109 409.728 491.023 410.872 493.509 410.872ZM506.686 410.872C509.788 410.872 512.208 409.222 512.208 406.648C512.208 404.756 510.712 403.414 508.886 402.798C510.448 402.226 511.834 401.104 511.834 399.256C511.834 396.77 509.392 395.23 506.686 395.23C504.068 395.23 501.56 396.726 501.56 399.234C501.56 400.972 502.792 402.138 504.508 402.798C502.66 403.392 501.164 404.756 501.164 406.648C501.164 409.2 503.562 410.872 506.686 410.872ZM506.686 402.116C505.256 402.028 503.298 401.17 503.298 399.41C503.298 397.892 504.794 396.792 506.686 396.792C508.578 396.792 510.096 397.892 510.096 399.41C510.096 401.126 508.16 402.028 506.686 402.116ZM506.686 409.31C504.596 409.31 502.902 408.188 502.902 406.538C502.902 404.712 505.124 403.656 506.686 403.612C508.27 403.656 510.47 404.712 510.47 406.538C510.47 408.188 508.776 409.31 506.686 409.31ZM517.893 402.93C519.961 402.93 521.413 401.28 521.413 399.146C521.413 397.056 520.005 395.362 517.915 395.362C515.869 395.362 514.395 397.012 514.395 399.19C514.395 401.236 515.803 402.93 517.893 402.93ZM516.243 410.608H517.695L528.035 395.494H526.583L516.243 410.608ZM517.915 401.742C516.705 401.742 515.781 400.62 515.781 399.168C515.781 397.65 516.661 396.55 517.893 396.55C519.125 396.55 520.027 397.672 520.027 399.168C520.027 400.642 519.147 401.742 517.915 401.742ZM526.297 410.828C528.343 410.828 529.817 409.178 529.817 407.022C529.817 404.976 528.409 403.26 526.319 403.26C524.229 403.26 522.799 404.976 522.799 407.044C522.799 409.2 524.273 410.828 526.297 410.828ZM526.319 409.64C525.065 409.64 524.185 408.518 524.185 407.022C524.185 405.592 525.043 404.448 526.297 404.448C527.529 404.448 528.431 405.57 528.431 407.044C528.431 408.54 527.573 409.64 526.319 409.64Z" fill="white"/>
<path d="M199.621 352.608H200.557V345.252H203.329V344.364H196.849V345.252H199.621V352.608ZM210.731 345.252V344.364H204.815V352.608H210.731V351.72H205.763V348.852H210.239V347.964H205.763V345.252H210.731ZM219.047 352.608H220.067L216.431 344.364H215.411L211.775 352.608H212.795L213.623 350.736H218.219L219.047 352.608ZM214.007 349.848L215.927 345.516L217.835 349.848H214.007ZM221.577 352.608H222.513V346.38L225.573 352.128L228.633 346.38V352.608H229.569V344.364H228.633L225.573 350.112L222.513 344.364H221.577V352.608Z" fill="#29264C"/>
<path d="M370.288 399.608H371.224V391.364H370.288V399.608ZM373.304 399.608H374.24V392.9L379.352 399.608H380.288V391.364H379.352V398.072L374.24 391.364H373.304V399.608ZM386.258 399.752C387.398 399.752 388.454 399.26 389.222 398.492L388.586 397.844C387.986 398.48 387.158 398.888 386.258 398.888C384.482 398.888 382.982 397.328 382.982 395.48C382.982 393.644 384.482 392.084 386.258 392.084C387.158 392.084 387.986 392.492 388.586 393.128L389.222 392.48C388.454 391.7 387.398 391.22 386.258 391.22C383.978 391.22 382.034 393.164 382.034 395.48C382.034 397.796 383.978 399.752 386.258 399.752ZM396.43 392.252V391.364H390.514V399.608H396.43V398.72H391.462V395.852H395.938V394.964H391.462V392.252H396.43ZM398.218 399.608H399.154V392.9L404.266 399.608H405.202V391.364H404.266V398.072L399.154 391.364H398.218V399.608ZM409.636 399.608H410.572V392.252H413.344V391.364H406.864V392.252H409.636V399.608ZM414.831 399.608H415.767V391.364H414.831V399.608ZM424.375 391.364L421.255 398.456L418.123 391.364H417.103L420.739 399.608H421.759L425.395 391.364H424.375ZM432.641 392.252V391.364H426.725V399.608H432.641V398.72H427.673V395.852H432.149V394.964H427.673V392.252H432.641ZM437.105 399.74C439.025 399.74 440.009 398.672 440.009 397.364C440.009 395.912 438.881 395.348 437.309 394.976C435.905 394.64 435.089 394.34 435.089 393.488C435.089 392.732 435.833 392.06 436.853 392.06C437.717 392.06 438.533 392.456 439.217 393.116L439.793 392.384C439.037 391.688 438.125 391.208 436.901 391.208C435.317 391.208 434.141 392.24 434.141 393.56C434.141 394.988 435.185 395.504 436.841 395.888C438.281 396.224 439.061 396.572 439.061 397.448C439.061 398.192 438.413 398.888 437.141 398.888C435.989 398.888 435.137 398.396 434.441 397.7L433.853 398.432C434.681 399.248 435.749 399.74 437.105 399.74Z" fill="#29264C"/>
<path d="M356.74 604.872C359.842 604.872 362.262 603.222 362.262 600.648C362.262 598.756 360.766 597.414 358.94 596.798C360.502 596.226 361.888 595.104 361.888 593.256C361.888 590.77 359.446 589.23 356.74 589.23C354.122 589.23 351.614 590.726 351.614 593.234C351.614 594.972 352.846 596.138 354.562 596.798C352.714 597.392 351.218 598.756 351.218 600.648C351.218 603.2 353.616 604.872 356.74 604.872ZM356.74 596.116C355.31 596.028 353.352 595.17 353.352 593.41C353.352 591.892 354.848 590.792 356.74 590.792C358.632 590.792 360.15 591.892 360.15 593.41C360.15 595.126 358.214 596.028 356.74 596.116ZM356.74 603.31C354.65 603.31 352.956 602.188 352.956 600.538C352.956 598.712 355.178 597.656 356.74 597.612C358.324 597.656 360.524 598.712 360.524 600.538C360.524 602.188 358.83 603.31 356.74 603.31ZM367.948 596.93C370.016 596.93 371.468 595.28 371.468 593.146C371.468 591.056 370.06 589.362 367.97 589.362C365.924 589.362 364.45 591.012 364.45 593.19C364.45 595.236 365.858 596.93 367.948 596.93ZM366.298 604.608H367.75L378.09 589.494H376.638L366.298 604.608ZM367.97 595.742C366.76 595.742 365.836 594.62 365.836 593.168C365.836 591.65 366.716 590.55 367.948 590.55C369.18 590.55 370.082 591.672 370.082 593.168C370.082 594.642 369.202 595.742 367.97 595.742ZM376.352 604.828C378.398 604.828 379.872 603.178 379.872 601.022C379.872 598.976 378.464 597.26 376.374 597.26C374.284 597.26 372.854 598.976 372.854 601.044C372.854 603.2 374.328 604.828 376.352 604.828ZM376.374 603.64C375.12 603.64 374.24 602.518 374.24 601.022C374.24 599.592 375.098 598.448 376.352 598.448C377.584 598.448 378.486 599.57 378.486 601.044C378.486 602.54 377.628 603.64 376.374 603.64Z" fill="white"/>
<path d="M250.243 610.608H251.959V595.494H250.573L246.855 598.024L247.603 599.3L250.243 597.584V610.608ZM261.629 610.872C265.303 610.872 267.899 607.638 267.899 603.04C267.899 598.464 265.303 595.23 261.629 595.23C257.933 595.23 255.337 598.464 255.337 603.04C255.337 607.638 257.933 610.872 261.629 610.872ZM261.629 609.288C258.967 609.288 257.075 606.692 257.075 603.04C257.075 599.388 258.967 596.814 261.629 596.814C264.291 596.814 266.161 599.388 266.161 603.04C266.161 606.692 264.291 609.288 261.629 609.288ZM273.739 602.93C275.807 602.93 277.259 601.28 277.259 599.146C277.259 597.056 275.851 595.362 273.761 595.362C271.715 595.362 270.241 597.012 270.241 599.19C270.241 601.236 271.649 602.93 273.739 602.93ZM272.089 610.608H273.541L283.881 595.494H282.429L272.089 610.608ZM273.761 601.742C272.551 601.742 271.627 600.62 271.627 599.168C271.627 597.65 272.507 596.55 273.739 596.55C274.971 596.55 275.873 597.672 275.873 599.168C275.873 600.642 274.993 601.742 273.761 601.742ZM282.143 610.828C284.189 610.828 285.663 609.178 285.663 607.022C285.663 604.976 284.255 603.26 282.165 603.26C280.075 603.26 278.645 604.976 278.645 607.044C278.645 609.2 280.119 610.828 282.143 610.828ZM282.165 609.64C280.911 609.64 280.031 608.518 280.031 607.022C280.031 605.592 280.889 604.448 282.143 604.448C283.375 604.448 284.277 605.57 284.277 607.044C284.277 608.54 283.419 609.64 282.165 609.64Z" fill="white"/>
<path d="M123.974 513.608H125.69V498.494H124.304L120.586 501.024L121.334 502.3L123.974 500.584V513.608ZM135.096 504.17C133.314 504.17 131.752 505.028 130.828 506.48V506.282C130.828 502.652 132.742 499.792 135.162 499.792C136.614 499.792 137.604 500.452 138.55 501.376L139.496 500.034C138.374 498.956 137.054 498.23 135.206 498.23C131.774 498.23 129.09 501.772 129.09 506.282C129.09 510.55 130.74 513.872 134.832 513.872C137.978 513.872 140.156 511.672 140.156 508.878C140.156 505.886 137.846 504.17 135.096 504.17ZM134.81 512.398C132.698 512.398 131.466 510.748 131.026 508.46C131.4 506.788 132.874 505.644 134.788 505.644C136.812 505.644 138.418 506.898 138.418 508.966C138.418 510.638 137.076 512.398 134.81 512.398ZM146.009 505.93C148.077 505.93 149.529 504.28 149.529 502.146C149.529 500.056 148.121 498.362 146.031 498.362C143.985 498.362 142.511 500.012 142.511 502.19C142.511 504.236 143.919 505.93 146.009 505.93ZM144.359 513.608H145.811L156.151 498.494H154.699L144.359 513.608ZM146.031 504.742C144.821 504.742 143.897 503.62 143.897 502.168C143.897 500.65 144.777 499.55 146.009 499.55C147.241 499.55 148.143 500.672 148.143 502.168C148.143 503.642 147.263 504.742 146.031 504.742ZM154.413 513.828C156.459 513.828 157.933 512.178 157.933 510.022C157.933 507.976 156.525 506.26 154.435 506.26C152.345 506.26 150.915 507.976 150.915 510.044C150.915 512.2 152.389 513.828 154.413 513.828ZM154.435 512.64C153.181 512.64 152.301 511.518 152.301 510.022C152.301 508.592 153.159 507.448 154.413 507.448C155.645 507.448 156.547 508.57 156.547 510.044C156.547 511.54 155.689 512.64 154.435 512.64Z" fill="white"/>
<path d="M120.716 400.872C123.818 400.872 126.084 398.892 126.084 395.9C126.084 392.908 123.818 391.192 121.09 391.192C119.704 391.192 118.67 391.654 117.856 392.204L118.01 387.122H125.27V385.494H116.338L116.118 393.26L117.372 393.876C118.318 393.172 119.44 392.71 120.738 392.71C122.85 392.71 124.346 394.03 124.346 395.966C124.346 397.88 122.872 399.332 120.782 399.332C119.11 399.332 117.68 398.496 116.514 397.22L115.392 398.474C116.624 399.882 118.384 400.872 120.716 400.872ZM131.862 392.93C133.93 392.93 135.382 391.28 135.382 389.146C135.382 387.056 133.974 385.362 131.884 385.362C129.838 385.362 128.364 387.012 128.364 389.19C128.364 391.236 129.772 392.93 131.862 392.93ZM130.212 400.608H131.664L142.004 385.494H140.552L130.212 400.608ZM131.884 391.742C130.674 391.742 129.75 390.62 129.75 389.168C129.75 387.65 130.63 386.55 131.862 386.55C133.094 386.55 133.996 387.672 133.996 389.168C133.996 390.642 133.116 391.742 131.884 391.742ZM140.266 400.828C142.312 400.828 143.786 399.178 143.786 397.022C143.786 394.976 142.378 393.26 140.288 393.26C138.198 393.26 136.768 394.976 136.768 397.044C136.768 399.2 138.242 400.828 140.266 400.828ZM140.288 399.64C139.034 399.64 138.154 398.518 138.154 397.022C138.154 395.592 139.012 394.448 140.266 394.448C141.498 394.448 142.4 395.57 142.4 397.044C142.4 398.54 141.542 399.64 140.288 399.64Z" fill="white"/>
<path d="M169.974 288.608H171.69V273.494H170.304L166.586 276.024L167.334 277.3L169.974 275.584V288.608ZM180.414 273.23C177.268 273.23 175.09 275.43 175.09 278.224C175.09 281.216 177.4 282.932 180.15 282.932C181.932 282.932 183.494 282.074 184.418 280.622V280.82C184.418 284.45 182.504 287.31 180.084 287.31C178.632 287.31 177.642 286.65 176.696 285.726L175.75 287.068C176.872 288.146 178.192 288.872 180.04 288.872C183.472 288.872 186.156 285.33 186.156 280.82C186.156 276.552 184.506 273.23 180.414 273.23ZM180.458 281.458C178.434 281.458 176.828 280.204 176.828 278.136C176.828 276.464 178.17 274.704 180.436 274.704C182.548 274.704 183.78 276.354 184.22 278.642C183.846 280.314 182.372 281.458 180.458 281.458ZM192.009 280.93C194.077 280.93 195.529 279.28 195.529 277.146C195.529 275.056 194.121 273.362 192.031 273.362C189.985 273.362 188.511 275.012 188.511 277.19C188.511 279.236 189.919 280.93 192.009 280.93ZM190.359 288.608H191.811L202.151 273.494H200.699L190.359 288.608ZM192.031 279.742C190.821 279.742 189.897 278.62 189.897 277.168C189.897 275.65 190.777 274.55 192.009 274.55C193.241 274.55 194.143 275.672 194.143 277.168C194.143 278.642 193.263 279.742 192.031 279.742ZM200.413 288.828C202.459 288.828 203.933 287.178 203.933 285.022C203.933 282.976 202.525 281.26 200.435 281.26C198.345 281.26 196.915 282.976 196.915 285.044C196.915 287.2 198.389 288.828 200.413 288.828ZM200.435 287.64C199.181 287.64 198.301 286.518 198.301 285.022C198.301 283.592 199.159 282.448 200.413 282.448C201.645 282.448 202.547 283.57 202.547 285.044C202.547 286.54 201.689 287.64 200.435 287.64Z" fill="white"/>
<rect x="349" width="269" height="60" rx="10" fill="#F7F9FD"/>
<path d="M349 10C349 4.47715 353.477 0 359 0V0V60V60C353.477 60 349 55.5228 349 50V10Z" fill="#A9A4CC"/>
<path d="M440.6 36H442.004V23.634H440.6V36ZM449.228 26.478C447.914 26.478 446.708 27.198 446.168 28.188V26.694H444.818V36H446.168V30.078C446.168 28.782 447.482 27.684 449.048 27.684C450.416 27.684 451.37 28.746 451.37 30.258V36H452.72V30.078C452.72 27.972 451.28 26.478 449.228 26.478ZM456.118 25.002C456.604 25.002 457 24.588 457 24.102C457 23.634 456.604 23.22 456.118 23.22C455.614 23.22 455.218 23.634 455.218 24.102C455.218 24.588 455.614 25.002 456.118 25.002ZM455.434 36H456.784V26.694H455.434V36ZM463.581 34.632C463.383 34.848 463.023 35.01 462.609 35.01C462.069 35.01 461.601 34.524 461.601 33.84V27.9H463.887V26.694H461.601V24.138H460.251V26.694H458.793V27.9H460.251V33.84C460.251 35.226 461.187 36.216 462.519 36.216C463.149 36.216 463.761 36 464.247 35.622L463.581 34.632ZM466.823 25.002C467.309 25.002 467.705 24.588 467.705 24.102C467.705 23.634 467.309 23.22 466.823 23.22C466.319 23.22 465.923 23.634 465.923 24.102C465.923 24.588 466.319 25.002 466.823 25.002ZM466.139 36H467.489V26.694H466.139V36ZM473.98 26.478C473.08 26.478 471.964 26.712 470.632 27.378L471.172 28.476C472.018 28.044 472.954 27.63 473.89 27.63C475.906 27.63 476.41 29.07 476.41 30.33V30.672C475.456 30.366 474.394 30.15 473.386 30.15C471.388 30.15 469.732 31.392 469.732 33.246C469.732 35.082 471.172 36.216 473.134 36.216C474.358 36.216 475.744 35.64 476.41 34.542V36H477.76V30.33C477.76 28.08 476.518 26.478 473.98 26.478ZM473.368 35.028C472.054 35.028 471.046 34.344 471.046 33.192C471.046 32.076 472.216 31.284 473.602 31.284C474.61 31.284 475.564 31.428 476.41 31.662V33.084C476.05 34.398 474.592 35.028 473.368 35.028ZM480.518 36H481.868V23.418H480.518V36ZM489.871 36H491.275V31.554H494.893C497.449 31.554 499.447 29.916 499.447 27.594C499.447 25.272 497.449 23.634 494.893 23.634H489.871V36ZM491.275 30.222V24.966H494.641C496.657 24.966 498.025 25.938 498.025 27.594C498.025 29.25 496.657 30.222 494.641 30.222H491.275ZM505.721 36.216C508.331 36.216 510.527 33.984 510.527 31.338C510.527 28.692 508.331 26.478 505.721 26.478C503.111 26.478 500.897 28.692 500.897 31.338C500.897 33.984 503.111 36.216 505.721 36.216ZM505.721 35.01C503.867 35.01 502.319 33.336 502.319 31.338C502.319 29.358 503.867 27.684 505.721 27.684C507.557 27.684 509.105 29.358 509.105 31.338C509.105 33.336 507.557 35.01 505.721 35.01ZM517.077 36.216C519.687 36.216 521.883 33.984 521.883 31.338C521.883 28.692 519.687 26.478 517.077 26.478C514.467 26.478 512.253 28.692 512.253 31.338C512.253 33.984 514.467 36.216 517.077 36.216ZM517.077 35.01C515.223 35.01 513.675 33.336 513.675 31.338C513.675 29.358 515.223 27.684 517.077 27.684C518.913 27.684 520.461 29.358 520.461 31.338C520.461 33.336 518.913 35.01 517.077 35.01ZM524.112 36H525.462V23.418H524.112V36Z" fill="#29264C"/>
<rect x="349" y="74" width="269" height="60" rx="10" fill="#F7F9FD"/>
<path d="M349 84C349 78.4772 353.477 74 359 74V74V134V134C353.477 134 349 129.523 349 124V84Z" fill="#7068AA"/>
<path d="M429.774 110H431.25V104.96L436.218 97.634H434.526L430.512 103.628L426.534 97.634H424.788L429.774 104.96V110ZM438.574 99.002C439.06 99.002 439.456 98.588 439.456 98.102C439.456 97.634 439.06 97.22 438.574 97.22C438.07 97.22 437.674 97.634 437.674 98.102C437.674 98.588 438.07 99.002 438.574 99.002ZM437.89 110H439.24V100.694H437.89V110ZM446.145 109.01C444.309 109.01 443.031 107.678 442.833 105.86H450.447C450.447 102.602 448.845 100.478 446.037 100.478C443.535 100.478 441.447 102.548 441.447 105.32C441.447 108.182 443.679 110.216 446.163 110.216C447.459 110.216 449.097 109.658 449.907 108.776L449.079 107.894C448.503 108.524 447.243 109.01 446.145 109.01ZM446.091 101.684C447.945 101.684 448.935 102.98 449.115 104.654H442.851C443.103 102.854 444.435 101.684 446.091 101.684ZM452.656 110H454.006V97.418H452.656V110ZM464.006 97.418V102.44C463.304 101.216 462.116 100.478 460.622 100.478C458.174 100.478 456.338 102.494 456.338 105.338C456.338 108.2 458.174 110.216 460.622 110.216C462.116 110.216 463.304 109.478 464.006 108.254V110H465.356V97.418H464.006ZM460.874 109.01C459.056 109.01 457.76 107.48 457.76 105.338C457.76 103.196 459.056 101.684 460.874 101.684C462.71 101.684 464.006 103.196 464.006 105.338C464.006 107.48 462.71 109.01 460.874 109.01ZM482.361 98.966V97.634H473.487V110H474.909V104.366H481.623V103.034H474.909V98.966H482.361ZM488.182 100.478C487.282 100.478 486.166 100.712 484.834 101.378L485.374 102.476C486.22 102.044 487.156 101.63 488.092 101.63C490.108 101.63 490.612 103.07 490.612 104.33V104.672C489.658 104.366 488.596 104.15 487.588 104.15C485.59 104.15 483.934 105.392 483.934 107.246C483.934 109.082 485.374 110.216 487.336 110.216C488.56 110.216 489.946 109.64 490.612 108.542V110H491.962V104.33C491.962 102.08 490.72 100.478 488.182 100.478ZM487.57 109.028C486.256 109.028 485.248 108.344 485.248 107.192C485.248 106.076 486.418 105.284 487.804 105.284C488.812 105.284 489.766 105.428 490.612 105.662V107.084C490.252 108.398 488.794 109.028 487.57 109.028ZM496.197 102.512V100.694H494.847V110H496.197V104.798C496.197 102.98 497.691 101.684 499.797 101.684V100.478C498.087 100.478 496.755 101.27 496.197 102.512ZM511.726 100.478C510.322 100.478 509.098 101.252 508.72 102.458C508.216 101.252 507.118 100.478 505.714 100.478C504.49 100.478 503.482 101.09 503.014 102.062V100.694H501.664V110H503.014V104.078C503.014 102.674 504.058 101.684 505.534 101.684C506.794 101.684 507.676 102.746 507.676 104.258V110H509.026V104.078C509.026 102.674 510.07 101.684 511.546 101.684C512.806 101.684 513.688 102.746 513.688 104.258V110H515.038V104.078C515.038 101.972 513.67 100.478 511.726 100.478ZM518.431 99.002C518.917 99.002 519.313 98.588 519.313 98.102C519.313 97.634 518.917 97.22 518.431 97.22C517.927 97.22 517.531 97.634 517.531 98.102C517.531 98.588 517.927 99.002 518.431 99.002ZM517.747 110H519.097V100.694H517.747V110ZM526.236 100.478C524.922 100.478 523.716 101.198 523.176 102.188V100.694H521.826V110H523.176V104.078C523.176 102.782 524.49 101.684 526.056 101.684C527.424 101.684 528.378 102.746 528.378 104.258V110H529.728V104.078C529.728 101.972 528.288 100.478 526.236 100.478ZM539.697 100.694V102.296C538.977 101.162 537.789 100.478 536.313 100.478C533.811 100.478 532.029 102.296 532.029 104.888C532.029 107.48 533.811 109.316 536.313 109.316C537.789 109.316 538.977 108.632 539.697 107.498V109.01C539.697 110.828 538.437 111.89 536.295 111.89C535.143 111.89 534.027 111.476 533.307 110.792L532.713 111.854C533.559 112.574 534.963 113.096 536.475 113.096C539.157 113.096 541.047 111.404 541.047 109.01V100.694H539.697ZM536.565 108.11C534.747 108.11 533.451 106.778 533.451 104.888C533.451 103.016 534.747 101.684 536.565 101.684C538.401 101.684 539.697 103.016 539.697 104.888C539.697 106.778 538.401 108.11 536.565 108.11Z" fill="#29264C"/>
<rect x="349" y="701" width="269" height="60" rx="10" fill="#F7F9FD"/>
<path d="M349 711C349 705.477 353.477 701 359 701V701V761V761C353.477 761 349 756.523 349 751V711Z" fill="#B8E3DB"/>
<path d="M423.897 737H428.073C431.997 737 434.769 734.426 434.769 730.808C434.769 727.19 431.997 724.634 428.073 724.634H423.897V737ZM425.301 735.722V725.912H428.073C431.169 725.912 433.347 727.946 433.347 730.808C433.347 733.688 431.169 735.722 428.073 735.722H425.301ZM446.451 737H447.981L442.527 724.634H440.997L435.543 737H437.073L438.315 734.192H445.209L446.451 737ZM438.891 732.86L441.771 726.362L444.633 732.86H438.891ZM455.827 737.216C459.265 737.216 462.145 734.282 462.145 730.808C462.145 727.334 459.265 724.418 455.827 724.418C452.407 724.418 449.491 727.334 449.491 730.808C449.491 734.282 452.407 737.216 455.827 737.216ZM455.827 735.92C453.163 735.92 450.913 733.58 450.913 730.808C450.913 728.054 453.163 725.714 455.827 725.714C458.491 725.714 460.723 728.054 460.723 730.808C460.723 733.58 458.491 735.92 455.827 735.92ZM473.263 737H474.667V725.966H478.825V724.634H469.105V725.966H473.263V737ZM482.477 729.512V727.694H481.127V737H482.477V731.798C482.477 729.98 483.971 728.684 486.077 728.684V727.478C484.367 727.478 483.035 728.27 482.477 729.512ZM492.138 736.01C490.302 736.01 489.024 734.678 488.826 732.86H496.44C496.44 729.602 494.838 727.478 492.03 727.478C489.528 727.478 487.44 729.548 487.44 732.32C487.44 735.182 489.672 737.216 492.156 737.216C493.452 737.216 495.09 736.658 495.9 735.776L495.072 734.894C494.496 735.524 493.236 736.01 492.138 736.01ZM492.084 728.684C493.938 728.684 494.928 729.98 495.108 731.654H488.844C489.096 729.854 490.428 728.684 492.084 728.684ZM502.429 727.478C501.529 727.478 500.413 727.712 499.081 728.378L499.621 729.476C500.467 729.044 501.403 728.63 502.339 728.63C504.355 728.63 504.859 730.07 504.859 731.33V731.672C503.905 731.366 502.843 731.15 501.835 731.15C499.837 731.15 498.181 732.392 498.181 734.246C498.181 736.082 499.621 737.216 501.583 737.216C502.807 737.216 504.193 736.64 504.859 735.542V737H506.209V731.33C506.209 729.08 504.967 727.478 502.429 727.478ZM501.817 736.028C500.503 736.028 499.495 735.344 499.495 734.192C499.495 733.076 500.665 732.284 502.051 732.284C503.059 732.284 504.013 732.428 504.859 732.662V734.084C504.499 735.398 503.041 736.028 501.817 736.028ZM512.262 737.216C514.188 737.216 515.664 736.118 515.664 734.408C515.664 732.644 514.116 732.14 512.622 731.672C510.894 731.114 510.21 730.862 510.21 730.052C510.21 729.152 511.074 728.684 512.118 728.684C512.946 728.684 513.864 728.972 514.8 729.566L515.448 728.522C514.458 727.874 513.27 727.478 512.118 727.478C510.264 727.478 508.86 728.522 508.86 730.214C508.86 731.546 509.724 732.212 511.974 732.86C513.234 733.22 514.314 733.544 514.314 734.552C514.314 735.434 513.486 736.01 512.262 736.01C511.236 736.01 510.174 735.614 509.112 734.84L508.41 735.83C509.526 736.73 510.966 737.216 512.262 737.216ZM524.449 727.694V733.616C524.449 734.912 523.135 736.01 521.569 736.01C520.201 736.01 519.247 734.948 519.247 733.436V727.694H517.897V733.616C517.897 735.722 519.337 737.216 521.389 737.216C522.703 737.216 523.909 736.496 524.449 735.506V737H525.799V727.694H524.449ZM530.026 729.512V727.694H528.676V737H530.026V731.798C530.026 729.98 531.52 728.684 533.626 728.684V727.478C531.916 727.478 530.584 728.27 530.026 729.512ZM536.879 740.24C538.157 740.222 539.057 739.628 539.705 738.044L543.953 727.694H542.495L539.417 735.434L536.159 727.694H534.665L538.715 737.036L538.175 738.188C537.815 738.818 537.419 739.016 536.825 739.016C536.429 739.016 536.051 738.944 535.727 738.782L535.403 739.934C535.835 740.132 536.339 740.24 536.879 740.24Z" fill="#29264C"/>
<rect x="350" y="775" width="269" height="60" rx="10" fill="#F7F9FD"/>
<path d="M350 785C350 779.477 354.477 775 360 775V775V835V835C354.477 835 350 830.523 350 825V785Z" fill="#88D1C3"/>
<path d="M419.526 811.216C421.236 811.216 422.82 810.478 423.972 809.326L423.018 808.354C422.118 809.308 420.876 809.92 419.526 809.92C416.862 809.92 414.612 807.58 414.612 804.808C414.612 802.054 416.862 799.714 419.526 799.714C420.876 799.714 422.118 800.326 423.018 801.28L423.972 800.308C422.82 799.138 421.236 798.418 419.526 798.418C416.106 798.418 413.19 801.334 413.19 804.808C413.19 808.282 416.106 811.216 419.526 811.216ZM430.176 811.216C432.786 811.216 434.982 808.984 434.982 806.338C434.982 803.692 432.786 801.478 430.176 801.478C427.566 801.478 425.352 803.692 425.352 806.338C425.352 808.984 427.566 811.216 430.176 811.216ZM430.176 810.01C428.322 810.01 426.774 808.336 426.774 806.338C426.774 804.358 428.322 802.684 430.176 802.684C432.012 802.684 433.56 804.358 433.56 806.338C433.56 808.336 432.012 810.01 430.176 810.01ZM443.764 801.694V807.616C443.764 808.912 442.45 810.01 440.884 810.01C439.516 810.01 438.562 808.948 438.562 807.436V801.694H437.212V807.616C437.212 809.722 438.652 811.216 440.704 811.216C442.018 811.216 443.224 810.496 443.764 809.506V811H445.114V801.694H443.764ZM452.292 801.478C450.978 801.478 449.772 802.198 449.232 803.188V801.694H447.882V811H449.232V805.078C449.232 803.782 450.546 802.684 452.112 802.684C453.48 802.684 454.434 803.746 454.434 805.258V811H455.784V805.078C455.784 802.972 454.344 801.478 452.292 801.478ZM462.836 811.216C464.132 811.216 465.32 810.676 466.202 809.794L465.266 808.876C464.636 809.578 463.772 810.01 462.836 810.01C460.982 810.01 459.434 808.336 459.434 806.338C459.434 804.358 460.982 802.684 462.836 802.684C463.754 802.684 464.6 803.098 465.212 803.764L466.148 802.846C465.266 802 464.096 801.478 462.836 801.478C460.226 801.478 458.012 803.692 458.012 806.338C458.012 808.984 460.226 811.216 462.836 811.216ZM468.938 800.002C469.424 800.002 469.82 799.588 469.82 799.102C469.82 798.634 469.424 798.22 468.938 798.22C468.434 798.22 468.038 798.634 468.038 799.102C468.038 799.588 468.434 800.002 468.938 800.002ZM468.254 811H469.604V801.694H468.254V811ZM472.315 811H473.665V798.418H472.315V811ZM485.214 811H486.618V799.966H490.776V798.634H481.056V799.966H485.214V811ZM494.428 803.512V801.694H493.078V811H494.428V805.798C494.428 803.98 495.922 802.684 498.028 802.684V801.478C496.318 801.478 494.986 802.27 494.428 803.512ZM504.089 810.01C502.253 810.01 500.975 808.678 500.777 806.86H508.391C508.391 803.602 506.789 801.478 503.981 801.478C501.479 801.478 499.391 803.548 499.391 806.32C499.391 809.182 501.623 811.216 504.107 811.216C505.403 811.216 507.041 810.658 507.851 809.776L507.023 808.894C506.447 809.524 505.187 810.01 504.089 810.01ZM504.035 802.684C505.889 802.684 506.879 803.98 507.059 805.654H500.795C501.047 803.854 502.379 802.684 504.035 802.684ZM514.38 801.478C513.48 801.478 512.364 801.712 511.032 802.378L511.572 803.476C512.418 803.044 513.354 802.63 514.29 802.63C516.306 802.63 516.81 804.07 516.81 805.33V805.672C515.856 805.366 514.794 805.15 513.786 805.15C511.788 805.15 510.132 806.392 510.132 808.246C510.132 810.082 511.572 811.216 513.534 811.216C514.758 811.216 516.144 810.64 516.81 809.542V811H518.16V805.33C518.16 803.08 516.918 801.478 514.38 801.478ZM513.768 810.028C512.454 810.028 511.446 809.344 511.446 808.192C511.446 807.076 512.616 806.284 514.002 806.284C515.01 806.284 515.964 806.428 516.81 806.662V808.084C516.45 809.398 514.992 810.028 513.768 810.028ZM524.213 811.216C526.139 811.216 527.615 810.118 527.615 808.408C527.615 806.644 526.067 806.14 524.573 805.672C522.845 805.114 522.161 804.862 522.161 804.052C522.161 803.152 523.025 802.684 524.069 802.684C524.897 802.684 525.815 802.972 526.751 803.566L527.399 802.522C526.409 801.874 525.221 801.478 524.069 801.478C522.215 801.478 520.811 802.522 520.811 804.214C520.811 805.546 521.675 806.212 523.925 806.86C525.185 807.22 526.265 807.544 526.265 808.552C526.265 809.434 525.437 810.01 524.213 810.01C523.187 810.01 522.125 809.614 521.063 808.84L520.361 809.83C521.477 810.73 522.917 811.216 524.213 811.216ZM536.4 801.694V807.616C536.4 808.912 535.086 810.01 533.52 810.01C532.152 810.01 531.198 808.948 531.198 807.436V801.694H529.848V807.616C529.848 809.722 531.288 811.216 533.34 811.216C534.654 811.216 535.86 810.496 536.4 809.506V811H537.75V801.694H536.4ZM541.977 803.512V801.694H540.627V811H541.977V805.798C541.977 803.98 543.471 802.684 545.577 802.684V801.478C543.867 801.478 542.535 802.27 541.977 803.512ZM548.83 814.24C550.108 814.222 551.008 813.628 551.656 812.044L555.904 801.694H554.446L551.368 809.434L548.11 801.694H546.616L550.666 811.036L550.126 812.188C549.766 812.818 549.37 813.016 548.776 813.016C548.38 813.016 548.002 812.944 547.678 812.782L547.354 813.934C547.786 814.132 548.29 814.24 548.83 814.24Z" fill="#29264C"/>
<rect x="13" width="269" height="60" rx="10" fill="#F7F9FD"/>
<path d="M14 10C14 4.47715 18.4772 0 24 0V0V60V60C18.4772 60 14 55.5228 14 50V10Z" fill="#FFB3B3"/>
<path d="M120.779 36H122.309L116.855 23.634H115.325L109.871 36H111.401L112.643 33.192H119.537L120.779 36ZM113.219 31.86L116.099 25.362L118.961 31.86H113.219ZM131.523 23.418V28.44C130.821 27.216 129.633 26.478 128.139 26.478C125.691 26.478 123.855 28.494 123.855 31.338C123.855 34.2 125.691 36.216 128.139 36.216C129.633 36.216 130.821 35.478 131.523 34.254V36H132.873V23.418H131.523ZM128.391 35.01C126.573 35.01 125.277 33.48 125.277 31.338C125.277 29.196 126.573 27.684 128.391 27.684C130.227 27.684 131.523 29.196 131.523 31.338C131.523 33.48 130.227 35.01 128.391 35.01ZM138.807 36H140.103L144.009 26.694H142.497L139.455 34.416L136.359 26.694H134.847L138.807 36ZM146.538 25.002C147.024 25.002 147.42 24.588 147.42 24.102C147.42 23.634 147.024 23.22 146.538 23.22C146.034 23.22 145.638 23.634 145.638 24.102C145.638 24.588 146.034 25.002 146.538 25.002ZM145.854 36H147.204V26.694H145.854V36ZM153.209 36.216C155.135 36.216 156.611 35.118 156.611 33.408C156.611 31.644 155.063 31.14 153.569 30.672C151.841 30.114 151.157 29.862 151.157 29.052C151.157 28.152 152.021 27.684 153.065 27.684C153.893 27.684 154.811 27.972 155.747 28.566L156.395 27.522C155.405 26.874 154.217 26.478 153.065 26.478C151.211 26.478 149.807 27.522 149.807 29.214C149.807 30.546 150.671 31.212 152.921 31.86C154.181 32.22 155.261 32.544 155.261 33.552C155.261 34.434 154.433 35.01 153.209 35.01C152.183 35.01 151.121 34.614 150.059 33.84L149.357 34.83C150.473 35.73 151.913 36.216 153.209 36.216ZM163.165 36.216C165.775 36.216 167.971 33.984 167.971 31.338C167.971 28.692 165.775 26.478 163.165 26.478C160.555 26.478 158.341 28.692 158.341 31.338C158.341 33.984 160.555 36.216 163.165 36.216ZM163.165 35.01C161.311 35.01 159.763 33.336 159.763 31.338C159.763 29.358 161.311 27.684 163.165 27.684C165.001 27.684 166.549 29.358 166.549 31.338C166.549 33.336 165.001 35.01 163.165 35.01ZM171.676 28.512V26.694H170.326V36H171.676V30.798C171.676 28.98 173.17 27.684 175.276 27.684V26.478C173.566 26.478 172.234 27.27 171.676 28.512ZM180.437 36.216C182.363 36.216 183.839 35.118 183.839 33.408C183.839 31.644 182.291 31.14 180.797 30.672C179.069 30.114 178.385 29.862 178.385 29.052C178.385 28.152 179.249 27.684 180.293 27.684C181.121 27.684 182.039 27.972 182.975 28.566L183.623 27.522C182.633 26.874 181.445 26.478 180.293 26.478C178.439 26.478 177.035 27.522 177.035 29.214C177.035 30.546 177.899 31.212 180.149 31.86C181.409 32.22 182.489 32.544 182.489 33.552C182.489 34.434 181.661 35.01 180.437 35.01C179.411 35.01 178.349 34.614 177.287 33.84L176.585 34.83C177.701 35.73 179.141 36.216 180.437 36.216Z" fill="#29264C"/>
<rect x="13" y="74" width="269" height="60" rx="10" fill="#F7F9FD"/>
<path d="M14 84C14 78.4772 18.4772 74 24 74V74V134V134C18.4772 134 14 129.523 14 124V84Z" fill="#FF8080"/>
<path d="M81.4718 98.966V97.634H72.5978V110H74.0198V104.366H80.7338V103.034H74.0198V98.966H81.4718ZM87.8325 110.216C90.4425 110.216 92.6385 107.984 92.6385 105.338C92.6385 102.692 90.4425 100.478 87.8325 100.478C85.2225 100.478 83.0085 102.692 83.0085 105.338C83.0085 107.984 85.2225 110.216 87.8325 110.216ZM87.8325 109.01C85.9785 109.01 84.4305 107.336 84.4305 105.338C84.4305 103.358 85.9785 101.684 87.8325 101.684C89.6685 101.684 91.2165 103.358 91.2165 105.338C91.2165 107.336 89.6685 109.01 87.8325 109.01ZM101.42 100.694V106.616C101.42 107.912 100.106 109.01 98.54 109.01C97.172 109.01 96.218 107.948 96.218 106.436V100.694H94.868V106.616C94.868 108.722 96.308 110.216 98.36 110.216C99.674 110.216 100.88 109.496 101.42 108.506V110H102.77V100.694H101.42ZM109.948 100.478C108.634 100.478 107.428 101.198 106.888 102.188V100.694H105.538V110H106.888V104.078C106.888 102.782 108.202 101.684 109.768 101.684C111.136 101.684 112.09 102.746 112.09 104.258V110H113.44V104.078C113.44 101.972 112 100.478 109.948 100.478ZM123.445 97.418V102.44C122.743 101.216 121.555 100.478 120.061 100.478C117.613 100.478 115.777 102.494 115.777 105.338C115.777 108.2 117.613 110.216 120.061 110.216C121.555 110.216 122.743 109.478 123.445 108.254V110H124.795V97.418H123.445ZM120.313 109.01C118.495 109.01 117.199 107.48 117.199 105.338C117.199 103.196 118.495 101.684 120.313 101.684C122.149 101.684 123.445 103.196 123.445 105.338C123.445 107.48 122.149 109.01 120.313 109.01ZM131.845 109.01C130.009 109.01 128.731 107.678 128.533 105.86H136.147C136.147 102.602 134.545 100.478 131.737 100.478C129.235 100.478 127.147 102.548 127.147 105.32C127.147 108.182 129.379 110.216 131.863 110.216C133.159 110.216 134.797 109.658 135.607 108.776L134.779 107.894C134.203 108.524 132.943 109.01 131.845 109.01ZM131.791 101.684C133.645 101.684 134.635 102.98 134.815 104.654H128.551C128.803 102.854 130.135 101.684 131.791 101.684ZM139.832 102.512V100.694H138.482V110H139.832V104.798C139.832 102.98 141.326 101.684 143.432 101.684V100.478C141.722 100.478 140.39 101.27 139.832 102.512ZM148.594 110.216C150.52 110.216 151.996 109.118 151.996 107.408C151.996 105.644 150.448 105.14 148.954 104.672C147.226 104.114 146.542 103.862 146.542 103.052C146.542 102.152 147.406 101.684 148.45 101.684C149.278 101.684 150.196 101.972 151.132 102.566L151.78 101.522C150.79 100.874 149.602 100.478 148.45 100.478C146.596 100.478 145.192 101.522 145.192 103.214C145.192 104.546 146.056 105.212 148.306 105.86C149.566 106.22 150.646 106.544 150.646 107.552C150.646 108.434 149.818 109.01 148.594 109.01C147.568 109.01 146.506 108.614 145.444 107.84L144.742 108.83C145.858 109.73 147.298 110.216 148.594 110.216ZM169.386 109.532L167.334 107.444C167.964 106.544 168.522 105.464 169.044 104.312L167.874 103.79C167.496 104.816 167.01 105.752 166.47 106.562C165.354 105.392 164.49 104.456 163.644 103.466C165.408 102.764 166.668 101.99 166.668 100.352C166.668 98.804 165.408 97.49 163.752 97.49C161.898 97.49 160.602 98.768 160.602 100.388C160.602 101.306 160.944 102.134 161.646 103.106C159.738 103.952 158.82 105.122 158.82 106.724C158.82 108.884 160.512 110.216 162.708 110.216C164.238 110.216 165.462 109.55 166.488 108.488L168.108 110.126L169.386 109.532ZM163.752 98.696C164.67 98.696 165.318 99.434 165.318 100.388C165.318 101.414 164.58 101.954 162.924 102.602C162.258 101.756 161.952 101.036 161.952 100.388C161.952 99.326 162.726 98.696 163.752 98.696ZM162.762 109.01C161.358 109.01 160.17 108.146 160.17 106.688C160.17 105.536 160.998 104.636 162.348 104.006C163.212 105.05 164.148 106.076 165.624 107.606C164.796 108.488 163.842 109.01 162.762 109.01ZM180.329 110H181.733V98.966H185.891V97.634H176.171V98.966H180.329V110ZM192.261 109.01C190.425 109.01 189.147 107.678 188.949 105.86H196.563C196.563 102.602 194.961 100.478 192.153 100.478C189.651 100.478 187.563 102.548 187.563 105.32C187.563 108.182 189.795 110.216 192.279 110.216C193.575 110.216 195.213 109.658 196.023 108.776L195.195 107.894C194.619 108.524 193.359 109.01 192.261 109.01ZM192.207 101.684C194.061 101.684 195.051 102.98 195.231 104.654H188.967C189.219 102.854 190.551 101.684 192.207 101.684ZM202.552 100.478C201.652 100.478 200.536 100.712 199.204 101.378L199.744 102.476C200.59 102.044 201.526 101.63 202.462 101.63C204.478 101.63 204.982 103.07 204.982 104.33V104.672C204.028 104.366 202.966 104.15 201.958 104.15C199.96 104.15 198.304 105.392 198.304 107.246C198.304 109.082 199.744 110.216 201.706 110.216C202.93 110.216 204.316 109.64 204.982 108.542V110H206.332V104.33C206.332 102.08 205.09 100.478 202.552 100.478ZM201.94 109.028C200.626 109.028 199.618 108.344 199.618 107.192C199.618 106.076 200.788 105.284 202.174 105.284C203.182 105.284 204.136 105.428 204.982 105.662V107.084C204.622 108.398 203.164 109.028 201.94 109.028ZM219.153 100.478C217.749 100.478 216.525 101.252 216.147 102.458C215.643 101.252 214.545 100.478 213.141 100.478C211.917 100.478 210.909 101.09 210.441 102.062V100.694H209.091V110H210.441V104.078C210.441 102.674 211.485 101.684 212.961 101.684C214.221 101.684 215.103 102.746 215.103 104.258V110H216.453V104.078C216.453 102.674 217.497 101.684 218.973 101.684C220.233 101.684 221.115 102.746 221.115 104.258V110H222.465V104.078C222.465 101.972 221.097 100.478 219.153 100.478Z" fill="#29264C"/>
<path d="M107 520.5L1.50012 602.5L1.50013 789L15.0001 805" stroke="#7996C9" stroke-width="2"/>
<rect x="14.0001" y="775" width="269" height="60" rx="10" fill="#F7F9FD"/>
<path d="M14.0001 785C14.0001 779.477 18.4773 775 24.0001 775V775V835V835C18.4773 835 14.0001 830.523 14.0001 825V785Z" fill="#7996C9"/>
<path d="M63.5168 811H64.9208V806.554H68.5388C71.0948 806.554 73.0928 804.916 73.0928 802.594C73.0928 800.272 71.0948 798.634 68.5388 798.634H63.5168V811ZM64.9208 805.222V799.966H68.2868C70.3028 799.966 71.6708 800.938 71.6708 802.594C71.6708 804.25 70.3028 805.222 68.2868 805.222H64.9208ZM76.5228 803.512V801.694H75.1728V811H76.5228V805.798C76.5228 803.98 78.0168 802.684 80.1228 802.684V801.478C78.4128 801.478 77.0808 802.27 76.5228 803.512ZM82.6562 800.002C83.1422 800.002 83.5382 799.588 83.5382 799.102C83.5382 798.634 83.1422 798.22 82.6562 798.22C82.1522 798.22 81.7562 798.634 81.7562 799.102C81.7562 799.588 82.1522 800.002 82.6562 800.002ZM81.9722 811H83.3222V801.694H81.9722V811ZM89.1112 811H90.4072L94.3132 801.694H92.8012L89.7592 809.416L86.6632 801.694H85.1512L89.1112 811ZM99.235 801.478C98.335 801.478 97.219 801.712 95.887 802.378L96.427 803.476C97.273 803.044 98.209 802.63 99.145 802.63C101.161 802.63 101.665 804.07 101.665 805.33V805.672C100.711 805.366 99.649 805.15 98.641 805.15C96.643 805.15 94.987 806.392 94.987 808.246C94.987 810.082 96.427 811.216 98.389 811.216C99.613 811.216 100.999 810.64 101.665 809.542V811H103.015V805.33C103.015 803.08 101.773 801.478 99.235 801.478ZM98.623 810.028C97.309 810.028 96.301 809.344 96.301 808.192C96.301 807.076 97.471 806.284 98.857 806.284C99.865 806.284 100.819 806.428 101.665 806.662V808.084C101.305 809.398 99.847 810.028 98.623 810.028ZM109.859 809.632C109.661 809.848 109.301 810.01 108.887 810.01C108.347 810.01 107.879 809.524 107.879 808.84V802.9H110.165V801.694H107.879V799.138H106.529V801.694H105.071V802.9H106.529V808.84C106.529 810.226 107.465 811.216 108.797 811.216C109.427 811.216 110.039 811 110.525 810.622L109.859 809.632ZM116.63 810.01C114.794 810.01 113.516 808.678 113.318 806.86H120.932C120.932 803.602 119.33 801.478 116.522 801.478C114.02 801.478 111.932 803.548 111.932 806.32C111.932 809.182 114.164 811.216 116.648 811.216C117.944 811.216 119.582 810.658 120.392 809.776L119.564 808.894C118.988 809.524 117.728 810.01 116.63 810.01ZM116.576 802.684C118.43 802.684 119.42 803.98 119.6 805.654H113.336C113.588 803.854 114.92 802.684 116.576 802.684ZM134.265 811.216C135.975 811.216 137.559 810.478 138.711 809.326L137.757 808.354C136.857 809.308 135.615 809.92 134.265 809.92C131.601 809.92 129.351 807.58 129.351 804.808C129.351 802.054 131.601 799.714 134.265 799.714C135.615 799.714 136.857 800.326 137.757 801.28L138.711 800.308C137.559 799.138 135.975 798.418 134.265 798.418C130.845 798.418 127.929 801.334 127.929 804.808C127.929 808.282 130.845 811.216 134.265 811.216ZM144.916 811.216C147.526 811.216 149.722 808.984 149.722 806.338C149.722 803.692 147.526 801.478 144.916 801.478C142.306 801.478 140.092 803.692 140.092 806.338C140.092 808.984 142.306 811.216 144.916 811.216ZM144.916 810.01C143.062 810.01 141.514 808.336 141.514 806.338C141.514 804.358 143.062 802.684 144.916 802.684C146.752 802.684 148.3 804.358 148.3 806.338C148.3 808.336 146.752 810.01 144.916 810.01ZM156.379 801.478C155.065 801.478 153.859 802.198 153.319 803.188V801.694H151.969V811H153.319V805.078C153.319 803.782 154.633 802.684 156.199 802.684C157.567 802.684 158.521 803.746 158.521 805.258V811H159.871V805.078C159.871 802.972 158.431 801.478 156.379 801.478ZM166.689 809.632C166.491 809.848 166.131 810.01 165.717 810.01C165.177 810.01 164.709 809.524 164.709 808.84V802.9H166.995V801.694H164.709V799.138H163.359V801.694H161.901V802.9H163.359V808.84C163.359 810.226 164.295 811.216 165.627 811.216C166.257 811.216 166.869 811 167.355 810.622L166.689 809.632ZM170.742 803.512V801.694H169.392V811H170.742V805.798C170.742 803.98 172.236 802.684 174.342 802.684V801.478C172.632 801.478 171.3 802.27 170.742 803.512ZM176.875 800.002C177.361 800.002 177.757 799.588 177.757 799.102C177.757 798.634 177.361 798.22 176.875 798.22C176.371 798.22 175.975 798.634 175.975 799.102C175.975 799.588 176.371 800.002 176.875 800.002ZM176.191 811H177.541V801.694H176.191V811ZM185.112 801.478C183.618 801.478 182.43 802.216 181.728 803.44V798.418H180.378V811H181.728V809.254C182.43 810.478 183.618 811.216 185.112 811.216C187.56 811.216 189.396 809.2 189.396 806.338C189.396 803.494 187.56 801.478 185.112 801.478ZM184.86 810.01C183.024 810.01 181.728 808.48 181.728 806.338C181.728 804.196 183.024 802.684 184.86 802.684C186.678 802.684 187.974 804.196 187.974 806.338C187.974 808.48 186.678 810.01 184.86 810.01ZM198.282 801.694V807.616C198.282 808.912 196.968 810.01 195.402 810.01C194.034 810.01 193.08 808.948 193.08 807.436V801.694H191.73V807.616C191.73 809.722 193.17 811.216 195.222 811.216C196.536 811.216 197.742 810.496 198.282 809.506V811H199.632V801.694H198.282ZM206.469 809.632C206.271 809.848 205.911 810.01 205.497 810.01C204.957 810.01 204.489 809.524 204.489 808.84V802.9H206.775V801.694H204.489V799.138H203.139V801.694H201.681V802.9H203.139V808.84C203.139 810.226 204.075 811.216 205.407 811.216C206.037 811.216 206.649 811 207.135 810.622L206.469 809.632ZM213.365 811.216C215.975 811.216 218.171 808.984 218.171 806.338C218.171 803.692 215.975 801.478 213.365 801.478C210.755 801.478 208.541 803.692 208.541 806.338C208.541 808.984 210.755 811.216 213.365 811.216ZM213.365 810.01C211.511 810.01 209.963 808.336 209.963 806.338C209.963 804.358 211.511 802.684 213.365 802.684C215.201 802.684 216.749 804.358 216.749 806.338C216.749 808.336 215.201 810.01 213.365 810.01ZM221.876 803.512V801.694H220.526V811H221.876V805.798C221.876 803.98 223.37 802.684 225.476 802.684V801.478C223.766 801.478 222.434 802.27 221.876 803.512ZM230.638 811.216C232.564 811.216 234.04 810.118 234.04 808.408C234.04 806.644 232.492 806.14 230.998 805.672C229.27 805.114 228.586 804.862 228.586 804.052C228.586 803.152 229.45 802.684 230.494 802.684C231.322 802.684 232.24 802.972 233.176 803.566L233.824 802.522C232.834 801.874 231.646 801.478 230.494 801.478C228.64 801.478 227.236 802.522 227.236 804.214C227.236 805.546 228.1 806.212 230.35 806.86C231.61 807.22 232.69 807.544 232.69 808.552C232.69 809.434 231.862 810.01 230.638 810.01C229.612 810.01 228.55 809.614 227.488 808.84L226.786 809.83C227.902 810.73 229.342 811.216 230.638 811.216Z" fill="#29264C"/>
<rect x="13" y="701" width="269" height="60" rx="10" fill="#F7F9FD"/>
<path d="M14 711C14 705.477 18.4772 701 24 701V701V761V761C18.4772 761 14 756.523 14 751V711Z" fill="#A3B3D0"/>
<path d="M62.8077 737H64.2117V732.554H67.8297C70.3857 732.554 72.3837 730.916 72.3837 728.594C72.3837 726.272 70.3857 724.634 67.8297 724.634H62.8077V737ZM64.2117 731.222V725.966H67.5777C69.5937 725.966 70.9617 726.938 70.9617 728.594C70.9617 730.25 69.5937 731.222 67.5777 731.222H64.2117ZM80.8897 727.694V733.616C80.8897 734.912 79.5757 736.01 78.0097 736.01C76.6417 736.01 75.6877 734.948 75.6877 733.436V727.694H74.3377V733.616C74.3377 735.722 75.7777 737.216 77.8297 737.216C79.1437 737.216 80.3497 736.496 80.8897 735.506V737H82.2397V727.694H80.8897ZM89.8501 727.478C88.3561 727.478 87.1681 728.216 86.4661 729.44V724.418H85.1161V737H86.4661V735.254C87.1681 736.478 88.3561 737.216 89.8501 737.216C92.2981 737.216 94.1341 735.2 94.1341 732.338C94.1341 729.494 92.2981 727.478 89.8501 727.478ZM89.5981 736.01C87.7621 736.01 86.4661 734.48 86.4661 732.338C86.4661 730.196 87.7621 728.684 89.5981 728.684C91.4161 728.684 92.7121 730.196 92.7121 732.338C92.7121 734.48 91.4161 736.01 89.5981 736.01ZM96.4686 737H97.8186V724.418H96.4686V737ZM101.213 726.002C101.699 726.002 102.095 725.588 102.095 725.102C102.095 724.634 101.699 724.22 101.213 724.22C100.709 724.22 100.313 724.634 100.313 725.102C100.313 725.588 100.709 726.002 101.213 726.002ZM100.529 737H101.879V727.694H100.529V737ZM108.91 737.216C110.206 737.216 111.394 736.676 112.276 735.794L111.34 734.876C110.71 735.578 109.846 736.01 108.91 736.01C107.056 736.01 105.508 734.336 105.508 732.338C105.508 730.358 107.056 728.684 108.91 728.684C109.828 728.684 110.674 729.098 111.286 729.764L112.222 728.846C111.34 728 110.17 727.478 108.91 727.478C106.3 727.478 104.086 729.692 104.086 732.338C104.086 734.984 106.3 737.216 108.91 737.216ZM120.826 735.668V724.634H119.422V737H127.576V735.668H120.826ZM130.217 726.002C130.703 726.002 131.099 725.588 131.099 725.102C131.099 724.634 130.703 724.22 130.217 724.22C129.713 724.22 129.317 724.634 129.317 725.102C129.317 725.588 129.713 726.002 130.217 726.002ZM129.533 737H130.883V727.694H129.533V737ZM140.866 727.694V729.44C140.164 728.216 138.976 727.478 137.482 727.478C135.034 727.478 133.198 729.494 133.198 732.338C133.198 735.2 135.034 737.216 137.482 737.216C138.976 737.216 140.164 736.478 140.866 735.254V740.096H142.216V727.694H140.866ZM137.734 736.01C135.916 736.01 134.62 734.48 134.62 732.338C134.62 730.196 135.916 728.684 137.734 728.684C139.57 728.684 140.866 730.196 140.866 732.338C140.866 734.48 139.57 736.01 137.734 736.01ZM151.624 727.694V733.616C151.624 734.912 150.31 736.01 148.744 736.01C147.376 736.01 146.422 734.948 146.422 733.436V727.694H145.072V733.616C145.072 735.722 146.512 737.216 148.564 737.216C149.878 737.216 151.084 736.496 151.624 735.506V737H152.974V727.694H151.624ZM156.39 726.002C156.876 726.002 157.272 725.588 157.272 725.102C157.272 724.634 156.876 724.22 156.39 724.22C155.886 724.22 155.49 724.634 155.49 725.102C155.49 725.588 155.886 726.002 156.39 726.002ZM155.706 737H157.056V727.694H155.706V737ZM167.039 724.418V729.44C166.337 728.216 165.149 727.478 163.655 727.478C161.207 727.478 159.371 729.494 159.371 732.338C159.371 735.2 161.207 737.216 163.655 737.216C165.149 737.216 166.337 736.478 167.039 735.254V737H168.389V724.418H167.039ZM163.907 736.01C162.089 736.01 160.793 734.48 160.793 732.338C160.793 730.196 162.089 728.684 163.907 728.684C165.743 728.684 167.039 730.196 167.039 732.338C167.039 734.48 165.743 736.01 163.907 736.01ZM171.912 726.002C172.398 726.002 172.794 725.588 172.794 725.102C172.794 724.634 172.398 724.22 171.912 724.22C171.408 724.22 171.012 724.634 171.012 725.102C171.012 725.588 171.408 726.002 171.912 726.002ZM171.228 737H172.578V727.694H171.228V737ZM179.375 735.632C179.177 735.848 178.817 736.01 178.403 736.01C177.863 736.01 177.395 735.524 177.395 734.84V728.9H179.681V727.694H177.395V725.138H176.045V727.694H174.587V728.9H176.045V734.84C176.045 736.226 176.981 737.216 178.313 737.216C178.943 737.216 179.555 737 180.041 736.622L179.375 735.632ZM183.337 740.24C184.615 740.222 185.515 739.628 186.163 738.044L190.411 727.694H188.953L185.875 735.434L182.617 727.694H181.123L185.173 737.036L184.633 738.188C184.273 738.818 183.877 739.016 183.283 739.016C182.887 739.016 182.509 738.944 182.185 738.782L181.861 739.934C182.293 740.132 182.797 740.24 183.337 740.24ZM202.18 737.198C205.06 737.198 206.536 735.596 206.536 733.634C206.536 731.456 204.844 730.61 202.486 730.052C200.38 729.548 199.156 729.098 199.156 727.82C199.156 726.686 200.272 725.678 201.802 725.678C203.098 725.678 204.322 726.272 205.348 727.262L206.212 726.164C205.078 725.12 203.71 724.4 201.874 724.4C199.498 724.4 197.734 725.948 197.734 727.928C197.734 730.07 199.3 730.844 201.784 731.42C203.944 731.924 205.114 732.446 205.114 733.76C205.114 734.876 204.142 735.92 202.234 735.92C200.506 735.92 199.228 735.182 198.184 734.138L197.302 735.236C198.544 736.46 200.146 737.198 202.18 737.198ZM212.661 727.478C211.761 727.478 210.645 727.712 209.313 728.378L209.853 729.476C210.699 729.044 211.635 728.63 212.571 728.63C214.587 728.63 215.091 730.07 215.091 731.33V731.672C214.137 731.366 213.075 731.15 212.067 731.15C210.069 731.15 208.413 732.392 208.413 734.246C208.413 736.082 209.853 737.216 211.815 737.216C213.039 737.216 214.425 736.64 215.091 735.542V737H216.441V731.33C216.441 729.08 215.199 727.478 212.661 727.478ZM212.049 736.028C210.735 736.028 209.727 735.344 209.727 734.192C209.727 733.076 210.897 732.284 212.283 732.284C213.291 732.284 214.245 732.428 215.091 732.662V734.084C214.731 735.398 213.273 736.028 212.049 736.028ZM219.199 737H220.549V724.418H219.199V737ZM227.471 736.01C225.635 736.01 224.357 734.678 224.159 732.86H231.773C231.773 729.602 230.171 727.478 227.363 727.478C224.861 727.478 222.773 729.548 222.773 732.32C222.773 735.182 225.005 737.216 227.489 737.216C228.785 737.216 230.423 736.658 231.233 735.776L230.405 734.894C229.829 735.524 228.569 736.01 227.471 736.01ZM227.417 728.684C229.271 728.684 230.261 729.98 230.441 731.654H224.177C224.429 729.854 225.761 728.684 227.417 728.684Z" fill="#29264C"/>
<path d="M279.225 551.644V550.756H273.309V559H279.225V558.112H274.257V555.244H278.733V554.356H274.257V551.644H279.225ZM284.733 559.144C285.873 559.144 286.929 558.652 287.697 557.884L287.061 557.236C286.461 557.872 285.633 558.28 284.733 558.28C282.957 558.28 281.457 556.72 281.457 554.872C281.457 553.036 282.957 551.476 284.733 551.476C285.633 551.476 286.461 551.884 287.061 552.52L287.697 551.872C286.929 551.092 285.873 550.612 284.733 550.612C282.453 550.612 280.509 552.556 280.509 554.872C280.509 557.188 282.453 559.144 284.733 559.144ZM292.713 559.144C295.005 559.144 296.925 557.188 296.925 554.872C296.925 552.556 295.005 550.612 292.713 550.612C290.433 550.612 288.489 552.556 288.489 554.872C288.489 557.188 290.433 559.144 292.713 559.144ZM292.713 558.28C290.937 558.28 289.437 556.72 289.437 554.872C289.437 553.036 290.937 551.476 292.713 551.476C294.489 551.476 295.977 553.036 295.977 554.872C295.977 556.72 294.489 558.28 292.713 558.28ZM301.349 559.132C303.269 559.132 304.253 558.064 304.253 556.756C304.253 555.304 303.125 554.74 301.553 554.368C300.149 554.032 299.333 553.732 299.333 552.88C299.333 552.124 300.077 551.452 301.097 551.452C301.961 551.452 302.777 551.848 303.461 552.508L304.037 551.776C303.281 551.08 302.369 550.6 301.145 550.6C299.561 550.6 298.385 551.632 298.385 552.952C298.385 554.38 299.429 554.896 301.085 555.28C302.525 555.616 303.305 555.964 303.305 556.84C303.305 557.584 302.657 558.28 301.385 558.28C300.233 558.28 299.381 557.788 298.685 557.092L298.097 557.824C298.925 558.64 299.993 559.132 301.349 559.132ZM308.444 559H309.428V555.64L312.74 550.756H311.612L308.936 554.752L306.284 550.756H305.12L308.444 555.64V559ZM316.759 559.132C318.679 559.132 319.663 558.064 319.663 556.756C319.663 555.304 318.535 554.74 316.963 554.368C315.559 554.032 314.743 553.732 314.743 552.88C314.743 552.124 315.487 551.452 316.507 551.452C317.371 551.452 318.187 551.848 318.871 552.508L319.447 551.776C318.691 551.08 317.779 550.6 316.555 550.6C314.971 550.6 313.795 551.632 313.795 552.952C313.795 554.38 314.839 554.896 316.495 555.28C317.935 555.616 318.715 555.964 318.715 556.84C318.715 557.584 318.067 558.28 316.795 558.28C315.643 558.28 314.791 557.788 314.095 557.092L313.507 557.824C314.335 558.64 315.403 559.132 316.759 559.132ZM323.626 559H324.562V551.644H327.334V550.756H320.854V551.644H323.626V559ZM334.737 551.644V550.756H328.821V559H334.737V558.112H329.769V555.244H334.245V554.356H329.769V551.644H334.737ZM336.524 559H337.46V552.772L340.52 558.52L343.58 552.772V559H344.516V550.756H343.58L340.52 556.504L337.46 550.756H336.524V559Z" fill="#29264C"/>
<path d="M167.253 451.654C167.823 452.642 168.777 453.31 169.826 453.591L170.07 452.717C169.219 452.515 168.452 452.002 168.002 451.222C167.114 449.684 167.715 447.605 169.315 446.681C170.905 445.763 173.006 446.282 173.894 447.82C174.344 448.6 174.405 449.521 174.154 450.359L175.033 450.585C175.325 449.53 175.212 448.376 174.642 447.388C173.502 445.414 170.847 444.702 168.841 445.86C166.835 447.018 166.113 449.68 167.253 451.654ZM171.244 458.566C172.39 460.551 175.043 461.235 177.049 460.077C179.055 458.919 179.778 456.285 178.632 454.3C177.492 452.325 174.837 451.614 172.831 452.772C170.825 453.93 170.104 456.591 171.244 458.566ZM171.992 458.134C171.104 456.596 171.705 454.517 173.305 453.593C174.895 452.675 176.996 453.194 177.884 454.732C178.772 456.27 178.165 458.338 176.575 459.256C174.975 460.18 172.88 459.672 171.992 458.134ZM174.348 463.655L174.816 464.466L180.625 461.112L177.372 468.893L177.84 469.703L184.98 465.581L184.512 464.771L178.702 468.125L181.956 460.344L181.488 459.533L174.348 463.655ZM180.057 473.544L180.525 474.354L186.896 470.676L188.282 473.077L189.051 472.633L185.811 467.021L185.042 467.465L186.428 469.866L180.057 473.544ZM190.7 480.769C192.04 479.995 192.32 478.295 191.468 476.82L189.794 473.92L182.655 478.042L183.123 478.853L185.689 477.371L186.781 479.262L185.259 482.552L185.793 483.477L187.364 480.104C188.257 481.098 189.577 481.417 190.7 480.769ZM189.493 475.175L190.615 477.118C191.287 478.282 191.182 479.396 190.226 479.948C189.27 480.5 188.252 480.034 187.58 478.87L186.458 476.927L189.493 475.175ZM186.557 484.801L187.025 485.612L194.164 481.49L193.696 480.679L186.557 484.801ZM188.065 487.413L190.027 490.811C190.741 492.048 192.061 492.463 193.205 491.803C193.984 491.353 194.352 490.503 194.294 489.442C195.04 489.871 195.693 489.993 196.451 489.555C197.491 488.955 197.76 487.718 197.094 486.565L195.204 483.291L188.065 487.413ZM192.648 485.848L194.935 484.528L196.237 486.783C196.693 487.573 196.538 488.41 195.873 488.794C195.208 489.178 194.406 488.893 193.95 488.103L192.648 485.848ZM189.271 487.798L191.91 486.274L193.284 488.654C193.794 489.537 193.604 490.478 192.835 490.922C192.066 491.366 191.155 491.061 190.645 490.178L189.271 487.798ZM193.704 497.468C194.712 499.214 196.704 499.713 198.513 498.669L202.69 496.257L202.222 495.446L198.045 497.858C196.673 498.65 195.174 498.31 194.442 497.042C193.71 495.775 194.165 494.306 195.537 493.514L199.714 491.102L199.246 490.292L195.069 492.704C193.26 493.748 192.696 495.723 193.704 497.468ZM197.723 504.142L198.191 504.953L204.562 501.275L205.948 503.675L206.717 503.231L203.477 497.619L202.708 498.063L204.094 500.464L197.723 504.142ZM201.888 511.644C203.034 513.629 205.688 514.313 207.694 513.155C209.699 511.997 210.423 509.363 209.277 507.378C208.137 505.403 205.481 504.692 203.476 505.85C201.47 507.008 200.748 509.669 201.888 511.644ZM202.636 511.212C201.748 509.674 202.349 507.595 203.95 506.671C205.54 505.753 207.641 506.272 208.529 507.81C209.417 509.348 208.81 511.416 207.22 512.334C205.619 513.258 203.524 512.75 202.636 511.212ZM212.948 519.304C214.288 518.53 214.568 516.83 213.716 515.354L212.042 512.455L204.903 516.577L205.371 517.388L207.938 515.906L209.03 517.797L207.507 521.087L208.041 522.012L209.612 518.638C210.505 519.633 211.825 519.952 212.948 519.304ZM211.741 513.71L212.863 515.653C213.535 516.817 213.43 517.931 212.474 518.483C211.518 519.035 210.501 518.569 209.829 517.405L208.707 515.462L211.741 513.71ZM210.119 525.875C211.079 527.538 212.496 527.856 213.628 527.202C214.886 526.476 214.81 525.217 214.346 523.67C213.935 522.286 213.787 521.429 214.525 521.003C215.18 520.625 216.134 520.934 216.644 521.817C217.076 522.565 217.141 523.47 216.911 524.392L217.833 524.525C218.058 523.523 218.018 522.493 217.406 521.433C216.614 520.061 215.132 519.559 213.989 520.219C212.752 520.933 212.827 522.095 213.323 523.721C213.752 525.136 213.84 525.985 213.082 526.423C212.437 526.795 211.51 526.582 210.874 525.481C210.298 524.483 210.299 523.499 210.553 522.548L209.625 522.405C209.333 523.53 209.441 524.701 210.119 525.875Z" fill="#29264C"/>
</svg>
