<svg width="1789" height="581" viewBox="0 0 1789 581" fill="none" xmlns="http://www.w3.org/2000/svg">
<g clip-path="url(#clip0_7_44)">
<path opacity="0.1" d="M419.462 38.142C419.462 38.142 455.493 21.3119 461.13 20.9619C466.767 20.6119 473.262 23.1219 473.262 23.1219L511.268 16.7419C511.268 16.7419 545.976 11.502 546.991 11.042C548.007 10.582 572.642 5.00195 572.642 5.00195L585.743 11.042L602.915 16.7419L676.943 33.6119L703.665 25.052C703.665 25.052 765.599 53.3319 770.062 54.0919C774.525 54.8419 821.69 37.402 821.69 37.402L832.163 38.3219L906.302 19.032L938.485 27.632L1027.98 6.422C1027.98 6.422 1068.12 20.7419 1070.92 21.4419C1073.71 22.1619 1088.12 19.4219 1088.52 18.9619C1088.91 18.5019 1121.57 30.882 1121.57 30.882L1204.07 46.142L1233.55 47.512L1319.66 65.3519L1509.71 114.852L1785 144.082L1784.96 428.002H-3.99988V158.732L179.033 92.1919L229.469 91.3619L314.78 63.2219L419.462 38.142Z" fill="url(#paint0_linear_7_44)"/>
<path d="M9.98282 236.792C11.265 236.792 12.5099 236.922 13.7173 237.172C17.9383 238.032 21.6446 240.332 24.284 243.542C25.0421 244.462 25.7066 245.452 26.2776 246.502C27.7003 249.132 28.5144 252.142 28.5144 255.342V271.172L35.3935 274.262C42.7407 277.562 47.4673 284.872 47.4673 292.942V301.632H75.5454V214.802C75.5454 208.592 78.952 202.892 84.4179 199.952L124.008 178.652C127.565 176.732 131.879 179.312 131.879 183.362V241.122L148.024 253.332C155.427 258.932 159.78 267.682 159.78 276.972V297.962L165.133 300.972L172.237 304.972V248.022C172.237 246.792 173.229 245.802 174.455 245.802H176.58C179.107 245.802 181.156 247.852 181.156 250.382V309.982L187.933 313.792C191.358 315.712 193.473 319.332 193.473 323.272H229.797V300.302C229.797 296.322 232.174 292.712 235.834 291.162L241.244 288.852V218.182C241.244 213.952 244.669 210.522 248.9 210.522H258.596C262.826 210.522 266.252 213.952 266.252 218.182V278.192L274.423 274.712C278.719 272.872 283.492 276.032 283.492 280.712V323.272H344.983V231.472C344.983 227.372 341.67 224.062 337.58 224.062H300.32C297.849 224.062 295.856 222.062 295.856 219.592C295.856 218.052 296.632 216.692 297.821 215.882C298.532 215.412 299.393 215.132 300.32 215.132H305.861C310.241 215.132 313.928 211.982 314.78 207.692C318.234 190.322 333.555 177.232 351.928 177.232C370.3 177.232 385.621 190.322 389.075 207.692C389.927 211.992 393.614 215.132 397.995 215.132H403.535C404.771 215.132 405.885 215.622 406.689 216.442C407.092 216.842 407.419 217.332 407.644 217.862C407.869 218.392 408 218.982 408 219.602C408 222.072 405.997 224.072 403.535 224.072H366.276C362.186 224.072 358.872 227.382 358.872 231.472V323.282H458.821V306.062H446.064C444.015 306.062 442.349 304.392 442.349 302.342V290.232C442.349 288.182 444.015 286.512 446.064 286.512H458.821V262.632H446.064C444.015 262.632 442.349 260.962 442.349 258.912V246.802C442.349 244.752 444.015 243.092 446.064 243.092H458.821V229.462H440.823C438.521 229.462 436.658 227.602 436.658 225.292C436.658 222.992 438.521 221.132 440.823 221.132H486.646C488.949 221.132 490.811 222.992 490.811 225.292C490.811 227.602 488.949 229.462 486.646 229.462H467.834C467.834 229.462 469.481 253.392 470.343 262.632H481.405C483.455 262.632 485.121 264.292 485.121 266.342V274.292C485.121 276.342 483.455 278.012 481.405 278.012H471.905L472.898 286.502C472.898 286.502 477.811 286.502 481.405 286.502C483.455 286.502 485.121 288.172 485.121 290.222V302.332C485.121 304.382 483.455 306.052 481.405 306.052H475.584L478.616 323.272H535.156V286.892C535.156 285.152 536.569 283.732 538.31 283.732H554.118C555.859 283.732 557.272 282.322 557.272 280.582V242.102C557.272 240.362 558.686 238.952 560.426 238.952H574.568C576.131 238.952 577.451 240.092 577.685 241.632L588.336 312.392H600.185V271.492C600.185 269.392 601.898 267.672 604.004 267.672H608.861C610.967 267.672 612.68 269.392 612.68 271.492V312.392H623.471C627.037 312.392 629.929 315.292 629.929 318.852V323.262H659.383C659.495 322.092 659.598 320.912 659.701 319.722C659.701 319.702 659.701 319.672 659.711 319.652C659.814 318.452 659.917 317.242 660.01 316.002C660.01 315.982 660.01 315.952 660.019 315.932C660.216 313.442 660.403 310.872 660.572 308.222H649.921C649.163 308.222 648.47 307.912 647.974 307.412C647.6 307.042 647.328 306.562 647.225 306.022C647.188 305.842 647.169 305.652 647.169 305.472V304.522C647.169 304.332 647.188 304.142 647.225 303.972C647.338 303.422 647.6 302.952 647.974 302.572C648.47 302.082 649.163 301.772 649.921 301.772H660.946C660.993 300.822 661.04 299.872 661.087 298.902C661.087 298.812 661.096 298.712 661.096 298.612C661.133 297.722 661.18 296.822 661.218 295.912C661.218 295.852 661.227 295.782 661.227 295.722C661.264 294.762 661.302 293.792 661.339 292.822C661.377 291.792 661.414 290.762 661.442 289.732H643.201C641.694 289.732 640.44 288.692 640.084 287.292C640.019 287.042 639.972 286.782 639.972 286.492C639.972 284.712 641.422 283.262 643.201 283.262H661.611C661.667 280.492 661.704 277.662 661.732 274.782C658.073 273.962 654.75 272.232 652.027 269.842C652.008 269.822 651.989 269.802 651.971 269.782C651.222 269.122 650.52 268.402 649.865 267.652C649.827 267.612 649.799 267.572 649.762 267.522C649.125 266.782 648.545 265.992 648.011 265.162C647.974 265.102 647.937 265.032 647.899 264.982C647.384 264.152 646.916 263.302 646.514 262.412C646.476 262.342 646.448 262.262 646.411 262.182C646.018 261.292 645.681 260.372 645.4 259.422C645.372 259.342 645.353 259.252 645.325 259.162C645.194 258.692 645.073 258.222 644.97 257.742H633.86C631.361 257.742 629.339 255.722 629.339 253.222C629.339 251.652 630.135 250.282 631.333 249.462C632.054 248.982 632.924 248.682 633.86 248.682H644.97C645.091 248.092 645.25 247.502 645.419 246.922C645.428 246.882 645.438 246.842 645.456 246.792C645.625 246.242 645.812 245.702 646.027 245.162C646.055 245.092 646.083 245.022 646.111 244.952C646.327 244.422 646.551 243.912 646.804 243.402C646.954 243.102 648.657 240.312 648.807 240.132C649.135 239.682 649.49 239.252 649.846 238.832C649.902 238.762 649.958 238.702 650.005 238.642C650.37 238.232 650.744 237.822 651.137 237.442C651.194 237.392 651.24 237.342 651.297 237.292C651.708 236.902 652.13 236.512 652.569 236.152C652.569 236.152 652.57 236.152 652.579 236.152C653.019 235.782 653.477 235.442 653.945 235.122C654.001 235.082 654.058 235.042 654.104 235.002C654.554 234.702 655.021 234.412 655.499 234.122C655.583 234.082 655.658 234.032 655.742 233.982C656.22 233.712 656.697 233.462 657.193 233.232C657.268 233.192 657.343 233.162 657.417 233.122C657.942 232.892 658.466 232.662 659.009 232.472C659.018 232.472 659.018 232.472 659.027 232.462C659.561 232.262 660.113 232.092 660.675 231.932C660.75 231.912 660.824 231.892 660.909 231.872C661.442 231.732 661.994 231.612 662.547 231.502C662.65 231.482 662.752 231.472 662.855 231.452C663.408 231.352 663.969 231.282 664.531 231.222C664.615 231.212 664.699 231.212 664.793 231.202C665.392 231.162 665.991 231.122 666.599 231.122C667.208 231.122 667.806 231.152 668.405 231.202C668.49 231.212 668.574 231.212 668.667 231.222C669.238 231.282 669.791 231.352 670.343 231.452C670.446 231.472 670.549 231.482 670.652 231.502C671.204 231.612 671.747 231.732 672.28 231.872C672.355 231.892 672.43 231.912 672.514 231.932C673.066 232.092 673.619 232.262 674.161 232.462C674.171 232.462 674.171 232.462 674.18 232.472C674.723 232.662 675.247 232.892 675.771 233.122C675.846 233.162 675.921 233.192 675.996 233.232C676.492 233.462 676.979 233.712 677.447 233.982C677.531 234.032 677.606 234.082 677.69 234.122C678.167 234.412 678.626 234.702 679.085 235.002C679.141 235.042 679.197 235.082 679.244 235.122C679.712 235.442 680.17 235.792 680.61 236.152C680.61 236.152 680.61 236.152 680.62 236.152C681.059 236.512 681.48 236.902 681.892 237.292C681.948 237.342 681.995 237.392 682.051 237.442C682.444 237.822 682.819 238.232 683.184 238.642C683.24 238.702 683.296 238.762 683.343 238.832C683.708 239.252 684.054 239.692 684.382 240.132C684.504 240.302 686.245 243.122 686.385 243.402C686.638 243.912 686.862 244.422 687.077 244.952C687.105 245.022 687.134 245.092 687.162 245.162C687.368 245.702 687.564 246.242 687.733 246.792C687.742 246.832 687.751 246.872 687.77 246.922C687.939 247.502 688.098 248.092 688.219 248.682H699.329C700.265 248.682 701.135 248.972 701.856 249.462C703.063 250.282 703.849 251.652 703.849 253.222C703.849 255.722 701.828 257.742 699.329 257.742H688.219C688.116 258.222 687.995 258.692 687.864 259.162C687.836 259.252 687.817 259.342 687.789 259.422C687.508 260.372 687.171 261.292 686.778 262.182C686.74 262.252 686.712 262.332 686.675 262.412C686.263 263.302 685.805 264.162 685.29 264.982C685.252 265.032 685.215 265.102 685.177 265.162C684.644 265.982 684.064 266.782 683.427 267.522C683.39 267.562 683.362 267.602 683.324 267.652C682.669 268.402 681.967 269.122 681.219 269.782C681.2 269.802 681.181 269.822 681.162 269.832C678.439 272.222 675.116 273.952 671.457 274.772C671.475 277.662 671.513 280.492 671.578 283.252H689.988C691.776 283.252 693.217 284.712 693.217 286.492C693.217 286.932 693.124 287.362 692.964 287.742C692.88 287.942 692.786 288.112 692.665 288.292C692.085 289.152 691.102 289.722 689.988 289.722H671.747C671.747 289.722 671.747 289.722 671.747 289.732C671.775 290.762 671.812 291.792 671.85 292.812C671.887 293.782 671.924 294.742 671.962 295.712C671.962 295.772 671.972 295.842 671.972 295.902C672.009 296.812 672.046 297.712 672.093 298.602C672.093 298.702 672.102 298.792 672.102 298.892C672.149 299.862 672.196 300.812 672.243 301.762H683.268C684.026 301.762 684.719 302.072 685.224 302.562C685.599 302.942 685.87 303.412 685.973 303.962C686.01 304.142 686.029 304.322 686.029 304.512V305.462C686.029 305.642 686.01 305.832 685.973 306.012C685.861 306.552 685.599 307.032 685.224 307.402C684.728 307.902 684.036 308.212 683.268 308.212H672.617C672.786 310.862 672.973 313.422 673.17 315.922C673.17 315.942 673.169 315.972 673.179 315.992C673.272 317.232 673.375 318.432 673.478 319.632C673.478 319.662 673.488 319.692 673.488 319.732C673.59 320.912 673.693 322.092 673.806 323.242V323.252H718.544V320.262C718.544 318.692 719.817 317.422 721.38 317.422H728.333C729.906 317.422 731.169 318.702 731.169 320.262V323.252H754.156C777.321 323.252 792.558 332.982 804.809 340.792C813.457 346.312 820.926 351.072 828.909 351.072H871.289V349.582C871.289 347.822 872.711 346.392 874.471 346.392H875.781C877.541 346.392 878.963 347.822 878.963 349.582V351.072H910.589H918.422H965.762L968.261 314.292C969.019 303.102 975.683 293.152 985.754 288.212L986.334 287.922V244.772C986.334 242.152 989.142 240.492 991.435 241.762L999.8 246.382C1003.84 248.612 1006.34 252.852 1006.34 257.462V301.602L1022.67 311.482C1031.16 316.612 1036.34 325.812 1036.34 335.742V351.062H1175.87V293.302C1175.87 290.762 1179.05 289.602 1180.68 291.552L1180.7 291.582C1187.75 300.072 1200.97 319.152 1209.71 351.052H1346.45C1365.26 351.052 1375.64 340.632 1387.66 328.562C1388.66 327.562 1389.66 326.562 1390.67 325.552C1390.67 325.552 1390.68 325.552 1390.68 325.542C1393.72 322.522 1396.89 319.472 1400.33 316.542V227.112C1400.33 225.132 1401.94 223.522 1403.92 223.522H1408.98C1415.69 223.522 1421.12 228.962 1421.12 235.662V270.892L1435.01 281.582C1439.59 285.102 1442.27 290.552 1442.27 296.322V297.782C1444.18 297.542 1446.15 297.362 1448.2 297.232C1448.36 297.232 1448.52 297.232 1448.68 297.222C1449.55 297.172 1450.42 297.122 1451.32 297.092C1452.37 297.072 1453.46 297.052 1454.56 297.052H1491.66L1492.05 293.062L1497.02 242.922C1497.37 239.292 1494.54 236.162 1490.9 236.162H1464.42C1463.39 236.162 1462.44 235.852 1461.65 235.312C1461.13 234.962 1460.67 234.502 1460.31 233.972C1459.96 233.452 1459.69 232.852 1459.56 232.212C1459.5 231.892 1459.46 231.552 1459.46 231.202C1459.46 230.002 1459.9 228.922 1460.61 228.072C1461.52 226.962 1462.88 226.252 1464.42 226.252C1464.42 226.252 1466.34 226.252 1468.36 226.252C1470.8 226.252 1472.97 224.572 1473.49 222.182C1474.66 216.832 1477.31 212.042 1480.99 208.242C1481.02 208.212 1481.06 208.172 1481.09 208.132C1481.34 207.872 1481.6 207.622 1481.87 207.372C1481.93 207.312 1482 207.242 1482.06 207.192C1482.31 206.962 1482.56 206.742 1482.81 206.512C1482.91 206.442 1482.99 206.352 1483.08 206.282C1483.33 206.072 1483.57 205.872 1483.81 205.692C1483.93 205.602 1484.04 205.512 1484.15 205.432C1484.38 205.252 1484.63 205.072 1484.86 204.902C1484.99 204.812 1485.12 204.712 1485.25 204.622C1485.49 204.462 1485.72 204.302 1485.96 204.152C1486.11 204.062 1486.26 203.962 1486.41 203.862C1486.63 203.722 1486.86 203.582 1487.1 203.442C1487.26 203.352 1487.43 203.252 1487.59 203.162C1487.82 203.032 1488.05 202.912 1488.28 202.782C1488.46 202.692 1488.63 202.602 1488.81 202.512C1489.04 202.402 1489.26 202.292 1489.49 202.192C1489.68 202.102 1489.88 202.012 1490.07 201.922C1490.29 201.822 1490.51 201.732 1490.74 201.632C1490.94 201.552 1491.14 201.472 1491.35 201.392C1491.57 201.312 1491.8 201.222 1492.02 201.142C1492.24 201.062 1492.45 200.992 1492.67 200.922C1492.89 200.852 1493.12 200.772 1493.34 200.712C1493.57 200.642 1493.79 200.582 1494.02 200.512C1494.24 200.452 1494.46 200.392 1494.69 200.332C1494.92 200.282 1495.17 200.222 1495.41 200.162C1495.62 200.122 1495.84 200.062 1496.06 200.022C1496.31 199.982 1496.56 199.932 1496.81 199.892C1497.03 199.852 1497.23 199.822 1497.45 199.782C1497.72 199.742 1497.99 199.702 1498.26 199.682C1498.46 199.652 1498.67 199.622 1498.86 199.602C1499.17 199.572 1499.48 199.552 1499.79 199.542C1499.96 199.532 1500.13 199.512 1500.3 199.502C1500.75 199.482 1501.2 199.462 1501.66 199.462C1501.69 199.462 1501.73 199.462 1501.75 199.462C1501.78 199.462 1501.82 199.462 1501.85 199.462C1502.31 199.462 1502.76 199.472 1503.21 199.502C1503.37 199.512 1503.55 199.532 1503.72 199.542C1504.03 199.552 1504.34 199.572 1504.65 199.602C1504.85 199.622 1505.05 199.652 1505.25 199.682C1505.52 199.712 1505.79 199.742 1506.06 199.782C1506.28 199.812 1506.48 199.852 1506.7 199.892C1506.95 199.942 1507.2 199.982 1507.45 200.022C1507.67 200.072 1507.89 200.122 1508.1 200.162C1508.34 200.222 1508.58 200.272 1508.82 200.332C1509.05 200.392 1509.26 200.452 1509.49 200.512C1509.71 200.582 1509.94 200.632 1510.17 200.712C1510.39 200.772 1510.62 200.852 1510.84 200.922C1511.06 201.002 1511.27 201.062 1511.49 201.142C1511.71 201.222 1511.94 201.312 1512.16 201.392C1512.37 201.462 1512.57 201.552 1512.77 201.632C1513 201.732 1513.22 201.832 1513.44 201.922C1513.63 202.012 1513.83 202.092 1514.02 202.192C1514.24 202.292 1514.47 202.402 1514.7 202.512C1514.88 202.612 1515.05 202.692 1515.23 202.782C1515.47 202.912 1515.69 203.032 1515.92 203.162C1516.08 203.252 1516.24 203.352 1516.4 203.442C1516.64 203.582 1516.87 203.722 1517.09 203.862C1517.24 203.962 1517.39 204.052 1517.54 204.152C1517.78 204.302 1518.01 204.462 1518.25 204.622C1518.38 204.712 1518.51 204.812 1518.64 204.902C1518.88 205.072 1519.12 205.252 1519.35 205.432C1519.46 205.512 1519.58 205.602 1519.69 205.692C1519.93 205.882 1520.17 206.082 1520.42 206.282C1520.51 206.352 1520.6 206.442 1520.69 206.512C1520.94 206.732 1521.19 206.952 1521.44 207.192C1521.5 207.252 1521.57 207.322 1521.63 207.372C1521.9 207.632 1522.16 207.882 1522.41 208.132C1522.45 208.172 1522.49 208.212 1522.51 208.242C1526.19 212.042 1528.84 216.832 1530.01 222.182C1530.54 224.562 1532.69 226.252 1535.14 226.252H1539.08C1540.45 226.252 1541.69 226.802 1542.59 227.702C1543.49 228.602 1544.04 229.842 1544.04 231.212C1544.04 231.562 1544 231.892 1543.94 232.212C1543.81 232.862 1543.54 233.462 1543.19 233.982C1542.3 235.302 1540.79 236.182 1539.08 236.182H1512.6C1508.96 236.182 1506.13 239.312 1506.48 242.942L1511.45 293.082L1511.84 297.072H1559.91L1560.08 281.272C1560.14 275.992 1564.43 271.742 1569.7 271.742V192.632C1569.7 185.232 1574.09 178.532 1580.88 175.582L1583.72 174.352C1586.47 173.162 1589.53 175.162 1589.53 178.162V253.472H1591.28C1595.84 253.472 1599.83 256.512 1601.05 260.912L1612.29 301.592H1623.6C1629.14 301.592 1634.12 304.912 1636.26 310.022L1637.73 313.542H1654.78L1658 292.162C1658.71 287.412 1662.79 283.912 1667.58 283.912H1670.02V262.542H1667.58C1663.79 262.542 1660.72 259.472 1660.72 255.682V253.842C1660.72 252.902 1661.49 252.132 1662.44 252.132H1677.41V244.172H1667.65C1663.86 244.172 1660.79 241.102 1660.79 237.312V235.472C1660.79 234.532 1661.56 233.762 1662.5 233.762H1677.41V225.802H1667.6C1663.81 225.802 1660.74 222.732 1660.74 218.942V217.102C1660.74 216.162 1661.51 215.392 1662.46 215.392H1705.88C1706.83 215.392 1707.6 216.162 1707.6 217.102V218.942C1707.6 222.732 1704.53 225.802 1700.74 225.802H1690.39L1700.25 340.612H1714.43V307.902C1714.43 304.122 1717.5 301.052 1721.28 301.052C1722.46 301.052 1723.57 301.352 1724.55 301.872C1724.74 301.972 1724.93 302.092 1725.11 302.222C1725.47 302.462 1725.81 302.742 1726.12 303.052C1726.43 303.362 1726.71 303.702 1726.95 304.062C1727.69 305.162 1728.12 306.482 1728.12 307.892V340.602H1745.5L1756.42 267.172C1756.81 264.602 1759.01 262.702 1761.6 262.702H1763.37C1764.55 262.702 1765.51 263.662 1765.51 264.852V285.472H1766.85C1771.69 285.472 1776.17 287.992 1778.68 292.132L1793 315.682V580.002H-4V317.782V301.622V236.782H9.98282V236.792ZM878.963 357.652V370.502C880.395 369.712 881.883 369.002 883.418 368.372C883.521 368.332 883.624 368.282 883.727 368.252C884.373 367.992 885.028 367.752 885.693 367.532C885.833 367.482 885.964 367.432 886.105 367.392C886.835 367.142 887.574 366.932 888.332 366.722C888.36 366.712 888.388 366.702 888.416 366.692C889.212 366.492 890.007 366.302 890.822 366.142C890.971 366.112 891.112 366.092 891.262 366.072C891.898 365.942 892.534 365.842 893.18 365.762C893.424 365.722 893.667 365.692 893.91 365.662C894.491 365.602 895.071 365.542 895.661 365.492C895.904 365.482 896.138 365.462 896.381 365.442C897.195 365.392 898.01 365.362 898.824 365.362C899.451 365.362 900.069 365.382 900.696 365.412C900.892 365.422 901.089 365.432 901.295 365.452C901.725 365.482 902.156 365.502 902.586 365.542C902.802 365.562 903.017 365.582 903.232 365.602C903.784 365.652 904.337 365.732 904.88 365.802C905.17 365.852 905.45 365.902 905.741 365.942C906.021 365.992 906.302 366.042 906.583 366.092C906.92 366.162 907.257 366.222 907.594 366.302C907.79 366.352 907.987 366.392 908.193 366.442C909.007 366.632 909.821 366.842 910.617 367.092V357.652H878.963ZM1346.45 357.652H1330.24V392.612H1367.71C1367.76 391.762 1367.81 390.922 1367.88 390.082C1367.88 390.062 1367.88 390.062 1367.88 390.042C1367.94 389.212 1368.03 388.392 1368.11 387.572C1368.11 387.552 1368.12 387.532 1368.12 387.512C1368.22 386.692 1368.31 385.902 1368.42 385.092C1368.42 385.062 1368.43 385.052 1368.43 385.022C1368.54 384.222 1368.66 383.432 1368.81 382.642C1368.81 382.622 1368.81 382.602 1368.81 382.582C1368.95 381.802 1369.1 381.012 1369.25 380.232C1369.25 380.222 1369.25 380.212 1369.26 380.202C1371 371.632 1374.04 364.012 1377.99 357.982C1378.03 357.902 1378.08 357.822 1378.14 357.742C1378.42 357.312 1378.72 356.902 1379.01 356.482C1379.1 356.352 1379.19 356.212 1379.29 356.072C1379.56 355.702 1379.83 355.342 1380.11 354.992C1380.24 354.832 1380.36 354.662 1380.49 354.502C1380.76 354.172 1381.02 353.872 1381.29 353.552C1381.44 353.372 1381.59 353.192 1381.75 353.012C1382 352.722 1382.26 352.452 1382.53 352.172C1382.7 351.982 1382.87 351.812 1383.05 351.632C1383.3 351.372 1383.56 351.122 1383.81 350.882C1384 350.692 1384.19 350.512 1384.38 350.342C1384.63 350.112 1384.88 349.892 1385.13 349.672C1385.33 349.492 1385.54 349.312 1385.75 349.152C1386 348.942 1386.25 348.742 1386.5 348.562C1386.73 348.392 1386.94 348.222 1387.17 348.062C1387.41 347.882 1387.66 347.712 1387.91 347.542C1388.14 347.392 1388.38 347.242 1388.62 347.092C1388.86 346.942 1389.11 346.782 1389.36 346.642C1389.6 346.502 1389.85 346.362 1390.11 346.222C1390.35 346.092 1390.59 345.962 1390.84 345.842C1391.1 345.712 1391.36 345.602 1391.62 345.482C1391.87 345.362 1392.1 345.262 1392.34 345.162C1392.62 345.042 1392.9 344.942 1393.18 344.842C1393.41 344.752 1393.65 344.662 1393.89 344.592C1394.18 344.492 1394.48 344.412 1394.77 344.332C1395 344.272 1395.23 344.202 1395.46 344.152C1395.78 344.072 1396.09 344.012 1396.41 343.952C1396.62 343.902 1396.84 343.862 1397.06 343.822C1397.42 343.762 1397.77 343.722 1398.14 343.692C1398.32 343.672 1398.5 343.642 1398.69 343.622C1399.23 343.572 1399.78 343.562 1400.33 343.562V325.372C1400.33 325.372 1400.33 325.372 1400.32 325.382C1397.57 327.962 1394.93 330.602 1392.31 333.232C1379.79 345.782 1367.97 357.652 1346.45 357.652ZM1559.86 303.662H1512.51L1513.68 315.462L1514.32 321.942H1526.25C1527.59 321.942 1528.87 322.142 1530.08 322.522C1530.88 322.772 1531.66 323.102 1532.39 323.492C1532.75 323.692 1533.11 323.902 1533.46 324.142C1536.88 326.452 1539.14 330.372 1539.14 334.832V339.202H1559.48L1559.86 303.662ZM1470.27 325.882C1471.75 319.492 1477.43 314.982 1483.98 314.982H1489.88L1489.96 314.132L1491 303.662H1454.55C1453.47 303.662 1452.4 303.682 1451.36 303.702C1451.2 303.712 1451.05 303.722 1450.89 303.722C1449.99 303.752 1449.1 303.802 1448.23 303.852C1448.14 303.862 1448.07 303.862 1447.99 303.872C1447.03 303.942 1446.09 304.012 1445.18 304.102C1445.17 304.102 1445.16 304.102 1445.15 304.102C1444.17 304.192 1443.21 304.302 1442.27 304.442V345.282H1465.78L1470.27 325.882ZM1263.52 396.202C1263.52 394.212 1265.13 392.612 1267.11 392.612H1270.07C1273.31 392.612 1276.05 394.752 1276.97 397.692C1277.05 397.912 1277.1 398.152 1277.15 398.382C1277.24 398.852 1277.3 399.332 1277.3 399.832V419.262H1296.95V357.652H1211.38C1212.07 360.512 1212.72 363.472 1213.33 366.522C1213.34 366.592 1213.36 366.672 1213.36 366.732C1214.26 371.292 1215.07 376.082 1215.74 381.072C1215.75 381.132 1215.76 381.202 1215.77 381.262C1216.22 384.602 1216.62 388.032 1216.96 391.572C1216.97 391.622 1216.97 391.672 1216.98 391.722C1217.15 393.482 1217.3 395.272 1217.44 397.082H1237.31C1242.63 397.082 1246.96 401.392 1246.96 406.732V419.272H1263.54V396.202H1263.52ZM1036.35 387.822L1059.93 416.392C1063.75 421.022 1065.83 426.832 1065.83 432.822V445.162H1072.26C1077.44 445.162 1081.63 449.352 1081.63 454.532V458.142H1102.18V422.182C1102.18 419.442 1104.39 417.222 1107.14 417.222C1109.88 417.222 1112.1 419.442 1112.1 422.182V438.942L1142.2 423.552L1148.24 357.652H1036.36V387.822H1036.35ZM965.322 357.652H918.432V370.362C919.134 370.752 919.817 371.152 920.491 371.572C920.65 371.672 920.8 371.772 920.959 371.872C921.511 372.232 922.054 372.592 922.587 372.982C922.719 373.072 922.849 373.162 922.981 373.262C924.291 374.212 925.536 375.242 926.715 376.352C926.827 376.462 926.949 376.572 927.061 376.672C927.548 377.142 928.035 377.622 928.493 378.122C928.596 378.222 928.69 378.322 928.793 378.432C929.906 379.622 930.955 380.892 931.919 382.222C931.984 382.312 932.05 382.412 932.115 382.502C932.536 383.092 932.948 383.702 933.341 384.312C933.397 384.402 933.463 384.492 933.519 384.592C934.408 386.012 935.213 387.492 935.934 389.022C935.962 389.072 935.981 389.132 936.009 389.182C936.336 389.912 936.645 390.642 936.935 391.382C936.963 391.452 936.991 391.522 937.02 391.592C937.637 393.202 938.161 394.872 938.583 396.572C938.583 396.592 938.592 396.612 938.592 396.632C938.789 397.452 938.966 398.292 939.116 399.132C939.125 399.182 939.135 399.252 939.144 399.312C939.444 401.072 939.64 402.852 939.706 404.682H962.121L965.322 357.652ZM815.366 404.702H819.971V384.952C819.971 382.562 821.899 380.642 824.286 380.642H827.899C830.285 380.642 832.213 382.562 832.213 384.952V404.702H857.923C858.139 399.032 859.515 393.642 861.817 388.792C861.817 388.782 861.826 388.772 861.826 388.762C862.107 388.182 862.397 387.602 862.697 387.042C862.706 387.012 862.725 386.982 862.734 386.972C863.024 386.422 863.324 385.902 863.642 385.362C863.67 385.322 863.698 385.262 863.726 385.202C864.026 384.712 864.344 384.212 864.662 383.732C864.709 383.652 864.756 383.582 864.803 383.512C865.112 383.052 865.439 382.592 865.767 382.142C865.832 382.062 865.888 381.962 865.963 381.872C866.281 381.442 866.609 381.032 866.946 380.622C867.03 380.512 867.105 380.402 867.189 380.302C867.517 379.912 867.854 379.522 868.191 379.142C868.294 379.022 868.387 378.902 868.49 378.792C868.837 378.412 869.192 378.042 869.557 377.682C869.66 377.572 869.754 377.462 869.866 377.362C870.334 376.892 870.811 376.432 871.298 375.992V357.652H828.937C819.035 357.652 810.818 352.402 801.309 346.342C789.179 338.592 775.43 329.822 754.175 329.822H731.188V338.862C735.166 338.862 738.385 342.082 738.385 346.062V364.682H748.035C751.339 364.682 754.212 366.932 755.017 370.132L763.853 405.402L765.387 411.542H768.925V389.652C768.925 387.002 771.068 384.862 773.717 384.862H774.925C777.573 384.862 779.716 387.002 779.716 389.652V411.542C782.047 411.542 783.928 413.432 783.928 415.762V425.662H793.671L805.876 409.432C808.122 406.452 811.641 404.702 815.366 404.702ZM710.476 393.622V371.702C710.476 367.822 713.621 364.672 717.505 364.672H718.544V329.822H674.405C674.873 334.152 675.359 338.162 675.865 341.862C675.874 341.912 675.874 341.952 675.884 341.992C675.959 342.562 676.043 343.132 676.118 343.682C676.127 343.732 676.136 343.782 676.136 343.842C676.211 344.372 676.286 344.902 676.361 345.432C676.37 345.502 676.38 345.582 676.398 345.662C676.473 346.162 676.548 346.662 676.614 347.142C676.623 347.232 676.642 347.302 676.651 347.392C676.726 347.872 676.801 348.352 676.866 348.822C676.876 348.882 676.885 348.962 676.894 349.022C676.969 349.492 677.044 349.962 677.11 350.422C677.119 350.482 677.129 350.562 677.147 350.632C677.222 351.082 677.297 351.542 677.362 351.992C677.372 352.052 677.381 352.102 677.391 352.162C677.465 352.622 677.54 353.072 677.615 353.522C677.625 353.562 677.625 353.602 677.634 353.642C677.709 354.102 677.784 354.552 677.868 354.992C677.868 355.022 677.877 355.042 677.877 355.062C677.952 355.522 678.036 355.972 678.111 356.412C678.111 356.422 678.111 356.432 678.111 356.432C678.195 356.882 678.27 357.332 678.354 357.762L689.399 393.652H710.476V393.622ZM629.92 350.442H646.767H655.995C656.219 349.012 656.454 347.512 656.678 345.942C656.688 345.912 656.688 345.862 656.697 345.812C656.922 344.282 657.146 342.682 657.371 341.022C657.38 340.932 657.39 340.852 657.408 340.772C657.511 339.982 657.614 339.172 657.726 338.362C657.726 338.332 657.736 338.302 657.736 338.272C657.848 337.402 657.951 336.522 658.063 335.632C658.073 335.562 658.082 335.492 658.092 335.422C658.185 334.612 658.288 333.792 658.382 332.962C658.391 332.832 658.41 332.722 658.419 332.602C658.522 331.682 658.625 330.762 658.728 329.812C658.728 329.812 658.728 329.812 658.728 329.802H629.938V350.442H629.92ZM515.08 365.552L520.415 376.072H535.156V329.812H480.001L487.068 353.242H495.032C503.503 353.252 511.252 358.002 515.08 365.552ZM392.135 373.272V359.412C392.135 355.232 395.524 351.842 399.698 351.842H407.036C411.21 351.842 414.598 355.232 414.598 359.412V389.922H434.075V329.822H358.891V389.922H375.635V380.832C375.635 376.662 379.023 373.272 383.197 373.272H392.135ZM283.51 342.722L301.864 351.132C313.779 356.592 321.416 368.492 321.416 381.602V389.912H345.002V329.812H283.51V342.722ZM193.483 350.082H213.315V349.782C213.315 342.582 219.155 336.742 226.353 336.742H229.807V329.812H193.483V350.082Z" fill="url(#paint1_linear_7_44)"/>
<path d="M55.0243 332.042V283.932C55.0243 262.992 72.1388 245.872 93.0598 245.872H99.9151C103.889 245.872 107.146 249.122 107.146 253.102V332.042H157.161C163.76 332.042 170.286 332.382 176.712 333.032V307.762C176.712 305.882 177.549 304.092 178.992 302.892C187.217 296.012 196.645 301.872 196.645 309.822V336.132C212.316 339.412 227.271 344.602 241.264 351.452V291.572C241.264 287.592 244.516 284.332 248.495 284.332H259.042C263.016 284.332 266.274 287.582 266.274 291.572V366.142C293.03 384.742 314.751 409.992 329.016 439.482C332.069 445.792 338.48 449.772 345.487 449.772H370.905V415.942C370.905 414.362 371.558 412.842 372.745 411.802C380.411 405.082 389.332 410.542 389.332 417.982V449.772H413.761C419.377 449.772 424.611 452.612 427.675 457.312L435.461 469.262H442.369C445.961 469.262 448.905 472.122 449.01 475.712L449.13 479.802H479.416C484.096 479.802 488.587 481.662 491.897 484.972L501.995 495.082H556.747L570.431 469.262C573.349 463.752 579.069 460.302 585.302 460.302H622.03V447.242C622.03 445.442 623.494 443.972 625.298 443.972H626.658C628.462 443.972 629.926 445.442 629.926 447.242V460.302H660.421C668.223 460.302 674.544 453.982 674.544 446.172V374.192C674.544 369.362 678.937 365.682 683.674 366.602C705.646 370.862 722.238 390.222 722.238 413.452C722.238 413.572 722.227 413.692 722.227 413.812L738.521 422.342C748.225 427.432 755.583 436.082 759.044 446.482L765.617 466.212C767.902 473.072 774.307 477.692 781.523 477.692C798.68 477.692 814.738 486.132 824.474 500.262L840.506 523.522H890.521V512.202C890.521 510.312 892.053 508.772 893.951 508.772H898.678C900.571 508.772 902.108 510.302 902.108 512.202V523.522H939.417C944.463 523.522 949.237 521.262 952.437 517.362L971.282 494.392C974.482 490.482 979.261 488.222 984.307 488.222H995.455C999.4 488.222 1003.19 486.682 1006.03 483.942L1030.56 460.152C1033.6 457.202 1037.67 455.552 1041.9 455.552H1079.52V425.742C1079.52 423.382 1081.43 421.482 1083.78 421.482C1091.31 421.482 1097.42 427.592 1097.42 435.132V445.362H1120.58V426.352C1120.58 420.452 1125.36 415.682 1131.24 415.682H1181.65C1187.8 415.682 1193.48 418.982 1196.52 424.332L1213.13 453.462C1214.79 456.382 1217.88 458.182 1221.24 458.182H1231.7C1234.66 458.182 1237.08 455.852 1237.25 452.892C1241.22 383.272 1295.35 327.082 1364.03 319.992C1371.89 319.182 1378.75 325.282 1378.75 333.192V364.772H1398.36C1406.83 364.772 1414.38 370.112 1417.21 378.102L1425.89 402.622H1448.95C1454.01 402.622 1458.55 405.722 1460.41 410.432L1476.64 451.632C1478.2 455.582 1482.01 458.172 1486.24 458.172H1506.38C1508.84 458.172 1511.03 456.602 1511.83 454.272L1512.9 451.132C1514.04 447.782 1517.18 445.532 1520.72 445.532H1539.68L1548.26 395.212C1549.01 390.842 1552.8 387.642 1557.23 387.642H1583.35C1586.88 387.642 1590.09 389.682 1591.58 392.872L1598.6 407.842H1665.07L1665.89 386.122H1647.64C1636.36 386.122 1627.21 376.972 1627.21 365.672C1627.21 362.702 1629.62 360.292 1632.59 360.292H1666.86L1667.68 338.572H1647.64C1636.36 338.572 1627.21 329.412 1627.21 318.122C1627.21 315.152 1629.62 312.732 1632.59 312.732H1668.65L1669.47 291.022H1647.64C1636.35 291.022 1627.2 281.862 1627.2 270.572C1627.2 267.592 1629.61 265.182 1632.58 265.182H1670.43L1670.69 258.432C1671.3 242.342 1658.43 228.972 1642.34 228.972H1565.23C1561.66 228.972 1558.27 227.272 1556.19 224.372C1547.63 212.492 1556.1 199.232 1567.26 200.032H1792.83L1793 229.012H1755.22C1739.14 229.012 1726.27 242.382 1726.87 258.472L1729.44 326.492H1793V580.002H-3.99988V332.042H55.0243Z" fill="url(#paint2_linear_7_44)"/>
<path d="M1725.96 189.922C1727.6 189.922 1728.92 188.602 1728.92 186.962C1728.92 185.332 1727.6 184.002 1725.96 184.002C1724.33 184.002 1723 185.332 1723 186.962C1723 188.602 1724.33 189.922 1725.96 189.922Z" fill="#C0DBFF"/>
<path d="M1632.96 113.922C1634.6 113.922 1635.92 112.602 1635.92 110.962C1635.92 109.332 1634.6 108.002 1632.96 108.002C1631.33 108.002 1630 109.332 1630 110.962C1630 112.602 1631.33 113.922 1632.96 113.922Z" fill="#C0DBFF"/>
<path d="M1127.44 66.5621C1129.08 66.5621 1130.4 65.2421 1130.4 63.6021C1130.4 61.9621 1129.08 60.6421 1127.44 60.6421C1125.8 60.6421 1124.48 61.9621 1124.48 63.6021C1124.48 65.2421 1125.8 66.5621 1127.44 66.5621Z" fill="#C0DBFF"/>
<path d="M920.509 46.152C922.145 46.152 923.47 44.8219 923.47 43.1919C923.47 41.5519 922.145 40.2319 920.509 40.2319C918.874 40.2319 917.548 41.5519 917.548 43.1919C917.548 44.8219 918.874 46.152 920.509 46.152Z" fill="#C0DBFF"/>
<path d="M220.74 30.672C222.375 30.672 223.701 29.3519 223.701 27.7119C223.701 26.0819 222.375 24.752 220.74 24.752C219.104 24.752 217.778 26.0819 217.778 27.7119C217.778 29.3519 219.104 30.672 220.74 30.672Z" fill="#C0DBFF"/>
<path d="M319.342 69.5219C320.978 69.5219 322.304 68.2019 322.304 66.5619C322.304 64.9319 320.978 63.6018 319.342 63.6018C317.707 63.6018 316.381 64.9319 316.381 66.5619C316.381 68.2019 317.707 69.5219 319.342 69.5219Z" fill="#C0DBFF"/>
<path d="M78.9614 491.922C80.597 491.922 81.9228 490.602 81.9228 488.962C81.9228 487.332 80.597 486.002 78.9614 486.002C77.3259 486.002 76.0001 487.332 76.0001 488.962C76.0001 490.602 77.3259 491.922 78.9614 491.922Z" fill="#C0DBFF"/>
<path d="M1618.96 44.922C1620.6 44.922 1621.92 43.6019 1621.92 41.9619C1621.92 40.3319 1620.6 39.002 1618.96 39.002C1617.33 39.002 1616 40.3319 1616 41.9619C1616 43.6019 1617.33 44.922 1618.96 44.922Z" fill="#C0DBFF"/>
<path d="M249.483 154.972C250.303 154.972 250.967 154.302 250.967 153.482C250.967 152.662 250.303 152.002 249.483 152.002C248.664 152.002 248 152.662 248 153.482C248 154.302 248.664 154.972 249.483 154.972Z" fill="#C0DBFF"/>
<path d="M565.249 43.1919C566.068 43.1919 566.732 42.5319 566.732 41.7119C566.732 40.8919 566.068 40.2319 565.249 40.2319C564.43 40.2319 563.766 40.8919 563.766 41.7119C563.766 42.5319 564.43 43.1919 565.249 43.1919Z" fill="#C0DBFF"/>
<path d="M1094.97 106.062C1095.79 106.062 1096.45 105.402 1096.45 104.582C1096.45 103.762 1095.79 103.102 1094.97 103.102C1094.15 103.102 1093.49 103.762 1093.49 104.582C1093.49 105.402 1094.15 106.062 1094.97 106.062Z" fill="#C0DBFF"/>
<path d="M853.692 44.672C854.511 44.672 855.176 44.0119 855.176 43.1919C855.176 42.3719 854.511 41.7019 853.692 41.7019C852.873 41.7019 852.209 42.3719 852.209 43.1919C852.209 44.0119 852.873 44.672 853.692 44.672Z" fill="#C0DBFF"/>
<path d="M335.483 510.972C336.302 510.972 336.966 510.302 336.966 509.482C336.966 508.662 336.302 508.002 335.483 508.002C334.664 508.002 334 508.662 334 509.482C334 510.302 334.664 510.972 335.483 510.972Z" fill="#C0DBFF"/>
<path d="M1692.21 118.482C1693.03 118.482 1693.7 117.812 1693.7 116.992C1693.7 116.172 1693.03 115.512 1692.21 115.512C1691.39 115.512 1690.73 116.172 1690.73 116.992C1690.73 117.812 1691.39 118.482 1692.21 118.482Z" fill="#C0DBFF"/>
<path d="M1298.97 493.052C1299.78 493.052 1300.45 492.382 1300.45 491.572C1300.45 490.752 1299.78 490.082 1298.97 490.082C1298.15 490.082 1297.48 490.752 1297.48 491.572C1297.48 492.382 1298.15 493.052 1298.97 493.052Z" fill="#C0DBFF"/>
<path d="M1730.05 240.442C1730.87 240.442 1731.53 239.782 1731.53 238.962C1731.53 238.142 1730.87 237.472 1730.05 237.472C1729.23 237.472 1728.56 238.142 1728.56 238.962C1728.56 239.782 1729.23 240.442 1730.05 240.442Z" fill="#C0DBFF"/>
<path d="M64.4834 247.662C65.3026 247.662 65.9667 247.002 65.9667 246.182C65.9667 245.362 65.3026 244.692 64.4834 244.692C63.6642 244.692 63.0001 245.362 63.0001 246.182C63.0001 247.002 63.6642 247.662 64.4834 247.662Z" fill="#C0DBFF"/>
<path d="M117.046 408.772C117.865 408.772 118.529 408.112 118.529 407.292C118.529 406.472 117.865 405.812 117.046 405.812C116.227 405.812 115.562 406.472 115.562 407.292C115.562 408.112 116.227 408.772 117.046 408.772Z" fill="#C0DBFF"/>
<path d="M191.961 145.922C193.597 145.922 194.923 144.602 194.923 142.962C194.923 141.332 193.597 140.002 191.961 140.002C190.326 140.002 189 141.332 189 142.962C189 144.602 190.326 145.922 191.961 145.922Z" fill="#C0DBFF"/>
<path d="M1470.96 167.922C1472.6 167.922 1473.92 166.602 1473.92 164.962C1473.92 163.332 1472.6 162.002 1470.96 162.002C1469.33 162.002 1468 163.332 1468 164.962C1468 166.602 1469.33 167.922 1470.96 167.922Z" fill="#C0DBFF"/>
<path d="M788.89 22.2319C790.526 22.2319 791.852 20.912 791.852 19.272C791.852 17.632 790.526 16.312 788.89 16.312C787.255 16.312 785.929 17.632 785.929 19.272C785.929 20.912 787.255 22.2319 788.89 22.2319Z" fill="#C0DBFF"/>
<path d="M64.0648 28.132C67.4142 28.132 70.1295 25.412 70.1295 22.062C70.1295 18.722 67.4142 16.002 64.0648 16.002C60.7153 16.002 58.0001 18.722 58.0001 22.062C58.0001 25.412 60.7153 28.132 64.0648 28.132Z" fill="#C0DBFF"/>
<path d="M422.573 87.8319C425.923 87.8319 428.638 85.112 428.638 81.762C428.638 78.412 425.923 75.7019 422.573 75.7019C419.224 75.7019 416.509 78.412 416.509 81.762C416.509 85.112 419.224 87.8319 422.573 87.8319Z" fill="#C0DBFF"/>
<path d="M1670.94 459.862C1674.29 459.862 1677.01 457.142 1677.01 453.792C1677.01 450.442 1674.29 447.732 1670.94 447.732C1667.59 447.732 1664.88 450.442 1664.88 453.792C1664.88 457.142 1667.59 459.862 1670.94 459.862Z" fill="#C0DBFF"/>
<path d="M1701.59 42.132C1704.94 42.132 1707.65 39.412 1707.65 36.062C1707.65 32.722 1704.94 30.002 1701.59 30.002C1698.24 30.002 1695.52 32.722 1695.52 36.062C1695.52 39.412 1698.24 42.132 1701.59 42.132Z" fill="#C0DBFF"/>
<path d="M79.0648 313.132C82.4142 313.132 85.1295 310.412 85.1295 307.062C85.1295 303.722 82.4142 301.002 79.0648 301.002C75.7154 301.002 73.0001 303.722 73.0001 307.062C73.0001 310.412 75.7154 313.132 79.0648 313.132Z" fill="#C0DBFF"/>
<path d="M1398.06 82.132C1401.41 82.132 1404.13 79.412 1404.13 76.062C1404.13 72.722 1401.41 70.002 1398.06 70.002C1394.72 70.002 1392 72.722 1392 76.062C1392 79.412 1394.72 82.132 1398.06 82.132Z" fill="#C0DBFF"/>
<path d="M90.078 106.612H86.8431C83.3979 106.612 80.6101 103.822 80.6101 100.382V91.9321C80.5418 91.1121 79.8212 90.512 79.0006 90.572C78.2747 90.642 77.7014 91.2121 77.6435 91.9321V100.382C77.6435 103.822 74.8505 106.612 71.4105 106.612H68.1652C67.3446 106.682 66.7397 107.402 66.8081 108.222C66.8712 108.952 67.4446 109.522 68.1652 109.582H71.4105C74.8558 109.582 77.6435 112.372 77.6435 115.812V124.262C77.7119 125.082 78.4325 125.682 79.2531 125.612C79.9789 125.552 80.5523 124.982 80.6101 124.262V115.812C80.6101 112.372 83.4032 109.582 86.8431 109.582H90.078C90.8985 109.652 91.6139 109.042 91.6875 108.222C91.7559 107.402 91.1458 106.682 90.3305 106.612C90.2463 106.612 90.1622 106.612 90.0833 106.612H90.078Z" fill="#C0DBFF"/>
<path d="M1275.79 29.8218H1274.01C1272.12 29.8218 1270.59 28.2819 1270.59 26.3919V21.7519C1270.55 21.3019 1270.16 20.9719 1269.7 21.0019C1269.3 21.0319 1268.99 21.3519 1268.96 21.7519V26.3919C1268.96 28.2919 1267.42 29.8218 1265.53 29.8218H1263.75C1263.3 29.8618 1262.97 30.2518 1263 30.7018C1263.03 31.1018 1263.35 31.4218 1263.75 31.4518H1265.53C1267.43 31.4518 1268.96 32.9819 1268.96 34.8719V39.5219C1268.99 39.9719 1269.39 40.3019 1269.84 40.2619C1270.24 40.2319 1270.56 39.9219 1270.59 39.5219V34.8719C1270.59 32.9819 1272.12 31.4518 1274.01 31.4518H1275.79C1276.24 31.4918 1276.64 31.1518 1276.67 30.7018C1276.71 30.2518 1276.38 29.8618 1275.93 29.8218C1275.88 29.8218 1275.84 29.8218 1275.79 29.8218Z" fill="#C0DBFF"/>
<path d="M486.413 8.82184H484.635C482.742 8.82184 481.211 7.29192 481.211 5.40192V0.751893C481.174 0.301893 480.78 -0.0281073 480.327 0.00189274C479.928 0.0318927 479.612 0.351893 479.581 0.751893V5.39191C479.581 7.29191 478.045 8.82184 476.156 8.82184H474.373C473.921 8.86184 473.59 9.25184 473.626 9.70184C473.658 10.1018 473.974 10.4218 474.373 10.4518H476.156C478.05 10.4518 479.581 11.9819 479.581 13.8719V18.5219C479.617 18.9719 480.012 19.3019 480.464 19.2619C480.864 19.2319 481.18 18.9219 481.211 18.5219V13.8719C481.211 11.9819 482.747 10.4518 484.635 10.4518H486.413C486.866 10.4918 487.26 10.1518 487.297 9.70184C487.334 9.25184 487.002 8.86184 486.55 8.82184C486.503 8.82184 486.461 8.82184 486.413 8.82184Z" fill="#C0DBFF"/>
<path d="M187.79 529.822H186.012C184.118 529.822 182.588 528.282 182.588 526.392V521.752C182.551 521.302 182.156 520.972 181.704 521.002C181.304 521.032 180.989 521.352 180.957 521.752V526.392C180.957 528.292 179.421 529.822 177.533 529.822H175.75C175.297 529.862 174.966 530.252 175.003 530.702C175.034 531.102 175.35 531.422 175.75 531.452H177.533C179.426 531.452 180.957 532.982 180.957 534.872V539.522C180.994 539.972 181.388 540.302 181.841 540.262C182.24 540.232 182.556 539.922 182.588 539.522V534.872C182.588 532.982 184.123 531.452 186.012 531.452H187.79C188.242 531.492 188.637 531.152 188.673 530.702C188.71 530.252 188.379 529.862 187.926 529.822C187.879 529.822 187.837 529.822 187.79 529.822Z" fill="#C0DBFF"/>
<path d="M1753.28 403.042H1750.04C1746.59 403.042 1743.81 400.252 1743.81 396.812V388.362C1743.74 387.542 1743.02 386.942 1742.2 387.012C1741.47 387.072 1740.9 387.642 1740.84 388.362V396.812C1740.84 400.252 1738.05 403.042 1734.61 403.042H1731.36C1730.54 403.112 1729.94 403.832 1730.01 404.652C1730.07 405.382 1730.64 405.952 1731.36 406.012H1734.61C1738.05 406.012 1740.84 408.802 1740.84 412.242V420.692C1740.91 421.512 1741.63 422.122 1742.45 422.052C1743.18 421.982 1743.75 421.412 1743.81 420.692V412.242C1743.81 408.802 1746.6 406.012 1750.04 406.012H1753.28C1754.1 406.082 1754.81 405.472 1754.88 404.652C1754.95 403.832 1754.34 403.122 1753.53 403.042C1753.44 403.042 1753.36 403.042 1753.28 403.042Z" fill="#C0DBFF"/>
<path d="M1578.48 505.972C1579.3 505.972 1579.97 505.302 1579.97 504.482C1579.97 503.662 1579.3 503.002 1578.48 503.002C1577.66 503.002 1577 503.662 1577 504.482C1577 505.302 1577.66 505.972 1578.48 505.972Z" fill="#C0DBFF"/>
<path d="M1508.48 89.9719C1509.3 89.9719 1509.97 89.3019 1509.97 88.4819C1509.97 87.6619 1509.3 87.002 1508.48 87.002C1507.66 87.002 1507 87.6619 1507 88.4819C1507 89.3019 1507.66 89.9719 1508.48 89.9719Z" fill="#C0DBFF"/>
<path d="M1379.79 493.822H1378.01C1376.12 493.822 1374.59 492.282 1374.59 490.392V485.752C1374.55 485.302 1374.16 484.972 1373.7 485.002C1373.3 485.032 1372.99 485.352 1372.96 485.752V490.392C1372.96 492.292 1371.42 493.822 1369.53 493.822H1367.75C1367.3 493.862 1366.97 494.252 1367 494.702C1367.03 495.102 1367.35 495.422 1367.75 495.452H1369.53C1371.43 495.452 1372.96 496.982 1372.96 498.872V503.522C1372.99 503.972 1373.39 504.302 1373.84 504.262C1374.24 504.232 1374.56 503.922 1374.59 503.522V498.872C1374.59 496.982 1376.12 495.452 1378.01 495.452H1379.79C1380.24 495.492 1380.64 495.152 1380.67 494.702C1380.71 494.252 1380.38 493.862 1379.93 493.822C1379.88 493.822 1379.84 493.822 1379.79 493.822Z" fill="#C0DBFF"/>
</g>
<defs>
<linearGradient id="paint0_linear_7_44" x1="890.37" y1="47.742" x2="890.37" y2="238.712" gradientUnits="userSpaceOnUse">
<stop offset="0.0188" stop-color="#77A4F2"/>
<stop offset="1" stop-color="#C0DBFF"/>
</linearGradient>
<linearGradient id="paint1_linear_7_44" x1="894.5" y1="241.152" x2="894.5" y2="581.562" gradientUnits="userSpaceOnUse">
<stop offset="0.286458" stop-color="#EBF0FF"/>
<stop offset="1" stop-color="#C0DBFF"/>
</linearGradient>
<linearGradient id="paint2_linear_7_44" x1="894" y1="331.002" x2="894" y2="580.002" gradientUnits="userSpaceOnUse">
<stop stop-color="white"/>
<stop offset="1" stop-color="#EBF0FF"/>
</linearGradient>
<clipPath id="clip0_7_44">
<rect width="1789" height="581" fill="white"/>
</clipPath>
</defs>
</svg>
