<svg width="1789" height="580" viewBox="0 0 1789 580" fill="none" xmlns="http://www.w3.org/2000/svg">
<path opacity="0.1" d="M423.456 38.1354C423.456 38.1354 459.487 21.309 465.124 20.9613C470.761 20.6136 477.255 23.124 477.255 23.124L515.26 16.7378C515.26 16.7378 549.968 11.4965 550.983 11.0385C551.999 10.5805 576.634 5 576.634 5L589.734 11.0385L606.906 16.7378L680.933 33.6065L707.655 25.0492C707.655 25.0492 769.588 53.3334 774.051 54.0882C778.514 54.843 825.678 37.3976 825.678 37.3976L836.151 38.322L910.289 19.0277L942.472 27.6274L1031.96 6.42481C1031.96 6.42481 1072.1 20.7408 1074.9 21.4447C1077.69 22.1571 1092.11 19.4178 1092.5 18.9598C1092.89 18.5018 1125.56 30.8756 1125.56 30.8756L1208.05 46.1415L1237.53 47.5069L1323.64 65.3511L1513.69 114.846L1788.97 144.082L1788.94 428H0V158.729L183.031 92.185L233.466 91.3624L318.776 63.2223L423.456 38.1354Z" fill="url(#paint0_linear_7_2)"/>
<path d="M13.9204 238.484C15.1969 238.484 16.4363 238.614 17.6382 238.857C21.8405 239.714 25.5302 242.006 28.1577 245.202C28.9125 246.115 29.5741 247.102 30.1425 248.146C31.5587 250.764 32.3693 253.755 32.3693 256.942V272.688L39.2178 275.763C46.532 279.052 51.2374 286.329 51.2374 294.351V302.997H79.1902V216.597C79.1902 210.42 82.5817 204.746 88.0231 201.82L127.437 180.623C130.977 178.713 135.273 181.284 135.273 185.31V242.788L151.345 254.938C158.716 260.51 163.048 269.222 163.048 278.465V299.354L168.378 302.345L175.45 306.324V249.655C175.45 248.435 176.438 247.447 177.658 247.447H179.773C182.289 247.447 184.33 249.488 184.33 252.003V311.308L191.076 315.101C194.486 317.011 196.592 320.617 196.592 324.53H232.753V301.674C232.753 297.714 235.12 294.127 238.763 292.581L244.149 290.288V219.961C244.149 215.749 247.559 212.339 251.77 212.339H261.423C265.635 212.339 269.045 215.749 269.045 219.961V279.676L277.179 276.21C281.456 274.384 286.208 277.524 286.208 282.182V324.539H347.424V233.182C347.424 229.111 344.126 225.812 340.054 225.812H302.961C300.501 225.812 298.516 223.818 298.516 221.368C298.516 219.83 299.29 218.479 300.473 217.678C301.181 217.203 302.039 216.923 302.961 216.923H308.477C312.838 216.923 316.509 213.793 317.357 209.525C320.795 192.242 336.048 179.216 354.338 179.216C372.629 179.216 387.881 192.242 391.319 209.525C392.167 213.802 395.839 216.923 400.199 216.923H405.715C406.945 216.923 408.054 217.417 408.855 218.228C409.256 218.629 409.582 219.113 409.806 219.644C410.029 220.175 410.16 220.762 410.16 221.377C410.16 223.837 408.166 225.822 405.715 225.822H368.622C364.55 225.822 361.252 229.12 361.252 233.192V324.549H460.754V307.405H448.054C446.014 307.405 444.355 305.746 444.355 303.706V291.658C444.355 289.618 446.014 287.959 448.054 287.959H460.754V264.19H448.054C446.014 264.19 444.355 262.532 444.355 260.492V248.444C444.355 246.404 446.014 244.745 448.054 244.745H460.754V231.188H442.836C440.544 231.188 438.69 229.334 438.69 227.042C438.69 224.75 440.544 222.896 442.836 222.896H488.455C490.747 222.896 492.602 224.75 492.602 227.042C492.602 229.334 490.747 231.188 488.455 231.188H469.727C469.727 231.188 471.367 254.994 472.224 264.19H483.238C485.278 264.19 486.937 265.849 486.937 267.89V275.8C486.937 277.84 485.278 279.499 483.238 279.499H473.78L474.768 287.95C474.768 287.95 479.66 287.95 483.238 287.95C485.278 287.95 486.937 289.608 486.937 291.649V303.696C486.937 305.737 485.278 307.395 483.238 307.395H477.442L480.461 324.539H536.748V288.332C536.748 286.599 538.155 285.192 539.888 285.192H555.625C557.359 285.192 558.766 283.785 558.766 282.052V243.767C558.766 242.034 560.173 240.627 561.906 240.627H575.984C577.541 240.627 578.854 241.764 579.087 243.301L589.691 313.712H601.487V273.014C601.487 270.918 603.192 269.213 605.288 269.213H610.124C612.221 269.213 613.926 270.918 613.926 273.014V313.712H624.669C628.219 313.712 631.098 316.591 631.098 320.141V324.521H660.421C660.532 323.365 660.635 322.191 660.737 320.999C660.737 320.98 660.737 320.952 660.746 320.933C660.849 319.741 660.952 318.529 661.045 317.3C661.045 317.281 661.045 317.253 661.054 317.234C661.25 314.756 661.436 312.194 661.604 309.557H651C650.246 309.557 649.556 309.249 649.062 308.756C648.69 308.383 648.42 307.908 648.317 307.367C648.28 307.19 648.261 307.004 648.261 306.818V305.876C648.261 305.69 648.28 305.504 648.317 305.327C648.429 304.786 648.69 304.311 649.062 303.938C649.556 303.445 650.246 303.137 651 303.137H661.976C662.023 302.196 662.07 301.246 662.116 300.286C662.116 300.193 662.126 300.1 662.126 299.997C662.163 299.112 662.209 298.218 662.247 297.314C662.247 297.249 662.256 297.183 662.256 297.118C662.293 296.168 662.33 295.199 662.368 294.23C662.405 293.214 662.442 292.189 662.47 291.155H644.31C642.81 291.155 641.562 290.121 641.208 288.732C641.142 288.481 641.096 288.22 641.096 287.941C641.096 286.161 642.54 284.726 644.31 284.726H662.638C662.694 281.968 662.731 279.154 662.759 276.284C659.116 275.465 655.808 273.75 653.097 271.365C653.078 271.346 653.06 271.328 653.041 271.309C652.296 270.647 651.597 269.939 650.944 269.185C650.907 269.147 650.879 269.11 650.842 269.064C650.208 268.318 649.631 267.535 649.1 266.706C649.062 266.65 649.025 266.585 648.988 266.529C648.475 265.709 648.009 264.861 647.609 263.976C647.572 263.902 647.544 263.827 647.506 263.743C647.115 262.858 646.779 261.945 646.5 261.004C646.472 260.92 646.453 260.827 646.426 260.743C646.295 260.277 646.174 259.802 646.071 259.327H635.011C632.524 259.327 630.511 257.314 630.511 254.827C630.511 253.271 631.303 251.901 632.495 251.09C633.213 250.606 634.08 250.317 635.011 250.317H646.071C646.192 249.721 646.351 249.134 646.518 248.556C646.528 248.519 646.537 248.481 646.556 248.435C646.724 247.885 646.91 247.345 647.124 246.814C647.152 246.739 647.18 246.674 647.208 246.599C647.422 246.078 647.646 245.565 647.897 245.062C648.047 244.764 649.743 241.987 649.892 241.801C650.218 241.354 650.572 240.925 650.926 240.506C650.982 240.44 651.038 240.385 651.084 240.319C651.448 239.909 651.82 239.509 652.212 239.127C652.267 239.08 652.314 239.024 652.37 238.978C652.78 238.586 653.199 238.204 653.637 237.841C653.637 237.841 653.637 237.841 653.647 237.841C654.085 237.478 654.541 237.142 655.007 236.816C655.063 236.779 655.119 236.741 655.165 236.704C655.613 236.397 656.078 236.108 656.554 235.828C656.637 235.782 656.712 235.735 656.796 235.689C657.271 235.418 657.746 235.167 658.24 234.934C658.315 234.897 658.389 234.869 658.464 234.831C658.985 234.599 659.507 234.375 660.048 234.179C660.057 234.179 660.057 234.179 660.066 234.17C660.598 233.974 661.147 233.807 661.706 233.648C661.781 233.629 661.855 233.602 661.939 233.583C662.47 233.443 663.02 233.322 663.57 233.22C663.672 233.201 663.775 233.182 663.877 233.164C664.427 233.07 664.986 232.996 665.545 232.94C665.629 232.931 665.713 232.931 665.806 232.921C666.402 232.875 666.999 232.838 667.604 232.838C668.21 232.838 668.806 232.865 669.402 232.921C669.486 232.931 669.57 232.931 669.663 232.94C670.232 232.996 670.781 233.07 671.331 233.164C671.434 233.182 671.536 233.201 671.639 233.22C672.189 233.322 672.729 233.443 673.26 233.583C673.334 233.602 673.409 233.629 673.493 233.648C674.043 233.807 674.593 233.974 675.133 234.17C675.142 234.17 675.142 234.17 675.152 234.179C675.692 234.375 676.214 234.599 676.735 234.831C676.81 234.869 676.885 234.897 676.959 234.934C677.453 235.167 677.937 235.418 678.403 235.689C678.487 235.735 678.562 235.782 678.646 235.828C679.121 236.108 679.577 236.397 680.034 236.704C680.09 236.741 680.146 236.779 680.192 236.816C680.658 237.142 681.115 237.487 681.553 237.841C681.553 237.841 681.553 237.841 681.562 237.841C682 238.204 682.419 238.586 682.829 238.978C682.885 239.024 682.932 239.08 682.988 239.127C683.379 239.509 683.752 239.909 684.115 240.319C684.171 240.385 684.227 240.44 684.273 240.506C684.637 240.925 684.982 241.363 685.308 241.801C685.429 241.969 687.162 244.782 687.302 245.062C687.553 245.565 687.777 246.078 687.991 246.599C688.019 246.674 688.047 246.739 688.075 246.814C688.28 247.345 688.476 247.885 688.643 248.435C688.653 248.472 688.662 248.509 688.681 248.556C688.848 249.134 689.007 249.721 689.128 250.317H700.188C701.12 250.317 701.986 250.596 702.704 251.09C703.906 251.901 704.688 253.271 704.688 254.827C704.688 257.314 702.676 259.327 700.188 259.327H689.128C689.025 259.802 688.904 260.277 688.774 260.743C688.746 260.827 688.727 260.92 688.699 261.004C688.42 261.945 688.084 262.858 687.693 263.743C687.656 263.818 687.628 263.892 687.59 263.976C687.181 264.861 686.724 265.719 686.211 266.529C686.174 266.585 686.137 266.65 686.1 266.706C685.569 267.526 684.991 268.318 684.357 269.064C684.32 269.101 684.292 269.138 684.255 269.185C683.602 269.939 682.904 270.647 682.158 271.309C682.14 271.328 682.121 271.346 682.103 271.356C679.391 273.741 676.083 275.455 672.44 276.275C672.459 279.145 672.496 281.968 672.561 284.717H690.889C692.668 284.717 694.103 286.161 694.103 287.931C694.103 288.378 694.01 288.798 693.852 289.18C693.768 289.375 693.675 289.552 693.554 289.729C692.976 290.587 691.998 291.146 690.889 291.146H672.729C672.729 291.146 672.729 291.146 672.729 291.155C672.757 292.189 672.794 293.205 672.831 294.22C672.869 295.189 672.906 296.149 672.943 297.109C672.943 297.174 672.953 297.239 672.953 297.304C672.99 298.208 673.027 299.103 673.074 299.988C673.074 300.081 673.083 300.174 673.083 300.277C673.13 301.236 673.176 302.187 673.223 303.128H684.199C684.954 303.128 685.643 303.435 686.146 303.929C686.519 304.302 686.789 304.777 686.892 305.317C686.929 305.494 686.948 305.681 686.948 305.867V306.808C686.948 306.995 686.929 307.181 686.892 307.358C686.78 307.898 686.519 308.374 686.146 308.746C685.652 309.24 684.963 309.548 684.199 309.548H673.596C673.763 312.184 673.95 314.737 674.145 317.225C674.145 317.244 674.145 317.272 674.154 317.29C674.248 318.52 674.35 319.722 674.453 320.915C674.453 320.943 674.462 320.971 674.462 321.008C674.564 322.191 674.667 323.356 674.779 324.502V324.511H719.317V321.539C719.317 319.974 720.584 318.716 722.14 318.716H729.063C730.628 318.716 731.886 319.983 731.886 321.539V324.511H754.77C777.831 324.511 793 334.192 805.197 341.972C813.806 347.46 821.242 352.202 829.19 352.202H871.38V350.712C871.38 348.96 872.796 347.544 874.548 347.544H875.852C877.604 347.544 879.02 348.96 879.02 350.712V352.202H910.504H918.303H965.431L967.919 315.595C968.674 304.46 975.308 294.565 985.334 289.646L985.911 289.357V246.422C985.911 243.813 988.707 242.164 990.989 243.422L999.319 248.025C1003.34 250.242 1005.82 254.463 1005.82 259.047V302.969L1022.08 312.799C1030.53 317.905 1035.7 327.064 1035.7 336.941V352.184H1174.6V294.714C1174.6 292.18 1177.77 291.034 1179.39 292.972L1179.41 293C1186.43 301.451 1199.59 320.44 1208.28 352.175H1344.41C1363.14 352.175 1373.48 341.804 1385.45 329.794C1386.44 328.807 1387.43 327.81 1388.44 326.803C1388.44 326.803 1388.45 326.803 1388.45 326.794C1391.48 323.784 1394.64 320.756 1398.06 317.84V228.85C1398.06 226.874 1399.66 225.272 1401.63 225.272H1406.67C1413.35 225.272 1418.76 230.685 1418.76 237.356V272.408L1432.59 283.049C1437.14 286.552 1439.81 291.975 1439.81 297.714V299.168C1441.71 298.935 1443.67 298.749 1445.71 298.628C1445.87 298.618 1446.03 298.618 1446.19 298.609C1447.06 298.562 1447.92 298.516 1448.82 298.488C1449.87 298.46 1450.95 298.441 1452.04 298.441H1488.98L1489.37 294.472L1494.32 244.577C1494.67 240.972 1491.85 237.85 1488.22 237.85H1461.86C1460.84 237.85 1459.89 237.543 1459.1 237.012C1458.58 236.658 1458.13 236.201 1457.77 235.679C1457.42 235.158 1457.16 234.561 1457.03 233.918C1456.96 233.602 1456.92 233.266 1456.92 232.921C1456.92 231.729 1457.36 230.648 1458.07 229.8C1458.97 228.701 1460.32 227.992 1461.86 227.992C1461.86 227.992 1463.77 227.992 1465.78 227.992C1468.22 227.992 1470.37 226.325 1470.89 223.939C1472.06 218.619 1474.69 213.849 1478.35 210.075C1478.39 210.038 1478.43 210.001 1478.46 209.963C1478.71 209.702 1478.97 209.451 1479.23 209.209C1479.3 209.143 1479.36 209.078 1479.43 209.022C1479.67 208.799 1479.92 208.575 1480.17 208.351C1480.26 208.277 1480.35 208.193 1480.44 208.118C1480.68 207.913 1480.93 207.718 1481.17 207.531C1481.28 207.448 1481.39 207.354 1481.5 207.271C1481.74 207.094 1481.98 206.917 1482.21 206.749C1482.34 206.656 1482.47 206.563 1482.6 206.469C1482.84 206.311 1483.07 206.153 1483.3 206.003C1483.45 205.91 1483.6 205.808 1483.75 205.715C1483.97 205.575 1484.21 205.435 1484.44 205.295C1484.6 205.202 1484.76 205.109 1484.93 205.016C1485.16 204.885 1485.39 204.764 1485.61 204.643C1485.79 204.55 1485.97 204.457 1486.14 204.373C1486.37 204.261 1486.59 204.149 1486.82 204.047C1487.01 203.963 1487.21 203.87 1487.39 203.786C1487.62 203.683 1487.84 203.59 1488.06 203.497C1488.27 203.413 1488.46 203.339 1488.67 203.255C1488.89 203.171 1489.12 203.087 1489.34 203.003C1489.55 202.929 1489.77 202.854 1489.98 202.789C1490.21 202.714 1490.43 202.64 1490.65 202.575C1490.88 202.509 1491.1 202.444 1491.33 202.379C1491.55 202.323 1491.77 202.258 1492 202.202C1492.23 202.146 1492.47 202.09 1492.71 202.034C1492.93 201.988 1493.14 201.932 1493.36 201.894C1493.61 201.848 1493.86 201.801 1494.11 201.764C1494.32 201.727 1494.53 201.689 1494.74 201.652C1495.01 201.615 1495.28 201.578 1495.55 201.55C1495.75 201.522 1495.96 201.494 1496.15 201.475C1496.46 201.447 1496.77 201.429 1497.07 201.41C1497.24 201.401 1497.41 201.382 1497.59 201.373C1498.03 201.354 1498.48 201.335 1498.94 201.335C1498.96 201.335 1499 201.335 1499.03 201.335C1499.06 201.335 1499.1 201.335 1499.12 201.335C1499.58 201.335 1500.03 201.345 1500.47 201.373C1500.64 201.382 1500.82 201.401 1500.99 201.41C1501.29 201.429 1501.6 201.447 1501.91 201.475C1502.11 201.494 1502.31 201.522 1502.51 201.55C1502.78 201.587 1503.05 201.615 1503.32 201.652C1503.53 201.68 1503.74 201.727 1503.95 201.764C1504.2 201.811 1504.45 201.848 1504.7 201.894C1504.92 201.941 1505.13 201.988 1505.35 202.034C1505.59 202.09 1505.82 202.137 1506.06 202.202C1506.29 202.258 1506.5 202.323 1506.73 202.379C1506.95 202.444 1507.18 202.5 1507.41 202.575C1507.63 202.64 1507.85 202.714 1508.08 202.789C1508.29 202.864 1508.51 202.929 1508.72 203.003C1508.94 203.087 1509.17 203.171 1509.39 203.255C1509.6 203.329 1509.8 203.413 1510 203.497C1510.22 203.59 1510.44 203.693 1510.67 203.786C1510.85 203.87 1511.05 203.954 1511.24 204.047C1511.46 204.149 1511.69 204.261 1511.92 204.373C1512.09 204.466 1512.27 204.55 1512.45 204.643C1512.68 204.764 1512.9 204.885 1513.13 205.016C1513.3 205.109 1513.45 205.202 1513.61 205.295C1513.85 205.435 1514.08 205.575 1514.3 205.715C1514.45 205.808 1514.6 205.901 1514.75 206.003C1514.98 206.153 1515.21 206.311 1515.45 206.469C1515.58 206.563 1515.71 206.656 1515.84 206.749C1516.08 206.917 1516.31 207.094 1516.55 207.271C1516.66 207.354 1516.77 207.448 1516.88 207.531C1517.12 207.727 1517.37 207.923 1517.61 208.118C1517.7 208.193 1517.79 208.277 1517.88 208.351C1518.13 208.566 1518.38 208.789 1518.62 209.022C1518.69 209.088 1518.76 209.153 1518.82 209.209C1519.08 209.46 1519.34 209.712 1519.59 209.963C1519.63 210.001 1519.67 210.038 1519.7 210.075C1523.36 213.849 1526 218.619 1527.16 223.939C1527.68 226.315 1529.82 227.992 1532.27 227.992H1536.19C1537.55 227.992 1538.79 228.542 1539.68 229.437C1540.58 230.331 1541.13 231.561 1541.13 232.931C1541.13 233.275 1541.09 233.602 1541.02 233.928C1540.89 234.571 1540.63 235.167 1540.28 235.689C1539.39 237.002 1537.89 237.869 1536.19 237.869H1509.83C1506.2 237.869 1503.38 240.99 1503.74 244.596L1508.68 294.491L1509.07 298.46H1556.93L1557.1 282.741C1557.15 277.486 1561.43 273.256 1566.68 273.256V194.543C1566.68 187.173 1571.05 180.511 1577.8 177.576L1580.63 176.346C1583.36 175.163 1586.41 177.157 1586.41 180.138V255.078H1588.15C1592.69 255.078 1596.67 258.106 1597.88 262.485L1609.07 302.96H1620.34C1625.84 302.96 1630.81 306.268 1632.93 311.346L1634.4 314.849H1651.37L1654.58 293.578C1655.29 288.854 1659.35 285.369 1664.12 285.369H1666.54V264.107H1664.12C1660.35 264.107 1657.29 261.051 1657.29 257.277V255.451C1657.29 254.51 1658.05 253.746 1658.99 253.746H1673.9V245.826H1664.18C1660.41 245.826 1657.35 242.77 1657.35 238.996V237.17C1657.35 236.229 1658.12 235.465 1659.06 235.465H1673.9V227.545H1664.14C1660.36 227.545 1657.31 224.489 1657.31 220.716V218.889C1657.31 217.948 1658.07 217.184 1659.01 217.184H1702.25C1703.19 217.184 1703.95 217.948 1703.95 218.889V220.716C1703.95 224.489 1700.9 227.545 1697.12 227.545H1686.83L1696.64 341.786H1710.75V309.24C1710.75 305.476 1713.81 302.42 1717.57 302.42C1718.75 302.42 1719.86 302.718 1720.83 303.24C1721.02 303.342 1721.21 303.463 1721.38 303.584C1721.75 303.827 1722.08 304.106 1722.39 304.414C1722.7 304.721 1722.98 305.057 1723.22 305.42C1723.96 306.51 1724.38 307.824 1724.38 309.231V341.776H1741.69L1752.56 268.709C1752.94 266.156 1755.13 264.265 1757.71 264.265H1759.47C1760.65 264.265 1761.61 265.215 1761.61 266.399V286.925H1762.94C1767.76 286.925 1772.22 289.431 1774.72 293.55L1788.97 316.983V580H0.00012207V319.07V302.988V238.475H13.9204V238.484ZM879.02 358.743V371.536C880.446 370.744 881.927 370.036 883.455 369.412C883.558 369.374 883.66 369.328 883.763 369.291C884.406 369.039 885.058 368.797 885.719 368.573C885.859 368.527 885.99 368.48 886.129 368.433C886.856 368.191 887.592 367.977 888.347 367.772C888.375 367.763 888.403 367.753 888.431 367.744C889.223 367.539 890.015 367.353 890.825 367.194C890.974 367.166 891.114 367.148 891.263 367.12C891.897 366.998 892.531 366.896 893.173 366.812C893.416 366.775 893.658 366.747 893.9 366.719C894.478 366.654 895.056 366.598 895.643 366.551C895.885 366.533 896.118 366.514 896.36 366.495C897.171 366.449 897.981 366.421 898.792 366.421C899.416 366.421 900.031 366.439 900.655 366.467C900.851 366.477 901.047 366.486 901.252 366.505C901.68 366.533 902.109 366.561 902.538 366.598C902.752 366.617 902.966 366.635 903.18 366.654C903.73 366.71 904.28 366.784 904.82 366.859C905.109 366.905 905.389 366.952 905.678 366.998C905.957 367.045 906.237 367.092 906.516 367.148C906.852 367.213 907.187 367.278 907.523 367.353C907.718 367.399 907.914 367.446 908.119 367.492C908.93 367.679 909.74 367.893 910.532 368.135V358.743H879.02ZM1344.41 358.743H1328.29V393.534H1365.58C1365.63 392.686 1365.69 391.848 1365.75 391.019C1365.75 391 1365.75 390.991 1365.75 390.972C1365.82 390.152 1365.9 389.332 1365.98 388.522C1365.98 388.503 1365.99 388.475 1365.99 388.456C1366.09 387.646 1366.18 386.854 1366.29 386.053C1366.29 386.025 1366.3 386.006 1366.3 385.978C1366.41 385.186 1366.53 384.394 1366.67 383.611C1366.67 383.593 1366.68 383.574 1366.68 383.556C1366.82 382.773 1366.96 381.99 1367.12 381.217C1367.12 381.208 1367.12 381.198 1367.13 381.189C1368.86 372.654 1371.88 365.07 1375.81 359.069C1375.86 358.995 1375.91 358.911 1375.96 358.836C1376.24 358.408 1376.54 357.998 1376.83 357.579C1376.92 357.448 1377.02 357.308 1377.11 357.178C1377.38 356.805 1377.65 356.451 1377.93 356.097C1378.06 355.939 1378.18 355.771 1378.31 355.613C1378.57 355.287 1378.83 354.979 1379.1 354.662C1379.25 354.485 1379.4 354.308 1379.56 354.131C1379.81 353.842 1380.07 353.572 1380.33 353.293C1380.51 353.106 1380.68 352.929 1380.86 352.752C1381.11 352.501 1381.36 352.249 1381.61 352.007C1381.8 351.82 1381.99 351.643 1382.18 351.466C1382.43 351.243 1382.67 351.019 1382.92 350.805C1383.13 350.628 1383.33 350.451 1383.55 350.283C1383.79 350.078 1384.04 349.882 1384.29 349.696C1384.52 349.528 1384.73 349.361 1384.96 349.202C1385.2 349.025 1385.45 348.858 1385.69 348.69C1385.92 348.531 1386.16 348.382 1386.4 348.233C1386.64 348.084 1386.88 347.926 1387.14 347.786C1387.38 347.646 1387.63 347.507 1387.88 347.376C1388.12 347.246 1388.37 347.115 1388.61 346.994C1388.87 346.864 1389.13 346.752 1389.39 346.631C1389.63 346.519 1389.87 346.416 1390.11 346.314C1390.38 346.202 1390.66 346.1 1390.94 345.997C1391.17 345.913 1391.41 345.82 1391.65 345.746C1391.93 345.652 1392.23 345.568 1392.52 345.494C1392.75 345.429 1392.98 345.364 1393.21 345.308C1393.53 345.233 1393.83 345.177 1394.15 345.112C1394.37 345.065 1394.58 345.019 1394.8 344.982C1395.16 344.926 1395.51 344.888 1395.88 344.851C1396.06 344.832 1396.24 344.804 1396.42 344.786C1396.97 344.739 1397.52 344.721 1398.06 344.721V326.626C1398.06 326.626 1398.06 326.626 1398.05 326.636C1395.31 329.198 1392.68 331.825 1390.07 334.444C1377.61 346.938 1365.84 358.743 1344.41 358.743ZM1556.87 305.019H1509.74L1510.9 316.759L1511.54 323.207H1523.41C1524.75 323.207 1526.02 323.412 1527.23 323.784C1528.03 324.036 1528.8 324.362 1529.53 324.753C1529.89 324.949 1530.24 325.163 1530.59 325.396C1534 327.698 1536.24 331.602 1536.24 336.037V340.388H1556.5L1556.87 305.019ZM1467.69 327.129C1469.16 320.775 1474.81 316.284 1481.34 316.284H1487.21L1487.29 315.436L1488.32 305.019H1452.03C1450.96 305.019 1449.9 305.038 1448.86 305.066C1448.71 305.075 1448.55 305.084 1448.39 305.084C1447.49 305.112 1446.61 305.159 1445.74 305.215C1445.66 305.224 1445.58 305.224 1445.5 305.234C1444.55 305.299 1443.62 305.373 1442.71 305.457C1442.7 305.457 1442.69 305.457 1442.68 305.457C1441.7 305.55 1440.75 305.662 1439.81 305.793V346.435H1463.21L1467.69 327.129ZM1261.86 397.103C1261.86 395.128 1263.46 393.534 1265.43 393.534H1268.38C1271.61 393.534 1274.34 395.659 1275.25 398.584C1275.32 398.808 1275.38 399.041 1275.43 399.274C1275.52 399.74 1275.58 400.224 1275.58 400.718V420.052H1295.14V358.743H1209.95C1210.64 361.594 1211.28 364.539 1211.89 367.576C1211.9 367.641 1211.92 367.716 1211.93 367.781C1212.82 372.319 1213.62 377.08 1214.29 382.046C1214.3 382.111 1214.31 382.176 1214.32 382.242C1214.77 385.559 1215.17 388.978 1215.51 392.5C1215.51 392.547 1215.51 392.603 1215.52 392.649C1215.69 394.401 1215.84 396.181 1215.98 397.979H1235.76C1241.06 397.979 1245.37 402.274 1245.37 407.585V420.061H1261.88V397.103H1261.86ZM1035.7 388.764L1059.18 417.201C1062.98 421.803 1065.05 427.58 1065.05 433.543V445.824H1071.46C1076.61 445.824 1080.78 449.998 1080.78 455.15V458.737H1101.23V422.959C1101.23 420.229 1103.44 418.02 1106.17 418.02C1108.9 418.02 1111.11 420.229 1111.11 422.959V439.637L1141.08 424.319L1147.1 358.743H1035.71V388.764H1035.7ZM964.993 358.743H918.312V371.396C919.011 371.778 919.691 372.179 920.362 372.598C920.521 372.691 920.67 372.794 920.828 372.896C921.378 373.25 921.918 373.614 922.449 373.996C922.58 374.089 922.71 374.182 922.841 374.275C924.145 375.226 925.384 376.251 926.558 377.35C926.67 377.462 926.791 377.574 926.903 377.676C927.388 378.142 927.872 378.617 928.329 379.111C928.431 379.214 928.524 379.316 928.627 379.419C929.736 380.611 930.779 381.869 931.739 383.192C931.804 383.285 931.869 383.378 931.935 383.472C932.354 384.059 932.764 384.664 933.155 385.27C933.211 385.363 933.276 385.456 933.332 385.549C934.217 386.966 935.019 388.438 935.736 389.957C935.764 390.012 935.783 390.068 935.811 390.124C936.137 390.842 936.444 391.568 936.733 392.304C936.761 392.379 936.789 392.444 936.817 392.519C937.432 394.121 937.954 395.78 938.373 397.476C938.373 397.494 938.382 397.513 938.382 397.532C938.578 398.352 938.755 399.181 938.904 400.019C938.913 400.075 938.923 400.14 938.932 400.196C939.23 401.948 939.426 403.728 939.491 405.544H961.807L964.993 358.743ZM815.707 405.563H820.291V385.913C820.291 383.537 822.211 381.617 824.587 381.617H828.183C830.559 381.617 832.479 383.537 832.479 385.913V405.563H858.074C858.288 399.917 859.658 394.559 861.95 389.733C861.95 389.724 861.96 389.714 861.96 389.705C862.239 389.127 862.528 388.55 862.826 387.991C862.835 387.963 862.854 387.935 862.863 387.916C863.152 387.376 863.45 386.854 863.767 386.323C863.795 386.276 863.823 386.22 863.851 386.164C864.149 385.671 864.466 385.177 864.783 384.692C864.829 384.618 864.876 384.552 864.923 384.478C865.23 384.021 865.556 383.565 865.882 383.118C865.948 383.034 866.003 382.941 866.078 382.847C866.395 382.419 866.721 382.009 867.056 381.599C867.14 381.496 867.215 381.385 867.299 381.282C867.625 380.891 867.96 380.509 868.295 380.127C868.398 380.015 868.491 379.894 868.594 379.782C868.938 379.4 869.292 379.037 869.656 378.673C869.758 378.571 869.852 378.459 869.963 378.356C870.429 377.891 870.904 377.434 871.389 376.996V358.743H829.218C819.36 358.743 811.179 353.526 801.712 347.488C789.637 339.782 775.949 331.052 754.789 331.052H731.905V340.043C735.865 340.043 739.07 343.249 739.07 347.208V365.741H748.676C751.965 365.741 754.826 367.977 755.627 371.163L764.423 406.262L765.951 412.374H769.473V390.59C769.473 387.953 771.607 385.82 774.244 385.82H775.446C778.083 385.82 780.216 387.953 780.216 390.59V412.374C782.536 412.374 784.409 414.247 784.409 416.567V426.425H794.109L806.259 410.268C808.495 407.305 811.999 405.563 815.707 405.563ZM711.285 394.541V372.729C711.285 368.862 714.416 365.731 718.283 365.731H719.317V331.052H675.375C675.841 335.357 676.325 339.354 676.829 343.034C676.838 343.081 676.838 343.127 676.847 343.165C676.922 343.733 677.006 344.292 677.08 344.842C677.09 344.898 677.099 344.944 677.099 345C677.173 345.531 677.248 346.062 677.323 346.584C677.332 346.659 677.341 346.733 677.36 346.817C677.434 347.311 677.509 347.805 677.574 348.289C677.583 348.373 677.602 348.448 677.611 348.531C677.686 349.016 677.76 349.491 677.826 349.957C677.835 350.022 677.844 350.097 677.854 350.162C677.928 350.628 678.003 351.094 678.068 351.55C678.077 351.615 678.087 351.69 678.105 351.755C678.18 352.212 678.254 352.668 678.319 353.116C678.329 353.171 678.338 353.227 678.347 353.283C678.422 353.74 678.496 354.187 678.571 354.634C678.58 354.672 678.58 354.718 678.59 354.755C678.664 355.212 678.739 355.659 678.823 356.097C678.823 356.125 678.832 356.144 678.832 356.172C678.906 356.628 678.99 357.075 679.065 357.513C679.065 357.523 679.065 357.532 679.065 357.532C679.149 357.979 679.223 358.427 679.307 358.855L690.302 394.569H711.285V394.541ZM631.089 351.569H647.86H657.047C657.271 350.143 657.504 348.653 657.728 347.097C657.737 347.059 657.737 347.013 657.746 346.966C657.97 345.438 658.194 343.845 658.417 342.196C658.427 342.112 658.436 342.028 658.454 341.953C658.557 341.161 658.659 340.36 658.771 339.549C658.771 339.521 658.781 339.494 658.781 339.456C658.892 338.599 658.995 337.723 659.107 336.838C659.116 336.764 659.125 336.698 659.135 336.624C659.228 335.823 659.33 335.003 659.424 334.173C659.433 334.052 659.451 333.94 659.461 333.819C659.563 332.906 659.666 331.984 659.768 331.043C659.768 331.043 659.768 331.043 659.768 331.033H631.107V351.569H631.089ZM516.762 366.607L522.073 377.071H536.748V331.043H481.84L488.875 354.355H496.804C505.236 354.364 512.951 359.097 516.762 366.607ZM394.366 374.285V360.495C394.366 356.339 397.739 352.967 401.895 352.967H409.2C413.356 352.967 416.729 356.339 416.729 360.495V390.86H436.119V331.052H361.27V390.86H377.939V381.813C377.939 377.658 381.312 374.285 385.468 374.285H394.366ZM286.227 343.891L304.499 352.258C316.36 357.69 323.963 369.533 323.963 382.577V390.851H347.443V331.043H286.227V343.891ZM196.601 351.215H216.345V350.917C216.345 343.752 222.159 337.938 229.324 337.938H232.762V331.043H196.601V351.215Z" fill="url(#paint1_linear_7_2)"/>
<path d="M13.9204 238.484C15.1969 238.484 16.4363 238.614 17.6382 238.857C21.8405 239.714 25.5302 242.006 28.1577 245.202C28.9125 246.115 29.5741 247.102 30.1425 248.146C31.5587 250.764 32.3693 253.755 32.3693 256.942V272.688L39.2178 275.763C46.532 279.052 51.2374 286.329 51.2374 294.351V302.997H79.1902V216.597C79.1902 210.42 82.5817 204.746 88.0231 201.82L127.437 180.623C130.977 178.713 135.273 181.284 135.273 185.31V242.788L151.345 254.938C158.716 260.51 163.048 269.222 163.048 278.465V299.354L168.378 302.345L175.45 306.324V249.655C175.45 248.435 176.438 247.447 177.658 247.447H179.773C182.289 247.447 184.33 249.488 184.33 252.003V311.308L191.076 315.101C194.486 317.011 196.592 320.617 196.592 324.53H232.753V301.674C232.753 297.714 235.12 294.127 238.763 292.581L244.149 290.288V219.961C244.149 215.749 247.559 212.339 251.77 212.339H261.423C265.635 212.339 269.045 215.749 269.045 219.961V279.676L277.179 276.21C281.456 274.384 286.208 277.524 286.208 282.182V324.539H347.424V233.182C347.424 229.111 344.126 225.812 340.054 225.812H302.961C300.501 225.812 298.516 223.818 298.516 221.368C298.516 219.83 299.29 218.479 300.473 217.678C301.181 217.203 302.039 216.923 302.961 216.923H308.477C312.838 216.923 316.509 213.793 317.357 209.525C320.795 192.242 336.048 179.216 354.338 179.216C372.629 179.216 387.881 192.242 391.319 209.525C392.167 213.802 395.839 216.923 400.199 216.923H405.715C406.945 216.923 408.054 217.417 408.855 218.228C409.256 218.629 409.582 219.113 409.806 219.644C410.029 220.175 410.16 220.762 410.16 221.377C410.16 223.837 408.166 225.822 405.715 225.822H368.622C364.55 225.822 361.252 229.12 361.252 233.192V324.549H460.754V307.405H448.054C446.014 307.405 444.355 305.746 444.355 303.706V291.658C444.355 289.618 446.014 287.959 448.054 287.959H460.754V264.19H448.054C446.014 264.19 444.355 262.532 444.355 260.492V248.444C444.355 246.404 446.014 244.745 448.054 244.745H460.754V231.188H442.836C440.544 231.188 438.69 229.334 438.69 227.042C438.69 224.75 440.544 222.896 442.836 222.896H488.455C490.747 222.896 492.602 224.75 492.602 227.042C492.602 229.334 490.747 231.188 488.455 231.188H469.727C469.727 231.188 471.367 254.994 472.224 264.19H483.238C485.278 264.19 486.937 265.849 486.937 267.89V275.8C486.937 277.84 485.278 279.499 483.238 279.499H473.78L474.768 287.95C474.768 287.95 479.66 287.95 483.238 287.95C485.278 287.95 486.937 289.608 486.937 291.649V303.696C486.937 305.737 485.278 307.395 483.238 307.395H477.442L480.461 324.539H536.748V288.332C536.748 286.599 538.155 285.192 539.888 285.192H555.625C557.359 285.192 558.766 283.785 558.766 282.052V243.767C558.766 242.034 560.173 240.627 561.906 240.627H575.984C577.541 240.627 578.854 241.764 579.087 243.301L589.691 313.712H601.487V273.014C601.487 270.918 603.192 269.213 605.288 269.213H610.124C612.221 269.213 613.926 270.918 613.926 273.014V313.712H624.669C628.219 313.712 631.098 316.591 631.098 320.141V324.521H660.421C660.532 323.365 660.635 322.191 660.737 320.999C660.737 320.98 660.737 320.952 660.746 320.933C660.849 319.741 660.952 318.529 661.045 317.3C661.045 317.281 661.045 317.253 661.054 317.234C661.25 314.756 661.436 312.194 661.604 309.557H651C650.246 309.557 649.556 309.249 649.062 308.756C648.69 308.383 648.42 307.908 648.317 307.367C648.28 307.19 648.261 307.004 648.261 306.818V305.876C648.261 305.69 648.28 305.504 648.317 305.327C648.429 304.786 648.69 304.311 649.062 303.938C649.556 303.445 650.246 303.137 651 303.137H661.976C662.023 302.196 662.07 301.246 662.116 300.286C662.116 300.193 662.126 300.1 662.126 299.997C662.163 299.112 662.209 298.218 662.247 297.314C662.247 297.249 662.256 297.183 662.256 297.118C662.293 296.168 662.33 295.199 662.368 294.23C662.405 293.214 662.442 292.189 662.47 291.155H644.31C642.81 291.155 641.562 290.121 641.208 288.732C641.142 288.481 641.096 288.22 641.096 287.941C641.096 286.161 642.54 284.726 644.31 284.726H662.638C662.694 281.968 662.731 279.154 662.759 276.284C659.116 275.465 655.808 273.75 653.097 271.365C653.078 271.346 653.06 271.328 653.041 271.309C652.296 270.647 651.597 269.939 650.944 269.185C650.907 269.147 650.879 269.11 650.842 269.064C650.208 268.318 649.631 267.535 649.1 266.706C649.062 266.65 649.025 266.585 648.988 266.529C648.475 265.709 648.009 264.861 647.609 263.976C647.572 263.902 647.544 263.827 647.506 263.743C647.115 262.858 646.779 261.945 646.5 261.004C646.472 260.92 646.453 260.827 646.426 260.743C646.295 260.277 646.174 259.802 646.071 259.327H635.011C632.524 259.327 630.511 257.314 630.511 254.827C630.511 253.271 631.303 251.901 632.495 251.09C633.213 250.606 634.08 250.317 635.011 250.317H646.071C646.192 249.721 646.351 249.134 646.518 248.556C646.528 248.519 646.537 248.481 646.556 248.435C646.724 247.885 646.91 247.345 647.124 246.814C647.152 246.739 647.18 246.674 647.208 246.599C647.422 246.078 647.646 245.565 647.897 245.062C648.047 244.764 649.743 241.987 649.892 241.801C650.218 241.354 650.572 240.925 650.926 240.506C650.982 240.44 651.038 240.385 651.084 240.319C651.448 239.909 651.82 239.509 652.212 239.127C652.267 239.08 652.314 239.024 652.37 238.978C652.78 238.586 653.199 238.204 653.637 237.841C653.637 237.841 653.637 237.841 653.647 237.841C654.085 237.478 654.541 237.142 655.007 236.816C655.063 236.779 655.119 236.741 655.165 236.704C655.613 236.397 656.078 236.108 656.554 235.828C656.637 235.782 656.712 235.735 656.796 235.689C657.271 235.418 657.746 235.167 658.24 234.934C658.315 234.897 658.389 234.869 658.464 234.831C658.985 234.599 659.507 234.375 660.048 234.179C660.057 234.179 660.057 234.179 660.066 234.17C660.598 233.974 661.147 233.807 661.706 233.648C661.781 233.629 661.855 233.602 661.939 233.583C662.47 233.443 663.02 233.322 663.57 233.22C663.672 233.201 663.775 233.182 663.877 233.164C664.427 233.07 664.986 232.996 665.545 232.94C665.629 232.931 665.713 232.931 665.806 232.921C666.402 232.875 666.999 232.838 667.604 232.838C668.21 232.838 668.806 232.865 669.402 232.921C669.486 232.931 669.57 232.931 669.663 232.94C670.232 232.996 670.781 233.07 671.331 233.164C671.434 233.182 671.536 233.201 671.639 233.22C672.189 233.322 672.729 233.443 673.26 233.583C673.334 233.602 673.409 233.629 673.493 233.648C674.043 233.807 674.593 233.974 675.133 234.17C675.142 234.17 675.142 234.17 675.152 234.179C675.692 234.375 676.214 234.599 676.735 234.831C676.81 234.869 676.885 234.897 676.959 234.934C677.453 235.167 677.937 235.418 678.403 235.689C678.487 235.735 678.562 235.782 678.646 235.828C679.121 236.108 679.577 236.397 680.034 236.704C680.09 236.741 680.146 236.779 680.192 236.816C680.658 237.142 681.115 237.487 681.553 237.841C681.553 237.841 681.553 237.841 681.562 237.841C682 238.204 682.419 238.586 682.829 238.978C682.885 239.024 682.932 239.08 682.988 239.127C683.379 239.509 683.752 239.909 684.115 240.319C684.171 240.385 684.227 240.44 684.273 240.506C684.637 240.925 684.982 241.363 685.308 241.801C685.429 241.969 687.162 244.782 687.302 245.062C687.553 245.565 687.777 246.078 687.991 246.599C688.019 246.674 688.047 246.739 688.075 246.814C688.28 247.345 688.476 247.885 688.643 248.435C688.653 248.472 688.662 248.509 688.681 248.556C688.848 249.134 689.007 249.721 689.128 250.317H700.188C701.12 250.317 701.986 250.596 702.704 251.09C703.906 251.901 704.688 253.271 704.688 254.827C704.688 257.314 702.676 259.327 700.188 259.327H689.128C689.025 259.802 688.904 260.277 688.774 260.743C688.746 260.827 688.727 260.92 688.699 261.004C688.42 261.945 688.084 262.858 687.693 263.743C687.656 263.818 687.628 263.892 687.59 263.976C687.181 264.861 686.724 265.719 686.211 266.529C686.174 266.585 686.137 266.65 686.1 266.706C685.569 267.526 684.991 268.318 684.357 269.064C684.32 269.101 684.292 269.138 684.255 269.185C683.602 269.939 682.904 270.647 682.158 271.309C682.14 271.328 682.121 271.346 682.103 271.356C679.391 273.741 676.083 275.455 672.44 276.275C672.459 279.145 672.496 281.968 672.561 284.717H690.889C692.668 284.717 694.103 286.161 694.103 287.931C694.103 288.378 694.01 288.798 693.852 289.18C693.768 289.375 693.675 289.552 693.554 289.729C692.976 290.587 691.998 291.146 690.889 291.146H672.729C672.729 291.146 672.729 291.146 672.729 291.155C672.757 292.189 672.794 293.205 672.831 294.22C672.869 295.189 672.906 296.149 672.943 297.109C672.943 297.174 672.953 297.239 672.953 297.304C672.99 298.208 673.027 299.103 673.074 299.988C673.074 300.081 673.083 300.174 673.083 300.277C673.13 301.236 673.176 302.187 673.223 303.128H684.199C684.954 303.128 685.643 303.435 686.146 303.929C686.519 304.302 686.789 304.777 686.892 305.317C686.929 305.494 686.948 305.681 686.948 305.867V306.808C686.948 306.995 686.929 307.181 686.892 307.358C686.78 307.898 686.519 308.374 686.146 308.746C685.652 309.24 684.963 309.548 684.199 309.548H673.596C673.763 312.184 673.95 314.737 674.145 317.225C674.145 317.244 674.145 317.272 674.154 317.29C674.248 318.52 674.35 319.722 674.453 320.915C674.453 320.943 674.462 320.971 674.462 321.008C674.564 322.191 674.667 323.356 674.779 324.502V324.511H719.317V321.539C719.317 319.974 720.584 318.716 722.14 318.716H729.063C730.628 318.716 731.886 319.983 731.886 321.539V324.511H754.77C777.831 324.511 793 334.192 805.197 341.972C813.806 347.46 821.242 352.202 829.19 352.202H871.38V350.712C871.38 348.96 872.796 347.544 874.548 347.544H875.852C877.604 347.544 879.02 348.96 879.02 350.712V352.202H910.504H918.303H965.431L967.919 315.595C968.674 304.46 975.308 294.565 985.334 289.646L985.911 289.357V246.422C985.911 243.813 988.707 242.164 990.989 243.422L999.319 248.025C1003.34 250.242 1005.82 254.463 1005.82 259.047V302.969L1022.08 312.799C1030.53 317.905 1035.7 327.064 1035.7 336.941V352.184H1174.6V294.714C1174.6 292.18 1177.77 291.034 1179.39 292.972L1179.41 293C1186.43 301.451 1199.59 320.44 1208.28 352.175H1344.41C1363.14 352.175 1373.48 341.804 1385.45 329.794C1386.44 328.807 1387.43 327.81 1388.44 326.803C1388.44 326.803 1388.45 326.803 1388.45 326.794C1391.48 323.784 1394.64 320.756 1398.06 317.84V228.85C1398.06 226.874 1399.66 225.272 1401.63 225.272H1406.67C1413.35 225.272 1418.76 230.685 1418.76 237.356V272.408L1432.59 283.049C1437.14 286.552 1439.81 291.975 1439.81 297.714V299.168C1441.71 298.935 1443.67 298.749 1445.71 298.628C1445.87 298.618 1446.03 298.618 1446.19 298.609C1447.06 298.562 1447.92 298.516 1448.82 298.488C1449.87 298.46 1450.95 298.441 1452.04 298.441H1488.98L1489.37 294.472L1494.32 244.577C1494.67 240.972 1491.85 237.85 1488.22 237.85H1461.86C1460.84 237.85 1459.89 237.543 1459.1 237.012C1458.58 236.658 1458.13 236.201 1457.77 235.679C1457.42 235.158 1457.16 234.561 1457.03 233.918C1456.96 233.602 1456.92 233.266 1456.92 232.921C1456.92 231.729 1457.36 230.648 1458.07 229.8C1458.97 228.701 1460.32 227.992 1461.86 227.992C1461.86 227.992 1463.77 227.992 1465.78 227.992C1468.22 227.992 1470.37 226.325 1470.89 223.939C1472.06 218.619 1474.69 213.849 1478.35 210.075C1478.39 210.038 1478.43 210.001 1478.46 209.963C1478.71 209.702 1478.97 209.451 1479.23 209.209C1479.3 209.143 1479.36 209.078 1479.43 209.022C1479.67 208.799 1479.92 208.575 1480.17 208.351C1480.26 208.277 1480.35 208.193 1480.44 208.118C1480.68 207.913 1480.93 207.718 1481.17 207.531C1481.28 207.448 1481.39 207.354 1481.5 207.271C1481.74 207.094 1481.98 206.917 1482.21 206.749C1482.34 206.656 1482.47 206.563 1482.6 206.469C1482.84 206.311 1483.07 206.153 1483.3 206.003C1483.45 205.91 1483.6 205.808 1483.75 205.715C1483.97 205.575 1484.21 205.435 1484.44 205.295C1484.6 205.202 1484.76 205.109 1484.93 205.016C1485.16 204.885 1485.39 204.764 1485.61 204.643C1485.79 204.55 1485.97 204.457 1486.14 204.373C1486.37 204.261 1486.59 204.149 1486.82 204.047C1487.01 203.963 1487.21 203.87 1487.39 203.786C1487.62 203.683 1487.84 203.59 1488.06 203.497C1488.27 203.413 1488.46 203.339 1488.67 203.255C1488.89 203.171 1489.12 203.087 1489.34 203.003C1489.55 202.929 1489.77 202.854 1489.98 202.789C1490.21 202.714 1490.43 202.64 1490.65 202.575C1490.88 202.509 1491.1 202.444 1491.33 202.379C1491.55 202.323 1491.77 202.258 1492 202.202C1492.23 202.146 1492.47 202.09 1492.71 202.034C1492.93 201.988 1493.14 201.932 1493.36 201.894C1493.61 201.848 1493.86 201.801 1494.11 201.764C1494.32 201.727 1494.53 201.689 1494.74 201.652C1495.01 201.615 1495.28 201.578 1495.55 201.55C1495.75 201.522 1495.96 201.494 1496.15 201.475C1496.46 201.447 1496.77 201.429 1497.07 201.41C1497.24 201.401 1497.41 201.382 1497.59 201.373C1498.03 201.354 1498.48 201.335 1498.94 201.335C1498.96 201.335 1499 201.335 1499.03 201.335C1499.06 201.335 1499.1 201.335 1499.12 201.335C1499.58 201.335 1500.03 201.345 1500.47 201.373C1500.64 201.382 1500.82 201.401 1500.99 201.41C1501.29 201.429 1501.6 201.447 1501.91 201.475C1502.11 201.494 1502.31 201.522 1502.51 201.55C1502.78 201.587 1503.05 201.615 1503.32 201.652C1503.53 201.68 1503.74 201.727 1503.95 201.764C1504.2 201.811 1504.45 201.848 1504.7 201.894C1504.92 201.941 1505.13 201.988 1505.35 202.034C1505.59 202.09 1505.82 202.137 1506.06 202.202C1506.29 202.258 1506.5 202.323 1506.73 202.379C1506.95 202.444 1507.18 202.5 1507.41 202.575C1507.63 202.64 1507.85 202.714 1508.08 202.789C1508.29 202.864 1508.51 202.929 1508.72 203.003C1508.94 203.087 1509.17 203.171 1509.39 203.255C1509.6 203.329 1509.8 203.413 1510 203.497C1510.22 203.59 1510.44 203.693 1510.67 203.786C1510.85 203.87 1511.05 203.954 1511.24 204.047C1511.46 204.149 1511.69 204.261 1511.92 204.373C1512.09 204.466 1512.27 204.55 1512.45 204.643C1512.68 204.764 1512.9 204.885 1513.13 205.016C1513.3 205.109 1513.45 205.202 1513.61 205.295C1513.85 205.435 1514.08 205.575 1514.3 205.715C1514.45 205.808 1514.6 205.901 1514.75 206.003C1514.98 206.153 1515.21 206.311 1515.45 206.469C1515.58 206.563 1515.71 206.656 1515.84 206.749C1516.08 206.917 1516.31 207.094 1516.55 207.271C1516.66 207.354 1516.77 207.448 1516.88 207.531C1517.12 207.727 1517.37 207.923 1517.61 208.118C1517.7 208.193 1517.79 208.277 1517.88 208.351C1518.13 208.566 1518.38 208.789 1518.62 209.022C1518.69 209.088 1518.76 209.153 1518.82 209.209C1519.08 209.46 1519.34 209.712 1519.59 209.963C1519.63 210.001 1519.67 210.038 1519.7 210.075C1523.36 213.849 1526 218.619 1527.16 223.939C1527.68 226.315 1529.82 227.992 1532.27 227.992H1536.19C1537.55 227.992 1538.79 228.542 1539.68 229.437C1540.58 230.331 1541.13 231.561 1541.13 232.931C1541.13 233.275 1541.09 233.602 1541.02 233.928C1540.89 234.571 1540.63 235.167 1540.28 235.689C1539.39 237.002 1537.89 237.869 1536.19 237.869H1509.83C1506.2 237.869 1503.38 240.99 1503.74 244.596L1508.68 294.491L1509.07 298.46H1556.93L1557.1 282.741C1557.15 277.486 1561.43 273.256 1566.68 273.256V194.543C1566.68 187.173 1571.05 180.511 1577.8 177.576L1580.63 176.346C1583.36 175.163 1586.41 177.157 1586.41 180.138V255.078H1588.15C1592.69 255.078 1596.67 258.106 1597.88 262.485L1609.07 302.96H1620.34C1625.84 302.96 1630.81 306.268 1632.93 311.346L1634.4 314.849H1651.37L1654.58 293.578C1655.29 288.854 1659.35 285.369 1664.12 285.369H1666.54V264.107H1664.12C1660.35 264.107 1657.29 261.051 1657.29 257.277V255.451C1657.29 254.51 1658.05 253.746 1658.99 253.746H1673.9V245.826H1664.18C1660.41 245.826 1657.35 242.77 1657.35 238.996V237.17C1657.35 236.229 1658.12 235.465 1659.06 235.465H1673.9V227.545H1664.14C1660.36 227.545 1657.31 224.489 1657.31 220.716V218.889C1657.31 217.948 1658.07 217.184 1659.01 217.184H1702.25C1703.19 217.184 1703.95 217.948 1703.95 218.889V220.716C1703.95 224.489 1700.9 227.545 1697.12 227.545H1686.83L1696.64 341.786H1710.75V309.24C1710.75 305.476 1713.81 302.42 1717.57 302.42C1718.75 302.42 1719.86 302.718 1720.83 303.24C1721.02 303.342 1721.21 303.463 1721.38 303.584C1721.75 303.827 1722.08 304.106 1722.39 304.414C1722.7 304.721 1722.98 305.057 1723.22 305.42C1723.96 306.51 1724.38 307.824 1724.38 309.231V341.776H1741.69L1752.56 268.709C1752.94 266.156 1755.13 264.265 1757.71 264.265H1759.47C1760.65 264.265 1761.61 265.215 1761.61 266.399V286.925H1762.94C1767.76 286.925 1772.22 289.431 1774.72 293.55L1788.97 316.983V580H0.00012207V319.07V302.988V238.475H13.9204V238.484ZM879.02 358.743V371.536C880.446 370.744 881.927 370.036 883.455 369.412C883.558 369.374 883.66 369.328 883.763 369.291C884.406 369.039 885.058 368.797 885.719 368.573C885.859 368.527 885.99 368.48 886.129 368.433C886.856 368.191 887.592 367.977 888.347 367.772C888.375 367.763 888.403 367.753 888.431 367.744C889.223 367.539 890.015 367.353 890.825 367.194C890.974 367.166 891.114 367.148 891.263 367.12C891.897 366.998 892.531 366.896 893.173 366.812C893.416 366.775 893.658 366.747 893.9 366.719C894.478 366.654 895.056 366.598 895.643 366.551C895.885 366.533 896.118 366.514 896.36 366.495C897.171 366.449 897.981 366.421 898.792 366.421C899.416 366.421 900.031 366.439 900.655 366.467C900.851 366.477 901.047 366.486 901.252 366.505C901.68 366.533 902.109 366.561 902.538 366.598C902.752 366.617 902.966 366.635 903.18 366.654C903.73 366.71 904.28 366.784 904.82 366.859C905.109 366.905 905.389 366.952 905.678 366.998C905.957 367.045 906.237 367.092 906.516 367.148C906.852 367.213 907.187 367.278 907.523 367.353C907.718 367.399 907.914 367.446 908.119 367.492C908.93 367.679 909.74 367.893 910.532 368.135V358.743H879.02ZM1344.41 358.743H1328.29V393.534H1365.58C1365.63 392.686 1365.69 391.848 1365.75 391.019C1365.75 391 1365.75 390.991 1365.75 390.972C1365.82 390.152 1365.9 389.332 1365.98 388.522C1365.98 388.503 1365.99 388.475 1365.99 388.456C1366.09 387.646 1366.18 386.854 1366.29 386.053C1366.29 386.025 1366.3 386.006 1366.3 385.978C1366.41 385.186 1366.53 384.394 1366.67 383.611C1366.67 383.593 1366.68 383.574 1366.68 383.556C1366.82 382.773 1366.96 381.99 1367.12 381.217C1367.12 381.208 1367.12 381.198 1367.13 381.189C1368.86 372.654 1371.88 365.07 1375.81 359.069C1375.86 358.995 1375.91 358.911 1375.96 358.836C1376.24 358.408 1376.54 357.998 1376.83 357.579C1376.92 357.448 1377.02 357.308 1377.11 357.178C1377.38 356.805 1377.65 356.451 1377.93 356.097C1378.06 355.939 1378.18 355.771 1378.31 355.613C1378.57 355.287 1378.83 354.979 1379.1 354.662C1379.25 354.485 1379.4 354.308 1379.56 354.131C1379.81 353.842 1380.07 353.572 1380.33 353.293C1380.51 353.106 1380.68 352.929 1380.86 352.752C1381.11 352.501 1381.36 352.249 1381.61 352.007C1381.8 351.82 1381.99 351.643 1382.18 351.466C1382.43 351.243 1382.67 351.019 1382.92 350.805C1383.13 350.628 1383.33 350.451 1383.55 350.283C1383.79 350.078 1384.04 349.882 1384.29 349.696C1384.52 349.528 1384.73 349.361 1384.96 349.202C1385.2 349.025 1385.45 348.858 1385.69 348.69C1385.92 348.531 1386.16 348.382 1386.4 348.233C1386.64 348.084 1386.88 347.926 1387.14 347.786C1387.38 347.646 1387.63 347.507 1387.88 347.376C1388.12 347.246 1388.37 347.115 1388.61 346.994C1388.87 346.864 1389.13 346.752 1389.39 346.631C1389.63 346.519 1389.87 346.416 1390.11 346.314C1390.38 346.202 1390.66 346.1 1390.94 345.997C1391.17 345.913 1391.41 345.82 1391.65 345.746C1391.93 345.652 1392.23 345.568 1392.52 345.494C1392.75 345.429 1392.98 345.364 1393.21 345.308C1393.53 345.233 1393.83 345.177 1394.15 345.112C1394.37 345.065 1394.58 345.019 1394.8 344.982C1395.16 344.926 1395.51 344.888 1395.88 344.851C1396.06 344.832 1396.24 344.804 1396.42 344.786C1396.97 344.739 1397.52 344.721 1398.06 344.721V326.626C1398.06 326.626 1398.06 326.626 1398.05 326.636C1395.31 329.198 1392.68 331.825 1390.07 334.444C1377.61 346.938 1365.84 358.743 1344.41 358.743ZM1556.87 305.019H1509.74L1510.9 316.759L1511.54 323.207H1523.41C1524.75 323.207 1526.02 323.412 1527.23 323.784C1528.03 324.036 1528.8 324.362 1529.53 324.753C1529.89 324.949 1530.24 325.163 1530.59 325.396C1534 327.698 1536.24 331.602 1536.24 336.037V340.388H1556.5L1556.87 305.019ZM1467.69 327.129C1469.16 320.775 1474.81 316.284 1481.34 316.284H1487.21L1487.29 315.436L1488.32 305.019H1452.03C1450.96 305.019 1449.9 305.038 1448.86 305.066C1448.71 305.075 1448.55 305.084 1448.39 305.084C1447.49 305.112 1446.61 305.159 1445.74 305.215C1445.66 305.224 1445.58 305.224 1445.5 305.234C1444.55 305.299 1443.62 305.373 1442.71 305.457C1442.7 305.457 1442.69 305.457 1442.68 305.457C1441.7 305.55 1440.75 305.662 1439.81 305.793V346.435H1463.21L1467.69 327.129ZM1261.86 397.103C1261.86 395.128 1263.46 393.534 1265.43 393.534H1268.38C1271.61 393.534 1274.34 395.659 1275.25 398.584C1275.32 398.808 1275.38 399.041 1275.43 399.274C1275.52 399.74 1275.58 400.224 1275.58 400.718V420.052H1295.14V358.743H1209.95C1210.64 361.594 1211.28 364.539 1211.89 367.576C1211.9 367.641 1211.92 367.716 1211.93 367.781C1212.82 372.319 1213.62 377.08 1214.29 382.046C1214.3 382.111 1214.31 382.176 1214.32 382.242C1214.77 385.559 1215.17 388.978 1215.51 392.5C1215.51 392.547 1215.51 392.603 1215.52 392.649C1215.69 394.401 1215.84 396.181 1215.98 397.979H1235.76C1241.06 397.979 1245.37 402.274 1245.37 407.585V420.061H1261.88V397.103H1261.86ZM1035.7 388.764L1059.18 417.201C1062.98 421.803 1065.05 427.58 1065.05 433.543V445.824H1071.46C1076.61 445.824 1080.78 449.998 1080.78 455.15V458.737H1101.23V422.959C1101.23 420.229 1103.44 418.02 1106.17 418.02C1108.9 418.02 1111.11 420.229 1111.11 422.959V439.637L1141.08 424.319L1147.1 358.743H1035.71V388.764H1035.7ZM964.993 358.743H918.312V371.396C919.011 371.778 919.691 372.179 920.362 372.598C920.521 372.691 920.67 372.794 920.828 372.896C921.378 373.25 921.918 373.614 922.449 373.996C922.58 374.089 922.71 374.182 922.841 374.275C924.145 375.226 925.384 376.251 926.558 377.35C926.67 377.462 926.791 377.574 926.903 377.676C927.388 378.142 927.872 378.617 928.329 379.111C928.431 379.214 928.524 379.316 928.627 379.419C929.736 380.611 930.779 381.869 931.739 383.192C931.804 383.285 931.869 383.378 931.935 383.472C932.354 384.059 932.764 384.664 933.155 385.27C933.211 385.363 933.276 385.456 933.332 385.549C934.217 386.966 935.019 388.438 935.736 389.957C935.764 390.012 935.783 390.068 935.811 390.124C936.137 390.842 936.444 391.568 936.733 392.304C936.761 392.379 936.789 392.444 936.817 392.519C937.432 394.121 937.954 395.78 938.373 397.476C938.373 397.494 938.382 397.513 938.382 397.532C938.578 398.352 938.755 399.181 938.904 400.019C938.913 400.075 938.923 400.14 938.932 400.196C939.23 401.948 939.426 403.728 939.491 405.544H961.807L964.993 358.743ZM815.707 405.563H820.291V385.913C820.291 383.537 822.211 381.617 824.587 381.617H828.183C830.559 381.617 832.479 383.537 832.479 385.913V405.563H858.074C858.288 399.917 859.658 394.559 861.95 389.733C861.95 389.724 861.96 389.714 861.96 389.705C862.239 389.127 862.528 388.55 862.826 387.991C862.835 387.963 862.854 387.935 862.863 387.916C863.152 387.376 863.45 386.854 863.767 386.323C863.795 386.276 863.823 386.22 863.851 386.164C864.149 385.671 864.466 385.177 864.783 384.692C864.829 384.618 864.876 384.552 864.923 384.478C865.23 384.021 865.556 383.565 865.882 383.118C865.948 383.034 866.003 382.941 866.078 382.847C866.395 382.419 866.721 382.009 867.056 381.599C867.14 381.496 867.215 381.385 867.299 381.282C867.625 380.891 867.96 380.509 868.295 380.127C868.398 380.015 868.491 379.894 868.594 379.782C868.938 379.4 869.292 379.037 869.656 378.673C869.758 378.571 869.852 378.459 869.963 378.356C870.429 377.891 870.904 377.434 871.389 376.996V358.743H829.218C819.36 358.743 811.179 353.526 801.712 347.488C789.637 339.782 775.949 331.052 754.789 331.052H731.905V340.043C735.865 340.043 739.07 343.249 739.07 347.208V365.741H748.676C751.965 365.741 754.826 367.977 755.627 371.163L764.423 406.262L765.951 412.374H769.473V390.59C769.473 387.953 771.607 385.82 774.244 385.82H775.446C778.083 385.82 780.216 387.953 780.216 390.59V412.374C782.536 412.374 784.409 414.247 784.409 416.567V426.425H794.109L806.259 410.268C808.495 407.305 811.999 405.563 815.707 405.563ZM711.285 394.541V372.729C711.285 368.862 714.416 365.731 718.283 365.731H719.317V331.052H675.375C675.841 335.357 676.325 339.354 676.829 343.034C676.838 343.081 676.838 343.127 676.847 343.165C676.922 343.733 677.006 344.292 677.08 344.842C677.09 344.898 677.099 344.944 677.099 345C677.173 345.531 677.248 346.062 677.323 346.584C677.332 346.659 677.341 346.733 677.36 346.817C677.434 347.311 677.509 347.805 677.574 348.289C677.583 348.373 677.602 348.448 677.611 348.531C677.686 349.016 677.76 349.491 677.826 349.957C677.835 350.022 677.844 350.097 677.854 350.162C677.928 350.628 678.003 351.094 678.068 351.55C678.077 351.615 678.087 351.69 678.105 351.755C678.18 352.212 678.254 352.668 678.319 353.116C678.329 353.171 678.338 353.227 678.347 353.283C678.422 353.74 678.496 354.187 678.571 354.634C678.58 354.672 678.58 354.718 678.59 354.755C678.664 355.212 678.739 355.659 678.823 356.097C678.823 356.125 678.832 356.144 678.832 356.172C678.906 356.628 678.99 357.075 679.065 357.513C679.065 357.523 679.065 357.532 679.065 357.532C679.149 357.979 679.223 358.427 679.307 358.855L690.302 394.569H711.285V394.541ZM631.089 351.569H647.86H657.047C657.271 350.143 657.504 348.653 657.728 347.097C657.737 347.059 657.737 347.013 657.746 346.966C657.97 345.438 658.194 343.845 658.417 342.196C658.427 342.112 658.436 342.028 658.454 341.953C658.557 341.161 658.659 340.36 658.771 339.549C658.771 339.521 658.781 339.494 658.781 339.456C658.892 338.599 658.995 337.723 659.107 336.838C659.116 336.764 659.125 336.698 659.135 336.624C659.228 335.823 659.33 335.003 659.424 334.173C659.433 334.052 659.451 333.94 659.461 333.819C659.563 332.906 659.666 331.984 659.768 331.043C659.768 331.043 659.768 331.043 659.768 331.033H631.107V351.569H631.089ZM516.762 366.607L522.073 377.071H536.748V331.043H481.84L488.875 354.355H496.804C505.236 354.364 512.951 359.097 516.762 366.607ZM394.366 374.285V360.495C394.366 356.339 397.739 352.967 401.895 352.967H409.2C413.356 352.967 416.729 356.339 416.729 360.495V390.86H436.119V331.052H361.27V390.86H377.939V381.813C377.939 377.658 381.312 374.285 385.468 374.285H394.366ZM286.227 343.891L304.499 352.258C316.36 357.69 323.963 369.533 323.963 382.577V390.851H347.443V331.043H286.227V343.891ZM196.601 351.215H216.345V350.917C216.345 343.752 222.159 337.938 229.324 337.938H232.762V331.043H196.601V351.215Z" fill="black" fill-opacity="0.2"/>
<path d="M58.7606 333.35V285.49C58.7606 264.662 75.7986 247.625 96.6261 247.625H103.451C107.407 247.625 110.65 250.863 110.65 254.824V333.35H160.442C167.011 333.35 173.508 333.683 179.905 334.328V309.191C179.905 307.322 180.738 305.547 182.175 304.35C190.363 297.504 199.749 303.329 199.749 311.242V337.41C215.35 340.674 230.238 345.838 244.168 352.652V293.085C244.168 289.129 247.406 285.886 251.368 285.886H261.867C265.823 285.886 269.067 289.123 269.067 293.085V367.269C295.704 385.77 317.328 410.881 331.528 440.215C334.568 446.493 340.951 450.454 347.926 450.454H373.23V416.8C373.23 415.233 373.881 413.719 375.063 412.688C382.694 406.004 391.575 411.428 391.575 418.83V450.454H415.896C421.486 450.454 426.697 453.276 429.747 457.961L437.499 469.845H444.375C447.952 469.845 450.882 472.687 450.986 476.263L451.106 480.324H481.257C485.916 480.324 490.387 482.177 493.683 485.472L503.735 495.524H558.242L571.865 469.84C574.77 464.358 580.465 460.933 586.67 460.933H623.234V447.94C623.234 446.144 624.692 444.686 626.488 444.686H627.841C629.637 444.686 631.095 446.144 631.095 447.94V460.933H661.454C669.22 460.933 675.514 454.639 675.514 446.873V375.27C675.514 370.465 679.887 366.811 684.603 367.722C706.477 371.96 722.994 391.215 722.994 414.328C722.994 414.447 722.984 414.562 722.984 414.682L739.204 423.172C748.866 428.232 756.19 436.836 759.636 447.18L766.18 466.81C768.455 473.629 774.831 478.226 782.015 478.226C799.095 478.226 815.081 486.622 824.774 500.677L840.734 523.821H890.526V512.557C890.526 510.672 892.051 509.142 893.941 509.142H898.646C900.531 509.142 902.061 510.667 902.061 512.557V523.821H939.203C944.227 523.821 948.979 521.573 952.165 517.689L970.926 494.837C974.112 490.953 978.87 488.705 983.893 488.705H994.992C998.922 488.705 1002.7 487.174 1005.52 484.441L1029.94 460.777C1032.97 457.846 1037.02 456.206 1041.23 456.206H1078.68V426.55C1078.68 424.208 1080.58 422.313 1082.92 422.313C1090.42 422.313 1096.5 428.393 1096.5 435.894V446.071H1119.56V427.154C1119.56 421.293 1124.31 416.545 1130.17 416.545H1180.35C1186.47 416.545 1192.13 419.83 1195.16 425.15L1211.69 454.129C1213.35 457.029 1216.43 458.819 1219.77 458.819H1230.18C1233.13 458.819 1235.54 456.503 1235.7 453.562C1239.65 384.307 1293.54 328.415 1361.92 321.356C1369.75 320.549 1376.58 326.619 1376.58 334.49V365.9H1396.09C1404.53 365.9 1412.05 371.215 1414.86 379.164L1423.51 403.552H1446.46C1451.5 403.552 1456.02 406.634 1457.87 411.319L1474.03 452.307C1475.58 456.232 1479.37 458.814 1483.59 458.814H1503.63C1506.09 458.814 1508.27 457.253 1509.06 454.931L1510.12 451.808C1511.26 448.476 1514.38 446.238 1517.91 446.238H1536.79L1545.33 396.186C1546.08 391.834 1549.85 388.654 1554.26 388.654H1580.26C1583.77 388.654 1586.97 390.684 1588.45 393.859L1595.45 408.747H1661.62L1662.43 387.144H1644.26C1633.03 387.144 1623.92 378.034 1623.92 366.801C1623.92 363.844 1626.32 361.444 1629.28 361.444H1663.4L1664.21 339.841H1644.26C1633.03 339.841 1623.92 330.731 1623.92 319.498C1623.92 316.541 1626.32 314.141 1629.28 314.141H1665.18L1665.99 292.538H1644.26C1633.03 292.538 1623.92 283.429 1623.92 272.195C1623.92 269.238 1626.32 266.838 1629.27 266.838H1666.96L1667.21 260.118C1667.81 244.116 1655 230.816 1638.99 230.816H1562.22C1558.66 230.816 1555.3 229.129 1553.22 226.24C1544.7 214.429 1553.13 201.238 1564.24 202.034H1788.81L1788.97 230.858H1751.36C1735.35 230.858 1722.54 244.158 1723.14 260.16L1725.7 327.827H1788.97V580H0V333.35H58.7606Z" fill="url(#paint2_linear_7_2)"/>
<path d="M1498.78 547.923C1500.41 547.923 1501.74 546.597 1501.74 544.961C1501.74 543.326 1500.41 542 1498.78 542C1497.14 542 1495.81 543.326 1495.81 544.961C1495.81 546.597 1497.14 547.923 1498.78 547.923Z" fill="#38237C"/>
<path d="M1730.9 189.923C1732.54 189.923 1733.87 188.597 1733.87 186.961C1733.87 185.326 1732.54 184 1730.9 184C1729.27 184 1727.94 185.326 1727.94 186.961C1727.94 188.597 1729.27 189.923 1730.9 189.923Z" fill="#38237C"/>
<path d="M1637.85 113.923C1639.49 113.923 1640.82 112.597 1640.82 110.961C1640.82 109.326 1639.49 108 1637.85 108C1636.22 108 1634.89 109.326 1634.89 110.961C1634.89 112.597 1636.22 113.923 1637.85 113.923Z" fill="#38237C"/>
<path d="M1132.06 66.5618C1133.69 66.5618 1135.02 65.236 1135.02 63.6005C1135.02 61.965 1133.69 60.6392 1132.06 60.6392C1130.42 60.6392 1129.09 61.965 1129.09 63.6005C1129.09 65.236 1130.42 66.5618 1132.06 66.5618Z" fill="#38237C"/>
<path d="M925.013 46.148C926.649 46.148 927.976 44.8222 927.976 43.1867C927.976 41.5512 926.649 40.2253 925.013 40.2253C923.376 40.2253 922.05 41.5512 922.05 43.1867C922.05 44.8222 923.376 46.148 925.013 46.148Z" fill="#38237C"/>
<path d="M224.862 30.6734C226.498 30.6734 227.825 29.3476 227.825 27.7121C227.825 26.0766 226.498 24.7507 224.862 24.7507C223.225 24.7507 221.899 26.0766 221.899 27.7121C221.899 29.3476 223.225 30.6734 224.862 30.6734Z" fill="#38237C"/>
<path d="M323.519 69.5233C325.155 69.5233 326.482 68.1974 326.482 66.5619C326.482 64.9264 325.155 63.6006 323.519 63.6006C321.882 63.6006 320.556 64.9264 320.556 66.5619C320.556 68.1974 321.882 69.5233 323.519 69.5233Z" fill="#38237C"/>
<path d="M83.0064 491.923C84.6428 491.923 85.9694 490.597 85.9694 488.961C85.9694 487.326 84.6428 486 83.0064 486C81.37 486 80.0435 487.326 80.0435 488.961C80.0435 490.597 81.37 491.923 83.0064 491.923Z" fill="#38237C"/>
<path d="M1623.85 44.9227C1625.48 44.9227 1626.81 43.5969 1626.81 41.9613C1626.81 40.3258 1625.48 39 1623.85 39C1622.21 39 1620.88 40.3258 1620.88 41.9613C1620.88 43.5969 1622.21 44.9227 1623.85 44.9227Z" fill="#38237C"/>
<path d="M253.621 154.967C254.441 154.967 255.105 154.303 255.105 153.483C255.105 152.664 254.441 152 253.621 152C252.802 152 252.137 152.664 252.137 153.483C252.137 154.303 252.802 154.967 253.621 154.967Z" fill="#38237C"/>
<path d="M569.559 43.1919C570.378 43.1919 571.043 42.5278 571.043 41.7086C571.043 40.8894 570.378 40.2253 569.559 40.2253C568.739 40.2253 568.075 40.8894 568.075 41.7086C568.075 42.5278 568.739 43.1919 569.559 43.1919Z" fill="#38237C"/>
<path d="M1099.57 106.064C1100.39 106.064 1101.05 105.4 1101.05 104.581C1101.05 103.761 1100.39 103.097 1099.57 103.097C1098.75 103.097 1098.08 103.761 1098.08 104.581C1098.08 105.4 1098.75 106.064 1099.57 106.064Z" fill="#38237C"/>
<path d="M858.16 44.67C858.979 44.67 859.644 44.0059 859.644 43.1867C859.644 42.3675 858.979 41.7034 858.16 41.7034C857.34 41.7034 856.676 42.3675 856.676 43.1867C856.676 44.0059 857.34 44.67 858.16 44.67Z" fill="#38237C"/>
<path d="M339.668 510.967C340.488 510.967 341.152 510.302 341.152 509.483C341.152 508.664 340.488 508 339.668 508C338.848 508 338.184 508.664 338.184 509.483C338.184 510.302 338.848 510.967 339.668 510.967Z" fill="#38237C"/>
<path d="M1697.14 118.476C1697.96 118.476 1698.62 117.812 1698.62 116.993C1698.62 116.174 1697.96 115.51 1697.14 115.51C1696.32 115.51 1695.65 116.174 1695.65 116.993C1695.65 117.812 1696.32 118.476 1697.14 118.476Z" fill="#38237C"/>
<path d="M1303.68 493.048C1304.49 493.048 1305.16 492.384 1305.16 491.565C1305.16 490.746 1304.49 490.082 1303.68 490.082C1302.86 490.082 1302.19 490.746 1302.19 491.565C1302.19 492.384 1302.86 493.048 1303.68 493.048Z" fill="#38237C"/>
<path d="M1734.99 240.441C1735.81 240.441 1736.48 239.777 1736.48 238.957C1736.48 238.138 1735.81 237.474 1734.99 237.474C1734.17 237.474 1733.51 238.138 1733.51 238.957C1733.51 239.777 1734.17 240.441 1734.99 240.441Z" fill="#38237C"/>
<path d="M68.5207 247.661C69.3404 247.661 70.0048 246.997 70.0048 246.178C70.0048 245.359 69.3404 244.694 68.5207 244.694C67.7011 244.694 67.0366 245.359 67.0366 246.178C67.0366 246.997 67.7011 247.661 68.5207 247.661Z" fill="#38237C"/>
<path d="M121.112 408.772C121.931 408.772 122.596 408.108 122.596 407.289C122.596 406.47 121.931 405.806 121.112 405.806C120.292 405.806 119.627 406.47 119.627 407.289C119.627 408.108 120.292 408.772 121.112 408.772Z" fill="#38237C"/>
<path d="M196.068 145.923C197.704 145.923 199.031 144.597 199.031 142.961C199.031 141.326 197.704 140 196.068 140C194.432 140 193.105 141.326 193.105 142.961C193.105 144.597 194.432 145.923 196.068 145.923Z" fill="#38237C"/>
<path d="M1475.77 167.923C1477.4 167.923 1478.73 166.597 1478.73 164.961C1478.73 163.326 1477.4 162 1475.77 162C1474.13 162 1472.8 163.326 1472.8 164.961C1472.8 166.597 1474.13 167.923 1475.77 167.923Z" fill="#38237C"/>
<path d="M1666.87 550.923C1668.51 550.923 1669.83 549.597 1669.83 547.961C1669.83 546.326 1668.51 545 1666.87 545C1665.23 545 1663.91 546.326 1663.91 547.961C1663.91 549.597 1665.23 550.923 1666.87 550.923Z" fill="#38237C"/>
<path d="M793.322 22.2313C794.959 22.2313 796.285 20.9054 796.285 19.2699C796.285 17.6344 794.959 16.3086 793.322 16.3086C791.686 16.3086 790.359 17.6344 790.359 19.2699C790.359 20.9054 791.686 22.2313 793.322 22.2313Z" fill="#38237C"/>
<path d="M68.1017 28.1294C71.4529 28.1294 74.1697 25.4141 74.1697 22.0647C74.1697 18.7153 71.4529 16 68.1017 16C64.7504 16 62.0337 18.7153 62.0337 22.0647C62.0337 25.4141 64.7504 28.1294 68.1017 28.1294Z" fill="#38237C"/>
<path d="M426.806 87.8279C430.157 87.8279 432.874 85.1126 432.874 81.7632C432.874 78.4137 430.157 75.6985 426.806 75.6985C423.455 75.6985 420.738 78.4137 420.738 81.7632C420.738 85.1126 423.455 87.8279 426.806 87.8279Z" fill="#38237C"/>
<path d="M1675.85 459.858C1679.21 459.858 1681.92 457.143 1681.92 453.794C1681.92 450.444 1679.21 447.729 1675.85 447.729C1672.5 447.729 1669.79 450.444 1669.79 453.794C1669.79 457.143 1672.5 459.858 1675.85 459.858Z" fill="#38237C"/>
<path d="M1706.52 42.1294C1709.87 42.1294 1712.58 39.4141 1712.58 36.0647C1712.58 32.7153 1709.87 30 1706.52 30C1703.17 30 1700.45 32.7153 1700.45 36.0647C1700.45 39.4141 1703.17 42.1294 1706.52 42.1294Z" fill="#38237C"/>
<path d="M83.11 313.129C86.4613 313.129 89.178 310.414 89.178 307.065C89.178 303.715 86.4613 301 83.11 301C79.7587 301 77.042 303.715 77.042 307.065C77.042 310.414 79.7587 313.129 83.11 313.129Z" fill="#38237C"/>
<path d="M1402.83 82.1294C1406.18 82.1294 1408.9 79.4141 1408.9 76.0647C1408.9 72.7153 1406.18 70 1402.83 70C1399.48 70 1396.76 72.7153 1396.76 76.0647C1396.76 79.4141 1399.48 82.1294 1402.83 82.1294Z" fill="#38237C"/>
<path d="M94.1292 106.611H90.8925C87.4454 106.611 84.6561 103.818 84.6561 100.378V91.9304C84.5877 91.1099 83.8667 90.505 83.0457 90.5734C82.3195 90.6365 81.7458 91.2098 81.6879 91.9304V100.378C81.6879 103.823 78.8934 106.611 75.4515 106.611H72.2044C71.3834 106.679 70.7782 107.4 70.8466 108.22C70.9097 108.946 71.4834 109.52 72.2044 109.577H75.4515C78.8986 109.577 81.6879 112.371 81.6879 115.81V124.258C81.7563 125.078 82.4773 125.683 83.2983 125.615C84.0246 125.552 84.5982 124.979 84.6561 124.258V115.81C84.6561 112.365 87.4507 109.577 90.8925 109.577H94.1292C94.9501 109.646 95.6659 109.036 95.7396 108.22C95.808 107.4 95.1975 106.685 94.3818 106.611C94.2976 106.606 94.2134 106.606 94.1344 106.611H94.1292Z" fill="#38237C"/>
<path d="M1280.49 29.8185H1278.71C1276.81 29.8185 1275.28 28.2826 1275.28 26.3942V21.7497C1275.25 21.2974 1274.85 20.966 1274.4 21.0028C1274 21.0344 1273.68 21.35 1273.65 21.7497V26.3942C1273.65 28.2878 1272.11 29.8185 1270.22 29.8185H1268.44C1267.99 29.8553 1267.66 30.2498 1267.69 30.7022C1267.72 31.1019 1268.04 31.4175 1268.44 31.4491H1270.22C1272.12 31.4491 1273.65 32.985 1273.65 34.8733V39.5179C1273.69 39.9702 1274.08 40.3016 1274.53 40.2648C1274.93 40.2332 1275.25 39.9176 1275.28 39.5179V34.8733C1275.28 32.9797 1276.82 31.4491 1278.71 31.4491H1280.49C1280.94 31.4859 1281.33 31.1545 1281.37 30.7022C1281.41 30.2498 1281.08 29.8553 1280.62 29.8185C1280.58 29.8185 1280.53 29.8185 1280.49 29.8185Z" fill="#38237C"/>
<path d="M490.68 8.82368H488.902C487.007 8.82368 485.476 7.28779 485.476 5.39947V0.749702C485.439 0.297349 485.044 -0.0340263 484.591 0.00279317C484.191 0.0343527 483.876 0.349948 483.844 0.749702V5.39421C483.844 7.28779 482.307 8.81842 480.418 8.81842H478.634C478.181 8.85524 477.85 9.24974 477.887 9.70209C477.918 10.1018 478.234 10.4174 478.634 10.449H480.418C482.313 10.449 483.844 11.9849 483.844 13.8732V18.5177C483.881 18.9701 484.276 19.3014 484.728 19.2646C485.128 19.2331 485.444 18.9175 485.476 18.5177V13.8732C485.476 11.9796 487.012 10.449 488.902 10.449H490.68C491.133 10.4858 491.528 10.1544 491.565 9.70209C491.601 9.24974 491.27 8.85524 490.817 8.81842C490.77 8.81842 490.728 8.81842 490.68 8.81842V8.82368Z" fill="#38237C"/>
<path d="M191.894 529.818H190.115C188.221 529.818 186.689 528.283 186.689 526.394V521.75C186.653 521.297 186.258 520.966 185.805 521.003C185.405 521.034 185.089 521.35 185.058 521.75V526.394C185.058 528.288 183.521 529.818 181.632 529.818H179.848C179.395 529.855 179.064 530.25 179.1 530.702C179.132 531.102 179.448 531.417 179.848 531.449H181.632C183.526 531.449 185.058 532.985 185.058 534.873V539.518C185.095 539.97 185.489 540.301 185.942 540.265C186.342 540.233 186.658 539.917 186.689 539.518V534.873C186.689 532.98 188.226 531.449 190.115 531.449H191.894C192.347 531.486 192.742 531.154 192.778 530.702C192.815 530.25 192.484 529.855 192.031 529.818C191.984 529.818 191.942 529.818 191.894 529.818Z" fill="#38237C"/>
<path d="M1758.23 403.043H1755C1751.55 403.043 1748.76 400.25 1748.76 396.81V388.362C1748.69 387.542 1747.97 386.937 1747.15 387.005C1746.42 387.068 1745.85 387.642 1745.79 388.362V396.81C1745.79 400.255 1743 403.043 1739.56 403.043H1736.31C1735.49 403.111 1734.88 403.832 1734.95 404.652C1735.01 405.378 1735.59 405.952 1736.31 406.009H1739.56C1743 406.009 1745.79 408.802 1745.79 412.242V420.69C1745.86 421.51 1746.58 422.115 1747.4 422.047C1748.13 421.984 1748.7 421.41 1748.76 420.69V412.242C1748.76 408.797 1751.55 406.009 1755 406.009H1758.23C1759.05 406.078 1759.77 405.468 1759.84 404.652C1759.91 403.832 1759.3 403.116 1758.49 403.043C1758.4 403.038 1758.32 403.038 1758.24 403.043H1758.23Z" fill="#38237C"/>
<path d="M1583.35 505.967C1584.16 505.967 1584.83 505.302 1584.83 504.483C1584.83 503.664 1584.16 503 1583.35 503C1582.53 503 1581.86 503.664 1581.86 504.483C1581.86 505.302 1582.53 505.967 1583.35 505.967Z" fill="#38237C"/>
<path d="M1513.31 89.9667C1514.13 89.9667 1514.79 89.3026 1514.79 88.4834C1514.79 87.6642 1514.13 87 1513.31 87C1512.49 87 1511.82 87.6642 1511.82 88.4834C1511.82 89.3026 1512.49 89.9667 1513.31 89.9667Z" fill="#38237C"/>
<path d="M1384.54 493.818H1382.76C1380.87 493.818 1379.34 492.283 1379.34 490.394V485.75C1379.3 485.297 1378.91 484.966 1378.45 485.003C1378.05 485.034 1377.74 485.35 1377.71 485.75V490.394C1377.71 492.288 1376.17 493.818 1374.28 493.818H1372.5C1372.04 493.855 1371.71 494.25 1371.75 494.702C1371.78 495.102 1372.1 495.417 1372.5 495.449H1374.28C1376.18 495.449 1377.71 496.985 1377.71 498.873V503.518C1377.74 503.97 1378.14 504.301 1378.59 504.265C1378.99 504.233 1379.31 503.917 1379.34 503.518V498.873C1379.34 496.98 1380.88 495.449 1382.76 495.449H1384.54C1385 495.486 1385.39 495.154 1385.43 494.702C1385.46 494.25 1385.13 493.855 1384.68 493.818C1384.63 493.818 1384.59 493.818 1384.54 493.818Z" fill="#38237C"/>
<defs>
<linearGradient id="paint0_linear_7_2" x1="894.357" y1="47.7415" x2="894.357" y2="238.714" gradientUnits="userSpaceOnUse">
<stop offset="0.0188" stop-color="#38237C"/>
<stop offset="1" stop-color="#160E3F"/>
</linearGradient>
<linearGradient id="paint1_linear_7_2" x1="894.487" y1="242.818" x2="894.487" y2="581.549" gradientUnits="userSpaceOnUse">
<stop offset="0.286458" stop-color="#281662"/>
<stop offset="1" stop-color="#0B0937"/>
</linearGradient>
<linearGradient id="paint2_linear_7_2" x1="894.987" y1="54.0132" x2="894.487" y2="614.294" gradientUnits="userSpaceOnUse">
<stop stop-color="#160E3F"/>
<stop offset="1" stop-color="#080628"/>
</linearGradient>
</defs>
</svg>
