<svg width="271" height="281" viewBox="0 0 271 281" fill="none" xmlns="http://www.w3.org/2000/svg">
<path d="M68.2948 89.8518C70.1342 89.8518 71.6252 88.3607 71.6252 86.5214C71.6252 84.682 70.1342 83.1909 68.2948 83.1909C66.4554 83.1909 64.9644 84.682 64.9644 86.5214C64.9644 88.3607 66.4554 89.8518 68.2948 89.8518Z" fill="#38237C"/>
<path d="M74.1277 17.9957C77.8947 17.9957 80.9484 14.942 80.9484 11.1751C80.9484 7.40819 77.8947 4.35449 74.1277 4.35449C70.3608 4.35449 67.3071 7.40819 67.3071 11.1751C67.3071 14.942 70.3608 17.9957 74.1277 17.9957Z" fill="#FF8486"/>
<path d="M26.1763 74.0634H22.5382C18.6635 74.0634 15.5283 70.9223 15.5283 67.0535V57.5531C15.4514 56.6303 14.641 55.95 13.7181 56.0269C12.9018 56.0979 12.257 56.7427 12.1919 57.5531V67.0535C12.1919 70.9282 9.05079 74.0634 5.18202 74.0634H1.53214C0.609312 74.1403 -0.070975 74.9507 0.00592697 75.8736C0.0769134 76.6899 0.721707 77.3347 1.53214 77.3998H5.18202C9.0567 77.3998 12.1919 80.5409 12.1919 84.4097V93.91C12.2688 94.8329 13.0793 95.5131 14.0021 95.4362C14.8184 95.3653 15.4632 94.7205 15.5283 93.91V84.4097C15.5283 80.535 18.6695 77.3998 22.5382 77.3998H26.1763C27.0991 77.4767 27.9036 76.7905 27.9864 75.8736C28.0633 74.9507 27.3771 74.1462 26.4602 74.0634C26.3656 74.0575 26.2709 74.0575 26.1822 74.0634H26.1763Z" fill="url(#paint0_linear_2536_5226)"/>
<path opacity="0.3" d="M221.693 34.9176C242.098 131.466 274.557 283.067 287.358 286.964L259.786 293.569C270.528 288.117 236.158 115.815 221.693 34.9176Z" fill="#FF8486"/>
<path d="M217.249 10.1989C222.589 9.26508 227.896 14.071 229.098 20.9425C230.3 27.8048 226.945 34.1313 221.605 35.0651C216.264 35.9989 210.958 31.1929 209.756 24.3214C208.544 17.4507 211.908 11.1327 217.249 10.1989Z" fill="url(#paint1_linear_2536_5226)" fill-opacity="0.4"/>
<path d="M217.256 6.04304L219.031 16.1702L217.592 16.4217L215.817 6.29452L217.256 6.04304Z" fill="url(#paint2_linear_2536_5226)" fill-opacity="0.4"/>
<path d="M218.568 3.60284C218.455 2.25294 217.269 1.25025 215.919 1.36328C214.569 1.4763 213.567 2.66223 213.68 4.01212C213.793 5.36202 214.979 6.36468 216.329 6.25166C217.679 6.13864 218.681 4.95273 218.568 3.60284Z" fill="url(#paint3_linear_2536_5226)" fill-opacity="0.4"/>
<path d="M221.595 35.0566L209.646 42.5707C209.646 42.5707 207.272 33.3266 211.529 28.5154L221.595 35.0566Z" fill="url(#paint4_linear_2536_5226)" fill-opacity="0.4"/>
<path d="M221.595 35.0565L235.388 38.0569C235.388 38.0569 234.481 28.559 228.841 25.4749L221.595 35.0565Z" fill="url(#paint5_linear_2536_5226)" fill-opacity="0.4"/>
<defs>
<linearGradient id="paint0_linear_2536_5226" x1="14" y1="67.5" x2="13.9962" y2="95.4422" gradientUnits="userSpaceOnUse">
<stop stop-color="#77A4F2" stop-opacity="0.7"/>
<stop offset="0.791667" stop-color="#27007A"/>
</linearGradient>
<linearGradient id="paint1_linear_2536_5226" x1="229.229" y1="21.8061" x2="209.611" y2="23.4487" gradientUnits="userSpaceOnUse">
<stop stop-color="#38237C"/>
<stop offset="1" stop-color="#503EAA"/>
</linearGradient>
<linearGradient id="paint2_linear_2536_5226" x1="218.61" y1="11.132" x2="216.241" y2="11.3303" gradientUnits="userSpaceOnUse">
<stop stop-color="#38237C"/>
<stop offset="1" stop-color="#503EAA"/>
</linearGradient>
<linearGradient id="paint3_linear_2536_5226" x1="218.572" y1="3.6015" x2="213.68" y2="4.01104" gradientUnits="userSpaceOnUse">
<stop stop-color="#38237C"/>
<stop offset="1" stop-color="#503EAA"/>
</linearGradient>
<linearGradient id="paint4_linear_2536_5226" x1="221.559" y1="34.6222" x2="208.804" y2="35.6902" gradientUnits="userSpaceOnUse">
<stop stop-color="#4F237C"/>
<stop offset="1" stop-color="#88D1C3"/>
</linearGradient>
<linearGradient id="paint5_linear_2536_5226" x1="234.843" y1="31.5448" x2="221.396" y2="32.6706" gradientUnits="userSpaceOnUse">
<stop stop-color="#88D1C3"/>
<stop offset="1" stop-color="#503EAA"/>
</linearGradient>
</defs>
</svg>
