<svg width="251" height="114" viewBox="0 0 251 114" fill="none" xmlns="http://www.w3.org/2000/svg">
<path d="M173.124 6.6609C174.963 6.6609 176.454 5.16981 176.454 3.33045C176.454 1.49109 174.963 0 173.124 0C171.285 0 169.793 1.49109 169.793 3.33045C169.793 5.16981 171.285 6.6609 173.124 6.6609Z" fill="#38237C"/>
<path d="M191.668 45.3364C192.59 45.3364 193.336 44.5895 193.336 43.6682C193.336 42.7469 192.59 42 191.668 42C190.747 42 190 42.7469 190 43.6682C190 44.5895 190.747 45.3364 191.668 45.3364Z" fill="#86D4C9"/>
<path d="M68.2948 107.852C70.1342 107.852 71.6252 106.361 71.6252 104.521C71.6252 102.682 70.1342 101.191 68.2948 101.191C66.4554 101.191 64.9644 102.682 64.9644 104.521C64.9644 106.361 66.4554 107.852 68.2948 107.852Z" fill="#38237C"/>
<path d="M74.1277 35.9957C77.8947 35.9957 80.9484 32.942 80.9484 29.1751C80.9484 25.4082 77.8947 22.3545 74.1277 22.3545C70.3608 22.3545 67.3071 25.4082 67.3071 29.1751C67.3071 32.942 70.3608 35.9957 74.1277 35.9957Z" fill="#160E3F"/>
<path d="M26.1763 92.0634H22.5382C18.6635 92.0634 15.5283 88.9223 15.5283 85.0535V75.5531C15.4514 74.6303 14.641 73.95 13.7181 74.0269C12.9018 74.0979 12.257 74.7427 12.1919 75.5531V85.0535C12.1919 88.9282 9.05079 92.0634 5.18202 92.0634H1.53214C0.609312 92.1403 -0.070975 92.9507 0.00592697 93.8736C0.0769134 94.6899 0.721707 95.3347 1.53214 95.3998H5.18202C9.0567 95.3998 12.1919 98.5409 12.1919 102.41V111.91C12.2688 112.833 13.0793 113.513 14.0021 113.436C14.8184 113.365 15.4632 112.72 15.5283 111.91V102.41C15.5283 98.535 18.6695 95.3998 22.5382 95.3998H26.1763C27.0991 95.4767 27.9036 94.7905 27.9864 93.8736C28.0633 92.9507 27.3771 92.1462 26.4602 92.0634C26.3656 92.0575 26.2709 92.0575 26.1822 92.0634H26.1763Z" fill="url(#paint0_linear_2929_8862)"/>
<path d="M233.33 48.6609C235.17 48.6609 236.661 47.1698 236.661 45.3304C236.661 43.4911 235.17 42 233.33 42C231.491 42 230 43.4911 230 45.3304C230 47.1698 231.491 48.6609 233.33 48.6609Z" fill="#FCB1B5"/>
<path d="M243.821 90.6412C247.587 90.6412 250.641 87.5875 250.641 83.8206C250.641 80.0537 247.587 77 243.821 77C240.054 77 237 80.0537 237 83.8206C237 87.5875 240.054 90.6412 243.821 90.6412Z" fill="#8D86EB"/>
<defs>
<linearGradient id="paint0_linear_2929_8862" x1="13.9962" y1="74.021" x2="13.9962" y2="113.442" gradientUnits="userSpaceOnUse">
<stop stop-color="#4F457C"/>
<stop offset="1" stop-color="#88D1C3"/>
</linearGradient>
</defs>
</svg>
