<svg width="245" height="140" viewBox="0 0 245 140" fill="none" xmlns="http://www.w3.org/2000/svg">
<path d="M77.3434 13.5925C74.7087 12.7554 72.7829 10.0906 72.7829 6.93282C72.7829 3.10393 75.6141 0 79.1071 0C82.5996 0 85.4308 3.10393 85.4308 6.93282C85.4308 10.0852 83.512 12.7461 80.8844 13.588V21.3226C91.4518 22.2092 100.019 30.9342 101.756 42.2042H117.502C119.632 42.2042 121.358 44.0967 121.358 46.4313C121.358 48.7659 119.632 50.6585 117.502 50.6585H101.756C100.308 60.0569 94.1094 67.6849 85.9625 70.4736L88.4585 154.576L111.26 163.035V137.773C111.26 136.576 112.143 135.606 113.232 135.606C114.322 135.606 115.205 136.576 115.205 137.773V164.498L126.704 168.764C127.608 169.097 128.392 169.733 128.948 170.582C129.504 171.43 129.802 172.449 129.801 173.493V182.982C129.801 184.308 130.282 185.58 131.137 186.517C131.992 187.454 133.152 187.981 134.361 187.981H151.638C151.477 186.973 151.351 185.94 151.262 184.886C151.241 184.698 151.258 184.507 151.31 184.326C151.362 184.145 151.448 183.979 151.563 183.837C151.678 183.695 151.819 183.582 151.977 183.504C152.135 183.427 152.306 183.387 152.479 183.387L165.769 183.417V179.205H152.479C152.309 179.204 152.142 179.166 151.988 179.091C151.833 179.016 151.694 178.907 151.58 178.77C151.465 178.634 151.378 178.472 151.323 178.297C151.269 178.122 151.247 177.936 151.262 177.751C151.296 177.346 151.33 176.942 151.371 176.544C151.429 176.013 151.662 175.524 152.028 175.169C152.394 174.815 152.866 174.622 153.354 174.626H165.769V170.413H154.147C153.953 170.413 153.763 170.362 153.59 170.264C153.418 170.167 153.27 170.026 153.157 169.853C153.045 169.68 152.972 169.48 152.944 169.27C152.917 169.06 152.935 168.845 152.998 168.645C153.139 168.194 153.297 167.749 153.456 167.3L153.511 167.145C153.663 166.748 153.919 166.409 154.246 166.171C154.573 165.932 154.957 165.804 155.35 165.804H165.769V161.592H159.076C158.835 161.59 158.599 161.51 158.399 161.361C158.198 161.213 158.042 161.003 157.951 160.758C157.86 160.512 157.837 160.243 157.885 159.983C157.933 159.723 158.05 159.485 158.221 159.298C160.201 157.058 162.898 155.752 165.742 155.656C173.823 155.656 180.379 167.056 180.379 181.138C180.379 183.509 180.194 185.804 179.846 187.981H194.033C195.242 187.981 196.402 188.508 197.257 189.445C198.112 190.383 198.592 191.654 198.592 192.98V204.41H228.954C230.842 204.41 232.691 204.997 234.287 206.102C235.883 207.207 237.16 208.785 237.972 210.654L245 226.798H198.592V227H-13.7172V226.805H-56L-48.997 210.654C-48.1867 208.785 -46.9062 207.206 -45.3105 206.101C-43.7148 204.996 -41.864 204.41 -39.9732 204.41H-15.7875V177.652C-15.7875 174.722 -12.7038 171.432 -10.0612 171.432H4.19704H9.34471C9.99548 164.473 14.4584 158.752 20.4069 156.821V141.4C20.4069 139.061 19.559 136.817 18.0499 135.162C16.5407 133.508 14.4944 132.578 12.36 132.578H8.53838C7.6375 132.601 6.75462 132.297 6.02681 131.715C5.299 131.132 4.7668 130.303 4.51169 129.355C4.34512 128.699 4.3196 128.008 4.43665 127.339C4.55319 126.669 4.80978 126.038 5.18544 125.495C5.5611 124.951 6.04631 124.511 6.60304 124.207C7.15977 123.903 7.77303 123.744 8.39479 123.742H20.3864V119.994C20.3864 117.655 19.5385 115.411 18.0294 113.757C16.5202 112.102 14.4739 111.173 12.3395 111.173L4.55269 111.18C3.93042 111.177 3.31717 111.017 2.76044 110.712C2.2037 110.408 1.71899 109.966 1.34334 109.422C0.967682 108.878 0.711563 108.247 0.594513 107.577C0.477463 106.907 0.502975 106.216 0.669052 105.559C0.925659 104.613 1.45886 103.786 2.18668 103.204C2.91399 102.624 3.79585 102.321 4.69623 102.344H20.4204V100.238C20.4014 99.1502 20.708 98.0854 21.2932 97.207C21.8785 96.3286 22.7104 95.6843 23.6613 95.3735C24.322 95.1717 25.0168 95.1399 25.6911 95.2802C26.3654 95.4212 27.0006 95.7304 27.5479 96.1844C28.0951 96.6384 28.5393 97.2251 28.8459 97.8984C29.1525 98.5712 29.3131 99.313 29.3151 100.065V102.314H44.9712C45.8711 102.291 46.753 102.594 47.4808 103.175C48.2086 103.755 48.7418 104.583 48.9979 105.529C49.164 106.187 49.1895 106.877 49.0729 107.547C48.9559 108.217 48.6998 108.848 48.3241 109.392C47.9485 109.936 47.4633 110.377 46.907 110.682C46.3503 110.987 45.737 111.148 45.1148 111.151H37.328C35.1936 111.151 33.1467 112.08 31.6376 113.734C30.129 115.388 29.2811 117.633 29.2811 119.972V123.719H41.1701C42.07 123.697 42.9519 123.999 43.6797 124.58C44.4075 125.161 44.9407 125.989 45.1968 126.935C45.3629 127.592 45.3884 128.282 45.2713 128.952C45.1548 129.622 44.8987 130.254 44.523 130.798C44.1474 131.341 43.6622 131.783 43.1054 132.088C42.5492 132.393 41.936 132.553 41.3137 132.556H37.3485C35.2141 132.556 33.1673 133.485 31.6581 135.14C30.149 136.794 29.3016 139.038 29.3016 141.378V156.832C35.2326 158.774 39.68 164.487 40.3293 171.432H44.8892C46.0972 171.431 47.2557 170.902 48.1091 169.965C48.9629 169.028 49.4426 167.758 49.4426 166.433V147.066C49.4431 146.272 49.6162 145.491 49.9478 144.784C50.2789 144.079 50.7587 143.469 51.3474 143.007C51.9357 142.545 52.6164 142.243 53.3327 142.127C54.0485 142.01 54.7799 142.082 55.4657 142.337L69.9658 147.716L72.2582 70.4764C64.1078 67.6893 57.9072 60.0591 56.4581 50.6585H40.7119C38.5825 50.6585 36.8558 48.7659 36.8558 46.4313C36.8558 44.0967 38.5825 42.2042 40.7119 42.2042H56.4581C58.1963 30.9293 66.7694 22.2016 77.3434 21.3214V13.5925Z" fill="url(#paint0_linear_2929_8574)" fill-opacity="0.3"/>
<defs>
<linearGradient id="paint0_linear_2929_8574" x1="-5.7193" y1="86.9706" x2="245" y2="86.9706" gradientUnits="userSpaceOnUse">
<stop stop-color="#0B7E68"/>
<stop offset="1" stop-color="white" stop-opacity="0"/>
</linearGradient>
</defs>
</svg>
