<svg width="1300" height="854" viewBox="0 0 1300 854" fill="none" xmlns="http://www.w3.org/2000/svg">
<path d="M763.25 712.07C764.747 712.07 765.96 710.857 765.96 709.36C765.96 707.863 764.747 706.65 763.25 706.65C761.753 706.65 760.54 707.863 760.54 709.36C760.54 710.857 761.753 712.07 763.25 712.07Z" fill="#88D1C3"/>
<path d="M784.29 604.16C785.98 604.16 787.35 602.79 787.35 601.1C787.35 599.41 785.98 598.04 784.29 598.04C782.6 598.04 781.23 599.41 781.23 601.1C781.23 602.79 782.6 604.16 784.29 604.16Z" fill="#88D1C3"/>
<path d="M646.97 741.06C648.511 741.06 649.76 739.811 649.76 738.27C649.76 736.729 648.511 735.48 646.97 735.48C645.429 735.48 644.18 736.729 644.18 738.27C644.18 739.811 645.429 741.06 646.97 741.06Z" fill="#88D1C3"/>
<path d="M559.78 716.79C561.094 716.79 562.16 715.724 562.16 714.41C562.16 713.096 561.094 712.03 559.78 712.03C558.465 712.03 557.4 713.096 557.4 714.41C557.4 715.724 558.465 716.79 559.78 716.79Z" fill="#88D1C3"/>
<path d="M1058.42 683.39L1079.11 669.04C1070.42 661.71 1054.25 651.94 1040.28 651.04" fill="#88D1C3"/>
<path d="M1048.47 706.66C1055.4 694.98 1041.96 674.204 1018.45 660.255C994.937 646.305 970.26 644.466 963.33 656.146C956.401 667.826 969.843 688.602 993.355 702.551C1016.87 716.5 1041.54 718.34 1048.47 706.66Z" fill="#7996C9"/>
<path d="M1083.6 703.99C1089.24 707.34 1095.22 716.66 1096.7 723.07C1090.37 724.83 1079.32 724.07 1073.7 720.71C1072.6 720.059 1071.64 719.197 1070.88 718.175C1070.11 717.154 1069.56 715.991 1069.24 714.754C1068.93 713.517 1068.86 712.23 1069.04 710.967C1069.22 709.703 1069.65 708.488 1070.3 707.39C1070.95 706.292 1071.81 705.333 1072.83 704.568C1073.86 703.803 1075.02 703.247 1076.26 702.931C1077.49 702.616 1078.78 702.547 1080.04 702.728C1081.31 702.91 1082.52 703.339 1083.62 703.99H1083.6Z" fill="#FF8080"/>
<path d="M1056.23 693.582C1063.16 681.902 1049.72 661.126 1026.21 647.177C1002.7 633.228 978.02 631.388 971.091 643.068C964.161 654.748 977.604 675.524 1001.12 689.473C1024.63 703.422 1049.3 705.262 1056.23 693.582Z" fill="white"/>
<path d="M1056.58 693.007C1061.77 684.272 1048.95 667.093 1027.95 654.638C1006.96 642.182 985.739 639.166 980.557 647.901C975.375 656.636 988.193 673.814 1009.19 686.27C1030.18 698.725 1051.4 701.742 1056.58 693.007Z" fill="#88D1C3"/>
<path d="M976.8 668.62L969.85 680.32C969.85 680.32 966.78 677.85 965.71 675.63C964.64 673.41 960 664.68 963.6 658.42C967.2 652.16 968.69 650.23 969.67 653.83C970.65 657.43 976.8 668.62 976.8 668.62Z" fill="white"/>
<path d="M1029.14 700.45C1036.52 701.81 1039.81 701.56 1044.53 700.45C1049.25 699.34 1048.69 701.16 1051.25 704.45C1053.81 707.74 1060.95 732.71 1060.95 732.71C1060.95 732.71 1050.95 733.56 1039.79 726.93C1028.63 720.3 1001.98 701.32 1002.34 695.19C1002.7 689.06 1004.87 693.87 1012.03 695.98C1019.19 698.09 1029.14 700.45 1029.14 700.45Z" fill="#88D1C3"/>
<path d="M1076.51 669.67C1064.86 663.25 1051.74 657.24 1044.21 658.83C1044.21 658.83 1040.35 651.75 1041.65 651.15C1042.95 650.55 1069.98 662.03 1075.17 665.94C1080.36 669.85 1076.51 669.67 1076.51 669.67Z" fill="white"/>
<path d="M1046.46 681.26C1052.71 682.975 1058.77 685.32 1064.55 688.26C1069.05 690.67 1070.85 691.58 1070.55 693.72C1070.25 695.86 1064.81 708.41 1062.2 709.82C1059.59 711.23 1055.61 709.08 1054.2 705.66C1052.79 702.24 1052.86 700.43 1048.51 695.25C1044.16 690.07 1036.49 680.57 1046.46 681.26Z" fill="#88D1C3"/>
<path d="M1069.13 696.14C1061.56 691.516 1053.34 688.044 1044.74 685.84L1047.47 691.2L1067.2 702.91L1069.13 696.14Z" fill="white"/>
<path d="M1058.5 729.76C1050.63 726.67 1027.92 717.6 1013.57 698.36C1013.57 698.36 1003.57 691.36 1002.05 691.53C1000.53 691.7 1010.97 709 1025.82 717.69C1040.67 726.38 1060.81 736 1058.5 729.76Z" fill="white"/>
<path d="M991.65 651.78C983.65 665.34 1032.65 694.46 1040.73 680.91C1042.71 677.685 1044.03 674.099 1044.61 670.36C1045.19 666.622 1045.02 662.805 1044.11 659.131C1043.21 655.458 1041.58 652.002 1039.32 648.964C1037.06 645.927 1034.23 643.368 1030.97 641.437C1027.72 639.505 1024.11 638.241 1020.37 637.715C1016.62 637.19 1012.81 637.416 1009.15 638.378C1005.49 639.341 1002.06 641.021 999.053 643.322C996.049 645.623 993.532 648.498 991.65 651.78V651.78Z" fill="#88D1C3"/>
<path d="M993 705.41C1000.64 709.999 1008.9 713.465 1017.52 715.7V715.65C1029.73 724.809 1043.73 731.318 1058.6 734.76C1058.82 734.803 1059.05 734.826 1059.27 734.83C1059.82 734.836 1060.37 734.714 1060.87 734.472C1061.37 734.23 1061.8 733.875 1062.14 733.435C1062.48 732.996 1062.71 732.483 1062.82 731.939C1062.92 731.395 1062.9 730.834 1062.75 730.3L1058.99 717.3C1062.08 715.64 1065.38 712.13 1068.3 707.21C1072.16 700.69 1075.4 690.21 1070.5 687.28C1068.01 685.808 1065.45 684.472 1062.82 683.28L1079.48 671.73C1079.9 671.433 1080.26 671.042 1080.51 670.588C1080.76 670.134 1080.9 669.628 1080.92 669.11C1080.94 668.602 1080.84 668.097 1080.64 667.633C1080.43 667.17 1080.11 666.761 1079.72 666.44C1070.6 659.01 1055.3 650.09 1041.59 648.76C1037.91 643.402 1032.62 639.353 1026.48 637.196C1020.35 635.04 1013.69 634.887 1007.46 636.76C989.8 631.42 975.52 633.64 970.1 642.59L962.19 655.84C954.5 668.84 968 690.59 993 705.41ZM1000.25 639.82C995.849 642.448 992.177 646.137 989.57 650.55C984.57 659.01 995.67 670.72 1008.92 678.55C1016.92 683.29 1025.78 686.69 1032.65 686.77C1034.87 686.857 1037.07 686.419 1039.09 685.49L1047.73 698.23C1037.28 701.63 1019.64 697.67 1003.32 687.99C992.32 681.44 983.21 673.2 977.74 664.78C972.61 656.85 971.34 649.86 974.18 645.07C977.78 639.08 987.69 637.19 1000.26 639.84L1000.25 639.82ZM1042.1 669.48C1042.15 664.122 1040.42 658.898 1037.2 654.617C1033.98 650.336 1029.44 647.236 1024.28 645.797C1019.12 644.358 1013.62 644.66 1008.65 646.656C1003.68 648.652 999.503 652.231 996.77 656.84C996.323 657.663 996.068 658.575 996.023 659.51C995.978 660.445 996.144 661.378 996.51 662.24C994.67 659.94 992.05 655.87 993.73 653.04C995.473 650.083 997.784 647.5 1000.53 645.44C1003.28 643.38 1006.4 641.885 1009.73 641.04C1011.96 640.476 1014.25 640.201 1016.55 640.22C1020.21 640.275 1023.83 641.1 1027.15 642.64C1030.47 644.181 1033.44 646.403 1035.85 649.163C1038.26 651.923 1040.06 655.159 1041.14 658.661C1042.22 662.163 1042.55 665.852 1042.11 669.49L1042.1 669.48ZM1059.79 679.48C1057.62 673.13 1053.01 666.31 1046.38 659.77C1045.95 657.797 1045.33 655.871 1044.53 654.02C1054.96 656.02 1066.73 662.46 1075.07 668.89L1059.79 679.48ZM1047.1 667.63C1050.43 671.405 1053.1 675.716 1055 680.38C1051.93 679.581 1048.8 679.026 1045.64 678.72L1044.58 678.57C1046.09 675.113 1046.95 671.408 1047.11 667.64L1047.1 667.63ZM1058.57 706.42L1055.27 704.42L1054.09 700.32C1053.64 698.761 1052.94 697.283 1052.03 695.94L1043.41 683.24C1043.96 683.31 1044.51 683.4 1045.07 683.46C1050.97 684.17 1057.07 684.89 1068.07 691.4C1068.64 692.25 1068.18 697.96 1064.18 704.7C1063.95 705.09 1063.72 705.41 1063.49 705.77C1062.9 706.473 1062.07 706.931 1061.16 707.054C1060.25 707.176 1059.33 706.953 1058.58 706.43L1058.57 706.42ZM1004.67 694.3C1016.54 700.68 1028.67 704.17 1038.67 704.3C1042.46 704.408 1046.24 703.853 1049.84 702.66L1057.54 729.57C1044.71 726.48 1016.87 715.67 1004.68 694.31L1004.67 694.3ZM1001.35 704.46L1003.3 701.16C1004.98 703.5 1006.83 705.718 1008.82 707.8C1006.33 706.84 1003.83 705.72 1001.36 704.47L1001.35 704.46ZM993.15 699.79L997.94 691.71C998.89 693.89 999.99 696.001 1001.23 698.03L998.35 702.89C997.35 702.36 996.42 701.81 995.47 701.24C994.69 700.78 993.93 700.28 993.16 699.84L993.15 699.79ZM985.42 694.34L990.77 685.34C992.36 686.56 994.01 687.75 995.7 688.9L990.32 697.96C988.627 696.787 986.997 695.583 985.43 694.35L985.42 694.34ZM978.21 688L983.5 679.09C984.95 680.48 986.5 681.84 988.11 683.18L982.77 692.18C981.18 690.84 979.64 689.42 978.22 688.01L978.21 688ZM971.69 680.51L976.86 671.79C978.15 673.42 979.53 675.03 981.04 676.62L975.79 685.47C974.342 683.892 972.977 682.24 971.7 680.52L971.69 680.51ZM966.33 671.06L971.15 662.94C971.91 664.484 972.758 665.983 973.69 667.43C974 667.91 974.35 668.38 974.69 668.85L969.59 677.44C968.298 675.43 967.209 673.296 966.34 671.07L966.33 671.06ZM966.33 658.32L968.33 654.93C968.606 656.348 968.99 657.742 969.48 659.1L965.08 666.51C964.526 663.72 964.972 660.824 966.34 658.33L966.33 658.32Z" fill="#4F457C"/>
<path d="M1119.35 640.21C1119.35 646.04 1111.8 650.77 1102.48 650.77C1093.16 650.77 1085.61 646.04 1085.61 640.21V635.6H1119.35V640.21Z" fill="#C6A35D"/>
<path d="M1102.48 646.15C1111.8 646.15 1119.35 641.427 1119.35 635.6C1119.35 629.773 1111.8 625.05 1102.48 625.05C1093.16 625.05 1085.61 629.773 1085.61 635.6C1085.61 641.427 1093.16 646.15 1102.48 646.15Z" fill="#F2CE7E"/>
<path d="M937.32 543.42C942.1 546.76 941.64 555.66 936.32 563.3C931 570.94 922.78 574.41 918 571.07L914.22 568.43L933.57 540.78L937.32 543.42Z" fill="#7996C9"/>
<path d="M932.555 560.743C937.897 553.109 938.357 544.213 933.582 540.873C928.808 537.532 920.608 541.013 915.267 548.647C909.925 556.281 909.466 565.177 914.24 568.517C919.014 571.858 927.214 568.377 932.555 560.743Z" fill="#88D1C3"/>
<path d="M1069.38 778.48C1072.13 784.81 1065.82 793.67 1055.27 798.26C1044.72 802.85 1033.94 801.43 1031.18 795.09L1029 790.09L1067.2 773.47L1069.38 778.48Z" fill="#C6A35D"/>
<path d="M1053.09 793.268C1063.64 788.679 1069.96 779.819 1067.2 773.478C1064.44 767.138 1053.65 765.718 1043.1 770.307C1032.55 774.896 1026.24 783.756 1029 790.097C1031.76 796.437 1042.54 797.857 1053.09 793.268Z" fill="#F2CE7E"/>
<path d="M871.77 752.61C867.12 748.47 870.47 737.12 879.25 727.28C888.03 717.44 898.92 712.84 903.57 716.94L908.41 721.26L876.61 756.93L871.77 752.61Z" fill="#C6A35D"/>
<path d="M900.926 746.622C909.707 736.774 913.059 725.433 908.413 721.291C903.767 717.148 892.883 721.774 884.102 731.622C875.322 741.47 871.97 752.812 876.616 756.954C881.262 761.096 892.146 756.47 900.926 746.622Z" fill="#F2CE7E"/>
<path d="M907.54 737.07C907.12 737.91 906.64 738.75 906.12 739.59C911.12 747.4 912.38 754.04 909.79 756.59C907.93 758.45 904.04 758.35 899.12 756.32C893.77 754.1 887.86 749.91 882.47 744.53C870.7 732.84 866.73 720.94 870.41 717.26C873.16 714.51 880.47 716.05 888.9 721.9C889.479 721.182 890.238 720.629 891.1 720.3C881.66 713.56 872.66 711.3 868.57 715.42C863.27 720.72 868.57 734.34 880.63 746.42C886.26 752.04 892.47 756.42 898.13 758.77C900.57 759.861 903.199 760.469 905.87 760.56C906.919 760.616 907.968 760.461 908.956 760.104C909.944 759.746 910.85 759.194 911.62 758.48C915.54 754.55 913.66 746.09 907.54 737.07Z" fill="#C6A35D"/>
<path d="M1051.54 599.24C1047.17 600.82 1040.9 594.6 1037.54 585.33C1034.18 576.06 1035 567.27 1039.37 565.68L1043.93 564.03L1056.1 597.59L1051.54 599.24Z" fill="#4F457C"/>
<path d="M1056.11 597.521C1060.48 595.935 1061.3 587.137 1057.94 577.87C1054.57 568.602 1048.3 562.375 1043.93 563.961C1039.56 565.547 1038.74 574.345 1042.11 583.613C1045.47 592.88 1051.74 599.107 1056.11 597.521Z" fill="#7996C9"/>
<path d="M1065 566.13C1063 563.88 1059.24 563.58 1054.47 565.26C1053.32 565.672 1052.19 566.153 1051.09 566.7C1051.81 567.384 1052.48 568.119 1053.09 568.9C1053.89 568.53 1054.67 568.2 1055.43 567.9C1058.95 566.65 1061.75 566.69 1062.92 567.99C1064.09 569.29 1063.82 572.08 1062.22 575.44C1059.88 579.937 1056.71 583.948 1052.87 587.26C1043.95 595.26 1035.05 597.89 1032.65 595.21C1031.48 593.91 1031.74 591.12 1033.35 587.76C1034.74 584.971 1036.51 582.387 1038.61 580.08C1038.15 578.922 1037.99 577.667 1038.14 576.43C1035.17 579.393 1032.69 582.804 1030.79 586.54C1028.61 591.11 1028.53 594.86 1030.54 597.1C1031.2 597.779 1031.99 598.31 1032.87 598.655C1033.75 599 1034.69 599.152 1035.63 599.1C1040.68 599.1 1047.87 595.61 1054.76 589.41C1058.87 585.847 1062.26 581.537 1064.76 576.71C1066.91 572.13 1067 568.38 1065 566.13Z" fill="#4F457C"/>
<path d="M1168.87 737.35C1174.87 740.18 1174.95 752.85 1168.97 765.65C1162.99 778.45 1153.23 786.54 1147.19 783.71L1140.89 780.77L1162.57 734.41L1168.87 737.35Z" fill="#7996C9"/>
<path d="M1162.63 762.636C1168.62 749.833 1168.57 737.164 1162.53 734.338C1156.48 731.512 1146.73 739.6 1140.74 752.402C1134.76 765.205 1134.8 777.874 1140.85 780.7C1146.89 783.526 1156.64 775.438 1162.63 762.636Z" fill="#88D1C3"/>
<path d="M1121.67 757.3C1121.44 761.62 1124.92 765.73 1131.47 768.86C1133.05 769.624 1134.68 770.292 1136.35 770.86C1136.32 769.443 1136.4 768.026 1136.58 766.62C1135.4 766.19 1134.26 765.74 1133.22 765.24C1128.39 762.93 1125.59 760.06 1125.72 757.55C1125.85 755.04 1128.95 752.49 1133.99 750.7C1139.76 748.7 1147.38 747.77 1155.45 748.2C1172.62 749.11 1184.29 755.49 1184.01 760.64C1183.88 763.15 1180.79 765.71 1175.75 767.49C1171.5 768.897 1167.09 769.721 1162.62 769.94C1161.91 771.584 1160.8 773.022 1159.39 774.12C1165.4 774.127 1171.38 773.182 1177.1 771.32C1183.94 768.9 1187.83 765.18 1188.1 760.86C1188.24 758.32 1187.1 755.86 1184.92 753.72C1179.8 748.6 1168.98 744.85 1155.7 744.15C1147.12 743.69 1138.94 744.66 1132.7 746.88C1125.79 749.26 1121.9 752.97 1121.67 757.3Z" fill="#7996C9"/>
<path d="M1130.35 695.6C1130.01 695.6 1129.67 695.463 1129.43 695.219C1129.19 694.975 1129.05 694.645 1129.05 694.3V689.84C1129.05 689.669 1129.08 689.5 1129.15 689.343C1129.21 689.185 1129.31 689.041 1129.43 688.921C1129.55 688.8 1129.69 688.704 1129.85 688.639C1130.01 688.574 1130.18 688.54 1130.35 688.54C1130.52 688.54 1130.69 688.574 1130.85 688.639C1131.01 688.704 1131.15 688.8 1131.27 688.921C1131.39 689.041 1131.49 689.185 1131.55 689.343C1131.62 689.5 1131.65 689.669 1131.65 689.84V694.28C1131.65 694.452 1131.62 694.624 1131.56 694.784C1131.49 694.944 1131.4 695.089 1131.28 695.212C1131.16 695.335 1131.01 695.433 1130.85 695.499C1130.69 695.566 1130.52 695.6 1130.35 695.6V695.6Z" fill="#88D1C3"/>
<path d="M1140 700.77H1135.57C1135.23 700.77 1134.89 700.633 1134.65 700.389C1134.41 700.145 1134.27 699.815 1134.27 699.47C1134.27 699.125 1134.41 698.795 1134.65 698.551C1134.89 698.307 1135.23 698.17 1135.57 698.17H1140C1140.34 698.17 1140.68 698.307 1140.92 698.551C1141.16 698.795 1141.3 699.125 1141.3 699.47C1141.3 699.815 1141.16 700.145 1140.92 700.389C1140.68 700.633 1140.34 700.77 1140 700.77V700.77Z" fill="#88D1C3"/>
<path d="M1130.35 710.39C1130.01 710.39 1129.67 710.253 1129.43 710.009C1129.19 709.765 1129.05 709.435 1129.05 709.09V704.65C1129.05 704.479 1129.08 704.31 1129.15 704.152C1129.21 703.995 1129.31 703.851 1129.43 703.731C1129.55 703.61 1129.69 703.514 1129.85 703.449C1130.01 703.384 1130.18 703.35 1130.35 703.35C1130.52 703.35 1130.69 703.384 1130.85 703.449C1131.01 703.514 1131.15 703.61 1131.27 703.731C1131.39 703.851 1131.49 703.995 1131.55 704.152C1131.62 704.31 1131.65 704.479 1131.65 704.65V709.09C1131.65 709.435 1131.51 709.765 1131.27 710.009C1131.03 710.253 1130.69 710.39 1130.35 710.39V710.39Z" fill="#88D1C3"/>
<path d="M1125.17 700.77H1120.74C1120.4 700.77 1120.06 700.633 1119.82 700.389C1119.58 700.145 1119.44 699.815 1119.44 699.47C1119.44 699.125 1119.58 698.795 1119.82 698.551C1120.06 698.307 1120.4 698.17 1120.74 698.17H1125.17C1125.51 698.17 1125.85 698.307 1126.09 698.551C1126.33 698.795 1126.47 699.125 1126.47 699.47C1126.47 699.815 1126.33 700.145 1126.09 700.389C1125.85 700.633 1125.51 700.77 1125.17 700.77V700.77Z" fill="#88D1C3"/>
<path d="M981.05 746.14C980.705 746.14 980.375 746.003 980.131 745.759C979.887 745.515 979.75 745.185 979.75 744.84V737.66C979.75 737.315 979.887 736.985 980.131 736.741C980.375 736.497 980.705 736.36 981.05 736.36C981.395 736.36 981.725 736.497 981.969 736.741C982.213 736.985 982.35 737.315 982.35 737.66V744.84C982.35 745.185 982.213 745.515 981.969 745.759C981.725 746.003 981.395 746.14 981.05 746.14V746.14Z" fill="#7996C9"/>
<path d="M990.66 751.32H986.22C985.875 751.32 985.545 751.183 985.301 750.939C985.057 750.695 984.92 750.365 984.92 750.02C984.92 749.675 985.057 749.345 985.301 749.101C985.545 748.857 985.875 748.72 986.22 748.72H990.66C991.005 748.72 991.335 748.857 991.579 749.101C991.823 749.345 991.96 749.675 991.96 750.02C991.96 750.365 991.823 750.695 991.579 750.939C991.335 751.183 991.005 751.32 990.66 751.32Z" fill="#7996C9"/>
<path d="M981.05 763.67C980.705 763.67 980.375 763.533 980.131 763.289C979.887 763.045 979.75 762.715 979.75 762.37V755.19C979.75 754.845 979.887 754.515 980.131 754.271C980.375 754.027 980.705 753.89 981.05 753.89C981.395 753.89 981.725 754.027 981.969 754.271C982.213 754.515 982.35 754.845 982.35 755.19V762.37C982.35 762.715 982.213 763.045 981.969 763.289C981.725 763.533 981.395 763.67 981.05 763.67Z" fill="#7996C9"/>
<path d="M975.87 751.32H971.43C971.085 751.32 970.754 751.183 970.511 750.939C970.267 750.695 970.13 750.365 970.13 750.02C970.13 749.675 970.267 749.345 970.511 749.101C970.754 748.857 971.085 748.72 971.43 748.72H975.87C976.215 748.72 976.545 748.857 976.789 749.101C977.033 749.345 977.17 749.675 977.17 750.02C977.17 750.365 977.033 750.695 976.789 750.939C976.545 751.183 976.215 751.32 975.87 751.32Z" fill="#7996C9"/>
<path d="M1180.68 626.02C1180.34 626.02 1180 625.883 1179.76 625.639C1179.52 625.395 1179.38 625.065 1179.38 624.72V617.54C1179.38 617.369 1179.41 617.2 1179.48 617.042C1179.54 616.885 1179.64 616.741 1179.76 616.621C1179.88 616.5 1180.02 616.404 1180.18 616.339C1180.34 616.274 1180.51 616.24 1180.68 616.24C1180.85 616.24 1181.02 616.274 1181.18 616.339C1181.34 616.404 1181.48 616.5 1181.6 616.621C1181.72 616.741 1181.82 616.885 1181.88 617.042C1181.95 617.2 1181.98 617.369 1181.98 617.54V624.72C1181.98 625.065 1181.84 625.395 1181.6 625.639C1181.36 625.883 1181.02 626.02 1180.68 626.02V626.02Z" fill="#7996C9"/>
<path d="M1190.29 631.2H1185.85C1185.51 631.2 1185.17 631.063 1184.93 630.819C1184.69 630.575 1184.55 630.245 1184.55 629.9C1184.55 629.555 1184.69 629.225 1184.93 628.981C1185.17 628.737 1185.51 628.6 1185.85 628.6H1190.29C1190.63 628.6 1190.97 628.737 1191.21 628.981C1191.45 629.225 1191.59 629.555 1191.59 629.9C1191.59 630.245 1191.45 630.575 1191.21 630.819C1190.97 631.063 1190.63 631.2 1190.29 631.2Z" fill="#7996C9"/>
<path d="M1180.68 643.55C1180.34 643.55 1180 643.413 1179.76 643.169C1179.52 642.925 1179.38 642.595 1179.38 642.25V635.07C1179.38 634.899 1179.41 634.73 1179.48 634.573C1179.54 634.415 1179.64 634.272 1179.76 634.151C1179.88 634.03 1180.02 633.934 1180.18 633.869C1180.34 633.804 1180.51 633.77 1180.68 633.77C1180.85 633.77 1181.02 633.804 1181.18 633.869C1181.34 633.934 1181.48 634.03 1181.6 634.151C1181.72 634.272 1181.82 634.415 1181.88 634.573C1181.95 634.73 1181.98 634.899 1181.98 635.07V642.25C1181.98 642.595 1181.84 642.925 1181.6 643.169C1181.36 643.413 1181.02 643.55 1180.68 643.55Z" fill="#7996C9"/>
<path d="M1175.5 631.2H1171.06C1170.72 631.2 1170.38 631.063 1170.14 630.819C1169.9 630.575 1169.76 630.245 1169.76 629.9C1169.76 629.555 1169.9 629.225 1170.14 628.981C1170.38 628.737 1170.72 628.6 1171.06 628.6H1175.5C1175.84 628.6 1176.18 628.737 1176.42 628.981C1176.66 629.225 1176.8 629.555 1176.8 629.9C1176.8 630.245 1176.66 630.575 1176.42 630.819C1176.18 631.063 1175.84 631.2 1175.5 631.2Z" fill="#7996C9"/>
<path d="M1099.87 573.32C1099.53 573.32 1099.19 573.183 1098.95 572.939C1098.71 572.695 1098.57 572.365 1098.57 572.02V568.43C1098.57 568.085 1098.71 567.755 1098.95 567.511C1099.19 567.267 1099.53 567.13 1099.87 567.13C1100.21 567.13 1100.55 567.267 1100.79 567.511C1101.03 567.755 1101.17 568.085 1101.17 568.43V572.02C1101.17 572.365 1101.03 572.695 1100.79 572.939C1100.55 573.183 1100.21 573.32 1099.87 573.32V573.32Z" fill="#88D1C3"/>
<path d="M1107.37 577.23H1103.78C1103.44 577.23 1103.1 577.093 1102.86 576.849C1102.62 576.605 1102.48 576.275 1102.48 575.93C1102.48 575.585 1102.62 575.255 1102.86 575.011C1103.1 574.767 1103.44 574.63 1103.78 574.63H1107.37C1107.71 574.63 1108.05 574.767 1108.29 575.011C1108.53 575.255 1108.67 575.585 1108.67 575.93C1108.67 576.275 1108.53 576.605 1108.29 576.849C1108.05 577.093 1107.71 577.23 1107.37 577.23Z" fill="#88D1C3"/>
<path d="M1099.87 584.73C1099.53 584.73 1099.19 584.593 1098.95 584.349C1098.71 584.105 1098.57 583.775 1098.57 583.43V579.84C1098.57 579.669 1098.6 579.5 1098.67 579.343C1098.73 579.185 1098.83 579.041 1098.95 578.921C1099.07 578.8 1099.21 578.704 1099.37 578.639C1099.53 578.574 1099.7 578.54 1099.87 578.54C1100.04 578.54 1100.21 578.574 1100.37 578.639C1100.53 578.704 1100.67 578.8 1100.79 578.921C1100.91 579.041 1101.01 579.185 1101.07 579.343C1101.14 579.5 1101.17 579.669 1101.17 579.84V583.43C1101.17 583.775 1101.03 584.105 1100.79 584.349C1100.55 584.593 1100.21 584.73 1099.87 584.73V584.73Z" fill="#88D1C3"/>
<path d="M1096 577.23H1092.41C1092.07 577.23 1091.73 577.093 1091.49 576.849C1091.25 576.605 1091.11 576.275 1091.11 575.93C1091.11 575.585 1091.25 575.255 1091.49 575.011C1091.73 574.767 1092.07 574.63 1092.41 574.63H1096C1096.34 574.63 1096.68 574.767 1096.92 575.011C1097.16 575.255 1097.3 575.585 1097.3 575.93C1097.3 576.275 1097.16 576.605 1096.92 576.849C1096.68 577.093 1096.34 577.23 1096 577.23Z" fill="#88D1C3"/>
<path d="M869.13 667.9C868.785 667.9 868.454 667.763 868.211 667.519C867.967 667.275 867.83 666.945 867.83 666.6V663.01C867.814 662.83 867.836 662.649 867.894 662.479C867.952 662.308 868.044 662.151 868.166 662.018C868.288 661.885 868.436 661.779 868.601 661.706C868.766 661.634 868.945 661.596 869.125 661.596C869.305 661.596 869.484 661.634 869.649 661.706C869.814 661.779 869.962 661.885 870.084 662.018C870.205 662.151 870.298 662.308 870.356 662.479C870.414 662.649 870.436 662.83 870.42 663.01V666.6C870.42 666.943 870.284 667.272 870.043 667.516C869.801 667.759 869.473 667.897 869.13 667.9V667.9Z" fill="#88D1C3"/>
<path d="M876.63 671.84H873C872.655 671.84 872.324 671.703 872.081 671.459C871.837 671.215 871.7 670.885 871.7 670.54C871.7 670.195 871.837 669.865 872.081 669.621C872.324 669.377 872.655 669.24 873 669.24H876.59C876.935 669.24 877.265 669.377 877.509 669.621C877.753 669.865 877.89 670.195 877.89 670.54C877.89 670.885 877.753 671.215 877.509 671.459C877.265 671.703 876.935 671.84 876.59 671.84H876.63Z" fill="#88D1C3"/>
<path d="M869.13 679.31C868.785 679.31 868.454 679.173 868.211 678.929C867.967 678.685 867.83 678.355 867.83 678.01V674.43C867.814 674.25 867.836 674.069 867.894 673.899C867.952 673.728 868.044 673.571 868.166 673.438C868.288 673.305 868.436 673.199 868.601 673.126C868.766 673.054 868.945 673.016 869.125 673.016C869.305 673.016 869.484 673.054 869.649 673.126C869.814 673.199 869.962 673.305 870.084 673.438C870.205 673.571 870.298 673.728 870.356 673.899C870.414 674.069 870.436 674.25 870.42 674.43V678.01C870.42 678.353 870.284 678.682 870.043 678.926C869.801 679.169 869.473 679.307 869.13 679.31V679.31Z" fill="#88D1C3"/>
<path d="M865.21 671.84H861.63C861.285 671.84 860.955 671.703 860.711 671.459C860.467 671.215 860.33 670.885 860.33 670.54C860.33 670.195 860.467 669.865 860.711 669.621C860.955 669.377 861.285 669.24 861.63 669.24H865.21C865.555 669.24 865.885 669.377 866.129 669.621C866.373 669.865 866.51 670.195 866.51 670.54C866.51 670.885 866.373 671.215 866.129 671.459C865.885 671.703 865.555 671.84 865.21 671.84Z" fill="#88D1C3"/>
<path d="M993.16 602.34C992.815 602.34 992.484 602.203 992.241 601.959C991.997 601.715 991.86 601.385 991.86 601.04V591.54C991.86 591.195 991.997 590.865 992.241 590.621C992.484 590.377 992.815 590.24 993.16 590.24C993.505 590.24 993.835 590.377 994.079 590.621C994.323 590.865 994.46 591.195 994.46 591.54V601.04C994.46 601.211 994.426 601.38 994.361 601.537C994.296 601.695 994.2 601.839 994.079 601.959C993.958 602.08 993.815 602.176 993.657 602.241C993.5 602.306 993.331 602.34 993.16 602.34V602.34Z" fill="#88D1C3"/>
<path d="M997.91 597.59H988.41C988.065 597.59 987.734 597.453 987.491 597.209C987.247 596.965 987.11 596.635 987.11 596.29C987.11 595.945 987.247 595.615 987.491 595.371C987.734 595.127 988.065 594.99 988.41 594.99H997.91C998.255 594.99 998.585 595.127 998.829 595.371C999.073 595.615 999.21 595.945 999.21 596.29C999.21 596.635 999.073 596.965 998.829 597.209C998.585 597.453 998.255 597.59 997.91 597.59V597.59Z" fill="#88D1C3"/>
<path d="M958.164 642.198L955.843 646.111L967.075 652.775L969.396 648.862L958.164 642.198Z" fill="#4F457C"/>
<path d="M952.63 628.39C952.108 628.39 951.607 628.186 951.233 627.822C950.859 627.458 950.643 626.962 950.63 626.44V600.44C950.731 599.998 950.978 599.604 951.333 599.321C951.687 599.038 952.127 598.884 952.58 598.884C953.033 598.884 953.473 599.038 953.827 599.321C954.181 599.604 954.429 599.998 954.53 600.44V626.44C954.518 626.945 954.315 627.426 953.963 627.788C953.61 628.15 953.134 628.365 952.63 628.39Z" fill="#4F457C"/>
<path d="M941.36 632.3C940.844 632.295 940.349 632.091 939.98 631.73L923.8 615.54C923.435 615.175 923.23 614.681 923.23 614.165C923.23 613.649 923.435 613.155 923.8 612.79C924.165 612.425 924.659 612.22 925.175 612.22C925.691 612.22 926.185 612.425 926.55 612.79L942.74 628.97C942.991 629.251 943.158 629.597 943.221 629.968C943.284 630.339 943.241 630.721 943.097 631.069C942.952 631.417 942.713 631.717 942.406 631.935C942.099 632.153 941.736 632.279 941.36 632.3Z" fill="#4F457C"/>
<path d="M963.9 632.3C963.524 632.279 963.162 632.153 962.854 631.935C962.547 631.717 962.308 631.417 962.163 631.069C962.019 630.721 961.976 630.339 962.039 629.968C962.102 629.597 962.269 629.251 962.52 628.97L975.17 616.33C975.541 615.992 976.029 615.81 976.531 615.822C977.033 615.834 977.511 616.039 977.865 616.395C978.22 616.75 978.423 617.229 978.433 617.731C978.444 618.233 978.26 618.72 977.92 619.09L965.28 631.73C964.911 632.091 964.416 632.295 963.9 632.3Z" fill="#4F457C"/>
<path d="M937.45 643.57H912.85C912.408 643.469 912.014 643.222 911.731 642.867C911.448 642.513 911.294 642.073 911.294 641.62C911.294 641.167 911.448 640.727 911.731 640.373C912.014 640.019 912.408 639.771 912.85 639.67H937.45C937.892 639.771 938.286 640.019 938.569 640.373C938.852 640.727 939.006 641.167 939.006 641.62C939.006 642.073 938.852 642.513 938.569 642.867C938.286 643.222 937.892 643.469 937.45 643.57Z" fill="#4F457C"/>
<path d="M924.18 672.02C923.805 671.997 923.444 671.87 923.138 671.651C922.832 671.432 922.594 671.132 922.451 670.785C922.308 670.437 922.266 670.056 922.329 669.686C922.393 669.315 922.559 668.97 922.81 668.69L940 651.51C940.384 651.267 940.839 651.161 941.291 651.211C941.743 651.261 942.164 651.464 942.485 651.785C942.806 652.106 943.009 652.528 943.059 652.979C943.109 653.431 943.003 653.886 942.76 654.27L925.58 671.45C925.206 671.816 924.703 672.02 924.18 672.02V672.02Z" fill="#4F457C"/>
<path d="M952.63 679.97C952.099 679.97 951.591 679.759 951.216 679.384C950.841 679.009 950.63 678.5 950.63 677.97V656.84C950.731 656.398 950.978 656.004 951.333 655.721C951.687 655.438 952.127 655.284 952.58 655.284C953.033 655.284 953.473 655.438 953.827 655.721C954.181 656.004 954.429 656.398 954.53 656.84V678.06C954.508 678.558 954.301 679.03 953.95 679.383C953.598 679.736 953.128 679.946 952.63 679.97Z" fill="#4F457C"/>
<path d="M871.74 608.01C873.866 608.01 875.59 606.286 875.59 604.16C875.59 602.034 873.866 600.31 871.74 600.31C869.614 600.31 867.89 602.034 867.89 604.16C867.89 606.286 869.614 608.01 871.74 608.01Z" fill="#88D1C3"/>
<path d="M1108.41 798.82C1109.96 798.82 1111.22 797.562 1111.22 796.01C1111.22 794.458 1109.96 793.2 1108.41 793.2C1106.86 793.2 1105.6 794.458 1105.6 796.01C1105.6 797.562 1106.86 798.82 1108.41 798.82Z" fill="#88D1C3"/>
<path d="M965.8 793.2C966.579 793.2 967.21 792.569 967.21 791.79C967.21 791.011 966.579 790.38 965.8 790.38C965.021 790.38 964.39 791.011 964.39 791.79C964.39 792.569 965.021 793.2 965.8 793.2Z" fill="#88D1C3"/>
<path d="M823.95 750.13C824.729 750.13 825.36 749.499 825.36 748.72C825.36 747.941 824.729 747.31 823.95 747.31C823.171 747.31 822.54 747.941 822.54 748.72C822.54 749.499 823.171 750.13 823.95 750.13Z" fill="#88D1C3"/>
<path d="M898.34 797.33C900.621 797.33 902.47 795.481 902.47 793.2C902.47 790.919 900.621 789.07 898.34 789.07C896.059 789.07 894.21 790.919 894.21 793.2C894.21 795.481 896.059 797.33 898.34 797.33Z" fill="#88D1C3"/>
<path d="M1212.35 710.09C1213.88 710.09 1215.12 708.85 1215.12 707.32C1215.12 705.79 1213.88 704.55 1212.35 704.55C1210.82 704.55 1209.58 705.79 1209.58 707.32C1209.58 708.85 1210.82 710.09 1212.35 710.09Z" fill="#88D1C3"/>
<path d="M1161.07 559.39C1162.98 559.39 1164.53 557.841 1164.53 555.93C1164.53 554.019 1162.98 552.47 1161.07 552.47C1159.16 552.47 1157.61 554.019 1157.61 555.93C1157.61 557.841 1159.16 559.39 1161.07 559.39Z" fill="#88D1C3"/>
<path d="M952.63 648.85C956.623 648.85 959.86 645.613 959.86 641.62C959.86 637.627 956.623 634.39 952.63 634.39C948.637 634.39 945.4 637.627 945.4 641.62C945.4 645.613 948.637 648.85 952.63 648.85Z" fill="#F2CE7E"/>
<path opacity="0.6" d="M208.21 628.09L256.91 676.46L265.24 641.81L273.58 607.16L208.21 628.09Z" fill="url(#paint0_linear_1591_6368)"/>
<path opacity="0.6" d="M352.49 662.79L287.12 683.72L295.46 649.08L303.79 614.43L352.49 662.79Z" fill="url(#paint1_linear_1591_6368)"/>
<path d="M464.2 674.12L480.2 654.64C469.84 649.98 451.6 645.02 437.92 647.98" fill="#88D1C3"/>
<path d="M461.089 699.332C464.547 686.199 445.918 669.91 419.481 662.95C393.044 655.99 368.809 660.994 365.351 674.127C361.894 687.26 380.522 703.549 406.96 710.509C433.397 717.47 457.631 712.466 461.089 699.332Z" fill="#7996C9"/>
<path d="M494.07 687.01C500.41 688.68 508.72 696.01 511.91 701.76C506.3 705.19 495.47 707.48 489.12 705.81C486.627 705.154 484.497 703.534 483.198 701.307C481.899 699.08 481.538 696.428 482.195 693.935C482.851 691.442 484.471 689.312 486.698 688.013C488.925 686.714 491.577 686.354 494.07 687.01V687.01Z" fill="#FF8080"/>
<path d="M464.962 684.615C468.419 671.482 449.791 655.193 423.353 648.233C396.916 641.272 372.682 646.276 369.224 659.41C365.766 672.543 384.395 688.832 410.832 695.792C437.269 702.752 461.504 697.748 464.962 684.615Z" fill="white"/>
<path d="M465.384 679.289C467.923 669.437 450.786 656.503 427.108 650.401C403.429 644.298 382.175 647.337 379.636 657.189C377.097 667.041 394.234 679.974 417.913 686.077C441.591 692.18 462.845 689.141 465.384 679.289Z" fill="#88D1C3"/>
<path d="M381.66 682.33L378.2 695.48C378.2 695.48 374.56 693.95 372.93 692.11C371.3 690.27 364.43 683.11 366.17 676.11C367.91 669.11 368.82 666.84 370.75 670.03C372.68 673.22 381.66 682.33 381.66 682.33Z" fill="white"/>
<path d="M440.73 698.56C448.21 697.84 451.3 696.7 455.54 694.37C459.78 692.04 459.74 693.91 463.1 696.37C466.46 698.83 480.19 720.84 480.19 720.84C480.19 720.84 470.82 724.41 458.25 721.09C445.68 717.77 414.86 706.84 413.53 700.84C412.2 694.84 415.59 698.84 423.06 698.94C430.53 699.04 440.73 698.56 440.73 698.56Z" fill="#88D1C3"/>
<path d="M477.83 655.96C464.83 652.96 450.6 650.8 443.83 654.4C443.83 654.4 438.18 648.66 439.26 647.72C440.34 646.78 469.49 650.41 475.55 652.72C481.61 655.03 477.83 655.96 477.83 655.96Z" fill="white"/>
<path d="M452.12 675.35C458.599 675.263 465.069 675.839 471.43 677.07C476.43 678.15 478.43 678.54 478.71 680.67C478.99 682.8 477.21 696.37 475.1 698.45C472.99 700.53 468.56 699.54 466.31 696.62C464.06 693.7 463.58 691.96 457.98 688.17C452.38 684.38 442.35 677.43 452.12 675.35Z" fill="#88D1C3"/>
<path d="M478 683.44C469.446 681.061 460.585 679.973 451.71 680.21L455.82 684.62L478 690.46V683.44Z" fill="white"/>
<path d="M477 718.68C468.59 717.88 444.26 715.39 425.19 700.83C425.19 700.83 413.65 696.83 412.19 697.42C410.73 698.01 425.57 711.77 442.19 716.05C458.81 720.33 481 724.05 477 718.68Z" fill="white"/>
<path d="M391.33 662.06C387.33 677.3 442.51 691.82 446.52 676.58C447.473 672.956 447.704 669.18 447.198 665.467C446.692 661.754 445.46 658.178 443.571 654.941C441.683 651.704 439.176 648.872 436.193 646.604C433.209 644.336 429.809 642.678 426.185 641.725C422.561 640.772 418.785 640.541 415.072 641.047C411.359 641.553 407.783 642.786 404.546 644.674C401.309 646.562 398.476 649.069 396.209 652.053C393.941 655.036 392.283 658.436 391.33 662.06V662.06Z" fill="#88D1C3"/>
<path d="M358.092 662.319L356.863 666.99L367.713 669.846L368.943 665.175L358.092 662.319Z" fill="#4F457C"/>
<path d="M407.36 713.25C415.962 715.568 424.854 716.632 433.76 716.41V716.36C448.02 721.816 463.262 724.234 478.51 723.46C478.737 723.441 478.961 723.401 479.18 723.34C479.714 723.194 480.207 722.925 480.62 722.555C481.032 722.185 481.353 721.725 481.557 721.21C481.761 720.695 481.842 720.139 481.794 719.587C481.745 719.035 481.57 718.502 481.28 718.03L474.1 706.58C476.62 704.14 478.82 699.85 480.28 694.32C482.2 686.99 482.44 676.01 476.92 674.56C474.129 673.808 471.298 673.213 468.44 672.78L481.28 657.1C481.611 656.699 481.843 656.226 481.96 655.719C482.076 655.212 482.073 654.685 481.95 654.18C481.83 653.687 481.597 653.228 481.269 652.841C480.941 652.454 480.527 652.149 480.06 651.95C469.25 647.31 452.06 642.95 438.54 645.41C433.526 641.27 427.329 638.826 420.839 638.429C414.35 638.032 407.901 639.702 402.42 643.2C383.97 642.93 370.85 648.97 368.09 659.08L364.14 674.08C360.28 688.64 379.27 705.84 407.36 713.25ZM396.36 648.19C392.841 651.925 390.311 656.479 389 661.44C386.5 670.95 400.41 679.16 415.31 683.09C424.31 685.45 433.76 686.28 440.38 684.48C442.535 683.953 444.536 682.925 446.22 681.48L458 691.36C448.89 697.5 430.84 698.54 412.48 693.7C400.08 690.44 389.09 685.01 381.48 678.41C374.37 672.2 371.23 665.82 372.65 660.41C374.5 653.65 383.51 649.11 396.32 648.19H396.36ZM444.74 665.19C443.319 660.02 440.233 655.463 435.959 652.224C431.686 648.986 426.463 647.248 421.101 647.278C415.74 647.309 410.538 649.107 406.302 652.394C402.065 655.681 399.031 660.274 397.67 665.46C397.468 666.374 397.473 667.323 397.686 668.235C397.899 669.147 398.314 670 398.9 670.73C396.5 669.02 392.9 665.83 393.7 662.64C395.241 656.866 398.716 651.796 403.544 648.275C408.373 644.754 414.263 642.996 420.231 643.295C426.199 643.593 431.885 645.93 436.338 649.915C440.791 653.9 443.743 659.291 444.7 665.19H444.74ZM464.51 669.96C460.67 664.44 454.36 659.15 446.2 654.69C445.24 652.921 444.115 651.247 442.84 649.69C453.42 648.76 466.5 651.69 476.29 655.61L464.51 669.96ZM449 662.08C453.245 664.791 456.998 668.202 460.1 672.17C456.929 672.258 453.769 672.592 450.65 673.17C450.3 673.23 449.94 673.27 449.59 673.32C450.088 669.569 449.888 665.758 449 662.08V662.08ZM470.69 696.23L466.98 695.23L464.71 691.61C463.849 690.236 462.776 689.008 461.53 687.97L449.75 678.12C450.3 678.03 450.86 677.97 451.42 677.88C457.29 676.88 463.35 675.95 475.68 679.2C476.46 679.86 477.59 685.48 475.6 693.06C475.48 693.49 475.35 693.87 475.22 694.28C474.844 695.111 474.171 695.772 473.333 696.132C472.495 696.493 471.552 696.528 470.69 696.23V696.23ZM415.53 699.37C428.7 702.24 441.32 702.27 450.95 699.65C454.627 698.71 458.113 697.136 461.25 695L476 718.76C462.86 719.31 433.11 716.56 415.53 699.37ZM415.12 710.05L416.12 706.34C418.376 708.132 420.755 709.762 423.24 711.22C420.56 710.95 417.85 710.57 415.12 710.05V710.05ZM406 707.84L408.39 698.76C409.901 700.598 411.538 702.329 413.29 703.94L411.85 709.39C410.78 709.15 409.7 708.89 408.63 708.6C407.7 708.34 406.83 708.07 406 707.84ZM397 704.69L399.67 694.55C401.53 695.29 403.44 695.97 405.39 696.61L402.73 706.84C400.77 706.15 398.87 705.44 397 704.69ZM388.33 700.58L390.97 690.58C392.75 691.52 394.61 692.4 396.53 693.24L393.86 703.36C392 702.46 390.11 701.55 388.36 700.58H388.33ZM380 695.17L382.58 685.37C384.27 686.58 386.04 687.75 387.92 688.86L385.3 698.86C383.471 697.721 381.702 696.49 380 695.17ZM372.25 687.56L374.66 678.42C375.813 679.696 377.038 680.904 378.33 682.04C378.76 682.42 379.23 682.77 379.68 683.14L377.16 692.84C375.364 691.244 373.73 689.475 372.28 687.56H372.25ZM368.76 675.3L369.76 671.49C370.418 672.776 371.173 674.01 372.02 675.18L369.82 683.52C368.522 680.986 368.157 678.076 368.79 675.3H368.76Z" fill="#4F457C"/>
<path d="M123.56 581.61L83.5 571.97C78.2 570.7 71.25 580.72 67.97 594.36C64.69 608 66.33 620.08 71.62 621.36L111.68 631C116.98 632.27 123.93 622.25 127.21 608.62C130.49 594.99 128.85 582.84 123.56 581.61Z" fill="#B7D0E5"/>
<path d="M127.113 608.97C130.436 595.148 128.838 582.911 123.544 581.638C118.249 580.365 111.263 590.537 107.939 604.359C104.616 618.181 106.214 630.418 111.509 631.691C116.803 632.964 123.79 622.791 127.113 608.97Z" fill="white"/>
<path d="M146.098 489.316L108.616 480.303C106.409 479.773 104.19 481.132 103.659 483.338L85.8494 557.407C85.3187 559.614 86.6777 561.834 88.8847 562.364L126.366 571.377C128.573 571.907 130.793 570.549 131.323 568.342L149.133 494.273C149.664 492.066 148.305 489.846 146.098 489.316Z" fill="#B7D0E5"/>
<path d="M142.228 494.701L103.774 485.455L85.7052 560.603L124.159 569.849L142.228 494.701Z" fill="#7996C9"/>
<path d="M109.34 642.183L71.8587 633.171C69.6517 632.64 67.4323 633.999 66.9017 636.206L49.092 710.275C48.5613 712.482 49.9202 714.701 52.1272 715.232L89.6089 724.245C91.8159 724.775 94.0352 723.416 94.5659 721.209L112.376 647.14C112.906 644.933 111.547 642.714 109.34 642.183Z" fill="#B7D0E5"/>
<path d="M105.453 647.642L66.9989 638.396L48.9297 713.544L87.3837 722.79L105.453 647.642Z" fill="#7996C9"/>
<path d="M70.76 580.35L112.44 590.38L118.47 581.68L76.79 571.66L70.76 580.35Z" fill="white"/>
<path d="M106.3 613.56L68 604.35L69.65 618.35C69.65 618.35 76.97 622.35 80.65 623.11C84.33 623.87 107 629.41 107 629.41L106.3 613.56Z" fill="#7996C9"/>
<path d="M125.7 573.9L88.22 564.9C86.4849 564.489 84.9838 563.406 84.0463 561.889C83.1089 560.373 82.8117 558.546 83.22 556.81L101.04 482.74C101.245 481.883 101.618 481.076 102.136 480.363C102.654 479.65 103.307 479.047 104.058 478.587C104.81 478.127 105.645 477.82 106.515 477.684C107.385 477.547 108.274 477.583 109.13 477.79L146.6 486.79C148.335 487.201 149.836 488.284 150.774 489.801C151.711 491.317 152.008 493.144 151.6 494.88L133.78 568.95C133.363 570.677 132.278 572.167 130.763 573.095C129.248 574.023 127.428 574.312 125.7 573.9V573.9ZM108 482.84C107.807 482.793 107.606 482.784 107.41 482.815C107.213 482.845 107.025 482.915 106.856 483.019C106.686 483.123 106.539 483.26 106.423 483.422C106.307 483.583 106.225 483.766 106.18 483.96L88.32 558.01C88.2724 558.204 88.2637 558.405 88.2943 558.602C88.3249 558.799 88.3943 558.988 88.4985 559.158C88.6026 559.329 88.7394 559.477 88.901 559.593C89.0626 559.71 89.2458 559.794 89.44 559.84L126.92 568.84C127.113 568.886 127.313 568.894 127.509 568.862C127.705 568.831 127.893 568.761 128.062 568.657C128.231 568.553 128.378 568.417 128.494 568.256C128.611 568.095 128.694 567.913 128.74 567.72L146.56 493.66C146.651 493.269 146.584 492.858 146.375 492.516C146.165 492.173 145.829 491.927 145.44 491.83L108 482.84Z" fill="#4F457C"/>
<path d="M111.08 633.51L112.29 628.51C115.1 629.19 121.48 621.37 124.68 608.05C127.88 594.73 125.76 584.84 123 584.14L124.22 579.14C132.22 581.05 133.04 595.74 129.78 609.26C126.52 622.78 119 635.43 111.08 633.51Z" fill="#4F457C"/>
<path d="M126.655 610.831C129.209 600.209 128.245 590.869 124.502 589.969C120.759 589.069 115.655 596.95 113.101 607.572C110.547 618.193 111.511 627.533 115.254 628.433C118.996 629.333 124.101 621.452 126.655 610.831Z" fill="#B7D0E5"/>
<path d="M111.08 633.51C103.08 631.6 102.26 616.91 105.51 603.39C108.76 589.87 116.22 577.17 124.17 579.09L122.95 584.09C120.14 583.41 113.77 591.23 110.56 604.55C107.35 617.87 109.48 627.74 112.29 628.41L111.08 633.51Z" fill="#4F457C"/>
<path d="M85.1101 592.9C86.4299 588.72 88.3463 584.752 90.8001 581.12L82.3601 579.12C79.9159 582.735 78.0031 586.682 76.6801 590.84L85.1101 592.9Z" fill="#4F457C"/>
<path d="M72.5399 581.7L62.5399 573.29C62.5399 573.29 56.5999 574.8 53.2299 582.95C49.8599 591.1 49.9499 597.01 49.9499 597.01L66.4199 601.01L72.5399 581.7Z" fill="#B7D0E5"/>
<path d="M96.16 595.56C97.4777 591.379 99.3943 587.411 101.85 583.78L96.9999 582.62C94.5537 586.259 92.6409 590.229 91.3199 594.41L96.16 595.56Z" fill="#4F457C"/>
<path d="M66.46 598.23L50.16 595.23C50.16 595.23 49.35 596.58 49.71 602.54C50.07 608.5 52.65 614.43 56.61 614.36C60.57 614.29 64.81 612.24 65.61 609.23C66.41 606.22 66.46 598.23 66.46 598.23Z" fill="#7996C9"/>
<path d="M70.6101 583.41L57.4301 576.01L66.9601 571.36L72.8201 579.05L70.6101 583.41Z" fill="white"/>
<path d="M111.08 633.51L70.9999 623.84C62.9999 621.93 62.1799 607.23 65.4399 593.71C68.6999 580.19 76.1399 567.5 84.0999 569.41L124.16 579.05C132.16 580.96 132.98 595.65 129.72 609.17C126.46 622.69 119 635.43 111.08 633.51ZM82.8899 574.51C80.0799 573.84 73.6999 581.65 70.4999 594.98C67.2999 608.31 69.4199 618.15 72.2299 618.84L112.29 628.47C115.1 629.15 121.48 621.33 124.68 608.01C127.88 594.69 125.76 584.84 123 584.14L82.8899 574.51Z" fill="#4F457C"/>
<path d="M118.79 617.16C115.3 616.32 113.54 611.16 114.87 605.64C116.2 600.12 120.11 596.32 123.6 597.16L128.02 598.22C126.752 601.42 125.686 604.696 124.83 608.03C123.69 612.8 123.63 614.35 122.93 618.15L118.79 617.16Z" fill="#4F457C"/>
<path d="M81.67 603.38L76.67 602.18C74.87 601.75 73.1 603.28 72.67 605.6C72.24 607.92 73.44 610.15 75.24 610.6L80.24 611.79C82.04 612.23 83.81 610.7 84.24 608.37C84.67 606.04 83.47 603.84 81.67 603.38Z" fill="#4F457C"/>
<path d="M94.7349 610.232C94.854 607.904 93.5332 605.945 91.7848 605.855C90.0363 605.766 88.5223 607.58 88.4032 609.908C88.2841 612.235 89.6049 614.195 91.3533 614.284C93.1018 614.374 94.6158 612.559 94.7349 610.232Z" fill="#4F457C"/>
<path d="M56 616.91C48.38 615.07 45 603.08 48.19 589.6C51.38 576.12 60 567 67.57 568.84C69.82 569.38 74.93 575.07 76.39 577.52L71.92 580.18C70.2868 577.801 68.3238 575.667 66.09 573.84C62.04 573.22 55.88 579.84 53.25 590.84C50.62 601.84 53.07 610.52 56.96 611.84C59.7693 611.228 62.4767 610.218 65 608.84L67.76 613.24C65.39 614.71 58.25 617.45 56 616.91Z" fill="#4F457C"/>
<path d="M125.409 484.307L105.677 566.368L109.469 567.28L129.201 485.219L125.409 484.307Z" fill="#4F457C"/>
<path d="M100.096 497.911L99.1844 501.703L144.658 512.637L145.57 508.846L100.096 497.911Z" fill="#4F457C"/>
<path d="M95.1626 518.432L94.2509 522.224L139.725 533.158L140.637 529.366L95.1626 518.432Z" fill="#4F457C"/>
<path d="M90.2317 538.94L89.3199 542.732L134.794 553.666L135.706 549.874L90.2317 538.94Z" fill="#4F457C"/>
<path d="M88.93 726.76L51.46 717.76C49.7249 717.349 48.2238 716.266 47.2863 714.749C46.3488 713.233 46.0517 711.406 46.46 709.67L64.28 635.6C64.4799 634.739 64.8482 633.926 65.3638 633.208C65.8794 632.489 66.532 631.88 67.284 631.416C68.036 630.951 68.8726 630.64 69.7455 630.5C70.6184 630.36 71.5104 630.394 72.37 630.6L109.85 639.6C110.71 639.802 111.521 640.172 112.238 640.688C112.955 641.205 113.563 641.857 114.027 642.608C114.492 643.36 114.803 644.195 114.944 645.067C115.086 645.939 115.054 646.83 114.85 647.69L97 721.84C96.5759 723.559 95.4898 725.04 93.9782 725.962C92.4667 726.884 90.6521 727.17 88.93 726.76V726.76ZM71.19 635.69C70.9949 635.644 70.7927 635.638 70.5951 635.671C70.3975 635.704 70.2085 635.777 70.0391 635.884C69.8697 635.991 69.7233 636.13 69.6084 636.295C69.4935 636.459 69.4125 636.644 69.37 636.84L51.56 710.84C51.4663 711.23 51.5304 711.641 51.7383 711.984C51.9462 712.326 52.2811 712.573 52.67 712.67L90.15 721.67C90.3424 721.721 90.543 721.734 90.7403 721.707C90.9376 721.681 91.1277 721.615 91.2997 721.515C91.4716 721.415 91.622 721.281 91.7422 721.122C91.8624 720.964 91.95 720.783 92 720.59L109.82 646.53C109.911 646.139 109.844 645.728 109.635 645.386C109.425 645.043 109.089 644.797 108.7 644.7L71.19 635.69Z" fill="#4F457C"/>
<path d="M88.6464 637.155L68.9149 719.216L72.7069 720.127L92.4383 638.066L88.6464 637.155Z" fill="#4F457C"/>
<path d="M63.3339 650.759L62.4221 654.551L107.896 665.485L108.808 661.693L63.3339 650.759Z" fill="#4F457C"/>
<path d="M58.4004 671.279L57.4886 675.071L102.963 686.005L103.874 682.213L58.4004 671.279Z" fill="#4F457C"/>
<path d="M53.4695 691.787L52.5577 695.579L98.0317 706.513L98.9434 702.722L53.4695 691.787Z" fill="#4F457C"/>
<path d="M102.769 567.352L100.889 575.169L109.728 577.294L111.607 569.477L102.769 567.352Z" fill="#4F457C"/>
<path d="M88.4043 627.077L86.5247 634.895L95.3628 637.02L97.2424 629.202L88.4043 627.077Z" fill="#4F457C"/>
<path d="M167.72 574.07C149.8 569.76 130.77 585.01 125.2 608.07C119.63 631.13 129.66 653.43 147.58 657.74C155.82 659.74 167.01 642.58 172.58 619.47C178.15 596.36 176 576.05 167.72 574.07Z" fill="#B7D0E5"/>
<path d="M127.38 607.84C131.46 594.91 143.48 588.6 151.38 586.18L159.98 573.35C159.98 573.35 132.07 578.19 127.38 607.84Z" fill="white"/>
<path d="M127 609.33C124.76 622.7 132.59 633.79 138.54 639.54L140.39 654.84C140.39 654.84 117.71 637.9 127 609.33Z" fill="#7996C9"/>
<path d="M147 660.31C135.67 657.59 135.06 633.25 140.23 611.73C145.4 590.21 157 568.84 168.33 571.54L167.11 576.6C161.93 575.35 151.11 588.6 145.26 612.95C139.41 637.3 143.01 654.02 148.19 655.26L147 660.31Z" fill="#4F457C"/>
<path d="M164.597 623.453C169.133 604.588 167.347 587.983 160.607 586.362C153.868 584.742 144.728 598.72 140.192 617.585C135.657 636.449 137.443 653.055 144.182 654.675C150.921 656.295 160.061 642.317 164.597 623.453Z" fill="#4F457C"/>
<path d="M147 660.31C127.72 655.67 116.82 631.99 122.71 607.52C128.6 583.05 149.07 566.91 168.36 571.52C179.69 574.25 180.3 598.59 175.13 620.1C169.96 641.61 158.31 663.04 147 660.31ZM167.14 576.6C150.64 572.6 132.98 587.04 127.76 608.73C122.54 630.42 131.76 651.29 148.22 655.26C153.39 656.51 164.22 643.26 170.07 618.91C175.92 594.56 172.29 577.84 167.11 576.6H167.14Z" fill="#4F457C"/>
<path d="M174.078 575.957L169.682 578.735L201.013 628.315L205.409 625.537L174.078 575.957Z" fill="#4F457C"/>
<path d="M201.884 624.701L151.422 654.591L154.072 659.065L204.534 629.175L201.884 624.701Z" fill="#4F457C"/>
<path d="M145.865 610.364L144.649 615.42L204.406 629.788L205.621 624.732L145.865 610.364Z" fill="#4F457C"/>
<path d="M208.21 637.13C213.203 637.13 217.25 633.083 217.25 628.09C217.25 623.097 213.203 619.05 208.21 619.05C203.217 619.05 199.17 623.097 199.17 628.09C199.17 633.083 203.217 637.13 208.21 637.13Z" fill="#7996C9"/>
<path d="M266.21 681.19C250.72 677.47 242.21 657.88 247.08 637.44C251.95 617 268.53 603.44 284.01 607.17L294.26 609.63L276.45 683.63L266.21 681.19Z" fill="#C6A35D"/>
<path d="M312.578 653.132C317.493 632.689 308.928 613.099 293.447 609.377C277.966 605.654 261.431 619.209 256.516 639.652C251.6 660.094 260.165 679.684 275.647 683.407C291.128 687.129 307.662 673.574 312.578 653.132Z" fill="#F2CE7E"/>
<path d="M307.425 651.892C311.653 634.306 304.838 617.587 292.203 614.549C279.568 611.511 265.897 623.304 261.669 640.891C257.44 658.477 264.255 675.196 276.89 678.234C289.525 681.272 303.196 669.479 307.425 651.892Z" fill="#C6A35D"/>
<path d="M296.84 616.55C304.73 623.16 308.24 636.91 304.78 651.32C301.32 665.73 291.93 676.38 281.9 678.67C292.96 678.07 303.76 667.23 307.43 651.95C311.1 636.67 306.42 622.11 296.84 616.55Z" fill="#9B7B43"/>
<path d="M264.52 663.05L291 669.41C291.55 669.54 292.15 669.01 292.33 668.23L293.16 664.8C293.35 664.02 293.05 663.28 292.5 663.15L266 656.84C265.45 656.71 264.85 657.23 264.67 658.02L263.84 661.44C263.67 662.18 264 662.92 264.52 663.05Z" fill="#9B7B43"/>
<path d="M292.79 627.66L285.45 634.13L281.86 625.03C281.792 624.825 281.676 624.64 281.521 624.49C281.366 624.34 281.177 624.231 280.97 624.17L274.26 622.56C273.71 622.42 273.11 622.95 272.92 623.74L266.19 651.74C266 652.52 266.3 653.27 266.85 653.4L269.25 653.98C269.8 654.11 270.4 653.58 270.59 652.8L276.15 629.67L278.25 630.17L283.32 643.02L285.84 643.63L293.68 633.88L295.78 634.39L290.22 657.52C290.03 658.3 290.32 659.05 290.87 659.18L293.28 659.76C293.83 659.89 294.42 659.36 294.61 658.58L301.34 630.58C301.53 629.8 301.24 629.06 300.69 628.92L294 627.3C293.784 627.257 293.561 627.267 293.35 627.33C293.139 627.393 292.947 627.506 292.79 627.66V627.66Z" fill="#9B7B43"/>
<path d="M292.55 638.55L282.19 647.69L279.63 635.45L277.12 634.84L274.99 643.7L280.06 656.55L282.57 657.15L290.42 647.41L295.07 639.16L292.55 638.55Z" fill="#9B7B43"/>
<path d="M267 663.66L293.43 670.01C293.98 670.15 294.58 669.62 294.77 668.83L295.59 665.41C295.78 664.63 295.49 663.88 294.94 663.75L268.51 657.39C267.96 657.26 267.36 657.79 267.17 658.57L266.35 662C266.19 662.78 266.48 663.52 267 663.66Z" fill="#F2CE7E"/>
<path d="M295.31 628.27L288 634.74L284.4 625.64C284.334 625.436 284.22 625.251 284.066 625.101C283.913 624.951 283.725 624.841 283.52 624.78L276.8 623.16C276.25 623.03 275.65 623.56 275.46 624.34L268.74 652.34C268.55 653.13 268.84 653.87 269.39 654L271.79 654.58C272.34 654.71 272.94 654.19 273.13 653.4L278.69 630.27L280.79 630.78L285.87 643.63L296.23 634.49L298.33 634.99L292.76 658.12C292.57 658.91 292.87 659.65 293.42 659.78L295.82 660.36C296.37 660.49 296.97 659.96 297.16 659.18L303.89 631.18C304.07 630.39 303.78 629.65 303.23 629.52L296.52 627.9C296.303 627.855 296.079 627.866 295.868 627.931C295.656 627.995 295.464 628.112 295.31 628.27Z" fill="#F2CE7E"/>
<path d="M295.07 639.16L284.71 648.3L279.63 635.45L277.5 644.3L282.57 657.15L292.94 648.01L295.07 639.16Z" fill="#F2CE7E"/>
<path d="M270.08 734.17C269.735 734.17 269.405 734.033 269.161 733.789C268.917 733.545 268.78 733.215 268.78 732.87V726.6C268.78 726.255 268.917 725.925 269.161 725.681C269.405 725.437 269.735 725.3 270.08 725.3C270.425 725.3 270.755 725.437 270.999 725.681C271.243 725.925 271.38 726.255 271.38 726.6V732.84C271.384 733.013 271.353 733.186 271.29 733.347C271.226 733.508 271.131 733.655 271.01 733.779C270.889 733.903 270.744 734.001 270.585 734.068C270.425 734.135 270.253 734.17 270.08 734.17Z" fill="#88D1C3"/>
<path d="M279.7 737.52H273.43C273.085 737.52 272.754 737.383 272.511 737.139C272.267 736.895 272.13 736.565 272.13 736.22C272.13 735.875 272.267 735.545 272.511 735.301C272.754 735.057 273.085 734.92 273.43 734.92H279.7C280.045 734.92 280.375 735.057 280.619 735.301C280.863 735.545 281 735.875 281 736.22C281 736.565 280.863 736.895 280.619 737.139C280.375 737.383 280.045 737.52 279.7 737.52Z" fill="#88D1C3"/>
<path d="M270.08 747.13C269.735 747.13 269.405 746.993 269.161 746.749C268.917 746.505 268.78 746.175 268.78 745.83V739.57C268.78 739.225 268.917 738.895 269.161 738.651C269.405 738.407 269.735 738.27 270.08 738.27C270.425 738.27 270.755 738.407 270.999 738.651C271.243 738.895 271.38 739.225 271.38 739.57V745.84C271.377 746.183 271.239 746.511 270.996 746.753C270.752 746.994 270.423 747.13 270.08 747.13Z" fill="#88D1C3"/>
<path d="M266.73 737.52H260.47C260.125 737.52 259.794 737.383 259.551 737.139C259.307 736.895 259.17 736.565 259.17 736.22C259.17 735.875 259.307 735.545 259.551 735.301C259.794 735.057 260.125 734.92 260.47 734.92H266.73C267.075 734.92 267.405 735.057 267.649 735.301C267.893 735.545 268.03 735.875 268.03 736.22C268.03 736.565 267.893 736.895 267.649 737.139C267.405 737.383 267.075 737.52 266.73 737.52Z" fill="#88D1C3"/>
<path d="M50.63 508.37C50.2852 508.37 49.9545 508.233 49.7107 507.989C49.4669 507.745 49.33 507.415 49.33 507.07V503.48C49.33 503.135 49.4669 502.805 49.7107 502.561C49.9545 502.317 50.2852 502.18 50.63 502.18C50.9747 502.18 51.3054 502.317 51.5492 502.561C51.793 502.805 51.93 503.135 51.93 503.48V507.07C51.93 507.415 51.793 507.745 51.5492 507.989C51.3054 508.233 50.9747 508.37 50.63 508.37V508.37Z" fill="#88D1C3"/>
<path d="M58.13 512.28H54.54C54.1952 512.28 53.8645 512.143 53.6208 511.899C53.377 511.655 53.24 511.325 53.24 510.98C53.24 510.635 53.377 510.305 53.6208 510.061C53.8645 509.817 54.1952 509.68 54.54 509.68H58.13C58.4748 509.68 58.8054 509.817 59.0492 510.061C59.293 510.305 59.43 510.635 59.43 510.98C59.43 511.325 59.293 511.655 59.0492 511.899C58.8054 512.143 58.4748 512.28 58.13 512.28V512.28Z" fill="#88D1C3"/>
<path d="M50.63 519.78C50.2852 519.78 49.9545 519.643 49.7107 519.399C49.4669 519.155 49.33 518.825 49.33 518.48V514.89C49.33 514.545 49.4669 514.215 49.7107 513.971C49.9545 513.727 50.2852 513.59 50.63 513.59C50.9747 513.59 51.3054 513.727 51.5492 513.971C51.793 514.215 51.93 514.545 51.93 514.89V518.48C51.93 518.825 51.793 519.155 51.5492 519.399C51.3054 519.643 50.9747 519.78 50.63 519.78V519.78Z" fill="#88D1C3"/>
<path d="M46.72 512.28H43.13C42.7852 512.28 42.4545 512.143 42.2107 511.899C41.9669 511.655 41.83 511.325 41.83 510.98C41.83 510.635 41.9669 510.305 42.2107 510.061C42.4545 509.817 42.7852 509.68 43.13 509.68H46.72C47.0647 509.68 47.3954 509.817 47.6392 510.061C47.883 510.305 48.02 510.635 48.02 510.98C48.02 511.325 47.883 511.655 47.6392 511.899C47.3954 512.143 47.0647 512.28 46.72 512.28V512.28Z" fill="#88D1C3"/>
<path d="M387.37 549.63C387.025 549.63 386.695 549.493 386.451 549.249C386.207 549.005 386.07 548.675 386.07 548.33V544.74C386.07 544.395 386.207 544.065 386.451 543.821C386.695 543.577 387.025 543.44 387.37 543.44C387.715 543.44 388.046 543.577 388.289 543.821C388.533 544.065 388.67 544.395 388.67 544.74V548.33C388.67 548.675 388.533 549.005 388.289 549.249C388.046 549.493 387.715 549.63 387.37 549.63Z" fill="#88D1C3"/>
<path d="M394.87 553.54H391.28C390.935 553.54 390.605 553.403 390.361 553.159C390.117 552.915 389.98 552.585 389.98 552.24C389.98 551.895 390.117 551.565 390.361 551.321C390.605 551.077 390.935 550.94 391.28 550.94H394.87C395.215 550.94 395.545 551.077 395.789 551.321C396.033 551.565 396.17 551.895 396.17 552.24C396.17 552.585 396.033 552.915 395.789 553.159C395.545 553.403 395.215 553.54 394.87 553.54V553.54Z" fill="#88D1C3"/>
<path d="M387.37 561.04C387.025 561.04 386.695 560.903 386.451 560.659C386.207 560.415 386.07 560.085 386.07 559.74V556.15C386.07 555.805 386.207 555.475 386.451 555.231C386.695 554.987 387.025 554.85 387.37 554.85C387.715 554.85 388.046 554.987 388.289 555.231C388.533 555.475 388.67 555.805 388.67 556.15V559.74C388.67 560.085 388.533 560.415 388.289 560.659C388.046 560.903 387.715 561.04 387.37 561.04Z" fill="#88D1C3"/>
<path d="M383.46 553.54H379.87C379.525 553.54 379.195 553.403 378.951 553.159C378.707 552.915 378.57 552.585 378.57 552.24C378.57 551.895 378.707 551.565 378.951 551.321C379.195 551.077 379.525 550.94 379.87 550.94H383.46C383.805 550.94 384.136 551.077 384.379 551.321C384.623 551.565 384.76 551.895 384.76 552.24C384.76 552.585 384.623 552.915 384.379 553.159C384.136 553.403 383.805 553.54 383.46 553.54V553.54Z" fill="#88D1C3"/>
<path d="M368.47 610.48C369.906 610.48 371.07 609.316 371.07 607.88C371.07 606.444 369.906 605.28 368.47 605.28C367.034 605.28 365.87 606.444 365.87 607.88C365.87 609.316 367.034 610.48 368.47 610.48Z" fill="#88D1C3"/>
<path d="M203.01 556.2C204.479 556.2 205.67 555.009 205.67 553.54C205.67 552.071 204.479 550.88 203.01 550.88C201.541 550.88 200.35 552.071 200.35 553.54C200.35 555.009 201.541 556.2 203.01 556.2Z" fill="#88D1C3"/>
<path d="M245.28 589.85C246.782 589.85 248 588.632 248 587.13C248 585.628 246.782 584.41 245.28 584.41C243.778 584.41 242.56 585.628 242.56 587.13C242.56 588.632 243.778 589.85 245.28 589.85Z" fill="#88D1C3"/>
<path d="M205.62 680.64C206.691 680.64 207.56 679.771 207.56 678.7C207.56 677.629 206.691 676.76 205.62 676.76C204.549 676.76 203.68 677.629 203.68 678.7C203.68 679.771 204.549 680.64 205.62 680.64Z" fill="#88D1C3"/>
<path d="M335.04 733.37C337.139 733.37 338.84 731.669 338.84 729.57C338.84 727.471 337.139 725.77 335.04 725.77C332.941 725.77 331.24 727.471 331.24 729.57C331.24 731.669 332.941 733.37 335.04 733.37Z" fill="#88D1C3"/>
<path d="M392.46 755.75C393.598 755.75 394.52 754.828 394.52 753.69C394.52 752.552 393.598 751.63 392.46 751.63C391.322 751.63 390.4 752.552 390.4 753.69C390.4 754.828 391.322 755.75 392.46 755.75Z" fill="#88D1C3"/>
<path d="M230.34 789.07C231.77 789.07 232.93 787.91 232.93 786.48C232.93 785.05 231.77 783.89 230.34 783.89C228.91 783.89 227.75 785.05 227.75 786.48C227.75 787.91 228.91 789.07 230.34 789.07Z" fill="#88D1C3"/>
<path d="M156.79 723.13C158.419 723.13 159.74 721.809 159.74 720.18C159.74 718.551 158.419 717.23 156.79 717.23C155.161 717.23 153.84 718.551 153.84 720.18C153.84 721.809 155.161 723.13 156.79 723.13Z" fill="#88D1C3"/>
<path d="M316.04 546.97C317.99 546.97 319.57 545.39 319.57 543.44C319.57 541.49 317.99 539.91 316.04 539.91C314.09 539.91 312.51 541.49 312.51 543.44C312.51 545.39 314.09 546.97 316.04 546.97Z" fill="#88D1C3"/>
<path d="M200.35 750.92C202.653 750.92 204.52 749.053 204.52 746.75C204.52 744.447 202.653 742.58 200.35 742.58C198.047 742.58 196.18 744.447 196.18 746.75C196.18 749.053 198.047 750.92 200.35 750.92Z" fill="#88D1C3"/>
<path d="M450.49 601.72C451.992 601.72 453.21 600.502 453.21 599C453.21 597.498 451.992 596.28 450.49 596.28C448.988 596.28 447.77 597.498 447.77 599C447.77 600.502 448.988 601.72 450.49 601.72Z" fill="#88D1C3"/>
<path d="M351.13 670.23C355.123 670.23 358.36 666.993 358.36 663C358.36 659.007 355.123 655.77 351.13 655.77C347.137 655.77 343.9 659.007 343.9 663C343.9 666.993 347.137 670.23 351.13 670.23Z" fill="#F2CE7E"/>
<path d="M530.65 647.32L519.8 656.17C519.308 656.572 518.912 657.079 518.64 657.653C518.368 658.227 518.227 658.855 518.227 659.49C518.227 660.125 518.368 660.753 518.64 661.327C518.912 661.901 519.308 662.408 519.8 662.81L530.65 671.66C531.278 672.176 532.039 672.504 532.845 672.603C533.652 672.703 534.47 672.571 535.204 672.223C535.938 671.874 536.558 671.324 536.992 670.637C537.425 669.949 537.653 669.153 537.65 668.34V650.64C537.653 649.827 537.425 649.031 536.992 648.343C536.558 647.656 535.938 647.106 535.204 646.757C534.47 646.409 533.652 646.277 532.845 646.377C532.039 646.476 531.278 646.804 530.65 647.32V647.32Z" fill="#4F457C"/>
<path d="M776.23 659.49H548.2" stroke="#4F457C" stroke-width="5" stroke-miterlimit="10" stroke-linecap="round"/>
<path d="M209.1 478.04C210.768 478.04 212.12 476.688 212.12 475.02C212.12 473.352 210.768 472 209.1 472C207.432 472 206.08 473.352 206.08 475.02C206.08 476.688 207.432 478.04 209.1 478.04Z" fill="#88D1C3"/>
<path d="M965.61 511.5C967.212 511.5 968.51 510.202 968.51 508.6C968.51 506.998 967.212 505.7 965.61 505.7C964.008 505.7 962.71 506.998 962.71 508.6C962.71 510.202 964.008 511.5 965.61 511.5Z" fill="#88D1C3"/>
<defs>
<linearGradient id="paint0_linear_1591_6368" x1="-40943.9" y1="113924" x2="-36484.7" y2="114996" gradientUnits="userSpaceOnUse">
<stop stop-color="white" stop-opacity="0.5"/>
<stop offset="0.14" stop-color="white" stop-opacity="0.48"/>
<stop offset="0.34" stop-color="white" stop-opacity="0.41"/>
<stop offset="0.56" stop-color="white" stop-opacity="0.3"/>
<stop offset="0.81" stop-color="white" stop-opacity="0.14"/>
<stop offset="1" stop-color="white" stop-opacity="0"/>
</linearGradient>
<linearGradient id="paint1_linear_1591_6368" x1="-249466" y1="64139.4" x2="-253915" y2="63084.5" gradientUnits="userSpaceOnUse">
<stop stop-color="white" stop-opacity="0.5"/>
<stop offset="0.14" stop-color="white" stop-opacity="0.48"/>
<stop offset="0.34" stop-color="white" stop-opacity="0.41"/>
<stop offset="0.56" stop-color="white" stop-opacity="0.3"/>
<stop offset="0.81" stop-color="white" stop-opacity="0.14"/>
<stop offset="1" stop-color="white" stop-opacity="0"/>
</linearGradient>
</defs>
</svg>
