<svg width="1300" height="854" viewBox="0 0 1300 854" fill="none" xmlns="http://www.w3.org/2000/svg">
<path d="M764.55 107.26C764.205 107.26 763.875 107.123 763.631 106.879C763.387 106.635 763.25 106.305 763.25 105.96V101.52C763.25 101.175 763.387 100.845 763.631 100.601C763.875 100.357 764.205 100.22 764.55 100.22C764.895 100.22 765.225 100.357 765.469 100.601C765.713 100.845 765.85 101.175 765.85 101.52V106C765.84 106.338 765.698 106.658 765.455 106.893C765.213 107.129 764.888 107.26 764.55 107.26Z" fill="#88D1C3"/>
<path d="M774.16 112.44H769.73C769.385 112.44 769.055 112.303 768.811 112.059C768.567 111.815 768.43 111.485 768.43 111.14C768.43 110.795 768.567 110.465 768.811 110.221C769.055 109.977 769.385 109.84 769.73 109.84H774.16C774.331 109.84 774.5 109.874 774.657 109.939C774.815 110.004 774.959 110.1 775.079 110.221C775.2 110.341 775.296 110.485 775.361 110.643C775.426 110.8 775.46 110.969 775.46 111.14C775.46 111.311 775.426 111.48 775.361 111.637C775.296 111.795 775.2 111.939 775.079 112.059C774.959 112.18 774.815 112.276 774.657 112.341C774.5 112.406 774.331 112.44 774.16 112.44V112.44Z" fill="#88D1C3"/>
<path d="M764.55 122.05C764.205 122.05 763.875 121.913 763.631 121.669C763.387 121.425 763.25 121.095 763.25 120.75V116.31C763.25 115.965 763.387 115.635 763.631 115.391C763.875 115.147 764.205 115.01 764.55 115.01C764.895 115.01 765.225 115.147 765.469 115.391C765.713 115.635 765.85 115.965 765.85 116.31V120.75C765.85 121.095 765.713 121.425 765.469 121.669C765.225 121.913 764.895 122.05 764.55 122.05Z" fill="#88D1C3"/>
<path d="M759.37 112.44H754.94C754.595 112.44 754.265 112.303 754.021 112.059C753.777 111.815 753.64 111.485 753.64 111.14C753.64 110.795 753.777 110.465 754.021 110.221C754.265 109.977 754.595 109.84 754.94 109.84H759.37C759.715 109.84 760.045 109.977 760.289 110.221C760.533 110.465 760.67 110.795 760.67 111.14C760.67 111.485 760.533 111.815 760.289 112.059C760.045 112.303 759.715 112.44 759.37 112.44V112.44Z" fill="#88D1C3"/>
<path d="M623.59 209.54C623.245 209.54 622.915 209.403 622.671 209.159C622.427 208.915 622.29 208.585 622.29 208.24V204.66C622.29 204.315 622.427 203.985 622.671 203.741C622.915 203.497 623.245 203.36 623.59 203.36C623.935 203.36 624.265 203.497 624.509 203.741C624.753 203.985 624.89 204.315 624.89 204.66V208.24C624.89 208.411 624.856 208.58 624.791 208.737C624.726 208.895 624.63 209.039 624.509 209.159C624.389 209.28 624.245 209.376 624.087 209.441C623.93 209.506 623.761 209.54 623.59 209.54V209.54Z" fill="#88D1C3"/>
<path d="M631.09 213.46H627.5C627.155 213.46 626.825 213.323 626.581 213.079C626.337 212.835 626.2 212.505 626.2 212.16C626.2 211.815 626.337 211.485 626.581 211.241C626.825 210.997 627.155 210.86 627.5 210.86H631.09C631.435 210.86 631.765 210.997 632.009 211.241C632.253 211.485 632.39 211.815 632.39 212.16C632.39 212.505 632.253 212.835 632.009 213.079C631.765 213.323 631.435 213.46 631.09 213.46V213.46Z" fill="#88D1C3"/>
<path d="M623.59 221C623.245 221 622.915 220.863 622.671 220.619C622.427 220.375 622.29 220.045 622.29 219.7V216.11C622.29 215.765 622.427 215.435 622.671 215.191C622.915 214.947 623.245 214.81 623.59 214.81C623.935 214.81 624.265 214.947 624.509 215.191C624.753 215.435 624.89 215.765 624.89 216.11V219.7C624.89 219.871 624.856 220.04 624.791 220.197C624.726 220.355 624.63 220.499 624.509 220.619C624.389 220.74 624.245 220.836 624.087 220.901C623.93 220.966 623.761 221 623.59 221V221Z" fill="#88D1C3"/>
<path d="M619.68 213.46H616.09C615.745 213.46 615.415 213.323 615.171 213.079C614.927 212.835 614.79 212.505 614.79 212.16C614.79 211.815 614.927 211.485 615.171 211.241C615.415 210.997 615.745 210.86 616.09 210.86H619.68C620.025 210.86 620.355 210.997 620.599 211.241C620.843 211.485 620.98 211.815 620.98 212.16C620.98 212.505 620.843 212.835 620.599 213.079C620.355 213.323 620.025 213.46 619.68 213.46V213.46Z" fill="#88D1C3"/>
<path d="M544.08 109.63C545.665 109.63 546.95 108.345 546.95 106.76C546.95 105.175 545.665 103.89 544.08 103.89C542.495 103.89 541.21 105.175 541.21 106.76C541.21 108.345 542.495 109.63 544.08 109.63Z" fill="#88D1C3"/>
<path d="M799.12 205.31C800.622 205.31 801.84 204.092 801.84 202.59C801.84 201.088 800.622 199.87 799.12 199.87C797.618 199.87 796.4 201.088 796.4 202.59C796.4 204.092 797.618 205.31 799.12 205.31Z" fill="#88D1C3"/>
<path d="M652.79 84.86C654.563 84.86 656 83.4228 656 81.65C656 79.8772 654.563 78.44 652.79 78.44C651.017 78.44 649.58 79.8772 649.58 81.65C649.58 83.4228 651.017 84.86 652.79 84.86Z" fill="#88D1C3"/>
<path d="M491.99 198.89C493.056 198.89 493.92 198.026 493.92 196.96C493.92 195.894 493.056 195.03 491.99 195.03C490.924 195.03 490.06 195.894 490.06 196.96C490.06 198.026 490.924 198.89 491.99 198.89Z" fill="#88D1C3"/>
<path d="M220 77.77C219.655 77.77 219.325 77.633 219.081 77.3892C218.837 77.1454 218.7 76.8148 218.7 76.47V69.29C218.728 68.9662 218.877 68.6648 219.117 68.4453C219.357 68.2257 219.67 68.1039 219.995 68.1039C220.32 68.1039 220.633 68.2257 220.873 68.4453C221.113 68.6648 221.262 68.9662 221.29 69.29V76.47C221.29 76.8131 221.154 77.1422 220.913 77.3857C220.671 77.6292 220.343 77.7674 220 77.77V77.77Z" fill="#88D1C3"/>
<path d="M229.63 83H225.19C224.845 83 224.515 82.863 224.271 82.6192C224.027 82.3754 223.89 82.0448 223.89 81.7C223.89 81.3552 224.027 81.0246 224.271 80.7808C224.515 80.537 224.845 80.4 225.19 80.4H229.63C229.801 80.4 229.97 80.4336 230.128 80.4989C230.285 80.5643 230.429 80.66 230.549 80.7808C230.67 80.9015 230.766 81.0448 230.831 81.2025C230.896 81.3602 230.93 81.5293 230.93 81.7C230.93 81.8707 230.896 82.0398 230.831 82.1975C230.766 82.3552 230.67 82.4985 230.549 82.6192C230.429 82.7399 230.285 82.8357 230.128 82.901C229.97 82.9664 229.801 83 229.63 83V83Z" fill="#88D1C3"/>
<path d="M220 95.3C219.655 95.3 219.325 95.163 219.081 94.9192C218.837 94.6754 218.7 94.3448 218.7 94V86.82C218.684 86.6404 218.706 86.4594 218.764 86.2887C218.822 86.1179 218.915 85.961 219.036 85.8281C219.158 85.6951 219.306 85.5889 219.471 85.5163C219.636 85.4436 219.815 85.4061 219.995 85.4061C220.175 85.4061 220.354 85.4436 220.519 85.5163C220.684 85.5889 220.832 85.6951 220.954 85.8281C221.075 85.961 221.168 86.1179 221.226 86.2887C221.284 86.4594 221.306 86.6404 221.29 86.82V94C221.29 94.3431 221.154 94.6722 220.913 94.9157C220.671 95.1592 220.343 95.2974 220 95.3V95.3Z" fill="#88D1C3"/>
<path d="M214.84 83H210.4C210.055 83 209.725 82.863 209.481 82.6192C209.237 82.3754 209.1 82.0448 209.1 81.7C209.1 81.3552 209.237 81.0246 209.481 80.7808C209.725 80.537 210.055 80.4 210.4 80.4H214.84C215.185 80.4 215.515 80.537 215.759 80.7808C216.003 81.0246 216.14 81.3552 216.14 81.7C216.14 82.0448 216.003 82.3754 215.759 82.6192C215.515 82.863 215.185 83 214.84 83V83Z" fill="#88D1C3"/>
<path d="M245.17 285.84C243.1 286.09 243.83 290.78 246.57 290.84C249.31 290.9 251.81 290.29 254.49 290.11C257.17 289.93 257.35 284.11 254.18 283.77C251.01 283.43 245.17 285.84 245.17 285.84Z" fill="#4F457C"/>
<path d="M312.28 288.65C310.15 287.49 302.9 283.71 300.16 280.12C305.03 275.86 304.67 267.7 298.76 266.36C296.57 269.22 297.48 271.36 300.71 272.14C300.52 276.28 295.71 279.88 289.99 279.94C284.27 280 273.55 278.54 273.99 271.29C275.69 273.54 281.72 273.85 282.88 269.89C282.88 269.89 276.06 268.19 273.8 266.36C274.754 266.186 275.644 265.76 276.377 265.124C277.109 264.489 277.658 263.668 277.964 262.748C278.271 261.828 278.325 260.843 278.12 259.895C277.915 258.947 277.459 258.071 276.8 257.36C273.87 261.98 270.89 263.81 266.57 263.51C262.25 263.21 258.1 258.76 258.83 254.92C253.72 258.33 257.19 264.48 257.98 265.09C257.98 265.09 251.65 268.5 249.33 270.02C247.01 271.54 247.63 276.9 251.65 278.43C254.458 279.433 257.349 280.186 260.29 280.68C261.098 282.8 261.248 285.114 260.72 287.32C259.81 290.85 254.72 296.02 253.35 297.85C252.46 299.07 255.35 302.9 256.58 302.36C257.81 301.82 268 294.61 268 294.61C268 294.61 277.31 299.85 293.33 297.41C293.33 297.41 299.72 303.14 301.49 304.41C303.26 305.68 307.64 303.13 306.36 301.67C305.08 300.21 302.22 296.67 302.22 296.67C302.22 296.67 303.22 293.57 302.34 291.25C302.34 291.25 307.64 293.08 309.71 293.75C311.78 294.42 314.41 289.8 312.28 288.65ZM263.87 275.86C263.243 275.862 262.629 275.678 262.106 275.331C261.584 274.984 261.176 274.489 260.934 273.91C260.693 273.331 260.628 272.693 260.75 272.078C260.871 271.462 261.172 270.896 261.615 270.452C262.058 270.008 262.623 269.705 263.238 269.582C263.853 269.459 264.491 269.521 265.071 269.76C265.651 270 266.146 270.406 266.495 270.928C266.844 271.449 267.03 272.063 267.03 272.69C267.03 273.529 266.697 274.334 266.105 274.928C265.513 275.522 264.709 275.857 263.87 275.86V275.86Z" fill="#4F457C"/>
<path d="M283.75 303.82C287.55 303.82 290.63 300.74 290.63 296.94C290.63 293.14 287.55 290.06 283.75 290.06C279.95 290.06 276.87 293.14 276.87 296.94C276.87 300.74 279.95 303.82 283.75 303.82Z" fill="#4F457C"/>
<path d="M281.526 300.647L281.517 300.643C280.787 300.301 279.917 300.615 279.575 301.345L278.309 304.043C277.967 304.773 278.281 305.642 279.011 305.985L279.02 305.989C279.75 306.331 280.619 306.017 280.962 305.287L282.227 302.589C282.57 301.859 282.256 300.99 281.526 300.647Z" fill="#4F457C"/>
<path d="M288.527 305.847L288.536 305.843C289.266 305.5 289.58 304.631 289.237 303.901L287.972 301.203C287.629 300.473 286.76 300.159 286.03 300.501L286.021 300.506C285.291 300.848 284.977 301.717 285.319 302.447L286.585 305.145C286.927 305.875 287.797 306.189 288.527 305.847Z" fill="#4F457C"/>
<path opacity="0.6" d="M263.05 155.25L212.18 338.16H368.07L263.05 155.25Z" fill="url(#paint0_linear_1591_4592)"/>
<path d="M280.86 242.28L279.46 246.28C278.21 249.87 282.71 254.71 289.51 257.09C296.31 259.47 302.86 258.5 304.12 254.91L305.51 250.91L280.86 242.28Z" fill="#C6A35D"/>
<path d="M305.524 250.928C306.781 247.337 302.281 242.493 295.474 240.111C288.666 237.728 282.128 238.708 280.871 242.299C279.614 245.891 284.113 250.734 290.921 253.117C297.729 255.5 304.267 254.52 305.524 250.928Z" fill="#F2CE7E"/>
<path d="M263.05 231.23L266.24 233.99C269.11 236.49 275.24 234.09 280 228.64C284.76 223.19 286.23 216.76 283.36 214.27L280.17 211.5L263.05 231.23Z" fill="#C6A35D"/>
<path d="M276.806 225.843C281.534 220.395 283.036 213.957 280.162 211.463C277.288 208.969 271.126 211.364 266.399 216.812C261.671 222.259 260.169 228.697 263.043 231.191C265.917 233.685 272.079 231.291 276.806 225.843Z" fill="#F2CE7E"/>
<path d="M251.79 323.38C249.66 326.87 242.79 326.51 236.35 322.59C229.91 318.67 226.5 312.67 228.64 309.19L230.86 305.56L254 319.76L251.79 323.38Z" fill="#C6A35D"/>
<path d="M254.016 319.776C256.152 316.292 252.7 310.29 246.306 306.37C239.912 302.45 232.997 302.097 230.861 305.581C228.725 309.066 232.177 315.068 238.571 318.988C244.965 322.908 251.88 323.261 254.016 319.776Z" fill="#F2CE7E"/>
<path d="M314.33 318.18C310.88 315.98 311.33 309.08 315.38 302.75C319.43 296.42 325.47 293.08 328.92 295.27L332.5 297.56L317.91 320.46L314.33 318.18Z" fill="#F2CE7E"/>
<path d="M331.453 313.008C335.482 306.682 335.955 299.774 332.508 297.578C329.061 295.382 323 298.73 318.97 305.056C314.941 311.381 314.468 318.289 317.915 320.485C321.362 322.681 327.423 319.333 331.453 313.008Z" fill="#C6A35D"/>
<path d="M217.27 171.32L196.75 156.73C205.52 149.5 221.81 139.92 235.8 139.18" fill="#88D1C3"/>
<path d="M282.076 191.326C305.752 177.657 319.44 157.042 312.65 145.28C305.859 133.519 281.162 135.066 257.486 148.735C233.811 162.404 220.123 183.019 226.913 194.78C233.703 206.542 258.401 204.995 282.076 191.326Z" fill="#7996C9"/>
<path d="M191.85 191.62C186.17 194.9 180.08 204.15 178.52 210.54C184.83 212.38 195.89 211.73 201.52 208.45C203.691 207.131 205.26 205.014 205.89 202.553C206.52 200.092 206.161 197.482 204.89 195.282C203.62 193.082 201.538 191.467 199.092 190.782C196.645 190.098 194.028 190.399 191.8 191.62H191.85Z" fill="#FF8080"/>
<path d="M274.48 178.15C298.155 164.481 311.843 143.866 305.053 132.105C298.262 120.344 273.565 121.89 249.89 135.559C226.214 149.228 212.526 169.844 219.316 181.605C226.107 193.366 250.804 191.819 274.48 178.15Z" fill="white"/>
<path d="M266.431 174.845C287.572 162.639 300.593 145.615 295.515 136.819C290.436 128.023 269.182 130.787 248.041 142.993C226.901 155.198 213.88 172.223 218.958 181.019C224.036 189.815 245.291 187.05 266.431 174.845Z" fill="#88D1C3"/>
<path d="M299.06 157.52L305.87 169.31C305.87 169.31 308.97 166.87 310.06 164.66C311.15 162.45 315.91 153.78 312.38 147.48C308.85 141.18 307.38 139.24 306.38 142.82C305.38 146.4 299.06 157.52 299.06 157.52Z" fill="white"/>
<path d="M246.35 188.73C238.95 190 235.66 189.73 230.96 188.58C226.26 187.43 226.79 189.25 224.19 192.49C221.59 195.73 214.19 220.62 214.19 220.62C214.19 220.62 224.19 221.62 235.42 215.1C246.65 208.58 273.53 189.94 273.24 183.81C272.95 177.68 270.73 182.46 263.54 184.49C256.35 186.52 246.35 188.73 246.35 188.73Z" fill="#88D1C3"/>
<path d="M199.35 157.38C211.07 151.11 224.26 145.25 231.77 146.93C231.77 146.93 235.71 139.93 234.42 139.28C233.13 138.63 206 149.83 200.73 153.67C195.46 157.51 199.35 157.38 199.35 157.38Z" fill="white"/>
<path d="M229.26 169.33C222.986 170.951 216.894 173.209 211.08 176.07C206.56 178.42 204.75 179.32 205 181.46C205.25 183.6 210.57 196.21 213.16 197.66C215.75 199.11 219.76 197 221.16 193.58C222.56 190.16 222.57 188.38 226.98 183.24C231.39 178.1 239.23 168.76 229.26 169.33Z" fill="#88D1C3"/>
<path d="M206.41 184C214.036 179.465 222.298 176.094 230.92 174L228.12 179.33L208.26 190.8L206.41 184Z" fill="white"/>
<path d="M216.64 217.69C224.54 214.69 247.36 205.9 261.93 186.83C261.93 186.83 272.03 179.98 273.54 180.13C275.05 180.28 264.41 197.49 249.46 206.01C234.51 214.53 214.26 223.9 216.64 217.69Z" fill="white"/>
<path d="M284.41 140.51C292.29 154.16 242.86 182.7 234.98 169.05C231.277 162.5 230.311 154.753 232.291 147.494C234.271 140.235 239.038 134.051 245.554 130.289C252.07 126.527 259.809 125.49 267.085 127.404C274.362 129.318 280.589 134.028 284.41 140.51Z" fill="#88D1C3"/>
<path d="M316.548 132.03L306.831 137.64L309.246 141.823L318.963 136.213L316.548 132.03Z" fill="#4F457C"/>
<path d="M313.82 145L306.06 131.57C300.74 122.57 286.5 120.17 268.77 125.29C262.562 123.35 255.899 123.431 249.74 125.521C243.581 127.611 238.245 131.602 234.5 136.92C220.78 138.09 205.37 146.83 196.16 154.15C195.762 154.465 195.444 154.869 195.23 155.329C195.017 155.789 194.914 156.293 194.93 156.8C194.944 157.319 195.079 157.828 195.324 158.286C195.568 158.744 195.916 159.139 196.34 159.44L212.86 171.19C210.214 172.379 207.637 173.714 205.14 175.19C200.2 178.04 203.31 188.57 207.14 195.14C210 200.14 213.25 203.65 216.33 205.34L212.41 218.27C212.253 218.802 212.222 219.364 212.32 219.91C212.418 220.456 212.642 220.971 212.974 221.416C213.306 221.861 213.737 222.222 214.232 222.471C214.728 222.719 215.275 222.849 215.83 222.85C216.058 222.851 216.286 222.827 216.51 222.78C231.423 219.521 245.49 213.182 257.81 204.17V204.22C266.46 202.084 274.758 198.716 282.45 194.22C307.56 179.59 321.35 158 313.82 145ZM302 134.05C304.78 138.87 303.43 145.85 298.2 153.71C292.64 162.07 283.46 170.2 272.35 176.62C255.92 186.11 238.23 189.85 227.82 186.33L236.62 173.69C238.614 174.622 240.8 175.071 243 175C249.87 175 258.77 171.72 266.83 167.07C280.17 159.36 291.43 147.78 286.51 139.26C283.958 134.841 280.346 131.126 276 128.45C288.55 126 298.44 128 302 134.05ZM246.68 132.16C252.681 128.696 259.812 127.757 266.505 129.55C273.197 131.343 278.904 135.72 282.37 141.72C284.02 144.57 281.37 148.61 279.48 150.89C279.854 150.031 280.031 149.099 279.996 148.162C279.962 147.226 279.717 146.309 279.28 145.48C276.602 140.836 272.467 137.205 267.516 135.15C262.565 133.094 257.074 132.728 251.895 134.108C246.715 135.489 242.134 138.538 238.863 142.785C235.592 147.032 233.812 152.239 233.8 157.6C233.25 152.573 234.169 147.494 236.446 142.979C238.723 138.464 242.261 134.706 246.63 132.16H246.68ZM200.83 156.63C209.2 150.3 221 144 231.5 142.13C230.671 143.971 230.028 145.891 229.58 147.86C222.87 154.31 218.19 161.08 215.93 167.41L200.83 156.63ZM231.21 166.68L230.14 166.81C226.981 167.083 223.847 167.605 220.77 168.37C222.72 163.726 225.442 159.446 228.82 155.71C228.916 159.48 229.709 163.199 231.16 166.68H231.21ZM212 193.7C211.78 193.33 211.55 193.01 211.32 192.62C207.4 185.83 207.02 180.12 207.59 179.27C218.59 172.9 224.74 172.27 230.66 171.61C231.21 171.56 231.77 171.47 232.32 171.41L223.5 184C222.572 185.33 221.86 186.798 221.39 188.35L220.15 192.43L216.84 194.35C216.093 194.852 215.188 195.063 214.297 194.944C213.405 194.824 212.588 194.381 212 193.7V193.7ZM217.65 217.51L225.65 190.69C229.235 191.925 233.009 192.524 236.8 192.46C246.8 192.46 258.96 189.11 270.91 182.88C258.43 204.09 230.46 214.57 217.6 217.51H217.65ZM266.65 196.33C268.665 194.273 270.533 192.078 272.24 189.76L274.16 193.08C271.58 194.3 269.07 195.38 266.57 196.33H266.65ZM280.07 189.93C279.07 190.49 278.14 191.02 277.17 191.54L274.35 186.65C275.619 184.64 276.742 182.541 277.71 180.37L282.41 188.5C281.55 189 280.79 189.47 280 189.93H280.07ZM285.26 186.68L279.99 177.55C281.697 176.417 283.363 175.253 284.99 174.06L290.23 183.15C288.577 184.383 286.893 185.56 285.18 186.68H285.26ZM292.87 181.01L287.56 172C289.19 170.69 290.76 169.35 292.23 168L297.41 177C296 178.29 294.42 179.66 292.79 181L292.87 181.01ZM299.94 174.4L294.8 165.48C296.32 163.92 297.72 162.32 299.03 160.71L304.1 169.49C302.77 171.197 301.355 172.836 299.86 174.4H299.94ZM306.24 166.4L301.24 157.75C301.57 157.28 301.93 156.82 302.24 156.35C303.191 154.911 304.059 153.418 304.84 151.88L309.56 160.06C308.644 162.295 307.505 164.433 306.16 166.44L306.24 166.4ZM310.86 155.53L306.54 148.06C307.044 146.708 307.448 145.321 307.75 143.91L309.75 147.32C311.05 149.864 311.415 152.784 310.78 155.57L310.86 155.53Z" fill="#4F457C"/>
<path d="M271.61 251.63C271.265 251.63 270.935 251.493 270.691 251.249C270.447 251.005 270.31 250.675 270.31 250.33V239.26C270.31 238.915 270.447 238.585 270.691 238.341C270.935 238.097 271.265 237.96 271.61 237.96C271.955 237.96 272.285 238.097 272.529 238.341C272.773 238.585 272.91 238.915 272.91 239.26V250.33C272.91 250.675 272.773 251.005 272.529 251.249C272.285 251.493 271.955 251.63 271.61 251.63V251.63Z" fill="#7996C9"/>
<path d="M290.64 274C290.295 274 289.965 273.863 289.721 273.619C289.477 273.375 289.34 273.045 289.34 272.7V262.84C289.34 262.495 289.477 262.165 289.721 261.921C289.965 261.677 290.295 261.54 290.64 261.54C290.985 261.54 291.315 261.677 291.559 261.921C291.803 262.165 291.94 262.495 291.94 262.84V272.7C291.94 273.045 291.803 273.375 291.559 273.619C291.315 273.863 290.985 274 290.64 274V274Z" fill="#7996C9"/>
<path d="M323.54 336C323.369 336 323.2 335.966 323.043 335.901C322.885 335.836 322.741 335.74 322.621 335.619C322.5 335.499 322.404 335.355 322.339 335.197C322.274 335.04 322.24 334.871 322.24 334.7V325.7C322.24 325.355 322.377 325.025 322.621 324.781C322.865 324.537 323.195 324.4 323.54 324.4C323.885 324.4 324.215 324.537 324.459 324.781C324.703 325.025 324.84 325.355 324.84 325.7V334.7C324.84 335.045 324.703 335.375 324.459 335.619C324.215 335.863 323.885 336 323.54 336Z" fill="#7996C9"/>
<path d="M239.51 339.46C239.165 339.46 238.835 339.323 238.591 339.079C238.347 338.835 238.21 338.505 238.21 338.16V329.32C238.21 328.975 238.347 328.645 238.591 328.401C238.835 328.157 239.165 328.02 239.51 328.02C239.855 328.02 240.185 328.157 240.429 328.401C240.673 328.645 240.81 328.975 240.81 329.32V338.16C240.81 338.505 240.673 338.835 240.429 339.079C240.185 339.323 239.855 339.46 239.51 339.46V339.46Z" fill="#7996C9"/>
<path d="M270.88 318C270.535 318 270.205 317.863 269.961 317.619C269.717 317.375 269.58 317.045 269.58 316.7V304.7C269.58 304.355 269.717 304.025 269.961 303.781C270.205 303.537 270.535 303.4 270.88 303.4C271.225 303.4 271.555 303.537 271.799 303.781C272.043 304.025 272.18 304.355 272.18 304.7V316.7C272.18 317.045 272.043 317.375 271.799 317.619C271.555 317.863 271.225 318 270.88 318Z" fill="#7996C9"/>
<path d="M294 328.25C293.655 328.25 293.325 328.113 293.081 327.869C292.837 327.625 292.7 327.295 292.7 326.95V310.74C292.7 310.395 292.837 310.065 293.081 309.821C293.325 309.577 293.655 309.44 294 309.44C294.345 309.44 294.675 309.577 294.919 309.821C295.163 310.065 295.3 310.395 295.3 310.74V327C295.287 327.336 295.144 327.654 294.902 327.887C294.66 328.12 294.336 328.25 294 328.25V328.25Z" fill="#7996C9"/>
<path d="M410.12 229.8C408.51 226.58 400.97 217.8 400.97 217.8C397.71 218.35 395.53 215.11 388.44 219.52C388.44 219.52 380.57 218.31 377.1 217.45C375.96 222.54 379 225.64 383.28 225.3C387.56 224.96 386.43 228.67 384.18 228.67C379.18 228.67 366.18 228.76 361.52 228.76C356.86 228.76 353.97 232.29 353.97 236.76C353.97 241.23 353.72 258.32 353.97 261.11C354.15 263.11 358.69 263.31 359.06 261.6C359.71 258.55 361.59 250.82 361.59 250.82C361.59 250.82 362.84 257.67 363.41 260.93C363.78 263.03 368.19 262.64 368.19 261.33C368.19 258.46 368.41 251.86 368.41 251.86H385C385 251.86 386.16 260.26 386.28 262.7C386.4 265.14 391.52 264.88 391.82 262.7C392.23 259.78 392.97 248.09 394.1 240.79C394.55 237.88 396.37 236.86 397.99 236.91C400.6 236.97 400.47 237.03 404.18 236.91C407.89 236.79 411.13 231.82 410.12 229.8ZM396.39 229.3C395.883 229.61 395.296 229.763 394.702 229.74C394.109 229.716 393.536 229.516 393.056 229.166C392.575 228.816 392.21 228.332 392.006 227.774C391.801 227.216 391.767 226.61 391.908 226.033C392.048 225.455 392.357 224.933 392.795 224.531C393.232 224.13 393.78 223.867 394.367 223.777C394.954 223.687 395.555 223.773 396.093 224.024C396.631 224.276 397.083 224.682 397.39 225.19C397.8 225.868 397.925 226.681 397.738 227.451C397.55 228.221 397.066 228.886 396.39 229.3V229.3Z" fill="#4F457C"/>
<path d="M375.3 256.72C378.592 256.72 381.26 254.052 381.26 250.76C381.26 247.468 378.592 244.8 375.3 244.8C372.008 244.8 369.34 247.468 369.34 250.76C369.34 254.052 372.008 256.72 375.3 256.72Z" fill="#4F457C"/>
<path d="M397.15 263C396.55 260 395.85 247.74 395.64 246.18C395.36 244.07 396.8 242.81 398.8 242.76C400.8 242.71 402.16 243.35 402.21 245.27C402.26 247.19 401.55 261.42 401.59 262.61C401.63 263.8 397.38 264.12 397.15 263Z" fill="#4F457C"/>
<path d="M377.196 257.333C377.343 258.025 378.022 258.466 378.714 258.32C379.405 258.173 379.847 257.493 379.7 256.802L379.326 255.041C379.179 254.349 378.499 253.908 377.808 254.055C377.116 254.202 376.675 254.881 376.822 255.573L377.196 257.333Z" fill="#4F457C"/>
<path d="M374.45 255.564C374.597 254.872 374.156 254.193 373.464 254.046C372.773 253.899 372.093 254.341 371.946 255.032L371.572 256.793C371.426 257.484 371.867 258.164 372.559 258.311C373.25 258.458 373.93 258.016 374.077 257.325L374.45 255.564Z" fill="#4F457C"/>
<path d="M348.43 245.4C348.786 243.742 349.237 242.106 349.78 240.5C351 236.85 354.17 235 359.21 235V232.4C351.39 232.4 348.43 236.4 347.32 239.68C346.742 241.388 346.261 243.128 345.88 244.89L348.43 245.4Z" fill="#4F457C"/>
<path d="M347.91 242.16C350.7 244.23 350.2 249.99 346.91 250.76C342.89 249.58 343.48 242.91 347.91 242.16Z" fill="#4F457C"/>
<path d="M404.68 263.09C404.561 263.089 404.443 263.068 404.33 263.03C404.207 262.983 404.095 262.913 403.999 262.823C403.904 262.733 403.827 262.625 403.773 262.505C403.719 262.385 403.689 262.256 403.685 262.125C403.681 261.994 403.703 261.863 403.75 261.74C404.363 260.301 405.057 258.899 405.83 257.54C405.96 257.31 406.177 257.14 406.431 257.069C406.686 256.998 406.959 257.03 407.19 257.16C407.305 257.224 407.407 257.311 407.489 257.415C407.57 257.519 407.631 257.638 407.666 257.766C407.701 257.893 407.711 258.026 407.694 258.157C407.678 258.289 407.636 258.415 407.57 258.53C406.851 259.798 406.2 261.103 405.62 262.44C405.548 262.631 405.42 262.796 405.252 262.913C405.084 263.029 404.884 263.091 404.68 263.09Z" fill="#4F457C"/>
<path d="M408.6 263.13C408.391 263.151 408.181 263.105 408 263C407.891 262.927 407.797 262.832 407.725 262.723C407.652 262.613 407.602 262.49 407.577 262.361C407.552 262.232 407.552 262.099 407.578 261.97C407.605 261.841 407.656 261.719 407.73 261.61L408.83 259.96C408.903 259.85 408.996 259.756 409.106 259.682C409.215 259.608 409.338 259.557 409.467 259.531C409.596 259.505 409.729 259.505 409.858 259.53C409.988 259.556 410.11 259.607 410.22 259.68C410.329 259.753 410.423 259.848 410.495 259.957C410.568 260.067 410.618 260.19 410.643 260.319C410.668 260.448 410.668 260.581 410.642 260.71C410.615 260.839 410.564 260.961 410.49 261.07L409.39 262.72C409.299 262.845 409.18 262.947 409.043 263.018C408.906 263.089 408.754 263.127 408.6 263.13Z" fill="#4F457C"/>
<path d="M386.38 210.43C384.54 212.63 383.72 218.92 388.95 220.62C394.18 222.32 407.85 223 407.3 212.73C405.14 216.26 401.3 217.38 396.56 217.18C390.42 216.94 385.87 213.87 386.38 210.43Z" fill="#4F457C"/>
<path d="M177.06 315C176.89 315 176.723 314.957 176.574 314.875C176.425 314.793 176.3 314.674 176.21 314.53C174.95 312.482 173.358 310.657 171.5 309.13C171.389 309.053 171.295 308.954 171.223 308.84C171.151 308.726 171.103 308.598 171.082 308.465C171.061 308.331 171.067 308.195 171.1 308.064C171.133 307.933 171.192 307.81 171.274 307.703C171.356 307.595 171.459 307.505 171.576 307.439C171.693 307.372 171.823 307.33 171.957 307.315C172.091 307.299 172.227 307.312 172.357 307.35C172.486 307.389 172.606 307.454 172.71 307.54C174.768 309.21 176.527 311.219 177.91 313.48C178.048 313.704 178.092 313.974 178.032 314.231C177.972 314.487 177.813 314.71 177.59 314.85C177.431 314.949 177.247 315.001 177.06 315Z" fill="#4F457C"/>
<path d="M181.6 315C181.374 315.008 181.153 314.939 180.971 314.804C180.789 314.67 180.659 314.478 180.6 314.26C179.39 309.69 176.13 301.48 176.09 301.39C175.992 301.143 175.996 300.868 176.101 300.624C176.206 300.38 176.403 300.188 176.65 300.09C176.897 299.992 177.172 299.996 177.416 300.101C177.66 300.206 177.852 300.403 177.95 300.65C178.09 301 181.29 309.06 182.53 313.75C182.597 314.006 182.56 314.278 182.427 314.507C182.294 314.735 182.076 314.902 181.82 314.97C181.748 314.987 181.674 314.998 181.6 315Z" fill="#4F457C"/>
<path d="M185.46 315C185.195 315 184.94 314.895 184.753 314.707C184.565 314.52 184.46 314.265 184.46 314C184.565 310.71 185.089 307.447 186.02 304.29C186.049 304.155 186.105 304.027 186.185 303.914C186.266 303.802 186.369 303.707 186.487 303.637C186.606 303.566 186.738 303.521 186.876 303.504C187.013 303.487 187.152 303.498 187.284 303.538C187.417 303.578 187.54 303.644 187.645 303.734C187.751 303.823 187.836 303.933 187.897 304.057C187.958 304.182 187.992 304.317 187.998 304.455C188.003 304.593 187.98 304.731 187.93 304.86C187.066 307.834 186.572 310.904 186.46 314C186.46 314.265 186.355 314.52 186.167 314.707C185.98 314.895 185.725 315 185.46 315Z" fill="#4F457C"/>
<path d="M188.81 315C188.75 315.01 188.69 315.01 188.63 315C188.371 314.951 188.141 314.802 187.991 314.585C187.841 314.368 187.783 314.1 187.83 313.84C188.31 312.052 189.325 310.454 190.74 309.26C190.947 309.123 191.197 309.068 191.442 309.105C191.686 309.142 191.909 309.269 192.066 309.461C192.223 309.652 192.303 309.896 192.291 310.143C192.278 310.39 192.175 310.625 192 310.8C190.94 311.695 190.165 312.88 189.77 314.21C189.723 314.431 189.602 314.629 189.428 314.772C189.253 314.916 189.036 314.996 188.81 315Z" fill="#4F457C"/>
<path d="M148.62 255.84V266.91C148.62 268.91 152.62 268.99 152.78 267C152.98 264.49 153.3 260.61 153.46 259.05C153.64 257.32 155.54 256.93 155.77 258.87C156.04 261.18 156.25 265.54 156.48 267.14C156.71 268.74 160.63 268.94 160.63 266.91V255.49L148.62 255.84Z" fill="#4F457C"/>
<path d="M139.1 261.49C142.414 261.49 145.1 258.804 145.1 255.49C145.1 252.176 142.414 249.49 139.1 249.49C135.786 249.49 133.1 252.176 133.1 255.49C133.1 258.804 135.786 261.49 139.1 261.49Z" fill="#4F457C"/>
<path d="M137.971 260.476C138.091 259.78 137.624 259.118 136.927 258.997C136.23 258.877 135.568 259.344 135.448 260.041L135.13 261.884C135.01 262.581 135.477 263.243 136.174 263.363C136.87 263.483 137.532 263.016 137.653 262.319L137.971 260.476Z" fill="#4F457C"/>
<path d="M141.28 262.319C141.4 263.016 142.062 263.483 142.759 263.363C143.456 263.243 143.923 262.581 143.803 261.884L143.485 260.041C143.364 259.344 142.702 258.877 142.006 258.997C141.309 259.118 140.842 259.78 140.962 260.476L141.28 262.319Z" fill="#4F457C"/>
<path d="M113.15 249.62L110.56 249.37C111.21 242.67 115.84 237.43 121.11 237.43V240C117.23 240 113.66 244.33 113.15 249.62Z" fill="#4F457C"/>
<path d="M112 248.43C107.32 248.81 106.65 255.61 110.61 257.18C111.54 256.97 112.386 256.485 113.038 255.789C113.691 255.093 114.119 254.218 114.269 253.276C114.419 252.334 114.282 251.369 113.878 250.505C113.473 249.641 112.819 248.918 112 248.43V248.43Z" fill="#4F457C"/>
<path d="M172.78 249.65L176.53 243.16C171.64 242.66 169.22 245.16 170.36 248.37C170.36 248.37 166.05 241.37 164.24 238.68C163.383 237.288 162.189 236.136 160.768 235.33C159.346 234.524 157.744 234.091 156.11 234.07H127.11C122.77 234.07 118.11 237.73 118.11 244.16V266.22C118.11 268.83 122.46 268.51 123.11 266.41C124.24 262.47 125.85 257.41 125.85 257.41C125.85 257.41 128.09 265.05 128.74 266.98C129.29 268.58 133.34 268.63 133.15 266.43C132.94 263.99 132.49 257.05 132.49 257.05H160.5C162.56 259.99 166.45 265.77 167.39 266.82C168.58 268.15 175.11 267.19 175.16 265.18C175.21 263.17 173.97 255.18 173.97 255.18C173.97 255.18 179.97 256.92 182.51 252.99C182.51 253.07 175.11 254.44 172.78 249.65ZM159.35 255.49C159.45 255.61 159.61 255.82 159.79 256.08L159.35 255.49ZM168.69 258.49C168.149 258.492 167.62 258.333 167.17 258.034C166.719 257.735 166.368 257.309 166.16 256.809C165.952 256.31 165.897 255.76 166.002 255.23C166.107 254.699 166.367 254.212 166.75 253.83C167.132 253.447 167.619 253.187 168.15 253.082C168.68 252.977 169.23 253.032 169.729 253.24C170.229 253.448 170.655 253.799 170.954 254.25C171.253 254.7 171.412 255.229 171.41 255.77C171.413 256.129 171.344 256.485 171.209 256.817C171.073 257.149 170.873 257.452 170.62 257.706C170.368 257.961 170.067 258.163 169.736 258.301C169.404 258.439 169.049 258.51 168.69 258.51V258.49Z" fill="#4F457C"/>
<path d="M109.71 269.41C109.519 269.41 109.331 269.356 109.17 269.253C109.009 269.15 108.88 269.004 108.8 268.83C107.54 266.07 106.48 263.67 106.48 263.67C106.427 263.55 106.398 263.42 106.394 263.289C106.391 263.158 106.414 263.027 106.461 262.904C106.509 262.782 106.58 262.67 106.671 262.575C106.761 262.479 106.87 262.403 106.99 262.35C107.11 262.297 107.24 262.268 107.371 262.264C107.502 262.261 107.633 262.284 107.756 262.331C107.878 262.379 107.99 262.45 108.085 262.541C108.181 262.631 108.257 262.74 108.31 262.86C108.31 262.86 109.31 265.25 110.62 268C110.729 268.24 110.738 268.514 110.647 268.761C110.555 269.008 110.369 269.209 110.13 269.32C109.998 269.378 109.855 269.409 109.71 269.41V269.41Z" fill="#4F457C"/>
<path d="M113.88 268.32C113.649 268.326 113.423 268.251 113.241 268.109C113.058 267.967 112.931 267.766 112.88 267.54L111.44 261.28C111.41 261.152 111.406 261.019 111.428 260.89C111.45 260.76 111.497 260.636 111.566 260.525C111.636 260.413 111.727 260.316 111.834 260.24C111.941 260.164 112.062 260.109 112.19 260.08C112.318 260.05 112.451 260.046 112.58 260.068C112.71 260.09 112.834 260.137 112.945 260.206C113.057 260.276 113.154 260.367 113.23 260.474C113.306 260.581 113.361 260.702 113.39 260.83L114.83 267.1C114.887 267.357 114.84 267.626 114.7 267.849C114.559 268.072 114.337 268.23 114.08 268.29C114.015 268.307 113.948 268.317 113.88 268.32Z" fill="#4F457C"/>
<path d="M106.37 270.2C106.193 270.2 106.019 270.152 105.866 270.063C105.713 269.973 105.587 269.844 105.5 269.69C105.071 269.136 104.574 268.639 104.02 268.21C103.917 268.129 103.831 268.028 103.767 267.913C103.703 267.798 103.662 267.672 103.647 267.542C103.631 267.411 103.642 267.279 103.678 267.153C103.713 267.026 103.774 266.908 103.855 266.805C103.936 266.702 104.037 266.616 104.152 266.552C104.267 266.488 104.393 266.447 104.523 266.432C104.654 266.416 104.786 266.427 104.912 266.462C105.039 266.498 105.157 266.559 105.26 266.64C106.026 267.222 106.701 267.917 107.26 268.7C107.39 268.931 107.422 269.204 107.351 269.459C107.28 269.713 107.11 269.93 106.88 270.06C106.726 270.152 106.55 270.2 106.37 270.2Z" fill="#4F457C"/>
<path d="M194.53 267.29C194.347 267.292 194.167 267.243 194.01 267.15C193.784 267.013 193.621 266.792 193.557 266.535C193.493 266.278 193.534 266.007 193.67 265.78C194.532 264.43 195.602 263.225 196.84 262.21C196.943 262.127 197.061 262.066 197.188 262.03C197.315 261.993 197.447 261.982 197.578 261.997C197.709 262.011 197.836 262.052 197.951 262.116C198.067 262.18 198.168 262.267 198.25 262.37C198.414 262.577 198.488 262.841 198.458 263.103C198.429 263.365 198.296 263.605 198.09 263.77C197.044 264.628 196.134 265.64 195.39 266.77C195.305 266.925 195.181 267.055 195.03 267.146C194.879 267.237 194.706 267.287 194.53 267.29Z" fill="#4F457C"/>
<path d="M190.68 267.29C190.577 267.305 190.473 267.305 190.37 267.29C190.244 267.25 190.128 267.186 190.027 267.101C189.926 267.016 189.843 266.912 189.783 266.795C189.723 266.678 189.686 266.55 189.675 266.419C189.664 266.288 189.68 266.155 189.72 266.03C190.742 262.963 192.065 260.006 193.67 257.2C193.816 257 194.03 256.861 194.273 256.81C194.515 256.759 194.767 256.799 194.981 256.924C195.195 257.048 195.356 257.247 195.431 257.483C195.507 257.719 195.492 257.974 195.39 258.2C193.866 260.878 192.607 263.698 191.63 266.62C191.561 266.817 191.433 266.987 191.262 267.107C191.092 267.227 190.888 267.291 190.68 267.29Z" fill="#4F457C"/>
<path d="M187.48 267.29C187.215 267.29 186.96 267.185 186.773 266.997C186.585 266.81 186.48 266.555 186.48 266.29V260.15C186.48 259.885 186.585 259.63 186.773 259.443C186.96 259.255 187.215 259.15 187.48 259.15C187.745 259.15 188 259.255 188.187 259.443C188.375 259.63 188.48 259.885 188.48 260.15V266.29C188.48 266.555 188.375 266.81 188.187 266.997C188 267.185 187.745 267.29 187.48 267.29Z" fill="#4F457C"/>
<path d="M184.44 267.29C184.265 267.292 184.092 267.247 183.939 267.161C183.787 267.075 183.659 266.951 183.57 266.8L181.65 263.49C181.568 263.377 181.51 263.248 181.481 263.111C181.452 262.974 181.451 262.833 181.48 262.696C181.509 262.559 181.566 262.429 181.648 262.316C181.73 262.203 181.835 262.108 181.956 262.037C182.077 261.967 182.211 261.923 182.351 261.908C182.49 261.893 182.63 261.907 182.764 261.949C182.897 261.992 183.02 262.062 183.124 262.155C183.229 262.249 183.312 262.362 183.37 262.49L185.3 265.79C185.367 265.904 185.41 266.029 185.428 266.159C185.446 266.29 185.438 266.422 185.404 266.55C185.371 266.677 185.313 266.796 185.233 266.901C185.153 267.006 185.054 267.094 184.94 267.16C184.788 267.246 184.615 267.291 184.44 267.29Z" fill="#4F457C"/>
<path d="M382.09 306.29C381.896 306.292 381.706 306.237 381.542 306.132C381.379 306.027 381.25 305.877 381.17 305.7C380.759 304.777 380.302 303.876 379.8 303C379.733 302.886 379.69 302.761 379.672 302.631C379.654 302.5 379.662 302.368 379.696 302.24C379.729 302.113 379.787 301.994 379.867 301.889C379.947 301.784 380.046 301.696 380.16 301.63C380.274 301.563 380.399 301.52 380.529 301.502C380.66 301.484 380.792 301.492 380.92 301.526C381.047 301.559 381.166 301.617 381.271 301.697C381.376 301.777 381.464 301.876 381.53 301.99C381.53 302.05 382.31 303.34 383 304.89C383.055 305.011 383.085 305.141 383.089 305.274C383.093 305.406 383.071 305.538 383.023 305.662C382.976 305.785 382.904 305.899 382.813 305.994C382.721 306.09 382.611 306.167 382.49 306.22C382.362 306.267 382.226 306.291 382.09 306.29V306.29Z" fill="#4F457C"/>
<path d="M385.39 306.29C385.125 306.29 384.87 306.185 384.683 305.997C384.495 305.81 384.39 305.555 384.39 305.29C384.278 302.789 383.984 300.299 383.51 297.84C383.46 297.575 383.517 297.3 383.669 297.077C383.82 296.854 384.055 296.7 384.32 296.65C384.585 296.6 384.86 296.657 385.083 296.809C385.306 296.96 385.46 297.195 385.51 297.46C386.008 300.044 386.312 302.661 386.42 305.29C386.42 305.424 386.393 305.556 386.341 305.68C386.289 305.803 386.213 305.915 386.117 306.008C386.021 306.101 385.907 306.174 385.782 306.223C385.657 306.271 385.524 306.294 385.39 306.29Z" fill="#4F457C"/>
<path d="M388.9 306.29H388.64C388.512 306.256 388.393 306.198 388.288 306.118C388.183 306.037 388.095 305.937 388.029 305.823C387.963 305.709 387.92 305.582 387.903 305.451C387.886 305.32 387.895 305.187 387.93 305.06L389.03 300.97C389.057 300.836 389.111 300.709 389.188 300.597C389.266 300.485 389.366 300.39 389.481 300.317C389.597 300.245 389.727 300.197 389.862 300.177C389.996 300.157 390.134 300.164 390.266 300.199C390.398 300.234 390.522 300.295 390.629 300.38C390.736 300.464 390.825 300.57 390.89 300.69C390.955 300.81 390.995 300.942 391.007 301.078C391.019 301.213 391.003 301.35 390.96 301.48L389.87 305.58C389.807 305.788 389.679 305.969 389.504 306.097C389.329 306.225 389.117 306.293 388.9 306.29V306.29Z" fill="#4F457C"/>
<path d="M157.76 163.07C159.345 163.07 160.63 161.785 160.63 160.2C160.63 158.615 159.345 157.33 157.76 157.33C156.175 157.33 154.89 158.615 154.89 160.2C154.89 161.785 156.175 163.07 157.76 163.07Z" fill="#88D1C3"/>
<path d="M183.47 127.2C184 127.2 184.43 126.77 184.43 126.24C184.43 125.71 184 125.28 183.47 125.28C182.94 125.28 182.51 125.71 182.51 126.24C182.51 126.77 182.94 127.2 183.47 127.2Z" fill="#88D1C3"/>
<path d="M152.85 96.32C154.667 96.32 156.14 94.847 156.14 93.03C156.14 91.213 154.667 89.74 152.85 89.74C151.033 89.74 149.56 91.213 149.56 93.03C149.56 94.847 151.033 96.32 152.85 96.32Z" fill="#88D1C3"/>
<path d="M94.91 165.83C96.8541 165.83 98.43 164.254 98.43 162.31C98.43 160.366 96.8541 158.79 94.91 158.79C92.966 158.79 91.39 160.366 91.39 162.31C91.39 164.254 92.966 165.83 94.91 165.83Z" fill="#88D1C3"/>
<path d="M369.34 170.03C370.71 170.03 371.82 168.92 371.82 167.55C371.82 166.18 370.71 165.07 369.34 165.07C367.97 165.07 366.86 166.18 366.86 167.55C366.86 168.92 367.97 170.03 369.34 170.03Z" fill="#88D1C3"/>
<path d="M398.91 66.01C400.28 66.01 401.39 64.8997 401.39 63.53C401.39 62.1603 400.28 61.05 398.91 61.05C397.54 61.05 396.43 62.1603 396.43 63.53C396.43 64.8997 397.54 66.01 398.91 66.01Z" fill="#88D1C3"/>
<path d="M282.33 61.06C285.158 61.06 287.45 58.7677 287.45 55.94C287.45 53.1123 285.158 50.82 282.33 50.82C279.502 50.82 277.21 53.1123 277.21 55.94C277.21 58.7677 279.502 61.06 282.33 61.06Z" fill="#88D1C3"/>
<path d="M353.86 93.18C355.71 93.18 357.21 91.6802 357.21 89.83C357.21 87.9799 355.71 86.48 353.86 86.48C352.01 86.48 350.51 87.9799 350.51 89.83C350.51 91.6802 352.01 93.18 353.86 93.18Z" fill="#88D1C3"/>
<path d="M408.17 144.6C400.89 144.6 393.908 141.708 388.76 136.56C383.612 131.412 380.72 124.43 380.72 117.15C380.72 109.87 383.612 102.888 388.76 97.7399C393.908 92.5921 400.89 89.7 408.17 89.7C408.421 89.6814 408.673 89.7148 408.911 89.7981C409.148 89.8814 409.366 90.0128 409.55 90.1841C409.735 90.3553 409.882 90.5628 409.983 90.7936C410.083 91.0243 410.135 91.2733 410.135 91.525C410.135 91.7767 410.083 92.0257 409.983 92.2564C409.882 92.4872 409.735 92.6947 409.55 92.866C409.366 93.0372 409.148 93.1686 408.911 93.2519C408.673 93.3352 408.421 93.3686 408.17 93.35C403.463 93.35 398.861 94.7459 394.947 97.361C391.034 99.9762 387.983 103.693 386.182 108.042C384.38 112.391 383.909 117.176 384.827 121.793C385.746 126.41 388.012 130.651 391.341 133.979C394.669 137.308 398.91 139.574 403.527 140.493C408.144 141.411 412.929 140.94 417.278 139.138C421.627 137.337 425.344 134.286 427.959 130.373C430.574 126.459 431.97 121.857 431.97 117.15C432.004 116.689 432.211 116.259 432.55 115.944C432.888 115.63 433.333 115.455 433.795 115.455C434.257 115.455 434.702 115.63 435.04 115.944C435.379 116.259 435.586 116.689 435.62 117.15C435.612 124.428 432.717 131.405 427.571 136.551C422.425 141.697 415.448 144.592 408.17 144.6V144.6Z" fill="#4F457C"/>
<path d="M397.453 121.751C399.847 120.987 400.973 117.813 399.968 114.662C398.963 111.51 396.207 109.574 393.813 110.337C391.419 111.101 390.293 114.275 391.298 117.427C392.304 120.579 395.059 122.515 397.453 121.751Z" fill="#4F457C"/>
<path d="M399.89 132.97C400.967 132.97 401.84 132.097 401.84 131.02C401.84 129.943 400.967 129.07 399.89 129.07C398.813 129.07 397.94 129.943 397.94 131.02C397.94 132.097 398.813 132.97 399.89 132.97Z" fill="#4F457C"/>
<path d="M413.3 135.66C414.377 135.66 415.25 134.787 415.25 133.71C415.25 132.633 414.377 131.76 413.3 131.76C412.223 131.76 411.35 132.633 411.35 133.71C411.35 134.787 412.223 135.66 413.3 135.66Z" fill="#4F457C"/>
<path d="M408.76 125.46C409.517 125.46 410.13 124.847 410.13 124.09C410.13 123.333 409.517 122.72 408.76 122.72C408.003 122.72 407.39 123.333 407.39 124.09C407.39 124.847 408.003 125.46 408.76 125.46Z" fill="#4F457C"/>
<path d="M421.65 126.81C421.981 126.81 422.25 126.541 422.25 126.21C422.25 125.879 421.981 125.61 421.65 125.61C421.319 125.61 421.05 125.879 421.05 126.21C421.05 126.541 421.319 126.81 421.65 126.81Z" fill="#4F457C"/>
<path d="M323.43 137.95C327.423 137.95 330.66 134.713 330.66 130.72C330.66 126.727 327.423 123.49 323.43 123.49C319.437 123.49 316.2 126.727 316.2 130.72C316.2 134.713 319.437 137.95 323.43 137.95Z" fill="#88D1C3"/>
<path d="M785.62 148L796.47 156.85C796.962 157.252 797.358 157.759 797.63 158.333C797.902 158.907 798.043 159.535 798.043 160.17C798.043 160.805 797.902 161.433 797.63 162.007C797.358 162.581 796.962 163.088 796.47 163.49L785.62 172.34C784.991 172.852 784.23 173.176 783.425 173.273C782.62 173.371 781.804 173.238 781.072 172.89C780.339 172.543 779.72 171.995 779.286 171.31C778.852 170.625 778.621 169.831 778.62 169.02V151.32C778.621 150.509 778.852 149.715 779.286 149.03C779.72 148.345 780.339 147.797 781.072 147.45C781.804 147.102 782.62 146.969 783.425 147.067C784.23 147.164 784.991 147.488 785.62 148V148Z" fill="#4F457C"/>
<path d="M507.04 160.2H771.95" stroke="#4F457C" stroke-width="5" stroke-miterlimit="10" stroke-linecap="round"/>
<path d="M961.22 269.93H937.76C937.362 269.93 936.981 269.772 936.699 269.491C936.418 269.209 936.26 268.828 936.26 268.43C936.26 268.032 936.418 267.651 936.699 267.369C936.981 267.088 937.362 266.93 937.76 266.93H961.22C961.618 266.93 961.999 267.088 962.281 267.369C962.562 267.651 962.72 268.032 962.72 268.43C962.72 268.828 962.562 269.209 962.281 269.491C961.999 269.772 961.618 269.93 961.22 269.93V269.93Z" fill="#4F457C"/>
<path d="M942.94 273.43C942.542 273.43 942.161 273.272 941.879 272.991C941.598 272.709 941.44 272.328 941.44 271.93V264.93C941.44 264.532 941.598 264.151 941.879 263.869C942.161 263.588 942.542 263.43 942.94 263.43C943.338 263.43 943.719 263.588 944.001 263.869C944.282 264.151 944.44 264.532 944.44 264.93V271.93C944.44 272.328 944.282 272.709 944.001 272.991C943.719 273.272 943.338 273.43 942.94 273.43Z" fill="#4F457C"/>
<path d="M949.94 273.43C949.542 273.43 949.161 273.272 948.879 272.991C948.598 272.709 948.44 272.328 948.44 271.93V264.93C948.44 264.532 948.598 264.151 948.879 263.869C949.161 263.588 949.542 263.43 949.94 263.43C950.338 263.43 950.719 263.588 951.001 263.869C951.282 264.151 951.44 264.532 951.44 264.93V271.93C951.44 272.328 951.282 272.709 951.001 272.991C950.719 273.272 950.338 273.43 949.94 273.43V273.43Z" fill="#4F457C"/>
<path d="M957 273.43C956.602 273.43 956.221 273.272 955.939 272.991C955.658 272.709 955.5 272.328 955.5 271.93V264.93C955.5 264.532 955.658 264.151 955.939 263.869C956.221 263.588 956.602 263.43 957 263.43C957.398 263.43 957.779 263.588 958.061 263.869C958.342 264.151 958.5 264.532 958.5 264.93V271.93C958.5 272.328 958.342 272.709 958.061 272.991C957.779 273.272 957.398 273.43 957 273.43Z" fill="#4F457C"/>
<path d="M928.54 233.48L911.69 223.92H907.13L890.28 233.48L881.06 248.43V272.94H885.63H937.76V248.43L928.54 233.48Z" fill="#657A99"/>
<path d="M874.37 223.92L857.52 233.48L848.3 248.48V272.99H885.63V248.43L894.84 233.43L911.69 223.87L874.37 223.92ZM861.91 264.18H854.76V254.13H861.91V264.18ZM876.04 264.18H868.89V254.13H876L876.04 264.18Z" fill="#4F457C"/>
<path opacity="0.6" d="M1051.13 153.16L931.47 336.09H1087.36L1051.13 153.16Z" fill="url(#paint1_linear_1591_4592)"/>
<path d="M1052.71 216.81C1053.89 219.91 1049.88 224.29 1043.77 226.61C1037.66 228.93 1031.77 228.28 1030.58 225.19L1029.36 221.96L1051.49 213.58L1052.71 216.81Z" fill="#C6A35D"/>
<path d="M1042.53 223.311C1048.64 220.998 1052.64 216.611 1051.47 213.512C1050.3 210.413 1044.39 209.775 1038.28 212.088C1032.17 214.401 1028.17 218.788 1029.34 221.887C1030.51 224.986 1036.42 225.624 1042.53 223.311Z" fill="#F2CE7E"/>
<path d="M1063.35 269.89C1060.77 273.33 1053.82 272.48 1047.81 267.99C1041.8 263.5 1039.02 257.08 1041.59 253.64L1044.27 250.05L1066 266.3L1063.35 269.89Z" fill="#C6A35D"/>
<path d="M1066.01 266.286C1068.58 262.844 1065.8 256.414 1059.79 251.926C1053.78 247.437 1046.82 246.589 1044.25 250.032C1041.68 253.474 1044.47 259.903 1050.47 264.392C1056.48 268.88 1063.44 269.728 1066.01 266.286Z" fill="#F2CE7E"/>
<path d="M1007 232.74C1008.47 230.03 1014.6 230.53 1020.69 233.86C1026.78 237.19 1030.5 242.07 1029.02 244.78L1027.37 247.91L1005.37 235.91L1007 232.74Z" fill="#C6A35D"/>
<path d="M1027.32 247.853C1028.8 245.148 1025.07 240.262 1018.99 236.939C1012.9 233.615 1006.77 233.114 1005.3 235.818C1003.82 238.523 1007.55 243.409 1013.64 246.732C1019.72 250.055 1025.85 250.557 1027.32 247.853Z" fill="#F2CE7E"/>
<path d="M993.57 292.15C996.4 294.24 1000.88 297.99 1002.07 299.73C1003.26 301.47 1001.43 302.66 1000.15 303.49C998.87 304.32 979.51 322.97 982.15 336.44C984.62 349.05 1019.05 349.14 1026.72 349.14C1034.39 349.14 1064.43 347.23 1066.72 337.36C1069.91 323.58 1049.72 306.23 1047.32 304.76C1044.92 303.29 1044.32 301.92 1045.62 300.55C1048.52 297.283 1050.84 293.546 1052.48 289.5L993.57 292.15Z" fill="#7996C9"/>
<path d="M1019.57 284.14C1003.99 284.14 991.57 285.19 991.57 289.5C991.57 293.62 1000.25 293.42 1007.01 293.7C1013.77 293.98 1016.24 296.7 1021.72 299.7C1025.55 301.83 1029.72 302.56 1034.72 297.7C1037.44 295.03 1039.83 293.37 1046.32 292.7C1052.81 292.03 1055.72 287.95 1047.78 285.58C1039.84 283.21 1019.57 284.14 1019.57 284.14Z" fill="#88D1C3"/>
<path d="M1025.72 311.06C1022.4 311.06 1019.09 310.799 1015.82 310.28C1008.82 309.13 1000.39 306.28 997.66 301.92C997.297 301.334 997.181 300.627 997.339 299.956C997.496 299.285 997.914 298.703 998.5 298.34C999.086 297.977 999.793 297.861 1000.46 298.019C1001.14 298.176 1001.72 298.594 1002.08 299.18C1003.31 301.18 1008.71 303.84 1016.67 305.18C1026.1 306.73 1038.91 306.18 1046.54 299.85C1046.8 299.61 1047.11 299.425 1047.44 299.307C1047.77 299.189 1048.13 299.14 1048.48 299.163C1048.83 299.187 1049.18 299.282 1049.49 299.443C1049.81 299.604 1050.08 299.828 1050.31 300.1C1050.54 300.373 1050.7 300.688 1050.8 301.028C1050.9 301.367 1050.93 301.723 1050.89 302.074C1050.84 302.425 1050.73 302.764 1050.55 303.069C1050.37 303.374 1050.13 303.64 1049.85 303.85C1042.75 309.69 1033.14 311.06 1025.72 311.06Z" fill="#4F457C"/>
<path d="M1016.16 341.05C1015.61 341.05 1015.08 340.877 1014.63 340.555C1014.19 340.234 1013.86 339.781 1013.69 339.26C1008.79 324.2 1015.6 312.17 1022.91 306.44C1023.18 306.222 1023.49 306.06 1023.82 305.963C1024.15 305.866 1024.5 305.835 1024.84 305.874C1025.18 305.912 1025.51 306.019 1025.82 306.187C1026.12 306.355 1026.38 306.581 1026.6 306.853C1026.81 307.124 1026.97 307.435 1027.06 307.768C1027.15 308.101 1027.17 308.449 1027.13 308.791C1027.08 309.133 1026.97 309.463 1026.8 309.762C1026.63 310.06 1026.4 310.322 1026.12 310.53C1023.95 312.23 1013.39 321.53 1018.63 337.65C1018.74 337.974 1018.78 338.315 1018.75 338.655C1018.73 338.994 1018.63 339.326 1018.48 339.629C1018.32 339.933 1018.11 340.203 1017.85 340.425C1017.59 340.646 1017.29 340.815 1016.97 340.92C1016.71 341.007 1016.44 341.051 1016.16 341.05V341.05Z" fill="#4F457C"/>
<path d="M1035.89 327.9C1035.55 327.9 1035.21 327.833 1034.9 327.702C1034.58 327.571 1034.3 327.379 1034.06 327.138C1033.81 326.896 1033.62 326.61 1033.49 326.294C1033.36 325.979 1033.3 325.641 1033.3 325.3C1033.3 320.13 1032.18 313.41 1026.87 310.82C1026.28 310.503 1025.83 309.968 1025.62 309.327C1025.41 308.686 1025.46 307.99 1025.75 307.384C1026.05 306.778 1026.57 306.311 1027.2 306.081C1027.84 305.851 1028.53 305.876 1029.15 306.15C1035.15 309.09 1038.49 315.89 1038.49 325.3C1038.49 325.642 1038.43 325.98 1038.29 326.297C1038.16 326.613 1037.97 326.9 1037.73 327.141C1037.49 327.383 1037.2 327.575 1036.89 327.705C1036.57 327.835 1036.23 327.901 1035.89 327.9V327.9Z" fill="#4F457C"/>
<path d="M1047.74 285.57C1042.65 284.05 1032.54 283.89 1025.92 283.97L1030.69 300.53C1032.18 299.813 1033.53 298.842 1034.69 297.66C1037.41 294.99 1039.8 293.33 1046.29 292.66C1052.78 291.99 1055.68 287.94 1047.74 285.57Z" fill="#88D1C3"/>
<path d="M1009.21 284.35C998.83 284.82 991.56 286.21 991.56 289.5C991.56 293.62 1000.24 293.42 1007 293.7C1008.85 293.751 1010.69 294.071 1012.45 294.65C1011.47 292.863 1010.69 290.971 1010.13 289.01C1009.69 287.486 1009.38 285.927 1009.21 284.35V284.35Z" fill="#88D1C3"/>
<path d="M1025.92 284L1021 267.05L1016 268.5C1011 269.95 1008.3 276.61 1009.17 284.35C1012.37 284.2 1015.86 284.14 1019.53 284.14C1019.57 284.14 1022.2 284 1025.92 284Z" fill="#C6A35D"/>
<path d="M1019.57 284.14C1015.9 284.14 1012.41 284.2 1009.21 284.35C1009.38 285.927 1009.69 287.486 1010.13 289.01C1010.69 290.971 1011.47 292.863 1012.45 294.65C1015.67 295.75 1018 297.65 1021.71 299.71C1024.47 301.25 1027.4 302.04 1030.71 300.53L1025.92 284C1022.2 284 1019.57 284.14 1019.57 284.14Z" fill="#C6A35D"/>
<path d="M1037.63 284.18C1037.46 283.201 1037.24 282.233 1036.96 281.28C1034.2 271.69 1027.07 265.28 1021.04 267.05C1015.73 268.59 1013.04 275.91 1014.38 284.19C1016.06 284.19 1017.79 284.14 1019.57 284.14C1019.57 284.14 1029.09 283.7 1037.63 284.18Z" fill="#F2CE7E"/>
<path d="M1037.63 284.18C1029.09 283.7 1019.57 284.18 1019.57 284.18C1017.79 284.18 1016.06 284.18 1014.38 284.23C1014.56 285.372 1014.81 286.501 1015.13 287.61C1016.99 294.08 1020.85 299.07 1025.01 301.11C1027.93 301.84 1031.08 301.24 1034.68 297.7C1035.37 297.011 1036.1 296.37 1036.88 295.78C1038.16 292.049 1038.42 288.044 1037.63 284.18Z" fill="#F2CE7E"/>
<path d="M1065.85 79C1065.51 79 1065.17 78.863 1064.93 78.6192C1064.69 78.3755 1064.55 78.0448 1064.55 77.7V74.15C1064.55 73.8052 1064.69 73.4746 1064.93 73.2308C1065.17 72.987 1065.51 72.85 1065.85 72.85C1066.19 72.85 1066.53 72.987 1066.77 73.2308C1067.01 73.4746 1067.15 73.8052 1067.15 74.15V77.74C1067.14 78.0778 1067 78.3983 1066.76 78.6335C1066.51 78.8687 1066.19 79.0002 1065.85 79Z" fill="#88D1C3"/>
<path d="M1073.35 83H1069.76C1069.59 83 1069.42 82.9664 1069.26 82.901C1069.1 82.8357 1068.96 82.7399 1068.84 82.6192C1068.72 82.4985 1068.62 82.3552 1068.56 82.1975C1068.49 82.0398 1068.46 81.8707 1068.46 81.7C1068.46 81.5293 1068.49 81.3602 1068.56 81.2025C1068.62 81.0448 1068.72 80.9015 1068.84 80.7808C1068.96 80.66 1069.1 80.5643 1069.26 80.4989C1069.42 80.4336 1069.59 80.4 1069.76 80.4H1073.35C1073.69 80.4 1074.03 80.537 1074.27 80.7808C1074.51 81.0246 1074.65 81.3552 1074.65 81.7C1074.65 82.0448 1074.51 82.3754 1074.27 82.6192C1074.03 82.863 1073.69 83 1073.35 83V83Z" fill="#88D1C3"/>
<path d="M1065.85 90.45C1065.51 90.45 1065.17 90.313 1064.93 90.0692C1064.69 89.8254 1064.55 89.4948 1064.55 89.15V85.56C1064.55 85.2152 1064.69 84.8846 1064.93 84.6408C1065.17 84.397 1065.51 84.26 1065.85 84.26C1066.19 84.26 1066.53 84.397 1066.77 84.6408C1067.01 84.8846 1067.15 85.2152 1067.15 85.56V89.15C1067.15 89.4948 1067.01 89.8254 1066.77 90.0692C1066.53 90.313 1066.19 90.45 1065.85 90.45V90.45Z" fill="#88D1C3"/>
<path d="M1061.94 83H1058.35C1058.18 83 1058.01 82.9664 1057.85 82.901C1057.69 82.8357 1057.55 82.7399 1057.43 82.6192C1057.31 82.4985 1057.21 82.3552 1057.15 82.1975C1057.08 82.0398 1057.05 81.8707 1057.05 81.7C1057.05 81.5293 1057.08 81.3602 1057.15 81.2025C1057.21 81.0448 1057.31 80.9015 1057.43 80.7808C1057.55 80.66 1057.69 80.5643 1057.85 80.4989C1058.01 80.4336 1058.18 80.4 1058.35 80.4H1061.94C1062.28 80.4 1062.62 80.537 1062.86 80.7808C1063.1 81.0246 1063.24 81.3552 1063.24 81.7C1063.24 82.0448 1063.1 82.3754 1062.86 82.6192C1062.62 82.863 1062.28 83 1061.94 83V83Z" fill="#88D1C3"/>
<path d="M1009.62 142L1005.43 117.16C1016.74 118.26 1035.03 123 1045.43 132.37" fill="#88D1C3"/>
<path d="M1095.48 191.012C1098.99 177.894 1080.44 161.524 1054.03 154.448C1027.62 147.372 1003.37 152.271 999.852 165.388C996.337 178.506 1014.89 194.877 1041.3 201.952C1067.71 209.028 1091.96 204.129 1095.48 191.012Z" fill="#7996C9"/>
<path d="M977.29 138.36C970.96 136.66 960.11 138.9 954.49 142.31C957.65 148.07 965.93 155.44 972.26 157.13C974.71 157.679 977.277 157.259 979.425 155.957C981.572 154.655 983.132 152.573 983.778 150.147C984.424 147.721 984.107 145.139 982.892 142.942C981.677 140.744 979.659 139.103 977.26 138.36H977.29Z" fill="#FF8080"/>
<path d="M1099.42 176.323C1102.93 163.206 1084.37 146.835 1057.97 139.76C1031.56 132.684 1007.3 137.582 1003.79 150.7C1000.27 163.818 1018.83 180.188 1045.24 187.264C1071.64 194.34 1095.9 189.441 1099.42 176.323Z" fill="white"/>
<path d="M1089.35 172.918C1091.98 163.107 1075 150.032 1051.42 143.714C1027.84 137.396 1006.6 140.228 1003.97 150.038C1001.34 159.848 1018.32 172.923 1041.9 179.241C1065.48 185.559 1086.73 182.728 1089.35 172.918Z" fill="#88D1C3"/>
<path d="M1077.21 190.06L1073.69 203.2C1073.69 203.2 1077.61 203.68 1079.94 202.89C1082.27 202.1 1091.77 199.33 1093.73 192.38C1095.69 185.43 1096.03 183.02 1092.73 184.83C1089.43 186.64 1077.21 190.06 1077.21 190.06Z" fill="white"/>
<path d="M1017.87 174.85C1011.74 170.51 1009.63 167.99 1007.09 163.85C1004.55 159.71 1003.68 161.38 999.55 161.85C995.42 162.32 972.55 174.65 972.55 174.65C972.55 174.65 978.92 182.39 991.47 185.75C1004.02 189.11 1036.21 194.91 1040.34 190.37C1044.47 185.83 1039.52 187.64 1033 183.99C1026.48 180.34 1017.87 174.85 1017.87 174.85Z" fill="#88D1C3"/>
<path d="M1006.8 119.45C1019.53 123.3 1033 128.45 1037.12 134.99C1037.12 134.99 1044.88 132.81 1044.4 131.45C1043.92 130.09 1016.83 118.79 1010.4 117.81C1003.97 116.83 1006.8 119.45 1006.8 119.45Z" fill="white"/>
<path d="M1019.5 149.05C1013.92 145.761 1008.02 143.051 1001.89 140.96C997.02 139.43 995.11 138.78 993.78 140.48C992.45 142.18 987.29 154.85 988.09 157.7C988.89 160.55 993.23 161.9 996.63 160.47C1000.03 159.04 1001.31 157.78 1008.05 157.28C1014.79 156.78 1027 155.7 1019.5 149.05Z" fill="#88D1C3"/>
<path d="M993 143.23C1001.61 145.407 1009.84 148.859 1017.43 153.47L1011.68 155.26L989.53 149.32L993 143.23Z" fill="white"/>
<path d="M976.39 174.32C984.1 177.79 1006.45 187.71 1030.24 184.53C1030.24 184.53 1042.24 186.82 1043.18 188C1044.12 189.18 1024.45 193.82 1007.85 189.27C991.25 184.72 970.31 177 976.39 174.32Z" fill="white"/>
<path d="M1078.88 167.67C1074.8 182.89 1019.67 168.12 1023.75 152.9C1024.68 149.233 1026.32 145.787 1028.59 142.762C1030.86 139.738 1033.71 137.194 1036.97 135.28C1040.24 133.365 1043.85 132.118 1047.59 131.611C1051.34 131.104 1055.15 131.347 1058.81 132.326C1062.46 133.305 1065.88 135 1068.87 137.313C1071.87 139.625 1074.37 142.51 1076.24 145.799C1078.1 149.087 1079.3 152.714 1079.75 156.469C1080.21 160.224 1079.91 164.031 1078.88 167.67V167.67Z" fill="#88D1C3"/>
<path d="M1096.79 181.544L1095.54 186.209L1106.37 189.115L1107.63 184.449L1096.79 181.544Z" fill="#4F457C"/>
<path d="M1096.54 191.6L1100.54 176.6C1103.16 166.46 1094.77 154.7 1078.62 145.78C1075.6 140.017 1070.83 135.361 1064.99 132.485C1059.16 129.61 1052.56 128.662 1046.15 129.78C1035.63 120.9 1018.56 116.19 1006.87 114.85C1006.37 114.792 1005.85 114.853 1005.38 115.026C1004.9 115.2 1004.47 115.482 1004.12 115.85C1003.76 116.228 1003.5 116.684 1003.35 117.183C1003.2 117.681 1003.16 118.207 1003.25 118.72L1006.62 138.72C1003.92 137.677 1001.17 136.785 998.37 136.05C992.86 134.57 987.62 144.22 985.65 151.54C984.17 157.07 983.96 161.88 984.93 165.26L973 171.64C972.516 171.907 972.1 172.283 971.785 172.737C971.47 173.192 971.265 173.714 971.185 174.261C971.106 174.809 971.154 175.367 971.327 175.892C971.499 176.418 971.791 176.896 972.18 177.29C972.343 177.449 972.52 177.593 972.71 177.72C985.563 185.96 999.994 191.426 1015.08 193.77V193.77C1022.7 198.378 1030.95 201.864 1039.57 204.12C1067.61 211.67 1092.64 206.16 1096.54 191.6ZM1095.85 175.5C1094.41 180.88 1088.52 184.86 1079.27 186.72C1069.42 188.72 1057.18 187.96 1044.79 184.64C1026.46 179.73 1011.3 169.87 1006.43 160.02L1021.59 157.3C1022.33 159.391 1023.56 161.276 1025.17 162.8C1030.03 167.66 1038.65 171.63 1047.63 174.04C1062.52 178.04 1078.63 177.79 1081.21 168.29C1082.54 163.344 1082.62 158.143 1081.43 153.16C1092.09 160.31 1097.67 168.72 1095.85 175.5ZM1058.08 135.05C1062.5 136.225 1066.52 138.542 1069.76 141.77C1071.38 143.397 1072.79 145.229 1073.94 147.22C1075.66 150.189 1076.78 153.47 1077.23 156.874C1077.68 160.277 1077.45 163.736 1076.55 167.05C1075.69 170.23 1070.95 171.19 1068.02 171.49C1068.89 171.142 1069.68 170.602 1070.32 169.909C1070.95 169.217 1071.43 168.39 1071.7 167.49C1073.09 162.312 1072.74 156.818 1070.69 151.861C1068.65 146.904 1065.03 142.76 1060.39 140.071C1055.74 137.382 1050.35 136.299 1045.03 136.99C1039.71 137.68 1034.77 140.106 1030.97 143.89C1034.15 139.954 1038.4 137.024 1043.22 135.455C1048.03 133.886 1053.19 133.746 1058.08 135.05V135.05ZM1008.35 119.93C1018.78 121.41 1031.6 125.34 1040.35 131.4C1038.47 132.118 1036.66 133.019 1034.95 134.09C1025.64 133.92 1017.54 135.38 1011.47 138.27L1008.35 119.93ZM1022.72 148.52L1021.88 147.86C1019.45 145.817 1016.87 143.967 1014.15 142.33C1018.81 140.429 1023.76 139.326 1028.79 139.07C1026.2 141.822 1024.15 145.025 1022.72 148.52V148.52ZM990 154.05C990.09 153.63 990.16 153.24 990.28 152.8C992.28 145.23 996.08 140.92 997.08 140.73C1009.4 144.03 1014.18 147.89 1018.8 151.62L1020.13 152.62L1005.01 155.33C1003.41 155.614 1001.87 156.148 1000.44 156.91L996.68 158.91L992.98 157.91C992.095 157.747 991.301 157.263 990.751 156.551C990.201 155.838 989.933 154.948 990 154.05ZM977.2 174.87L1001.83 161.58C1003.49 164.989 1005.73 168.083 1008.46 170.72C1015.52 177.79 1026.46 184.02 1039.35 188.06C1015.55 194.26 988.37 181.89 977.2 174.87ZM1026.79 194.53C1029.67 194.496 1032.55 194.263 1035.4 193.83L1034.4 197.53C1031.78 196.63 1029.24 195.62 1026.79 194.53ZM1040.79 199.53C1039.72 199.24 1038.66 198.94 1037.6 198.62L1039.06 193.17C1041.38 192.639 1043.66 191.951 1045.88 191.11L1043.45 200.17C1042.59 199.92 1041.7 199.73 1040.81 199.49L1040.79 199.53ZM1046.79 200.9L1049.52 190.72C1051.52 191.133 1053.52 191.467 1055.52 191.72L1052.8 201.86C1050.81 201.6 1048.8 201.267 1046.77 200.86L1046.79 200.9ZM1056.19 202.28L1058.9 192.17C1060.97 192.39 1063.03 192.55 1065.04 192.62L1062.36 202.62C1060.34 202.56 1058.27 202.43 1056.17 202.24L1056.19 202.28ZM1065.87 202.6L1068.53 192.65C1070.72 192.65 1072.84 192.49 1074.9 192.27L1072.28 202.07C1070.15 202.341 1068 202.505 1065.85 202.56L1065.87 202.6ZM1075.95 201.43L1078.53 191.78C1079.1 191.68 1079.68 191.61 1080.24 191.5C1081.93 191.152 1083.6 190.711 1085.24 190.18L1082.79 199.3C1080.58 200.223 1078.28 200.923 1075.93 201.39L1075.95 201.43ZM1086.95 197L1089.18 188.67C1090.49 188.071 1091.76 187.372 1092.97 186.58L1091.97 190.39C1091.11 193.124 1089.3 195.465 1086.88 197H1086.95Z" fill="#4F457C"/>
<path d="M1156.77 270.34C1156.77 265.9 1153.84 262.34 1149.22 262.34H1124.14C1121.89 262.34 1119.45 261.34 1121.28 259.34C1123.11 257.34 1126.52 253.19 1122.86 249.47C1122.32 252.58 1119.27 256.78 1110.93 256.78C1102.59 256.78 1098.26 251.67 1099.36 248.99C1095.46 252.64 1097.67 259.11 1101.83 261.17L1092.54 261.41C1092.54 261.41 1093.79 268.9 1102.01 265.49C1102.01 265.49 1101.22 273.49 1101.55 277.06C1101.76 279.31 1108.1 282.6 1110.26 279.74C1112.05 277.37 1113.26 276.02 1114.26 274.68C1115.26 273.34 1117.09 273.74 1117.45 276.68C1117.81 279.62 1118.6 293.34 1119.01 296.26C1119.31 298.44 1124.43 298.7 1124.55 296.26C1124.67 293.82 1125.83 285.42 1125.83 285.42H1142.37C1142.37 285.42 1142.59 292.03 1142.59 294.89C1142.59 296.2 1147.01 296.6 1147.37 294.5C1147.94 291.24 1149.19 284.39 1149.19 284.39C1149.19 284.39 1150.58 292.11 1151.19 295.17C1151.55 296.87 1156.58 296.66 1156.76 294.68C1157 291.9 1156.77 274.79 1156.77 270.34ZM1111.42 271.01C1110.83 271.01 1110.25 270.834 1109.75 270.504C1109.26 270.175 1108.88 269.706 1108.65 269.158C1108.42 268.61 1108.36 268.007 1108.48 267.425C1108.59 266.843 1108.88 266.308 1109.3 265.889C1109.72 265.469 1110.25 265.183 1110.83 265.068C1111.42 264.952 1112.02 265.011 1112.57 265.238C1113.12 265.465 1113.58 265.85 1113.91 266.343C1114.24 266.837 1114.42 267.417 1114.42 268.01C1114.42 268.804 1114.1 269.564 1113.54 270.125C1112.98 270.685 1112.21 271 1111.42 271V271.01Z" fill="#4F457C"/>
<path d="M1136.59 290.31C1139.88 290.31 1142.55 287.642 1142.55 284.35C1142.55 281.058 1139.88 278.39 1136.59 278.39C1133.3 278.39 1130.63 281.058 1130.63 284.35C1130.63 287.642 1133.3 290.31 1136.59 290.31Z" fill="#4F457C"/>
<path d="M1113.59 296.56C1114.19 293.56 1114.87 286.19 1115.1 284.64C1115.33 283.09 1114.57 281.99 1112.57 281.94C1110.57 281.89 1109.21 282.53 1109.16 284.45C1109.11 286.37 1109.16 294.97 1109.16 296.16C1109.16 297.35 1113.36 297.7 1113.59 296.56Z" fill="#4F457C"/>
<path d="M1135.1 289.127C1135.25 288.436 1134.8 287.756 1134.11 287.609C1133.42 287.462 1132.74 287.904 1132.59 288.595L1132.22 290.356C1132.07 291.048 1132.51 291.727 1133.21 291.874C1133.9 292.021 1134.58 291.579 1134.72 290.888L1135.1 289.127Z" fill="#4F457C"/>
<path d="M1137.83 290.882C1137.98 291.574 1138.66 292.015 1139.35 291.868C1140.04 291.722 1140.48 291.042 1140.34 290.35L1139.96 288.59C1139.82 287.898 1139.14 287.457 1138.44 287.604C1137.75 287.75 1137.31 288.43 1137.46 289.122L1137.83 290.882Z" fill="#4F457C"/>
<path d="M1161.76 277C1161.4 275.342 1160.95 273.706 1160.41 272.1C1159.19 268.45 1156.02 266.6 1150.98 266.6V264C1158.8 264 1161.76 268 1162.87 271.28C1163.45 272.988 1163.93 274.728 1164.31 276.49L1161.76 277Z" fill="#4F457C"/>
<path d="M1162.28 273.75C1159.49 275.82 1159.99 281.58 1163.28 282.35C1167.3 281.16 1166.71 274.5 1162.28 273.75Z" fill="#4F457C"/>
<path d="M1106.06 296.68C1105.86 296.681 1105.66 296.619 1105.49 296.503C1105.32 296.386 1105.19 296.221 1105.12 296.03C1104.55 294.687 1103.89 293.378 1103.17 292.11C1103.04 291.879 1103.01 291.606 1103.08 291.351C1103.15 291.097 1103.32 290.88 1103.55 290.75C1103.78 290.62 1104.05 290.585 1104.31 290.655C1104.56 290.724 1104.78 290.891 1104.91 291.12C1105.68 292.479 1106.38 293.881 1106.99 295.32C1107.04 295.443 1107.06 295.574 1107.05 295.705C1107.05 295.836 1107.02 295.965 1106.97 296.085C1106.91 296.205 1106.84 296.313 1106.74 296.403C1106.65 296.493 1106.53 296.563 1106.41 296.61C1106.3 296.657 1106.18 296.681 1106.06 296.68V296.68Z" fill="#4F457C"/>
<path d="M1102.14 296.72C1101.98 296.719 1101.81 296.678 1101.67 296.599C1101.52 296.521 1101.4 296.408 1101.31 296.27L1100.21 294.62C1100.08 294.4 1100.04 294.138 1100.1 293.889C1100.15 293.64 1100.3 293.422 1100.52 293.28C1100.73 293.138 1100.99 293.082 1101.24 293.125C1101.49 293.168 1101.72 293.306 1101.87 293.51L1102.97 295.16C1103.04 295.27 1103.09 295.392 1103.12 295.522C1103.15 295.651 1103.14 295.784 1103.12 295.913C1103.09 296.042 1103.04 296.165 1102.97 296.274C1102.89 296.384 1102.8 296.477 1102.69 296.55C1102.53 296.659 1102.34 296.718 1102.14 296.72V296.72Z" fill="#4F457C"/>
<path d="M1118.08 326.18C1117.92 326.179 1117.77 326.141 1117.63 326.07C1117.49 325.999 1117.37 325.896 1117.28 325.77L1113.55 320.71C1113.47 320.604 1113.42 320.484 1113.38 320.357C1113.35 320.229 1113.35 320.097 1113.36 319.967C1113.38 319.837 1113.43 319.712 1113.5 319.599C1113.56 319.486 1113.65 319.388 1113.76 319.31C1113.87 319.232 1113.99 319.175 1114.11 319.144C1114.24 319.112 1114.37 319.106 1114.5 319.125C1114.63 319.145 1114.76 319.189 1114.87 319.257C1114.98 319.325 1115.08 319.414 1115.16 319.52L1118.89 324.58C1119 324.729 1119.07 324.907 1119.09 325.093C1119.1 325.279 1119.07 325.465 1118.98 325.632C1118.9 325.798 1118.77 325.938 1118.61 326.035C1118.45 326.132 1118.27 326.182 1118.08 326.18Z" fill="#4F457C"/>
<path d="M1120.83 325.07C1120.65 325.07 1120.47 325.02 1120.31 324.925C1120.15 324.83 1120.02 324.693 1119.94 324.53L1118.4 321.53C1118.34 321.413 1118.3 321.284 1118.29 321.153C1118.28 321.021 1118.3 320.889 1118.34 320.763C1118.38 320.638 1118.45 320.522 1118.53 320.422C1118.62 320.321 1118.72 320.239 1118.84 320.18C1119.08 320.061 1119.35 320.041 1119.6 320.124C1119.85 320.206 1120.06 320.384 1120.18 320.62L1121.72 323.62C1121.8 323.772 1121.83 323.942 1121.83 324.112C1121.82 324.282 1121.77 324.448 1121.68 324.593C1121.59 324.738 1121.47 324.858 1121.32 324.942C1121.17 325.025 1121 325.07 1120.83 325.07V325.07Z" fill="#4F457C"/>
<path d="M1123.62 324.7C1123.38 324.702 1123.14 324.615 1122.96 324.454C1122.77 324.294 1122.65 324.072 1122.62 323.83L1121.52 315.47C1121.5 315.339 1121.51 315.205 1121.54 315.077C1121.58 314.949 1121.64 314.829 1121.72 314.723C1121.8 314.618 1121.9 314.529 1122.01 314.463C1122.13 314.396 1122.25 314.353 1122.39 314.335C1122.52 314.317 1122.65 314.326 1122.78 314.359C1122.91 314.393 1123.03 314.452 1123.13 314.532C1123.24 314.613 1123.33 314.713 1123.39 314.828C1123.46 314.942 1123.5 315.069 1123.52 315.2L1124.63 323.57C1124.66 323.833 1124.59 324.098 1124.43 324.308C1124.27 324.518 1124.03 324.655 1123.77 324.69L1123.62 324.7Z" fill="#4F457C"/>
<path d="M1127.32 325.21C1127.18 325.21 1127.05 325.183 1126.92 325.129C1126.8 325.075 1126.68 324.996 1126.59 324.896C1126.5 324.797 1126.42 324.679 1126.38 324.551C1126.33 324.423 1126.31 324.286 1126.32 324.15L1126.71 317.07C1126.72 316.939 1126.75 316.81 1126.81 316.691C1126.86 316.572 1126.94 316.466 1127.04 316.378C1127.14 316.289 1127.25 316.221 1127.37 316.177C1127.5 316.133 1127.63 316.113 1127.76 316.12C1127.89 316.127 1128.02 316.159 1128.14 316.215C1128.26 316.272 1128.36 316.351 1128.45 316.448C1128.54 316.546 1128.61 316.66 1128.65 316.784C1128.7 316.907 1128.72 317.039 1128.71 317.17L1128.33 324.26C1128.32 324.518 1128.2 324.761 1128.02 324.938C1127.83 325.116 1127.58 325.213 1127.32 325.21V325.21Z" fill="#4F457C"/>
<path d="M1129.92 325.72C1129.76 325.721 1129.6 325.683 1129.46 325.61C1129.34 325.55 1129.24 325.467 1129.15 325.367C1129.07 325.266 1129 325.15 1128.96 325.024C1128.92 324.899 1128.91 324.767 1128.92 324.636C1128.93 324.504 1128.97 324.377 1129.03 324.26L1130.32 321.78C1130.37 321.654 1130.45 321.54 1130.55 321.446C1130.65 321.352 1130.77 321.28 1130.9 321.234C1131.03 321.188 1131.17 321.169 1131.31 321.179C1131.44 321.188 1131.58 321.226 1131.7 321.289C1131.82 321.352 1131.93 321.44 1132.02 321.547C1132.1 321.654 1132.17 321.777 1132.2 321.909C1132.24 322.042 1132.25 322.18 1132.23 322.316C1132.21 322.452 1132.16 322.583 1132.09 322.7L1130.81 325.18C1130.73 325.343 1130.6 325.48 1130.44 325.575C1130.28 325.67 1130.1 325.72 1129.92 325.72V325.72Z" fill="#4F457C"/>
<path d="M979.76 347.4C979.542 347.411 979.326 347.351 979.146 347.228C978.965 347.105 978.83 346.927 978.76 346.72C974.84 334.96 969.25 328.31 969.2 328.24C969.115 328.14 969.05 328.025 969.009 327.9C968.968 327.775 968.953 327.643 968.963 327.512C968.973 327.381 969.009 327.254 969.069 327.137C969.128 327.02 969.21 326.915 969.31 326.83C969.41 326.745 969.525 326.68 969.65 326.639C969.775 326.598 969.907 326.583 970.038 326.593C970.169 326.603 970.296 326.639 970.413 326.699C970.53 326.758 970.635 326.84 970.72 326.94C970.96 327.22 976.61 333.94 980.66 346.09C980.742 346.341 980.723 346.614 980.605 346.85C980.487 347.086 980.28 347.266 980.03 347.35C979.943 347.381 979.852 347.397 979.76 347.4V347.4Z" fill="#4F457C"/>
<path d="M974.88 348.14C974.677 348.139 974.48 348.076 974.314 347.96C974.148 347.844 974.021 347.68 973.95 347.49C972.24 342.89 966.78 339.2 966.73 339.16C966.613 339.091 966.511 338.998 966.431 338.889C966.351 338.779 966.294 338.654 966.264 338.521C966.234 338.388 966.231 338.251 966.256 338.117C966.28 337.984 966.332 337.856 966.408 337.743C966.483 337.63 966.581 337.534 966.695 337.46C966.809 337.386 966.937 337.336 967.071 337.313C967.205 337.291 967.343 337.295 967.475 337.327C967.607 337.36 967.731 337.418 967.84 337.5C968.08 337.66 973.9 341.59 975.84 346.79C975.886 346.913 975.908 347.045 975.903 347.177C975.899 347.308 975.868 347.438 975.813 347.558C975.758 347.678 975.68 347.785 975.584 347.875C975.487 347.965 975.374 348.034 975.25 348.08C975.132 348.123 975.006 348.144 974.88 348.14Z" fill="#4F457C"/>
<path d="M970 350.14C969.81 350.141 969.623 350.088 969.462 349.987C969.301 349.887 969.172 349.742 969.09 349.57C967.61 346.43 963.2 344.2 963.16 344.18C963.038 344.124 962.929 344.044 962.839 343.945C962.749 343.847 962.679 343.73 962.634 343.604C962.59 343.478 962.571 343.344 962.579 343.21C962.587 343.077 962.622 342.946 962.682 342.826C962.742 342.706 962.825 342.599 962.926 342.512C963.028 342.425 963.146 342.359 963.274 342.319C963.401 342.278 963.536 342.263 963.669 342.275C963.803 342.288 963.932 342.327 964.05 342.39C964.25 342.49 969.12 344.94 970.9 348.71C971.013 348.95 971.025 349.225 970.935 349.474C970.845 349.724 970.66 349.927 970.42 350.04C970.29 350.107 970.146 350.141 970 350.14V350.14Z" fill="#4F457C"/>
<path d="M1068.77 344.28C1068.66 344.3 1068.55 344.3 1068.44 344.28C1068.31 344.237 1068.2 344.17 1068.1 344.083C1068 343.995 1067.92 343.888 1067.86 343.769C1067.81 343.65 1067.77 343.521 1067.76 343.389C1067.76 343.257 1067.78 343.125 1067.82 343C1069.74 337.996 1072.18 333.203 1075.09 328.7C1075.23 328.479 1075.46 328.325 1075.72 328.27C1075.98 328.216 1076.25 328.266 1076.47 328.41C1076.58 328.482 1076.68 328.575 1076.75 328.684C1076.83 328.793 1076.88 328.915 1076.9 329.045C1076.93 329.174 1076.93 329.307 1076.91 329.437C1076.88 329.566 1076.83 329.69 1076.76 329.8C1073.97 334.176 1071.62 338.823 1069.76 343.67C1069.68 343.862 1069.54 344.024 1069.36 344.134C1069.19 344.243 1068.98 344.294 1068.77 344.28V344.28Z" fill="#4F457C"/>
<path d="M1072.34 345.94C1072.2 345.941 1072.06 345.907 1071.93 345.84C1071.69 345.729 1071.51 345.528 1071.41 345.281C1071.32 345.034 1071.33 344.76 1071.44 344.52C1072.97 341.394 1075.08 338.585 1077.65 336.24C1077.75 336.153 1077.86 336.087 1077.99 336.045C1078.11 336.003 1078.25 335.986 1078.38 335.994C1078.51 336.003 1078.64 336.038 1078.76 336.096C1078.87 336.155 1078.98 336.236 1079.06 336.335C1079.15 336.434 1079.22 336.549 1079.26 336.674C1079.3 336.799 1079.32 336.931 1079.31 337.062C1079.3 337.194 1079.27 337.322 1079.21 337.44C1079.15 337.558 1079.07 337.663 1078.97 337.75C1076.61 339.908 1074.67 342.485 1073.25 345.35C1073.17 345.525 1073.04 345.674 1072.88 345.779C1072.72 345.884 1072.53 345.94 1072.34 345.94Z" fill="#4F457C"/>
<path d="M1077 347.4C1076.84 347.4 1076.68 347.361 1076.54 347.287C1076.4 347.213 1076.27 347.106 1076.18 346.974C1076.09 346.843 1076.03 346.691 1076.01 346.532C1075.99 346.373 1076.01 346.211 1076.06 346.06C1076.7 344.521 1077.83 343.238 1079.28 342.41C1079.51 342.277 1079.79 342.242 1080.05 342.313C1080.3 342.383 1080.52 342.553 1080.65 342.785C1080.79 343.017 1080.82 343.292 1080.75 343.55C1080.68 343.808 1080.51 344.027 1080.28 344.16C1079.26 344.762 1078.46 345.668 1077.98 346.75C1077.91 346.948 1077.77 347.117 1077.6 347.234C1077.42 347.351 1077.21 347.409 1077 347.4Z" fill="#4F457C"/>
<path d="M897.91 303.91C897.738 303.908 897.57 303.862 897.421 303.776C897.272 303.691 897.148 303.568 897.06 303.42C896.313 302.289 895.399 301.278 894.35 300.42C894.247 300.337 894.162 300.235 894.099 300.12C894.036 300.004 893.996 299.877 893.982 299.746C893.968 299.615 893.98 299.483 894.017 299.356C894.055 299.23 894.117 299.112 894.2 299.01C894.366 298.805 894.607 298.675 894.869 298.647C895.131 298.619 895.394 298.695 895.6 298.86C896.838 299.875 897.908 301.08 898.77 302.43C898.906 302.657 898.947 302.928 898.883 303.185C898.819 303.442 898.656 303.663 898.43 303.8C898.269 303.88 898.09 303.918 897.91 303.91V303.91Z" fill="#4F457C"/>
<path d="M901.77 303.91C901.558 303.909 901.352 303.841 901.181 303.715C901.01 303.589 900.884 303.412 900.82 303.21C899.837 300.289 898.575 297.469 897.05 294.79C896.968 294.677 896.91 294.548 896.881 294.411C896.852 294.274 896.851 294.133 896.88 293.996C896.909 293.859 896.966 293.729 897.048 293.616C897.13 293.503 897.235 293.408 897.356 293.337C897.477 293.267 897.611 293.223 897.751 293.208C897.89 293.193 898.03 293.207 898.164 293.249C898.297 293.292 898.42 293.362 898.524 293.455C898.629 293.549 898.712 293.663 898.77 293.79C900.395 296.592 901.735 299.551 902.77 302.62C902.849 302.872 902.824 303.145 902.703 303.379C902.581 303.613 902.371 303.79 902.12 303.87C902.007 303.904 901.888 303.917 901.77 303.91Z" fill="#4F457C"/>
<path d="M905 303.91C904.735 303.91 904.48 303.805 904.293 303.617C904.105 303.43 904 303.175 904 302.91V296.76C904 296.495 904.105 296.24 904.293 296.053C904.48 295.865 904.735 295.76 905 295.76C905.265 295.76 905.52 295.865 905.707 296.053C905.895 296.24 906 296.495 906 296.76V302.91C906 303.175 905.895 303.43 905.707 303.617C905.52 303.805 905.265 303.91 905 303.91Z" fill="#4F457C"/>
<path d="M908 303.91C907.82 303.913 907.643 303.865 907.49 303.77C907.263 303.636 907.098 303.419 907.03 303.164C906.963 302.909 906.999 302.638 907.13 302.41L909.06 299.1C909.123 298.981 909.209 298.875 909.313 298.789C909.417 298.704 909.538 298.641 909.668 298.603C909.797 298.566 909.933 298.555 910.067 298.571C910.201 298.587 910.33 298.63 910.447 298.698C910.563 298.765 910.665 298.856 910.746 298.964C910.827 299.071 910.885 299.195 910.917 299.326C910.949 299.457 910.955 299.593 910.933 299.726C910.911 299.859 910.862 299.986 910.79 300.1L908.86 303.4C908.774 303.553 908.649 303.681 908.498 303.77C908.347 303.86 908.176 303.908 908 303.91V303.91Z" fill="#4F457C"/>
<path d="M925.2 272.94H922.7V252.82H900.68V272.94H898.18V250.32H925.2V272.94Z" fill="#4F457C"/>
<path d="M911.69 223.92L894.84 233.48L885.63 248.43V272.94" fill="#657A99"/>
<path d="M914.38 235.6H909.01V242.48H914.38V235.6Z" fill="#4F457C"/>
<path d="M920.92 155.26C922.262 155.26 923.35 154.172 923.35 152.83C923.35 151.488 922.262 150.4 920.92 150.4C919.578 150.4 918.49 151.488 918.49 152.83C918.49 154.172 919.578 155.26 920.92 155.26Z" fill="#88D1C3"/>
<path d="M977.2 82.97C979.658 82.97 981.65 80.9777 981.65 78.52C981.65 76.0623 979.658 74.07 977.2 74.07C974.742 74.07 972.75 76.0623 972.75 78.52C972.75 80.9777 974.742 82.97 977.2 82.97Z" fill="#88D1C3"/>
<path d="M963.61 197.53C964.676 197.53 965.54 196.666 965.54 195.6C965.54 194.534 964.676 193.67 963.61 193.67C962.544 193.67 961.68 194.534 961.68 195.6C961.68 196.666 962.544 197.53 963.61 197.53Z" fill="#88D1C3"/>
<path d="M1213.51 94.5C1214.91 94.5 1216.05 93.3628 1216.05 91.96C1216.05 90.5572 1214.91 89.42 1213.51 89.42C1212.11 89.42 1210.97 90.5572 1210.97 91.96C1210.97 93.3628 1212.11 94.5 1213.51 94.5Z" fill="#88D1C3"/>
<path d="M1136.59 131.68C1139.39 131.68 1141.66 129.41 1141.66 126.61C1141.66 123.81 1139.39 121.54 1136.59 121.54C1133.79 121.54 1131.52 123.81 1131.52 126.61C1131.52 129.41 1133.79 131.68 1136.59 131.68Z" fill="#88D1C3"/>
<path d="M1177.11 184.12C1178.63 184.12 1179.87 182.884 1179.87 181.36C1179.87 179.836 1178.63 178.6 1177.11 178.6C1175.59 178.6 1174.35 179.836 1174.35 181.36C1174.35 182.884 1175.59 184.12 1177.11 184.12Z" fill="#88D1C3"/>
<path d="M1022.05 44.08C1024.55 44.08 1026.58 42.0518 1026.58 39.55C1026.58 37.0481 1024.55 35.02 1022.05 35.02C1019.55 35.02 1017.52 37.0481 1017.52 39.55C1017.52 42.0518 1019.55 44.08 1022.05 44.08Z" fill="#88D1C3"/>
<path d="M1150.98 68.21C1153.31 68.21 1155.19 66.3251 1155.19 64C1155.19 61.6749 1153.31 59.79 1150.98 59.79C1148.65 59.79 1146.77 61.6749 1146.77 64C1146.77 66.3251 1148.65 68.21 1150.98 68.21Z" fill="#88D1C3"/>
<path d="M1055.15 243.26C1054.79 243.26 1054.44 243.116 1054.18 242.859C1053.92 242.602 1053.78 242.253 1053.78 241.89V231.89C1053.76 231.701 1053.79 231.511 1053.85 231.331C1053.91 231.151 1054.01 230.986 1054.14 230.847C1054.26 230.707 1054.42 230.595 1054.59 230.519C1054.77 230.442 1054.96 230.403 1055.15 230.403C1055.33 230.403 1055.52 230.442 1055.7 230.519C1055.87 230.595 1056.03 230.707 1056.15 230.847C1056.28 230.986 1056.38 231.151 1056.44 231.331C1056.5 231.511 1056.53 231.701 1056.51 231.89V241.89C1056.51 242.069 1056.48 242.247 1056.41 242.414C1056.34 242.58 1056.24 242.731 1056.12 242.858C1055.99 242.985 1055.84 243.087 1055.67 243.156C1055.51 243.225 1055.33 243.26 1055.15 243.26V243.26Z" fill="#7996C9"/>
<path d="M1020 228.61C1019.64 228.61 1019.29 228.466 1019.03 228.209C1018.77 227.952 1018.63 227.603 1018.63 227.24V214.31C1018.63 213.947 1018.77 213.598 1019.03 213.341C1019.29 213.084 1019.64 212.94 1020 212.94C1020.36 212.94 1020.71 213.084 1020.97 213.341C1021.23 213.598 1021.37 213.947 1021.37 214.31V227.24C1021.37 227.603 1021.23 227.952 1020.97 228.209C1020.71 228.466 1020.36 228.61 1020 228.61V228.61Z" fill="#7996C9"/>
<path d="M1029.61 264.05C1029.25 264.05 1028.9 263.906 1028.64 263.649C1028.38 263.392 1028.24 263.043 1028.24 262.68V253.4C1028.24 253.037 1028.38 252.688 1028.64 252.431C1028.9 252.174 1029.25 252.03 1029.61 252.03C1029.97 252.03 1030.32 252.174 1030.58 252.431C1030.84 252.688 1030.98 253.037 1030.98 253.4V262.68C1030.98 262.86 1030.94 263.038 1030.88 263.204C1030.81 263.371 1030.71 263.522 1030.58 263.649C1030.45 263.776 1030.3 263.877 1030.13 263.946C1029.97 264.015 1029.79 264.05 1029.61 264.05V264.05Z" fill="#7996C9"/>
<path d="M1010.12 262.4C1009.76 262.397 1009.41 262.252 1009.16 261.995C1008.9 261.739 1008.76 261.392 1008.76 261.03V254.51C1008.74 254.321 1008.77 254.131 1008.83 253.951C1008.89 253.771 1008.99 253.606 1009.12 253.467C1009.24 253.327 1009.4 253.215 1009.57 253.139C1009.75 253.062 1009.94 253.023 1010.12 253.023C1010.31 253.023 1010.5 253.062 1010.68 253.139C1010.85 253.215 1011.01 253.327 1011.13 253.467C1011.26 253.606 1011.36 253.771 1011.42 253.951C1011.48 254.131 1011.51 254.321 1011.49 254.51V261C1011.49 261.182 1011.46 261.364 1011.39 261.534C1011.33 261.703 1011.23 261.858 1011.1 261.988C1010.97 262.119 1010.82 262.222 1010.65 262.293C1010.48 262.364 1010.3 262.4 1010.12 262.4Z" fill="#7996C9"/>
<path d="M914.38 113C908.061 113.011 901.881 111.145 896.623 107.639C891.366 104.133 887.268 99.1439 884.851 93.3055C882.433 87.4671 881.803 81.0421 883.042 74.8454C884.281 68.6488 887.333 62.9598 891.81 58.5C891.976 58.3163 892.178 58.1682 892.403 58.0647C892.628 57.9613 892.872 57.9046 893.12 57.8981C893.367 57.8917 893.614 57.9356 893.844 58.0272C894.074 58.1188 894.283 58.2562 894.459 58.431C894.634 58.6059 894.772 58.8145 894.865 59.0443C894.957 59.2742 895.002 59.5204 894.997 59.7681C894.991 60.0158 894.936 60.2598 894.833 60.4853C894.73 60.7108 894.583 60.9131 894.4 61.08C890.453 65.0342 887.766 70.0697 886.679 75.5503C885.593 81.0308 886.155 86.7105 888.296 91.8715C890.436 97.0325 894.058 101.443 898.705 104.546C903.351 107.649 908.813 109.306 914.4 109.306C919.987 109.306 925.449 107.649 930.095 104.546C934.742 101.443 938.364 97.0325 940.504 91.8715C942.645 86.7105 943.207 81.0308 942.121 75.5503C941.034 70.0697 938.347 65.0342 934.4 61.08C934.217 60.9131 934.07 60.7108 933.967 60.4853C933.864 60.2598 933.809 60.0158 933.803 59.7681C933.798 59.5204 933.843 59.2742 933.935 59.0443C934.028 58.8145 934.166 58.6059 934.341 58.431C934.517 58.2562 934.726 58.1188 934.956 58.0272C935.186 57.9356 935.433 57.8917 935.68 57.8981C935.928 57.9046 936.172 57.9613 936.397 58.0647C936.622 58.1682 936.824 58.3163 936.99 58.5C941.469 62.9622 944.522 68.6549 945.76 74.8553C946.997 81.0556 946.365 87.484 943.942 93.3241C941.519 99.1641 937.415 104.153 932.152 107.656C926.888 111.159 920.703 113.019 914.38 113Z" fill="#4F457C"/>
<path d="M879 123C878.122 123.05 877.242 122.922 876.414 122.625C875.586 122.328 874.826 121.867 874.18 121.27C868.36 115.44 878.44 99.88 884.98 91.13C885.269 90.7428 885.7 90.4863 886.178 90.4169C886.657 90.3475 887.143 90.4709 887.53 90.76C887.917 91.0491 888.174 91.4801 888.243 91.9584C888.313 92.4366 888.189 92.9228 887.9 93.31C877.18 107.68 874.62 116.54 876.77 118.69C880.28 122.2 899.49 112.79 922.77 89.48C946.05 66.17 955.51 47 952 43.44C949.72 41.16 940 44.44 925.9 55.13C925.512 55.391 925.04 55.4938 924.579 55.4173C924.118 55.3409 923.703 55.0909 923.421 54.7188C923.138 54.3466 923.008 53.8804 923.058 53.4158C923.109 52.9512 923.335 52.5233 923.69 52.22C932.69 45.42 948.69 34.91 954.58 40.86C961.81 48.08 945.36 72.08 925.38 92.06C908.67 108.76 889.16 123 879 123Z" fill="#4F457C"/>
<path d="M899.05 91.96C899.972 91.96 900.72 91.2123 900.72 90.29C900.72 89.3677 899.972 88.62 899.05 88.62C898.128 88.62 897.38 89.3677 897.38 90.29C897.38 91.2123 898.128 91.96 899.05 91.96Z" fill="#4F457C"/>
<path d="M896.3 78.8C897.222 78.8 897.97 78.0523 897.97 77.13C897.97 76.2077 897.222 75.46 896.3 75.46C895.378 75.46 894.63 76.2077 894.63 77.13C894.63 78.0523 895.378 78.8 896.3 78.8Z" fill="#4F457C"/>
<path d="M911.82 89.5C913.228 89.5 914.37 88.3583 914.37 86.95C914.37 85.5417 913.228 84.4 911.82 84.4C910.412 84.4 909.27 85.5417 909.27 86.95C909.27 88.3583 910.412 89.5 911.82 89.5Z" fill="#4F457C"/>
<path d="M925.18 101.03C926.224 101.03 927.07 100.184 927.07 99.14C927.07 98.0962 926.224 97.25 925.18 97.25C924.136 97.25 923.29 98.0962 923.29 99.14C923.29 100.184 924.136 101.03 925.18 101.03Z" fill="#4F457C"/>
<path d="M911.82 71.73C912.527 71.73 913.1 71.1569 913.1 70.45C913.1 69.7431 912.527 69.17 911.82 69.17C911.113 69.17 910.54 69.7431 910.54 70.45C910.54 71.1569 911.113 71.73 911.82 71.73Z" fill="#4F457C"/>
<path d="M1206.27 167.87C1200.56 167.87 1195.08 165.601 1191.04 161.561C1187 157.522 1184.73 152.043 1184.73 146.33C1184.73 140.617 1187 135.138 1191.04 131.099C1195.08 127.059 1200.56 124.79 1206.27 124.79C1206.52 124.771 1206.77 124.805 1207.01 124.888C1207.25 124.971 1207.47 125.103 1207.65 125.274C1207.83 125.445 1207.98 125.653 1208.08 125.884C1208.18 126.114 1208.24 126.363 1208.24 126.615C1208.24 126.867 1208.18 127.116 1208.08 127.346C1207.98 127.577 1207.83 127.785 1207.65 127.956C1207.47 128.127 1207.25 128.259 1207.01 128.342C1206.77 128.425 1206.52 128.459 1206.27 128.44C1202.73 128.44 1199.27 129.489 1196.33 131.455C1193.39 133.421 1191.1 136.215 1189.74 139.484C1188.39 142.753 1188.03 146.35 1188.72 149.82C1189.41 153.29 1191.12 156.478 1193.62 158.98C1196.12 161.482 1199.31 163.186 1202.78 163.876C1206.25 164.567 1209.85 164.212 1213.12 162.858C1216.39 161.504 1219.18 159.211 1221.15 156.269C1223.11 153.327 1224.16 149.868 1224.16 146.33C1224.14 146.079 1224.17 145.827 1224.26 145.589C1224.34 145.352 1224.47 145.134 1224.64 144.95C1224.82 144.765 1225.02 144.618 1225.25 144.517C1225.48 144.417 1225.73 144.365 1225.98 144.365C1226.24 144.365 1226.49 144.417 1226.72 144.517C1226.95 144.618 1227.15 144.765 1227.33 144.95C1227.5 145.134 1227.63 145.352 1227.71 145.589C1227.8 145.827 1227.83 146.079 1227.81 146.33C1227.8 152.04 1225.53 157.514 1221.49 161.552C1217.45 165.59 1211.98 167.862 1206.27 167.87V167.87Z" fill="#4F457C"/>
<path d="M1194.89 144.59C1195.49 144.59 1195.98 144.102 1195.98 143.5C1195.98 142.898 1195.49 142.41 1194.89 142.41C1194.29 142.41 1193.8 142.898 1193.8 143.5C1193.8 144.102 1194.29 144.59 1194.89 144.59Z" fill="#4F457C"/>
<path d="M1199.72 137.22C1200.32 137.22 1200.81 136.732 1200.81 136.13C1200.81 135.528 1200.32 135.04 1199.72 135.04C1199.12 135.04 1198.63 135.528 1198.63 136.13C1198.63 136.732 1199.12 137.22 1199.72 137.22Z" fill="#4F457C"/>
<path d="M1195.28 153.67C1195.88 153.67 1196.37 153.182 1196.37 152.58C1196.37 151.978 1195.88 151.49 1195.28 151.49C1194.68 151.49 1194.19 151.978 1194.19 152.58C1194.19 153.182 1194.68 153.67 1195.28 153.67Z" fill="#4F457C"/>
<path d="M1202.36 149.54C1203.28 149.54 1204.03 148.792 1204.03 147.87C1204.03 146.948 1203.28 146.2 1202.36 146.2C1201.44 146.2 1200.69 146.948 1200.69 147.87C1200.69 148.792 1201.44 149.54 1202.36 149.54Z" fill="#4F457C"/>
<path d="M1202.9 160.95C1203.58 160.95 1204.14 160.395 1204.14 159.71C1204.14 159.025 1203.58 158.47 1202.9 158.47C1202.22 158.47 1201.66 159.025 1201.66 159.71C1201.66 160.395 1202.22 160.95 1202.9 160.95Z" fill="#4F457C"/>
<path d="M1210.01 141.07C1210.47 141.07 1210.85 140.694 1210.85 140.23C1210.85 139.766 1210.47 139.39 1210.01 139.39C1209.55 139.39 1209.17 139.766 1209.17 140.23C1209.17 140.694 1209.55 141.07 1210.01 141.07Z" fill="#4F457C"/>
<path d="M1113.3 195.71C1117.29 195.71 1120.53 192.473 1120.53 188.48C1120.53 184.487 1117.29 181.25 1113.3 181.25C1109.31 181.25 1106.07 184.487 1106.07 188.48C1106.07 192.473 1109.31 195.71 1113.3 195.71Z" fill="#88D1C3"/>
<path d="M899.43 272.94H901.33L911.69 263.91L922.05 272.94H923.95L924.77 271.99L913.59 262.25L924.77 252.51L923.13 250.63L911.69 260.59L900.25 250.63L898.61 252.51L909.79 262.25L898.61 271.99L899.43 272.94Z" fill="#4F457C"/>
<defs>
<linearGradient id="paint0_linear_1591_4592" x1="284.96" y1="162.64" x2="289.83" y2="328.09" gradientUnits="userSpaceOnUse">
<stop stop-color="white" stop-opacity="0.5"/>
<stop offset="0.14" stop-color="white" stop-opacity="0.48"/>
<stop offset="0.34" stop-color="white" stop-opacity="0.41"/>
<stop offset="0.56" stop-color="white" stop-opacity="0.3"/>
<stop offset="0.81" stop-color="white" stop-opacity="0.14"/>
<stop offset="1" stop-color="white" stop-opacity="0"/>
</linearGradient>
<linearGradient id="paint1_linear_1591_4592" x1="157493" y1="29875.6" x2="158528" y2="59807.8" gradientUnits="userSpaceOnUse">
<stop stop-color="white" stop-opacity="0.5"/>
<stop offset="0.14" stop-color="white" stop-opacity="0.48"/>
<stop offset="0.34" stop-color="white" stop-opacity="0.41"/>
<stop offset="0.56" stop-color="white" stop-opacity="0.3"/>
<stop offset="0.81" stop-color="white" stop-opacity="0.14"/>
<stop offset="1" stop-color="white" stop-opacity="0"/>
</linearGradient>
</defs>
</svg>
