<svg width="1300" height="854" viewBox="0 0 1300 854" fill="none" xmlns="http://www.w3.org/2000/svg">
<path d="M740.91 250.36C741.976 250.36 742.84 249.496 742.84 248.43C742.84 247.364 741.976 246.5 740.91 246.5C739.844 246.5 738.98 247.364 738.98 248.43C738.98 249.496 739.844 250.36 740.91 250.36Z" fill="#88D1C3"/>
<path d="M650.55 696.66C786.97 696.66 897.56 586.07 897.56 449.65C897.56 313.23 786.97 202.64 650.55 202.64C514.13 202.64 403.54 313.23 403.54 449.65C403.54 586.07 514.13 696.66 650.55 696.66Z" fill="url(#paint0_radial_1591_5036)"/>
<path d="M698.01 545.546C701.983 543.925 703.064 537.367 700.424 530.898C697.784 524.429 692.423 520.5 688.45 522.122C684.477 523.743 683.396 530.301 686.036 536.77C688.676 543.238 694.036 547.167 698.01 545.546Z" fill="#171735"/>
<path d="M564.42 416.18L562.74 412.76L569.54 399.48H575.47L579.66 394.27L573.88 388.41L577.7 383.99L595.77 368.98L601.95 365.55L600.65 354.92L602.74 352.68L611.05 358.54L619.56 355.86L625.51 354.74L626.14 357.01L631.84 355.86L630.59 345.55L642.59 343.13L643.54 352.36L656.98 352.52L656.34 344.35H666.18L665.05 350.82L668.99 351.89V355.86L677.06 357.9L694.31 365.55L702.2 359.68L708.05 363.59L704.88 371.76L718.65 374.1L719.93 376.24L718.01 381.77L723.54 388.9L727.81 386.04L733.44 393.47L726.07 403.1L738.97 409.94L741.45 415.29L738.25 423.95L564.42 416.18Z" fill="#171735"/>
<path d="M682.063 542.075C686.25 541.135 688.811 536.66 687.783 532.079C686.755 527.499 682.527 524.547 678.34 525.487C674.153 526.427 671.592 530.902 672.62 535.482C673.648 540.063 677.876 543.014 682.063 542.075Z" fill="#171735"/>
<path d="M606.81 531.35L605.11 534.43L607.96 536.47L621.12 541.66L624.92 543.15L625.99 540.69L627.64 541.66L626.58 546.84L632.54 548.37L637.84 543.42L641.88 544.17V548.37H644.37V544.17H649.58H654.68L655.51 542.07L672.08 539.78L674.84 542.07L683.97 539.86L686.94 544.17L692.51 542.3L698.8 533.77L700.46 535.5L704.24 533.77L699.62 525.58L705.08 521.98L714.88 519.01L718.24 515.57L724.05 520.44L726.9 517.95L722.66 514.63V511.31L728.58 502.55L730.89 499.33L734.07 500.85L737.93 496.48L731.41 493.03L735.08 492.09L735.57 485.45L606.81 531.35Z" fill="#171735"/>
<path d="M560.58 394.093L560.024 395.003C558.582 397.36 559.324 400.439 561.68 401.88L576.929 411.209C579.286 412.651 582.365 411.909 583.807 409.553L584.363 408.643C585.805 406.286 585.063 403.207 582.707 401.766L567.458 392.437C565.101 390.995 562.022 391.737 560.58 394.093Z" fill="#171735"/>
<path d="M585.7 374.27C585.183 374.719 584.51 374.948 583.826 374.907C583.142 374.867 582.502 374.56 582.041 374.052C581.581 373.545 581.338 372.878 581.364 372.193C581.39 371.508 581.683 370.861 582.18 370.39L590.61 362.74C589.561 361.766 588.445 360.867 587.27 360.05L579.33 367.25C578.813 367.699 578.14 367.928 577.456 367.887C576.772 367.847 576.132 367.54 575.671 367.032C575.211 366.525 574.968 365.858 574.994 365.173C575.02 364.488 575.313 363.841 575.81 363.37L582.41 357.37C576.89 355.09 571.41 355.31 567.87 358.51C562.09 363.76 563.74 374.98 571.54 383.57C579.34 392.16 590.36 394.89 596.13 389.65C601.47 384.81 600.46 374.87 594.13 366.65L585.7 374.27Z" fill="#171735"/>
<path d="M729.14 348.38L726.51 346.25L692.63 375.82L702.52 381.26L709.9 389.81L731.78 350.51L729.14 348.38Z" fill="#171735"/>
<path d="M719.94 335.69L720.17 335.36C722.736 332.344 726.379 330.452 730.322 330.086C734.265 329.72 738.194 330.911 741.271 333.403C744.348 335.895 746.328 339.491 746.79 343.424C747.251 347.356 746.157 351.313 743.74 354.45C743.66 354.55 743.56 354.64 743.47 354.74L719.94 335.69Z" fill="#171735"/>
<path d="M748.804 356.42L717.208 330.843C715.633 329.568 713.323 329.809 712.05 331.383C710.776 332.956 711.021 335.265 712.596 336.54L744.192 362.117C745.767 363.392 748.077 363.151 749.35 361.577C750.624 360.004 750.379 357.695 748.804 356.42Z" fill="#171735"/>
<path d="M652.62 307.07H649.23H645.84L638.12 365.55L649.23 362.91L660.34 365.55L652.62 307.07Z" fill="#171735"/>
<path d="M649.23 315.16C657.133 315.16 663.54 308.753 663.54 300.85C663.54 292.947 657.133 286.54 649.23 286.54C641.327 286.54 634.92 292.947 634.92 300.85C634.92 308.753 641.327 315.16 649.23 315.16Z" fill="#171735"/>
<path d="M671.08 298.22H627.39C625.932 298.22 624.75 299.4 624.75 300.855C624.75 302.31 625.932 303.49 627.39 303.49H671.08C672.538 303.49 673.72 302.31 673.72 300.855C673.72 299.4 672.538 298.22 671.08 298.22Z" fill="#171735"/>
<path d="M651.49 273.36H646.97V303.49H651.49V273.36Z" fill="#171735"/>
<path d="M649.23 276.23C652.301 276.23 654.79 273.741 654.79 270.67C654.79 267.599 652.301 265.11 649.23 265.11C646.159 265.11 643.67 267.599 643.67 270.67C643.67 273.741 646.159 276.23 649.23 276.23Z" fill="#171735"/>
<path d="M689.64 329.1L697.79 307.5C697.882 307.256 698.042 307.044 698.252 306.889C698.461 306.734 698.711 306.644 698.971 306.628C699.231 306.612 699.491 306.672 699.717 306.8C699.944 306.928 700.129 307.119 700.25 307.35L702.18 311C702.481 311.57 702.657 312.197 702.697 312.84C702.736 313.483 702.639 314.128 702.41 314.73L691.66 343.31L699.78 351.31L688.4 372.89L680.51 370.61L681.6 367.61L671.77 362.1L682.2 333.32C682.436 332.661 682.822 332.067 683.327 331.583C683.832 331.098 684.442 330.738 685.11 330.53L689.64 329.1Z" fill="#171735"/>
<path d="M623.86 362.43L610.26 319.62L603.98 321.62C603.98 321.62 612.2 349 609.45 367L623.86 362.43Z" fill="#171735"/>
<path d="M618.7 317.42L600.23 323.42C599.515 323.643 598.741 323.575 598.076 323.231C597.411 322.886 596.91 322.293 596.68 321.58V321.58C596.457 320.867 596.525 320.094 596.87 319.431C597.215 318.767 597.808 318.267 598.52 318.04L617 312C617.715 311.777 618.489 311.845 619.154 312.189C619.819 312.534 620.32 313.127 620.55 313.84V313.84C620.666 314.196 620.711 314.572 620.68 314.946C620.65 315.32 620.546 315.684 620.374 316.017C620.202 316.35 619.965 316.646 619.678 316.886C619.39 317.127 619.058 317.309 618.7 317.42V317.42Z" fill="#171735"/>
<path d="M624.24 325.54C624.011 324.827 623.508 324.235 622.843 323.892C622.178 323.549 621.403 323.484 620.69 323.71L606.48 328.31C607.77 329.766 608.786 331.443 609.48 333.26L622.36 329.09C622.717 328.982 623.05 328.803 623.338 328.566C623.626 328.329 623.864 328.036 624.039 327.706C624.214 327.376 624.322 327.015 624.356 326.643C624.391 326.271 624.351 325.897 624.24 325.54V325.54Z" fill="#171735"/>
<path d="M628 337.21C627.888 336.856 627.706 336.529 627.467 336.245C627.228 335.962 626.935 335.728 626.605 335.558C626.275 335.388 625.915 335.285 625.545 335.254C625.175 335.224 624.803 335.267 624.45 335.38L611.1 339.7C611.42 341.56 611.72 343.49 611.91 345.37L626.16 340.76C626.873 340.53 627.466 340.029 627.811 339.364C628.155 338.699 628.223 337.925 628 337.21V337.21Z" fill="#171735"/>
<path d="M669.076 327.683L669.066 327.681C668.048 327.51 667.083 328.197 666.913 329.216L661.779 359.828C661.608 360.847 662.295 361.811 663.314 361.982L663.324 361.984C664.342 362.154 665.306 361.467 665.477 360.449L670.611 329.836C670.782 328.818 670.095 327.853 669.076 327.683Z" fill="#171735"/>
<path d="M705.929 339.578L705.92 339.574C705.007 339.09 703.876 339.438 703.393 340.351L688.868 367.783C688.385 368.696 688.733 369.828 689.646 370.311L689.654 370.316C690.567 370.799 691.699 370.451 692.182 369.538L706.707 342.106C707.19 341.193 706.842 340.061 705.929 339.578Z" fill="#171735"/>
<path d="M638.64 362C638.145 362.059 637.648 361.92 637.256 361.612C636.864 361.305 636.61 360.854 636.55 360.36L630.6 323.91C630.543 323.416 630.684 322.919 630.991 322.528C631.298 322.137 631.747 321.883 632.24 321.82V321.82C632.734 321.763 633.23 321.904 633.622 322.211C634.013 322.518 634.267 322.967 634.33 323.46L640.28 359.92C640.336 360.413 640.196 360.908 639.888 361.298C639.581 361.687 639.132 361.94 638.64 362V362Z" fill="#171735"/>
<path d="M592.724 340.021C592.076 339.027 590.743 338.746 589.749 339.395C588.754 340.044 588.474 341.376 589.123 342.371L608.575 372.187C609.223 373.181 610.556 373.461 611.55 372.813C612.545 372.164 612.825 370.832 612.176 369.837L592.724 340.021Z" fill="#171735"/>
<path d="M595.678 350.771C594.691 349.406 592.787 349.098 591.424 350.083C590.061 351.069 589.756 352.974 590.743 354.339L620.287 395.197C621.274 396.562 623.179 396.87 624.542 395.884C625.904 394.899 626.209 392.994 625.222 391.629L595.678 350.771Z" fill="#171735"/>
<path d="M717.22 388.32C717.082 388.156 716.977 387.966 716.913 387.762C716.848 387.557 716.824 387.342 716.843 387.128C716.861 386.915 716.922 386.707 717.021 386.517C717.12 386.326 717.256 386.158 717.42 386.02L734 372.14C734.163 372.002 734.352 371.898 734.556 371.833C734.759 371.769 734.974 371.745 735.187 371.763C735.4 371.782 735.607 371.843 735.796 371.942C735.985 372.04 736.153 372.176 736.29 372.34V372.34C736.568 372.671 736.704 373.098 736.668 373.529C736.632 373.96 736.428 374.359 736.1 374.64L719.49 388.52C719.161 388.79 718.739 388.92 718.314 388.883C717.89 388.845 717.497 388.643 717.22 388.32V388.32Z" fill="#171735"/>
<path d="M736.28 377.25C739.135 377.25 741.45 374.935 741.45 372.08C741.45 369.225 739.135 366.91 736.28 366.91C733.425 366.91 731.11 369.225 731.11 372.08C731.11 374.935 733.425 377.25 736.28 377.25Z" fill="#171735"/>
<path d="M732.71 411.89C738.807 411.89 743.75 406.947 743.75 400.85C743.75 394.753 738.807 389.81 732.71 389.81C726.613 389.81 721.67 394.753 721.67 400.85C721.67 406.947 726.613 411.89 732.71 411.89Z" fill="#171735"/>
<path d="M650.55 542.29C701.714 542.29 743.19 500.814 743.19 449.65C743.19 398.486 701.714 357.01 650.55 357.01C599.386 357.01 557.91 398.486 557.91 449.65C557.91 500.814 599.386 542.29 650.55 542.29Z" fill="#171735"/>
<path d="M650.55 532.55C696.334 532.55 733.45 495.434 733.45 449.65C733.45 403.866 696.334 366.75 650.55 366.75C604.766 366.75 567.65 403.866 567.65 449.65C567.65 495.434 604.766 532.55 650.55 532.55Z" fill="#4F457C"/>
<path d="M633.94 531C654.68 534.46 654.74 524.2 651.12 521.59C645.92 517.84 636.52 519.21 637.18 512.49C637.84 505.77 653.02 507.17 653.97 496.49C654.92 485.81 644.27 487.04 646.87 479.2C649.47 471.36 650.27 459.56 641.33 451.94C632.39 444.32 624.33 451.06 612.7 454.2C599.52 457.75 590.88 454.04 587.79 447.2C584.86 440.75 589.31 434.85 587.68 427.08C586.05 419.31 570.8 426.64 578.85 408.01C572.261 419.396 568.472 432.184 567.796 445.322C567.121 458.459 569.577 471.569 574.964 483.57C580.35 495.572 588.512 506.121 598.777 514.348C609.041 522.576 621.114 528.245 634 530.89" fill="#88D1C3"/>
<path d="M711.9 512.03L707.86 517.19L701.94 519.98L726.31 543.42L727.83 542.21L729.35 541L711.9 512.03Z" fill="#171735"/>
<path d="M735.07 538.14L735 538C733.623 536.356 731.659 535.316 729.525 535.102C727.392 534.888 725.26 535.517 723.584 536.855C721.909 538.192 720.823 540.132 720.558 542.259C720.294 544.387 720.872 546.533 722.17 548.24L722.26 548.34L735.07 538.14Z" fill="#171735"/>
<path d="M719.739 552.161L739.316 536.532C739.968 536.012 740.075 535.062 739.554 534.41C739.034 533.759 738.084 533.652 737.432 534.172L717.855 549.8C717.203 550.321 717.097 551.271 717.617 551.923C718.137 552.574 719.087 552.681 719.739 552.161Z" fill="#171735"/>
<path d="M732.094 549.646L734.118 548.031L723.337 534.526L721.313 536.142L732.094 549.646Z" fill="#171735"/>
<path d="M734.07 553.22C735.832 553.22 737.26 551.792 737.26 550.03C737.26 548.268 735.832 546.84 734.07 546.84C732.308 546.84 730.88 548.268 730.88 550.03C730.88 551.792 732.308 553.22 734.07 553.22Z" fill="#171735"/>
<path d="M736.39 523.6L746 510C746.301 509.59 746.452 509.088 746.427 508.58C746.401 508.072 746.201 507.588 745.86 507.21C745.64 506.978 745.372 506.799 745.074 506.683C744.776 506.568 744.457 506.52 744.138 506.543C743.82 506.566 743.51 506.659 743.232 506.816C742.954 506.973 742.714 507.189 742.53 507.45L741 509.59C740.74 509.956 740.407 510.264 740.021 510.493C739.635 510.722 739.205 510.868 738.759 510.92C738.314 510.973 737.862 510.932 737.433 510.799C737.004 510.666 736.608 510.445 736.27 510.15L725.14 500.4L723.37 504.16L720.42 507.09L733.34 514.3C733.731 514.519 734.072 514.818 734.34 515.177C734.609 515.536 734.799 515.948 734.899 516.385C734.999 516.822 735.006 517.275 734.92 517.715C734.834 518.155 734.657 518.573 734.4 518.94L732.91 521.05C732.611 521.46 732.46 521.961 732.484 522.468C732.508 522.975 732.704 523.459 733.04 523.84C733.26 524.075 733.529 524.258 733.829 524.376C734.129 524.493 734.451 524.542 734.772 524.519C735.093 524.496 735.405 524.402 735.685 524.243C735.965 524.084 736.206 523.864 736.39 523.6Z" fill="#171735"/>
<path d="M740.91 493.28L728.76 487.92C727.918 489.45 726.861 490.851 725.62 492.08L738.87 497.91C739.179 498.074 739.518 498.172 739.866 498.199C740.215 498.225 740.565 498.179 740.895 498.063C741.224 497.948 741.527 497.765 741.782 497.527C742.038 497.289 742.241 497 742.38 496.679C742.519 496.358 742.589 496.012 742.587 495.663C742.586 495.314 742.511 494.968 742.37 494.649C742.228 494.33 742.021 494.043 741.763 493.807C741.505 493.572 741.201 493.392 740.87 493.28H740.91Z" fill="#171735"/>
<path d="M724.09 512.03C728.387 512.03 731.87 508.547 731.87 504.25C731.87 499.953 728.387 496.47 724.09 496.47C719.793 496.47 716.31 499.953 716.31 504.25C716.31 508.547 719.793 512.03 724.09 512.03Z" fill="#171735"/>
<path d="M648.75 534.59C647.745 534.589 646.741 534.505 645.75 534.34L645.96 550.28C645.968 550.887 646.217 551.467 646.652 551.891C647.087 552.314 647.673 552.548 648.28 552.54C648.887 552.532 649.467 552.283 649.891 551.848C650.314 551.413 650.548 550.827 650.54 550.22L650.33 534.51C649.81 534.56 649.28 534.59 648.75 534.59Z" fill="#171735"/>
<path d="M600.321 532.152C600.023 532.662 600.194 533.316 600.702 533.613C601.21 533.909 601.863 533.735 602.161 533.225L606.644 525.537C606.942 525.026 606.772 524.372 606.263 524.076C605.755 523.78 605.102 523.953 604.804 524.464L600.321 532.152Z" fill="#171735"/>
<path d="M739.32 482.48L730.75 480.23C730.759 481.747 730.539 483.258 730.1 484.71L738.24 486.84C738.804 486.944 739.386 486.829 739.867 486.518C740.349 486.207 740.694 485.725 740.832 485.168C740.97 484.612 740.89 484.024 740.609 483.524C740.328 483.025 739.867 482.651 739.32 482.48V482.48Z" fill="#171735"/>
<path d="M630.142 562.521C630.059 563.134 630.488 563.699 631.1 563.782C631.713 563.866 632.278 563.437 632.362 562.824L634.867 544.485C634.951 543.872 634.522 543.307 633.909 543.223C633.296 543.14 632.732 543.569 632.648 544.181L630.142 562.521Z" fill="#171735"/>
<path d="M630.149 558.397L633.449 558.848C635.331 559.105 637.066 557.788 637.323 555.905L640.136 535.317C640.393 533.434 639.075 531.7 637.193 531.443L633.894 530.992C632.011 530.735 630.277 532.052 630.02 533.935L627.207 554.523C626.95 556.406 628.267 558.14 630.149 558.397Z" fill="#171735"/>
<path d="M608.645 542.557L617.737 546.373C619.636 547.171 621.822 546.277 622.62 544.378L626.436 535.286C627.233 533.387 626.34 531.201 624.44 530.403L615.348 526.587C613.449 525.79 611.263 526.683 610.466 528.583L606.649 537.674C605.852 539.574 606.746 541.76 608.645 542.557Z" fill="#171735"/>
<path d="M650.55 366.76C644.651 366.756 638.768 367.38 633 368.62C629.73 369.275 626.514 370.178 623.38 371.32C621.03 372.13 618.72 373.05 616.47 374.06C607.99 378.45 626.84 370.95 630.6 389.81C633.43 403.98 645.6 400.81 654.04 395.05C662.31 389.38 668.04 388.9 670.82 394.1C674.09 400.25 673.82 403.17 682.01 407.21C692.64 412.44 681.85 414.42 678.17 421.62C667.73 442.06 703.43 451.62 702.17 424.62C701.11 402.75 716.04 402.84 722.17 407.89C714.872 395.369 704.418 384.982 691.85 377.764C679.283 370.547 665.042 366.753 650.55 366.76Z" fill="#88D1C3"/>
<path d="M710.42 526.15L704.41 528.86L698.05 524.16L708.22 518.49L710.42 526.15Z" fill="#171735"/>
<path d="M531.07 500.4C539.039 500.4 545.5 493.939 545.5 485.97C545.5 478.001 539.039 471.54 531.07 471.54C523.101 471.54 516.64 478.001 516.64 485.97C516.64 493.939 523.101 500.4 531.07 500.4Z" fill="#4F457C"/>
<path d="M794.76 323.93C796.141 323.93 797.26 322.811 797.26 321.43C797.26 320.049 796.141 318.93 794.76 318.93C793.379 318.93 792.26 320.049 792.26 321.43C792.26 322.811 793.379 323.93 794.76 323.93Z" fill="#88D1C3"/>
<path d="M463.83 470.43C466.359 470.43 468.41 468.379 468.41 465.85C468.41 463.321 466.359 461.27 463.83 461.27C461.301 461.27 459.25 463.321 459.25 465.85C459.25 468.379 461.301 470.43 463.83 470.43Z" fill="#88D1C3"/>
<path d="M491.33 380.04C492.871 380.04 494.12 378.791 494.12 377.25C494.12 375.709 492.871 374.46 491.33 374.46C489.789 374.46 488.54 375.709 488.54 377.25C488.54 378.791 489.789 380.04 491.33 380.04Z" fill="#88D1C3"/>
<path d="M548.2 396.26C549.299 396.26 550.19 395.369 550.19 394.27C550.19 393.171 549.299 392.28 548.2 392.28C547.101 392.28 546.21 393.171 546.21 394.27C546.21 395.369 547.101 396.26 548.2 396.26Z" fill="#88D1C3"/>
<path d="M531.07 306.96C533.18 306.96 534.89 305.25 534.89 303.14C534.89 301.03 533.18 299.32 531.07 299.32C528.96 299.32 527.25 301.03 527.25 303.14C527.25 305.25 528.96 306.96 531.07 306.96Z" fill="#88D1C3"/>
<path d="M792.76 480.27C795.682 480.27 798.05 477.902 798.05 474.98C798.05 472.058 795.682 469.69 792.76 469.69C789.838 469.69 787.47 472.058 787.47 474.98C787.47 477.902 789.838 480.27 792.76 480.27Z" fill="#88D1C3"/>
<path d="M857.14 499.82C858.073 499.82 858.83 499.063 858.83 498.13C858.83 497.197 858.073 496.44 857.14 496.44C856.207 496.44 855.45 497.197 855.45 498.13C855.45 499.063 856.207 499.82 857.14 499.82Z" fill="#88D1C3"/>
<path d="M866.7 356.61C867.633 356.61 868.39 355.853 868.39 354.92C868.39 353.987 867.633 353.23 866.7 353.23C865.767 353.23 865.01 353.987 865.01 354.92C865.01 355.853 865.767 356.61 866.7 356.61Z" fill="#88D1C3"/>
<path d="M605.11 601.26C607.01 601.26 608.55 599.72 608.55 597.82C608.55 595.92 607.01 594.38 605.11 594.38C603.21 594.38 601.67 595.92 601.67 597.82C601.67 599.72 603.21 601.26 605.11 601.26Z" fill="#88D1C3"/>
<path d="M681.94 617.07C682.895 617.07 683.67 616.295 683.67 615.34C683.67 614.385 682.895 613.61 681.94 613.61C680.984 613.61 680.21 614.385 680.21 615.34C680.21 616.295 680.984 617.07 681.94 617.07Z" fill="#88D1C3"/>
<path d="M705.36 498.13C708.31 494.989 712.384 493.144 716.69 493C718.158 492.961 719.589 492.528 720.832 491.747C722.076 490.966 723.087 489.865 723.76 488.56C733.702 469.799 736.091 447.946 730.44 427.48C728.66 421.85 721.7 422.96 720.44 430.79C719.18 438.62 719.27 445.33 715.44 448.73C711.61 452.13 704.25 446.91 699.59 451.93C696.59 455.18 696.12 462.05 698.06 467.76C700 473.47 703.74 489.32 680.22 501.94C662.56 511.42 662.62 533.14 687.92 523.67C691.464 521.876 694.873 519.828 698.12 517.54C699.368 516.675 700.362 515.492 700.998 514.113C701.635 512.735 701.891 511.211 701.74 509.7C701.517 507.626 701.723 505.529 702.346 503.538C702.969 501.548 703.995 499.707 705.36 498.13V498.13Z" fill="#88D1C3"/>
<path d="M779.57 555.99C780.962 555.99 782.09 554.862 782.09 553.47C782.09 552.078 780.962 550.95 779.57 550.95C778.178 550.95 777.05 552.078 777.05 553.47C777.05 554.862 778.178 555.99 779.57 555.99Z" fill="#88D1C3"/>
<path d="M695.6 282.94C696.821 282.94 697.81 281.951 697.81 280.73C697.81 279.509 696.821 278.52 695.6 278.52C694.379 278.52 693.39 279.509 693.39 280.73C693.39 281.951 694.379 282.94 695.6 282.94Z" fill="#88D1C3"/>
<path d="M672.616 471.836C676.265 471.018 678.621 467.676 677.88 464.373C677.138 461.069 673.58 459.055 669.932 459.874C666.283 460.693 663.927 464.034 664.668 467.338C665.41 470.641 668.968 472.655 672.616 471.836Z" fill="#88D1C3"/>
<path d="M553.78 516.92C556.243 516.92 558.24 514.923 558.24 512.46C558.24 509.997 556.243 508 553.78 508C551.317 508 549.32 509.997 549.32 512.46C549.32 514.923 551.317 516.92 553.78 516.92Z" fill="#88D1C3"/>
<path d="M615.35 559.78C616.018 559.78 616.56 559.238 616.56 558.57C616.56 557.902 616.018 557.36 615.35 557.36C614.682 557.36 614.14 557.902 614.14 558.57C614.14 559.238 614.682 559.78 615.35 559.78Z" fill="#88D1C3"/>
<path d="M535.65 568.93C536.749 568.93 537.64 568.039 537.64 566.94C537.64 565.841 536.749 564.95 535.65 564.95C534.551 564.95 533.66 565.841 533.66 566.94C533.66 568.039 534.551 568.93 535.65 568.93Z" fill="#88D1C3"/>
<path opacity="0.3" d="M690.65 377.09C704.33 401.42 695.44 438.93 667.65 466.74C639.86 494.55 602.33 503.44 578 489.74C584.21 500.993 592.951 510.648 603.533 517.942C614.115 525.237 626.248 529.971 638.974 531.772C651.7 533.572 664.67 532.39 676.861 528.317C689.051 524.245 700.127 517.394 709.216 508.306C718.304 499.217 725.155 488.141 729.227 475.951C733.3 463.76 734.482 450.79 732.682 438.064C730.881 425.338 726.147 413.205 718.852 402.623C711.558 392.041 701.903 383.3 690.65 377.09V377.09Z" fill="#171735"/>
<path d="M758.2 504.25C759.139 504.25 759.9 503.489 759.9 502.55C759.9 501.611 759.139 500.85 758.2 500.85C757.261 500.85 756.5 501.611 756.5 502.55C756.5 503.489 757.261 504.25 758.2 504.25Z" fill="#88D1C3"/>
<path d="M795.7 365.85C791.29 358.23 772.65 357.01 755.7 365.93C777.32 362.79 784.27 367.32 786.48 371.16C794.32 384.73 753.48 433.51 669.29 482.16C585.1 530.81 522.42 541.74 514.59 528.16C509.5 519.35 524.94 495.68 559.48 466.83C558.7 462.675 558.205 458.472 558 454.25C549.041 461.385 540.456 468.979 532.28 477C515.04 494.11 496.37 517.79 505.39 533.42C509.97 541.34 519.89 544.13 531.61 544.13C543.02 544.13 556.14 541.49 567.69 538.34C598.69 529.9 636.69 513.19 674.61 491.34C712.53 469.49 745.99 444.91 768.81 422.27C786.05 405.16 804.72 381.48 795.7 365.85Z" fill="#4F457C"/>
<path d="M613.592 419.612C616.363 413.392 615.133 406.801 610.845 404.89C606.556 402.98 600.834 406.474 598.063 412.695C595.292 418.915 596.522 425.506 600.811 427.417C605.099 429.327 610.821 425.833 613.592 419.612Z" fill="#88D1C3"/>
<path d="M652.79 430.81C655.093 430.81 656.96 428.943 656.96 426.64C656.96 424.337 655.093 422.47 652.79 422.47C650.487 422.47 648.62 424.337 648.62 426.64C648.62 428.943 650.487 430.81 652.79 430.81Z" fill="#88D1C3"/>
<path d="M584.21 246.73C585.696 246.73 586.9 245.526 586.9 244.04C586.9 242.554 585.696 241.35 584.21 241.35C582.724 241.35 581.52 242.554 581.52 244.04C581.52 245.526 582.724 246.73 584.21 246.73Z" fill="#88D1C3"/>
<path d="M674.92 571.27C675.566 571.27 676.09 570.746 676.09 570.1C676.09 569.454 675.566 568.93 674.92 568.93C674.274 568.93 673.75 569.454 673.75 570.1C673.75 570.746 674.274 571.27 674.92 571.27Z" fill="#88D1C3"/>
<path d="M612.7 491.02C617.24 491.02 620.92 486.189 620.92 480.23C620.92 474.271 617.24 469.44 612.7 469.44C608.16 469.44 604.48 474.271 604.48 480.23C604.48 486.189 608.16 491.02 612.7 491.02Z" fill="#4F457C"/>
<path d="M1043.14 544.12L1034.29 555C1033.89 555.492 1033.38 555.888 1032.81 556.16C1032.23 556.432 1031.61 556.573 1030.97 556.573C1030.33 556.573 1029.71 556.432 1029.13 556.16C1028.56 555.888 1028.05 555.492 1027.65 555L1018.8 544.14C1018.28 543.513 1017.96 542.751 1017.86 541.945C1017.76 541.138 1017.89 540.32 1018.24 539.586C1018.59 538.852 1019.14 538.232 1019.82 537.799C1020.51 537.366 1021.31 537.137 1022.12 537.14H1039.82C1040.63 537.14 1041.42 537.37 1042.11 537.802C1042.79 538.234 1043.34 538.851 1043.68 539.582C1044.03 540.312 1044.16 541.126 1044.07 541.93C1043.97 542.733 1043.65 543.492 1043.14 544.12V544.12Z" fill="#4F457C"/>
<path d="M1030.97 478.81V520.9" stroke="#4F457C" stroke-width="5" stroke-miterlimit="10" stroke-linecap="round"/>
<path d="M289 481.87L280.19 471C279.79 470.505 279.284 470.106 278.71 469.832C278.135 469.558 277.507 469.415 276.87 469.415C276.234 469.415 275.605 469.558 275.031 469.832C274.456 470.106 273.95 470.505 273.55 471L264.7 481.85C264.184 482.477 263.857 483.239 263.757 484.045C263.657 484.852 263.789 485.67 264.138 486.404C264.486 487.138 265.036 487.758 265.723 488.191C266.411 488.625 267.207 488.853 268.02 488.85H285.72C286.526 488.842 287.313 488.607 287.991 488.172C288.669 487.737 289.21 487.12 289.553 486.39C289.896 485.661 290.025 484.85 289.928 484.051C289.83 483.251 289.508 482.495 289 481.87V481.87Z" fill="#4F457C"/>
<path d="M276.87 544.82V502.73" stroke="#4F457C" stroke-width="5" stroke-miterlimit="10" stroke-linecap="round"/>
<defs>
<radialGradient id="paint0_radial_1591_5036" cx="0" cy="0" r="1" gradientUnits="userSpaceOnUse" gradientTransform="translate(650.55 449.65) scale(247.01)">
<stop stop-color="#88D1C3" stop-opacity="0.5"/>
<stop offset="0.16" stop-color="#81C5BA" stop-opacity="0.47"/>
<stop offset="0.39" stop-color="#6DA5A1" stop-opacity="0.38"/>
<stop offset="0.65" stop-color="#4D6F78" stop-opacity="0.24"/>
<stop offset="0.95" stop-color="#202540" stop-opacity="0.04"/>
<stop offset="1" stop-color="#171735" stop-opacity="0"/>
</radialGradient>
</defs>
</svg>
